<?xml version="1.0" encoding="UTF-8" standalone="no"?>
<!-- Created with Inkscape (http://www.inkscape.org/) -->

<svg
   version="1.1"
   id="svg1"
   width="794.55066"
   height="1123.6533"
   viewBox="0 0 794.55066 1123.6533"
   sodipodi:docname="LigaMatematycznaMatuskiego_Liceum_Zestaw3_2022_2023_page0.pdf"
   xmlns:inkscape="http://www.inkscape.org/namespaces/inkscape"
   xmlns:sodipodi="http://sodipodi.sourceforge.net/DTD/sodipodi-0.dtd"
   xmlns="http://www.w3.org/2000/svg"
   xmlns:svg="http://www.w3.org/2000/svg">
  <defs
     id="defs1" />
  <sodipodi:namedview
     id="namedview1"
     pagecolor="#ffffff"
     bordercolor="#000000"
     borderopacity="0.25"
     inkscape:showpageshadow="2"
     inkscape:pageopacity="0.0"
     inkscape:pagecheckerboard="0"
     inkscape:deskcolor="#d1d1d1">
    <inkscape:page
       x="0"
       y="0"
       inkscape:label="1"
       id="page1"
       width="794.55066"
       height="1123.6533"
       margin="0"
       bleed="0" />
  </sodipodi:namedview>
  <g
     id="g1"
     inkscape:groupmode="layer"
     inkscape:label="1">
    <g
       id="g2"
       aria-label="LIGAMATEMATYCZNA&#10;im.ZdzisªawaMatuskiego&#10;GRUDZIE2022&#10;SZKOAPONADPODSTAWOWA&#10;ZADANIE1.&#10;Znajd¹wszystkiepary(p,q)liczbpierwszychtakich,»ep+q=(p−q)&#10;3&#10;.&#10;ZADANIE2.&#10;Wtrójk¡tABCwspisanookr¡g,przyczym|AC|=5,|AB|=6,|BC|=3.NabokuAC&#10;wybranopunktD,nabokuABwybranopunktEwtakisposób,»eodcinekEDjeststyczny&#10;dookr¦gu.Obliczobwódtrójk¡taAED.&#10;ZADANIE3.&#10;Dodatnieliczbyrzeczywistea,b,cspeªniaj¡warunek&#10;(a+b+c)&#10;2"
       transform="matrix(1.3333333,0,0,1.3333333,274.724,56.069333)">
      <path
         id="path2"
         d="m -25.864289,112.72046 c 0,-0.0352 0,-0.0586 -0.210938,-0.26953 -1.195312,-1.20703 -1.863281,-3.17578 -1.863281,-5.61328 0,-2.32031 0.5625,-4.3125 1.945313,-5.73047 0.128906,-0.10547 0.128906,-0.12891 0.128906,-0.16406 0,-0.0703 -0.07031,-0.0937 -0.117188,-0.0937 -0.152343,0 -1.136718,0.85547 -1.722656,2.02734 -0.609375,1.20703 -0.878906,2.49609 -0.878906,3.96094 0,1.0664 0.164062,2.48437 0.785156,3.76172 0.703125,1.4414 1.6875,2.21484 1.816406,2.21484 0.04687,0 0.117188,-0.0234 0.117188,-0.0937 z m 0,0"
         style="fill:#000000;fill-opacity:1;fill-rule:nonzero;stroke:none" />
      <path
         id="path3"
         d="m -24.686555,111.33765 c -0.08203,0.35156 -0.128906,0.44531 -0.621093,0.44531 -0.140625,0 -0.269532,0 -0.269532,0.23438 0,0.0234 0.01172,0.11718 0.152344,0.11718 0.152344,0 0.316406,-0.0234 0.46875,-0.0234 h 0.515625 c 0.257813,0 0.867188,0.0234 1.113281,0.0234 0.07031,0 0.222657,0 0.222657,-0.21093 0,-0.14063 -0.09375,-0.14063 -0.292969,-0.14063 -0.550781,0 -0.585938,-0.082 -0.585938,-0.17578 0,-0.14063 0.539063,-2.20313 0.609375,-2.47266 0.128907,0.32813 0.457032,0.79688 1.078125,0.79688 1.347657,0 2.8125,-1.75781 2.8125,-3.51563 0,-1.10156 -0.621093,-1.875 -1.523437,-1.875 -0.761719,0 -1.40625,0.73828 -1.546875,0.91407 -0.09375,-0.59766 -0.550781,-0.91407 -1.03125,-0.91407 -0.351563,0 -0.621094,0.16407 -0.855469,0.6211 -0.210937,0.43359 -0.375,1.16015 -0.375,1.20703 0,0.0469 0.04687,0.10547 0.128906,0.10547 0.09375,0 0.105469,-0.0117 0.175782,-0.28125 0.175781,-0.70313 0.410156,-1.40625 0.890625,-1.40625 0.269531,0 0.363281,0.1875 0.363281,0.53906 0,0.29297 -0.03516,0.41016 -0.08203,0.63281 z m 2.0625,-5.25 c 0.08203,-0.33985 0.421875,-0.67969 0.609375,-0.85547 0.140625,-0.11719 0.527344,-0.44531 0.984375,-0.44531 0.527344,0 0.761719,0.51562 0.761719,1.13672 0,0.57421 -0.328125,1.93359 -0.632812,2.55468 -0.292969,0.64453 -0.84375,1.21875 -1.394532,1.21875 -0.808593,0 -0.949218,-1.03125 -0.949218,-1.07812 0,-0.0352 0.02344,-0.12891 0.03516,-0.1875 z m 5.63086,3.77344 c 0,-0.69141 -0.222657,-1.20704 -0.714844,-1.20704 -0.386719,0 -0.574219,0.31641 -0.574219,0.57422 0,0.25782 0.175781,0.58594 0.585938,0.58594 0.152343,0 0.28125,-0.0469 0.386718,-0.15234 0.02344,-0.0234 0.03516,-0.0234 0.04687,-0.0234 0.03516,0 0.03516,0.16406 0.03516,0.22266 0,0.39843 -0.08203,1.17187 -0.773438,1.94531 -0.128906,0.15234 -0.128906,0.17578 -0.128906,0.19922 0,0.0586 0.05859,0.11718 0.117187,0.11718 0.09375,0 1.019532,-0.89062 1.019532,-2.26171 z m 8.1884763,-5.20313 c 0,-0.0586 -0.046875,-0.10547 -0.1054688,-0.10547 -0.1054687,0 -0.5625,0.4336 -0.796875,0.85547 C -9.918,104.8689 -10.293,104.54077 -10.808625,104.54077 c -1.347656,0 -2.800781,1.7461 -2.800781,3.51563 0,1.18359 0.691406,1.875 1.5,1.875 0.632812,0 1.160156,-0.48047 1.417969,-0.75 l 0.01172,0.0117 c -0.152343,0.58593 -0.304687,1.18359 -0.457031,1.79297 l -0.105469,0.43359 c -0.105468,0.35156 -0.292968,0.35156 -0.855468,0.36328 -0.128907,0 -0.246094,0 -0.246094,0.23438 0,0.082 0.07031,0.11718 0.152344,0.11718 0.164062,0 0.386718,-0.0234 0.550781,-0.0234 h 1.21875 c 0.175781,0 0.386719,0.0234 0.5624998,0.0234 0.070312,0 0.2109375,0 0.2109375,-0.22265 0,-0.12891 -0.09375,-0.12891 -0.2695313,-0.12891 -0.5625,0 -0.597656,-0.082 -0.597656,-0.17578 0,-0.0586 0.01172,-0.0703 0.04687,-0.22266 z m -1.6875003,3.73828 c -0.05859,0.19922 -0.05859,0.22266 -0.222656,0.44531 -0.269531,0.33985 -0.796875,0.85547 -1.359375,0.85547 -0.480469,0 -0.761719,-0.44531 -0.761719,-1.14843 0,-0.65625 0.375,-1.99219 0.597657,-2.4961 0.410156,-0.84375 0.972656,-1.26562 1.429687,-1.26562 0.796875,0 0.9492188,0.97265 0.9492188,1.0664 0,0.0117 -0.035156,0.17578 -0.046875,0.19922 z m 0,0"
         style="fill:#000000;fill-opacity:1;fill-rule:nonzero;stroke:none" />
      <path
         id="path4"
         d="m -5.0869453,106.83765 c 0,-0.91406 -0.1289063,-2.39063 -0.796875,-3.77344 -0.703125,-1.44141 -1.6757813,-2.21484 -1.8164063,-2.21484 -0.046875,0 -0.1054687,0.0234 -0.1054687,0.0937 0,0.0352 0,0.0586 0.1992187,0.26953 1.1953125,1.20703 1.875,3.17578 1.875,5.61328 0,2.32031 -0.5625,4.3125 -1.9570312,5.73047 -0.1171875,0.10547 -0.1171875,0.1289 -0.1171875,0.16406 0,0.0703 0.058594,0.0937 0.1054687,0.0937 0.1640625,0 1.1367188,-0.85547 1.7226563,-2.02734 0.609375,-1.21875 0.890625,-2.51953 0.890625,-3.94922 z m 0,0"
         style="fill:#000000;fill-opacity:1;fill-rule:nonzero;stroke:none" />
      <path
         id="path5"
         d="m 139.70993,111.33765 c -0.082,0.35156 -0.12891,0.44531 -0.62109,0.44531 -0.14063,0 -0.26954,0 -0.26954,0.23438 0,0.0234 0.0117,0.11718 0.15235,0.11718 0.15234,0 0.3164,-0.0234 0.46875,-0.0234 h 0.51562 c 0.25782,0 0.86719,0.0234 1.11328,0.0234 0.0703,0 0.22266,0 0.22266,-0.21093 0,-0.14063 -0.0937,-0.14063 -0.29297,-0.14063 -0.55078,0 -0.58594,-0.082 -0.58594,-0.17578 0,-0.14063 0.53907,-2.20313 0.60938,-2.47266 0.12891,0.32813 0.45703,0.79688 1.07812,0.79688 1.34766,0 2.8125,-1.75781 2.8125,-3.51563 0,-1.10156 -0.62109,-1.875 -1.52343,-1.875 -0.76172,0 -1.40625,0.73828 -1.54688,0.91407 -0.0937,-0.59766 -0.55078,-0.91407 -1.03125,-0.91407 -0.35156,0 -0.62109,0.16407 -0.85547,0.6211 -0.21093,0.43359 -0.375,1.16015 -0.375,1.20703 0,0.0469 0.0469,0.10547 0.12891,0.10547 0.0937,0 0.10547,-0.0117 0.17578,-0.28125 0.17578,-0.70313 0.41016,-1.40625 0.89063,-1.40625 0.26953,0 0.36328,0.1875 0.36328,0.53906 0,0.29297 -0.0352,0.41016 -0.082,0.63281 z m 2.0625,-5.25 c 0.082,-0.33985 0.42187,-0.67969 0.60937,-0.85547 0.14063,-0.11719 0.52735,-0.44531 0.98438,-0.44531 0.52734,0 0.76172,0.51562 0.76172,1.13672 0,0.57421 -0.32813,1.93359 -0.63281,2.55468 -0.29297,0.64453 -0.84375,1.21875 -1.39454,1.21875 -0.80859,0 -0.94921,-1.03125 -0.94921,-1.07812 0,-0.0352 0.0234,-0.12891 0.0351,-0.1875 z m 0,0"
         style="fill:#000000;fill-opacity:1;fill-rule:nonzero;stroke:none" />
      <path
         id="path6"
         d="m 152.49509,107.04859 h 3.30468 c 0.16407,0 0.375,0 0.375,-0.21094 0,-0.22266 -0.19922,-0.22266 -0.375,-0.22266 h -3.30468 v -3.30469 c 0,-0.16406 0,-0.38671 -0.21094,-0.38671 -0.23438,0 -0.23438,0.21093 -0.23438,0.38671 v 3.30469 h -3.29297 c -0.17578,0 -0.38671,0 -0.38671,0.21094 0,0.22266 0.19921,0.22266 0.38671,0.22266 h 3.29297 v 3.30468 c 0,0.16407 0,0.38672 0.22266,0.38672 0.22266,0 0.22266,-0.21094 0.22266,-0.38672 z m 0,0"
         style="fill:#000000;fill-opacity:1;fill-rule:nonzero;stroke:none" />
      <path
         id="path7"
         d="m 164.76169,104.65796 c 0,-0.0586 -0.0469,-0.10547 -0.10547,-0.10547 -0.10547,0 -0.5625,0.4336 -0.79688,0.85547 -0.21093,-0.53906 -0.58593,-0.86719 -1.10156,-0.86719 -1.34765,0 -2.80078,1.7461 -2.80078,3.51563 0,1.18359 0.69141,1.875 1.5,1.875 0.63281,0 1.16016,-0.48047 1.41797,-0.75 l 0.0117,0.0117 c -0.15235,0.58593 -0.30469,1.18359 -0.45703,1.79297 l -0.10547,0.43359 c -0.10547,0.35156 -0.29297,0.35156 -0.85547,0.36328 -0.12891,0 -0.24609,0 -0.24609,0.23438 0,0.082 0.0703,0.11718 0.15234,0.11718 0.16406,0 0.38672,-0.0234 0.55078,-0.0234 h 1.21875 c 0.17578,0 0.38672,0.0234 0.5625,0.0234 0.0703,0 0.21094,0 0.21094,-0.22265 0,-0.12891 -0.0937,-0.12891 -0.26953,-0.12891 -0.5625,0 -0.59766,-0.082 -0.59766,-0.17578 0,-0.0586 0.0117,-0.0703 0.0469,-0.22266 z m -1.6875,3.73828 c -0.0586,0.19922 -0.0586,0.22266 -0.22266,0.44531 -0.26953,0.33985 -0.79687,0.85547 -1.35937,0.85547 -0.48047,0 -0.76172,-0.44531 -0.76172,-1.14843 0,-0.65625 0.375,-1.99219 0.59765,-2.4961 0.41016,-0.84375 0.97266,-1.26562 1.42969,-1.26562 0.79688,0 0.94922,0.97265 0.94922,1.0664 0,0.0117 -0.0352,0.17578 -0.0469,0.19922 z m 0,0"
         style="fill:#000000;fill-opacity:1;fill-rule:nonzero;stroke:none" />
      <path
         id="path8"
         d="m 176.50095,105.94702 c 0.16406,0 0.375,0 0.375,-0.22265 0,-0.22266 -0.19922,-0.22266 -0.375,-0.22266 h -7.04297 c -0.17578,0 -0.38672,0 -0.38672,0.21094 0,0.23437 0.19922,0.23437 0.38672,0.23437 z m 0,2.21485 c 0.16406,0 0.375,0 0.375,-0.21094 0,-0.23438 -0.19922,-0.23438 -0.375,-0.23438 h -7.04297 c -0.17578,0 -0.38672,0 -0.38672,0.22266 0,0.22266 0.19922,0.22266 0.38672,0.22266 z m 8.24414,4.55859 c 0,-0.0352 0,-0.0586 -0.21094,-0.26953 -1.19531,-1.20703 -1.86328,-3.17578 -1.86328,-5.61328 0,-2.32031 0.5625,-4.3125 1.94531,-5.73047 0.12891,-0.10547 0.12891,-0.12891 0.12891,-0.16406 0,-0.0703 -0.0703,-0.0937 -0.11719,-0.0937 -0.15235,0 -1.13672,0.85547 -1.72266,2.02734 -0.60937,1.20703 -0.8789,2.49609 -0.8789,3.96094 0,1.0664 0.16406,2.48437 0.78515,3.76172 0.70313,1.4414 1.6875,2.21484 1.81641,2.21484 0.0469,0 0.11719,-0.0234 0.11719,-0.0937 z m 0,0"
         style="fill:#000000;fill-opacity:1;fill-rule:nonzero;stroke:none" />
      <path
         id="path9"
         d="m 185.91989,111.33765 c -0.082,0.35156 -0.12891,0.44531 -0.62109,0.44531 -0.14063,0 -0.26953,0 -0.26953,0.23438 0,0.0234 0.0117,0.11718 0.15234,0.11718 0.15234,0 0.31641,-0.0234 0.46875,-0.0234 h 0.51562 c 0.25782,0 0.86719,0.0234 1.11329,0.0234 0.0703,0 0.22265,0 0.22265,-0.21093 0,-0.14063 -0.0937,-0.14063 -0.29297,-0.14063 -0.55078,0 -0.58593,-0.082 -0.58593,-0.17578 0,-0.14063 0.53906,-2.20313 0.60937,-2.47266 0.12891,0.32813 0.45703,0.79688 1.07813,0.79688 1.34765,0 2.8125,-1.75781 2.8125,-3.51563 0,-1.10156 -0.6211,-1.875 -1.52344,-1.875 -0.76172,0 -1.40625,0.73828 -1.54688,0.91407 -0.0937,-0.59766 -0.55078,-0.91407 -1.03125,-0.91407 -0.35156,0 -0.62109,0.16407 -0.85547,0.6211 -0.21093,0.43359 -0.375,1.16015 -0.375,1.20703 0,0.0469 0.0469,0.10547 0.12891,0.10547 0.0937,0 0.10547,-0.0117 0.17578,-0.28125 0.17578,-0.70313 0.41016,-1.40625 0.89063,-1.40625 0.26953,0 0.36328,0.1875 0.36328,0.53906 0,0.29297 -0.0352,0.41016 -0.082,0.63281 z m 2.0625,-5.25 c 0.082,-0.33985 0.42188,-0.67969 0.60938,-0.85547 0.14062,-0.11719 0.52734,-0.44531 0.98437,-0.44531 0.52734,0 0.76172,0.51562 0.76172,1.13672 0,0.57421 -0.32813,1.93359 -0.63281,2.55468 -0.29297,0.64453 -0.84375,1.21875 -1.39453,1.21875 -0.8086,0 -0.94922,-1.03125 -0.94922,-1.07812 0,-0.0352 0.0234,-0.12891 0.0351,-0.1875 z m 0,0"
         style="fill:#000000;fill-opacity:1;fill-rule:nonzero;stroke:none" />
      <path
         id="path10"
         d="m 201.83688,107.0603 c 0.17578,0 0.39844,0 0.39844,-0.23437 0,-0.23438 -0.22266,-0.23438 -0.39844,-0.23438 h -6.51562 c -0.16406,0 -0.38672,0 -0.38672,0.23438 0,0.23437 0.22266,0.23437 0.38672,0.23437 z m 0,0"
         style="fill:#000000;fill-opacity:1;fill-rule:nonzero;stroke:none" />
      <path
         id="path11"
         d="m 211.16501,104.65796 c 0,-0.0586 -0.0469,-0.10547 -0.10547,-0.10547 -0.10547,0 -0.5625,0.4336 -0.79688,0.85547 -0.21093,-0.53906 -0.58593,-0.86719 -1.10156,-0.86719 -1.34765,0 -2.80078,1.7461 -2.80078,3.51563 0,1.18359 0.69141,1.875 1.5,1.875 0.63281,0 1.16016,-0.48047 1.41797,-0.75 l 0.0117,0.0117 c -0.15235,0.58593 -0.30469,1.18359 -0.45703,1.79297 l -0.10547,0.43359 c -0.10547,0.35156 -0.29297,0.35156 -0.85547,0.36328 -0.12891,0 -0.24609,0 -0.24609,0.23438 0,0.082 0.0703,0.11718 0.15234,0.11718 0.16406,0 0.38672,-0.0234 0.55078,-0.0234 h 1.21875 c 0.17578,0 0.38672,0.0234 0.5625,0.0234 0.0703,0 0.21094,0 0.21094,-0.22265 0,-0.12891 -0.0937,-0.12891 -0.26953,-0.12891 -0.5625,0 -0.59766,-0.082 -0.59766,-0.17578 0,-0.0586 0.0117,-0.0703 0.0469,-0.22266 z m -1.6875,3.73828 c -0.0586,0.19922 -0.0586,0.22266 -0.22266,0.44531 -0.26953,0.33985 -0.79687,0.85547 -1.35937,0.85547 -0.48047,0 -0.76172,-0.44531 -0.76172,-1.14843 0,-0.65625 0.375,-1.99219 0.59765,-2.4961 0.41016,-0.84375 0.97266,-1.26562 1.42969,-1.26562 0.79688,0 0.94922,0.97265 0.94922,1.0664 0,0.0117 -0.0352,0.17578 -0.0469,0.19922 z m 0,0"
         style="fill:#000000;fill-opacity:1;fill-rule:nonzero;stroke:none" />
      <path
         id="path12"
         d="m 214.88571,106.83765 c 0,-0.91406 -0.12891,-2.39063 -0.79687,-3.77344 -0.70313,-1.44141 -1.67579,-2.21484 -1.81641,-2.21484 -0.0469,0 -0.10547,0.0234 -0.10547,0.0937 0,0.0352 0,0.0586 0.19922,0.26953 1.19531,1.20703 1.875,3.17578 1.875,5.61328 0,2.32031 -0.5625,4.3125 -1.95703,5.73047 -0.11719,0.10547 -0.11719,0.1289 -0.11719,0.16406 0,0.0703 0.0586,0.0937 0.10547,0.0937 0.16406,0 1.13672,-0.85547 1.72266,-2.02734 0.60937,-1.21875 0.89062,-2.51953 0.89062,-3.94922 z m 0,0"
         style="fill:#000000;fill-opacity:1;fill-rule:nonzero;stroke:none" />
      <path
         id="path13"
         d="m 218.07907,102.81519 c 0.63281,0 1.03125,0.45703 1.03125,1.30078 0,0.99609 -0.57422,1.28906 -0.99609,1.28906 -0.4336,0 -1.03125,-0.16406 -1.3125,-0.58594 0.29297,0 0.49218,-0.17578 0.49218,-0.44531 0,-0.25781 -0.1875,-0.43359 -0.44531,-0.43359 -0.21094,0 -0.43359,0.1289 -0.43359,0.45703 0,0.75 0.80859,1.24219 1.72265,1.24219 1.05469,0 1.79297,-0.72657 1.79297,-1.52344 0,-0.66797 -0.51562,-1.26563 -1.33593,-1.44141 0.63281,-0.22265 1.10156,-0.77343 1.10156,-1.40625 0,-0.63281 -0.71485,-1.08984 -1.54688,-1.08984 -0.85547,0 -1.5,0.45703 -1.5,1.06641 0,0.29296 0.19922,0.42187 0.41016,0.42187 0.24609,0 0.41016,-0.17578 0.41016,-0.41016 0,-0.29296 -0.25782,-0.39843 -0.4336,-0.41015 0.33985,-0.4336 0.94922,-0.46875 1.08985,-0.46875 0.21093,0 0.80859,0.0703 0.80859,0.89062 0,0.5625 -0.22266,0.89063 -0.33984,1.01953 -0.23438,0.2461 -0.42188,0.25782 -0.90235,0.29297 -0.15234,0.0117 -0.22265,0.0234 -0.22265,0.11719 0,0.11719 0.0703,0.11719 0.21093,0.11719 z m 0,0"
         style="fill:#000000;fill-opacity:1;fill-rule:nonzero;stroke:none" />
      <path
         id="path14"
         d="m -88.849641,151.55347 c -0.410156,0.70312 -0.820312,0.9375 -1.394531,0.97266 -0.128906,0.0117 -0.222656,0.0117 -0.222656,0.23437 0,0.0703 0.05859,0.11719 0.140625,0.11719 0.210937,0 0.75,-0.0234 0.972656,-0.0234 0.339844,0 0.726563,0.0234 1.054688,0.0234 0.07031,0 0.222656,0 0.222656,-0.22266 0,-0.11719 -0.09375,-0.1289 -0.175781,-0.1289 -0.269532,-0.0234 -0.492188,-0.11719 -0.492188,-0.39844 0,-0.17578 0.07031,-0.30469 0.222656,-0.5625 l 0.902344,-1.51172 h 3.058594 c 0.01172,0.10547 0.01172,0.21094 0.02344,0.31641 0.03516,0.30468 0.175782,1.54687 0.175782,1.78125 0,0.35156 -0.609375,0.375 -0.796875,0.375 -0.140625,0 -0.269532,0 -0.269532,0.22265 0,0.12891 0.105469,0.12891 0.175782,0.12891 0.210937,0 0.445312,-0.0234 0.65625,-0.0234 h 0.679687 c 0.726563,0 1.253906,0.0234 1.265625,0.0234 0.08203,0 0.210938,0 0.210938,-0.22266 0,-0.1289 -0.105469,-0.1289 -0.28125,-0.1289 -0.65625,0 -0.667969,-0.10547 -0.714844,-0.45704 l -0.726563,-7.46484 c -0.02344,-0.23437 -0.07031,-0.25781 -0.199218,-0.25781 -0.117188,0 -0.1875,0.0234 -0.304688,0.19922 z m 1.441407,-1.83984 2.402343,-4.01954 0.410157,4.01954 z m 9.676757,-4.1836 c 0.117188,-0.44531 0.164063,-0.46875 0.621094,-0.46875 h 1.558594 c 1.347656,0 1.347656,1.14844 1.347656,1.25391 0,0.97265 -0.960937,2.20312 -2.542969,2.20312 h -1.722656 z m 2.027344,3.08203 c 1.300781,-0.24609 2.484375,-1.14843 2.484375,-2.25 0,-0.92578 -0.832031,-1.65234 -2.179687,-1.65234 h -3.832032 c -0.234375,0 -0.339843,0 -0.339843,0.23437 0,0.11719 0.105468,0.11719 0.292968,0.11719 0.726563,0 0.726563,0.0937 0.726563,0.22266 0,0.0234 0,0.0937 -0.04687,0.28125 l -1.617188,6.43359 c -0.105468,0.41016 -0.128906,0.52735 -0.960937,0.52735 -0.234375,0 -0.351563,0 -0.351563,0.22265 0,0.12891 0.07031,0.12891 0.304688,0.12891 h 4.101562 c 1.828125,0 3.246094,-1.38281 3.246094,-2.58985 0,-0.98437 -0.867187,-1.58203 -1.828125,-1.67578 z m -1.699219,3.91407 h -1.617187 c -0.164063,0 -0.1875,0 -0.257813,-0.0117 -0.128906,-0.0117 -0.152343,-0.0352 -0.152343,-0.12891 0,-0.082 0.03516,-0.15234 0.05859,-0.25781 l 0.832032,-3.375 h 2.25 c 1.40625,0 1.40625,1.3125 1.40625,1.40625 0,1.14844 -1.042969,2.36719 -2.519532,2.36719 z m 13.722657,-7.95704 c 0,-0.10546 -0.08203,-0.10546 -0.105469,-0.10546 -0.02344,0 -0.07031,0 -0.175781,0.11718 l -0.820313,1.00782 c -0.421875,-0.71485 -1.078125,-1.125 -1.96875,-1.125 -2.589844,0 -5.261719,2.61328 -5.261719,5.42578 0,1.99218 1.394532,3.23437 3.140625,3.23437 0.960938,0 1.792969,-0.39844 2.484375,-0.98437 1.042969,-0.87891 1.359375,-2.03907 1.359375,-2.13282 0,-0.10546 -0.09375,-0.10546 -0.140625,-0.10546 -0.105468,0 -0.117187,0.0703 -0.140625,0.11718 -0.550781,1.86328 -2.15625,2.76563 -3.351562,2.76563 -1.277344,0 -2.367188,-0.82031 -2.367188,-2.50781 0,-0.38672 0.117188,-2.46094 1.464844,-4.03125 0.65625,-0.76172 1.78125,-1.44141 2.917969,-1.44141 1.3125,0 1.898437,1.08984 1.898437,2.30859 0,0.31641 -0.03516,0.57422 -0.03516,0.6211 0,0.11718 0.117188,0.11718 0.152344,0.11718 0.140625,0 0.152344,-0.0117 0.199219,-0.23437 z m 0,0"
         style="fill:#000000;fill-opacity:1;fill-rule:nonzero;stroke:none" />
      <path
         id="path15"
         d="m 90.30368,144.31128 c 0,-0.17578 0,-0.39844 -0.234375,-0.39844 -0.246094,0 -0.246094,0.22266 -0.246094,0.39844 v 11.15625 c 0,0.17578 0,0.39844 0.246094,0.39844 0.234375,0 0.234375,-0.22266 0.234375,-0.39844 z m 0,0"
         style="fill:#000000;fill-opacity:1;fill-rule:nonzero;stroke:none" />
      <path
         id="path16"
         d="m 93.754852,151.55347 c -0.410157,0.70312 -0.820313,0.9375 -1.394532,0.97266 -0.128906,0.0117 -0.222656,0.0117 -0.222656,0.23437 0,0.0703 0.05859,0.11719 0.140625,0.11719 0.210938,0 0.75,-0.0234 0.972656,-0.0234 0.339844,0 0.726563,0.0234 1.054688,0.0234 0.07031,0 0.222656,0 0.222656,-0.22266 0,-0.11719 -0.09375,-0.1289 -0.175781,-0.1289 -0.269531,-0.0234 -0.492188,-0.11719 -0.492188,-0.39844 0,-0.17578 0.07031,-0.30469 0.222657,-0.5625 l 0.902343,-1.51172 h 3.058594 c 0.01172,0.10547 0.01172,0.21094 0.02344,0.31641 0.03516,0.30468 0.175781,1.54687 0.175781,1.78125 0,0.35156 -0.609375,0.375 -0.796875,0.375 -0.140625,0 -0.269531,0 -0.269531,0.22265 0,0.12891 0.105468,0.12891 0.175781,0.12891 0.210937,0 0.445312,-0.0234 0.65625,-0.0234 h 0.679687 c 0.726563,0 1.253907,0.0234 1.265625,0.0234 0.08203,0 0.210938,0 0.210938,-0.22266 0,-0.1289 -0.10547,-0.1289 -0.28125,-0.1289 -0.65625,0 -0.667969,-0.10547 -0.714844,-0.45704 l -0.726562,-7.46484 c -0.02344,-0.23437 -0.07031,-0.25781 -0.199219,-0.25781 -0.117188,0 -0.1875,0.0234 -0.304688,0.19922 z m 1.441406,-1.83984 2.402344,-4.01954 0.410156,4.01954 z m 14.235352,-5.14454 c 0,-0.10546 -0.082,-0.10546 -0.10547,-0.10546 -0.0234,0 -0.0703,0 -0.17578,0.11718 l -0.82031,1.00782 c -0.42188,-0.71485 -1.07813,-1.125 -1.96875,-1.125 -2.58985,0 -5.26172,2.61328 -5.26172,5.42578 0,1.99218 1.39453,3.23437 3.14062,3.23437 0.96094,0 1.79297,-0.39844 2.48438,-0.98437 1.04297,-0.87891 1.35937,-2.03907 1.35937,-2.13282 0,-0.10546 -0.0937,-0.10546 -0.14062,-0.10546 -0.10547,0 -0.11719,0.0703 -0.14063,0.11718 -0.55078,1.86328 -2.15625,2.76563 -3.35156,2.76563 -1.27734,0 -2.36719,-0.82031 -2.36719,-2.50781 0,-0.38672 0.11719,-2.46094 1.46485,-4.03125 0.65625,-0.76172 1.78125,-1.44141 2.91797,-1.44141 1.3125,0 1.89843,1.08984 1.89843,2.30859 0,0.31641 -0.0352,0.57422 -0.0352,0.6211 0,0.11718 0.11718,0.11718 0.15234,0.11718 0.14063,0 0.15234,-0.0117 0.19922,-0.23437 z m 0,0"
         style="fill:#000000;fill-opacity:1;fill-rule:nonzero;stroke:none" />
      <path
         id="path17"
         d="m 111.63473,144.31128 c 0,-0.17578 0,-0.39844 -0.23437,-0.39844 -0.24609,0 -0.24609,0.22266 -0.24609,0.39844 v 11.15625 c 0,0.17578 0,0.39844 0.24609,0.39844 0.23437,0 0.23437,-0.22266 0.23437,-0.39844 z m 0,0"
         style="fill:#000000;fill-opacity:1;fill-rule:nonzero;stroke:none" />
      <path
         id="path18"
         d="m 126.49704,149.0105 c 0.16406,0 0.375,0 0.375,-0.22266 0,-0.22265 -0.19922,-0.22265 -0.375,-0.22265 h -7.04297 c -0.17578,0 -0.38672,0 -0.38672,0.21094 0,0.23437 0.19922,0.23437 0.38672,0.23437 z m 0,2.21484 c 0.16406,0 0.375,0 0.375,-0.21093 0,-0.23438 -0.19922,-0.23438 -0.375,-0.23438 h -7.04297 c -0.17578,0 -0.38672,0 -0.38672,0.22266 0,0.22265 0.19922,0.22265 0.38672,0.22265 z m 7.93652,-5.1914 c 0.50391,0.16406 0.92578,0.17578 1.05469,0.17578 1.35938,0 2.21484,-0.99609 2.21484,-1.16016 0,-0.0469 -0.0234,-0.10547 -0.0937,-0.10547 -0.0234,0 -0.0469,0 -0.15234,0.0469 -0.66797,0.28125 -1.24219,0.31641 -1.55859,0.31641 -0.78516,0 -1.34766,-0.23438 -1.58203,-0.32813 -0.082,-0.0352 -0.10547,-0.0352 -0.11719,-0.0352 -0.0937,0 -0.0937,0.0703 -0.0937,0.25782 v 3.55078 c 0,0.21094 0,0.29297 0.14062,0.29297 0.0586,0 0.0703,-0.0117 0.19922,-0.16407 0.32813,-0.49218 0.89063,-0.77343 1.48828,-0.77343 0.63282,0 0.94922,0.58593 1.04297,0.78515 0.19922,0.46875 0.21094,1.05469 0.21094,1.51172 0,0.45703 0,1.13672 -0.32813,1.67578 -0.26953,0.42188 -0.73828,0.72657 -1.2539,0.72657 -0.79688,0 -1.57031,-0.53907 -1.78125,-1.40625 0.0586,0.0234 0.1289,0.0352 0.1875,0.0352 0.19922,0 0.52734,-0.1289 0.52734,-0.52734 0,-0.33985 -0.23437,-0.52735 -0.52734,-0.52735 -0.21094,0 -0.52735,0.10547 -0.52735,0.57422 0,1.00782 0.8086,2.16797 2.14454,2.16797 1.34765,0 2.53125,-1.125 2.53125,-2.64844 0,-1.41796 -0.96094,-2.60156 -2.21485,-2.60156 -0.67969,0 -1.20703,0.29297 -1.51172,0.63281 z m 0,0"
         style="fill:#000000;fill-opacity:1;fill-rule:nonzero;stroke:none" />
      <path
         id="path19"
         d="m 148.99997,144.31128 c 0,-0.17578 0,-0.39844 -0.23438,-0.39844 -0.24609,0 -0.24609,0.22266 -0.24609,0.39844 v 11.15625 c 0,0.17578 0,0.39844 0.24609,0.39844 0.23438,0 0.23438,-0.22266 0.23438,-0.39844 z m 0,0"
         style="fill:#000000;fill-opacity:1;fill-rule:nonzero;stroke:none" />
      <path
         id="path20"
         d="m 152.45114,151.55347 c -0.41016,0.70312 -0.82031,0.9375 -1.39453,0.97266 -0.12891,0.0117 -0.22266,0.0117 -0.22266,0.23437 0,0.0703 0.0586,0.11719 0.14063,0.11719 0.21094,0 0.75,-0.0234 0.97265,-0.0234 0.33985,0 0.72657,0.0234 1.05469,0.0234 0.0703,0 0.22266,0 0.22266,-0.22266 0,-0.11719 -0.0937,-0.1289 -0.17578,-0.1289 -0.26953,-0.0234 -0.49219,-0.11719 -0.49219,-0.39844 0,-0.17578 0.0703,-0.30469 0.22266,-0.5625 l 0.90234,-1.51172 h 3.05859 c 0.0117,0.10547 0.0117,0.21094 0.0234,0.31641 0.0352,0.30468 0.17578,1.54687 0.17578,1.78125 0,0.35156 -0.60937,0.375 -0.79687,0.375 -0.14063,0 -0.26953,0 -0.26953,0.22265 0,0.12891 0.10546,0.12891 0.17578,0.12891 0.21093,0 0.44531,-0.0234 0.65625,-0.0234 h 0.67968 c 0.72657,0 1.25391,0.0234 1.26563,0.0234 0.082,0 0.21094,0 0.21094,-0.22266 0,-0.1289 -0.10547,-0.1289 -0.28125,-0.1289 -0.65625,0 -0.66797,-0.10547 -0.71485,-0.45704 l -0.72656,-7.46484 c -0.0234,-0.23437 -0.0703,-0.25781 -0.19922,-0.25781 -0.11719,0 -0.1875,0.0234 -0.30469,0.19922 z m 1.44141,-1.83984 2.40234,-4.01954 0.41016,4.01954 z m 9.67675,-4.1836 c 0.11719,-0.44531 0.16407,-0.46875 0.6211,-0.46875 h 1.55859 c 1.34766,0 1.34766,1.14844 1.34766,1.25391 0,0.97265 -0.96094,2.20312 -2.54297,2.20312 h -1.72266 z m 2.02735,3.08203 c 1.30078,-0.24609 2.48437,-1.14843 2.48437,-2.25 0,-0.92578 -0.83203,-1.65234 -2.17968,-1.65234 h -3.83204 c -0.23437,0 -0.33984,0 -0.33984,0.23437 0,0.11719 0.10547,0.11719 0.29297,0.11719 0.72656,0 0.72656,0.0937 0.72656,0.22266 0,0.0234 0,0.0937 -0.0469,0.28125 l -1.61719,6.43359 c -0.10547,0.41016 -0.12891,0.52735 -0.96094,0.52735 -0.23437,0 -0.35156,0 -0.35156,0.22265 0,0.12891 0.0703,0.12891 0.30469,0.12891 h 4.10156 c 1.82812,0 3.24609,-1.38281 3.24609,-2.58985 0,-0.98437 -0.86718,-1.58203 -1.82812,-1.67578 z m -1.69922,3.91407 h -1.61719 c -0.16406,0 -0.1875,0 -0.25781,-0.0117 -0.12891,-0.0117 -0.15234,-0.0352 -0.15234,-0.12891 0,-0.082 0.0351,-0.15234 0.0586,-0.25781 l 0.83203,-3.375 h 2.25 c 1.40625,0 1.40625,1.3125 1.40625,1.40625 0,1.14844 -1.04297,2.36719 -2.51953,2.36719 z m 0,0"
         style="fill:#000000;fill-opacity:1;fill-rule:nonzero;stroke:none" />
      <path
         id="path21"
         d="m 170.59177,144.31128 c 0,-0.17578 0,-0.39844 -0.23438,-0.39844 -0.24609,0 -0.24609,0.22266 -0.24609,0.39844 v 11.15625 c 0,0.17578 0,0.39844 0.24609,0.39844 0.23438,0 0.23438,-0.22266 0.23438,-0.39844 z m 0,0"
         style="fill:#000000;fill-opacity:1;fill-rule:nonzero;stroke:none" />
      <path
         id="path22"
         d="m 185.457,149.0105 c 0.16406,0 0.375,0 0.375,-0.22266 0,-0.22265 -0.19922,-0.22265 -0.375,-0.22265 h -7.04297 c -0.17578,0 -0.38672,0 -0.38672,0.21094 0,0.23437 0.19922,0.23437 0.38672,0.23437 z m 0,2.21484 c 0.16406,0 0.375,0 0.375,-0.21093 0,-0.23438 -0.19922,-0.23438 -0.375,-0.23438 h -7.04297 c -0.17578,0 -0.38672,0 -0.38672,0.22266 0,0.22265 0.19922,0.22265 0.38672,0.22265 z m 7.86328,-2.50781 c 0,-3.02344 1.47656,-3.5039 2.1211,-3.5039 0.43359,0 0.85546,0.1289 1.08984,0.49218 -0.14063,0 -0.59766,0 -0.59766,0.49219 0,0.25781 0.17578,0.49219 0.49219,0.49219 0.29297,0 0.49219,-0.1875 0.49219,-0.52735 0,-0.62109 -0.44531,-1.23046 -1.48828,-1.23046 -1.51172,0 -3.08203,1.53515 -3.08203,4.17187 0,3.28125 1.42968,4.01953 2.44921,4.01953 1.30079,0 2.41407,-1.125 2.41407,-2.68359 0,-1.59375 -1.11328,-2.66016 -2.3086,-2.66016 -1.0664,0 -1.45312,0.92578 -1.58203,1.26563 z m 1.47656,4.08985 c -0.75,0 -1.11328,-0.66797 -1.21875,-0.92579 -0.10546,-0.30468 -0.22265,-0.89062 -0.22265,-1.73437 0,-0.9375 0.42187,-2.12109 1.5,-2.12109 0.65625,0 1.00781,0.44531 1.18359,0.84375 0.1875,0.44531 0.1875,1.04296 0.1875,1.55859 0,0.60937 0,1.14844 -0.22265,1.60547 -0.30469,0.57422 -0.72657,0.77344 -1.20704,0.77344 z m 0,0"
         style="fill:#000000;fill-opacity:1;fill-rule:nonzero;stroke:none" />
      <path
         id="path23"
         d="m 207.957,144.31128 c 0,-0.17578 0,-0.39844 -0.23437,-0.39844 -0.2461,0 -0.2461,0.22266 -0.2461,0.39844 v 11.15625 c 0,0.17578 0,0.39844 0.2461,0.39844 0.23437,0 0.23437,-0.22266 0.23437,-0.39844 z m 0,0"
         style="fill:#000000;fill-opacity:1;fill-rule:nonzero;stroke:none" />
      <path
         id="path24"
         d="m 213.75192,145.53003 c 0.11719,-0.44531 0.16406,-0.46875 0.6211,-0.46875 h 1.55859 c 1.34766,0 1.34766,1.14844 1.34766,1.25391 0,0.97265 -0.96094,2.20312 -2.54297,2.20312 h -1.72266 z m 2.02735,3.08203 c 1.30078,-0.24609 2.48437,-1.14843 2.48437,-2.25 0,-0.92578 -0.83203,-1.65234 -2.17969,-1.65234 h -3.83203 c -0.23437,0 -0.33984,0 -0.33984,0.23437 0,0.11719 0.10547,0.11719 0.29297,0.11719 0.72656,0 0.72656,0.0937 0.72656,0.22266 0,0.0234 0,0.0937 -0.0469,0.28125 l -1.61718,6.43359 c -0.10547,0.41016 -0.12891,0.52735 -0.96094,0.52735 -0.23438,0 -0.35156,0 -0.35156,0.22265 0,0.12891 0.0703,0.12891 0.30468,0.12891 h 4.10157 c 1.82812,0 3.24609,-1.38281 3.24609,-2.58985 0,-0.98437 -0.86719,-1.58203 -1.82812,-1.67578 z m -1.69922,3.91407 h -1.61719 c -0.16406,0 -0.1875,0 -0.25781,-0.0117 -0.12891,-0.0117 -0.15235,-0.0352 -0.15235,-0.12891 0,-0.082 0.0352,-0.15234 0.0586,-0.25781 l 0.83203,-3.375 h 2.25 c 1.40625,0 1.40625,1.3125 1.40625,1.40625 0,1.14844 -1.04297,2.36719 -2.51953,2.36719 z m 13.72265,-7.95704 c 0,-0.10546 -0.082,-0.10546 -0.10547,-0.10546 -0.0234,0 -0.0703,0 -0.17578,0.11718 l -0.82031,1.00782 c -0.42187,-0.71485 -1.07812,-1.125 -1.96875,-1.125 -2.58984,0 -5.26172,2.61328 -5.26172,5.42578 0,1.99218 1.39453,3.23437 3.14063,3.23437 0.96093,0 1.79297,-0.39844 2.48437,-0.98437 1.04297,-0.87891 1.35938,-2.03907 1.35938,-2.13282 0,-0.10546 -0.0937,-0.10546 -0.14063,-0.10546 -0.10547,0 -0.11719,0.0703 -0.14062,0.11718 -0.55078,1.86328 -2.15625,2.76563 -3.35157,2.76563 -1.27734,0 -2.36718,-0.82031 -2.36718,-2.50781 0,-0.38672 0.11718,-2.46094 1.46484,-4.03125 0.65625,-0.76172 1.78125,-1.44141 2.91797,-1.44141 1.3125,0 1.89844,1.08984 1.89844,2.30859 0,0.31641 -0.0352,0.57422 -0.0352,0.6211 0,0.11718 0.11719,0.11718 0.15234,0.11718 0.14063,0 0.15235,-0.0117 0.19922,-0.23437 z m 0,0"
         style="fill:#000000;fill-opacity:1;fill-rule:nonzero;stroke:none" />
      <path
         id="path25"
         d="m 230.00876,144.31128 c 0,-0.17578 0,-0.39844 -0.23438,-0.39844 -0.24609,0 -0.24609,0.22266 -0.24609,0.39844 v 11.15625 c 0,0.17578 0,0.39844 0.24609,0.39844 0.23438,0 0.23438,-0.22266 0.23438,-0.39844 z m 0,0"
         style="fill:#000000;fill-opacity:1;fill-rule:nonzero;stroke:none" />
      <path
         id="path26"
         d="m 244.87399,149.0105 c 0.16406,0 0.375,0 0.375,-0.22266 0,-0.22265 -0.19922,-0.22265 -0.375,-0.22265 h -7.04297 c -0.17578,0 -0.38672,0 -0.38672,0.21094 0,0.23437 0.19922,0.23437 0.38672,0.23437 z m 0,2.21484 c 0.16406,0 0.375,0 0.375,-0.21093 0,-0.23438 -0.19922,-0.23438 -0.375,-0.23438 h -7.04297 c -0.17578,0 -0.38672,0 -0.38672,0.22266 0,0.22265 0.19922,0.22265 0.38672,0.22265 z m 8.60156,-2.63671 c -0.21093,0.0117 -0.25781,0.0234 -0.25781,0.1289 0,0.11719 0.0586,0.11719 0.28125,0.11719 h 0.55078 c 1.00782,0 1.46485,0.84375 1.46485,1.99219 0,1.55859 -0.8086,1.98047 -1.39453,1.98047 -0.57422,0 -1.5586,-0.28125 -1.89844,-1.06641 0.375,0.0586 0.72656,-0.15234 0.72656,-0.58594 0,-0.33984 -0.25781,-0.58594 -0.58594,-0.58594 -0.29297,0 -0.59765,0.16407 -0.59765,0.6211 0,1.0664 1.0664,1.93359 2.39062,1.93359 1.41797,0 2.47266,-1.07812 2.47266,-2.28515 0,-1.10157 -0.89063,-1.96875 -2.02735,-2.16797 1.03125,-0.30469 1.69922,-1.17188 1.69922,-2.10938 0,-0.9375 -0.97265,-1.6289 -2.13281,-1.6289 -1.19531,0 -2.08594,0.72656 -2.08594,1.59375 0,0.48046 0.375,0.57421 0.55078,0.57421 0.25782,0 0.53907,-0.17578 0.53907,-0.53906 0,-0.375 -0.28125,-0.53906 -0.55078,-0.53906 -0.0703,0 -0.0937,0 -0.12891,0.0117 0.45703,-0.82031 1.58203,-0.82031 1.64062,-0.82031 0.38672,0 1.17188,0.17578 1.17188,1.34765 0,0.23438 -0.0352,0.90235 -0.38672,1.41797 -0.35156,0.52734 -0.76172,0.5625 -1.08984,0.57422 z m 0,0"
         style="fill:#000000;fill-opacity:1;fill-rule:nonzero;stroke:none" />
      <path
         id="path27"
         d="m 317.69138,151.55347 c -0.41016,0.70312 -0.82032,0.9375 -1.39454,0.97266 -0.1289,0.0117 -0.22265,0.0117 -0.22265,0.23437 0,0.0703 0.0586,0.11719 0.14062,0.11719 0.21094,0 0.75,-0.0234 0.97266,-0.0234 0.33984,0 0.72656,0.0234 1.05469,0.0234 0.0703,0 0.22265,0 0.22265,-0.22266 0,-0.11719 -0.0937,-0.1289 -0.17578,-0.1289 -0.26953,-0.0234 -0.49219,-0.11719 -0.49219,-0.39844 0,-0.17578 0.0703,-0.30469 0.22266,-0.5625 l 0.90234,-1.51172 h 3.0586 c 0.0117,0.10547 0.0117,0.21094 0.0234,0.31641 0.0352,0.30468 0.17578,1.54687 0.17578,1.78125 0,0.35156 -0.60938,0.375 -0.79688,0.375 -0.14062,0 -0.26953,0 -0.26953,0.22265 0,0.12891 0.10547,0.12891 0.17578,0.12891 0.21094,0 0.44531,-0.0234 0.65625,-0.0234 h 0.67969 c 0.72656,0 1.25391,0.0234 1.26562,0.0234 0.082,0 0.21094,0 0.21094,-0.22266 0,-0.1289 -0.10547,-0.1289 -0.28125,-0.1289 -0.65625,0 -0.66797,-0.10547 -0.71484,-0.45704 l -0.72656,-7.46484 c -0.0234,-0.23437 -0.0703,-0.25781 -0.19922,-0.25781 -0.11719,0 -0.1875,0.0234 -0.30469,0.19922 z m 1.4414,-1.83984 2.40235,-4.01954 0.41015,4.01954 z m 14.23828,-5.14454 c 0,-0.10546 -0.082,-0.10546 -0.10547,-0.10546 -0.0234,0 -0.0703,0 -0.17578,0.11718 l -0.82031,1.00782 c -0.42187,-0.71485 -1.07812,-1.125 -1.96875,-1.125 -2.58984,0 -5.26172,2.61328 -5.26172,5.42578 0,1.99218 1.39453,3.23437 3.14063,3.23437 0.96093,0 1.79297,-0.39844 2.48437,-0.98437 1.04297,-0.87891 1.35938,-2.03907 1.35938,-2.13282 0,-0.10546 -0.0937,-0.10546 -0.14063,-0.10546 -0.10547,0 -0.11719,0.0703 -0.14062,0.11718 -0.55078,1.86328 -2.15625,2.76563 -3.35157,2.76563 -1.27734,0 -2.36718,-0.82031 -2.36718,-2.50781 0,-0.38672 0.11718,-2.46094 1.46484,-4.03125 0.65625,-0.76172 1.78125,-1.44141 2.91797,-1.44141 1.3125,0 1.89844,1.08984 1.89844,2.30859 0,0.31641 -0.0352,0.57422 -0.0352,0.6211 0,0.11718 0.11719,0.11718 0.15234,0.11718 0.14063,0 0.15235,-0.0117 0.19922,-0.23437 z m 0,0"
         style="fill:#000000;fill-opacity:1;fill-rule:nonzero;stroke:none" />
      <path
         id="path28"
         d="m -64.137727,166.44507 c -0.105468,0.41016 -0.128906,0.52734 -0.960937,0.52734 -0.234375,0 -0.351563,0 -0.351563,0.22266 0,0.12891 0.07031,0.12891 0.304688,0.12891 h 3.796875 c 2.414062,0 4.769531,-2.4961 4.769531,-5.16797 0,-1.72266 -1.03125,-3 -2.742187,-3 h -3.832032 c -0.234375,0 -0.339843,0 -0.339843,0.23437 0,0.11719 0.105468,0.11719 0.292968,0.11719 0.726563,0 0.726563,0.0937 0.726563,0.22266 0,0.0234 0,0.0937 -0.04687,0.28125 z m 2.519532,-6.46875 c 0.117187,-0.44531 0.164062,-0.46875 0.621093,-0.46875 h 1.324219 c 1.113281,0 2.144531,0.60938 2.144531,2.26172 0,0.59766 -0.234375,2.67187 -1.394531,3.98437 -0.339844,0.39844 -1.242187,1.21875 -2.625,1.21875 h -1.359375 c -0.164062,0 -0.1875,0 -0.257812,-0.0117 -0.128907,-0.0117 -0.140625,-0.0352 -0.140625,-0.12891 0,-0.082 0.02344,-0.15234 0.04687,-0.25781 z m 0,0"
         style="fill:#000000;fill-opacity:1;fill-rule:nonzero;stroke:none" />
      <path
         id="path29"
         d="m -0.85647656,165.99976 c -0.41015624,0.70312 -0.82031254,0.9375 -1.39453124,0.97265 -0.1289063,0.0117 -0.2226563,0.0117 -0.2226563,0.23438 0,0.0703 0.058594,0.11719 0.140625,0.11719 0.2109375,0 0.75,-0.0234 0.9726563,-0.0234 0.3398437,0 0.72656249,0.0234 1.05468749,0.0234 0.0703125,0 0.22265625,0 0.22265625,-0.22266 0,-0.11719 -0.09375,-0.12891 -0.17578125,-0.12891 -0.26953125,-0.0234 -0.4921875,-0.11718 -0.4921875,-0.39843 0,-0.17578 0.0703125,-0.30469 0.22265625,-0.5625 l 0.90234375,-1.51172 H 3.4325859 c 0.011719,0.10547 0.011719,0.21094 0.023437,0.3164 0.035156,0.30469 0.1757813,1.54688 0.1757813,1.78125 0,0.35157 -0.609375,0.375 -0.796875,0.375 -0.140625,0 -0.2695313,0 -0.2695313,0.22266 0,0.12891 0.1054688,0.12891 0.1757813,0.12891 0.2109375,0 0.4453125,-0.0234 0.65625,-0.0234 h 0.6796875 c 0.7265625,0 1.2539062,0.0234 1.265625,0.0234 0.082031,0 0.2109375,0 0.2109375,-0.22266 0,-0.12891 -0.1054688,-0.12891 -0.28125,-0.12891 -0.65625,0 -0.6679688,-0.10546 -0.7148438,-0.45703 l -0.7265625,-7.46484 c -0.023437,-0.23438 -0.070312,-0.25781 -0.1992187,-0.25781 -0.1171875,0 -0.1875,0.0234 -0.3046875,0.19922 z m 1.44140625,-1.83985 2.40234371,-4.01953 0.4101563,4.01953 z m 9.67968731,-4.18359 c 0.117188,-0.44531 0.164063,-0.46875 0.621094,-0.46875 h 1.558594 c 1.347656,0 1.347656,1.14844 1.347656,1.25391 0,0.97265 -0.960938,2.20312 -2.542969,2.20312 H 9.5263359 Z m 2.027344,3.08203 c 1.300781,-0.24609 2.484375,-1.14844 2.484375,-2.25 0,-0.92578 -0.832031,-1.65234 -2.179688,-1.65234 H 8.7646172 c -0.234375,0 -0.3398438,0 -0.3398438,0.23437 0,0.11719 0.1054688,0.11719 0.2929688,0.11719 0.7265625,0 0.7265625,0.0937 0.7265625,0.22266 0,0.0234 0,0.0937 -0.046875,0.28125 l -1.6171875,6.43359 c -0.1054688,0.41016 -0.1289063,0.52734 -0.9609375,0.52734 -0.234375,0 -0.3515625,0 -0.3515625,0.22266 0,0.12891 0.070312,0.12891 0.3046875,0.12891 h 4.1015623 c 1.828125,0 3.246094,-1.38282 3.246094,-2.58985 0,-0.98437 -0.867188,-1.58203 -1.828125,-1.67578 z m -1.699219,3.91406 H 8.9755547 c -0.1640625,0 -0.1875,0 -0.2578125,-0.0117 -0.1289063,-0.0117 -0.1523438,-0.0352 -0.1523438,-0.12891 0,-0.082 0.035156,-0.15234 0.058594,-0.25781 l 0.8320312,-3.375 h 2.2499994 c 1.40625,0 1.40625,1.3125 1.40625,1.40625 0,1.14843 -1.042968,2.36718 -2.519531,2.36718 z m 0,0"
         style="fill:#000000;fill-opacity:1;fill-rule:nonzero;stroke:none" />
      <path
         id="path30"
         d="m 109.94138,164.54663 c 0.0117,-0.0351 0.0469,-0.11718 0.0469,-0.16406 0,-0.0586 -0.0469,-0.11719 -0.11719,-0.11719 -0.0469,0 -0.0703,0.0117 -0.10547,0.0469 -0.0234,0.0117 -0.0234,0.0351 -0.14062,0.26953 -0.70313,1.67578 -1.21875,2.39062 -3.12891,2.39062 H 104.75 c -0.16406,0 -0.1875,0 -0.25781,-0.0117 -0.12891,-0.0117 -0.14063,-0.0352 -0.14063,-0.12891 0,-0.082 0.0234,-0.15234 0.0469,-0.25781 l 0.82031,-3.30469 h 1.18359 c 0.9375,0 1.00782,0.21094 1.00782,0.5625 0,0.11719 0,0.23437 -0.082,0.58594 -0.0352,0.0469 -0.0469,0.0937 -0.0469,0.1289 0,0.082 0.0703,0.12891 0.14062,0.12891 0.10547,0 0.11719,-0.0937 0.16407,-0.25781 l 0.67968,-2.77735 c 0,-0.0586 -0.0469,-0.11718 -0.11718,-0.11718 -0.10547,0 -0.11719,0.0469 -0.16407,0.22265 -0.24609,0.91406 -0.48046,1.1836 -1.54687,1.1836 h -1.13672 l 0.73828,-2.94141 c 0.11719,-0.42188 0.14063,-0.45703 0.6211,-0.45703 h 1.71093 c 1.47657,0 1.76953,0.39844 1.76953,1.30078 0,0.0117 0,0.35156 -0.0469,0.73828 -0.0117,0.0469 -0.0234,0.12891 -0.0234,0.15234 0,0.0937 0.0586,0.12891 0.12891,0.12891 0.082,0 0.14062,-0.0469 0.16406,-0.26953 l 0.24609,-2.08594 c 0,-0.0351 0.0234,-0.15234 0.0234,-0.17578 0,-0.14062 -0.10547,-0.14062 -0.3164,-0.14062 h -5.83594 c -0.23438,0 -0.35156,0 -0.35156,0.22265 0,0.12891 0.082,0.12891 0.29296,0.12891 0.73829,0 0.73829,0.082 0.73829,0.21094 0,0.0586 -0.0117,0.10546 -0.0469,0.24609 l -1.61719,6.45703 c -0.10547,0.41016 -0.1289,0.52734 -0.96093,0.52734 -0.23438,0 -0.35157,0 -0.35157,0.22266 0,0.12891 0.0703,0.12891 0.30469,0.12891 h 6 c 0.26953,0 0.28125,-0.0117 0.36328,-0.19922 z m 0,0"
         style="fill:#000000;fill-opacity:1;fill-rule:nonzero;stroke:none" />
      <path
         id="path31"
         d="m 258.7695,164.54663 c 0.0117,-0.0351 0.0469,-0.11718 0.0469,-0.16406 0,-0.0586 -0.0469,-0.11719 -0.11719,-0.11719 -0.0469,0 -0.0703,0.0117 -0.10547,0.0469 -0.0234,0.0117 -0.0234,0.0351 -0.14063,0.26953 -0.70312,1.67578 -1.21875,2.39062 -3.1289,2.39062 h -1.7461 c -0.16406,0 -0.1875,0 -0.25781,-0.0117 -0.1289,-0.0117 -0.14062,-0.0352 -0.14062,-0.12891 0,-0.082 0.0234,-0.15234 0.0469,-0.25781 l 0.82031,-3.30469 h 1.1836 c 0.9375,0 1.00781,0.21094 1.00781,0.5625 0,0.11719 0,0.23437 -0.082,0.58594 -0.0352,0.0469 -0.0469,0.0937 -0.0469,0.1289 0,0.082 0.0703,0.12891 0.14063,0.12891 0.10547,0 0.11719,-0.0937 0.16406,-0.25781 l 0.67969,-2.77735 c 0,-0.0586 -0.0469,-0.11718 -0.11719,-0.11718 -0.10547,0 -0.11719,0.0469 -0.16406,0.22265 -0.24609,0.91406 -0.48047,1.1836 -1.54688,1.1836 h -1.13671 l 0.73828,-2.94141 c 0.11718,-0.42188 0.14062,-0.45703 0.62109,-0.45703 h 1.71094 c 1.47656,0 1.76953,0.39844 1.76953,1.30078 0,0.0117 0,0.35156 -0.0469,0.73828 -0.0117,0.0469 -0.0234,0.12891 -0.0234,0.15234 0,0.0937 0.0586,0.12891 0.1289,0.12891 0.082,0 0.14063,-0.0469 0.16407,-0.26953 l 0.24609,-2.08594 c 0,-0.0351 0.0234,-0.15234 0.0234,-0.17578 0,-0.14062 -0.10547,-0.14062 -0.31641,-0.14062 h -5.83594 c -0.23437,0 -0.35156,0 -0.35156,0.22265 0,0.12891 0.082,0.12891 0.29297,0.12891 0.73828,0 0.73828,0.082 0.73828,0.21094 0,0.0586 -0.0117,0.10546 -0.0469,0.24609 l -1.61719,6.45703 c -0.10547,0.41016 -0.12891,0.52734 -0.96094,0.52734 -0.23437,0 -0.35156,0 -0.35156,0.22266 0,0.12891 0.0703,0.12891 0.30469,0.12891 h 6 c 0.26953,0 0.28125,-0.0117 0.36328,-0.19922 z m 2.93555,1.89844 c -0.10547,0.41016 -0.12891,0.52734 -0.96094,0.52734 -0.23438,0 -0.35156,0 -0.35156,0.22266 0,0.12891 0.0703,0.12891 0.30468,0.12891 h 3.79688 c 2.41406,0 4.76953,-2.4961 4.76953,-5.16797 0,-1.72266 -1.03125,-3 -2.74219,-3 h -3.83203 c -0.23437,0 -0.33984,0 -0.33984,0.23437 0,0.11719 0.10547,0.11719 0.29297,0.11719 0.72656,0 0.72656,0.0937 0.72656,0.22266 0,0.0234 0,0.0937 -0.0469,0.28125 z m 2.51953,-6.46875 c 0.11719,-0.44531 0.16406,-0.46875 0.62109,-0.46875 h 1.32422 c 1.11328,0 2.14453,0.60938 2.14453,2.26172 0,0.59766 -0.23437,2.67187 -1.39453,3.98437 -0.33984,0.39844 -1.24219,1.21875 -2.625,1.21875 h -1.35937 c -0.16407,0 -0.1875,0 -0.25782,-0.0117 -0.1289,-0.0117 -0.14062,-0.0352 -0.14062,-0.12891 0,-0.082 0.0234,-0.15234 0.0469,-0.25781 z m 0,0"
         style="fill:#000000;fill-opacity:1;fill-rule:nonzero;stroke:none" />
      <path
         id="path32"
         d="m 29.36032,180.44605 c -0.410156,0.70312 -0.820312,0.9375 -1.394531,0.97265 -0.128906,0.0117 -0.222656,0.0117 -0.222656,0.23438 0,0.0703 0.05859,0.11719 0.140625,0.11719 0.210937,0 0.75,-0.0234 0.972656,-0.0234 0.339844,0 0.726563,0.0234 1.054688,0.0234 0.07031,0 0.222656,0 0.222656,-0.22266 0,-0.11719 -0.09375,-0.12891 -0.175781,-0.12891 -0.269532,-0.0234 -0.492188,-0.11718 -0.492188,-0.39843 0,-0.17579 0.07031,-0.30469 0.222656,-0.5625 l 0.902344,-1.51172 h 3.058594 c 0.01172,0.10547 0.01172,0.21093 0.02344,0.3164 0.03516,0.30469 0.175782,1.54688 0.175782,1.78125 0,0.35157 -0.609375,0.375 -0.796875,0.375 -0.140625,0 -0.269532,0 -0.269532,0.22266 0,0.12891 0.105469,0.12891 0.175782,0.12891 0.210937,0 0.445312,-0.0234 0.65625,-0.0234 h 0.679687 c 0.726563,0 1.253906,0.0234 1.265625,0.0234 0.08203,0 0.210938,0 0.210938,-0.22266 0,-0.12891 -0.105469,-0.12891 -0.28125,-0.12891 -0.65625,0 -0.667969,-0.10547 -0.714844,-0.45703 l -0.726563,-7.46484 c -0.02344,-0.23438 -0.07031,-0.25781 -0.199218,-0.25781 -0.117188,0 -0.1875,0.0234 -0.304688,0.19921 z m 1.441407,-1.83985 2.402343,-4.01953 0.410157,4.01953 z m 13.614257,0.38672 c 0.01172,-0.0351 0.04687,-0.11719 0.04687,-0.16406 0,-0.0586 -0.04687,-0.11719 -0.117187,-0.11719 -0.04687,0 -0.07031,0.0117 -0.105469,0.0469 -0.02344,0.0117 -0.02344,0.0351 -0.140625,0.26953 -0.703125,1.67578 -1.21875,2.39062 -3.128906,2.39062 h -1.746094 c -0.164062,0 -0.1875,0 -0.257812,-0.0117 -0.128907,-0.0117 -0.140625,-0.0352 -0.140625,-0.1289 0,-0.082 0.02344,-0.15235 0.04687,-0.25781 l 0.820312,-3.30469 h 1.183594 c 0.9375,0 1.007812,0.21094 1.007812,0.5625 0,0.11719 0,0.23437 -0.08203,0.58594 -0.03516,0.0469 -0.04687,0.0937 -0.04687,0.1289 0,0.082 0.07031,0.12891 0.140625,0.12891 0.105469,0 0.117188,-0.0937 0.164063,-0.25781 l 0.679687,-2.77735 c 0,-0.0586 -0.04687,-0.11719 -0.117187,-0.11719 -0.105469,0 -0.117188,0.0469 -0.164063,0.22266 -0.246094,0.91406 -0.480469,1.18359 -1.546875,1.18359 h -1.136719 l 0.738282,-2.9414 c 0.117187,-0.42188 0.140625,-0.45703 0.621093,-0.45703 h 1.710938 c 1.476562,0 1.769531,0.39843 1.769531,1.30078 0,0.0117 0,0.35156 -0.04687,0.73828 -0.01172,0.0469 -0.02344,0.12891 -0.02344,0.15234 0,0.0937 0.05859,0.12891 0.128906,0.12891 0.08203,0 0.140625,-0.0469 0.164062,-0.26953 l 0.246094,-2.08594 c 0,-0.0352 0.02344,-0.15234 0.02344,-0.17578 0,-0.14063 -0.105469,-0.14063 -0.316407,-0.14063 h -5.835937 c -0.234375,0 -0.351563,0 -0.351563,0.22266 0,0.12891 0.08203,0.12891 0.292969,0.12891 0.738281,0 0.738281,0.082 0.738281,0.21093 0,0.0586 -0.01172,0.10547 -0.04687,0.2461 l -1.617187,6.45703 c -0.105469,0.41016 -0.128906,0.52734 -0.960938,0.52734 -0.234375,0 -0.351562,0 -0.351562,0.22266 0,0.12891 0.07031,0.12891 0.304687,0.12891 h 6 c 0.269532,0 0.28125,-0.0117 0.363282,-0.19922 z m 2.935547,1.89844 c -0.105468,0.41016 -0.128906,0.52734 -0.960937,0.52734 -0.234375,0 -0.351563,0 -0.351563,0.22266 0,0.12891 0.07031,0.12891 0.304688,0.12891 h 3.796875 c 2.414062,0 4.769531,-2.4961 4.769531,-5.16797 0,-1.72266 -1.03125,-3 -2.742187,-3 h -3.832032 c -0.234375,0 -0.339843,0 -0.339843,0.23437 0,0.11719 0.105468,0.11719 0.292968,0.11719 0.726563,0 0.726563,0.0937 0.726563,0.22266 0,0.0234 0,0.0937 -0.04687,0.28125 z m 2.519532,-6.46875 c 0.117187,-0.44531 0.164062,-0.46875 0.621093,-0.46875 h 1.324219 c 1.113281,0 2.144531,0.60937 2.144531,2.26172 0,0.59765 -0.234375,2.67187 -1.394531,3.98437 -0.339844,0.39844 -1.242187,1.21875 -2.625,1.21875 H 48.582 c -0.164062,0 -0.1875,0 -0.257812,-0.0117 -0.128907,-0.0117 -0.140625,-0.0352 -0.140625,-0.1289 0,-0.082 0.02344,-0.15235 0.04687,-0.25781 z m 0,0"
         style="fill:#000000;fill-opacity:1;fill-rule:nonzero;stroke:none" />
      <path
         id="path33"
         d="m 0.92184375,223.4187 c -0.0585938,0.19922 -0.0585938,0.22266 -0.22265625,0.44532 -0.26953125,0.33984 -0.796875,0.85546 -1.359375,0.85546 -0.4804687,0 -0.7617187,-0.44531 -0.7617187,-1.14843 0,-0.65625 0.375,-1.99219 0.5976562,-2.4961 0.41015625,-0.84375 0.97265625,-1.26562 1.44140625,-1.26562 0.78515625,0 0.93750005,0.97265 0.93750005,1.0664 0,0.0117 -0.035156,0.17579 -0.046875,0.19922 z M 1.6835625,220.34839 C 1.5546563,220.0437 1.23825,219.56323 0.61715625,219.56323 c -1.359375,0 -2.81249995,1.7461 -2.81249995,3.51563 0,1.18359 0.6914062,1.875 1.49999995,1.875 0.65625,0 1.21875,-0.51563 1.55859375,-0.90234 0.1171875,0.70312 0.6796875,0.90234 1.0429688,0.90234 0.3515625,0 0.6445312,-0.21094 0.8554687,-0.64453 0.1875,-0.41016 0.3632813,-1.13672 0.3632813,-1.1836 0,-0.0586 -0.046875,-0.10546 -0.1171875,-0.10546 -0.1171875,0 -0.1289063,0.0586 -0.1757813,0.23437 -0.1757812,0.71484 -0.3984375,1.46484 -0.890625,1.46484 -0.3515625,0 -0.375,-0.3164 -0.375,-0.55078 0,-0.28125 0.035156,-0.41015 0.140625,-0.8789 0.082031,-0.29297 0.1523438,-0.5625 0.2460938,-0.90235 0.4335937,-1.79297 0.5507812,-2.22656 0.5507812,-2.29687 0,-0.16406 -0.140625,-0.29297 -0.3164062,-0.29297 -0.375,0 -0.4804688,0.41016 -0.5039063,0.55078 z m 0,0"
         style="fill:#000000;fill-opacity:1;fill-rule:nonzero;stroke:none" />
      <path
         id="path34"
         d="m 13.387664,216.84448 c 0.01172,-0.0469 0.03516,-0.1289 0.03516,-0.1875 0,-0.11718 -0.128906,-0.11718 -0.152343,-0.11718 -0.01172,0 -0.433594,0.0351 -0.65625,0.0586 -0.199219,0.0117 -0.375,0.0352 -0.597657,0.0469 -0.28125,0.0234 -0.363281,0.0351 -0.363281,0.25781 0,0.11719 0.117188,0.11719 0.234375,0.11719 0.609375,0 0.609375,0.10546 0.609375,0.22265 0,0.082 -0.09375,0.4336 -0.140625,0.64453 l -0.292969,1.14844 c -0.117187,0.48047 -0.796875,3.19922 -0.84375,3.41016 -0.05859,0.29297 -0.05859,0.5039 -0.05859,0.65625 0,1.21875 0.679687,1.85156 1.453125,1.85156 1.394531,0 2.824218,-1.78125 2.824218,-3.51563 0,-1.10156 -0.621093,-1.875 -1.511718,-1.875 -0.632813,0 -1.183594,0.51563 -1.417969,0.75 z m -0.761719,7.875 c -0.375,0 -0.796875,-0.29296 -0.796875,-1.21875 0,-0.39843 0.03516,-0.62109 0.246094,-1.46484 0.04687,-0.15234 0.234375,-0.91406 0.28125,-1.06641 0.02344,-0.10546 0.726563,-1.16015 1.535156,-1.16015 0.527344,0 0.773438,0.51562 0.773438,1.13672 0,0.57422 -0.339844,1.93359 -0.632813,2.55468 -0.304687,0.64454 -0.855468,1.21875 -1.40625,1.21875 z m 0,0"
         style="fill:#000000;fill-opacity:1;fill-rule:nonzero;stroke:none" />
      <path
         id="path35"
         d="m 27.426727,220.33667 c -0.234375,0 -0.339844,0 -0.503907,0.15235 -0.07031,0.0586 -0.199218,0.23437 -0.199218,0.42187 0,0.24609 0.175781,0.38672 0.398437,0.38672 0.292969,0 0.609375,-0.23438 0.609375,-0.71484 0,-0.57422 -0.550781,-1.01954 -1.371094,-1.01954 -1.570312,0 -3.128906,1.71094 -3.128906,3.41016 0,1.04297 0.644531,1.98047 1.863281,1.98047 1.628907,0 2.648438,-1.26563 2.648438,-1.41797 0,-0.0703 -0.07031,-0.12891 -0.117188,-0.12891 -0.03516,0 -0.04687,0.0117 -0.152343,0.11719 -0.761719,1.00781 -1.898438,1.19531 -2.355469,1.19531 -0.820313,0 -1.089844,-0.71484 -1.089844,-1.3125 0,-0.42187 0.199219,-1.58203 0.632813,-2.39062 0.316406,-0.5625 0.960937,-1.20703 1.710937,-1.20703 0.152344,0 0.808594,0.0234 1.054688,0.52734 z m 0,0"
         style="fill:#000000;fill-opacity:1;fill-rule:nonzero;stroke:none" />
      <path
         id="path36"
         d="m 54.778289,252.49292 c 0,-0.0351 0,-0.0586 -0.210937,-0.26953 -1.195313,-1.20703 -1.863282,-3.17578 -1.863282,-5.61328 0,-2.32031 0.5625,-4.3125 1.945313,-5.73047 0.128906,-0.10547 0.128906,-0.12891 0.128906,-0.16406 0,-0.0703 -0.07031,-0.0937 -0.117187,-0.0937 -0.152344,0 -1.136719,0.85547 -1.722657,2.02734 -0.609375,1.20703 -0.878906,2.4961 -0.878906,3.96094 0,1.06641 0.164063,2.48437 0.785156,3.76172 0.703125,1.4414 1.6875,2.21484 1.816407,2.21484 0.04687,0 0.117187,-0.0234 0.117187,-0.0937 z m 0,0"
         style="fill:#000000;fill-opacity:1;fill-rule:nonzero;stroke:none" />
      <path
         id="path37"
         d="m 59.038055,248.1687 c -0.05859,0.19922 -0.05859,0.22266 -0.222657,0.44532 -0.269531,0.33984 -0.796875,0.85546 -1.359375,0.85546 -0.480468,0 -0.761718,-0.44531 -0.761718,-1.14843 0,-0.65625 0.375,-1.99219 0.597656,-2.4961 0.410156,-0.84375 0.972656,-1.26562 1.441406,-1.26562 0.785156,0 0.9375,0.97265 0.9375,1.0664 0,0.0117 -0.03516,0.17579 -0.04687,0.19922 z m 0.761718,-3.07031 c -0.128906,-0.30469 -0.445312,-0.78516 -1.066406,-0.78516 -1.359375,0 -2.8125,1.7461 -2.8125,3.51563 0,1.18359 0.691406,1.875 1.5,1.875 0.65625,0 1.21875,-0.51563 1.558594,-0.90234 0.117187,0.70312 0.679687,0.90234 1.042969,0.90234 0.351562,0 0.644531,-0.21094 0.855468,-0.64453 0.1875,-0.41016 0.363282,-1.13672 0.363282,-1.1836 0,-0.0586 -0.04687,-0.10546 -0.117188,-0.10546 -0.117187,0 -0.128906,0.0586 -0.175781,0.23437 -0.175781,0.71484 -0.398438,1.46484 -0.890625,1.46484 -0.351563,0 -0.375,-0.3164 -0.375,-0.55078 0,-0.28125 0.03516,-0.41015 0.140625,-0.8789 0.08203,-0.29297 0.152344,-0.5625 0.246094,-0.90235 0.433593,-1.79297 0.550781,-2.22656 0.550781,-2.29687 0,-0.16406 -0.140625,-0.29297 -0.316406,-0.29297 -0.375,0 -0.480469,0.41016 -0.503907,0.55078 z m 0,0"
         style="fill:#000000;fill-opacity:1;fill-rule:nonzero;stroke:none" />
      <path
         id="path38"
         d="m 69.010711,246.82105 h 3.304687 c 0.164063,0 0.375,0 0.375,-0.21094 0,-0.22266 -0.199218,-0.22266 -0.375,-0.22266 h -3.304687 v -3.30468 c 0,-0.16407 0,-0.38672 -0.210938,-0.38672 -0.234375,0 -0.234375,0.21093 -0.234375,0.38672 v 3.30468 H 65.27243 c -0.175782,0 -0.386719,0 -0.386719,0.21094 0,0.22266 0.199219,0.22266 0.386719,0.22266 h 3.292968 v 3.30468 c 0,0.16407 0,0.38672 0.222657,0.38672 0.222656,0 0.222656,-0.21093 0.222656,-0.38672 z m 0,0"
         style="fill:#000000;fill-opacity:1;fill-rule:nonzero;stroke:none" />
      <path
         id="path39"
         d="m 78.76657,241.59448 c 0.01172,-0.0469 0.03516,-0.1289 0.03516,-0.1875 0,-0.11718 -0.128907,-0.11718 -0.152344,-0.11718 -0.01172,0 -0.433594,0.0351 -0.65625,0.0586 -0.199219,0.0117 -0.375,0.0352 -0.597656,0.0469 -0.28125,0.0234 -0.363282,0.0351 -0.363282,0.25781 0,0.11719 0.117188,0.11719 0.234375,0.11719 0.609375,0 0.609375,0.10546 0.609375,0.22265 0,0.082 -0.09375,0.4336 -0.140625,0.64453 l -0.292968,1.14844 c -0.117188,0.48047 -0.796875,3.19922 -0.84375,3.41016 -0.05859,0.29297 -0.05859,0.5039 -0.05859,0.65625 0,1.21875 0.679687,1.85156 1.453125,1.85156 1.394531,0 2.824219,-1.78125 2.824219,-3.51563 0,-1.10156 -0.621094,-1.875 -1.511719,-1.875 -0.632813,0 -1.183594,0.51563 -1.417969,0.75 z m -0.761718,7.875 c -0.375,0 -0.796875,-0.29296 -0.796875,-1.21875 0,-0.39843 0.03516,-0.62109 0.246093,-1.46484 0.04687,-0.15234 0.234375,-0.91406 0.28125,-1.06641 0.02344,-0.10546 0.726563,-1.16015 1.535157,-1.16015 0.527343,0 0.773437,0.51562 0.773437,1.13672 0,0.57422 -0.339844,1.93359 -0.632812,2.55468 -0.304688,0.64454 -0.855469,1.21875 -1.40625,1.21875 z m 0,0"
         style="fill:#000000;fill-opacity:1;fill-rule:nonzero;stroke:none" />
      <path
         id="path40"
         d="m 88.405242,246.82105 h 3.304688 c 0.164062,0 0.375,0 0.375,-0.21094 0,-0.22266 -0.199219,-0.22266 -0.375,-0.22266 h -3.304688 v -3.30468 c 0,-0.16407 0,-0.38672 -0.210937,-0.38672 -0.234375,0 -0.234375,0.21093 -0.234375,0.38672 v 3.30468 h -3.292969 c -0.175781,0 -0.386719,0 -0.386719,0.21094 0,0.22266 0.199219,0.22266 0.386719,0.22266 h 3.292969 v 3.30468 c 0,0.16407 0,0.38672 0.222656,0.38672 0.222656,0 0.222656,-0.21093 0.222656,-0.38672 z m 0,0"
         style="fill:#000000;fill-opacity:1;fill-rule:nonzero;stroke:none" />
      <path
         id="path41"
         d="m 100.07419,245.08667 c -0.234377,0 -0.339846,0 -0.503909,0.15235 -0.07031,0.0586 -0.199218,0.23437 -0.199218,0.42187 0,0.24609 0.175781,0.38672 0.398437,0.38672 0.29297,0 0.60938,-0.23438 0.60938,-0.71484 0,-0.57422 -0.550786,-1.01954 -1.371099,-1.01954 -1.570312,0 -3.128906,1.71094 -3.128906,3.41016 0,1.04297 0.644531,1.98047 1.863281,1.98047 1.628907,0 2.648434,-1.26563 2.648434,-1.41797 0,-0.0703 -0.0703,-0.12891 -0.11718,-0.12891 -0.0352,0 -0.0469,0.0117 -0.15235,0.11719 -0.761716,1.00781 -1.898435,1.19531 -2.355466,1.19531 -0.820313,0 -1.089844,-0.71484 -1.089844,-1.3125 0,-0.42187 0.199219,-1.58203 0.632813,-2.39062 0.316406,-0.5625 0.960937,-1.20703 1.710937,-1.20703 0.152344,0 0.808594,0.0234 1.05469,0.52734 z m 0,0"
         style="fill:#000000;fill-opacity:1;fill-rule:nonzero;stroke:none" />
      <path
         id="path42"
         d="m 103.80954,246.61011 c 0,-0.91406 -0.12891,-2.39063 -0.79688,-3.77344 -0.70312,-1.4414 -1.67578,-2.21484 -1.8164,-2.21484 -0.0469,0 -0.10547,0.0234 -0.10547,0.0937 0,0.0352 0,0.0586 0.19922,0.26953 1.19531,1.20703 1.875,3.17578 1.875,5.61328 0,2.32031 -0.5625,4.3125 -1.95703,5.73047 -0.11719,0.10547 -0.11719,0.12891 -0.11719,0.16406 0,0.0703 0.0586,0.0937 0.10547,0.0937 0.16406,0 1.13672,-0.85547 1.72265,-2.02734 0.60938,-1.21875 0.89063,-2.51953 0.89063,-3.94922 z m 0,0"
         style="fill:#000000;fill-opacity:1;fill-rule:nonzero;stroke:none" />
      <path
         id="path43"
         d="m 107.23727,243.6189 c 0.12891,-0.11719 0.45703,-0.375 0.58594,-0.49219 0.49219,-0.45703 0.96094,-0.89062 0.96094,-1.61719 0,-0.94922 -0.79688,-1.55859 -1.79297,-1.55859 -0.94922,0 -1.58203,0.72656 -1.58203,1.42969 0,0.39843 0.3164,0.44531 0.42187,0.44531 0.16407,0 0.41016,-0.11719 0.41016,-0.42188 0,-0.41015 -0.39844,-0.41015 -0.49219,-0.41015 0.23438,-0.58594 0.77344,-0.78516 1.16016,-0.78516 0.73828,0 1.125,0.63281 1.125,1.30078 0,0.83203 -0.58594,1.42969 -1.52344,2.40235 l -1.00781,1.03125 c -0.0937,0.0937 -0.0937,0.10547 -0.0937,0.30468 h 3.15234 l 0.22266,-1.42968 h -0.2461 c -0.0234,0.16406 -0.082,0.5625 -0.17578,0.71484 -0.0469,0.0586 -0.65625,0.0586 -0.78515,0.0586 h -1.41797 z m 0,0"
         style="fill:#000000;fill-opacity:1;fill-rule:nonzero;stroke:none" />
    </g>
    <path
       id="path44"
       d="M 0,0 H 61.156"
       style="fill:none;stroke:#000000;stroke-width:0.398;stroke-linecap:butt;stroke-linejoin:miter;stroke-miterlimit:10;stroke-dasharray:none;stroke-opacity:1"
       transform="matrix(1.3333333,0,0,-1.3333333,341.024,395.64933)" />
    <g
       id="g44"
       aria-label="ab+bc+ac&#10;=3.&#10;Wyka»,»eliczbya,b,cs¡równe.&#10;ZADANIE4.&#10;Czyistniej¡takieliczbycaªkowitex,y,z,t,»ex&#10;2&#10;+y&#10;2&#10;=z&#10;2&#10;+t&#10;2&#10;orazx+y+z+t=2023?&#10;ZADANIE5.&#10;Natablicynapisanoliczbynaturalneod1do10.Czymo»naumie±ci¢mi¦dzynimiznakiplus&#10;orazminuswtakisposób,abyotrzyma¢0?"
       transform="matrix(1.3333333,0,0,1.3333333,341.024,410.568)">
      <path
         id="path45"
         d="m 3.5972344,-1.4191641 c -0.058594,0.1992188 -0.058594,0.2226563 -0.2226563,0.44531254 -0.2695312,0.33984375 -0.796875,0.85546875 -1.359375,0.85546875 -0.4804687,0 -0.7617187,-0.4453125 -0.7617187,-1.14843749 0,-0.65625 0.375,-1.9921875 0.5976562,-2.4960938 0.4101563,-0.84375 0.9726563,-1.265625 1.4414063,-1.265625 0.7851562,0 0.9375,0.9726563 0.9375,1.0664063 0,0.011719 -0.035156,0.1757812 -0.046875,0.1992187 z M 4.3589531,-4.4894766 C 4.2300469,-4.7941641 3.9136406,-5.2746328 3.2925469,-5.2746328 c -1.359375,0 -2.81250003,1.7460937 -2.81250003,3.515625 0,1.18359374 0.69140623,1.87499999 1.50000003,1.87499999 0.65625,0 1.21875,-0.515625 1.5585937,-0.90234375 0.1171875,0.703125 0.6796875,0.90234375 1.0429688,0.90234375 0.3515625,0 0.6445312,-0.2109375 0.8554687,-0.64453125 0.1875,-0.41015625 0.3632813,-1.13671874 0.3632813,-1.18359374 0,-0.058594 -0.046875,-0.1054688 -0.1171875,-0.1054688 -0.1171875,0 -0.1289063,0.058594 -0.1757813,0.234375 -0.1757812,0.71484379 -0.3984375,1.46484379 -0.890625,1.46484379 -0.3515625,0 -0.375,-0.31640625 -0.375,-0.55078125 0,-0.28125 0.035156,-0.41015624 0.140625,-0.87890624 0.082031,-0.2929688 0.1523438,-0.5625 0.2460938,-0.9023438 0.4335937,-1.7929687 0.5507812,-2.2265625 0.5507812,-2.296875 0,-0.1640625 -0.140625,-0.2929687 -0.3164062,-0.2929687 -0.375,0 -0.4804688,0.4101562 -0.5039063,0.5507812 z m 4.5527344,-3.5039062 c 0.011719,-0.046875 0.035156,-0.1289063 0.035156,-0.1875 0,-0.1171875 -0.1289062,-0.1171875 -0.1523437,-0.1171875 -0.011719,0 -0.4335938,0.035156 -0.65625,0.058594 -0.1992188,0.011719 -0.375,0.035156 -0.5976563,0.046875 -0.28125,0.023437 -0.3632812,0.035156 -0.3632812,0.2578125 0,0.1171875 0.1171875,0.1171875 0.234375,0.1171875 0.609375,0 0.609375,0.1054688 0.609375,0.2226563 0,0.082031 -0.09375,0.4335937 -0.140625,0.6445312 l -0.2929688,1.1484375 c -0.1171875,0.4804688 -0.796875,3.1992188 -0.84375,3.4101563 -0.058594,0.2929687 -0.058594,0.5039062 -0.058594,0.65625 0,1.21874999 0.6796875,1.85156249 1.453125,1.85156249 1.3945312,0 2.8242195,-1.78124999 2.8242195,-3.51562499 0,-1.1015625 -0.621094,-1.875 -1.5117195,-1.875 -0.6328125,0 -1.1835938,0.515625 -1.4179688,0.75 z m -0.7617188,7.87499999 c -0.375,0 -0.796875,-0.29296875 -0.796875,-1.21874999 0,-0.3984375 0.035156,-0.6210938 0.2460938,-1.4648438 0.046875,-0.1523437 0.234375,-0.9140625 0.28125,-1.0664062 0.023437,-0.1054688 0.7265625,-1.1601563 1.5351562,-1.1601563 0.5273438,0 0.7734373,0.515625 0.7734373,1.1367188 0,0.5742187 -0.3398435,1.9335937 -0.6328123,2.5546875 -0.3046875,0.64453124 -0.8554687,1.21874999 -1.40625,1.21874999 z m 0,0"
         style="fill:#000000;fill-opacity:1;fill-rule:nonzero;stroke:none" />
      <path
         id="path46"
         d="m 18.54743,-2.7668203 h 3.304687 c 0.164063,0 0.375,0 0.375,-0.2109375 0,-0.2226563 -0.199219,-0.2226563 -0.375,-0.2226563 H 18.54743 v -3.3046875 c 0,-0.1640625 0,-0.3867187 -0.210938,-0.3867187 -0.234375,0 -0.234375,0.2109375 -0.234375,0.3867187 v 3.3046875 h -3.292969 c -0.175781,0 -0.386718,0 -0.386718,0.2109375 0,0.2226563 0.199218,0.2226563 0.386718,0.2226563 h 3.292969 v 3.30468749 c 0,0.1640625 0,0.38671875 0.222656,0.38671875 0.222657,0 0.222657,-0.2109375 0.222657,-0.38671875 z m 0,0"
         style="fill:#000000;fill-opacity:1;fill-rule:nonzero;stroke:none" />
      <path
         id="path47"
         d="m 28.306219,-7.9933828 c 0.01172,-0.046875 0.03516,-0.1289063 0.03516,-0.1875 0,-0.1171875 -0.128906,-0.1171875 -0.152344,-0.1171875 -0.01172,0 -0.433594,0.035156 -0.65625,0.058594 -0.199219,0.011719 -0.375,0.035156 -0.597656,0.046875 -0.28125,0.023437 -0.363281,0.035156 -0.363281,0.2578125 0,0.1171875 0.117187,0.1171875 0.234375,0.1171875 0.609375,0 0.609375,0.1054688 0.609375,0.2226563 0,0.082031 -0.09375,0.4335937 -0.140625,0.6445312 L 26.982,-5.8019766 c -0.117188,0.4804688 -0.796875,3.1992188 -0.84375,3.4101563 -0.05859,0.2929687 -0.05859,0.5039062 -0.05859,0.65625 0,1.21874999 0.679688,1.85156249 1.453125,1.85156249 1.394531,0 2.824219,-1.78124999 2.824219,-3.51562499 0,-1.1015625 -0.621094,-1.875 -1.511719,-1.875 -0.632812,0 -1.183594,0.515625 -1.417969,0.75 z M 27.5445,-0.11838281 c -0.375,0 -0.796875,-0.29296875 -0.796875,-1.21874999 0,-0.3984375 0.03516,-0.6210938 0.246094,-1.4648438 0.04687,-0.1523437 0.234375,-0.9140625 0.28125,-1.0664062 0.02344,-0.1054688 0.726562,-1.1601563 1.535156,-1.1601563 0.527344,0 0.773437,0.515625 0.773437,1.1367188 0,0.5742187 -0.339843,1.9335937 -0.632812,2.5546875 -0.304688,0.64453124 -0.855469,1.21874999 -1.40625,1.21874999 z m 7.649414,-4.38281249 c -0.234375,0 -0.339844,0 -0.503906,0.1523437 -0.07031,0.058594 -0.199219,0.234375 -0.199219,0.421875 0,0.2460938 0.175781,0.3867188 0.398438,0.3867188 0.292968,0 0.609375,-0.234375 0.609375,-0.7148438 0,-0.5742187 -0.550782,-1.0195312 -1.371094,-1.0195312 -1.570313,0 -3.128906,1.7109375 -3.128906,3.4101562 0,1.04296879 0.644531,1.98046879 1.863281,1.98046879 1.628906,0 2.648437,-1.26562499 2.648437,-1.41796879 0,-0.070312 -0.07031,-0.1289062 -0.117187,-0.1289062 -0.03516,0 -0.04687,0.011719 -0.152344,0.1171875 -0.761719,1.00781249 -1.898437,1.19531249 -2.355469,1.19531249 -0.820312,0 -1.089843,-0.71484375 -1.089843,-1.31249999 0,-0.421875 0.199218,-1.5820313 0.632812,-2.390625 0.316406,-0.5625 0.960938,-1.2070313 1.710938,-1.2070313 0.152343,0 0.808593,0.023437 1.054687,0.5273438 z m 0,0"
         style="fill:#000000;fill-opacity:1;fill-rule:nonzero;stroke:none" />
      <path
         id="path48"
         d="m 42.981023,-2.7668203 h 3.304688 c 0.164062,0 0.375,0 0.375,-0.2109375 0,-0.2226563 -0.199219,-0.2226563 -0.375,-0.2226563 h -3.304688 v -3.3046875 c 0,-0.1640625 0,-0.3867187 -0.210937,-0.3867187 -0.234375,0 -0.234375,0.2109375 -0.234375,0.3867187 v 3.3046875 h -3.292969 c -0.175781,0 -0.386719,0 -0.386719,0.2109375 0,0.2226563 0.199219,0.2226563 0.386719,0.2226563 h 3.292969 v 3.30468749 c 0,0.1640625 0,0.38671875 0.222656,0.38671875 0.222656,0 0.222656,-0.2109375 0.222656,-0.38671875 z m 0,0"
         style="fill:#000000;fill-opacity:1;fill-rule:nonzero;stroke:none" />
      <path
         id="path49"
         d="m 53.571844,-1.4191641 c -0.05859,0.1992188 -0.05859,0.2226563 -0.222657,0.44531254 -0.269531,0.33984375 -0.796875,0.85546875 -1.359375,0.85546875 -0.480468,0 -0.761718,-0.4453125 -0.761718,-1.14843749 0,-0.65625 0.375,-1.9921875 0.597656,-2.4960938 0.410156,-0.84375 0.972656,-1.265625 1.441406,-1.265625 0.785156,0 0.9375,0.9726563 0.9375,1.0664063 0,0.011719 -0.03516,0.1757812 -0.04687,0.1992187 z m 0.761718,-3.0703125 c -0.128906,-0.3046875 -0.445312,-0.7851562 -1.066406,-0.7851562 -1.359375,0 -2.8125,1.7460937 -2.8125,3.515625 0,1.18359374 0.691406,1.87499999 1.5,1.87499999 0.65625,0 1.21875,-0.515625 1.558594,-0.90234375 0.117187,0.703125 0.679687,0.90234375 1.042969,0.90234375 0.351562,0 0.644531,-0.2109375 0.855468,-0.64453125 0.1875,-0.41015625 0.363282,-1.13671874 0.363282,-1.18359374 0,-0.058594 -0.04687,-0.1054688 -0.117188,-0.1054688 -0.117187,0 -0.128906,0.058594 -0.175781,0.234375 -0.175781,0.71484379 -0.398438,1.46484379 -0.890625,1.46484379 -0.351563,0 -0.375,-0.31640625 -0.375,-0.55078125 0,-0.28125 0.03516,-0.41015624 0.140625,-0.87890624 0.08203,-0.2929688 0.152344,-0.5625 0.246094,-0.9023438 0.433593,-1.7929687 0.550781,-2.2265625 0.550781,-2.296875 0,-0.1640625 -0.140625,-0.2929687 -0.316406,-0.2929687 -0.375,0 -0.480469,0.4101562 -0.503907,0.5507812 z m 6.459961,-0.011719 c -0.234375,0 -0.339843,0 -0.503906,0.1523437 -0.07031,0.058594 -0.199219,0.234375 -0.199219,0.421875 0,0.2460938 0.175782,0.3867188 0.398438,0.3867188 0.292969,0 0.609375,-0.234375 0.609375,-0.7148438 0,-0.5742187 -0.550781,-1.0195312 -1.371094,-1.0195312 -1.570312,0 -3.128906,1.7109375 -3.128906,3.4101562 0,1.04296879 0.644531,1.98046879 1.863281,1.98046879 1.628906,0 2.648438,-1.26562499 2.648438,-1.41796879 0,-0.070312 -0.07031,-0.1289062 -0.117188,-0.1289062 -0.03516,0 -0.04687,0.011719 -0.152344,0.1171875 -0.761718,1.00781249 -1.898437,1.19531249 -2.355468,1.19531249 -0.820313,0 -1.089844,-0.71484375 -1.089844,-1.31249999 0,-0.421875 0.199219,-1.5820313 0.632812,-2.390625 0.316407,-0.5625 0.960938,-1.2070313 1.710938,-1.2070313 0.152344,0 0.808594,0.023437 1.054687,0.5273438 z m 0,0"
         style="fill:#000000;fill-opacity:1;fill-rule:nonzero;stroke:none" />
      <path
         id="path50"
         d="m 73.745672,-12.068578 c 0.164062,0 0.375,0 0.375,-0.222656 0,-0.222657 -0.199219,-0.222657 -0.375,-0.222657 h -7.042969 c -0.175781,0 -0.386719,0 -0.386719,0.210938 0,0.234375 0.199219,0.234375 0.386719,0.234375 z m 0,2.2148436 c 0.164062,0 0.375,0 0.375,-0.2109376 0,-0.234375 -0.199219,-0.234375 -0.375,-0.234375 h -7.042969 c -0.175781,0 -0.386719,0 -0.386719,0.222656 0,0.2226566 0.199219,0.2226566 0.386719,0.2226566 z m 6.55664,-2.6367186 c -0.210937,0.01172 -0.257812,0.02344 -0.257812,0.128906 0,0.117188 0.05859,0.117188 0.28125,0.117188 h 0.550781 c 1.007813,0 1.464844,0.84375 1.464844,1.992187 0,1.5585939 -0.808594,1.9804689 -1.394531,1.9804689 -0.574219,0 -1.558594,-0.28125 -1.898438,-1.0664063 0.375,0.058594 0.726563,-0.1523437 0.726563,-0.5859375 0,-0.3398441 -0.257813,-0.5859371 -0.585938,-0.5859371 -0.292969,0 -0.597656,0.164062 -0.597656,0.6210934 0,1.0664062 1.066406,1.9335937 2.390625,1.9335937 1.417969,0 2.472656,-1.078125 2.472656,-2.2851561 0,-1.101563 -0.890625,-1.96875 -2.027344,-2.167969 1.03125,-0.304687 1.699219,-1.171875 1.699219,-2.109375 0,-0.9375 -0.972656,-1.628906 -2.132812,-1.628906 -1.195313,0 -2.085938,0.726562 -2.085938,1.59375 0,0.480469 0.375,0.574219 0.550781,0.574219 0.257813,0 0.539063,-0.175782 0.539063,-0.539063 0,-0.375 -0.28125,-0.539062 -0.550781,-0.539062 -0.07031,0 -0.09375,0 -0.128907,0.01172 0.457032,-0.820312 1.582032,-0.820312 1.640625,-0.820312 0.386719,0 1.171875,0.175781 1.171875,1.347656 0,0.234375 -0.03516,0.902344 -0.386718,1.417969 -0.351563,0.527344 -0.761719,0.5625 -1.089844,0.574219 z m 0,0"
         style="fill:#000000;fill-opacity:1;fill-rule:nonzero;stroke:none" />
      <path
         id="path51"
         d="m 86.152898,-8.7756094 c 0,-0.3515625 -0.292968,-0.5859375 -0.574218,-0.5859375 -0.351563,0 -0.585938,0.2929688 -0.585938,0.5742188 0,0.3515625 0.28125,0.5859375 0.574219,0.5859375 0.339844,0 0.585937,-0.28125 0.585937,-0.5742188 z m 0,0"
         style="fill:#000000;fill-opacity:1;fill-rule:nonzero;stroke:none" />
      <path
         id="path52"
         d="m -105.92327,20.749781 c -0.0586,0.199219 -0.0586,0.222657 -0.22266,0.445313 -0.26953,0.339844 -0.79687,0.855469 -1.35937,0.855469 -0.48047,0 -0.76172,-0.445313 -0.76172,-1.148438 0,-0.65625 0.375,-1.992187 0.59765,-2.496094 0.41016,-0.84375 0.97266,-1.265625 1.44141,-1.265625 0.78516,0 0.9375,0.972657 0.9375,1.066407 0,0.01172 -0.0352,0.175781 -0.0469,0.199218 z m 0.76172,-3.070312 c -0.12891,-0.304688 -0.44532,-0.785156 -1.06641,-0.785156 -1.35938,0 -2.8125,1.746093 -2.8125,3.515625 0,1.183593 0.69141,1.875 1.5,1.875 0.65625,0 1.21875,-0.515625 1.55859,-0.902344 0.11719,0.703125 0.67969,0.902344 1.04297,0.902344 0.35156,0 0.64453,-0.210938 0.85547,-0.644532 0.1875,-0.410156 0.36328,-1.136718 0.36328,-1.183593 0,-0.05859 -0.0469,-0.105469 -0.11719,-0.105469 -0.11718,0 -0.1289,0.05859 -0.17578,0.234375 -0.17578,0.714844 -0.39843,1.464844 -0.89062,1.464844 -0.35156,0 -0.375,-0.316407 -0.375,-0.550782 0,-0.28125 0.0352,-0.410156 0.14062,-0.878906 0.082,-0.292969 0.15235,-0.5625 0.2461,-0.902344 0.43359,-1.792968 0.55078,-2.226562 0.55078,-2.296875 0,-0.164062 -0.14063,-0.292968 -0.31641,-0.292968 -0.375,0 -0.48047,0.410156 -0.5039,0.550781 z m 0,0"
         style="fill:#000000;fill-opacity:1;fill-rule:nonzero;stroke:none" />
      <path
         id="path53"
         d="m -93.457453,14.175563 c 0.01172,-0.04687 0.03516,-0.128907 0.03516,-0.1875 0,-0.117188 -0.128906,-0.117188 -0.152344,-0.117188 -0.01172,0 -0.433593,0.03516 -0.65625,0.05859 -0.199218,0.01172 -0.375,0.03516 -0.597656,0.04687 -0.28125,0.02344 -0.363281,0.03516 -0.363281,0.257812 0,0.117188 0.117187,0.117188 0.234375,0.117188 0.609375,0 0.609375,0.105469 0.609375,0.222656 0,0.08203 -0.09375,0.433594 -0.140625,0.644531 l -0.292969,1.148438 c -0.117187,0.480469 -0.796875,3.199219 -0.84375,3.410156 -0.05859,0.292969 -0.05859,0.503906 -0.05859,0.65625 0,1.21875 0.679688,1.851563 1.453125,1.851563 1.394532,0 2.824219,-1.78125 2.824219,-3.515625 0,-1.101563 -0.621094,-1.875 -1.511719,-1.875 -0.632812,0 -1.183593,0.515625 -1.417968,0.75 z m -0.761719,7.875 c -0.375,0 -0.796875,-0.292969 -0.796875,-1.21875 0,-0.398438 0.03516,-0.621094 0.246094,-1.464844 0.04687,-0.152344 0.234375,-0.914063 0.28125,-1.066406 0.02344,-0.105469 0.726562,-1.160157 1.535156,-1.160157 0.527344,0 0.773438,0.515625 0.773438,1.136719 0,0.574219 -0.339844,1.933594 -0.632813,2.554688 -0.304687,0.644531 -0.855469,1.21875 -1.40625,1.21875 z m 0,0"
         style="fill:#000000;fill-opacity:1;fill-rule:nonzero;stroke:none" />
      <path
         id="path54"
         d="m -79.418391,17.66775 c -0.234375,0 -0.339843,0 -0.503906,0.152344 -0.07031,0.05859 -0.199219,0.234375 -0.199219,0.421875 0,0.246094 0.175782,0.386719 0.398438,0.386719 0.292969,0 0.609375,-0.234375 0.609375,-0.714844 0,-0.574219 -0.550781,-1.019531 -1.371094,-1.019531 -1.570312,0 -3.128906,1.710937 -3.128906,3.410156 0,1.042969 0.644531,1.980469 1.863281,1.980469 1.628906,0 2.648438,-1.265625 2.648438,-1.417969 0,-0.07031 -0.07031,-0.128906 -0.117188,-0.128906 -0.03516,0 -0.04687,0.01172 -0.152344,0.117187 -0.761718,1.007813 -1.898437,1.195313 -2.355468,1.195313 -0.820313,0 -1.089844,-0.714844 -1.089844,-1.3125 0,-0.421875 0.199219,-1.582032 0.632812,-2.390625 0.316407,-0.5625 0.960938,-1.207032 1.710938,-1.207032 0.152344,0 0.808594,0.02344 1.054687,0.527344 z m 0,0"
         style="fill:#000000;fill-opacity:1;fill-rule:nonzero;stroke:none" />
      <path
         id="path55"
         d="m -14.033625,60.356227 c -0.375,0.07031 -0.515625,0.351562 -0.515625,0.585937 0,0.28125 0.222656,0.375 0.386719,0.375 0.363281,0 0.609375,-0.304687 0.609375,-0.632812 0,-0.492188 -0.574219,-0.726563 -1.078125,-0.726563 -0.726563,0 -1.125,0.714844 -1.242188,0.949219 -0.269531,-0.902344 -1.007812,-0.949219 -1.230468,-0.949219 -1.21875,0 -1.863282,1.570313 -1.863282,1.828125 0,0.04687 0.04687,0.105469 0.128907,0.105469 0.105468,0 0.128906,-0.07031 0.152343,-0.117188 0.398438,-1.324218 1.207032,-1.570312 1.546875,-1.570312 0.539063,0 0.644532,0.492187 0.644532,0.785156 0,0.257813 -0.07031,0.539063 -0.210938,1.113281 -0.1875,0.761719 -0.234375,0.9375 -0.410156,1.628907 -0.175781,0.726562 -0.527344,1.382812 -1.160156,1.382812 -0.05859,0 -0.351563,0 -0.609375,-0.152344 0.433593,-0.09375 0.527343,-0.445312 0.527343,-0.585937 0,-0.246094 -0.175781,-0.386719 -0.398437,-0.386719 -0.292969,0 -0.597656,0.246094 -0.597656,0.632813 0,0.503906 0.5625,0.726562 1.066406,0.726562 0.574219,0 0.984375,-0.457031 1.230469,-0.9375 0.199218,0.703125 0.796875,0.9375 1.230468,0.9375 1.230469,0 1.875,-1.558594 1.875,-1.828125 0,-0.05859 -0.04687,-0.105469 -0.128906,-0.105469 -0.105469,0 -0.117188,0.05859 -0.152344,0.152344 -0.316406,1.054688 -1.019531,1.546875 -1.546875,1.546875 -0.421875,0 -0.65625,-0.316406 -0.65625,-0.808594 0,-0.257812 0.05859,-0.445312 0.246094,-1.242187 0.140625,-0.550781 0.292969,-1.183594 0.421875,-1.617188 0.175781,-0.726562 0.585937,-1.242187 1.125,-1.242187 0.03516,0 0.363281,0 0.609375,0.152344 z m 0,0"
         style="fill:#000000;fill-opacity:1;fill-rule:nonzero;stroke:none" />
      <path
         id="path56"
         d="m -2.7484688,66.567164 c -0.3164062,0.457031 -0.7851562,0.867188 -1.3710937,0.867188 -0.140625,0 -0.7148438,-0.02344 -0.9023438,-0.574219 0.046875,0.01172 0.1054688,0.01172 0.1289063,0.01172 0.3515625,0 0.5976562,-0.316407 0.5976562,-0.585938 0,-0.28125 -0.234375,-0.375 -0.4101562,-0.375 -0.1875,0 -0.609375,0.140625 -0.609375,0.726563 0,0.609375 0.515625,1.03125 1.1953125,1.03125 1.1953125,0 2.4023437,-1.101563 2.7421875,-2.425782 L -0.2055,60.578883 c 0.0117188,-0.05859 0.0351563,-0.128906 0.0351563,-0.199219 0,-0.175781 -0.15234375,-0.304687 -0.328125,-0.304687 -0.10546875,0 -0.36328125,0.04687 -0.45703125,0.410156 l -0.87890625,3.515625 c -0.058594,0.210937 -0.058594,0.234375 -0.1523437,0.375 -0.2460939,0.328125 -0.6445314,0.738281 -1.2070313,0.738281 -0.6796875,0 -0.7382812,-0.65625 -0.7382812,-0.984375 0,-0.679687 0.328125,-1.605469 0.6445312,-2.460937 0.140625,-0.351563 0.2109375,-0.515625 0.2109375,-0.75 0,-0.503907 -0.3632812,-0.960938 -0.9492187,-0.960938 -1.1015625,0 -1.5351563,1.734375 -1.5351563,1.828125 0,0.04687 0.046875,0.105469 0.1289063,0.105469 0.1054687,0 0.1171875,-0.04687 0.1640625,-0.210938 0.2929687,-1.007812 0.7382812,-1.476562 1.2070312,-1.476562 0.1054688,0 0.3164063,0 0.3164063,0.386719 0,0.316406 -0.140625,0.65625 -0.3164063,1.113281 -0.5859375,1.570312 -0.5859375,1.957031 -0.5859375,2.25 0,1.136719 0.8085938,1.394531 1.40625,1.394531 0.3515625,0 0.7851563,-0.105469 1.1953125,-0.550781 l 0.011719,0.01172 c -0.1757813,0.703125 -0.2929688,1.171875 -0.7148438,1.757812 z m 0,0"
         style="fill:#000000;fill-opacity:1;fill-rule:nonzero;stroke:none" />
      <path
         id="path57"
         d="m 8.9204766,64.25857 c 0.5039062,-0.585937 0.9257812,-0.949218 1.5234374,-1.488281 0.714844,-0.621094 1.03125,-0.925781 1.195313,-1.101562 0.84375,-0.820313 1.253906,-1.523438 1.253906,-1.617188 0,-0.09375 -0.09375,-0.09375 -0.117188,-0.09375 -0.08203,0 -0.105468,0.04687 -0.164062,0.128906 -0.304688,0.515625 -0.585938,0.773438 -0.902344,0.773438 -0.246094,0 -0.375,-0.117188 -0.609375,-0.398438 -0.246094,-0.292968 -0.457031,-0.503906 -0.796875,-0.503906 -0.8789062,0 -1.3945312,1.089844 -1.3945312,1.335938 0,0.03516 0.011719,0.117187 0.1171875,0.117187 0.09375,0 0.1054688,-0.04687 0.140625,-0.140625 0.1992188,-0.46875 0.7734375,-0.5625 1.0078127,-0.5625 0.246094,0 0.480469,0.09375 0.738281,0.199219 0.457031,0.1875 0.644531,0.1875 0.761719,0.1875 0.08203,0 0.128906,0 0.1875,-0.01172 -0.386719,0.46875 -1.03125,1.042969 -1.570313,1.535156 -0.7617184,0.667969 -0.9726559,0.878907 -1.2070309,1.101563 -0.7265625,0.75 -1.171875,1.453125 -1.171875,1.535156 0,0.07031 0.058594,0.09375 0.1289062,0.09375 0.070312,0 0.082031,-0.01172 0.1640625,-0.152344 0.1992188,-0.304687 0.5742188,-0.738281 1.0195313,-0.738281 0.2460937,0 0.375,0.08203 0.609375,0.375 0.2226559,0.269531 0.4335939,0.515625 0.8085939,0.515625 1.171875,0 1.851562,-1.511719 1.851562,-1.792969 0,-0.04687 -0.01172,-0.117187 -0.140625,-0.117187 -0.09375,0 -0.105468,0.04687 -0.140625,0.164062 -0.257812,0.703125 -0.972656,0.996094 -1.429687,0.996094 -0.257813,0 -0.492188,-0.08203 -0.75,-0.1875 -0.4687502,-0.199219 -0.6093752,-0.199219 -0.7617189,-0.199219 -0.1171875,0 -0.2460938,0 -0.3515625,0.04687 z m 0,0"
         style="fill:#000000;fill-opacity:1;fill-rule:nonzero;stroke:none" />
      <path
         id="path58"
         d="m 22.924383,60.426539 h 1.101562 c 0.222657,0 0.339844,0 0.339844,-0.210937 0,-0.140625 -0.07031,-0.140625 -0.304687,-0.140625 h -1.054688 l 0.445313,-1.746094 c 0.04687,-0.164063 0.04687,-0.1875 0.04687,-0.269531 0,-0.1875 -0.152344,-0.304688 -0.316407,-0.304688 -0.09375,0 -0.363281,0.04687 -0.457031,0.421875 l -0.46875,1.898438 h -1.125 c -0.234375,0 -0.351562,0 -0.351562,0.234375 0,0.117187 0.09375,0.117187 0.316406,0.117187 h 1.066406 l -0.796875,3.152344 c -0.09375,0.421875 -0.128906,0.539062 -0.128906,0.691406 0,0.5625 0.398437,1.078125 1.066406,1.078125 1.207031,0 1.851563,-1.746094 1.851563,-1.828125 0,-0.07031 -0.04687,-0.105469 -0.117188,-0.105469 -0.02344,0 -0.07031,0 -0.09375,0.04687 -0.01172,0.01172 -0.02344,0.02344 -0.105469,0.210938 -0.257812,0.597656 -0.808593,1.441406 -1.5,1.441406 -0.363281,0 -0.386718,-0.304687 -0.386718,-0.5625 0,-0.01172 0,-0.246094 0.03516,-0.386719 z m 0,0"
         style="fill:#000000;fill-opacity:1;fill-rule:nonzero;stroke:none" />
      <path
         id="path59"
         d="m 51.863836,60.356227 c -0.375,0.07031 -0.515625,0.351562 -0.515625,0.585937 0,0.28125 0.222656,0.375 0.386719,0.375 0.363281,0 0.609375,-0.304687 0.609375,-0.632812 0,-0.492188 -0.574219,-0.726563 -1.078125,-0.726563 -0.726563,0 -1.125,0.714844 -1.242188,0.949219 -0.269531,-0.902344 -1.007812,-0.949219 -1.230469,-0.949219 -1.21875,0 -1.863281,1.570313 -1.863281,1.828125 0,0.04687 0.04687,0.105469 0.128906,0.105469 0.105469,0 0.128907,-0.07031 0.152344,-0.117188 0.398438,-1.324218 1.207031,-1.570312 1.546875,-1.570312 0.539063,0 0.644531,0.492187 0.644531,0.785156 0,0.257813 -0.07031,0.539063 -0.210937,1.113281 -0.1875,0.761719 -0.234375,0.9375 -0.410156,1.628907 -0.175782,0.726562 -0.527344,1.382812 -1.160157,1.382812 -0.05859,0 -0.351562,0 -0.609375,-0.152344 0.433594,-0.09375 0.527344,-0.445312 0.527344,-0.585937 0,-0.246094 -0.175781,-0.386719 -0.398437,-0.386719 -0.292969,0 -0.597657,0.246094 -0.597657,0.632813 0,0.503906 0.5625,0.726562 1.066407,0.726562 0.574218,0 0.984375,-0.457031 1.230468,-0.9375 0.199219,0.703125 0.796875,0.9375 1.230469,0.9375 1.230469,0 1.875,-1.558594 1.875,-1.828125 0,-0.05859 -0.04687,-0.105469 -0.128906,-0.105469 -0.105469,0 -0.117188,0.05859 -0.152344,0.152344 -0.316406,1.054688 -1.019531,1.546875 -1.546875,1.546875 -0.421875,0 -0.65625,-0.316406 -0.65625,-0.808594 0,-0.257812 0.05859,-0.445312 0.246094,-1.242187 0.140625,-0.550781 0.292969,-1.183594 0.421875,-1.617188 0.175781,-0.726562 0.585937,-1.242187 1.125,-1.242187 0.03516,0 0.363281,0 0.609375,0.152344 z m 0,0"
         style="fill:#000000;fill-opacity:1;fill-rule:nonzero;stroke:none" />
      <path
         id="path60"
         d="m 55.107,59.266383 c 0.128906,-0.117188 0.457031,-0.375 0.585937,-0.492188 0.492188,-0.457031 0.960938,-0.890625 0.960938,-1.617187 0,-0.949219 -0.796875,-1.558594 -1.792969,-1.558594 -0.949219,0 -1.582031,0.726563 -1.582031,1.429688 0,0.398437 0.316406,0.445312 0.421875,0.445312 0.164062,0 0.410156,-0.117187 0.410156,-0.421875 0,-0.410156 -0.398437,-0.410156 -0.492187,-0.410156 0.234375,-0.585938 0.773437,-0.785156 1.160156,-0.785156 0.738281,0 1.125,0.632812 1.125,1.300781 0,0.832031 -0.585938,1.429687 -1.523438,2.402344 l -1.007812,1.03125 c -0.09375,0.09375 -0.09375,0.105468 -0.09375,0.304687 h 3.152344 l 0.222656,-1.429687 h -0.246094 c -0.02344,0.164062 -0.08203,0.5625 -0.175781,0.714843 -0.04687,0.05859 -0.65625,0.05859 -0.785156,0.05859 h -1.417969 z m 0,0"
         style="fill:#000000;fill-opacity:1;fill-rule:nonzero;stroke:none" />
      <path
         id="path61"
         d="m 65.015203,62.465602 h 3.304688 c 0.164062,0 0.375,0 0.375,-0.210938 0,-0.222656 -0.199219,-0.222656 -0.375,-0.222656 H 65.015203 V 58.72732 c 0,-0.164062 0,-0.386718 -0.210937,-0.386718 -0.234375,0 -0.234375,0.210937 -0.234375,0.386718 v 3.304688 h -3.292969 c -0.175781,0 -0.386719,0 -0.386719,0.210937 0,0.222657 0.199219,0.222657 0.386719,0.222657 h 3.292969 v 3.304687 c 0,0.164063 0,0.386719 0.222656,0.386719 0.222656,0 0.222656,-0.210938 0.222656,-0.386719 z m 0,0"
         style="fill:#000000;fill-opacity:1;fill-rule:nonzero;stroke:none" />
      <path
         id="path62"
         d="m 75.146062,66.567164 c -0.316406,0.457031 -0.785156,0.867188 -1.371093,0.867188 -0.140625,0 -0.714844,-0.02344 -0.902344,-0.574219 0.04687,0.01172 0.105469,0.01172 0.128906,0.01172 0.351563,0 0.597656,-0.316407 0.597656,-0.585938 0,-0.28125 -0.234375,-0.375 -0.410156,-0.375 -0.1875,0 -0.609375,0.140625 -0.609375,0.726563 0,0.609375 0.515625,1.03125 1.195313,1.03125 1.195312,0 2.402343,-1.101563 2.742187,-2.425782 l 1.171875,-4.664062 c 0.01172,-0.05859 0.03516,-0.128906 0.03516,-0.199219 0,-0.175781 -0.152343,-0.304687 -0.328125,-0.304687 -0.105468,0 -0.363281,0.04687 -0.457031,0.410156 l -0.878906,3.515625 c -0.05859,0.210937 -0.05859,0.234375 -0.152344,0.375 -0.246094,0.328125 -0.644531,0.738281 -1.207031,0.738281 -0.679688,0 -0.738281,-0.65625 -0.738281,-0.984375 0,-0.679687 0.328125,-1.605469 0.644531,-2.460937 0.140625,-0.351563 0.210937,-0.515625 0.210937,-0.75 0,-0.503907 -0.363281,-0.960938 -0.949218,-0.960938 -1.101563,0 -1.535157,1.734375 -1.535157,1.828125 0,0.04687 0.04687,0.105469 0.128907,0.105469 0.105468,0 0.117187,-0.04687 0.164062,-0.210938 0.292969,-1.007812 0.738281,-1.476562 1.207031,-1.476562 0.105469,0 0.316407,0 0.316407,0.386719 0,0.316406 -0.140625,0.65625 -0.316407,1.113281 -0.585937,1.570312 -0.585937,1.957031 -0.585937,2.25 0,1.136719 0.808594,1.394531 1.40625,1.394531 0.351562,0 0.785156,-0.105469 1.195312,-0.550781 l 0.01172,0.01172 c -0.175781,0.703125 -0.292969,1.171875 -0.714844,1.757812 z m 0,0"
         style="fill:#000000;fill-opacity:1;fill-rule:nonzero;stroke:none" />
      <path
         id="path63"
         d="m 80.393133,59.266383 c 0.128906,-0.117188 0.457031,-0.375 0.585937,-0.492188 0.492188,-0.457031 0.960938,-0.890625 0.960938,-1.617187 0,-0.949219 -0.796875,-1.558594 -1.792969,-1.558594 -0.949219,0 -1.582031,0.726563 -1.582031,1.429688 0,0.398437 0.316406,0.445312 0.421875,0.445312 0.164062,0 0.410156,-0.117187 0.410156,-0.421875 0,-0.410156 -0.398437,-0.410156 -0.492187,-0.410156 0.234375,-0.585938 0.773437,-0.785156 1.160156,-0.785156 0.738281,0 1.125,0.632812 1.125,1.300781 0,0.832031 -0.585938,1.429687 -1.523438,2.402344 l -1.007812,1.03125 c -0.09375,0.09375 -0.09375,0.105468 -0.09375,0.304687 h 3.152344 l 0.222656,-1.429687 h -0.246094 c -0.02344,0.164062 -0.08203,0.5625 -0.175781,0.714843 -0.04687,0.05859 -0.65625,0.05859 -0.785156,0.05859 h -1.417969 z m 0,0"
         style="fill:#000000;fill-opacity:1;fill-rule:nonzero;stroke:none" />
      <path
         id="path64"
         d="m 94.271062,61.364039 c 0.164063,0 0.375,0 0.375,-0.222656 0,-0.222656 -0.199218,-0.222656 -0.375,-0.222656 h -7.042968 c -0.175782,0 -0.386719,0 -0.386719,0.210937 0,0.234375 0.199219,0.234375 0.386719,0.234375 z m 0,2.214844 c 0.164063,0 0.375,0 0.375,-0.210938 0,-0.234375 -0.199218,-0.234375 -0.375,-0.234375 h -7.042968 c -0.175782,0 -0.386719,0 -0.386719,0.222657 0,0.222656 0.199219,0.222656 0.386719,0.222656 z m 0,0"
         style="fill:#000000;fill-opacity:1;fill-rule:nonzero;stroke:none" />
      <path
         id="path65"
         d="m 100.14509,64.25857 c 0.5039,-0.585937 0.92578,-0.949218 1.52343,-1.488281 0.71485,-0.621094 1.03125,-0.925781 1.19532,-1.101562 0.84375,-0.820313 1.2539,-1.523438 1.2539,-1.617188 0,-0.09375 -0.0937,-0.09375 -0.11719,-0.09375 -0.082,0 -0.10546,0.04687 -0.16406,0.128906 -0.30469,0.515625 -0.58594,0.773438 -0.90234,0.773438 -0.2461,0 -0.375,-0.117188 -0.60938,-0.398438 -0.24609,-0.292968 -0.45703,-0.503906 -0.79687,-0.503906 -0.87891,0 -1.39453,1.089844 -1.39453,1.335938 0,0.03516 0.0117,0.117187 0.11718,0.117187 0.0937,0 0.10547,-0.04687 0.14063,-0.140625 0.19922,-0.46875 0.77344,-0.5625 1.00781,-0.5625 0.2461,0 0.48047,0.09375 0.73828,0.199219 0.45703,0.1875 0.64453,0.1875 0.76172,0.1875 0.082,0 0.12891,0 0.1875,-0.01172 -0.38672,0.46875 -1.03125,1.042969 -1.57031,1.535156 -0.76172,0.667969 -0.97266,0.878907 -1.20703,1.101563 -0.726564,0.75 -1.171877,1.453125 -1.171877,1.535156 0,0.07031 0.05859,0.09375 0.128907,0.09375 0.07031,0 0.08203,-0.01172 0.164062,-0.152344 0.199219,-0.304687 0.574218,-0.738281 1.019528,-0.738281 0.2461,0 0.375,0.08203 0.60938,0.375 0.22265,0.269531 0.43359,0.515625 0.80859,0.515625 1.17188,0 1.85156,-1.511719 1.85156,-1.792969 0,-0.04687 -0.0117,-0.117187 -0.14062,-0.117187 -0.0937,0 -0.10547,0.04687 -0.14063,0.164062 -0.25781,0.703125 -0.97265,0.996094 -1.42968,0.996094 -0.25782,0 -0.49219,-0.08203 -0.75,-0.1875 -0.46875,-0.199219 -0.60938,-0.199219 -0.76172,-0.199219 -0.11719,0 -0.2461,0 -0.35156,0.04687 z m 0,0"
         style="fill:#000000;fill-opacity:1;fill-rule:nonzero;stroke:none" />
      <path
         id="path66"
         d="m 106.84235,59.266383 c 0.12891,-0.117188 0.45703,-0.375 0.58594,-0.492188 0.49219,-0.457031 0.96094,-0.890625 0.96094,-1.617187 0,-0.949219 -0.79688,-1.558594 -1.79297,-1.558594 -0.94922,0 -1.58203,0.726563 -1.58203,1.429688 0,0.398437 0.3164,0.445312 0.42187,0.445312 0.16406,0 0.41016,-0.117187 0.41016,-0.421875 0,-0.410156 -0.39844,-0.410156 -0.49219,-0.410156 0.23438,-0.585938 0.77344,-0.785156 1.16016,-0.785156 0.73828,0 1.125,0.632812 1.125,1.300781 0,0.832031 -0.58594,1.429687 -1.52344,2.402344 l -1.00781,1.03125 c -0.0937,0.09375 -0.0937,0.105468 -0.0937,0.304687 h 3.15234 l 0.22266,-1.429687 h -0.2461 c -0.0234,0.164062 -0.082,0.5625 -0.17578,0.714843 -0.0469,0.05859 -0.65625,0.05859 -0.78515,0.05859 h -1.41797 z m 0,0"
         style="fill:#000000;fill-opacity:1;fill-rule:nonzero;stroke:none" />
      <path
         id="path67"
         d="m 116.75055,62.465602 h 3.30469 c 0.16406,0 0.375,0 0.375,-0.210938 0,-0.222656 -0.19922,-0.222656 -0.375,-0.222656 h -3.30469 V 58.72732 c 0,-0.164062 0,-0.386718 -0.21093,-0.386718 -0.23438,0 -0.23438,0.210937 -0.23438,0.386718 v 3.304688 h -3.29297 c -0.17578,0 -0.38672,0 -0.38672,0.210937 0,0.222657 0.19922,0.222657 0.38672,0.222657 h 3.29297 v 3.304687 c 0,0.164063 0,0.386719 0.22266,0.386719 0.22265,0 0.22265,-0.210938 0.22265,-0.386719 z m 0,0"
         style="fill:#000000;fill-opacity:1;fill-rule:nonzero;stroke:none" />
      <path
         id="path68"
         d="m 126.14313,60.426539 h 1.10157 c 0.22265,0 0.33984,0 0.33984,-0.210937 0,-0.140625 -0.0703,-0.140625 -0.30469,-0.140625 h -1.05469 l 0.44532,-1.746094 c 0.0469,-0.164063 0.0469,-0.1875 0.0469,-0.269531 0,-0.1875 -0.15234,-0.304688 -0.3164,-0.304688 -0.0937,0 -0.36329,0.04687 -0.45704,0.421875 l -0.46875,1.898438 h -1.125 c -0.23437,0 -0.35156,0 -0.35156,0.234375 0,0.117187 0.0937,0.117187 0.31641,0.117187 h 1.0664 l -0.79687,3.152344 c -0.0937,0.421875 -0.12891,0.539062 -0.12891,0.691406 0,0.5625 0.39844,1.078125 1.06641,1.078125 1.20703,0 1.85156,-1.746094 1.85156,-1.828125 0,-0.07031 -0.0469,-0.105469 -0.11719,-0.105469 -0.0234,0 -0.0703,0 -0.0937,0.04687 -0.0117,0.01172 -0.0234,0.02344 -0.10546,0.210938 -0.25782,0.597656 -0.8086,1.441406 -1.5,1.441406 -0.36329,0 -0.38672,-0.304687 -0.38672,-0.5625 0,-0.01172 0,-0.246094 0.0352,-0.386719 z m 0,0"
         style="fill:#000000;fill-opacity:1;fill-rule:nonzero;stroke:none" />
      <path
         id="path69"
         d="m 130.22126,59.266383 c 0.1289,-0.117188 0.45703,-0.375 0.58594,-0.492188 0.49218,-0.457031 0.96093,-0.890625 0.96093,-1.617187 0,-0.949219 -0.79687,-1.558594 -1.79297,-1.558594 -0.94921,0 -1.58203,0.726563 -1.58203,1.429688 0,0.398437 0.31641,0.445312 0.42188,0.445312 0.16406,0 0.41015,-0.117187 0.41015,-0.421875 0,-0.410156 -0.39843,-0.410156 -0.49218,-0.410156 0.23437,-0.585938 0.77343,-0.785156 1.16015,-0.785156 0.73828,0 1.125,0.632812 1.125,1.300781 0,0.832031 -0.58593,1.429687 -1.52343,2.402344 l -1.00782,1.03125 c -0.0937,0.09375 -0.0937,0.105468 -0.0937,0.304687 h 3.15235 l 0.22265,-1.429687 h -0.24609 c -0.0234,0.164062 -0.082,0.5625 -0.17578,0.714843 -0.0469,0.05859 -0.65625,0.05859 -0.78516,0.05859 h -1.41797 z m 0,0"
         style="fill:#000000;fill-opacity:1;fill-rule:nonzero;stroke:none" />
      <path
         id="path70"
         d="m 167.61872,60.356227 c -0.375,0.07031 -0.51563,0.351562 -0.51563,0.585937 0,0.28125 0.22266,0.375 0.38672,0.375 0.36328,0 0.60938,-0.304687 0.60938,-0.632812 0,-0.492188 -0.57422,-0.726563 -1.07813,-0.726563 -0.72656,0 -1.125,0.714844 -1.24219,0.949219 -0.26953,-0.902344 -1.00781,-0.949219 -1.23046,-0.949219 -1.21875,0 -1.86329,1.570313 -1.86329,1.828125 0,0.04687 0.0469,0.105469 0.12891,0.105469 0.10547,0 0.12891,-0.07031 0.15234,-0.117188 0.39844,-1.324218 1.20704,-1.570312 1.54688,-1.570312 0.53906,0 0.64453,0.492187 0.64453,0.785156 0,0.257813 -0.0703,0.539063 -0.21094,1.113281 -0.1875,0.761719 -0.23437,0.9375 -0.41015,1.628907 -0.17578,0.726562 -0.52735,1.382812 -1.16016,1.382812 -0.0586,0 -0.35156,0 -0.60937,-0.152344 0.43359,-0.09375 0.52734,-0.445312 0.52734,-0.585937 0,-0.246094 -0.17578,-0.386719 -0.39844,-0.386719 -0.29297,0 -0.59765,0.246094 -0.59765,0.632813 0,0.503906 0.5625,0.726562 1.0664,0.726562 0.57422,0 0.98438,-0.457031 1.23047,-0.9375 0.19922,0.703125 0.79688,0.9375 1.23047,0.9375 1.23047,0 1.875,-1.558594 1.875,-1.828125 0,-0.05859 -0.0469,-0.105469 -0.12891,-0.105469 -0.10547,0 -0.11718,0.05859 -0.15234,0.152344 -0.31641,1.054688 -1.01953,1.546875 -1.54688,1.546875 -0.42187,0 -0.65625,-0.316406 -0.65625,-0.808594 0,-0.257812 0.0586,-0.445312 0.2461,-1.242187 0.14062,-0.550781 0.29297,-1.183594 0.42187,-1.617188 0.17578,-0.726562 0.58594,-1.242187 1.125,-1.242187 0.0352,0 0.36328,0 0.60938,0.152344 z m 0,0"
         style="fill:#000000;fill-opacity:1;fill-rule:nonzero;stroke:none" />
      <path
         id="path71"
         d="m 176.03864,62.465602 h 3.30469 c 0.16406,0 0.375,0 0.375,-0.210938 0,-0.222656 -0.19922,-0.222656 -0.375,-0.222656 h -3.30469 V 58.72732 c 0,-0.164062 0,-0.386718 -0.21094,-0.386718 -0.23437,0 -0.23437,0.210937 -0.23437,0.386718 v 3.304688 h -3.29297 c -0.17578,0 -0.38672,0 -0.38672,0.210937 0,0.222657 0.19922,0.222657 0.38672,0.222657 h 3.29297 v 3.304687 c 0,0.164063 0,0.386719 0.22265,0.386719 0.22266,0 0.22266,-0.210938 0.22266,-0.386719 z m 0,0"
         style="fill:#000000;fill-opacity:1;fill-rule:nonzero;stroke:none" />
      <path
         id="path72"
         d="m 186.1695,66.567164 c -0.31641,0.457031 -0.78516,0.867188 -1.37109,0.867188 -0.14063,0 -0.71485,-0.02344 -0.90235,-0.574219 0.0469,0.01172 0.10547,0.01172 0.12891,0.01172 0.35156,0 0.59765,-0.316407 0.59765,-0.585938 0,-0.28125 -0.23437,-0.375 -0.41015,-0.375 -0.1875,0 -0.60938,0.140625 -0.60938,0.726563 0,0.609375 0.51563,1.03125 1.19532,1.03125 1.19531,0 2.40234,-1.101563 2.74218,-2.425782 l 1.17188,-4.664062 c 0.0117,-0.05859 0.0352,-0.128906 0.0352,-0.199219 0,-0.175781 -0.15234,-0.304687 -0.32812,-0.304687 -0.10547,0 -0.36328,0.04687 -0.45703,0.410156 l -0.87891,3.515625 c -0.0586,0.210937 -0.0586,0.234375 -0.15234,0.375 -0.2461,0.328125 -0.64453,0.738281 -1.20703,0.738281 -0.67969,0 -0.73828,-0.65625 -0.73828,-0.984375 0,-0.679687 0.32812,-1.605469 0.64453,-2.460937 0.14062,-0.351563 0.21093,-0.515625 0.21093,-0.75 0,-0.503907 -0.36328,-0.960938 -0.94921,-0.960938 -1.10157,0 -1.53516,1.734375 -1.53516,1.828125 0,0.04687 0.0469,0.105469 0.12891,0.105469 0.10546,0 0.11718,-0.04687 0.16406,-0.210938 0.29297,-1.007812 0.73828,-1.476562 1.20703,-1.476562 0.10547,0 0.31641,0 0.31641,0.386719 0,0.316406 -0.14063,0.65625 -0.31641,1.113281 -0.58594,1.570312 -0.58594,1.957031 -0.58594,2.25 0,1.136719 0.8086,1.394531 1.40625,1.394531 0.35156,0 0.78516,-0.105469 1.19531,-0.550781 l 0.0117,0.01172 c -0.17578,0.703125 -0.29297,1.171875 -0.71484,1.757812 z m 0,0"
         style="fill:#000000;fill-opacity:1;fill-rule:nonzero;stroke:none" />
      <path
         id="path73"
         d="m 196.59333,62.465602 h 3.30469 c 0.16406,0 0.375,0 0.375,-0.210938 0,-0.222656 -0.19922,-0.222656 -0.375,-0.222656 h -3.30469 V 58.72732 c 0,-0.164062 0,-0.386718 -0.21094,-0.386718 -0.23437,0 -0.23437,0.210937 -0.23437,0.386718 v 3.304688 h -3.29297 c -0.17578,0 -0.38672,0 -0.38672,0.210937 0,0.222657 0.19922,0.222657 0.38672,0.222657 h 3.29297 v 3.304687 c 0,0.164063 0,0.386719 0.22265,0.386719 0.22266,0 0.22266,-0.210938 0.22266,-0.386719 z m 0,0"
         style="fill:#000000;fill-opacity:1;fill-rule:nonzero;stroke:none" />
      <path
         id="path74"
         d="m 205.107,64.25857 c 0.50391,-0.585937 0.92578,-0.949218 1.52344,-1.488281 0.71484,-0.621094 1.03125,-0.925781 1.19531,-1.101562 0.84375,-0.820313 1.25391,-1.523438 1.25391,-1.617188 0,-0.09375 -0.0937,-0.09375 -0.11719,-0.09375 -0.082,0 -0.10547,0.04687 -0.16406,0.128906 -0.30469,0.515625 -0.58594,0.773438 -0.90235,0.773438 -0.24609,0 -0.375,-0.117188 -0.60937,-0.398438 -0.2461,-0.292968 -0.45703,-0.503906 -0.79688,-0.503906 -0.8789,0 -1.39453,1.089844 -1.39453,1.335938 0,0.03516 0.0117,0.117187 0.11719,0.117187 0.0937,0 0.10547,-0.04687 0.14062,-0.140625 0.19922,-0.46875 0.77344,-0.5625 1.00782,-0.5625 0.24609,0 0.48046,0.09375 0.73828,0.199219 0.45703,0.1875 0.64453,0.1875 0.76172,0.1875 0.082,0 0.1289,0 0.1875,-0.01172 -0.38672,0.46875 -1.03125,1.042969 -1.57032,1.535156 -0.76172,0.667969 -0.97265,0.878907 -1.20703,1.101563 -0.72656,0.75 -1.17187,1.453125 -1.17187,1.535156 0,0.07031 0.0586,0.09375 0.1289,0.09375 0.0703,0 0.082,-0.01172 0.16407,-0.152344 0.19921,-0.304687 0.57421,-0.738281 1.01953,-0.738281 0.24609,0 0.375,0.08203 0.60937,0.375 0.22266,0.269531 0.4336,0.515625 0.8086,0.515625 1.17187,0 1.85156,-1.511719 1.85156,-1.792969 0,-0.04687 -0.0117,-0.117187 -0.14063,-0.117187 -0.0937,0 -0.10547,0.04687 -0.14062,0.164062 -0.25781,0.703125 -0.97266,0.996094 -1.42969,0.996094 -0.25781,0 -0.49219,-0.08203 -0.75,-0.1875 -0.46875,-0.199219 -0.60937,-0.199219 -0.76172,-0.199219 -0.11719,0 -0.24609,0 -0.35156,0.04687 z m 0,0"
         style="fill:#000000;fill-opacity:1;fill-rule:nonzero;stroke:none" />
      <path
         id="path75"
         d="m 216.98102,62.465602 h 3.30469 c 0.16406,0 0.375,0 0.375,-0.210938 0,-0.222656 -0.19922,-0.222656 -0.375,-0.222656 h -3.30469 V 58.72732 c 0,-0.164062 0,-0.386718 -0.21093,-0.386718 -0.23438,0 -0.23438,0.210937 -0.23438,0.386718 v 3.304688 h -3.29297 c -0.17578,0 -0.38672,0 -0.38672,0.210937 0,0.222657 0.19922,0.222657 0.38672,0.222657 h 3.29297 v 3.304687 c 0,0.164063 0,0.386719 0.22266,0.386719 0.22265,0 0.22265,-0.210938 0.22265,-0.386719 z m 0,0"
         style="fill:#000000;fill-opacity:1;fill-rule:nonzero;stroke:none" />
      <path
         id="path76"
         d="m 226.37653,60.426539 h 1.10156 c 0.22266,0 0.33985,0 0.33985,-0.210937 0,-0.140625 -0.0703,-0.140625 -0.30469,-0.140625 h -1.05469 l 0.44531,-1.746094 c 0.0469,-0.164063 0.0469,-0.1875 0.0469,-0.269531 0,-0.1875 -0.15234,-0.304688 -0.31641,-0.304688 -0.0937,0 -0.36328,0.04687 -0.45703,0.421875 l -0.46875,1.898438 h -1.125 c -0.23437,0 -0.35156,0 -0.35156,0.234375 0,0.117187 0.0937,0.117187 0.31641,0.117187 h 1.0664 l -0.79687,3.152344 c -0.0937,0.421875 -0.12891,0.539062 -0.12891,0.691406 0,0.5625 0.39844,1.078125 1.06641,1.078125 1.20703,0 1.85156,-1.746094 1.85156,-1.828125 0,-0.07031 -0.0469,-0.105469 -0.11719,-0.105469 -0.0234,0 -0.0703,0 -0.0937,0.04687 -0.0117,0.01172 -0.0234,0.02344 -0.10547,0.210938 -0.25781,0.597656 -0.80859,1.441406 -1.5,1.441406 -0.36328,0 -0.38672,-0.304687 -0.38672,-0.5625 0,-0.01172 0,-0.246094 0.0352,-0.386719 z m 0,0"
         style="fill:#000000;fill-opacity:1;fill-rule:nonzero;stroke:none" />
      <path
         id="path77"
         d="m 239.59528,61.364039 c 0.16406,0 0.375,0 0.375,-0.222656 0,-0.222656 -0.19922,-0.222656 -0.375,-0.222656 h -7.04297 c -0.17578,0 -0.38672,0 -0.38672,0.210937 0,0.234375 0.19922,0.234375 0.38672,0.234375 z m 0,2.214844 c 0.16406,0 0.375,0 0.375,-0.210938 0,-0.234375 -0.19922,-0.234375 -0.375,-0.234375 h -7.04297 c -0.17578,0 -0.38672,0 -0.38672,0.222657 0,0.222656 0.19922,0.222656 0.38672,0.222656 z m 9.61524,-0.351563 h -0.26954 c -0.0351,0.199219 -0.1289,0.855469 -0.24609,1.042969 -0.082,0.117188 -0.76172,0.117188 -1.125,0.117188 h -2.21484 c 0.32812,-0.28125 1.05468,-1.042969 1.37109,-1.335938 1.81641,-1.664062 2.48438,-2.285156 2.48438,-3.46875 0,-1.382812 -1.08985,-2.296875 -2.47266,-2.296875 -1.39453,0 -2.20313,1.183594 -2.20313,2.203125 0,0.609375 0.52735,0.609375 0.5625,0.609375 0.2461,0 0.5625,-0.175781 0.5625,-0.5625 0,-0.328125 -0.23437,-0.550781 -0.5625,-0.550781 -0.10546,0 -0.1289,0 -0.16406,0.01172 0.22266,-0.820313 0.86719,-1.371094 1.64063,-1.371094 1.01953,0 1.64062,0.855469 1.64062,1.957031 0,1.007813 -0.58594,1.898438 -1.26562,2.660156 l -2.41407,2.707032 v 0.28125 h 4.35938 z m 5.94726,-1.816406 c 0,-0.996094 -0.0586,-1.96875 -0.49219,-2.871094 -0.49218,-0.996093 -1.34765,-1.253906 -1.93359,-1.253906 -0.69141,0 -1.54688,0.339844 -1.98047,1.335938 -0.33984,0.75 -0.45703,1.488281 -0.45703,2.789062 0,1.160156 0.082,2.027344 0.51562,2.871094 0.45704,0.914062 1.28907,1.195312 1.91016,1.195312 1.04297,0 1.64063,-0.621093 1.98047,-1.3125 0.43359,-0.890625 0.45703,-2.0625 0.45703,-2.753906 z m -2.4375,3.832031 c -0.38672,0 -1.16016,-0.210937 -1.38281,-1.523437 -0.14063,-0.714844 -0.14063,-1.617188 -0.14063,-2.460938 0,-0.972656 0,-1.863281 0.19922,-2.566406 0.19922,-0.796875 0.8086,-1.171875 1.32422,-1.171875 0.45703,0 1.14844,0.28125 1.37109,1.300781 0.15235,0.679688 0.15235,1.628907 0.15235,2.4375 0,0.808594 0,1.710938 -0.12891,2.4375 -0.22265,1.324219 -0.97265,1.546875 -1.39453,1.546875 z m 8.19727,-2.015625 h -0.26953 c -0.0352,0.199219 -0.12891,0.855469 -0.2461,1.042969 -0.082,0.117188 -0.76172,0.117188 -1.125,0.117188 h -2.21484 c 0.32812,-0.28125 1.05469,-1.042969 1.37109,-1.335938 1.81641,-1.664062 2.48438,-2.285156 2.48438,-3.46875 0,-1.382812 -1.08985,-2.296875 -2.47266,-2.296875 -1.39453,0 -2.20312,1.183594 -2.20312,2.203125 0,0.609375 0.52734,0.609375 0.5625,0.609375 0.24609,0 0.5625,-0.175781 0.5625,-0.5625 0,-0.328125 -0.23438,-0.550781 -0.5625,-0.550781 -0.10547,0 -0.12891,0 -0.16407,0.01172 0.22266,-0.820313 0.86719,-1.371094 1.64063,-1.371094 1.01953,0 1.64062,0.855469 1.64062,1.957031 0,1.007813 -0.58593,1.898438 -1.26562,2.660156 l -2.41406,2.707032 v 0.28125 h 4.35937 z m 2.79492,-2.285156 c -0.21094,0.01172 -0.25781,0.02344 -0.25781,0.128906 0,0.117188 0.0586,0.117188 0.28125,0.117188 h 0.55078 c 1.00781,0 1.46484,0.84375 1.46484,1.992187 0,1.558594 -0.80859,1.980469 -1.39453,1.980469 -0.57422,0 -1.55859,-0.28125 -1.89844,-1.066406 0.375,0.05859 0.72656,-0.152344 0.72656,-0.585938 0,-0.339843 -0.25781,-0.585937 -0.58593,-0.585937 -0.29297,0 -0.59766,0.164062 -0.59766,0.621094 0,1.066406 1.06641,1.933593 2.39063,1.933593 1.41796,0 2.47265,-1.078125 2.47265,-2.285156 0,-1.101562 -0.89062,-1.96875 -2.02734,-2.167969 1.03125,-0.304687 1.69922,-1.171875 1.69922,-2.109375 0,-0.9375 -0.97266,-1.628906 -2.13282,-1.628906 -1.19531,0 -2.08593,0.726563 -2.08593,1.59375 0,0.480469 0.375,0.574219 0.55078,0.574219 0.25781,0 0.53906,-0.175781 0.53906,-0.539063 0,-0.375 -0.28125,-0.539062 -0.55078,-0.539062 -0.0703,0 -0.0937,0 -0.12891,0.01172 0.45703,-0.820313 1.58203,-0.820313 1.64063,-0.820313 0.38672,0 1.17187,0.175781 1.17187,1.347656 0,0.234375 -0.0351,0.902344 -0.38672,1.417969 -0.35156,0.527344 -0.76171,0.5625 -1.08984,0.574219 z m 0,0"
         style="fill:#000000;fill-opacity:1;fill-rule:nonzero;stroke:none" />
      <path
         id="path78"
         d="m 14.952703,100.63357 c 0,-0.26953 0,-0.28125 -0.246094,-0.28125 -0.28125,0.31641 -0.878906,0.76172 -2.109375,0.76172 v 0.35156 c 0.269532,0 0.867188,0 1.523438,-0.3164 v 6.22265 c 0,0.4336 -0.03516,0.57422 -1.078125,0.57422 h -0.375 v 0.35156 c 0.316406,-0.0234 1.476562,-0.0234 1.875,-0.0234 0.398437,0 1.546875,0 1.863281,0.0234 v -0.35156 h -0.363281 c -1.054688,0 -1.089844,-0.14062 -1.089844,-0.57422 z m 0,0"
         style="fill:#000000;fill-opacity:1;fill-rule:nonzero;stroke:none" />
      <path
         id="path79"
         d="m 41.296453,100.63357 c 0,-0.26953 0,-0.28125 -0.246094,-0.28125 -0.28125,0.31641 -0.878906,0.76172 -2.109375,0.76172 v 0.35156 c 0.269532,0 0.867188,0 1.523438,-0.3164 v 6.22265 c 0,0.4336 -0.03516,0.57422 -1.078125,0.57422 h -0.375 v 0.35156 c 0.316406,-0.0234 1.476562,-0.0234 1.875,-0.0234 0.398437,0 1.546875,0 1.863281,0.0234 v -0.35156 h -0.363281 c -1.054688,0 -1.089844,-0.14062 -1.089844,-0.57422 z m 7.763672,3.84375 c 0,-0.99609 -0.05859,-1.96875 -0.492188,-2.87109 -0.492187,-0.9961 -1.347656,-1.25391 -1.933593,-1.25391 -0.691407,0 -1.546875,0.33984 -1.980469,1.33594 -0.339844,0.75 -0.457031,1.48828 -0.457031,2.78906 0,1.16016 0.08203,2.02734 0.515625,2.87109 0.457031,0.91407 1.289062,1.19532 1.910156,1.19532 1.042969,0 1.640625,-0.6211 1.980469,-1.3125 0.433593,-0.89063 0.457031,-2.0625 0.457031,-2.75391 z m -2.4375,3.83203 c -0.386719,0 -1.160156,-0.21094 -1.382813,-1.52344 -0.140625,-0.71484 -0.140625,-1.61718 -0.140625,-2.46093 0,-0.97266 0,-1.86328 0.199219,-2.56641 0.199219,-0.79687 0.808594,-1.17187 1.324219,-1.17187 0.457031,0 1.148437,0.28125 1.371094,1.30078 0.152343,0.67968 0.152343,1.6289 0.152343,2.4375 0,0.80859 0,1.71093 -0.128906,2.4375 -0.222656,1.32422 -0.972656,1.54687 -1.394531,1.54687 z m 0,0"
         style="fill:#000000;fill-opacity:1;fill-rule:nonzero;stroke:none" />
      <path
         id="path80"
         d="m 17.618719,118.92361 c 0,-0.99609 -0.05859,-1.96875 -0.492188,-2.87109 -0.492187,-0.9961 -1.347656,-1.25391 -1.933594,-1.25391 -0.691406,0 -1.546875,0.33984 -1.980468,1.33594 -0.339844,0.75 -0.457032,1.48828 -0.457032,2.78906 0,1.16016 0.08203,2.02734 0.515625,2.87109 0.457032,0.91407 1.289063,1.19532 1.910157,1.19532 1.042968,0 1.640625,-0.6211 1.980468,-1.3125 0.433594,-0.89063 0.457032,-2.0625 0.457032,-2.75391 z m -2.4375,3.83203 c -0.386719,0 -1.160157,-0.21094 -1.382813,-1.52344 -0.140625,-0.71484 -0.140625,-1.61718 -0.140625,-2.46093 0,-0.97266 0,-1.86329 0.199219,-2.56641 0.199219,-0.79688 0.808594,-1.17188 1.324219,-1.17188 0.457031,0 1.148437,0.28125 1.371093,1.30079 0.152344,0.67968 0.152344,1.6289 0.152344,2.4375 0,0.80859 0,1.71093 -0.128906,2.4375 -0.222656,1.32421 -0.972656,1.54687 -1.394531,1.54687 z m 0,0"
         style="fill:#000000;fill-opacity:1;fill-rule:nonzero;stroke:none" />
    </g>
  </g>
</svg>
