<?xml version="1.0" encoding="UTF-8" standalone="no"?>
<!-- Created with Inkscape (http://www.inkscape.org/) -->

<svg
   version="1.1"
   id="svg1"
   width="793.62665"
   height="1122.6667"
   viewBox="0 0 793.62665 1122.6667"
   sodipodi:docname="F1_M_PP_C2012_page17.pdf"
   xmlns:inkscape="http://www.inkscape.org/namespaces/inkscape"
   xmlns:sodipodi="http://sodipodi.sourceforge.net/DTD/sodipodi-0.dtd"
   xmlns="http://www.w3.org/2000/svg"
   xmlns:svg="http://www.w3.org/2000/svg">
  <defs
     id="defs1" />
  <sodipodi:namedview
     id="namedview1"
     pagecolor="#ffffff"
     bordercolor="#000000"
     borderopacity="0.25"
     inkscape:showpageshadow="2"
     inkscape:pageopacity="0.0"
     inkscape:pagecheckerboard="0"
     inkscape:deskcolor="#d1d1d1">
    <inkscape:page
       x="0"
       y="0"
       inkscape:label="1"
       id="page1"
       width="793.62665"
       height="1122.6667"
       margin="0"
       bleed="0" />
  </sodipodi:namedview>
  <g
     id="g1"
     inkscape:groupmode="layer"
     inkscape:label="1">
    <text
       id="text1"
       xml:space="preserve"
       transform="matrix(1.3333333,0,0,1.3333333,288.88,60.2396)"><tspan
         style="font-style:italic;font-variant:normal;font-weight:normal;font-stretch:normal;font-size:10.02px;font-family:'Times New Roman';writing-mode:lr-tb;fill:#000000;fill-opacity:1;fill-rule:nonzero;stroke:none"
         x="0 6.131238 11.150256 14.986914 20.025972 27.26943 29.973827 34.992847 37.452755 44.696213 49.715233 52.419628 57.458687 61.295345 66.334404 69.128983 74.148003 78.605896 81.065811 84.972603 87.432518 94.675972 99.694992 102.48957 106.86731 114.11076 119.12978 121.83418 126.29208 130.74998 133.54456"
         y="0"
         sodipodi:role="line"
         id="tspan1">Egzamin maturalny z matematyki </tspan><tspan
         style="font-style:italic;font-variant:normal;font-weight:normal;font-stretch:normal;font-size:10.02px;font-family:'Times New Roman';writing-mode:lr-tb;fill:#000000;fill-opacity:1;fill-rule:nonzero;stroke:none"
         x="25.8015 31.902678 36.941734 40.818474 43.582993 48.571949 55.825428 58.285339 63.274296 68.313354 73.302315 77.179047 79.943565 84.932526 91.594826 96.633881 103.29618 107.72401"
         y="11.58312"
         sodipodi:role="line"
         id="tspan2">Poziom podstawowy </tspan></text>
    <path
       id="path2"
       d="M 55.2,781.52 H 511.74 V 782 H 55.2 Z"
       style="fill:#000000;fill-opacity:1;fill-rule:nonzero;stroke:none"
       transform="matrix(1.3333333,0,0,-1.3333333,0,1122.6667)" />
    <text
       id="text2"
       xml:space="preserve"
       transform="matrix(1.3333333,0,0,1.3333333,75.6,60.4796)"><tspan
         style="font-style:italic;font-variant:normal;font-weight:700;font-stretch:normal;font-size:10.02px;font-family:'Times New Roman';writing-mode:lr-tb;fill:#000000;fill-opacity:1;fill-rule:nonzero;stroke:none"
         x="0 5.04006 10.02"
         y="0"
         sodipodi:role="line"
         id="tspan3">18 </tspan></text>
    <text
       id="text3"
       xml:space="preserve"
       transform="matrix(1.3333333,0,0,1.3333333,315.12,114.3996)"><tspan
         style="font-variant:normal;font-weight:700;font-stretch:normal;font-size:16.02px;font-family:'Times New Roman';writing-mode:lr-tb;fill:#000000;fill-opacity:1;fill-rule:nonzero;stroke:none"
         x="0 10.66131 22.20372 33.746132 45.28854 56.830952 69.270477 79.034668 85.242416 94.125511"
         y="0"
         sodipodi:role="line"
         id="tspan4">BRUDNOPIS </tspan></text>
  </g>
</svg>
