<?xml version="1.0" encoding="UTF-8" standalone="no"?>
<!-- Created with Inkscape (http://www.inkscape.org/) -->

<svg
   version="1.1"
   id="svg1"
   width="794.55066"
   height="1123.6533"
   viewBox="0 0 794.55066 1123.6533"
   sodipodi:docname="LigaMatematycznaMatuskiego_Klasa7i8_Zestaw3_2019_2020_page0.pdf"
   xmlns:inkscape="http://www.inkscape.org/namespaces/inkscape"
   xmlns:sodipodi="http://sodipodi.sourceforge.net/DTD/sodipodi-0.dtd"
   xmlns="http://www.w3.org/2000/svg"
   xmlns:svg="http://www.w3.org/2000/svg">
  <defs
     id="defs1" />
  <sodipodi:namedview
     id="namedview1"
     pagecolor="#ffffff"
     bordercolor="#000000"
     borderopacity="0.25"
     inkscape:showpageshadow="2"
     inkscape:pageopacity="0.0"
     inkscape:pagecheckerboard="0"
     inkscape:deskcolor="#d1d1d1">
    <inkscape:page
       x="0"
       y="0"
       inkscape:label="1"
       id="page1"
       width="794.55066"
       height="1123.6533"
       margin="0"
       bleed="0" />
  </sodipodi:namedview>
  <g
     id="g1"
     inkscape:groupmode="layer"
     inkscape:label="1">
    <g
       id="g2"
       aria-label="LIGAMATEMATYCZNA&#10;im.ZdzisªawaMatuskiego&#10;GRUDZIE2019&#10;SZKOAPODSTAWOWA&#10;klasyVII-VIII&#10;ZADANIE1.&#10;Przek¡tneACiBDtrapezuABCDprzecinaj¡si¦wpunkcieO.Polatrójk¡tówAOBiCOD&#10;s¡równe9i4.Obliczpoletrapezu.&#10;ZADANIE2.&#10;Spo±ródliczb30,31,32,33jednajestdzielnikiem,innailorazem,ajeszczeinnareszt¡wpewnym&#10;dzieleniuliczbytrzycyfrowej.Znajd¹t¦liczb¦.&#10;ZADANIE3.&#10;Liczbya,b,cs¡caªkowite.Wyka»,»eliczba(a−b)(b−c)(c−a)jestparzysta.&#10;ZADANIE4.&#10;NadªugimpaskuAdamzapisaªliczbycaªkowitedodatniewtakisposób,»esumaka»dych&#10;trzechkolejnychjestrówna10.Liczby1,4,5s¡widoczne.Sprawd¹,czyliczbastoj¡cana&#10;setnymmiejscujestwi¦kszaodliczbystoj¡cejnadwusetnymmiejscu."
       transform="matrix(1.3333333,0,0,1.3333333,274.724,56.069333)">
      <path
         id="path2"
         d="m -91.873078,122.0398 c -0.410156,0.70312 -0.820313,0.9375 -1.394531,0.97265 -0.128907,0.0117 -0.222657,0.0117 -0.222657,0.23438 0,0.0703 0.05859,0.11719 0.140625,0.11719 0.210938,0 0.75,-0.0234 0.972657,-0.0234 0.339843,0 0.726562,0.0234 1.054687,0.0234 0.07031,0 0.222656,0 0.222656,-0.22266 0,-0.11719 -0.09375,-0.12891 -0.175781,-0.12891 -0.269531,-0.0234 -0.492187,-0.11718 -0.492187,-0.39843 0,-0.17579 0.07031,-0.30469 0.222656,-0.5625 l 0.902344,-1.51172 h 3.058593 c 0.01172,0.10547 0.01172,0.21093 0.02344,0.3164 0.03516,0.30469 0.175781,1.54688 0.175781,1.78125 0,0.35157 -0.609375,0.375 -0.796875,0.375 -0.140625,0 -0.269531,0 -0.269531,0.22266 0,0.12891 0.105469,0.12891 0.175781,0.12891 0.210938,0 0.445313,-0.0234 0.65625,-0.0234 h 0.679688 c 0.726562,0 1.253906,0.0234 1.265625,0.0234 0.08203,0 0.210937,0 0.210937,-0.22266 0,-0.12891 -0.105469,-0.12891 -0.28125,-0.12891 -0.65625,0 -0.667969,-0.10547 -0.714844,-0.45703 l -0.726562,-7.46484 c -0.02344,-0.23438 -0.07031,-0.25781 -0.199219,-0.25781 -0.117187,0 -0.1875,0.0234 -0.304687,0.19921 z m 1.441406,-1.83985 2.402344,-4.01953 0.410156,4.01953 z m 14.235352,-5.14453 c 0,-0.10547 -0.08203,-0.10547 -0.105469,-0.10547 -0.02344,0 -0.07031,0 -0.175781,0.11719 l -0.820313,1.00781 c -0.421875,-0.71484 -1.078125,-1.125 -1.96875,-1.125 -2.589844,0 -5.261719,2.61328 -5.261719,5.42578 0,1.99219 1.394532,3.23438 3.140625,3.23438 0.960938,0 1.792969,-0.39844 2.484375,-0.98438 1.042969,-0.8789 1.359375,-2.03906 1.359375,-2.13281 0,-0.10547 -0.09375,-0.10547 -0.140625,-0.10547 -0.105468,0 -0.117187,0.0703 -0.140625,0.11719 -0.550781,1.86328 -2.15625,2.76563 -3.351562,2.76563 -1.277344,0 -2.367188,-0.82032 -2.367188,-2.50782 0,-0.38672 0.117188,-2.46093 1.464844,-4.03125 0.65625,-0.76172 1.78125,-1.4414 2.917969,-1.4414 1.3125,0 1.898437,1.08984 1.898437,2.30859 0,0.31641 -0.03516,0.57422 -0.03516,0.62109 0,0.11719 0.117188,0.11719 0.152344,0.11719 0.140625,0 0.152344,-0.0117 0.199219,-0.23437 z m 0,0"
         style="fill:#000000;fill-opacity:1;fill-rule:nonzero;stroke:none" />
      <path
         id="path3"
         d="m -60.736359,116.01636 c 0.117187,-0.44531 0.164062,-0.46875 0.621093,-0.46875 h 1.558594 c 1.347656,0 1.347656,1.14844 1.347656,1.25391 0,0.97265 -0.960937,2.20312 -2.542968,2.20312 h -1.722657 z m 2.027343,3.08203 c 1.300782,-0.24609 2.484375,-1.14844 2.484375,-2.25 0,-0.92578 -0.832031,-1.65234 -2.179687,-1.65234 h -3.832031 c -0.234375,0 -0.339844,0 -0.339844,0.23437 0,0.11719 0.105469,0.11719 0.292969,0.11719 0.726562,0 0.726562,0.0937 0.726562,0.22266 0,0.0234 0,0.0937 -0.04687,0.28125 l -1.617187,6.43359 c -0.105469,0.41016 -0.128907,0.52734 -0.960938,0.52734 -0.234375,0 -0.351562,0 -0.351562,0.22266 0,0.12891 0.07031,0.12891 0.304687,0.12891 h 4.101563 c 1.828125,0 3.246093,-1.38282 3.246093,-2.58985 0,-0.98437 -0.867187,-1.58203 -1.828125,-1.67578 z m -1.699218,3.91406 h -1.617188 c -0.164062,0 -0.1875,0 -0.257812,-0.0117 -0.128907,-0.0117 -0.152344,-0.0352 -0.152344,-0.1289 0,-0.082 0.03516,-0.15235 0.05859,-0.25781 l 0.832031,-3.375 h 2.25 c 1.40625,0 1.40625,1.3125 1.40625,1.40625 0,1.14843 -1.042969,2.36718 -2.519531,2.36718 z m 6.667968,-0.52734 c -0.105468,0.41016 -0.128906,0.52734 -0.960937,0.52734 -0.234375,0 -0.351563,0 -0.351563,0.22266 0,0.12891 0.07031,0.12891 0.304688,0.12891 h 3.796875 c 2.414062,0 4.769531,-2.4961 4.769531,-5.16797 0,-1.72266 -1.03125,-3 -2.742187,-3 h -3.832032 c -0.234375,0 -0.339843,0 -0.339843,0.23437 0,0.11719 0.105468,0.11719 0.292968,0.11719 0.726563,0 0.726563,0.0937 0.726563,0.22266 0,0.0234 0,0.0937 -0.04687,0.28125 z m 2.519532,-6.46875 c 0.117187,-0.44531 0.164062,-0.46875 0.621093,-0.46875 h 1.324219 c 1.113281,0 2.144531,0.60937 2.144531,2.26172 0,0.59765 -0.234375,2.67187 -1.394531,3.98437 -0.339844,0.39844 -1.242187,1.21875 -2.625,1.21875 h -1.359375 c -0.164062,0 -0.1875,0 -0.257812,-0.0117 -0.128907,-0.0117 -0.140625,-0.0352 -0.140625,-0.1289 0,-0.082 0.02344,-0.15235 0.04687,-0.25781 z m 0,0"
         style="fill:#000000;fill-opacity:1;fill-rule:nonzero;stroke:none" />
      <path
         id="path4"
         d="m 2.6796563,122.0398 c -0.4101563,0.70312 -0.8203125,0.9375 -1.3945313,0.97265 -0.1289062,0.0117 -0.2226562,0.0117 -0.2226562,0.23438 0,0.0703 0.058594,0.11719 0.140625,0.11719 0.2109375,0 0.75,-0.0234 0.9726562,-0.0234 0.3398438,0 0.7265625,0.0234 1.0546875,0.0234 0.070312,0 0.2226563,0 0.2226563,-0.22266 0,-0.11719 -0.09375,-0.12891 -0.1757813,-0.12891 -0.2695312,-0.0234 -0.4921875,-0.11718 -0.4921875,-0.39843 0,-0.17579 0.070312,-0.30469 0.2226563,-0.5625 L 3.910125,120.5398 h 3.0585938 c 0.011719,0.10547 0.011719,0.21093 0.023437,0.3164 0.035156,0.30469 0.1757812,1.54688 0.1757812,1.78125 0,0.35157 -0.609375,0.375 -0.796875,0.375 -0.140625,0 -0.2695312,0 -0.2695312,0.22266 0,0.12891 0.1054687,0.12891 0.1757812,0.12891 0.2109375,0 0.4453125,-0.0234 0.65625,-0.0234 H 7.61325 c 0.7265625,0 1.2539063,0.0234 1.265625,0.0234 0.082031,0 0.2109375,0 0.2109375,-0.22266 0,-0.12891 -0.1054687,-0.12891 -0.28125,-0.12891 -0.65625,0 -0.6679687,-0.10547 -0.7148437,-0.45703 l -0.7265625,-7.46484 c -0.023437,-0.23438 -0.070312,-0.25781 -0.1992188,-0.25781 -0.1171875,0 -0.1875,0.0234 -0.3046875,0.19921 z m 1.4414062,-1.83985 2.4023438,-4.01953 0.4101562,4.01953 z m 9.6767575,-4.18359 c 0.117188,-0.44531 0.164063,-0.46875 0.621094,-0.46875 h 1.558594 c 1.347656,0 1.347656,1.14844 1.347656,1.25391 0,0.97265 -0.960937,2.20312 -2.542969,2.20312 h -1.722656 z m 2.027344,3.08203 c 1.300781,-0.24609 2.484375,-1.14844 2.484375,-2.25 0,-0.92578 -0.832031,-1.65234 -2.179687,-1.65234 H 12.29782 c -0.234375,0 -0.339843,0 -0.339843,0.23437 0,0.11719 0.105468,0.11719 0.292968,0.11719 0.726563,0 0.726563,0.0937 0.726563,0.22266 0,0.0234 0,0.0937 -0.04687,0.28125 l -1.617188,6.43359 c -0.105468,0.41016 -0.128906,0.52734 -0.960937,0.52734 -0.234375,0 -0.351563,0 -0.351563,0.22266 0,0.12891 0.07031,0.12891 0.304688,0.12891 H 14.4072 c 1.828125,0 3.246094,-1.38282 3.246094,-2.58985 0,-0.98437 -0.867187,-1.58203 -1.828125,-1.67578 z m -1.699219,3.91406 h -1.617187 c -0.164063,0 -0.1875,0 -0.257813,-0.0117 -0.128906,-0.0117 -0.152343,-0.0352 -0.152343,-0.1289 0,-0.082 0.03516,-0.15235 0.05859,-0.25781 l 0.832032,-3.375 h 2.25 c 1.40625,0 1.40625,1.3125 1.40625,1.40625 0,1.14843 -1.042969,2.36718 -2.519532,2.36718 z m 13.722657,-7.95703 c 0,-0.10547 -0.08203,-0.10547 -0.105469,-0.10547 -0.02344,0 -0.07031,0 -0.175781,0.11719 l -0.820313,1.00781 c -0.421875,-0.71484 -1.078125,-1.125 -1.96875,-1.125 -2.589844,0 -5.261719,2.61328 -5.261719,5.42578 0,1.99219 1.394532,3.23438 3.140625,3.23438 0.960938,0 1.792969,-0.39844 2.484375,-0.98438 1.042969,-0.8789 1.359375,-2.03906 1.359375,-2.13281 0,-0.10547 -0.09375,-0.10547 -0.140625,-0.10547 -0.105468,0 -0.117187,0.0703 -0.140625,0.11719 -0.550781,1.86328 -2.15625,2.76563 -3.351562,2.76563 -1.277344,0 -2.367188,-0.82032 -2.367188,-2.50782 0,-0.38672 0.117188,-2.46093 1.464844,-4.03125 0.65625,-0.76172 1.78125,-1.4414 2.917969,-1.4414 1.3125,0 1.898437,1.08984 1.898437,2.30859 0,0.31641 -0.03516,0.57422 -0.03516,0.62109 0,0.11719 0.117188,0.11719 0.152344,0.11719 0.140625,0 0.152344,-0.0117 0.199219,-0.23437 z m 2.179687,7.42969 c -0.105469,0.41016 -0.128906,0.52734 -0.960937,0.52734 -0.234375,0 -0.351563,0 -0.351563,0.22266 0,0.12891 0.07031,0.12891 0.304688,0.12891 h 3.796875 c 2.414062,0 4.769531,-2.4961 4.769531,-5.16797 0,-1.72266 -1.03125,-3 -2.742188,-3 h -3.832031 c -0.234375,0 -0.339844,0 -0.339844,0.23437 0,0.11719 0.105469,0.11719 0.292969,0.11719 0.726563,0 0.726563,0.0937 0.726563,0.22266 0,0.0234 0,0.0937 -0.04687,0.28125 z m 2.519531,-6.46875 c 0.117188,-0.44531 0.164063,-0.46875 0.621094,-0.46875 h 1.324219 c 1.113281,0 2.144531,0.60937 2.144531,2.26172 0,0.59765 -0.234375,2.67187 -1.394531,3.98437 -0.339844,0.39844 -1.242188,1.21875 -2.625,1.21875 h -1.359375 c -0.164063,0 -0.1875,0 -0.257813,-0.0117 -0.128906,-0.0117 -0.140625,-0.0352 -0.140625,-0.1289 0,-0.082 0.02344,-0.15235 0.04687,-0.25781 z m 0,0"
         style="fill:#000000;fill-opacity:1;fill-rule:nonzero;stroke:none" />
      <path
         id="path5"
         d="m 178.58981,118.12573 c 0,-1.96875 -1.30078,-3.17578 -2.96484,-3.17578 -2.56641,0 -5.14453,2.75391 -5.14453,5.50782 0,1.875 1.24219,3.15234 2.97656,3.15234 2.50781,0 5.13281,-2.61328 5.13281,-5.48438 z m -5.0625,5.21485 c -0.98437,0 -2.01562,-0.71485 -2.01562,-2.57813 0,-1.08984 0.38672,-2.87109 1.37109,-4.0664 0.86719,-1.05469 1.875,-1.48828 2.67188,-1.48828 1.05468,0 2.07422,0.77343 2.07422,2.49609 0,1.05469 -0.45704,2.71875 -1.25391,3.85547 -0.87891,1.21875 -1.95703,1.78125 -2.84766,1.78125 z m 0,0"
         style="fill:#000000;fill-opacity:1;fill-rule:nonzero;stroke:none" />
      <path
         id="path6"
         d="m 268.82419,122.0398 c -0.41016,0.70312 -0.82031,0.9375 -1.39453,0.97265 -0.12891,0.0117 -0.22266,0.0117 -0.22266,0.23438 0,0.0703 0.0586,0.11719 0.14063,0.11719 0.21093,0 0.75,-0.0234 0.97265,-0.0234 0.33985,0 0.72656,0.0234 1.05469,0.0234 0.0703,0 0.22266,0 0.22266,-0.22266 0,-0.11719 -0.0937,-0.12891 -0.17579,-0.12891 -0.26953,-0.0234 -0.49218,-0.11718 -0.49218,-0.39843 0,-0.17579 0.0703,-0.30469 0.22265,-0.5625 l 0.90235,-1.51172 h 3.05859 c 0.0117,0.10547 0.0117,0.21093 0.0234,0.3164 0.0351,0.30469 0.17578,1.54688 0.17578,1.78125 0,0.35157 -0.60938,0.375 -0.79688,0.375 -0.14062,0 -0.26953,0 -0.26953,0.22266 0,0.12891 0.10547,0.12891 0.17578,0.12891 0.21094,0 0.44532,-0.0234 0.65625,-0.0234 h 0.67969 c 0.72656,0 1.25391,0.0234 1.26563,0.0234 0.082,0 0.21093,0 0.21093,-0.22266 0,-0.12891 -0.10546,-0.12891 -0.28125,-0.12891 -0.65625,0 -0.66796,-0.10547 -0.71484,-0.45703 l -0.72656,-7.46484 c -0.0234,-0.23438 -0.0703,-0.25781 -0.19922,-0.25781 -0.11719,0 -0.1875,0.0234 -0.30469,0.19921 z m 1.4414,-1.83985 2.40235,-4.01953 0.41015,4.01953 z m 13.98926,-2.07422 c 0,-1.96875 -1.30078,-3.17578 -2.96484,-3.17578 -2.56641,0 -5.14453,2.75391 -5.14453,5.50782 0,1.875 1.24218,3.15234 2.97656,3.15234 2.50781,0 5.13281,-2.61328 5.13281,-5.48438 z m -5.0625,5.21485 c -0.98437,0 -2.01562,-0.71485 -2.01562,-2.57813 0,-1.08984 0.38672,-2.87109 1.37109,-4.0664 0.86719,-1.05469 1.875,-1.48828 2.67188,-1.48828 1.05468,0 2.07421,0.77343 2.07421,2.49609 0,1.05469 -0.45703,2.71875 -1.2539,3.85547 -0.87891,1.21875 -1.95703,1.78125 -2.84766,1.78125 z m 10.01953,-7.32422 c 0.11719,-0.44531 0.16407,-0.46875 0.6211,-0.46875 h 1.55859 c 1.34766,0 1.34766,1.14844 1.34766,1.25391 0,0.97265 -0.96094,2.20312 -2.54297,2.20312 h -1.72266 z m 2.02735,3.08203 c 1.30078,-0.24609 2.48437,-1.14844 2.48437,-2.25 0,-0.92578 -0.83203,-1.65234 -2.17969,-1.65234 h -3.83203 c -0.23437,0 -0.33984,0 -0.33984,0.23437 0,0.11719 0.10547,0.11719 0.29297,0.11719 0.72656,0 0.72656,0.0937 0.72656,0.22266 0,0.0234 0,0.0937 -0.0469,0.28125 l -1.61719,6.43359 c -0.10547,0.41016 -0.12891,0.52734 -0.96094,0.52734 -0.23437,0 -0.35156,0 -0.35156,0.22266 0,0.12891 0.0703,0.12891 0.30469,0.12891 h 4.10156 c 1.82812,0 3.24609,-1.38282 3.24609,-2.58985 0,-0.98437 -0.86719,-1.58203 -1.82812,-1.67578 z m -1.69922,3.91406 h -1.61719 c -0.16406,0 -0.1875,0 -0.25781,-0.0117 -0.12891,-0.0117 -0.15235,-0.0352 -0.15235,-0.1289 0,-0.082 0.0352,-0.15235 0.0586,-0.25781 l 0.83203,-3.375 h 2.25 c 1.40625,0 1.40625,1.3125 1.40625,1.40625 0,1.14843 -1.04297,2.36718 -2.51953,2.36718 z m 0,0"
         style="fill:#000000;fill-opacity:1;fill-rule:nonzero;stroke:none" />
      <path
         id="path7"
         d="m 314.0527,115.05542 c 0,-0.10547 -0.082,-0.10547 -0.10547,-0.10547 -0.0234,0 -0.0703,0 -0.17578,0.11719 l -0.82031,1.00781 c -0.42187,-0.71484 -1.07812,-1.125 -1.96875,-1.125 -2.58984,0 -5.26172,2.61328 -5.26172,5.42578 0,1.99219 1.39453,3.23438 3.14063,3.23438 0.96093,0 1.79297,-0.39844 2.48437,-0.98438 1.04297,-0.8789 1.35938,-2.03906 1.35938,-2.13281 0,-0.10547 -0.0937,-0.10547 -0.14063,-0.10547 -0.10547,0 -0.11719,0.0703 -0.14062,0.11719 -0.55078,1.86328 -2.15625,2.76563 -3.35157,2.76563 -1.27734,0 -2.36718,-0.82032 -2.36718,-2.50782 0,-0.38672 0.11718,-2.46093 1.46484,-4.03125 0.65625,-0.76172 1.78125,-1.4414 2.91797,-1.4414 1.3125,0 1.89844,1.08984 1.89844,2.30859 0,0.31641 -0.0352,0.57422 -0.0352,0.62109 0,0.11719 0.11719,0.11719 0.15234,0.11719 0.14063,0 0.15235,-0.0117 0.19922,-0.23437 z m 8.99121,3.07031 c 0,-1.96875 -1.30078,-3.17578 -2.96484,-3.17578 -2.56641,0 -5.14453,2.75391 -5.14453,5.50782 0,1.875 1.24219,3.15234 2.97656,3.15234 2.50781,0 5.13281,-2.61328 5.13281,-5.48438 z m -5.0625,5.21485 c -0.98437,0 -2.01562,-0.71485 -2.01562,-2.57813 0,-1.08984 0.38672,-2.87109 1.37109,-4.0664 0.86719,-1.05469 1.875,-1.48828 2.67188,-1.48828 1.05469,0 2.07422,0.77343 2.07422,2.49609 0,1.05469 -0.45703,2.71875 -1.25391,3.85547 -0.87891,1.21875 -1.95703,1.78125 -2.84766,1.78125 z m 7.52051,-0.85547 c -0.10547,0.41016 -0.1289,0.52734 -0.96094,0.52734 -0.23437,0 -0.35156,0 -0.35156,0.22266 0,0.12891 0.0703,0.12891 0.30469,0.12891 h 3.79687 c 2.41407,0 4.76954,-2.4961 4.76954,-5.16797 0,-1.72266 -1.03125,-3 -2.74219,-3 h -3.83203 c -0.23438,0 -0.33985,0 -0.33985,0.23437 0,0.11719 0.10547,0.11719 0.29297,0.11719 0.72656,0 0.72656,0.0937 0.72656,0.22266 0,0.0234 0,0.0937 -0.0469,0.28125 z m 2.51953,-6.46875 c 0.11719,-0.44531 0.16407,-0.46875 0.6211,-0.46875 h 1.32422 c 1.11328,0 2.14453,0.60937 2.14453,2.26172 0,0.59765 -0.23438,2.67187 -1.39453,3.98437 -0.33985,0.39844 -1.24219,1.21875 -2.625,1.21875 h -1.35938 c -0.16406,0 -0.1875,0 -0.25781,-0.0117 -0.12891,-0.0117 -0.14063,-0.0352 -0.14063,-0.1289 0,-0.082 0.0234,-0.15235 0.0469,-0.25781 z m 0,0"
         style="fill:#000000;fill-opacity:1;fill-rule:nonzero;stroke:none" />
      <path
         id="path8"
         d="m -95.341828,134.32984 c 0,2.82421 -1.253906,3.41015 -1.96875,3.41015 -0.28125,0 -0.925781,-0.0352 -1.21875,-0.45703 h 0.07031 c 0.08203,0.0234 0.515625,-0.0469 0.515625,-0.49219 0,-0.25781 -0.175781,-0.49218 -0.492187,-0.49218 -0.304688,0 -0.503906,0.21093 -0.503906,0.51562 0,0.75 0.597656,1.24219 1.640625,1.24219 1.5,0 2.941406,-1.58203 2.941406,-4.1836 0,-3.21093 -1.335938,-4.00781 -2.390625,-4.00781 -1.3125,0 -2.472656,1.10156 -2.472656,2.67188 0,1.58203 1.113281,2.66015 2.308593,2.66015 0.878907,0 1.335938,-0.64453 1.570313,-1.2539 z m -1.523438,0.62109 c -0.75,0 -1.078125,-0.60938 -1.183593,-0.83203 -0.199219,-0.45703 -0.199219,-1.03125 -0.199219,-1.57031 0,-0.66797 0,-1.24219 0.316406,-1.73438 0.210938,-0.31641 0.539063,-0.66797 1.183594,-0.66797 0.679687,0 1.03125,0.59766 1.148437,0.87891 0.234375,0.58594 0.234375,1.59375 0.234375,1.78125 0,0.99609 -0.445312,2.14453 -1.5,2.14453 z m 0,0"
         style="fill:#000000;fill-opacity:1;fill-rule:nonzero;stroke:none" />
      <path
         id="path9"
         d="m -78.493195,130.02905 c 0,-0.22265 0,-0.29296 -0.164063,-0.29296 -0.09375,0 -0.128906,0 -0.222656,0.15234 l -3.597656,5.57812 v 0.35157 h 3.140625 v 1.07812 c 0,0.44531 -0.02344,0.5625 -0.902344,0.5625 h -0.234375 v 0.35156 c 0.269531,-0.0234 1.21875,-0.0234 1.558594,-0.0234 0.328125,0 1.289062,0 1.558593,0.0234 v -0.35156 h -0.234375 c -0.867187,0 -0.902343,-0.11719 -0.902343,-0.5625 v -1.07812 h 1.207031 v -0.35157 h -1.207031 z m -0.785157,0.9375 v 4.5 h -2.90625 z m 0,0"
         style="fill:#000000;fill-opacity:1;fill-rule:nonzero;stroke:none" />
      <path
         id="path10"
         d="m -76.357453,176.58472 c -0.210938,0.0117 -0.257813,0.0234 -0.257813,0.12891 0,0.11718 0.05859,0.11718 0.28125,0.11718 h 0.550782 c 1.007812,0 1.464843,0.84375 1.464843,1.99219 0,1.55859 -0.808593,1.98047 -1.394531,1.98047 -0.574219,0 -1.558594,-0.28125 -1.898437,-1.06641 0.375,0.0586 0.726562,-0.15234 0.726562,-0.58593 0,-0.33985 -0.257812,-0.58594 -0.585937,-0.58594 -0.292969,0 -0.597657,0.16406 -0.597657,0.62109 0,1.06641 1.066407,1.9336 2.390625,1.9336 1.417969,0 2.472657,-1.07813 2.472657,-2.28516 0,-1.10156 -0.890625,-1.96875 -2.027344,-2.16797 1.03125,-0.30469 1.699219,-1.17187 1.699219,-2.10937 0,-0.9375 -0.972657,-1.62891 -2.132813,-1.62891 -1.195312,0 -2.085937,0.72656 -2.085937,1.59375 0,0.48047 0.375,0.57422 0.550781,0.57422 0.257812,0 0.539062,-0.17578 0.539062,-0.53906 0,-0.375 -0.28125,-0.53907 -0.550781,-0.53907 -0.07031,0 -0.09375,0 -0.128906,0.0117 0.457031,-0.82031 1.582031,-0.82031 1.640625,-0.82031 0.386719,0 1.171875,0.17578 1.171875,1.34766 0,0.23437 -0.03516,0.90234 -0.386719,1.41796 -0.351562,0.52735 -0.761719,0.5625 -1.089844,0.57422 z m 9.005859,0.46875 c 0,-0.99609 -0.05859,-1.96875 -0.492187,-2.87109 -0.492188,-0.9961 -1.347656,-1.25391 -1.933594,-1.25391 -0.691406,0 -1.546875,0.33984 -1.980469,1.33594 -0.339843,0.75 -0.457031,1.48828 -0.457031,2.78906 0,1.16016 0.08203,2.02734 0.515625,2.87109 0.457031,0.91407 1.289063,1.19532 1.910156,1.19532 1.042969,0 1.640625,-0.6211 1.980469,-1.3125 0.433594,-0.89063 0.457031,-2.0625 0.457031,-2.75391 z m -2.4375,3.83203 c -0.386718,0 -1.160156,-0.21094 -1.382812,-1.52344 -0.140625,-0.71484 -0.140625,-1.61718 -0.140625,-2.46093 0,-0.97266 0,-1.86329 0.199219,-2.56641 0.199218,-0.79688 0.808593,-1.17188 1.324218,-1.17188 0.457032,0 1.148438,0.28125 1.371094,1.30079 0.152344,0.67968 0.152344,1.6289 0.152344,2.4375 0,0.80859 0,1.71093 -0.128906,2.4375 -0.222657,1.32421 -0.972657,1.54687 -1.394532,1.54687 z m 0,0"
         style="fill:#000000;fill-opacity:1;fill-rule:nonzero;stroke:none" />
      <path
         id="path11"
         d="m -58.530305,176.58472 c -0.210937,0.0117 -0.257812,0.0234 -0.257812,0.12891 0,0.11718 0.05859,0.11718 0.28125,0.11718 h 0.550781 c 1.007813,0 1.464844,0.84375 1.464844,1.99219 0,1.55859 -0.808594,1.98047 -1.394531,1.98047 -0.574219,0 -1.558594,-0.28125 -1.898438,-1.06641 0.375,0.0586 0.726563,-0.15234 0.726563,-0.58593 0,-0.33985 -0.257813,-0.58594 -0.585938,-0.58594 -0.292969,0 -0.597656,0.16406 -0.597656,0.62109 0,1.06641 1.066406,1.9336 2.390625,1.9336 1.417969,0 2.472656,-1.07813 2.472656,-2.28516 0,-1.10156 -0.890625,-1.96875 -2.027344,-2.16797 1.03125,-0.30469 1.699219,-1.17187 1.699219,-2.10937 0,-0.9375 -0.972656,-1.62891 -2.132812,-1.62891 -1.195313,0 -2.085938,0.72656 -2.085938,1.59375 0,0.48047 0.375,0.57422 0.550781,0.57422 0.257813,0 0.539063,-0.17578 0.539063,-0.53906 0,-0.375 -0.28125,-0.53907 -0.550781,-0.53907 -0.07031,0 -0.09375,0 -0.128907,0.0117 0.457032,-0.82031 1.582032,-0.82031 1.640625,-0.82031 0.386719,0 1.171875,0.17578 1.171875,1.34766 0,0.23437 -0.03516,0.90234 -0.386718,1.41796 -0.351563,0.52735 -0.761719,0.5625 -1.089844,0.57422 z m 7.095703,-3.375 c 0,-0.26953 0,-0.28125 -0.246093,-0.28125 -0.28125,0.31641 -0.878907,0.76172 -2.109375,0.76172 v 0.35156 c 0.269531,0 0.867187,0 1.523437,-0.31641 v 6.22266 c 0,0.43359 -0.03516,0.57422 -1.078125,0.57422 h -0.375 v 0.35156 c 0.316406,-0.0234 1.476563,-0.0234 1.875,-0.0234 0.398438,0 1.546875,0 1.863281,0.0234 v -0.35156 h -0.363281 c -1.054687,0 -1.089844,-0.14063 -1.089844,-0.57422 z m 0,0"
         style="fill:#000000;fill-opacity:1;fill-rule:nonzero;stroke:none" />
      <path
         id="path12"
         d="m -40.706086,176.58472 c -0.210937,0.0117 -0.257812,0.0234 -0.257812,0.12891 0,0.11718 0.05859,0.11718 0.28125,0.11718 h 0.550781 c 1.007812,0 1.464844,0.84375 1.464844,1.99219 0,1.55859 -0.808594,1.98047 -1.394532,1.98047 -0.574218,0 -1.558593,-0.28125 -1.898437,-1.06641 0.375,0.0586 0.726562,-0.15234 0.726562,-0.58593 0,-0.33985 -0.257812,-0.58594 -0.585937,-0.58594 -0.292969,0 -0.597656,0.16406 -0.597656,0.62109 0,1.06641 1.066406,1.9336 2.390625,1.9336 1.417968,0 2.472656,-1.07813 2.472656,-2.28516 0,-1.10156 -0.890625,-1.96875 -2.027344,-2.16797 1.03125,-0.30469 1.699219,-1.17187 1.699219,-2.10937 0,-0.9375 -0.972656,-1.62891 -2.132813,-1.62891 -1.195312,0 -2.085937,0.72656 -2.085937,1.59375 0,0.48047 0.375,0.57422 0.550781,0.57422 0.257813,0 0.539063,-0.17578 0.539063,-0.53906 0,-0.375 -0.28125,-0.53907 -0.550782,-0.53907 -0.07031,0 -0.09375,0 -0.128906,0.0117 0.457031,-0.82031 1.582031,-0.82031 1.640625,-0.82031 0.386719,0 1.171875,0.17578 1.171875,1.34766 0,0.23437 -0.03516,0.90234 -0.386719,1.41796 -0.351562,0.52735 -0.761718,0.5625 -1.089843,0.57422 z m 8.912109,2.28516 h -0.269531 c -0.03516,0.19921 -0.128906,0.85546 -0.246094,1.04296 -0.08203,0.11719 -0.761718,0.11719 -1.125,0.11719 h -2.214843 c 0.328125,-0.28125 1.054687,-1.04297 1.371093,-1.33594 1.816407,-1.66406 2.484375,-2.28515 2.484375,-3.46875 0,-1.38281 -1.089843,-2.29687 -2.472656,-2.29687 -1.394531,0 -2.203125,1.18359 -2.203125,2.20312 0,0.60938 0.527344,0.60938 0.5625,0.60938 0.246094,0 0.5625,-0.17578 0.5625,-0.5625 0,-0.32813 -0.234375,-0.55078 -0.5625,-0.55078 -0.105469,0 -0.128906,0 -0.164062,0.0117 0.222656,-0.82032 0.867187,-1.3711 1.640625,-1.3711 1.019531,0 1.640625,0.85547 1.640625,1.95703 0,1.00782 -0.585938,1.89844 -1.265625,2.66016 l -2.414063,2.70703 v 0.28125 h 4.359375 z m 0,0"
         style="fill:#000000;fill-opacity:1;fill-rule:nonzero;stroke:none" />
      <path
         id="path13"
         d="m -22.878937,176.58472 c -0.210938,0.0117 -0.257813,0.0234 -0.257813,0.12891 0,0.11718 0.05859,0.11718 0.28125,0.11718 h 0.550781 c 1.007813,0 1.464844,0.84375 1.464844,1.99219 0,1.55859 -0.808594,1.98047 -1.394531,1.98047 -0.574219,0 -1.558594,-0.28125 -1.898438,-1.06641 0.375,0.0586 0.726563,-0.15234 0.726563,-0.58593 0,-0.33985 -0.257813,-0.58594 -0.585938,-0.58594 -0.292968,0 -0.597656,0.16406 -0.597656,0.62109 0,1.06641 1.066406,1.9336 2.390625,1.9336 1.417969,0 2.472656,-1.07813 2.472656,-2.28516 0,-1.10156 -0.890625,-1.96875 -2.027343,-2.16797 1.03125,-0.30469 1.699218,-1.17187 1.699218,-2.10937 0,-0.9375 -0.972656,-1.62891 -2.132812,-1.62891 -1.195313,0 -2.085938,0.72656 -2.085938,1.59375 0,0.48047 0.375,0.57422 0.550782,0.57422 0.257812,0 0.539062,-0.17578 0.539062,-0.53906 0,-0.375 -0.28125,-0.53907 -0.550781,-0.53907 -0.07031,0 -0.09375,0 -0.128906,0.0117 0.457031,-0.82031 1.582031,-0.82031 1.640625,-0.82031 0.386718,0 1.171875,0.17578 1.171875,1.34766 0,0.23437 -0.03516,0.90234 -0.386719,1.41796 -0.351563,0.52735 -0.761719,0.5625 -1.089844,0.57422 z m 5.853515,0 c -0.210937,0.0117 -0.257812,0.0234 -0.257812,0.12891 0,0.11718 0.05859,0.11718 0.28125,0.11718 h 0.550781 c 1.007812,0 1.464844,0.84375 1.464844,1.99219 0,1.55859 -0.808594,1.98047 -1.394532,1.98047 -0.574218,0 -1.558593,-0.28125 -1.898437,-1.06641 0.375,0.0586 0.726562,-0.15234 0.726562,-0.58593 0,-0.33985 -0.257812,-0.58594 -0.585937,-0.58594 -0.292969,0 -0.597656,0.16406 -0.597656,0.62109 0,1.06641 1.066406,1.9336 2.390625,1.9336 1.417968,0 2.472656,-1.07813 2.472656,-2.28516 0,-1.10156 -0.890625,-1.96875 -2.027344,-2.16797 1.03125,-0.30469 1.699219,-1.17187 1.699219,-2.10937 0,-0.9375 -0.972656,-1.62891 -2.132813,-1.62891 -1.195312,0 -2.085937,0.72656 -2.085937,1.59375 0,0.48047 0.375,0.57422 0.550781,0.57422 0.257813,0 0.539063,-0.17578 0.539063,-0.53906 0,-0.375 -0.28125,-0.53907 -0.550782,-0.53907 -0.07031,0 -0.09375,0 -0.128906,0.0117 0.457031,-0.82031 1.582031,-0.82031 1.640625,-0.82031 0.386719,0 1.171875,0.17578 1.171875,1.34766 0,0.23437 -0.03516,0.90234 -0.386719,1.41796 -0.351562,0.52735 -0.761718,0.5625 -1.089843,0.57422 z m 0,0"
         style="fill:#000000;fill-opacity:1;fill-rule:nonzero;stroke:none" />
      <path
         id="path14"
         d="m -107.39749,236.96558 c -0.0586,0.19922 -0.0586,0.22265 -0.22266,0.44531 -0.26953,0.33984 -0.79687,0.85547 -1.35937,0.85547 -0.48047,0 -0.76172,-0.44531 -0.76172,-1.14844 0,-0.65625 0.375,-1.99219 0.59765,-2.49609 0.41016,-0.84375 0.97266,-1.26563 1.44141,-1.26563 0.78516,0 0.9375,0.97266 0.9375,1.06641 0,0.0117 -0.0352,0.17578 -0.0469,0.19922 z m 0.76172,-3.07031 c -0.12891,-0.30469 -0.44532,-0.78516 -1.06641,-0.78516 -1.35937,0 -2.8125,1.74609 -2.8125,3.51562 0,1.1836 0.69141,1.875 1.5,1.875 0.65625,0 1.21875,-0.51562 1.55859,-0.90234 0.11719,0.70313 0.67969,0.90234 1.04297,0.90234 0.35157,0 0.64453,-0.21093 0.85547,-0.64453 0.1875,-0.41015 0.36328,-1.13672 0.36328,-1.18359 0,-0.0586 -0.0469,-0.10547 -0.11718,-0.10547 -0.11719,0 -0.12891,0.0586 -0.17579,0.23438 -0.17578,0.71484 -0.39843,1.46484 -0.89062,1.46484 -0.35156,0 -0.375,-0.31641 -0.375,-0.55078 0,-0.28125 0.0352,-0.41016 0.14062,-0.87891 0.082,-0.29297 0.15235,-0.5625 0.2461,-0.90234 0.43359,-1.79297 0.55078,-2.22656 0.55078,-2.29688 0,-0.16406 -0.14063,-0.29297 -0.31641,-0.29297 -0.375,0 -0.48047,0.41016 -0.5039,0.55079 z m 0,0"
         style="fill:#000000;fill-opacity:1;fill-rule:nonzero;stroke:none" />
      <path
         id="path15"
         d="m -94.934602,230.39136 c 0.01172,-0.0469 0.03516,-0.12891 0.03516,-0.1875 0,-0.11719 -0.128907,-0.11719 -0.152344,-0.11719 -0.01172,0 -0.433594,0.0352 -0.65625,0.0586 -0.199219,0.0117 -0.375,0.0351 -0.597656,0.0469 -0.28125,0.0234 -0.363282,0.0352 -0.363282,0.25781 0,0.11719 0.117188,0.11719 0.234375,0.11719 0.609375,0 0.609375,0.10547 0.609375,0.22266 0,0.082 -0.09375,0.43359 -0.140625,0.64453 l -0.292968,1.14844 c -0.117188,0.48046 -0.796875,3.19921 -0.84375,3.41015 -0.05859,0.29297 -0.05859,0.50391 -0.05859,0.65625 0,1.21875 0.679687,1.85156 1.453125,1.85156 1.394531,0 2.824219,-1.78125 2.824219,-3.51562 0,-1.10156 -0.621094,-1.875 -1.511719,-1.875 -0.632813,0 -1.183594,0.51562 -1.417969,0.75 z m -0.761718,7.875 c -0.375,0 -0.796875,-0.29297 -0.796875,-1.21875 0,-0.39844 0.03516,-0.62109 0.246093,-1.46484 0.04687,-0.15235 0.234375,-0.91407 0.28125,-1.06641 0.02344,-0.10547 0.726563,-1.16016 1.535157,-1.16016 0.527343,0 0.773437,0.51563 0.773437,1.13672 0,0.57422 -0.339844,1.9336 -0.632812,2.55469 -0.304688,0.64453 -0.855469,1.21875 -1.40625,1.21875 z m 0,0"
         style="fill:#000000;fill-opacity:1;fill-rule:nonzero;stroke:none" />
      <path
         id="path16"
         d="m -80.895539,233.88355 c -0.234375,0 -0.339844,0 -0.503906,0.15234 -0.07031,0.0586 -0.199219,0.23438 -0.199219,0.42188 0,0.24609 0.175781,0.38671 0.398437,0.38671 0.292969,0 0.609375,-0.23437 0.609375,-0.71484 0,-0.57422 -0.550781,-1.01953 -1.371093,-1.01953 -1.570313,0 -3.128907,1.71094 -3.128907,3.41016 0,1.04296 0.644532,1.98046 1.863282,1.98046 1.628906,0 2.648437,-1.26562 2.648437,-1.41796 0,-0.0703 -0.07031,-0.12891 -0.117187,-0.12891 -0.03516,0 -0.04687,0.0117 -0.152344,0.11719 -0.761719,1.00781 -1.898438,1.19531 -2.355469,1.19531 -0.820312,0 -1.089844,-0.71484 -1.089844,-1.3125 0,-0.42188 0.199219,-1.58203 0.632813,-2.39063 0.316406,-0.5625 0.960937,-1.20703 1.710937,-1.20703 0.152344,0 0.808594,0.0234 1.054688,0.52735 z m 0,0"
         style="fill:#000000;fill-opacity:1;fill-rule:nonzero;stroke:none" />
      <path
         id="path17"
         d="m 86.322234,241.2898 c 0,-0.0352 0,-0.0586 -0.210937,-0.26953 -1.195313,-1.20704 -1.863281,-3.17579 -1.863281,-5.61329 0,-2.32031 0.5625,-4.3125 1.945312,-5.73046 0.128906,-0.10547 0.128906,-0.12891 0.128906,-0.16407 0,-0.0703 -0.07031,-0.0937 -0.117187,-0.0937 -0.152344,0 -1.136719,0.85547 -1.722656,2.02735 -0.609375,1.20703 -0.878907,2.49609 -0.878907,3.96093 0,1.06641 0.164063,2.48438 0.785157,3.76172 0.703125,1.44141 1.6875,2.21485 1.816406,2.21485 0.04687,0 0.117187,-0.0234 0.117187,-0.0937 z m 0,0"
         style="fill:#000000;fill-opacity:1;fill-rule:nonzero;stroke:none" />
      <path
         id="path18"
         d="m 90.582,236.96558 c -0.05859,0.19922 -0.05859,0.22265 -0.222656,0.44531 -0.269531,0.33984 -0.796875,0.85547 -1.359375,0.85547 -0.480469,0 -0.761719,-0.44531 -0.761719,-1.14844 0,-0.65625 0.375,-1.99219 0.597656,-2.49609 0.410157,-0.84375 0.972657,-1.26563 1.441407,-1.26563 0.785156,0 0.9375,0.97266 0.9375,1.06641 0,0.0117 -0.03516,0.17578 -0.04687,0.19922 z m 0.761719,-3.07031 c -0.128906,-0.30469 -0.445313,-0.78516 -1.066406,-0.78516 -1.359375,0 -2.8125,1.74609 -2.8125,3.51562 0,1.1836 0.691406,1.875 1.5,1.875 0.65625,0 1.21875,-0.51562 1.558593,-0.90234 0.117188,0.70313 0.679688,0.90234 1.042969,0.90234 0.351563,0 0.644531,-0.21093 0.855469,-0.64453 0.1875,-0.41015 0.363281,-1.13672 0.363281,-1.18359 0,-0.0586 -0.04687,-0.10547 -0.117187,-0.10547 -0.117188,0 -0.128907,0.0586 -0.175782,0.23438 -0.175781,0.71484 -0.398437,1.46484 -0.890625,1.46484 -0.351562,0 -0.375,-0.31641 -0.375,-0.55078 0,-0.28125 0.03516,-0.41016 0.140625,-0.87891 0.08203,-0.29297 0.152344,-0.5625 0.246094,-0.90234 0.433594,-1.79297 0.550781,-2.22656 0.550781,-2.29688 0,-0.16406 -0.140625,-0.29297 -0.316406,-0.29297 -0.375,0 -0.480469,0.41016 -0.503906,0.55079 z m 0,0"
         style="fill:#000000;fill-opacity:1;fill-rule:nonzero;stroke:none" />
      <path
         id="path19"
         d="m 103.66013,235.62964 c 0.21093,0 0.42187,0 0.42187,-0.23437 0,-0.23438 -0.21094,-0.23438 -0.42187,-0.23438 h -6.468755 c -0.199219,0 -0.410156,0 -0.410156,0.23438 0,0.23437 0.210937,0.23437 0.410156,0.23437 z m 0,0"
         style="fill:#000000;fill-opacity:1;fill-rule:nonzero;stroke:none" />
      <path
         id="path20"
         d="m 110.5068,230.39136 c 0.0117,-0.0469 0.0352,-0.12891 0.0352,-0.1875 0,-0.11719 -0.12891,-0.11719 -0.15234,-0.11719 -0.0117,0 -0.4336,0.0352 -0.65625,0.0586 -0.19922,0.0117 -0.375,0.0351 -0.59766,0.0469 -0.28125,0.0234 -0.36328,0.0352 -0.36328,0.25781 0,0.11719 0.11719,0.11719 0.23437,0.11719 0.60938,0 0.60938,0.10547 0.60938,0.22266 0,0.082 -0.0937,0.43359 -0.14063,0.64453 l -0.29296,1.14844 c -0.11719,0.48046 -0.79688,3.19921 -0.84375,3.41015 -0.0586,0.29297 -0.0586,0.50391 -0.0586,0.65625 0,1.21875 0.67969,1.85156 1.45313,1.85156 1.39453,0 2.82422,-1.78125 2.82422,-3.51562 0,-1.10156 -0.6211,-1.875 -1.51172,-1.875 -0.63282,0 -1.1836,0.51562 -1.41797,0.75 z m -0.76171,7.875 c -0.375,0 -0.79688,-0.29297 -0.79688,-1.21875 0,-0.39844 0.0352,-0.62109 0.24609,-1.46484 0.0469,-0.15235 0.23438,-0.91407 0.28125,-1.06641 0.0234,-0.10547 0.72657,-1.16016 1.53516,-1.16016 0.52734,0 0.77344,0.51563 0.77344,1.13672 0,0.57422 -0.33985,1.9336 -0.63281,2.55469 -0.30469,0.64453 -0.85547,1.21875 -1.40625,1.21875 z m 0,0"
         style="fill:#000000;fill-opacity:1;fill-rule:nonzero;stroke:none" />
      <path
         id="path21"
         d="m 116.09372,235.40698 c 0,-0.91406 -0.12891,-2.39062 -0.79688,-3.77343 -0.70312,-1.44141 -1.67578,-2.21485 -1.8164,-2.21485 -0.0469,0 -0.10547,0.0234 -0.10547,0.0937 0,0.0352 0,0.0586 0.19922,0.26953 1.19531,1.20704 1.875,3.17579 1.875,5.61329 0,2.32031 -0.5625,4.3125 -1.95703,5.73046 -0.11719,0.10547 -0.11719,0.12891 -0.11719,0.16407 0,0.0703 0.0586,0.0937 0.10547,0.0937 0.16406,0 1.13672,-0.85547 1.72265,-2.02735 0.60938,-1.21875 0.89063,-2.51953 0.89063,-3.94922 z m 5.06836,5.88282 c 0,-0.0352 0,-0.0586 -0.21094,-0.26953 -1.19531,-1.20704 -1.86328,-3.17579 -1.86328,-5.61329 0,-2.32031 0.5625,-4.3125 1.94531,-5.73046 0.12891,-0.10547 0.12891,-0.12891 0.12891,-0.16407 0,-0.0703 -0.0703,-0.0937 -0.11719,-0.0937 -0.15234,0 -1.13672,0.85547 -1.72266,2.02735 -0.60937,1.20703 -0.8789,2.49609 -0.8789,3.96093 0,1.06641 0.16406,2.48438 0.78515,3.76172 0.70313,1.44141 1.6875,2.21485 1.81641,2.21485 0.0469,0 0.11719,-0.0234 0.11719,-0.0937 z m 0,0"
         style="fill:#000000;fill-opacity:1;fill-rule:nonzero;stroke:none" />
      <path
         id="path22"
         d="m 124.58688,230.39136 c 0.0117,-0.0469 0.0352,-0.12891 0.0352,-0.1875 0,-0.11719 -0.12891,-0.11719 -0.15234,-0.11719 -0.0117,0 -0.4336,0.0352 -0.65625,0.0586 -0.19922,0.0117 -0.375,0.0351 -0.59766,0.0469 -0.28125,0.0234 -0.36328,0.0352 -0.36328,0.25781 0,0.11719 0.11719,0.11719 0.23437,0.11719 0.60938,0 0.60938,0.10547 0.60938,0.22266 0,0.082 -0.0937,0.43359 -0.14063,0.64453 l -0.29297,1.14844 c -0.11718,0.48046 -0.79687,3.19921 -0.84375,3.41015 -0.0586,0.29297 -0.0586,0.50391 -0.0586,0.65625 0,1.21875 0.67969,1.85156 1.45313,1.85156 1.39453,0 2.82421,-1.78125 2.82421,-3.51562 0,-1.10156 -0.62109,-1.875 -1.51171,-1.875 -0.63282,0 -1.1836,0.51562 -1.41797,0.75 z m -0.76172,7.875 c -0.375,0 -0.79687,-0.29297 -0.79687,-1.21875 0,-0.39844 0.0352,-0.62109 0.24609,-1.46484 0.0469,-0.15235 0.23438,-0.91407 0.28125,-1.06641 0.0234,-0.10547 0.72657,-1.16016 1.53516,-1.16016 0.52734,0 0.77344,0.51563 0.77344,1.13672 0,0.57422 -0.33985,1.9336 -0.63282,2.55469 -0.30468,0.64453 -0.85546,1.21875 -1.40625,1.21875 z m 0,0"
         style="fill:#000000;fill-opacity:1;fill-rule:nonzero;stroke:none" />
      <path
         id="path23"
         d="m 137.33102,235.62964 c 0.21094,0 0.42188,0 0.42188,-0.23437 0,-0.23438 -0.21094,-0.23438 -0.42188,-0.23438 h -6.46875 c -0.19922,0 -0.41015,0 -0.41015,0.23438 0,0.23437 0.21093,0.23437 0.41015,0.23437 z m 0,0"
         style="fill:#000000;fill-opacity:1;fill-rule:nonzero;stroke:none" />
      <path
         id="path24"
         d="m 146.08786,233.88355 c -0.23438,0 -0.33984,0 -0.50391,0.15234 -0.0703,0.0586 -0.19922,0.23438 -0.19922,0.42188 0,0.24609 0.17579,0.38671 0.39844,0.38671 0.29297,0 0.60938,-0.23437 0.60938,-0.71484 0,-0.57422 -0.55078,-1.01953 -1.3711,-1.01953 -1.57031,0 -3.1289,1.71094 -3.1289,3.41016 0,1.04296 0.64453,1.98046 1.86328,1.98046 1.6289,0 2.64844,-1.26562 2.64844,-1.41796 0,-0.0703 -0.0703,-0.12891 -0.11719,-0.12891 -0.0352,0 -0.0469,0.0117 -0.15235,0.11719 -0.76171,1.00781 -1.89843,1.19531 -2.35546,1.19531 -0.82032,0 -1.08985,-0.71484 -1.08985,-1.3125 0,-0.42188 0.19922,-1.58203 0.63281,-2.39063 0.31641,-0.5625 0.96094,-1.20703 1.71094,-1.20703 0.15235,0 0.8086,0.0234 1.05469,0.52735 z m 0,0"
         style="fill:#000000;fill-opacity:1;fill-rule:nonzero;stroke:none" />
      <path
         id="path25"
         d="m 149.82321,235.40698 c 0,-0.91406 -0.12891,-2.39062 -0.79687,-3.77343 -0.70313,-1.44141 -1.67579,-2.21485 -1.81641,-2.21485 -0.0469,0 -0.10547,0.0234 -0.10547,0.0937 0,0.0352 0,0.0586 0.19922,0.26953 1.19531,1.20704 1.875,3.17579 1.875,5.61329 0,2.32031 -0.5625,4.3125 -1.95703,5.73046 -0.11719,0.10547 -0.11719,0.12891 -0.11719,0.16407 0,0.0703 0.0586,0.0937 0.10547,0.0937 0.16406,0 1.13672,-0.85547 1.72266,-2.02735 0.60937,-1.21875 0.89062,-2.51953 0.89062,-3.94922 z m 5.06836,5.88282 c 0,-0.0352 0,-0.0586 -0.21094,-0.26953 -1.19531,-1.20704 -1.86328,-3.17579 -1.86328,-5.61329 0,-2.32031 0.5625,-4.3125 1.94531,-5.73046 0.12891,-0.10547 0.12891,-0.12891 0.12891,-0.16407 0,-0.0703 -0.0703,-0.0937 -0.11719,-0.0937 -0.15234,0 -1.13672,0.85547 -1.72265,2.02735 -0.60938,1.20703 -0.87891,2.49609 -0.87891,3.96093 0,1.06641 0.16406,2.48438 0.78516,3.76172 0.70312,1.44141 1.6875,2.21485 1.8164,2.21485 0.0469,0 0.11719,-0.0234 0.11719,-0.0937 z m 0,0"
         style="fill:#000000;fill-opacity:1;fill-rule:nonzero;stroke:none" />
      <path
         id="path26"
         d="m 160.22946,233.88355 c -0.23437,0 -0.33984,0 -0.50391,0.15234 -0.0703,0.0586 -0.19921,0.23438 -0.19921,0.42188 0,0.24609 0.17578,0.38671 0.39843,0.38671 0.29297,0 0.60938,-0.23437 0.60938,-0.71484 0,-0.57422 -0.55078,-1.01953 -1.3711,-1.01953 -1.57031,0 -3.1289,1.71094 -3.1289,3.41016 0,1.04296 0.64453,1.98046 1.86328,1.98046 1.62891,0 2.64844,-1.26562 2.64844,-1.41796 0,-0.0703 -0.0703,-0.12891 -0.11719,-0.12891 -0.0352,0 -0.0469,0.0117 -0.15234,0.11719 -0.76172,1.00781 -1.89844,1.19531 -2.35547,1.19531 -0.82032,0 -1.08985,-0.71484 -1.08985,-1.3125 0,-0.42188 0.19922,-1.58203 0.63282,-2.39063 0.3164,-0.5625 0.96093,-1.20703 1.71093,-1.20703 0.15235,0 0.8086,0.0234 1.05469,0.52735 z m 0,0"
         style="fill:#000000;fill-opacity:1;fill-rule:nonzero;stroke:none" />
      <path
         id="path27"
         d="m 171.12497,235.62964 c 0.21094,0 0.42187,0 0.42187,-0.23437 0,-0.23438 -0.21093,-0.23438 -0.42187,-0.23438 h -6.46875 c -0.19922,0 -0.41016,0 -0.41016,0.23438 0,0.23437 0.21094,0.23437 0.41016,0.23437 z m 0,0"
         style="fill:#000000;fill-opacity:1;fill-rule:nonzero;stroke:none" />
      <path
         id="path28"
         d="m 178.80075,236.96558 c -0.0586,0.19922 -0.0586,0.22265 -0.22266,0.44531 -0.26953,0.33984 -0.79687,0.85547 -1.35937,0.85547 -0.48047,0 -0.76172,-0.44531 -0.76172,-1.14844 0,-0.65625 0.375,-1.99219 0.59766,-2.49609 0.41015,-0.84375 0.97265,-1.26563 1.4414,-1.26563 0.78516,0 0.9375,0.97266 0.9375,1.06641 0,0.0117 -0.0351,0.17578 -0.0469,0.19922 z m 0.76172,-3.07031 c -0.12891,-0.30469 -0.44531,-0.78516 -1.06641,-0.78516 -1.35937,0 -2.8125,1.74609 -2.8125,3.51562 0,1.1836 0.69141,1.875 1.5,1.875 0.65625,0 1.21875,-0.51562 1.5586,-0.90234 0.11718,0.70313 0.67968,0.90234 1.04297,0.90234 0.35156,0 0.64453,-0.21093 0.85546,-0.64453 0.1875,-0.41015 0.36329,-1.13672 0.36329,-1.18359 0,-0.0586 -0.0469,-0.10547 -0.11719,-0.10547 -0.11719,0 -0.12891,0.0586 -0.17578,0.23438 -0.17578,0.71484 -0.39844,1.46484 -0.89063,1.46484 -0.35156,0 -0.375,-0.31641 -0.375,-0.55078 0,-0.28125 0.0352,-0.41016 0.14063,-0.87891 0.082,-0.29297 0.15234,-0.5625 0.24609,-0.90234 0.43359,-1.79297 0.55078,-2.22656 0.55078,-2.29688 0,-0.16406 -0.14062,-0.29297 -0.3164,-0.29297 -0.375,0 -0.48047,0.41016 -0.50391,0.55079 z m 0,0"
         style="fill:#000000;fill-opacity:1;fill-rule:nonzero;stroke:none" />
      <path
         id="path29"
         d="m 184.72458,235.40698 c 0,-0.91406 -0.12891,-2.39062 -0.79688,-3.77343 -0.70312,-1.44141 -1.67578,-2.21485 -1.8164,-2.21485 -0.0469,0 -0.10547,0.0234 -0.10547,0.0937 0,0.0352 0,0.0586 0.19922,0.26953 1.19531,1.20704 1.875,3.17579 1.875,5.61329 0,2.32031 -0.5625,4.3125 -1.95703,5.73046 -0.11719,0.10547 -0.11719,0.12891 -0.11719,0.16407 0,0.0703 0.0586,0.0937 0.10547,0.0937 0.16406,0 1.13672,-0.85547 1.72265,-2.02735 0.60938,-1.21875 0.89063,-2.51953 0.89063,-3.94922 z m 0,0"
         style="fill:#000000;fill-opacity:1;fill-rule:nonzero;stroke:none" />
      <path
         id="path30"
         d="m 2.1054375,288.23218 c 0,-0.26953 0,-0.28125 -0.2460937,-0.28125 -0.28125,0.31641 -0.8789063,0.76172 -2.10937505,0.76172 v 0.35156 c 0.26953125,0 0.8671875,0 1.52343755,-0.31641 v 6.22266 c 0,0.43359 -0.035156,0.57422 -1.07812505,0.57422 h -0.375 v 0.35156 c 0.31640625,-0.0234 1.47656255,-0.0234 1.87500005,-0.0234 0.3984375,0 1.546875,0 1.8632812,0.0234 v -0.35156 H 3.1952813 c -1.0546875,0 -1.0898438,-0.14063 -1.0898438,-0.57422 z m 7.7636719,3.84375 c 0,-0.99609 -0.058594,-1.96875 -0.4921875,-2.87109 -0.4921875,-0.9961 -1.3476563,-1.25391 -1.9335938,-1.25391 -0.6914062,0 -1.546875,0.33984 -1.9804687,1.33594 -0.3398438,0.75 -0.4570313,1.48828 -0.4570313,2.78906 0,1.16016 0.082031,2.02734 0.515625,2.87109 0.4570313,0.91407 1.2890625,1.19532 1.9101563,1.19532 1.0429687,0 1.640625,-0.6211 1.9804687,-1.3125 0.4335938,-0.89063 0.4570313,-2.0625 0.4570313,-2.75391 z m -2.4375,3.83203 c -0.3867188,0 -1.1601563,-0.21094 -1.3828125,-1.52344 -0.140625,-0.71484 -0.140625,-1.61718 -0.140625,-2.46093 0,-0.97266 0,-1.86329 0.1992187,-2.56641 0.1992188,-0.79688 0.8085938,-1.17188 1.3242188,-1.17188 0.4570312,0 1.1484375,0.28125 1.3710937,1.30079 0.1523438,0.67968 0.1523438,1.6289 0.1523438,2.4375 0,0.80859 0,1.71093 -0.1289063,2.4375 -0.2226562,1.32421 -0.9726562,1.54687 -1.3945312,1.54687 z m 0,0"
         style="fill:#000000;fill-opacity:1;fill-rule:nonzero;stroke:none" />
      <path
         id="path31"
         d="m 63.57907,288.23218 c 0,-0.26953 0,-0.28125 -0.246093,-0.28125 -0.28125,0.31641 -0.878907,0.76172 -2.109375,0.76172 v 0.35156 c 0.269531,0 0.867187,0 1.523437,-0.31641 v 6.22266 c 0,0.43359 -0.03516,0.57422 -1.078125,0.57422 h -0.375 v 0.35156 c 0.316406,-0.0234 1.476563,-0.0234 1.875,-0.0234 0.398438,0 1.546875,0 1.863281,0.0234 v -0.35156 h -0.363281 c -1.054687,0 -1.089844,-0.14063 -1.089844,-0.57422 z m 0,0"
         style="fill:#000000;fill-opacity:1;fill-rule:nonzero;stroke:none" />
      <path
         id="path32"
         d="m 78.731414,288.11499 c 0,-0.22265 0,-0.29297 -0.164062,-0.29297 -0.09375,0 -0.128907,0 -0.222657,0.15235 l -3.597656,5.57812 v 0.35156 h 3.140625 v 1.07813 c 0,0.44531 -0.02344,0.5625 -0.902344,0.5625 h -0.234375 v 0.35156 c 0.269532,-0.0234 1.21875,-0.0234 1.558594,-0.0234 0.328125,0 1.289063,0 1.558594,0.0234 v -0.35156 h -0.234375 c -0.867188,0 -0.902344,-0.11719 -0.902344,-0.5625 v -1.07813 h 1.207031 v -0.35156 h -1.207031 z m -0.785156,0.9375 v 4.5 h -2.90625 z m 0,0"
         style="fill:#000000;fill-opacity:1;fill-rule:nonzero;stroke:none" />
      <path
         id="path33"
         d="m 90.239227,289.05249 c 0.503906,0.16406 0.925781,0.17578 1.054687,0.17578 1.359375,0 2.214844,-0.99609 2.214844,-1.16015 0,-0.0469 -0.02344,-0.10547 -0.09375,-0.10547 -0.02344,0 -0.04687,0 -0.152344,0.0469 -0.667969,0.28125 -1.242187,0.31641 -1.558594,0.31641 -0.785156,0 -1.347656,-0.23438 -1.582031,-0.32813 -0.08203,-0.0351 -0.105469,-0.0351 -0.117187,-0.0351 -0.09375,0 -0.09375,0.0703 -0.09375,0.25781 v 3.55078 c 0,0.21094 0,0.29297 0.140625,0.29297 0.05859,0 0.07031,-0.0117 0.199218,-0.16406 0.328125,-0.49219 0.890625,-0.77344 1.488282,-0.77344 0.632812,0 0.949218,0.58594 1.042968,0.78516 0.199219,0.46875 0.210938,1.05468 0.210938,1.51172 0,0.45703 0,1.13671 -0.328125,1.67578 -0.269531,0.42187 -0.738281,0.72656 -1.253906,0.72656 -0.796875,0 -1.570313,-0.53906 -1.78125,-1.40625 0.05859,0.0234 0.128906,0.0352 0.1875,0.0352 0.199218,0 0.527343,-0.12891 0.527343,-0.52735 0,-0.33984 -0.234375,-0.52734 -0.527343,-0.52734 -0.210938,0 -0.527344,0.10547 -0.527344,0.57422 0,1.00781 0.808594,2.16797 2.144531,2.16797 1.347656,0 2.53125,-1.125 2.53125,-2.64844 0,-1.41797 -0.960937,-2.60156 -2.214844,-2.60156 -0.679687,0 -1.207031,0.29296 -1.511718,0.63281 z m 0,0"
         style="fill:#000000;fill-opacity:1;fill-rule:nonzero;stroke:none" />
    </g>
    <path
       id="path34"
       d="M 0,0 H 161.018"
       style="fill:none;stroke:#000000;stroke-width:0.398;stroke-linecap:butt;stroke-linejoin:miter;stroke-miterlimit:10;stroke-dasharray:none;stroke-opacity:1"
       transform="matrix(1.3333333,0,0,-1.3333333,291.01733,488.52133)" />
    <path
       id="path35"
       d="M 0,0 V 14.446"
       style="fill:none;stroke:#000000;stroke-width:0.398;stroke-linecap:butt;stroke-linejoin:miter;stroke-miterlimit:10;stroke-dasharray:none;stroke-opacity:1"
       transform="matrix(1.3333333,0,0,-1.3333333,291.01733,508.048)" />
    <path
       id="path36"
       d="m 4.3137109,-7.7811016 c 0,-0.2226562 0,-0.2929687 -0.1640625,-0.2929687 -0.09375,0 -0.1289062,0 -0.2226562,0.1523437 l -3.59765626,5.578125 v 0.3515625 H 3.4699609 v 1.07812504 c 0,0.4453125 -0.023437,0.5625 -0.9023437,0.5625 H 2.3332422 V 1.484375e-4 C 2.6027734,-0.02328906 3.5519922,-0.02328906 3.8918359,-0.02328906 c 0.328125,0 1.2890625,0 1.5585938,0.0234374975 V -0.35141406 h -0.234375 c -0.8671875,0 -0.9023438,-0.1171875 -0.9023438,-0.5625 V -1.9920391 H 5.5207422 V -2.3436016 H 4.3137109 Z m -0.7851562,0.9375 v 4.5 H 0.62230469 Z m 0,0"
       style="fill:#000000;fill-opacity:1;fill-rule:nonzero;stroke:none"
       aria-label="4"
       transform="matrix(1.3333333,0,0,1.3333333,298.98667,502.26933)" />
    <path
       id="path37"
       d="M 0,0 V 14.446"
       style="fill:none;stroke:#000000;stroke-width:0.398;stroke-linecap:butt;stroke-linejoin:miter;stroke-miterlimit:10;stroke-dasharray:none;stroke-opacity:1"
       transform="matrix(1.3333333,0,0,-1.3333333,314.76133,508.048)" />
    <path
       id="path38"
       d="M 0,0 V 14.446"
       style="fill:none;stroke:#000000;stroke-width:0.398;stroke-linecap:butt;stroke-linejoin:miter;stroke-miterlimit:10;stroke-dasharray:none;stroke-opacity:1"
       transform="matrix(1.3333333,0,0,-1.3333333,330.70133,508.048)" />
    <path
       id="path39"
       d="M 0,0 V 14.446"
       style="fill:none;stroke:#000000;stroke-width:0.398;stroke-linecap:butt;stroke-linejoin:miter;stroke-miterlimit:10;stroke-dasharray:none;stroke-opacity:1"
       transform="matrix(1.3333333,0,0,-1.3333333,346.64133,508.048)" />
    <path
       id="path40"
       d="M 0,0 V 14.446"
       style="fill:none;stroke:#000000;stroke-width:0.398;stroke-linecap:butt;stroke-linejoin:miter;stroke-miterlimit:10;stroke-dasharray:none;stroke-opacity:1"
       transform="matrix(1.3333333,0,0,-1.3333333,362.58133,508.048)" />
    <path
       id="path41"
       d="M 0,0 V 14.446"
       style="fill:none;stroke:#000000;stroke-width:0.398;stroke-linecap:butt;stroke-linejoin:miter;stroke-miterlimit:10;stroke-dasharray:none;stroke-opacity:1"
       transform="matrix(1.3333333,0,0,-1.3333333,386.324,508.048)" />
    <path
       id="path42"
       d="M 0,0 V 14.446"
       style="fill:none;stroke:#000000;stroke-width:0.398;stroke-linecap:butt;stroke-linejoin:miter;stroke-miterlimit:10;stroke-dasharray:none;stroke-opacity:1"
       transform="matrix(1.3333333,0,0,-1.3333333,402.264,508.048)" />
    <path
       id="path43"
       d="M 0,0 V 14.446"
       style="fill:none;stroke:#000000;stroke-width:0.398;stroke-linecap:butt;stroke-linejoin:miter;stroke-miterlimit:10;stroke-dasharray:none;stroke-opacity:1"
       transform="matrix(1.3333333,0,0,-1.3333333,418.204,508.048)" />
    <path
       id="path44"
       d="M 0,0 V 14.446"
       style="fill:none;stroke:#000000;stroke-width:0.398;stroke-linecap:butt;stroke-linejoin:miter;stroke-miterlimit:10;stroke-dasharray:none;stroke-opacity:1"
       transform="matrix(1.3333333,0,0,-1.3333333,434.144,508.048)" />
    <path
       id="path45"
       d="M 0,0 V 14.446"
       style="fill:none;stroke:#000000;stroke-width:0.398;stroke-linecap:butt;stroke-linejoin:miter;stroke-miterlimit:10;stroke-dasharray:none;stroke-opacity:1"
       transform="matrix(1.3333333,0,0,-1.3333333,457.88667,508.048)" />
    <path
       id="path46"
       d="M 0,0 V 14.446"
       style="fill:none;stroke:#000000;stroke-width:0.398;stroke-linecap:butt;stroke-linejoin:miter;stroke-miterlimit:10;stroke-dasharray:none;stroke-opacity:1"
       transform="matrix(1.3333333,0,0,-1.3333333,473.82667,508.048)" />
    <path
       id="path47"
       d="M 0,0 V 14.446"
       style="fill:none;stroke:#000000;stroke-width:0.398;stroke-linecap:butt;stroke-linejoin:miter;stroke-miterlimit:10;stroke-dasharray:none;stroke-opacity:1"
       transform="matrix(1.3333333,0,0,-1.3333333,489.768,508.048)" />
    <path
       id="path48"
       d="M 0,0 H 161.018"
       style="fill:none;stroke:#000000;stroke-width:0.398;stroke-linecap:butt;stroke-linejoin:miter;stroke-miterlimit:10;stroke-dasharray:none;stroke-opacity:1"
       transform="matrix(1.3333333,0,0,-1.3333333,291.01733,508.31333)" />
    <g
       id="g48"
       aria-label="ZADANIE5.&#10;Grupa41studentówzaliczyªasesj¦skªadaj¡c¡si¦ztrzechegzaminów,wktórychmo»liwymi&#10;ocenamibyªy:bdb,db,dst.Wyka»,»econajmniejpi¦ciustudentówzaliczyªosesj¦zjednako-&#10;wymzbioremocen."
       transform="matrix(1.3333333,0,0,1.3333333,77.102667,553.84533)">
      <path
         id="path49"
         d="m 41.410305,6.6638516 c 0,-0.2226563 0,-0.2929688 -0.164063,-0.2929688 -0.09375,0 -0.128906,0 -0.222656,0.1523438 L 37.42593,12.101352 v 0.351562 h 3.140625 v 1.078125 c 0,0.445313 -0.02344,0.5625 -0.902344,0.5625 h -0.234375 v 0.351563 c 0.269531,-0.02344 1.21875,-0.02344 1.558594,-0.02344 0.328125,0 1.289062,0 1.558593,0.02344 v -0.351563 h -0.234375 c -0.867187,0 -0.902343,-0.117187 -0.902343,-0.5625 v -1.078125 h 1.207031 v -0.351562 h -1.207031 z m -0.785157,0.9375 v 4.5000004 h -2.90625 z m 5.771485,-0.8203125 c 0,-0.2695313 0,-0.28125 -0.246094,-0.28125 -0.28125,0.3164062 -0.878906,0.7617187 -2.109375,0.7617187 v 0.3515625 c 0.269531,0 0.867188,0 1.523438,-0.3164062 V 13.51932 c 0,0.433594 -0.03516,0.574219 -1.078125,0.574219 h -0.375 v 0.351563 c 0.316406,-0.02344 1.476562,-0.02344 1.875,-0.02344 0.398437,0 1.546875,0 1.863281,0.02344 v -0.351563 h -0.363281 c -1.054688,0 -1.089844,-0.140625 -1.089844,-0.574219 z m 0,0"
         style="fill:#000000;fill-opacity:1;fill-rule:nonzero;stroke:none" />
    </g>
  </g>
</svg>
