<?xml version="1.0" encoding="UTF-8" standalone="no"?>
<!-- Created with Inkscape (http://www.inkscape.org/) -->

<svg
   version="1.1"
   id="svg1"
   width="794.55066"
   height="1123.6533"
   viewBox="0 0 794.55066 1123.6533"
   sodipodi:docname="LigaMatematycznaMatuskiego_Liceum_Zestaw1_2014_2015_page0.pdf"
   xmlns:inkscape="http://www.inkscape.org/namespaces/inkscape"
   xmlns:sodipodi="http://sodipodi.sourceforge.net/DTD/sodipodi-0.dtd"
   xmlns="http://www.w3.org/2000/svg"
   xmlns:svg="http://www.w3.org/2000/svg">
  <defs
     id="defs1" />
  <sodipodi:namedview
     id="namedview1"
     pagecolor="#ffffff"
     bordercolor="#000000"
     borderopacity="0.25"
     inkscape:showpageshadow="2"
     inkscape:pageopacity="0.0"
     inkscape:pagecheckerboard="0"
     inkscape:deskcolor="#d1d1d1">
    <inkscape:page
       x="0"
       y="0"
       inkscape:label="1"
       id="page1"
       width="794.55066"
       height="1123.6533"
       margin="0"
       bleed="0" />
  </sodipodi:namedview>
  <g
     id="g1"
     inkscape:groupmode="layer"
     inkscape:label="1">
    <g
       id="g2"
       aria-label="LIGAMATEMATYCZNA&#10;im.ZdzisªawaMatuskiego&#10;PADZIERNIK2014&#10;SZKOAPONADGIMNAZJALNA&#10;ZADANIE1.&#10;NabokuACtrójk¡taABCwybranopunktyDiEwtakisposób,»e|AB|=|AD|,|BE|=|EC|&#10;orazpunktEle»ypomi¦dzypunktamiAiD.NiechFb¦dzie±rodkiemªukuBCokr¦gu&#10;opisanegonatrójk¡cieABC.Wyka»,»epunktyB,E,D,Fle»¡najednymokr¦gu.&#10;ZADANIE2.&#10;Wewn¡trzsze±cianuokraw¦dzi13cmwybranowdowolnysposób2014punktów.Czywtym&#10;sze±cianiezawartyjestsze±cianokraw¦dzi1cm,wktóregown¦trzuniema»adnegozwybranych&#10;punktów?&#10;ZADANIE3.&#10;Wzbiorzeliczbnaturalnychrozwi¡»równanie&#10;a+b+2014=ab.&#10;ZADANIE4.&#10;Wyka»,»eje»elini6s¡liczbamiwzgl¦dniepierwszymi,ton&#10;2&#10;−1dzielisi¦przez24.&#10;ZADANIE5.&#10;Rozwi¡»ukªadrówna«&#10;&#10;&#10;&#10;&#10;&#10;&#10;&#10;&#10;&#10;&#10;&#10;&#10;&#10;xy"
       transform="matrix(1.3333333,0,0,1.3333333,274.724,56.069333)">
      <path
         id="path2"
         d="m -100.84085,116.7605 c -0.41016,0.70313 -0.82031,0.9375 -1.39453,0.97266 -0.12891,0.0117 -0.22266,0.0117 -0.22266,0.23437 0,0.0703 0.0586,0.11719 0.14063,0.11719 0.21093,0 0.75,-0.0234 0.97265,-0.0234 0.33985,0 0.72656,0.0234 1.05469,0.0234 0.0703,0 0.22266,0 0.22266,-0.22266 0,-0.11718 -0.0937,-0.1289 -0.17579,-0.1289 -0.26953,-0.0234 -0.49218,-0.11719 -0.49218,-0.39844 0,-0.17578 0.0703,-0.30469 0.22265,-0.5625 l 0.902347,-1.51172 h 3.058594 c 0.01172,0.10547 0.01172,0.21094 0.02344,0.31641 0.03516,0.30468 0.175782,1.54687 0.175782,1.78125 0,0.35156 -0.609375,0.375 -0.796875,0.375 -0.140625,0 -0.269532,0 -0.269532,0.22265 0,0.12891 0.105469,0.12891 0.175782,0.12891 0.210937,0 0.445312,-0.0234 0.65625,-0.0234 h 0.679687 c 0.726563,0 1.253906,0.0234 1.265625,0.0234 0.08203,0 0.210938,0 0.210938,-0.22266 0,-0.1289 -0.105469,-0.1289 -0.28125,-0.1289 -0.65625,0 -0.667969,-0.10547 -0.714844,-0.45703 l -0.726563,-7.46485 c -0.02344,-0.23437 -0.07031,-0.25781 -0.199218,-0.25781 -0.117188,0 -0.1875,0.0234 -0.304688,0.19922 z m 1.441405,-1.83984 2.402343,-4.01953 0.410157,4.01953 z m 14.235351,-5.14453 c 0,-0.10547 -0.08203,-0.10547 -0.105468,-0.10547 -0.02344,0 -0.07031,0 -0.175782,0.11718 l -0.820312,1.00782 c -0.421875,-0.71485 -1.078125,-1.125 -1.96875,-1.125 -2.589844,0 -5.261719,2.61328 -5.261719,5.42578 0,1.99219 1.394531,3.23437 3.140625,3.23437 0.960938,0 1.792969,-0.39843 2.484375,-0.98437 1.042969,-0.87891 1.359375,-2.03906 1.359375,-2.13281 0,-0.10547 -0.09375,-0.10547 -0.140625,-0.10547 -0.105469,0 -0.117187,0.0703 -0.140625,0.11718 -0.550781,1.86329 -2.15625,2.76563 -3.351562,2.76563 -1.277344,0 -2.367188,-0.82031 -2.367188,-2.50781 0,-0.38672 0.117188,-2.46094 1.464844,-4.03125 0.65625,-0.76172 1.78125,-1.44141 2.917969,-1.44141 1.3125,0 1.898437,1.08984 1.898437,2.30859 0,0.31641 -0.03516,0.57422 -0.03516,0.6211 0,0.11719 0.117187,0.11719 0.152344,0.11719 0.140625,0 0.152343,-0.0117 0.199218,-0.23438 z m 0,0"
         style="fill:#000000;fill-opacity:1;fill-rule:nonzero;stroke:none" />
      <path
         id="path3"
         d="m -36.504914,116.7605 c -0.410156,0.70313 -0.820313,0.9375 -1.394531,0.97266 -0.128907,0.0117 -0.222657,0.0117 -0.222657,0.23437 0,0.0703 0.05859,0.11719 0.140625,0.11719 0.210938,0 0.75,-0.0234 0.972657,-0.0234 0.339843,0 0.726562,0.0234 1.054687,0.0234 0.07031,0 0.222656,0 0.222656,-0.22266 0,-0.11718 -0.09375,-0.1289 -0.175781,-0.1289 -0.269531,-0.0234 -0.492187,-0.11719 -0.492187,-0.39844 0,-0.17578 0.07031,-0.30469 0.222656,-0.5625 l 0.902344,-1.51172 h 3.058593 c 0.01172,0.10547 0.01172,0.21094 0.02344,0.31641 0.03516,0.30468 0.175781,1.54687 0.175781,1.78125 0,0.35156 -0.609375,0.375 -0.796875,0.375 -0.140625,0 -0.269531,0 -0.269531,0.22265 0,0.12891 0.105469,0.12891 0.175781,0.12891 0.210938,0 0.445313,-0.0234 0.65625,-0.0234 h 0.679688 c 0.726562,0 1.253906,0.0234 1.265625,0.0234 0.08203,0 0.210937,0 0.210937,-0.22266 0,-0.1289 -0.105469,-0.1289 -0.28125,-0.1289 -0.65625,0 -0.667969,-0.10547 -0.714844,-0.45703 l -0.726562,-7.46485 c -0.02344,-0.23437 -0.07031,-0.25781 -0.199219,-0.25781 -0.117187,0 -0.1875,0.0234 -0.304687,0.19922 z m 1.441406,-1.83984 2.402344,-4.01953 0.410156,4.01953 z m 9.676758,-4.1836 c 0.117188,-0.44531 0.164063,-0.46875 0.621094,-0.46875 h 1.558594 c 1.347656,0 1.347656,1.14844 1.347656,1.25391 0,0.97266 -0.960938,2.20312 -2.542969,2.20312 h -1.722656 z m 2.027344,3.08203 c 1.300781,-0.24609 2.484375,-1.14843 2.484375,-2.25 0,-0.92578 -0.832031,-1.65234 -2.179688,-1.65234 h -3.832031 c -0.234375,0 -0.339844,0 -0.339844,0.23438 0,0.11718 0.105469,0.11718 0.292969,0.11718 0.726563,0 0.726563,0.0937 0.726563,0.22266 0,0.0234 0,0.0937 -0.04687,0.28125 l -1.617188,6.43359 c -0.105469,0.41016 -0.128906,0.52735 -0.960937,0.52735 -0.234375,0 -0.351563,0 -0.351563,0.22265 0,0.12891 0.07031,0.12891 0.304688,0.12891 h 4.101562 c 1.828125,0 3.246094,-1.38281 3.246094,-2.58984 0,-0.98438 -0.867188,-1.58204 -1.828125,-1.67579 z m -1.699219,3.91407 h -1.617187 c -0.164063,0 -0.1875,0 -0.257813,-0.0117 -0.128906,-0.0117 -0.152344,-0.0352 -0.152344,-0.12891 0,-0.082 0.03516,-0.15234 0.05859,-0.25781 l 0.832031,-3.375 h 2.25 c 1.40625,0 1.40625,1.3125 1.40625,1.40625 0,1.14844 -1.042968,2.36719 -2.519531,2.36719 z m 13.722656,-7.95703 c 0,-0.10547 -0.08203,-0.10547 -0.105468,-0.10547 -0.02344,0 -0.07031,0 -0.175782,0.11718 l -0.820312,1.00782 c -0.421875,-0.71485 -1.078125,-1.125 -1.96875,-1.125 -2.589844,0 -5.261719,2.61328 -5.261719,5.42578 0,1.99219 1.394531,3.23437 3.140625,3.23437 0.960938,0 1.792969,-0.39843 2.484375,-0.98437 1.042969,-0.87891 1.359375,-2.03906 1.359375,-2.13281 0,-0.10547 -0.09375,-0.10547 -0.140625,-0.10547 -0.105469,0 -0.117187,0.0703 -0.140625,0.11718 -0.550781,1.86329 -2.15625,2.76563 -3.351562,2.76563 -1.277344,0 -2.367188,-0.82031 -2.367188,-2.50781 0,-0.38672 0.117188,-2.46094 1.464844,-4.03125 0.65625,-0.76172 1.78125,-1.44141 2.917969,-1.44141 1.3125,0 1.898437,1.08984 1.898437,2.30859 0,0.31641 -0.03516,0.57422 -0.03516,0.6211 0,0.11719 0.117187,0.11719 0.152344,0.11719 0.140625,0 0.152343,-0.0117 0.199218,-0.23438 z m 0,0"
         style="fill:#000000;fill-opacity:1;fill-rule:nonzero;stroke:none" />
      <path
         id="path4"
         d="m 78.869109,117.20581 c -0.105468,0.41016 -0.128906,0.52735 -0.960937,0.52735 -0.234375,0 -0.351563,0 -0.351563,0.22265 0,0.12891 0.07031,0.12891 0.304688,0.12891 h 3.796875 c 2.414062,0 4.769531,-2.49609 4.769531,-5.16797 0,-1.72266 -1.03125,-3 -2.742187,-3 h -3.832032 c -0.234375,0 -0.339843,0 -0.339843,0.23438 0,0.11718 0.105468,0.11718 0.292968,0.11718 0.726563,0 0.726563,0.0937 0.726563,0.22266 0,0.0234 0,0.0937 -0.04687,0.28125 z m 2.519532,-6.46875 c 0.117187,-0.44531 0.164062,-0.46875 0.621093,-0.46875 h 1.324219 c 1.113281,0 2.144531,0.60938 2.144531,2.26172 0,0.59766 -0.234375,2.67188 -1.394531,3.98438 -0.339844,0.39843 -1.242187,1.21875 -2.625,1.21875 h -1.359375 c -0.164062,0 -0.1875,0 -0.257812,-0.0117 -0.128907,-0.0117 -0.140625,-0.0352 -0.140625,-0.12891 0,-0.082 0.02344,-0.15234 0.04687,-0.25781 z m 0,0"
         style="fill:#000000;fill-opacity:1;fill-rule:nonzero;stroke:none" />
      <path
         id="path5"
         d="m 103.96481,115.30738 c 0.0117,-0.0352 0.0469,-0.11719 0.0469,-0.16407 0,-0.0586 -0.0469,-0.11718 -0.11719,-0.11718 -0.0469,0 -0.0703,0.0117 -0.10547,0.0469 -0.0234,0.0117 -0.0234,0.0352 -0.14062,0.26953 -0.70313,1.67578 -1.21875,2.39063 -3.12891,2.39063 h -1.746094 c -0.164062,0 -0.1875,0 -0.257812,-0.0117 -0.128906,-0.0117 -0.140625,-0.0352 -0.140625,-0.12891 0,-0.082 0.02344,-0.15234 0.04687,-0.25781 l 0.820312,-3.30469 h 1.183589 c 0.9375,0 1.00782,0.21094 1.00782,0.5625 0,0.11719 0,0.23438 -0.082,0.58594 -0.0352,0.0469 -0.0469,0.0937 -0.0469,0.12891 0,0.082 0.0703,0.1289 0.14062,0.1289 0.10547,0 0.11719,-0.0937 0.16406,-0.25781 l 0.67969,-2.77734 c 0,-0.0586 -0.0469,-0.11719 -0.11719,-0.11719 -0.10546,0 -0.11718,0.0469 -0.16406,0.22265 -0.24609,0.91407 -0.48047,1.1836 -1.54687,1.1836 h -1.136727 l 0.738287,-2.94141 c 0.11719,-0.42187 0.14062,-0.45703 0.62109,-0.45703 h 1.71093 c 1.47657,0 1.76954,0.39844 1.76954,1.30078 0,0.0117 0,0.35156 -0.0469,0.73828 -0.0117,0.0469 -0.0234,0.12891 -0.0234,0.15235 0,0.0937 0.0586,0.1289 0.12891,0.1289 0.082,0 0.14062,-0.0469 0.16406,-0.26953 l 0.24609,-2.08594 c 0,-0.0352 0.0234,-0.15234 0.0234,-0.17578 0,-0.14062 -0.10547,-0.14062 -0.31641,-0.14062 h -5.83594 c -0.234375,0 -0.351562,0 -0.351562,0.22265 0,0.12891 0.08203,0.12891 0.292968,0.12891 0.738282,0 0.738282,0.082 0.738282,0.21094 0,0.0586 -0.01172,0.10547 -0.04687,0.24609 l -1.617188,6.45703 c -0.105469,0.41016 -0.128906,0.52735 -0.960937,0.52735 -0.234375,0 -0.351563,0 -0.351563,0.22265 0,0.12891 0.07031,0.12891 0.304688,0.12891 h 6.000002 c 0.26953,0 0.28125,-0.0117 0.36328,-0.19922 z m 0,0"
         style="fill:#000000;fill-opacity:1;fill-rule:nonzero;stroke:none" />
      <path
         id="path6"
         d="m 196.78024,109.55347 c 0,-0.22266 0,-0.43359 -0.23437,-0.43359 -0.2461,0 -0.2461,0.21093 -0.2461,0.43359 v 11.08594 c 0,0.22265 0,0.43359 0.2461,0.43359 0.23437,0 0.23437,-0.21094 0.23437,-0.43359 z m 0,0"
         style="fill:#000000;fill-opacity:1;fill-rule:nonzero;stroke:none" />
      <path
         id="path7"
         d="m 200.23141,116.7605 c -0.41015,0.70313 -0.82031,0.9375 -1.39453,0.97266 -0.1289,0.0117 -0.22265,0.0117 -0.22265,0.23437 0,0.0703 0.0586,0.11719 0.14062,0.11719 0.21094,0 0.75,-0.0234 0.97266,-0.0234 0.33984,0 0.72656,0.0234 1.05469,0.0234 0.0703,0 0.22265,0 0.22265,-0.22266 0,-0.11718 -0.0937,-0.1289 -0.17578,-0.1289 -0.26953,-0.0234 -0.49219,-0.11719 -0.49219,-0.39844 0,-0.17578 0.0703,-0.30469 0.22266,-0.5625 l 0.90234,-1.51172 h 3.0586 c 0.0117,0.10547 0.0117,0.21094 0.0234,0.31641 0.0352,0.30468 0.17579,1.54687 0.17579,1.78125 0,0.35156 -0.60938,0.375 -0.79688,0.375 -0.14062,0 -0.26953,0 -0.26953,0.22265 0,0.12891 0.10547,0.12891 0.17578,0.12891 0.21094,0 0.44531,-0.0234 0.65625,-0.0234 h 0.67969 c 0.72656,0 1.2539,0.0234 1.26562,0.0234 0.082,0 0.21094,0 0.21094,-0.22266 0,-0.1289 -0.10547,-0.1289 -0.28125,-0.1289 -0.65625,0 -0.66797,-0.10547 -0.71484,-0.45703 l -0.72657,-7.46485 c -0.0234,-0.23437 -0.0703,-0.25781 -0.19921,-0.25781 -0.11719,0 -0.1875,0.0234 -0.30469,0.19922 z m 1.44141,-1.83984 2.40234,-4.01953 0.41016,4.01953 z m 9.67676,-4.1836 c 0.11719,-0.44531 0.16406,-0.46875 0.62109,-0.46875 h 1.5586 c 1.34765,0 1.34765,1.14844 1.34765,1.25391 0,0.97266 -0.96094,2.20312 -2.54297,2.20312 h -1.72265 z m 2.02734,3.08203 c 1.30078,-0.24609 2.48438,-1.14843 2.48438,-2.25 0,-0.92578 -0.83203,-1.65234 -2.17969,-1.65234 h -3.83203 c -0.23438,0 -0.33985,0 -0.33985,0.23438 0,0.11718 0.10547,0.11718 0.29297,0.11718 0.72657,0 0.72657,0.0937 0.72657,0.22266 0,0.0234 0,0.0937 -0.0469,0.28125 l -1.61719,6.43359 c -0.10547,0.41016 -0.1289,0.52735 -0.96093,0.52735 -0.23438,0 -0.35157,0 -0.35157,0.22265 0,0.12891 0.0703,0.12891 0.30469,0.12891 h 4.10156 c 1.82813,0 3.2461,-1.38281 3.2461,-2.58984 0,-0.98438 -0.86719,-1.58204 -1.82813,-1.67579 z m -1.69922,3.91407 h -1.61718 c -0.16407,0 -0.1875,0 -0.25782,-0.0117 -0.1289,-0.0117 -0.15234,-0.0352 -0.15234,-0.12891 0,-0.082 0.0352,-0.15234 0.0586,-0.25781 l 0.83203,-3.375 h 2.25 c 1.40625,0 1.40625,1.3125 1.40625,1.40625 0,1.14844 -1.04296,2.36719 -2.51953,2.36719 z m 0,0"
         style="fill:#000000;fill-opacity:1;fill-rule:nonzero;stroke:none" />
      <path
         id="path8"
         d="m 218.37204,109.55347 c 0,-0.22266 0,-0.43359 -0.23438,-0.43359 -0.24609,0 -0.24609,0.21093 -0.24609,0.43359 v 11.08594 c 0,0.22265 0,0.43359 0.24609,0.43359 0.23438,0 0.23438,-0.21094 0.23438,-0.43359 z m 0,0"
         style="fill:#000000;fill-opacity:1;fill-rule:nonzero;stroke:none" />
      <path
         id="path9"
         d="m 231.19235,114.21753 c 0.16406,0 0.375,0 0.375,-0.22265 0,-0.22266 -0.19922,-0.22266 -0.375,-0.22266 h -7.04297 c -0.17578,0 -0.38672,0 -0.38672,0.21094 0,0.23437 0.19922,0.23437 0.38672,0.23437 z m 0,2.21485 c 0.16406,0 0.375,0 0.375,-0.21094 0,-0.23438 -0.19922,-0.23438 -0.375,-0.23438 h -7.04297 c -0.17578,0 -0.38672,0 -0.38672,0.22266 0,0.22266 0.19922,0.22266 0.38672,0.22266 z m 0,0"
         style="fill:#000000;fill-opacity:1;fill-rule:nonzero;stroke:none" />
      <path
         id="path10"
         d="m 237.44138,109.55347 c 0,-0.22266 0,-0.43359 -0.23438,-0.43359 -0.24609,0 -0.24609,0.21093 -0.24609,0.43359 v 11.08594 c 0,0.22265 0,0.43359 0.24609,0.43359 0.23438,0 0.23438,-0.21094 0.23438,-0.43359 z m 0,0"
         style="fill:#000000;fill-opacity:1;fill-rule:nonzero;stroke:none" />
      <path
         id="path11"
         d="m 240.88962,116.7605 c -0.41016,0.70313 -0.82032,0.9375 -1.39453,0.97266 -0.12891,0.0117 -0.22266,0.0117 -0.22266,0.23437 0,0.0703 0.0586,0.11719 0.14062,0.11719 0.21094,0 0.75,-0.0234 0.97266,-0.0234 0.33984,0 0.72656,0.0234 1.05469,0.0234 0.0703,0 0.22265,0 0.22265,-0.22266 0,-0.11718 -0.0937,-0.1289 -0.17578,-0.1289 -0.26953,-0.0234 -0.49218,-0.11719 -0.49218,-0.39844 0,-0.17578 0.0703,-0.30469 0.22265,-0.5625 l 0.90235,-1.51172 h 3.05859 c 0.0117,0.10547 0.0117,0.21094 0.0234,0.31641 0.0351,0.30468 0.17578,1.54687 0.17578,1.78125 0,0.35156 -0.60938,0.375 -0.79688,0.375 -0.14062,0 -0.26953,0 -0.26953,0.22265 0,0.12891 0.10547,0.12891 0.17578,0.12891 0.21094,0 0.44532,-0.0234 0.65625,-0.0234 h 0.67969 c 0.72656,0 1.25391,0.0234 1.26563,0.0234 0.082,0 0.21093,0 0.21093,-0.22266 0,-0.1289 -0.10547,-0.1289 -0.28125,-0.1289 -0.65625,0 -0.66797,-0.10547 -0.71484,-0.45703 l -0.72656,-7.46485 c -0.0234,-0.23437 -0.0703,-0.25781 -0.19922,-0.25781 -0.11719,0 -0.1875,0.0234 -0.30469,0.19922 z m 1.4414,-1.83984 2.40235,-4.01953 0.41015,4.01953 z m 7.18067,2.28515 c -0.10547,0.41016 -0.12891,0.52735 -0.96094,0.52735 -0.23437,0 -0.35156,0 -0.35156,0.22265 0,0.12891 0.0703,0.12891 0.30469,0.12891 h 3.79687 c 2.41406,0 4.76953,-2.49609 4.76953,-5.16797 0,-1.72266 -1.03125,-3 -2.74219,-3 h -3.83203 c -0.23437,0 -0.33984,0 -0.33984,0.23438 0,0.11718 0.10547,0.11718 0.29297,0.11718 0.72656,0 0.72656,0.0937 0.72656,0.22266 0,0.0234 0,0.0937 -0.0469,0.28125 z m 2.51953,-6.46875 c 0.11719,-0.44531 0.16406,-0.46875 0.62109,-0.46875 h 1.32422 c 1.11328,0 2.14453,0.60938 2.14453,2.26172 0,0.59766 -0.23437,2.67188 -1.39453,3.98438 -0.33984,0.39843 -1.24219,1.21875 -2.625,1.21875 h -1.35937 c -0.16407,0 -0.1875,0 -0.25782,-0.0117 -0.1289,-0.0117 -0.14062,-0.0352 -0.14062,-0.12891 0,-0.082 0.0234,-0.15234 0.0469,-0.25781 z m 0,0"
         style="fill:#000000;fill-opacity:1;fill-rule:nonzero;stroke:none" />
      <path
         id="path12"
         d="m 259.58102,109.55347 c 0,-0.22266 0,-0.43359 -0.23437,-0.43359 -0.2461,0 -0.2461,0.21093 -0.2461,0.43359 v 11.08594 c 0,0.22265 0,0.43359 0.2461,0.43359 0.23437,0 0.23437,-0.21094 0.23437,-0.43359 z m 0,0"
         style="fill:#000000;fill-opacity:1;fill-rule:nonzero;stroke:none" />
      <path
         id="path13"
         d="m 269.07907,109.55347 c 0,-0.22266 0,-0.43359 -0.23437,-0.43359 -0.2461,0 -0.2461,0.21093 -0.2461,0.43359 v 11.08594 c 0,0.22265 0,0.43359 0.2461,0.43359 0.23437,0 0.23437,-0.21094 0.23437,-0.43359 z m 0,0"
         style="fill:#000000;fill-opacity:1;fill-rule:nonzero;stroke:none" />
      <path
         id="path14"
         d="m 274.87399,110.73706 c 0.11719,-0.44531 0.16406,-0.46875 0.6211,-0.46875 h 1.55859 c 1.34766,0 1.34766,1.14844 1.34766,1.25391 0,0.97266 -0.96094,2.20312 -2.54297,2.20312 h -1.72266 z m 2.02735,3.08203 c 1.30078,-0.24609 2.48437,-1.14843 2.48437,-2.25 0,-0.92578 -0.83203,-1.65234 -2.17969,-1.65234 h -3.83203 c -0.23437,0 -0.33984,0 -0.33984,0.23438 0,0.11718 0.10547,0.11718 0.29297,0.11718 0.72656,0 0.72656,0.0937 0.72656,0.22266 0,0.0234 0,0.0937 -0.0469,0.28125 l -1.61718,6.43359 c -0.10547,0.41016 -0.12891,0.52735 -0.96094,0.52735 -0.23438,0 -0.35156,0 -0.35156,0.22265 0,0.12891 0.0703,0.12891 0.30468,0.12891 h 4.10157 c 1.82812,0 3.24609,-1.38281 3.24609,-2.58984 0,-0.98438 -0.86719,-1.58204 -1.82812,-1.67579 z m -1.69922,3.91407 h -1.61719 c -0.16406,0 -0.1875,0 -0.25781,-0.0117 -0.12891,-0.0117 -0.15235,-0.0352 -0.15235,-0.12891 0,-0.082 0.0352,-0.15234 0.0586,-0.25781 l 0.83203,-3.375 h 2.25 c 1.40625,0 1.40625,1.3125 1.40625,1.40625 0,1.14844 -1.04297,2.36719 -2.51953,2.36719 z m 13.09863,-2.42578 c 0.0117,-0.0352 0.0469,-0.11719 0.0469,-0.16407 0,-0.0586 -0.0469,-0.11718 -0.11719,-0.11718 -0.0469,0 -0.0703,0.0117 -0.10547,0.0469 -0.0234,0.0117 -0.0234,0.0352 -0.14063,0.26953 -0.70312,1.67578 -1.21875,2.39063 -3.1289,2.39063 h -1.7461 c -0.16406,0 -0.1875,0 -0.25781,-0.0117 -0.1289,-0.0117 -0.14062,-0.0352 -0.14062,-0.12891 0,-0.082 0.0234,-0.15234 0.0469,-0.25781 l 0.82031,-3.30469 h 1.1836 c 0.9375,0 1.00781,0.21094 1.00781,0.5625 0,0.11719 0,0.23438 -0.082,0.58594 -0.0352,0.0469 -0.0469,0.0937 -0.0469,0.12891 0,0.082 0.0703,0.1289 0.14063,0.1289 0.10547,0 0.11719,-0.0937 0.16406,-0.25781 l 0.67969,-2.77734 c 0,-0.0586 -0.0469,-0.11719 -0.11719,-0.11719 -0.10547,0 -0.11719,0.0469 -0.16406,0.22265 -0.24609,0.91407 -0.48047,1.1836 -1.54688,1.1836 h -1.13671 l 0.73828,-2.94141 c 0.11718,-0.42187 0.14062,-0.45703 0.62109,-0.45703 h 1.71094 c 1.47656,0 1.76953,0.39844 1.76953,1.30078 0,0.0117 0,0.35156 -0.0469,0.73828 -0.0117,0.0469 -0.0234,0.12891 -0.0234,0.15235 0,0.0937 0.0586,0.1289 0.1289,0.1289 0.082,0 0.14063,-0.0469 0.16407,-0.26953 l 0.24609,-2.08594 c 0,-0.0352 0.0234,-0.15234 0.0234,-0.17578 0,-0.14062 -0.10547,-0.14062 -0.31641,-0.14062 h -5.83594 c -0.23437,0 -0.35156,0 -0.35156,0.22265 0,0.12891 0.082,0.12891 0.29297,0.12891 0.73828,0 0.73828,0.082 0.73828,0.21094 0,0.0586 -0.0117,0.10547 -0.0469,0.24609 l -1.61719,6.45703 c -0.10547,0.41016 -0.12891,0.52735 -0.96094,0.52735 -0.23437,0 -0.35156,0 -0.35156,0.22265 0,0.12891 0.0703,0.12891 0.30469,0.12891 h 6 c 0.26953,0 0.28125,-0.0117 0.36328,-0.19922 z m 0,0"
         style="fill:#000000;fill-opacity:1;fill-rule:nonzero;stroke:none" />
      <path
         id="path15"
         d="m 291.26266,109.55347 c 0,-0.22266 0,-0.43359 -0.23437,-0.43359 -0.24609,0 -0.24609,0.21093 -0.24609,0.43359 v 11.08594 c 0,0.22265 0,0.43359 0.24609,0.43359 0.23437,0 0.23437,-0.21094 0.23437,-0.43359 z m 0,0"
         style="fill:#000000;fill-opacity:1;fill-rule:nonzero;stroke:none" />
      <path
         id="path16"
         d="m 304.08005,114.21753 c 0.16406,0 0.375,0 0.375,-0.22265 0,-0.22266 -0.19922,-0.22266 -0.375,-0.22266 h -7.04297 c -0.17578,0 -0.38672,0 -0.38672,0.21094 0,0.23437 0.19922,0.23437 0.38672,0.23437 z m 0,2.21485 c 0.16406,0 0.375,0 0.375,-0.21094 0,-0.23438 -0.19922,-0.23438 -0.375,-0.23438 h -7.04297 c -0.17578,0 -0.38672,0 -0.38672,0.22266 0,0.22266 0.19922,0.22266 0.38672,0.22266 z m 0,0"
         style="fill:#000000;fill-opacity:1;fill-rule:nonzero;stroke:none" />
      <path
         id="path17"
         d="m 310.32907,109.55347 c 0,-0.22266 0,-0.43359 -0.23437,-0.43359 -0.2461,0 -0.2461,0.21093 -0.2461,0.43359 v 11.08594 c 0,0.22265 0,0.43359 0.2461,0.43359 0.23437,0 0.23437,-0.21094 0.23437,-0.43359 z m 0,0"
         style="fill:#000000;fill-opacity:1;fill-rule:nonzero;stroke:none" />
      <path
         id="path18"
         d="m 320.06149,115.30738 c 0.0117,-0.0352 0.0469,-0.11719 0.0469,-0.16407 0,-0.0586 -0.0469,-0.11718 -0.11719,-0.11718 -0.0469,0 -0.0703,0.0117 -0.10547,0.0469 -0.0234,0.0117 -0.0234,0.0352 -0.14062,0.26953 -0.70313,1.67578 -1.21875,2.39063 -3.12891,2.39063 h -1.74609 c -0.16407,0 -0.1875,0 -0.25782,-0.0117 -0.1289,-0.0117 -0.14062,-0.0352 -0.14062,-0.12891 0,-0.082 0.0234,-0.15234 0.0469,-0.25781 l 0.82032,-3.30469 h 1.18359 c 0.9375,0 1.00781,0.21094 1.00781,0.5625 0,0.11719 0,0.23438 -0.082,0.58594 -0.0352,0.0469 -0.0469,0.0937 -0.0469,0.12891 0,0.082 0.0703,0.1289 0.14062,0.1289 0.10547,0 0.11719,-0.0937 0.16406,-0.25781 l 0.67969,-2.77734 c 0,-0.0586 -0.0469,-0.11719 -0.11719,-0.11719 -0.10547,0 -0.11718,0.0469 -0.16406,0.22265 -0.24609,0.91407 -0.48047,1.1836 -1.54687,1.1836 h -1.13672 l 0.73828,-2.94141 c 0.11719,-0.42187 0.14062,-0.45703 0.62109,-0.45703 h 1.71094 c 1.47656,0 1.76953,0.39844 1.76953,1.30078 0,0.0117 0,0.35156 -0.0469,0.73828 -0.0117,0.0469 -0.0234,0.12891 -0.0234,0.15235 0,0.0937 0.0586,0.1289 0.1289,0.1289 0.082,0 0.14063,-0.0469 0.16407,-0.26953 l 0.24609,-2.08594 c 0,-0.0352 0.0234,-0.15234 0.0234,-0.17578 0,-0.14062 -0.10547,-0.14062 -0.31641,-0.14062 h -5.83594 c -0.23437,0 -0.35156,0 -0.35156,0.22265 0,0.12891 0.082,0.12891 0.29297,0.12891 0.73828,0 0.73828,0.082 0.73828,0.21094 0,0.0586 -0.0117,0.10547 -0.0469,0.24609 l -1.61719,6.45703 c -0.10547,0.41016 -0.12891,0.52735 -0.96094,0.52735 -0.23437,0 -0.35156,0 -0.35156,0.22265 0,0.12891 0.0703,0.12891 0.30469,0.12891 h 6 c 0.26953,0 0.28125,-0.0117 0.36328,-0.19922 z m 9.99024,-5.53125 c 0,-0.10547 -0.082,-0.10547 -0.10547,-0.10547 -0.0234,0 -0.0703,0 -0.17578,0.11718 l -0.82032,1.00782 c -0.42187,-0.71485 -1.07812,-1.125 -1.96875,-1.125 -2.58984,0 -5.26171,2.61328 -5.26171,5.42578 0,1.99219 1.39453,3.23437 3.14062,3.23437 0.96094,0 1.79297,-0.39843 2.48438,-0.98437 1.04296,-0.87891 1.35937,-2.03906 1.35937,-2.13281 0,-0.10547 -0.0937,-0.10547 -0.14062,-0.10547 -0.10547,0 -0.11719,0.0703 -0.14063,0.11718 -0.55078,1.86329 -2.15625,2.76563 -3.35156,2.76563 -1.27735,0 -2.36719,-0.82031 -2.36719,-2.50781 0,-0.38672 0.11719,-2.46094 1.46484,-4.03125 0.65625,-0.76172 1.78125,-1.44141 2.91797,-1.44141 1.3125,0 1.89844,1.08984 1.89844,2.30859 0,0.31641 -0.0352,0.57422 -0.0352,0.6211 0,0.11719 0.11719,0.11719 0.15235,0.11719 0.14062,0 0.15234,-0.0117 0.19922,-0.23438 z m 0,0"
         style="fill:#000000;fill-opacity:1;fill-rule:nonzero;stroke:none" />
      <path
         id="path19"
         d="m 332.25192,109.55347 c 0,-0.22266 0,-0.43359 -0.23437,-0.43359 -0.2461,0 -0.2461,0.21093 -0.2461,0.43359 v 11.08594 c 0,0.22265 0,0.43359 0.2461,0.43359 0.23437,0 0.23437,-0.21094 0.23437,-0.43359 z m 0,0"
         style="fill:#000000;fill-opacity:1;fill-rule:nonzero;stroke:none" />
      <path
         id="path20"
         d="m -77.379914,131.198 c 0.01172,-0.0352 0.04687,-0.11719 0.04687,-0.16406 0,-0.0586 -0.04687,-0.11719 -0.117188,-0.11719 -0.04687,0 -0.07031,0.0117 -0.105468,0.0469 -0.02344,0.0117 -0.02344,0.0352 -0.140625,0.26953 -0.703125,1.67578 -1.21875,2.39062 -3.128907,2.39062 h -1.746093 c -0.164063,0 -0.1875,0 -0.257813,-0.0117 -0.128906,-0.0117 -0.140625,-0.0352 -0.140625,-0.1289 0,-0.082 0.02344,-0.15235 0.04687,-0.25782 l 0.820313,-3.30468 h 1.183593 c 0.9375,0 1.007813,0.21093 1.007813,0.5625 0,0.11718 0,0.23437 -0.08203,0.58593 -0.03516,0.0469 -0.04687,0.0937 -0.04687,0.12891 0,0.082 0.07031,0.12891 0.140625,0.12891 0.105468,0 0.117187,-0.0937 0.164062,-0.25782 l 0.679688,-2.77734 c 0,-0.0586 -0.04687,-0.11719 -0.117188,-0.11719 -0.105469,0 -0.117187,0.0469 -0.164062,0.22266 -0.246094,0.91406 -0.480469,1.18359 -1.546875,1.18359 h -1.136719 l 0.738281,-2.9414 c 0.117188,-0.42188 0.140625,-0.45703 0.621094,-0.45703 h 1.710937 c 1.476563,0 1.769532,0.39843 1.769532,1.30078 0,0.0117 0,0.35156 -0.04687,0.73828 -0.01172,0.0469 -0.02344,0.1289 -0.02344,0.15234 0,0.0937 0.05859,0.12891 0.128906,0.12891 0.08203,0 0.140625,-0.0469 0.164063,-0.26953 l 0.246094,-2.08594 c 0,-0.0352 0.02344,-0.15234 0.02344,-0.17578 0,-0.14063 -0.105469,-0.14063 -0.316406,-0.14063 h -5.835938 c -0.234375,0 -0.351562,0 -0.351562,0.22266 0,0.12891 0.08203,0.12891 0.292969,0.12891 0.738281,0 0.738281,0.082 0.738281,0.21093 0,0.0586 -0.01172,0.10547 -0.04687,0.2461 l -1.617188,6.45703 c -0.105468,0.41015 -0.128906,0.52734 -0.960937,0.52734 -0.234375,0 -0.351563,0 -0.351563,0.22266 0,0.1289 0.07031,0.1289 0.304688,0.1289 h 6 c 0.269531,0 0.28125,-0.0117 0.363281,-0.19921 z m 0,0"
         style="fill:#000000;fill-opacity:1;fill-rule:nonzero;stroke:none" />
      <path
         id="path21"
         d="m 65.067352,132.65113 c -0.410157,0.70312 -0.820313,0.9375 -1.394532,0.97265 -0.128906,0.0117 -0.222656,0.0117 -0.222656,0.23438 0,0.0703 0.05859,0.11718 0.140625,0.11718 0.210938,0 0.75,-0.0234 0.972656,-0.0234 0.339844,0 0.726563,0.0234 1.054688,0.0234 0.07031,0 0.222656,0 0.222656,-0.22265 0,-0.11719 -0.09375,-0.12891 -0.175781,-0.12891 -0.269531,-0.0234 -0.492188,-0.11719 -0.492188,-0.39844 0,-0.17578 0.07031,-0.30468 0.222657,-0.5625 l 0.902343,-1.51171 h 3.058594 c 0.01172,0.10546 0.01172,0.21093 0.02344,0.3164 0.03516,0.30469 0.175781,1.54688 0.175781,1.78125 0,0.35156 -0.609375,0.375 -0.796875,0.375 -0.140625,0 -0.269531,0 -0.269531,0.22266 0,0.1289 0.105468,0.1289 0.175781,0.1289 0.210937,0 0.445312,-0.0234 0.65625,-0.0234 h 0.679687 c 0.726563,0 1.253907,0.0234 1.265625,0.0234 0.08203,0 0.210938,0 0.210938,-0.22265 0,-0.12891 -0.105469,-0.12891 -0.28125,-0.12891 -0.65625,0 -0.667969,-0.10547 -0.714844,-0.45703 l -0.726562,-7.46484 c -0.02344,-0.23438 -0.07031,-0.25782 -0.199219,-0.25782 -0.117188,0 -0.1875,0.0234 -0.304688,0.19922 z m 1.441406,-1.83985 2.402344,-4.01953 0.410156,4.01953 z m 0,0"
         style="fill:#000000;fill-opacity:1;fill-rule:nonzero;stroke:none" />
      <path
         id="path22"
         d="m 87.781219,133.09644 c -0.105469,0.41015 -0.128906,0.52734 -0.960938,0.52734 -0.234375,0 -0.351562,0 -0.351562,0.22266 0,0.1289 0.07031,0.1289 0.304687,0.1289 h 3.796875 c 2.414063,0 4.769532,-2.49609 4.769532,-5.16796 0,-1.72266 -1.03125,-3 -2.742188,-3 h -3.832031 c -0.234375,0 -0.339844,0 -0.339844,0.23437 0,0.11719 0.105469,0.11719 0.292969,0.11719 0.726562,0 0.726562,0.0937 0.726562,0.22265 0,0.0234 0,0.0937 -0.04687,0.28125 z m 2.519531,-6.46875 c 0.117188,-0.44531 0.164063,-0.46875 0.621094,-0.46875 h 1.324219 c 1.113281,0 2.144531,0.60937 2.144531,2.26172 0,0.59765 -0.234375,2.67187 -1.394531,3.98437 -0.339844,0.39844 -1.242188,1.21875 -2.625,1.21875 h -1.359375 c -0.164063,0 -0.1875,0 -0.257813,-0.0117 -0.128906,-0.0117 -0.140625,-0.0352 -0.140625,-0.1289 0,-0.082 0.02344,-0.15235 0.04687,-0.25782 z m 0,0"
         style="fill:#000000;fill-opacity:1;fill-rule:nonzero;stroke:none" />
      <path
         id="path23"
         d="m 146.53317,130.073 h 1.14844 c 0.90234,0 0.98437,0.21094 0.98437,0.55078 0,0.16406 -0.0351,0.32813 -0.0937,0.58594 -0.0234,0.0469 -0.0351,0.11719 -0.0351,0.14062 0,0.082 0.0469,0.12891 0.14062,0.12891 0.0937,0 0.10547,-0.0469 0.15235,-0.24609 l 0.6914,-2.77735 c 0,-0.0469 -0.0351,-0.11718 -0.11718,-0.11718 -0.10547,0 -0.11719,0.0469 -0.17579,0.24609 -0.24609,0.89062 -0.48046,1.14844 -1.52343,1.14844 h -1.08985 l 0.77344,-3.09375 c 0.11719,-0.42188 0.14063,-0.45703 0.62109,-0.45703 h 1.60547 c 1.5,0 1.71094,0.44531 1.71094,1.28906 0,0.0703 0,0.33984 -0.0352,0.64453 -0.0117,0.0469 -0.0351,0.21094 -0.0351,0.25781 0,0.0937 0.0586,0.12891 0.1289,0.12891 0.082,0 0.12891,-0.0469 0.15235,-0.26953 l 0.25781,-2.08594 c 0,-0.0352 0.0234,-0.15234 0.0234,-0.17578 0,-0.14063 -0.10547,-0.14063 -0.32813,-0.14063 h -5.66015 c -0.23438,0 -0.35157,0 -0.35157,0.22266 0,0.12891 0.082,0.12891 0.29297,0.12891 0.73828,0 0.73828,0.082 0.73828,0.21093 0,0.0586 -0.0117,0.10547 -0.0469,0.2461 l -1.61719,6.45703 c -0.10547,0.41015 -0.1289,0.52734 -0.96094,0.52734 -0.23437,0 -0.35156,0 -0.35156,0.22266 0,0.1289 0.10547,0.1289 0.17578,0.1289 0.23438,0 0.46875,-0.0234 0.69141,-0.0234 h 1.55859 c 0.25782,0 0.55078,0.0234 0.8086,0.0234 0.11718,0 0.25781,0 0.25781,-0.21093 0,-0.14063 -0.0703,-0.14063 -0.33984,-0.14063 -0.9375,0 -0.96094,-0.082 -0.96094,-0.25781 0,-0.0586 0.0234,-0.15234 0.0469,-0.23438 z m 0,0"
         style="fill:#000000;fill-opacity:1;fill-rule:nonzero;stroke:none" />
      <path
         id="path24"
         d="m 279.76071,126.62769 c 0.11719,-0.44531 0.16406,-0.46875 0.62109,-0.46875 h 1.5586 c 1.34765,0 1.34765,1.14844 1.34765,1.2539 0,0.97266 -0.96093,2.20313 -2.54296,2.20313 h -1.72266 z m 2.02734,3.08203 c 1.30079,-0.24609 2.48438,-1.14844 2.48438,-2.25 0,-0.92578 -0.83203,-1.65234 -2.17969,-1.65234 h -3.83203 c -0.23437,0 -0.33984,0 -0.33984,0.23437 0,0.11719 0.10547,0.11719 0.29297,0.11719 0.72656,0 0.72656,0.0937 0.72656,0.22265 0,0.0234 0,0.0937 -0.0469,0.28125 l -1.61718,6.4336 c -0.10547,0.41015 -0.12891,0.52734 -0.96094,0.52734 -0.23438,0 -0.35156,0 -0.35156,0.22266 0,0.1289 0.0703,0.1289 0.30468,0.1289 h 4.10157 c 1.82812,0 3.24609,-1.38281 3.24609,-2.58984 0,-0.98437 -0.86719,-1.58203 -1.82813,-1.67578 z m -1.69921,3.91406 h -1.61719 c -0.16406,0 -0.1875,0 -0.25781,-0.0117 -0.12891,-0.0117 -0.15235,-0.0352 -0.15235,-0.1289 0,-0.082 0.0352,-0.15235 0.0586,-0.25782 l 0.83203,-3.375 h 2.25 c 1.40625,0 1.40625,1.3125 1.40625,1.40625 0,1.14844 -1.04297,2.36719 -2.51953,2.36719 z m 13.72265,-7.95703 c 0,-0.10547 -0.082,-0.10547 -0.10547,-0.10547 -0.0234,0 -0.0703,0 -0.17578,0.11719 l -0.82031,1.00781 c -0.42188,-0.71484 -1.07813,-1.125 -1.96875,-1.125 -2.58984,0 -5.26172,2.61328 -5.26172,5.42578 0,1.99219 1.39453,3.23438 3.14063,3.23438 0.96093,0 1.79296,-0.39844 2.48437,-0.98438 1.04297,-0.8789 1.35938,-2.03906 1.35938,-2.13281 0,-0.10547 -0.0937,-0.10547 -0.14063,-0.10547 -0.10547,0 -0.11719,0.0703 -0.14062,0.11719 -0.55079,1.86328 -2.15625,2.76562 -3.35157,2.76562 -1.27734,0 -2.36718,-0.82031 -2.36718,-2.50781 0,-0.38672 0.11718,-2.46094 1.46484,-4.03125 0.65625,-0.76172 1.78125,-1.4414 2.91797,-1.4414 1.3125,0 1.89844,1.08984 1.89844,2.30859 0,0.31641 -0.0352,0.57422 -0.0352,0.62109 0,0.11719 0.11719,0.11719 0.15234,0.11719 0.14063,0 0.15235,-0.0117 0.19922,-0.23437 z m 0,0"
         style="fill:#000000;fill-opacity:1;fill-rule:nonzero;stroke:none" />
      <path
         id="path25"
         d="m -28.442414,148.54175 c -0.410156,0.70313 -0.820313,0.9375 -1.394531,0.97266 -0.128907,0.0117 -0.222657,0.0117 -0.222657,0.23437 0,0.0703 0.05859,0.11719 0.140625,0.11719 0.210938,0 0.75,-0.0234 0.972657,-0.0234 0.339843,0 0.726562,0.0234 1.054687,0.0234 0.07031,0 0.222656,0 0.222656,-0.22266 0,-0.11718 -0.09375,-0.1289 -0.175781,-0.1289 -0.269531,-0.0234 -0.492187,-0.11719 -0.492187,-0.39844 0,-0.17578 0.07031,-0.30469 0.222656,-0.5625 l 0.902344,-1.51172 h 3.058593 c 0.01172,0.10547 0.01172,0.21094 0.02344,0.31641 0.03516,0.30468 0.175781,1.54687 0.175781,1.78125 0,0.35156 -0.609375,0.375 -0.796875,0.375 -0.140625,0 -0.269531,0 -0.269531,0.22265 0,0.12891 0.105469,0.12891 0.175781,0.12891 0.210938,0 0.445313,-0.0234 0.65625,-0.0234 h 0.679688 c 0.726562,0 1.253906,0.0234 1.265625,0.0234 0.08203,0 0.210937,0 0.210937,-0.22266 0,-0.1289 -0.105469,-0.1289 -0.28125,-0.1289 -0.65625,0 -0.667969,-0.10547 -0.714844,-0.45703 l -0.726562,-7.46485 c -0.02344,-0.23437 -0.07031,-0.25781 -0.199219,-0.25781 -0.117187,0 -0.1875,0.0234 -0.304687,0.19922 z m 1.441406,-1.83984 2.402344,-4.01953 0.410156,4.01953 z m 9.676758,-4.1836 c 0.117188,-0.44531 0.164063,-0.46875 0.621094,-0.46875 h 1.558594 c 1.347656,0 1.347656,1.14844 1.347656,1.25391 0,0.97266 -0.960938,2.20312 -2.542969,2.20312 h -1.722656 z m 2.027344,3.08203 c 1.300781,-0.24609 2.484375,-1.14843 2.484375,-2.25 0,-0.92578 -0.832031,-1.65234 -2.179688,-1.65234 h -3.832031 c -0.234375,0 -0.339844,0 -0.339844,0.23438 0,0.11718 0.105469,0.11718 0.292969,0.11718 0.726563,0 0.726563,0.0937 0.726563,0.22266 0,0.0234 0,0.0937 -0.04687,0.28125 l -1.617188,6.43359 c -0.105469,0.41016 -0.128906,0.52735 -0.960937,0.52735 -0.234375,0 -0.351563,0 -0.351563,0.22265 0,0.12891 0.07031,0.12891 0.304688,0.12891 h 4.101562 c 1.828125,0 3.246094,-1.38281 3.246094,-2.58984 0,-0.98438 -0.867188,-1.58204 -1.828125,-1.67579 z m -1.699219,3.91407 h -1.617187 c -0.164063,0 -0.1875,0 -0.257813,-0.0117 -0.128906,-0.0117 -0.152344,-0.0352 -0.152344,-0.12891 0,-0.082 0.03516,-0.15234 0.05859,-0.25781 l 0.832031,-3.375 h 2.25 c 1.40625,0 1.40625,1.3125 1.40625,1.40625 0,1.14844 -1.042968,2.36719 -2.519531,2.36719 z m 13.7226563,-7.95703 c 0,-0.10547 -0.082031,-0.10547 -0.1054688,-0.10547 -0.023437,0 -0.070312,0 -0.1757812,0.11718 l -0.8203125,1.00782 c -0.421875,-0.71485 -1.078125,-1.125 -1.96875,-1.125 -2.5898438,0 -5.2617188,2.61328 -5.2617188,5.42578 0,1.99219 1.394531,3.23437 3.140625,3.23437 0.9609375,0 1.7929688,-0.39843 2.484375,-0.98437 1.0429688,-0.87891 1.359375,-2.03906 1.359375,-2.13281 0,-0.10547 -0.09375,-0.10547 -0.140625,-0.10547 -0.1054687,0 -0.1171875,0.0703 -0.140625,0.11718 -0.5507812,1.86329 -2.15625,2.76563 -3.3515625,2.76563 -1.2773437,0 -2.3671875,-0.82031 -2.3671875,-2.50781 0,-0.38672 0.117188,-2.46094 1.4648438,-4.03125 0.65625,-0.76172 1.78125,-1.44141 2.9179687,-1.44141 1.3125,0 1.8984375,1.08984 1.8984375,2.30859 0,0.31641 -0.035156,0.57422 -0.035156,0.6211 0,0.11719 0.1171875,0.11719 0.1523437,0.11719 0.140625,0 0.1523438,-0.0117 0.1992188,-0.23438 z m 0,0"
         style="fill:#000000;fill-opacity:1;fill-rule:nonzero;stroke:none" />
      <path
         id="path26"
         d="m 105.10739,142.51831 c 0.11719,-0.44531 0.16406,-0.46875 0.62109,-0.46875 h 1.5586 c 1.34765,0 1.34765,1.14844 1.34765,1.25391 0,0.97266 -0.96093,2.20312 -2.54296,2.20312 h -1.72266 z m 2.02734,3.08203 c 1.30079,-0.24609 2.48438,-1.14843 2.48438,-2.25 0,-0.92578 -0.83203,-1.65234 -2.17969,-1.65234 h -3.83203 c -0.23437,0 -0.33984,0 -0.33984,0.23438 0,0.11718 0.10547,0.11718 0.29297,0.11718 0.72656,0 0.72656,0.0937 0.72656,0.22266 0,0.0234 0,0.0937 -0.0469,0.28125 l -1.61718,6.43359 c -0.10547,0.41016 -0.12891,0.52735 -0.96094,0.52735 -0.23438,0 -0.35156,0 -0.35156,0.22265 0,0.12891 0.0703,0.12891 0.30468,0.12891 h 4.10157 c 1.82812,0 3.24609,-1.38281 3.24609,-2.58984 0,-0.98438 -0.86719,-1.58204 -1.82813,-1.67579 z m -1.69921,3.91407 h -1.61719 c -0.16406,0 -0.1875,0 -0.25781,-0.0117 -0.12891,-0.0117 -0.15235,-0.0352 -0.15235,-0.12891 0,-0.082 0.0352,-0.15234 0.0586,-0.25781 l 0.83203,-3.375 h 2.25 c 1.40625,0 1.40625,1.3125 1.40625,1.40625 0,1.14844 -1.04297,2.36719 -2.51953,2.36719 z m 0,0"
         style="fill:#000000;fill-opacity:1;fill-rule:nonzero;stroke:none" />
      <path
         id="path27"
         d="m 125.69138,147.08863 c 0.0117,-0.0352 0.0469,-0.11719 0.0469,-0.16407 0,-0.0586 -0.0469,-0.11718 -0.11719,-0.11718 -0.0469,0 -0.0703,0.0117 -0.10547,0.0469 -0.0234,0.0117 -0.0234,0.0352 -0.14062,0.26953 -0.70313,1.67578 -1.21875,2.39063 -3.12891,2.39063 H 120.5 c -0.16406,0 -0.1875,0 -0.25781,-0.0117 -0.12891,-0.0117 -0.14063,-0.0352 -0.14063,-0.12891 0,-0.082 0.0234,-0.15234 0.0469,-0.25781 l 0.82031,-3.30469 h 1.18359 c 0.9375,0 1.00782,0.21094 1.00782,0.5625 0,0.11719 0,0.23438 -0.082,0.58594 -0.0352,0.0469 -0.0469,0.0937 -0.0469,0.12891 0,0.082 0.0703,0.1289 0.14062,0.1289 0.10547,0 0.11719,-0.0937 0.16407,-0.25781 l 0.67968,-2.77734 c 0,-0.0586 -0.0469,-0.11719 -0.11718,-0.11719 -0.10547,0 -0.11719,0.0469 -0.16407,0.22265 -0.24609,0.91407 -0.48046,1.1836 -1.54687,1.1836 h -1.13672 l 0.73828,-2.94141 c 0.11719,-0.42187 0.14063,-0.45703 0.6211,-0.45703 h 1.71093 c 1.47657,0 1.76953,0.39844 1.76953,1.30078 0,0.0117 0,0.35156 -0.0469,0.73828 -0.0117,0.0469 -0.0234,0.12891 -0.0234,0.15235 0,0.0937 0.0586,0.1289 0.12891,0.1289 0.082,0 0.14062,-0.0469 0.16406,-0.26953 l 0.24609,-2.08594 c 0,-0.0351 0.0234,-0.15234 0.0234,-0.17578 0,-0.14062 -0.10547,-0.14062 -0.3164,-0.14062 h -5.83594 c -0.23438,0 -0.35156,0 -0.35156,0.22265 0,0.12891 0.082,0.12891 0.29296,0.12891 0.73829,0 0.73829,0.082 0.73829,0.21094 0,0.0586 -0.0117,0.10547 -0.0469,0.24609 l -1.61719,6.45703 c -0.10547,0.41016 -0.1289,0.52735 -0.96093,0.52735 -0.23438,0 -0.35157,0 -0.35157,0.22265 0,0.12891 0.0703,0.12891 0.30469,0.12891 h 6 c 0.26953,0 0.28125,-0.0117 0.36328,-0.19922 z m 0,0"
         style="fill:#000000;fill-opacity:1;fill-rule:nonzero;stroke:none" />
      <path
         id="path28"
         d="m 135.77829,148.98706 c -0.10547,0.41016 -0.12891,0.52735 -0.96094,0.52735 -0.23437,0 -0.35156,0 -0.35156,0.22265 0,0.12891 0.0703,0.12891 0.30469,0.12891 h 3.79687 c 2.41406,0 4.76953,-2.49609 4.76953,-5.16797 0,-1.72266 -1.03125,-3 -2.74218,-3 h -3.83204 c -0.23437,0 -0.33984,0 -0.33984,0.23438 0,0.11718 0.10547,0.11718 0.29297,0.11718 0.72656,0 0.72656,0.0937 0.72656,0.22266 0,0.0234 0,0.0937 -0.0469,0.28125 z m 2.51953,-6.46875 c 0.11719,-0.44531 0.16406,-0.46875 0.62109,-0.46875 h 1.32422 c 1.11328,0 2.14453,0.60938 2.14453,2.26172 0,0.59766 -0.23437,2.67188 -1.39453,3.98438 -0.33984,0.39843 -1.24218,1.21875 -2.625,1.21875 h -1.35937 c -0.16406,0 -0.1875,0 -0.25781,-0.0117 -0.12891,-0.0117 -0.14063,-0.0352 -0.14063,-0.12891 0,-0.082 0.0234,-0.15234 0.0469,-0.25781 z m 0,0"
         style="fill:#000000;fill-opacity:1;fill-rule:nonzero;stroke:none" />
      <path
         id="path29"
         d="m 154.64841,145.96363 h 1.14843 c 0.90235,0 0.98438,0.21093 0.98438,0.55078 0,0.16406 -0.0352,0.32812 -0.0937,0.58593 -0.0234,0.0469 -0.0352,0.11719 -0.0352,0.14063 0,0.082 0.0469,0.12891 0.14063,0.12891 0.0937,0 0.10547,-0.0469 0.15234,-0.2461 l 0.69141,-2.77734 c 0,-0.0469 -0.0352,-0.11719 -0.11719,-0.11719 -0.10547,0 -0.11719,0.0469 -0.17578,0.24609 -0.24609,0.89063 -0.48047,1.14844 -1.52344,1.14844 h -1.08984 l 0.77344,-3.09375 c 0.11718,-0.42187 0.14062,-0.45703 0.62109,-0.45703 h 1.60547 c 1.5,0 1.71094,0.44531 1.71094,1.28906 0,0.0703 0,0.33985 -0.0352,0.64453 -0.0117,0.0469 -0.0352,0.21094 -0.0352,0.25782 0,0.0937 0.0586,0.1289 0.12891,0.1289 0.082,0 0.12891,-0.0469 0.15234,-0.26953 l 0.25782,-2.08594 c 0,-0.0351 0.0234,-0.15234 0.0234,-0.17578 0,-0.14062 -0.10547,-0.14062 -0.32812,-0.14062 h -5.66016 c -0.23437,0 -0.35156,0 -0.35156,0.22265 0,0.12891 0.082,0.12891 0.29297,0.12891 0.73828,0 0.73828,0.082 0.73828,0.21094 0,0.0586 -0.0117,0.10547 -0.0469,0.24609 l -1.61718,6.45703 c -0.10547,0.41016 -0.12891,0.52735 -0.96094,0.52735 -0.23438,0 -0.35156,0 -0.35156,0.22265 0,0.12891 0.10547,0.12891 0.17578,0.12891 0.23437,0 0.46875,-0.0234 0.6914,-0.0234 h 1.5586 c 0.25781,0 0.55078,0.0234 0.80859,0.0234 0.11719,0 0.25781,0 0.25781,-0.21094 0,-0.14062 -0.0703,-0.14062 -0.33984,-0.14062 -0.9375,0 -0.96094,-0.082 -0.96094,-0.25782 0,-0.0586 0.0234,-0.15234 0.0469,-0.23437 z m 0,0"
         style="fill:#000000;fill-opacity:1;fill-rule:nonzero;stroke:none" />
      <path
         id="path30"
         d="m 20.055633,188.15405 c 0,-0.26953 0,-0.28125 -0.246094,-0.28125 -0.28125,0.31641 -0.878906,0.76172 -2.109375,0.76172 v 0.35157 c 0.269531,0 0.867188,0 1.523438,-0.31641 v 6.22266 c 0,0.43359 -0.03516,0.57421 -1.078125,0.57421 h -0.375 v 0.35157 c 0.316406,-0.0234 1.476562,-0.0234 1.875,-0.0234 0.398437,0 1.546875,0 1.863281,0.0234 v -0.35157 h -0.363281 c -1.054688,0 -1.089844,-0.14062 -1.089844,-0.57421 z m 4.611328,3.375 c -0.210938,0.0117 -0.257813,0.0234 -0.257813,0.12891 0,0.11719 0.05859,0.11719 0.28125,0.11719 h 0.550782 c 1.007812,0 1.464843,0.84375 1.464843,1.99219 0,1.55859 -0.808593,1.98046 -1.394531,1.98046 -0.574219,0 -1.558594,-0.28125 -1.898437,-1.0664 0.375,0.0586 0.726562,-0.15235 0.726562,-0.58594 0,-0.33984 -0.257812,-0.58594 -0.585937,-0.58594 -0.292969,0 -0.597657,0.16407 -0.597657,0.6211 0,1.0664 1.066407,1.93359 2.390625,1.93359 1.417969,0 2.472657,-1.07812 2.472657,-2.28516 0,-1.10156 -0.890625,-1.96875 -2.027344,-2.16796 1.03125,-0.30469 1.699219,-1.17188 1.699219,-2.10938 0,-0.9375 -0.972657,-1.62891 -2.132813,-1.62891 -1.195312,0 -2.085937,0.72657 -2.085937,1.59375 0,0.48047 0.375,0.57422 0.550781,0.57422 0.257812,0 0.539062,-0.17578 0.539062,-0.53906 0,-0.375 -0.28125,-0.53906 -0.550781,-0.53906 -0.07031,0 -0.09375,0 -0.128906,0.0117 0.457031,-0.82032 1.582031,-0.82032 1.640625,-0.82032 0.386719,0 1.171875,0.17579 1.171875,1.34766 0,0.23438 -0.03516,0.90234 -0.386719,1.41797 -0.351562,0.52734 -0.761719,0.5625 -1.089844,0.57422 z m 0,0"
         style="fill:#000000;fill-opacity:1;fill-rule:nonzero;stroke:none" />
      <path
         id="path31"
         d="m 201.43552,193.81421 h -0.26954 c -0.0351,0.19922 -0.1289,0.85547 -0.24609,1.04297 -0.082,0.11719 -0.76172,0.11719 -1.125,0.11719 h -2.21484 c 0.32812,-0.28125 1.05468,-1.04297 1.37109,-1.33594 1.81641,-1.66406 2.48438,-2.28516 2.48438,-3.46875 0,-1.38281 -1.08985,-2.29688 -2.47266,-2.29688 -1.39453,0 -2.20313,1.1836 -2.20313,2.20313 0,0.60937 0.52735,0.60937 0.5625,0.60937 0.2461,0 0.5625,-0.17578 0.5625,-0.5625 0,-0.32812 -0.23437,-0.55078 -0.5625,-0.55078 -0.10546,0 -0.1289,0 -0.16406,0.0117 0.22266,-0.82031 0.86719,-1.37109 1.64063,-1.37109 1.01953,0 1.64062,0.85547 1.64062,1.95703 0,1.00781 -0.58594,1.89844 -1.26562,2.66016 l -2.41407,2.70703 v 0.28125 h 4.35938 z m 5.94726,-1.81641 c 0,-0.99609 -0.0586,-1.96875 -0.49219,-2.87109 -0.49218,-0.99609 -1.34765,-1.25391 -1.93359,-1.25391 -0.69141,0 -1.54687,0.33985 -1.98047,1.33594 -0.33984,0.75 -0.45703,1.48828 -0.45703,2.78906 0,1.16016 0.082,2.02735 0.51563,2.8711 0.45703,0.91406 1.28906,1.19531 1.91015,1.19531 1.04297,0 1.64063,-0.62109 1.98047,-1.3125 0.43359,-0.89062 0.45703,-2.0625 0.45703,-2.75391 z m -2.4375,3.83204 c -0.38672,0 -1.16015,-0.21094 -1.38281,-1.52344 -0.14063,-0.71485 -0.14063,-1.61719 -0.14063,-2.46094 0,-0.97266 0,-1.86328 0.19922,-2.56641 0.19922,-0.79687 0.8086,-1.17187 1.32422,-1.17187 0.45703,0 1.14844,0.28125 1.3711,1.30078 0.15234,0.67969 0.15234,1.62891 0.15234,2.4375 0,0.80859 0,1.71094 -0.12891,2.4375 -0.22265,1.32422 -0.97265,1.54688 -1.39453,1.54688 z m 6.38086,-7.67579 c 0,-0.26953 0,-0.28125 -0.24609,-0.28125 -0.28125,0.31641 -0.87891,0.76172 -2.10938,0.76172 v 0.35157 c 0.26953,0 0.86719,0 1.52344,-0.31641 v 6.22266 c 0,0.43359 -0.0352,0.57421 -1.07813,0.57421 h -0.375 v 0.35157 c 0.31641,-0.0234 1.47657,-0.0234 1.875,-0.0234 0.39844,0 1.54688,0 1.86329,0.0234 v -0.35157 h -0.36329 c -1.05468,0 -1.08984,-0.14062 -1.08984,-0.57421 z m 6.7207,-0.11718 c 0,-0.22266 0,-0.29297 -0.16406,-0.29297 -0.0937,0 -0.1289,0 -0.22265,0.15234 l -3.59766,5.57813 v 0.35156 h 3.14062 v 1.07812 c 0,0.44532 -0.0234,0.5625 -0.90234,0.5625 h -0.23437 v 0.35157 c 0.26953,-0.0234 1.21875,-0.0234 1.55859,-0.0234 0.32812,0 1.28906,0 1.55859,0.0234 v -0.35157 h -0.23437 c -0.86719,0 -0.90235,-0.11718 -0.90235,-0.5625 v -1.07812 h 1.20704 v -0.35156 h -1.20704 z m -0.78515,0.9375 v 4.5 h -2.90625 z m 0,0"
         style="fill:#000000;fill-opacity:1;fill-rule:nonzero;stroke:none" />
      <path
         id="path32"
         d="m 68.890594,204.04468 c 0,-0.26953 0,-0.28125 -0.246094,-0.28125 -0.28125,0.31641 -0.878906,0.76172 -2.109375,0.76172 v 0.35156 c 0.269531,0 0.867188,0 1.523438,-0.31641 v 6.22266 c 0,0.43359 -0.03516,0.57422 -1.078125,0.57422 h -0.375 v 0.35156 c 0.316406,-0.0234 1.476562,-0.0234 1.875,-0.0234 0.398437,0 1.546875,0 1.863281,0.0234 v -0.35156 h -0.363281 c -1.054688,0 -1.089844,-0.14063 -1.089844,-0.57422 z m 0,0"
         style="fill:#000000;fill-opacity:1;fill-rule:nonzero;stroke:none" />
      <path
         id="path33"
         d="m 49.581023,299.98316 c -0.05859,0.19922 -0.05859,0.22265 -0.222656,0.44531 -0.269531,0.33984 -0.796875,0.85547 -1.359375,0.85547 -0.480469,0 -0.761719,-0.44531 -0.761719,-1.14844 0,-0.65625 0.375,-1.99219 0.597657,-2.49609 0.410156,-0.84375 0.972656,-1.26563 1.441406,-1.26563 0.785156,0 0.9375,0.97266 0.9375,1.06641 0,0.0117 -0.03516,0.17578 -0.04687,0.19922 z m 0.761719,-3.07032 c -0.128906,-0.30468 -0.445312,-0.78515 -1.066406,-0.78515 -1.359375,0 -2.8125,1.74609 -2.8125,3.51562 0,1.1836 0.691406,1.875 1.5,1.875 0.65625,0 1.21875,-0.51562 1.558594,-0.90234 0.117187,0.70312 0.679687,0.90234 1.042968,0.90234 0.351563,0 0.644532,-0.21093 0.855469,-0.64453 0.1875,-0.41015 0.363281,-1.13672 0.363281,-1.18359 0,-0.0586 -0.04687,-0.10547 -0.117187,-0.10547 -0.117188,0 -0.128906,0.0586 -0.175781,0.23437 -0.175782,0.71485 -0.398438,1.46485 -0.890625,1.46485 -0.351563,0 -0.375,-0.31641 -0.375,-0.55078 0,-0.28125 0.03516,-0.41016 0.140625,-0.87891 0.08203,-0.29297 0.152343,-0.5625 0.246093,-0.90234 0.433594,-1.79297 0.550782,-2.22657 0.550782,-2.29688 0,-0.16406 -0.140625,-0.29297 -0.316407,-0.29297 -0.375,0 -0.480468,0.41016 -0.503906,0.55078 z m 0,0"
         style="fill:#000000;fill-opacity:1;fill-rule:nonzero;stroke:none" />
      <path
         id="path34"
         d="m 59.55368,298.6355 h 3.304687 c 0.164063,0 0.375,0 0.375,-0.21094 0,-0.22265 -0.199219,-0.22265 -0.375,-0.22265 H 59.55368 v -3.30469 c 0,-0.16406 0,-0.38672 -0.210938,-0.38672 -0.234375,0 -0.234375,0.21094 -0.234375,0.38672 v 3.30469 h -3.292969 c -0.175781,0 -0.386718,0 -0.386718,0.21093 0,0.22266 0.199218,0.22266 0.386718,0.22266 h 3.292969 v 3.30469 c 0,0.16406 0,0.38672 0.222656,0.38672 0.222657,0 0.222657,-0.21094 0.222657,-0.38672 z m 0,0"
         style="fill:#000000;fill-opacity:1;fill-rule:nonzero;stroke:none" />
      <path
         id="path35"
         d="m 69.312469,293.40894 c 0.01172,-0.0469 0.03516,-0.12891 0.03516,-0.1875 0,-0.11719 -0.128906,-0.11719 -0.152344,-0.11719 -0.01172,0 -0.433593,0.0352 -0.65625,0.0586 -0.199218,0.0117 -0.375,0.0352 -0.597656,0.0469 -0.28125,0.0234 -0.363281,0.0352 -0.363281,0.25781 0,0.11719 0.117187,0.11719 0.234375,0.11719 0.609375,0 0.609375,0.10547 0.609375,0.22266 0,0.082 -0.09375,0.43359 -0.140625,0.64453 l -0.292969,1.14843 c -0.117187,0.48047 -0.796875,3.19922 -0.84375,3.41016 -0.05859,0.29297 -0.05859,0.50391 -0.05859,0.65625 0,1.21875 0.679688,1.85156 1.453125,1.85156 1.394532,0 2.824219,-1.78125 2.824219,-3.51562 0,-1.10156 -0.621094,-1.875 -1.511719,-1.875 -0.632812,0 -1.183593,0.51562 -1.417968,0.75 z m -0.761719,7.875 c -0.375,0 -0.796875,-0.29297 -0.796875,-1.21875 0,-0.39844 0.03516,-0.6211 0.246094,-1.46485 0.04687,-0.15234 0.234375,-0.91406 0.28125,-1.0664 0.02344,-0.10547 0.726562,-1.16016 1.535156,-1.16016 0.527344,0 0.773438,0.51563 0.773438,1.13672 0,0.57422 -0.339844,1.93359 -0.632813,2.55469 -0.304687,0.64453 -0.855469,1.21875 -1.40625,1.21875 z m 0,0"
         style="fill:#000000;fill-opacity:1;fill-rule:nonzero;stroke:none" />
      <path
         id="path36"
         d="m 78.948211,298.6355 h 3.304687 c 0.164063,0 0.375,0 0.375,-0.21094 0,-0.22265 -0.199218,-0.22265 -0.375,-0.22265 h -3.304687 v -3.30469 c 0,-0.16406 0,-0.38672 -0.210938,-0.38672 -0.234375,0 -0.234375,0.21094 -0.234375,0.38672 v 3.30469 H 75.20993 c -0.175782,0 -0.386719,0 -0.386719,0.21093 0,0.22266 0.199219,0.22266 0.386719,0.22266 h 3.292968 v 3.30469 c 0,0.16406 0,0.38672 0.222657,0.38672 0.222656,0 0.222656,-0.21094 0.222656,-0.38672 z m 12.251953,0.76172 h -0.269531 c -0.03516,0.19922 -0.128906,0.85547 -0.246094,1.04297 -0.08203,0.11719 -0.761719,0.11719 -1.125,0.11719 h -2.214844 c 0.328125,-0.28125 1.054688,-1.04297 1.371094,-1.33594 1.816406,-1.66406 2.484375,-2.28516 2.484375,-3.46875 0,-1.38281 -1.089844,-2.29688 -2.472656,-2.29688 -1.394531,0 -2.203125,1.1836 -2.203125,2.20313 0,0.60937 0.527344,0.60937 0.5625,0.60937 0.246094,0 0.5625,-0.17578 0.5625,-0.5625 0,-0.32812 -0.234375,-0.55078 -0.5625,-0.55078 -0.105469,0 -0.128906,0 -0.164063,0.0117 0.222657,-0.82031 0.867188,-1.37109 1.640625,-1.37109 1.019532,0 1.640625,0.85547 1.640625,1.95703 0,1.00781 -0.585937,1.89844 -1.265625,2.66015 l -2.414062,2.70704 v 0.28125 h 4.359375 z m 5.947266,-1.81641 c 0,-0.99609 -0.05859,-1.96875 -0.492188,-2.87109 -0.492187,-0.99609 -1.347656,-1.25391 -1.933594,-1.25391 -0.691406,0 -1.546875,0.33985 -1.980468,1.33594 -0.339844,0.75 -0.457032,1.48828 -0.457032,2.78906 0,1.16016 0.08203,2.02735 0.515625,2.8711 0.457032,0.91406 1.289063,1.19531 1.910157,1.19531 1.042968,0 1.640625,-0.62109 1.980468,-1.3125 0.433594,-0.89063 0.457032,-2.0625 0.457032,-2.75391 z m -2.4375,3.83203 c -0.386719,0 -1.160157,-0.21093 -1.382813,-1.52343 -0.140625,-0.71485 -0.140625,-1.61719 -0.140625,-2.46094 0,-0.97266 0,-1.86328 0.199219,-2.56641 0.199219,-0.79687 0.808594,-1.17187 1.324219,-1.17187 0.457031,0 1.148437,0.28125 1.371093,1.30078 0.152344,0.67969 0.152344,1.62891 0.152344,2.4375 0,0.80859 0,1.71094 -0.128906,2.4375 -0.222656,1.32422 -0.972656,1.54687 -1.394531,1.54687 z m 6.38086,-7.67578 c 0,-0.26953 0,-0.28125 -0.24609,-0.28125 -0.28125,0.31641 -0.878911,0.76172 -2.10938,0.76172 v 0.35156 c 0.269532,0 0.867188,0 1.52344,-0.3164 v 6.22265 c 0,0.4336 -0.0352,0.57422 -1.078127,0.57422 h -0.375 v 0.35157 c 0.316406,-0.0234 1.476567,-0.0234 1.874997,-0.0234 0.39844,0 1.54688,0 1.86328,0.0234 v -0.35157 h -0.36328 c -1.05468,0 -1.08984,-0.14062 -1.08984,-0.57422 z m 6.7207,-0.11718 c 0,-0.22266 0,-0.29297 -0.16406,-0.29297 -0.0937,0 -0.12891,0 -0.22266,0.15234 l -3.59765,5.57813 v 0.35156 h 3.14062 v 1.07812 c 0,0.44532 -0.0234,0.5625 -0.90234,0.5625 h -0.23438 v 0.35157 c 0.26953,-0.0234 1.21875,-0.0234 1.5586,-0.0234 0.32812,0 1.28906,0 1.55859,0.0234 v -0.35157 h -0.23437 c -0.86719,0 -0.90235,-0.11718 -0.90235,-0.5625 v -1.07812 h 1.20703 v -0.35156 h -1.20703 z m -0.78515,0.9375 v 4.5 h -2.90625 z m 13.72265,2.97656 c 0.16406,0 0.375,0 0.375,-0.22266 0,-0.22265 -0.19922,-0.22265 -0.375,-0.22265 h -7.04297 c -0.17578,0 -0.38672,0 -0.38672,0.21093 0,0.23438 0.19922,0.23438 0.38672,0.23438 z m 0,2.21484 c 0.16406,0 0.375,0 0.375,-0.21094 0,-0.23437 -0.19922,-0.23437 -0.375,-0.23437 h -7.04297 c -0.17578,0 -0.38672,0 -0.38672,0.22266 0,0.22265 0.19922,0.22265 0.38672,0.22265 z m 0,0"
         style="fill:#000000;fill-opacity:1;fill-rule:nonzero;stroke:none" />
      <path
         id="path37"
         d="m 128.69723,299.98316 c -0.0586,0.19922 -0.0586,0.22265 -0.22265,0.44531 -0.26953,0.33984 -0.79688,0.85547 -1.35938,0.85547 -0.48047,0 -0.76172,-0.44531 -0.76172,-1.14844 0,-0.65625 0.375,-1.99219 0.59766,-2.49609 0.41016,-0.84375 0.97266,-1.26563 1.44141,-1.26563 0.78515,0 0.9375,0.97266 0.9375,1.06641 0,0.0117 -0.0352,0.17578 -0.0469,0.19922 z m 0.76172,-3.07032 c -0.1289,-0.30468 -0.44531,-0.78515 -1.0664,-0.78515 -1.35938,0 -2.8125,1.74609 -2.8125,3.51562 0,1.1836 0.6914,1.875 1.5,1.875 0.65625,0 1.21875,-0.51562 1.55859,-0.90234 0.11719,0.70312 0.67969,0.90234 1.04297,0.90234 0.35156,0 0.64453,-0.21093 0.85547,-0.64453 0.1875,-0.41015 0.36328,-1.13672 0.36328,-1.18359 0,-0.0586 -0.0469,-0.10547 -0.11719,-0.10547 -0.11719,0 -0.1289,0.0586 -0.17578,0.23437 -0.17578,0.71485 -0.39844,1.46485 -0.89062,1.46485 -0.35157,0 -0.375,-0.31641 -0.375,-0.55078 0,-0.28125 0.0352,-0.41016 0.14062,-0.87891 0.082,-0.29297 0.15234,-0.5625 0.24609,-0.90234 0.4336,-1.79297 0.55079,-2.22657 0.55079,-2.29688 0,-0.16406 -0.14063,-0.29297 -0.31641,-0.29297 -0.375,0 -0.48047,0.41016 -0.50391,0.55078 z m 4.55274,-3.5039 c 0.0117,-0.0469 0.0352,-0.12891 0.0352,-0.1875 0,-0.11719 -0.1289,-0.11719 -0.15234,-0.11719 -0.0117,0 -0.43359,0.0352 -0.65625,0.0586 -0.19922,0.0117 -0.375,0.0352 -0.59766,0.0469 -0.28125,0.0234 -0.36328,0.0352 -0.36328,0.25781 0,0.11719 0.11719,0.11719 0.23438,0.11719 0.60937,0 0.60937,0.10547 0.60937,0.22266 0,0.082 -0.0937,0.43359 -0.14062,0.64453 l -0.29297,1.14843 c -0.11719,0.48047 -0.79688,3.19922 -0.84375,3.41016 -0.0586,0.29297 -0.0586,0.50391 -0.0586,0.65625 0,1.21875 0.67968,1.85156 1.45312,1.85156 1.39453,0 2.82422,-1.78125 2.82422,-3.51562 0,-1.10156 -0.62109,-1.875 -1.51172,-1.875 -0.63281,0 -1.18359,0.51562 -1.41797,0.75 z m -0.76172,7.875 c -0.375,0 -0.79688,-0.29297 -0.79688,-1.21875 0,-0.39844 0.0352,-0.6211 0.2461,-1.46485 0.0469,-0.15234 0.23437,-0.91406 0.28125,-1.0664 0.0234,-0.10547 0.72656,-1.16016 1.53515,-1.16016 0.52735,0 0.77344,0.51563 0.77344,1.13672 0,0.57422 -0.33984,1.93359 -0.63281,2.55469 -0.30469,0.64453 -0.85547,1.21875 -1.40625,1.21875 z m 5.17383,-0.45703 c 0,-0.35157 -0.29297,-0.58594 -0.57422,-0.58594 -0.35156,0 -0.58594,0.29297 -0.58594,0.57422 0,0.35156 0.28125,0.58594 0.57422,0.58594 0.33984,0 0.58594,-0.28125 0.58594,-0.57422 z m 0,0"
         style="fill:#000000;fill-opacity:1;fill-rule:nonzero;stroke:none" />
      <path
         id="path38"
         d="m -60.912141,341.63159 c 0.02344,-0.0703 0.328125,-0.66796 0.761719,-1.05468 0.316406,-0.28125 0.726563,-0.46875 1.183594,-0.46875 0.480469,0 0.644531,0.35156 0.644531,0.83203 0,0.67969 -0.480469,2.03906 -0.726562,2.68359 -0.105469,0.29297 -0.164063,0.44531 -0.164063,0.66797 0,0.52734 0.375,0.96094 0.949219,0.96094 1.101562,0 1.523437,-1.75781 1.523437,-1.82813 0,-0.0586 -0.04687,-0.10547 -0.117187,-0.10547 -0.105469,0 -0.117188,0.0352 -0.175781,0.23438 -0.28125,0.98437 -0.738282,1.46484 -1.195313,1.46484 -0.128906,0 -0.316406,-0.0117 -0.316406,-0.39843 0,-0.29297 0.128906,-0.65625 0.199219,-0.82032 0.246093,-0.65625 0.75,-2.0039 0.75,-2.68359 0,-0.71484 -0.421875,-1.25391 -1.335938,-1.25391 -1.054687,0 -1.617187,0.75 -1.839844,1.05469 -0.03516,-0.67969 -0.527343,-1.05469 -1.042968,-1.05469 -0.386719,0 -0.644532,0.23438 -0.855469,0.63282 -0.210938,0.43359 -0.375,1.14843 -0.375,1.19531 0,0.0469 0.04687,0.10547 0.128906,0.10547 0.09375,0 0.105469,-0.0117 0.175781,-0.28125 0.1875,-0.72657 0.410157,-1.40625 0.890625,-1.40625 0.269532,0 0.363282,0.1875 0.363282,0.53906 0,0.26953 -0.117188,0.73828 -0.199219,1.10156 l -0.339844,1.28906 c -0.04687,0.23438 -0.175781,0.77344 -0.234375,0.98438 -0.08203,0.31641 -0.210937,0.87891 -0.210937,0.9375 0,0.16406 0.128906,0.29297 0.304687,0.29297 0.140625,0 0.316406,-0.0703 0.410156,-0.2461 0.02344,-0.0586 0.128907,-0.48046 0.1875,-0.71484 l 0.257813,-1.07812 z m 0,0"
         style="fill:#000000;fill-opacity:1;fill-rule:nonzero;stroke:none" />
      <path
         id="path39"
         d="m -43.867219,340.97534 c 0,-3.02343 1.476563,-3.5039 2.121094,-3.5039 0.433594,0 0.855469,0.1289 1.089844,0.49219 -0.140625,0 -0.597656,0 -0.597656,0.49218 0,0.25782 0.175781,0.49219 0.492187,0.49219 0.292969,0 0.492188,-0.1875 0.492188,-0.52734 0,-0.6211 -0.445313,-1.23047 -1.488282,-1.23047 -1.511718,0 -3.082031,1.53515 -3.082031,4.17187 0,3.28125 1.429688,4.01953 2.449219,4.01953 1.300781,0 2.414062,-1.125 2.414062,-2.68359 0,-1.59375 -1.113281,-2.66016 -2.308593,-2.66016 -1.066407,0 -1.453125,0.92579 -1.582032,1.26563 z m 1.476563,4.08985 c -0.75,0 -1.113281,-0.66797 -1.21875,-0.92578 -0.105469,-0.30469 -0.222656,-0.89063 -0.222656,-1.73438 0,-0.9375 0.421875,-2.12109 1.5,-2.12109 0.65625,0 1.007812,0.44531 1.183593,0.84375 0.1875,0.44531 0.1875,1.04297 0.1875,1.55859 0,0.60938 0,1.14844 -0.222656,1.60547 -0.304687,0.57422 -0.726562,0.77344 -1.207031,0.77344 z m 0,0"
         style="fill:#000000;fill-opacity:1;fill-rule:nonzero;stroke:none" />
      <path
         id="path40"
         d="m 159.14255,341.63159 c 0.0234,-0.0703 0.32812,-0.66796 0.76172,-1.05468 0.3164,-0.28125 0.72656,-0.46875 1.18359,-0.46875 0.48047,0 0.64453,0.35156 0.64453,0.83203 0,0.67969 -0.48047,2.03906 -0.72656,2.68359 -0.10547,0.29297 -0.16406,0.44531 -0.16406,0.66797 0,0.52734 0.375,0.96094 0.94921,0.96094 1.10157,0 1.52344,-1.75781 1.52344,-1.82813 0,-0.0586 -0.0469,-0.10547 -0.11719,-0.10547 -0.10546,0 -0.11718,0.0352 -0.17578,0.23438 -0.28125,0.98437 -0.73828,1.46484 -1.19531,1.46484 -0.12891,0 -0.31641,-0.0117 -0.31641,-0.39843 0,-0.29297 0.12891,-0.65625 0.19922,-0.82032 0.2461,-0.65625 0.75,-2.0039 0.75,-2.68359 0,-0.71484 -0.42187,-1.25391 -1.33593,-1.25391 -1.05469,0 -1.61719,0.75 -1.83985,1.05469 -0.0352,-0.67969 -0.52734,-1.05469 -1.04297,-1.05469 -0.38672,0 -0.64453,0.23438 -0.85547,0.63282 -0.21093,0.43359 -0.375,1.14843 -0.375,1.19531 0,0.0469 0.0469,0.10547 0.12891,0.10547 0.0937,0 0.10547,-0.0117 0.17578,-0.28125 0.1875,-0.72657 0.41016,-1.40625 0.89063,-1.40625 0.26953,0 0.36328,0.1875 0.36328,0.53906 0,0.26953 -0.11719,0.73828 -0.19922,1.10156 l -0.33984,1.28906 c -0.0469,0.23438 -0.17579,0.77344 -0.23438,0.98438 -0.082,0.31641 -0.21094,0.87891 -0.21094,0.9375 0,0.16406 0.12891,0.29297 0.30469,0.29297 0.14063,0 0.31641,-0.0703 0.41016,-0.2461 0.0234,-0.0586 0.1289,-0.48046 0.1875,-0.71484 l 0.25781,-1.07812 z m 0,0"
         style="fill:#000000;fill-opacity:1;fill-rule:nonzero;stroke:none" />
      <path
         id="path41"
         d="m 165.91891,339.16773 c 0.12891,-0.11719 0.45704,-0.375 0.58594,-0.49219 0.49219,-0.45703 0.96094,-0.89063 0.96094,-1.61719 0,-0.94922 -0.79688,-1.55859 -1.79297,-1.55859 -0.94922,0 -1.58203,0.72656 -1.58203,1.42969 0,0.39843 0.31641,0.44531 0.42187,0.44531 0.16407,0 0.41016,-0.11719 0.41016,-0.42188 0,-0.41015 -0.39844,-0.41015 -0.49219,-0.41015 0.23438,-0.58594 0.77344,-0.78516 1.16016,-0.78516 0.73828,0 1.125,0.63281 1.125,1.30078 0,0.83203 -0.58594,1.42969 -1.52344,2.40235 l -1.00781,1.03125 c -0.0937,0.0937 -0.0937,0.10546 -0.0937,0.30468 h 3.15234 l 0.22266,-1.42968 h -0.24609 c -0.0234,0.16406 -0.082,0.5625 -0.17579,0.71484 -0.0469,0.0586 -0.65625,0.0586 -0.78515,0.0586 h -1.41797 z m 0,0"
         style="fill:#000000;fill-opacity:1;fill-rule:nonzero;stroke:none" />
      <path
         id="path42"
         d="m 178.93259,342.38159 c 0.21093,0 0.42187,0 0.42187,-0.23437 0,-0.23438 -0.21094,-0.23438 -0.42187,-0.23438 h -6.46875 c -0.19922,0 -0.41016,0 -0.41016,0.23438 0,0.23437 0.21094,0.23437 0.41016,0.23437 z m 0,0"
         style="fill:#000000;fill-opacity:1;fill-rule:nonzero;stroke:none" />
      <path
         id="path43"
         d="m 186.45895,337.47144 c 0,-0.26953 0,-0.28125 -0.24609,-0.28125 -0.28125,0.3164 -0.87891,0.76172 -2.10938,0.76172 v 0.35156 c 0.26954,0 0.86719,0 1.52344,-0.31641 v 6.22266 c 0,0.43359 -0.0352,0.57422 -1.07812,0.57422 h -0.375 v 0.35156 c 0.3164,-0.0234 1.47656,-0.0234 1.875,-0.0234 0.39843,0 1.54687,0 1.86328,0.0234 v -0.35156 h -0.36328 c -1.05469,0 -1.08985,-0.14063 -1.08985,-0.57422 z m 0,0"
         style="fill:#000000;fill-opacity:1;fill-rule:nonzero;stroke:none" />
      <path
         id="path44"
         d="m 276.11618,343.13159 h -0.26953 c -0.0352,0.19922 -0.12891,0.85547 -0.2461,1.04297 -0.082,0.11719 -0.76171,0.11719 -1.125,0.11719 h -2.21484 c 0.32813,-0.28125 1.05469,-1.04297 1.37109,-1.33594 1.81641,-1.66406 2.48438,-2.28515 2.48438,-3.46875 0,-1.38281 -1.08984,-2.29687 -2.47266,-2.29687 -1.39453,0 -2.20312,1.18359 -2.20312,2.20312 0,0.60938 0.52734,0.60938 0.5625,0.60938 0.24609,0 0.5625,-0.17578 0.5625,-0.5625 0,-0.32813 -0.23438,-0.55078 -0.5625,-0.55078 -0.10547,0 -0.12891,0 -0.16406,0.0117 0.22265,-0.82032 0.86718,-1.3711 1.64062,-1.3711 1.01953,0 1.64063,0.85547 1.64063,1.95703 0,1.00782 -0.58594,1.89844 -1.26563,2.66016 l -2.41406,2.70703 v 0.28125 h 4.35937 z m 4.90137,-5.77734 c 0,-0.22266 0,-0.29297 -0.16407,-0.29297 -0.0937,0 -0.1289,0 -0.22265,0.15235 l -3.59766,5.57812 v 0.35156 h 3.14063 v 1.07813 c 0,0.44531 -0.0234,0.5625 -0.90235,0.5625 h -0.23437 v 0.35156 c 0.26953,-0.0234 1.21875,-0.0234 1.55859,-0.0234 0.32813,0 1.28906,0 1.5586,0.0234 v -0.35156 h -0.23438 c -0.86719,0 -0.90234,-0.11719 -0.90234,-0.5625 v -1.07813 h 1.20703 v -0.35156 h -1.20703 z m -0.78516,0.9375 v 4.5 h -2.90625 z m 0,0"
         style="fill:#000000;fill-opacity:1;fill-rule:nonzero;stroke:none" />
      <path
         id="path45"
         d="m 57.268523,399.82398 c 0,-0.98438 0.269532,-3.25782 2.390625,-4.76953 0.152344,-0.11719 0.164063,-0.12891 0.164063,-0.33985 0,-0.28125 -0.01172,-0.29297 -0.304688,-0.29297 h -0.1875 c -2.578125,1.38282 -3.492187,3.64453 -3.492187,5.40235 v 5.14453 c 0,0.30469 0.01172,0.3164 0.328125,0.3164 h 0.773437 c 0.316407,0 0.328125,-0.0117 0.328125,-0.3164 z m 0,5.5459 c 0,-0.30469 -0.01172,-0.31641 -0.328125,-0.31641 h -0.773437 c -0.316406,0 -0.328125,0.0117 -0.328125,0.31641 v 3.1875 c 0,0.30468 0.01172,0.3164 0.328125,0.3164 h 0.773437 c 0.316407,0 0.328125,-0.0117 0.328125,-0.3164 z m 0,3.58593 c 0,-0.30468 -0.01172,-0.3164 -0.328125,-0.3164 h -0.773437 c -0.316406,0 -0.328125,0.0117 -0.328125,0.3164 v 3.1875 c 0,0.30469 0.01172,0.31641 0.328125,0.31641 h 0.773437 c 0.316407,0 0.328125,-0.0117 0.328125,-0.31641 z m 0,3.58887 c 0,-0.30469 -0.01172,-0.31641 -0.328125,-0.31641 h -0.773437 c -0.316406,0 -0.328125,0.0117 -0.328125,0.31641 v 3.1875 c 0,0.30469 0.01172,0.31641 0.328125,0.31641 h 0.773437 c 0.316407,0 0.328125,-0.0117 0.328125,-0.31641 z m 0,3.58594 c 0,-0.30469 -0.01172,-0.31641 -0.328125,-0.31641 h -0.773437 c -0.316406,0 -0.328125,0.0117 -0.328125,0.31641 v 3.1875 c 0,0.30468 0.01172,0.3164 0.328125,0.3164 h 0.773437 c 0.316407,0 0.328125,-0.0117 0.328125,-0.3164 z m 0,3.58593 c 0,-0.30468 -0.01172,-0.3164 -0.328125,-0.3164 h -0.773437 c -0.316406,0 -0.328125,0.0117 -0.328125,0.3164 v 3.1875 c 0,0.30469 0.01172,0.31641 0.328125,0.31641 h 0.773437 c 0.316407,0 0.328125,-0.0117 0.328125,-0.31641 z m -1.429687,24.70313 c 0,0.30469 0.01172,0.31641 0.328125,0.31641 h 0.773437 c 0.316407,0 0.328125,-0.0117 0.328125,-0.31641 v -5.05078 c 0,-1.44141 -0.609375,-3.87891 -3.28125,-5.50781 2.695313,-1.64063 3.28125,-4.10157 3.28125,-5.50782 v -5.05078 c 0,-0.30469 -0.01172,-0.3164 -0.328125,-0.3164 h -0.773437 c -0.316406,0 -0.328125,0.0117 -0.328125,0.3164 v 5.0625 c 0,0.9961 -0.222656,3.49219 -2.414063,5.15625 -0.140625,0.11719 -0.152343,0.12891 -0.152343,0.33985 0,0.21093 0.01172,0.22265 0.152343,0.33984 0.304688,0.23437 1.136719,0.86719 1.710938,2.07422 0.457031,0.96094 0.703125,2.01562 0.703125,3.08203 z m 1.429687,0.40137 c 0,-0.30469 -0.01172,-0.31641 -0.328125,-0.31641 h -0.773437 c -0.316406,0 -0.328125,0.0117 -0.328125,0.31641 v 3.1875 c 0,0.30468 0.01172,0.3164 0.328125,0.3164 h 0.773437 c 0.316407,0 0.328125,-0.0117 0.328125,-0.3164 z m 0,3.58886 c 0,-0.30468 -0.01172,-0.3164 -0.328125,-0.3164 h -0.773437 c -0.316406,0 -0.328125,0.0117 -0.328125,0.3164 v 3.1875 c 0,0.30469 0.01172,0.31641 0.328125,0.31641 h 0.773437 c 0.316407,0 0.328125,-0.0117 0.328125,-0.31641 z m 0,3.58594 c 0,-0.30469 -0.01172,-0.3164 -0.328125,-0.3164 h -0.773437 c -0.316406,0 -0.328125,0.0117 -0.328125,0.3164 v 3.1875 c 0,0.30469 0.01172,0.31641 0.328125,0.31641 h 0.773437 c 0.316407,0 0.328125,-0.0117 0.328125,-0.31641 z m 0,3.58594 c 0,-0.30469 -0.01172,-0.31641 -0.328125,-0.31641 h -0.773437 c -0.316406,0 -0.328125,0.0117 -0.328125,0.31641 v 3.1875 c 0,0.30469 0.01172,0.31641 0.328125,0.31641 h 0.773437 c 0.316407,0 0.328125,-0.0117 0.328125,-0.31641 z m 0,3.58594 c 0,-0.30469 -0.01172,-0.31641 -0.328125,-0.31641 h -0.773437 c -0.316406,0 -0.328125,0.0117 -0.328125,0.31641 v 3.1875 c 0,0.30468 0.01172,0.3164 0.328125,0.3164 h 0.773437 c 0.316407,0 0.328125,-0.0117 0.328125,-0.3164 z m 2.25,14.13574 c 0.292969,0 0.304688,-0.0117 0.304688,-0.28125 0,-0.22266 -0.01172,-0.23438 -0.05859,-0.26953 -0.363281,-0.26953 -1.230469,-0.87891 -1.792969,-1.98047 -0.46875,-0.91406 -0.703125,-1.82813 -0.703125,-2.87109 v -5.14454 c 0,-0.30468 -0.01172,-0.3164 -0.328125,-0.3164 h -0.773437 c -0.316406,0 -0.328125,0.0117 -0.328125,0.3164 v 5.14454 c 0,1.76953 0.914062,4.03125 3.492187,5.40234 z m 0,0"
         style="fill:#000000;fill-opacity:1;fill-rule:nonzero;stroke:none" />
      <path
         id="path46"
         d="m 75.936492,397.92261 c -0.375,0.0703 -0.515625,0.35156 -0.515625,0.58594 0,0.28125 0.222656,0.375 0.386719,0.375 0.363281,0 0.609375,-0.30469 0.609375,-0.63282 0,-0.49218 -0.574219,-0.72656 -1.078125,-0.72656 -0.726563,0 -1.125,0.71485 -1.242188,0.94922 -0.269531,-0.90234 -1.007812,-0.94922 -1.230468,-0.94922 -1.21875,0 -1.863282,1.57031 -1.863282,1.82813 0,0.0469 0.04687,0.10547 0.128907,0.10547 0.105468,0 0.128906,-0.0703 0.152343,-0.11719 0.398438,-1.32422 1.207032,-1.57031 1.546875,-1.57031 0.539063,0 0.644532,0.49218 0.644532,0.78515 0,0.25781 -0.07031,0.53906 -0.210938,1.11328 l -0.410156,1.62891 c -0.175781,0.72656 -0.527344,1.38281 -1.160156,1.38281 -0.05859,0 -0.351563,0 -0.609375,-0.15234 0.433593,-0.0937 0.527343,-0.44531 0.527343,-0.58594 0,-0.24609 -0.175781,-0.38672 -0.398437,-0.38672 -0.292969,0 -0.597656,0.2461 -0.597656,0.63281 0,0.50391 0.5625,0.72657 1.066406,0.72657 0.574219,0 0.984375,-0.45703 1.230469,-0.9375 0.199218,0.70312 0.796875,0.9375 1.230468,0.9375 1.230469,0 1.875,-1.5586 1.875,-1.82813 0,-0.0586 -0.04687,-0.10547 -0.128906,-0.10547 -0.105469,0 -0.117187,0.0586 -0.152344,0.15235 -0.316406,1.05468 -1.019531,1.54687 -1.546875,1.54687 -0.421875,0 -0.65625,-0.3164 -0.65625,-0.80859 0,-0.25781 0.05859,-0.44531 0.246094,-1.24219 l 0.421875,-1.61719 c 0.175781,-0.72656 0.585938,-1.24218 1.125,-1.24218 0.03516,0 0.363281,0 0.609375,0.15234 z m 4.133789,6.21094 c -0.316406,0.45703 -0.785156,0.86718 -1.371093,0.86718 -0.140625,0 -0.714844,-0.0234 -0.902344,-0.57421 0.04687,0.0117 0.105469,0.0117 0.128906,0.0117 0.351563,0 0.597656,-0.3164 0.597656,-0.58593 0,-0.28125 -0.234375,-0.375 -0.410156,-0.375 -0.1875,0 -0.609375,0.14062 -0.609375,0.72656 0,0.60937 0.515625,1.03125 1.195313,1.03125 1.195312,0 2.402343,-1.10156 2.742187,-2.42578 l 1.171875,-4.66406 c 0.01172,-0.0586 0.03516,-0.12891 0.03516,-0.19922 0,-0.17578 -0.152343,-0.30469 -0.328125,-0.30469 -0.105468,0 -0.363281,0.0469 -0.457031,0.41016 l -0.878906,3.51562 c -0.05859,0.21094 -0.05859,0.23438 -0.152344,0.375 -0.246094,0.32813 -0.644531,0.73828 -1.207031,0.73828 -0.679688,0 -0.738281,-0.65625 -0.738281,-0.98437 0,-0.67969 0.328125,-1.60547 0.644531,-2.46094 0.140625,-0.35156 0.210937,-0.51563 0.210937,-0.75 0,-0.50391 -0.363281,-0.96094 -0.949218,-0.96094 -1.101563,0 -1.535157,1.73438 -1.535157,1.82813 0,0.0469 0.04687,0.10547 0.128907,0.10547 0.105468,0 0.117187,-0.0469 0.164062,-0.21094 0.292969,-1.00781 0.738281,-1.47656 1.207031,-1.47656 0.105469,0 0.316407,0 0.316407,0.38671 0,0.31641 -0.140625,0.65625 -0.316407,1.11329 -0.585937,1.57031 -0.585937,1.95703 -0.585937,2.25 0,1.13671 0.808594,1.39453 1.40625,1.39453 0.351562,0 0.785156,-0.10547 1.195312,-0.55078 l 0.01172,0.0117 c -0.175781,0.70313 -0.292969,1.17188 -0.714844,1.75782 z m 0,0"
         style="fill:#000000;fill-opacity:1;fill-rule:nonzero;stroke:none" />
    </g>
    <path
       id="path47"
       d="M 0,0 H 27.207"
       style="fill:none;stroke:#000000;stroke-width:0.478;stroke-linecap:butt;stroke-linejoin:miter;stroke-miterlimit:10;stroke-dasharray:none;stroke-opacity:1"
       transform="matrix(1.3333333,0,0,-1.3333333,358.81467,599.93067)" />
    <g
       id="g47"
       aria-label="x+y&#10;=&#10;10"
       transform="matrix(1.3333333,0,0,1.3333333,358.81467,614.85067)">
      <path
         id="path48"
         d="m 5.6614609,-4.8743281 c -0.375,0.070312 -0.515625,0.3515625 -0.515625,0.5859375 0,0.28125 0.2226563,0.375 0.3867188,0.375 0.3632812,0 0.609375,-0.3046875 0.609375,-0.6328125 0,-0.4921875 -0.5742188,-0.7265625 -1.078125,-0.7265625 -0.7265625,0 -1.125,0.7148437 -1.2421875,0.9492187 -0.2695313,-0.9023437 -1.0078125,-0.9492187 -1.2304688,-0.9492187 -1.21875,0 -1.86328121,1.5703125 -1.86328121,1.828125 0,0.046875 0.046875,0.1054687 0.12890625,0.1054687 0.10546875,0 0.12890625,-0.070312 0.15234376,-0.1171875 0.3984375,-1.3242187 1.2070312,-1.5703125 1.546875,-1.5703125 0.5390625,0 0.6445312,0.4921875 0.6445312,0.7851563 0,0.2578125 -0.070312,0.5390625 -0.2109375,1.1132812 l -0.4101562,1.6289063 c -0.1757813,0.72656248 -0.5273438,1.38281248 -1.1601563,1.38281248 -0.058594,0 -0.3515625,0 -0.60937496,-0.15234375 0.43359376,-0.09375 0.52734376,-0.4453125 0.52734376,-0.5859375 0,-0.24609373 -0.1757813,-0.38671873 -0.39843751,-0.38671873 -0.29296875,0 -0.59765625,0.24609373 -0.59765625,0.63281248 0,0.50390625 0.5625,0.7265625 1.06640626,0.7265625 0.5742187,0 0.984375,-0.45703125 1.2304687,-0.9375 0.1992188,0.703125 0.796875,0.9375 1.2304688,0.9375 1.2304687,0 1.875,-1.55859378 1.875,-1.82812498 0,-0.058594 -0.046875,-0.1054688 -0.1289063,-0.1054688 -0.1054687,0 -0.1171875,0.058594 -0.1523437,0.1523438 -0.3164063,1.05468748 -1.0195313,1.54687498 -1.546875,1.54687498 -0.421875,0 -0.65625,-0.31640625 -0.65625,-0.80859375 0,-0.25781253 0.058594,-0.44531253 0.2460937,-1.24218753 l 0.421875,-1.6171875 c 0.1757813,-0.7265625 0.5859375,-1.2421875 1.125,-1.2421875 0.035156,0 0.3632813,0 0.609375,0.1523438 z m 0,0"
         style="fill:#000000;fill-opacity:1;fill-rule:nonzero;stroke:none" />
      <path
         id="path49"
         d="m 14.078453,-2.7649531 h 3.304688 c 0.164062,0 0.375,0 0.375,-0.2109375 0,-0.2226563 -0.199219,-0.2226563 -0.375,-0.2226563 h -3.304688 v -3.3046875 c 0,-0.1640625 0,-0.3867187 -0.210937,-0.3867187 -0.234375,0 -0.234375,0.2109375 -0.234375,0.3867187 v 3.3046875 h -3.292969 c -0.175781,0 -0.3867189,0 -0.3867189,0.2109375 0,0.2226563 0.1992189,0.2226563 0.3867189,0.2226563 h 3.292969 v 3.30468748 c 0,0.1640625 0,0.38671875 0.222656,0.38671875 0.222656,0 0.222656,-0.2109375 0.222656,-0.38671875 z m 0,0"
         style="fill:#000000;fill-opacity:1;fill-rule:nonzero;stroke:none" />
      <path
         id="path50"
         d="m 24.209313,1.3366094 c -0.316407,0.4570312 -0.785157,0.8671875 -1.371094,0.8671875 -0.140625,0 -0.714844,-0.023437 -0.902344,-0.5742188 0.04687,0.011719 0.105469,0.011719 0.128906,0.011719 0.351563,0 0.597657,-0.3164063 0.597657,-0.5859375 0,-0.28125002 -0.234375,-0.37500002 -0.410157,-0.37500002 -0.1875,0 -0.609375,0.140625 -0.609375,0.72656252 0,0.609375 0.515625,1.03125 1.195313,1.03125 1.195312,0 2.402344,-1.1015625 2.742187,-2.42578127 l 1.171875,-4.66406253 c 0.01172,-0.058594 0.03516,-0.1289062 0.03516,-0.1992187 0,-0.1757813 -0.152344,-0.3046875 -0.328125,-0.3046875 -0.105469,0 -0.363282,0.046875 -0.457032,0.4101562 l -0.878906,3.515625 c -0.05859,0.2109375 -0.05859,0.23437503 -0.152344,0.37500003 -0.246093,0.328125 -0.644531,0.73828125 -1.207031,0.73828125 -0.679687,0 -0.738281,-0.65625 -0.738281,-0.98437498 0,-0.6796875 0.328125,-1.6054688 0.644531,-2.4609375 0.140625,-0.3515625 0.210938,-0.515625 0.210938,-0.75 0,-0.5039063 -0.363282,-0.9609375 -0.949219,-0.9609375 -1.101563,0 -1.535156,1.734375 -1.535156,1.828125 0,0.046875 0.04687,0.1054687 0.128906,0.1054687 0.105469,0 0.117187,-0.046875 0.164062,-0.2109375 0.292969,-1.0078125 0.738282,-1.4765625 1.207032,-1.4765625 0.105468,0 0.316406,0 0.316406,0.3867188 0,0.3164062 -0.140625,0.65625 -0.316406,1.1132812 -0.585938,1.5703125 -0.585938,1.9570313 -0.585938,2.25 0,1.13671878 0.808594,1.39453128 1.40625,1.39453128 0.351563,0 0.785156,-0.10546875 1.195313,-0.55078125 l 0.01172,0.0117188 c -0.175781,0.703125 -0.292968,1.171875 -0.714843,1.75781257 z m 0,0"
         style="fill:#000000;fill-opacity:1;fill-rule:nonzero;stroke:none" />
      <path
         id="path51"
         d="m 39.79818,-12.069641 c 0.164062,0 0.375,0 0.375,-0.222656 0,-0.222656 -0.199219,-0.222656 -0.375,-0.222656 h -7.042969 c -0.175781,0 -0.386719,0 -0.386719,0.210937 0,0.234375 0.199219,0.234375 0.386719,0.234375 z m 0,2.2148441 c 0.164062,0 0.375,0 0.375,-0.2109371 0,-0.234375 -0.199219,-0.234375 -0.375,-0.234375 h -7.042969 c -0.175781,0 -0.386719,0 -0.386719,0.222656 0,0.2226561 0.199219,0.2226561 0.386719,0.2226561 z m 8.991211,-14.0976561 c 0,-0.269531 0,-0.28125 -0.246094,-0.28125 -0.28125,0.316406 -0.878906,0.761719 -2.109375,0.761719 v 0.351562 c 0.269531,0 0.867187,0 1.523437,-0.316406 v 6.222656 c 0,0.433594 -0.03516,0.574219 -1.078125,0.574219 h -0.375 v 0.351562 c 0.316407,-0.02344 1.476563,-0.02344 1.875,-0.02344 0.398438,0 1.546875,0 1.863282,0.02344 v -0.351562 h -0.363282 c -1.054687,0 -1.089843,-0.140625 -1.089843,-0.574219 z m 7.763672,3.84375 c 0,-0.996094 -0.05859,-1.96875 -0.492188,-2.871094 -0.492187,-0.996094 -1.347656,-1.253906 -1.933594,-1.253906 -0.691406,0 -1.546875,0.339844 -1.980468,1.335937 -0.339844,0.75 -0.457032,1.488282 -0.457032,2.789063 0,1.160156 0.08203,2.027344 0.515625,2.871094 0.457032,0.914062 1.289063,1.195312 1.910157,1.195312 1.042968,0 1.640625,-0.621094 1.980468,-1.3125 0.433594,-0.890625 0.457032,-2.0625 0.457032,-2.753906 z m -2.4375,3.832031 c -0.386719,0 -1.160157,-0.210937 -1.382813,-1.523437 -0.140625,-0.714844 -0.140625,-1.617188 -0.140625,-2.460938 0,-0.972656 0,-1.863281 0.199219,-2.566406 0.199219,-0.796875 0.808594,-1.171875 1.324219,-1.171875 0.457031,0 1.148437,0.28125 1.371093,1.300781 0.152344,0.679688 0.152344,1.628906 0.152344,2.4375 0,0.808594 0,1.710938 -0.128906,2.4375 -0.222656,1.324219 -0.972656,1.546875 -1.394531,1.546875 z m 0,0"
         style="fill:#000000;fill-opacity:1;fill-rule:nonzero;stroke:none" />
    </g>
    <path
       id="path52"
       d="M 0,0 H 11.706"
       style="fill:none;stroke:#000000;stroke-width:0.478;stroke-linecap:butt;stroke-linejoin:miter;stroke-miterlimit:10;stroke-dasharray:none;stroke-opacity:1"
       transform="matrix(1.3333333,0,0,-1.3333333,419.27333,599.93067)" />
    <g
       id="g52"
       aria-label="7&#10;yz"
       transform="matrix(1.3333333,0,0,1.3333333,423.17467,614.85067)">
      <path
         id="path53"
         d="m 5.6844297,-7.4172969 v -0.28125 H 2.8016172 c -1.453125,0 -1.4765625,-0.1523437 -1.5234375,-0.3867187 H 1.0203672 l -0.37500001,2.390625 h 0.26953125 c 0.0351563,-0.2109375 0.14062496,-0.9492188 0.29296876,-1.078125 0.09375,-0.070312 0.9960937,-0.070312 1.1601562,-0.070312 h 2.53125 l -1.265625,1.8164062 c -0.3164062,0.4570313 -1.5234375,2.4257813 -1.5234375,4.66406253 0,0.140625 0,0.609375 0.4804688,0.609375 0.5039062,0 0.5039062,-0.45703125 0.5039062,-0.62109375 v -0.59765625 c 0,-1.78125003 0.2929688,-3.16406253 0.8554688,-3.96093753 z m 0,0"
         style="fill:#000000;fill-opacity:1;fill-rule:nonzero;stroke:none" />
      <path
         id="path54"
         d="m -37.921039,11.36493 c -0.316406,0.457031 -0.785156,0.867187 -1.371094,0.867187 -0.140625,0 -0.714844,-0.02344 -0.902344,-0.574219 0.04687,0.01172 0.105469,0.01172 0.128907,0.01172 0.351562,0 0.597656,-0.316406 0.597656,-0.585937 0,-0.28125 -0.234375,-0.375 -0.410156,-0.375 -0.1875,0 -0.609375,0.140625 -0.609375,0.726562 0,0.609375 0.515625,1.03125 1.195312,1.03125 1.195313,0 2.402344,-1.101562 2.742188,-2.425781 l 1.171875,-4.6640626 c 0.01172,-0.058594 0.03516,-0.1289062 0.03516,-0.1992187 0,-0.1757813 -0.152344,-0.3046875 -0.328125,-0.3046875 -0.105469,0 -0.363281,0.046875 -0.457031,0.4101562 l -0.878907,3.515625 c -0.05859,0.2109375 -0.05859,0.234375 -0.152343,0.375 -0.246094,0.328125 -0.644532,0.7382813 -1.207032,0.7382813 -0.679687,0 -0.738281,-0.65625 -0.738281,-0.984375 0,-0.6796875 0.328125,-1.6054688 0.644531,-2.4609375 0.140625,-0.3515625 0.210938,-0.515625 0.210938,-0.75 0,-0.5039063 -0.363281,-0.9609375 -0.949219,-0.9609375 -1.101562,0 -1.535156,1.734375 -1.535156,1.828125 0,0.046875 0.04687,0.1054687 0.128906,0.1054687 0.105469,0 0.117188,-0.046875 0.164063,-0.2109375 0.292968,-1.0078125 0.738281,-1.4765625 1.207031,-1.4765625 0.105469,0 0.316406,0 0.316406,0.3867188 0,0.3164062 -0.140625,0.65625 -0.316406,1.1132812 -0.585938,1.5703125 -0.585938,1.9570313 -0.585938,2.25 0,1.1367188 0.808594,1.3945316 1.40625,1.3945316 0.351563,0 0.785157,-0.105469 1.195313,-0.5507816 l 0.01172,0.011719 c -0.175782,0.7031246 -0.292969,1.1718746 -0.714844,1.7578126 z m 4.520508,-2.3085941 c 0.503906,-0.5859375 0.925781,-0.9492187 1.523437,-1.4882812 0.714844,-0.6210938 1.03125,-0.9257813 1.195313,-1.1015625 0.84375,-0.8203125 1.253906,-1.5234375 1.253906,-1.6171875 0,-0.09375 -0.09375,-0.09375 -0.117187,-0.09375 -0.08203,0 -0.105469,0.046875 -0.164063,0.1289062 -0.304687,0.515625 -0.585937,0.7734375 -0.902344,0.7734375 -0.246093,0 -0.375,-0.1171875 -0.609375,-0.3984375 -0.246093,-0.2929687 -0.457031,-0.5039062 -0.796875,-0.5039062 -0.878906,0 -1.394531,1.0898437 -1.394531,1.3359375 0,0.035156 0.01172,0.1171875 0.117188,0.1171875 0.09375,0 0.105468,-0.046875 0.140625,-0.140625 0.199218,-0.46875 0.773437,-0.5625 1.007812,-0.5625 0.246094,0 0.480469,0.09375 0.738281,0.1992187 0.457032,0.1875 0.644532,0.1875 0.761719,0.1875 0.08203,0 0.128906,0 0.1875,-0.011719 -0.386719,0.46875 -1.03125,1.0429687 -1.570312,1.5351562 l -1.207032,1.1015625 c -0.726562,0.75 -1.171875,1.453125 -1.171875,1.5351569 0,0.07031 0.05859,0.09375 0.128907,0.09375 0.07031,0 0.08203,-0.01172 0.164062,-0.1523444 0.199219,-0.3046875 0.574219,-0.7382812 1.019531,-0.7382812 0.246094,0 0.375,0.082031 0.609375,0.375 0.222657,0.2695312 0.433594,0.5156256 0.808594,0.5156256 1.171875,0 1.851563,-1.5117194 1.851563,-1.7929694 0,-0.046875 -0.01172,-0.1171875 -0.140625,-0.1171875 -0.09375,0 -0.105469,0.046875 -0.140625,0.1640625 -0.257813,0.703125 -0.972657,0.9960938 -1.429688,0.9960938 -0.257812,0 -0.492187,-0.082031 -0.75,-0.1875 -0.46875,-0.1992188 -0.609375,-0.1992188 -0.761719,-0.1992188 -0.117187,0 -0.246093,0 -0.351562,0.046875 z m 0,0"
         style="fill:#000000;fill-opacity:1;fill-rule:nonzero;stroke:none" />
    </g>
    <path
       id="path55"
       d="M 0,0 H 26.525"
       style="fill:none;stroke:#000000;stroke-width:0.478;stroke-linecap:butt;stroke-linejoin:miter;stroke-miterlimit:10;stroke-dasharray:none;stroke-opacity:1"
       transform="matrix(1.3333333,0,0,-1.3333333,358.81467,635.02133)" />
    <g
       id="g55"
       aria-label="y+z&#10;=&#10;40"
       transform="matrix(1.3333333,0,0,1.3333333,358.81467,649.94)">
      <path
         id="path56"
         d="M 3.1419297,1.3369922 C 2.8255234,1.7940234 2.3567734,2.2041797 1.7708359,2.2041797 c -0.140625,0 -0.7148437,-0.023437 -0.90234371,-0.5742188 0.046875,0.011719 0.10546875,0.011719 0.12890625,0.011719 0.35156246,0 0.59765626,-0.3164063 0.59765626,-0.5859375 0,-0.28125001 -0.234375,-0.37500001 -0.4101563,-0.37500001 -0.18749996,0 -0.60937496,0.140625 -0.60937496,0.72656251 0,0.609375 0.51562496,1.03125 1.19531246,1.03125 1.1953125,0 2.4023438,-1.1015625 2.7421875,-2.42578126 l 1.171875,-4.66406254 c 0.011719,-0.058594 0.035156,-0.1289062 0.035156,-0.1992187 0,-0.1757813 -0.1523438,-0.3046875 -0.328125,-0.3046875 -0.1054688,0 -0.3632813,0.046875 -0.4570313,0.4101562 l -0.8789062,3.515625 c -0.058594,0.2109375 -0.058594,0.23437504 -0.1523438,0.37500004 -0.2460937,0.328125 -0.6445312,0.73828125 -1.2070312,0.73828125 -0.6796875,0 -0.7382813,-0.65625 -0.7382813,-0.98437499 0,-0.6796875 0.328125,-1.6054688 0.6445313,-2.4609375 0.140625,-0.3515625 0.2109375,-0.515625 0.2109375,-0.75 0,-0.5039063 -0.3632813,-0.9609375 -0.9492188,-0.9609375 -1.10156246,0 -1.53515621,1.734375 -1.53515621,1.828125 0,0.046875 0.046875,0.1054687 0.12890625,0.1054687 0.10546875,0 0.1171875,-0.046875 0.1640625,-0.2109375 0.29296875,-1.0078125 0.73828126,-1.4765625 1.20703126,-1.4765625 0.1054687,0 0.3164062,0 0.3164062,0.3867188 0,0.3164062 -0.140625,0.65625 -0.3164062,1.1132812 -0.5859375,1.5703125 -0.5859375,1.9570313 -0.5859375,2.25 0,1.13671879 0.8085937,1.39453129 1.40625,1.39453129 0.3515625,0 0.7851562,-0.10546875 1.1953125,-0.55078125 l 0.011719,0.0117188 c -0.1757812,0.703125 -0.2929687,1.171875 -0.7148437,1.75781226 z m 0,0"
         style="fill:#000000;fill-opacity:1;fill-rule:nonzero;stroke:none" />
      <path
         id="path57"
         d="m 13.562828,-2.7645703 h 3.304688 c 0.164062,0 0.375,0 0.375,-0.2109375 0,-0.2226563 -0.199219,-0.2226563 -0.375,-0.2226563 h -3.304688 v -3.3046875 c 0,-0.1640625 0,-0.3867187 -0.210937,-0.3867187 -0.234375,0 -0.234375,0.2109375 -0.234375,0.3867187 v 3.3046875 H 9.8245469 c -0.1757813,0 -0.3867188,0 -0.3867188,0.2109375 0,0.2226563 0.1992188,0.2226563 0.3867188,0.2226563 h 3.2929691 v 3.30468749 c 0,0.1640625 0,0.38671875 0.222656,0.38671875 0.222656,0 0.222656,-0.2109375 0.222656,-0.38671875 z m 0,0"
         style="fill:#000000;fill-opacity:1;fill-rule:nonzero;stroke:none" />
      <path
         id="path58"
         d="m 22.0765,-0.97160156 c 0.503906,-0.58593754 0.925781,-0.94921874 1.523438,-1.48828124 0.714843,-0.6210938 1.03125,-0.9257813 1.195312,-1.1015625 0.84375,-0.8203125 1.253906,-1.5234375 1.253906,-1.6171875 0,-0.09375 -0.09375,-0.09375 -0.117187,-0.09375 -0.08203,0 -0.105469,0.046875 -0.164063,0.1289062 -0.304687,0.515625 -0.585937,0.7734375 -0.902343,0.7734375 -0.246094,0 -0.375,-0.1171875 -0.609375,-0.3984375 -0.246094,-0.2929687 -0.457032,-0.5039062 -0.796875,-0.5039062 -0.878907,0 -1.394532,1.0898437 -1.394532,1.3359375 0,0.035156 0.01172,0.1171875 0.117188,0.1171875 0.09375,0 0.105469,-0.046875 0.140625,-0.140625 0.199219,-0.46875 0.773437,-0.5625 1.007812,-0.5625 0.246094,0 0.480469,0.09375 0.738282,0.1992187 0.457031,0.1875 0.644531,0.1875 0.761718,0.1875 0.08203,0 0.128907,0 0.1875,-0.011719 -0.386718,0.46875 -1.03125,1.0429687 -1.570312,1.5351562 l -1.207031,1.1015625 c -0.726563,0.75000004 -1.171875,1.45312504 -1.171875,1.53515629 0,0.0703125 0.05859,0.09375 0.128906,0.09375 0.07031,0 0.08203,-0.0117188 0.164062,-0.15234375 0.199219,-0.3046875 0.574219,-0.73828125 1.019532,-0.73828125 0.246093,0 0.375,0.0820313 0.609375,0.375 0.222656,0.26953125 0.433593,0.515625 0.808593,0.515625 1.171875,0 1.851563,-1.51171879 1.851563,-1.79296879 0,-0.046875 -0.01172,-0.1171875 -0.140625,-0.1171875 -0.09375,0 -0.105469,0.046875 -0.140625,0.1640625 -0.257813,0.70312504 -0.972656,0.99609379 -1.429688,0.99609379 -0.257812,0 -0.492187,-0.0820313 -0.75,-0.1875 -0.46875,-0.19921879 -0.609375,-0.19921879 -0.761718,-0.19921879 -0.117188,0 -0.246094,0 -0.351563,0.0468753 z m 0,0"
         style="fill:#000000;fill-opacity:1;fill-rule:nonzero;stroke:none" />
      <path
         id="path59"
         d="m 39.115563,-12.069258 c 0.164062,0 0.375,0 0.375,-0.222656 0,-0.222656 -0.199219,-0.222656 -0.375,-0.222656 h -7.042969 c -0.175781,0 -0.386719,0 -0.386719,0.210937 0,0.234375 0.199219,0.234375 0.386719,0.234375 z m 0,2.2148439 c 0.164062,0 0.375,0 0.375,-0.2109379 0,-0.234375 -0.199219,-0.234375 -0.375,-0.234375 h -7.042969 c -0.175781,0 -0.386719,0 -0.386719,0.222657 0,0.2226559 0.199219,0.2226559 0.386719,0.2226559 z m 9.858398,-14.2148439 c 0,-0.222656 0,-0.292969 -0.164063,-0.292969 -0.09375,0 -0.128906,0 -0.222656,0.152344 l -3.597656,5.578125 v 0.351563 h 3.140625 v 1.078125 c 0,0.445312 -0.02344,0.5625 -0.902344,0.5625 h -0.234375 v 0.351562 c 0.269531,-0.02344 1.21875,-0.02344 1.558594,-0.02344 0.328125,0 1.289062,0 1.558594,0.02344 v -0.351562 h -0.234375 c -0.867188,0 -0.902344,-0.117188 -0.902344,-0.5625 v -1.078125 h 1.207031 v -0.351563 h -1.207031 z m -0.785156,0.9375 v 4.5 h -2.90625 z m 7.68164,3.023438 c 0,-0.996094 -0.05859,-1.96875 -0.492187,-2.871094 -0.492188,-0.996094 -1.347656,-1.253906 -1.933594,-1.253906 -0.691406,0 -1.546875,0.339843 -1.980469,1.335937 -0.339843,0.75 -0.457031,1.488281 -0.457031,2.789063 0,1.160156 0.08203,2.027343 0.515625,2.871093 0.457031,0.914063 1.289063,1.195313 1.910156,1.195313 1.042969,0 1.640625,-0.621094 1.980469,-1.3125 0.433594,-0.890625 0.457031,-2.0625 0.457031,-2.753906 z m -2.4375,3.832031 c -0.386718,0 -1.160156,-0.210938 -1.382812,-1.523438 -0.140625,-0.714843 -0.140625,-1.617187 -0.140625,-2.460937 0,-0.972656 0,-1.863281 0.199219,-2.566406 0.199218,-0.796875 0.808593,-1.171875 1.324218,-1.171875 0.457032,0 1.148438,0.28125 1.371094,1.300781 0.152344,0.679687 0.152344,1.628906 0.152344,2.4375 0,0.808594 0,1.710937 -0.128906,2.4375 -0.222657,1.324219 -0.972657,1.546875 -1.394532,1.546875 z m 0,0"
         style="fill:#000000;fill-opacity:1;fill-rule:nonzero;stroke:none" />
    </g>
    <path
       id="path60"
       d="M 0,0 H 11.706"
       style="fill:none;stroke:#000000;stroke-width:0.478;stroke-linecap:butt;stroke-linejoin:miter;stroke-miterlimit:10;stroke-dasharray:none;stroke-opacity:1"
       transform="matrix(1.3333333,0,0,-1.3333333,418.364,635.02133)" />
    <g
       id="g60"
       aria-label="13&#10;xz"
       transform="matrix(1.3333333,0,0,1.3333333,418.364,649.94)">
      <path
         id="path61"
         d="m 3.4447734,-7.6630078 c 0,-0.2695313 0,-0.28125 -0.2460937,-0.28125 -0.28125,0.3164062 -0.8789063,0.7617187 -2.109375,0.7617187 v 0.3515625 c 0.2695312,0 0.8671875,0 1.5234375,-0.3164062 v 6.22265624 c 0,0.43359375 -0.035156,0.57421875 -1.078125,0.57421875 h -0.375 v 0.3515625 c 0.3164062,-0.0234375 1.4765625,-0.0234375 1.875,-0.0234375 0.3984375,0 1.546875,0 1.8632812,0.0234375 v -0.3515625 H 4.5346172 c -1.0546875,0 -1.0898438,-0.140625 -1.0898438,-0.57421875 z m 4.6113282,3.375 c -0.2109375,0.011719 -0.2578125,0.023437 -0.2578125,0.1289062 0,0.1171875 0.058594,0.1171875 0.28125,0.1171875 h 0.5507812 c 1.0078125,0 1.4648437,0.84375 1.4648437,1.9921875 0,1.55859379 -0.8085937,1.98046879 -1.3945312,1.98046879 -0.5742187,0 -1.5585937,-0.28125 -1.8984375,-1.06640629 0.375,0.058594 0.7265625,-0.1523437 0.7265625,-0.5859375 0,-0.3398437 -0.2578125,-0.5859375 -0.5859375,-0.5859375 -0.2929687,0 -0.5976562,0.1640625 -0.5976562,0.6210938 0,1.06640624 1.0664062,1.93359374 2.390625,1.93359374 1.4179689,0 2.4726559,-1.078125 2.4726559,-2.28515624 0,-1.1015625 -0.890625,-1.96875 -2.0273434,-2.1679688 1.0312504,-0.3046875 1.6992184,-1.171875 1.6992184,-2.109375 0,-0.9375 -0.9726559,-1.6289062 -2.1328122,-1.6289062 -1.1953125,0 -2.0859375,0.7265625 -2.0859375,1.59375 0,0.4804687 0.375,0.5742187 0.5507813,0.5742187 0.2578125,0 0.5390625,-0.1757812 0.5390625,-0.5390625 0,-0.375 -0.28125,-0.5390625 -0.5507813,-0.5390625 -0.070312,0 -0.09375,0 -0.1289062,0.011719 0.4570312,-0.8203125 1.5820312,-0.8203125 1.640625,-0.8203125 0.3867187,0 1.171875,0.1757812 1.171875,1.3476562 0,0.234375 -0.035156,0.9023438 -0.3867188,1.4179688 -0.3515625,0.5273437 -0.7617187,0.5625 -1.0898437,0.5742187 z m 0,0"
         style="fill:#000000;fill-opacity:1;fill-rule:nonzero;stroke:none" />
      <path
         id="path62"
         d="m -31.793508,5.154375 c -0.375,0.070312 -0.515625,0.3515625 -0.515625,0.5859375 0,0.28125 0.222656,0.375 0.386719,0.375 0.363281,0 0.609375,-0.3046875 0.609375,-0.6328125 0,-0.4921875 -0.574219,-0.7265625 -1.078125,-0.7265625 -0.726563,0 -1.125,0.7148438 -1.242188,0.9492188 -0.269531,-0.9023438 -1.007812,-0.9492188 -1.230468,-0.9492188 -1.21875,0 -1.863282,1.5703125 -1.863282,1.828125 0,0.046875 0.04687,0.1054688 0.128907,0.1054688 0.105468,0 0.128906,-0.070312 0.152343,-0.1171875 0.398438,-1.3242188 1.207032,-1.5703125 1.546875,-1.5703125 0.539063,0 0.644532,0.4921875 0.644532,0.7851562 0,0.2578125 -0.07031,0.5390625 -0.210938,1.1132813 l -0.410156,1.6289062 c -0.175781,0.7265625 -0.527344,1.3828125 -1.160156,1.3828125 -0.05859,0 -0.351563,0 -0.609375,-0.1523437 0.433593,-0.09375 0.527343,-0.4453125 0.527343,-0.5859375 0,-0.2460938 -0.175781,-0.3867188 -0.398437,-0.3867188 -0.292969,0 -0.597656,0.2460938 -0.597656,0.6328125 0,0.5039063 0.5625,0.726563 1.066406,0.726563 0.574219,0 0.984375,-0.4570317 1.230469,-0.9375005 0.199218,0.703125 0.796875,0.9375005 1.230468,0.9375005 1.230469,0 1.875,-1.5585942 1.875,-1.8281255 0,-0.058594 -0.04687,-0.1054687 -0.128906,-0.1054687 -0.105469,0 -0.117187,0.058594 -0.152344,0.1523437 -0.316406,1.0546875 -1.019531,1.546875 -1.546875,1.546875 -0.421875,0 -0.65625,-0.3164062 -0.65625,-0.8085937 0,-0.2578125 0.05859,-0.4453125 0.246094,-1.2421875 l 0.421875,-1.6171875 c 0.175781,-0.7265625 0.585938,-1.2421875 1.125,-1.2421875 0.03516,0 0.363281,0 0.609375,0.1523437 z m 2.516602,3.9023438 C -28.773,8.4707813 -28.351125,8.1075 -27.753469,7.5684375 c 0.714844,-0.6210937 1.03125,-0.9257812 1.195313,-1.1015625 0.84375,-0.8203125 1.253906,-1.5234375 1.253906,-1.6171875 0,-0.09375 -0.09375,-0.09375 -0.117187,-0.09375 -0.08203,0 -0.105469,0.046875 -0.164063,0.1289063 -0.304687,0.515625 -0.585937,0.7734375 -0.902344,0.7734375 -0.246093,0 -0.375,-0.1171875 -0.609375,-0.3984375 -0.246093,-0.2929688 -0.457031,-0.5039063 -0.796875,-0.5039063 -0.878906,0 -1.394531,1.0898438 -1.394531,1.3359375 0,0.035156 0.01172,0.1171875 0.117188,0.1171875 0.09375,0 0.105468,-0.046875 0.140625,-0.140625 0.199218,-0.46875 0.773437,-0.5625 1.007812,-0.5625 0.246094,0 0.480469,0.09375 0.738281,0.1992188 0.457032,0.1875 0.644532,0.1875 0.761719,0.1875 0.08203,0 0.128906,0 0.1875,-0.011719 -0.386719,0.46875 -1.03125,1.0429688 -1.570312,1.5351563 l -1.207032,1.1015625 c -0.726562,0.75 -1.171875,1.453125 -1.171875,1.5351569 0,0.07031 0.05859,0.09375 0.128907,0.09375 0.07031,0 0.08203,-0.01172 0.164062,-0.1523444 0.199219,-0.3046875 0.574219,-0.7382813 1.019531,-0.7382813 0.246094,0 0.375,0.082031 0.609375,0.375 0.222657,0.2695313 0.433594,0.5156257 0.808594,0.5156257 1.171875,0 1.851563,-1.5117194 1.851563,-1.7929694 0,-0.046875 -0.01172,-0.1171875 -0.140625,-0.1171875 -0.09375,0 -0.105469,0.046875 -0.140625,0.1640625 -0.257813,0.703125 -0.972657,0.9960937 -1.429688,0.9960937 -0.257812,0 -0.492187,-0.082031 -0.75,-0.1875 -0.46875,-0.1992187 -0.609375,-0.1992187 -0.761719,-0.1992187 -0.117187,0 -0.246093,0 -0.351562,0.046875 z m 0,0"
         style="fill:#000000;fill-opacity:1;fill-rule:nonzero;stroke:none" />
    </g>
    <path
       id="path63"
       d="M 0,0 H 27.041"
       style="fill:none;stroke:#000000;stroke-width:0.478;stroke-linecap:butt;stroke-linejoin:miter;stroke-miterlimit:10;stroke-dasharray:none;stroke-opacity:1"
       transform="matrix(1.3333333,0,0,-1.3333333,358.81467,670.11067)" />
    <g
       id="g63"
       aria-label="x+z&#10;=&#10;8"
       transform="matrix(1.3333333,0,0,1.3333333,358.81467,685.02933)">
      <path
         id="path64"
         d="m 5.6614609,-4.8735625 c -0.375,0.070312 -0.515625,0.3515625 -0.515625,0.5859375 0,0.28125 0.2226563,0.375 0.3867188,0.375 0.3632812,0 0.609375,-0.3046875 0.609375,-0.6328125 0,-0.4921875 -0.5742188,-0.7265625 -1.078125,-0.7265625 -0.7265625,0 -1.125,0.7148438 -1.2421875,0.9492188 C 3.5520859,-5.225125 2.8138047,-5.272 2.5911484,-5.272 c -1.21875,0 -1.86328121,1.5703125 -1.86328121,1.828125 0,0.046875 0.046875,0.1054688 0.12890625,0.1054688 0.10546875,0 0.12890625,-0.070312 0.15234376,-0.1171875 0.3984375,-1.3242188 1.2070312,-1.5703125 1.546875,-1.5703125 0.5390625,0 0.6445312,0.4921875 0.6445312,0.7851562 0,0.2578125 -0.070312,0.5390625 -0.2109375,1.1132813 L 2.5794297,-1.4985625 C 2.4036484,-0.772 2.0520859,-0.11575 1.4192734,-0.11575 c -0.058594,0 -0.3515625,0 -0.60937496,-0.15234375 0.43359376,-0.09375 0.52734376,-0.4453125 0.52734376,-0.5859375 0,-0.24609375 -0.1757813,-0.38671875 -0.39843751,-0.38671875 -0.29296875,0 -0.59765625,0.24609375 -0.59765625,0.6328125 0,0.50390625 0.5625,0.7265625 1.06640626,0.7265625 0.5742187,0 0.984375,-0.45703125 1.2304687,-0.9375 0.1992188,0.703125 0.796875,0.9375 1.2304688,0.9375 1.2304687,0 1.875,-1.5585937 1.875,-1.828125 0,-0.058594 -0.046875,-0.1054687 -0.1289063,-0.1054687 -0.1054687,0 -0.1171875,0.058594 -0.1523437,0.1523437 -0.3164063,1.0546875 -1.0195313,1.546875 -1.546875,1.546875 -0.421875,0 -0.65625,-0.31640625 -0.65625,-0.80859375 0,-0.25781245 0.058594,-0.44531245 0.2460937,-1.24218745 l 0.421875,-1.6171875 c 0.1757813,-0.7265625 0.5859375,-1.2421875 1.125,-1.2421875 0.035156,0 0.3632813,0 0.609375,0.1523437 z m 0,0"
         style="fill:#000000;fill-opacity:1;fill-rule:nonzero;stroke:none" />
      <path
         id="path65"
         d="m 14.078453,-2.7641875 h 3.304688 c 0.164062,0 0.375,0 0.375,-0.2109375 0,-0.2226562 -0.199219,-0.2226562 -0.375,-0.2226562 h -3.304688 v -3.3046875 c 0,-0.1640625 0,-0.3867188 -0.210937,-0.3867188 -0.234375,0 -0.234375,0.2109375 -0.234375,0.3867188 v 3.3046875 h -3.292969 c -0.175781,0 -0.3867189,0 -0.3867189,0.2109375 0,0.2226562 0.1992189,0.2226562 0.3867189,0.2226562 h 3.292969 V 0.5405 c 0,0.1640625 0,0.38671875 0.222656,0.38671875 0.222656,0 0.222656,-0.2109375 0.222656,-0.38671875 z m 0,0"
         style="fill:#000000;fill-opacity:1;fill-rule:nonzero;stroke:none" />
      <path
         id="path66"
         d="M 22.592125,-0.97121875 C 23.096031,-1.5571562 23.517906,-1.9204375 24.115563,-2.4595 c 0.714843,-0.6210937 1.03125,-0.9257812 1.195312,-1.1015625 0.84375,-0.8203125 1.253906,-1.5234375 1.253906,-1.6171875 0,-0.09375 -0.09375,-0.09375 -0.117187,-0.09375 -0.08203,0 -0.105469,0.046875 -0.164063,0.1289063 -0.304687,0.515625 -0.585937,0.7734375 -0.902343,0.7734375 -0.246094,0 -0.375,-0.1171875 -0.609375,-0.3984375 C 24.525719,-5.0610625 24.314781,-5.272 23.974938,-5.272 c -0.878907,0 -1.394532,1.0898438 -1.394532,1.3359375 0,0.035156 0.01172,0.1171875 0.117188,0.1171875 0.09375,0 0.105469,-0.046875 0.140625,-0.140625 0.199219,-0.46875 0.773437,-0.5625 1.007812,-0.5625 0.246094,0 0.480469,0.09375 0.738282,0.1992188 0.457031,0.1875 0.644531,0.1875 0.761718,0.1875 0.08203,0 0.128907,0 0.1875,-0.011719 -0.386718,0.46875 -1.03125,1.0429688 -1.570312,1.5351563 l -1.207031,1.1015625 c -0.726563,0.74999995 -1.171875,1.45312495 -1.171875,1.5351562 0,0.0703125 0.05859,0.09375 0.128906,0.09375 0.07031,0 0.08203,-0.0117188 0.164062,-0.15234375 C 22.0765,-0.33840625 22.4515,-0.772 22.896813,-0.772 c 0.246093,0 0.375,0.0820313 0.609375,0.375 0.222656,0.26953125 0.433593,0.515625 0.808593,0.515625 1.171875,0 1.851563,-1.5117187 1.851563,-1.7929687 0,-0.046875 -0.01172,-0.1171875 -0.140625,-0.1171875 -0.09375,0 -0.105469,0.046875 -0.140625,0.1640625 -0.257813,0.70312495 -0.972656,0.9960937 -1.429688,0.9960937 -0.257812,0 -0.492187,-0.0820313 -0.75,-0.1875 -0.46875,-0.1992187 -0.609375,-0.1992187 -0.761718,-0.1992187 -0.117188,0 -0.246094,0 -0.351563,0.046875 z m 0,0"
         style="fill:#000000;fill-opacity:1;fill-rule:nonzero;stroke:none" />
      <path
         id="path67"
         d="m 39.631188,-12.065945 c 0.164062,0 0.375,0 0.375,-0.222657 0,-0.222656 -0.199219,-0.222656 -0.375,-0.222656 h -7.042969 c -0.175781,0 -0.386719,0 -0.386719,0.210938 0,0.234375 0.199219,0.234375 0.386719,0.234375 z m 0,2.2148434 c 0.164062,0 0.375,0 0.375,-0.2109374 0,-0.234375 -0.199219,-0.234375 -0.375,-0.234375 h -7.042969 c -0.175781,0 -0.386719,0 -0.386719,0.222656 0,0.2226564 0.199219,0.2226564 0.386719,0.2226564 z m 9.108398,-10.7490234 c 0.597656,-0.328125 1.464844,-0.878906 1.464844,-1.875 0,-1.042969 -0.996094,-1.757812 -2.097657,-1.757812 -1.183593,0 -2.121093,0.867187 -2.121093,1.957031 0,0.410156 0.128906,0.808594 0.457031,1.21875 0.128906,0.152344 0.140625,0.164062 0.984375,0.75 -1.160156,0.539062 -1.757813,1.347656 -1.757813,2.214844 0,1.265625 1.207032,2.050781 2.425782,2.050781 1.324218,0 2.4375,-0.972656 2.4375,-2.226563 0,-1.21875 -0.855469,-1.757812 -1.792969,-2.332031 z M 47.11068,-21.67825 c -0.152344,-0.105469 -0.632813,-0.421875 -0.632813,-1.007812 0,-0.773438 0.820313,-1.265625 1.617188,-1.265625 0.855468,0 1.628906,0.621093 1.628906,1.488281 0,0.726562 -0.527344,1.3125 -1.21875,1.6875 z m 0.5625,1.546875 1.453125,0.9375 c 0.304687,0.199219 0.855468,0.574219 0.855468,1.300781 0,0.914063 -0.914062,1.535157 -1.875,1.535157 -1.019531,0 -1.886718,-0.738282 -1.886718,-1.734375 0,-0.9375 0.679687,-1.6875 1.453125,-2.039063 z m 0,0"
         style="fill:#000000;fill-opacity:1;fill-rule:nonzero;stroke:none" />
    </g>
    <path
       id="path68"
       d="M 0,0 H 5.853"
       style="fill:none;stroke:#000000;stroke-width:0.478;stroke-linecap:butt;stroke-linejoin:miter;stroke-miterlimit:10;stroke-dasharray:none;stroke-opacity:1"
       transform="matrix(1.3333333,0,0,-1.3333333,419.052,670.11067)" />
    <g
       id="g68"
       aria-label="5&#10;."
       transform="matrix(1.3333333,0,0,1.3333333,419.052,685.02933)">
      <path
         id="path69"
         d="m 1.5342422,-6.8423125 c 0.5039062,0.1640625 0.9257812,0.1757813 1.0546875,0.1757813 1.359375,0 2.2148437,-0.9960938 2.2148437,-1.1601563 0,-0.046875 -0.023437,-0.1054687 -0.09375,-0.1054687 -0.023437,0 -0.046875,0 -0.1523437,0.046875 -0.6679688,0.28125 -1.2421875,0.3164062 -1.5585938,0.3164062 -0.7851562,0 -1.3476562,-0.234375 -1.5820312,-0.328125 -0.082031,-0.035156 -0.1054688,-0.035156 -0.1171875,-0.035156 -0.09375,0 -0.09375,0.070312 -0.09375,0.2578125 v 3.5507812 c 0,0.2109375 0,0.2929688 0.140625,0.2929688 0.058594,0 0.070312,-0.011719 0.1992187,-0.1640625 0.328125,-0.4921875 0.890625,-0.7734375 1.4882813,-0.7734375 0.6328125,0 0.9492187,0.5859375 1.0429687,0.7851562 0.1992188,0.46875 0.2109375,1.0546875 0.2109375,1.5117188 0,0.4570312 0,1.1367187 -0.328125,1.6757812 -0.2695312,0.421875 -0.7382812,0.7265625 -1.2539062,0.7265625 -0.796875,0 -1.5703125,-0.5390625 -1.78125001,-1.40625 0.0585938,0.023437 0.12890621,0.035156 0.18750001,0.035156 0.1992187,0 0.5273437,-0.1289063 0.5273437,-0.5273438 0,-0.3398437 -0.234375,-0.5273437 -0.5273437,-0.5273437 -0.21093751,0 -0.52734376,0.1054687 -0.52734376,0.5742187 0,1.0078125 0.80859376,2.16796875 2.14453126,2.16796875 1.3476562,0 2.53125,-1.125 2.53125,-2.64843745 0,-1.4179688 -0.9609375,-2.6015625 -2.2148438,-2.6015625 -0.6796875,0 -1.2070312,0.2929687 -1.5117187,0.6328125 z m 0,0"
         style="fill:#000000;fill-opacity:1;fill-rule:nonzero;stroke:none" />
      <path
         id="path70"
         d="m 9.2510391,-8.7729766 c 0,-0.3515625 -0.2929688,-0.5859375 -0.5742188,-0.5859375 -0.3515625,0 -0.5859375,0.2929688 -0.5859375,0.5742188 0,0.3515625 0.28125,0.5859375 0.5742188,0.5859375 0.3398437,0 0.5859375,-0.28125 0.5859375,-0.5742188 z m 0,0"
         style="fill:#000000;fill-opacity:1;fill-rule:nonzero;stroke:none" />
    </g>
  </g>
</svg>
