<?xml version="1.0" encoding="UTF-8" standalone="no"?>
<!-- Created with Inkscape (http://www.inkscape.org/) -->

<svg
   version="1.1"
   id="svg1"
   width="793.62665"
   height="1122.6667"
   viewBox="0 0 793.62665 1122.6667"
   sodipodi:docname="F1_M_PP_S2012_page19.pdf"
   xmlns:inkscape="http://www.inkscape.org/namespaces/inkscape"
   xmlns:sodipodi="http://sodipodi.sourceforge.net/DTD/sodipodi-0.dtd"
   xmlns="http://www.w3.org/2000/svg"
   xmlns:svg="http://www.w3.org/2000/svg">
  <defs
     id="defs1">
    <clipPath
       clipPathUnits="userSpaceOnUse"
       id="clipPath4">
      <path
         d="M 56.7,794.48 H 66.72 V 805.7 H 56.7 Z"
         transform="matrix(1,0,0,-1,-61.740002,796.64032)"
         id="path4" />
    </clipPath>
  </defs>
  <sodipodi:namedview
     id="namedview1"
     pagecolor="#ffffff"
     bordercolor="#000000"
     borderopacity="0.25"
     inkscape:showpageshadow="2"
     inkscape:pageopacity="0.0"
     inkscape:pagecheckerboard="0"
     inkscape:deskcolor="#d1d1d1">
    <inkscape:page
       x="0"
       y="0"
       inkscape:label="1"
       id="page1"
       width="793.62665"
       height="1122.6667"
       margin="0"
       bleed="0" />
  </sodipodi:namedview>
  <g
     id="g1"
     inkscape:groupmode="layer"
     inkscape:label="1">
    <text
       id="text1"
       xml:space="preserve"
       transform="matrix(1.3333333,0,0,1.3333333,288.88,60.2396)"><tspan
         style="font-style:italic;font-variant:normal;font-weight:normal;font-stretch:normal;font-size:10.02px;font-family:'Times New Roman';writing-mode:lr-tb;fill:#000000;fill-opacity:1;fill-rule:nonzero;stroke:none"
         x="0 6.131238 11.150256 14.988918 20.028978 27.272436 29.973827 34.992847 37.452755 44.696213 49.715233 52.416622 57.456684 61.295345 66.335403 69.129982 74.149002 78.606903 81.066811 84.97361 87.433517 94.676979 99.695992 102.49057 106.87231 114.11578 119.1348 121.83619 126.29408 130.75198 133.54655"
         y="0"
         sodipodi:role="line"
         id="tspan1">Egzamin maturalny z matematyki </tspan><tspan
         style="font-style:italic;font-variant:normal;font-weight:normal;font-stretch:normal;font-size:10.02px;font-family:'Times New Roman';writing-mode:lr-tb;fill:#000000;fill-opacity:1;fill-rule:nonzero;stroke:none"
         x="25.800497 31.901676 36.941734 40.818474 43.582993 48.571949 55.830437 58.290348 63.279305 68.319366 73.308327 77.185059 79.949577 84.938538 91.600838 96.6409 103.30319 107.73103"
         y="11.580114"
         sodipodi:role="line"
         id="tspan2">Poziom podstawowy </tspan></text>
    <path
       id="path2"
       d="m 55.2,781.52 h 456.54 v 0.48004 H 55.2 Z"
       style="fill:#000000;fill-opacity:1;fill-rule:nonzero;stroke:none"
       transform="matrix(1.3333333,0,0,-1.3333333,0,1122.6667)" />
    <text
       id="text2"
       xml:space="preserve"
       transform="matrix(1.3333333,0,0,1.3333333,75.6,60.4796)"><tspan
         style="font-style:italic;font-variant:normal;font-weight:700;font-stretch:normal;font-size:10.02px;font-family:'Times New Roman';writing-mode:lr-tb;fill:#000000;fill-opacity:1;fill-rule:nonzero;stroke:none"
         x="0"
         y="0"
         id="tspan3">2</tspan></text>
    <text
       id="text3"
       xml:space="preserve"
       transform="matrix(1.3333333,0,0,1.3333333,82.32,60.4796)"
       clip-path="url(#clipPath4)"><tspan
         style="font-style:italic;font-variant:normal;font-weight:700;font-stretch:normal;font-size:10.02px;font-family:'Times New Roman';writing-mode:lr-tb;fill:#000000;fill-opacity:1;fill-rule:nonzero;stroke:none"
         x="0"
         y="0"
         id="tspan4">0</tspan></text>
    <text
       id="text4"
       xml:space="preserve"
       transform="matrix(1.3333333,0,0,1.3333333,315.12,114.3996)"><tspan
         style="font-variant:normal;font-weight:700;font-stretch:normal;font-size:16.02px;font-family:'Times New Roman';writing-mode:lr-tb;fill:#000000;fill-opacity:1;fill-rule:nonzero;stroke:none"
         x="0 10.66131 22.20372 33.746132 45.28854 56.830952 69.270477 79.034668 85.242416 94.125511"
         y="0"
         sodipodi:role="line"
         id="tspan5">BRUDNOPIS </tspan></text>
  </g>
</svg>
