<?xml version="1.0" encoding="UTF-8" standalone="no"?>
<!-- Created with Inkscape (http://www.inkscape.org/) -->

<svg
   version="1.1"
   id="svg1"
   width="794.55066"
   height="1123.6533"
   viewBox="0 0 794.55066 1123.6533"
   sodipodi:docname="LigaMatematycznaMatuskiego_SP_Zestaw4_2017_2018_page0.pdf"
   xmlns:inkscape="http://www.inkscape.org/namespaces/inkscape"
   xmlns:sodipodi="http://sodipodi.sourceforge.net/DTD/sodipodi-0.dtd"
   xmlns="http://www.w3.org/2000/svg"
   xmlns:svg="http://www.w3.org/2000/svg">
  <defs
     id="defs1" />
  <sodipodi:namedview
     id="namedview1"
     pagecolor="#ffffff"
     bordercolor="#000000"
     borderopacity="0.25"
     inkscape:showpageshadow="2"
     inkscape:pageopacity="0.0"
     inkscape:pagecheckerboard="0"
     inkscape:deskcolor="#d1d1d1">
    <inkscape:page
       x="0"
       y="0"
       inkscape:label="1"
       id="page1"
       width="794.55066"
       height="1123.6533"
       margin="0"
       bleed="0" />
  </sodipodi:namedview>
  <g
     id="g1"
     inkscape:groupmode="layer"
     inkscape:label="1">
    <g
       id="g2"
       aria-label="LIGAMATEMATYCZNA&#10;im.ZdzisªawaMatuskiego&#10;PÓFINA&#10;16lutego2017&#10;SZKOAPODSTAWOWA&#10;ZADANIE1.&#10;Monikawykonaªapi¦¢dziesi¡trzutówsze±cienn¡kostk¡iotrzymaªawsumie100oczek.Ileconaj-&#10;wy»ejrazymogªawypa±¢pi¡tka?&#10;ZADANIE2.&#10;WpewnejgrzekomputerowejBartekzdobyªnajpierw157punktów,potemkilkarazystraciª&#10;po19punktów,anast¦pnieodrobiªpoªow¦stratisko«czyªgr¦zrezultatem100punktów.&#10;Ilerazyponiósªstrat¦?&#10;ZADANIE3.&#10;Piotrekwypisaªwszystkieró»neliczbyzapisanezapomoc¡trzechtrójekitrzechzer.Oblicz&#10;sum¦tychliczb.&#10;ZADANIE4.&#10;Prostok¡topolu100podzielononatrzyprostok¡ty,zktórychjedenmaobwód21idªugo±¢8,&#10;adrugimaobwód23iszeroko±¢1,5.Obliczpoletrzeciegoprostok¡ta.&#10;ZADANIE5.&#10;LiczbaAjestpodzielnaprzez42i45.CzyliczbaAdzielisi¦przez210?"
       transform="matrix(1.3333333,0,0,1.3333333,274.724,56.069333)">
      <path
         id="path2"
         d="m 237.92184,120.08277 c 0,-0.26954 0,-0.28125 -0.24609,-0.28125 -0.28125,0.3164 -0.87891,0.76171 -2.10937,0.76171 v 0.35157 c 0.26953,0 0.86718,0 1.52343,-0.31641 v 6.22266 c 0,0.43359 -0.0351,0.57422 -1.07812,0.57422 h -0.375 v 0.35156 c 0.3164,-0.0234 1.47656,-0.0234 1.875,-0.0234 0.39844,0 1.54687,0 1.86328,0.0234 v -0.35156 h -0.36328 c -1.05469,0 -1.08985,-0.14063 -1.08985,-0.57422 z m 7.76368,3.84375 c 0,-0.9961 -0.0586,-1.96875 -0.49219,-2.8711 -0.49219,-0.99609 -1.34766,-1.2539 -1.9336,-1.2539 -0.6914,0 -1.54687,0.33984 -1.98046,1.33593 -0.33985,0.75 -0.45704,1.48828 -0.45704,2.78907 0,1.16015 0.082,2.02734 0.51563,2.87109 0.45703,0.91406 1.28906,1.19531 1.91016,1.19531 1.04296,0 1.64062,-0.62109 1.98046,-1.3125 0.4336,-0.89062 0.45704,-2.0625 0.45704,-2.7539 z m -2.4375,3.83203 c -0.38672,0 -1.16016,-0.21094 -1.38282,-1.52344 -0.14062,-0.71484 -0.14062,-1.61719 -0.14062,-2.46094 0,-0.97265 0,-1.86328 0.19922,-2.5664 0.19922,-0.79688 0.80859,-1.17188 1.32422,-1.17188 0.45703,0 1.14843,0.28125 1.37109,1.30078 0.15234,0.67969 0.15234,1.62891 0.15234,2.4375 0,0.8086 0,1.71094 -0.1289,2.4375 -0.22266,1.32422 -0.97266,1.54688 -1.39453,1.54688 z m 8.29101,-3.83203 c 0,-0.9961 -0.0586,-1.96875 -0.49219,-2.8711 -0.49218,-0.99609 -1.34765,-1.2539 -1.93359,-1.2539 -0.69141,0 -1.54687,0.33984 -1.98047,1.33593 -0.33984,0.75 -0.45703,1.48828 -0.45703,2.78907 0,1.16015 0.082,2.02734 0.51563,2.87109 0.45703,0.91406 1.28906,1.19531 1.91015,1.19531 1.04297,0 1.64063,-0.62109 1.98047,-1.3125 0.43359,-0.89062 0.45703,-2.0625 0.45703,-2.7539 z m -2.4375,3.83203 c -0.38672,0 -1.16015,-0.21094 -1.38281,-1.52344 -0.14063,-0.71484 -0.14063,-1.61719 -0.14063,-2.46094 0,-0.97265 0,-1.86328 0.19922,-2.5664 0.19922,-0.79688 0.8086,-1.17188 1.32422,-1.17188 0.45703,0 1.14844,0.28125 1.3711,1.30078 0.15234,0.67969 0.15234,1.62891 0.15234,2.4375 0,0.8086 0,1.71094 -0.12891,2.4375 -0.22265,1.32422 -0.97265,1.54688 -1.39453,1.54688 z m 0,0"
         style="fill:#000000;fill-opacity:1;fill-rule:nonzero;stroke:none" />
      <path
         id="path3"
         d="m 139.48727,177.59253 c 0,-0.26953 0,-0.28125 -0.24609,-0.28125 -0.28125,0.31641 -0.87891,0.76172 -2.10938,0.76172 v 0.35156 c 0.26954,0 0.86719,0 1.52344,-0.3164 v 6.22265 c 0,0.4336 -0.0351,0.57422 -1.07812,0.57422 h -0.375 v 0.35156 c 0.3164,-0.0234 1.47656,-0.0234 1.875,-0.0234 0.39843,0 1.54687,0 1.86328,0.0234 v -0.35156 h -0.36328 c -1.05469,0 -1.08985,-0.14062 -1.08985,-0.57422 z m 3.94336,0.82031 c 0.50391,0.16407 0.92578,0.17579 1.05469,0.17579 1.35938,0 2.21484,-0.9961 2.21484,-1.16016 0,-0.0469 -0.0234,-0.10547 -0.0937,-0.10547 -0.0234,0 -0.0469,0 -0.15234,0.0469 -0.66797,0.28125 -1.24219,0.3164 -1.55859,0.3164 -0.78516,0 -1.34766,-0.23437 -1.58203,-0.32812 -0.082,-0.0352 -0.10547,-0.0352 -0.11719,-0.0352 -0.0937,0 -0.0937,0.0703 -0.0937,0.25781 v 3.55078 c 0,0.21094 0,0.29297 0.14062,0.29297 0.0586,0 0.0703,-0.0117 0.19922,-0.16406 0.32813,-0.49219 0.89063,-0.77344 1.48828,-0.77344 0.63282,0 0.94922,0.58594 1.04297,0.78516 0.19922,0.46875 0.21094,1.05469 0.21094,1.51172 0,0.45703 0,1.13672 -0.32813,1.67578 -0.26953,0.42187 -0.73828,0.72656 -1.2539,0.72656 -0.79688,0 -1.57031,-0.53906 -1.78125,-1.40625 0.0586,0.0234 0.1289,0.0352 0.1875,0.0352 0.19922,0 0.52734,-0.12891 0.52734,-0.52735 0,-0.33984 -0.23437,-0.52734 -0.52734,-0.52734 -0.21094,0 -0.52735,0.10547 -0.52735,0.57422 0,1.00781 0.8086,2.16797 2.14454,2.16797 1.34765,0 2.53125,-1.125 2.53125,-2.64844 0,-1.41797 -0.96094,-2.60156 -2.21485,-2.60156 -0.67969,0 -1.20703,0.29297 -1.51172,0.63281 z m 10.00196,-0.57421 v -0.28125 h -2.88282 c -1.45312,0 -1.47656,-0.15235 -1.52343,-0.38672 h -0.25782 l -0.375,2.39062 h 0.26953 c 0.0352,-0.21094 0.14063,-0.94922 0.29297,-1.07812 0.0937,-0.0703 0.9961,-0.0703 1.16016,-0.0703 h 2.53125 l -1.26563,1.81641 c -0.3164,0.45703 -1.52343,2.42578 -1.52343,4.66406 0,0.14063 0,0.60938 0.48047,0.60938 0.5039,0 0.5039,-0.45703 0.5039,-0.6211 v -0.59765 c 0,-1.78125 0.29297,-3.16406 0.85547,-3.96094 z m 0,0"
         style="fill:#000000;fill-opacity:1;fill-rule:nonzero;stroke:none" />
      <path
         id="path4"
         d="m -126.92679,192.03882 c 0,-0.26953 0,-0.28125 -0.24609,-0.28125 -0.28125,0.31641 -0.87891,0.76172 -2.10938,0.76172 v 0.35156 c 0.26953,0 0.86719,0 1.52344,-0.3164 v 6.22265 c 0,0.4336 -0.0352,0.57422 -1.07813,0.57422 h -0.375 v 0.35156 c 0.31641,-0.0234 1.47657,-0.0234 1.875,-0.0234 0.39844,0 1.54688,0 1.86329,0.0234 v -0.35156 h -0.36329 c -1.05468,0 -1.08984,-0.14062 -1.08984,-0.57422 z m 6.7793,4.18359 c 0,2.82422 -1.25391,3.41016 -1.96875,3.41016 -0.28125,0 -0.92578,-0.0352 -1.21875,-0.45703 h 0.0703 c 0.082,0.0234 0.51563,-0.0469 0.51563,-0.49219 0,-0.25781 -0.17579,-0.49219 -0.49219,-0.49219 -0.30469,0 -0.50391,0.21094 -0.50391,0.51563 0,0.75 0.59766,1.24219 1.64063,1.24219 1.5,0 2.9414,-1.58203 2.9414,-4.1836 0,-3.21093 -1.33593,-4.00781 -2.39062,-4.00781 -1.3125,0 -2.47266,1.10156 -2.47266,2.67188 0,1.58203 1.11328,2.66015 2.3086,2.66015 0.8789,0 1.33593,-0.64453 1.57031,-1.2539 z m -1.52344,0.6211 c -0.75,0 -1.07812,-0.60938 -1.18359,-0.83203 -0.19922,-0.45703 -0.19922,-1.03125 -0.19922,-1.57032 0,-0.66796 0,-1.24218 0.3164,-1.73437 0.21094,-0.31641 0.53907,-0.66797 1.1836,-0.66797 0.67969,0 1.03125,0.59766 1.14844,0.87891 0.23437,0.58593 0.23437,1.59375 0.23437,1.78125 0,0.99609 -0.44531,2.14453 -1.5,2.14453 z m 0,0"
         style="fill:#000000;fill-opacity:1;fill-rule:nonzero;stroke:none" />
      <path
         id="path5"
         d="m 266.93161,192.03882 c 0,-0.26953 0,-0.28125 -0.24609,-0.28125 -0.28125,0.31641 -0.87891,0.76172 -2.10938,0.76172 v 0.35156 c 0.26953,0 0.86719,0 1.52344,-0.3164 v 6.22265 c 0,0.4336 -0.0352,0.57422 -1.07813,0.57422 h -0.375 v 0.35156 c 0.31641,-0.0234 1.47657,-0.0234 1.875,-0.0234 0.39844,0 1.54688,0 1.86328,0.0234 v -0.35156 h -0.36328 c -1.05468,0 -1.08984,-0.14062 -1.08984,-0.57422 z m 7.76367,3.84375 c 0,-0.99609 -0.0586,-1.96875 -0.49219,-2.87109 -0.49218,-0.9961 -1.34765,-1.25391 -1.93359,-1.25391 -0.69141,0 -1.54687,0.33984 -1.98047,1.33594 -0.33984,0.75 -0.45703,1.48828 -0.45703,2.78906 0,1.16016 0.082,2.02734 0.51563,2.87109 0.45703,0.91407 1.28906,1.19532 1.91015,1.19532 1.04297,0 1.64063,-0.6211 1.98047,-1.3125 0.43359,-0.89063 0.45703,-2.0625 0.45703,-2.75391 z m -2.4375,3.83203 c -0.38672,0 -1.16015,-0.21094 -1.38281,-1.52344 -0.14063,-0.71484 -0.14063,-1.61718 -0.14063,-2.46093 0,-0.97266 0,-1.86328 0.19922,-2.56641 0.19922,-0.79687 0.8086,-1.17187 1.32422,-1.17187 0.45703,0 1.14844,0.28125 1.3711,1.30078 0.15234,0.67968 0.15234,1.6289 0.15234,2.4375 0,0.80859 0,1.71093 -0.12891,2.4375 -0.22265,1.32422 -0.97265,1.54687 -1.39453,1.54687 z m 8.29102,-3.83203 c 0,-0.99609 -0.0586,-1.96875 -0.49219,-2.87109 -0.49219,-0.9961 -1.34766,-1.25391 -1.93359,-1.25391 -0.69141,0 -1.54688,0.33984 -1.98047,1.33594 -0.33985,0.75 -0.45703,1.48828 -0.45703,2.78906 0,1.16016 0.082,2.02734 0.51562,2.87109 0.45703,0.91407 1.28906,1.19532 1.91016,1.19532 1.04297,0 1.64062,-0.6211 1.98047,-1.3125 0.43359,-0.89063 0.45703,-2.0625 0.45703,-2.75391 z m -2.4375,3.83203 c -0.38672,0 -1.16016,-0.21094 -1.38282,-1.52344 -0.14062,-0.71484 -0.14062,-1.61718 -0.14062,-2.46093 0,-0.97266 0,-1.86328 0.19922,-2.56641 0.19922,-0.79687 0.80859,-1.17187 1.32422,-1.17187 0.45703,0 1.14843,0.28125 1.37109,1.30078 0.15234,0.67968 0.15234,1.6289 0.15234,2.4375 0,0.80859 0,1.71093 -0.1289,2.4375 -0.22266,1.32422 -0.97266,1.54687 -1.39453,1.54687 z m 0,0"
         style="fill:#000000;fill-opacity:1;fill-rule:nonzero;stroke:none" />
      <path
         id="path6"
         d="m -55.650422,307.06128 c 0,-0.26953 0,-0.28125 -0.246094,-0.28125 -0.28125,0.31641 -0.878906,0.76172 -2.109375,0.76172 v 0.35156 c 0.269532,0 0.867188,0 1.523438,-0.3164 v 6.22265 c 0,0.4336 -0.03516,0.57422 -1.078125,0.57422 h -0.375 v 0.35156 c 0.316406,-0.0234 1.476562,-0.0234 1.875,-0.0234 0.398437,0 1.546875,0 1.863281,0.0234 v -0.35156 h -0.363281 c -1.054688,0 -1.089844,-0.14062 -1.089844,-0.57422 z m 7.763672,3.84375 c 0,-0.99609 -0.05859,-1.96875 -0.492187,-2.87109 -0.492188,-0.9961 -1.347657,-1.25391 -1.933594,-1.25391 -0.691406,0 -1.546875,0.33985 -1.980469,1.33594 -0.339844,0.75 -0.457031,1.48828 -0.457031,2.78906 0,1.16016 0.08203,2.02735 0.515625,2.8711 0.457031,0.91406 1.289062,1.19531 1.910156,1.19531 1.042969,0 1.640625,-0.6211 1.980469,-1.3125 0.433594,-0.89063 0.457031,-2.0625 0.457031,-2.75391 z m -2.4375,3.83203 c -0.386719,0 -1.160156,-0.21093 -1.382812,-1.52343 -0.140625,-0.71485 -0.140625,-1.61719 -0.140625,-2.46094 0,-0.97266 0,-1.86328 0.199218,-2.56641 0.199219,-0.79687 0.808594,-1.17187 1.324219,-1.17187 0.457031,0 1.148438,0.28125 1.371094,1.30078 0.152344,0.67969 0.152344,1.6289 0.152344,2.4375 0,0.80859 0,1.71094 -0.128907,2.4375 -0.222656,1.32422 -0.972656,1.54687 -1.394531,1.54687 z m 8.291016,-3.83203 c 0,-0.99609 -0.05859,-1.96875 -0.492188,-2.87109 -0.492187,-0.9961 -1.347656,-1.25391 -1.933594,-1.25391 -0.691406,0 -1.546875,0.33985 -1.980468,1.33594 -0.339844,0.75 -0.457032,1.48828 -0.457032,2.78906 0,1.16016 0.08203,2.02735 0.515625,2.8711 0.457032,0.91406 1.289063,1.19531 1.910157,1.19531 1.042968,0 1.640625,-0.6211 1.980468,-1.3125 0.433594,-0.89063 0.457032,-2.0625 0.457032,-2.75391 z m -2.4375,3.83203 c -0.386719,0 -1.160157,-0.21093 -1.382813,-1.52343 -0.140625,-0.71485 -0.140625,-1.61719 -0.140625,-2.46094 0,-0.97266 0,-1.86328 0.199219,-2.56641 0.199219,-0.79687 0.808594,-1.17187 1.324219,-1.17187 0.457031,0 1.148437,0.28125 1.371093,1.30078 0.152344,0.67969 0.152344,1.6289 0.152344,2.4375 0,0.80859 0,1.71094 -0.128906,2.4375 -0.222656,1.32422 -0.972656,1.54687 -1.394531,1.54687 z m 0,0"
         style="fill:#000000;fill-opacity:1;fill-rule:nonzero;stroke:none" />
      <path
         id="path7"
         d="m 264.89255,312.72144 h -0.26953 c -0.0352,0.19922 -0.12891,0.85547 -0.2461,1.04297 -0.082,0.11718 -0.76172,0.11718 -1.125,0.11718 h -2.21484 c 0.32812,-0.28125 1.05469,-1.04296 1.37109,-1.33593 1.81641,-1.66407 2.48438,-2.28516 2.48438,-3.46875 0,-1.38282 -1.08985,-2.29688 -2.47266,-2.29688 -1.39453,0 -2.20312,1.1836 -2.20312,2.20313 0,0.60937 0.52734,0.60937 0.5625,0.60937 0.24609,0 0.5625,-0.17578 0.5625,-0.5625 0,-0.32812 -0.23438,-0.55078 -0.5625,-0.55078 -0.10547,0 -0.12891,0 -0.16407,0.0117 0.22266,-0.82031 0.86719,-1.37109 1.64063,-1.37109 1.01953,0 1.64062,0.85546 1.64062,1.95703 0,1.00781 -0.58593,1.89843 -1.26562,2.66015 l -2.41406,2.70703 v 0.28125 h 4.35937 z m 4.03711,-5.66016 c 0,-0.26953 0,-0.28125 -0.2461,-0.28125 -0.28125,0.31641 -0.8789,0.76172 -2.10937,0.76172 v 0.35156 c 0.26953,0 0.86719,0 1.52344,-0.3164 v 6.22265 c 0,0.4336 -0.0352,0.57422 -1.07813,0.57422 h -0.375 v 0.35156 c 0.31641,-0.0234 1.47656,-0.0234 1.875,-0.0234 0.39844,0 1.54688,0 1.86328,0.0234 v -0.35156 h -0.36328 c -1.05469,0 -1.08984,-0.14062 -1.08984,-0.57422 z m 0,0"
         style="fill:#000000;fill-opacity:1;fill-rule:nonzero;stroke:none" />
      <path
         id="path8"
         d="m 328.13278,310.41284 c 0.59766,-0.32812 1.46485,-0.8789 1.46485,-1.875 0,-1.04296 -0.9961,-1.75781 -2.09766,-1.75781 -1.18359,0 -2.12109,0.86719 -2.12109,1.95703 0,0.41016 0.1289,0.8086 0.45703,1.21875 0.1289,0.15235 0.14062,0.16407 0.98437,0.75 -1.16015,0.53907 -1.75781,1.34766 -1.75781,2.21485 0,1.26562 1.20703,2.05078 2.42578,2.05078 1.32422,0 2.4375,-0.97266 2.4375,-2.22656 0,-1.21875 -0.85547,-1.75782 -1.79297,-2.33204 z m -1.6289,-1.07812 c -0.15235,-0.10547 -0.63282,-0.42188 -0.63282,-1.00781 0,-0.77344 0.82032,-1.26563 1.61719,-1.26563 0.85547,0 1.62891,0.6211 1.62891,1.48828 0,0.72657 -0.52735,1.3125 -1.21875,1.6875 z m 0.5625,1.54687 1.45312,0.9375 c 0.30469,0.19922 0.85547,0.57422 0.85547,1.30079 0,0.91406 -0.91406,1.53515 -1.875,1.53515 -1.01953,0 -1.88672,-0.73828 -1.88672,-1.73437 0,-0.9375 0.67969,-1.6875 1.45313,-2.03907 z m 0,0"
         style="fill:#000000;fill-opacity:1;fill-rule:nonzero;stroke:none" />
      <path
         id="path9"
         d="m -46.404328,327.16773 h -0.269531 c -0.03516,0.19922 -0.128907,0.85547 -0.246094,1.04297 -0.08203,0.11718 -0.761719,0.11718 -1.125,0.11718 h -2.214844 c 0.328125,-0.28125 1.054688,-1.04297 1.371094,-1.33593 1.816406,-1.66407 2.484375,-2.28516 2.484375,-3.46875 0,-1.38282 -1.089844,-2.29688 -2.472656,-2.29688 -1.394532,0 -2.203125,1.18359 -2.203125,2.20313 0,0.60937 0.527343,0.60937 0.5625,0.60937 0.246093,0 0.5625,-0.17578 0.5625,-0.5625 0,-0.32812 -0.234375,-0.55078 -0.5625,-0.55078 -0.105469,0 -0.128907,0 -0.164063,0.0117 0.222656,-0.82031 0.867188,-1.3711 1.640625,-1.3711 1.019531,0 1.640625,0.85547 1.640625,1.95704 0,1.00781 -0.585937,1.89843 -1.265625,2.66015 l -2.414062,2.70703 v 0.28125 h 4.359375 z m 2.794922,-2.28516 c -0.210938,0.0117 -0.257813,0.0234 -0.257813,0.12891 0,0.11718 0.05859,0.11718 0.28125,0.11718 h 0.550782 c 1.007812,0 1.464843,0.84375 1.464843,1.99219 0,1.5586 -0.808593,1.98047 -1.394531,1.98047 -0.574219,0 -1.558594,-0.28125 -1.898437,-1.06641 0.375,0.0586 0.726562,-0.15234 0.726562,-0.58593 0,-0.33985 -0.257812,-0.58594 -0.585937,-0.58594 -0.292969,0 -0.597657,0.16406 -0.597657,0.62109 0,1.06641 1.066407,1.9336 2.390625,1.9336 1.417969,0 2.472657,-1.07813 2.472657,-2.28516 0,-1.10156 -0.890625,-1.96875 -2.027344,-2.16797 1.03125,-0.30469 1.699219,-1.17187 1.699219,-2.10937 0,-0.9375 -0.972657,-1.62891 -2.132813,-1.62891 -1.195312,0 -2.085937,0.72656 -2.085937,1.59375 0,0.48047 0.375,0.57422 0.550781,0.57422 0.257812,0 0.539062,-0.17578 0.539062,-0.53906 0,-0.375 -0.28125,-0.53907 -0.550781,-0.53907 -0.07031,0 -0.09375,0 -0.128906,0.0117 0.457031,-0.82031 1.582031,-0.82031 1.640625,-0.82031 0.386719,0 1.171875,0.17578 1.171875,1.34766 0,0.23437 -0.03516,0.90234 -0.386719,1.41797 -0.351562,0.52734 -0.761719,0.5625 -1.089844,0.57421 z m 0,0"
         style="fill:#000000;fill-opacity:1;fill-rule:nonzero;stroke:none" />
      <path
         id="path10"
         d="m 25.384734,321.50757 c 0,-0.26953 0,-0.28125 -0.246093,-0.28125 -0.28125,0.31641 -0.878907,0.76172 -2.109375,0.76172 v 0.35156 c 0.269531,0 0.867187,0 1.523437,-0.3164 v 6.22265 c 0,0.4336 -0.03516,0.57422 -1.078125,0.57422 h -0.375 v 0.35156 c 0.316406,-0.0234 1.476563,-0.0234 1.875,-0.0234 0.398438,0 1.546875,0 1.863281,0.0234 v -0.35156 h -0.363281 c -1.054687,0 -1.089844,-0.14062 -1.089844,-0.57422 z m 0,0"
         style="fill:#000000;fill-opacity:1;fill-rule:nonzero;stroke:none" />
      <path
         id="path11"
         d="m 30.124969,329.21851 c 0,-0.69141 -0.222656,-1.20703 -0.714844,-1.20703 -0.386719,0 -0.574219,0.3164 -0.574219,0.57422 0,0.25781 0.175782,0.58593 0.585938,0.58593 0.152344,0 0.28125,-0.0469 0.386719,-0.15234 0.02344,-0.0234 0.03516,-0.0234 0.04687,-0.0234 0.03516,0 0.03516,0.16406 0.03516,0.22266 0,0.39844 -0.08203,1.17187 -0.773438,1.94531 -0.128906,0.15234 -0.128906,0.17578 -0.128906,0.19922 0,0.0586 0.05859,0.11719 0.117188,0.11719 0.09375,0 1.019531,-0.89063 1.019531,-2.26172 z m 0,0"
         style="fill:#000000;fill-opacity:1;fill-rule:nonzero;stroke:none" />
      <path
         id="path12"
         d="m 34.572234,322.32788 c 0.503907,0.16407 0.925782,0.17578 1.054688,0.17578 1.359375,0 2.214844,-0.99609 2.214844,-1.16015 0,-0.0469 -0.02344,-0.10547 -0.09375,-0.10547 -0.02344,0 -0.04687,0 -0.152344,0.0469 -0.667969,0.28125 -1.242188,0.31641 -1.558594,0.31641 -0.785156,0 -1.347656,-0.23437 -1.582031,-0.32812 -0.08203,-0.0352 -0.105469,-0.0352 -0.117188,-0.0352 -0.09375,0 -0.09375,0.0703 -0.09375,0.25781 v 3.55078 c 0,0.21094 0,0.29297 0.140625,0.29297 0.05859,0 0.07031,-0.0117 0.199219,-0.16406 0.328125,-0.49219 0.890625,-0.77344 1.488281,-0.77344 0.632813,0 0.949219,0.58594 1.042969,0.78516 0.199219,0.46875 0.210938,1.05469 0.210938,1.51172 0,0.45703 0,1.13672 -0.328125,1.67578 -0.269532,0.42187 -0.738282,0.72656 -1.253907,0.72656 -0.796875,0 -1.570312,-0.53906 -1.78125,-1.40625 0.05859,0.0234 0.128907,0.0352 0.1875,0.0352 0.199219,0 0.527344,-0.12891 0.527344,-0.52735 0,-0.33984 -0.234375,-0.52734 -0.527344,-0.52734 -0.210937,0 -0.527343,0.10547 -0.527343,0.57422 0,1.00781 0.808593,2.16797 2.144531,2.16797 1.347656,0 2.53125,-1.125 2.53125,-2.64844 0,-1.41797 -0.960938,-2.60156 -2.214844,-2.60156 -0.679687,0 -1.207031,0.29297 -1.511719,0.63281 z m 0,0"
         style="fill:#000000;fill-opacity:1;fill-rule:nonzero;stroke:none" />
      <path
         id="path13"
         d="m -108.9678,370.91089 c -0.41016,0.70313 -0.82032,0.9375 -1.39454,0.97266 -0.1289,0.0117 -0.22265,0.0117 -0.22265,0.23437 0,0.0703 0.0586,0.11719 0.14062,0.11719 0.21094,0 0.75,-0.0234 0.97266,-0.0234 0.33984,0 0.72656,0.0234 1.05469,0.0234 0.0703,0 0.22265,0 0.22265,-0.22266 0,-0.11718 -0.0937,-0.1289 -0.17578,-0.1289 -0.26953,-0.0234 -0.49219,-0.11719 -0.49219,-0.39844 0,-0.17578 0.0703,-0.30469 0.22266,-0.5625 l 0.90234,-1.51172 h 3.0586 c 0.0117,0.10547 0.0117,0.21094 0.0234,0.31641 0.0352,0.30468 0.17578,1.54687 0.17578,1.78125 0,0.35156 -0.60938,0.375 -0.79688,0.375 -0.14062,0 -0.26953,0 -0.26953,0.22265 0,0.12891 0.10547,0.12891 0.17578,0.12891 0.21094,0 0.44531,-0.0234 0.65625,-0.0234 h 0.67969 c 0.72656,0 1.25391,0.0234 1.26562,0.0234 0.082,0 0.21094,0 0.21094,-0.22266 0,-0.1289 -0.10547,-0.1289 -0.28125,-0.1289 -0.65625,0 -0.66797,-0.10547 -0.71484,-0.45703 l -0.72656,-7.46485 c -0.0234,-0.23437 -0.0703,-0.25781 -0.19922,-0.25781 -0.11719,0 -0.1875,0.0234 -0.30469,0.19922 z m 1.4414,-1.83984 2.40235,-4.01953 0.41015,4.01953 z m 0,0"
         style="fill:#000000;fill-opacity:1;fill-rule:nonzero;stroke:none" />
      <path
         id="path14"
         d="m 11.061492,364.45386 c 0,-0.22266 0,-0.29297 -0.164062,-0.29297 -0.09375,0 -0.128907,0 -0.222657,0.15234 l -3.5976558,5.57813 v 0.35156 h 3.1406248 v 1.07813 c 0,0.44531 -0.02344,0.5625 -0.9023436,0.5625 h -0.234375 v 0.35156 c 0.2695313,-0.0234 1.2187496,-0.0234 1.5585936,-0.0234 0.328125,0 1.289063,0 1.558594,0.0234 v -0.35156 h -0.234375 c -0.867188,0 -0.902344,-0.11719 -0.902344,-0.5625 v -1.07813 h 1.207031 v -0.35156 h -1.207031 z m -0.785156,0.9375 v 4.5 H 7.3700859 Z m 7.587891,4.83984 h -0.269532 c -0.03516,0.19922 -0.128906,0.85547 -0.246093,1.04297 -0.08203,0.11719 -0.761719,0.11719 -1.125,0.11719 h -2.214844 c 0.328125,-0.28125 1.054687,-1.04297 1.371094,-1.33594 1.816406,-1.66406 2.484375,-2.28515 2.484375,-3.46875 0,-1.38281 -1.089844,-2.29687 -2.472657,-2.29687 -1.394531,0 -2.203125,1.18359 -2.203125,2.20312 0,0.60938 0.527344,0.60938 0.5625,0.60938 0.246094,0 0.5625,-0.17578 0.5625,-0.5625 0,-0.32813 -0.234375,-0.55078 -0.5625,-0.55078 -0.105468,0 -0.128906,0 -0.164062,0.0117 0.222656,-0.82031 0.867187,-1.37109 1.640625,-1.37109 1.019531,0 1.640625,0.85547 1.640625,1.95703 0,1.00781 -0.585938,1.89844 -1.265625,2.66016 l -2.414063,2.70703 v 0.28125 h 4.359375 z m 0,0"
         style="fill:#000000;fill-opacity:1;fill-rule:nonzero;stroke:none" />
      <path
         id="path15"
         d="m 33.822234,364.45386 c 0,-0.22266 0,-0.29297 -0.164062,-0.29297 -0.09375,0 -0.128906,0 -0.222656,0.15234 l -3.597657,5.57813 v 0.35156 h 3.140625 v 1.07813 c 0,0.44531 -0.02344,0.5625 -0.902343,0.5625 h -0.234375 v 0.35156 c 0.269531,-0.0234 1.21875,-0.0234 1.558593,-0.0234 0.328125,0 1.289063,0 1.558594,0.0234 v -0.35156 h -0.234375 c -0.867187,0 -0.902344,-0.11719 -0.902344,-0.5625 v -1.07813 h 1.207032 v -0.35156 h -1.207032 z m -0.785156,0.9375 v 4.5 h -2.90625 z m 3.861328,0 c 0.503907,0.16406 0.925782,0.17578 1.054688,0.17578 1.359375,0 2.214844,-0.99609 2.214844,-1.16016 0,-0.0469 -0.02344,-0.10546 -0.09375,-0.10546 -0.02344,0 -0.04687,0 -0.152344,0.0469 -0.667969,0.28125 -1.242188,0.31641 -1.558594,0.31641 -0.785156,0 -1.347656,-0.23438 -1.582031,-0.32813 -0.08203,-0.0352 -0.105469,-0.0352 -0.117188,-0.0352 -0.09375,0 -0.09375,0.0703 -0.09375,0.25781 v 3.55078 c 0,0.21094 0,0.29297 0.140625,0.29297 0.05859,0 0.07031,-0.0117 0.199219,-0.16406 0.328125,-0.49219 0.890625,-0.77344 1.488281,-0.77344 0.632813,0 0.949219,0.58594 1.042969,0.78515 0.199219,0.46875 0.210938,1.05469 0.210938,1.51172 0,0.45703 0,1.13672 -0.328125,1.67578 -0.269532,0.42188 -0.738282,0.72657 -1.253907,0.72657 -0.796875,0 -1.570312,-0.53907 -1.78125,-1.40625 0.05859,0.0234 0.128907,0.0351 0.1875,0.0351 0.199219,0 0.527344,-0.1289 0.527344,-0.52734 0,-0.33984 -0.234375,-0.52734 -0.527344,-0.52734 -0.210937,0 -0.527343,0.10546 -0.527343,0.57421 0,1.00782 0.808593,2.16797 2.144531,2.16797 1.347656,0 2.53125,-1.125 2.53125,-2.64843 0,-1.41797 -0.960938,-2.60157 -2.214844,-2.60157 -0.679687,0 -1.207031,0.29297 -1.511719,0.63282 z m 0,0"
         style="fill:#000000;fill-opacity:1;fill-rule:nonzero;stroke:none" />
      <path
         id="path16"
         d="m 108.58493,370.91089 c -0.41016,0.70313 -0.82031,0.9375 -1.39453,0.97266 -0.12891,0.0117 -0.22266,0.0117 -0.22266,0.23437 0,0.0703 0.0586,0.11719 0.14063,0.11719 0.21093,0 0.75,-0.0234 0.97265,-0.0234 0.33985,0 0.72657,0.0234 1.05469,0.0234 0.0703,0 0.22266,0 0.22266,-0.22266 0,-0.11718 -0.0937,-0.1289 -0.17578,-0.1289 -0.26954,-0.0234 -0.49219,-0.11719 -0.49219,-0.39844 0,-0.17578 0.0703,-0.30469 0.22265,-0.5625 l 0.90235,-1.51172 h 3.05859 c 0.0117,0.10547 0.0117,0.21094 0.0234,0.31641 0.0352,0.30468 0.17578,1.54687 0.17578,1.78125 0,0.35156 -0.60937,0.375 -0.79687,0.375 -0.14063,0 -0.26954,0 -0.26954,0.22265 0,0.12891 0.10547,0.12891 0.17579,0.12891 0.21093,0 0.44531,-0.0234 0.65625,-0.0234 h 0.67968 c 0.72657,0 1.25391,0.0234 1.26563,0.0234 0.082,0 0.21094,0 0.21094,-0.22266 0,-0.1289 -0.10547,-0.1289 -0.28125,-0.1289 -0.65625,0 -0.66797,-0.10547 -0.71485,-0.45703 l -0.72656,-7.46485 c -0.0234,-0.23437 -0.0703,-0.25781 -0.19922,-0.25781 -0.11719,0 -0.1875,0.0234 -0.30469,0.19922 z m 1.44141,-1.83984 2.40234,-4.01953 0.41016,4.01953 z m 0,0"
         style="fill:#000000;fill-opacity:1;fill-rule:nonzero;stroke:none" />
      <path
         id="path17"
         d="m 202.58395,370.2312 h -0.26953 c -0.0352,0.19922 -0.1289,0.85547 -0.24609,1.04297 -0.082,0.11719 -0.76172,0.11719 -1.125,0.11719 h -2.21485 c 0.32813,-0.28125 1.05469,-1.04297 1.3711,-1.33594 1.8164,-1.66406 2.48437,-2.28515 2.48437,-3.46875 0,-1.38281 -1.08984,-2.29687 -2.47265,-2.29687 -1.39453,0 -2.20313,1.18359 -2.20313,2.20312 0,0.60938 0.52735,0.60938 0.5625,0.60938 0.2461,0 0.5625,-0.17578 0.5625,-0.5625 0,-0.32813 -0.23437,-0.55078 -0.5625,-0.55078 -0.10547,0 -0.1289,0 -0.16406,0.0117 0.22266,-0.82031 0.86719,-1.37109 1.64062,-1.37109 1.01954,0 1.64063,0.85547 1.64063,1.95703 0,1.00781 -0.58594,1.89844 -1.26563,2.66016 l -2.41406,2.70703 v 0.28125 h 4.35938 z m 4.03418,-5.66015 c 0,-0.26953 0,-0.28125 -0.24609,-0.28125 -0.28125,0.3164 -0.87891,0.76172 -2.10938,0.76172 v 0.35156 c 0.26954,0 0.86719,0 1.52344,-0.31641 v 6.22266 c 0,0.43359 -0.0352,0.57422 -1.07812,0.57422 h -0.375 v 0.35156 c 0.3164,-0.0234 1.47656,-0.0234 1.875,-0.0234 0.39843,0 1.54687,0 1.86328,0.0234 v -0.35156 h -0.36328 c -1.05469,0 -1.08985,-0.14063 -1.08985,-0.57422 z m 7.76367,3.84375 c 0,-0.9961 -0.0586,-1.96875 -0.49218,-2.8711 -0.49219,-0.99609 -1.34766,-1.2539 -1.9336,-1.2539 -0.6914,0 -1.54687,0.33984 -1.98047,1.33593 -0.33984,0.75 -0.45703,1.48829 -0.45703,2.78907 0,1.16015 0.082,2.02734 0.51563,2.87109 0.45703,0.91406 1.28906,1.19531 1.91015,1.19531 1.04297,0 1.64063,-0.62109 1.98047,-1.3125 0.4336,-0.89062 0.45703,-2.0625 0.45703,-2.7539 z m -2.4375,3.83203 c -0.38671,0 -1.16015,-0.21094 -1.38281,-1.52344 -0.14062,-0.71484 -0.14062,-1.61719 -0.14062,-2.46094 0,-0.97265 0,-1.86328 0.19922,-2.5664 0.19921,-0.79688 0.80859,-1.17188 1.32421,-1.17188 0.45704,0 1.14844,0.28125 1.3711,1.30078 0.15234,0.67969 0.15234,1.62891 0.15234,2.4375 0,0.8086 0,1.71094 -0.1289,2.4375 -0.22266,1.32422 -0.97266,1.54688 -1.39454,1.54688 z m 0,0"
         style="fill:#000000;fill-opacity:1;fill-rule:nonzero;stroke:none" />
    </g>
  </g>
</svg>
