<?xml version="1.0" encoding="UTF-8" standalone="no"?>
<!-- Created with Inkscape (http://www.inkscape.org/) -->

<svg
   version="1.1"
   id="svg1"
   width="793.70135"
   height="1122.52"
   viewBox="0 0 793.70135 1122.52"
   sodipodi:docname="F1_M_PP_M2011_page21.pdf"
   xmlns:inkscape="http://www.inkscape.org/namespaces/inkscape"
   xmlns:sodipodi="http://sodipodi.sourceforge.net/DTD/sodipodi-0.dtd"
   xmlns="http://www.w3.org/2000/svg"
   xmlns:svg="http://www.w3.org/2000/svg">
  <defs
     id="defs1">
    <clipPath
       clipPathUnits="userSpaceOnUse"
       id="clipPath2">
      <path
         d="M -9,-9 H 605 V 851 H -9 Z"
         clip-rule="evenodd"
         id="path2" />
    </clipPath>
    <clipPath
       clipPathUnits="userSpaceOnUse"
       id="clipPath4">
      <path
         d="M -9,-9 H 605 V 851 H -9 Z"
         transform="matrix(1,0,0,-1,-352.88591,737.13512)"
         clip-rule="evenodd"
         id="path4" />
    </clipPath>
    <clipPath
       clipPathUnits="userSpaceOnUse"
       id="clipPath5">
      <path
         d="M -9,-9 H 605 V 851 H -9 Z"
         transform="matrix(1,0,0,-1,-379.22231,685.49642)"
         clip-rule="evenodd"
         id="path5" />
    </clipPath>
    <clipPath
       clipPathUnits="userSpaceOnUse"
       id="clipPath7">
      <path
         d="M -9,-9 H 605 V 851 H -9 Z"
         clip-rule="evenodd"
         id="path7" />
    </clipPath>
    <clipPath
       clipPathUnits="userSpaceOnUse"
       id="clipPath9">
      <path
         d="M -9,-9 H 605 V 851 H -9 Z"
         clip-rule="evenodd"
         id="path9" />
    </clipPath>
    <clipPath
       clipPathUnits="userSpaceOnUse"
       id="clipPath10">
      <path
         d="M -9,-9 H 605 V 851 H -9 Z"
         transform="matrix(1,0,0,-1,-379.79691,597.79301)"
         clip-rule="evenodd"
         id="path10" />
    </clipPath>
  </defs>
  <sodipodi:namedview
     id="namedview1"
     pagecolor="#ffffff"
     bordercolor="#000000"
     borderopacity="0.25"
     inkscape:showpageshadow="2"
     inkscape:pageopacity="0.0"
     inkscape:pagecheckerboard="0"
     inkscape:deskcolor="#d1d1d1">
    <inkscape:page
       x="0"
       y="0"
       inkscape:label="1"
       id="page1"
       width="793.70135"
       height="1122.52"
       margin="-12"
       bleed="12" />
  </sodipodi:namedview>
  <g
     id="g1"
     inkscape:groupmode="layer"
     inkscape:label="1">
    <path
       id="path1"
       d="m 353.6498,778.9765 h 19.1339 v -25.5118 h -19.1339 z m 19.1339,0 h 19.1338 v -25.5118 h -19.1338 z m 19.1338,0 h 19.1339 v -25.5118 h -19.1339 z m 19.1339,0 h 19.1339 v -25.5118 h -19.1339 z m 19.1339,0 h 19.1338 v -25.5118 h -19.1338 z m 19.1338,0 h 19.1339 v -25.5118 h -19.1339 z m 19.1339,0 h 19.1338 V 753.4647 H 468.453 Z m 19.1338,0 h 19.1339 v -25.5118 h -19.1339 z m 19.1339,0 h 19.1339 v -25.5118 h -19.1339 z"
       style="fill:none;stroke:#231f20;stroke-width:0.5;stroke-linecap:butt;stroke-linejoin:miter;stroke-miterlimit:22.9256;stroke-dasharray:none;stroke-opacity:1"
       transform="matrix(1.3333333,0,0,-1.3333333,0,1122.52)"
       clip-path="url(#clipPath2)" />
    <path
       id="path3"
       d="M 0.75081875,-9.9375e-4 V -7.16115 H 2.192225 v 3.1875 l 2.9179688,-3.1875 H 7.0555063 L 4.3601938,-4.3720875 7.1961313,-9.9375e-4 H 5.33285 L 3.3641,-3.364275 2.192225,-2.1572438 V -9.9375e-4 Z M 7.6648813,-3.5400563 c 0,-0.7265625 0.09375,-1.3359375 0.3164062,-1.828125 0.1640625,-0.375 0.3867188,-0.6914062 0.6679688,-0.984375 0.28125,-0.28125 0.5859375,-0.5039062 0.9140625,-0.6445312 0.4570312,-0.1875 0.9609372,-0.28125 1.5585942,-0.28125 1.042968,0 1.898437,0.328125 2.519531,0.984375 0.632812,0.6445312 0.960937,1.5585937 0.960937,2.71875 0,1.1601562 -0.328125,2.0625 -0.949218,2.71875 -0.621094,0.64453125 -1.464844,0.97265625 -2.519532,0.97265625 -1.066406,0 -1.910156,-0.31640625 -2.5312497,-0.97265625 -0.6328125,-0.6445313 -0.9375,-1.546875 -0.9375,-2.6835938 z m 1.4765625,-0.035156 c 0,0.8085937 0.1875,1.4179687 0.5625,1.8398437 0.3750002,0.4101563 0.8554692,0.6210938 1.4296872,0.6210938 0.574219,0 1.042969,-0.2109375 1.417969,-0.6210938 0.363281,-0.4101562 0.550781,-1.03125 0.550781,-1.8632812 0,-0.8203125 -0.1875,-1.4414063 -0.539062,-1.8398438 -0.351563,-0.3984375 -0.832031,-0.609375 -1.429688,-0.609375 -0.597656,0 -1.078125,0.2109375 -1.441406,0.6210938 -0.3632812,0.4101562 -0.5507812,1.0195312 -0.5507812,1.8515625 z M 15.715663,-7.16115 H 18.3641 c 0.597656,0 1.042969,0.058594 1.359375,0.140625 0.421875,0.1171875 0.785156,0.3398437 1.089844,0.65625 0.292969,0.3164062 0.515625,0.703125 0.679687,1.1601562 0.152344,0.4570313 0.222657,1.0195313 0.222657,1.6992188 0,0.5859375 -0.07031,1.0898437 -0.222657,1.5117187 -0.164062,0.5273438 -0.421875,0.9375 -0.75,1.2773438 -0.257812,0.234375 -0.597656,0.421875 -1.019531,0.5625 -0.328125,0.10546875 -0.75,0.15234375 -1.289062,0.15234375 h -2.71875 z m 1.453125,1.2070312 v 4.7460938 h 1.078125 c 0.398437,0 0.691406,-0.023437 0.867187,-0.070312 0.246094,-0.046875 0.433594,-0.1523438 0.597656,-0.2929688 0.152344,-0.140625 0.28125,-0.3632812 0.363282,-0.6914062 0.105468,-0.3164063 0.152343,-0.7617188 0.152343,-1.3125 0,-0.5507813 -0.04687,-0.9726563 -0.152343,-1.2773438 -0.08203,-0.2929687 -0.222657,-0.5273437 -0.410157,-0.6914062 -0.164062,-0.1640625 -0.398437,-0.2695313 -0.667968,-0.3398438 -0.199219,-0.046875 -0.585938,-0.070312 -1.171875,-0.070312 z m 8.557617,5.95312505 V -7.16115 h 5.308593 v 1.2070312 h -3.867187 v 1.59375 h 3.597656 v 1.1953125 h -3.597656 v 1.9570313 h 3.996094 v 1.20703125 z m 9.999023,-2.62500005 v -1.21875 h 3.117188 v 2.85937505 c -0.304688,0.29296875 -0.75,0.5390625 -1.3125,0.7734375 -0.585938,0.22265625 -1.160157,0.328125 -1.746094,0.328125 -0.75,0 -1.40625,-0.15234375 -1.96875,-0.46875 -0.550781,-0.3046875 -0.960938,-0.76171875 -1.242188,-1.34765625 -0.28125,-0.5742188 -0.421875,-1.21875 -0.421875,-1.8984375 0,-0.75 0.164063,-1.40625 0.46875,-1.9921875 0.304688,-0.5742188 0.773438,-1.03125 1.371094,-1.3242188 0.457031,-0.2460937 1.03125,-0.3632812 1.710938,-0.3632812 0.890625,0 1.582031,0.1875 2.085937,0.5625 0.503906,0.3632812 0.820313,0.890625 0.960938,1.5351562 L 37.319178,-4.91115 c -0.105469,-0.3515625 -0.304687,-0.6328125 -0.574219,-0.8320313 -0.28125,-0.1992187 -0.621093,-0.3046875 -1.042968,-0.3046875 -0.632813,0 -1.136719,0.1992188 -1.5,0.5976563 -0.386719,0.4101562 -0.5625,0.9960937 -0.5625,1.7929687 0,0.84375 0.1875,1.4765625 0.574218,1.9101563 0.363282,0.421875 0.867188,0.6328125 1.476563,0.6328125 0.292969,0 0.609375,-0.058594 0.914062,-0.1757813 0.292969,-0.1171875 0.5625,-0.2695312 0.773438,-0.4335937 V -2.6259938 Z M 39.55453,-9.9375e-4 V -1.301775 l 3.761718,-4.6523438 H 39.976405 V -7.16115 h 5.238281 v 1.125 l -3.914063,4.828125 h 4.066407 v 1.20703125 z m 13.177734,0 H 51.17367 L 50.552577,-1.6299 H 47.681483 L 47.095545,-9.9375e-4 H 45.560389 L 48.349452,-7.16115 h 1.523437 z m -2.648437,-2.82421875 -0.984375,-2.6601563 -0.972657,2.6601563 z m 3.410156,2.82421875 V -7.16115 h 2.15625 l 1.300781,4.8867187 1.277344,-4.8867187 h 2.167969 V -9.9375e-4 H 59.060389 V -5.6377125 L 57.64242,-9.9375e-4 H 56.247889 L 54.82992,-5.6377125 v 5.63671875 z m 8.296875,0 V -7.16115 h 1.453125 v 7.16015625 z m 2.838867,0 V -7.16115 h 1.40625 l 2.929688,4.78125 v -4.78125 h 1.347656 V -9.9375e-4 H 68.860194 L 65.977381,-4.6650563 v 4.66406255 z m 13.652344,0 H 76.723475 L 76.102381,-1.6299 H 73.231288 L 72.64535,-9.9375e-4 H 71.110194 L 73.899256,-7.16115 h 1.523438 z M 75.633631,-2.8252125 74.649256,-5.4853688 73.6766,-2.8252125 Z m 4.297852,2.82421875 V -5.9541188 H 77.810389 V -7.16115 h 5.671875 v 1.2070312 h -2.109375 v 5.95312505 z m 4.03125,-3.53906255 c 0,-0.7265625 0.09375,-1.3359375 0.316406,-1.828125 0.164063,-0.375 0.386719,-0.6914062 0.667969,-0.984375 0.28125,-0.28125 0.585937,-0.5039062 0.914062,-0.6445312 0.457032,-0.1875 0.960938,-0.28125 1.558594,-0.28125 1.042969,0 1.898438,0.328125 2.519531,0.984375 0.632813,0.6445312 0.960938,1.5585937 0.960938,2.71875 0,1.1601562 -0.328125,2.0625 -0.949219,2.71875 -0.621094,0.64453125 -1.464844,0.97265625 -2.519531,0.97265625 -1.066406,0 -1.910156,-0.31640625 -2.53125,-0.97265625 -0.632813,-0.6445313 -0.9375,-1.546875 -0.9375,-2.6835938 z m 1.476562,-0.035156 c 0,0.8085937 0.1875,1.4179687 0.5625,1.8398437 0.375,0.4101563 0.855469,0.6210938 1.429688,0.6210938 0.574219,0 1.042969,-0.2109375 1.417969,-0.6210938 0.363281,-0.4101562 0.550781,-1.03125 0.550781,-1.8632812 0,-0.8203125 -0.1875,-1.4414063 -0.539063,-1.8398438 -0.351562,-0.3984375 -0.832031,-0.609375 -1.429687,-0.609375 -0.597656,0 -1.078125,0.2109375 -1.441406,0.6210938 -0.363282,0.4101562 -0.550782,1.0195312 -0.550782,1.8515625 z m 6.583008,3.57421875 V -7.16115 h 3.046875 c 0.761719,0 1.324219,0.070312 1.664063,0.1875 0.351562,0.140625 0.632812,0.3632812 0.84375,0.6914062 0.199218,0.328125 0.304687,0.703125 0.304687,1.1367188 0,0.5273437 -0.164062,0.9726562 -0.480469,1.3242187 -0.304687,0.3515625 -0.773437,0.5742188 -1.40625,0.65625 0.304688,0.1875 0.574219,0.3867188 0.773438,0.609375 0.210937,0.2109375 0.480469,0.609375 0.820312,1.1601563 l 0.878907,1.39453125 H 96.733241 L 95.690272,-1.5595875 c -0.375,-0.5625 -0.621094,-0.9140625 -0.761719,-1.0546875 -0.128906,-0.140625 -0.28125,-0.234375 -0.433594,-0.2929688 -0.152343,-0.046875 -0.398437,-0.082031 -0.726562,-0.082031 h -0.292969 v 2.98828125 z m 1.453125,-4.12500005 h 1.066406 c 0.691407,0 1.125,-0.035156 1.300782,-0.09375 0.175781,-0.058594 0.304687,-0.1640625 0.398437,-0.3046875 0.105469,-0.140625 0.152344,-0.3164062 0.152344,-0.5390625 0,-0.234375 -0.07031,-0.421875 -0.1875,-0.5742187 -0.128906,-0.1523438 -0.316406,-0.2460938 -0.550781,-0.28125 -0.117188,-0.023437 -0.46875,-0.035156 -1.054688,-0.035156 h -1.125 z M 105.6893,-9.9375e-4 h -1.5586 L 103.50961,-1.6299 h -2.8711 l -0.58593,1.62890625 H 98.51742 L 101.30648,-7.16115 h 1.52344 z m -2.64844,-2.82421875 -0.98438,-2.6601563 -0.97265,2.6601563 z m 0,0"
       style="fill:#231f20;fill-opacity:1;fill-rule:nonzero;stroke:none"
       aria-label="KOD EGZAMINATORA"
       transform="matrix(1.3333333,0,0,1.3333333,470.51453,139.6732)"
       clip-path="url(#clipPath4)" />
    <text
       id="text4"
       xml:space="preserve"
       transform="matrix(1.3333333,0,0,1.3333333,505.62973,208.5248)"
       clip-path="url(#clipPath5)"><tspan
         style="font-variant:normal;font-weight:normal;font-size:9px;font-family:Arial;writing-mode:lr-tb;fill:#231f20;fill-opacity:1;fill-rule:nonzero;stroke:none"
         x="0 6.4980001 10.998 15.498 18 23.004 25.002001 30.006001 34.506001 37.007999 42.012001 47.015999 52.02 57.023998 59.021999 63.521999 66.024002 71.028 76.031998 80.531998 85.536003 93.032997 95.030998 100.035 105.039 107.541 112.545 115.542"
         y="0"
         sodipodi:role="line"
         id="tspan4">Czytelny podpis egzaminatora</tspan></text>
    <path
       id="path6"
       d="M 375.5908,696.2879 H 503.1499"
       style="fill:none;stroke:#231f20;stroke-width:0.5;stroke-linecap:butt;stroke-linejoin:miter;stroke-miterlimit:22.9256;stroke-dasharray:1, 1.5;stroke-dashoffset:0;stroke-opacity:1"
       transform="matrix(1.3333333,0,0,-1.3333333,0,1122.52)"
       clip-path="url(#clipPath7)" />
    <path
       id="path8"
       d="m 450.7081,646.2986 v -22.676 m -17.0076,22.676 v -22.676 m -17.0079,22.676 v -22.676 m -17.0076,22.676 v -22.676 m 0,0 h 51.0237 m -51.0237,22.676 h 51.0237"
       style="fill:none;stroke:#231f20;stroke-width:0.5;stroke-linecap:butt;stroke-linejoin:miter;stroke-miterlimit:22.9256;stroke-dasharray:none;stroke-opacity:1"
       transform="matrix(1.3333333,0,0,-1.3333333,0,1122.52)"
       clip-path="url(#clipPath9)" />
    <text
       id="text9"
       xml:space="preserve"
       transform="matrix(1.3333333,0,0,1.3333333,506.39587,325.46267)"
       clip-path="url(#clipPath10)"><tspan
         style="font-variant:normal;font-weight:normal;font-size:12px;font-family:Arial;writing-mode:lr-tb;fill:#231f20;fill-opacity:1;fill-rule:nonzero;stroke:none"
         x="0 8.0039997 17.34 26.004 29.34 36.672001 45.335999 53.34 59.34 67.344002 76.008003 84.012001 93.348"
         y="0"
         sodipodi:role="line"
         id="tspan9">KOD ZDAJ¥CEGO</tspan></text>
  </g>
</svg>
