<?xml version="1.0" encoding="UTF-8" standalone="no"?>
<!-- Created with Inkscape (http://www.inkscape.org/) -->

<svg
   version="1.1"
   id="svg1"
   width="793.62665"
   height="1122.6667"
   viewBox="0 0 793.62665 1122.6667"
   sodipodi:docname="F1_M_PP_M2013_page21.pdf"
   xmlns:inkscape="http://www.inkscape.org/namespaces/inkscape"
   xmlns:sodipodi="http://sodipodi.sourceforge.net/DTD/sodipodi-0.dtd"
   xmlns="http://www.w3.org/2000/svg"
   xmlns:svg="http://www.w3.org/2000/svg">
  <defs
     id="defs1" />
  <sodipodi:namedview
     id="namedview1"
     pagecolor="#ffffff"
     bordercolor="#000000"
     borderopacity="0.25"
     inkscape:showpageshadow="2"
     inkscape:pageopacity="0.0"
     inkscape:pagecheckerboard="0"
     inkscape:deskcolor="#d1d1d1">
    <inkscape:page
       x="0"
       y="0"
       inkscape:label="1"
       id="page1"
       width="793.62665"
       height="1122.6667"
       margin="0"
       bleed="0" />
  </sodipodi:namedview>
  <g
     id="g1"
     inkscape:groupmode="layer"
     inkscape:label="1">
    <path
       id="path1"
       d="m 3.2450391,-6.2812016 -0.7617188,2.625 h 0.6210938 c 0.4453125,0 0.7646484,-0.064453 0.9609375,-0.1992187 0.2021484,-0.140625 0.375,-0.3896484 0.515625,-0.75 h 0.1875 L 4.0887891,-2.2030766 H 3.8895703 c 0.052734,-0.2021484 0.082031,-0.375 0.082031,-0.515625 0,-0.140625 -0.029297,-0.2519531 -0.082031,-0.3398437 -0.055664,-0.084961 -0.1347656,-0.1464844 -0.234375,-0.1875 -0.1025391,-0.038086 -0.3134766,-0.058594 -0.6328125,-0.058594 H 2.4012891 L 1.7567578,-1.113233 c -0.064453,0.21093749 -0.09375,0.37499999 -0.09375,0.49218749 0,0.0791016 0.038086,0.15234375 0.1171875,0.22265625 0.052734,0.046875 0.1933594,0.0703125 0.421875,0.0703125 h 0.5859375 c 0.6328125,0 1.1396484,-0.11132813 1.5234375,-0.33984375 0.3808594,-0.22558594 0.7265625,-0.61523439 1.03125,-1.17187499 h 0.1875 L 4.8973828,4.84375e-5 h -5.12109374 l 0.0585938,-0.1757812475 c 0.2578125,-0.005859 0.42773438,-0.0292969 0.515625,-0.0703125 0.13183594,-0.0615234 0.22558594,-0.13476563 0.28125,-0.22265625 0.09375,-0.140625 0.19921875,-0.421875 0.31640625,-0.84375004 L 2.1083203,-5.3202641 c 0.09375,-0.3193359 0.140625,-0.5654296 0.140625,-0.7382812 0,-0.1230469 -0.043945,-0.2226563 -0.1289062,-0.2929688 -0.087891,-0.070312 -0.2548829,-0.1054687 -0.5039063,-0.1054687 H 1.5106641 l 0.058594,-0.1757813 h 4.7695313 l -0.4101563,1.59375 h -0.1875 c 0.023437,-0.1464843 0.035156,-0.2724609 0.035156,-0.375 0,-0.1699218 -0.043945,-0.3164062 -0.1289063,-0.4335937 C 5.5360547,-5.9940922 5.3778516,-6.10835 5.1669141,-6.1874516 c -0.1582032,-0.061523 -0.515625,-0.09375 -1.078125,-0.09375 z m 8.1005859,2.15625 -0.140625,0.5039063 h -0.808594 c 0.06152,0.1816406 0.09375,0.3486328 0.09375,0.5039062 0,0.4306641 -0.18457,0.8144532 -0.550781,1.1484375 -0.3691406,0.3369141 -0.8759766,0.5214844 -1.5234375,0.5507813 -0.3457031,0.1113281 -0.6035156,0.234375 -0.7734375,0.375 -0.064453,0.0556641 -0.09375,0.11132811 -0.09375,0.16406249 0,0.0644531 0.026367,0.12304687 0.082031,0.17578125 0.061523,0.0556641 0.2109375,0.11132812 0.4453125,0.1640625 l 0.9492188,0.22265625 c 0.5214844,0.12597656 0.8701172,0.26953125 1.0429687,0.43359375 0.164063,0.17871094 0.246094,0.37792969 0.246094,0.59765625 0,0.27246094 -0.09961,0.51855471 -0.292969,0.73828121 -0.196289,0.2167969 -0.4863281,0.3896485 -0.8671875,0.515625 -0.375,0.131836 -0.7939453,0.1992188 -1.2539062,0.1992188 -0.4072266,0 -0.7792969,-0.052734 -1.1132813,-0.1523438 C 6.458906,1.9219234 6.224531,1.7930172 6.083906,1.6289547 5.9374219,1.4648922 5.86125,1.2949703 5.86125,1.1250484 c 0,-0.14062496 0.046875,-0.29003902 0.140625,-0.44531246 0.09375,-0.14941406 0.2109375,-0.26953125 0.3515625,-0.36328125 0.084961,-0.0644531 0.3339844,-0.2109375 0.75,-0.4453125 -0.1582031,-0.1171875 -0.234375,-0.24609375 -0.234375,-0.38671875 0,-0.13183594 0.064453,-0.26953125 0.1992187,-0.41015625 0.131836,-0.14648439 0.413086,-0.31054689 0.84375,-0.49218749 C 7.5516797,-1.4794437 7.2675,-1.6288578 7.0565625,-1.8632328 6.845625,-2.0976078 6.7401562,-2.3554203 6.7401562,-2.6366703 c 0,-0.4599609 0.2021485,-0.8730469 0.609375,-1.2421875 0.4042969,-0.3662109 0.9492188,-0.5507813 1.6289063,-0.5507813 0.2402344,0 0.4394531,0.029297 0.5976562,0.082031 0.1552735,0.046875 0.3076172,0.1230469 0.4570313,0.2226562 z m -1.6875,0.7734375 c 0,-0.2636718 -0.076172,-0.4716796 -0.2226563,-0.6210937 C 9.2860547,-4.1190922 9.095625,-4.1952641 8.86125,-4.1952641 c -0.3691406,0 -0.6738281,0.1875 -0.9140625,0.5625 -0.234375,0.3691407 -0.3515625,0.75 -0.3515625,1.1484375 0,0.2519532 0.073242,0.4570313 0.2226562,0.6210938 0.1552735,0.1582031 0.3427735,0.234375 0.5625,0.234375 0.1699219,0 0.3339844,-0.046875 0.4921875,-0.140625 0.1640625,-0.09375 0.2988282,-0.2226563 0.4101563,-0.3867188 0.1171875,-0.1699218 0.2050781,-0.3867187 0.2695312,-0.6445312 0.070312,-0.2578125 0.1054688,-0.4394531 0.1054688,-0.5507813 z M 7.314375,4.84375e-5 C 7.0477734,0.11723594 6.845625,0.26957969 6.705,0.45707969 6.5702344,0.65043906 6.5057812,0.83793906 6.5057812,1.0195797 c 0,0.2167969 0.09668,0.3984375 0.2929688,0.5390625 0.28125,0.2021484 0.6914062,0.3046875 1.2304687,0.3046875 0.46875,0 0.8671875,-0.082031 1.1953125,-0.2460938 0.3339844,-0.1582031 0.5039063,-0.3603515 0.5039063,-0.609375 0,-0.12597652 -0.064453,-0.24609371 -0.1875,-0.36328121 C 9.42375,0.52739219 9.1835156,0.43364219 8.8260937,0.36332969 8.6385937,0.32231406 8.1346875,0.20219688 7.314375,4.84375e-5 Z M 11.993086,-4.3124516 h 3.105469 v 0.1289063 l -3.386719,3.51562499 h 1.441406 c 0.333985,0 0.544922,-0.0117188 0.632813,-0.0351563 0.09375,-0.0234375 0.178711,-0.0761719 0.257812,-0.1640625 C 14.120039,-0.9521 14.20793,-1.1073734 14.30168,-1.3358891 h 0.1875 L 14.055586,4.84375e-5 H 10.879805 V -0.14057656 l 3.375,-3.52734374 h -1.40625 c -0.298828,0 -0.477539,0.00879 -0.539063,0.023437 -0.08789,0.023437 -0.175781,0.079102 -0.269531,0.1640625 -0.08789,0.079102 -0.175781,0.2167969 -0.269531,0.4101562 h -0.1875 z m 7.760742,-0.1171875 -0.949219,3.3164063 -0.105468,0.44531249 c -0.01758,0.046875 -0.02344,0.0820313 -0.02344,0.10546875 0,0.0556641 0.01758,0.10253906 0.05859,0.140625 0.02344,0.0322266 0.05273,0.046875 0.09375,0.046875 0.03809,0 0.09375,-0.0263672 0.164062,-0.0820313 0.123047,-0.09375 0.292969,-0.28710938 0.503907,-0.58593744 l 0.175781,0.11718744 c -0.228516,0.34570312 -0.462891,0.60644531 -0.703125,0.78515625 -0.234375,0.16992187 -0.454102,0.2578125 -0.65625,0.2578125 -0.140625,0 -0.246094,-0.03515625 -0.316406,-0.10546875 -0.07031,-0.0703125 -0.105469,-0.16992188 -0.105469,-0.3046875 0,-0.1640625 0.03516,-0.375 0.105469,-0.6328125 l 0.105468,-0.36328124 c -0.430664,0.55664061 -0.826172,0.94628905 -1.183593,1.17187499 -0.257813,0.15527344 -0.509766,0.234375 -0.75,0.234375 -0.243164,0 -0.451172,-0.09960938 -0.621094,-0.29296875 -0.172852,-0.19335938 -0.257813,-0.46875 -0.257813,-0.8203125 0,-0.51562494 0.155274,-1.05761724 0.46875,-1.62890624 0.310547,-0.5771485 0.706055,-1.0429688 1.183594,-1.3945312 0.375,-0.2724609 0.729492,-0.4101563 1.066406,-0.4101563 0.19336,0 0.357422,0.055664 0.492188,0.1640625 0.131836,0.102539 0.234375,0.2753907 0.304687,0.515625 l 0.175782,-0.5625 z m -1.734375,0.2578125 c -0.210937,0 -0.433594,0.099609 -0.667969,0.2929688 -0.336914,0.2753906 -0.632812,0.6855469 -0.890625,1.2304687 -0.257812,0.5478516 -0.386718,1.0400391 -0.386718,1.4765625 0,0.22851566 0.05273,0.4072266 0.164062,0.53906254 0.108399,0.12597656 0.237305,0.1875 0.386719,0.1875 0.351562,0 0.738281,-0.26367188 1.160156,-0.79687504 0.553711,-0.6943359 0.832031,-1.4091796 0.832031,-2.1445312 0,-0.2724609 -0.05566,-0.4716797 -0.164062,-0.5976563 -0.111328,-0.1230468 -0.254883,-0.1875 -0.433594,-0.1875 z m 4.22168,-0.2578125 -0.632813,2.203125 c 0.28125,-0.515625 0.521485,-0.9023437 0.726563,-1.1601562 0.310547,-0.4042969 0.612304,-0.6972656 0.902344,-0.8789063 0.169921,-0.1083984 0.351562,-0.1640625 0.539062,-0.1640625 0.164063,0 0.298828,0.055664 0.410156,0.1640625 0.108399,0.1025391 0.164063,0.234375 0.164063,0.3984375 0,0.1582032 -0.04102,0.3632813 -0.117188,0.6210938 l -0.339843,1.2421875 c 0.530273,-0.9902344 1.034179,-1.6875 1.511718,-2.0859375 0.257813,-0.2255859 0.515625,-0.3398438 0.773438,-0.3398438 0.155273,0 0.28125,0.052734 0.375,0.1523438 0.09375,0.1025391 0.140625,0.2636719 0.140625,0.4804687 0,0.1875 -0.0293,0.3867188 -0.08203,0.5976563 l -0.539063,1.9101562 c -0.117187,0.41601566 -0.175781,0.64453129 -0.175781,0.69140629 0,0.0410156 0.01465,0.0791016 0.04687,0.1171875 0.01465,0.0234375 0.03809,0.0351563 0.07031,0.0351563 0.0293,0 0.08789,-0.0292969 0.175782,-0.09375 0.1875,-0.14648438 0.363281,-0.33984375 0.527343,-0.57421879 l 0.152344,0.1054687 c -0.0791,0.13476571 -0.222656,0.31347665 -0.433594,0.53906259 C 26.231367,-0.24018594 26.055586,-0.0849125 25.909102,4.84375e-5 25.759687,0.07622031 25.621992,0.11723594 25.498945,0.11723594 c -0.111328,0 -0.205078,-0.04101563 -0.28125,-0.1171875025 -0.0791,-0.0761718775 -0.117187,-0.1757812475 -0.117187,-0.2929687475 0,-0.15527344 0.06445,-0.46875 0.199219,-0.93749999 l 0.445312,-1.5703125 c 0.09961,-0.3662109 0.155273,-0.5683594 0.164063,-0.609375 0.0059,-0.052734 0.01172,-0.1113281 0.01172,-0.1757813 0,-0.076172 -0.01758,-0.140625 -0.04687,-0.1875 -0.04101,-0.046875 -0.08789,-0.070312 -0.140625,-0.070312 -0.134765,0 -0.27832,0.070312 -0.433593,0.2109375 -0.445313,0.4160157 -0.864258,0.9931641 -1.253907,1.734375 -0.257812,0.4921875 -0.500976,1.12500004 -0.726562,1.8984375375 H 22.580977 L 23.413008,-2.9647953 c 0.09375,-0.3105469 0.140625,-0.5214844 0.140625,-0.6328125 0,-0.09375 -0.02051,-0.1582031 -0.05859,-0.1992188 -0.03223,-0.038086 -0.07617,-0.058594 -0.128906,-0.058594 -0.111328,0 -0.222656,0.041016 -0.339844,0.1171875 -0.196289,0.1259766 -0.451172,0.3984375 -0.761719,0.8203125 -0.304687,0.4160156 -0.544922,0.8144531 -0.714843,1.1953125 -0.0791,0.1816406 -0.275391,0.75585936 -0.585938,1.7226562375 H 20.248945 L 21.151289,-3.1757328 21.268477,-3.5858891 c 0.02344,-0.061523 0.03516,-0.1054687 0.03516,-0.1289062 0,-0.070312 -0.03516,-0.1318359 -0.105469,-0.1875 -0.06445,-0.061523 -0.146484,-0.09375 -0.246094,-0.09375 -0.04101,0 -0.158203,0.020508 -0.351562,0.058594 l -0.04687,-0.1875 z m 7.3125,-1.9453125 c 0.140625,0 0.257812,0.052734 0.351562,0.1523438 0.09375,0.09375 0.140625,0.2080078 0.140625,0.3398437 0,0.1347657 -0.05273,0.2519532 -0.152343,0.3515625 -0.09375,0.09375 -0.208008,0.140625 -0.339844,0.140625 -0.134766,0 -0.251953,-0.046875 -0.351563,-0.140625 -0.09375,-0.099609 -0.140625,-0.2167968 -0.140625,-0.3515625 0,-0.1318359 0.04687,-0.2460937 0.140625,-0.3398437 0.09961,-0.099609 0.216797,-0.1523438 0.351563,-0.1523438 z m 0.07031,1.9453125 -0.972656,3.43359379 c -0.06445,0.22851562 -0.09375,0.36328125 -0.09375,0.41015625 0,0.0556641 0.01465,0.0996094 0.04687,0.12890625 0.0293,0.0322266 0.06445,0.046875 0.105469,0.046875 0.04687,0 0.105469,-0.0234375 0.175781,-0.0703125 0.1875,-0.14648438 0.375,-0.35742188 0.5625,-0.63281249 l 0.175781,0.11718749 c -0.228515,0.33691406 -0.489258,0.62109375 -0.785156,0.85546875 -0.228516,0.16992187 -0.439453,0.2578125 -0.632812,0.2578125 -0.140625,0 -0.254883,-0.04101563 -0.339844,-0.1171875025 C 27.787031,-0.07612344 27.748945,-0.1786625 27.748945,-0.30463906 c 0,-0.1171875 0.03809,-0.31640625 0.117188,-0.59765625 l 0.632812,-2.19140629 c 0.108399,-0.3574218 0.164063,-0.5859375 0.164063,-0.6796875 0,-0.070312 -0.0293,-0.1289062 -0.08203,-0.1757812 -0.04687,-0.046875 -0.114258,-0.070312 -0.199219,-0.070312 -0.0791,0 -0.228516,0.020508 -0.445313,0.058594 v -0.1875 z m 2.698242,0 -0.65625,2.2265625 c 0.609375,-0.9052734 1.072266,-1.5029296 1.394532,-1.7929687 0.328125,-0.2871094 0.644531,-0.4335938 0.949218,-0.4335938 0.164063,0 0.295899,0.055664 0.398438,0.1640625 0.108398,0.1113282 0.164062,0.2519532 0.164062,0.421875 0,0.1962891 -0.04687,0.4570313 -0.140625,0.7851563 l -0.597656,2.0507812 c -0.07031,0.2431641 -0.105469,0.39257816 -0.105469,0.44531254 0,0.0410156 0.01172,0.0761719 0.03516,0.10546875 0.0293,0.0322266 0.05859,0.046875 0.08203,0.046875 0.03809,0 0.08496,-0.0175781 0.140625,-0.0585938 0.178711,-0.140625 0.369141,-0.3515625 0.574219,-0.63281259 l 0.152343,0.09375 c -0.304687,0.43945321 -0.594726,0.75000009 -0.867187,0.93750009 -0.1875,0.12304687 -0.357422,0.1875 -0.503906,0.1875 -0.117188,0 -0.216797,-0.04101563 -0.292969,-0.1171875025 C 32.978437,-0.07026406 32.943281,-0.16694375 32.943281,-0.29292031 c 0,-0.15527344 0.05273,-0.42480469 0.164063,-0.80859379 l 0.574218,-1.9570312 c 0.07031,-0.2490234 0.105469,-0.4394531 0.105469,-0.5742188 0,-0.070312 -0.02344,-0.1230468 -0.07031,-0.1640625 -0.04102,-0.038086 -0.09082,-0.058594 -0.152344,-0.058594 -0.09375,0 -0.205078,0.041016 -0.328125,0.1171875 -0.243164,0.1494141 -0.498047,0.3925781 -0.761719,0.7265625 -0.257812,0.3369141 -0.533203,0.7675781 -0.820312,1.2890625 -0.149414,0.28125 -0.275391,0.5859375 -0.375,0.91406249 L 31.033125,4.84375e-5 H 30.294844 L 31.185469,-3.0585453 c 0.108398,-0.375 0.164062,-0.5976563 0.164062,-0.6679688 0,-0.070312 -0.03223,-0.1318359 -0.09375,-0.1875 -0.05566,-0.052734 -0.125976,-0.082031 -0.210937,-0.082031 -0.04102,0 -0.105469,0.00879 -0.199219,0.023437 l -0.1875,0.023437 -0.03516,-0.1757813 z m 7.491211,0 -0.632812,2.203125 c 0.28125,-0.515625 0.521484,-0.9023437 0.726562,-1.1601562 0.310547,-0.4042969 0.612305,-0.6972656 0.902344,-0.8789063 0.169922,-0.1083984 0.351563,-0.1640625 0.539063,-0.1640625 0.164062,0 0.298828,0.055664 0.410156,0.1640625 0.108398,0.1025391 0.164062,0.234375 0.164062,0.3984375 0,0.1582032 -0.04102,0.3632813 -0.117187,0.6210938 l -0.339844,1.2421875 c 0.530274,-0.9902344 1.03418,-1.6875 1.511719,-2.0859375 0.257812,-0.2255859 0.515625,-0.3398438 0.773437,-0.3398438 0.155274,0 0.28125,0.052734 0.375,0.1523438 0.09375,0.1025391 0.140625,0.2636719 0.140625,0.4804687 0,0.1875 -0.0293,0.3867188 -0.08203,0.5976563 l -0.539062,1.9101562 c -0.117188,0.41601566 -0.175782,0.64453129 -0.175782,0.69140629 0,0.0410156 0.01465,0.0791016 0.04687,0.1171875 0.01465,0.0234375 0.03809,0.0351563 0.07031,0.0351563 0.0293,0 0.08789,-0.0292969 0.175781,-0.09375 0.1875,-0.14648438 0.363281,-0.33984375 0.527344,-0.57421879 l 0.152344,0.1054687 c -0.0791,0.13476571 -0.222657,0.31347665 -0.433594,0.53906259 C 43.803633,-0.24018594 43.627852,-0.0849125 43.481367,4.84375e-5 43.331953,0.07622031 43.194258,0.11723594 43.071211,0.11723594 c -0.111328,0 -0.205078,-0.04101563 -0.28125,-0.1171875025 -0.0791,-0.0761718775 -0.117188,-0.1757812475 -0.117188,-0.2929687475 0,-0.15527344 0.06445,-0.46875 0.199219,-0.93749999 l 0.445313,-1.5703125 c 0.09961,-0.3662109 0.155273,-0.5683594 0.164062,-0.609375 0.0059,-0.052734 0.01172,-0.1113281 0.01172,-0.1757813 0,-0.076172 -0.01758,-0.140625 -0.04687,-0.1875 -0.04102,-0.046875 -0.08789,-0.070312 -0.140625,-0.070312 -0.134766,0 -0.27832,0.070312 -0.433594,0.2109375 -0.445312,0.4160157 -0.864258,0.9931641 -1.253906,1.734375 -0.257813,0.4921875 -0.500977,1.12500004 -0.726563,1.8984375375 H 40.153242 L 40.985273,-2.9647953 c 0.09375,-0.3105469 0.140625,-0.5214844 0.140625,-0.6328125 0,-0.09375 -0.02051,-0.1582031 -0.05859,-0.1992188 -0.03223,-0.038086 -0.07617,-0.058594 -0.128907,-0.058594 -0.111328,0 -0.222656,0.041016 -0.339843,0.1171875 -0.196289,0.1259766 -0.451172,0.3984375 -0.761719,0.8203125 -0.304688,0.4160156 -0.544922,0.8144531 -0.714844,1.1953125 -0.0791,0.1816406 -0.27539,0.75585936 -0.585937,1.7226562375 H 37.821211 L 38.723555,-3.1757328 38.840742,-3.5858891 c 0.02344,-0.061523 0.03516,-0.1054687 0.03516,-0.1289062 0,-0.070312 -0.03516,-0.1318359 -0.105468,-0.1875 -0.06445,-0.061523 -0.146485,-0.09375 -0.246094,-0.09375 -0.04102,0 -0.158203,0.020508 -0.351563,0.058594 l -0.04687,-0.1875 z m 9.773438,0 -0.949219,3.3164063 -0.105469,0.44531249 c -0.01758,0.046875 -0.02344,0.0820313 -0.02344,0.10546875 0,0.0556641 0.01758,0.10253906 0.05859,0.140625 0.02344,0.0322266 0.05273,0.046875 0.09375,0.046875 0.03809,0 0.09375,-0.0263672 0.164062,-0.0820313 0.123047,-0.09375 0.292969,-0.28710938 0.503906,-0.58593744 l 0.175782,0.11718744 c -0.228516,0.34570312 -0.462891,0.60644531 -0.703125,0.78515625 -0.234375,0.16992187 -0.454102,0.2578125 -0.65625,0.2578125 -0.140625,0 -0.246094,-0.03515625 -0.316407,-0.10546875 -0.07031,-0.0703125 -0.105468,-0.16992188 -0.105468,-0.3046875 0,-0.1640625 0.03516,-0.375 0.105468,-0.6328125 l 0.105469,-0.36328124 c -0.430664,0.55664061 -0.826172,0.94628905 -1.183594,1.17187499 -0.257812,0.15527344 -0.509765,0.234375 -0.75,0.234375 -0.243164,0 -0.451171,-0.09960938 -0.621093,-0.29296875 -0.172852,-0.19335938 -0.257813,-0.46875 -0.257813,-0.8203125 0,-0.51562494 0.155274,-1.05761724 0.46875,-1.62890624 0.310547,-0.5771485 0.706055,-1.0429688 1.183594,-1.3945312 0.375,-0.2724609 0.729492,-0.4101563 1.066406,-0.4101563 0.19336,0 0.357422,0.055664 0.492188,0.1640625 0.131836,0.102539 0.234375,0.2753907 0.304687,0.515625 l 0.175781,-0.5625 z m -1.734375,0.2578125 c -0.210938,0 -0.433594,0.099609 -0.667969,0.2929688 -0.336914,0.2753906 -0.632812,0.6855469 -0.890625,1.2304687 -0.257812,0.5478516 -0.386719,1.0400391 -0.386719,1.4765625 0,0.22851566 0.05273,0.4072266 0.164063,0.53906254 0.108398,0.12597656 0.237305,0.1875 0.386719,0.1875 0.351562,0 0.738281,-0.26367188 1.160156,-0.79687504 0.553711,-0.6943359 0.832031,-1.4091796 0.832031,-2.1445312 0,-0.2724609 -0.05566,-0.4716797 -0.164062,-0.5976563 -0.111328,-0.1230468 -0.254883,-0.1875 -0.433594,-0.1875 z m 4.655273,-1.4648437 -0.375,1.3242187 h 0.761719 l -0.08203,0.3164063 h -0.761719 l -0.84375,2.8828125 c -0.08789,0.30468749 -0.128906,0.50390624 -0.128906,0.59765624 0,0.0556641 0.01172,0.0996094 0.03516,0.12890625 0.02344,0.0322266 0.05273,0.046875 0.09375,0.046875 0.07617,0 0.181641,-0.0585938 0.316406,-0.17578125 0.07617,-0.0615234 0.251953,-0.26074219 0.527344,-0.59765624 l 0.164063,0.11718749 c -0.304688,0.43945312 -0.591797,0.74707031 -0.855469,0.92578125 -0.181641,0.12304687 -0.363281,0.1875 -0.550781,0.1875 -0.140625,0 -0.257813,-0.04394531 -0.351563,-0.12890625 -0.09375,-0.09375 -0.140625,-0.2109375 -0.140625,-0.3515625 0,-0.16992188 0.05273,-0.43945313 0.164063,-0.80859379 l 0.808593,-2.8242187 h -0.738281 l 0.05859,-0.1992188 c 0.351562,-0.09375 0.644531,-0.2373046 0.878906,-0.4335937 0.240234,-0.1933594 0.509766,-0.5302734 0.808594,-1.0078125 z m 4.904297,1.3242187 -0.84375,2.9179688 c -0.125976,0.43945311 -0.1875,0.71191405 -0.1875,0.82031249 0,0.0644531 0.0059,0.11132812 0.02344,0.140625 0.02344,0.0234375 0.05273,0.0351563 0.09375,0.0351563 0.05273,0 0.111328,-0.0234375 0.175781,-0.0703125 0.07031,-0.0527344 0.237305,-0.2578125 0.503906,-0.60937499 L 57.33,-0.97260781 c -0.257813,0.41601562 -0.524414,0.71484375 -0.796875,0.90234375 -0.181641,0.12304687 -0.351563,0.1875 -0.515625,0.1875 -0.125977,0 -0.228516,-0.03515625 -0.304688,-0.10546875 -0.07031,-0.0703125 -0.105468,-0.1640625 -0.105468,-0.28125 0,-0.10839844 0.02344,-0.2578125 0.07031,-0.4453125 0.05273,-0.234375 0.202149,-0.75585939 0.445313,-1.57031249 -0.556641,0.9140625 -1.019532,1.5439453 -1.394532,1.88671874 -0.375,0.34570312 -0.723632,0.515625 -1.042968,0.515625 -0.149414,0 -0.278321,-0.05273438 -0.386719,-0.15234375 -0.102539,-0.10839844 -0.152344,-0.24023438 -0.152344,-0.3984375 0,-0.24023438 0.07324,-0.61523439 0.222656,-1.12499999 l 0.421875,-1.5117188 c 0.09961,-0.3662109 0.152344,-0.5917968 0.152344,-0.6796875 0,-0.038086 -0.01758,-0.070312 -0.04687,-0.09375 -0.02344,-0.029297 -0.05273,-0.046875 -0.08203,-0.046875 -0.07031,0 -0.140625,0.029297 -0.210938,0.082031 -0.06445,0.046875 -0.216796,0.2285156 -0.457031,0.5390625 l -0.152344,-0.1054688 c 0.240235,-0.3808593 0.498047,-0.6621093 0.773438,-0.84375 0.210937,-0.140625 0.404297,-0.2109375 0.585937,-0.2109375 0.117188,0 0.213868,0.041016 0.292969,0.1171875 0.07617,0.079102 0.117188,0.1757813 0.117188,0.2929688 0,0.1816406 -0.06738,0.4980469 -0.199219,0.9492187 l -0.457031,1.5820313 c -0.125977,0.4306641 -0.1875,0.7001953 -0.1875,0.80859374 0,0.0644531 0.01758,0.11425781 0.05859,0.15234375 0.03809,0.0410156 0.09375,0.0585937 0.164063,0.0585937 0.108398,0 0.249023,-0.0527344 0.421875,-0.1640625 0.169922,-0.10839844 0.401367,-0.34570313 0.691406,-0.71484379 0.28711,-0.3662109 0.527344,-0.7089844 0.714844,-1.03125 0.1875,-0.328125 0.386719,-0.8466797 0.597656,-1.5585938 l 0.105469,-0.375 z m 0.834961,0.1640625 1.6875,-0.28125 -0.703125,2.3789063 c 0.56836,-0.9755859 1.089844,-1.6552734 1.558594,-2.0390625 0.257812,-0.2255859 0.47168,-0.3398438 0.644531,-0.3398438 0.108399,0 0.19043,0.032227 0.246094,0.09375 0.06152,0.064453 0.09375,0.1582032 0.09375,0.28125 0,0.2109375 -0.05566,0.4189454 -0.164063,0.6210938 -0.0791,0.140625 -0.193359,0.2109375 -0.339843,0.2109375 -0.07031,0 -0.134766,-0.023437 -0.1875,-0.070312 -0.05566,-0.046875 -0.09082,-0.1201172 -0.105469,-0.2226563 0,-0.061523 -0.01172,-0.1054687 -0.03516,-0.1289062 -0.03223,-0.023437 -0.06445,-0.035156 -0.09375,-0.035156 -0.05566,0 -0.111328,0.011719 -0.164063,0.035156 -0.08789,0.046875 -0.216797,0.1757812 -0.386719,0.3867187 -0.266601,0.3222657 -0.55957,0.7353516 -0.878906,1.2421875 -0.134765,0.2197266 -0.251953,0.4628907 -0.351562,0.7265625 -0.134766,0.37500004 -0.210938,0.59765629 -0.234375,0.66796879 L 58.680586,4.84375e-5 h -0.75 L 58.83293,-3.0351078 c 0.09961,-0.3515625 0.152343,-0.6035156 0.152343,-0.7617188 0,-0.052734 -0.02344,-0.099609 -0.07031,-0.140625 -0.06445,-0.052734 -0.149414,-0.082031 -0.257813,-0.082031 -0.07031,0 -0.196289,0.017578 -0.375,0.046875 z m 8.077149,-0.28125 -0.949219,3.3164063 -0.105469,0.44531249 c -0.01758,0.046875 -0.02344,0.0820313 -0.02344,0.10546875 0,0.0556641 0.01758,0.10253906 0.05859,0.140625 0.02344,0.0322266 0.05273,0.046875 0.09375,0.046875 0.03809,0 0.09375,-0.0263672 0.164063,-0.0820313 0.123047,-0.09375 0.292969,-0.28710938 0.503906,-0.58593744 l 0.175781,0.11718744 c -0.228515,0.34570312 -0.46289,0.60644531 -0.703125,0.78515625 -0.234375,0.16992187 -0.454101,0.2578125 -0.65625,0.2578125 -0.140625,0 -0.246093,-0.03515625 -0.316406,-0.10546875 -0.07031,-0.0703125 -0.105469,-0.16992188 -0.105469,-0.3046875 0,-0.1640625 0.03516,-0.375 0.105469,-0.6328125 l 0.105469,-0.36328124 c -0.430664,0.55664061 -0.826172,0.94628905 -1.183594,1.17187499 -0.257812,0.15527344 -0.509766,0.234375 -0.75,0.234375 -0.243164,0 -0.451172,-0.09960938 -0.621094,-0.29296875 -0.172851,-0.19335938 -0.257812,-0.46875 -0.257812,-0.8203125 0,-0.51562494 0.155273,-1.05761724 0.46875,-1.62890624 0.310547,-0.5771485 0.706055,-1.0429688 1.183594,-1.3945312 0.375,-0.2724609 0.729492,-0.4101563 1.066406,-0.4101563 0.193359,0 0.357422,0.055664 0.492187,0.1640625 0.131836,0.102539 0.234375,0.2753907 0.304688,0.515625 l 0.175781,-0.5625 z m -1.734375,0.2578125 c -0.210938,0 -0.433594,0.099609 -0.667969,0.2929688 -0.336914,0.2753906 -0.632813,0.6855469 -0.890625,1.2304687 -0.257813,0.5478516 -0.386719,1.0400391 -0.386719,1.4765625 0,0.22851566 0.05273,0.4072266 0.164063,0.53906254 0.108398,0.12597656 0.237304,0.1875 0.386718,0.1875 0.351563,0 0.738282,-0.26367188 1.160157,-0.79687504 0.553711,-0.6943359 0.832031,-1.4091796 0.832031,-2.1445312 0,-0.2724609 -0.05566,-0.4716797 -0.164063,-0.5976563 -0.111328,-0.1230468 -0.254882,-0.1875 -0.433593,-0.1875 z m 5.030273,-2.7890625 -1.675781,5.8242188 c -0.0791,0.29003905 -0.117188,0.46874999 -0.117188,0.53906249 0,0.046875 0.01465,0.0878906 0.04687,0.1171875 0.0293,0.0322266 0.07031,0.046875 0.117188,0.046875 0.06152,0 0.128906,-0.0263672 0.199219,-0.0820312 0.169921,-0.13183594 0.345703,-0.33984375 0.527343,-0.62109379 l 0.152344,0.15234379 c -0.313477,0.43945312 -0.597656,0.74414062 -0.855469,0.9140625 -0.196289,0.12304687 -0.380859,0.1875 -0.550781,0.1875 -0.125977,0 -0.231445,-0.04394531 -0.316406,-0.12890625 -0.0791,-0.08496094 -0.117188,-0.18164063 -0.117188,-0.29296875 0,-0.1171875 0.0498,-0.35742188 0.152344,-0.72656259 l 1.324219,-4.5820312 c 0.108398,-0.375 0.164062,-0.5888672 0.164062,-0.6445313 0,-0.076172 -0.03223,-0.140625 -0.09375,-0.1875 -0.06445,-0.052734 -0.158203,-0.082031 -0.28125,-0.082031 -0.0791,0 -0.196289,0.011719 -0.351562,0.035156 v -0.1875 z m 2.030273,2.53125 -0.65625,2.2265625 c 0.609375,-0.9052734 1.072266,-1.5029296 1.394532,-1.7929687 0.328125,-0.2871094 0.644531,-0.4335938 0.949218,-0.4335938 0.164063,0 0.295899,0.055664 0.398438,0.1640625 0.108398,0.1113282 0.164062,0.2519532 0.164062,0.421875 0,0.1962891 -0.04687,0.4570313 -0.140625,0.7851563 l -0.597656,2.0507812 c -0.07031,0.2431641 -0.105469,0.39257816 -0.105469,0.44531254 0,0.0410156 0.01172,0.0761719 0.03516,0.10546875 0.0293,0.0322266 0.05859,0.046875 0.08203,0.046875 0.03809,0 0.08496,-0.0175781 0.140625,-0.0585938 0.178711,-0.140625 0.369141,-0.3515625 0.574219,-0.63281259 l 0.152343,0.09375 c -0.304687,0.43945321 -0.594726,0.75000009 -0.867187,0.93750009 -0.1875,0.12304687 -0.357422,0.1875 -0.503906,0.1875 -0.117188,0 -0.216797,-0.04101563 -0.292969,-0.1171875025 C 72.306562,-0.07026406 72.271406,-0.16694375 72.271406,-0.29292031 c 0,-0.15527344 0.05273,-0.42480469 0.164063,-0.80859379 l 0.574218,-1.9570312 c 0.07031,-0.2490234 0.105469,-0.4394531 0.105469,-0.5742188 0,-0.070312 -0.02344,-0.1230468 -0.07031,-0.1640625 -0.04102,-0.038086 -0.09082,-0.058594 -0.152344,-0.058594 -0.09375,0 -0.205078,0.041016 -0.328125,0.1171875 -0.243164,0.1494141 -0.498047,0.3925781 -0.761719,0.7265625 -0.257812,0.3369141 -0.533203,0.7675781 -0.820312,1.2890625 -0.149414,0.28125 -0.275391,0.5859375 -0.375,0.91406249 L 70.36125,4.84375e-5 H 69.622969 L 70.513594,-3.0585453 c 0.108398,-0.375 0.164062,-0.5976563 0.164062,-0.6679688 0,-0.070312 -0.03223,-0.1318359 -0.09375,-0.1875 -0.05566,-0.052734 -0.125976,-0.082031 -0.210937,-0.082031 -0.04102,0 -0.105469,0.00879 -0.199219,0.023437 l -0.1875,0.023437 -0.03516,-0.1757813 z m 4.397461,0 c 0.108399,0.1875 0.181641,0.3691407 0.222657,0.5390625 0.04687,0.1640625 0.09375,0.4863282 0.140625,0.9609375 l 0.210937,2.41406254 c 0.19336,-0.234375 0.480469,-0.60351564 0.855469,-1.11328124 0.178711,-0.2490234 0.398437,-0.5888672 0.65625,-1.0195313 0.164062,-0.2578125 0.260742,-0.4394531 0.292969,-0.5507812 0.02344,-0.046875 0.03516,-0.09668 0.03516,-0.1523438 0,-0.038086 -0.01172,-0.070312 -0.03516,-0.09375 -0.02344,-0.023437 -0.08203,-0.049805 -0.175782,-0.082031 -0.09375,-0.029297 -0.175781,-0.084961 -0.246093,-0.1640625 -0.06445,-0.084961 -0.09375,-0.1816406 -0.09375,-0.2929688 0,-0.1318359 0.03809,-0.2373046 0.117187,-0.3164062 0.07617,-0.084961 0.175781,-0.1289063 0.292969,-0.1289063 0.146484,0 0.272461,0.064453 0.375,0.1875 0.09961,0.1171875 0.152344,0.2783204 0.152344,0.4804688 0,0.2578125 -0.09082,0.5566406 -0.269532,0.890625 -0.18164,0.328125 -0.521484,0.8378906 -1.019531,1.5234375 -0.500976,0.67968749 -1.110351,1.42382811 -1.828125,2.23828124 -0.492185,0.55371076 -0.861326,0.90527326 -1.10156,1.05468726 -0.234375,0.1464844 -0.433594,0.2226563 -0.597657,0.2226563 -0.09961,0 -0.190429,-0.041016 -0.269531,-0.1171875 -0.07617,-0.079102 -0.117187,-0.1699219 -0.117187,-0.2695313 0,-0.1259765 0.05566,-0.243164 0.164062,-0.3515625 0.102539,-0.102539 0.216797,-0.1523437 0.339844,-0.1523437 0.07031,0 0.125976,0.014648 0.164062,0.046875 0.02344,0.014648 0.05273,0.058594 0.08203,0.1289062 0.03223,0.076172 0.06152,0.131836 0.09375,0.1640625 0.01465,0.014648 0.03516,0.023437 0.05859,0.023437 0.01465,0 0.04687,-0.017578 0.09375,-0.046875 0.178711,-0.1171875 0.389649,-0.2929687 0.632813,-0.5273437 0.310547,-0.32226564 0.541992,-0.58300782 0.691406,-0.78515626 L 75.696211,-2.8241703 c -0.04687,-0.5068359 -0.117188,-0.8144531 -0.210938,-0.9257813 -0.09375,-0.1171875 -0.246093,-0.1757812 -0.457031,-0.1757812 -0.07031,0 -0.193359,0.011719 -0.363281,0.035156 l -0.04687,-0.1875 z m 6.225586,0.1171875 h 3.105469 v 0.1289063 l -3.386719,3.51562499 h 1.441407 c 0.333984,0 0.544921,-0.0117188 0.632812,-0.0351563 0.09375,-0.0234375 0.178711,-0.0761719 0.257813,-0.1640625 0.07617,-0.0849609 0.164062,-0.24023439 0.257812,-0.46875009 h 0.1875 L 84.335859,4.84375e-5 H 81.160078 V -0.14057656 l 3.375,-3.52734374 h -1.40625 c -0.298828,0 -0.477539,0.00879 -0.539062,0.023437 -0.08789,0.023437 -0.175782,0.079102 -0.269532,0.1640625 -0.08789,0.079102 -0.175781,0.2167969 -0.269531,0.4101562 h -0.1875 z m 7.751953,-0.1171875 -0.632812,2.203125 c 0.28125,-0.515625 0.521484,-0.9023437 0.726562,-1.1601562 0.310547,-0.4042969 0.612305,-0.6972656 0.902344,-0.8789063 0.169922,-0.1083984 0.351563,-0.1640625 0.539063,-0.1640625 0.164062,0 0.298828,0.055664 0.410156,0.1640625 0.108398,0.1025391 0.164062,0.234375 0.164062,0.3984375 0,0.1582032 -0.04102,0.3632813 -0.117187,0.6210938 l -0.339844,1.2421875 c 0.530274,-0.9902344 1.03418,-1.6875 1.511719,-2.0859375 0.257812,-0.2255859 0.515625,-0.3398438 0.773437,-0.3398438 0.155274,0 0.28125,0.052734 0.375,0.1523438 0.09375,0.1025391 0.140625,0.2636719 0.140625,0.4804687 0,0.1875 -0.0293,0.3867188 -0.08203,0.5976563 l -0.539062,1.9101562 c -0.117188,0.41601566 -0.175782,0.64453129 -0.175782,0.69140629 0,0.0410156 0.01465,0.0791016 0.04687,0.1171875 0.01465,0.0234375 0.03809,0.0351563 0.07031,0.0351563 0.0293,0 0.08789,-0.0292969 0.175781,-0.09375 0.1875,-0.14648438 0.363281,-0.33984375 0.527344,-0.57421879 l 0.152344,0.1054687 c -0.0791,0.13476571 -0.222657,0.31347665 -0.433594,0.53906259 C 94.015547,-0.24018594 93.839766,-0.0849125 93.693281,4.84375e-5 93.543867,0.07622031 93.406172,0.11723594 93.283125,0.11723594 c -0.111328,0 -0.205078,-0.04101563 -0.28125,-0.1171875025 -0.0791,-0.0761718775 -0.117188,-0.1757812475 -0.117188,-0.2929687475 0,-0.15527344 0.06445,-0.46875 0.199219,-0.93749999 l 0.445313,-1.5703125 c 0.09961,-0.3662109 0.155273,-0.5683594 0.164062,-0.609375 0.0059,-0.052734 0.01172,-0.1113281 0.01172,-0.1757813 0,-0.076172 -0.01758,-0.140625 -0.04687,-0.1875 -0.04102,-0.046875 -0.08789,-0.070312 -0.140625,-0.070312 -0.134766,0 -0.27832,0.070312 -0.433594,0.2109375 C 92.638594,-3.2167484 92.219648,-2.6396 91.83,-1.8983891 91.572187,-1.4062016 91.329023,-0.77338906 91.103437,4.84375e-5 H 90.365156 L 91.197187,-2.9647953 c 0.09375,-0.3105469 0.140625,-0.5214844 0.140625,-0.6328125 0,-0.09375 -0.02051,-0.1582031 -0.05859,-0.1992188 -0.03223,-0.038086 -0.07617,-0.058594 -0.128907,-0.058594 -0.111328,0 -0.222656,0.041016 -0.339843,0.1171875 -0.196289,0.1259766 -0.451172,0.3984375 -0.761719,0.8203125 -0.304688,0.4160156 -0.544922,0.8144531 -0.714844,1.1953125 -0.0791,0.1816406 -0.27539,0.75585936 -0.585937,1.7226562375 H 88.033125 L 88.935469,-3.1757328 89.052656,-3.5858891 c 0.02344,-0.061523 0.03516,-0.1054687 0.03516,-0.1289062 0,-0.070312 -0.03516,-0.1318359 -0.105468,-0.1875 -0.06445,-0.061523 -0.146485,-0.09375 -0.246094,-0.09375 -0.04102,0 -0.158203,0.020508 -0.351563,0.058594 l -0.04687,-0.1875 z m 9.773438,0 -0.949219,3.3164063 -0.105469,0.44531249 c -0.01758,0.046875 -0.02344,0.0820313 -0.02344,0.10546875 0,0.0556641 0.01758,0.10253906 0.05859,0.140625 0.02344,0.0322266 0.05273,0.046875 0.09375,0.046875 0.03809,0 0.09375,-0.0263672 0.164062,-0.0820313 0.123047,-0.09375 0.292969,-0.28710938 0.503906,-0.58593744 l 0.175782,0.11718744 c -0.228516,0.34570312 -0.462891,0.60644531 -0.703125,0.78515625 -0.234375,0.16992187 -0.454102,0.2578125 -0.65625,0.2578125 -0.140625,0 -0.246094,-0.03515625 -0.316407,-0.10546875 -0.07031,-0.0703125 -0.105468,-0.16992188 -0.105468,-0.3046875 0,-0.1640625 0.03516,-0.375 0.105468,-0.6328125 l 0.105469,-0.36328124 c -0.430664,0.55664061 -0.826172,0.94628905 -1.183594,1.17187499 -0.257812,0.15527344 -0.509765,0.234375 -0.75,0.234375 -0.243164,0 -0.451171,-0.09960938 -0.621093,-0.29296875 -0.172852,-0.19335938 -0.257813,-0.46875 -0.257813,-0.8203125 0,-0.51562494 0.155274,-1.05761724 0.46875,-1.62890624 0.310547,-0.5771485 0.706055,-1.0429688 1.183594,-1.3945312 0.375,-0.2724609 0.729492,-0.4101563 1.066406,-0.4101563 0.19336,0 0.357422,0.055664 0.492188,0.1640625 0.131836,0.102539 0.234375,0.2753907 0.304687,0.515625 l 0.175781,-0.5625 z m -1.734375,0.2578125 c -0.210938,0 -0.433594,0.099609 -0.667969,0.2929688 -0.336914,0.2753906 -0.632812,0.6855469 -0.890625,1.2304687 -0.257812,0.5478516 -0.386719,1.0400391 -0.386719,1.4765625 0,0.22851566 0.05273,0.4072266 0.164063,0.53906254 0.108398,0.12597656 0.237305,0.1875 0.386719,0.1875 0.351562,0 0.738281,-0.26367188 1.160156,-0.79687504 0.553711,-0.6943359 0.832031,-1.4091796 0.832031,-2.1445312 0,-0.2724609 -0.05566,-0.4716797 -0.164062,-0.5976563 -0.111328,-0.1230468 -0.254883,-0.1875 -0.433594,-0.1875 z m 4.655277,-1.4648437 -0.375,1.3242187 h 0.76172 l -0.082,0.3164063 h -0.76172 l -0.84375,2.8828125 c -0.0879,0.30468749 -0.12891,0.50390624 -0.12891,0.59765624 0,0.0556641 0.0117,0.0996094 0.0352,0.12890625 0.0234,0.0322266 0.0527,0.046875 0.0937,0.046875 0.0762,0 0.18164,-0.0585938 0.3164,-0.17578125 0.0762,-0.0615234 0.25196,-0.26074219 0.52735,-0.59765624 l 0.16406,0.11718749 c -0.30469,0.43945312 -0.5918,0.74707031 -0.85547,0.92578125 -0.18164,0.12304687 -0.36328,0.1875 -0.55078,0.1875 -0.14063,0 -0.25781,-0.04394531 -0.35156,-0.12890625 -0.0937,-0.09375 -0.14063,-0.2109375 -0.14063,-0.3515625 0,-0.16992188 0.0527,-0.43945313 0.16406,-0.80859379 l 0.8086,-2.8242187 h -0.73828 l 0.0586,-0.1992188 c 0.35156,-0.09375 0.64453,-0.2373046 0.87891,-0.4335937 0.24023,-0.1933594 0.50976,-0.5302734 0.80859,-1.0078125 z m 1.38574,3.796875 c -0.0234,0.1582031 -0.0352,0.2900391 -0.0352,0.3984375 0,0.2900391 0.0996,0.53906249 0.30469,0.74999999 0.21094,0.20507812 0.45996,0.3046875 0.75,0.3046875 0.23438,0 0.45996,-0.046875 0.67969,-0.140625 0.2168,-0.0996094 0.53906,-0.31640625 0.96094,-0.64453129 l 0.10547,0.140625 c -0.77344,0.76757816 -1.51172,1.14843754 -2.21485,1.14843754 -0.46875,0 -0.82617,-0.14648438 -1.0664,-0.4453125 -0.24317,-0.3046875 -0.36329,-0.63574219 -0.36329,-0.99609374 0,-0.4833984 0.14649,-0.9785156 0.44532,-1.4882813 0.30468,-0.515625 0.68261,-0.9140625 1.13672,-1.1953125 0.45117,-0.28125 0.91699,-0.421875 1.39453,-0.421875 0.34277,0 0.59765,0.070312 0.76172,0.2109375 0.16992,0.140625 0.25781,0.3105469 0.25781,0.5039063 0,0.2666016 -0.11133,0.5244141 -0.32813,0.7734375 -0.28125,0.3222656 -0.70019,0.5830078 -1.2539,0.7851562 -0.36035,0.1347657 -0.87305,0.2402344 -1.53516,0.3164063 z m 0.0352,-0.2460938 c 0.4834,-0.052734 0.87304,-0.1464843 1.17187,-0.28125 0.4043,-0.1787109 0.70606,-0.3925781 0.90235,-0.6445312 0.20214,-0.2490234 0.30468,-0.4863281 0.30468,-0.7148438 0,-0.1318359 -0.0439,-0.2402343 -0.1289,-0.328125 -0.0879,-0.084961 -0.20801,-0.1289062 -0.36328,-0.1289062 -0.33692,0 -0.69141,0.1816406 -1.06641,0.5390625 -0.375,0.3515625 -0.65039,0.8730469 -0.82031,1.5585937 z m 5.39355,-2.34375 -0.63281,2.203125 c 0.28125,-0.515625 0.52148,-0.9023437 0.72656,-1.1601562 0.31055,-0.4042969 0.61231,-0.6972656 0.90235,-0.8789063 0.16992,-0.1083984 0.35156,-0.1640625 0.53906,-0.1640625 0.16406,0 0.29883,0.055664 0.41015,0.1640625 0.1084,0.1025391 0.16407,0.234375 0.16407,0.3984375 0,0.1582032 -0.041,0.3632813 -0.11719,0.6210938 l -0.33984,1.2421875 c 0.53027,-0.9902344 1.03417,-1.6875 1.51171,-2.0859375 0.25782,-0.2255859 0.51563,-0.3398438 0.77344,-0.3398438 0.15527,0 0.28125,0.052734 0.375,0.1523438 0.0937,0.1025391 0.14063,0.2636719 0.14063,0.4804687 0,0.1875 -0.0293,0.3867188 -0.082,0.5976563 l -0.53907,1.9101562 c -0.11718,0.41601566 -0.17578,0.64453129 -0.17578,0.69140629 0,0.0410156 0.0147,0.0791016 0.0469,0.1171875 0.0146,0.0234375 0.0381,0.0351563 0.0703,0.0351563 0.0293,0 0.0879,-0.0292969 0.17578,-0.09375 0.1875,-0.14648438 0.36328,-0.33984375 0.52734,-0.57421879 l 0.15235,0.1054687 c -0.0791,0.13476571 -0.22266,0.31347665 -0.4336,0.53906259 -0.20507,0.22851562 -0.38086,0.38378906 -0.52734,0.4687499975 -0.14941,0.0761718725 -0.28711,0.1171875025 -0.41016,0.1171875025 -0.11132,0 -0.20507,-0.04101563 -0.28125,-0.1171875025 -0.0791,-0.0761718775 -0.11718,-0.1757812475 -0.11718,-0.2929687475 0,-0.15527344 0.0645,-0.46875 0.19922,-0.93750004 l 0.44531,-1.5703125 c 0.0996,-0.3662109 0.15527,-0.5683594 0.16406,-0.609375 0.006,-0.052734 0.0117,-0.1113281 0.0117,-0.1757813 0,-0.076172 -0.0176,-0.140625 -0.0469,-0.1875 -0.041,-0.046875 -0.0879,-0.070312 -0.14062,-0.070312 -0.13477,0 -0.27832,0.070312 -0.43359,0.2109375 -0.44532,0.4160157 -0.86426,0.9931641 -1.25391,1.734375 -0.25781,0.4921875 -0.50098,1.12500009 -0.72656,1.8984375875 h -0.73828 L 110.70598,-2.9647953 c 0.0937,-0.3105469 0.14062,-0.5214844 0.14062,-0.6328125 0,-0.09375 -0.0205,-0.1582031 -0.0586,-0.1992188 -0.0322,-0.038086 -0.0762,-0.058594 -0.12891,-0.058594 -0.11133,0 -0.22265,0.041016 -0.33984,0.1171875 -0.19629,0.1259766 -0.45117,0.3984375 -0.76172,0.8203125 -0.30469,0.4160156 -0.54492,0.8144531 -0.71484,1.1953125 -0.0791,0.1816406 -0.2754,0.75585936 -0.58594,1.7226562375 h -0.71485 l 0.90235,-3.1757812375 0.11719,-0.4101563 c 0.0234,-0.061523 0.0352,-0.1054687 0.0352,-0.1289062 0,-0.070312 -0.0352,-0.1318359 -0.10547,-0.1875 -0.0644,-0.061523 -0.14648,-0.09375 -0.24609,-0.09375 -0.041,0 -0.1582,0.020508 -0.35156,0.058594 l -0.0469,-0.1875 z m 9.77344,0 -0.94922,3.3164063 -0.10547,0.44531249 c -0.0176,0.046875 -0.0234,0.0820313 -0.0234,0.10546875 0,0.0556641 0.0176,0.10253906 0.0586,0.140625 0.0234,0.0322266 0.0527,0.046875 0.0937,0.046875 0.0381,0 0.0937,-0.0263672 0.16406,-0.0820313 0.12305,-0.09375 0.29297,-0.28710938 0.50391,-0.58593754 l 0.17578,0.11718754 c -0.22852,0.34570312 -0.46289,0.60644531 -0.70313,0.78515625 -0.23437,0.16992187 -0.4541,0.2578125 -0.65625,0.2578125 -0.14062,0 -0.24609,-0.03515625 -0.3164,-0.10546875 -0.0703,-0.0703125 -0.10547,-0.16992188 -0.10547,-0.3046875 0,-0.1640625 0.0352,-0.375 0.10547,-0.6328125 l 0.10547,-0.36328134 c -0.43067,0.55664071 -0.82618,0.94628915 -1.1836,1.17187509 -0.25781,0.15527344 -0.50976,0.234375 -0.75,0.234375 -0.24316,0 -0.45117,-0.09960938 -0.62109,-0.29296875 -0.17285,-0.19335938 -0.25781,-0.46875 -0.25781,-0.8203125 0,-0.51562504 0.15527,-1.05761724 0.46875,-1.62890634 0.31054,-0.5771484 0.70605,-1.0429687 1.18359,-1.3945312 0.375,-0.2724609 0.72949,-0.4101563 1.06641,-0.4101563 0.19335,0 0.35742,0.055664 0.49218,0.1640625 0.13184,0.1025391 0.23438,0.2753907 0.30469,0.515625 l 0.17578,-0.5625 z m -1.73438,0.2578125 c -0.21093,0 -0.43359,0.099609 -0.66796,0.2929688 -0.33692,0.2753906 -0.63282,0.6855469 -0.89063,1.2304687 -0.25781,0.5478516 -0.38672,1.0400391 -0.38672,1.4765625 0,0.22851566 0.0527,0.4072266 0.16406,0.53906254 0.1084,0.12597656 0.23731,0.1875 0.38672,0.1875 0.35157,0 0.73828,-0.26367188 1.16016,-0.79687504 0.55371,-0.6943359 0.83203,-1.4091796 0.83203,-2.1445312 0,-0.2724609 -0.0557,-0.4716797 -0.16406,-0.5976563 -0.11133,-0.1230468 -0.25489,-0.1875 -0.4336,-0.1875 z m 4.65528,-1.4648437 -0.375,1.3242187 h 0.76172 l -0.082,0.3164063 h -0.76171 l -0.84375,2.8828125 c -0.0879,0.30468749 -0.12891,0.50390624 -0.12891,0.59765624 0,0.0556641 0.0117,0.0996094 0.0352,0.12890625 0.0234,0.0322266 0.0527,0.046875 0.0937,0.046875 0.0762,0 0.18164,-0.0585938 0.3164,-0.17578125 0.0762,-0.0615234 0.25196,-0.26074219 0.52735,-0.59765624 l 0.16406,0.11718749 c -0.30469,0.43945312 -0.5918,0.74707031 -0.85547,0.92578125 -0.18164,0.12304687 -0.36328,0.1875 -0.55078,0.1875 -0.14063,0 -0.25781,-0.04394531 -0.35156,-0.12890625 -0.0937,-0.09375 -0.14063,-0.2109375 -0.14063,-0.3515625 0,-0.16992188 0.0527,-0.43945313 0.16406,-0.80859379 l 0.8086,-2.8242187 h -0.73828 l 0.0586,-0.1992188 c 0.35156,-0.09375 0.64453,-0.2373046 0.87891,-0.4335937 0.24023,-0.1933594 0.50976,-0.5302734 0.80859,-1.0078125 z m 1.78711,1.2070312 c 0.1084,0.1875 0.18164,0.3691407 0.22265,0.5390625 0.0469,0.1640625 0.0937,0.4863282 0.14063,0.9609375 l 0.21094,2.41406254 c 0.19335,-0.234375 0.48046,-0.60351564 0.85546,-1.11328124 0.17872,-0.2490234 0.39844,-0.5888672 0.65625,-1.0195313 0.16407,-0.2578125 0.26075,-0.4394531 0.29297,-0.5507812 0.0234,-0.046875 0.0352,-0.09668 0.0352,-0.1523438 0,-0.038086 -0.0117,-0.070312 -0.0352,-0.09375 -0.0234,-0.023437 -0.082,-0.049805 -0.17578,-0.082031 -0.0937,-0.029297 -0.17578,-0.084961 -0.24609,-0.1640625 -0.0645,-0.084961 -0.0937,-0.1816406 -0.0937,-0.2929688 0,-0.1318359 0.0381,-0.2373046 0.11719,-0.3164062 0.0762,-0.084961 0.17578,-0.1289063 0.29296,-0.1289063 0.14649,0 0.27247,0.064453 0.375,0.1875 0.0996,0.1171875 0.15235,0.2783204 0.15235,0.4804688 0,0.2578125 -0.0908,0.5566406 -0.26953,0.890625 -0.18164,0.328125 -0.52149,0.8378906 -1.01953,1.5234375 -0.50098,0.67968749 -1.11036,1.42382811 -1.82813,2.23828124 -0.49219,0.55371096 -0.86133,0.90527346 -1.10156,1.05468746 -0.23438,0.1464844 -0.4336,0.2226563 -0.59766,0.2226563 -0.0996,0 -0.19043,-0.041016 -0.26953,-0.1171875 -0.0762,-0.079102 -0.11719,-0.1699219 -0.11719,-0.2695313 0,-0.1259765 0.0557,-0.243164 0.16407,-0.3515625 0.10253,-0.102539 0.21679,-0.1523437 0.33984,-0.1523437 0.0703,0 0.12598,0.014648 0.16406,0.046875 0.0234,0.014648 0.0527,0.058594 0.082,0.1289062 0.0322,0.076172 0.0615,0.131836 0.0937,0.1640625 0.0146,0.014648 0.0352,0.023437 0.0586,0.023437 0.0146,0 0.0469,-0.017578 0.0937,-0.046875 0.17871,-0.1171875 0.38965,-0.2929687 0.63281,-0.5273437 0.31055,-0.32226564 0.54199,-0.58300782 0.69141,-0.78515626 l -0.26954,-3.10546874 c -0.0469,-0.5068359 -0.11718,-0.8144531 -0.21093,-0.9257813 -0.0937,-0.1171875 -0.2461,-0.1757812 -0.45703,-0.1757812 -0.0703,0 -0.19336,0.011719 -0.36329,0.035156 l -0.0469,-0.1875 z m 5.72168,-2.53125 -1.38282,4.8164063 0.55079,-0.4804688 c 0.60937,-0.515625 1.00781,-0.8935546 1.19531,-1.1367187 0.0527,-0.084961 0.082,-0.1464844 0.082,-0.1875 0,-0.029297 -0.0117,-0.058594 -0.0352,-0.082031 -0.0176,-0.029297 -0.0527,-0.052734 -0.10547,-0.070312 -0.0557,-0.014648 -0.1582,-0.023437 -0.30468,-0.023437 h -0.16407 l 0.0469,-0.1875 h 2.14453 l -0.0469,0.1875 c -0.25196,0.017578 -0.46583,0.055664 -0.64454,0.1171875 -0.17285,0.064453 -0.3457,0.1582032 -0.51562,0.28125 -0.32813,0.2431641 -0.54492,0.4101563 -0.64453,0.5039063 l -0.42188,0.375 c 0.0703,0.234375 0.15821,0.5625 0.26953,0.984375 0.16993,0.6972656 0.28711,1.11035155 0.35157,1.24218749 0.0615,0.13476562 0.12304,0.19921875 0.1875,0.19921875 0.0527,0 0.12011,-0.0263672 0.19922,-0.0820312 0.16992,-0.12304688 0.35156,-0.32226563 0.53906,-0.59765634 l 0.17578,0.12890634 c -0.36035,0.4453125 -0.63281,0.73828125 -0.82031,0.87890625 -0.1875,0.140625 -0.36036,0.2109375 -0.51563,0.2109375 -0.14062,0 -0.24609,-0.05566406 -0.3164,-0.1640625 -0.13477,-0.1875 -0.35157,-0.94335938 -0.65625,-2.27343759 l -0.66797,0.5859375 -0.50391,1.7343750875 h -0.76172 l 1.62891,-5.5781250875 0.1289,-0.4804687 c 0.0146,-0.076172 0.0234,-0.1464844 0.0234,-0.2109375 0,-0.076172 -0.0322,-0.1435547 -0.0937,-0.1992188 -0.0557,-0.052734 -0.14062,-0.082031 -0.25781,-0.082031 -0.0703,0 -0.1875,0.020508 -0.35156,0.058594 v -0.1757812 z m 3.83496,0.5859375 c 0.14062,0 0.25781,0.052734 0.35156,0.1523438 0.0937,0.09375 0.14062,0.2080078 0.14062,0.3398437 0,0.1347657 -0.0527,0.2519532 -0.15234,0.3515625 -0.0937,0.09375 -0.20801,0.140625 -0.33984,0.140625 -0.13477,0 -0.25196,-0.046875 -0.35157,-0.140625 -0.0937,-0.099609 -0.14062,-0.2167968 -0.14062,-0.3515625 0,-0.1318359 0.0469,-0.2460937 0.14062,-0.3398437 0.0996,-0.099609 0.2168,-0.1523438 0.35157,-0.1523438 z m 0.0703,1.9453125 -0.97266,3.43359379 c -0.0644,0.22851562 -0.0937,0.36328125 -0.0937,0.41015625 0,0.0556641 0.0147,0.0996094 0.0469,0.12890625 0.0293,0.0322266 0.0644,0.046875 0.10547,0.046875 0.0469,0 0.10547,-0.0234375 0.17578,-0.0703125 0.1875,-0.14648438 0.375,-0.35742188 0.5625,-0.63281249 l 0.17578,0.11718749 c -0.22852,0.33691406 -0.48926,0.62109375 -0.78516,0.85546875 -0.22851,0.16992187 -0.43945,0.2578125 -0.63281,0.2578125 -0.14062,0 -0.25488,-0.04101563 -0.33984,-0.1171875025 C 131.80559,-0.07612344 131.7675,-0.1786625 131.7675,-0.30463906 c 0,-0.1171875 0.0381,-0.31640625 0.11719,-0.59765625 l 0.63281,-2.19140629 c 0.1084,-0.3574218 0.16406,-0.5859375 0.16406,-0.6796875 0,-0.070312 -0.0293,-0.1289062 -0.082,-0.1757812 -0.0469,-0.046875 -0.11426,-0.070312 -0.19922,-0.070312 -0.0791,0 -0.22851,0.020508 -0.44531,0.058594 v -0.1875 z M 27.491133,4.8867672 h 2.613281 c 0.679688,0 1.186523,0.1494141 1.523438,0.4453125 0.342773,0.2900391 0.515625,0.6503906 0.515625,1.078125 0,0.3369141 -0.111329,0.6650391 -0.328125,0.984375 -0.210938,0.3134766 -0.533204,0.5683594 -0.960938,0.7617187 -0.421875,0.1962891 -0.878906,0.2929688 -1.371094,0.2929688 -0.304687,0 -0.691406,-0.052734 -1.160156,-0.1640625 l -0.539062,1.8164063 c -0.117188,0.430664 -0.175782,0.711914 -0.175782,0.84375 0,0.111328 0.04102,0.199219 0.128907,0.269531 0.08496,0.06445 0.295898,0.105469 0.632812,0.128906 l -0.04687,0.175782 H 25.68645 l 0.04687,-0.175782 c 0.342774,0 0.580078,-0.05859 0.714844,-0.175781 0.140625,-0.123047 0.287109,-0.457031 0.445313,-0.996094 l 1.101562,-3.7734371 c 0.123047,-0.4511718 0.1875,-0.7558593 0.1875,-0.9140625 0,-0.1083984 -0.04687,-0.2021484 -0.140625,-0.28125 -0.09375,-0.076172 -0.298828,-0.1230468 -0.609375,-0.140625 z m 0.914062,3.09375 c 0.366211,0.09375 0.66211,0.140625 0.890625,0.140625 0.351563,0 0.670899,-0.073242 0.960938,-0.2226563 0.295898,-0.1464843 0.527344,-0.3662109 0.691406,-0.65625 0.164063,-0.2958984 0.246094,-0.6005859 0.246094,-0.9140625 0,-0.3339843 -0.102539,-0.5976562 -0.304688,-0.7851562 -0.205078,-0.1933594 -0.509765,-0.2929688 -0.914062,-0.2929688 -0.228516,0 -0.498047,0.029297 -0.808594,0.082031 z m 8.282227,0.6445312 c 0,0.4863282 -0.128906,0.9697266 -0.386719,1.4531246 -0.257812,0.47754 -0.621094,0.855469 -1.089844,1.136719 -0.46289,0.28125 -0.911132,0.421875 -1.347656,0.421875 -0.445312,0 -0.808594,-0.140625 -1.089844,-0.421875 -0.28125,-0.287109 -0.421875,-0.659179 -0.421875,-1.113281 0,-0.4746094 0.134766,-0.9550782 0.410157,-1.4414063 0.28125,-0.4833984 0.65039,-0.8671875 1.113281,-1.1484375 0.459961,-0.28125 0.905273,-0.421875 1.335937,-0.421875 0.427735,0 0.779297,0.1464844 1.054688,0.4335937 0.28125,0.28125 0.421875,0.6503907 0.421875,1.1015625 z M 35.878828,8.2852047 c 0,-0.3046875 -0.07617,-0.5332031 -0.222656,-0.6914063 -0.149414,-0.1640625 -0.339844,-0.2460937 -0.574219,-0.2460937 -0.477539,0 -0.919922,0.3457031 -1.324219,1.03125 -0.398437,0.6884766 -0.597656,1.3681641 -0.597656,2.0390623 0,0.313477 0.07617,0.556641 0.234375,0.726563 0.155274,0.164062 0.351563,0.246093 0.585938,0.246093 0.459961,0 0.890625,-0.339843 1.289062,-1.019531 0.404297,-0.6855467 0.609375,-1.3828123 0.609375,-2.0859373 z m 2.050781,-1.078125 h 3.105469 v 0.1289062 l -3.386719,3.5156251 h 1.441407 c 0.333984,0 0.544921,-0.01172 0.632812,-0.03516 0.09375,-0.02344 0.178711,-0.07617 0.257813,-0.164063 0.07617,-0.08496 0.164062,-0.240234 0.257812,-0.46875 h 0.1875 l -0.433594,1.335938 h -3.175781 v -0.140625 l 3.375,-3.5273441 h -1.40625 c -0.298828,0 -0.477539,0.00879 -0.539062,0.023437 -0.08789,0.023437 -0.175782,0.079102 -0.269532,0.1640625 -0.08789,0.079102 -0.175781,0.2167969 -0.269531,0.4101563 h -0.1875 z m 5.308594,-2.0625 c 0.140625,0 0.257813,0.052734 0.351563,0.1523437 0.09375,0.09375 0.140625,0.2080079 0.140625,0.3398438 0,0.1347656 -0.05273,0.2519531 -0.152344,0.3515625 -0.09375,0.09375 -0.208008,0.140625 -0.339844,0.140625 -0.134766,0 -0.251953,-0.046875 -0.351562,-0.140625 -0.09375,-0.099609 -0.140625,-0.2167969 -0.140625,-0.3515625 0,-0.1318359 0.04687,-0.2460938 0.140625,-0.3398438 0.09961,-0.099609 0.216796,-0.1523437 0.351562,-0.1523437 z m 0.07031,1.9453125 -0.972657,3.4335938 c -0.06445,0.228516 -0.09375,0.363281 -0.09375,0.410156 0,0.05566 0.01465,0.09961 0.04687,0.128906 0.0293,0.03223 0.06445,0.04687 0.105469,0.04687 0.04687,0 0.105469,-0.02344 0.175781,-0.07031 0.1875,-0.146484 0.375,-0.357422 0.5625,-0.632813 l 0.175782,0.117188 C 43.08,10.8604 42.819258,11.14458 42.523359,11.378955 c -0.228515,0.169922 -0.439453,0.257812 -0.632812,0.257812 -0.140625,0 -0.254883,-0.04102 -0.339844,-0.117187 -0.0791,-0.07617 -0.117187,-0.178711 -0.117187,-0.304688 0,-0.117187 0.03809,-0.316406 0.117187,-0.597656 l 0.632813,-2.1914063 c 0.108398,-0.3574219 0.164062,-0.5859375 0.164062,-0.6796875 0,-0.070312 -0.0293,-0.1289063 -0.08203,-0.1757813 -0.04687,-0.046875 -0.114258,-0.070312 -0.199219,-0.070312 -0.0791,0 -0.228516,0.020508 -0.445312,0.058594 v -0.1875 z m 5.083007,1.5351562 c 0,0.4863282 -0.128906,0.9697266 -0.386718,1.4531246 -0.257813,0.47754 -0.621094,0.855469 -1.089844,1.136719 -0.462891,0.28125 -0.911133,0.421875 -1.347656,0.421875 -0.445313,0 -0.808594,-0.140625 -1.089844,-0.421875 -0.28125,-0.287109 -0.421875,-0.659179 -0.421875,-1.113281 0,-0.4746094 0.134766,-0.9550782 0.410156,-1.4414063 0.28125,-0.4833984 0.650391,-0.8671875 1.113281,-1.1484375 0.459961,-0.28125 0.905274,-0.421875 1.335938,-0.421875 0.427734,0 0.779297,0.1464844 1.054687,0.4335937 0.28125,0.28125 0.421875,0.6503907 0.421875,1.1015625 z M 47.58293,8.2852047 c 0,-0.3046875 -0.07617,-0.5332031 -0.222657,-0.6914063 -0.149414,-0.1640625 -0.339843,-0.2460937 -0.574218,-0.2460937 -0.477539,0 -0.919922,0.3457031 -1.324219,1.03125 -0.398438,0.6884766 -0.597656,1.3681641 -0.597656,2.0390623 0,0.313477 0.07617,0.556641 0.234375,0.726563 0.155273,0.164062 0.351562,0.246093 0.585937,0.246093 0.459961,0 0.890625,-0.339843 1.289063,-1.019531 0.404297,-0.6855467 0.609375,-1.3828123 0.609375,-2.0859373 z m 3.375,-1.1953125 -0.632813,2.203125 c 0.28125,-0.515625 0.521485,-0.9023438 0.726563,-1.1601563 0.310547,-0.4042968 0.612304,-0.6972656 0.902343,-0.8789062 0.169922,-0.1083984 0.351563,-0.1640625 0.539063,-0.1640625 0.164062,0 0.298828,0.055664 0.410156,0.1640625 0.108399,0.1025391 0.164063,0.234375 0.164063,0.3984375 0,0.1582031 -0.04102,0.3632812 -0.117188,0.6210937 l -0.339844,1.2421875 c 0.530274,-0.9902343 1.03418,-1.6875 1.511719,-2.0859375 0.257813,-0.2255859 0.515625,-0.3398437 0.773438,-0.3398437 0.155273,0 0.28125,0.052734 0.375,0.1523437 0.09375,0.1025391 0.140625,0.2636719 0.140625,0.4804688 0,0.1875 -0.0293,0.3867187 -0.08203,0.5976562 l -0.539062,1.9101561 c -0.117188,0.416016 -0.175781,0.644531 -0.175781,0.691406 0,0.04102 0.01465,0.0791 0.04687,0.117188 0.01465,0.02344 0.03809,0.03516 0.07031,0.03516 0.0293,0 0.08789,-0.0293 0.175781,-0.09375 0.1875,-0.146484 0.363282,-0.339844 0.527344,-0.574219 l 0.152344,0.105469 c -0.0791,0.134766 -0.222656,0.313477 -0.433594,0.539063 -0.205078,0.228515 -0.380859,0.383789 -0.527344,0.46875 -0.149414,0.07617 -0.287109,0.117187 -0.410156,0.117187 -0.111328,0 -0.205078,-0.04102 -0.28125,-0.117187 -0.0791,-0.07617 -0.117187,-0.175782 -0.117187,-0.292969 0,-0.155273 0.06445,-0.46875 0.199218,-0.9375 l 0.445313,-1.5703126 c 0.09961,-0.3662109 0.155273,-0.5683593 0.164062,-0.609375 0.0059,-0.052734 0.01172,-0.1113281 0.01172,-0.1757812 0,-0.076172 -0.01758,-0.140625 -0.04687,-0.1875 -0.04102,-0.046875 -0.08789,-0.070312 -0.140625,-0.070312 -0.134765,0 -0.27832,0.070312 -0.433594,0.2109375 -0.445312,0.4160156 -0.864257,0.9931641 -1.253906,1.734375 -0.257812,0.4921883 -0.500976,1.1250003 -0.726562,1.8984383 h -0.738282 l 0.832032,-2.9648446 c 0.09375,-0.3105468 0.140625,-0.5214843 0.140625,-0.6328125 0,-0.09375 -0.02051,-0.1582031 -0.05859,-0.1992187 -0.03223,-0.038086 -0.07617,-0.058594 -0.128906,-0.058594 -0.111328,0 -0.222657,0.041016 -0.339844,0.1171875 -0.196289,0.1259766 -0.451172,0.3984375 -0.761719,0.8203125 -0.304687,0.4160157 -0.544922,0.8144532 -0.714844,1.1953125 -0.0791,0.1816407 -0.27539,0.7558593 -0.585937,1.7226563 h -0.714844 l 0.902344,-3.1757813 0.117187,-0.4101562 c 0.02344,-0.061523 0.03516,-0.1054688 0.03516,-0.1289063 0,-0.070312 -0.03516,-0.1318359 -0.105469,-0.1875 -0.06445,-0.061523 -0.146484,-0.09375 -0.246094,-0.09375 -0.04102,0 -0.158203,0.020508 -0.351562,0.058594 l -0.04687,-0.1875 z m 9.817382,0 -0.339843,1.125 c 0.357422,-0.4130859 0.673828,-0.703125 0.949218,-0.8671875 0.28125,-0.1699219 0.56543,-0.2578125 0.855469,-0.2578125 0.295899,0 0.544922,0.1171875 0.75,0.3515625 0.202149,0.2285156 0.304688,0.5244141 0.304688,0.890625 0,0.7207031 -0.292969,1.4501953 -0.878907,2.1914063 -0.580078,0.744141 -1.259765,1.113281 -2.039062,1.113281 -0.164063,0 -0.310547,-0.02051 -0.433594,-0.05859 -0.125976,-0.03223 -0.266601,-0.09375 -0.421875,-0.1875 l -0.351562,1.265625 c -0.07031,0.249024 -0.105469,0.410157 -0.105469,0.480469 0,0.07031 0.01465,0.128906 0.04687,0.175781 0.03809,0.05274 0.09961,0.09375 0.1875,0.117188 0.08496,0.0293 0.251953,0.04687 0.503906,0.04687 l -0.04687,0.1875 h -2.296875 l 0.04687,-0.1875 c 0.304688,-0.0088 0.512696,-0.05859 0.621094,-0.152344 0.102539,-0.09375 0.210937,-0.348633 0.328125,-0.761719 l 1.230469,-4.2773433 c 0.07617,-0.2724609 0.117187,-0.4394531 0.117187,-0.5039063 0,-0.09375 -0.0293,-0.1640625 -0.08203,-0.2109375 -0.04687,-0.046875 -0.123047,-0.070312 -0.222656,-0.070312 -0.09375,0 -0.228516,0.011719 -0.398438,0.035156 v -0.199218 z m -1.136718,3.9140628 c 0.202148,0.243164 0.474609,0.363281 0.820312,0.363281 0.164063,0 0.331055,-0.04687 0.503906,-0.140625 0.178711,-0.09375 0.351563,-0.234375 0.515625,-0.421875 0.169922,-0.1875 0.322266,-0.401367 0.457032,-0.644531 0.140625,-0.2402347 0.260742,-0.5273441 0.363281,-0.8554691 0.108398,-0.328125 0.164062,-0.65625 0.164062,-0.984375 0,-0.2578125 -0.06445,-0.4511718 -0.1875,-0.5859375 -0.117187,-0.140625 -0.254882,-0.2109375 -0.410156,-0.2109375 -0.351562,0 -0.700195,0.2050782 -1.042969,0.609375 -0.345703,0.3984375 -0.597656,0.8671875 -0.761718,1.40625 z m 8.578125,-2.3789066 c 0,0.4863282 -0.128907,0.9697266 -0.386719,1.4531246 -0.257813,0.47754 -0.621094,0.855469 -1.089844,1.136719 -0.46289,0.28125 -0.911133,0.421875 -1.347656,0.421875 -0.445313,0 -0.808594,-0.140625 -1.089844,-0.421875 -0.28125,-0.287109 -0.421875,-0.659179 -0.421875,-1.113281 0,-0.4746094 0.134766,-0.9550782 0.410156,-1.4414063 0.28125,-0.4833984 0.650391,-0.8671875 1.113282,-1.1484375 0.459961,-0.28125 0.905273,-0.421875 1.335937,-0.421875 0.427735,0 0.779297,0.1464844 1.054688,0.4335937 0.28125,0.28125 0.421875,0.6503907 0.421875,1.1015625 z M 67.408125,8.2852047 c 0,-0.3046875 -0.07617,-0.5332031 -0.222656,-0.6914063 -0.149414,-0.1640625 -0.339844,-0.2460937 -0.574219,-0.2460937 -0.477539,0 -0.919922,0.3457031 -1.324219,1.03125 -0.398437,0.6884766 -0.597656,1.3681641 -0.597656,2.0390623 0,0.313477 0.07617,0.556641 0.234375,0.726563 0.155273,0.164062 0.351562,0.246093 0.585937,0.246093 0.459961,0 0.890625,-0.339843 1.289063,-1.019531 0.404297,-0.6855467 0.609375,-1.3828123 0.609375,-2.0859373 z m 6.632812,-3.7265625 -1.6875,5.7773438 c -0.09375,0.313477 -0.140625,0.521484 -0.140625,0.621094 0,0.03223 0.01172,0.06445 0.03516,0.09375 0.0293,0.02344 0.06152,0.03516 0.09375,0.03516 0.04687,0 0.09668,-0.01758 0.152343,-0.05859 0.108399,-0.07617 0.295899,-0.272461 0.5625,-0.585937 l 0.164063,0.105468 c -0.234375,0.322266 -0.474609,0.583008 -0.714844,0.785157 -0.243164,0.202148 -0.46582,0.304687 -0.667969,0.304687 -0.111328,0 -0.205078,-0.04102 -0.28125,-0.117187 -0.07031,-0.07617 -0.105468,-0.1875 -0.105468,-0.328125 0,-0.1875 0.0498,-0.436524 0.152343,-0.75 l 0.1875,-0.6093753 c -0.477539,0.7265623 -0.908203,1.2304683 -1.289062,1.5117183 -0.275391,0.19336 -0.533203,0.292969 -0.773438,0.292969 -0.251953,0 -0.46875,-0.111328 -0.65625,-0.328125 -0.18164,-0.216797 -0.269531,-0.518554 -0.269531,-0.902344 0,-0.483398 0.155274,-0.999023 0.46875,-1.5468746 0.310547,-0.5537109 0.720703,-1.0019531 1.230469,-1.3476562 0.398437,-0.28125 0.764648,-0.421875 1.101562,-0.421875 0.178711,0 0.331055,0.041016 0.457032,0.1171875 0.123047,0.070312 0.249023,0.1875 0.375,0.3515625 L 72.91594,5.8594314 c 0.03809,-0.1230468 0.06445,-0.2226562 0.08203,-0.2929687 0.03809,-0.1318359 0.05859,-0.2402344 0.05859,-0.328125 0,-0.061523 -0.02344,-0.1171875 -0.07031,-0.1640625 -0.07031,-0.052734 -0.158203,-0.082031 -0.257813,-0.082031 -0.0791,0 -0.205078,0.011719 -0.375,0.035156 v -0.1875 z m -1.816406,3.4804687 c 0,-0.2109375 -0.06445,-0.3779296 -0.1875,-0.5039062 C 71.919844,7.4033688 71.7675,7.3359859 71.58,7.3359859 c -0.416016,0 -0.84375,0.3398438 -1.289063,1.0195313 -0.445312,0.6796875 -0.667968,1.3300781 -0.667968,1.9453128 0,0.251953 0.05273,0.442383 0.164062,0.574218 0.108399,0.125977 0.237305,0.1875 0.386719,0.1875 0.342773,0 0.767578,-0.36621 1.277344,-1.1015621 0.515625,-0.7324218 0.773437,-1.3740234 0.773437,-1.921875 z m 5.050781,-0.9492187 -0.292968,1.5 h -0.1875 C 76.777266,8.1533688 76.683516,7.8369625 76.513594,7.6406734 76.349531,7.438525 76.141523,7.3359859 75.8925,7.3359859 c -0.205078,0 -0.369141,0.058594 -0.492188,0.1757813 -0.117187,0.1113281 -0.175781,0.2431641 -0.175781,0.3984375 0,0.1113281 0.02344,0.2167969 0.07031,0.3164062 0.04687,0.09375 0.152343,0.2285157 0.316406,0.3984375 0.421875,0.46875 0.694336,0.8203125 0.820312,1.0546875 0.123047,0.234375 0.1875,0.4541021 0.1875,0.6562501 0,0.345703 -0.140625,0.650391 -0.421875,0.914062 -0.28125,0.257813 -0.641601,0.386719 -1.078125,0.386719 -0.234375,0 -0.503906,-0.05566 -0.808593,-0.164062 -0.111328,-0.03809 -0.19336,-0.05859 -0.246094,-0.05859 -0.149414,0 -0.257813,0.07617 -0.328125,0.222656 h -0.1875 l 0.304687,-1.582031 h 0.175782 c 0.01465,0.492187 0.117187,0.84375 0.304687,1.054687 0.1875,0.205079 0.439453,0.304688 0.761719,0.304688 0.249023,0 0.445312,-0.07031 0.585937,-0.210938 0.146485,-0.140625 0.222657,-0.310546 0.222657,-0.515625 0,-0.123046 -0.02344,-0.240234 -0.07031,-0.351562 -0.09375,-0.193359 -0.290039,-0.4628907 -0.585937,-0.8085938 -0.290039,-0.3515625 -0.477539,-0.6123047 -0.5625,-0.7851563 -0.0791,-0.1699218 -0.117188,-0.3427734 -0.117188,-0.515625 0,-0.3193359 0.111328,-0.5888671 0.339844,-0.8085937 0.234375,-0.2167969 0.530273,-0.328125 0.890625,-0.328125 0.09961,0 0.193359,0.00879 0.28125,0.023437 0.04687,0.017578 0.152344,0.055664 0.316406,0.1171875 0.169922,0.064453 0.28418,0.09375 0.339844,0.09375 0.140625,0 0.257812,-0.076172 0.351562,-0.234375 z m 2.882813,-1.2070313 -0.375,1.3242188 h 0.761719 l -0.08203,0.3164062 h -0.761718 l -0.84375,2.8828121 c -0.08789,0.304688 -0.128907,0.503907 -0.128907,0.597657 0,0.05566 0.01172,0.09961 0.03516,0.128906 0.02344,0.03223 0.05273,0.04687 0.09375,0.04687 0.07617,0 0.18164,-0.05859 0.316406,-0.175781 0.07617,-0.06152 0.251953,-0.260742 0.527344,-0.597657 l 0.164062,0.117188 c -0.304687,0.439453 -0.591797,0.74707 -0.855469,0.925781 -0.18164,0.123047 -0.363281,0.1875 -0.550781,0.1875 -0.140625,0 -0.257812,-0.04395 -0.351562,-0.128906 -0.09375,-0.09375 -0.140625,-0.210938 -0.140625,-0.351563 0,-0.169921 0.05273,-0.439453 0.164062,-0.808593 L 78.93938,7.5234809 h -0.738281 l 0.05859,-0.1992187 C 78.61125,7.2305172 78.904219,7.0869625 79.138594,6.8906734 79.378828,6.6973141 79.648359,6.3604 79.947187,5.8828609 Z m 4.860352,1.2070313 -0.949219,3.3164058 -0.105469,0.445313 c -0.01758,0.04687 -0.02344,0.08203 -0.02344,0.105469 0,0.05566 0.01758,0.102539 0.05859,0.140625 0.02344,0.03223 0.05273,0.04687 0.09375,0.04687 0.03809,0 0.09375,-0.02637 0.164063,-0.08203 0.123047,-0.09375 0.292969,-0.287109 0.503906,-0.585937 l 0.175781,0.117187 c -0.228515,0.345704 -0.46289,0.606446 -0.703125,0.785157 -0.234375,0.169922 -0.454101,0.257812 -0.65625,0.257812 -0.140625,0 -0.246093,-0.03516 -0.316406,-0.105469 -0.07031,-0.07031 -0.105469,-0.169921 -0.105469,-0.304687 0,-0.164063 0.03516,-0.375 0.105469,-0.632813 l 0.105469,-0.363281 c -0.430664,0.556641 -0.826172,0.946289 -1.183594,1.171875 -0.257812,0.155274 -0.509766,0.234375 -0.75,0.234375 -0.243164,0 -0.451172,-0.09961 -0.621094,-0.292969 -0.172851,-0.193359 -0.257812,-0.46875 -0.257812,-0.820312 0,-0.515625 0.155273,-1.0576172 0.46875,-1.6289063 0.310547,-0.5771484 0.706054,-1.0429688 1.183594,-1.3945313 0.375,-0.2724609 0.729492,-0.4101562 1.066406,-0.4101562 0.193359,0 0.357422,0.055664 0.492187,0.1640625 0.131836,0.1025391 0.234375,0.2753906 0.304688,0.515625 l 0.175781,-0.5625 z m -1.734375,0.2578125 c -0.210938,0 -0.433594,0.099609 -0.667969,0.2929687 -0.336914,0.2753907 -0.632813,0.6855469 -0.890625,1.2304688 -0.257813,0.5478516 -0.386719,1.0400391 -0.386719,1.4765628 0,0.228515 0.05273,0.407226 0.164063,0.539062 0.108398,0.125977 0.237304,0.1875 0.386718,0.1875 0.351563,0 0.738282,-0.263672 1.160157,-0.796875 0.55371,-0.6943357 0.832031,-1.4091795 0.832031,-2.1445311 0,-0.2724609 -0.05566,-0.4716796 -0.164063,-0.5976562 -0.111328,-0.1230469 -0.254883,-0.1875 -0.433593,-0.1875 z m 6.269531,-0.2578125 0.339844,3.6679688 c 0.568359,-0.662109 1.02246,-1.2890626 1.359375,-1.8750001 0.202148,-0.3339843 0.304687,-0.5800781 0.304687,-0.7382812 0,-0.070312 -0.02051,-0.1318359 -0.05859,-0.1875 -0.0088,-0.029297 -0.05859,-0.073242 -0.152343,-0.1289063 -0.08789,-0.061523 -0.149415,-0.1201171 -0.1875,-0.1757812 -0.03223,-0.061523 -0.04687,-0.1289063 -0.04687,-0.1992188 0,-0.099609 0.03516,-0.1875 0.105468,-0.2578125 0.07617,-0.070312 0.175782,-0.1054687 0.292969,-0.1054687 0.131836,0 0.246094,0.052734 0.339844,0.1523437 0.09375,0.1025391 0.140625,0.234375 0.140625,0.3984375 0,0.1728516 -0.0293,0.328125 -0.08203,0.46875 -0.09375,0.28125 -0.28125,0.6445313 -0.5625,1.0898438 -0.351563,0.5332031 -0.711915,1.0283208 -1.078125,1.4882808 -0.369141,0.454102 -0.641602,0.770508 -0.820313,0.949219 H 89.272383 L 88.955977,8.2500484 86.928633,11.636767 h -0.210938 c -0.02344,-1.388672 -0.09375,-2.4873045 -0.210937,-3.2929686 -0.04687,-0.3339843 -0.128906,-0.5566406 -0.246094,-0.6679687 -0.0791,-0.070312 -0.199219,-0.1054688 -0.363281,-0.1054688 -0.102539,0 -0.222656,0.00879 -0.363281,0.023437 V 7.4180172 l 1.394531,-0.328125 c 0.193359,0.5478516 0.322265,1.3828125 0.386719,2.5078125 0.01465,0.4306643 0.0293,0.7001953 0.04687,0.8085933 l 2.015625,-3.3164058 z m 7.092773,1.5351562 c 0,0.4863282 -0.128906,0.9697266 -0.386719,1.4531246 -0.257812,0.47754 -0.621093,0.855469 -1.089843,1.136719 -0.462891,0.28125 -0.911133,0.421875 -1.347657,0.421875 -0.445312,0 -0.808593,-0.140625 -1.089843,-0.421875 -0.28125,-0.287109 -0.421875,-0.659179 -0.421875,-1.113281 0,-0.4746094 0.134765,-0.9550782 0.410156,-1.4414063 0.28125,-0.4833984 0.650391,-0.8671875 1.113281,-1.1484375 0.459961,-0.28125 0.905274,-0.421875 1.335938,-0.421875 0.427734,0 0.779297,0.1464844 1.054687,0.4335937 0.28125,0.28125 0.421875,0.6503907 0.421875,1.1015625 z M 95.837812,8.2852047 c 0,-0.3046875 -0.07617,-0.5332031 -0.222656,-0.6914063 -0.149414,-0.1640625 -0.339844,-0.2460937 -0.574219,-0.2460937 -0.477539,0 -0.919921,0.3457031 -1.324218,1.03125 -0.398438,0.6884766 -0.597657,1.3681641 -0.597657,2.0390623 0,0.313477 0.07617,0.556641 0.234375,0.726563 0.155274,0.164062 0.351563,0.246093 0.585938,0.246093 0.459961,0 0.890625,-0.339843 1.289062,-1.019531 0.404297,-0.6855467 0.609375,-1.3828123 0.609375,-2.0859373 z m 5.416988,-1.1953125 0.33985,3.6679688 c 0.56836,-0.662109 1.02246,-1.2890626 1.35937,-1.8750001 0.20215,-0.3339843 0.30469,-0.5800781 0.30469,-0.7382812 0,-0.070312 -0.0205,-0.1318359 -0.0586,-0.1875 -0.009,-0.029297 -0.0586,-0.073242 -0.15235,-0.1289063 -0.0879,-0.061523 -0.14941,-0.1201171 -0.1875,-0.1757812 -0.0322,-0.061523 -0.0469,-0.1289063 -0.0469,-0.1992188 0,-0.099609 0.0352,-0.1875 0.10547,-0.2578125 0.0762,-0.070312 0.17578,-0.1054687 0.29297,-0.1054687 0.13183,0 0.24609,0.052734 0.33984,0.1523437 0.0937,0.1025391 0.14062,0.234375 0.14062,0.3984375 0,0.1728516 -0.0293,0.328125 -0.082,0.46875 -0.0937,0.28125 -0.28125,0.6445313 -0.5625,1.0898438 -0.35156,0.5332031 -0.71191,1.0283208 -1.07812,1.4882808 -0.36914,0.454102 -0.6416,0.770508 -0.82031,0.949219 h -0.17579 l -0.3164,-3.3867186 -2.027345,3.3867186 H 98.418867 C 98.39543,10.248095 98.325117,9.1494625 98.20793,8.3437984 98.161055,8.0098141 98.079023,7.7871578 97.961836,7.6758297 c -0.0791,-0.070312 -0.199219,-0.1054688 -0.363281,-0.1054688 -0.102539,0 -0.222657,0.00879 -0.363282,0.023437 V 7.4180172 l 1.394532,-0.328125 c 0.193359,0.5478516 0.322265,1.3828125 0.386718,2.5078125 0.01465,0.4306643 0.0293,0.7001953 0.04687,0.8085933 l 2.015617,-3.3164058 z m 4.05762,0 c 0.1084,0.1875 0.18164,0.3691406 0.22266,0.5390625 0.0469,0.1640625 0.0937,0.4863281 0.14062,0.9609375 l 0.21094,2.4140628 c 0.19336,-0.234375 0.48047,-0.603516 0.85547,-1.1132816 0.17871,-0.2490234 0.39844,-0.5888671 0.65625,-1.0195312 0.16406,-0.2578125 0.26074,-0.4394531 0.29297,-0.5507813 0.0234,-0.046875 0.0352,-0.09668 0.0352,-0.1523437 0,-0.038086 -0.0117,-0.070312 -0.0352,-0.09375 -0.0234,-0.023437 -0.082,-0.049805 -0.17578,-0.082031 -0.0937,-0.029297 -0.17578,-0.084961 -0.2461,-0.1640625 -0.0645,-0.084961 -0.0937,-0.1816406 -0.0937,-0.2929687 0,-0.1318359 0.0381,-0.2373047 0.11719,-0.3164063 0.0762,-0.084961 0.17578,-0.1289062 0.29297,-0.1289062 0.14648,0 0.27246,0.064453 0.375,0.1875 0.0996,0.1171875 0.15234,0.2783203 0.15234,0.4804687 0,0.2578125 -0.0908,0.5566407 -0.26953,0.890625 -0.18164,0.328125 -0.52148,0.8378907 -1.01953,1.5234368 -0.50098,0.679688 -1.11035,1.423829 -1.82812,2.238282 -0.49219,0.553711 -0.86133,0.905273 -1.10157,1.054687 -0.23437,0.146485 -0.43359,0.222656 -0.59765,0.222656 -0.0996,0 -0.19043,-0.04101 -0.26953,-0.117187 -0.0762,-0.0791 -0.11719,-0.169922 -0.11719,-0.269531 0,-0.125977 0.0557,-0.243164 0.16406,-0.351563 0.10254,-0.102539 0.2168,-0.152344 0.33984,-0.152344 0.0703,0 0.12598,0.01465 0.16407,0.04687 0.0234,0.01465 0.0527,0.05859 0.082,0.128907 0.0322,0.07617 0.0615,0.131836 0.0937,0.164062 0.0147,0.01465 0.0352,0.02344 0.0586,0.02344 0.0147,0 0.0469,-0.01758 0.0937,-0.04687 0.17871,-0.117188 0.38965,-0.292969 0.63281,-0.527344 0.31055,-0.322266 0.542,-0.583008 0.69141,-0.785156 l -0.26953,-3.1054688 c -0.0469,-0.5068359 -0.11719,-0.8144531 -0.21094,-0.9257812 -0.0937,-0.1171875 -0.24609,-0.1757813 -0.45703,-0.1757813 -0.0703,0 -0.19336,0.011719 -0.36328,0.035156 l -0.0469,-0.1875 z m 0,0"
       style="fill:#000000;fill-opacity:1;fill-rule:nonzero;stroke:none"
       aria-label="Egzamin maturalny z matematyki  &#10;Poziom podstawowy "
       transform="matrix(1.3333333,0,0,1.3333333,288.56,59.519467)" />
    <path
       id="path2"
       d="m 55.2,782.06 h 456.54 v 0.47998 H 55.2 Z"
       style="fill:#000000;fill-opacity:1;fill-rule:nonzero;stroke:none"
       transform="matrix(1.3333333,0,0,-1.3333333,0,1122.6667)" />
    <text
       id="text2"
       xml:space="preserve"
       transform="matrix(1.3333333,0,0,1.3333333,75.6,59.7596)"><tspan
         style="font-style:italic;font-variant:normal;font-weight:700;font-stretch:normal;font-size:10.02px;font-family:'Times New Roman';writing-mode:lr-tb;fill:#000000;fill-opacity:1;fill-rule:nonzero;stroke:none"
         x="0 5.04006"
         y="0"
         sodipodi:role="line"
         id="tspan2">22</tspan></text>
    <text
       id="text3"
       xml:space="preserve"
       transform="matrix(1.3333333,0,0,1.3333333,315.04,114.3996)"><tspan
         style="font-variant:normal;font-weight:700;font-stretch:normal;font-size:16.02px;font-family:'Times New Roman';writing-mode:lr-tb;fill:#000000;fill-opacity:1;fill-rule:nonzero;stroke:none"
         x="0 10.68534 22.25178 33.818218 45.384659 56.951099 69.414658 79.202881 85.434662 94.341782"
         y="0"
         sodipodi:role="line"
         id="tspan3">BRUDNOPIS </tspan></text>
  </g>
</svg>
