<?xml version="1.0" encoding="UTF-8" standalone="no"?>
<!-- Created with Inkscape (http://www.inkscape.org/) -->

<svg
   version="1.1"
   id="svg1"
   width="794.55066"
   height="1123.6533"
   viewBox="0 0 794.55066 1123.6533"
   sodipodi:docname="LigaMatematycznaMatuskiego_Liceum_Zestaw4_2020_2021_page0.pdf"
   xmlns:inkscape="http://www.inkscape.org/namespaces/inkscape"
   xmlns:sodipodi="http://sodipodi.sourceforge.net/DTD/sodipodi-0.dtd"
   xmlns="http://www.w3.org/2000/svg"
   xmlns:svg="http://www.w3.org/2000/svg">
  <defs
     id="defs1" />
  <sodipodi:namedview
     id="namedview1"
     pagecolor="#ffffff"
     bordercolor="#000000"
     borderopacity="0.25"
     inkscape:showpageshadow="2"
     inkscape:pageopacity="0.0"
     inkscape:pagecheckerboard="0"
     inkscape:deskcolor="#d1d1d1">
    <inkscape:page
       x="0"
       y="0"
       inkscape:label="1"
       id="page1"
       width="794.55066"
       height="1123.6533"
       margin="0"
       bleed="0" />
  </sodipodi:namedview>
  <g
     id="g1"
     inkscape:groupmode="layer"
     inkscape:label="1">
    <g
       id="g2"
       aria-label="LIGAMATEMATYCZNA&#10;im.ZdzisªawaMatuskiego&#10;STYCZE2021&#10;SZKOAPONADPODSTAWOWA&#10;ZADANIE1.&#10;Czyistniej¡funkcjerzeczywistef:R→R,g:R→Rtakie,»e&#10;f(x)g(y)=x+y+1&#10;dladowolnychliczbrzeczywistychx,y?&#10;ZADANIE2.&#10;Rozwi¡»ukªadrówna«&#10;&#10;&#10;&#10;&#10;&#10;&#10;&#10;&#10;&#10;&#10;&#10;&#10;&#10;&#10;&#10;x&#10;1&#10;x&#10;2&#10;x&#10;3&#10;=1&#10;x&#10;2&#10;x&#10;3&#10;x&#10;4&#10;=−1&#10;x&#10;3&#10;x&#10;4&#10;x&#10;5&#10;=1&#10;...&#10;x&#10;10&#10;x&#10;1&#10;x&#10;2&#10;=−1&#10;wzbiorzeliczbrzeczywistych.&#10;ZADANIE3.&#10;Czyliczb¦100mo»naprzedstawi¢wpostacisumyliczbjednocyfrowychlubdwucyfrowychtak,&#10;abyu»y¢ka»d¡zcyfrdokªadniejedenraz?&#10;ZADANIE4.&#10;Wzbiorzeliczbcaªkowitychdodatnichrozwi¡»równanie&#10;9&#10;x&#10;−2&#10;y&#10;=1.&#10;ZADANIE5.&#10;Wprostok¡cieABCDpojegowewn¦trznejstroniebudujemytrójk¡tyrównoboczneABEoraz&#10;BCF.Wyka»,»etrójk¡tDFEjestrównoboczny."
       transform="matrix(1.3333333,0,0,1.3333333,274.724,56.069333)">
      <path
         id="path2"
         d="m 23.36618,105.00952 c 0.234375,0 0.328125,0 0.328125,-0.22265 0,-0.12891 -0.09375,-0.12891 -0.304688,-0.12891 h -0.972656 c 0.234375,-1.23047 0.398437,-2.07422 0.492187,-2.46094 0.07031,-0.28125 0.328125,-0.5625 0.632813,-0.5625 0.257812,0 0.503906,0.10547 0.621094,0.22266 -0.46875,0.0469 -0.609375,0.38672 -0.609375,0.59766 0,0.23437 0.1875,0.375 0.410156,0.375 0.234375,0 0.597656,-0.19922 0.597656,-0.65625 0,-0.50391 -0.503906,-0.77344 -1.03125,-0.77344 -0.515625,0 -1.007812,0.38672 -1.253906,0.84375 -0.210938,0.42187 -0.328125,0.85547 -0.609375,2.41406 h -0.796875 c -0.234375,0 -0.351563,0 -0.351563,0.22266 0,0.1289 0.07031,0.1289 0.316407,0.1289 h 0.761718 c -0.210937,1.11328 -0.703125,3.8086 -0.984375,5.08594 -0.199218,1.04297 -0.375,1.92188 -0.972656,1.92188 -0.03516,0 -0.386719,0 -0.597656,-0.23438 0.609375,-0.0469 0.609375,-0.57422 0.609375,-0.58594 0,-0.23437 -0.1875,-0.375 -0.410156,-0.375 -0.234375,0 -0.597657,0.19922 -0.597657,0.65625 0,0.51563 0.527344,0.77344 0.996094,0.77344 1.21875,0 1.722656,-2.19141 1.851563,-2.78906 0.210937,-0.91406 0.796875,-4.08985 0.855468,-4.45313 z m 0,0"
         style="fill:#000000;fill-opacity:1;fill-rule:nonzero;stroke:none" />
      <path
         id="path3"
         d="m 28.61325,105.23218 c 0,-0.31641 -0.28125,-0.57422 -0.574219,-0.57422 -0.351562,0 -0.585937,0.28125 -0.585937,0.57422 0,0.36328 0.292969,0.58594 0.574219,0.58594 0.316406,0 0.585937,-0.2461 0.585937,-0.58594 z m 0,3.99609 c 0,-0.32812 -0.28125,-0.57422 -0.574219,-0.57422 -0.351562,0 -0.585937,0.28125 -0.585937,0.57422 0,0.36328 0.292969,0.58594 0.574219,0.58594 0.316406,0 0.585937,-0.24609 0.585937,-0.58594 z m 0,0"
         style="fill:#000000;fill-opacity:1;fill-rule:nonzero;stroke:none" />
      <path
         id="path4"
         d="m 36.845672,106.06421 h 0.433594 l 1.792968,2.76563 c 0.117188,0.19921 0.410157,0.65625 0.539063,0.84375 0.08203,0.14062 0.117187,0.14062 0.398437,0.14062 h 1.640625 c 0.222657,0 0.398438,0 0.398438,-0.21094 0,-0.10547 -0.07031,-0.1875 -0.175781,-0.21093 -0.445313,-0.0937 -1.03125,-0.87891 -1.3125,-1.26563 -0.09375,-0.11719 -0.691407,-0.90234 -1.488282,-2.20312 1.066407,-0.1875 2.097657,-0.64454 2.097657,-2.0625 0,-1.66407 -1.757813,-2.23829 -3.175782,-2.23829 h -3.75 c -0.210937,0 -0.410156,0 -0.410156,0.22266 0,0.19922 0.234375,0.19922 0.328125,0.19922 0.679688,0 0.738281,0.082 0.738281,0.67969 v 5.98828 c 0,0.59765 -0.05859,0.67969 -0.738281,0.67969 -0.09375,0 -0.328125,0 -0.328125,0.21093 0,0.21094 0.199219,0.21094 0.410156,0.21094 h 3.269532 c 0.222656,0 0.398437,0 0.398437,-0.21094 0,-0.21093 -0.199219,-0.21093 -0.328125,-0.21093 -0.691406,0 -0.738281,-0.0937 -0.738281,-0.67969 z m 2.308594,-0.58594 c 0.339843,-0.44531 0.375,-1.07812 0.375,-1.60547 0,-0.57421 -0.07031,-1.20703 -0.457032,-1.69921 0.492188,0.10546 1.675782,0.48046 1.675782,1.6875 0,0.77343 -0.363282,1.38281 -1.59375,1.61718 z m -2.308594,-2.78906 c 0,-0.24609 0,-0.64453 0.75,-0.64453 1.007812,0 1.511719,0.42187 1.511719,1.82812 0,1.54688 -0.363282,1.76954 -2.261719,1.76954 z m -1.617188,6.70313 c 0.09375,-0.21094 0.09375,-0.55079 0.09375,-0.65625 v -6.03516 c 0,-0.11719 0,-0.44531 -0.09375,-0.65625 h 1.359375 c -0.152343,0.1875 -0.152343,0.43359 -0.152343,0.60937 v 6.08204 c 0,0.11718 0,0.44531 0.09375,0.65625 z m 2.542969,-3.32813 c 0.08203,-0.0117 0.128906,-0.0234 0.222656,-0.0234 0.1875,0 0.445313,-0.0234 0.621094,-0.0469 0.1875,0.28125 1.476563,2.41406 2.460938,3.39844 h -1.148438 z m 0,0"
         style="fill:#000000;fill-opacity:1;fill-rule:nonzero;stroke:none" />
      <path
         id="path5"
         d="m 55.572234,107.0603 c -0.65625,0.50391 -0.984375,0.9961 -1.078125,1.14844 -0.539062,0.83203 -0.632812,1.58203 -0.632812,1.59375 0,0.14063 0.140625,0.14063 0.234375,0.14063 0.210937,0 0.222656,-0.0234 0.269531,-0.23438 0.269531,-1.17187 0.972656,-2.17969 2.332031,-2.73047 0.140625,-0.0469 0.175782,-0.0703 0.175782,-0.15234 0,-0.082 -0.07031,-0.11719 -0.09375,-0.12891 -0.527344,-0.21093 -1.980469,-0.80859 -2.425782,-2.8125 -0.03516,-0.14062 -0.04687,-0.17578 -0.257812,-0.17578 -0.09375,0 -0.234375,0 -0.234375,0.14063 0,0.0234 0.105469,0.77343 0.609375,1.58203 0.234375,0.35156 0.585937,0.77344 1.101562,1.16015 h -8.882812 c -0.222656,0 -0.433594,0 -0.433594,0.23438 0,0.23437 0.210938,0.23437 0.433594,0.23437 z m 0,0"
         style="fill:#000000;fill-opacity:1;fill-rule:nonzero;stroke:none" />
      <path
         id="path6"
         d="m 64.077117,106.06421 h 0.433594 l 1.792969,2.76563 c 0.117187,0.19921 0.410156,0.65625 0.539062,0.84375 0.08203,0.14062 0.117188,0.14062 0.398438,0.14062 h 1.640625 c 0.222656,0 0.398437,0 0.398437,-0.21094 0,-0.10547 -0.07031,-0.1875 -0.175781,-0.21093 -0.445313,-0.0937 -1.03125,-0.87891 -1.3125,-1.26563 -0.09375,-0.11719 -0.691406,-0.90234 -1.488281,-2.20312 1.066406,-0.1875 2.097656,-0.64454 2.097656,-2.0625 0,-1.66407 -1.757813,-2.23829 -3.175781,-2.23829 h -3.75 c -0.210938,0 -0.410157,0 -0.410157,0.22266 0,0.19922 0.234375,0.19922 0.328125,0.19922 0.679688,0 0.738282,0.082 0.738282,0.67969 v 5.98828 c 0,0.59765 -0.05859,0.67969 -0.738282,0.67969 -0.09375,0 -0.328125,0 -0.328125,0.21093 0,0.21094 0.199219,0.21094 0.410157,0.21094 h 3.269531 c 0.222656,0 0.398437,0 0.398437,-0.21094 0,-0.21093 -0.199218,-0.21093 -0.328125,-0.21093 -0.691406,0 -0.738281,-0.0937 -0.738281,-0.67969 z m 2.308594,-0.58594 c 0.339844,-0.44531 0.375,-1.07812 0.375,-1.60547 0,-0.57421 -0.07031,-1.20703 -0.457031,-1.69921 0.492187,0.10546 1.675781,0.48046 1.675781,1.6875 0,0.77343 -0.363281,1.38281 -1.59375,1.61718 z m -2.308594,-2.78906 c 0,-0.24609 0,-0.64453 0.75,-0.64453 1.007813,0 1.511719,0.42187 1.511719,1.82812 0,1.54688 -0.363281,1.76954 -2.261719,1.76954 z m -1.617187,6.70313 c 0.09375,-0.21094 0.09375,-0.55079 0.09375,-0.65625 v -6.03516 c 0,-0.11719 0,-0.44531 -0.09375,-0.65625 h 1.359375 c -0.152344,0.1875 -0.152344,0.43359 -0.152344,0.60937 v 6.08204 c 0,0.11718 0,0.44531 0.09375,0.65625 z m 2.542968,-3.32813 c 0.08203,-0.0117 0.128907,-0.0234 0.222657,-0.0234 0.1875,0 0.445312,-0.0234 0.621093,-0.0469 0.1875,0.28125 1.476563,2.41406 2.460938,3.39844 h -1.148438 z m 0,0"
         style="fill:#000000;fill-opacity:1;fill-rule:nonzero;stroke:none" />
      <path
         id="path7"
         d="m 80.706023,108.29077 c -0.04687,0.19922 -0.07031,0.2461 -0.234375,0.42188 -0.480468,0.63281 -0.984375,0.86719 -1.359375,0.86719 -0.398437,0 -0.761718,-0.31641 -0.761718,-1.13672 0,-0.63282 0.351562,-1.98047 0.621093,-2.51953 0.339844,-0.66797 0.878907,-1.13672 1.382813,-1.13672 0.796875,0 0.949219,0.97265 0.949219,1.04297 l -0.03516,0.17578 z m 0.738282,-2.96484 c -0.152344,-0.33984 -0.492188,-0.78516 -1.089844,-0.78516 -1.300781,0 -2.777344,1.64063 -2.777344,3.42188 0,1.24219 0.75,1.85156 1.511719,1.85156 0.632812,0 1.195312,-0.50391 1.40625,-0.73828 l -0.257813,1.07812 c -0.164062,0.65625 -0.234375,0.94922 -0.667968,1.3711 -0.492188,0.49219 -0.949219,0.49219 -1.207032,0.49219 -0.363281,0 -0.65625,-0.0234 -0.960937,-0.12891 0.386719,-0.10547 0.480469,-0.43359 0.480469,-0.5625 0,-0.19922 -0.140625,-0.38672 -0.410157,-0.38672 -0.28125,0 -0.597656,0.23438 -0.597656,0.63281 0,0.49219 0.492188,0.67969 1.511719,0.67969 1.535156,0 2.34375,-0.99609 2.496094,-1.64062 l 1.324218,-5.35547 c 0.03516,-0.14063 0.03516,-0.16407 0.03516,-0.1875 0,-0.16407 -0.128907,-0.29297 -0.304688,-0.29297 -0.292969,0 -0.457031,0.23437 -0.492187,0.55078 z m 0,0"
         style="fill:#000000;fill-opacity:1;fill-rule:nonzero;stroke:none" />
      <path
         id="path8"
         d="m 86.228484,105.23218 c 0,-0.31641 -0.28125,-0.57422 -0.574218,-0.57422 -0.351563,0 -0.585938,0.28125 -0.585938,0.57422 0,0.36328 0.292969,0.58594 0.574219,0.58594 0.316406,0 0.585937,-0.2461 0.585937,-0.58594 z m 0,3.99609 c 0,-0.32812 -0.28125,-0.57422 -0.574218,-0.57422 -0.351563,0 -0.585938,0.28125 -0.585938,0.57422 0,0.36328 0.292969,0.58594 0.574219,0.58594 0.316406,0 0.585937,-0.24609 0.585937,-0.58594 z m 0,0"
         style="fill:#000000;fill-opacity:1;fill-rule:nonzero;stroke:none" />
      <path
         id="path9"
         d="M 94.460906,106.06421 H 94.8945 l 1.792969,2.76563 c 0.117187,0.19921 0.410156,0.65625 0.539062,0.84375 0.08203,0.14062 0.117188,0.14062 0.398438,0.14062 h 1.640625 c 0.222656,0 0.398437,0 0.398437,-0.21094 0,-0.10547 -0.07031,-0.1875 -0.175781,-0.21093 -0.445312,-0.0937 -1.03125,-0.87891 -1.3125,-1.26563 -0.09375,-0.11719 -0.691406,-0.90234 -1.488281,-2.20312 1.066406,-0.1875 2.097656,-0.64454 2.097656,-2.0625 0,-1.66407 -1.757812,-2.23829 -3.175781,-2.23829 h -3.75 c -0.210938,0 -0.410156,0 -0.410156,0.22266 0,0.19922 0.234375,0.19922 0.328125,0.19922 0.679687,0 0.738281,0.082 0.738281,0.67969 v 5.98828 c 0,0.59765 -0.05859,0.67969 -0.738281,0.67969 -0.09375,0 -0.328125,0 -0.328125,0.21093 0,0.21094 0.199218,0.21094 0.410156,0.21094 h 3.269531 c 0.222656,0 0.398438,0 0.398438,-0.21094 0,-0.21093 -0.199219,-0.21093 -0.328125,-0.21093 -0.691407,0 -0.738282,-0.0937 -0.738282,-0.67969 z m 2.308594,-0.58594 c 0.339844,-0.44531 0.375,-1.07812 0.375,-1.60547 0,-0.57421 -0.07031,-1.20703 -0.457031,-1.69921 0.492187,0.10546 1.675781,0.48046 1.675781,1.6875 0,0.77343 -0.363281,1.38281 -1.59375,1.61718 z m -2.308594,-2.78906 c 0,-0.24609 0,-0.64453 0.75,-0.64453 1.007813,0 1.511719,0.42187 1.511719,1.82812 0,1.54688 -0.363281,1.76954 -2.261719,1.76954 z m -1.617187,6.70313 c 0.09375,-0.21094 0.09375,-0.55079 0.09375,-0.65625 v -6.03516 c 0,-0.11719 0,-0.44531 -0.09375,-0.65625 h 1.359375 c -0.152344,0.1875 -0.152344,0.43359 -0.152344,0.60937 v 6.08204 c 0,0.11718 0,0.44531 0.09375,0.65625 z m 2.542969,-3.32813 c 0.08203,-0.0117 0.128906,-0.0234 0.222656,-0.0234 0.1875,0 0.445312,-0.0234 0.621094,-0.0469 0.1875,0.28125 1.476562,2.41406 2.460937,3.39844 h -1.148437 z m 0,0"
         style="fill:#000000;fill-opacity:1;fill-rule:nonzero;stroke:none" />
      <path
         id="path10"
         d="m 113.1904,107.0603 c -0.65625,0.50391 -0.98438,0.9961 -1.07813,1.14844 -0.53906,0.83203 -0.63281,1.58203 -0.63281,1.59375 0,0.14063 0.14063,0.14063 0.23438,0.14063 0.21093,0 0.22265,-0.0234 0.26953,-0.23438 0.26953,-1.17187 0.97265,-2.17969 2.33203,-2.73047 0.14062,-0.0469 0.17578,-0.0703 0.17578,-0.15234 0,-0.082 -0.0703,-0.11719 -0.0937,-0.12891 -0.52734,-0.21093 -1.98047,-0.80859 -2.42578,-2.8125 -0.0352,-0.14062 -0.0469,-0.17578 -0.25781,-0.17578 -0.0937,0 -0.23438,0 -0.23438,0.14063 0,0.0234 0.10547,0.77343 0.60938,1.58203 0.23437,0.35156 0.58593,0.77344 1.10156,1.16015 h -8.88281 c -0.22266,0 -0.4336,0 -0.4336,0.23438 0,0.23437 0.21094,0.23437 0.4336,0.23437 z m 0,0"
         style="fill:#000000;fill-opacity:1;fill-rule:nonzero;stroke:none" />
      <path
         id="path11"
         d="m 121.69235,106.06421 h 0.4336 l 1.79296,2.76563 c 0.11719,0.19921 0.41016,0.65625 0.53907,0.84375 0.082,0.14062 0.11718,0.14062 0.39843,0.14062 h 1.64063 c 0.22266,0 0.39844,0 0.39844,-0.21094 0,-0.10547 -0.0703,-0.1875 -0.17578,-0.21093 -0.44532,-0.0937 -1.03125,-0.87891 -1.3125,-1.26563 -0.0937,-0.11719 -0.69141,-0.90234 -1.48829,-2.20312 1.06641,-0.1875 2.09766,-0.64454 2.09766,-2.0625 0,-1.66407 -1.75781,-2.23829 -3.17578,-2.23829 h -3.75 c -0.21094,0 -0.41016,0 -0.41016,0.22266 0,0.19922 0.23438,0.19922 0.32813,0.19922 0.67969,0 0.73828,0.082 0.73828,0.67969 v 5.98828 c 0,0.59765 -0.0586,0.67969 -0.73828,0.67969 -0.0937,0 -0.32813,0 -0.32813,0.21093 0,0.21094 0.19922,0.21094 0.41016,0.21094 h 3.26953 c 0.22266,0 0.39844,0 0.39844,-0.21094 0,-0.21093 -0.19922,-0.21093 -0.32813,-0.21093 -0.6914,0 -0.73828,-0.0937 -0.73828,-0.67969 z m 2.3086,-0.58594 c 0.33984,-0.44531 0.375,-1.07812 0.375,-1.60547 0,-0.57421 -0.0703,-1.20703 -0.45704,-1.69921 0.49219,0.10546 1.67579,0.48046 1.67579,1.6875 0,0.77343 -0.36329,1.38281 -1.59375,1.61718 z m -2.3086,-2.78906 c 0,-0.24609 0,-0.64453 0.75,-0.64453 1.00781,0 1.51172,0.42187 1.51172,1.82812 0,1.54688 -0.36328,1.76954 -2.26172,1.76954 z m -1.61719,6.70313 c 0.0937,-0.21094 0.0937,-0.55079 0.0937,-0.65625 v -6.03516 c 0,-0.11719 0,-0.44531 -0.0937,-0.65625 h 1.35938 c -0.15234,0.1875 -0.15234,0.43359 -0.15234,0.60937 v 6.08204 c 0,0.11718 0,0.44531 0.0937,0.65625 z m 2.54297,-3.32813 c 0.082,-0.0117 0.12891,-0.0234 0.22266,-0.0234 0.1875,0 0.44531,-0.0234 0.62109,-0.0469 0.1875,0.28125 1.47657,2.41406 2.46094,3.39844 h -1.14844 z m 0,0"
         style="fill:#000000;fill-opacity:1;fill-rule:nonzero;stroke:none" />
      <path
         id="path12"
         d="m 44.410125,131.40894 c 0.234375,0 0.328125,0 0.328125,-0.22266 0,-0.1289 -0.09375,-0.1289 -0.304687,-0.1289 h -0.972657 c 0.234375,-1.23047 0.398438,-2.07422 0.492188,-2.46094 0.07031,-0.28125 0.328125,-0.5625 0.632812,-0.5625 0.257813,0 0.503907,0.10547 0.621094,0.22265 -0.46875,0.0469 -0.609375,0.38672 -0.609375,0.59766 0,0.23438 0.1875,0.375 0.410156,0.375 0.234375,0 0.597657,-0.19922 0.597657,-0.65625 0,-0.50391 -0.503907,-0.77344 -1.03125,-0.77344 -0.515625,0 -1.007813,0.38672 -1.253907,0.84375 -0.210937,0.42188 -0.328125,0.85547 -0.609375,2.41407 h -0.796875 c -0.234375,0 -0.351562,0 -0.351562,0.22265 0,0.12891 0.07031,0.12891 0.316406,0.12891 h 0.761719 c -0.210938,1.11328 -0.703125,3.80859 -0.984375,5.08594 -0.199219,1.04296 -0.375,1.92187 -0.972656,1.92187 -0.03516,0 -0.386719,0 -0.597657,-0.23437 0.609375,-0.0469 0.609375,-0.57422 0.609375,-0.58594 0,-0.23438 -0.1875,-0.375 -0.410156,-0.375 -0.234375,0 -0.597656,0.19922 -0.597656,0.65625 0,0.51562 0.527344,0.77344 0.996094,0.77344 1.21875,0 1.722656,-2.19141 1.851562,-2.78907 0.210938,-0.91406 0.796875,-4.08984 0.855469,-4.45312 z m 0,0"
         style="fill:#000000;fill-opacity:1;fill-rule:nonzero;stroke:none" />
      <path
         id="path13"
         d="m 50.014617,139.11988 c 0,-0.0352 0,-0.0586 -0.210937,-0.26954 -1.195313,-1.20703 -1.863282,-3.17578 -1.863282,-5.61328 0,-2.32031 0.5625,-4.3125 1.945313,-5.73047 0.128906,-0.10546 0.128906,-0.1289 0.128906,-0.16406 0,-0.0703 -0.07031,-0.0937 -0.117187,-0.0937 -0.152344,0 -1.136719,0.85547 -1.722657,2.02735 -0.609375,1.20703 -0.878906,2.49609 -0.878906,3.96093 0,1.06641 0.164063,2.48438 0.785156,3.76172 0.703125,1.44141 1.6875,2.21485 1.816407,2.21485 0.04687,0 0.117187,-0.0234 0.117187,-0.0937 z m 0,0"
         style="fill:#000000;fill-opacity:1;fill-rule:nonzero;stroke:none" />
      <path
         id="path14"
         d="m 56.336883,131.33863 c -0.375,0.0703 -0.515625,0.35156 -0.515625,0.58593 0,0.28125 0.222656,0.375 0.386719,0.375 0.363281,0 0.609375,-0.30468 0.609375,-0.63281 0,-0.49219 -0.574219,-0.72656 -1.078125,-0.72656 -0.726563,0 -1.125,0.71484 -1.242188,0.94922 -0.269531,-0.90235 -1.007812,-0.94922 -1.230469,-0.94922 -1.21875,0 -1.863281,1.57031 -1.863281,1.82812 0,0.0469 0.04687,0.10547 0.128906,0.10547 0.105469,0 0.128907,-0.0703 0.152344,-0.11719 0.398438,-1.32421 1.207031,-1.57031 1.546875,-1.57031 0.539063,0 0.644531,0.49219 0.644531,0.78516 0,0.25781 -0.07031,0.53906 -0.210937,1.11328 l -0.410156,1.62891 c -0.175782,0.72656 -0.527344,1.38281 -1.160157,1.38281 -0.05859,0 -0.351562,0 -0.609375,-0.15235 0.433594,-0.0937 0.527344,-0.44531 0.527344,-0.58593 0,-0.2461 -0.175781,-0.38672 -0.398437,-0.38672 -0.292969,0 -0.597657,0.24609 -0.597657,0.63281 0,0.50391 0.5625,0.72656 1.066407,0.72656 0.574218,0 0.984375,-0.45703 1.230468,-0.9375 0.199219,0.70313 0.796875,0.9375 1.230469,0.9375 1.230469,0 1.875,-1.55859 1.875,-1.82812 0,-0.0586 -0.04687,-0.10547 -0.128906,-0.10547 -0.105469,0 -0.117188,0.0586 -0.152344,0.15234 -0.316406,1.05469 -1.019531,1.54688 -1.546875,1.54688 -0.421875,0 -0.65625,-0.31641 -0.65625,-0.8086 0,-0.25781 0.05859,-0.44531 0.246094,-1.24218 l 0.421875,-1.61719 c 0.175781,-0.72656 0.585937,-1.24219 1.125,-1.24219 0.03516,0 0.363281,0 0.609375,0.15235 z m 0,0"
         style="fill:#000000;fill-opacity:1;fill-rule:nonzero;stroke:none" />
      <path
         id="path15"
         d="m 60.702117,133.23706 c 0,-0.91406 -0.128906,-2.39062 -0.796875,-3.77343 -0.703125,-1.44141 -1.675781,-2.21485 -1.816406,-2.21485 -0.04687,0 -0.105469,0.0234 -0.105469,0.0937 0,0.0352 0,0.0586 0.199219,0.26953 1.195312,1.20703 1.875,3.17578 1.875,5.61328 0,2.32032 -0.5625,4.3125 -1.957031,5.73047 -0.117188,0.10547 -0.117188,0.12891 -0.117188,0.16407 0,0.0703 0.05859,0.0937 0.105469,0.0937 0.164062,0 1.136719,-0.85547 1.722656,-2.02735 0.609375,-1.21875 0.890625,-2.51953 0.890625,-3.94922 z m 0,0"
         style="fill:#000000;fill-opacity:1;fill-rule:nonzero;stroke:none" />
      <path
         id="path16"
         d="m 65.92282,134.69019 c -0.04687,0.19922 -0.07031,0.24609 -0.234375,0.42187 -0.480468,0.63282 -0.984375,0.86719 -1.359375,0.86719 -0.398437,0 -0.761718,-0.31641 -0.761718,-1.13672 0,-0.63281 0.351562,-1.98047 0.621093,-2.51953 0.339844,-0.66797 0.878907,-1.13672 1.382813,-1.13672 0.796875,0 0.949219,0.97266 0.949219,1.04297 l -0.03516,0.17578 z m 0.738282,-2.96485 c -0.152344,-0.33984 -0.492188,-0.78515 -1.089844,-0.78515 -1.300781,0 -2.777344,1.64062 -2.777344,3.42187 0,1.24219 0.75,1.85157 1.511719,1.85157 0.632812,0 1.195312,-0.50391 1.40625,-0.73829 l -0.257813,1.07813 c -0.164062,0.65625 -0.234375,0.94922 -0.667968,1.37109 -0.492188,0.49219 -0.949219,0.49219 -1.207032,0.49219 -0.363281,0 -0.65625,-0.0234 -0.960937,-0.12891 0.386719,-0.10546 0.480469,-0.43359 0.480469,-0.5625 0,-0.19921 -0.140625,-0.38671 -0.410157,-0.38671 -0.28125,0 -0.597656,0.23437 -0.597656,0.63281 0,0.49219 0.492188,0.67969 1.511719,0.67969 1.535156,0 2.34375,-0.9961 2.496094,-1.64063 l 1.324218,-5.35547 c 0.03516,-0.14062 0.03516,-0.16406 0.03516,-0.1875 0,-0.16406 -0.128907,-0.29297 -0.304688,-0.29297 -0.292969,0 -0.457031,0.23438 -0.492187,0.55078 z m 0,0"
         style="fill:#000000;fill-opacity:1;fill-rule:nonzero;stroke:none" />
      <path
         id="path17"
         d="m 71.805633,139.11988 c 0,-0.0352 0,-0.0586 -0.210938,-0.26954 -1.195312,-1.20703 -1.863281,-3.17578 -1.863281,-5.61328 0,-2.32031 0.5625,-4.3125 1.945313,-5.73047 0.128906,-0.10546 0.128906,-0.1289 0.128906,-0.16406 0,-0.0703 -0.07031,-0.0937 -0.117188,-0.0937 -0.152343,0 -1.136718,0.85547 -1.722656,2.02735 -0.609375,1.20703 -0.878906,2.49609 -0.878906,3.96093 0,1.06641 0.164062,2.48438 0.785156,3.76172 0.703125,1.44141 1.6875,2.21485 1.816406,2.21485 0.04687,0 0.117188,-0.0234 0.117188,-0.0937 z m 0,0"
         style="fill:#000000;fill-opacity:1;fill-rule:nonzero;stroke:none" />
      <path
         id="path18"
         d="m 75.608367,137.54956 c -0.316406,0.45703 -0.785156,0.86719 -1.371094,0.86719 -0.140625,0 -0.714843,-0.0234 -0.902343,-0.57422 0.04687,0.0117 0.105468,0.0117 0.128906,0.0117 0.351562,0 0.597656,-0.31641 0.597656,-0.58594 0,-0.28125 -0.234375,-0.375 -0.410156,-0.375 -0.1875,0 -0.609375,0.14063 -0.609375,0.72657 0,0.60937 0.515625,1.03125 1.195312,1.03125 1.195313,0 2.402344,-1.10157 2.742188,-2.42579 l 1.171875,-4.66406 c 0.01172,-0.0586 0.03516,-0.1289 0.03516,-0.19922 0,-0.17578 -0.152344,-0.30468 -0.328125,-0.30468 -0.105469,0 -0.363281,0.0469 -0.457031,0.41015 l -0.878906,3.51563 c -0.05859,0.21093 -0.05859,0.23437 -0.152344,0.375 -0.246094,0.32812 -0.644531,0.73828 -1.207031,0.73828 -0.679688,0 -0.738282,-0.65625 -0.738282,-0.98438 0,-0.67968 0.328125,-1.60547 0.644532,-2.46093 0.140625,-0.35157 0.210937,-0.51563 0.210937,-0.75 0,-0.50391 -0.363281,-0.96094 -0.949219,-0.96094 -1.101562,0 -1.535156,1.73437 -1.535156,1.82812 0,0.0469 0.04687,0.10547 0.128906,0.10547 0.105469,0 0.117188,-0.0469 0.164063,-0.21094 0.292969,-1.00781 0.738281,-1.47656 1.207031,-1.47656 0.105469,0 0.316406,0 0.316406,0.38672 0,0.31641 -0.140625,0.65625 -0.316406,1.11328 -0.585937,1.57031 -0.585937,1.95703 -0.585937,2.25 0,1.13672 0.808593,1.39453 1.40625,1.39453 0.351562,0 0.785156,-0.10547 1.195312,-0.55078 l 0.01172,0.0117 c -0.175781,0.70313 -0.292969,1.17188 -0.714844,1.75781 z m 0,0"
         style="fill:#000000;fill-opacity:1;fill-rule:nonzero;stroke:none" />
      <path
         id="path19"
         d="m 81.980438,133.23706 c 0,-0.91406 -0.128907,-2.39062 -0.796875,-3.77343 -0.703125,-1.44141 -1.675782,-2.21485 -1.816407,-2.21485 -0.04687,0 -0.105468,0.0234 -0.105468,0.0937 0,0.0352 0,0.0586 0.199218,0.26953 1.195313,1.20703 1.875,3.17578 1.875,5.61328 0,2.32032 -0.5625,4.3125 -1.957031,5.73047 -0.117187,0.10547 -0.117187,0.12891 -0.117187,0.16407 0,0.0703 0.05859,0.0937 0.105468,0.0937 0.164063,0 1.136719,-0.85547 1.722657,-2.02735 0.609375,-1.21875 0.890625,-2.51953 0.890625,-3.94922 z m 12.574218,-0.89062 c 0.164063,0 0.375,0 0.375,-0.22266 0,-0.22265 -0.199218,-0.22265 -0.375,-0.22265 h -7.042968 c -0.175782,0 -0.386719,0 -0.386719,0.21093 0,0.23438 0.199219,0.23438 0.386719,0.23438 z m 0,2.21484 c 0.164063,0 0.375,0 0.375,-0.21094 0,-0.23437 -0.199218,-0.23437 -0.375,-0.23437 h -7.042968 c -0.175782,0 -0.386719,0 -0.386719,0.22266 0,0.22265 0.199219,0.22265 0.386719,0.22265 z m 0,0"
         style="fill:#000000;fill-opacity:1;fill-rule:nonzero;stroke:none" />
      <path
         id="path20"
         d="m 104.56247,131.33863 c -0.375,0.0703 -0.51563,0.35156 -0.51563,0.58593 0,0.28125 0.22266,0.375 0.38672,0.375 0.36328,0 0.60938,-0.30468 0.60938,-0.63281 0,-0.49219 -0.57422,-0.72656 -1.07813,-0.72656 -0.72656,0 -1.125,0.71484 -1.24218,0.94922 -0.26954,-0.90235 -1.00782,-0.94922 -1.23047,-0.94922 -1.21875,0 -1.863285,1.57031 -1.863285,1.82812 0,0.0469 0.04687,0.10547 0.128906,0.10547 0.105469,0 0.128907,-0.0703 0.152344,-0.11719 0.398435,-1.32421 1.207035,-1.57031 1.546875,-1.57031 0.53906,0 0.64453,0.49219 0.64453,0.78516 0,0.25781 -0.0703,0.53906 -0.21094,1.11328 l -0.41015,1.62891 c -0.17578,0.72656 -0.52735,1.38281 -1.16016,1.38281 -0.0586,0 -0.351561,0 -0.609374,-0.15235 0.433594,-0.0937 0.527344,-0.44531 0.527344,-0.58593 0,-0.2461 -0.17578,-0.38672 -0.398437,-0.38672 -0.292969,0 -0.597657,0.24609 -0.597657,0.63281 0,0.50391 0.5625,0.72656 1.066404,0.72656 0.57422,0 0.98438,-0.45703 1.23047,-0.9375 0.19922,0.70313 0.79688,0.9375 1.23047,0.9375 1.23047,0 1.875,-1.55859 1.875,-1.82812 0,-0.0586 -0.0469,-0.10547 -0.12891,-0.10547 -0.10546,0 -0.11718,0.0586 -0.15234,0.15234 -0.31641,1.05469 -1.01953,1.54688 -1.54687,1.54688 -0.42188,0 -0.65625,-0.31641 -0.65625,-0.8086 0,-0.25781 0.0586,-0.44531 0.24609,-1.24218 l 0.42187,-1.61719 c 0.17579,-0.72656 0.58594,-1.24219 1.125,-1.24219 0.0352,0 0.36329,0 0.60938,0.15235 z m 0,0"
         style="fill:#000000;fill-opacity:1;fill-rule:nonzero;stroke:none" />
      <path
         id="path21"
         d="m 112.97946,133.448 h 3.30469 c 0.16406,0 0.375,0 0.375,-0.21094 0,-0.22265 -0.19922,-0.22265 -0.375,-0.22265 h -3.30469 v -3.30469 c 0,-0.16406 0,-0.38672 -0.21094,-0.38672 -0.23437,0 -0.23437,0.21094 -0.23437,0.38672 v 3.30469 h -3.29297 c -0.17578,0 -0.38672,0 -0.38672,0.21093 0,0.22266 0.19922,0.22266 0.38672,0.22266 h 3.29297 v 3.30469 c 0,0.16406 0,0.38672 0.22265,0.38672 0.22266,0 0.22266,-0.21094 0.22266,-0.38672 z m 0,0"
         style="fill:#000000;fill-opacity:1;fill-rule:nonzero;stroke:none" />
      <path
         id="path22"
         d="m 123.11325,137.54956 c -0.31641,0.45703 -0.78516,0.86719 -1.37109,0.86719 -0.14063,0 -0.71485,-0.0234 -0.90235,-0.57422 0.0469,0.0117 0.10547,0.0117 0.12891,0.0117 0.35156,0 0.59766,-0.31641 0.59766,-0.58594 0,-0.28125 -0.23438,-0.375 -0.41016,-0.375 -0.1875,0 -0.60938,0.14063 -0.60938,0.72657 0,0.60937 0.51563,1.03125 1.19532,1.03125 1.19531,0 2.40234,-1.10157 2.74218,-2.42579 l 1.17188,-4.66406 c 0.0117,-0.0586 0.0352,-0.1289 0.0352,-0.19922 0,-0.17578 -0.15235,-0.30468 -0.32813,-0.30468 -0.10547,0 -0.36328,0.0469 -0.45703,0.41015 l -0.87891,3.51563 c -0.0586,0.21093 -0.0586,0.23437 -0.15234,0.375 -0.24609,0.32812 -0.64453,0.73828 -1.20703,0.73828 -0.67969,0 -0.73828,-0.65625 -0.73828,-0.98438 0,-0.67968 0.32812,-1.60547 0.64453,-2.46093 0.14062,-0.35157 0.21094,-0.51563 0.21094,-0.75 0,-0.50391 -0.36329,-0.96094 -0.94922,-0.96094 -1.10157,0 -1.53516,1.73437 -1.53516,1.82812 0,0.0469 0.0469,0.10547 0.12891,0.10547 0.10547,0 0.11718,-0.0469 0.16406,-0.21094 0.29297,-1.00781 0.73828,-1.47656 1.20703,-1.47656 0.10547,0 0.31641,0 0.31641,0.38672 0,0.31641 -0.14063,0.65625 -0.31641,1.11328 -0.58594,1.57031 -0.58594,1.95703 -0.58594,2.25 0,1.13672 0.8086,1.39453 1.40625,1.39453 0.35157,0 0.78516,-0.10547 1.19532,-0.55078 l 0.0117,0.0117 c -0.17578,0.70313 -0.29296,1.17188 -0.71484,1.75781 z m 0,0"
         style="fill:#000000;fill-opacity:1;fill-rule:nonzero;stroke:none" />
      <path
         id="path23"
         d="m 133.53415,133.448 h 3.30469 c 0.16406,0 0.375,0 0.375,-0.21094 0,-0.22265 -0.19922,-0.22265 -0.375,-0.22265 h -3.30469 v -3.30469 c 0,-0.16406 0,-0.38672 -0.21094,-0.38672 -0.23437,0 -0.23437,0.21094 -0.23437,0.38672 v 3.30469 h -3.29297 c -0.17578,0 -0.38672,0 -0.38672,0.21093 0,0.22266 0.19922,0.22266 0.38672,0.22266 h 3.29297 v 3.30469 c 0,0.16406 0,0.38672 0.22265,0.38672 0.22266,0 0.22266,-0.21094 0.22266,-0.38672 z m 10.43555,-4.89844 c 0,-0.26953 0,-0.28125 -0.2461,-0.28125 -0.28125,0.31641 -0.8789,0.76172 -2.10937,0.76172 v 0.35156 c 0.26953,0 0.86718,0 1.52343,-0.3164 v 6.22265 c 0,0.4336 -0.0352,0.57422 -1.07812,0.57422 h -0.375 v 0.35157 c 0.31641,-0.0234 1.47656,-0.0234 1.875,-0.0234 0.39844,0 1.54687,0 1.86328,0.0234 v -0.35157 h -0.36328 c -1.05469,0 -1.08984,-0.14062 -1.08984,-0.57422 z m 0,0"
         style="fill:#000000;fill-opacity:1;fill-rule:nonzero;stroke:none" />
      <path
         id="path24"
         d="m 34.683563,157.74097 c -0.375,0.0703 -0.515625,0.35156 -0.515625,0.58594 0,0.28125 0.222656,0.375 0.386718,0.375 0.363282,0 0.609375,-0.30469 0.609375,-0.63282 0,-0.49218 -0.574218,-0.72656 -1.078125,-0.72656 -0.726562,0 -1.125,0.71485 -1.242187,0.94922 -0.269531,-0.90234 -1.007813,-0.94922 -1.230469,-0.94922 -1.21875,0 -1.863281,1.57031 -1.863281,1.82813 0,0.0469 0.04687,0.10547 0.128906,0.10547 0.105469,0 0.128906,-0.0703 0.152344,-0.11719 0.398437,-1.32422 1.207031,-1.57031 1.546875,-1.57031 0.539062,0 0.644531,0.49218 0.644531,0.78515 0,0.25781 -0.07031,0.53906 -0.210937,1.11328 l -0.410157,1.62891 c -0.175781,0.72656 -0.527343,1.38281 -1.160156,1.38281 -0.05859,0 -0.351562,0 -0.609375,-0.15234 0.433594,-0.0937 0.527344,-0.44531 0.527344,-0.58594 0,-0.24609 -0.175781,-0.38672 -0.398438,-0.38672 -0.292968,0 -0.597656,0.2461 -0.597656,0.63281 0,0.50391 0.5625,0.72657 1.066406,0.72657 0.574219,0 0.984375,-0.45703 1.230469,-0.9375 0.199219,0.70312 0.796875,0.9375 1.230469,0.9375 1.230469,0 1.875,-1.5586 1.875,-1.82813 0,-0.0586 -0.04687,-0.10547 -0.128906,-0.10547 -0.105469,0 -0.117188,0.0586 -0.152344,0.15235 -0.316406,1.05468 -1.019531,1.54687 -1.546875,1.54687 -0.421875,0 -0.65625,-0.3164 -0.65625,-0.80859 0,-0.25781 0.05859,-0.44531 0.246094,-1.24219 l 0.421875,-1.61719 c 0.175781,-0.72656 0.585937,-1.24218 1.125,-1.24218 0.03516,0 0.363281,0 0.609375,0.15234 z m 0,0"
         style="fill:#000000;fill-opacity:1;fill-rule:nonzero;stroke:none" />
      <path
         id="path25"
         d="m 45.968719,163.95191 c -0.316406,0.45703 -0.785156,0.86718 -1.371094,0.86718 -0.140625,0 -0.714844,-0.0234 -0.902344,-0.57421 0.04687,0.0117 0.105469,0.0117 0.128907,0.0117 0.351562,0 0.597656,-0.3164 0.597656,-0.58593 0,-0.28125 -0.234375,-0.375 -0.410156,-0.375 -0.1875,0 -0.609375,0.14062 -0.609375,0.72656 0,0.60937 0.515625,1.03125 1.195312,1.03125 1.195313,0 2.402344,-1.10156 2.742188,-2.42578 l 1.171875,-4.66406 c 0.01172,-0.0586 0.03516,-0.12891 0.03516,-0.19922 0,-0.17578 -0.152344,-0.30469 -0.328125,-0.30469 -0.105469,0 -0.363281,0.0469 -0.457031,0.41016 l -0.878907,3.51562 c -0.05859,0.21094 -0.05859,0.23438 -0.152343,0.375 -0.246094,0.32813 -0.644532,0.73828 -1.207032,0.73828 -0.679687,0 -0.738281,-0.65625 -0.738281,-0.98437 0,-0.67969 0.328125,-1.60547 0.644531,-2.46094 0.140625,-0.35156 0.210938,-0.51563 0.210938,-0.75 0,-0.50391 -0.363281,-0.96094 -0.949219,-0.96094 -1.101562,0 -1.535156,1.73438 -1.535156,1.82813 0,0.0469 0.04687,0.10547 0.128906,0.10547 0.105469,0 0.117188,-0.0469 0.164063,-0.21094 0.292968,-1.00781 0.738281,-1.47656 1.207031,-1.47656 0.105469,0 0.316406,0 0.316406,0.38671 0,0.31641 -0.140625,0.65625 -0.316406,1.11329 -0.585938,1.57031 -0.585938,1.95703 -0.585938,2.25 0,1.13671 0.808594,1.39453 1.40625,1.39453 0.351563,0 0.785157,-0.10547 1.195313,-0.55078 l 0.01172,0.0117 c -0.175782,0.70313 -0.292969,1.17188 -0.714844,1.75782 z m 0,0"
         style="fill:#000000;fill-opacity:1;fill-rule:nonzero;stroke:none" />
      <path
         id="path26"
         d="m 52.346648,214.7146 c 0,-0.98437 0.269532,-3.25781 2.390625,-4.76953 0.152344,-0.11719 0.164063,-0.12891 0.164063,-0.33984 0,-0.28125 -0.01172,-0.29297 -0.304688,-0.29297 h -0.1875 c -2.578125,1.38281 -3.492187,3.64453 -3.492187,5.40234 v 5.14453 c 0,0.30469 0.01172,0.31641 0.328125,0.31641 h 0.773437 c 0.316407,0 0.328125,-0.0117 0.328125,-0.31641 z m 0,5.5459 c 0,-0.30469 -0.01172,-0.31641 -0.328125,-0.31641 h -0.773437 c -0.316406,0 -0.328125,0.0117 -0.328125,0.31641 v 3.1875 c 0,0.30469 0.01172,0.31641 0.328125,0.31641 h 0.773437 c 0.316407,0 0.328125,-0.0117 0.328125,-0.31641 z m 0,3.58594 c 0,-0.30469 -0.01172,-0.31641 -0.328125,-0.31641 h -0.773437 c -0.316406,0 -0.328125,0.0117 -0.328125,0.31641 v 3.1875 c 0,0.30469 0.01172,0.3164 0.328125,0.3164 h 0.773437 c 0.316407,0 0.328125,-0.0117 0.328125,-0.3164 z m 0,3.58594 c 0,-0.30469 -0.01172,-0.31641 -0.328125,-0.31641 h -0.773437 c -0.316406,0 -0.328125,0.0117 -0.328125,0.31641 v 3.1875 c 0,0.30468 0.01172,0.3164 0.328125,0.3164 h 0.773437 c 0.316407,0 0.328125,-0.0117 0.328125,-0.3164 z m 0,3.58593 c 0,-0.30468 -0.01172,-0.3164 -0.328125,-0.3164 h -0.773437 c -0.316406,0 -0.328125,0.0117 -0.328125,0.3164 v 3.1875 c 0,0.30469 0.01172,0.31641 0.328125,0.31641 h 0.773437 c 0.316407,0 0.328125,-0.0117 0.328125,-0.31641 z m 0,3.58594 c 0,-0.30469 -0.01172,-0.31641 -0.328125,-0.31641 h -0.773437 c -0.316406,0 -0.328125,0.0117 -0.328125,0.31641 v 3.1875 c 0,0.30469 0.01172,0.31641 0.328125,0.31641 h 0.773437 c 0.316407,0 0.328125,-0.0117 0.328125,-0.31641 z m 0,3.58887 c 0,-0.30469 -0.01172,-0.31641 -0.328125,-0.31641 h -0.773437 c -0.316406,0 -0.328125,0.0117 -0.328125,0.31641 v 3.1875 c 0,0.30468 0.01172,0.3164 0.328125,0.3164 h 0.773437 c 0.316407,0 0.328125,-0.0117 0.328125,-0.3164 z m -1.429687,24.70312 c 0,0.30469 0.01172,0.31641 0.328125,0.31641 h 0.773437 c 0.316407,0 0.328125,-0.0117 0.328125,-0.31641 v -5.05078 c 0,-1.44141 -0.609375,-3.87891 -3.28125,-5.50781 2.695313,-1.64063 3.28125,-4.10156 3.28125,-5.50781 v -5.05079 c 0,-0.30468 -0.01172,-0.3164 -0.328125,-0.3164 h -0.773437 c -0.316406,0 -0.328125,0.0117 -0.328125,0.3164 v 5.0625 c 0,0.9961 -0.222656,3.49219 -2.414063,5.15625 -0.140625,0.11719 -0.152343,0.12891 -0.152343,0.33985 0,0.21094 0.01172,0.22265 0.152343,0.33984 0.304688,0.23438 1.136719,0.86719 1.710938,2.07422 0.457031,0.96094 0.703125,2.01563 0.703125,3.08203 z m 1.429687,0.40137 c 0,-0.30469 -0.01172,-0.31641 -0.328125,-0.31641 h -0.773437 c -0.316406,0 -0.328125,0.0117 -0.328125,0.31641 v 3.1875 c 0,0.30469 0.01172,0.31641 0.328125,0.31641 h 0.773437 c 0.316407,0 0.328125,-0.0117 0.328125,-0.31641 z m 0,3.58594 c 0,-0.30469 -0.01172,-0.31641 -0.328125,-0.31641 h -0.773437 c -0.316406,0 -0.328125,0.0117 -0.328125,0.31641 v 3.1875 c 0,0.30468 0.01172,0.3164 0.328125,0.3164 h 0.773437 c 0.316407,0 0.328125,-0.0117 0.328125,-0.3164 z m 0,3.58886 c 0,-0.30468 -0.01172,-0.3164 -0.328125,-0.3164 h -0.773437 c -0.316406,0 -0.328125,0.0117 -0.328125,0.3164 v 3.1875 c 0,0.30469 0.01172,0.31641 0.328125,0.31641 h 0.773437 c 0.316407,0 0.328125,-0.0117 0.328125,-0.31641 z m 0,3.58594 c 0,-0.30469 -0.01172,-0.3164 -0.328125,-0.3164 h -0.773437 c -0.316406,0 -0.328125,0.0117 -0.328125,0.3164 v 3.1875 c 0,0.30469 0.01172,0.31641 0.328125,0.31641 h 0.773437 c 0.316407,0 0.328125,-0.0117 0.328125,-0.31641 z m 0,3.58594 c 0,-0.30469 -0.01172,-0.31641 -0.328125,-0.31641 h -0.773437 c -0.316406,0 -0.328125,0.0117 -0.328125,0.31641 v 3.1875 c 0,0.30469 0.01172,0.31641 0.328125,0.31641 h 0.773437 c 0.316407,0 0.328125,-0.0117 0.328125,-0.31641 z m 0,3.58594 c 0,-0.30469 -0.01172,-0.31641 -0.328125,-0.31641 h -0.773437 c -0.316406,0 -0.328125,0.0117 -0.328125,0.31641 v 3.1875 c 0,0.30468 0.01172,0.3164 0.328125,0.3164 h 0.773437 c 0.316407,0 0.328125,-0.0117 0.328125,-0.3164 z m 2.25,14.13281 c 0.292969,0 0.304688,-0.0117 0.304688,-0.28125 0,-0.22266 -0.01172,-0.23438 -0.05859,-0.26953 -0.363281,-0.26953 -1.230469,-0.87891 -1.792969,-1.98047 -0.46875,-0.91406 -0.703125,-1.82813 -0.703125,-2.87109 v -5.14454 c 0,-0.30468 -0.01172,-0.3164 -0.328125,-0.3164 H 51.24509 c -0.316406,0 -0.328125,0.0117 -0.328125,0.3164 v 5.14454 c 0,1.76953 0.914062,4.03125 3.492187,5.40234 z m 0,0"
         style="fill:#000000;fill-opacity:1;fill-rule:nonzero;stroke:none" />
      <path
         id="path27"
         d="m 62.609344,216.26148 c -0.375,0.0703 -0.515625,0.35156 -0.515625,0.58593 0,0.28125 0.222656,0.375 0.386719,0.375 0.363281,0 0.609375,-0.30468 0.609375,-0.63281 0,-0.49219 -0.574219,-0.72656 -1.078125,-0.72656 -0.726563,0 -1.125,0.71484 -1.242188,0.94922 -0.269531,-0.90235 -1.007812,-0.94922 -1.230469,-0.94922 -1.21875,0 -1.863281,1.57031 -1.863281,1.82812 0,0.0469 0.04687,0.10547 0.128906,0.10547 0.105469,0 0.128907,-0.0703 0.152344,-0.11718 0.398438,-1.32422 1.207031,-1.57032 1.546875,-1.57032 0.539063,0 0.644531,0.49219 0.644531,0.78516 0,0.25781 -0.07031,0.53906 -0.210937,1.11328 l -0.410156,1.62891 c -0.175782,0.72656 -0.527344,1.38281 -1.160157,1.38281 -0.05859,0 -0.351562,0 -0.609375,-0.15234 0.433594,-0.0937 0.527344,-0.44532 0.527344,-0.58594 0,-0.2461 -0.175781,-0.38672 -0.398437,-0.38672 -0.292969,0 -0.597657,0.24609 -0.597657,0.63281 0,0.50391 0.5625,0.72656 1.066407,0.72656 0.574218,0 0.984375,-0.45703 1.230468,-0.9375 0.199219,0.70313 0.796875,0.9375 1.230469,0.9375 1.230469,0 1.875,-1.55859 1.875,-1.82812 0,-0.0586 -0.04687,-0.10547 -0.128906,-0.10547 -0.105469,0 -0.117188,0.0586 -0.152344,0.15234 -0.316406,1.05469 -1.019531,1.54688 -1.546875,1.54688 -0.421875,0 -0.65625,-0.31641 -0.65625,-0.80859 0,-0.25782 0.05859,-0.44532 0.246094,-1.24219 l 0.421875,-1.61719 c 0.175781,-0.72656 0.585937,-1.24219 1.125,-1.24219 0.03516,0 0.363281,0 0.609375,0.15235 z m 0,0"
         style="fill:#000000;fill-opacity:1;fill-rule:nonzero;stroke:none" />
      <path
         id="path28"
         d="m 66.11032,217.85523 c 0,-0.22266 -0.02344,-0.22266 -0.234375,-0.22266 -0.328125,0.31641 -0.75,0.50391 -1.511718,0.50391 v 0.26953 c 0.222656,0 0.644531,0 1.113281,-0.22266 v 4.08985 c 0,0.29296 -0.02344,0.39843 -0.785156,0.39843 h -0.28125 v 0.25782 c 0.328125,-0.0234 1.019531,-0.0234 1.371093,-0.0234 0.363282,0 1.054688,0 1.382813,0.0234 v -0.25782 h -0.28125 c -0.75,0 -0.773438,-0.10547 -0.773438,-0.39843 z m 0,0"
         style="fill:#000000;fill-opacity:1;fill-rule:nonzero;stroke:none" />
      <path
         id="path29"
         d="m 73.994109,216.26148 c -0.375,0.0703 -0.515625,0.35156 -0.515625,0.58593 0,0.28125 0.222657,0.375 0.386719,0.375 0.363281,0 0.609375,-0.30468 0.609375,-0.63281 0,-0.49219 -0.574219,-0.72656 -1.078125,-0.72656 -0.726562,0 -1.125,0.71484 -1.242187,0.94922 -0.269532,-0.90235 -1.007813,-0.94922 -1.230469,-0.94922 -1.21875,0 -1.863281,1.57031 -1.863281,1.82812 0,0.0469 0.04687,0.10547 0.128906,0.10547 0.105469,0 0.128906,-0.0703 0.152344,-0.11718 0.398437,-1.32422 1.207031,-1.57032 1.546875,-1.57032 0.539062,0 0.644531,0.49219 0.644531,0.78516 0,0.25781 -0.07031,0.53906 -0.210938,1.11328 l -0.410156,1.62891 c -0.175781,0.72656 -0.527344,1.38281 -1.160156,1.38281 -0.05859,0 -0.351563,0 -0.609375,-0.15234 0.433594,-0.0937 0.527344,-0.44532 0.527344,-0.58594 0,-0.2461 -0.175782,-0.38672 -0.398438,-0.38672 -0.292969,0 -0.597656,0.24609 -0.597656,0.63281 0,0.50391 0.5625,0.72656 1.066406,0.72656 0.574219,0 0.984375,-0.45703 1.230469,-0.9375 0.199219,0.70313 0.796875,0.9375 1.230469,0.9375 1.230468,0 1.875,-1.55859 1.875,-1.82812 0,-0.0586 -0.04687,-0.10547 -0.128907,-0.10547 -0.105468,0 -0.117187,0.0586 -0.152343,0.15234 -0.316407,1.05469 -1.019532,1.54688 -1.546875,1.54688 -0.421875,0 -0.65625,-0.31641 -0.65625,-0.80859 0,-0.25782 0.05859,-0.44532 0.246093,-1.24219 l 0.421875,-1.61719 c 0.175782,-0.72656 0.585938,-1.24219 1.125,-1.24219 0.03516,0 0.363282,0 0.609375,0.15235 z m 0,0"
         style="fill:#000000;fill-opacity:1;fill-rule:nonzero;stroke:none" />
      <path
         id="path30"
         d="m 77.237273,221.30054 c 0.128907,-0.11719 0.457032,-0.375 0.585938,-0.49219 0.492187,-0.45703 0.960937,-0.89062 0.960937,-1.61719 0,-0.94921 -0.796875,-1.55859 -1.792968,-1.55859 -0.949219,0 -1.582032,0.72656 -1.582032,1.42969 0,0.39844 0.316407,0.44531 0.421875,0.44531 0.164063,0 0.410157,-0.11719 0.410157,-0.42187 0,-0.41016 -0.398438,-0.41016 -0.492188,-0.41016 0.234375,-0.58594 0.773438,-0.78516 1.160156,-0.78516 0.738282,0 1.125,0.63282 1.125,1.30078 0,0.83204 -0.585937,1.42969 -1.523437,2.40235 l -1.007813,1.03125 c -0.09375,0.0937 -0.09375,0.10547 -0.09375,0.30469 h 3.152344 l 0.222656,-1.42969 h -0.246093 c -0.02344,0.16406 -0.08203,0.5625 -0.175782,0.71484 -0.04687,0.0586 -0.65625,0.0586 -0.785156,0.0586 h -1.417969 z m 0,0"
         style="fill:#000000;fill-opacity:1;fill-rule:nonzero;stroke:none" />
      <path
         id="path31"
         d="m 85.378875,216.26148 c -0.375,0.0703 -0.515625,0.35156 -0.515625,0.58593 0,0.28125 0.222656,0.375 0.386719,0.375 0.363281,0 0.609375,-0.30468 0.609375,-0.63281 0,-0.49219 -0.574219,-0.72656 -1.078125,-0.72656 -0.726563,0 -1.125,0.71484 -1.242188,0.94922 -0.269531,-0.90235 -1.007812,-0.94922 -1.230468,-0.94922 -1.21875,0 -1.863282,1.57031 -1.863282,1.82812 0,0.0469 0.04687,0.10547 0.128907,0.10547 0.105468,0 0.128906,-0.0703 0.152343,-0.11718 0.398438,-1.32422 1.207032,-1.57032 1.546875,-1.57032 0.539063,0 0.644532,0.49219 0.644532,0.78516 0,0.25781 -0.07031,0.53906 -0.210938,1.11328 l -0.410156,1.62891 c -0.175781,0.72656 -0.527344,1.38281 -1.160156,1.38281 -0.05859,0 -0.351563,0 -0.609375,-0.15234 0.433593,-0.0937 0.527343,-0.44532 0.527343,-0.58594 0,-0.2461 -0.175781,-0.38672 -0.398437,-0.38672 -0.292969,0 -0.597656,0.24609 -0.597656,0.63281 0,0.50391 0.5625,0.72656 1.066406,0.72656 0.574219,0 0.984375,-0.45703 1.230469,-0.9375 0.199218,0.70313 0.796875,0.9375 1.230468,0.9375 1.230469,0 1.875,-1.55859 1.875,-1.82812 0,-0.0586 -0.04687,-0.10547 -0.128906,-0.10547 -0.105469,0 -0.117187,0.0586 -0.152344,0.15234 -0.316406,1.05469 -1.019531,1.54688 -1.546875,1.54688 -0.421875,0 -0.65625,-0.31641 -0.65625,-0.80859 0,-0.25782 0.05859,-0.44532 0.246094,-1.24219 l 0.421875,-1.61719 c 0.175781,-0.72656 0.585938,-1.24219 1.125,-1.24219 0.03516,0 0.363281,0 0.609375,0.15235 z m 0,0"
         style="fill:#000000;fill-opacity:1;fill-rule:nonzero;stroke:none" />
      <path
         id="path32"
         d="m 88.387664,220.26929 c 0.632813,0 1.03125,0.45703 1.03125,1.30078 0,0.99609 -0.574219,1.28906 -0.996094,1.28906 -0.433593,0 -1.03125,-0.16406 -1.3125,-0.58593 0.292969,0 0.492188,-0.17579 0.492188,-0.44532 0,-0.25781 -0.1875,-0.43359 -0.445313,-0.43359 -0.210937,0 -0.433593,0.12891 -0.433593,0.45703 0,0.75 0.808593,1.24219 1.722656,1.24219 1.054687,0 1.792969,-0.72656 1.792969,-1.52344 0,-0.66797 -0.515625,-1.26562 -1.335938,-1.44141 0.632813,-0.22265 1.101563,-0.77343 1.101563,-1.40625 0,-0.63281 -0.714844,-1.08984 -1.546875,-1.08984 -0.855469,0 -1.5,0.45703 -1.5,1.06641 0,0.29297 0.199218,0.42187 0.410156,0.42187 0.246094,0 0.410156,-0.17578 0.410156,-0.41015 0,-0.29297 -0.257812,-0.39844 -0.433594,-0.41016 0.339844,-0.43359 0.949219,-0.46875 1.089844,-0.46875 0.210938,0 0.808594,0.0703 0.808594,0.89062 0,0.5625 -0.222656,0.89063 -0.339844,1.01954 -0.234375,0.24609 -0.421875,0.25781 -0.902344,0.29296 -0.152343,0.0117 -0.222656,0.0234 -0.222656,0.11719 0,0.11719 0.07031,0.11719 0.210938,0.11719 z m 0,0"
         style="fill:#000000;fill-opacity:1;fill-rule:nonzero;stroke:none" />
      <path
         id="path33"
         d="m 102.49704,217.26929 c 0.16406,0 0.375,0 0.375,-0.22266 0,-0.22265 -0.19922,-0.22265 -0.375,-0.22265 h -7.04297 c -0.175781,0 -0.386718,0 -0.386718,0.21093 0,0.23438 0.199218,0.23438 0.386718,0.23438 z m 0,2.21484 c 0.16406,0 0.375,0 0.375,-0.21093 0,-0.23438 -0.19922,-0.23438 -0.375,-0.23438 h -7.04297 c -0.175781,0 -0.386718,0 -0.386718,0.22266 0,0.22265 0.199218,0.22265 0.386718,0.22265 z m 7.80176,-6.01172 c 0,-0.26953 0,-0.28125 -0.2461,-0.28125 -0.28125,0.31641 -0.8789,0.76172 -2.10937,0.76172 v 0.35157 c 0.26953,0 0.86719,0 1.52344,-0.31641 v 6.22266 c 0,0.43359 -0.0352,0.57421 -1.07813,0.57421 h -0.375 v 0.35157 c 0.31641,-0.0234 1.47656,-0.0234 1.875,-0.0234 0.39844,0 1.54688,0 1.86328,0.0234 v -0.35157 h -0.36328 c -1.05469,0 -1.08984,-0.14062 -1.08984,-0.57421 z m 0,0"
         style="fill:#000000;fill-opacity:1;fill-rule:nonzero;stroke:none" />
      <path
         id="path34"
         d="m 62.609344,233.59644 c -0.375,0.0703 -0.515625,0.35156 -0.515625,0.58594 0,0.28125 0.222656,0.375 0.386719,0.375 0.363281,0 0.609375,-0.30469 0.609375,-0.63282 0,-0.49218 -0.574219,-0.72656 -1.078125,-0.72656 -0.726563,0 -1.125,0.71484 -1.242188,0.94922 -0.269531,-0.90234 -1.007812,-0.94922 -1.230469,-0.94922 -1.21875,0 -1.863281,1.57031 -1.863281,1.82813 0,0.0469 0.04687,0.10546 0.128906,0.10546 0.105469,0 0.128907,-0.0703 0.152344,-0.11718 0.398438,-1.32422 1.207031,-1.57032 1.546875,-1.57032 0.539063,0 0.644531,0.49219 0.644531,0.78516 0,0.25781 -0.07031,0.53906 -0.210937,1.11328 l -0.410156,1.62891 c -0.175782,0.72656 -0.527344,1.38281 -1.160157,1.38281 -0.05859,0 -0.351562,0 -0.609375,-0.15234 0.433594,-0.0937 0.527344,-0.44532 0.527344,-0.58594 0,-0.24609 -0.175781,-0.38672 -0.398437,-0.38672 -0.292969,0 -0.597657,0.24609 -0.597657,0.63281 0,0.50391 0.5625,0.72657 1.066407,0.72657 0.574218,0 0.984375,-0.45704 1.230468,-0.9375 0.199219,0.70312 0.796875,0.9375 1.230469,0.9375 1.230469,0 1.875,-1.5586 1.875,-1.82813 0,-0.0586 -0.04687,-0.10547 -0.128906,-0.10547 -0.105469,0 -0.117188,0.0586 -0.152344,0.15235 -0.316406,1.05468 -1.019531,1.54687 -1.546875,1.54687 -0.421875,0 -0.65625,-0.31641 -0.65625,-0.80859 0,-0.25782 0.05859,-0.44532 0.246094,-1.24219 l 0.421875,-1.61719 c 0.175781,-0.72656 0.585937,-1.24219 1.125,-1.24219 0.03516,0 0.363281,0 0.609375,0.15235 z m 0,0"
         style="fill:#000000;fill-opacity:1;fill-rule:nonzero;stroke:none" />
      <path
         id="path35"
         d="m 65.852508,238.6355 c 0.128906,-0.11719 0.457031,-0.375 0.585937,-0.49219 0.492188,-0.45703 0.960938,-0.89062 0.960938,-1.61718 0,-0.94922 -0.796875,-1.5586 -1.792969,-1.5586 -0.949219,0 -1.582031,0.72656 -1.582031,1.42969 0,0.39844 0.316406,0.44531 0.421875,0.44531 0.164062,0 0.410156,-0.11719 0.410156,-0.42187 0,-0.41016 -0.398437,-0.41016 -0.492187,-0.41016 0.234375,-0.58594 0.773437,-0.78516 1.160156,-0.78516 0.738281,0 1.125,0.63282 1.125,1.30079 0,0.83203 -0.585938,1.42968 -1.523438,2.40234 l -1.007812,1.03125 c -0.09375,0.0937 -0.09375,0.10547 -0.09375,0.30469 h 3.152344 l 0.222656,-1.42969 h -0.246094 c -0.02344,0.16406 -0.08203,0.5625 -0.175781,0.71484 -0.04687,0.0586 -0.65625,0.0586 -0.785156,0.0586 h -1.417969 z m 0,0"
         style="fill:#000000;fill-opacity:1;fill-rule:nonzero;stroke:none" />
      <path
         id="path36"
         d="m 73.994109,233.59644 c -0.375,0.0703 -0.515625,0.35156 -0.515625,0.58594 0,0.28125 0.222657,0.375 0.386719,0.375 0.363281,0 0.609375,-0.30469 0.609375,-0.63282 0,-0.49218 -0.574219,-0.72656 -1.078125,-0.72656 -0.726562,0 -1.125,0.71484 -1.242187,0.94922 -0.269532,-0.90234 -1.007813,-0.94922 -1.230469,-0.94922 -1.21875,0 -1.863281,1.57031 -1.863281,1.82813 0,0.0469 0.04687,0.10546 0.128906,0.10546 0.105469,0 0.128906,-0.0703 0.152344,-0.11718 0.398437,-1.32422 1.207031,-1.57032 1.546875,-1.57032 0.539062,0 0.644531,0.49219 0.644531,0.78516 0,0.25781 -0.07031,0.53906 -0.210938,1.11328 l -0.410156,1.62891 c -0.175781,0.72656 -0.527344,1.38281 -1.160156,1.38281 -0.05859,0 -0.351563,0 -0.609375,-0.15234 0.433594,-0.0937 0.527344,-0.44532 0.527344,-0.58594 0,-0.24609 -0.175782,-0.38672 -0.398438,-0.38672 -0.292969,0 -0.597656,0.24609 -0.597656,0.63281 0,0.50391 0.5625,0.72657 1.066406,0.72657 0.574219,0 0.984375,-0.45704 1.230469,-0.9375 0.199219,0.70312 0.796875,0.9375 1.230469,0.9375 1.230468,0 1.875,-1.5586 1.875,-1.82813 0,-0.0586 -0.04687,-0.10547 -0.128907,-0.10547 -0.105468,0 -0.117187,0.0586 -0.152343,0.15235 -0.316407,1.05468 -1.019532,1.54687 -1.546875,1.54687 -0.421875,0 -0.65625,-0.31641 -0.65625,-0.80859 0,-0.25782 0.05859,-0.44532 0.246093,-1.24219 l 0.421875,-1.61719 c 0.175782,-0.72656 0.585938,-1.24219 1.125,-1.24219 0.03516,0 0.363282,0 0.609375,0.15235 z m 0,0"
         style="fill:#000000;fill-opacity:1;fill-rule:nonzero;stroke:none" />
      <path
         id="path37"
         d="m 77.002898,237.60425 c 0.632813,0 1.03125,0.45703 1.03125,1.30078 0,0.9961 -0.574218,1.28906 -0.996093,1.28906 -0.433594,0 -1.03125,-0.16406 -1.3125,-0.58593 0.292968,0 0.492187,-0.17578 0.492187,-0.44532 0,-0.25781 -0.1875,-0.43359 -0.445312,-0.43359 -0.210938,0 -0.433594,0.12891 -0.433594,0.45703 0,0.75 0.808594,1.24219 1.722656,1.24219 1.054688,0 1.792969,-0.72656 1.792969,-1.52344 0,-0.66797 -0.515625,-1.26562 -1.335938,-1.4414 0.632813,-0.22266 1.101563,-0.77344 1.101563,-1.40625 0,-0.63282 -0.714844,-1.08985 -1.546875,-1.08985 -0.855469,0 -1.5,0.45703 -1.5,1.06641 0,0.29297 0.199219,0.42187 0.410156,0.42187 0.246094,0 0.410156,-0.17578 0.410156,-0.41015 0,-0.29297 -0.257812,-0.39844 -0.433593,-0.41016 0.339843,-0.43359 0.949218,-0.46875 1.089843,-0.46875 0.210938,0 0.808594,0.0703 0.808594,0.89063 0,0.5625 -0.222656,0.89062 -0.339844,1.01953 -0.234375,0.24609 -0.421875,0.25781 -0.902343,0.29297 -0.152344,0.0117 -0.222657,0.0234 -0.222657,0.11718 0,0.11719 0.07031,0.11719 0.210938,0.11719 z m 0,0"
         style="fill:#000000;fill-opacity:1;fill-rule:nonzero;stroke:none" />
      <path
         id="path38"
         d="m 85.378875,233.59644 c -0.375,0.0703 -0.515625,0.35156 -0.515625,0.58594 0,0.28125 0.222656,0.375 0.386719,0.375 0.363281,0 0.609375,-0.30469 0.609375,-0.63282 0,-0.49218 -0.574219,-0.72656 -1.078125,-0.72656 -0.726563,0 -1.125,0.71484 -1.242188,0.94922 -0.269531,-0.90234 -1.007812,-0.94922 -1.230468,-0.94922 -1.21875,0 -1.863282,1.57031 -1.863282,1.82813 0,0.0469 0.04687,0.10546 0.128907,0.10546 0.105468,0 0.128906,-0.0703 0.152343,-0.11718 0.398438,-1.32422 1.207032,-1.57032 1.546875,-1.57032 0.539063,0 0.644532,0.49219 0.644532,0.78516 0,0.25781 -0.07031,0.53906 -0.210938,1.11328 l -0.410156,1.62891 c -0.175781,0.72656 -0.527344,1.38281 -1.160156,1.38281 -0.05859,0 -0.351563,0 -0.609375,-0.15234 0.433593,-0.0937 0.527343,-0.44532 0.527343,-0.58594 0,-0.24609 -0.175781,-0.38672 -0.398437,-0.38672 -0.292969,0 -0.597656,0.24609 -0.597656,0.63281 0,0.50391 0.5625,0.72657 1.066406,0.72657 0.574219,0 0.984375,-0.45704 1.230469,-0.9375 0.199218,0.70312 0.796875,0.9375 1.230468,0.9375 1.230469,0 1.875,-1.5586 1.875,-1.82813 0,-0.0586 -0.04687,-0.10547 -0.128906,-0.10547 -0.105469,0 -0.117187,0.0586 -0.152344,0.15235 -0.316406,1.05468 -1.019531,1.54687 -1.546875,1.54687 -0.421875,0 -0.65625,-0.31641 -0.65625,-0.80859 0,-0.25782 0.05859,-0.44532 0.246094,-1.24219 l 0.421875,-1.61719 c 0.175781,-0.72656 0.585938,-1.24219 1.125,-1.24219 0.03516,0 0.363281,0 0.609375,0.15235 z m 0,0"
         style="fill:#000000;fill-opacity:1;fill-rule:nonzero;stroke:none" />
      <path
         id="path39"
         d="m 89.512664,235.10816 c 0,-0.16407 0,-0.22266 -0.164062,-0.22266 -0.105469,0 -0.117188,0.0117 -0.199219,0.11719 l -2.542969,3.6914 v 0.25782 h 2.25 v 0.66797 c 0,0.29296 -0.02344,0.38671 -0.632812,0.38671 h -0.1875 v 0.25782 c 0.679687,-0.0234 0.691406,-0.0234 1.148437,-0.0234 0.457031,0 0.46875,0 1.148438,0.0234 v -0.25782 h -0.1875 c -0.609375,0 -0.632813,-0.0937 -0.632813,-0.38671 v -0.66797 h 0.84375 v -0.25782 h -0.84375 z m -0.597656,0.64453 v 2.9414 h -2.027344 z m 0,0"
         style="fill:#000000;fill-opacity:1;fill-rule:nonzero;stroke:none" />
      <path
         id="path40"
         d="m 102.49704,234.60425 c 0.16406,0 0.375,0 0.375,-0.22266 0,-0.22265 -0.19922,-0.22265 -0.375,-0.22265 h -7.04297 c -0.175781,0 -0.386718,0 -0.386718,0.21094 0,0.23437 0.199218,0.23437 0.386718,0.23437 z m 0,2.21484 c 0.16406,0 0.375,0 0.375,-0.21093 0,-0.23438 -0.19922,-0.23438 -0.375,-0.23438 h -7.04297 c -0.175781,0 -0.386718,0 -0.386718,0.22266 0,0.22265 0.199218,0.22265 0.386718,0.22265 z m 0,0"
         style="fill:#000000;fill-opacity:1;fill-rule:nonzero;stroke:none" />
      <path
         id="path41"
         d="m 114.72555,235.71753 c 0.21094,0 0.42188,0 0.42188,-0.23437 0,-0.23438 -0.21094,-0.23438 -0.42188,-0.23438 h -6.46875 c -0.19921,0 -0.41015,0 -0.41015,0.23438 0,0.23437 0.21094,0.23437 0.41015,0.23437 z m 0,0"
         style="fill:#000000;fill-opacity:1;fill-rule:nonzero;stroke:none" />
      <path
         id="path42"
         d="m 119.5947,230.80738 c 0,-0.26954 0,-0.28125 -0.2461,-0.28125 -0.28125,0.3164 -0.8789,0.76171 -2.10937,0.76171 v 0.35157 c 0.26953,0 0.86718,0 1.52343,-0.31641 v 6.22266 c 0,0.43359 -0.0352,0.57422 -1.07812,0.57422 h -0.375 v 0.35156 c 0.31641,-0.0234 1.47656,-0.0234 1.875,-0.0234 0.39844,0 1.54687,0 1.86328,0.0234 v -0.35156 h -0.36328 c -1.05469,0 -1.08984,-0.14063 -1.08984,-0.57422 z m 0,0"
         style="fill:#000000;fill-opacity:1;fill-rule:nonzero;stroke:none" />
      <path
         id="path43"
         d="m 62.609344,250.9314 c -0.375,0.0703 -0.515625,0.35156 -0.515625,0.58594 0,0.28125 0.222656,0.375 0.386719,0.375 0.363281,0 0.609375,-0.30469 0.609375,-0.63282 0,-0.49218 -0.574219,-0.72656 -1.078125,-0.72656 -0.726563,0 -1.125,0.71484 -1.242188,0.94922 -0.269531,-0.90234 -1.007812,-0.94922 -1.230469,-0.94922 -1.21875,0 -1.863281,1.57031 -1.863281,1.82813 0,0.0469 0.04687,0.10546 0.128906,0.10546 0.105469,0 0.128907,-0.0703 0.152344,-0.11718 0.398438,-1.32422 1.207031,-1.57032 1.546875,-1.57032 0.539063,0 0.644531,0.49219 0.644531,0.78516 0,0.25781 -0.07031,0.53906 -0.210937,1.11328 l -0.410156,1.62891 c -0.175782,0.72656 -0.527344,1.38281 -1.160157,1.38281 -0.05859,0 -0.351562,0 -0.609375,-0.15234 0.433594,-0.0937 0.527344,-0.44532 0.527344,-0.58594 0,-0.24609 -0.175781,-0.38672 -0.398437,-0.38672 -0.292969,0 -0.597657,0.24609 -0.597657,0.63281 0,0.50391 0.5625,0.72657 1.066407,0.72657 0.574218,0 0.984375,-0.45704 1.230468,-0.9375 0.199219,0.70312 0.796875,0.9375 1.230469,0.9375 1.230469,0 1.875,-1.5586 1.875,-1.82813 0,-0.0586 -0.04687,-0.10547 -0.128906,-0.10547 -0.105469,0 -0.117188,0.0586 -0.152344,0.15235 -0.316406,1.05468 -1.019531,1.54687 -1.546875,1.54687 -0.421875,0 -0.65625,-0.31641 -0.65625,-0.80859 0,-0.25782 0.05859,-0.44532 0.246094,-1.24219 l 0.421875,-1.61719 c 0.175781,-0.72656 0.585937,-1.24219 1.125,-1.24219 0.03516,0 0.363281,0 0.609375,0.15235 z m 0,0"
         style="fill:#000000;fill-opacity:1;fill-rule:nonzero;stroke:none" />
      <path
         id="path44"
         d="m 65.618133,254.93921 c 0.632812,0 1.03125,0.45703 1.03125,1.30078 0,0.9961 -0.574219,1.28906 -0.996094,1.28906 -0.433594,0 -1.03125,-0.16406 -1.3125,-0.58593 0.292969,0 0.492188,-0.17578 0.492188,-0.44532 0,-0.25781 -0.1875,-0.43359 -0.445313,-0.43359 -0.210937,0 -0.433594,0.12891 -0.433594,0.45703 0,0.75 0.808594,1.24219 1.722657,1.24219 1.054687,0 1.792968,-0.72656 1.792968,-1.52344 0,-0.66797 -0.515625,-1.26562 -1.335937,-1.4414 0.632812,-0.22266 1.101562,-0.77344 1.101562,-1.40625 0,-0.63282 -0.714843,-1.08985 -1.546875,-1.08985 -0.855468,0 -1.5,0.45703 -1.5,1.06641 0,0.29297 0.199219,0.42187 0.410157,0.42187 0.246093,0 0.410156,-0.17578 0.410156,-0.41015 0,-0.29297 -0.257813,-0.39844 -0.433594,-0.41016 0.339844,-0.43359 0.949219,-0.46875 1.089844,-0.46875 0.210937,0 0.808594,0.0703 0.808594,0.89063 0,0.5625 -0.222657,0.89062 -0.339844,1.01953 -0.234375,0.24609 -0.421875,0.25781 -0.902344,0.29297 -0.152344,0.0117 -0.222656,0.0234 -0.222656,0.11718 0,0.11719 0.07031,0.11719 0.210937,0.11719 z m 0,0"
         style="fill:#000000;fill-opacity:1;fill-rule:nonzero;stroke:none" />
      <path
         id="path45"
         d="m 73.994109,250.9314 c -0.375,0.0703 -0.515625,0.35156 -0.515625,0.58594 0,0.28125 0.222657,0.375 0.386719,0.375 0.363281,0 0.609375,-0.30469 0.609375,-0.63282 0,-0.49218 -0.574219,-0.72656 -1.078125,-0.72656 -0.726562,0 -1.125,0.71484 -1.242187,0.94922 -0.269532,-0.90234 -1.007813,-0.94922 -1.230469,-0.94922 -1.21875,0 -1.863281,1.57031 -1.863281,1.82813 0,0.0469 0.04687,0.10546 0.128906,0.10546 0.105469,0 0.128906,-0.0703 0.152344,-0.11718 0.398437,-1.32422 1.207031,-1.57032 1.546875,-1.57032 0.539062,0 0.644531,0.49219 0.644531,0.78516 0,0.25781 -0.07031,0.53906 -0.210938,1.11328 l -0.410156,1.62891 c -0.175781,0.72656 -0.527344,1.38281 -1.160156,1.38281 -0.05859,0 -0.351563,0 -0.609375,-0.15234 0.433594,-0.0937 0.527344,-0.44532 0.527344,-0.58594 0,-0.24609 -0.175782,-0.38672 -0.398438,-0.38672 -0.292969,0 -0.597656,0.24609 -0.597656,0.63281 0,0.50391 0.5625,0.72657 1.066406,0.72657 0.574219,0 0.984375,-0.45704 1.230469,-0.9375 0.199219,0.70312 0.796875,0.9375 1.230469,0.9375 1.230468,0 1.875,-1.5586 1.875,-1.82813 0,-0.0586 -0.04687,-0.10547 -0.128907,-0.10547 -0.105468,0 -0.117187,0.0586 -0.152343,0.15235 -0.316407,1.05468 -1.019532,1.54687 -1.546875,1.54687 -0.421875,0 -0.65625,-0.31641 -0.65625,-0.80859 0,-0.25782 0.05859,-0.44532 0.246093,-1.24219 l 0.421875,-1.61719 c 0.175782,-0.72656 0.585938,-1.24219 1.125,-1.24219 0.03516,0 0.363282,0 0.609375,0.15235 z m 0,0"
         style="fill:#000000;fill-opacity:1;fill-rule:nonzero;stroke:none" />
      <path
         id="path46"
         d="m 78.127898,252.44312 c 0,-0.16407 0,-0.22266 -0.164062,-0.22266 -0.105469,0 -0.117188,0.0117 -0.199219,0.11719 l -2.542969,3.6914 v 0.25782 h 2.25 v 0.66797 c 0,0.29296 -0.02344,0.38671 -0.632812,0.38671 h -0.1875 v 0.25782 c 0.679687,-0.0234 0.691406,-0.0234 1.148437,-0.0234 0.457032,0 0.46875,0 1.148438,0.0234 v -0.25782 h -0.1875 c -0.609375,0 -0.632813,-0.0937 -0.632813,-0.38671 v -0.66797 h 0.84375 v -0.25782 h -0.84375 z m -0.597656,0.64453 v 2.9414 h -2.027344 z m 0,0"
         style="fill:#000000;fill-opacity:1;fill-rule:nonzero;stroke:none" />
      <path
         id="path47"
         d="m 85.378875,250.9314 c -0.375,0.0703 -0.515625,0.35156 -0.515625,0.58594 0,0.28125 0.222656,0.375 0.386719,0.375 0.363281,0 0.609375,-0.30469 0.609375,-0.63282 0,-0.49218 -0.574219,-0.72656 -1.078125,-0.72656 -0.726563,0 -1.125,0.71484 -1.242188,0.94922 -0.269531,-0.90234 -1.007812,-0.94922 -1.230468,-0.94922 -1.21875,0 -1.863282,1.57031 -1.863282,1.82813 0,0.0469 0.04687,0.10546 0.128907,0.10546 0.105468,0 0.128906,-0.0703 0.152343,-0.11718 0.398438,-1.32422 1.207032,-1.57032 1.546875,-1.57032 0.539063,0 0.644532,0.49219 0.644532,0.78516 0,0.25781 -0.07031,0.53906 -0.210938,1.11328 l -0.410156,1.62891 c -0.175781,0.72656 -0.527344,1.38281 -1.160156,1.38281 -0.05859,0 -0.351563,0 -0.609375,-0.15234 0.433593,-0.0937 0.527343,-0.44532 0.527343,-0.58594 0,-0.24609 -0.175781,-0.38672 -0.398437,-0.38672 -0.292969,0 -0.597656,0.24609 -0.597656,0.63281 0,0.50391 0.5625,0.72657 1.066406,0.72657 0.574219,0 0.984375,-0.45704 1.230469,-0.9375 0.199218,0.70312 0.796875,0.9375 1.230468,0.9375 1.230469,0 1.875,-1.5586 1.875,-1.82813 0,-0.0586 -0.04687,-0.10547 -0.128906,-0.10547 -0.105469,0 -0.117187,0.0586 -0.152344,0.15235 -0.316406,1.05468 -1.019531,1.54687 -1.546875,1.54687 -0.421875,0 -0.65625,-0.31641 -0.65625,-0.80859 0,-0.25782 0.05859,-0.44532 0.246094,-1.24219 l 0.421875,-1.61719 c 0.175781,-0.72656 0.585938,-1.24219 1.125,-1.24219 0.03516,0 0.363281,0 0.609375,0.15235 z m 0,0"
         style="fill:#000000;fill-opacity:1;fill-rule:nonzero;stroke:none" />
      <path
         id="path48"
         d="m 87.48532,253.1228 c 0.105469,0.0352 0.421875,0.10547 0.761719,0.10547 0.996094,0 1.59375,-0.6914 1.59375,-0.82031 0,-0.082 -0.04687,-0.10547 -0.09375,-0.10547 -0.01172,0 -0.02344,0 -0.105469,0.0352 -0.304687,0.11719 -0.667968,0.22265 -1.101562,0.22265 -0.46875,0 -0.855469,-0.1289 -1.113281,-0.22265 -0.07031,-0.0352 -0.09375,-0.0352 -0.09375,-0.0352 -0.105469,0 -0.105469,0.082 -0.105469,0.23438 v 2.33203 c 0,0.14062 0,0.23437 0.128906,0.23437 0.05859,0 0.08203,-0.0352 0.128906,-0.0937 0.09375,-0.11718 0.398438,-0.52734 1.066407,-0.52734 0.445312,0 0.667968,0.36328 0.738281,0.51562 0.128906,0.29297 0.152344,0.65625 0.152344,0.97266 0,0.29297 -0.01172,0.71484 -0.234375,1.06641 -0.152344,0.24609 -0.46875,0.49218 -0.890625,0.49218 -0.515625,0 -1.03125,-0.32812 -1.207032,-0.84375 0.02344,0 0.07031,0 0.07031,0 0.222656,0 0.398437,-0.14062 0.398437,-0.38671 0,-0.29297 -0.222656,-0.39844 -0.386718,-0.39844 -0.140625,0 -0.398438,0.082 -0.398438,0.42187 0,0.71485 0.621094,1.44141 1.535156,1.44141 0.996094,0 1.839844,-0.77344 1.839844,-1.75781 0,-0.92578 -0.667969,-1.7461 -1.605469,-1.7461 -0.398437,0 -0.773437,0.12891 -1.078125,0.39844 z m 0,0"
         style="fill:#000000;fill-opacity:1;fill-rule:nonzero;stroke:none" />
      <path
         id="path49"
         d="m 102.49704,251.93921 c 0.16406,0 0.375,0 0.375,-0.22266 0,-0.22265 -0.19922,-0.22265 -0.375,-0.22265 h -7.04297 c -0.175781,0 -0.386718,0 -0.386718,0.21094 0,0.23437 0.199218,0.23437 0.386718,0.23437 z m 0,2.21484 c 0.16406,0 0.375,0 0.375,-0.21093 0,-0.23438 -0.19922,-0.23438 -0.375,-0.23438 h -7.04297 c -0.175781,0 -0.386718,0 -0.386718,0.22266 0,0.22265 0.199218,0.22265 0.386718,0.22265 z m 7.80176,-6.01171 c 0,-0.26954 0,-0.28125 -0.2461,-0.28125 -0.28125,0.3164 -0.8789,0.76171 -2.10937,0.76171 v 0.35157 c 0.26953,0 0.86719,0 1.52344,-0.31641 v 6.22266 c 0,0.43359 -0.0352,0.57422 -1.07813,0.57422 h -0.375 v 0.35156 c 0.31641,-0.0234 1.47656,-0.0234 1.875,-0.0234 0.39844,0 1.54688,0 1.86328,0.0234 v -0.35156 h -0.36328 c -1.05469,0 -1.08984,-0.14063 -1.08984,-0.57422 z m 0,0"
         style="fill:#000000;fill-opacity:1;fill-rule:nonzero;stroke:none" />
      <path
         id="path50"
         d="m 59.152313,272.56714 c 0,-0.35156 -0.292969,-0.58594 -0.574219,-0.58594 -0.351563,0 -0.585938,0.29297 -0.585938,0.57422 0,0.35156 0.28125,0.58594 0.574219,0.58594 0.339844,0 0.585938,-0.28125 0.585938,-0.57422 z m 5.25,0 c 0,-0.35156 -0.292969,-0.58594 -0.574219,-0.58594 -0.351563,0 -0.585938,0.29297 -0.585938,0.57422 0,0.35156 0.28125,0.58594 0.574219,0.58594 0.339844,0 0.585938,-0.28125 0.585938,-0.57422 z m 5.235351,0 c 0,-0.35156 -0.292969,-0.58594 -0.574219,-0.58594 -0.351562,0 -0.585937,0.29297 -0.585937,0.57422 0,0.35156 0.28125,0.58594 0.574219,0.58594 0.339843,0 0.585937,-0.28125 0.585937,-0.57422 z m -7.02832,13.03418 c -0.375,0.0703 -0.515625,0.35156 -0.515625,0.58594 0,0.28125 0.222656,0.375 0.386719,0.375 0.363281,0 0.609375,-0.30469 0.609375,-0.63281 0,-0.49219 -0.574219,-0.72657 -1.078125,-0.72657 -0.726563,0 -1.125,0.71485 -1.242188,0.94922 -0.269531,-0.90234 -1.007812,-0.94922 -1.230469,-0.94922 -1.21875,0 -1.863281,1.57032 -1.863281,1.82813 0,0.0469 0.04687,0.10547 0.128906,0.10547 0.105469,0 0.128907,-0.0703 0.152344,-0.11719 0.398438,-1.32422 1.207031,-1.57031 1.546875,-1.57031 0.539063,0 0.644531,0.49218 0.644531,0.78515 0,0.25782 -0.07031,0.53907 -0.210937,1.11328 l -0.410156,1.62891 c -0.175782,0.72656 -0.527344,1.38281 -1.160157,1.38281 -0.05859,0 -0.351562,0 -0.609375,-0.15234 0.433594,-0.0937 0.527344,-0.44531 0.527344,-0.58594 0,-0.24609 -0.175781,-0.38672 -0.398437,-0.38672 -0.292969,0 -0.597657,0.2461 -0.597657,0.63282 0,0.5039 0.5625,0.72656 1.066407,0.72656 0.574218,0 0.984375,-0.45703 1.230468,-0.9375 0.199219,0.70312 0.796875,0.9375 1.230469,0.9375 1.230469,0 1.875,-1.5586 1.875,-1.82813 0,-0.0586 -0.04687,-0.10547 -0.128906,-0.10547 -0.105469,0 -0.117188,0.0586 -0.152344,0.15235 -0.316406,1.05469 -1.019531,1.54687 -1.546875,1.54687 -0.421875,0 -0.65625,-0.3164 -0.65625,-0.80859 0,-0.25781 0.05859,-0.44531 0.246094,-1.24219 l 0.421875,-1.61719 c 0.175781,-0.72656 0.585937,-1.24218 1.125,-1.24218 0.03516,0 0.363281,0 0.609375,0.15234 z m 0,0"
         style="fill:#000000;fill-opacity:1;fill-rule:nonzero;stroke:none" />
      <path
         id="path51"
         d="m 66.11032,287.19507 c 0,-0.22266 -0.02344,-0.22266 -0.234375,-0.22266 -0.328125,0.31641 -0.75,0.50391 -1.511718,0.50391 v 0.26953 c 0.222656,0 0.644531,0 1.113281,-0.22265 v 4.08984 c 0,0.29297 -0.02344,0.39844 -0.785156,0.39844 h -0.28125 v 0.25781 c 0.328125,-0.0234 1.019531,-0.0234 1.371093,-0.0234 0.363282,0 1.054688,0 1.382813,0.0234 v -0.25781 h -0.28125 c -0.75,0 -0.773438,-0.10547 -0.773438,-0.39844 z m 5.62793,2.53125 c 0,-0.85547 -0.09375,-1.37109 -0.351562,-1.875 -0.351563,-0.70312 -0.996094,-0.87891 -1.441407,-0.87891 -0.996093,0 -1.371093,0.75 -1.476562,0.97266 -0.292969,0.57422 -0.304688,1.37109 -0.304688,1.78125 0,0.52734 0.02344,1.33594 0.410157,1.96875 0.363281,0.58594 0.949218,0.73828 1.371093,0.73828 0.386719,0 1.066407,-0.11719 1.464844,-0.90234 0.292969,-0.57422 0.328125,-1.28906 0.328125,-1.80469 z m -1.792969,2.48438 c -0.269531,0 -0.820312,-0.12891 -0.984375,-0.96094 -0.09375,-0.45703 -0.09375,-1.20703 -0.09375,-1.61719 0,-0.55078 0,-1.11328 0.09375,-1.54687 0.164063,-0.8086 0.785157,-0.89063 0.984375,-0.89063 0.269532,0 0.820313,0.12891 0.984375,0.85547 0.09375,0.44531 0.09375,1.04297 0.09375,1.58203 0,0.46875 0,1.18359 -0.09375,1.62891 -0.164062,0.84375 -0.714843,0.94922 -0.984375,0.94922 z m 0,0"
         style="fill:#000000;fill-opacity:1;fill-rule:nonzero;stroke:none" />
      <path
         id="path52"
         d="m 78.230438,285.60132 c -0.375,0.0703 -0.515625,0.35156 -0.515625,0.58594 0,0.28125 0.222656,0.375 0.386718,0.375 0.363282,0 0.609375,-0.30469 0.609375,-0.63281 0,-0.49219 -0.574218,-0.72657 -1.078125,-0.72657 -0.726562,0 -1.125,0.71485 -1.242187,0.94922 -0.269531,-0.90234 -1.007813,-0.94922 -1.230469,-0.94922 -1.21875,0 -1.863281,1.57032 -1.863281,1.82813 0,0.0469 0.04687,0.10547 0.128906,0.10547 0.105469,0 0.128906,-0.0703 0.152344,-0.11719 0.398437,-1.32422 1.207031,-1.57031 1.546875,-1.57031 0.539062,0 0.644531,0.49218 0.644531,0.78515 0,0.25782 -0.07031,0.53907 -0.210937,1.11328 l -0.410157,1.62891 c -0.175781,0.72656 -0.527343,1.38281 -1.160156,1.38281 -0.05859,0 -0.351562,0 -0.609375,-0.15234 0.433594,-0.0937 0.527344,-0.44531 0.527344,-0.58594 0,-0.24609 -0.175781,-0.38672 -0.398438,-0.38672 -0.292968,0 -0.597656,0.2461 -0.597656,0.63282 0,0.5039 0.5625,0.72656 1.066406,0.72656 0.574219,0 0.984375,-0.45703 1.230469,-0.9375 0.199219,0.70312 0.796875,0.9375 1.230469,0.9375 1.230469,0 1.875,-1.5586 1.875,-1.82813 0,-0.0586 -0.04687,-0.10547 -0.128906,-0.10547 -0.105469,0 -0.117188,0.0586 -0.152344,0.15235 -0.316406,1.05469 -1.019531,1.54687 -1.546875,1.54687 -0.421875,0 -0.65625,-0.3164 -0.65625,-0.80859 0,-0.25781 0.05859,-0.44531 0.246094,-1.24219 l 0.421875,-1.61719 c 0.175781,-0.72656 0.585937,-1.24218 1.125,-1.24218 0.03516,0 0.363281,0 0.609375,0.15234 z m 0,0"
         style="fill:#000000;fill-opacity:1;fill-rule:nonzero;stroke:none" />
      <path
         id="path53"
         d="m 81.728484,287.19507 c 0,-0.22266 -0.02344,-0.22266 -0.234375,-0.22266 -0.328125,0.31641 -0.75,0.50391 -1.511718,0.50391 v 0.26953 c 0.222656,0 0.644531,0 1.113281,-0.22265 v 4.08984 c 0,0.29297 -0.02344,0.39844 -0.785156,0.39844 h -0.28125 v 0.25781 c 0.328125,-0.0234 1.019531,-0.0234 1.371093,-0.0234 0.363282,0 1.054688,0 1.382813,0.0234 v -0.25781 h -0.28125 c -0.75,0 -0.773438,-0.10547 -0.773438,-0.39844 z m 0,0"
         style="fill:#000000;fill-opacity:1;fill-rule:nonzero;stroke:none" />
      <path
         id="path54"
         d="m 89.612273,285.60132 c -0.375,0.0703 -0.515625,0.35156 -0.515625,0.58594 0,0.28125 0.222657,0.375 0.386719,0.375 0.363281,0 0.609375,-0.30469 0.609375,-0.63281 0,-0.49219 -0.574219,-0.72657 -1.078125,-0.72657 -0.726562,0 -1.125,0.71485 -1.242187,0.94922 -0.269532,-0.90234 -1.007813,-0.94922 -1.230469,-0.94922 -1.21875,0 -1.863281,1.57032 -1.863281,1.82813 0,0.0469 0.04687,0.10547 0.128906,0.10547 0.105469,0 0.128906,-0.0703 0.152344,-0.11719 0.398437,-1.32422 1.207031,-1.57031 1.546875,-1.57031 0.539062,0 0.644531,0.49218 0.644531,0.78515 0,0.25782 -0.07031,0.53907 -0.210938,1.11328 l -0.410156,1.62891 c -0.175781,0.72656 -0.527344,1.38281 -1.160156,1.38281 -0.05859,0 -0.351563,0 -0.609375,-0.15234 0.433594,-0.0937 0.527344,-0.44531 0.527344,-0.58594 0,-0.24609 -0.175782,-0.38672 -0.398438,-0.38672 -0.292969,0 -0.597656,0.2461 -0.597656,0.63282 0,0.5039 0.5625,0.72656 1.066406,0.72656 0.574219,0 0.984375,-0.45703 1.230469,-0.9375 0.199219,0.70312 0.796875,0.9375 1.230469,0.9375 1.230468,0 1.875,-1.5586 1.875,-1.82813 0,-0.0586 -0.04687,-0.10547 -0.128907,-0.10547 -0.105468,0 -0.117187,0.0586 -0.152343,0.15235 -0.316407,1.05469 -1.019532,1.54687 -1.546875,1.54687 -0.421875,0 -0.65625,-0.3164 -0.65625,-0.80859 0,-0.25781 0.05859,-0.44531 0.246093,-1.24219 l 0.421875,-1.61719 c 0.175782,-0.72656 0.585938,-1.24218 1.125,-1.24218 0.03516,0 0.363282,0 0.609375,0.15234 z m 0,0"
         style="fill:#000000;fill-opacity:1;fill-rule:nonzero;stroke:none" />
      <path
         id="path55"
         d="m 92.855438,290.64038 c 0.128906,-0.11718 0.457031,-0.375 0.585937,-0.49218 0.492188,-0.45704 0.960938,-0.89063 0.960938,-1.61719 0,-0.94922 -0.796875,-1.5586 -1.792969,-1.5586 -0.949219,0 -1.582031,0.72657 -1.582031,1.42969 0,0.39844 0.316406,0.44531 0.421875,0.44531 0.164062,0 0.410156,-0.11718 0.410156,-0.42187 0,-0.41016 -0.398438,-0.41016 -0.492188,-0.41016 0.234375,-0.58593 0.773438,-0.78515 1.160157,-0.78515 0.738281,0 1.125,0.63281 1.125,1.30078 0,0.83203 -0.585938,1.42969 -1.523438,2.40234 l -1.007812,1.03125 c -0.09375,0.0937 -0.09375,0.10547 -0.09375,0.30469 h 3.152343 l 0.222657,-1.42969 h -0.246094 c -0.02344,0.16406 -0.08203,0.5625 -0.175781,0.71485 -0.04687,0.0586 -0.65625,0.0586 -0.785157,0.0586 h -1.417968 z m 0,0"
         style="fill:#000000;fill-opacity:1;fill-rule:nonzero;stroke:none" />
      <path
         id="path56"
         d="m 106.73337,286.60913 c 0.16406,0 0.375,0 0.375,-0.22265 0,-0.22266 -0.19922,-0.22266 -0.375,-0.22266 h -7.042972 c -0.175781,0 -0.386718,0 -0.386718,0.21094 0,0.23437 0.199218,0.23437 0.386718,0.23437 z m 0,2.21485 c 0.16406,0 0.375,0 0.375,-0.21094 0,-0.23438 -0.19922,-0.23438 -0.375,-0.23438 h -7.042972 c -0.175781,0 -0.386718,0 -0.386718,0.22266 0,0.22266 0.199218,0.22266 0.386718,0.22266 z m 0,0"
         style="fill:#000000;fill-opacity:1;fill-rule:nonzero;stroke:none" />
      <path
         id="path57"
         d="m 118.95895,287.72241 c 0.21094,0 0.42188,0 0.42188,-0.23437 0,-0.23438 -0.21094,-0.23438 -0.42188,-0.23438 h -6.46875 c -0.19922,0 -0.41015,0 -0.41015,0.23438 0,0.23437 0.21093,0.23437 0.41015,0.23437 z m 0,0"
         style="fill:#000000;fill-opacity:1;fill-rule:nonzero;stroke:none" />
      <path
         id="path58"
         d="m 123.82809,282.81226 c 0,-0.26953 0,-0.28125 -0.24609,-0.28125 -0.28125,0.3164 -0.87891,0.76172 -2.10937,0.76172 v 0.35156 c 0.26953,0 0.86718,0 1.52343,-0.31641 v 6.22266 c 0,0.43359 -0.0352,0.57422 -1.07812,0.57422 h -0.375 v 0.35156 c 0.3164,-0.0234 1.47656,-0.0234 1.875,-0.0234 0.39844,0 1.54687,0 1.86328,0.0234 v -0.35156 h -0.36328 c -1.05469,0 -1.08985,-0.14063 -1.08985,-0.57422 z m 0,0"
         style="fill:#000000;fill-opacity:1;fill-rule:nonzero;stroke:none" />
      <path
         id="path59"
         d="m -89.251008,346.78198 c 0,-0.26953 0,-0.28125 -0.246094,-0.28125 -0.28125,0.31641 -0.878906,0.76172 -2.109375,0.76172 v 0.35157 c 0.269532,0 0.867188,0 1.523438,-0.31641 v 6.22266 c 0,0.43359 -0.03516,0.57421 -1.078125,0.57421 h -0.375 v 0.35157 c 0.316406,-0.0234 1.476562,-0.0234 1.875,-0.0234 0.398437,0 1.546875,0 1.863281,0.0234 v -0.35157 h -0.363281 c -1.054688,0 -1.089844,-0.14062 -1.089844,-0.57421 z m 7.763672,3.84375 c 0,-0.99609 -0.05859,-1.96875 -0.492187,-2.87109 -0.492188,-0.99609 -1.347657,-1.25391 -1.933594,-1.25391 -0.691406,0 -1.546875,0.33985 -1.980469,1.33594 -0.339844,0.75 -0.457031,1.48828 -0.457031,2.78906 0,1.16016 0.08203,2.02735 0.515625,2.8711 0.457031,0.91406 1.289062,1.19531 1.910156,1.19531 1.042969,0 1.640625,-0.62109 1.980469,-1.3125 0.433594,-0.89062 0.457031,-2.0625 0.457031,-2.75391 z m -2.4375,3.83204 c -0.386719,0 -1.160156,-0.21094 -1.382812,-1.52344 -0.140625,-0.71485 -0.140625,-1.61719 -0.140625,-2.46094 0,-0.97266 0,-1.86328 0.199218,-2.56641 0.199219,-0.79687 0.808594,-1.17187 1.324219,-1.17187 0.457031,0 1.148438,0.28125 1.371094,1.30078 0.152344,0.67969 0.152344,1.62891 0.152344,2.4375 0,0.80859 0,1.71094 -0.128907,2.4375 -0.222656,1.32422 -0.972656,1.54688 -1.394531,1.54688 z m 8.291016,-3.83204 c 0,-0.99609 -0.05859,-1.96875 -0.492188,-2.87109 -0.492187,-0.99609 -1.347656,-1.25391 -1.933594,-1.25391 -0.691406,0 -1.546875,0.33985 -1.980468,1.33594 -0.339844,0.75 -0.457032,1.48828 -0.457032,2.78906 0,1.16016 0.08203,2.02735 0.515625,2.8711 0.457032,0.91406 1.289063,1.19531 1.910157,1.19531 1.042968,0 1.640625,-0.62109 1.980468,-1.3125 0.433594,-0.89062 0.457032,-2.0625 0.457032,-2.75391 z m -2.4375,3.83204 c -0.386719,0 -1.160157,-0.21094 -1.382813,-1.52344 -0.140625,-0.71485 -0.140625,-1.61719 -0.140625,-2.46094 0,-0.97266 0,-1.86328 0.199219,-2.56641 0.199219,-0.79687 0.808594,-1.17187 1.324219,-1.17187 0.457031,0 1.148437,0.28125 1.371093,1.30078 0.152344,0.67969 0.152344,1.62891 0.152344,2.4375 0,0.80859 0,1.71094 -0.128906,2.4375 -0.222656,1.32422 -0.972656,1.54688 -1.394531,1.54688 z m 0,0"
         style="fill:#000000;fill-opacity:1;fill-rule:nonzero;stroke:none" />
      <path
         id="path60"
         d="m 66.39743,434.87769 c 0,2.82422 -1.253907,3.41015 -1.96875,3.41015 -0.28125,0 -0.925782,-0.0352 -1.21875,-0.45703 h 0.07031 c 0.08203,0.0234 0.515625,-0.0469 0.515625,-0.49218 0,-0.25782 -0.175781,-0.49219 -0.492187,-0.49219 -0.304688,0 -0.503907,0.21094 -0.503907,0.51562 0,0.75 0.597657,1.24219 1.640625,1.24219 1.5,0 2.941407,-1.58203 2.941407,-4.18359 0,-3.21094 -1.335938,-4.00782 -2.390625,-4.00782 -1.3125,0 -2.472657,1.10157 -2.472657,2.67188 0,1.58203 1.113282,2.66016 2.308594,2.66016 0.878906,0 1.335938,-0.64454 1.570313,-1.25391 z m -1.523438,0.62109 c -0.75,0 -1.078125,-0.60937 -1.183594,-0.83203 -0.199218,-0.45703 -0.199218,-1.03125 -0.199218,-1.57031 0,-0.66797 0,-1.24219 0.316406,-1.73438 0.210937,-0.3164 0.539062,-0.66797 1.183594,-0.66797 0.679687,0 1.03125,0.59766 1.148437,0.87891 0.234375,0.58594 0.234375,1.59375 0.234375,1.78125 0,0.99609 -0.445312,2.14453 -1.5,2.14453 z m 0,0"
         style="fill:#000000;fill-opacity:1;fill-rule:nonzero;stroke:none" />
      <path
         id="path61"
         d="m 71.875945,430.24585 c -0.351562,0.082 -0.375,0.39844 -0.375,0.42188 0,0.17578 0.140625,0.30468 0.316407,0.30468 0.175781,0 0.445312,-0.14062 0.445312,-0.48046 0,-0.45704 -0.503906,-0.58594 -0.796875,-0.58594 -0.375,0 -0.679687,0.26953 -0.855469,0.57422 -0.175781,-0.42188 -0.597656,-0.57422 -0.925781,-0.57422 -0.867187,0 -1.347656,0.99609 -1.347656,1.21875 0,0.0703 0.05859,0.10547 0.117187,0.10547 0.09375,0 0.105469,-0.0352 0.140625,-0.14063 0.175782,-0.57422 0.65625,-0.96094 1.066407,-0.96094 0.316406,0 0.46875,0.22266 0.46875,0.51563 0,0.15234 -0.09375,0.52734 -0.164063,0.77344 -0.05859,0.23437 -0.234375,0.94922 -0.269531,1.08984 -0.105469,0.43359 -0.398438,0.77344 -0.761719,0.77344 -0.02344,0 -0.234375,0 -0.398437,-0.11719 0.363281,-0.082 0.363281,-0.42187 0.363281,-0.42187 0,-0.1875 -0.140625,-0.30469 -0.316406,-0.30469 -0.222657,0 -0.445313,0.1875 -0.445313,0.49219 0,0.36328 0.386719,0.57421 0.796875,0.57421 0.421875,0 0.714844,-0.3164 0.855469,-0.57421 0.175781,0.38671 0.539062,0.57421 0.925781,0.57421 0.867188,0 1.347656,-0.99609 1.347656,-1.21875 0,-0.082 -0.05859,-0.10546 -0.117187,-0.10546 -0.09375,0 -0.117188,0.0586 -0.140625,0.1289 -0.152344,0.53906 -0.609375,0.97266 -1.078125,0.97266 -0.257813,0 -0.445313,-0.17578 -0.445313,-0.51563 0,-0.15234 0.04687,-0.33984 0.152344,-0.78515 0.05859,-0.23438 0.234375,-0.9375 0.269531,-1.08985 0.117188,-0.42187 0.398438,-0.76172 0.75,-0.76172 0.04687,0 0.246094,0 0.421875,0.11719 z m 0,0"
         style="fill:#000000;fill-opacity:1;fill-rule:nonzero;stroke:none" />
      <path
         id="path62"
         d="m 83.676727,435.60425 c 0.210937,0 0.421875,0 0.421875,-0.23437 0,-0.23438 -0.210938,-0.23438 -0.421875,-0.23438 h -6.46875 c -0.199219,0 -0.410157,0 -0.410157,0.23438 0,0.23437 0.210938,0.23437 0.410157,0.23437 z m 0,0"
         style="fill:#000000;fill-opacity:1;fill-rule:nonzero;stroke:none" />
      <path
         id="path63"
         d="m 93.0195,436.35425 h -0.269531 c -0.03516,0.19922 -0.128906,0.85547 -0.246094,1.04297 -0.08203,0.11719 -0.761719,0.11719 -1.125,0.11719 h -2.214844 c 0.328125,-0.28125 1.054688,-1.04297 1.371094,-1.33594 1.816406,-1.66406 2.484375,-2.28516 2.484375,-3.46875 0,-1.38281 -1.089844,-2.29688 -2.472656,-2.29688 -1.394531,0 -2.203125,1.1836 -2.203125,2.20313 0,0.60937 0.527344,0.60937 0.5625,0.60937 0.246094,0 0.5625,-0.17578 0.5625,-0.5625 0,-0.32812 -0.234375,-0.55078 -0.5625,-0.55078 -0.105469,0 -0.128906,0 -0.164063,0.0117 0.222657,-0.82031 0.867188,-1.37109 1.640625,-1.37109 1.019532,0 1.640625,0.85547 1.640625,1.95703 0,1.00781 -0.585937,1.89844 -1.265625,2.66016 l -2.414062,2.70703 v 0.28125 h 4.359375 z m 0,0"
         style="fill:#000000;fill-opacity:1;fill-rule:nonzero;stroke:none" />
      <path
         id="path64"
         d="m 97.736297,430.42163 c 0.03516,-0.11718 0.03516,-0.1289 0.03516,-0.1875 0,-0.19922 -0.164062,-0.24609 -0.257812,-0.24609 -0.03516,0 -0.222657,0.0117 -0.328125,0.21094 -0.01172,0.0469 -0.08203,0.32812 -0.128907,0.49218 l -0.46875,1.92188 c -0.01172,0.0234 -0.351562,0.66797 -0.9375,0.66797 -0.386718,0 -0.527343,-0.29297 -0.527343,-0.64453 0,-0.46875 0.269531,-1.17188 0.457031,-1.64063 0.08203,-0.19922 0.105469,-0.26953 0.105469,-0.41015 0,-0.4336 -0.351563,-0.67969 -0.714844,-0.67969 -0.796875,0 -1.125,1.125 -1.125,1.21875 0,0.0703 0.05859,0.10547 0.128906,0.10547 0.09375,0 0.105469,-0.0469 0.128906,-0.12891 0.210938,-0.69141 0.550782,-0.97266 0.84375,-0.97266 0.117188,0 0.1875,0.082 0.1875,0.26954 0,0.16406 -0.07031,0.35156 -0.117187,0.49218 -0.328125,0.84375 -0.46875,1.25391 -0.46875,1.61719 0,0.78516 0.597656,0.99609 1.066406,0.99609 0.375,0 0.644531,-0.16406 0.832031,-0.35156 -0.105468,0.44531 -0.1875,0.75 -0.492187,1.13672 -0.269531,0.32813 -0.585938,0.53906 -0.9375,0.53906 -0.140625,0 -0.445313,-0.0234 -0.597656,-0.26953 0.421875,-0.0234 0.445312,-0.38672 0.445312,-0.43359 0,-0.1875 -0.140625,-0.29297 -0.304687,-0.29297 -0.175782,0 -0.457032,0.12891 -0.457032,0.52734 0,0.375 0.339844,0.69141 0.914063,0.69141 0.808594,0 1.722656,-0.65625 1.96875,-1.61719 z m 0,0"
         style="fill:#000000;fill-opacity:1;fill-rule:nonzero;stroke:none" />
      <path
         id="path65"
         d="m 109.9736,434.49097 c 0.16406,0 0.375,0 0.375,-0.22266 0,-0.22265 -0.19922,-0.22265 -0.375,-0.22265 h -7.04297 c -0.17578,0 -0.38672,0 -0.38672,0.21093 0,0.23438 0.19922,0.23438 0.38672,0.23438 z m 0,2.21484 c 0.16406,0 0.375,0 0.375,-0.21093 0,-0.23438 -0.19922,-0.23438 -0.375,-0.23438 h -7.04297 c -0.17578,0 -0.38672,0 -0.38672,0.22266 0,0.22265 0.19922,0.22265 0.38672,0.22265 z m 7.80176,-6.01172 c 0,-0.26953 0,-0.28125 -0.24609,-0.28125 -0.28125,0.31641 -0.87891,0.76172 -2.10938,0.76172 v 0.35157 c 0.26953,0 0.86719,0 1.52344,-0.31641 v 6.22266 c 0,0.43359 -0.0352,0.57421 -1.07813,0.57421 h -0.375 v 0.35157 c 0.31641,-0.0234 1.47657,-0.0234 1.875,-0.0234 0.39844,0 1.54688,0 1.86328,0.0234 v -0.35157 h -0.36328 c -1.05468,0 -1.08984,-0.14062 -1.08984,-0.57421 z m 0,0"
         style="fill:#000000;fill-opacity:1;fill-rule:nonzero;stroke:none" />
      <path
         id="path66"
         d="m 122.38083,437.78394 c 0,-0.35156 -0.29297,-0.58594 -0.57422,-0.58594 -0.35156,0 -0.58594,0.29297 -0.58594,0.57422 0,0.35156 0.28125,0.58594 0.57422,0.58594 0.33984,0 0.58594,-0.28125 0.58594,-0.57422 z m 0,0"
         style="fill:#000000;fill-opacity:1;fill-rule:nonzero;stroke:none" />
      <path
         id="path67"
         d="m -70.269562,477.87964 c -0.410157,0.70313 -0.820313,0.9375 -1.394532,0.97266 -0.128906,0.0117 -0.222656,0.0117 -0.222656,0.23437 0,0.0703 0.05859,0.11719 0.140625,0.11719 0.210938,0 0.75,-0.0234 0.972656,-0.0234 0.339844,0 0.726563,0.0234 1.054688,0.0234 0.07031,0 0.222656,0 0.222656,-0.22266 0,-0.11718 -0.09375,-0.1289 -0.175781,-0.1289 -0.269531,-0.0234 -0.492188,-0.11719 -0.492188,-0.39844 0,-0.17578 0.07031,-0.30469 0.222657,-0.5625 l 0.902343,-1.51172 h 3.058594 c 0.01172,0.10547 0.01172,0.21094 0.02344,0.31641 0.03516,0.30468 0.175781,1.54687 0.175781,1.78125 0,0.35156 -0.609375,0.375 -0.796875,0.375 -0.140625,0 -0.269531,0 -0.269531,0.22265 0,0.12891 0.105468,0.12891 0.175781,0.12891 0.210937,0 0.445312,-0.0234 0.65625,-0.0234 h 0.679687 c 0.726563,0 1.253907,0.0234 1.265625,0.0234 0.08203,0 0.210938,0 0.210938,-0.22266 0,-0.1289 -0.105469,-0.1289 -0.28125,-0.1289 -0.65625,0 -0.667969,-0.10547 -0.714844,-0.45703 l -0.726562,-7.46485 c -0.02344,-0.23437 -0.07031,-0.25781 -0.199219,-0.25781 -0.117188,0 -0.1875,0.0234 -0.304688,0.19922 z m 1.441406,-1.83984 2.402344,-4.01953 0.410156,4.01953 z m 9.679687,-4.1836 c 0.117188,-0.44531 0.164063,-0.46875 0.621094,-0.46875 h 1.558594 c 1.347656,0 1.347656,1.14844 1.347656,1.25391 0,0.97266 -0.960937,2.20312 -2.542969,2.20312 h -1.722656 z m 2.027344,3.08203 c 1.300781,-0.24609 2.484375,-1.14843 2.484375,-2.25 0,-0.92578 -0.832031,-1.65234 -2.179687,-1.65234 h -3.832032 c -0.234375,0 -0.339843,0 -0.339843,0.23438 0,0.11718 0.105468,0.11718 0.292968,0.11718 0.726563,0 0.726563,0.0937 0.726563,0.22266 0,0.0234 0,0.0937 -0.04687,0.28125 l -1.617188,6.43359 c -0.105468,0.41016 -0.128906,0.52735 -0.960937,0.52735 -0.234375,0 -0.351563,0 -0.351563,0.22265 0,0.12891 0.07031,0.12891 0.304688,0.12891 h 4.101562 c 1.828125,0 3.246094,-1.38281 3.246094,-2.58984 0,-0.98438 -0.867187,-1.58204 -1.828125,-1.67579 z m -1.699219,3.91407 h -1.617187 c -0.164063,0 -0.1875,0 -0.257813,-0.0117 -0.128906,-0.0117 -0.152343,-0.0352 -0.152343,-0.12891 0,-0.082 0.03516,-0.15234 0.05859,-0.25781 l 0.832032,-3.375 h 2.25 c 1.40625,0 1.40625,1.3125 1.40625,1.40625 0,1.14844 -1.042969,2.36719 -2.519532,2.36719 z m 13.719727,-7.95703 c 0,-0.10547 -0.08203,-0.10547 -0.105469,-0.10547 -0.02344,0 -0.07031,0 -0.175781,0.11718 l -0.820313,1.00782 c -0.421875,-0.71485 -1.078125,-1.125 -1.96875,-1.125 -2.589843,0 -5.261718,2.61328 -5.261718,5.42578 0,1.99219 1.394531,3.23437 3.140625,3.23437 0.960937,0 1.792968,-0.39843 2.484375,-0.98437 1.042968,-0.87891 1.359375,-2.03906 1.359375,-2.13281 0,-0.10547 -0.09375,-0.10547 -0.140625,-0.10547 -0.105469,0 -0.117188,0.0703 -0.140625,0.11718 -0.550782,1.86329 -2.15625,2.76563 -3.351563,2.76563 -1.277344,0 -2.367187,-0.82031 -2.367187,-2.50781 0,-0.38672 0.117187,-2.46094 1.464843,-4.03125 0.65625,-0.76172 1.78125,-1.44141 2.917969,-1.44141 1.3125,0 1.898438,1.08984 1.898438,2.30859 0,0.31641 -0.03516,0.57422 -0.03516,0.6211 0,0.11719 0.117188,0.11719 0.152344,0.11719 0.140625,0 0.152344,-0.0117 0.199219,-0.23438 z m 2.182617,7.42968 c -0.105469,0.41016 -0.128906,0.52735 -0.960937,0.52735 -0.234375,0 -0.351563,0 -0.351563,0.22265 0,0.12891 0.07031,0.12891 0.304688,0.12891 h 3.796875 c 2.414062,0 4.769531,-2.49609 4.769531,-5.16797 0,-1.72266 -1.03125,-3 -2.742188,-3 h -3.832031 c -0.234375,0 -0.339844,0 -0.339844,0.23438 0,0.11718 0.105469,0.11718 0.292969,0.11718 0.726563,0 0.726563,0.0937 0.726563,0.22266 0,0.0234 0,0.0937 -0.04687,0.28125 z m 2.519531,-6.46875 c 0.117188,-0.44531 0.164063,-0.46875 0.621094,-0.46875 h 1.324219 c 1.113281,0 2.144531,0.60938 2.144531,2.26172 0,0.59766 -0.234375,2.67188 -1.394531,3.98438 -0.339844,0.39843 -1.242188,1.21875 -2.625,1.21875 h -1.359375 c -0.164063,0 -0.1875,0 -0.257813,-0.0117 -0.128906,-0.0117 -0.140625,-0.0352 -0.140625,-0.12891 0,-0.082 0.02344,-0.15234 0.04687,-0.25781 z m 0,0"
         style="fill:#000000;fill-opacity:1;fill-rule:nonzero;stroke:none" />
      <path
         id="path68"
         d="m 283.13864,477.87964 c -0.41016,0.70313 -0.82031,0.9375 -1.39453,0.97266 -0.12891,0.0117 -0.22266,0.0117 -0.22266,0.23437 0,0.0703 0.0586,0.11719 0.14063,0.11719 0.21094,0 0.75,-0.0234 0.97265,-0.0234 0.33985,0 0.72657,0.0234 1.05469,0.0234 0.0703,0 0.22266,0 0.22266,-0.22266 0,-0.11718 -0.0937,-0.1289 -0.17578,-0.1289 -0.26953,-0.0234 -0.49219,-0.11719 -0.49219,-0.39844 0,-0.17578 0.0703,-0.30469 0.22266,-0.5625 l 0.90234,-1.51172 h 3.05859 c 0.0117,0.10547 0.0117,0.21094 0.0234,0.31641 0.0352,0.30468 0.17578,1.54687 0.17578,1.78125 0,0.35156 -0.60937,0.375 -0.79687,0.375 -0.14063,0 -0.26953,0 -0.26953,0.22265 0,0.12891 0.10546,0.12891 0.17578,0.12891 0.21093,0 0.44531,-0.0234 0.65625,-0.0234 h 0.67968 c 0.72657,0 1.25391,0.0234 1.26563,0.0234 0.082,0 0.21094,0 0.21094,-0.22266 0,-0.1289 -0.10547,-0.1289 -0.28125,-0.1289 -0.65625,0 -0.66797,-0.10547 -0.71485,-0.45703 l -0.72656,-7.46485 c -0.0234,-0.23437 -0.0703,-0.25781 -0.19922,-0.25781 -0.11719,0 -0.1875,0.0234 -0.30469,0.19922 z m 1.44141,-1.83984 2.40234,-4.01953 0.41016,4.01953 z m 9.67675,-4.1836 c 0.11719,-0.44531 0.16407,-0.46875 0.6211,-0.46875 h 1.55859 c 1.34766,0 1.34766,1.14844 1.34766,1.25391 0,0.97266 -0.96094,2.20312 -2.54297,2.20312 h -1.72266 z m 2.02735,3.08203 c 1.30078,-0.24609 2.48437,-1.14843 2.48437,-2.25 0,-0.92578 -0.83203,-1.65234 -2.17968,-1.65234 h -3.83204 c -0.23437,0 -0.33984,0 -0.33984,0.23438 0,0.11718 0.10547,0.11718 0.29297,0.11718 0.72656,0 0.72656,0.0937 0.72656,0.22266 0,0.0234 0,0.0937 -0.0469,0.28125 l -1.61719,6.43359 c -0.10547,0.41016 -0.12891,0.52735 -0.96094,0.52735 -0.23437,0 -0.35156,0 -0.35156,0.22265 0,0.12891 0.0703,0.12891 0.30469,0.12891 h 4.10156 c 1.82812,0 3.24609,-1.38281 3.24609,-2.58984 0,-0.98438 -0.86718,-1.58204 -1.82812,-1.67579 z m -1.69922,3.91407 h -1.61719 c -0.16406,0 -0.1875,0 -0.25781,-0.0117 -0.12891,-0.0117 -0.15234,-0.0352 -0.15234,-0.12891 0,-0.082 0.0351,-0.15234 0.0586,-0.25781 l 0.83203,-3.375 h 2.25 c 1.40625,0 1.40625,1.3125 1.40625,1.40625 0,1.14844 -1.04297,2.36719 -2.51953,2.36719 z m 13.09863,-2.42578 c 0.0117,-0.0352 0.0469,-0.11719 0.0469,-0.16407 0,-0.0586 -0.0469,-0.11718 -0.11719,-0.11718 -0.0469,0 -0.0703,0.0117 -0.10547,0.0469 -0.0234,0.0117 -0.0234,0.0352 -0.14062,0.26953 -0.70313,1.67578 -1.21875,2.39063 -3.12891,2.39063 h -1.74609 c -0.16407,0 -0.1875,0 -0.25782,-0.0117 -0.1289,-0.0117 -0.14062,-0.0352 -0.14062,-0.12891 0,-0.082 0.0234,-0.15234 0.0469,-0.25781 l 0.82032,-3.30469 h 1.18359 c 0.9375,0 1.00781,0.21094 1.00781,0.5625 0,0.11719 0,0.23438 -0.082,0.58594 -0.0352,0.0469 -0.0469,0.0937 -0.0469,0.12891 0,0.082 0.0703,0.1289 0.14062,0.1289 0.10547,0 0.11719,-0.0937 0.16406,-0.25781 l 0.67969,-2.77734 c 0,-0.0586 -0.0469,-0.11719 -0.11719,-0.11719 -0.10546,0 -0.11718,0.0469 -0.16406,0.22265 -0.24609,0.91407 -0.48047,1.1836 -1.54687,1.1836 h -1.13672 l 0.73828,-2.94141 c 0.11719,-0.42187 0.14062,-0.45703 0.62109,-0.45703 h 1.71094 c 1.47656,0 1.76953,0.39844 1.76953,1.30078 0,0.0117 0,0.35156 -0.0469,0.73828 -0.0117,0.0469 -0.0234,0.12891 -0.0234,0.15235 0,0.0937 0.0586,0.1289 0.12891,0.1289 0.082,0 0.14062,-0.0469 0.16406,-0.26953 l 0.24609,-2.08594 c 0,-0.0351 0.0234,-0.15234 0.0234,-0.17578 0,-0.14062 -0.10547,-0.14062 -0.31641,-0.14062 h -5.83593 c -0.23438,0 -0.35157,0 -0.35157,0.22265 0,0.12891 0.082,0.12891 0.29297,0.12891 0.73828,0 0.73828,0.082 0.73828,0.21094 0,0.0586 -0.0117,0.10547 -0.0469,0.24609 l -1.61719,6.45703 c -0.10547,0.41016 -0.12891,0.52735 -0.96094,0.52735 -0.23437,0 -0.35156,0 -0.35156,0.22265 0,0.12891 0.0703,0.12891 0.30469,0.12891 h 6 c 0.26953,0 0.28125,-0.0117 0.36328,-0.19922 z m 0,0"
         style="fill:#000000;fill-opacity:1;fill-rule:nonzero;stroke:none" />
      <path
         id="path69"
         d="m -143.84573,486.30249 c 0.11718,-0.44531 0.16406,-0.46875 0.62109,-0.46875 h 1.55859 c 1.34766,0 1.34766,1.14844 1.34766,1.25391 0,0.97265 -0.96094,2.20312 -2.54297,2.20312 h -1.72266 z m 2.02734,3.08203 c 1.30078,-0.24609 2.48437,-1.14843 2.48437,-2.25 0,-0.92578 -0.83203,-1.65234 -2.17968,-1.65234 h -3.83203 c -0.23438,0 -0.33985,0 -0.33985,0.23437 0,0.11719 0.10547,0.11719 0.29297,0.11719 0.72656,0 0.72656,0.0937 0.72656,0.22266 0,0.0234 0,0.0937 -0.0469,0.28125 l -1.61719,6.43359 c -0.10547,0.41016 -0.12891,0.52735 -0.96094,0.52735 -0.23437,0 -0.35156,0 -0.35156,0.22265 0,0.12891 0.0703,0.12891 0.30469,0.12891 h 4.10156 c 1.82813,0 3.24609,-1.38281 3.24609,-2.58985 0,-0.98437 -0.86718,-1.58203 -1.82812,-1.67578 z m -1.69922,3.91407 h -1.61719 c -0.16406,0 -0.1875,0 -0.25781,-0.0117 -0.12891,-0.0117 -0.15234,-0.0352 -0.15234,-0.12891 0,-0.082 0.0351,-0.15234 0.0586,-0.25781 l 0.83203,-3.375 h 2.25 c 1.40625,0 1.40625,1.3125 1.40625,1.40625 0,1.14844 -1.04297,2.36719 -2.51953,2.36719 z m 13.72266,-7.95704 c 0,-0.10546 -0.082,-0.10546 -0.10547,-0.10546 -0.0234,0 -0.0703,0 -0.17578,0.11718 l -0.82032,1.00782 c -0.42187,-0.71485 -1.07812,-1.125 -1.96875,-1.125 -2.58984,0 -5.26171,2.61328 -5.26171,5.42578 0,1.99218 1.39453,3.23437 3.14062,3.23437 0.96094,0 1.79297,-0.39844 2.48438,-0.98437 1.04296,-0.87891 1.35937,-2.03907 1.35937,-2.13282 0,-0.10546 -0.0937,-0.10546 -0.14062,-0.10546 -0.10547,0 -0.11719,0.0703 -0.14063,0.11718 -0.55078,1.86328 -2.15625,2.76563 -3.35156,2.76563 -1.27735,0 -2.36719,-0.82031 -2.36719,-2.50781 0,-0.38672 0.11719,-2.46094 1.46484,-4.03125 0.65625,-0.76172 1.78125,-1.44141 2.91797,-1.44141 1.3125,0 1.89844,1.08984 1.89844,2.30859 0,0.31641 -0.0352,0.57422 -0.0352,0.6211 0,0.11718 0.11719,0.11718 0.15235,0.11718 0.14062,0 0.15234,-0.0117 0.19922,-0.23437 z m 3.85547,4.40625 h 1.14843 c 0.90235,0 0.98438,0.21094 0.98438,0.55079 0,0.16406 -0.0352,0.32812 -0.0937,0.58593 -0.0234,0.0469 -0.0352,0.11719 -0.0352,0.14063 0,0.082 0.0469,0.1289 0.14063,0.1289 0.0937,0 0.10547,-0.0469 0.15234,-0.24609 l 0.69141,-2.77734 c 0,-0.0469 -0.0352,-0.11719 -0.11719,-0.11719 -0.10547,0 -0.11719,0.0469 -0.17578,0.24609 -0.2461,0.89063 -0.48047,1.14844 -1.52344,1.14844 h -1.08984 l 0.77343,-3.09375 c 0.11719,-0.42187 0.14063,-0.45703 0.6211,-0.45703 h 1.60547 c 1.5,0 1.71093,0.44531 1.71093,1.28906 0,0.0703 0,0.33985 -0.0352,0.64453 -0.0117,0.0469 -0.0352,0.21094 -0.0352,0.25782 0,0.0937 0.0586,0.1289 0.12891,0.1289 0.082,0 0.1289,-0.0469 0.15234,-0.26953 l 0.25781,-2.08594 c 0,-0.0351 0.0234,-0.15234 0.0234,-0.17578 0,-0.14062 -0.10547,-0.14062 -0.32812,-0.14062 h -5.66016 c -0.23437,0 -0.35156,0 -0.35156,0.22265 0,0.12891 0.082,0.12891 0.29297,0.12891 0.73828,0 0.73828,0.082 0.73828,0.21094 0,0.0586 -0.0117,0.10547 -0.0469,0.24609 l -1.61718,6.45703 c -0.10547,0.41016 -0.12891,0.52735 -0.96094,0.52735 -0.23438,0 -0.35156,0 -0.35156,0.22265 0,0.12891 0.10546,0.12891 0.17578,0.12891 0.23437,0 0.46875,-0.0234 0.6914,-0.0234 h 1.5586 c 0.25781,0 0.55078,0.0234 0.80859,0.0234 0.11719,0 0.25781,0 0.25781,-0.21094 0,-0.14062 -0.0703,-0.14062 -0.33984,-0.14062 -0.9375,0 -0.96094,-0.082 -0.96094,-0.25782 0,-0.0586 0.0234,-0.15234 0.0469,-0.23437 z m 0,0"
         style="fill:#000000;fill-opacity:1;fill-rule:nonzero;stroke:none" />
      <path
         id="path70"
         d="m -15.683625,492.77124 c -0.105469,0.41016 -0.128906,0.52735 -0.960937,0.52735 -0.234375,0 -0.351563,0 -0.351563,0.22265 0,0.12891 0.07031,0.12891 0.304688,0.12891 h 3.796875 c 2.414062,0 4.7695308,-2.4961 4.7695308,-5.16797 0,-1.72266 -1.03125,-3 -2.7421878,-3 h -3.832031 c -0.234375,0 -0.339844,0 -0.339844,0.23437 0,0.11719 0.105469,0.11719 0.292969,0.11719 0.726563,0 0.726563,0.0937 0.726563,0.22266 0,0.0234 0,0.0937 -0.04687,0.28125 z m 2.519531,-6.46875 c 0.117188,-0.44531 0.164063,-0.46875 0.621094,-0.46875 h 1.324219 c 1.113281,0 2.144531,0.60938 2.144531,2.26172 0,0.59766 -0.234375,2.67188 -1.394531,3.98438 -0.339844,0.39843 -1.242188,1.21875 -2.625,1.21875 h -1.359375 c -0.164063,0 -0.1875,0 -0.257813,-0.0117 -0.128906,-0.0117 -0.140625,-0.0352 -0.140625,-0.12891 0,-0.082 0.02344,-0.15234 0.04687,-0.25781 z m 9.199219,3.44531 h 1.1484375 c 0.9023438,0 0.984375,0.21094 0.984375,0.55079 0,0.16406 -0.035156,0.32812 -0.09375,0.58593 -0.023437,0.0469 -0.035156,0.11719 -0.035156,0.14063 0,0.082 0.046875,0.1289 0.140625,0.1289 0.09375,0 0.1054687,-0.0469 0.1523437,-0.24609 l 0.69140625,-2.77734 c 0,-0.0469 -0.0351561,-0.11719 -0.11718745,-0.11719 -0.1054688,0 -0.1171875,0.0469 -0.1757813,0.24609 -0.2460937,0.89063 -0.4804687,1.14844 -1.5234375,1.14844 h -1.0898437 l 0.7734375,-3.09375 c 0.1171875,-0.42187 0.140625,-0.45703 0.6210937,-0.45703 h 1.60546875 c 1.5,0 1.7109375,0.44531 1.7109375,1.28906 0,0.0703 0,0.33985 -0.0351563,0.64453 -0.0117188,0.0469 -0.0351563,0.21094 -0.0351563,0.25782 0,0.0937 0.0585938,0.1289 0.12890625,0.1289 0.0820313,0 0.1289063,-0.0469 0.1523438,-0.26953 l 0.2578125,-2.08594 c 0,-0.0351 0.023437,-0.15234 0.023437,-0.17578 0,-0.14062 -0.1054688,-0.14062 -0.32812505,-0.14062 H -4.668 c -0.234375,0 -0.3515625,0 -0.3515625,0.22265 0,0.12891 0.082031,0.12891 0.2929688,0.12891 0.7382812,0 0.7382812,0.082 0.7382812,0.21094 0,0.0586 -0.011719,0.10547 -0.046875,0.24609 l -1.6171875,6.45703 c -0.1054687,0.41016 -0.1289062,0.52735 -0.9609375,0.52735 -0.234375,0 -0.3515625,0 -0.3515625,0.22265 0,0.12891 0.1054688,0.12891 0.1757813,0.12891 0.234375,0 0.46875,-0.0234 0.6914062,-0.0234 h 1.5585938 c 0.2578125,0 0.5507812,0.0234 0.8085937,0.0234 0.1171875,0 0.2578125,0 0.2578125,-0.21094 0,-0.14062 -0.070312,-0.14062 -0.3398437,-0.14062 -0.9375,0 -0.9609375,-0.082 -0.9609375,-0.25782 0,-0.0586 0.023437,-0.15234 0.046875,-0.23437 z m 13.9599609,1.125 c 0.011719,-0.0351 0.046875,-0.11718 0.046875,-0.16406 0,-0.0586 -0.046875,-0.11719 -0.1171877,-0.11719 -0.046875,0 -0.070312,0.0117 -0.1054687,0.0469 -0.023437,0.0117 -0.023437,0.0352 -0.140625,0.26953 -0.703125,1.67578 -1.21875,2.39063 -3.1289063,2.39063 H 4.8036797 c -0.1640625,0 -0.1875,0 -0.2578125,-0.0117 -0.1289063,-0.0117 -0.140625,-0.0352 -0.140625,-0.12891 0,-0.082 0.023437,-0.15234 0.046875,-0.25781 l 0.8203125,-3.30469 h 1.1835937 c 0.9375,0 1.0078125,0.21094 1.0078125,0.5625 0,0.11719 0,0.23438 -0.082031,0.58594 -0.035156,0.0469 -0.046875,0.0937 -0.046875,0.1289 0,0.082 0.070312,0.12891 0.140625,0.12891 0.1054687,0 0.1171875,-0.0937 0.1640625,-0.25781 l 0.6796875,-2.77735 c 0,-0.0586 -0.046875,-0.11718 -0.1171875,-0.11718 -0.1054688,0 -0.1171875,0.0469 -0.1640625,0.22265 -0.2460938,0.91407 -0.4804688,1.1836 -1.546875,1.1836 h -1.136719 l 0.7382813,-2.94141 c 0.1171875,-0.42187 0.140625,-0.45703 0.6210937,-0.45703 h 1.7109375 c 1.4765625,0 1.7695316,0.39844 1.7695316,1.30078 0,0.0117 0,0.35156 -0.04687,0.73828 -0.01172,0.0469 -0.02344,0.12891 -0.02344,0.15235 0,0.0937 0.05859,0.1289 0.128906,0.1289 0.08203,0 0.140625,-0.0469 0.164063,-0.26953 l 0.246094,-2.08594 c 0,-0.0351 0.02344,-0.15234 0.02344,-0.17578 0,-0.14062 -0.105469,-0.14062 -0.316406,-0.14062 H 4.5341484 c -0.234375,0 -0.3515625,0 -0.3515625,0.22265 0,0.12891 0.082031,0.12891 0.2929688,0.12891 0.7382812,0 0.7382812,0.082 0.7382812,0.21094 0,0.0586 -0.011719,0.10547 -0.046875,0.24609 l -1.6171875,6.45703 c -0.1054687,0.41016 -0.1289062,0.52735 -0.9609375,0.52735 -0.234375,0 -0.3515625,0 -0.3515625,0.22265 0,0.12891 0.070312,0.12891 0.3046875,0.12891 h 6 c 0.2695313,0 0.28125,-0.0117 0.3632813,-0.19922 z m 0,0"
         style="fill:#000000;fill-opacity:1;fill-rule:nonzero;stroke:none" />
    </g>
  </g>
</svg>
