<?xml version="1.0" encoding="UTF-8" standalone="no"?>
<!-- Created with Inkscape (http://www.inkscape.org/) -->

<svg
   version="1.1"
   id="svg1"
   width="794.55066"
   height="1123.6533"
   viewBox="0 0 794.55066 1123.6533"
   sodipodi:docname="LigaMatematycznaMatuskiego_Klasa5i6_Zestaw3_2017_2018_page0.pdf"
   xmlns:inkscape="http://www.inkscape.org/namespaces/inkscape"
   xmlns:sodipodi="http://sodipodi.sourceforge.net/DTD/sodipodi-0.dtd"
   xmlns="http://www.w3.org/2000/svg"
   xmlns:svg="http://www.w3.org/2000/svg">
  <defs
     id="defs1" />
  <sodipodi:namedview
     id="namedview1"
     pagecolor="#ffffff"
     bordercolor="#000000"
     borderopacity="0.25"
     inkscape:showpageshadow="2"
     inkscape:pageopacity="0.0"
     inkscape:pagecheckerboard="0"
     inkscape:deskcolor="#d1d1d1">
    <inkscape:page
       x="0"
       y="0"
       inkscape:label="1"
       id="page1"
       width="794.55066"
       height="1123.6533"
       margin="0"
       bleed="0" />
  </sodipodi:namedview>
  <g
     id="g1"
     inkscape:groupmode="layer"
     inkscape:label="1">
    <g
       id="g2"
       aria-label="LIGAMATEMATYCZNA&#10;im.ZdzisªawaMatuskiego&#10;GRUDZIE2017&#10;SZKOAPODSTAWOWA&#10;(klasyIV-VI)&#10;ZADANIE1.&#10;Czyw±ródliczb&#10;•66,666,6666,66666,...&#10;•55,555,5555,55555,...&#10;znajdujesi¦kwadratliczbynaturalnej?&#10;ZADANIE2.&#10;DrwalMikoªajci¡ªdrewnonaopaªdokominka.Wykonuj¡cci¦cie,rozcinaªzawszejedenkawa-&#10;ªekdrewnanadwiecz¦±ci.Powykonaniu53ci¦¢Mikoªajmiaª72kawaªkidrewna.Ilekawaªków&#10;drewnabyªonapocz¡tku?&#10;ZADANIE3.&#10;NaWigiliispotkaªosi¦dwóchkuzynów-matematyków:AdamiBartek.Adamzapytaªkuzyna,&#10;ilelatmatrójkajegodzieci.Tenodparª,»eiloczynichwiekujestrówny72.DlaAdamata&#10;informacjaniebyªawystarczaj¡ca.WtedyBartekdodaª,»esumaichwiekuto14.Jednak&#10;itawskazówkaniepozwoliªaAdamowiustali¢wiekudzieci.Dopiero,gdyBartekpowiedziaª,&#10;»enajmªodszedzieckomanaimi¦Ewa,Adampoprawnieustaliªwiekdziecikuzyna.Ilelat&#10;maj¡dzieciBartka?&#10;ZADANIE4.&#10;Obwódprostok¡tajestrówny67.Dwusiecznajednegozk¡tówdzieliobwódnadwiecz¦±ci&#10;ró»ni¡cesi¦o20.Obliczdªugo±cibokówprostok¡ta.&#10;ZADANIE5.&#10;Danyjesttrójk¡tprostok¡tnyABCok¡cieprostymprzywierzchoªkuC.Dwusiecznepopro-&#10;wadzonezwierzchoªkówAiBprzecinaj¡si¦wpunkcieD.Znajd¹miar¦k¡taADB.&#10;Dwusiecznak¡tajesttopóªprostaopocz¡tkuwwierzchoªkuk¡tadziel¡catenk¡tnadwak¡ty&#10;przystaj¡ce."
       transform="matrix(1.3333333,0,0,1.3333333,274.724,56.069333)">
      <path
         id="path2"
         d="m -125.47366,144.78296 c 0,-1.27734 -1.06641,-2.32031 -2.32032,-2.32031 -1.28906,0 -2.33203,1.0664 -2.33203,2.32031 0,1.26563 1.04297,2.32031 2.33203,2.32031 1.25391,0 2.32032,-1.04297 2.32032,-2.32031 z m 0,0"
         style="fill:#000000;fill-opacity:1;fill-rule:nonzero;stroke:none" />
      <path
         id="path3"
         d="m -117.48734,143.61109 c 0,-3.02344 1.47657,-3.50391 2.1211,-3.50391 0.43359,0 0.85547,0.12891 1.08984,0.49219 -0.14062,0 -0.59765,0 -0.59765,0.49218 0,0.25782 0.17578,0.49219 0.49218,0.49219 0.29297,0 0.49219,-0.1875 0.49219,-0.52734 0,-0.6211 -0.44531,-1.23047 -1.48828,-1.23047 -1.51172,0 -3.08203,1.53516 -3.08203,4.17187 0,3.28125 1.42969,4.01954 2.44922,4.01954 1.30078,0 2.41406,-1.125 2.41406,-2.6836 0,-1.59375 -1.11328,-2.66015 -2.30859,-2.66015 -1.06641,0 -1.45313,0.92578 -1.58204,1.26562 z m 1.47657,4.08984 c -0.75,0 -1.11328,-0.66797 -1.21875,-0.92578 -0.10547,-0.30469 -0.22266,-0.89063 -0.22266,-1.73438 0,-0.9375 0.42188,-2.12109 1.5,-2.12109 0.65625,0 1.00781,0.44531 1.18359,0.84375 0.1875,0.44531 0.1875,1.04297 0.1875,1.55859 0,0.60938 0,1.14844 -0.22265,1.60547 -0.30469,0.57422 -0.72656,0.77344 -1.20703,0.77344 z m 4.37695,-4.08984 c 0,-3.02344 1.47656,-3.50391 2.12109,-3.50391 0.4336,0 0.85547,0.12891 1.08985,0.49219 -0.14063,0 -0.59766,0 -0.59766,0.49218 0,0.25782 0.17578,0.49219 0.49219,0.49219 0.29297,0 0.49219,-0.1875 0.49219,-0.52734 0,-0.6211 -0.44532,-1.23047 -1.48829,-1.23047 -1.51171,0 -3.08203,1.53516 -3.08203,4.17187 0,3.28125 1.42969,4.01954 2.44922,4.01954 1.30078,0 2.41406,-1.125 2.41406,-2.6836 0,-1.59375 -1.11328,-2.66015 -2.30859,-2.66015 -1.06641,0 -1.45312,0.92578 -1.58203,1.26562 z m 1.47656,4.08984 c -0.75,0 -1.11328,-0.66797 -1.21875,-0.92578 -0.10547,-0.30469 -0.22265,-0.89063 -0.22265,-1.73438 0,-0.9375 0.42187,-2.12109 1.5,-2.12109 0.65625,0 1.00781,0.44531 1.18359,0.84375 0.1875,0.44531 0.1875,1.04297 0.1875,1.55859 0,0.60938 0,1.14844 -0.22266,1.60547 -0.30468,0.57422 -0.72656,0.77344 -1.20703,0.77344 z m 0,0"
         style="fill:#000000;fill-opacity:1;fill-rule:nonzero;stroke:none" />
      <path
         id="path4"
         d="m -98.628937,143.61109 c 0,-3.02344 1.476562,-3.50391 2.121093,-3.50391 0.433594,0 0.855469,0.12891 1.089844,0.49219 -0.140625,0 -0.597656,0 -0.597656,0.49218 0,0.25782 0.175781,0.49219 0.492187,0.49219 0.292969,0 0.492188,-0.1875 0.492188,-0.52734 0,-0.6211 -0.445313,-1.23047 -1.488281,-1.23047 -1.511719,0 -3.082032,1.53516 -3.082032,4.17187 0,3.28125 1.429688,4.01954 2.449219,4.01954 1.300781,0 2.414063,-1.125 2.414063,-2.6836 0,-1.59375 -1.113282,-2.66015 -2.308594,-2.66015 -1.066406,0 -1.453125,0.92578 -1.582031,1.26562 z m 1.476562,4.08984 c -0.75,0 -1.113281,-0.66797 -1.21875,-0.92578 -0.105469,-0.30469 -0.222656,-0.89063 -0.222656,-1.73438 0,-0.9375 0.421875,-2.12109 1.5,-2.12109 0.65625,0 1.007812,0.44531 1.183594,0.84375 0.1875,0.44531 0.1875,1.04297 0.1875,1.55859 0,0.60938 0,1.14844 -0.222657,1.60547 -0.304687,0.57422 -0.726562,0.77344 -1.207031,0.77344 z m 4.376953,-4.08984 c 0,-3.02344 1.476563,-3.50391 2.121094,-3.50391 0.433594,0 0.855469,0.12891 1.089844,0.49219 -0.140625,0 -0.597657,0 -0.597657,0.49218 0,0.25782 0.175782,0.49219 0.492188,0.49219 0.292969,0 0.492187,-0.1875 0.492187,-0.52734 0,-0.6211 -0.445312,-1.23047 -1.488281,-1.23047 -1.511719,0 -3.082031,1.53516 -3.082031,4.17187 0,3.28125 1.429687,4.01954 2.449219,4.01954 1.300781,0 2.414062,-1.125 2.414062,-2.6836 0,-1.59375 -1.113281,-2.66015 -2.308594,-2.66015 -1.066406,0 -1.453125,0.92578 -1.582031,1.26562 z m 1.476563,4.08984 c -0.75,0 -1.113282,-0.66797 -1.21875,-0.92578 -0.105469,-0.30469 -0.222657,-0.89063 -0.222657,-1.73438 0,-0.9375 0.421875,-2.12109 1.5,-2.12109 0.65625,0 1.007813,0.44531 1.183594,0.84375 0.1875,0.44531 0.1875,1.04297 0.1875,1.55859 0,0.60938 0,1.14844 -0.222656,1.60547 -0.304688,0.57422 -0.726563,0.77344 -1.207031,0.77344 z m 4.376953,-4.08984 c 0,-3.02344 1.476562,-3.50391 2.121094,-3.50391 0.433593,0 0.855468,0.12891 1.089843,0.49219 -0.140625,0 -0.597656,0 -0.597656,0.49218 0,0.25782 0.175781,0.49219 0.492188,0.49219 0.292968,0 0.492187,-0.1875 0.492187,-0.52734 0,-0.6211 -0.445312,-1.23047 -1.488281,-1.23047 -1.511719,0 -3.082031,1.53516 -3.082031,4.17187 0,3.28125 1.429687,4.01954 2.449218,4.01954 1.300782,0 2.414063,-1.125 2.414063,-2.6836 0,-1.59375 -1.113281,-2.66015 -2.308594,-2.66015 -1.066406,0 -1.453125,0.92578 -1.582031,1.26562 z m 1.476562,4.08984 c -0.75,0 -1.113281,-0.66797 -1.21875,-0.92578 -0.105468,-0.30469 -0.222656,-0.89063 -0.222656,-1.73438 0,-0.9375 0.421875,-2.12109 1.5,-2.12109 0.65625,0 1.007813,0.44531 1.183594,0.84375 0.1875,0.44531 0.1875,1.04297 0.1875,1.55859 0,0.60938 0,1.14844 -0.222656,1.60547 -0.304688,0.57422 -0.726563,0.77344 -1.207032,0.77344 z m 0,0"
         style="fill:#000000;fill-opacity:1;fill-rule:nonzero;stroke:none" />
      <path
         id="path5"
         d="m -73.917023,143.61109 c 0,-3.02344 1.476562,-3.50391 2.121093,-3.50391 0.433594,0 0.855469,0.12891 1.089844,0.49219 -0.140625,0 -0.597656,0 -0.597656,0.49218 0,0.25782 0.175781,0.49219 0.492187,0.49219 0.292969,0 0.492188,-0.1875 0.492188,-0.52734 0,-0.6211 -0.445313,-1.23047 -1.488281,-1.23047 -1.511719,0 -3.082032,1.53516 -3.082032,4.17187 0,3.28125 1.429688,4.01954 2.449219,4.01954 1.300781,0 2.414063,-1.125 2.414063,-2.6836 0,-1.59375 -1.113282,-2.66015 -2.308594,-2.66015 -1.066406,0 -1.453125,0.92578 -1.582031,1.26562 z m 1.476562,4.08984 c -0.75,0 -1.113281,-0.66797 -1.21875,-0.92578 -0.105469,-0.30469 -0.222656,-0.89063 -0.222656,-1.73438 0,-0.9375 0.421875,-2.12109 1.5,-2.12109 0.65625,0 1.007812,0.44531 1.183594,0.84375 0.1875,0.44531 0.1875,1.04297 0.1875,1.55859 0,0.60938 0,1.14844 -0.222657,1.60547 -0.304687,0.57422 -0.726562,0.77344 -1.207031,0.77344 z m 4.376953,-4.08984 c 0,-3.02344 1.476563,-3.50391 2.121094,-3.50391 0.433594,0 0.855469,0.12891 1.089844,0.49219 -0.140625,0 -0.597657,0 -0.597657,0.49218 0,0.25782 0.175782,0.49219 0.492188,0.49219 0.292969,0 0.492187,-0.1875 0.492187,-0.52734 0,-0.6211 -0.445312,-1.23047 -1.488281,-1.23047 -1.511719,0 -3.082031,1.53516 -3.082031,4.17187 0,3.28125 1.429687,4.01954 2.449219,4.01954 1.300781,0 2.414062,-1.125 2.414062,-2.6836 0,-1.59375 -1.113281,-2.66015 -2.308594,-2.66015 -1.066406,0 -1.453125,0.92578 -1.582031,1.26562 z m 1.476563,4.08984 c -0.75,0 -1.113282,-0.66797 -1.21875,-0.92578 -0.105469,-0.30469 -0.222657,-0.89063 -0.222657,-1.73438 0,-0.9375 0.421875,-2.12109 1.5,-2.12109 0.65625,0 1.007813,0.44531 1.183594,0.84375 0.1875,0.44531 0.1875,1.04297 0.1875,1.55859 0,0.60938 0,1.14844 -0.222656,1.60547 -0.304688,0.57422 -0.726563,0.77344 -1.207031,0.77344 z m 4.376953,-4.08984 c 0,-3.02344 1.476562,-3.50391 2.121094,-3.50391 0.433593,0 0.855468,0.12891 1.089843,0.49219 -0.140625,0 -0.597656,0 -0.597656,0.49218 0,0.25782 0.175781,0.49219 0.492188,0.49219 0.292968,0 0.492187,-0.1875 0.492187,-0.52734 0,-0.6211 -0.445312,-1.23047 -1.488281,-1.23047 -1.511719,0 -3.082031,1.53516 -3.082031,4.17187 0,3.28125 1.429687,4.01954 2.449218,4.01954 1.300782,0 2.414063,-1.125 2.414063,-2.6836 0,-1.59375 -1.113281,-2.66015 -2.308594,-2.66015 -1.066406,0 -1.453125,0.92578 -1.582031,1.26562 z m 1.476562,4.08984 c -0.75,0 -1.113281,-0.66797 -1.21875,-0.92578 -0.105468,-0.30469 -0.222656,-0.89063 -0.222656,-1.73438 0,-0.9375 0.421875,-2.12109 1.5,-2.12109 0.65625,0 1.007813,0.44531 1.183594,0.84375 0.1875,0.44531 0.1875,1.04297 0.1875,1.55859 0,0.60938 0,1.14844 -0.222656,1.60547 -0.304688,0.57422 -0.726563,0.77344 -1.207032,0.77344 z m 4.376953,-4.08984 c 0,-3.02344 1.476563,-3.50391 2.121094,-3.50391 0.433594,0 0.855469,0.12891 1.089844,0.49219 -0.140625,0 -0.597656,0 -0.597656,0.49218 0,0.25782 0.175781,0.49219 0.492187,0.49219 0.292969,0 0.492188,-0.1875 0.492188,-0.52734 0,-0.6211 -0.445313,-1.23047 -1.488282,-1.23047 -1.511718,0 -3.082031,1.53516 -3.082031,4.17187 0,3.28125 1.429688,4.01954 2.449219,4.01954 1.300781,0 2.414062,-1.125 2.414062,-2.6836 0,-1.59375 -1.113281,-2.66015 -2.308593,-2.66015 -1.066407,0 -1.453125,0.92578 -1.582032,1.26562 z m 1.476563,4.08984 c -0.75,0 -1.113281,-0.66797 -1.21875,-0.92578 -0.105469,-0.30469 -0.222656,-0.89063 -0.222656,-1.73438 0,-0.9375 0.421875,-2.12109 1.5,-2.12109 0.65625,0 1.007812,0.44531 1.183593,0.84375 0.1875,0.44531 0.1875,1.04297 0.1875,1.55859 0,0.60938 0,1.14844 -0.222656,1.60547 -0.304687,0.57422 -0.726562,0.77344 -1.207031,0.77344 z m 0,0"
         style="fill:#000000;fill-opacity:1;fill-rule:nonzero;stroke:none" />
      <path
         id="path6"
         d="m -43.354523,143.61109 c 0,-3.02344 1.476562,-3.50391 2.121093,-3.50391 0.433594,0 0.855469,0.12891 1.089844,0.49219 -0.140625,0 -0.597656,0 -0.597656,0.49218 0,0.25782 0.175781,0.49219 0.492187,0.49219 0.292969,0 0.492188,-0.1875 0.492188,-0.52734 0,-0.6211 -0.445313,-1.23047 -1.488281,-1.23047 -1.511719,0 -3.082032,1.53516 -3.082032,4.17187 0,3.28125 1.429688,4.01954 2.449219,4.01954 1.300781,0 2.414063,-1.125 2.414063,-2.6836 0,-1.59375 -1.113282,-2.66015 -2.308594,-2.66015 -1.066406,0 -1.453125,0.92578 -1.582031,1.26562 z m 1.476562,4.08984 c -0.75,0 -1.113281,-0.66797 -1.21875,-0.92578 -0.105469,-0.30469 -0.222656,-0.89063 -0.222656,-1.73438 0,-0.9375 0.421875,-2.12109 1.5,-2.12109 0.65625,0 1.007812,0.44531 1.183594,0.84375 0.1875,0.44531 0.1875,1.04297 0.1875,1.55859 0,0.60938 0,1.14844 -0.222657,1.60547 -0.304687,0.57422 -0.726562,0.77344 -1.207031,0.77344 z m 4.376953,-4.08984 c 0,-3.02344 1.476563,-3.50391 2.121094,-3.50391 0.433594,0 0.855469,0.12891 1.089844,0.49219 -0.140625,0 -0.597657,0 -0.597657,0.49218 0,0.25782 0.175782,0.49219 0.492188,0.49219 0.292969,0 0.492187,-0.1875 0.492187,-0.52734 0,-0.6211 -0.445312,-1.23047 -1.488281,-1.23047 -1.511719,0 -3.082031,1.53516 -3.082031,4.17187 0,3.28125 1.429687,4.01954 2.449219,4.01954 1.300781,0 2.414062,-1.125 2.414062,-2.6836 0,-1.59375 -1.113281,-2.66015 -2.308594,-2.66015 -1.066406,0 -1.453125,0.92578 -1.582031,1.26562 z m 1.476563,4.08984 c -0.75,0 -1.113282,-0.66797 -1.21875,-0.92578 -0.105469,-0.30469 -0.222657,-0.89063 -0.222657,-1.73438 0,-0.9375 0.421875,-2.12109 1.5,-2.12109 0.65625,0 1.007813,0.44531 1.183594,0.84375 0.1875,0.44531 0.1875,1.04297 0.1875,1.55859 0,0.60938 0,1.14844 -0.222656,1.60547 -0.304688,0.57422 -0.726563,0.77344 -1.207031,0.77344 z m 4.376953,-4.08984 c 0,-3.02344 1.476562,-3.50391 2.121094,-3.50391 0.433593,0 0.855468,0.12891 1.089843,0.49219 -0.140625,0 -0.597656,0 -0.597656,0.49218 0,0.25782 0.175781,0.49219 0.492188,0.49219 0.292968,0 0.492187,-0.1875 0.492187,-0.52734 0,-0.6211 -0.445312,-1.23047 -1.488281,-1.23047 -1.511719,0 -3.082031,1.53516 -3.082031,4.17187 0,3.28125 1.429687,4.01954 2.449218,4.01954 1.300782,0 2.414063,-1.125 2.414063,-2.6836 0,-1.59375 -1.113281,-2.66015 -2.308594,-2.66015 -1.066406,0 -1.453125,0.92578 -1.582031,1.26562 z m 1.476562,4.08984 c -0.75,0 -1.113281,-0.66797 -1.21875,-0.92578 -0.105468,-0.30469 -0.222656,-0.89063 -0.222656,-1.73438 0,-0.9375 0.421875,-2.12109 1.5,-2.12109 0.65625,0 1.007813,0.44531 1.183594,0.84375 0.1875,0.44531 0.1875,1.04297 0.1875,1.55859 0,0.60938 0,1.14844 -0.222656,1.60547 -0.304688,0.57422 -0.726563,0.77344 -1.207032,0.77344 z m 4.376953,-4.08984 c 0,-3.02344 1.476563,-3.50391 2.121094,-3.50391 0.433594,0 0.855469,0.12891 1.089844,0.49219 -0.140625,0 -0.597656,0 -0.597656,0.49218 0,0.25782 0.175781,0.49219 0.492187,0.49219 0.292969,0 0.492188,-0.1875 0.492188,-0.52734 0,-0.6211 -0.445313,-1.23047 -1.488282,-1.23047 -1.511718,0 -3.082031,1.53516 -3.082031,4.17187 0,3.28125 1.429688,4.01954 2.449219,4.01954 1.300781,0 2.414062,-1.125 2.414062,-2.6836 0,-1.59375 -1.113281,-2.66015 -2.308593,-2.66015 -1.066407,0 -1.453125,0.92578 -1.582032,1.26562 z m 1.476563,4.08984 c -0.75,0 -1.113281,-0.66797 -1.21875,-0.92578 -0.105469,-0.30469 -0.222656,-0.89063 -0.222656,-1.73438 0,-0.9375 0.421875,-2.12109 1.5,-2.12109 0.65625,0 1.007812,0.44531 1.183593,0.84375 0.1875,0.44531 0.1875,1.04297 0.1875,1.55859 0,0.60938 0,1.14844 -0.222656,1.60547 -0.304687,0.57422 -0.726562,0.77344 -1.207031,0.77344 z m 4.376953,-4.08984 c 0,-3.02344 1.476563,-3.50391 2.121094,-3.50391 0.433594,0 0.855469,0.12891 1.089844,0.49219 -0.140625,0 -0.597657,0 -0.597657,0.49218 0,0.25782 0.175782,0.49219 0.492188,0.49219 0.292969,0 0.492187,-0.1875 0.492187,-0.52734 0,-0.6211 -0.445312,-1.23047 -1.488281,-1.23047 -1.511719,0 -3.082031,1.53516 -3.082031,4.17187 0,3.28125 1.429687,4.01954 2.449219,4.01954 1.300781,0 2.414062,-1.125 2.414062,-2.6836 0,-1.59375 -1.113281,-2.66015 -2.308594,-2.66015 -1.066406,0 -1.453125,0.92578 -1.582031,1.26562 z m 1.476563,4.08984 c -0.75,0 -1.113282,-0.66797 -1.21875,-0.92578 -0.105469,-0.30469 -0.222657,-0.89063 -0.222657,-1.73438 0,-0.9375 0.421875,-2.12109 1.5,-2.12109 0.65625,0 1.007813,0.44531 1.183594,0.84375 0.1875,0.44531 0.1875,1.04297 0.1875,1.55859 0,0.60938 0,1.14844 -0.222656,1.60547 -0.304688,0.57422 -0.726563,0.77344 -1.207031,0.77344 z m 0,0"
         style="fill:#000000;fill-opacity:1;fill-rule:nonzero;stroke:none" />
      <path
         id="path7"
         d="m -125.47366,169.19312 c 0,-1.27735 -1.06641,-2.32032 -2.32032,-2.32032 -1.28906,0 -2.33203,1.06641 -2.33203,2.32032 0,1.26562 1.04297,2.32031 2.33203,2.32031 1.25391,0 2.32032,-1.04297 2.32032,-2.32031 z m 0,0"
         style="fill:#000000;fill-opacity:1;fill-rule:nonzero;stroke:none" />
      <path
         id="path8"
         d="m -117.41702,165.33765 c 0.5039,0.16406 0.92578,0.17578 1.05468,0.17578 1.35938,0 2.21485,-0.99609 2.21485,-1.16016 0,-0.0469 -0.0234,-0.10547 -0.0937,-0.10547 -0.0234,0 -0.0469,0 -0.15235,0.0469 -0.66796,0.28125 -1.24218,0.31641 -1.55859,0.31641 -0.78516,0 -1.34766,-0.23438 -1.58203,-0.32813 -0.082,-0.0352 -0.10547,-0.0352 -0.11719,-0.0352 -0.0937,0 -0.0937,0.0703 -0.0937,0.25782 v 3.55078 c 0,0.21094 0,0.29297 0.14063,0.29297 0.0586,0 0.0703,-0.0117 0.19922,-0.16407 0.32812,-0.49218 0.89062,-0.77343 1.48828,-0.77343 0.63281,0 0.94922,0.58593 1.04297,0.78515 0.19921,0.46875 0.21093,1.05469 0.21093,1.51172 0,0.45703 0,1.13672 -0.32812,1.67578 -0.26953,0.42188 -0.73828,0.72657 -1.25391,0.72657 -0.79687,0 -1.57031,-0.53907 -1.78125,-1.40625 0.0586,0.0234 0.12891,0.0352 0.1875,0.0352 0.19922,0 0.52735,-0.1289 0.52735,-0.52734 0,-0.33985 -0.23438,-0.52735 -0.52735,-0.52735 -0.21094,0 -0.52734,0.10547 -0.52734,0.57422 0,1.00782 0.80859,2.16797 2.14453,2.16797 1.34766,0 2.53125,-1.125 2.53125,-2.64844 0,-1.41796 -0.96094,-2.60156 -2.21484,-2.60156 -0.67969,0 -1.20704,0.29297 -1.51172,0.63281 z m 5.85351,0 c 0.50391,0.16406 0.92578,0.17578 1.05469,0.17578 1.35937,0 2.21484,-0.99609 2.21484,-1.16016 0,-0.0469 -0.0234,-0.10547 -0.0937,-0.10547 -0.0234,0 -0.0469,0 -0.15234,0.0469 -0.66797,0.28125 -1.24219,0.31641 -1.55859,0.31641 -0.78516,0 -1.34766,-0.23438 -1.58204,-0.32813 -0.082,-0.0352 -0.10546,-0.0352 -0.11718,-0.0352 -0.0937,0 -0.0937,0.0703 -0.0937,0.25782 v 3.55078 c 0,0.21094 0,0.29297 0.14062,0.29297 0.0586,0 0.0703,-0.0117 0.19922,-0.16407 0.32813,-0.49218 0.89063,-0.77343 1.48828,-0.77343 0.63281,0 0.94922,0.58593 1.04297,0.78515 0.19922,0.46875 0.21094,1.05469 0.21094,1.51172 0,0.45703 0,1.13672 -0.32813,1.67578 -0.26953,0.42188 -0.73828,0.72657 -1.2539,0.72657 -0.79688,0 -1.57032,-0.53907 -1.78125,-1.40625 0.0586,0.0234 0.1289,0.0352 0.1875,0.0352 0.19922,0 0.52734,-0.1289 0.52734,-0.52734 0,-0.33985 -0.23437,-0.52735 -0.52734,-0.52735 -0.21094,0 -0.52735,0.10547 -0.52735,0.57422 0,1.00782 0.8086,2.16797 2.14453,2.16797 1.34766,0 2.53125,-1.125 2.53125,-2.64844 0,-1.41796 -0.96093,-2.60156 -2.21484,-2.60156 -0.67969,0 -1.20703,0.29297 -1.51172,0.63281 z m 0,0"
         style="fill:#000000;fill-opacity:1;fill-rule:nonzero;stroke:none" />
      <path
         id="path9"
         d="m -98.558625,165.33765 c 0.503906,0.16406 0.925781,0.17578 1.054688,0.17578 1.359375,0 2.214843,-0.99609 2.214843,-1.16016 0,-0.0469 -0.02344,-0.10547 -0.09375,-0.10547 -0.02344,0 -0.04687,0 -0.152343,0.0469 -0.667969,0.28125 -1.242188,0.31641 -1.558594,0.31641 -0.785156,0 -1.347656,-0.23438 -1.582031,-0.32813 -0.08203,-0.0352 -0.105469,-0.0352 -0.117188,-0.0352 -0.09375,0 -0.09375,0.0703 -0.09375,0.25782 v 3.55078 c 0,0.21094 0,0.29297 0.140625,0.29297 0.05859,0 0.07031,-0.0117 0.199219,-0.16407 0.328125,-0.49218 0.890625,-0.77343 1.488281,-0.77343 0.632813,0 0.949219,0.58593 1.042969,0.78515 0.199219,0.46875 0.210937,1.05469 0.210937,1.51172 0,0.45703 0,1.13672 -0.328125,1.67578 -0.269531,0.42188 -0.738281,0.72657 -1.253906,0.72657 -0.796875,0 -1.570312,-0.53907 -1.78125,-1.40625 0.05859,0.0234 0.128906,0.0352 0.1875,0.0352 0.199219,0 0.527344,-0.1289 0.527344,-0.52734 0,-0.33985 -0.234375,-0.52735 -0.527344,-0.52735 -0.210937,0 -0.527344,0.10547 -0.527344,0.57422 0,1.00782 0.808594,2.16797 2.144532,2.16797 1.347656,0 2.53125,-1.125 2.53125,-2.64844 0,-1.41796 -0.960938,-2.60156 -2.214844,-2.60156 -0.679688,0 -1.207031,0.29297 -1.511719,0.63281 z m 5.853516,0 c 0.503906,0.16406 0.925781,0.17578 1.054687,0.17578 1.359375,0 2.214844,-0.99609 2.214844,-1.16016 0,-0.0469 -0.02344,-0.10547 -0.09375,-0.10547 -0.02344,0 -0.04687,0 -0.152344,0.0469 -0.667969,0.28125 -1.242187,0.31641 -1.558594,0.31641 -0.785156,0 -1.347656,-0.23438 -1.582031,-0.32813 -0.08203,-0.0352 -0.105469,-0.0352 -0.117187,-0.0352 -0.09375,0 -0.09375,0.0703 -0.09375,0.25782 v 3.55078 c 0,0.21094 0,0.29297 0.140625,0.29297 0.05859,0 0.07031,-0.0117 0.199218,-0.16407 0.328125,-0.49218 0.890625,-0.77343 1.488282,-0.77343 0.632812,0 0.949218,0.58593 1.042968,0.78515 0.199219,0.46875 0.210938,1.05469 0.210938,1.51172 0,0.45703 0,1.13672 -0.328125,1.67578 -0.269531,0.42188 -0.738281,0.72657 -1.253906,0.72657 -0.796875,0 -1.570313,-0.53907 -1.78125,-1.40625 0.05859,0.0234 0.128906,0.0352 0.1875,0.0352 0.199218,0 0.527343,-0.1289 0.527343,-0.52734 0,-0.33985 -0.234375,-0.52735 -0.527343,-0.52735 -0.210938,0 -0.527344,0.10547 -0.527344,0.57422 0,1.00782 0.808594,2.16797 2.144531,2.16797 1.347656,0 2.53125,-1.125 2.53125,-2.64844 0,-1.41796 -0.960937,-2.60156 -2.214844,-2.60156 -0.679687,0 -1.207031,0.29297 -1.511718,0.63281 z m 5.853515,0 c 0.503907,0.16406 0.925782,0.17578 1.054688,0.17578 1.359375,0 2.214844,-0.99609 2.214844,-1.16016 0,-0.0469 -0.02344,-0.10547 -0.09375,-0.10547 -0.02344,0 -0.04687,0 -0.152344,0.0469 -0.667969,0.28125 -1.242188,0.31641 -1.558594,0.31641 -0.785156,0 -1.347656,-0.23438 -1.582031,-0.32813 -0.08203,-0.0352 -0.105469,-0.0352 -0.117188,-0.0352 -0.09375,0 -0.09375,0.0703 -0.09375,0.25782 v 3.55078 c 0,0.21094 0,0.29297 0.140625,0.29297 0.05859,0 0.07031,-0.0117 0.199219,-0.16407 0.328125,-0.49218 0.890625,-0.77343 1.488281,-0.77343 0.632813,0 0.949219,0.58593 1.042969,0.78515 0.199219,0.46875 0.210938,1.05469 0.210938,1.51172 0,0.45703 0,1.13672 -0.328125,1.67578 -0.269532,0.42188 -0.738282,0.72657 -1.253907,0.72657 -0.796875,0 -1.570312,-0.53907 -1.78125,-1.40625 0.05859,0.0234 0.128907,0.0352 0.1875,0.0352 0.199219,0 0.527344,-0.1289 0.527344,-0.52734 0,-0.33985 -0.234375,-0.52735 -0.527344,-0.52735 -0.210937,0 -0.527343,0.10547 -0.527343,0.57422 0,1.00782 0.808593,2.16797 2.144531,2.16797 1.347656,0 2.53125,-1.125 2.53125,-2.64844 0,-1.41796 -0.960938,-2.60156 -2.214844,-2.60156 -0.679687,0 -1.207031,0.29297 -1.511719,0.63281 z m 0,0"
         style="fill:#000000;fill-opacity:1;fill-rule:nonzero;stroke:none" />
      <path
         id="path10"
         d="m -73.846711,165.33765 c 0.503906,0.16406 0.925781,0.17578 1.054688,0.17578 1.359375,0 2.214843,-0.99609 2.214843,-1.16016 0,-0.0469 -0.02344,-0.10547 -0.09375,-0.10547 -0.02344,0 -0.04687,0 -0.152343,0.0469 -0.667969,0.28125 -1.242188,0.31641 -1.558594,0.31641 -0.785156,0 -1.347656,-0.23438 -1.582031,-0.32813 -0.08203,-0.0352 -0.105469,-0.0352 -0.117188,-0.0352 -0.09375,0 -0.09375,0.0703 -0.09375,0.25782 v 3.55078 c 0,0.21094 0,0.29297 0.140625,0.29297 0.05859,0 0.07031,-0.0117 0.199219,-0.16407 0.328125,-0.49218 0.890625,-0.77343 1.488281,-0.77343 0.632813,0 0.949219,0.58593 1.042969,0.78515 0.199219,0.46875 0.210937,1.05469 0.210937,1.51172 0,0.45703 0,1.13672 -0.328125,1.67578 -0.269531,0.42188 -0.738281,0.72657 -1.253906,0.72657 -0.796875,0 -1.570312,-0.53907 -1.78125,-1.40625 0.05859,0.0234 0.128906,0.0352 0.1875,0.0352 0.199219,0 0.527344,-0.1289 0.527344,-0.52734 0,-0.33985 -0.234375,-0.52735 -0.527344,-0.52735 -0.210937,0 -0.527344,0.10547 -0.527344,0.57422 0,1.00782 0.808594,2.16797 2.144532,2.16797 1.347656,0 2.53125,-1.125 2.53125,-2.64844 0,-1.41796 -0.960938,-2.60156 -2.214844,-2.60156 -0.679688,0 -1.207031,0.29297 -1.511719,0.63281 z m 5.853516,0 c 0.503906,0.16406 0.925781,0.17578 1.054687,0.17578 1.359375,0 2.214844,-0.99609 2.214844,-1.16016 0,-0.0469 -0.02344,-0.10547 -0.09375,-0.10547 -0.02344,0 -0.04687,0 -0.152344,0.0469 -0.667969,0.28125 -1.242187,0.31641 -1.558594,0.31641 -0.785156,0 -1.347656,-0.23438 -1.582031,-0.32813 -0.08203,-0.0352 -0.105469,-0.0352 -0.117187,-0.0352 -0.09375,0 -0.09375,0.0703 -0.09375,0.25782 v 3.55078 c 0,0.21094 0,0.29297 0.140625,0.29297 0.05859,0 0.07031,-0.0117 0.199218,-0.16407 0.328125,-0.49218 0.890625,-0.77343 1.488282,-0.77343 0.632812,0 0.949218,0.58593 1.042968,0.78515 0.199219,0.46875 0.210938,1.05469 0.210938,1.51172 0,0.45703 0,1.13672 -0.328125,1.67578 -0.269531,0.42188 -0.738281,0.72657 -1.253906,0.72657 -0.796875,0 -1.570313,-0.53907 -1.78125,-1.40625 0.05859,0.0234 0.128906,0.0352 0.1875,0.0352 0.199218,0 0.527343,-0.1289 0.527343,-0.52734 0,-0.33985 -0.234375,-0.52735 -0.527343,-0.52735 -0.210938,0 -0.527344,0.10547 -0.527344,0.57422 0,1.00782 0.808594,2.16797 2.144531,2.16797 1.347656,0 2.53125,-1.125 2.53125,-2.64844 0,-1.41796 -0.960937,-2.60156 -2.214844,-2.60156 -0.679687,0 -1.207031,0.29297 -1.511718,0.63281 z m 5.853515,0 c 0.503907,0.16406 0.925782,0.17578 1.054688,0.17578 1.359375,0 2.214844,-0.99609 2.214844,-1.16016 0,-0.0469 -0.02344,-0.10547 -0.09375,-0.10547 -0.02344,0 -0.04687,0 -0.152344,0.0469 -0.667969,0.28125 -1.242188,0.31641 -1.558594,0.31641 -0.785156,0 -1.347656,-0.23438 -1.582031,-0.32813 -0.08203,-0.0352 -0.105469,-0.0352 -0.117188,-0.0352 -0.09375,0 -0.09375,0.0703 -0.09375,0.25782 v 3.55078 c 0,0.21094 0,0.29297 0.140625,0.29297 0.05859,0 0.07031,-0.0117 0.199219,-0.16407 0.328125,-0.49218 0.890625,-0.77343 1.488281,-0.77343 0.632813,0 0.949219,0.58593 1.042969,0.78515 0.199219,0.46875 0.210938,1.05469 0.210938,1.51172 0,0.45703 0,1.13672 -0.328125,1.67578 -0.269532,0.42188 -0.738282,0.72657 -1.253907,0.72657 -0.796875,0 -1.570312,-0.53907 -1.78125,-1.40625 0.05859,0.0234 0.128907,0.0352 0.1875,0.0352 0.199219,0 0.527344,-0.1289 0.527344,-0.52734 0,-0.33985 -0.234375,-0.52735 -0.527344,-0.52735 -0.210937,0 -0.527343,0.10547 -0.527343,0.57422 0,1.00782 0.808593,2.16797 2.144531,2.16797 1.347656,0 2.53125,-1.125 2.53125,-2.64844 0,-1.41796 -0.960938,-2.60156 -2.214844,-2.60156 -0.679687,0 -1.207031,0.29297 -1.511719,0.63281 z m 5.853516,0 c 0.503906,0.16406 0.925781,0.17578 1.054687,0.17578 1.359375,0 2.214844,-0.99609 2.214844,-1.16016 0,-0.0469 -0.02344,-0.10547 -0.09375,-0.10547 -0.02344,0 -0.04687,0 -0.152344,0.0469 -0.667968,0.28125 -1.242187,0.31641 -1.558593,0.31641 -0.785157,0 -1.347657,-0.23438 -1.582032,-0.32813 -0.08203,-0.0352 -0.105468,-0.0352 -0.117187,-0.0352 -0.09375,0 -0.09375,0.0703 -0.09375,0.25782 v 3.55078 c 0,0.21094 0,0.29297 0.140625,0.29297 0.05859,0 0.07031,-0.0117 0.199219,-0.16407 0.328125,-0.49218 0.890625,-0.77343 1.488281,-0.77343 0.632812,0 0.949219,0.58593 1.042969,0.78515 0.199218,0.46875 0.210937,1.05469 0.210937,1.51172 0,0.45703 0,1.13672 -0.328125,1.67578 -0.269531,0.42188 -0.738281,0.72657 -1.253906,0.72657 -0.796875,0 -1.570313,-0.53907 -1.78125,-1.40625 0.05859,0.0234 0.128906,0.0352 0.1875,0.0352 0.199219,0 0.527344,-0.1289 0.527344,-0.52734 0,-0.33985 -0.234375,-0.52735 -0.527344,-0.52735 -0.210938,0 -0.527344,0.10547 -0.527344,0.57422 0,1.00782 0.808594,2.16797 2.144531,2.16797 1.347657,0 2.53125,-1.125 2.53125,-2.64844 0,-1.41796 -0.960937,-2.60156 -2.214843,-2.60156 -0.679688,0 -1.207032,0.29297 -1.511719,0.63281 z m 0,0"
         style="fill:#000000;fill-opacity:1;fill-rule:nonzero;stroke:none" />
      <path
         id="path11"
         d="m -43.284211,165.33765 c 0.503906,0.16406 0.925781,0.17578 1.054688,0.17578 1.359375,0 2.214843,-0.99609 2.214843,-1.16016 0,-0.0469 -0.02344,-0.10547 -0.09375,-0.10547 -0.02344,0 -0.04687,0 -0.152343,0.0469 -0.667969,0.28125 -1.242188,0.31641 -1.558594,0.31641 -0.785156,0 -1.347656,-0.23438 -1.582031,-0.32813 -0.08203,-0.0352 -0.105469,-0.0352 -0.117188,-0.0352 -0.09375,0 -0.09375,0.0703 -0.09375,0.25782 v 3.55078 c 0,0.21094 0,0.29297 0.140625,0.29297 0.05859,0 0.07031,-0.0117 0.199219,-0.16407 0.328125,-0.49218 0.890625,-0.77343 1.488281,-0.77343 0.632813,0 0.949219,0.58593 1.042969,0.78515 0.199219,0.46875 0.210937,1.05469 0.210937,1.51172 0,0.45703 0,1.13672 -0.328125,1.67578 -0.269531,0.42188 -0.738281,0.72657 -1.253906,0.72657 -0.796875,0 -1.570312,-0.53907 -1.78125,-1.40625 0.05859,0.0234 0.128906,0.0352 0.1875,0.0352 0.199219,0 0.527344,-0.1289 0.527344,-0.52734 0,-0.33985 -0.234375,-0.52735 -0.527344,-0.52735 -0.210937,0 -0.527344,0.10547 -0.527344,0.57422 0,1.00782 0.808594,2.16797 2.144532,2.16797 1.347656,0 2.53125,-1.125 2.53125,-2.64844 0,-1.41796 -0.960938,-2.60156 -2.214844,-2.60156 -0.679688,0 -1.207031,0.29297 -1.511719,0.63281 z m 5.853516,0 c 0.503906,0.16406 0.925781,0.17578 1.054687,0.17578 1.359375,0 2.214844,-0.99609 2.214844,-1.16016 0,-0.0469 -0.02344,-0.10547 -0.09375,-0.10547 -0.02344,0 -0.04687,0 -0.152344,0.0469 -0.667969,0.28125 -1.242187,0.31641 -1.558594,0.31641 -0.785156,0 -1.347656,-0.23438 -1.582031,-0.32813 -0.08203,-0.0352 -0.105469,-0.0352 -0.117187,-0.0352 -0.09375,0 -0.09375,0.0703 -0.09375,0.25782 v 3.55078 c 0,0.21094 0,0.29297 0.140625,0.29297 0.05859,0 0.07031,-0.0117 0.199218,-0.16407 0.328125,-0.49218 0.890625,-0.77343 1.488282,-0.77343 0.632812,0 0.949218,0.58593 1.042968,0.78515 0.199219,0.46875 0.210938,1.05469 0.210938,1.51172 0,0.45703 0,1.13672 -0.328125,1.67578 -0.269531,0.42188 -0.738281,0.72657 -1.253906,0.72657 -0.796875,0 -1.570313,-0.53907 -1.78125,-1.40625 0.05859,0.0234 0.128906,0.0352 0.1875,0.0352 0.199218,0 0.527343,-0.1289 0.527343,-0.52734 0,-0.33985 -0.234375,-0.52735 -0.527343,-0.52735 -0.210938,0 -0.527344,0.10547 -0.527344,0.57422 0,1.00782 0.808594,2.16797 2.144531,2.16797 1.347656,0 2.53125,-1.125 2.53125,-2.64844 0,-1.41796 -0.960937,-2.60156 -2.214844,-2.60156 -0.679687,0 -1.207031,0.29297 -1.511718,0.63281 z m 5.853515,0 c 0.503907,0.16406 0.925782,0.17578 1.054688,0.17578 1.359375,0 2.214844,-0.99609 2.214844,-1.16016 0,-0.0469 -0.02344,-0.10547 -0.09375,-0.10547 -0.02344,0 -0.04687,0 -0.152344,0.0469 -0.667969,0.28125 -1.242188,0.31641 -1.558594,0.31641 -0.785156,0 -1.347656,-0.23438 -1.582031,-0.32813 -0.08203,-0.0352 -0.105469,-0.0352 -0.117188,-0.0352 -0.09375,0 -0.09375,0.0703 -0.09375,0.25782 v 3.55078 c 0,0.21094 0,0.29297 0.140625,0.29297 0.05859,0 0.07031,-0.0117 0.199219,-0.16407 0.328125,-0.49218 0.890625,-0.77343 1.488281,-0.77343 0.632813,0 0.949219,0.58593 1.042969,0.78515 0.199219,0.46875 0.210938,1.05469 0.210938,1.51172 0,0.45703 0,1.13672 -0.328125,1.67578 -0.269532,0.42188 -0.738282,0.72657 -1.253907,0.72657 -0.796875,0 -1.570312,-0.53907 -1.78125,-1.40625 0.05859,0.0234 0.128907,0.0352 0.1875,0.0352 0.199219,0 0.527344,-0.1289 0.527344,-0.52734 0,-0.33985 -0.234375,-0.52735 -0.527344,-0.52735 -0.210937,0 -0.527343,0.10547 -0.527343,0.57422 0,1.00782 0.808593,2.16797 2.144531,2.16797 1.347656,0 2.53125,-1.125 2.53125,-2.64844 0,-1.41796 -0.960938,-2.60156 -2.214844,-2.60156 -0.679687,0 -1.207031,0.29297 -1.511719,0.63281 z m 5.853516,0 c 0.503906,0.16406 0.925781,0.17578 1.054687,0.17578 1.359375,0 2.214844,-0.99609 2.214844,-1.16016 0,-0.0469 -0.02344,-0.10547 -0.09375,-0.10547 -0.02344,0 -0.04687,0 -0.152344,0.0469 -0.667968,0.28125 -1.242187,0.31641 -1.558593,0.31641 -0.785157,0 -1.347657,-0.23438 -1.582032,-0.32813 -0.08203,-0.0352 -0.105468,-0.0352 -0.117187,-0.0352 -0.09375,0 -0.09375,0.0703 -0.09375,0.25782 v 3.55078 c 0,0.21094 0,0.29297 0.140625,0.29297 0.05859,0 0.07031,-0.0117 0.199219,-0.16407 0.328125,-0.49218 0.890625,-0.77343 1.488281,-0.77343 0.632812,0 0.949219,0.58593 1.042969,0.78515 0.199218,0.46875 0.210937,1.05469 0.210937,1.51172 0,0.45703 0,1.13672 -0.328125,1.67578 -0.269531,0.42188 -0.738281,0.72657 -1.253906,0.72657 -0.796875,0 -1.570313,-0.53907 -1.78125,-1.40625 0.05859,0.0234 0.128906,0.0352 0.1875,0.0352 0.199219,0 0.527344,-0.1289 0.527344,-0.52734 0,-0.33985 -0.234375,-0.52735 -0.527344,-0.52735 -0.210938,0 -0.527344,0.10547 -0.527344,0.57422 0,1.00782 0.808594,2.16797 2.144531,2.16797 1.347657,0 2.53125,-1.125 2.53125,-2.64844 0,-1.41796 -0.960937,-2.60156 -2.214843,-2.60156 -0.679688,0 -1.207032,0.29297 -1.511719,0.63281 z m 5.853516,0 c 0.503906,0.16406 0.925781,0.17578 1.054687,0.17578 1.359375,0 2.214844,-0.99609 2.214844,-1.16016 0,-0.0469 -0.02344,-0.10547 -0.09375,-0.10547 -0.02344,0 -0.04687,0 -0.152344,0.0469 -0.667969,0.28125 -1.242187,0.31641 -1.558594,0.31641 -0.785156,0 -1.347656,-0.23438 -1.582031,-0.32813 -0.08203,-0.0352 -0.105469,-0.0352 -0.117187,-0.0352 -0.09375,0 -0.09375,0.0703 -0.09375,0.25782 v 3.55078 c 0,0.21094 0,0.29297 0.140625,0.29297 0.05859,0 0.07031,-0.0117 0.199218,-0.16407 0.328125,-0.49218 0.890625,-0.77343 1.488282,-0.77343 0.632812,0 0.949218,0.58593 1.042968,0.78515 0.199219,0.46875 0.210938,1.05469 0.210938,1.51172 0,0.45703 0,1.13672 -0.328125,1.67578 -0.269531,0.42188 -0.738281,0.72657 -1.253906,0.72657 -0.796875,0 -1.570313,-0.53907 -1.78125,-1.40625 0.05859,0.0234 0.128906,0.0352 0.1875,0.0352 0.199218,0 0.527343,-0.1289 0.527343,-0.52734 0,-0.33985 -0.234375,-0.52735 -0.527343,-0.52735 -0.210938,0 -0.527344,0.10547 -0.527344,0.57422 0,1.00782 0.808594,2.16797 2.144531,2.16797 1.347656,0 2.53125,-1.125 2.53125,-2.64844 0,-1.41796 -0.960937,-2.60156 -2.214844,-2.60156 -0.679687,0 -1.207031,0.29297 -1.511718,0.63281 z m 0,0"
         style="fill:#000000;fill-opacity:1;fill-rule:nonzero;stroke:none" />
      <path
         id="path12"
         d="m 64.557586,247.25757 c 0.503906,0.16406 0.925781,0.17578 1.054687,0.17578 1.359375,0 2.214844,-0.99609 2.214844,-1.16015 0,-0.0469 -0.02344,-0.10547 -0.09375,-0.10547 -0.02344,0 -0.04687,0 -0.152344,0.0469 -0.667968,0.28125 -1.242187,0.31641 -1.558593,0.31641 -0.785157,0 -1.347657,-0.23438 -1.582032,-0.32813 -0.08203,-0.0351 -0.105468,-0.0351 -0.117187,-0.0351 -0.09375,0 -0.09375,0.0703 -0.09375,0.25781 v 3.55078 c 0,0.21094 0,0.29297 0.140625,0.29297 0.05859,0 0.07031,-0.0117 0.199219,-0.16406 0.328125,-0.49219 0.890625,-0.77344 1.488281,-0.77344 0.632812,0 0.949219,0.58594 1.042969,0.78516 0.199218,0.46875 0.210937,1.05468 0.210937,1.51171 0,0.45704 0,1.13672 -0.328125,1.67579 -0.269531,0.42187 -0.738281,0.72656 -1.253906,0.72656 -0.796875,0 -1.570313,-0.53906 -1.78125,-1.40625 0.05859,0.0234 0.128906,0.0351 0.1875,0.0351 0.199219,0 0.527344,-0.1289 0.527344,-0.52734 0,-0.33984 -0.234375,-0.52734 -0.527344,-0.52734 -0.210938,0 -0.527344,0.10547 -0.527344,0.57422 0,1.00781 0.808594,2.16796 2.144531,2.16796 1.347657,0 2.53125,-1.125 2.53125,-2.64843 0,-1.41797 -0.960937,-2.60157 -2.214843,-2.60157 -0.679688,0 -1.207032,0.29297 -1.511719,0.63282 z m 6.521484,2.55469 c -0.210937,0.0117 -0.257812,0.0234 -0.257812,0.1289 0,0.11719 0.05859,0.11719 0.28125,0.11719 h 0.550781 c 1.007813,0 1.464844,0.84375 1.464844,1.99219 0,1.55859 -0.808594,1.98047 -1.394531,1.98047 -0.574219,0 -1.558594,-0.28125 -1.898438,-1.06641 0.375,0.0586 0.726563,-0.15234 0.726563,-0.58594 0,-0.33984 -0.257813,-0.58593 -0.585938,-0.58593 -0.292969,0 -0.597656,0.16406 -0.597656,0.62109 0,1.06641 1.066406,1.93359 2.390625,1.93359 1.417969,0 2.472656,-1.07812 2.472656,-2.28515 0,-1.10156 -0.890625,-1.96875 -2.027344,-2.16797 1.03125,-0.30469 1.699219,-1.17188 1.699219,-2.10938 0,-0.9375 -0.972656,-1.6289 -2.132812,-1.6289 -1.195313,0 -2.085938,0.72656 -2.085938,1.59375 0,0.48047 0.375,0.57422 0.550781,0.57422 0.257813,0 0.539063,-0.17578 0.539063,-0.53907 0,-0.375 -0.28125,-0.53906 -0.550781,-0.53906 -0.07031,0 -0.09375,0 -0.128907,0.0117 0.457032,-0.82031 1.582032,-0.82031 1.640625,-0.82031 0.386719,0 1.171875,0.17578 1.171875,1.34765 0,0.23438 -0.03516,0.90235 -0.386718,1.41797 -0.351563,0.52735 -0.761719,0.5625 -1.089844,0.57422 z m 0,0"
         style="fill:#000000;fill-opacity:1;fill-rule:nonzero;stroke:none" />
      <path
         id="path13"
         d="m 173.65329,246.68335 v -0.28125 h -2.88281 c -1.45313,0 -1.47657,-0.15234 -1.52344,-0.38672 h -0.25781 l -0.375,2.39063 h 0.26953 c 0.0352,-0.21094 0.14062,-0.94922 0.29297,-1.07813 0.0937,-0.0703 0.99609,-0.0703 1.16015,-0.0703 h 2.53125 l -1.26562,1.81641 c -0.31641,0.45703 -1.52344,2.42578 -1.52344,4.66406 0,0.14062 0,0.60937 0.48047,0.60937 0.50391,0 0.50391,-0.45703 0.50391,-0.62109 v -0.59766 c 0,-1.78125 0.29296,-3.16406 0.85546,-3.96093 z m 5.43164,5.41406 h -0.26953 c -0.0352,0.19922 -0.12891,0.85547 -0.2461,1.04297 -0.082,0.11719 -0.76171,0.11719 -1.125,0.11719 h -2.21484 c 0.32813,-0.28125 1.05469,-1.04297 1.37109,-1.33594 1.81641,-1.66406 2.48438,-2.28515 2.48438,-3.46875 0,-1.38281 -1.08984,-2.29687 -2.47266,-2.29687 -1.39453,0 -2.20312,1.18359 -2.20312,2.20312 0,0.60938 0.52734,0.60938 0.5625,0.60938 0.24609,0 0.5625,-0.17578 0.5625,-0.5625 0,-0.32813 -0.23438,-0.55078 -0.5625,-0.55078 -0.10547,0 -0.12891,0 -0.16406,0.0117 0.22265,-0.82032 0.86718,-1.3711 1.64062,-1.3711 1.01953,0 1.64063,0.85547 1.64063,1.95703 0,1.00782 -0.58594,1.89844 -1.26563,2.66016 l -2.41406,2.70703 v 0.28125 h 4.35937 z m 0,0"
         style="fill:#000000;fill-opacity:1;fill-rule:nonzero;stroke:none" />
      <path
         id="path14"
         d="m 243.21872,318.63941 v -0.28125 h -2.88281 c -1.45313,0 -1.47657,-0.15235 -1.52344,-0.38672 h -0.25781 l -0.375,2.39062 h 0.26953 c 0.0352,-0.21093 0.14062,-0.94922 0.29297,-1.07812 0.0937,-0.0703 0.99609,-0.0703 1.16015,-0.0703 h 2.53125 l -1.26562,1.8164 c -0.31641,0.45703 -1.52344,2.42578 -1.52344,4.66406 0,0.14063 0,0.60938 0.48047,0.60938 0.50391,0 0.50391,-0.45703 0.50391,-0.62109 v -0.59766 c 0,-1.78125 0.29296,-3.16406 0.85546,-3.96094 z m 5.43164,5.41406 h -0.26953 c -0.0352,0.19922 -0.12891,0.85547 -0.2461,1.04297 -0.082,0.11719 -0.76171,0.11719 -1.125,0.11719 h -2.21484 c 0.32813,-0.28125 1.05469,-1.04297 1.37109,-1.33594 1.81641,-1.66406 2.48438,-2.28516 2.48438,-3.46875 0,-1.38281 -1.08984,-2.29688 -2.47266,-2.29688 -1.39453,0 -2.20312,1.1836 -2.20312,2.20313 0,0.60937 0.52734,0.60937 0.5625,0.60937 0.24609,0 0.5625,-0.17578 0.5625,-0.5625 0,-0.32812 -0.23438,-0.55078 -0.5625,-0.55078 -0.10547,0 -0.12891,0 -0.16406,0.0117 0.22265,-0.82031 0.86718,-1.37109 1.64062,-1.37109 1.01953,0 1.64063,0.85547 1.64063,1.95703 0,1.00781 -0.58594,1.89844 -1.26563,2.66015 l -2.41406,2.70704 v 0.28125 h 4.35937 z m 0,0"
         style="fill:#000000;fill-opacity:1;fill-rule:nonzero;stroke:none" />
      <path
         id="path15"
         d="m 277.50778,332.83667 c 0,-0.26953 0,-0.28125 -0.24609,-0.28125 -0.28125,0.31641 -0.87891,0.76172 -2.10938,0.76172 v 0.35156 c 0.26953,0 0.86719,0 1.52344,-0.3164 v 6.22265 c 0,0.4336 -0.0352,0.57422 -1.07812,0.57422 h -0.375 v 0.35156 c 0.3164,-0.0234 1.47656,-0.0234 1.875,-0.0234 0.39843,0 1.54687,0 1.86328,0.0234 v -0.35156 h -0.36328 c -1.05469,0 -1.08985,-0.14062 -1.08985,-0.57422 z m 6.7207,-0.11719 c 0,-0.22265 0,-0.29296 -0.16406,-0.29296 -0.0937,0 -0.1289,0 -0.22265,0.15234 l -3.59766,5.57812 v 0.35157 h 3.14062 v 1.07812 c 0,0.44531 -0.0234,0.5625 -0.90234,0.5625 h -0.23437 v 0.35156 c 0.26953,-0.0234 1.21875,-0.0234 1.55859,-0.0234 0.32812,0 1.28906,0 1.55859,0.0234 v -0.35156 h -0.23437 c -0.86719,0 -0.90235,-0.11719 -0.90235,-0.5625 v -1.07812 h 1.20704 v -0.35157 h -1.20704 z m -0.78515,0.9375 v 4.5 h -2.90625 z m 0,0"
         style="fill:#000000;fill-opacity:1;fill-rule:nonzero;stroke:none" />
      <path
         id="path16"
         d="m 12.502898,422.74292 c 0,-3.02344 1.476563,-3.5039 2.121094,-3.5039 0.433594,0 0.855469,0.1289 1.089844,0.49218 -0.140625,0 -0.597656,0 -0.597656,0.49219 0,0.25781 0.175781,0.49219 0.492187,0.49219 0.292969,0 0.492188,-0.1875 0.492188,-0.52735 0,-0.62109 -0.445313,-1.23046 -1.488282,-1.23046 -1.511718,0 -3.082031,1.53515 -3.082031,4.17187 0,3.28125 1.429688,4.01953 2.449219,4.01953 1.300781,0 2.414062,-1.125 2.414062,-2.68359 0,-1.59375 -1.113281,-2.66016 -2.308593,-2.66016 -1.066407,0 -1.453125,0.92578 -1.582032,1.26563 z m 1.476563,4.08985 c -0.75,0 -1.113281,-0.66797 -1.21875,-0.92579 -0.105469,-0.30468 -0.222656,-0.89062 -0.222656,-1.73437 0,-0.9375 0.421875,-2.12109 1.5,-2.12109 0.65625,0 1.007812,0.44531 1.183593,0.84375 0.1875,0.44531 0.1875,1.04296 0.1875,1.55859 0,0.60937 0,1.14844 -0.222656,1.60547 -0.304687,0.57422 -0.726562,0.77344 -1.207031,0.77344 z m 8.595703,-7.34766 v -0.28125 h -2.882812 c -1.453125,0 -1.476563,-0.15234 -1.523438,-0.38672 h -0.257812 l -0.375,2.39063 h 0.269531 c 0.03516,-0.21094 0.140625,-0.94922 0.292969,-1.07813 0.09375,-0.0703 0.996093,-0.0703 1.160156,-0.0703 h 2.53125 l -1.265625,1.8164 c -0.316406,0.45704 -1.523438,2.42579 -1.523438,4.66407 0,0.14062 0,0.60937 0.480469,0.60937 0.503906,0 0.503906,-0.45703 0.503906,-0.62109 v -0.59766 c 0,-1.78125 0.292969,-3.16406 0.855469,-3.96094 z m 0,0"
         style="fill:#000000;fill-opacity:1;fill-rule:nonzero;stroke:none" />
      <path
         id="path17"
         d="m -70.720734,439.34546 h -0.269532 c -0.03516,0.19922 -0.128906,0.85547 -0.246093,1.04297 -0.08203,0.11719 -0.761719,0.11719 -1.125,0.11719 h -2.214844 c 0.328125,-0.28125 1.054687,-1.04297 1.371094,-1.33594 1.816406,-1.66406 2.484375,-2.28516 2.484375,-3.46875 0,-1.38281 -1.089844,-2.29688 -2.472657,-2.29688 -1.394531,0 -2.203125,1.1836 -2.203125,2.20313 0,0.60937 0.527344,0.60937 0.5625,0.60937 0.246094,0 0.5625,-0.17578 0.5625,-0.5625 0,-0.32812 -0.234375,-0.55078 -0.5625,-0.55078 -0.105468,0 -0.128906,0 -0.164062,0.0117 0.222656,-0.82031 0.867187,-1.37109 1.640625,-1.37109 1.019531,0 1.640625,0.85547 1.640625,1.95703 0,1.00781 -0.585938,1.89844 -1.265625,2.66016 l -2.414063,2.70703 v 0.28125 h 4.359375 z m 5.947265,-1.81641 c 0,-0.99609 -0.05859,-1.96875 -0.492187,-2.87109 -0.492188,-0.99609 -1.347656,-1.25391 -1.933594,-1.25391 -0.691406,0 -1.546875,0.33985 -1.980469,1.33594 -0.339843,0.75 -0.457031,1.48828 -0.457031,2.78906 0,1.16016 0.08203,2.02735 0.515625,2.8711 0.457031,0.91406 1.289063,1.19531 1.910156,1.19531 1.042969,0 1.640625,-0.62109 1.980469,-1.3125 0.433594,-0.89062 0.457031,-2.0625 0.457031,-2.75391 z m -2.4375,3.83204 c -0.386718,0 -1.160156,-0.21094 -1.382812,-1.52344 -0.140625,-0.71485 -0.140625,-1.61719 -0.140625,-2.46094 0,-0.97266 0,-1.86328 0.199219,-2.56641 0.199218,-0.79687 0.808593,-1.17187 1.324218,-1.17187 0.457032,0 1.148438,0.28125 1.371094,1.30078 0.152344,0.67969 0.152344,1.62891 0.152344,2.4375 0,0.80859 0,1.71094 -0.128906,2.4375 -0.222657,1.32422 -0.972657,1.54688 -1.394532,1.54688 z m 0,0"
         style="fill:#000000;fill-opacity:1;fill-rule:nonzero;stroke:none" />
      <path
         id="path18"
         d="m 11.345672,483.09155 c -0.410156,0.70313 -0.820313,0.9375 -1.3945314,0.97266 -0.1289062,0.0117 -0.2226562,0.0117 -0.2226562,0.23438 0,0.0703 0.058594,0.11718 0.140625,0.11718 0.2109376,0 0.7499996,-0.0234 0.9726566,-0.0234 0.339843,0 0.726562,0.0234 1.054687,0.0234 0.07031,0 0.222656,0 0.222656,-0.22265 0,-0.11719 -0.09375,-0.12891 -0.175781,-0.12891 -0.269531,-0.0234 -0.492187,-0.11719 -0.492187,-0.39844 0,-0.17578 0.07031,-0.30468 0.222656,-0.5625 l 0.902344,-1.51172 h 3.058593 c 0.01172,0.10547 0.01172,0.21094 0.02344,0.31641 0.03516,0.30469 0.175781,1.54688 0.175781,1.78125 0,0.35156 -0.609375,0.375 -0.796875,0.375 -0.140625,0 -0.269531,0 -0.269531,0.22266 0,0.1289 0.105469,0.1289 0.175781,0.1289 0.210938,0 0.445313,-0.0234 0.65625,-0.0234 h 0.679688 c 0.726562,0 1.253906,0.0234 1.265625,0.0234 0.08203,0 0.210937,0 0.210937,-0.22265 0,-0.12891 -0.105469,-0.12891 -0.28125,-0.12891 -0.65625,0 -0.667969,-0.10547 -0.714844,-0.45703 l -0.726562,-7.46484 c -0.02344,-0.23438 -0.07031,-0.25782 -0.199219,-0.25782 -0.117187,0 -0.1875,0.0234 -0.304687,0.19922 z m 1.441406,-1.83984 2.402344,-4.01953 0.410156,4.01953 z m 9.676758,-4.18359 c 0.117187,-0.44532 0.164062,-0.46875 0.621094,-0.46875 h 1.558593 c 1.347657,0 1.347657,1.14843 1.347657,1.2539 0,0.97266 -0.960938,2.20313 -2.542969,2.20313 h -1.722656 z m 2.027344,3.08203 c 1.300781,-0.2461 2.484375,-1.14844 2.484375,-2.25 0,-0.92578 -0.832032,-1.65235 -2.179688,-1.65235 h -3.832031 c -0.234375,0 -0.339844,0 -0.339844,0.23438 0,0.11719 0.105469,0.11719 0.292969,0.11719 0.726562,0 0.726562,0.0937 0.726562,0.22265 0,0.0234 0,0.0937 -0.04687,0.28125 l -1.617187,6.4336 c -0.105469,0.41015 -0.128906,0.52734 -0.960938,0.52734 -0.234375,0 -0.351562,0 -0.351562,0.22266 0,0.1289 0.07031,0.1289 0.304687,0.1289 h 4.101563 c 1.828125,0 3.246094,-1.38281 3.246094,-2.58984 0,-0.98438 -0.867188,-1.58203 -1.828125,-1.67578 z m -1.699219,3.91406 h -1.617188 c -0.164062,0 -0.1875,0 -0.257812,-0.0117 -0.128906,-0.0117 -0.152344,-0.0351 -0.152344,-0.1289 0,-0.082 0.03516,-0.15235 0.05859,-0.25782 l 0.832031,-3.375 h 2.25 c 1.40625,0 1.40625,1.3125 1.40625,1.40625 0,1.14844 -1.042969,2.36719 -2.519531,2.36719 z m 13.722656,-7.95703 c 0,-0.10547 -0.08203,-0.10547 -0.105469,-0.10547 -0.02344,0 -0.07031,0 -0.175781,0.11719 l -0.820312,1.00781 c -0.421875,-0.71484 -1.078125,-1.125 -1.96875,-1.125 -2.589844,0 -5.261719,2.61328 -5.261719,5.42578 0,1.99219 1.394531,3.23438 3.140625,3.23438 0.960937,0 1.792969,-0.39844 2.484375,-0.98438 1.042969,-0.8789 1.359375,-2.03906 1.359375,-2.13281 0,-0.10547 -0.09375,-0.10547 -0.140625,-0.10547 -0.105469,0 -0.117188,0.0703 -0.140625,0.11719 -0.550781,1.86328 -2.15625,2.76562 -3.351563,2.76562 -1.277343,0 -2.367187,-0.82031 -2.367187,-2.50781 0,-0.38672 0.117187,-2.46094 1.464844,-4.03125 0.65625,-0.76172 1.78125,-1.44141 2.917968,-1.44141 1.3125,0 1.898438,1.08985 1.898438,2.3086 0,0.3164 -0.03516,0.57422 -0.03516,0.62109 0,0.11719 0.117187,0.11719 0.152343,0.11719 0.140625,0 0.152344,-0.0117 0.199219,-0.23438 z m 0,0"
         style="fill:#000000;fill-opacity:1;fill-rule:nonzero;stroke:none" />
      <path
         id="path19"
         d="m 226.93845,476.10718 c 0,-0.10547 -0.082,-0.10547 -0.10547,-0.10547 -0.0234,0 -0.0703,0 -0.17578,0.11719 l -0.82032,1.00781 c -0.42187,-0.71484 -1.07812,-1.125 -1.96875,-1.125 -2.58984,0 -5.26172,2.61328 -5.26172,5.42578 0,1.99219 1.39454,3.23438 3.14063,3.23438 0.96094,0 1.79297,-0.39844 2.48437,-0.98438 1.04297,-0.8789 1.35938,-2.03906 1.35938,-2.13281 0,-0.10547 -0.0937,-0.10547 -0.14063,-0.10547 -0.10546,0 -0.11718,0.0703 -0.14062,0.11719 -0.55078,1.86328 -2.15625,2.76562 -3.35156,2.76562 -1.27735,0 -2.36719,-0.82031 -2.36719,-2.50781 0,-0.38672 0.11719,-2.46094 1.46484,-4.03125 0.65625,-0.76172 1.78125,-1.44141 2.91797,-1.44141 1.3125,0 1.89844,1.08985 1.89844,2.3086 0,0.3164 -0.0352,0.57422 -0.0352,0.62109 0,0.11719 0.11719,0.11719 0.15235,0.11719 0.14062,0 0.15234,-0.0117 0.19922,-0.23438 z m 0,0"
         style="fill:#000000;fill-opacity:1;fill-rule:nonzero;stroke:none" />
      <path
         id="path20"
         d="m -18.396516,497.53784 c -0.410156,0.70313 -0.820312,0.9375 -1.394531,0.97266 -0.128906,0.0117 -0.222656,0.0117 -0.222656,0.23438 0,0.0703 0.05859,0.11718 0.140625,0.11718 0.210937,0 0.75,-0.0234 0.972656,-0.0234 0.339844,0 0.726563,0.0234 1.054688,0.0234 0.07031,0 0.222656,0 0.222656,-0.22265 0,-0.11719 -0.09375,-0.12891 -0.175781,-0.12891 -0.269532,-0.0234 -0.492188,-0.11719 -0.492188,-0.39844 0,-0.17578 0.07031,-0.30468 0.222656,-0.5625 l 0.902344,-1.51172 h 3.058594 c 0.01172,0.10547 0.01172,0.21094 0.02344,0.31641 0.03516,0.30469 0.175782,1.54688 0.175782,1.78125 0,0.35156 -0.609375,0.375 -0.796875,0.375 -0.140625,0 -0.269532,0 -0.269532,0.22266 0,0.1289 0.105469,0.1289 0.175782,0.1289 0.210937,0 0.445312,-0.0234 0.65625,-0.0234 h 0.679687 c 0.726563,0 1.253906,0.0234 1.265625,0.0234 0.08203,0 0.210938,0 0.210938,-0.22265 0,-0.12891 -0.105469,-0.12891 -0.28125,-0.12891 -0.65625,0 -0.667969,-0.10547 -0.714844,-0.45703 l -0.726563,-7.46484 c -0.02344,-0.23438 -0.07031,-0.25782 -0.199218,-0.25782 -0.117188,0 -0.1875,0.0234 -0.304688,0.19922 z m 1.441407,-1.83984 2.402343,-4.01953 0.410157,4.01953 z m 0,0"
         style="fill:#000000;fill-opacity:1;fill-rule:nonzero;stroke:none" />
      <path
         id="path21"
         d="m 3.7753594,491.51441 c 0.1171875,-0.44532 0.1640625,-0.46875 0.6210937,-0.46875 h 1.5585938 c 1.3476562,0 1.3476562,1.14843 1.3476562,1.2539 0,0.97266 -0.9609375,2.20313 -2.5429687,2.20313 H 3.0370781 Z m 2.0273437,3.08203 c 1.3007813,-0.2461 2.484375,-1.14844 2.484375,-2.25 0,-0.92578 -0.8320312,-1.65235 -2.1796875,-1.65235 H 2.2753594 c -0.234375,0 -0.3398438,0 -0.3398438,0.23438 0,0.11719 0.1054688,0.11719 0.2929688,0.11719 0.7265625,0 0.7265625,0.0937 0.7265625,0.22265 0,0.0234 0,0.0937 -0.046875,0.28125 l -1.6171875,6.4336 c -0.1054688,0.41015 -0.1289063,0.52734 -0.96093752,0.52734 -0.234375,0 -0.3515625,0 -0.3515625,0.22266 0,0.1289 0.0703125,0.1289 0.3046875,0.1289 H 4.3847344 c 1.828125,0 3.2460937,-1.38281 3.2460937,-2.58984 0,-0.98438 -0.8671875,-1.58203 -1.828125,-1.67578 z M 4.1034844,498.5105 H 2.4862969 c -0.1640625,0 -0.1875,0 -0.2578125,-0.0117 -0.1289063,-0.0117 -0.1523438,-0.0351 -0.1523438,-0.1289 0,-0.082 0.035156,-0.15235 0.058594,-0.25782 l 0.8320312,-3.375 h 2.25 c 1.40625,0 1.40625,1.3125 1.40625,1.40625 0,1.14844 -1.0429687,2.36719 -2.5195312,2.36719 z m 0,0"
         style="fill:#000000;fill-opacity:1;fill-rule:nonzero;stroke:none" />
      <path
         id="path22"
         d="m 143.15231,497.98316 c -0.10547,0.41015 -0.1289,0.52734 -0.96093,0.52734 -0.23438,0 -0.35157,0 -0.35157,0.22266 0,0.1289 0.0703,0.1289 0.30469,0.1289 h 3.79688 c 2.41406,0 4.76953,-2.49609 4.76953,-5.16797 0,-1.72265 -1.03125,-3 -2.74219,-3 h -3.83203 c -0.23438,0 -0.33985,0 -0.33985,0.23438 0,0.11719 0.10547,0.11719 0.29297,0.11719 0.72657,0 0.72657,0.0937 0.72657,0.22265 0,0.0234 0,0.0937 -0.0469,0.28125 z m 2.51953,-6.46875 c 0.11719,-0.44532 0.16407,-0.46875 0.6211,-0.46875 h 1.32422 c 1.11328,0 2.14453,0.60937 2.14453,2.26172 0,0.59765 -0.23438,2.67187 -1.39453,3.98437 -0.33985,0.39844 -1.24219,1.21875 -2.625,1.21875 h -1.35938 c -0.16406,0 -0.1875,0 -0.25781,-0.0117 -0.12891,-0.0117 -0.14063,-0.0351 -0.14063,-0.1289 0,-0.082 0.0234,-0.15235 0.0469,-0.25782 z m 0,0"
         style="fill:#000000;fill-opacity:1;fill-rule:nonzero;stroke:none" />
      <path
         id="path23"
         d="m 259.32907,497.53784 c -0.41016,0.70313 -0.82031,0.9375 -1.39453,0.97266 -0.12891,0.0117 -0.22266,0.0117 -0.22266,0.23438 0,0.0703 0.0586,0.11718 0.14063,0.11718 0.21094,0 0.75,-0.0234 0.97265,-0.0234 0.33985,0 0.72657,0.0234 1.05469,0.0234 0.0703,0 0.22266,0 0.22266,-0.22265 0,-0.11719 -0.0937,-0.12891 -0.17578,-0.12891 -0.26953,-0.0234 -0.49219,-0.11719 -0.49219,-0.39844 0,-0.17578 0.0703,-0.30468 0.22266,-0.5625 l 0.90234,-1.51172 h 3.05859 c 0.0117,0.10547 0.0117,0.21094 0.0234,0.31641 0.0352,0.30469 0.17578,1.54688 0.17578,1.78125 0,0.35156 -0.60937,0.375 -0.79687,0.375 -0.14063,0 -0.26953,0 -0.26953,0.22266 0,0.1289 0.10546,0.1289 0.17578,0.1289 0.21093,0 0.44531,-0.0234 0.65625,-0.0234 h 0.67968 c 0.72657,0 1.25391,0.0234 1.26563,0.0234 0.082,0 0.21094,0 0.21094,-0.22265 0,-0.12891 -0.10547,-0.12891 -0.28125,-0.12891 -0.65625,0 -0.66797,-0.10547 -0.71485,-0.45703 l -0.72656,-7.46484 c -0.0234,-0.23438 -0.0703,-0.25782 -0.19922,-0.25782 -0.11719,0 -0.1875,0.0234 -0.30469,0.19922 z m 1.44141,-1.83984 2.40234,-4.01953 0.41016,4.01953 z m 7.18066,2.28516 c -0.10547,0.41015 -0.12891,0.52734 -0.96094,0.52734 -0.23437,0 -0.35156,0 -0.35156,0.22266 0,0.1289 0.0703,0.1289 0.30469,0.1289 h 3.79687 c 2.41407,0 4.76953,-2.49609 4.76953,-5.16797 0,-1.72265 -1.03125,-3 -2.74218,-3 h -3.83203 c -0.23438,0 -0.33985,0 -0.33985,0.23438 0,0.11719 0.10547,0.11719 0.29297,0.11719 0.72656,0 0.72656,0.0937 0.72656,0.22265 0,0.0234 0,0.0937 -0.0469,0.28125 z m 2.51953,-6.46875 c 0.11719,-0.44532 0.16406,-0.46875 0.6211,-0.46875 h 1.32421 c 1.11329,0 2.14454,0.60937 2.14454,2.26172 0,0.59765 -0.23438,2.67187 -1.39454,3.98437 -0.33984,0.39844 -1.24218,1.21875 -2.625,1.21875 h -1.35937 c -0.16406,0 -0.1875,0 -0.25781,-0.0117 -0.12891,-0.0117 -0.14063,-0.0351 -0.14063,-0.1289 0,-0.082 0.0234,-0.15235 0.0469,-0.25782 z m 10.01953,0 c 0.11719,-0.44532 0.16407,-0.46875 0.6211,-0.46875 h 1.55859 c 1.34766,0 1.34766,1.14843 1.34766,1.2539 0,0.97266 -0.96094,2.20313 -2.54297,2.20313 h -1.72266 z m 2.02735,3.08203 c 1.30078,-0.2461 2.48437,-1.14844 2.48437,-2.25 0,-0.92578 -0.83203,-1.65235 -2.17969,-1.65235 h -3.83203 c -0.23437,0 -0.33984,0 -0.33984,0.23438 0,0.11719 0.10547,0.11719 0.29297,0.11719 0.72656,0 0.72656,0.0937 0.72656,0.22265 0,0.0234 0,0.0937 -0.0469,0.28125 l -1.61719,6.4336 c -0.10547,0.41015 -0.12891,0.52734 -0.96094,0.52734 -0.23437,0 -0.35156,0 -0.35156,0.22266 0,0.1289 0.0703,0.1289 0.30469,0.1289 h 4.10156 c 1.82812,0 3.24609,-1.38281 3.24609,-2.58984 0,-0.98438 -0.86719,-1.58203 -1.82812,-1.67578 z m -1.69922,3.91406 h -1.61719 c -0.16406,0 -0.1875,0 -0.25781,-0.0117 -0.12891,-0.0117 -0.15235,-0.0351 -0.15235,-0.1289 0,-0.082 0.0352,-0.15235 0.0586,-0.25782 l 0.83203,-3.375 h 2.25 c 1.40625,0 1.40625,1.3125 1.40625,1.40625 0,1.14844 -1.04297,2.36719 -2.51953,2.36719 z m 0,0"
         style="fill:#000000;fill-opacity:1;fill-rule:nonzero;stroke:none" />
    </g>
  </g>
</svg>
