<?xml version="1.0" encoding="UTF-8" standalone="no"?>
<!-- Created with Inkscape (http://www.inkscape.org/) -->

<svg
   version="1.1"
   id="svg1"
   width="793.62665"
   height="1122.6667"
   viewBox="0 0 793.62665 1122.6667"
   sodipodi:docname="F2_M_PR_M2017_page17.pdf"
   xmlns:inkscape="http://www.inkscape.org/namespaces/inkscape"
   xmlns:sodipodi="http://sodipodi.sourceforge.net/DTD/sodipodi-0.dtd"
   xmlns="http://www.w3.org/2000/svg"
   xmlns:svg="http://www.w3.org/2000/svg">
  <defs
     id="defs1" />
  <sodipodi:namedview
     id="namedview1"
     pagecolor="#ffffff"
     bordercolor="#000000"
     borderopacity="0.25"
     inkscape:showpageshadow="2"
     inkscape:pageopacity="0.0"
     inkscape:pagecheckerboard="0"
     inkscape:deskcolor="#d1d1d1">
    <inkscape:page
       x="0"
       y="0"
       inkscape:label="1"
       id="page1"
       width="793.62665"
       height="1122.6667"
       margin="0"
       bleed="0" />
  </sodipodi:namedview>
  <g
     id="g1"
     inkscape:groupmode="layer"
     inkscape:label="1">
    <path
       id="path1"
       d="m 5.5078359,-8.1329023 v 2.7539062 H 5.2851797 c -0.070312,-0.5302734 -0.1962891,-0.9521484 -0.375,-1.265625 -0.1816406,-0.3105468 -0.4394531,-0.5566406 -0.7734375,-0.7382812 -0.3369141,-0.1875 -0.6855469,-0.28125 -1.0429688,-0.28125 -0.4072265,0 -0.7441406,0.1259766 -1.0078125,0.375 -0.2666015,0.2431641 -0.3984375,0.5244141 -0.3984375,0.84375 0,0.2431641 0.082031,0.4658203 0.2460938,0.6679687 0.2402344,0.2900391 0.8203125,0.6796875 1.734375,1.171875 0.7412109,0.3984375 1.2451172,0.703125 1.5117187,0.9140625 0.272461,0.2109375 0.4833985,0.4628907 0.6328125,0.75 0.1464844,0.2900391 0.2226563,0.5947266 0.2226563,0.9140625 0,0.6035157 -0.234375,1.12207035 -0.703125,1.55859379 -0.46875,0.43945312 -1.0722656,0.65625 -1.8046875,0.65625 -0.2285156,0 -0.4423828,-0.0205078 -0.6445313,-0.0585938 -0.1259765,-0.0175781 -0.3808593,-0.08789063 -0.7617187,-0.2109375 -0.375,-0.12304688 -0.6152344,-0.1875 -0.7148438,-0.1875 -0.102539,0 -0.1816406,0.0322266 -0.234375,0.09375 -0.055664,0.0556641 -0.099609,0.1757812975 -0.1289062,0.3632813 H 0.83205469 V -2.5430586 H 1.0429922 c 0.099609,0.5712891 0.2373047,0.9960938 0.4101562,1.2773438 0.1699219,0.28124999 0.4335938,0.51562499 0.7851563,0.70312499 0.3574219,0.1875 0.75,0.28125 1.171875,0.28125 0.4833984,0 0.8671875,-0.12890625 1.1484375,-0.38671875 0.2871094,-0.2578125 0.4335937,-0.56250004 0.4335937,-0.91406254 0,-0.1933593 -0.055664,-0.3896484 -0.1640625,-0.5859375 C 4.7168203,-2.370207 4.5498281,-2.557707 4.3242422,-2.7305586 4.1748281,-2.8477461 3.7617422,-3.0938398 3.0820547,-3.4688398 2.4023672,-3.8496992 1.9160391,-4.1543867 1.6289297,-4.3829023 1.3388906,-4.6084882 1.1191641,-4.8575117 0.97267969,-5.1329023 0.82326563,-5.4053632 0.75002344,-5.7100507 0.75002344,-6.0469648 c 0,-0.5683594 0.21679687,-1.0576172 0.65624996,-1.4648438 0.4365235,-0.4130859 0.9960938,-0.6210937 1.6757813,-0.6210937 0.421875,0 0.8671875,0.1025391 1.3359375,0.3046875 0.2167969,0.1025391 0.375,0.1523437 0.46875,0.1523437 0.099609,0 0.1816406,-0.029297 0.2460937,-0.09375 0.061523,-0.061523 0.1113282,-0.1816406 0.1523438,-0.3632812 z m 3.1054688,0.9960937 v 1.7695313 h 1.2539062 v 0.4101562 H 8.6133047 v 3.4804688 c 0,0.3457031 0.049805,0.58007811 0.1523437,0.70312499 0.099609,0.1171875 0.2285157,0.17578125 0.3867188,0.17578125 0.1230469,0 0.2460937,-0.0380859 0.3632812,-0.1171875 0.1230469,-0.0761719 0.2226563,-0.19335938 0.2929688,-0.35156254 H 10.031273 C 9.8965078,-0.682707 9.7060781,-0.39266794 9.4570547,-0.19930856 9.2051016,-0.0030195 8.9472891,0.09366019 8.6836172,0.09366019 c -0.1816406,0 -0.3574219,-0.05273438 -0.5273438,-0.15234375 C 7.9834219,-0.15829294 7.8545156,-0.30477731 7.7695547,-0.49227731 7.6904531,-0.67977731 7.6523672,-0.963957 7.6523672,-1.3477461 v -3.609375 H 6.7968984 v -0.1992187 c 0.2167969,-0.084961 0.4365235,-0.2285156 0.65625,-0.4335938 0.225586,-0.2021484 0.4277344,-0.4482421 0.609375,-0.7382812 0.084961,-0.1464844 0.2109375,-0.4160156 0.375,-0.8085938 z m 3.3515623,1.6054688 v 1.2070312 c 0.451172,-0.8027343 0.914063,-1.2070312 1.382813,-1.2070312 0.216797,0 0.398437,0.067383 0.539062,0.1992187 0.140625,0.1347657 0.210938,0.2871094 0.210938,0.4570313 0,0.1494141 -0.05274,0.2783203 -0.152344,0.3867187 -0.102539,0.1025391 -0.222656,0.1523438 -0.363281,0.1523438 -0.140625,0 -0.298828,-0.064453 -0.46875,-0.1992188 -0.164063,-0.1318359 -0.290039,-0.1992187 -0.375,-0.1992187 -0.07031,0 -0.146485,0.041016 -0.222657,0.1171875 -0.18164,0.1582031 -0.363281,0.4189453 -0.550781,0.7851562 v 2.578125 c 0,0.29882816 0.03809,0.52148441 0.117188,0.66796879 0.04687,0.11132812 0.131836,0.19921875 0.257812,0.26953125 0.131836,0.0703125 0.319336,0.10546875 0.5625,0.10546875 V -8.98125e-5 H 10.16018 V -0.21102731 c 0.272461,0 0.474609,-0.0410156 0.609375,-0.12890625 0.09375,-0.0615234 0.158203,-0.1640625 0.199218,-0.3046875 0.02344,-0.0615234 0.03516,-0.24902344 0.03516,-0.56250004 v -2.0859375 c 0,-0.6240234 -0.01758,-0.9960937 -0.04687,-1.1132812 -0.02344,-0.1171875 -0.07031,-0.2021484 -0.140625,-0.2578125 -0.06445,-0.052734 -0.146485,-0.082031 -0.246094,-0.082031 -0.125977,0 -0.263672,0.029297 -0.410156,0.082031 l -0.05859,-0.2109375 1.617187,-0.65625 z m 5.053711,0 c 0.811524,0 1.464844,0.3105469 1.957031,0.9257812 0.421875,0.5332032 0.632813,1.1367188 0.632813,1.8164063 0,0.4863281 -0.117188,0.9726562 -0.351563,1.4648437 -0.228515,0.49218754 -0.544921,0.86425785 -0.949218,1.11328129 -0.407227,0.24902344 -0.855469,0.375 -1.347657,0.375 -0.814453,0 -1.458984,-0.32226563 -1.933593,-0.97265625 -0.398438,-0.53906254 -0.597657,-1.14843754 -0.597657,-1.82812504 0,-0.4921875 0.120118,-0.9785156 0.363282,-1.4648437 0.240234,-0.4833984 0.5625,-0.84375 0.960937,-1.078125 0.398438,-0.234375 0.820313,-0.3515625 1.265625,-0.3515625 z m -0.175781,0.3867187 c -0.210938,0 -0.421875,0.064453 -0.632813,0.1875 -0.205078,0.1171875 -0.37207,0.3339844 -0.503906,0.6445313 -0.125976,0.3046875 -0.1875,0.7001953 -0.1875,1.1835937 0,0.7822266 0.152344,1.4589844 0.457031,2.0273438 0.310547,0.56249999 0.720704,0.84374999 1.230469,0.84374999 0.38086,0 0.694336,-0.15527344 0.9375,-0.46875 0.249024,-0.31054689 0.375,-0.84667969 0.375,-1.60546879 0,-0.9521484 -0.208008,-1.7021484 -0.621094,-2.25 -0.27539,-0.375 -0.626953,-0.5625 -1.054687,-0.5625 z m 5.126953,0.75 c 0.624023,-0.7558593 1.22168,-1.1367187 1.792969,-1.1367187 0.295898,0 0.550781,0.076172 0.761719,0.2226562 0.210937,0.1494141 0.377929,0.3925782 0.503906,0.7265625 0.08496,0.234375 0.128906,0.5947266 0.128906,1.078125 v 2.2851563 c 0,0.34570311 0.02637,0.57421874 0.08203,0.69140624 0.03809,0.10253906 0.105469,0.18164062 0.199219,0.234375 0.09961,0.0556641 0.28125,0.0820313 0.539063,0.0820313 V -8.98125e-5 H 23.317406 V -0.21102731 h 0.117188 c 0.249023,0 0.421875,-0.0380859 0.515625,-0.1171875 0.09961,-0.0761719 0.169922,-0.19042969 0.210937,-0.33984375 0.01465,-0.0527344 0.02344,-0.23730469 0.02344,-0.55078124 v -2.1914063 c 0,-0.4921875 -0.06445,-0.8466796 -0.1875,-1.0664062 -0.125977,-0.2167969 -0.339844,-0.328125 -0.644531,-0.328125 -0.462891,0 -0.922852,0.2548828 -1.382813,0.7617187 v 2.8242188 c 0,0.36914061 0.01758,0.59472655 0.05859,0.67968749 0.05273,0.11132812 0.128906,0.19335937 0.222656,0.24609375 0.09961,0.0556641 0.295898,0.0820313 0.585938,0.0820313 V -8.98125e-5 H 20.1885 V -0.21102731 h 0.117188 c 0.27246,0 0.457031,-0.0703125 0.550781,-0.2109375 0.09375,-0.140625 0.140625,-0.40429688 0.140625,-0.79687499 v -1.9921875 c 0,-0.6386719 -0.01758,-1.03125 -0.04687,-1.171875 -0.02344,-0.140625 -0.06738,-0.234375 -0.128906,-0.28125 -0.06445,-0.052734 -0.146485,-0.082031 -0.246094,-0.082031 -0.111328,0 -0.240235,0.029297 -0.386719,0.082031 l -0.09375,-0.2109375 1.617188,-0.65625 h 0.257812 z m 7.482422,3.62109379 c -0.556641,0.421875 -0.902344,0.66796875 -1.042969,0.73828125 -0.210937,0.09960937 -0.433594,0.15234375 -0.667969,0.15234375 -0.375,0 -0.685546,-0.12890625 -0.925781,-0.38671875 -0.234375,-0.2578125 -0.351562,-0.59179688 -0.351562,-1.00781254 0,-0.2578125 0.05859,-0.4833984 0.175781,-0.6796875 0.155273,-0.2636718 0.433594,-0.515625 0.832031,-0.75 0.398438,-0.234375 1.057617,-0.5185546 1.980469,-0.8554687 v -0.2109375 c 0,-0.5302734 -0.08789,-0.8935547 -0.257813,-1.0898438 -0.172851,-0.2021484 -0.418945,-0.3046875 -0.738281,-0.3046875 -0.251953,0 -0.445312,0.067383 -0.585937,0.1992188 -0.149414,0.1347656 -0.222657,0.2871094 -0.222657,0.4570312 l 0.01172,0.3398438 c 0,0.1816406 -0.04687,0.3222656 -0.140625,0.421875 -0.09375,0.09375 -0.216797,0.140625 -0.363281,0.140625 -0.140625,0 -0.257813,-0.049805 -0.351563,-0.1523438 -0.09375,-0.099609 -0.140625,-0.2402343 -0.140625,-0.421875 0,-0.3339843 0.169922,-0.6445312 0.515625,-0.9257812 0.342774,-0.28125 0.826172,-0.421875 1.453125,-0.421875 0.47461,0 0.867188,0.082031 1.171875,0.2460937 0.225586,0.1171875 0.392579,0.3046875 0.503907,0.5625 0.07031,0.1728516 0.105468,0.515625 0.105468,1.03125 v 1.828125 c 0,0.5097657 0.0059,0.8203125 0.02344,0.93750004 0.02344,0.1171875 0.05859,0.19628906 0.105469,0.234375 0.04687,0.0410156 0.09668,0.0585938 0.152343,0.0585938 0.06152,0 0.117188,-0.0146484 0.164063,-0.046875 0.08496,-0.046875 0.246094,-0.1875 0.480469,-0.42187504 v 0.32812504 c -0.439453,0.5859375 -0.855469,0.87890625 -1.253907,0.87890625 -0.196289,0 -0.351562,-0.06738281 -0.46875,-0.19921875 -0.111328,-0.13183594 -0.164062,-0.35742188 -0.164062,-0.6796875 z m 0,-0.38671879 v -2.0390625 c -0.594727,0.234375 -0.978516,0.3984375 -1.148438,0.4921875 -0.304687,0.1728516 -0.524414,0.3515625 -0.65625,0.5390625 -0.134765,0.1875 -0.199218,0.3955079 -0.199218,0.6210938 0,0.28125 0.08203,0.515625 0.246093,0.70312499 0.169922,0.18164062 0.366211,0.26953125 0.585938,0.26953125 0.295898,0 0.685547,-0.19335938 1.171875,-0.58593754 z M 35.751,-7.1719648 37.684594,-8.1211836 h 0.199219 v 6.7148438 c 0,0.44531249 0.01465,0.7236328 0.04687,0.83203124 0.03808,0.11132812 0.117187,0.19628906 0.234375,0.2578125 0.117187,0.0556641 0.354492,0.0878906 0.714843,0.09375 V -8.98125e-5 H 35.891625 V -0.22274606 c 0.375,-0.005859 0.615234,-0.0380859 0.726563,-0.09375 0.108398,-0.0527344 0.18164,-0.12890625 0.222656,-0.22265625 0.04687,-0.0996094 0.07031,-0.38964844 0.07031,-0.86718749 v -4.2890625 c 0,-0.5771484 -0.02051,-0.9492188 -0.05859,-1.1132813 -0.02344,-0.1230468 -0.07617,-0.2138671 -0.152344,-0.2695312 -0.07031,-0.061523 -0.158203,-0.09375 -0.257813,-0.09375 -0.140625,0 -0.339843,0.058594 -0.597656,0.1757812 z m 6.908203,3.1640625 c -0.632812,-0.515625 -1.040039,-0.9287109 -1.21875,-1.2421875 -0.18164,-0.3105469 -0.269531,-0.6357422 -0.269531,-0.9726563 0,-0.515625 0.199219,-0.9609375 0.597656,-1.3359375 0.398438,-0.375 0.925781,-0.5625 1.582031,-0.5625 0.638672,0 1.154297,0.1757813 1.546875,0.5273438 0.389649,0.3457031 0.585938,0.7382812 0.585938,1.1835937 0,0.3046875 -0.105469,0.6152344 -0.316406,0.9257813 -0.210938,0.3046875 -0.650391,0.6650391 -1.3125,1.078125 0.685547,0.5332031 1.139648,0.9492187 1.359375,1.2539062 0.295898,0.3984375 0.445312,0.8203125 0.445312,1.265625 0,0.5566407 -0.216797,1.03125004 -0.644531,1.42968754 -0.421875,0.3984375 -0.978516,0.59765625 -1.664063,0.59765625 -0.758789,0 -1.347656,-0.23730469 -1.769531,-0.71484375 -0.336914,-0.375 -0.503906,-0.78808594 -0.503906,-1.24218754 0,-0.3515625 0.117187,-0.6972656 0.351562,-1.0429687 0.240235,-0.3427734 0.650391,-0.7265625 1.230469,-1.1484375 z m 0.914063,-0.6210938 c 0.46875,-0.421875 0.764648,-0.7529296 0.890625,-0.9960937 0.123047,-0.2490234 0.1875,-0.5302734 0.1875,-0.84375 0,-0.4042969 -0.117188,-0.7265625 -0.351563,-0.9609375 -0.228515,-0.234375 -0.539062,-0.3515625 -0.9375,-0.3515625 -0.398437,0 -0.723633,0.1171875 -0.972656,0.3515625 -0.251953,0.2285156 -0.375,0.4980469 -0.375,0.8085937 0,0.2050782 0.0498,0.4072266 0.152344,0.609375 0.108398,0.2050782 0.257812,0.3984375 0.445312,0.5859375 z m -0.644532,0.84375 c -0.322265,0.2753907 -0.55957,0.5742188 -0.714843,0.9023438 -0.158203,0.3222656 -0.234375,0.6679687 -0.234375,1.0429687 0,0.5009766 0.134765,0.90234379 0.410156,1.20703129 0.272461,0.3046875 0.624023,0.45703125 1.054687,0.45703125 0.421875,0 0.75586,-0.1171875 1.007813,-0.3515625 0.257812,-0.24023438 0.386719,-0.53320314 0.386719,-0.87890624 0,-0.28125 -0.07617,-0.5302734 -0.222657,-0.75 -0.28125,-0.4130859 -0.84375,-0.9550781 -1.6875,-1.6289063 z m 11.449219,2.1328125 -0.05859,1.6523437875 H 49.584984 V -0.21102731 l 3.5625,-4.74609379 h -1.757812 c -0.383789,0 -0.632813,0.023437 -0.75,0.070312 -0.117188,0.046875 -0.210938,0.140625 -0.28125,0.28125 -0.111328,0.1962891 -0.172852,0.4394532 -0.1875,0.7265625 h -0.234375 l 0.03516,-1.4882812 h 4.5 v 0.2109375 l -3.597656,4.75781249 h 1.957031 c 0.413086,0 0.691406,-0.0292969 0.832031,-0.09375 0.146485,-0.0703125 0.269532,-0.19042969 0.363282,-0.36328125 0.06152,-0.12304688 0.111328,-0.38964844 0.152343,-0.79687504 z m 4.681641,-5.5195312 1.933594,-0.9492188 h 0.199218 v 6.7148438 c 0,0.44531249 0.01465,0.7236328 0.04687,0.83203124 0.03809,0.11132812 0.117188,0.19628906 0.234375,0.2578125 0.117188,0.0556641 0.354492,0.0878906 0.714844,0.09375 V -8.98125e-5 H 59.200219 V -0.22274606 c 0.375,-0.005859 0.615234,-0.0380859 0.726562,-0.09375 0.108399,-0.0527344 0.181641,-0.12890625 0.222657,-0.22265625 0.04687,-0.0996094 0.07031,-0.38964844 0.07031,-0.86718749 v -4.2890625 c 0,-0.5771484 -0.02051,-0.9492188 -0.05859,-1.1132813 -0.02344,-0.1230468 -0.07617,-0.2138671 -0.152343,-0.2695312 -0.07031,-0.061523 -0.158204,-0.09375 -0.257813,-0.09375 -0.140625,0 -0.339844,0.058594 -0.597656,0.1757812 z m 6.908203,3.1640625 c -0.632813,-0.515625 -1.040039,-0.9287109 -1.21875,-1.2421875 -0.181641,-0.3105469 -0.269531,-0.6357422 -0.269531,-0.9726563 0,-0.515625 0.199218,-0.9609375 0.597656,-1.3359375 0.398437,-0.375 0.925781,-0.5625 1.582031,-0.5625 0.638672,0 1.154297,0.1757813 1.546875,0.5273438 0.389649,0.3457031 0.585938,0.7382812 0.585938,1.1835937 0,0.3046875 -0.105469,0.6152344 -0.316407,0.9257813 -0.210937,0.3046875 -0.65039,0.6650391 -1.3125,1.078125 0.685547,0.5332031 1.139649,0.9492187 1.359375,1.2539062 0.295899,0.3984375 0.445313,0.8203125 0.445313,1.265625 0,0.5566407 -0.216797,1.03125004 -0.644531,1.42968754 -0.421875,0.3984375 -0.978516,0.59765625 -1.664063,0.59765625 -0.758789,0 -1.347656,-0.23730469 -1.769531,-0.71484375 -0.336914,-0.375 -0.503906,-0.78808594 -0.503906,-1.24218754 0,-0.3515625 0.117187,-0.6972656 0.351562,-1.0429687 0.240235,-0.3427734 0.650391,-0.7265625 1.230469,-1.1484375 z m 0.914062,-0.6210938 c 0.46875,-0.421875 0.764649,-0.7529296 0.890625,-0.9960937 0.123047,-0.2490234 0.1875,-0.5302734 0.1875,-0.84375 0,-0.4042969 -0.117187,-0.7265625 -0.351562,-0.9609375 -0.228516,-0.234375 -0.539063,-0.3515625 -0.9375,-0.3515625 -0.398438,0 -0.723633,0.1171875 -0.972656,0.3515625 -0.251953,0.2285156 -0.375,0.4980469 -0.375,0.8085937 0,0.2050782 0.0498,0.4072266 0.152343,0.609375 0.108399,0.2050782 0.257813,0.3984375 0.445313,0.5859375 z m -0.644531,0.84375 c -0.322265,0.2753907 -0.55957,0.5742188 -0.714844,0.9023438 -0.158203,0.3222656 -0.234375,0.6679687 -0.234375,1.0429687 0,0.5009766 0.134766,0.90234379 0.410157,1.20703129 0.272461,0.3046875 0.624023,0.45703125 1.054687,0.45703125 0.421875,0 0.75586,-0.1171875 1.007813,-0.3515625 0.257812,-0.24023438 0.386718,-0.53320314 0.386718,-0.87890624 0,-0.28125 -0.07617,-0.5302734 -0.222656,-0.75 -0.28125,-0.4130859 -0.84375,-0.9550781 -1.6875,-1.6289063 z m 0,0"
       style="fill:#000000;fill-opacity:1;fill-rule:nonzero;stroke:none"
       aria-label=" Strona 18 z 18 "
       transform="matrix(1.3333333,0,0,1.3333333,331.5195,1070.879)" />
    <path
       id="path2"
       d="m 4.2880078,-2.0280984 1.6171875,-3.9375 h 2.4257813 v 0.1640625 h -0.1875 c -0.1816407,0 -0.3222657,0.032227 -0.421875,0.09375 -0.079102,0.041016 -0.1376953,0.1113281 -0.1757813,0.2109375 -0.041016,0.070312 -0.058594,0.2548828 -0.058594,0.5507812 v 3.9257813 c 0,0.30468746 0.014648,0.49804684 0.046875,0.57421871 0.038086,0.0703125 0.1054687,0.13769532 0.1992187,0.19921875 0.099609,0.0556641 0.2373047,0.0820313 0.4101563,0.0820313 h 0.1875 V -7.546875e-4 H 5.2255078 V -0.16481719 h 0.1875 c 0.178711,0 0.319336,-0.0292969 0.421875,-0.09375 0.070312,-0.0380859 0.1289063,-0.10839843 0.1757813,-0.2109375 0.029297,-0.0703125 0.046875,-0.25195312 0.046875,-0.55078121 V -5.4382547 L 3.7723828,-7.546875e-4 H 3.6669141 L 1.3466016,-5.4030984 v 4.2070312 c 0,0.29003908 0.00586,0.46875001 0.023437,0.53906251 0.038086,0.140625 0.1201172,0.2578125 0.2460937,0.3515625 0.131836,0.09375 0.3310547,0.140625 0.5976563,0.140625 V -7.546875e-4 H 0.17472656 V -0.16481719 h 0.0703125 c 0.13183594,0 0.25195313,-0.0175781 0.36328125,-0.0585938 0.1171875,-0.046875 0.20214844,-0.10839843 0.2578125,-0.1875 0.0615234,-0.0761719 0.10839844,-0.18164062 0.14062499,-0.31640625 0.00586,-0.0292969 0.011719,-0.18164062 0.011719,-0.45703116 v -3.7617189 c 0,-0.3046875 -0.0205079,-0.4921875 -0.0585938,-0.5625 C 0.9276564,-5.5847392 0.8602736,-5.652122 0.76066425,-5.707786 0.66691425,-5.769309 0.538008,-5.801536 0.3739455,-5.801536 H 0.17472656 V -5.9655984 H 2.6122266 Z m 8.4990232,0 1.617188,-3.9375 H 16.83 v 0.1640625 h -0.1875 c -0.181641,0 -0.322266,0.032227 -0.421875,0.09375 -0.0791,0.041016 -0.137695,0.1113281 -0.175781,0.2109375 -0.04102,0.070312 -0.05859,0.2548828 -0.05859,0.5507812 v 3.9257813 c 0,0.30468746 0.01465,0.49804684 0.04687,0.57421871 0.03809,0.0703125 0.105469,0.13769532 0.199219,0.19921875 0.09961,0.0556641 0.237304,0.0820313 0.410156,0.0820313 H 16.83 V -7.546875e-4 H 13.724531 V -0.16481719 h 0.1875 c 0.178711,0 0.319336,-0.0292969 0.421875,-0.09375 0.07031,-0.0380859 0.128907,-0.10839843 0.175782,-0.2109375 0.0293,-0.0703125 0.04687,-0.25195312 0.04687,-0.55078121 V -5.4382547 L 12.271406,-7.546875e-4 H 12.165938 L 9.845625,-5.4030984 v 4.2070312 c 0,0.29003908 0.00586,0.46875001 0.023437,0.53906251 0.038086,0.140625 0.1201172,0.2578125 0.246094,0.3515625 0.131836,0.09375 0.331054,0.140625 0.597657,0.140625 V -7.546875e-4 H 8.67375 V -0.16481719 h 0.070312 c 0.1318359,0 0.2519531,-0.0175781 0.3632813,-0.0585938 0.1171875,-0.046875 0.2021484,-0.10839843 0.2578125,-0.1875 0.061523,-0.0761719 0.1083984,-0.18164062 0.140625,-0.31640625 0.00586,-0.0292969 0.011719,-0.18164062 0.011719,-0.45703116 v -3.7617189 c 0,-0.3046875 -0.020508,-0.4921875 -0.058594,-0.5625 C 9.4266788,-5.5847392 9.3592968,-5.652122 9.259687,-5.707786 9.165937,-5.769309 9.0370308,-5.801536 8.8729683,-5.801536 H 8.67375 v -0.1640625 h 2.4375 z m 7.959961,0.328125 h -2.109375 l -0.246094,0.5859375 c -0.08789,0.18749996 -0.128906,0.34863278 -0.128906,0.48046871 0,0.1640625 0.06445,0.28710938 0.199219,0.36328125 0.07617,0.046875 0.272461,0.0820313 0.585937,0.10546875 V -7.546875e-4 H 17.067305 V -0.16481719 c 0.210937,-0.0292969 0.386718,-0.1171875 0.527343,-0.2578125 0.140625,-0.14648437 0.310547,-0.44824218 0.515625,-0.90234371 l 2.121094,-4.7578125 h 0.09375 l 2.144531,4.8867187 c 0.202149,0.46289064 0.369141,0.75585939 0.503907,0.87890626 0.09961,0.0878906 0.240234,0.13769532 0.421875,0.15234375 V -7.546875e-4 H 20.512617 V -0.16481719 h 0.117188 c 0.234375,0 0.398437,-0.0292969 0.492187,-0.09375 0.06152,-0.046875 0.09375,-0.11132812 0.09375,-0.19921875 0,-0.0527344 -0.0088,-0.10839843 -0.02344,-0.1640625 -0.0088,-0.0292969 -0.05274,-0.140625 -0.128907,-0.328125 z m -0.152344,-0.328125 -0.890625,-2.0507813 -0.914062,2.0507813 z m 2.81836,3.3984375 h 4.664062 v 0.5742187 h -4.664062 z m 7.514648,-7.453125 v 4.875 c 0,0.36914059 0.01465,0.60351559 0.04687,0.70312496 0.0293,0.10253907 0.09668,0.18457032 0.199219,0.24609375 0.108398,0.0644531 0.275391,0.09375 0.503906,0.09375 h 0.128907 v 0.1640625025 h -3.14062 V -0.16481719 H 28.83 c 0.257813,0 0.436523,-0.0263672 0.539063,-0.0820313 0.108398,-0.0615234 0.18164,-0.14355468 0.222656,-0.24609375 0.03809,-0.0996094 0.05859,-0.33984375 0.05859,-0.71484366 v -3.09375 c 0,-0.272461 -0.01758,-0.4453125 -0.04687,-0.515625 -0.02344,-0.070312 -0.07031,-0.1289063 -0.140625,-0.1757813 -0.07031,-0.046875 -0.152344,-0.070312 -0.246094,-0.070312 -0.149414,0 -0.333985,0.046875 -0.550781,0.140625 l -0.07031,-0.1640625 2.191406,-0.9960937 z m 3.960938,3.3632812 v 1.6757813 c 0,0.32226559 0.01758,0.52441403 0.05859,0.60937496 0.03809,0.0791016 0.108398,0.14648438 0.210937,0.19921875 0.09961,0.046875 0.287109,0.0703125 0.5625,0.0703125 v 0.1640625025 h -3.05859 V -0.16481719 c 0.28125,0 0.46875,-0.0234375 0.5625,-0.0703125 0.09961,-0.0527344 0.169922,-0.12011718 0.210938,-0.19921875 0.03809,-0.0849609 0.05859,-0.28710937 0.05859,-0.60937496 v -3.8671875 c 0,-0.328125 -0.02051,-0.5302735 -0.05859,-0.609375 -0.04102,-0.084961 -0.111328,-0.1523438 -0.210938,-0.1992188 -0.102539,-0.052734 -0.290039,-0.082031 -0.5625,-0.082031 v -0.1640625 h 2.777344 c 0.717773,0 1.242188,0.052734 1.570313,0.1523437 0.333984,0.1025391 0.609375,0.2900391 0.820312,0.5625 0.210938,0.2666016 0.316406,0.5800781 0.316406,0.9375 0,0.4394531 -0.158203,0.8027344 -0.46875,1.0898438 -0.205078,0.1816406 -0.489258,0.3164062 -0.855468,0.4101562 l 1.441406,2.01562501 c 0.1875,0.2578125 0.319336,0.41894532 0.398437,0.48046875 0.117188,0.09375 0.251953,0.14648438 0.410157,0.15234375 v 0.1640625025 h -1.875 L 35.275313,-2.7195047 Z m 0,-2.9179687 v 2.6132812 h 0.246094 c 0.413085,0 0.717773,-0.038086 0.914062,-0.1171875 0.202148,-0.076172 0.363281,-0.2109375 0.480469,-0.3984375 0.117187,-0.1933594 0.175781,-0.4511719 0.175781,-0.7734375 0,-0.4511719 -0.105469,-0.7851562 -0.316406,-0.9960937 -0.210938,-0.2167969 -0.556641,-0.328125 -1.03125,-0.328125 z m 0,0"
       style="fill:#000000;fill-opacity:1;fill-rule:nonzero;stroke:none"
       aria-label="MMA_1R "
       transform="matrix(1.3333333,0,0,1.3333333,682.56,1076.5596)" />
    <g
       id="g2"
       aria-label="BRUDNOPIS (nie podlega ocenie) &#10; "
       transform="matrix(1.3333333,0,0,1.3333333,223.6,114.3996)">
      <path
         id="path3"
         d="m 7.1261719,-5.6258719 c 1.0078125,0.234375 1.7138672,0.5214844 2.1210937,0.8554688 0.5859375,0.477539 0.8789064,1.0898437 0.8789064,1.8398437 0,0.796875 -0.3222657,1.4589844 -0.9609376,1.98046878 -0.7910156,0.6328125 -1.9335938,0.949218745 -3.4335938,0.949218745 H 0.34101563 V -0.29384062 c 0.48339843,0 0.81152347,-0.0410156 0.98437497,-0.12890625 0.178711,-0.09375 0.3046875,-0.2109375 0.375,-0.3515625 0.070312,-0.14648438 0.1054688,-0.50976563 0.1054688,-1.08984373 v -6.8789063 c 0,-0.5771484 -0.035156,-0.9404297 -0.1054688,-1.0898437 -0.070312,-0.1464844 -0.196289,-0.2636719 -0.375,-0.3515629 -0.1728515,-0.08496 -0.50097654,-0.128906 -0.98437497,-0.128906 v -0.292969 H 5.4269531 c 1.209961,0 2.0683594,0.111329 2.578125,0.328125 0.506836,0.210938 0.9052735,0.5332035 1.1953125,0.9609379 0.2871094,0.430664 0.4335938,0.890625 0.4335938,1.3828125 0,0.5097656 -0.1845703,0.9609375 -0.5507813,1.359375 -0.3691406,0.3984375 -1.0195312,0.7148437 -1.9570312,0.9492187 z M 4.2785156,-5.8368094 c 0.741211,0 1.2890625,-0.082031 1.640625,-0.2460937 0.3515625,-0.1699219 0.6210938,-0.4042969 0.8085938,-0.703125 0.1875,-0.3046875 0.28125,-0.6914063 0.28125,-1.1601563 0,-0.46875 -0.09375,-0.8496093 -0.28125,-1.1484375 C 6.5460938,-9.3993094 6.2853516,-9.627825 5.9425781,-9.7860281 5.596875,-9.9413016 5.0431641,-10.014544 4.2785156,-10.008684 Z m 0,0.609375 v 3.3984375 l -0.011719,0.3984375 c 0,0.28125 0.070312,0.4980469 0.2109375,0.64453128 0.1464844,0.140625 0.3632812,0.2109375 0.6445312,0.2109375 0.421875,0 0.8085938,-0.09375 1.1601563,-0.28125 0.3515625,-0.18749998 0.6210937,-0.45703128 0.8085937,-0.80859378 0.1875,-0.3515625 0.28125,-0.7412109 0.28125,-1.171875 0,-0.4980468 -0.1171875,-0.9433593 -0.3515625,-1.3359375 C 6.7921875,-4.5623953 6.4757813,-4.8348562 6.0714844,-4.9930594 5.6730469,-5.1571219 5.0753906,-5.2332937 4.2785156,-5.2274344 Z M 14.925,-4.8407156 v 2.9765625 c 0,0.5800781 0.03516,0.94335935 0.105469,1.08984373 0.07031,0.14941406 0.193359,0.26660156 0.375,0.3515625 0.178711,0.0878906 0.509765,0.12890625 0.996094,0.12890625 v 0.292968745 h -5.4375 V -0.29384062 c 0.492187,0 0.823242,-0.0410156 0.996093,-0.12890625 0.178711,-0.09375 0.304688,-0.2109375 0.375,-0.3515625 0.07031,-0.14648438 0.105469,-0.50976563 0.105469,-1.08984373 v -6.8789063 c 0,-0.5771484 -0.03516,-0.9404297 -0.105469,-1.0898437 -0.07031,-0.1464844 -0.196289,-0.2636719 -0.375,-0.3515629 -0.18164,-0.08496 -0.512695,-0.128906 -0.996093,-0.128906 v -0.292969 h 4.933593 c 1.280274,0 2.217774,0.09082 2.8125,0.269532 0.591797,0.172851 1.078125,0.4980465 1.453125,0.9726559 0.375,0.477539 0.5625,1.040039 0.5625,1.6875 0,0.7822265 -0.28125,1.4267578 -0.84375,1.9335937 -0.360351,0.3222657 -0.864258,0.5625 -1.511718,0.7265625 L 20.925,-1.4188406 c 0.333984,0.4628906 0.574219,0.74999998 0.714844,0.86718748 0.210937,0.15820312 0.457031,0.24316406 0.738281,0.2578125 V -8.71875e-4 H 19.038281 L 15.628125,-4.8407156 Z m 0,-5.1914064 v 4.6406251 h 0.445313 c 0.726562,0 1.268554,-0.064453 1.628906,-0.1992187 0.357422,-0.131836 0.638672,-0.3691406 0.84375,-0.7148438 0.210937,-0.3515625 0.316406,-0.8027343 0.316406,-1.359375 0,-0.8115234 -0.193359,-1.4091797 -0.574219,-1.7929687 -0.375,-0.3808594 -0.981445,-0.5742189 -1.816406,-0.5742189 z m 7.675781,-0.574219 h 5.472657 v 0.292969 h -0.269532 c -0.416015,0 -0.700195,0.04394 -0.855468,0.128906 -0.149415,0.08789 -0.257813,0.2050785 -0.328125,0.3515629 -0.06445,0.149414 -0.09375,0.5273437 -0.09375,1.1367187 v 5.1914063 c 0,0.946289 0.07031,1.5761719 0.210937,1.8867187 0.146484,0.3046875 0.386719,0.5595703 0.714844,0.76171878 0.328125,0.20507812 0.741211,0.3046875 1.242187,0.3046875 0.56836,0 1.057617,-0.12890625 1.464844,-0.38671875 0.404297,-0.25781253 0.706055,-0.61230473 0.902344,-1.06640623 0.202148,-0.4511719 0.304687,-1.2421875 0.304687,-2.3671875 v -4.3242188 c 0,-0.4746093 -0.05273,-0.8144531 -0.152343,-1.0195312 -0.09375,-0.2021485 -0.216797,-0.3427734 -0.363282,-0.4218754 -0.234375,-0.117187 -0.568359,-0.175781 -0.996093,-0.175781 v -0.292969 h 3.667968 v 0.292969 H 33.3 c -0.298828,0 -0.547852,0.05859 -0.75,0.175781 -0.196289,0.117188 -0.336914,0.2988285 -0.421875,0.5390629 -0.07031,0.1640625 -0.105469,0.4658203 -0.105469,0.9023437 v 4.03125 c 0,1.2421875 -0.08203,2.1416016 -0.246093,2.6953125 -0.164063,0.5566407 -0.56836,1.06347659 -1.207032,1.52343753 -0.632812,0.45996093 -1.49707,0.69140625 -2.589843,0.69140625 -0.922852,0 -1.634766,-0.12304688 -2.132813,-0.36328125 -0.679687,-0.33398438 -1.160156,-0.76171875 -1.441406,-1.27734373 -0.28125,-0.5214844 -0.421875,-1.2246094 -0.421875,-2.109375 v -5.1914063 c 0,-0.609375 -0.03516,-0.9873047 -0.105469,-1.1367187 -0.07031,-0.1464844 -0.193359,-0.2636719 -0.363281,-0.3515629 -0.164063,-0.09375 -0.46875,-0.134765 -0.914063,-0.128906 z M 33.991406,-8.71875e-4 V -0.29384062 h 0.351563 c 0.304687,0 0.539062,-0.046875 0.703125,-0.140625 0.164062,-0.09375 0.287109,-0.22558594 0.375,-0.3984375 0.04687,-0.10839844 0.07031,-0.43652348 0.07031,-0.98437498 v -6.9726563 c 0,-0.5449218 -0.03223,-0.8847656 -0.09375,-1.0195312 -0.05566,-0.131836 -0.172851,-0.2490234 -0.351562,-0.3515624 -0.172852,-0.09961 -0.407227,-0.152344 -0.703125,-0.152344 h -0.351563 v -0.292969 H 38.7375 c 1.265625,0 2.285156,0.172852 3.058594,0.515625 0.943359,0.4218754 1.658203,1.0634769 2.144531,1.9218754 0.492188,0.852539 0.738281,1.8164062 0.738281,2.8945312 0,0.75 -0.123047,1.4384766 -0.363281,2.0625 -0.243164,0.6269532 -0.556641,1.1455078 -0.9375,1.5585938 -0.375,0.4072265 -0.814453,0.73535154 -1.3125,0.98437498 -0.500977,0.25195312 -1.110352,0.44238281 -1.828125,0.57421875 -0.313477,0.06445312 -0.814453,0.093749995 -1.5,0.093749995 z M 38.034375,-10.008684 v 8.2734371 c 0,0.4453125 0.01758,0.7207032 0.05859,0.82031253 0.04687,0.09375 0.117187,0.16992187 0.210937,0.22265625 0.140625,0.0791016 0.345703,0.1171875 0.621094,0.1171875 0.867188,0 1.529297,-0.29589844 1.992188,-0.89062498 0.624023,-0.8027344 0.9375,-2.053711 0.9375,-3.75 0,-1.359375 -0.216797,-2.4433594 -0.644532,-3.2578125 -0.336914,-0.6328125 -0.770508,-1.0664063 -1.300781,-1.3007813 -0.375,-0.1552734 -1.001953,-0.2343746 -1.875,-0.2343746 z m 11.282227,-0.597657 5.238281,6.5742191 v -4.5585937 c 0,-0.6328125 -0.09082,-1.0605469 -0.269531,-1.2890625 -0.251954,-0.3046879 -0.673829,-0.4482419 -1.265625,-0.4335939 v -0.292969 h 3.503906 v 0.292969 c -0.445313,0.05566 -0.74707,0.128906 -0.902344,0.222656 -0.158203,0.08789 -0.27832,0.2343754 -0.363281,0.4453129 -0.08789,0.2050781 -0.128906,0.5566406 -0.128906,1.0546875 V 0.24522188 H 54.871289 L 47.699414,-8.5907156 v 6.7382812 c 0,0.6181641 0.134766,1.03125003 0.410156,1.24218753 0.28125,0.2109375 0.600586,0.31640625 0.960938,0.31640625 h 0.246094 V -8.71875e-4 H 45.554883 V -0.29384062 c 0.585937,0 0.990234,-0.1171875 1.21875,-0.3515625 0.234375,-0.234375 0.351562,-0.63574218 0.351562,-1.20703128 v -7.4765625 l -0.234375,-0.28125 c -0.219726,-0.28125 -0.416015,-0.4628901 -0.585937,-0.5507811 -0.172852,-0.09375 -0.421875,-0.143555 -0.75,-0.152344 v -0.292969 z m 13.757812,-0.152343 c 1.6875,-0.06152 3.058594,0.433593 4.113281,1.4882809 1.060547,1.0488281 1.59375,2.3554687 1.59375,3.9257812 0,1.3447266 -0.395507,2.5283203 -1.183593,3.5507813 -1.048829,1.35937498 -2.519532,2.03906248 -4.417969,2.03906248 -1.916016,0 -3.392578,-0.64746094 -4.429688,-1.94531248 -0.829101,-1.022461 -1.242187,-2.2324219 -1.242187,-3.6328125 0,-1.5761719 0.533203,-2.8886719 1.605469,-3.9375 1.078125,-1.0546879 2.396484,-1.5498049 3.960937,-1.4882809 z m 0.09375,0.503906 c -0.969726,0 -1.708008,0.4980468 -2.214844,1.4882811 -0.416015,0.8144532 -0.621093,1.9804688 -0.621093,3.5039063 0,1.8046875 0.319336,3.140625 0.960937,4.0078125 0.445313,0.60937498 1.066406,0.91406248 1.863281,0.91406248 0.530274,0 0.975586,-0.13183594 1.335938,-0.3984375 0.459961,-0.32812498 0.820312,-0.85839848 1.078125,-1.59374998 0.257812,-0.7324219 0.386719,-1.6904297 0.386719,-2.8710938 0,-1.3974609 -0.134766,-2.4433593 -0.398438,-3.140625 -0.257812,-0.703125 -0.591797,-1.1953125 -0.996094,-1.4765625 -0.407226,-0.2871096 -0.873047,-0.4335936 -1.394531,-0.4335936 z m 10.494141,5.4492186 v 2.9414063 c 0,0.5800781 0.03516,0.94335935 0.105468,1.08984373 0.07031,0.14941406 0.19336,0.26660156 0.375,0.3515625 0.178711,0.0878906 0.509766,0.12890625 0.996094,0.12890625 V -8.71875e-4 H 69.748242 V -0.29384062 c 0.483399,0 0.811524,-0.0410156 0.984375,-0.12890625 0.178711,-0.09375 0.304688,-0.2109375 0.375,-0.3515625 0.07031,-0.14648438 0.105469,-0.50976563 0.105469,-1.08984373 v -6.8789063 c 0,-0.5771484 -0.03516,-0.9404297 -0.105469,-1.0898437 -0.07031,-0.1464844 -0.196289,-0.2636719 -0.375,-0.3515629 -0.172851,-0.08496 -0.500976,-0.128906 -0.984375,-0.128906 v -0.292969 h 4.617188 c 1.523437,0 2.616211,0.275391 3.28125,0.8203129 0.662109,0.5390625 0.996093,1.2158203 0.996093,2.0273437 0,0.6884766 -0.216796,1.2773438 -0.644531,1.7695313 -0.430664,0.4863281 -1.019531,0.8173828 -1.769531,0.9960937 -0.509766,0.1259766 -1.365234,0.1875 -2.566406,0.1875 z m 0,-5.1914062 v 4.5820312 c 0.169922,0.00879 0.298828,0.011719 0.386718,0.011719 0.638672,0 1.13086,-0.1875 1.476563,-0.5625 0.342773,-0.375 0.515625,-0.9609375 0.515625,-1.7578125 0,-0.788086 -0.172852,-1.3623047 -0.515625,-1.7226563 -0.345703,-0.3662109 -0.861328,-0.5507812 -1.546875,-0.5507812 z m 11.323242,9.70312498 V -8.71875e-4 H 79.430859 V -0.29384062 h 0.351563 c 0.310547,0 0.5625,-0.0527344 0.75,-0.1640625 0.131836,-0.0703125 0.237305,-0.19335938 0.316406,-0.375 0.05273,-0.12304688 0.08203,-0.45117188 0.08203,-0.98437498 v -6.9726563 c 0,-0.5449218 -0.03223,-0.8847656 -0.09375,-1.0195312 -0.05566,-0.131836 -0.172851,-0.2490234 -0.351562,-0.3515624 -0.172852,-0.09961 -0.407227,-0.152344 -0.703125,-0.152344 h -0.351563 v -0.292969 h 5.554688 v 0.292969 h -0.351563 c -0.313476,0 -0.5625,0.05566 -0.75,0.164063 -0.134765,0.07031 -0.240234,0.1962887 -0.316406,0.3749996 -0.06445,0.1259766 -0.09375,0.4541016 -0.09375,0.984375 v 6.9726563 c 0,0.5478515 0.0293,0.88769529 0.09375,1.01953123 0.06152,0.13476562 0.178711,0.25195312 0.351563,0.3515625 0.178711,0.10253906 0.416015,0.15234375 0.714843,0.15234375 z m 7.869141,-10.55859338 0.08203,3.5390621 h -0.316406 c -0.149415,-0.890625 -0.521485,-1.6054687 -1.113282,-2.1445312 -0.594726,-0.5390625 -1.236328,-0.8085939 -1.921875,-0.8085939 -0.533203,0 -0.955078,0.146485 -1.265625,0.4335939 -0.304687,0.28125 -0.457031,0.6064453 -0.457031,0.9726562 0,0.234375 0.05273,0.4453125 0.164063,0.6328125 0.146484,0.2431641 0.389648,0.4863282 0.726562,0.7265625 0.240234,0.1728516 0.808594,0.4775391 1.699219,0.9140625 1.233398,0.609375 2.068359,1.1835938 2.507812,1.7226563 0.427735,0.5478515 0.644532,1.1689453 0.644532,1.8632812 0,0.890625 -0.348633,1.6582032 -1.042969,2.29687503 -0.688477,0.6328125 -1.567383,0.94921875 -2.636719,0.94921875 -0.328125,0 -0.641602,-0.0351563 -0.9375,-0.10546875 -0.298828,-0.06445313 -0.673828,-0.1875 -1.125,-0.375 -0.251953,-0.0996094 -0.454102,-0.15234375 -0.609375,-0.15234375 -0.140625,0 -0.290039,0.0527344 -0.445312,0.15234375 -0.149415,0.10253906 -0.269532,0.26074218 -0.363282,0.48046875 H 86.16328 V -3.7625906 h 0.28125 c 0.234375,1.125 0.673828,1.9863281 1.324219,2.578125 0.65625,0.59472654 1.362305,0.89062498 2.121094,0.89062498 0.585937,0 1.048828,-0.15820313 1.394531,-0.48046875 0.351563,-0.31933593 0.527344,-0.69140623 0.527344,-1.11328123 0,-0.2490235 -0.06738,-0.4921875 -0.199219,-0.7265625 -0.134766,-0.234375 -0.336914,-0.4570313 -0.609375,-0.6679688 -0.275391,-0.2109375 -0.755859,-0.4833984 -1.441406,-0.8203125 -0.960938,-0.4746093 -1.658203,-0.8818359 -2.085938,-1.21875 -0.421875,-0.3339843 -0.74707,-0.7060547 -0.972656,-1.1132812 -0.228516,-0.413086 -0.339844,-0.8671875 -0.339844,-1.359375 0,-0.8496094 0.307617,-1.5732422 0.925782,-2.1679688 0.624023,-0.5917966 1.409179,-0.8906246 2.355468,-0.8906246 0.342774,0 0.679688,0.04395 1.007813,0.128906 0.240234,0.06445 0.539062,0.181641 0.890625,0.351562 0.351562,0.164063 0.597656,0.246094 0.738281,0.246094 0.131836,0 0.237305,-0.03809 0.316406,-0.117187 0.07617,-0.08496 0.152344,-0.28711 0.222657,-0.609375 z m 0,0"
         style="fill:#000000;fill-opacity:1;fill-rule:nonzero;stroke:none" />
      <path
         id="path4"
         d="m 105.24141,-10.852434 -0.14063,0.433593 c -0.74414,0.5332035 -1.35937,1.1484379 -1.85156,1.8515629 -0.75,1.086914 -1.36524,2.4082031 -1.83984,3.9609375 -0.46875,1.555664 -0.70313,3.0175781 -0.70313,4.38281248 0,0.87304687 0.20508,1.81640622 0.62109,2.82421872 l -0.14062,0.4453125 c -1.400392,-1.875 -2.097657,-3.7441406 -2.097657,-5.6132812 0,-1.069336 0.234375,-2.1328125 0.703125,-3.1875 0.553712,-1.2333985 1.371092,-2.3261719 2.449222,-3.28125 0.83496,-0.7265625 1.83398,-1.3300779 3,-1.8164059 z m 2.65429,3.5976559 -0.97265,3.3632812 c 0.65625,-0.984375 1.14258,-1.6552734 1.46484,-2.015625 0.47461,-0.5214843 0.88477,-0.8789062 1.23047,-1.0664062 0.34277,-0.1875 0.66797,-0.28125 0.97266,-0.28125 0.26367,0 0.49511,0.102539 0.6914,0.3046875 0.19336,0.2050781 0.29297,0.4658203 0.29297,0.7851562 0,0.2900391 -0.0644,0.6445313 -0.1875,1.0664063 l -1.00781,3.3398437 c -0.0791,0.2900391 -0.11719,0.4804688 -0.11719,0.5742188 0,0.046875 0.0176,0.09375 0.0586,0.140625 0.0381,0.041016 0.0762,0.0585937 0.11719,0.0585937 0.0527,0 0.1084,-0.0175781 0.16406,-0.0585937 0.17872,-0.1552735 0.36329,-0.3691406 0.55079,-0.6445313 0.0469,-0.076172 0.12304,-0.1875 0.23437,-0.328125 l 0.29297,0.1757813 c -0.76758,1.28906248 -1.57031,1.93359373 -2.41406,1.93359373 -0.32227,0 -0.57422,-0.08203125 -0.76172,-0.24609375 -0.18164,-0.16992188 -0.26953,-0.38085938 -0.26953,-0.6328125 0,-0.21679688 0.0615,-0.54199218 0.1875,-0.97265628 l 0.97265,-3.3398437 c 0.0703,-0.2167969 0.10547,-0.3808594 0.10547,-0.4921875 0,-0.052734 -0.0234,-0.099609 -0.0703,-0.140625 -0.0469,-0.046875 -0.10254,-0.070312 -0.16406,-0.070312 -0.19629,0 -0.4336,0.1347656 -0.71485,0.3984375 -0.72656,0.6972656 -1.42675,1.7226562 -2.09765,3.0820312 l -0.63282,2.320312525 h -2.0039 l 1.46484,-5.027343725 c 0.14063,-0.4921875 0.21094,-0.84375 0.21094,-1.0546875 0,-0.084961 -0.0205,-0.1552735 -0.0586,-0.2109375 -0.041,-0.061523 -0.11133,-0.1083985 -0.21094,-0.140625 -0.0937,-0.038086 -0.26953,-0.058594 -0.52735,-0.058594 l 0.082,-0.2929687 2.63671,-0.46875 z m 8.23243,-3.5976559 c 0.31933,0 0.58886,0.114257 0.80859,0.339843 0.22558,0.228516 0.33984,0.498047 0.33984,0.8085941 0,0.3222657 -0.11426,0.5947266 -0.33984,0.8203125 -0.21973,0.2197266 -0.48926,0.328125 -0.80859,0.328125 -0.31348,0 -0.58301,-0.1083984 -0.8086,-0.328125 -0.21973,-0.2255859 -0.32812,-0.4980468 -0.32812,-0.8203125 0,-0.3105471 0.10839,-0.5800781 0.32812,-0.8085941 0.2168,-0.225586 0.48633,-0.339843 0.8086,-0.339843 z m 0.48046,3.5976559 -1.59375,5.5664062 c -0.0937,0.3222657 -0.14062,0.5273438 -0.14062,0.6210938 0,0.064453 0.0234,0.11718748 0.0703,0.16406248 0.0469,0.046875 0.0967,0.0703125 0.15235,0.0703125 0.085,0 0.17578,-0.0380859 0.26953,-0.1171875 0.23437,-0.18749998 0.51562,-0.53320308 0.84375,-1.04296878 l 0.25781,0.1523438 c -0.78223,1.3769531 -1.61719,2.06249998 -2.50781,2.06249998 -0.33692,0 -0.60645,-0.09375 -0.8086,-0.28125 -0.20508,-0.19335938 -0.30468,-0.43652344 -0.30468,-0.7265625 0,-0.19335938 0.0469,-0.43945308 0.14062,-0.73828128 l 1.07813,-3.7382812 c 0.10839,-0.3574219 0.16406,-0.6328125 0.16406,-0.8203125 0,-0.1083985 -0.0527,-0.2050781 -0.15235,-0.2929688 -0.10254,-0.09375 -0.24023,-0.140625 -0.41015,-0.140625 -0.0791,0 -0.17285,0.00586 -0.28125,0.011719 l 0.10547,-0.3164063 2.64843,-0.4335937 z m 2.8125,4.3242187 c -0.0469,0.3369141 -0.0703,0.6152344 -0.0703,0.8320313 0,0.3925781 0.11133,0.703125 0.33985,0.9375 0.22558,0.23437498 0.52734,0.35156248 0.90234,0.35156248 0.36621,0 0.73242,-0.0849609 1.10156,-0.25781248 0.36621,-0.178711 0.79102,-0.4921875 1.27735,-0.9375 l 0.23437,0.2109375 c -0.59473,0.7265625 -1.17773,1.24804685 -1.74609,1.55859373 -0.57129,0.3046875 -1.20118,0.45703125 -1.88672,0.45703125 -0.87598,0 -1.48242,-0.20800782 -1.81641,-0.62109375 -0.32812,-0.421875 -0.49219,-0.90527343 -0.49219,-1.45312503 0,-0.8583984 0.24903,-1.7138672 0.75,-2.5664062 0.49805,-0.8583985 1.17481,-1.546875 2.02735,-2.0625 0.8584,-0.515625 1.72265,-0.7734375 2.58984,-0.7734375 0.43652,0 0.76465,0.1054687 0.98438,0.3164062 0.22558,0.2109375 0.33984,0.4746094 0.33984,0.7851563 0,0.383789 -0.11133,0.7558594 -0.32812,1.1132812 -0.29883,0.4921875 -0.67676,0.890625 -1.13672,1.1953125 -0.46289,0.2988282 -0.97852,0.5244141 -1.54688,0.6796875 -0.375,0.1025391 -0.88476,0.1816407 -1.52344,0.234375 z m 0.0703,-0.4101562 c 0.45117,-0.070312 0.80273,-0.1640625 1.05468,-0.28125 0.25782,-0.1171875 0.50684,-0.3046875 0.75,-0.5625 0.24024,-0.2578125 0.45118,-0.5800781 0.63282,-0.9726563 0.17871,-0.3984375 0.26953,-0.7675781 0.26953,-1.1132812 0,-0.140625 -0.044,-0.2519531 -0.12891,-0.3398438 -0.0791,-0.084961 -0.18164,-0.1289062 -0.30469,-0.1289062 -0.25195,0 -0.5332,0.1757812 -0.84375,0.5273437 -0.58007,0.6328125 -1.05468,1.5908203 -1.42968,2.8710938 z m 9.49804,-3.46875 2.58985,-0.4453125 h 0.46875 l -0.35157,1.2773437 c 0.54493,-0.4980468 0.99024,-0.8349609 1.33594,-1.0078125 0.35156,-0.1787109 0.69727,-0.2695312 1.04297,-0.2695312 0.49219,0 0.87012,0.1933594 1.13672,0.5742187 0.26367,0.375 0.39844,0.8378907 0.39844,1.3828125 0,1.5 -0.52149,2.8300782 -1.5586,3.984375 -0.91406,1.02539065 -1.91601,1.53515628 -3,1.53515628 -0.19629,0 -0.36035,-0.0205078 -0.49218,-0.0585938 -0.13477,-0.0410156 -0.3252,-0.12304688 -0.57422,-0.24609375 l -0.41016,1.40624997 c -0.14062,0.515625 -0.21094,0.9052734 -0.21094,1.171875 0,0.1640625 0.0527,0.2929687 0.16407,0.3867187 0.11718,0.099609 0.38671,0.1875 0.80859,0.2578125 l -0.0703,0.28125 h -4.20703 l 0.082,-0.28125 c 0.33691,-0.017578 0.61523,-0.1259765 0.83203,-0.328125 0.21972,-0.2050781 0.42773,-0.6416015 0.62109,-1.3125 l 1.91016,-6.5742187 c 0.14062,-0.4921875 0.21094,-0.8378906 0.21094,-1.0429688 0,-0.084961 -0.0234,-0.1582031 -0.0703,-0.2226562 -0.041,-0.061523 -0.10254,-0.1054688 -0.1875,-0.1289063 -0.0791,-0.023437 -0.2666,-0.035156 -0.5625,-0.035156 z m 1.21875,5.99999998 c 0.15528,0.2578125 0.2959,0.43066406 0.42188,0.515625 0.12304,0.0878906 0.26953,0.12890625 0.43359,0.12890625 0.16992,0 0.33399,-0.0410156 0.49219,-0.12890625 0.15527,-0.09375 0.35156,-0.27539063 0.58594,-0.55078125 0.23437,-0.28125003 0.45996,-0.63574223 0.67968,-1.06640623 0.2168,-0.4365235 0.38965,-0.928711 0.51563,-1.4765625 0.13184,-0.553711 0.19922,-1.0810547 0.19922,-1.5820313 0,-0.3984375 -0.0703,-0.6855468 -0.21094,-0.8671875 -0.14062,-0.1875 -0.31641,-0.28125 -0.52734,-0.28125 -0.18164,0 -0.35157,0.046875 -0.51563,0.140625 -0.23437,0.1347657 -0.50976,0.3867188 -0.82031,0.7617188 z m 11.08301,-6.44531248 c 0.41309,0 0.79981,0.099609 1.16016,0.2929687 0.36621,0.1875 0.63867,0.4541016 0.82031,0.796875 0.1875,0.3369141 0.28125,0.7089844 0.28125,1.1132813 0,0.852539 -0.24023,1.6992187 -0.71484,2.5429687 -0.46875,0.84375 -1.08985,1.51171878 -1.86329,2.00390628 -0.76757,0.48632812 -1.54101,0.7265625 -2.32031,0.7265625 -0.71191,0 -1.26269,-0.2109375 -1.65234,-0.6328125 -0.39258,-0.421875 -0.58594,-0.94042968 -0.58594,-1.55859378 0,-0.7177734 0.14356,-1.3945312 0.43359,-2.0273437 0.28711,-0.6386719 0.65625,-1.1953125 1.10157,-1.6640625 0.45117,-0.46875 0.96679,-0.8496094 1.54687,-1.1484375 0.57715,-0.2958985 1.17481,-0.4453125 1.79297,-0.4453125 z m -0.31641,0.421875 c -0.28125,0 -0.51269,0.079102 -0.6914,0.234375 -0.36914,0.328125 -0.78223,1.0986328 -1.24219,2.3085937 -0.4541,1.2041016 -0.67969,2.2939453 -0.67969,3.2695313 0,0.23437498 0.0703,0.43066404 0.21094,0.58593748 0.14649,0.15820312 0.32227,0.234375 0.52734,0.234375 0.20215,0 0.38086,-0.0615234 0.53907,-0.1875 0.22558,-0.1875 0.50683,-0.60351563 0.84375,-1.25390628 0.33398,-0.65625 0.60937,-1.3769531 0.82031,-2.1679687 0.21094,-0.796875 0.31641,-1.5234375 0.31641,-2.1796875 0,-0.2636719 -0.0674,-0.4716797 -0.19922,-0.6210938 -0.12598,-0.1464843 -0.27539,-0.2226562 -0.44532,-0.2226562 z m 11.8125,-4.0195309 -2.54296,8.7539059 c -0.16407,0.5478515 -0.2461,0.8789062 -0.2461,0.9960937 0,0.055664 0.0176,0.10546878 0.0586,0.15234378 0.0469,0.0410156 0.0937,0.0585938 0.14062,0.0585938 0.085,0 0.1875,-0.0410156 0.30469,-0.12890628 0.1875,-0.1464844 0.42187,-0.4248047 0.70312,-0.8320313 l 0.28125,0.140625 c -0.73535,1.28906258 -1.54394,1.93359383 -2.42578,1.93359383 -0.31347,0 -0.55664,-0.0820313 -0.72656,-0.24609375 -0.17285,-0.1640625 -0.25781,-0.375 -0.25781,-0.6328125 0,-0.24023438 0.0703,-0.59179688 0.21093,-1.05468758 l 0.23438,-0.796875 c -0.65625,1.1572266 -1.22461,1.92773445 -1.69922,2.30859383 -0.36914,0.28125 -0.72363,0.421875 -1.06641,0.421875 -0.39257,0 -0.72363,-0.16113282 -0.99609,-0.48046875 -0.2666,-0.31933594 -0.39844,-0.78515628 -0.39844,-1.39453128 0,-0.7734375 0.16993,-1.538086 0.51563,-2.296875 0.34277,-0.7558594 0.74121,-1.3857422 1.19531,-1.8867188 0.45117,-0.5068359 0.88184,-0.8701172 1.28906,-1.0898437 0.41309,-0.2167969 0.81446,-0.328125 1.20703,-0.328125 0.21094,0 0.39258,0.043945 0.55079,0.1289062 0.15527,0.087891 0.33398,0.2431641 0.53906,0.46875 l 0.58594,-1.9453125 c 0.14062,-0.4833984 0.21093,-0.8261718 0.21093,-1.03125 0,-0.1230468 -0.0469,-0.2285156 -0.14062,-0.3164062 -0.0937,-0.09375 -0.21973,-0.1406254 -0.375,-0.1406254 -0.0791,0 -0.17285,0.0088 -0.28125,0.02344 l 0.082,-0.304688 2.57812,-0.480468 z m -3.44531,4.9570309 c 0,-0.3105469 -0.0645,-0.5419922 -0.1875,-0.6914063 -0.12597,-0.1464843 -0.27539,-0.2226562 -0.44531,-0.2226562 -0.16406,0 -0.3457,0.087891 -0.53906,0.2578125 -0.36914,0.336914 -0.75586,1.0078125 -1.16016,2.015625 -0.39844,1.0078125 -0.59766,1.8574219 -0.59766,2.5429687 0,0.2519532 0.041,0.4394532 0.12891,0.5625 0.085,0.1171875 0.18164,0.1757813 0.29297,0.1757813 0.1875,0 0.36914,-0.082031 0.55078,-0.2460938 0.44531,-0.3984375 0.88184,-1.0810547 1.3125,-2.0507812 0.42774,-0.9667969 0.64453,-1.7490235 0.64453,-2.34375 z m 7.79297,-4.9570309 -2.58984,8.8124996 c -0.15821,0.5244141 -0.23438,0.8496094 -0.23438,0.9726563 0,0.0703125 0.0234,0.12890623 0.0703,0.17578123 0.0469,0.046875 0.0937,0.0703125 0.14063,0.0703125 0.0937,0 0.18164,-0.0351563 0.26953,-0.10546875 0.24902,-0.20214848 0.52734,-0.55078128 0.83203,-1.04296878 l 0.30469,0.140625 c -0.49219,0.796875 -0.97852,1.3652344 -1.45313,1.69921878 -0.32812,0.234375 -0.67968,0.3515625 -1.05468,0.3515625 -0.34571,0 -0.61817,-0.09375 -0.82032,-0.28125 -0.20507,-0.1875 -0.30468,-0.41015625 -0.30468,-0.66796875 0,-0.19335938 0.0615,-0.50683593 0.1875,-0.93750003 l 2.10937,-7.2070312 c 0.11719,-0.3984375 0.17578,-0.6591797 0.17578,-0.7851563 0,-0.1230468 -0.0557,-0.2255859 -0.16406,-0.3046875 -0.14941,-0.09961 -0.37207,-0.1435546 -0.66797,-0.1289066 l 0.0937,-0.292968 2.625,-0.46875 z m 1.81641,7.9218746 c -0.0469,0.3369141 -0.0703,0.6152344 -0.0703,0.8320313 0,0.3925781 0.11133,0.703125 0.33985,0.9375 0.22558,0.23437498 0.52734,0.35156248 0.90234,0.35156248 0.36621,0 0.73242,-0.0849609 1.10156,-0.25781248 0.36622,-0.178711 0.79102,-0.4921875 1.27735,-0.9375 l 0.23437,0.2109375 c -0.59472,0.7265625 -1.17773,1.24804685 -1.74609,1.55859373 -0.57129,0.3046875 -1.20117,0.45703125 -1.88672,0.45703125 -0.87598,0 -1.48242,-0.20800782 -1.81641,-0.62109375 -0.32812,-0.421875 -0.49218,-0.90527343 -0.49218,-1.45312503 0,-0.8583984 0.24902,-1.7138672 0.75,-2.5664062 0.49804,-0.8583985 1.1748,-1.546875 2.02734,-2.0625 0.8584,-0.515625 1.72266,-0.7734375 2.58984,-0.7734375 0.43653,0 0.76465,0.1054687 0.98438,0.3164062 0.22559,0.2109375 0.33984,0.4746094 0.33984,0.7851563 0,0.383789 -0.11132,0.7558594 -0.32812,1.1132812 -0.29883,0.4921875 -0.67676,0.890625 -1.13672,1.1953125 -0.46289,0.2988282 -0.97852,0.5244141 -1.54688,0.6796875 -0.375,0.1025391 -0.88476,0.1816407 -1.52343,0.234375 z m 0.0703,-0.4101562 c 0.45117,-0.070312 0.80273,-0.1640625 1.05469,-0.28125 0.25781,-0.1171875 0.50683,-0.3046875 0.75,-0.5625 0.24023,-0.2578125 0.45117,-0.5800781 0.63281,-0.9726563 0.17871,-0.3984375 0.26953,-0.7675781 0.26953,-1.1132812 0,-0.140625 -0.0439,-0.2519531 -0.12891,-0.3398438 -0.0791,-0.084961 -0.18164,-0.1289062 -0.30468,-0.1289062 -0.25196,0 -0.53321,0.1757812 -0.84375,0.5273437 -0.58008,0.6328125 -1.05469,1.5908203 -1.42969,2.8710938 z m 10.7373,-3.4335938 h 2.07422 l -0.24609,0.8554688 h -1.07813 c 0.16407,0.3134765 0.2461,0.6064453 0.2461,0.8789062 0,0.4775391 -0.12891,0.9199219 -0.38672,1.3242188 -0.25781,0.3984375 -0.6416,0.7207031 -1.14844,0.9609375 -0.50097,0.234375 -1.06055,0.3515625 -1.67578,0.3515625 -0.1582,0 -0.33398,-0.011719 -0.52734,-0.035156 -0.19629,-0.023437 -0.41016,-0.052734 -0.64453,-0.09375 -0.34571,0.1728516 -0.55957,0.3134766 -0.64454,0.421875 -0.0645,0.070312 -0.0937,0.1464844 -0.0937,0.2226563 0,0.09375 0.0381,0.1757812 0.11719,0.2460937 0.13184,0.1171875 0.33106,0.2080078 0.59766,0.2695313 1.06054,0.2285156 1.76367,0.41015623 2.10937,0.55078123 0.45996,0.19628906 0.8086,0.4453125 1.04297,0.75 0.24024,0.29589843 0.36328,0.65917968 0.36328,1.08984377 0,0.6474609 -0.30175,1.2128906 -0.90234,1.6992187 -0.60352,0.4921875 -1.5293,0.7382813 -2.77734,0.7382813 -1.27442,0 -2.20899,-0.2080078 -2.80079,-0.6210938 -0.43652,-0.3046875 -0.65625,-0.665039 -0.65625,-1.078125 0,-0.3222656 0.14649,-0.618164 0.4336,-0.89062497 0.28125,-0.27539063 0.88476,-0.51269532 1.8164,-0.71484375 -0.31347,-0.17871094 -0.52441,-0.34277344 -0.63281,-0.4921875 -0.1582,-0.19335938 -0.23437,-0.3984375 -0.23437,-0.609375 0,-0.35156248 0.14062,-0.65917968 0.42187,-0.92578128 0.28125,-0.2636718 0.75,-0.5302734 1.40625,-0.796875 -0.50976,-0.2021484 -0.8789,-0.4628906 -1.11328,-0.7851562 -0.22852,-0.319336 -0.33984,-0.6914063 -0.33984,-1.1132813 0,-0.4599609 0.13476,-0.8935547 0.41015,-1.3007812 0.28125,-0.4042969 0.68555,-0.7382813 1.21875,-0.9960938 0.53028,-0.2578125 1.14258,-0.3867187 1.83985,-0.3867187 0.44531,0 0.83789,0.052734 1.18359,0.1523437 0.17871,0.055664 0.38672,0.1640625 0.62109,0.328125 z m -1.64062,-0.09375 c -0.25781,0 -0.47461,0.082031 -0.64453,0.2460938 -0.28125,0.2578125 -0.52735,0.6884765 -0.73828,1.2890625 -0.21094,0.6035156 -0.31641,1.1689453 -0.31641,1.6992187 0,0.2578125 0.0732,0.4628907 0.22266,0.609375 0.14648,0.1494141 0.33105,0.2226563 0.55078,0.2226563 0.21094,0 0.39258,-0.073242 0.55078,-0.2226563 0.2959,-0.28125 0.55371,-0.7324218 0.77344,-1.359375 0.21679,-0.6328125 0.32812,-1.2070312 0.32812,-1.7226562 0,-0.225586 -0.0703,-0.4101563 -0.21094,-0.5507813 -0.14062,-0.140625 -0.31347,-0.2109375 -0.51562,-0.2109375 z m -2.69531,7.19531253 c -0.50098,0.19335937 -0.84082,0.40136718 -1.01953,0.62109375 -0.18165,0.22558592 -0.26954,0.47167972 -0.26954,0.73828122 0,0.3339844 0.17872,0.6386719 0.53907,0.9140625 0.35742,0.272461 0.92871,0.4101563 1.71093,0.4101563 0.64747,0 1.11622,-0.1230469 1.40625,-0.3632813 0.2959,-0.234375 0.44532,-0.5097656 0.44532,-0.8203125 0,-0.290039 -0.1377,-0.524414 -0.41016,-0.703125 -0.2666,-0.17285154 -0.7793,-0.35742185 -1.53516,-0.55078122 -0.35156,-0.09375 -0.6416,-0.17578125 -0.86718,-0.24609375 z m 13.82812,-7.46484373 -1.52344,5.1914062 -0.15234,0.6445313 c -0.0176,0.079101 -0.0234,0.1347656 -0.0234,0.1640625 0,0.064453 0.0176,0.1171875 0.0586,0.16406248 0.0469,0.046875 0.0937,0.0703125 0.14062,0.0703125 0.1084,0 0.26074,-0.0820313 0.45703,-0.24609378 0.0762,-0.070312 0.26367,-0.3105468 0.5625,-0.7265625 l 0.26953,0.140625 c -0.36914,0.6796875 -0.76171,1.1777344 -1.18359,1.48828128 -0.41602,0.31054687 -0.86426,0.46875 -1.34766,0.46875 -0.30468,0 -0.53613,-0.0791016 -0.6914,-0.234375 -0.15821,-0.15527344 -0.23438,-0.3515625 -0.23438,-0.5859375 0,-0.20214844 0.085,-0.58007808 0.25782,-1.13671878 l 0.1875,-0.6328125 c -0.60938,1.0400391 -1.19239,1.77832034 -1.7461,2.21484378 -0.32226,0.24902343 -0.66504,0.375 -1.03125,0.375 -0.48633,0 -0.83203,-0.19628907 -1.04297,-0.5859375 -0.21093,-0.3984375 -0.3164,-0.84667968 -0.3164,-1.34765628 0,-0.7324218 0.22265,-1.5732422 0.66797,-2.5195312 0.45117,-0.9521485 1.04296,-1.7167969 1.76953,-2.296875 0.60058,-0.4833985 1.16308,-0.7265625 1.6875,-0.7265625 0.2959,0 0.53027,0.087891 0.70312,0.2578125 0.17871,0.1728515 0.31055,0.4804687 0.39844,0.9257812 l 0.28125,-0.9609375 z m -2.50781,1.4765625 c 0,-0.421875 -0.0644,-0.7265625 -0.1875,-0.9140625 -0.0937,-0.1230469 -0.22266,-0.1875 -0.38672,-0.1875 -0.16406,0 -0.33398,0.079102 -0.50391,0.234375 -0.35156,0.3222656 -0.73242,0.9785156 -1.13671,1.96875 -0.39844,0.984375 -0.59766,1.836914 -0.59766,2.5546875 0,0.28125 0.041,0.4863281 0.12891,0.609375 0.0937,0.1171875 0.19335,0.1757812 0.30468,0.1757812 0.23438,0 0.47168,-0.1347656 0.71485,-0.4101562 0.34277,-0.3808594 0.65039,-0.8554688 0.92578,-1.4179688 0.49219,-0.9755859 0.73828,-1.8457031 0.73828,-2.6132812 z m 12.07031,-1.59375 c 0.41309,0 0.79981,0.099609 1.16016,0.2929687 0.36621,0.1875 0.63867,0.4541016 0.82031,0.796875 0.1875,0.3369141 0.28125,0.7089844 0.28125,1.1132813 0,0.852539 -0.24023,1.6992187 -0.71484,2.5429687 -0.46875,0.84375 -1.08985,1.51171878 -1.86328,2.00390628 -0.76758,0.48632812 -1.54102,0.7265625 -2.32032,0.7265625 -0.71191,0 -1.26269,-0.2109375 -1.65234,-0.6328125 -0.39258,-0.421875 -0.58594,-0.94042968 -0.58594,-1.55859378 0,-0.7177734 0.14356,-1.3945312 0.4336,-2.0273437 0.2871,-0.6386719 0.65625,-1.1953125 1.10156,-1.6640625 0.45117,-0.46875 0.96679,-0.8496094 1.54687,-1.1484375 0.57715,-0.2958985 1.17481,-0.4453125 1.79297,-0.4453125 z m -0.3164,0.421875 c -0.28125,0 -0.5127,0.079102 -0.69141,0.234375 -0.36914,0.328125 -0.78223,1.0986328 -1.24219,2.3085937 -0.4541,1.2041016 -0.67969,2.2939453 -0.67969,3.2695313 0,0.23437498 0.0703,0.43066404 0.21094,0.58593748 0.14649,0.15820312 0.32227,0.234375 0.52735,0.234375 0.20214,0 0.38085,-0.0615234 0.53906,-0.1875 0.22558,-0.1875 0.50683,-0.60351563 0.84375,-1.25390628 0.33398,-0.65625 0.60937,-1.3769531 0.82031,-2.1679687 0.21094,-0.796875 0.31641,-1.5234375 0.31641,-2.1796875 0,-0.2636719 -0.0674,-0.4716797 -0.19922,-0.6210938 -0.12598,-0.1464843 -0.27539,-0.2226562 -0.44531,-0.2226562 z m 9.0791,4.9453125 0.23437,0.2109375 c -0.50097,0.609375 -0.99609,1.05468748 -1.48828,1.33593748 -0.65625,0.375 -1.33301,0.5625 -2.02734,0.5625 -0.46875,0 -0.8877,-0.10253907 -1.25391,-0.3046875 -0.36035,-0.20214844 -0.62695,-0.48339844 -0.79687,-0.84375 -0.17286,-0.35742188 -0.25782,-0.72949218 -0.25782,-1.11328128 0,-0.8583984 0.22852,-1.6992187 0.69141,-2.5195312 0.46875,-0.8261719 1.08105,-1.4824219 1.83984,-1.96875 0.76465,-0.4833985 1.51465,-0.7265625 2.25,-0.7265625 0.58594,0 1.02539,0.1347656 1.32422,0.3984375 0.2959,0.2578125 0.44531,0.5800781 0.44531,0.9609375 0,0.3515625 -0.11425,0.6533203 -0.33984,0.9023437 -0.21973,0.2431641 -0.46582,0.3632813 -0.73828,0.3632813 -0.24316,0 -0.44531,-0.076172 -0.60938,-0.234375 -0.1582,-0.1552735 -0.23437,-0.3427735 -0.23437,-0.5625 0,-0.28125 0.14062,-0.5214844 0.42187,-0.7265625 0.19336,-0.1464844 0.29297,-0.2753906 0.29297,-0.3867188 0,-0.09375 -0.041,-0.1669922 -0.11718,-0.2226562 -0.10254,-0.084961 -0.24024,-0.1289063 -0.41016,-0.1289063 -0.43945,0 -0.84961,0.1757813 -1.23047,0.5273438 -0.51562,0.46875 -0.91113,1.0664062 -1.18359,1.7929687 -0.2666,0.7207032 -0.39844,1.4003907 -0.39844,2.0390625 0,0.515625 0.13477,0.9257813 0.41016,1.2304688 0.28125,0.30468748 0.60937,0.45703123 0.98437,0.45703123 0.33399,0 0.69727,-0.0849609 1.08984,-0.25781253 0.38965,-0.1699218 0.75586,-0.4335937 1.10157,-0.7851562 z m 3.61523,-1.0429688 c -0.0469,0.3369141 -0.0703,0.6152344 -0.0703,0.8320313 0,0.3925781 0.11133,0.703125 0.33984,0.9375 0.22559,0.23437498 0.52735,0.35156248 0.90235,0.35156248 0.36621,0 0.73242,-0.0849609 1.10156,-0.25781248 0.36621,-0.178711 0.79101,-0.4921875 1.27734,-0.9375 l 0.23438,0.2109375 c -0.59473,0.7265625 -1.17774,1.24804685 -1.7461,1.55859373 -0.57129,0.3046875 -1.20117,0.45703125 -1.88671,0.45703125 -0.87598,0 -1.48243,-0.20800782 -1.81641,-0.62109375 -0.32813,-0.421875 -0.49219,-0.90527343 -0.49219,-1.45312503 0,-0.8583984 0.24902,-1.7138672 0.75,-2.5664062 0.49805,-0.8583985 1.17481,-1.546875 2.02735,-2.0625 0.85839,-0.515625 1.72265,-0.7734375 2.58984,-0.7734375 0.43652,0 0.76465,0.1054687 0.98437,0.3164062 0.22559,0.2109375 0.33985,0.4746094 0.33985,0.7851563 0,0.383789 -0.11133,0.7558594 -0.32813,1.1132812 -0.29883,0.4921875 -0.67676,0.890625 -1.13672,1.1953125 -0.46289,0.2988282 -0.97851,0.5244141 -1.54687,0.6796875 -0.375,0.1025391 -0.88477,0.1816407 -1.52344,0.234375 z m 0.0703,-0.4101562 c 0.45118,-0.070312 0.80274,-0.1640625 1.05469,-0.28125 0.25781,-0.1171875 0.50684,-0.3046875 0.75,-0.5625 0.24024,-0.2578125 0.45117,-0.5800781 0.63281,-0.9726563 0.17871,-0.3984375 0.26954,-0.7675781 0.26954,-1.1132812 0,-0.140625 -0.0439,-0.2519531 -0.12891,-0.3398438 -0.0791,-0.084961 -0.18164,-0.1289062 -0.30469,-0.1289062 -0.25195,0 -0.5332,0.1757812 -0.84375,0.5273437 -0.58008,0.6328125 -1.05469,1.5908203 -1.42969,2.8710938 z m 8.81543,-3.9140625 -0.97265,3.3632812 c 0.65625,-0.984375 1.14258,-1.6552734 1.46484,-2.015625 0.47461,-0.5214843 0.88477,-0.8789062 1.23047,-1.0664062 0.34277,-0.1875 0.66797,-0.28125 0.97266,-0.28125 0.26367,0 0.49511,0.102539 0.6914,0.3046875 0.19336,0.2050781 0.29297,0.4658203 0.29297,0.7851562 0,0.2900391 -0.0644,0.6445313 -0.1875,1.0664063 l -1.00781,3.3398437 c -0.0791,0.2900391 -0.11719,0.4804688 -0.11719,0.5742188 0,0.046875 0.0176,0.09375 0.0586,0.140625 0.0381,0.041016 0.0762,0.0585937 0.11719,0.0585937 0.0527,0 0.1084,-0.0175781 0.16406,-0.0585937 0.17872,-0.1552735 0.36329,-0.3691406 0.55079,-0.6445313 0.0469,-0.076172 0.12304,-0.1875 0.23437,-0.328125 l 0.29297,0.1757813 c -0.76758,1.28906248 -1.57031,1.93359373 -2.41406,1.93359373 -0.32227,0 -0.57422,-0.08203125 -0.76172,-0.24609375 -0.18164,-0.16992188 -0.26953,-0.38085938 -0.26953,-0.6328125 0,-0.21679688 0.0615,-0.54199218 0.1875,-0.97265628 l 0.97265,-3.3398437 c 0.0703,-0.2167969 0.10547,-0.3808594 0.10547,-0.4921875 0,-0.052734 -0.0234,-0.099609 -0.0703,-0.140625 -0.0469,-0.046875 -0.10254,-0.070312 -0.16406,-0.070312 -0.19629,0 -0.4336,0.1347656 -0.71485,0.3984375 -0.72656,0.6972656 -1.42675,1.7226562 -2.09765,3.0820312 l -0.63282,2.320312525 h -2.0039 l 1.46484,-5.027343725 c 0.14063,-0.4921875 0.21094,-0.84375 0.21094,-1.0546875 0,-0.084961 -0.0205,-0.1552735 -0.0586,-0.2109375 -0.041,-0.061523 -0.11133,-0.1083985 -0.21094,-0.140625 -0.0937,-0.038086 -0.26953,-0.058594 -0.52735,-0.058594 l 0.082,-0.2929687 2.63671,-0.46875 z m 8.23243,-3.5976559 c 0.31933,0 0.58886,0.114257 0.80859,0.339843 0.22559,0.228516 0.33984,0.498047 0.33984,0.8085941 0,0.3222657 -0.11425,0.5947266 -0.33984,0.8203125 -0.21973,0.2197266 -0.48926,0.328125 -0.80859,0.328125 -0.31348,0 -0.58301,-0.1083984 -0.8086,-0.328125 -0.21972,-0.2255859 -0.32812,-0.4980468 -0.32812,-0.8203125 0,-0.3105471 0.1084,-0.5800781 0.32812,-0.8085941 0.2168,-0.225586 0.48633,-0.339843 0.8086,-0.339843 z m 0.48046,3.5976559 -1.59375,5.5664062 c -0.0937,0.3222657 -0.14062,0.5273438 -0.14062,0.6210938 0,0.064453 0.0234,0.11718748 0.0703,0.16406248 0.0469,0.046875 0.0967,0.0703125 0.15235,0.0703125 0.085,0 0.17578,-0.0380859 0.26953,-0.1171875 0.23437,-0.18749998 0.51562,-0.53320308 0.84375,-1.04296878 l 0.25781,0.1523438 c -0.78223,1.3769531 -1.61719,2.06249998 -2.50781,2.06249998 -0.33692,0 -0.60645,-0.09375 -0.8086,-0.28125 -0.20508,-0.19335938 -0.30468,-0.43652344 -0.30468,-0.7265625 0,-0.19335938 0.0469,-0.43945308 0.14062,-0.73828128 l 1.07813,-3.7382812 c 0.10839,-0.3574219 0.16406,-0.6328125 0.16406,-0.8203125 0,-0.1083985 -0.0527,-0.2050781 -0.15235,-0.2929688 -0.10253,-0.09375 -0.24023,-0.140625 -0.41015,-0.140625 -0.0791,0 -0.17285,0.00586 -0.28125,0.011719 l 0.10547,-0.3164063 2.64843,-0.4335937 z m 2.88868,4.3242187 c -0.0469,0.3369141 -0.0703,0.6152344 -0.0703,0.8320313 0,0.3925781 0.11133,0.703125 0.33985,0.9375 0.22558,0.23437498 0.52734,0.35156248 0.90234,0.35156248 0.36621,0 0.73242,-0.0849609 1.10156,-0.25781248 0.36621,-0.178711 0.79102,-0.4921875 1.27735,-0.9375 l 0.23437,0.2109375 c -0.59472,0.7265625 -1.17773,1.24804685 -1.74609,1.55859373 -0.57129,0.3046875 -1.20117,0.45703125 -1.88672,0.45703125 -0.87598,0 -1.48242,-0.20800782 -1.81641,-0.62109375 -0.32812,-0.421875 -0.49218,-0.90527343 -0.49218,-1.45312503 0,-0.8583984 0.24902,-1.7138672 0.75,-2.5664062 0.49804,-0.8583985 1.1748,-1.546875 2.02734,-2.0625 0.8584,-0.515625 1.72266,-0.7734375 2.58984,-0.7734375 0.43653,0 0.76465,0.1054687 0.98438,0.3164062 0.22558,0.2109375 0.33984,0.4746094 0.33984,0.7851563 0,0.383789 -0.11133,0.7558594 -0.32812,1.1132812 -0.29883,0.4921875 -0.67676,0.890625 -1.13672,1.1953125 -0.46289,0.2988282 -0.97852,0.5244141 -1.54688,0.6796875 -0.375,0.1025391 -0.88476,0.1816407 -1.52343,0.234375 z m 0.0703,-0.4101562 c 0.45117,-0.070312 0.80273,-0.1640625 1.05469,-0.28125 0.25781,-0.1171875 0.50683,-0.3046875 0.75,-0.5625 0.24023,-0.2578125 0.45117,-0.5800781 0.63281,-0.9726563 0.17871,-0.3984375 0.26953,-0.7675781 0.26953,-1.1132812 0,-0.140625 -0.044,-0.2519531 -0.12891,-0.3398438 -0.0791,-0.084961 -0.18164,-0.1289062 -0.30468,-0.1289062 -0.25196,0 -0.53321,0.1757812 -0.84375,0.5273437 -0.58008,0.6328125 -1.05469,1.5908203 -1.42969,2.8710938 z m 2.73633,6.3867187 0.14062,-0.421875 c 0.60352,-0.430664 1.11035,-0.9023437 1.52344,-1.4179687 0.41309,-0.50976565 0.83789,-1.21289065 1.27734,-2.12109377 0.43653,-0.90527343 0.79102,-1.87500003 1.06641,-2.90625003 0.35742,-1.3359375 0.53906,-2.5898437 0.53906,-3.7617187 0,-0.8671875 -0.20801,-1.8076172 -0.62109,-2.8242189 l 0.1289,-0.445312 c 1.39747,1.8749996 2.09766,3.7470699 2.09766,5.6132809 0,1.078125 -0.23437,2.1445312 -0.70312,3.1992187 -0.54786,1.22753909 -1.36817,2.31445315 -2.46094,3.2695313 -0.8291,0.7265625 -1.82227,1.3300781 -2.98828,1.8164062 z m 0,0"
         style="fill:#000000;fill-opacity:1;fill-rule:nonzero;stroke:none" />
    </g>
  </g>
</svg>
