<?xml version="1.0" encoding="UTF-8" standalone="no"?>
<!-- Created with Inkscape (http://www.inkscape.org/) -->

<svg
   version="1.1"
   id="svg1"
   width="794.55066"
   height="1123.6533"
   viewBox="0 0 794.55066 1123.6533"
   sodipodi:docname="LigaMatematycznaMatuskiego_Gim_Zestaw4_2018_2019_page0.pdf"
   xmlns:inkscape="http://www.inkscape.org/namespaces/inkscape"
   xmlns:sodipodi="http://sodipodi.sourceforge.net/DTD/sodipodi-0.dtd"
   xmlns="http://www.w3.org/2000/svg"
   xmlns:svg="http://www.w3.org/2000/svg">
  <defs
     id="defs1" />
  <sodipodi:namedview
     id="namedview1"
     pagecolor="#ffffff"
     bordercolor="#000000"
     borderopacity="0.25"
     inkscape:showpageshadow="2"
     inkscape:pageopacity="0.0"
     inkscape:pagecheckerboard="0"
     inkscape:deskcolor="#d1d1d1">
    <inkscape:page
       x="0"
       y="0"
       inkscape:label="1"
       id="page1"
       width="794.55066"
       height="1123.6533"
       margin="0"
       bleed="0" />
  </sodipodi:namedview>
  <g
     id="g1"
     inkscape:groupmode="layer"
     inkscape:label="1">
    <g
       id="g2"
       aria-label="LIGAMATEMATYCZNA&#10;im.ZdzisªawaMatuskiego&#10;PÓFINA&#10;21lutego2018&#10;GIMNAZJUM&#10;(klasaVIIszkoªypodstawowej,klasaIIiIIIgimnazjum)&#10;ZADANIE1.&#10;Wstyczniu1993rokupaniAniauko«czyªatylelat,ilewynosisumacyfrjejrokuurodzenia.&#10;Wktórymrokuurodziªasi¦paniAnia?&#10;ZADANIE2.&#10;Je»eliliczb¦dwucyfrow¡Apodzielimyprzezsum¦jejcyfr,tootrzymamy4ireszt¦6.Je»eli&#10;podzielimyliczb¦Aprzezsum¦jejcyfrpomniejszon¡o2,touzyskamy5ireszt¦3.Znajd¹&#10;liczb¦A.&#10;ZADANIE3.&#10;Danes¡dwaokr¦gio±rodkachS&#10;1&#10;,S&#10;2&#10;ika»dyopromieniu24.Okr¡go±rodkuSjeststyczny&#10;zewn¦trzniedodanychdwóchokr¦góworazdoprostejprzechodz¡cejprzezpunktyS&#10;1&#10;iS&#10;2&#10;.Wia-&#10;domo,»eodlegªo±¢mi¦dzypunktamiS&#10;1&#10;iS&#10;2&#10;jestrówna72.Obliczpromie«okr¦guo±rodkuS.&#10;ZADANIE4.&#10;Wyznaczwszystkieliczbycaªkowitek,dlaktórychliczba&#10;k+2016"
       transform="matrix(1.3333333,0,0,1.3333333,274.724,56.069333)">
      <path
         id="path2"
         d="m -82.131867,133.63257 c 0,-0.26953 0,-0.28125 -0.246094,-0.28125 -0.28125,0.31641 -0.878906,0.76172 -2.109375,0.76172 v 0.35156 c 0.269531,0 0.867188,0 1.523438,-0.3164 v 6.22265 c 0,0.4336 -0.03516,0.57422 -1.078125,0.57422 h -0.375 v 0.35156 c 0.316406,-0.0234 1.476562,-0.0234 1.875,-0.0234 0.398437,0 1.546875,0 1.863281,0.0234 v -0.35156 h -0.363281 c -1.054688,0 -1.089844,-0.14062 -1.089844,-0.57422 z m 6.779297,4.18359 c 0,2.82422 -1.253907,3.41016 -1.96875,3.41016 -0.28125,0 -0.925782,-0.0352 -1.21875,-0.45703 h 0.07031 c 0.08203,0.0234 0.515625,-0.0469 0.515625,-0.49219 0,-0.25781 -0.175781,-0.49219 -0.492187,-0.49219 -0.304688,0 -0.503907,0.21094 -0.503907,0.51563 0,0.75 0.597657,1.24219 1.640625,1.24219 1.5,0 2.941407,-1.58203 2.941407,-4.1836 0,-3.21093 -1.335938,-4.00781 -2.390625,-4.00781 -1.3125,0 -2.472657,1.10156 -2.472657,2.67188 0,1.58203 1.113282,2.66015 2.308594,2.66015 0.878906,0 1.335938,-0.64453 1.570313,-1.2539 z m -1.523438,0.6211 c -0.75,0 -1.078125,-0.60938 -1.183594,-0.83203 -0.199218,-0.45703 -0.199218,-1.03125 -0.199218,-1.57032 0,-0.66796 0,-1.24218 0.316406,-1.73437 0.210937,-0.31641 0.539062,-0.66797 1.183594,-0.66797 0.679687,0 1.03125,0.59766 1.148437,0.87891 0.234375,0.58593 0.234375,1.59375 0.234375,1.78125 0,0.99609 -0.445312,2.14453 -1.5,2.14453 z m 7.376953,-0.6211 c 0,2.82422 -1.253906,3.41016 -1.96875,3.41016 -0.28125,0 -0.925781,-0.0352 -1.21875,-0.45703 h 0.07031 c 0.08203,0.0234 0.515625,-0.0469 0.515625,-0.49219 0,-0.25781 -0.175781,-0.49219 -0.492188,-0.49219 -0.304687,0 -0.503906,0.21094 -0.503906,0.51563 0,0.75 0.597656,1.24219 1.640625,1.24219 1.5,0 2.941406,-1.58203 2.941406,-4.1836 0,-3.21093 -1.335937,-4.00781 -2.390625,-4.00781 -1.3125,0 -2.472656,1.10156 -2.472656,2.67188 0,1.58203 1.113281,2.66015 2.308594,2.66015 0.878906,0 1.335937,-0.64453 1.570312,-1.2539 z m -1.523437,0.6211 c -0.75,0 -1.078125,-0.60938 -1.183594,-0.83203 -0.199219,-0.45703 -0.199219,-1.03125 -0.199219,-1.57032 0,-0.66796 0,-1.24218 0.316407,-1.73437 0.210937,-0.31641 0.539062,-0.66797 1.183593,-0.66797 0.679688,0 1.03125,0.59766 1.148438,0.87891 0.234375,0.58593 0.234375,1.59375 0.234375,1.78125 0,0.99609 -0.445313,2.14453 -1.5,2.14453 z m 5.206055,-1.42969 c -0.210938,0.0117 -0.257813,0.0234 -0.257813,0.12891 0,0.11718 0.05859,0.11718 0.28125,0.11718 h 0.550781 c 1.007813,0 1.464844,0.84375 1.464844,1.99219 0,1.5586 -0.808594,1.98047 -1.394531,1.98047 -0.574219,0 -1.558594,-0.28125 -1.898438,-1.06641 0.375,0.0586 0.726563,-0.15234 0.726563,-0.58593 0,-0.33985 -0.257813,-0.58594 -0.585938,-0.58594 -0.292968,0 -0.597656,0.16406 -0.597656,0.62109 0,1.06641 1.066406,1.9336 2.390625,1.9336 1.417969,0 2.472656,-1.07813 2.472656,-2.28516 0,-1.10156 -0.890625,-1.96875 -2.027343,-2.16797 1.03125,-0.30469 1.699218,-1.17187 1.699218,-2.10937 0,-0.9375 -0.972656,-1.62891 -2.132812,-1.62891 -1.195313,0 -2.085938,0.72656 -2.085938,1.59375 0,0.48047 0.375,0.57422 0.550782,0.57422 0.257812,0 0.539062,-0.17578 0.539062,-0.53906 0,-0.375 -0.28125,-0.53907 -0.550781,-0.53907 -0.07031,0 -0.09375,0 -0.128906,0.0117 0.457031,-0.82031 1.582031,-0.82031 1.640625,-0.82031 0.386718,0 1.171875,0.17578 1.171875,1.34766 0,0.23437 -0.03516,0.90234 -0.386719,1.41797 -0.351563,0.52734 -0.761719,0.5625 -1.089844,0.57421 z m 0,0"
         style="fill:#000000;fill-opacity:1;fill-rule:nonzero;stroke:none" />
      <path
         id="path3"
         d="m -15.387727,197.48218 c -0.410156,0.70312 -0.820312,0.9375 -1.394531,0.97266 -0.128906,0.0117 -0.222656,0.0117 -0.222656,0.23437 0,0.0703 0.05859,0.11719 0.140625,0.11719 0.210937,0 0.75,-0.0234 0.972656,-0.0234 0.339844,0 0.726563,0.0234 1.054688,0.0234 0.07031,0 0.222656,0 0.222656,-0.22266 0,-0.11719 -0.09375,-0.1289 -0.175781,-0.1289 -0.269532,-0.0234 -0.492188,-0.11719 -0.492188,-0.39844 0,-0.17578 0.07031,-0.30469 0.222656,-0.5625 l 0.902344,-1.51172 h 3.058594 c 0.01172,0.10547 0.01172,0.21094 0.02344,0.31641 0.03516,0.30468 0.175782,1.54687 0.175782,1.78125 0,0.35156 -0.609375,0.375 -0.796875,0.375 -0.140625,0 -0.269532,0 -0.269532,0.22265 0,0.12891 0.105469,0.12891 0.175782,0.12891 0.210937,0 0.445312,-0.0234 0.65625,-0.0234 h 0.679687 c 0.7265627,0 1.2539064,0.0234 1.2656252,0.0234 0.082031,0 0.2109375,0 0.2109375,-0.22266 0,-0.1289 -0.1054688,-0.1289 -0.28125,-0.1289 -0.65625,0 -0.6679688,-0.10547 -0.7148438,-0.45704 l -0.7265629,-7.46484 c -0.02344,-0.23437 -0.07031,-0.25781 -0.199218,-0.25781 -0.117188,0 -0.1875,0.0234 -0.304688,0.19922 z m 1.441407,-1.83984 2.402343,-4.01954 0.410157,4.01954 z m 0,0"
         style="fill:#000000;fill-opacity:1;fill-rule:nonzero;stroke:none" />
      <path
         id="path4"
         d="m 242.27243,191.02515 c 0,-0.22266 0,-0.29297 -0.16406,-0.29297 -0.0937,0 -0.12891,0 -0.22266,0.15234 l -3.59766,5.57813 v 0.35156 h 3.14063 v 1.07813 c 0,0.44531 -0.0234,0.5625 -0.90234,0.5625 h -0.23438 v 0.35156 c 0.26953,-0.0234 1.21875,-0.0234 1.55859,-0.0234 0.32813,0 1.28907,0 1.5586,0.0234 v -0.35156 h -0.23438 c -0.86718,0 -0.90234,-0.11719 -0.90234,-0.5625 v -1.07813 h 1.20703 v -0.35156 h -1.20703 z m -0.78516,0.9375 v 4.5 h -2.90625 z m 0,0"
         style="fill:#000000;fill-opacity:1;fill-rule:nonzero;stroke:none" />
      <path
         id="path5"
         d="m 291.13376,194.64624 c 0,-3.02344 1.47656,-3.5039 2.12109,-3.5039 0.4336,0 0.85547,0.1289 1.08985,0.49218 -0.14063,0 -0.59766,0 -0.59766,0.49219 0,0.25781 0.17578,0.49219 0.49219,0.49219 0.29297,0 0.49218,-0.1875 0.49218,-0.52735 0,-0.62109 -0.44531,-1.23046 -1.48828,-1.23046 -1.51172,0 -3.08203,1.53515 -3.08203,4.17187 0,3.28125 1.42969,4.01953 2.44922,4.01953 1.30078,0 2.41406,-1.125 2.41406,-2.68359 0,-1.59375 -1.11328,-2.66016 -2.30859,-2.66016 -1.06641,0 -1.45313,0.92578 -1.58203,1.26563 z m 1.47656,4.08985 c -0.75,0 -1.11328,-0.66797 -1.21875,-0.92579 -0.10547,-0.30468 -0.22266,-0.89062 -0.22266,-1.73437 0,-0.9375 0.42188,-2.12109 1.5,-2.12109 0.65625,0 1.00782,0.44531 1.1836,0.84375 0.1875,0.44531 0.1875,1.04296 0.1875,1.55859 0,0.60937 0,1.14844 -0.22266,1.60547 -0.30469,0.57422 -0.72656,0.77344 -1.20703,0.77344 z m 0,0"
         style="fill:#000000;fill-opacity:1;fill-rule:nonzero;stroke:none" />
      <path
         id="path6"
         d="m -52.673859,211.92847 c -0.410157,0.70312 -0.820313,0.9375 -1.394532,0.97266 -0.128906,0.0117 -0.222656,0.0117 -0.222656,0.23437 0,0.0703 0.05859,0.11719 0.140625,0.11719 0.210938,0 0.75,-0.0234 0.972656,-0.0234 0.339844,0 0.726563,0.0234 1.054688,0.0234 0.07031,0 0.222656,0 0.222656,-0.22266 0,-0.11719 -0.09375,-0.1289 -0.175781,-0.1289 -0.269531,-0.0234 -0.492188,-0.11719 -0.492188,-0.39844 0,-0.17578 0.07031,-0.30469 0.222657,-0.5625 l 0.902343,-1.51172 h 3.058594 c 0.01172,0.10547 0.01172,0.21094 0.02344,0.31641 0.03516,0.30468 0.175781,1.54687 0.175781,1.78125 0,0.35156 -0.609375,0.375 -0.796875,0.375 -0.140625,0 -0.269531,0 -0.269531,0.22265 0,0.12891 0.105468,0.12891 0.175781,0.12891 0.210937,0 0.445312,-0.0234 0.65625,-0.0234 h 0.679687 c 0.726563,0 1.253907,0.0234 1.265625,0.0234 0.08203,0 0.210938,0 0.210938,-0.22266 0,-0.1289 -0.105469,-0.1289 -0.28125,-0.1289 -0.65625,0 -0.667969,-0.10547 -0.714844,-0.45704 l -0.726562,-7.46484 c -0.02344,-0.23437 -0.07031,-0.25781 -0.199219,-0.25781 -0.117188,0 -0.1875,0.0234 -0.304688,0.19922 z m 1.441406,-1.83984 2.402344,-4.01954 0.410156,4.01954 z m 0,0"
         style="fill:#000000;fill-opacity:1;fill-rule:nonzero;stroke:none" />
      <path
         id="path7"
         d="m 151.37009,211.24878 h -0.26954 c -0.0351,0.19922 -0.1289,0.85547 -0.24609,1.04297 -0.082,0.11719 -0.76172,0.11719 -1.125,0.11719 h -2.21484 c 0.32812,-0.28125 1.05468,-1.04297 1.37109,-1.33594 1.81641,-1.66406 2.48438,-2.28516 2.48438,-3.46875 0,-1.38281 -1.08985,-2.29687 -2.47266,-2.29687 -1.39453,0 -2.20313,1.18359 -2.20313,2.20312 0,0.60938 0.52735,0.60938 0.5625,0.60938 0.2461,0 0.5625,-0.17579 0.5625,-0.5625 0,-0.32813 -0.23437,-0.55079 -0.5625,-0.55079 -0.10546,0 -0.1289,0 -0.16406,0.0117 0.22266,-0.82031 0.86719,-1.37109 1.64063,-1.37109 1.01953,0 1.64062,0.85547 1.64062,1.95703 0,1.00781 -0.58594,1.89844 -1.26562,2.66016 l -2.41407,2.70703 v 0.28125 h 4.35938 z m 0,0"
         style="fill:#000000;fill-opacity:1;fill-rule:nonzero;stroke:none" />
      <path
         id="path8"
         d="m 230.79391,206.40894 c 0.50391,0.16406 0.92579,0.17578 1.05469,0.17578 1.35938,0 2.21485,-0.99609 2.21485,-1.16016 0,-0.0469 -0.0234,-0.10547 -0.0937,-0.10547 -0.0234,0 -0.0469,0 -0.15235,0.0469 -0.66797,0.28125 -1.24219,0.31641 -1.55859,0.31641 -0.78516,0 -1.34766,-0.23438 -1.58203,-0.32813 -0.082,-0.0352 -0.10547,-0.0352 -0.11719,-0.0352 -0.0937,0 -0.0937,0.0703 -0.0937,0.25782 v 3.55078 c 0,0.21094 0,0.29297 0.14062,0.29297 0.0586,0 0.0703,-0.0117 0.19922,-0.16407 0.32813,-0.49218 0.89063,-0.77343 1.48828,-0.77343 0.63282,0 0.94922,0.58593 1.04297,0.78515 0.19922,0.46875 0.21094,1.05469 0.21094,1.51172 0,0.45703 0,1.13672 -0.32812,1.67578 -0.26954,0.42188 -0.73829,0.72657 -1.25391,0.72657 -0.79688,0 -1.57031,-0.53907 -1.78125,-1.40625 0.0586,0.0234 0.12891,0.0352 0.1875,0.0352 0.19922,0 0.52734,-0.1289 0.52734,-0.52734 0,-0.33985 -0.23437,-0.52735 -0.52734,-0.52735 -0.21094,0 -0.52734,0.10547 -0.52734,0.57422 0,1.00782 0.80859,2.16797 2.14453,2.16797 1.34765,0 2.53125,-1.125 2.53125,-2.64844 0,-1.41796 -0.96094,-2.60156 -2.21485,-2.60156 -0.67968,0 -1.20703,0.29297 -1.51172,0.63281 z m 0,0"
         style="fill:#000000;fill-opacity:1;fill-rule:nonzero;stroke:none" />
      <path
         id="path9"
         d="m 283.8652,208.96363 c -0.21093,0.0117 -0.25781,0.0234 -0.25781,0.1289 0,0.11719 0.0586,0.11719 0.28125,0.11719 h 0.55078 c 1.00781,0 1.46485,0.84375 1.46485,1.99219 0,1.55859 -0.8086,1.98047 -1.39454,1.98047 -0.57421,0 -1.55859,-0.28125 -1.89843,-1.06641 0.375,0.0586 0.72656,-0.15234 0.72656,-0.58594 0,-0.33984 -0.25781,-0.58594 -0.58594,-0.58594 -0.29297,0 -0.59765,0.16407 -0.59765,0.6211 0,1.0664 1.0664,1.93359 2.39062,1.93359 1.41797,0 2.47266,-1.07812 2.47266,-2.28515 0,-1.10157 -0.89063,-1.96875 -2.02735,-2.16797 1.03125,-0.30469 1.69922,-1.17188 1.69922,-2.10938 0,-0.9375 -0.97265,-1.6289 -2.13281,-1.6289 -1.19531,0 -2.08594,0.72656 -2.08594,1.59375 0,0.48046 0.375,0.57421 0.55078,0.57421 0.25782,0 0.53907,-0.17578 0.53907,-0.53906 0,-0.375 -0.28125,-0.53906 -0.55079,-0.53906 -0.0703,0 -0.0937,0 -0.1289,0.0117 0.45703,-0.82031 1.58203,-0.82031 1.64062,-0.82031 0.38672,0 1.17188,0.17578 1.17188,1.34765 0,0.23438 -0.0352,0.90235 -0.38672,1.41797 -0.35156,0.52734 -0.76172,0.5625 -1.08984,0.57422 z m 0,0"
         style="fill:#000000;fill-opacity:1;fill-rule:nonzero;stroke:none" />
      <path
         id="path10"
         d="m -113.35355,226.37476 c -0.41015,0.70312 -0.82031,0.9375 -1.39453,0.97265 -0.1289,0.0117 -0.22265,0.0117 -0.22265,0.23438 0,0.0703 0.0586,0.11719 0.14062,0.11719 0.21094,0 0.75,-0.0234 0.97266,-0.0234 0.33984,0 0.72656,0.0234 1.05468,0.0234 0.0703,0 0.22266,0 0.22266,-0.22266 0,-0.11719 -0.0937,-0.12891 -0.17578,-0.12891 -0.26953,-0.0234 -0.49219,-0.11718 -0.49219,-0.39843 0,-0.17578 0.0703,-0.30469 0.22266,-0.5625 l 0.90234,-1.51172 h 3.0586 c 0.0117,0.10547 0.0117,0.21094 0.0234,0.3164 0.0352,0.30469 0.17578,1.54688 0.17578,1.78125 0,0.35157 -0.60937,0.375 -0.79687,0.375 -0.14063,0 -0.26953,0 -0.26953,0.22266 0,0.12891 0.10547,0.12891 0.17578,0.12891 0.21094,0 0.44531,-0.0234 0.65625,-0.0234 h 0.67969 c 0.72656,0 1.2539,0.0234 1.26562,0.0234 0.082,0 0.21094,0 0.21094,-0.22266 0,-0.12891 -0.10547,-0.12891 -0.28125,-0.12891 -0.65625,0 -0.66797,-0.10546 -0.71484,-0.45703 l -0.72657,-7.46484 c -0.0234,-0.23438 -0.0703,-0.25781 -0.19922,-0.25781 -0.11718,0 -0.1875,0.0234 -0.30468,0.19922 z m 1.44141,-1.83985 2.40234,-4.01953 0.41016,4.01953 z m 0,0"
         style="fill:#000000;fill-opacity:1;fill-rule:nonzero;stroke:none" />
      <path
         id="path11"
         d="m 22.730438,262.45679 c 0,-0.10547 -0.08203,-0.10547 -0.105469,-0.10547 -0.05859,0 -0.07031,0.0117 -0.210938,0.1875 -0.07031,0.082 -0.5625,0.70313 -0.574218,0.71484 -0.386719,-0.77343 -1.183594,-0.90234 -1.6875,-0.90234 -1.511719,0 -2.882813,1.38281 -2.882813,2.73047 0,0.90234 0.527344,1.42969 1.113281,1.62891 0.140625,0.0469 0.84375,0.24609 1.195313,0.32812 0.609375,0.16406 0.773437,0.21094 1.019531,0.48047 0.04687,0.0586 0.292969,0.32812 0.292969,0.89062 0,1.11329 -1.03125,2.26172 -2.226563,2.26172 -0.984375,0 -2.074218,-0.42187 -2.074218,-1.75781 0,-0.22266 0.05859,-0.51562 0.09375,-0.63281 0,-0.0352 0.01172,-0.0937 0.01172,-0.11719 0,-0.0469 -0.02344,-0.11719 -0.128906,-0.11719 -0.105469,0 -0.117187,0.0234 -0.164062,0.23438 l -0.609375,2.44922 c 0,0.0117 -0.04687,0.16406 -0.04687,0.17578 0,0.10547 0.09375,0.10547 0.117187,0.10547 0.04687,0 0.05859,-0.0117 0.210938,-0.1875 l 0.539062,-0.71485 c 0.292969,0.4336 0.914063,0.90235 2.027344,0.90235 1.535156,0 2.953125,-1.48828 2.953125,-2.98828 0,-0.49219 -0.117188,-0.9375 -0.574219,-1.38282 -0.257812,-0.24609 -0.46875,-0.30468 -1.570312,-0.59765 -0.796875,-0.21094 -0.902344,-0.2461 -1.125,-0.44532 -0.199219,-0.19921 -0.351563,-0.48046 -0.351563,-0.89062 0,-1.00781 1.007813,-2.03906 2.144531,-2.03906 1.171875,0 1.722657,0.72656 1.722657,1.86328 0,0.30469 -0.05859,0.63281 -0.05859,0.67969 0,0.10546 0.09375,0.10546 0.128906,0.10546 0.117188,0 0.128906,-0.0352 0.175781,-0.23437 z m 0,0"
         style="fill:#000000;fill-opacity:1;fill-rule:nonzero;stroke:none" />
      <path
         id="path12"
         d="m 24.845672,267.48413 c 0,-0.22265 -0.02344,-0.22265 -0.234375,-0.22265 -0.328125,0.3164 -0.75,0.5039 -1.511719,0.5039 v 0.26953 c 0.222656,0 0.644531,0 1.113281,-0.22265 v 4.08984 c 0,0.29297 -0.02344,0.39844 -0.785156,0.39844 h -0.28125 v 0.25781 c 0.328125,-0.0234 1.019531,-0.0234 1.371094,-0.0234 0.363281,0 1.054687,0 1.382812,0.0234 v -0.25781 h -0.28125 c -0.75,0 -0.773437,-0.10547 -0.773437,-0.39844 z m 0,0"
         style="fill:#000000;fill-opacity:1;fill-rule:nonzero;stroke:none" />
      <path
         id="path13"
         d="m 42.057586,262.45679 c 0,-0.10547 -0.08203,-0.10547 -0.105469,-0.10547 -0.05859,0 -0.07031,0.0117 -0.210937,0.1875 -0.07031,0.082 -0.5625,0.70313 -0.574219,0.71484 -0.386719,-0.77343 -1.183594,-0.90234 -1.6875,-0.90234 -1.511719,0 -2.882813,1.38281 -2.882813,2.73047 0,0.90234 0.527344,1.42969 1.113282,1.62891 0.140625,0.0469 0.84375,0.24609 1.195312,0.32812 0.609375,0.16406 0.773438,0.21094 1.019531,0.48047 0.04687,0.0586 0.292969,0.32812 0.292969,0.89062 0,1.11329 -1.03125,2.26172 -2.226562,2.26172 -0.984375,0 -2.074219,-0.42187 -2.074219,-1.75781 0,-0.22266 0.05859,-0.51562 0.09375,-0.63281 0,-0.0352 0.01172,-0.0937 0.01172,-0.11719 0,-0.0469 -0.02344,-0.11719 -0.128907,-0.11719 -0.105468,0 -0.117187,0.0234 -0.164062,0.23438 l -0.609375,2.44922 c 0,0.0117 -0.04687,0.16406 -0.04687,0.17578 0,0.10547 0.09375,0.10547 0.117187,0.10547 0.04687,0 0.05859,-0.0117 0.210938,-0.1875 l 0.539062,-0.71485 c 0.292969,0.4336 0.914063,0.90235 2.027344,0.90235 1.535156,0 2.953125,-1.48828 2.953125,-2.98828 0,-0.49219 -0.117187,-0.9375 -0.574219,-1.38282 -0.257812,-0.24609 -0.46875,-0.30468 -1.570312,-0.59765 -0.796875,-0.21094 -0.902344,-0.2461 -1.125,-0.44532 -0.199219,-0.19921 -0.351563,-0.48046 -0.351563,-0.89062 0,-1.00781 1.007813,-2.03906 2.144532,-2.03906 1.171875,0 1.722656,0.72656 1.722656,1.86328 0,0.30469 -0.05859,0.63281 -0.05859,0.67969 0,0.10546 0.09375,0.10546 0.128906,0.10546 0.117188,0 0.128907,-0.0352 0.175782,-0.23437 z m 0,0"
         style="fill:#000000;fill-opacity:1;fill-rule:nonzero;stroke:none" />
      <path
         id="path14"
         d="m 43.915008,270.92945 c 0.128906,-0.11719 0.457031,-0.375 0.585937,-0.49219 0.492188,-0.45703 0.960938,-0.89063 0.960938,-1.61719 0,-0.94922 -0.796875,-1.55859 -1.792969,-1.55859 -0.949219,0 -1.582031,0.72656 -1.582031,1.42968 0,0.39844 0.316406,0.44532 0.421875,0.44532 0.164062,0 0.410156,-0.11719 0.410156,-0.42188 0,-0.41015 -0.398437,-0.41015 -0.492187,-0.41015 0.234375,-0.58594 0.773437,-0.78516 1.160156,-0.78516 0.738281,0 1.125,0.63281 1.125,1.30078 0,0.83203 -0.585938,1.42969 -1.523438,2.40234 l -1.007812,1.03125 c -0.09375,0.0937 -0.09375,0.10547 -0.09375,0.30469 h 3.152344 l 0.222656,-1.42969 h -0.246094 c -0.02344,0.16407 -0.08203,0.5625 -0.175781,0.71485 -0.04687,0.0586 -0.65625,0.0586 -0.785156,0.0586 h -1.417969 z m 0,0"
         style="fill:#000000;fill-opacity:1;fill-rule:nonzero;stroke:none" />
      <path
         id="path15"
         d="m 161.8613,268.76148 h -0.26953 c -0.0352,0.19922 -0.12891,0.85547 -0.2461,1.04297 -0.082,0.11718 -0.76172,0.11718 -1.125,0.11718 h -2.21484 c 0.32812,-0.28125 1.05469,-1.04297 1.37109,-1.33593 1.81641,-1.66407 2.48438,-2.28516 2.48438,-3.46875 0,-1.38282 -1.08985,-2.29688 -2.47266,-2.29688 -1.39453,0 -2.20312,1.18359 -2.20312,2.20313 0,0.60937 0.52734,0.60937 0.5625,0.60937 0.24609,0 0.5625,-0.17578 0.5625,-0.5625 0,-0.32812 -0.23438,-0.55078 -0.5625,-0.55078 -0.10547,0 -0.12891,0 -0.16407,0.0117 0.22266,-0.82031 0.86719,-1.3711 1.64063,-1.3711 1.01953,0 1.64062,0.85547 1.64062,1.95704 0,1.00781 -0.58593,1.89843 -1.26562,2.66015 l -2.41406,2.70703 v 0.28125 h 4.35937 z m 4.90429,-5.77735 c 0,-0.22265 0,-0.29297 -0.16406,-0.29297 -0.0937,0 -0.1289,0 -0.22265,0.15235 l -3.59766,5.57812 v 0.35157 h 3.14062 v 1.07812 c 0,0.44531 -0.0234,0.5625 -0.90234,0.5625 h -0.23437 v 0.35156 c 0.26953,-0.0234 1.21875,-0.0234 1.55859,-0.0234 0.32812,0 1.28906,0 1.55859,0.0234 v -0.35156 h -0.23437 c -0.86719,0 -0.90235,-0.11719 -0.90235,-0.5625 v -1.07812 h 1.20704 v -0.35157 h -1.20704 z m -0.78515,0.9375 v 4.5 h -2.90625 z m 0,0"
         style="fill:#000000;fill-opacity:1;fill-rule:nonzero;stroke:none" />
      <path
         id="path16"
         d="m 269.45993,262.45679 c 0,-0.10547 -0.082,-0.10547 -0.10547,-0.10547 -0.0586,0 -0.0703,0.0117 -0.21094,0.1875 -0.0703,0.082 -0.5625,0.70313 -0.57422,0.71484 -0.38671,-0.77343 -1.18359,-0.90234 -1.6875,-0.90234 -1.51171,0 -2.88281,1.38281 -2.88281,2.73047 0,0.90234 0.52735,1.42969 1.11328,1.62891 0.14063,0.0469 0.84375,0.24609 1.19532,0.32812 0.60937,0.16406 0.77343,0.21094 1.01953,0.48047 0.0469,0.0586 0.29297,0.32812 0.29297,0.89062 0,1.11329 -1.03125,2.26172 -2.22657,2.26172 -0.98437,0 -2.07422,-0.42187 -2.07422,-1.75781 0,-0.22266 0.0586,-0.51562 0.0937,-0.63281 0,-0.0352 0.0117,-0.0937 0.0117,-0.11719 0,-0.0469 -0.0234,-0.11719 -0.1289,-0.11719 -0.10547,0 -0.11719,0.0234 -0.16407,0.23438 l -0.60937,2.44922 c 0,0.0117 -0.0469,0.16406 -0.0469,0.17578 0,0.10547 0.0937,0.10547 0.11719,0.10547 0.0469,0 0.0586,-0.0117 0.21094,-0.1875 l 0.53906,-0.71485 c 0.29297,0.4336 0.91406,0.90235 2.02735,0.90235 1.53515,0 2.95312,-1.48828 2.95312,-2.98828 0,-0.49219 -0.11719,-0.9375 -0.57422,-1.38282 -0.25781,-0.24609 -0.46875,-0.30468 -1.57031,-0.59765 -0.79688,-0.21094 -0.90234,-0.2461 -1.125,-0.44532 -0.19922,-0.19921 -0.35156,-0.48046 -0.35156,-0.89062 0,-1.00781 1.00781,-2.03906 2.14453,-2.03906 1.17187,0 1.72265,0.72656 1.72265,1.86328 0,0.30469 -0.0586,0.63281 -0.0586,0.67969 0,0.10546 0.0937,0.10546 0.12891,0.10546 0.11718,0 0.1289,-0.0352 0.17578,-0.23437 z m 0,0"
         style="fill:#000000;fill-opacity:1;fill-rule:nonzero;stroke:none" />
      <path
         id="path17"
         d="m 275.2197,276.90015 c 0,-0.10547 -0.082,-0.10547 -0.10547,-0.10547 -0.0586,0 -0.0703,0.0117 -0.21094,0.1875 -0.0703,0.082 -0.5625,0.70312 -0.57422,0.71484 -0.38672,-0.77343 -1.18359,-0.90234 -1.6875,-0.90234 -1.51172,0 -2.88281,1.38281 -2.88281,2.73047 0,0.90234 0.52734,1.42969 1.11328,1.6289 0.14062,0.0469 0.84375,0.2461 1.19531,0.32813 0.60938,0.16406 0.77344,0.21094 1.01953,0.48047 0.0469,0.0586 0.29297,0.32812 0.29297,0.89062 0,1.11328 -1.03125,2.26172 -2.22656,2.26172 -0.98438,0 -2.07422,-0.42187 -2.07422,-1.75781 0,-0.22266 0.0586,-0.51563 0.0937,-0.63281 0,-0.0352 0.0117,-0.0937 0.0117,-0.11719 0,-0.0469 -0.0234,-0.11719 -0.12891,-0.11719 -0.10547,0 -0.11718,0.0234 -0.16406,0.23438 l -0.60937,2.44922 c 0,0.0117 -0.0469,0.16406 -0.0469,0.17578 0,0.10547 0.0937,0.10547 0.11719,0.10547 0.0469,0 0.0586,-0.0117 0.21094,-0.1875 l 0.53906,-0.71485 c 0.29297,0.4336 0.91406,0.90235 2.02734,0.90235 1.53516,0 2.95313,-1.48829 2.95313,-2.98829 0,-0.49218 -0.11719,-0.9375 -0.57422,-1.38281 -0.25781,-0.24609 -0.46875,-0.30469 -1.57031,-0.59765 -0.79688,-0.21094 -0.90235,-0.2461 -1.125,-0.44532 -0.19922,-0.19922 -0.35157,-0.48047 -0.35157,-0.89062 0,-1.00781 1.00782,-2.03906 2.14453,-2.03906 1.17188,0 1.72266,0.72656 1.72266,1.86328 0,0.30468 -0.0586,0.63281 -0.0586,0.67968 0,0.10547 0.0937,0.10547 0.1289,0.10547 0.11719,0 0.12891,-0.0351 0.17578,-0.23437 z m 0,0"
         style="fill:#000000;fill-opacity:1;fill-rule:nonzero;stroke:none" />
      <path
         id="path18"
         d="m 277.332,281.92749 c 0,-0.22265 -0.0234,-0.22265 -0.23437,-0.22265 -0.32813,0.3164 -0.75,0.5039 -1.51172,0.5039 v 0.26953 c 0.22265,0 0.64453,0 1.11328,-0.22265 v 4.08984 c 0,0.29297 -0.0234,0.39844 -0.78516,0.39844 h -0.28125 v 0.25781 c 0.32813,-0.0234 1.01953,-0.0234 1.3711,-0.0234 0.36328,0 1.05468,0 1.38281,0.0234 v -0.25781 h -0.28125 c -0.75,0 -0.77344,-0.10547 -0.77344,-0.39844 z m 0,0"
         style="fill:#000000;fill-opacity:1;fill-rule:nonzero;stroke:none" />
      <path
         id="path19"
         d="m 296.1904,276.90015 c 0,-0.10547 -0.082,-0.10547 -0.10547,-0.10547 -0.0586,0 -0.0703,0.0117 -0.21094,0.1875 -0.0703,0.082 -0.5625,0.70312 -0.57422,0.71484 -0.38672,-0.77343 -1.18359,-0.90234 -1.6875,-0.90234 -1.51172,0 -2.88281,1.38281 -2.88281,2.73047 0,0.90234 0.52734,1.42969 1.11328,1.6289 0.14063,0.0469 0.84375,0.2461 1.19531,0.32813 0.60938,0.16406 0.77344,0.21094 1.01954,0.48047 0.0469,0.0586 0.29296,0.32812 0.29296,0.89062 0,1.11328 -1.03125,2.26172 -2.22656,2.26172 -0.98437,0 -2.07422,-0.42187 -2.07422,-1.75781 0,-0.22266 0.0586,-0.51563 0.0937,-0.63281 0,-0.0352 0.0117,-0.0937 0.0117,-0.11719 0,-0.0469 -0.0234,-0.11719 -0.1289,-0.11719 -0.10547,0 -0.11719,0.0234 -0.16407,0.23438 l -0.60937,2.44922 c 0,0.0117 -0.0469,0.16406 -0.0469,0.17578 0,0.10547 0.0937,0.10547 0.11719,0.10547 0.0469,0 0.0586,-0.0117 0.21094,-0.1875 l 0.53906,-0.71485 c 0.29297,0.4336 0.91406,0.90235 2.02734,0.90235 1.53516,0 2.95313,-1.48829 2.95313,-2.98829 0,-0.49218 -0.11719,-0.9375 -0.57422,-1.38281 -0.25781,-0.24609 -0.46875,-0.30469 -1.57031,-0.59765 -0.79688,-0.21094 -0.90235,-0.2461 -1.125,-0.44532 -0.19922,-0.19922 -0.35156,-0.48047 -0.35156,-0.89062 0,-1.00781 1.00781,-2.03906 2.14453,-2.03906 1.17187,0 1.72265,0.72656 1.72265,1.86328 0,0.30468 -0.0586,0.63281 -0.0586,0.67968 0,0.10547 0.0937,0.10547 0.12891,0.10547 0.11718,0 0.1289,-0.0351 0.17578,-0.23437 z m 0,0"
         style="fill:#000000;fill-opacity:1;fill-rule:nonzero;stroke:none" />
      <path
         id="path20"
         d="m 298.04782,285.3728 c 0.12891,-0.11718 0.45703,-0.375 0.58594,-0.49218 0.49219,-0.45703 0.96094,-0.89063 0.96094,-1.61719 0,-0.94922 -0.79688,-1.55859 -1.79297,-1.55859 -0.94922,0 -1.58203,0.72656 -1.58203,1.42968 0,0.39844 0.3164,0.44532 0.42187,0.44532 0.16406,0 0.41016,-0.11719 0.41016,-0.42188 0,-0.41016 -0.39844,-0.41016 -0.49219,-0.41016 0.23437,-0.58593 0.77344,-0.78515 1.16016,-0.78515 0.73828,0 1.125,0.63281 1.125,1.30078 0,0.83203 -0.58594,1.42969 -1.52344,2.40234 l -1.00781,1.03125 c -0.0937,0.0937 -0.0937,0.10547 -0.0937,0.30469 h 3.15234 l 0.22266,-1.42969 h -0.2461 c -0.0234,0.16407 -0.082,0.5625 -0.17578,0.71485 -0.0469,0.0586 -0.65625,0.0586 -0.78516,0.0586 h -1.41796 z m 0,0"
         style="fill:#000000;fill-opacity:1;fill-rule:nonzero;stroke:none" />
      <path
         id="path21"
         d="m 50.389617,291.34644 c 0,-0.10547 -0.08203,-0.10547 -0.105469,-0.10547 -0.05859,0 -0.07031,0.0117 -0.210937,0.1875 -0.07031,0.082 -0.5625,0.70312 -0.574219,0.71484 -0.386719,-0.77343 -1.183594,-0.90234 -1.6875,-0.90234 -1.511719,0 -2.882812,1.38281 -2.882812,2.73047 0,0.90234 0.527343,1.42969 1.113281,1.6289 0.140625,0.0469 0.84375,0.2461 1.195312,0.32813 0.609375,0.16406 0.773438,0.21094 1.019532,0.48047 0.04687,0.0586 0.292968,0.32812 0.292968,0.89062 0,1.11328 -1.03125,2.26172 -2.226562,2.26172 -0.984375,0 -2.074219,-0.42187 -2.074219,-1.75781 0,-0.22266 0.05859,-0.51563 0.09375,-0.63281 0,-0.0352 0.01172,-0.0937 0.01172,-0.11719 0,-0.0469 -0.02344,-0.11719 -0.128906,-0.11719 -0.105469,0 -0.117188,0.0234 -0.164063,0.23438 l -0.609375,2.44922 c 0,0.0117 -0.04687,0.16406 -0.04687,0.17578 0,0.10547 0.09375,0.10547 0.117188,0.10547 0.04687,0 0.05859,-0.0117 0.210937,-0.1875 l 0.539063,-0.71485 c 0.292968,0.4336 0.914062,0.90235 2.027343,0.90235 1.535157,0 2.953125,-1.48829 2.953125,-2.98829 0,-0.49218 -0.117187,-0.9375 -0.574218,-1.38281 -0.257813,-0.24609 -0.46875,-0.30469 -1.570313,-0.59765 -0.796875,-0.21094 -0.902344,-0.2461 -1.125,-0.44532 -0.199219,-0.19922 -0.351562,-0.48047 -0.351562,-0.89062 0,-1.00781 1.007812,-2.03906 2.144531,-2.03906 1.171875,0 1.722656,0.72656 1.722656,1.86328 0,0.30468 -0.05859,0.63281 -0.05859,0.67968 0,0.10547 0.09375,0.10547 0.128907,0.10547 0.117187,0 0.128906,-0.0351 0.175781,-0.23437 z m 0,0"
         style="fill:#000000;fill-opacity:1;fill-rule:nonzero;stroke:none" />
      <path
         id="path22"
         d="m 52.501922,296.37378 c 0,-0.22265 -0.02344,-0.22265 -0.234375,-0.22265 -0.328125,0.3164 -0.75,0.5039 -1.511719,0.5039 v 0.26953 c 0.222656,0 0.644531,0 1.113281,-0.22265 v 4.08984 c 0,0.29297 -0.02344,0.39844 -0.785156,0.39844 h -0.28125 v 0.25781 c 0.328125,-0.0234 1.019531,-0.0234 1.371094,-0.0234 0.363281,0 1.054687,0 1.382812,0.0234 v -0.25781 h -0.28125 c -0.75,0 -0.773437,-0.10547 -0.773437,-0.39844 z m 0,0"
         style="fill:#000000;fill-opacity:1;fill-rule:nonzero;stroke:none" />
      <path
         id="path23"
         d="m 72.596648,291.34644 c 0,-0.10547 -0.08203,-0.10547 -0.105468,-0.10547 -0.05859,0 -0.07031,0.0117 -0.210938,0.1875 -0.07031,0.082 -0.5625,0.70312 -0.574219,0.71484 -0.386718,-0.77343 -1.183593,-0.90234 -1.6875,-0.90234 -1.511718,0 -2.882812,1.38281 -2.882812,2.73047 0,0.90234 0.527344,1.42969 1.113281,1.6289 0.140625,0.0469 0.84375,0.2461 1.195313,0.32813 0.609375,0.16406 0.773437,0.21094 1.019531,0.48047 0.04687,0.0586 0.292969,0.32812 0.292969,0.89062 0,1.11328 -1.03125,2.26172 -2.226563,2.26172 -0.984375,0 -2.074219,-0.42187 -2.074219,-1.75781 0,-0.22266 0.05859,-0.51563 0.09375,-0.63281 0,-0.0352 0.01172,-0.0937 0.01172,-0.11719 0,-0.0469 -0.02344,-0.11719 -0.128906,-0.11719 -0.105469,0 -0.117188,0.0234 -0.164063,0.23438 l -0.609375,2.44922 c 0,0.0117 -0.04687,0.16406 -0.04687,0.17578 0,0.10547 0.09375,0.10547 0.117188,0.10547 0.04687,0 0.05859,-0.0117 0.210937,-0.1875 l 0.539063,-0.71485 c 0.292969,0.4336 0.914062,0.90235 2.027344,0.90235 1.535156,0 2.953125,-1.48829 2.953125,-2.98829 0,-0.49218 -0.117188,-0.9375 -0.574219,-1.38281 -0.257813,-0.24609 -0.46875,-0.30469 -1.570313,-0.59765 -0.796875,-0.21094 -0.902343,-0.2461 -1.125,-0.44532 -0.199218,-0.19922 -0.351562,-0.48047 -0.351562,-0.89062 0,-1.00781 1.007812,-2.03906 2.144531,-2.03906 1.171875,0 1.722656,0.72656 1.722656,1.86328 0,0.30468 -0.05859,0.63281 -0.05859,0.67968 0,0.10547 0.09375,0.10547 0.128906,0.10547 0.117187,0 0.128906,-0.0351 0.175781,-0.23437 z m 0,0"
         style="fill:#000000;fill-opacity:1;fill-rule:nonzero;stroke:none" />
      <path
         id="path24"
         d="m 74.45407,299.81909 c 0.128907,-0.11718 0.457032,-0.375 0.585938,-0.49218 0.492187,-0.45703 0.960937,-0.89063 0.960937,-1.61719 0,-0.94922 -0.796875,-1.55859 -1.792968,-1.55859 -0.949219,0 -1.582032,0.72656 -1.582032,1.42968 0,0.39844 0.316407,0.44532 0.421875,0.44532 0.164063,0 0.410157,-0.11719 0.410157,-0.42188 0,-0.41016 -0.398438,-0.41016 -0.492188,-0.41016 0.234375,-0.58593 0.773438,-0.78515 1.160156,-0.78515 0.738282,0 1.125,0.63281 1.125,1.30078 0,0.83203 -0.585937,1.42969 -1.523437,2.40234 l -1.007813,1.03125 c -0.09375,0.0937 -0.09375,0.10547 -0.09375,0.30469 h 3.152344 l 0.222656,-1.42969 h -0.246093 c -0.02344,0.16407 -0.08203,0.5625 -0.175782,0.71485 -0.04687,0.0586 -0.65625,0.0586 -0.785156,0.0586 h -1.417969 z m 0,0"
         style="fill:#000000;fill-opacity:1;fill-rule:nonzero;stroke:none" />
      <path
         id="path25"
         d="m 141.9863,292.23706 v -0.28125 h -2.88282 c -1.45312,0 -1.47656,-0.15234 -1.52343,-0.38672 h -0.25782 l -0.375,2.39063 h 0.26954 c 0.0352,-0.21094 0.14062,-0.94922 0.29296,-1.07813 0.0937,-0.0703 0.9961,-0.0703 1.16016,-0.0703 h 2.53125 l -1.26562,1.81641 c -0.31641,0.45703 -1.52344,2.42578 -1.52344,4.66406 0,0.14063 0,0.60938 0.48047,0.60938 0.5039,0 0.5039,-0.45704 0.5039,-0.6211 v -0.59765 c 0,-1.78125 0.29297,-3.16407 0.85547,-3.96094 z m 5.43164,5.41407 h -0.26953 c -0.0352,0.19921 -0.12891,0.85546 -0.2461,1.04296 -0.082,0.11719 -0.76172,0.11719 -1.125,0.11719 h -2.21484 c 0.32812,-0.28125 1.05469,-1.04297 1.37109,-1.33594 1.81641,-1.66406 2.48438,-2.28515 2.48438,-3.46875 0,-1.38281 -1.08985,-2.29687 -2.47266,-2.29687 -1.39453,0 -2.20312,1.18359 -2.20312,2.20312 0,0.60938 0.52734,0.60938 0.5625,0.60938 0.24609,0 0.5625,-0.17578 0.5625,-0.5625 0,-0.32813 -0.23438,-0.55078 -0.5625,-0.55078 -0.10547,0 -0.12891,0 -0.16407,0.0117 0.22266,-0.82032 0.86719,-1.3711 1.64063,-1.3711 1.01953,0 1.64062,0.85547 1.64062,1.95703 0,1.00782 -0.58593,1.89844 -1.26562,2.66016 l -2.41406,2.70703 v 0.28125 h 4.35937 z m 0,0"
         style="fill:#000000;fill-opacity:1;fill-rule:nonzero;stroke:none" />
      <path
         id="path26"
         d="m 330.12204,291.34644 c 0,-0.10547 -0.082,-0.10547 -0.10547,-0.10547 -0.0586,0 -0.0703,0.0117 -0.21094,0.1875 -0.0703,0.082 -0.5625,0.70312 -0.57422,0.71484 -0.38671,-0.77343 -1.18359,-0.90234 -1.6875,-0.90234 -1.51171,0 -2.88281,1.38281 -2.88281,2.73047 0,0.90234 0.52735,1.42969 1.11328,1.6289 0.14063,0.0469 0.84375,0.2461 1.19532,0.32813 0.60937,0.16406 0.77343,0.21094 1.01953,0.48047 0.0469,0.0586 0.29297,0.32812 0.29297,0.89062 0,1.11328 -1.03125,2.26172 -2.22657,2.26172 -0.98437,0 -2.07422,-0.42187 -2.07422,-1.75781 0,-0.22266 0.0586,-0.51563 0.0937,-0.63281 0,-0.0352 0.0117,-0.0937 0.0117,-0.11719 0,-0.0469 -0.0234,-0.11719 -0.1289,-0.11719 -0.10547,0 -0.11719,0.0234 -0.16407,0.23438 l -0.60937,2.44922 c 0,0.0117 -0.0469,0.16406 -0.0469,0.17578 0,0.10547 0.0937,0.10547 0.11719,0.10547 0.0469,0 0.0586,-0.0117 0.21094,-0.1875 l 0.53906,-0.71485 c 0.29297,0.4336 0.91406,0.90235 2.02735,0.90235 1.53515,0 2.95312,-1.48829 2.95312,-2.98829 0,-0.49218 -0.11719,-0.9375 -0.57422,-1.38281 -0.25781,-0.24609 -0.46875,-0.30469 -1.57031,-0.59765 -0.79688,-0.21094 -0.90234,-0.2461 -1.125,-0.44532 -0.19922,-0.19922 -0.35156,-0.48047 -0.35156,-0.89062 0,-1.00781 1.00781,-2.03906 2.14453,-2.03906 1.17187,0 1.72265,0.72656 1.72265,1.86328 0,0.30468 -0.0586,0.63281 -0.0586,0.67968 0,0.10547 0.0937,0.10547 0.12891,0.10547 0.11718,0 0.1289,-0.0351 0.17578,-0.23437 z m 0,0"
         style="fill:#000000;fill-opacity:1;fill-rule:nonzero;stroke:none" />
      <path
         id="path27"
         d="m 41.254852,334.72925 c 0.01172,-0.0469 0.03516,-0.12891 0.03516,-0.1875 0,-0.11719 -0.128906,-0.11719 -0.152344,-0.11719 -0.01172,0 -0.433594,0.0352 -0.65625,0.0586 -0.199219,0.0117 -0.375,0.0351 -0.597656,0.0469 -0.28125,0.0234 -0.363281,0.0352 -0.363281,0.25781 0,0.11719 0.117187,0.11719 0.234375,0.11719 0.609375,0 0.609375,0.10547 0.609375,0.22266 0,0.0469 0,0.0703 -0.05859,0.29297 l -1.710938,6.83203 c -0.04687,0.1875 -0.04687,0.21094 -0.04687,0.28125 0,0.25781 0.199219,0.30469 0.328125,0.30469 0.328125,0 0.398438,-0.25782 0.492188,-0.63282 l 0.5625,-2.23828 c 0.867187,0.10547 1.382812,0.45703 1.382812,1.03125 0,0.0703 0,0.11719 -0.03516,0.30469 -0.04687,0.17578 -0.04687,0.31641 -0.04687,0.375 0,0.69141 0.445313,1.16016 1.054688,1.16016 0.550781,0 0.84375,-0.50391 0.9375,-0.66797 0.246093,-0.44532 0.410156,-1.11328 0.410156,-1.16016 0,-0.0586 -0.04687,-0.10547 -0.128906,-0.10547 -0.105469,0 -0.117188,0.0469 -0.164063,0.23438 -0.164062,0.62109 -0.421875,1.46484 -1.03125,1.46484 -0.234375,0 -0.386719,-0.11719 -0.386719,-0.57422 0,-0.23437 0.04687,-0.49219 0.09375,-0.66797 0.04687,-0.22265 0.04687,-0.23437 0.04687,-0.375 0,-0.70312 -0.632812,-1.10156 -1.734375,-1.24218 0.433594,-0.25782 0.867188,-0.72657 1.03125,-0.91407 0.679688,-0.76172 1.148438,-1.13672 1.699219,-1.13672 0.269531,0 0.339844,0.0703 0.421875,0.14063 -0.433594,0.0469 -0.609375,0.35156 -0.609375,0.59766 0,0.28125 0.234375,0.375 0.398438,0.375 0.328125,0 0.609375,-0.26954 0.609375,-0.65625 0,-0.33985 -0.269532,-0.70313 -0.808594,-0.70313 -0.65625,0 -1.195313,0.46875 -2.050781,1.42969 -0.117188,0.14062 -0.5625,0.59765 -0.996094,0.76172 z m 0,0"
         style="fill:#000000;fill-opacity:1;fill-rule:nonzero;stroke:none" />
      <path
         id="path28"
         d="m 73.932586,358.30445 c 0.01172,-0.0469 0.03516,-0.12891 0.03516,-0.1875 0,-0.11719 -0.128906,-0.11719 -0.152344,-0.11719 -0.01172,0 -0.433593,0.0352 -0.65625,0.0586 -0.199218,0.0117 -0.375,0.0352 -0.597656,0.0469 -0.28125,0.0234 -0.363281,0.0351 -0.363281,0.25781 0,0.11719 0.117187,0.11719 0.234375,0.11719 0.609375,0 0.609375,0.10547 0.609375,0.22265 0,0.0469 0,0.0703 -0.05859,0.29297 l -1.710937,6.83203 c -0.04687,0.1875 -0.04687,0.21094 -0.04687,0.28125 0,0.25782 0.199218,0.30469 0.328125,0.30469 0.328125,0 0.398437,-0.25781 0.492187,-0.63281 l 0.5625,-2.23828 c 0.867188,0.10547 1.382813,0.45703 1.382813,1.03125 0,0.0703 0,0.11718 -0.03516,0.30468 -0.04687,0.17579 -0.04687,0.31641 -0.04687,0.375 0,0.69141 0.445313,1.16016 1.054688,1.16016 0.550781,0 0.84375,-0.50391 0.9375,-0.66797 0.246094,-0.44531 0.410156,-1.11328 0.410156,-1.16015 0,-0.0586 -0.04687,-0.10547 -0.128906,-0.10547 -0.105469,0 -0.117188,0.0469 -0.164063,0.23437 -0.164062,0.6211 -0.421875,1.46485 -1.03125,1.46485 -0.234375,0 -0.386718,-0.11719 -0.386718,-0.57422 0,-0.23438 0.04687,-0.49219 0.09375,-0.66797 0.04687,-0.22266 0.04687,-0.23438 0.04687,-0.375 0,-0.70313 -0.632813,-1.10156 -1.734375,-1.24219 0.433593,-0.25781 0.867187,-0.72656 1.03125,-0.91406 0.679687,-0.76172 1.148437,-1.13672 1.699218,-1.13672 0.269532,0 0.339844,0.0703 0.421875,0.14062 -0.433593,0.0469 -0.609375,0.35157 -0.609375,0.59766 0,0.28125 0.234375,0.375 0.398438,0.375 0.328125,0 0.609375,-0.26953 0.609375,-0.65625 0,-0.33984 -0.269531,-0.70312 -0.808594,-0.70312 -0.65625,0 -1.195312,0.46875 -2.050781,1.42968 -0.117188,0.14063 -0.5625,0.59766 -0.996094,0.76172 z m 0,0"
         style="fill:#000000;fill-opacity:1;fill-rule:nonzero;stroke:none" />
      <path
         id="path29"
         d="m 84.48532,363.53101 h 3.304688 c 0.164062,0 0.375,0 0.375,-0.21094 0,-0.22266 -0.199219,-0.22266 -0.375,-0.22266 H 84.48532 v -3.30468 c 0,-0.16407 0,-0.38672 -0.210937,-0.38672 -0.234375,0 -0.234375,0.21094 -0.234375,0.38672 v 3.30468 h -3.292969 c -0.175781,0 -0.386719,0 -0.386719,0.21094 0,0.22266 0.199219,0.22266 0.386719,0.22266 h 3.292969 v 3.30469 c 0,0.16406 0,0.38671 0.222656,0.38671 0.222656,0 0.222656,-0.21093 0.222656,-0.38671 z m 12.251953,0.76172 h -0.269531 c -0.03516,0.19922 -0.128906,0.85547 -0.246094,1.04297 -0.08203,0.11718 -0.761718,0.11718 -1.125,0.11718 h -2.214843 c 0.328125,-0.28125 1.054687,-1.04297 1.371093,-1.33593 1.816407,-1.66407 2.484375,-2.28516 2.484375,-3.46875 0,-1.38282 -1.089843,-2.29688 -2.472656,-2.29688 -1.394531,0 -2.203125,1.18359 -2.203125,2.20313 0,0.60937 0.527344,0.60937 0.5625,0.60937 0.246094,0 0.5625,-0.17578 0.5625,-0.5625 0,-0.32812 -0.234375,-0.55078 -0.5625,-0.55078 -0.105469,0 -0.128906,0 -0.164062,0.0117 0.222656,-0.82031 0.867187,-1.3711 1.640625,-1.3711 1.019531,0 1.640625,0.85547 1.640625,1.95704 0,1.00781 -0.585938,1.89843 -1.265625,2.66015 l -2.414063,2.70703 v 0.28125 h 4.359375 z m 5.944337,-1.81641 c 0,-0.99609 -0.0586,-1.96875 -0.49219,-2.87109 -0.49219,-0.9961 -1.34765,-1.25391 -1.93359,-1.25391 -0.691408,0 -1.546877,0.33984 -1.980471,1.33594 -0.339843,0.75 -0.457031,1.48828 -0.457031,2.78906 0,1.16016 0.08203,2.02734 0.515625,2.87109 0.457031,0.91407 1.289063,1.19532 1.910157,1.19532 1.04297,0 1.64062,-0.6211 1.98047,-1.3125 0.43359,-0.89063 0.45703,-2.0625 0.45703,-2.75391 z m -2.4375,3.83203 c -0.386719,0 -1.160157,-0.21094 -1.382813,-1.52344 -0.140625,-0.71484 -0.140625,-1.61718 -0.140625,-2.46093 0,-0.97266 0,-1.86328 0.199219,-2.56641 0.199218,-0.79687 0.808593,-1.17187 1.324219,-1.17187 0.45703,0 1.14844,0.28125 1.37109,1.30078 0.15235,0.67968 0.15235,1.6289 0.15235,2.4375 0,0.80859 0,1.71093 -0.12891,2.4375 -0.22266,1.32422 -0.97266,1.54687 -1.39453,1.54687 z m 6.38086,-7.67578 c 0,-0.26953 0,-0.28125 -0.24609,-0.28125 -0.28125,0.31641 -0.87891,0.76172 -2.10938,0.76172 v 0.35156 c 0.26953,0 0.86719,0 1.52344,-0.3164 v 6.22265 c 0,0.4336 -0.0352,0.57422 -1.07813,0.57422 h -0.375 v 0.35156 c 0.31641,-0.0234 1.47657,-0.0234 1.875,-0.0234 0.39844,0 1.54688,0 1.86328,0.0234 v -0.35156 h -0.36328 c -1.05468,0 -1.08984,-0.14062 -1.08984,-0.57422 z m 3.87305,3.50391 c 0,-3.02344 1.47656,-3.50391 2.12109,-3.50391 0.43359,0 0.85547,0.12891 1.08984,0.49219 -0.14062,0 -0.59765,0 -0.59765,0.49219 0,0.25781 0.17578,0.49218 0.49218,0.49218 0.29297,0 0.49219,-0.1875 0.49219,-0.52734 0,-0.62109 -0.44531,-1.23047 -1.48828,-1.23047 -1.51172,0 -3.08203,1.53516 -3.08203,4.17188 0,3.28125 1.42969,4.01953 2.44922,4.01953 1.30078,0 2.41406,-1.125 2.41406,-2.6836 0,-1.59375 -1.11328,-2.66015 -2.30859,-2.66015 -1.06641,0 -1.45313,0.92578 -1.58203,1.26562 z m 1.47656,4.08984 c -0.75,0 -1.11328,-0.66797 -1.21875,-0.92578 -0.10547,-0.30469 -0.22266,-0.89063 -0.22266,-1.73438 0,-0.9375 0.42188,-2.12109 1.5,-2.12109 0.65625,0 1.00781,0.44531 1.1836,0.84375 0.1875,0.44531 0.1875,1.04297 0.1875,1.55859 0,0.60938 0,1.14844 -0.22266,1.60547 -0.30469,0.57422 -0.72656,0.77344 -1.20703,0.77344 z m 0,0"
         style="fill:#000000;fill-opacity:1;fill-rule:nonzero;stroke:none" />
    </g>
    <path
       id="path30"
       d="M 0,0 H 44.319"
       style="fill:none;stroke:#000000;stroke-width:0.478;stroke-linecap:butt;stroke-linejoin:miter;stroke-miterlimit:10;stroke-dasharray:none;stroke-opacity:1"
       transform="matrix(1.3333333,0,0,-1.3333333,368.816,551.26533)" />
    <g
       id="g30"
       aria-label="k+2018&#10;jestcaªkowita.&#10;ZADANIE5.&#10;Konikpolnyskaczewzdªu»prostej.Pierwszyskokmadªugo±¢1cm,drugi3cm(wt¦sam¡&#10;lubwprzeciwn¡stron¦),nast¦pny5cm,itakdalej.Czymo»esi¦zdarzy¢,»epo99skokach&#10;konikpolnyznajdziesi¦wpunkciewyj±cia?"
       transform="matrix(1.3333333,0,0,1.3333333,368.816,566.184)">
      <path
         id="path31"
         d="m 3.3635859,-7.9924922 c 0.011719,-0.046875 0.035156,-0.1289062 0.035156,-0.1875 0,-0.1171875 -0.1289063,-0.1171875 -0.1523438,-0.1171875 -0.011719,0 -0.4335937,0.035156 -0.65625,0.058594 -0.1992187,0.011719 -0.375,0.035156 -0.5976562,0.046875 -0.28125,0.023437 -0.3632813,0.035156 -0.3632813,0.2578125 0,0.1171875 0.1171875,0.1171875 0.234375,0.1171875 0.609375,0 0.609375,0.1054687 0.609375,0.2226562 0,0.046875 0,0.070312 -0.058594,0.2929688 l -1.71093751,6.83203121 c -0.046875,0.1875 -0.046875,0.2109375 -0.046875,0.28125 0,0.2578125 0.19921875,0.3046875 0.328125,0.3046875 0.32812501,0 0.39843751,-0.2578125 0.49218751,-0.6328125 l 0.5625,-2.23828121 c 0.8671875,0.1054687 1.3828125,0.4570312 1.3828125,1.03125 0,0.070312 0,0.1171875 -0.035156,0.3046875 -0.046875,0.1757812 -0.046875,0.3164062 -0.046875,0.375 0,0.69140621 0.4453125,1.16015621 1.0546875,1.16015621 0.5507813,0 0.84375,-0.50390625 0.9375,-0.66796875 0.2460938,-0.4453125 0.4101563,-1.11328126 0.4101563,-1.16015626 0,-0.058594 -0.046875,-0.1054687 -0.1289063,-0.1054687 -0.1054687,0 -0.1171875,0.046875 -0.1640625,0.234375 -0.1640625,0.62109371 -0.421875,1.46484371 -1.03125,1.46484371 -0.234375,0 -0.3867187,-0.1171875 -0.3867187,-0.57421875 0,-0.234375 0.046875,-0.49218746 0.09375,-0.66796876 0.046875,-0.2226562 0.046875,-0.234375 0.046875,-0.375 0,-0.703125 -0.6328125,-1.1015625 -1.734375,-1.2421875 0.4335937,-0.2578125 0.8671875,-0.7265625 1.03125,-0.9140625 0.6796875,-0.7617187 1.1484375,-1.1367187 1.6992187,-1.1367187 0.2695313,0 0.3398438,0.070312 0.421875,0.140625 -0.4335937,0.046875 -0.609375,0.3515625 -0.609375,0.5976562 0,0.28125 0.234375,0.375 0.3984375,0.375 0.328125,0 0.609375,-0.2695312 0.609375,-0.65625 0,-0.3398437 -0.2695312,-0.703125 -0.8085937,-0.703125 -0.65625,0 -1.1953125,0.46875 -2.0507813,1.4296875 -0.1171875,0.140625 -0.5625,0.5976563 -0.9960937,0.7617188 z m 0,0"
         style="fill:#000000;fill-opacity:1;fill-rule:nonzero;stroke:none" />
      <path
         id="path32"
         d="m 13.91632,-2.7659297 h 3.304688 c 0.164062,0 0.375,0 0.375,-0.2109375 0,-0.2226562 -0.199219,-0.2226562 -0.375,-0.2226562 H 13.91632 v -3.3046875 c 0,-0.1640625 0,-0.3867188 -0.210937,-0.3867188 -0.234375,0 -0.234375,0.2109375 -0.234375,0.3867188 v 3.3046875 h -3.292969 c -0.175781,0 -0.3867187,0 -0.3867187,0.2109375 0,0.2226562 0.1992188,0.2226562 0.3867187,0.2226562 h 3.292969 v 3.30468751 c 0,0.1640625 0,0.38671875 0.222656,0.38671875 0.222656,0 0.222656,-0.2109375 0.222656,-0.38671875 z m 12.251953,0.7617188 h -0.269531 c -0.03516,0.1992187 -0.128906,0.8554687 -0.246094,1.04296871 -0.08203,0.1171875 -0.761718,0.1171875 -1.125,0.1171875 h -2.214843 c 0.328125,-0.28125001 1.054687,-1.04296871 1.371093,-1.33593751 1.816407,-1.6640625 2.484375,-2.2851562 2.484375,-3.46875 0,-1.3828125 -1.089843,-2.296875 -2.472656,-2.296875 -1.394531,0 -2.203125,1.1835938 -2.203125,2.203125 0,0.609375 0.527344,0.609375 0.5625,0.609375 0.246094,0 0.5625,-0.1757812 0.5625,-0.5625 0,-0.328125 -0.234375,-0.5507812 -0.5625,-0.5507812 -0.105469,0 -0.128906,0 -0.164062,0.011719 0.222656,-0.8203125 0.867187,-1.3710937 1.640625,-1.3710937 1.019531,0 1.640625,0.8554687 1.640625,1.9570312 0,1.0078125 -0.585938,1.8984375 -1.265625,2.6601563 l -2.414063,2.70703121 v 0.2812500025 h 4.359375 z m 5.944336,-1.8164063 c 0,-0.9960937 -0.05859,-1.96875 -0.492187,-2.8710937 -0.492188,-0.9960938 -1.347656,-1.2539063 -1.933594,-1.2539063 -0.691406,0 -1.546875,0.3398438 -1.980469,1.3359375 -0.339843,0.75 -0.457031,1.4882813 -0.457031,2.7890625 0,1.1601563 0.08203,2.0273438 0.515625,2.87109376 0.457031,0.9140625 1.289063,1.1953125 1.910156,1.1953125 1.042969,0 1.640625,-0.62109375 1.980469,-1.31249996 0.433594,-0.890625 0.457031,-2.0625 0.457031,-2.7539063 z m -2.4375,3.83203126 c -0.386718,0 -1.160156,-0.2109375 -1.382812,-1.52343746 -0.140625,-0.7148438 -0.140625,-1.6171875 -0.140625,-2.4609375 0,-0.9726563 0,-1.8632813 0.199219,-2.5664063 0.199218,-0.796875 0.808593,-1.171875 1.324218,-1.171875 0.457032,0 1.148438,0.28125 1.371094,1.3007813 0.152344,0.6796875 0.152344,1.6289062 0.152344,2.4375 0,0.8085937 0,1.7109375 -0.128906,2.4375 -0.222657,1.32421871 -0.972657,1.54687496 -1.394532,1.54687496 z m 6.38086,-7.67578126 c 0,-0.2695312 0,-0.28125 -0.246094,-0.28125 -0.28125,0.3164063 -0.878906,0.7617188 -2.109375,0.7617188 v 0.3515625 c 0.269531,0 0.867187,0 1.523437,-0.3164063 v 6.22265626 c 0,0.43359375 -0.03516,0.57421875 -1.078125,0.57421875 h -0.375 v 0.3515625025 c 0.316407,-0.0234375025 1.476563,-0.0234375025 1.875,-0.0234375025 0.398438,0 1.546875,0 1.863282,0.0234375025 V -0.35186719 h -0.363282 c -1.054687,0 -1.089843,-0.140625 -1.089843,-0.57421875 z m 5.970703,3.3515625 c 0.597656,-0.328125 1.464844,-0.8789062 1.464844,-1.875 0,-1.0429687 -0.996094,-1.7578125 -2.097657,-1.7578125 -1.183593,0 -2.121093,0.8671875 -2.121093,1.9570313 0,0.4101562 0.128906,0.8085937 0.457031,1.21875 0.128906,0.1523437 0.140625,0.1640625 0.984375,0.75 -1.160156,0.5390625 -1.757813,1.3476562 -1.757813,2.2148437 0,1.26562501 1.207032,2.05078126 2.425782,2.05078126 1.324218,0 2.4375,-0.97265625 2.4375,-2.22656246 0,-1.21875 -0.855469,-1.7578125 -1.792969,-2.3320313 z m -1.628906,-1.078125 c -0.152344,-0.1054687 -0.632813,-0.421875 -0.632813,-1.0078125 0,-0.7734375 0.820313,-1.265625 1.617188,-1.265625 0.855468,0 1.628906,0.6210938 1.628906,1.4882813 0,0.7265625 -0.527344,1.3125 -1.21875,1.6875 z m 0.5625,1.546875 1.453125,0.9375 c 0.304687,0.1992188 0.855468,0.5742188 0.855468,1.3007813 0,0.91406246 -0.914062,1.53515621 -1.875,1.53515621 -1.019531,0 -1.886718,-0.73828125 -1.886718,-1.73437501 0,-0.9375 0.679687,-1.6875 1.453125,-2.0390625 z m 0,0"
         style="fill:#000000;fill-opacity:1;fill-rule:nonzero;stroke:none" />
      <path
         id="path33"
         d="m 114.31378,57.500672 c 0,-0.269531 0,-0.28125 -0.24609,-0.28125 -0.28125,0.316406 -0.87891,0.761719 -2.10938,0.761719 v 0.351562 c 0.26953,0 0.86719,0 1.52344,-0.316406 v 6.222656 c 0,0.433594 -0.0352,0.574219 -1.07813,0.574219 h -0.375 v 0.351562 c 0.31641,-0.02344 1.47657,-0.02344 1.875,-0.02344 0.39844,0 1.54688,0 1.86329,0.02344 v -0.351562 h -0.36329 c -1.05468,0 -1.08984,-0.140625 -1.08984,-0.574219 z m 0,0"
         style="fill:#000000;fill-opacity:1;fill-rule:nonzero;stroke:none" />
      <path
         id="path34"
         d="m 177.5423,60.875672 c -0.21094,0.01172 -0.25782,0.02344 -0.25782,0.128906 0,0.117188 0.0586,0.117188 0.28125,0.117188 h 0.55079 c 1.00781,0 1.46484,0.84375 1.46484,1.992187 0,1.558594 -0.80859,1.980469 -1.39453,1.980469 -0.57422,0 -1.5586,-0.28125 -1.89844,-1.066406 0.375,0.05859 0.72656,-0.152344 0.72656,-0.585938 0,-0.339844 -0.25781,-0.585937 -0.58593,-0.585937 -0.29297,0 -0.59766,0.164062 -0.59766,0.621093 0,1.066407 1.06641,1.933594 2.39062,1.933594 1.41797,0 2.47266,-1.078125 2.47266,-2.285156 0,-1.101563 -0.89062,-1.96875 -2.02734,-2.167969 1.03125,-0.304687 1.69922,-1.171875 1.69922,-2.109375 0,-0.9375 -0.97266,-1.628906 -2.13282,-1.628906 -1.19531,0 -2.08593,0.726562 -2.08593,1.59375 0,0.480469 0.375,0.574219 0.55078,0.574219 0.25781,0 0.53906,-0.175782 0.53906,-0.539063 0,-0.375 -0.28125,-0.539062 -0.55078,-0.539062 -0.0703,0 -0.0937,0 -0.12891,0.01172 0.45703,-0.820312 1.58203,-0.820312 1.64063,-0.820312 0.38672,0 1.17187,0.175781 1.17187,1.347656 0,0.234375 -0.0351,0.902344 -0.38672,1.417969 -0.35156,0.527344 -0.76172,0.5625 -1.08984,0.574219 z m 0,0"
         style="fill:#000000;fill-opacity:1;fill-rule:nonzero;stroke:none" />
      <path
         id="path35"
         d="m -35.551453,72.764344 c 0.503906,0.164062 0.925781,0.175781 1.054687,0.175781 1.359375,0 2.214844,-0.996094 2.214844,-1.160156 0,-0.04687 -0.02344,-0.105469 -0.09375,-0.105469 -0.02344,0 -0.04687,0 -0.152344,0.04687 -0.667968,0.28125 -1.242187,0.316406 -1.558593,0.316406 -0.785157,0 -1.347657,-0.234375 -1.582032,-0.328125 -0.08203,-0.03516 -0.105468,-0.03516 -0.117187,-0.03516 -0.09375,0 -0.09375,0.07031 -0.09375,0.257813 v 3.550781 c 0,0.210937 0,0.292969 0.140625,0.292969 0.05859,0 0.07031,-0.01172 0.199219,-0.164063 0.328125,-0.492187 0.890625,-0.773437 1.488281,-0.773437 0.632812,0 0.949219,0.585937 1.042969,0.785156 0.199218,0.46875 0.210937,1.054687 0.210937,1.511719 0,0.457031 0,1.136718 -0.328125,1.675781 -0.269531,0.421875 -0.738281,0.726562 -1.253906,0.726562 -0.796875,0 -1.570313,-0.539062 -1.78125,-1.40625 0.05859,0.02344 0.128906,0.03516 0.1875,0.03516 0.199219,0 0.527344,-0.128907 0.527344,-0.527344 0,-0.339844 -0.234375,-0.527344 -0.527344,-0.527344 -0.210938,0 -0.527344,0.105469 -0.527344,0.574219 0,1.007812 0.808594,2.167969 2.144531,2.167969 1.347657,0 2.53125,-1.125 2.53125,-2.648438 0,-1.417969 -0.960937,-2.601562 -2.214843,-2.601562 -0.679688,0 -1.207032,0.292968 -1.511719,0.632812 z m 0,0"
         style="fill:#000000;fill-opacity:1;fill-rule:nonzero;stroke:none" />
      <path
         id="path36"
         d="m 212.388,76.127625 c 0,2.824219 -1.25391,3.410156 -1.96875,3.410156 -0.28125,0 -0.92578,-0.03516 -1.21875,-0.457031 h 0.0703 c 0.082,0.02344 0.51563,-0.04687 0.51563,-0.492187 0,-0.257813 -0.17578,-0.492188 -0.49219,-0.492188 -0.30469,0 -0.50391,0.210938 -0.50391,0.515625 0,0.75 0.59766,1.242188 1.64063,1.242188 1.5,0 2.9414,-1.582032 2.9414,-4.183594 0,-3.210938 -1.33593,-4.007813 -2.39062,-4.007813 -1.3125,0 -2.47266,1.101563 -2.47266,2.671875 0,1.582032 1.11328,2.660157 2.3086,2.660157 0.8789,0 1.33593,-0.644532 1.57031,-1.253907 z m -1.52344,0.621094 c -0.75,0 -1.07812,-0.609375 -1.18359,-0.832031 -0.19922,-0.457032 -0.19922,-1.03125 -0.19922,-1.570313 0,-0.667969 0,-1.242187 0.31641,-1.734375 0.21093,-0.316406 0.53906,-0.667969 1.18359,-0.667969 0.67969,0 1.03125,0.597657 1.14844,0.878907 0.23437,0.585937 0.23437,1.59375 0.23437,1.78125 0,0.996093 -0.44531,2.144531 -1.5,2.144531 z m 7.37696,-0.621094 c 0,2.824219 -1.25391,3.410156 -1.96875,3.410156 -0.28125,0 -0.92579,-0.03516 -1.21875,-0.457031 h 0.0703 c 0.082,0.02344 0.51562,-0.04687 0.51562,-0.492187 0,-0.257813 -0.17578,-0.492188 -0.49218,-0.492188 -0.30469,0 -0.50391,0.210938 -0.50391,0.515625 0,0.75 0.59766,1.242188 1.64062,1.242188 1.5,0 2.94141,-1.582032 2.94141,-4.183594 0,-3.210938 -1.33594,-4.007813 -2.39062,-4.007813 -1.3125,0 -2.47266,1.101563 -2.47266,2.671875 0,1.582032 1.11328,2.660157 2.30859,2.660157 0.87891,0 1.33594,-0.644532 1.57032,-1.253907 z m -1.52344,0.621094 c -0.75,0 -1.07813,-0.609375 -1.1836,-0.832031 -0.19921,-0.457032 -0.19921,-1.03125 -0.19921,-1.570313 0,-0.667969 0,-1.242187 0.3164,-1.734375 0.21094,-0.316406 0.53906,-0.667969 1.1836,-0.667969 0.67968,0 1.03125,0.597657 1.14843,0.878907 0.23438,0.585937 0.23438,1.59375 0.23438,1.78125 0,0.996093 -0.44531,2.144531 -1.5,2.144531 z m 0,0"
         style="fill:#000000;fill-opacity:1;fill-rule:nonzero;stroke:none" />
    </g>
  </g>
</svg>
