<?xml version="1.0" encoding="UTF-8" standalone="no"?>
<!-- Created with Inkscape (http://www.inkscape.org/) -->

<svg
   version="1.1"
   id="svg1"
   width="794.55066"
   height="1123.6533"
   viewBox="0 0 794.55066 1123.6533"
   sodipodi:docname="LigaMatematycznaMatuskiego_Liceum_Zestaw2_2022_2023_page0.pdf"
   xmlns:inkscape="http://www.inkscape.org/namespaces/inkscape"
   xmlns:sodipodi="http://sodipodi.sourceforge.net/DTD/sodipodi-0.dtd"
   xmlns="http://www.w3.org/2000/svg"
   xmlns:svg="http://www.w3.org/2000/svg">
  <defs
     id="defs1" />
  <sodipodi:namedview
     id="namedview1"
     pagecolor="#ffffff"
     bordercolor="#000000"
     borderopacity="0.25"
     inkscape:showpageshadow="2"
     inkscape:pageopacity="0.0"
     inkscape:pagecheckerboard="0"
     inkscape:deskcolor="#d1d1d1">
    <inkscape:page
       x="0"
       y="0"
       inkscape:label="1"
       id="page1"
       width="794.55066"
       height="1123.6533"
       margin="0"
       bleed="0" />
  </sodipodi:namedview>
  <g
     id="g1"
     inkscape:groupmode="layer"
     inkscape:label="1">
    <g
       id="g2"
       aria-label="LIGAMATEMATYCZNA&#10;im.ZdzisªawaMatuskiego&#10;LISTOPAD2022&#10;SZKOAPONADPODSTAWOWA&#10;ZADANIE1.&#10;Uzasadnij,»eczworok¡twypukªyABCD,wktórymobwodytrójk¡tówABC,BCD,CDA&#10;iDABs¡równe,jestprostok¡tem.&#10;ZADANIE2.&#10;Znajd¹wszystkieliczbypierwszep,qtakie,»ep&#10;2&#10;−6q&#10;2&#10;=1.&#10;ZADANIE3.&#10;Natablicywypisanoliczby1,2,3,...,10.Ruchpoleganawybraniutrzechliczba,b,cizast¡-&#10;pieniuichliczbami2a+b,2b+c,2c+a.Czypowykonaniupewnejliczbytakichoperacjina&#10;tablicyotrzymamydziesi¦¢równychliczb?&#10;ZADANIE4.&#10;Dodatnialiczbacaªkowitaamadwadzielnikinaturalne,liczbaa+1matrzydzielnikinaturalne.&#10;Iledzielnikównaturalnychmaliczbaa+2?&#10;ZADANIE5.&#10;Wzbiorzeliczbrzeczywistychrozwi¡»ukªadrówna«&#10;&#10;&#10;&#10;&#10;&#10;&#10;&#10;2x&#10;2&#10;+&#10;1"
       transform="matrix(1.3333333,0,0,1.3333333,274.724,56.069333)">
      <path
         id="path2"
         d="m 33.39743,108.48999 c -0.410157,0.70313 -0.820313,0.9375 -1.394532,0.97266 -0.128906,0.0117 -0.222656,0.0117 -0.222656,0.23437 0,0.0703 0.05859,0.11719 0.140625,0.11719 0.210938,0 0.75,-0.0234 0.972656,-0.0234 0.339844,0 0.726563,0.0234 1.054688,0.0234 0.07031,0 0.222656,0 0.222656,-0.22266 0,-0.11718 -0.09375,-0.1289 -0.175781,-0.1289 -0.269531,-0.0234 -0.492188,-0.11719 -0.492188,-0.39844 0,-0.17578 0.07031,-0.30469 0.222657,-0.5625 l 0.902343,-1.51172 h 3.058594 c 0.01172,0.10547 0.01172,0.21094 0.02344,0.31641 0.03516,0.30469 0.175781,1.54687 0.175781,1.78125 0,0.35156 -0.609375,0.375 -0.796875,0.375 -0.140625,0 -0.269531,0 -0.269531,0.22265 0,0.12891 0.105468,0.12891 0.175781,0.12891 0.210937,0 0.445312,-0.0234 0.65625,-0.0234 h 0.679687 c 0.726563,0 1.253907,0.0234 1.265625,0.0234 0.08203,0 0.210938,0 0.210938,-0.22266 0,-0.1289 -0.105469,-0.1289 -0.28125,-0.1289 -0.65625,0 -0.667969,-0.10547 -0.714844,-0.45703 l -0.726562,-7.46485 c -0.02344,-0.23437 -0.07031,-0.25781 -0.199219,-0.25781 -0.117188,0 -0.1875,0.0234 -0.304688,0.19922 z m 1.441406,-1.83984 2.402344,-4.01953 0.410156,4.01953 z m 9.679687,-4.1836 c 0.117188,-0.44531 0.164063,-0.46875 0.621094,-0.46875 h 1.558594 c 1.347656,0 1.347656,1.14844 1.347656,1.25391 0,0.97266 -0.960937,2.20313 -2.542969,2.20313 h -1.722656 z m 2.027344,3.08204 c 1.300781,-0.2461 2.484375,-1.14844 2.484375,-2.25 0,-0.92579 -0.832031,-1.65235 -2.179687,-1.65235 h -3.832032 c -0.234375,0 -0.339843,0 -0.339843,0.23438 0,0.11718 0.105468,0.11718 0.292968,0.11718 0.726563,0 0.726563,0.0937 0.726563,0.22266 0,0.0234 0,0.0937 -0.04687,0.28125 l -1.617188,6.43359 c -0.105468,0.41016 -0.128906,0.52735 -0.960937,0.52735 -0.234375,0 -0.351563,0 -0.351563,0.22265 0,0.12891 0.07031,0.12891 0.304688,0.12891 h 4.101562 c 1.828125,0 3.246094,-1.38281 3.246094,-2.58984 0,-0.98438 -0.867187,-1.58203 -1.828125,-1.67578 z m -1.699219,3.91406 h -1.617187 c -0.164063,0 -0.1875,0 -0.257813,-0.0117 -0.128906,-0.0117 -0.152343,-0.0352 -0.152343,-0.12891 0,-0.082 0.03516,-0.15234 0.05859,-0.25781 l 0.832032,-3.375 h 2.25 c 1.40625,0 1.40625,1.3125 1.40625,1.40625 0,1.14844 -1.042969,2.36719 -2.519532,2.36719 z m 13.719727,-7.95703 c 0,-0.10547 -0.08203,-0.10547 -0.105469,-0.10547 -0.02344,0 -0.07031,0 -0.175781,0.11719 l -0.820312,1.00781 c -0.421875,-0.71485 -1.078125,-1.125 -1.96875,-1.125 -2.589844,0 -5.261719,2.61328 -5.261719,5.42578 0,1.99219 1.394531,3.23437 3.140625,3.23437 0.960937,0 1.792969,-0.39843 2.484375,-0.98437 1.042969,-0.87891 1.359375,-2.03906 1.359375,-2.13281 0,-0.10547 -0.09375,-0.10547 -0.140625,-0.10547 -0.105469,0 -0.117188,0.0703 -0.140625,0.11719 -0.550781,1.86328 -2.15625,2.76562 -3.351563,2.76562 -1.277343,0 -2.367187,-0.82031 -2.367187,-2.50781 0,-0.38672 0.117187,-2.46094 1.464844,-4.03125 0.65625,-0.76172 1.78125,-1.44141 2.917968,-1.44141 1.3125,0 1.898438,1.08985 1.898438,2.3086 0,0.3164 -0.03516,0.57421 -0.03516,0.62109 0,0.11719 0.117187,0.11719 0.152343,0.11719 0.140625,0 0.152344,-0.0117 0.199219,-0.23438 z m 2.182617,7.42968 c -0.105469,0.41016 -0.128906,0.52735 -0.960937,0.52735 -0.234375,0 -0.351563,0 -0.351563,0.22265 0,0.12891 0.07031,0.12891 0.304688,0.12891 h 3.796875 c 2.414062,0 4.769531,-2.49609 4.769531,-5.16797 0,-1.72265 -1.03125,-3 -2.742188,-3 h -3.832031 c -0.234375,0 -0.339844,0 -0.339844,0.23438 0,0.11718 0.105469,0.11718 0.292969,0.11718 0.726563,0 0.726563,0.0937 0.726563,0.22266 0,0.0234 0,0.0937 -0.04687,0.28125 z m 2.519531,-6.46875 c 0.117188,-0.44531 0.164063,-0.46875 0.621094,-0.46875 h 1.324219 c 1.113281,0 2.144531,0.60938 2.144531,2.26172 0,0.59766 -0.234375,2.67188 -1.394531,3.98438 -0.339844,0.39844 -1.242188,1.21875 -2.625,1.21875 h -1.359375 c -0.164063,0 -0.1875,0 -0.257813,-0.0117 -0.128906,-0.0117 -0.140625,-0.0352 -0.140625,-0.12891 0,-0.082 0.02344,-0.15234 0.04687,-0.25781 z m 0,0"
         style="fill:#000000;fill-opacity:1;fill-rule:nonzero;stroke:none" />
      <path
         id="path3"
         d="m 234.27731,108.48999 c -0.41015,0.70313 -0.82031,0.9375 -1.39453,0.97266 -0.1289,0.0117 -0.22265,0.0117 -0.22265,0.23437 0,0.0703 0.0586,0.11719 0.14062,0.11719 0.21094,0 0.75,-0.0234 0.97266,-0.0234 0.33984,0 0.72656,0.0234 1.05468,0.0234 0.0703,0 0.22266,0 0.22266,-0.22266 0,-0.11718 -0.0937,-0.1289 -0.17578,-0.1289 -0.26953,-0.0234 -0.49219,-0.11719 -0.49219,-0.39844 0,-0.17578 0.0703,-0.30469 0.22266,-0.5625 l 0.90234,-1.51172 h 3.0586 c 0.0117,0.10547 0.0117,0.21094 0.0234,0.31641 0.0352,0.30469 0.17578,1.54687 0.17578,1.78125 0,0.35156 -0.60937,0.375 -0.79687,0.375 -0.14063,0 -0.26953,0 -0.26953,0.22265 0,0.12891 0.10547,0.12891 0.17578,0.12891 0.21094,0 0.44531,-0.0234 0.65625,-0.0234 h 0.67969 c 0.72656,0 1.2539,0.0234 1.26562,0.0234 0.082,0 0.21094,0 0.21094,-0.22266 0,-0.1289 -0.10547,-0.1289 -0.28125,-0.1289 -0.65625,0 -0.66797,-0.10547 -0.71484,-0.45703 l -0.72657,-7.46485 c -0.0234,-0.23437 -0.0703,-0.25781 -0.19922,-0.25781 -0.11718,0 -0.1875,0.0234 -0.30468,0.19922 z m 1.44141,-1.83984 2.40234,-4.01953 0.41016,4.01953 z m 9.67969,-4.1836 c 0.11718,-0.44531 0.16406,-0.46875 0.62109,-0.46875 h 1.55859 c 1.34766,0 1.34766,1.14844 1.34766,1.25391 0,0.97266 -0.96094,2.20313 -2.54297,2.20313 h -1.72265 z m 2.02734,3.08204 c 1.30078,-0.2461 2.48438,-1.14844 2.48438,-2.25 0,-0.92579 -0.83204,-1.65235 -2.17969,-1.65235 h -3.83203 c -0.23438,0 -0.33985,0 -0.33985,0.23438 0,0.11718 0.10547,0.11718 0.29297,0.11718 0.72656,0 0.72656,0.0937 0.72656,0.22266 0,0.0234 0,0.0937 -0.0469,0.28125 l -1.61719,6.43359 c -0.10547,0.41016 -0.1289,0.52735 -0.96094,0.52735 -0.23437,0 -0.35156,0 -0.35156,0.22265 0,0.12891 0.0703,0.12891 0.30469,0.12891 h 4.10156 c 1.82813,0 3.2461,-1.38281 3.2461,-2.58984 0,-0.98438 -0.86719,-1.58203 -1.82813,-1.67578 z m -1.69922,3.91406 h -1.61719 c -0.16406,0 -0.1875,0 -0.25781,-0.0117 -0.1289,-0.0117 -0.15234,-0.0352 -0.15234,-0.12891 0,-0.082 0.0352,-0.15234 0.0586,-0.25781 l 0.83203,-3.375 h 2.25 c 1.40625,0 1.40625,1.3125 1.40625,1.40625 0,1.14844 -1.04297,2.36719 -2.51953,2.36719 z m 13.71973,-7.95703 c 0,-0.10547 -0.082,-0.10547 -0.10547,-0.10547 -0.0234,0 -0.0703,0 -0.17578,0.11719 l -0.82031,1.00781 c -0.42188,-0.71485 -1.07813,-1.125 -1.96875,-1.125 -2.58985,0 -5.26172,2.61328 -5.26172,5.42578 0,1.99219 1.39453,3.23437 3.14062,3.23437 0.96094,0 1.79297,-0.39843 2.48438,-0.98437 1.04297,-0.87891 1.35937,-2.03906 1.35937,-2.13281 0,-0.10547 -0.0937,-0.10547 -0.14062,-0.10547 -0.10547,0 -0.11719,0.0703 -0.14063,0.11719 -0.55078,1.86328 -2.15625,2.76562 -3.35156,2.76562 -1.27734,0 -2.36719,-0.82031 -2.36719,-2.50781 0,-0.38672 0.11719,-2.46094 1.46485,-4.03125 0.65625,-0.76172 1.78125,-1.44141 2.91796,-1.44141 1.3125,0 1.89844,1.08985 1.89844,2.3086 0,0.3164 -0.0351,0.57421 -0.0351,0.62109 0,0.11719 0.11718,0.11719 0.15234,0.11719 0.14062,0 0.15234,-0.0117 0.19922,-0.23438 z m 0,0"
         style="fill:#000000;fill-opacity:1;fill-rule:nonzero;stroke:none" />
      <path
         id="path4"
         d="m 272.67087,102.46655 c 0.11718,-0.44531 0.16406,-0.46875 0.62109,-0.46875 h 1.55859 c 1.34766,0 1.34766,1.14844 1.34766,1.25391 0,0.97266 -0.96094,2.20313 -2.54297,2.20313 h -1.72265 z m 2.02734,3.08204 c 1.30078,-0.2461 2.48438,-1.14844 2.48438,-2.25 0,-0.92579 -0.83204,-1.65235 -2.17969,-1.65235 h -3.83203 c -0.23438,0 -0.33985,0 -0.33985,0.23438 0,0.11718 0.10547,0.11718 0.29297,0.11718 0.72656,0 0.72656,0.0937 0.72656,0.22266 0,0.0234 0,0.0937 -0.0469,0.28125 l -1.61719,6.43359 c -0.10547,0.41016 -0.1289,0.52735 -0.96094,0.52735 -0.23437,0 -0.35156,0 -0.35156,0.22265 0,0.12891 0.0703,0.12891 0.30469,0.12891 h 4.10156 c 1.82813,0 3.2461,-1.38281 3.2461,-2.58984 0,-0.98438 -0.86719,-1.58203 -1.82813,-1.67578 z m -1.69922,3.91406 h -1.61719 c -0.16406,0 -0.1875,0 -0.25781,-0.0117 -0.1289,-0.0117 -0.15234,-0.0352 -0.15234,-0.12891 0,-0.082 0.0351,-0.15234 0.0586,-0.25781 l 0.83203,-3.375 h 2.25 c 1.40625,0 1.40625,1.3125 1.40625,1.40625 0,1.14844 -1.04297,2.36719 -2.51953,2.36719 z m 13.72266,-7.95703 c 0,-0.10547 -0.082,-0.10547 -0.10547,-0.10547 -0.0234,0 -0.0703,0 -0.17578,0.11719 l -0.82031,1.00781 c -0.42188,-0.71485 -1.07813,-1.125 -1.96875,-1.125 -2.58985,0 -5.26172,2.61328 -5.26172,5.42578 0,1.99219 1.39453,3.23437 3.14062,3.23437 0.96094,0 1.79297,-0.39843 2.48438,-0.98437 1.04297,-0.87891 1.35937,-2.03906 1.35937,-2.13281 0,-0.10547 -0.0937,-0.10547 -0.14062,-0.10547 -0.10547,0 -0.11719,0.0703 -0.14063,0.11719 -0.55078,1.86328 -2.15625,2.76562 -3.35156,2.76562 -1.27734,0 -2.36719,-0.82031 -2.36719,-2.50781 0,-0.38672 0.11719,-2.46094 1.46485,-4.03125 0.65625,-0.76172 1.78125,-1.44141 2.91796,-1.44141 1.3125,0 1.89844,1.08985 1.89844,2.3086 0,0.3164 -0.0351,0.57421 -0.0351,0.62109 0,0.11719 0.11718,0.11719 0.15234,0.11719 0.14062,0 0.15234,-0.0117 0.19922,-0.23438 z m 2.17969,7.42968 c -0.10547,0.41016 -0.12891,0.52735 -0.96094,0.52735 -0.23438,0 -0.35156,0 -0.35156,0.22265 0,0.12891 0.0703,0.12891 0.30468,0.12891 h 3.79688 c 2.41406,0 4.76953,-2.49609 4.76953,-5.16797 0,-1.72265 -1.03125,-3 -2.74219,-3 h -3.83203 c -0.23437,0 -0.33984,0 -0.33984,0.23438 0,0.11718 0.10547,0.11718 0.29297,0.11718 0.72656,0 0.72656,0.0937 0.72656,0.22266 0,0.0234 0,0.0937 -0.0469,0.28125 z m 2.51953,-6.46875 c 0.11718,-0.44531 0.16406,-0.46875 0.62109,-0.46875 h 1.32422 c 1.11328,0 2.14453,0.60938 2.14453,2.26172 0,0.59766 -0.23437,2.67188 -1.39453,3.98438 -0.33984,0.39844 -1.24219,1.21875 -2.625,1.21875 h -1.35938 c -0.16406,0 -0.1875,0 -0.25781,-0.0117 -0.1289,-0.0117 -0.14062,-0.0352 -0.14062,-0.12891 0,-0.082 0.0234,-0.15234 0.0469,-0.25781 z m 0,0"
         style="fill:#000000;fill-opacity:1;fill-rule:nonzero;stroke:none" />
      <path
         id="path5"
         d="m 314.55075,101.50562 c 0,-0.10547 -0.082,-0.10547 -0.10547,-0.10547 -0.0234,0 -0.0703,0 -0.17578,0.11719 l -0.82031,1.00781 c -0.42188,-0.71485 -1.07813,-1.125 -1.96875,-1.125 -2.58985,0 -5.26172,2.61328 -5.26172,5.42578 0,1.99219 1.39453,3.23437 3.14062,3.23437 0.96094,0 1.79297,-0.39843 2.48438,-0.98437 1.04297,-0.87891 1.35937,-2.03906 1.35937,-2.13281 0,-0.10547 -0.0937,-0.10547 -0.14062,-0.10547 -0.10547,0 -0.11719,0.0703 -0.14063,0.11719 -0.55078,1.86328 -2.15625,2.76562 -3.35156,2.76562 -1.27734,0 -2.36719,-0.82031 -2.36719,-2.50781 0,-0.38672 0.11719,-2.46094 1.46485,-4.03125 0.65625,-0.76172 1.78125,-1.44141 2.91797,-1.44141 1.3125,0 1.89843,1.08985 1.89843,2.3086 0,0.3164 -0.0351,0.57421 -0.0351,0.62109 0,0.11719 0.11719,0.11719 0.15234,0.11719 0.14063,0 0.15235,-0.0117 0.19922,-0.23438 z m 2.17969,7.42968 c -0.10547,0.41016 -0.12891,0.52735 -0.96094,0.52735 -0.23437,0 -0.35156,0 -0.35156,0.22265 0,0.12891 0.0703,0.12891 0.30469,0.12891 h 3.79687 c 2.41406,0 4.76953,-2.49609 4.76953,-5.16797 0,-1.72265 -1.03125,-3 -2.74219,-3 h -3.83203 c -0.23437,0 -0.33984,0 -0.33984,0.23438 0,0.11718 0.10547,0.11718 0.29297,0.11718 0.72656,0 0.72656,0.0937 0.72656,0.22266 0,0.0234 0,0.0937 -0.0469,0.28125 z m 2.51953,-6.46875 c 0.11719,-0.44531 0.16406,-0.46875 0.62109,-0.46875 h 1.32422 c 1.11328,0 2.14453,0.60938 2.14453,2.26172 0,0.59766 -0.23437,2.67188 -1.39453,3.98438 -0.33984,0.39844 -1.24219,1.21875 -2.625,1.21875 h -1.35937 c -0.16407,0 -0.1875,0 -0.25782,-0.0117 -0.1289,-0.0117 -0.14062,-0.0352 -0.14062,-0.12891 0,-0.082 0.0234,-0.15234 0.0469,-0.25781 z m 7.67578,6.02344 c -0.41016,0.70313 -0.82031,0.9375 -1.39453,0.97266 -0.12891,0.0117 -0.22266,0.0117 -0.22266,0.23437 0,0.0703 0.0586,0.11719 0.14063,0.11719 0.21094,0 0.75,-0.0234 0.97265,-0.0234 0.33985,0 0.72657,0.0234 1.05469,0.0234 0.0703,0 0.22266,0 0.22266,-0.22266 0,-0.11718 -0.0937,-0.1289 -0.17578,-0.1289 -0.26953,-0.0234 -0.49219,-0.11719 -0.49219,-0.39844 0,-0.17578 0.0703,-0.30469 0.22266,-0.5625 l 0.90234,-1.51172 h 3.05859 c 0.0117,0.10547 0.0117,0.21094 0.0234,0.31641 0.0352,0.30469 0.17578,1.54687 0.17578,1.78125 0,0.35156 -0.60937,0.375 -0.79687,0.375 -0.14063,0 -0.26953,0 -0.26953,0.22265 0,0.12891 0.10546,0.12891 0.17578,0.12891 0.21093,0 0.44531,-0.0234 0.65625,-0.0234 h 0.67968 c 0.72657,0 1.25391,0.0234 1.26563,0.0234 0.082,0 0.21094,0 0.21094,-0.22266 0,-0.1289 -0.10547,-0.1289 -0.28125,-0.1289 -0.65625,0 -0.66797,-0.10547 -0.71485,-0.45703 l -0.72656,-7.46485 c -0.0234,-0.23437 -0.0703,-0.25781 -0.19922,-0.25781 -0.11719,0 -0.1875,0.0234 -0.30469,0.19922 z m 1.44141,-1.83984 2.40234,-4.01953 0.41016,4.01953 z m 0,0"
         style="fill:#000000;fill-opacity:1;fill-rule:nonzero;stroke:none" />
      <path
         id="path6"
         d="m -139.19046,123.38159 c -0.10547,0.41016 -0.12891,0.52735 -0.96094,0.52735 -0.23437,0 -0.35156,0 -0.35156,0.22265 0,0.12891 0.0703,0.12891 0.30469,0.12891 h 3.79687 c 2.41406,0 4.76953,-2.49609 4.76953,-5.16797 0,-1.72265 -1.03125,-3 -2.74218,-3 h -3.83204 c -0.23437,0 -0.33984,0 -0.33984,0.23438 0,0.11718 0.10547,0.11718 0.29297,0.11718 0.72656,0 0.72656,0.0937 0.72656,0.22266 0,0.0234 0,0.0937 -0.0469,0.28125 z m 2.51953,-6.46875 c 0.11719,-0.44531 0.16406,-0.46875 0.62109,-0.46875 h 1.32422 c 1.11328,0 2.14453,0.60938 2.14453,2.26172 0,0.59766 -0.23437,2.67188 -1.39453,3.98438 -0.33984,0.39844 -1.24218,1.21875 -2.625,1.21875 h -1.35937 c -0.16406,0 -0.1875,0 -0.25781,-0.0117 -0.12891,-0.0117 -0.14063,-0.0352 -0.14063,-0.12891 0,-0.082 0.0234,-0.15234 0.0469,-0.25781 z m 7.67578,6.02344 c -0.41015,0.70313 -0.82031,0.9375 -1.39453,0.97266 -0.12891,0.0117 -0.22266,0.0117 -0.22266,0.23437 0,0.0703 0.0586,0.11719 0.14063,0.11719 0.21094,0 0.75,-0.0234 0.97266,-0.0234 0.33984,0 0.72656,0.0234 1.05468,0.0234 0.0703,0 0.22266,0 0.22266,-0.22266 0,-0.11718 -0.0937,-0.1289 -0.17578,-0.1289 -0.26953,-0.0234 -0.49219,-0.11719 -0.49219,-0.39844 0,-0.17578 0.0703,-0.30469 0.22266,-0.5625 l 0.90234,-1.51172 h 3.05859 c 0.0117,0.10547 0.0117,0.21094 0.0234,0.31641 0.0352,0.30469 0.17578,1.54687 0.17578,1.78125 0,0.35156 -0.60937,0.375 -0.79687,0.375 -0.14063,0 -0.26953,0 -0.26953,0.22265 0,0.12891 0.10547,0.12891 0.17578,0.12891 0.21094,0 0.44531,-0.0234 0.65625,-0.0234 h 0.67969 c 0.72656,0 1.2539,0.0234 1.26562,0.0234 0.082,0 0.21094,0 0.21094,-0.22266 0,-0.1289 -0.10547,-0.1289 -0.28125,-0.1289 -0.65625,0 -0.66797,-0.10547 -0.71485,-0.45703 l -0.72656,-7.46485 c -0.0234,-0.23437 -0.0703,-0.25781 -0.19922,-0.25781 -0.11718,0 -0.1875,0.0234 -0.30468,0.19922 z m 1.44141,-1.83984 2.40234,-4.01953 0.41016,4.01953 z m 9.67969,-4.1836 c 0.11718,-0.44531 0.16406,-0.46875 0.62109,-0.46875 h 1.55859 c 1.34766,0 1.34766,1.14844 1.34766,1.25391 0,0.97266 -0.96094,2.20313 -2.54297,2.20313 h -1.72266 z m 2.02734,3.08204 c 1.30078,-0.2461 2.48437,-1.14844 2.48437,-2.25 0,-0.92579 -0.83203,-1.65235 -2.17968,-1.65235 h -3.83203 c -0.23438,0 -0.33985,0 -0.33985,0.23438 0,0.11718 0.10547,0.11718 0.29297,0.11718 0.72656,0 0.72656,0.0937 0.72656,0.22266 0,0.0234 0,0.0937 -0.0469,0.28125 l -1.61719,6.43359 c -0.10547,0.41016 -0.12891,0.52735 -0.96094,0.52735 -0.23437,0 -0.35156,0 -0.35156,0.22265 0,0.12891 0.0703,0.12891 0.30469,0.12891 h 4.10156 c 1.82813,0 3.24609,-1.38281 3.24609,-2.58984 0,-0.98438 -0.86718,-1.58203 -1.82812,-1.67578 z m -1.69922,3.91406 h -1.61719 c -0.16406,0 -0.1875,0 -0.25781,-0.0117 -0.12891,-0.0117 -0.15234,-0.0352 -0.15234,-0.12891 0,-0.082 0.0351,-0.15234 0.0586,-0.25781 l 0.83203,-3.375 h 2.25 c 1.40625,0 1.40625,1.3125 1.40625,1.40625 0,1.14844 -1.04297,2.36719 -2.51953,2.36719 z m 0,0"
         style="fill:#000000;fill-opacity:1;fill-rule:nonzero;stroke:none" />
      <path
         id="path7"
         d="m 23.817352,168.84741 c -0.08203,0.35157 -0.128907,0.44532 -0.621094,0.44532 -0.140625,0 -0.269531,0 -0.269531,0.23437 0,0.0234 0.01172,0.11719 0.152343,0.11719 0.152344,0 0.316407,-0.0234 0.46875,-0.0234 h 0.515625 c 0.257813,0 0.867188,0.0234 1.113282,0.0234 0.07031,0 0.222656,0 0.222656,-0.21094 0,-0.14062 -0.09375,-0.14062 -0.292969,-0.14062 -0.550781,0 -0.585937,-0.082 -0.585937,-0.17578 0,-0.14063 0.539062,-2.20313 0.609375,-2.47266 0.128906,0.32812 0.457031,0.79687 1.078125,0.79687 1.347656,0 2.8125,-1.75781 2.8125,-3.51562 0,-1.10156 -0.621094,-1.875 -1.523438,-1.875 -0.761719,0 -1.40625,0.73828 -1.546875,0.91406 -0.09375,-0.59765 -0.550781,-0.91406 -1.03125,-0.91406 -0.351562,0 -0.621094,0.16406 -0.855469,0.62109 -0.210937,0.4336 -0.375,1.16016 -0.375,1.20703 0,0.0469 0.04687,0.10547 0.128907,0.10547 0.09375,0 0.105468,-0.0117 0.175781,-0.28125 0.175781,-0.70312 0.410156,-1.40625 0.890625,-1.40625 0.269531,0 0.363281,0.1875 0.363281,0.53907 0,0.29296 -0.03516,0.41015 -0.08203,0.63281 z m 2.0625,-5.25 c 0.08203,-0.33984 0.421875,-0.67968 0.609375,-0.85546 0.140625,-0.11719 0.527343,-0.44532 0.984375,-0.44532 0.527343,0 0.761718,0.51563 0.761718,1.13672 0,0.57422 -0.328125,1.9336 -0.632812,2.55469 -0.292969,0.64453 -0.84375,1.21875 -1.394531,1.21875 -0.808594,0 -0.949219,-1.03125 -0.949219,-1.07813 0,-0.0351 0.02344,-0.1289 0.03516,-0.1875 z m 0,0"
         style="fill:#000000;fill-opacity:1;fill-rule:nonzero;stroke:none" />
      <path
         id="path8"
         d="m 41.600555,162.16773 c 0,-0.0586 -0.04687,-0.10547 -0.105469,-0.10547 -0.105469,0 -0.5625,0.43359 -0.796875,0.85547 -0.210938,-0.53907 -0.585938,-0.86719 -1.101563,-0.86719 -1.347656,0 -2.800781,1.74609 -2.800781,3.51562 0,1.1836 0.691406,1.875 1.5,1.875 0.632813,0 1.160156,-0.48046 1.417969,-0.75 l 0.01172,0.0117 c -0.152344,0.58594 -0.304688,1.1836 -0.457032,1.79297 l -0.105468,0.4336 c -0.105469,0.35156 -0.292969,0.35156 -0.855469,0.36328 -0.128906,0 -0.246094,0 -0.246094,0.23437 0,0.082 0.07031,0.11719 0.152344,0.11719 0.164062,0 0.386719,-0.0234 0.550781,-0.0234 h 1.21875 c 0.175781,0 0.386719,0.0234 0.5625,0.0234 0.07031,0 0.210938,0 0.210938,-0.22266 0,-0.1289 -0.09375,-0.1289 -0.269532,-0.1289 -0.5625,0 -0.597656,-0.082 -0.597656,-0.17578 0,-0.0586 0.01172,-0.0703 0.04687,-0.22266 z m -1.6875,3.73828 c -0.05859,0.19922 -0.05859,0.22265 -0.222657,0.44531 -0.269531,0.33984 -0.796875,0.85547 -1.359375,0.85547 -0.480468,0 -0.761718,-0.44531 -0.761718,-1.14844 0,-0.65625 0.375,-1.99219 0.597656,-2.49609 0.410156,-0.84375 0.972656,-1.26563 1.429687,-1.26563 0.796875,0 0.949219,0.97266 0.949219,1.06641 0,0.0117 -0.03516,0.17578 -0.04687,0.19922 z m 0,0"
         style="fill:#000000;fill-opacity:1;fill-rule:nonzero;stroke:none" />
      <path
         id="path9"
         d="m 92.852508,168.84741 c -0.08203,0.35157 -0.128906,0.44532 -0.621094,0.44532 -0.140625,0 -0.269531,0 -0.269531,0.23437 0,0.0234 0.01172,0.11719 0.152344,0.11719 0.152343,0 0.316406,-0.0234 0.46875,-0.0234 h 0.515625 c 0.257812,0 0.867187,0.0234 1.113281,0.0234 0.07031,0 0.222656,0 0.222656,-0.21094 0,-0.14062 -0.09375,-0.14062 -0.292969,-0.14062 -0.550781,0 -0.585937,-0.082 -0.585937,-0.17578 0,-0.14063 0.539062,-2.20313 0.609375,-2.47266 0.128906,0.32812 0.457031,0.79687 1.078125,0.79687 1.347656,0 2.8125,-1.75781 2.8125,-3.51562 0,-1.10156 -0.621094,-1.875 -1.523438,-1.875 -0.761718,0 -1.40625,0.73828 -1.546875,0.91406 -0.09375,-0.59765 -0.550781,-0.91406 -1.03125,-0.91406 -0.351562,0 -0.621093,0.16406 -0.855468,0.62109 -0.210938,0.4336 -0.375,1.16016 -0.375,1.20703 0,0.0469 0.04687,0.10547 0.128906,0.10547 0.09375,0 0.105469,-0.0117 0.175781,-0.28125 0.175781,-0.70312 0.410156,-1.40625 0.890625,-1.40625 0.269531,0 0.363281,0.1875 0.363281,0.53907 0,0.29296 -0.03516,0.41015 -0.08203,0.63281 z m 2.0625,-5.25 c 0.08203,-0.33984 0.421875,-0.67968 0.609375,-0.85546 0.140625,-0.11719 0.527344,-0.44532 0.984375,-0.44532 0.527344,0 0.761719,0.51563 0.761719,1.13672 0,0.57422 -0.328125,1.9336 -0.632813,2.55469 -0.292969,0.64453 -0.84375,1.21875 -1.394531,1.21875 -0.808594,0 -0.949219,-1.03125 -0.949219,-1.07813 0,-0.0351 0.02344,-0.1289 0.03516,-0.1875 z m 0,0"
         style="fill:#000000;fill-opacity:1;fill-rule:nonzero;stroke:none" />
      <path
         id="path10"
         d="m 100.46091,161.35913 c 0.1289,-0.11718 0.45703,-0.375 0.58593,-0.49218 0.49219,-0.45704 0.96094,-0.89063 0.96094,-1.61719 0,-0.94922 -0.79687,-1.5586 -1.79297,-1.5586 -0.949216,0 -1.582029,0.72657 -1.582029,1.42969 0,0.39844 0.316407,0.44531 0.421875,0.44531 0.164063,0 0.410157,-0.11718 0.410157,-0.42187 0,-0.41016 -0.398438,-0.41016 -0.492188,-0.41016 0.234375,-0.58593 0.773438,-0.78515 1.160155,-0.78515 0.73828,0 1.125,0.63281 1.125,1.30078 0,0.83203 -0.58594,1.42969 -1.523436,2.40234 l -1.007813,1.03125 c -0.09375,0.0937 -0.09375,0.10547 -0.09375,0.30469 h 3.152349 l 0.22265,-1.42969 h -0.24609 c -0.0234,0.16406 -0.082,0.5625 -0.17578,0.71485 -0.0469,0.0586 -0.65625,0.0586 -0.78516,0.0586 h -1.417969 z m 0,0"
         style="fill:#000000;fill-opacity:1;fill-rule:nonzero;stroke:none" />
      <path
         id="path11"
         d="m 113.49802,164.57007 c 0.17578,0 0.39843,0 0.39843,-0.23437 0,-0.23438 -0.22265,-0.23438 -0.39843,-0.23438 h -6.51563 c -0.16406,0 -0.38672,0 -0.38672,0.23438 0,0.23437 0.22266,0.23437 0.38672,0.23437 z m 0,0"
         style="fill:#000000;fill-opacity:1;fill-rule:nonzero;stroke:none" />
      <path
         id="path12"
         d="m 119.02048,163.16382 c 0,-3.02344 1.47656,-3.50391 2.12109,-3.50391 0.43359,0 0.85547,0.12891 1.08984,0.49219 -0.14062,0 -0.59765,0 -0.59765,0.49219 0,0.25781 0.17578,0.49219 0.49219,0.49219 0.29296,0 0.49218,-0.1875 0.49218,-0.52735 0,-0.62109 -0.44531,-1.23047 -1.48828,-1.23047 -1.51172,0 -3.08203,1.53516 -3.08203,4.17188 0,3.28125 1.42969,4.01953 2.44922,4.01953 1.30078,0 2.41406,-1.125 2.41406,-2.68359 0,-1.59375 -1.11328,-2.66016 -2.30859,-2.66016 -1.06641,0 -1.45313,0.92578 -1.58203,1.26563 z m 1.47656,4.08984 c -0.75,0 -1.11328,-0.66796 -1.21875,-0.92578 -0.10547,-0.30468 -0.22266,-0.89062 -0.22266,-1.73437 0,-0.9375 0.42188,-2.1211 1.5,-2.1211 0.65625,0 1.00782,0.44532 1.1836,0.84375 0.1875,0.44532 0.1875,1.04297 0.1875,1.5586 0,0.60937 0,1.14844 -0.22266,1.60547 -0.30469,0.57422 -0.72656,0.77343 -1.20703,0.77343 z m 0,0"
         style="fill:#000000;fill-opacity:1;fill-rule:nonzero;stroke:none" />
      <path
         id="path13"
         d="m 128.68259,162.16773 c 0,-0.0586 -0.0469,-0.10547 -0.10547,-0.10547 -0.10547,0 -0.5625,0.43359 -0.79688,0.85547 -0.21094,-0.53907 -0.58594,-0.86719 -1.10156,-0.86719 -1.34766,0 -2.80078,1.74609 -2.80078,3.51562 0,1.1836 0.6914,1.875 1.5,1.875 0.63281,0 1.16015,-0.48046 1.41797,-0.75 l 0.0117,0.0117 c -0.15235,0.58594 -0.30469,1.1836 -0.45704,1.79297 l -0.10546,0.4336 c -0.10547,0.35156 -0.29297,0.35156 -0.85547,0.36328 -0.12891,0 -0.2461,0 -0.2461,0.23437 0,0.082 0.0703,0.11719 0.15235,0.11719 0.16406,0 0.38672,-0.0234 0.55078,-0.0234 h 1.21875 c 0.17578,0 0.38672,0.0234 0.5625,0.0234 0.0703,0 0.21094,0 0.21094,-0.22266 0,-0.1289 -0.0937,-0.1289 -0.26954,-0.1289 -0.5625,0 -0.59765,-0.082 -0.59765,-0.17578 0,-0.0586 0.0117,-0.0703 0.0469,-0.22266 z m -1.6875,3.73828 c -0.0586,0.19922 -0.0586,0.22265 -0.22266,0.44531 -0.26953,0.33984 -0.79688,0.85547 -1.35938,0.85547 -0.48046,0 -0.76171,-0.44531 -0.76171,-1.14844 0,-0.65625 0.375,-1.99219 0.59765,-2.49609 0.41016,-0.84375 0.97266,-1.26563 1.42969,-1.26563 0.79687,0 0.94922,0.97266 0.94922,1.06641 0,0.0117 -0.0352,0.17578 -0.0469,0.19922 z m 0,0"
         style="fill:#000000;fill-opacity:1;fill-rule:nonzero;stroke:none" />
      <path
         id="path14"
         d="m 131.27829,161.35913 c 0.12891,-0.11718 0.45703,-0.375 0.58594,-0.49218 0.49218,-0.45704 0.96093,-0.89063 0.96093,-1.61719 0,-0.94922 -0.79687,-1.5586 -1.79296,-1.5586 -0.94922,0 -1.58204,0.72657 -1.58204,1.42969 0,0.39844 0.31641,0.44531 0.42188,0.44531 0.16406,0 0.41016,-0.11718 0.41016,-0.42187 0,-0.41016 -0.39844,-0.41016 -0.49219,-0.41016 0.23437,-0.58593 0.77344,-0.78515 1.16015,-0.78515 0.73829,0 1.125,0.63281 1.125,1.30078 0,0.83203 -0.58593,1.42969 -1.52343,2.40234 l -1.00782,1.03125 c -0.0937,0.0937 -0.0937,0.10547 -0.0937,0.30469 h 3.15235 l 0.22265,-1.42969 h -0.24609 c -0.0234,0.16406 -0.082,0.5625 -0.17578,0.71485 -0.0469,0.0586 -0.65625,0.0586 -0.78516,0.0586 h -1.41797 z m 0,0"
         style="fill:#000000;fill-opacity:1;fill-rule:nonzero;stroke:none" />
      <path
         id="path15"
         d="m 145.15622,163.45679 c 0.16406,0 0.375,0 0.375,-0.22266 0,-0.22265 -0.19922,-0.22265 -0.375,-0.22265 h -7.04297 c -0.17578,0 -0.38672,0 -0.38672,0.21093 0,0.23438 0.19922,0.23438 0.38672,0.23438 z m 0,2.21484 c 0.16406,0 0.375,0 0.375,-0.21093 0,-0.23438 -0.19922,-0.23438 -0.375,-0.23438 h -7.04297 c -0.17578,0 -0.38672,0 -0.38672,0.22266 0,0.22265 0.19922,0.22265 0.38672,0.22265 z m 7.79883,-6.01172 c 0,-0.26953 0,-0.28125 -0.2461,-0.28125 -0.28125,0.31641 -0.8789,0.76172 -2.10937,0.76172 v 0.35157 c 0.26953,0 0.86719,0 1.52344,-0.31641 v 6.22266 c 0,0.43359 -0.0352,0.57421 -1.07813,0.57421 h -0.375 v 0.35157 c 0.31641,-0.0234 1.47656,-0.0234 1.875,-0.0234 0.39844,0 1.54688,0 1.86328,0.0234 v -0.35157 h -0.36328 c -1.05469,0 -1.08984,-0.14062 -1.08984,-0.57421 z m 0,0"
         style="fill:#000000;fill-opacity:1;fill-rule:nonzero;stroke:none" />
      <path
         id="path16"
         d="m -3.6601875,202.72632 c 0,-0.26953 0,-0.28125 -0.2460937,-0.28125 -0.28125,0.31641 -0.8789063,0.76172 -2.109375,0.76172 v 0.35156 c 0.2695312,0 0.8671875,0 1.5234375,-0.3164 v 6.22265 c 0,0.4336 -0.035156,0.57422 -1.078125,0.57422 h -0.375 v 0.35156 c 0.3164062,-0.0234 1.4765625,-0.0234 1.875,-0.0234 0.3984375,0 1.546875,0 1.8632812,0.0234 v -0.35156 h -0.3632812 c -1.0546875,0 -1.0898438,-0.14062 -1.0898438,-0.57422 z m 0,0"
         style="fill:#000000;fill-opacity:1;fill-rule:nonzero;stroke:none" />
      <path
         id="path17"
         d="m 1.0800469,210.43726 c 0,-0.69141 -0.22265627,-1.20703 -0.71484377,-1.20703 -0.38671875,0 -0.57421875,0.3164 -0.57421875,0.57422 0,0.25781 0.17578125,0.58593 0.5859375,0.58593 0.15234375,0 0.28125,-0.0469 0.38671875,-0.15234 0.0234375,-0.0234 0.0351563,-0.0234 0.046875,-0.0234 0.0351563,0 0.0351563,0.16406 0.0351563,0.22266 0,0.39844 -0.0820313,1.17187 -0.7734375,1.94531 -0.12890625,0.15234 -0.12890625,0.17578 -0.12890625,0.19922 0,0.0586 0.05859375,0.11719 0.1171875,0.11719 0.09375,0 1.01953122,-0.89063 1.01953122,-2.26172 z m 0,0"
         style="fill:#000000;fill-opacity:1;fill-rule:nonzero;stroke:none" />
      <path
         id="path18"
         d="M 9.253875,208.38648 H 8.9843438 c -0.035156,0.19922 -0.1289063,0.85547 -0.2460938,1.04297 -0.082031,0.11718 -0.7617187,0.11718 -1.125,0.11718 H 5.3984063 c 0.328125,-0.28125 1.0546875,-1.04297 1.3710937,-1.33593 1.8164063,-1.66407 2.484375,-2.28516 2.484375,-3.46875 0,-1.38282 -1.0898437,-2.29688 -2.4726562,-2.29688 -1.3945313,0 -2.203125,1.18359 -2.203125,2.20313 0,0.60937 0.5273437,0.60937 0.5625,0.60937 0.2460937,0 0.5625,-0.17578 0.5625,-0.5625 0,-0.32812 -0.234375,-0.55078 -0.5625,-0.55078 -0.1054688,0 -0.1289063,0 -0.1640625,0.0117 0.2226562,-0.82031 0.8671875,-1.3711 1.640625,-1.3711 1.0195312,0 1.640625,0.85547 1.640625,1.95704 0,1.00781 -0.5859375,1.89843 -1.265625,2.66015 l -2.4140625,2.70703 v 0.28125 h 4.359375 z m 0,0"
         style="fill:#000000;fill-opacity:1;fill-rule:nonzero;stroke:none" />
      <path
         id="path19"
         d="m 12.174773,210.43726 c 0,-0.69141 -0.222656,-1.20703 -0.714843,-1.20703 -0.386719,0 -0.574219,0.3164 -0.574219,0.57422 0,0.25781 0.175781,0.58593 0.585937,0.58593 0.152344,0 0.28125,-0.0469 0.386719,-0.15234 0.02344,-0.0234 0.03516,-0.0234 0.04687,-0.0234 0.03516,0 0.03516,0.16406 0.03516,0.22266 0,0.39844 -0.08203,1.17187 -0.773437,1.94531 -0.128906,0.15234 -0.128906,0.17578 -0.128906,0.19922 0,0.0586 0.05859,0.11719 0.117187,0.11719 0.09375,0 1.019531,-0.89063 1.019531,-2.26172 z m 0,0"
         style="fill:#000000;fill-opacity:1;fill-rule:nonzero;stroke:none" />
      <path
         id="path20"
         d="m 17.292938,206.10132 c -0.210938,0.0117 -0.257813,0.0234 -0.257813,0.12891 0,0.11718 0.05859,0.11718 0.28125,0.11718 h 0.550781 c 1.007813,0 1.464844,0.84375 1.464844,1.99219 0,1.5586 -0.808594,1.98047 -1.394531,1.98047 -0.574219,0 -1.558594,-0.28125 -1.898438,-1.06641 0.375,0.0586 0.726563,-0.15234 0.726563,-0.58593 0,-0.33985 -0.257813,-0.58594 -0.585938,-0.58594 -0.292968,0 -0.597656,0.16406 -0.597656,0.62109 0,1.06641 1.066406,1.9336 2.390625,1.9336 1.417969,0 2.472656,-1.07813 2.472656,-2.28516 0,-1.10156 -0.890625,-1.96875 -2.027343,-2.16797 1.03125,-0.30469 1.699218,-1.17187 1.699218,-2.10937 0,-0.9375 -0.972656,-1.62891 -2.132812,-1.62891 -1.195313,0 -2.085938,0.72656 -2.085938,1.59375 0,0.48047 0.375,0.57422 0.550782,0.57422 0.257812,0 0.539062,-0.17578 0.539062,-0.53906 0,-0.375 -0.28125,-0.53907 -0.550781,-0.53907 -0.07031,0 -0.09375,0 -0.128906,0.0117 0.457031,-0.82031 1.582031,-0.82031 1.640625,-0.82031 0.386718,0 1.171875,0.17578 1.171875,1.34766 0,0.23437 -0.03516,0.90234 -0.386719,1.41797 -0.351563,0.52734 -0.761719,0.5625 -1.089844,0.57421 z m 0,0"
         style="fill:#000000;fill-opacity:1;fill-rule:nonzero;stroke:none" />
      <path
         id="path21"
         d="m 23.275359,210.43726 c 0,-0.69141 -0.222656,-1.20703 -0.714843,-1.20703 -0.386719,0 -0.574219,0.3164 -0.574219,0.57422 0,0.25781 0.175781,0.58593 0.585937,0.58593 0.152344,0 0.28125,-0.0469 0.386719,-0.15234 0.02344,-0.0234 0.03516,-0.0234 0.04687,-0.0234 0.03516,0 0.03516,0.16406 0.03516,0.22266 0,0.39844 -0.08203,1.17187 -0.773437,1.94531 -0.128906,0.15234 -0.128906,0.17578 -0.128906,0.19922 0,0.0586 0.05859,0.11719 0.117187,0.11719 0.09375,0 1.019531,-0.89063 1.019531,-2.26172 z m 5.118164,-0.6211 c 0,-0.35156 -0.292968,-0.58593 -0.574218,-0.58593 -0.351563,0 -0.585938,0.29297 -0.585938,0.57422 0,0.35156 0.28125,0.58593 0.574219,0.58593 0.339844,0 0.585937,-0.28125 0.585937,-0.57422 z m 5.235352,0 c 0,-0.35156 -0.292969,-0.58593 -0.574219,-0.58593 -0.351562,0 -0.585937,0.29297 -0.585937,0.57422 0,0.35156 0.28125,0.58593 0.574219,0.58593 0.339843,0 0.585937,-0.28125 0.585937,-0.57422 z m 5.25,0 c 0,-0.35156 -0.292969,-0.58593 -0.574219,-0.58593 -0.351562,0 -0.585937,0.29297 -0.585937,0.57422 0,0.35156 0.28125,0.58593 0.574219,0.58593 0.339843,0 0.585937,-0.28125 0.585937,-0.57422 z m 5.375977,0.6211 c 0,-0.69141 -0.222657,-1.20703 -0.714844,-1.20703 -0.386719,0 -0.574219,0.3164 -0.574219,0.57422 0,0.25781 0.175781,0.58593 0.585938,0.58593 0.152343,0 0.28125,-0.0469 0.386718,-0.15234 0.02344,-0.0234 0.03516,-0.0234 0.04687,-0.0234 0.03516,0 0.03516,0.16406 0.03516,0.22266 0,0.39844 -0.08203,1.17187 -0.773438,1.94531 -0.128906,0.15234 -0.128906,0.17578 -0.128906,0.19922 0,0.0586 0.05859,0.11719 0.117187,0.11719 0.09375,0 1.019532,-0.89063 1.019532,-2.26172 z m 0,0"
         style="fill:#000000;fill-opacity:1;fill-rule:nonzero;stroke:none" />
      <path
         id="path22"
         d="m 50.606414,202.72632 c 0,-0.26953 0,-0.28125 -0.246094,-0.28125 -0.28125,0.31641 -0.878906,0.76172 -2.109375,0.76172 v 0.35156 c 0.269532,0 0.867188,0 1.523438,-0.3164 v 6.22265 c 0,0.4336 -0.03516,0.57422 -1.078125,0.57422 h -0.375 v 0.35156 c 0.316406,-0.0234 1.476562,-0.0234 1.875,-0.0234 0.398437,0 1.546875,0 1.863281,0.0234 v -0.35156 h -0.363281 c -1.054688,0 -1.089844,-0.14062 -1.089844,-0.57422 z m 7.763672,3.84375 c 0,-0.99609 -0.05859,-1.96875 -0.492188,-2.87109 -0.492187,-0.9961 -1.347656,-1.25391 -1.933593,-1.25391 -0.691407,0 -1.546875,0.33984 -1.980469,1.33594 -0.339844,0.75 -0.457031,1.48828 -0.457031,2.78906 0,1.16016 0.08203,2.02734 0.515625,2.87109 0.457031,0.91407 1.289062,1.19532 1.910156,1.19532 1.042969,0 1.640625,-0.6211 1.980469,-1.3125 0.433593,-0.89063 0.457031,-2.0625 0.457031,-2.75391 z m -2.4375,3.83203 c -0.386719,0 -1.160156,-0.21094 -1.382813,-1.52344 -0.140625,-0.71484 -0.140625,-1.61718 -0.140625,-2.46093 0,-0.97266 0,-1.86328 0.199219,-2.56641 0.199219,-0.79687 0.808594,-1.17187 1.324219,-1.17187 0.457031,0 1.148437,0.28125 1.371094,1.30078 0.152343,0.67968 0.152343,1.6289 0.152343,2.4375 0,0.80859 0,1.71093 -0.128906,2.4375 -0.222656,1.32422 -0.972656,1.54687 -1.394531,1.54687 z m 0,0"
         style="fill:#000000;fill-opacity:1;fill-rule:nonzero;stroke:none" />
      <path
         id="path23"
         d="m 266.14645,208.97241 c -0.0586,0.19922 -0.0586,0.22266 -0.22265,0.44532 -0.26953,0.33984 -0.79688,0.85547 -1.35938,0.85547 -0.48047,0 -0.76172,-0.44532 -0.76172,-1.14844 0,-0.65625 0.375,-1.99219 0.59766,-2.4961 0.41016,-0.84375 0.97266,-1.26562 1.44141,-1.26562 0.78515,0 0.9375,0.97266 0.9375,1.06641 0,0.0117 -0.0352,0.17578 -0.0469,0.19921 z m 0.76172,-3.07031 c -0.1289,-0.30469 -0.44531,-0.78515 -1.0664,-0.78515 -1.35938,0 -2.8125,1.74609 -2.8125,3.51562 0,1.18359 0.6914,1.875 1.5,1.875 0.65625,0 1.21875,-0.51562 1.55859,-0.90234 0.11719,0.70312 0.67969,0.90234 1.04297,0.90234 0.35156,0 0.64453,-0.21094 0.85547,-0.64453 0.1875,-0.41016 0.36328,-1.13672 0.36328,-1.18359 0,-0.0586 -0.0469,-0.10547 -0.11719,-0.10547 -0.11719,0 -0.12891,0.0586 -0.17578,0.23437 -0.17578,0.71485 -0.39844,1.46485 -0.89063,1.46485 -0.35156,0 -0.375,-0.31641 -0.375,-0.55079 0,-0.28125 0.0352,-0.41015 0.14063,-0.8789 0.082,-0.29297 0.15234,-0.5625 0.24609,-0.90235 0.4336,-1.79296 0.55078,-2.22656 0.55078,-2.29687 0,-0.16406 -0.14062,-0.29297 -0.3164,-0.29297 -0.375,0 -0.48047,0.41016 -0.50391,0.55078 z m 0,0"
         style="fill:#000000;fill-opacity:1;fill-rule:nonzero;stroke:none" />
      <path
         id="path24"
         d="m 278.51852,202.3982 c 0.0117,-0.0469 0.0352,-0.12891 0.0352,-0.1875 0,-0.11719 -0.12891,-0.11719 -0.15234,-0.11719 -0.0117,0 -0.4336,0.0351 -0.65625,0.0586 -0.19922,0.0117 -0.375,0.0352 -0.59766,0.0469 -0.28125,0.0234 -0.36328,0.0351 -0.36328,0.25781 0,0.11719 0.11719,0.11719 0.23437,0.11719 0.60938,0 0.60938,0.10547 0.60938,0.22265 0,0.082 -0.0937,0.4336 -0.14063,0.64453 l -0.29297,1.14844 c -0.11718,0.48047 -0.79687,3.19922 -0.84375,3.41016 -0.0586,0.29297 -0.0586,0.5039 -0.0586,0.65625 0,1.21875 0.67969,1.85156 1.45313,1.85156 1.39453,0 2.82421,-1.78125 2.82421,-3.51562 0,-1.10157 -0.62109,-1.875 -1.51171,-1.875 -0.63282,0 -1.1836,0.51562 -1.41797,0.75 z m -0.76172,7.875 c -0.375,0 -0.79687,-0.29297 -0.79687,-1.21875 0,-0.39844 0.0352,-0.6211 0.24609,-1.46485 0.0469,-0.15234 0.23438,-0.91406 0.28125,-1.0664 0.0234,-0.10547 0.72657,-1.16016 1.53516,-1.16016 0.52734,0 0.77344,0.51562 0.77344,1.13672 0,0.57422 -0.33985,1.93359 -0.63282,2.55469 -0.30468,0.64453 -0.85546,1.21875 -1.40625,1.21875 z m 0,0"
         style="fill:#000000;fill-opacity:1;fill-rule:nonzero;stroke:none" />
      <path
         id="path25"
         d="m 292.46677,205.89038 c -0.23438,0 -0.33985,0 -0.50391,0.15235 -0.0703,0.0586 -0.19922,0.23437 -0.19922,0.42187 0,0.2461 0.17578,0.38672 0.39844,0.38672 0.29297,0 0.60937,-0.23437 0.60937,-0.71484 0,-0.57422 -0.55078,-1.01953 -1.37109,-1.01953 -1.57031,0 -3.12891,1.71093 -3.12891,3.41015 0,1.04297 0.64453,1.98047 1.86328,1.98047 1.62891,0 2.64844,-1.26562 2.64844,-1.41797 0,-0.0703 -0.0703,-0.1289 -0.11719,-0.1289 -0.0351,0 -0.0469,0.0117 -0.15234,0.11718 -0.76172,1.00782 -1.89844,1.19532 -2.35547,1.19532 -0.82031,0 -1.08984,-0.71485 -1.08984,-1.3125 0,-0.42188 0.19922,-1.58204 0.63281,-2.39063 0.31641,-0.5625 0.96094,-1.20703 1.71094,-1.20703 0.15234,0 0.80859,0.0234 1.05469,0.52734 z m 0,0"
         style="fill:#000000;fill-opacity:1;fill-rule:nonzero;stroke:none" />
      <path
         id="path26"
         d="m -42.475617,222.83277 h -0.269531 c -0.03516,0.19921 -0.128907,0.85546 -0.246094,1.04296 -0.08203,0.11719 -0.761719,0.11719 -1.125,0.11719 h -2.214844 c 0.328125,-0.28125 1.054688,-1.04297 1.371094,-1.33594 1.816406,-1.66406 2.484375,-2.28515 2.484375,-3.46875 0,-1.38281 -1.089844,-2.29687 -2.472656,-2.29687 -1.394532,0 -2.203125,1.18359 -2.203125,2.20312 0,0.60938 0.527343,0.60938 0.5625,0.60938 0.246093,0 0.5625,-0.17578 0.5625,-0.5625 0,-0.32813 -0.234375,-0.55078 -0.5625,-0.55078 -0.105469,0 -0.128907,0 -0.164063,0.0117 0.222656,-0.82032 0.867188,-1.3711 1.640625,-1.3711 1.019531,0 1.640625,0.85547 1.640625,1.95703 0,1.00782 -0.585937,1.89844 -1.265625,2.66016 l -2.414062,2.70703 v 0.28125 h 4.359375 z m 0,0"
         style="fill:#000000;fill-opacity:1;fill-rule:nonzero;stroke:none" />
      <path
         id="path27"
         d="m -38.286164,223.4187 c -0.05859,0.19922 -0.05859,0.22266 -0.222656,0.44532 -0.269532,0.33984 -0.796875,0.85546 -1.359375,0.85546 -0.480469,0 -0.761719,-0.44531 -0.761719,-1.14843 0,-0.65625 0.375,-1.99219 0.597656,-2.4961 0.410156,-0.84375 0.972656,-1.26562 1.441406,-1.26562 0.785157,0 0.9375,0.97265 0.9375,1.0664 0,0.0117 -0.03516,0.17579 -0.04687,0.19922 z m 0.761719,-3.07031 c -0.128907,-0.30469 -0.445313,-0.78516 -1.066407,-0.78516 -1.359375,0 -2.8125,1.7461 -2.8125,3.51563 0,1.18359 0.691407,1.875 1.5,1.875 0.65625,0 1.21875,-0.51563 1.558594,-0.90234 0.117188,0.70312 0.679688,0.90234 1.042969,0.90234 0.351562,0 0.644531,-0.21094 0.855469,-0.64453 0.1875,-0.41016 0.363281,-1.13672 0.363281,-1.1836 0,-0.0586 -0.04687,-0.10546 -0.117188,-0.10546 -0.117187,0 -0.128906,0.0586 -0.175781,0.23437 -0.175781,0.71484 -0.398437,1.46484 -0.890625,1.46484 -0.351562,0 -0.375,-0.3164 -0.375,-0.55078 0,-0.28125 0.03516,-0.41015 0.140625,-0.8789 0.08203,-0.29297 0.152344,-0.5625 0.246094,-0.90235 0.433594,-1.79297 0.550781,-2.22656 0.550781,-2.29687 0,-0.16406 -0.140625,-0.29297 -0.316406,-0.29297 -0.375,0 -0.480469,0.41016 -0.503906,0.55078 z m 0,0"
         style="fill:#000000;fill-opacity:1;fill-rule:nonzero;stroke:none" />
      <path
         id="path28"
         d="m -28.161164,222.07105 h 3.304687 c 0.164063,0 0.375,0 0.375,-0.21094 0,-0.22266 -0.199218,-0.22266 -0.375,-0.22266 h -3.304687 v -3.30468 c 0,-0.16407 0,-0.38672 -0.210938,-0.38672 -0.234375,0 -0.234375,0.21093 -0.234375,0.38672 v 3.30468 h -3.292968 c -0.175782,0 -0.386719,0 -0.386719,0.21094 0,0.22266 0.199219,0.22266 0.386719,0.22266 h 3.292968 v 3.30468 c 0,0.16407 0,0.38672 0.222657,0.38672 0.222656,0 0.222656,-0.21093 0.222656,-0.38672 z m 0,0"
         style="fill:#000000;fill-opacity:1;fill-rule:nonzero;stroke:none" />
      <path
         id="path29"
         d="m -18.250031,216.84448 c 0.01172,-0.0469 0.03516,-0.1289 0.03516,-0.1875 0,-0.11718 -0.128906,-0.11718 -0.152344,-0.11718 -0.01172,0 -0.433593,0.0351 -0.65625,0.0586 -0.199218,0.0117 -0.375,0.0352 -0.597656,0.0469 -0.28125,0.0234 -0.363281,0.0351 -0.363281,0.25781 0,0.11719 0.117187,0.11719 0.234375,0.11719 0.609375,0 0.609375,0.10546 0.609375,0.22265 0,0.082 -0.09375,0.4336 -0.140625,0.64453 l -0.292969,1.14844 c -0.117187,0.48047 -0.796875,3.19922 -0.84375,3.41016 -0.05859,0.29297 -0.05859,0.5039 -0.05859,0.65625 0,1.21875 0.679688,1.85156 1.453125,1.85156 1.394532,0 2.824219,-1.78125 2.824219,-3.51563 0,-1.10156 -0.621094,-1.875 -1.511719,-1.875 -0.632812,0 -1.183593,0.51563 -1.417968,0.75 z m -0.761719,7.875 c -0.375,0 -0.796875,-0.29296 -0.796875,-1.21875 0,-0.39843 0.03516,-0.62109 0.246094,-1.46484 0.04687,-0.15234 0.234375,-0.91406 0.28125,-1.06641 0.02344,-0.10546 0.726562,-1.16015 1.535156,-1.16015 0.527344,0 0.773438,0.51562 0.773438,1.13672 0,0.57422 -0.339844,1.93359 -0.632813,2.55468 -0.304687,0.64454 -0.855469,1.21875 -1.40625,1.21875 z m 0,0"
         style="fill:#000000;fill-opacity:1;fill-rule:nonzero;stroke:none" />
      <path
         id="path30"
         d="m -3.3994453,222.83277 h -0.2695313 c -0.035156,0.19921 -0.1289062,0.85546 -0.2460937,1.04296 -0.082031,0.11719 -0.7617188,0.11719 -1.125,0.11719 h -2.2148438 c 0.328125,-0.28125 1.0546875,-1.04297 1.3710938,-1.33594 1.8164062,-1.66406 2.484375,-2.28515 2.484375,-3.46875 0,-1.38281 -1.0898438,-2.29687 -2.4726563,-2.29687 -1.3945312,0 -2.203125,1.18359 -2.203125,2.20312 0,0.60938 0.5273438,0.60938 0.5625,0.60938 0.2460938,0 0.5625,-0.17578 0.5625,-0.5625 0,-0.32813 -0.234375,-0.55078 -0.5625,-0.55078 -0.1054687,0 -0.1289062,0 -0.1640625,0.0117 0.2226563,-0.82032 0.8671875,-1.3711 1.640625,-1.3711 1.0195313,0 1.640625,0.85547 1.640625,1.95703 0,1.00782 -0.5859375,1.89844 -1.265625,2.66016 l -2.4140625,2.70703 v 0.28125 h 4.359375 z m 0,0"
         style="fill:#000000;fill-opacity:1;fill-rule:nonzero;stroke:none" />
      <path
         id="path31"
         d="m -0.04202344,216.84448 c 0.01171875,-0.0469 0.03515625,-0.1289 0.03515625,-0.1875 0,-0.11718 -0.12890625,-0.11718 -0.15234375,-0.11718 -0.0117188,0 -0.43359375,0.0351 -0.65625,0.0586 -0.19921876,0.0117 -0.37499996,0.0352 -0.59765626,0.0469 -0.28125,0.0234 -0.3632812,0.0351 -0.3632812,0.25781 0,0.11719 0.1171875,0.11719 0.234375,0.11719 0.60937496,0 0.60937496,0.10546 0.60937496,0.22265 0,0.082 -0.09375,0.4336 -0.14062496,0.64453 l -0.2929688,1.14844 c -0.1171875,0.48047 -0.796875,3.19922 -0.84375,3.41016 -0.058594,0.29297 -0.058594,0.5039 -0.058594,0.65625 0,1.21875 0.6796875,1.85156 1.45312496,1.85156 1.39453125,0 2.82421874,-1.78125 2.82421874,-3.51563 0,-1.10156 -0.6210937,-1.875 -1.51171874,-1.875 -0.6328125,0 -1.18359375,0.51563 -1.41796875,0.75 z m -0.76171875,7.875 c -0.37500001,0 -0.79687501,-0.29296 -0.79687501,-1.21875 0,-0.39843 0.035156,-0.62109 0.2460938,-1.46484 0.046875,-0.15234 0.234375,-0.91406 0.28125,-1.06641 0.023437,-0.10546 0.72656246,-1.16015 1.53515621,-1.16015 0.52734375,0 0.77343749,0.51562 0.77343749,1.13672 0,0.57422 -0.33984374,1.93359 -0.63281249,2.55468 -0.3046875,0.64454 -0.85546875,1.21875 -1.40625,1.21875 z m 0,0"
         style="fill:#000000;fill-opacity:1;fill-rule:nonzero;stroke:none" />
      <path
         id="path32"
         d="M 9.7489922,222.07105 H 13.05368 c 0.164062,0 0.375,0 0.375,-0.21094 0,-0.22266 -0.199219,-0.22266 -0.375,-0.22266 H 9.7489922 v -3.30468 c 0,-0.16407 0,-0.38672 -0.2109375,-0.38672 -0.234375,0 -0.234375,0.21093 -0.234375,0.38672 v 3.30468 H 6.0107109 c -0.1757812,0 -0.3867187,0 -0.3867187,0.21094 0,0.22266 0.1992187,0.22266 0.3867187,0.22266 h 3.2929688 v 3.30468 c 0,0.16407 0,0.38672 0.2226562,0.38672 0.2226563,0 0.2226563,-0.21093 0.2226563,-0.38672 z m 0,0"
         style="fill:#000000;fill-opacity:1;fill-rule:nonzero;stroke:none" />
      <path
         id="path33"
         d="m 21.570281,220.33667 c -0.234375,0 -0.339843,0 -0.503906,0.15235 -0.07031,0.0586 -0.199219,0.23437 -0.199219,0.42187 0,0.24609 0.175782,0.38672 0.398438,0.38672 0.292969,0 0.609375,-0.23438 0.609375,-0.71484 0,-0.57422 -0.550781,-1.01954 -1.371094,-1.01954 -1.570312,0 -3.128906,1.71094 -3.128906,3.41016 0,1.04297 0.644531,1.98047 1.863281,1.98047 1.628906,0 2.648438,-1.26563 2.648438,-1.41797 0,-0.0703 -0.07031,-0.12891 -0.117188,-0.12891 -0.03516,0 -0.04687,0.0117 -0.152344,0.11719 -0.761718,1.00781 -1.898437,1.19531 -2.355468,1.19531 -0.820313,0 -1.089844,-0.71484 -1.089844,-1.3125 0,-0.42187 0.199219,-1.58203 0.632812,-2.39062 0.316407,-0.5625 0.960938,-1.20703 1.710938,-1.20703 0.152344,0 0.808594,0.0234 1.054687,0.52734 z m 0,0"
         style="fill:#000000;fill-opacity:1;fill-rule:nonzero;stroke:none" />
      <path
         id="path34"
         d="m 34.572234,222.83277 h -0.269531 c -0.03516,0.19921 -0.128906,0.85546 -0.246094,1.04296 -0.08203,0.11719 -0.761718,0.11719 -1.125,0.11719 h -2.214843 c 0.328125,-0.28125 1.054687,-1.04297 1.371093,-1.33594 1.816407,-1.66406 2.484375,-2.28515 2.484375,-3.46875 0,-1.38281 -1.089843,-2.29687 -2.472656,-2.29687 -1.394531,0 -2.203125,1.18359 -2.203125,2.20312 0,0.60938 0.527344,0.60938 0.5625,0.60938 0.246094,0 0.5625,-0.17578 0.5625,-0.5625 0,-0.32813 -0.234375,-0.55078 -0.5625,-0.55078 -0.105469,0 -0.128906,0 -0.164062,0.0117 0.222656,-0.82032 0.867187,-1.3711 1.640625,-1.3711 1.019531,0 1.640625,0.85547 1.640625,1.95703 0,1.00782 -0.585938,1.89844 -1.265625,2.66016 l -2.414063,2.70703 v 0.28125 h 4.359375 z m 0,0"
         style="fill:#000000;fill-opacity:1;fill-rule:nonzero;stroke:none" />
      <path
         id="path35"
         d="m 39.839813,220.33667 c -0.234375,0 -0.339844,0 -0.503907,0.15235 -0.07031,0.0586 -0.199218,0.23437 -0.199218,0.42187 0,0.24609 0.175781,0.38672 0.398437,0.38672 0.292969,0 0.609375,-0.23438 0.609375,-0.71484 0,-0.57422 -0.550781,-1.01954 -1.371094,-1.01954 -1.570312,0 -3.128906,1.71094 -3.128906,3.41016 0,1.04297 0.644531,1.98047 1.863281,1.98047 1.628907,0 2.648438,-1.26563 2.648438,-1.41797 0,-0.0703 -0.07031,-0.12891 -0.117188,-0.12891 -0.03516,0 -0.04687,0.0117 -0.152343,0.11719 -0.761719,1.00781 -1.898438,1.19531 -2.355469,1.19531 -0.820313,0 -1.089844,-0.71484 -1.089844,-1.3125 0,-0.42187 0.199219,-1.58203 0.632813,-2.39062 0.316406,-0.5625 0.960937,-1.20703 1.710937,-1.20703 0.152344,0 0.808594,0.0234 1.054688,0.52734 z m 0,0"
         style="fill:#000000;fill-opacity:1;fill-rule:nonzero;stroke:none" />
      <path
         id="path36"
         d="m 47.779266,222.07105 h 3.304687 c 0.164063,0 0.375,0 0.375,-0.21094 0,-0.22266 -0.199219,-0.22266 -0.375,-0.22266 h -3.304687 v -3.30468 c 0,-0.16407 0,-0.38672 -0.210938,-0.38672 -0.234375,0 -0.234375,0.21093 -0.234375,0.38672 v 3.30468 h -3.292969 c -0.175781,0 -0.386718,0 -0.386718,0.21094 0,0.22266 0.199218,0.22266 0.386718,0.22266 h 3.292969 v 3.30468 c 0,0.16407 0,0.38672 0.222656,0.38672 0.222657,0 0.222657,-0.21093 0.222657,-0.38672 z m 0,0"
         style="fill:#000000;fill-opacity:1;fill-rule:nonzero;stroke:none" />
      <path
         id="path37"
         d="m 58.52243,223.4187 c -0.05859,0.19922 -0.05859,0.22266 -0.222657,0.44532 -0.269531,0.33984 -0.796875,0.85546 -1.359375,0.85546 -0.480468,0 -0.761718,-0.44531 -0.761718,-1.14843 0,-0.65625 0.375,-1.99219 0.597656,-2.4961 0.410156,-0.84375 0.972656,-1.26562 1.441406,-1.26562 0.785156,0 0.9375,0.97265 0.9375,1.0664 0,0.0117 -0.03516,0.17579 -0.04687,0.19922 z m 0.761718,-3.07031 c -0.128906,-0.30469 -0.445312,-0.78516 -1.066406,-0.78516 -1.359375,0 -2.8125,1.7461 -2.8125,3.51563 0,1.18359 0.691406,1.875 1.5,1.875 0.65625,0 1.21875,-0.51563 1.558594,-0.90234 0.117187,0.70312 0.679687,0.90234 1.042969,0.90234 0.351562,0 0.644531,-0.21094 0.855468,-0.64453 0.1875,-0.41016 0.363282,-1.13672 0.363282,-1.1836 0,-0.0586 -0.04687,-0.10546 -0.117188,-0.10546 -0.117187,0 -0.128906,0.0586 -0.175781,0.23437 -0.175781,0.71484 -0.398438,1.46484 -0.890625,1.46484 -0.351563,0 -0.375,-0.3164 -0.375,-0.55078 0,-0.28125 0.03516,-0.41015 0.140625,-0.8789 0.08203,-0.29297 0.152344,-0.5625 0.246094,-0.90235 0.433593,-1.79297 0.550781,-2.22656 0.550781,-2.29687 0,-0.16406 -0.140625,-0.29297 -0.316406,-0.29297 -0.375,0 -0.480469,0.41016 -0.503907,0.55078 z m 0,0"
         style="fill:#000000;fill-opacity:1;fill-rule:nonzero;stroke:none" />
      <path
         id="path38"
         d="m -10.612336,280.92847 c -0.05859,0.19922 -0.05859,0.22266 -0.222656,0.44531 -0.269531,0.33985 -0.796875,0.85547 -1.359375,0.85547 -0.480469,0 -0.761719,-0.44531 -0.761719,-1.14844 0,-0.65625 0.375,-1.99218 0.597656,-2.49609 0.410157,-0.84375 0.972657,-1.26563 1.441407,-1.26563 0.785156,0 0.9374996,0.97266 0.9374996,1.06641 0,0.0117 -0.035157,0.17578 -0.046875,0.19922 z m 0.7617188,-3.07031 c -0.1289062,-0.30469 -0.4453128,-0.78516 -1.0664058,-0.78516 -1.359375,0 -2.8125,1.74609 -2.8125,3.51563 0,1.18359 0.691406,1.875 1.5,1.875 0.65625,0 1.21875,-0.51563 1.558593,-0.90235 0.117188,0.70313 0.6796878,0.90235 1.0429691,0.90235 0.3515625,0 0.6445312,-0.21094 0.8554687,-0.64454 0.1875,-0.41015 0.3632813,-1.13671 0.3632813,-1.18359 0,-0.0586 -0.046875,-0.10547 -0.1171875,-0.10547 -0.1171875,0 -0.1289063,0.0586 -0.1757813,0.23438 -0.1757812,0.71484 -0.3984375,1.46484 -0.890625,1.46484 -0.3515625,0 -0.375,-0.31641 -0.375,-0.55078 0,-0.28125 0.035156,-0.41016 0.140625,-0.87891 0.082031,-0.29297 0.1523438,-0.5625 0.2460938,-0.90234 0.4335937,-1.79297 0.5507812,-2.22656 0.5507812,-2.29688 0,-0.16406 -0.140625,-0.29296 -0.3164062,-0.29296 -0.375,0 -0.4804688,0.41015 -0.5039063,0.55078 z m 0,0"
         style="fill:#000000;fill-opacity:1;fill-rule:nonzero;stroke:none" />
      <path
         id="path39"
         d="m 172.7861,280.92847 c -0.0586,0.19922 -0.0586,0.22266 -0.22265,0.44531 -0.26954,0.33985 -0.79688,0.85547 -1.35938,0.85547 -0.48047,0 -0.76172,-0.44531 -0.76172,-1.14844 0,-0.65625 0.375,-1.99218 0.59766,-2.49609 0.41015,-0.84375 0.97265,-1.26563 1.4414,-1.26563 0.78516,0 0.9375,0.97266 0.9375,1.06641 0,0.0117 -0.0352,0.17578 -0.0469,0.19922 z m 0.76172,-3.07031 c -0.12891,-0.30469 -0.44531,-0.78516 -1.06641,-0.78516 -1.35937,0 -2.8125,1.74609 -2.8125,3.51563 0,1.18359 0.69141,1.875 1.5,1.875 0.65625,0 1.21875,-0.51563 1.5586,-0.90235 0.11719,0.70313 0.67969,0.90235 1.04297,0.90235 0.35156,0 0.64453,-0.21094 0.85547,-0.64454 0.1875,-0.41015 0.36328,-1.13671 0.36328,-1.18359 0,-0.0586 -0.0469,-0.10547 -0.11719,-0.10547 -0.11719,0 -0.12891,0.0586 -0.17578,0.23438 -0.17578,0.71484 -0.39844,1.46484 -0.89063,1.46484 -0.35156,0 -0.375,-0.31641 -0.375,-0.55078 0,-0.28125 0.0352,-0.41016 0.14063,-0.87891 0.082,-0.29297 0.15234,-0.5625 0.24609,-0.90234 0.4336,-1.79297 0.55078,-2.22656 0.55078,-2.29688 0,-0.16406 -0.14062,-0.29296 -0.3164,-0.29296 -0.375,0 -0.48047,0.41015 -0.50391,0.55078 z m 0,0"
         style="fill:#000000;fill-opacity:1;fill-rule:nonzero;stroke:none" />
      <path
         id="path40"
         d="m 180.68161,279.58081 h 3.30469 c 0.16406,0 0.375,0 0.375,-0.21093 0,-0.22266 -0.19922,-0.22266 -0.375,-0.22266 h -3.30469 v -3.30469 c 0,-0.16406 0,-0.38672 -0.21094,-0.38672 -0.23437,0 -0.23437,0.21094 -0.23437,0.38672 v 3.30469 h -3.29297 c -0.17578,0 -0.38672,0 -0.38672,0.21094 0,0.22265 0.19922,0.22265 0.38672,0.22265 h 3.29297 v 3.30469 c 0,0.16406 0,0.38672 0.22265,0.38672 0.22266,0 0.22266,-0.21094 0.22266,-0.38672 z m 8.36426,-4.89843 c 0,-0.26954 0,-0.28125 -0.2461,-0.28125 -0.28125,0.3164 -0.8789,0.76171 -2.10937,0.76171 v 0.35157 c 0.26953,0 0.86719,0 1.52344,-0.31641 v 6.22266 c 0,0.43359 -0.0352,0.57422 -1.07813,0.57422 h -0.375 v 0.35156 c 0.31641,-0.0234 1.47656,-0.0234 1.875,-0.0234 0.39844,0 1.54688,0 1.86328,0.0234 v -0.35156 h -0.36328 c -1.05469,0 -1.08984,-0.14063 -1.08984,-0.57422 z m 0,0"
         style="fill:#000000;fill-opacity:1;fill-rule:nonzero;stroke:none" />
      <path
         id="path41"
         d="m 46.206023,295.37476 c -0.05859,0.19922 -0.05859,0.22265 -0.222656,0.44531 -0.269531,0.33984 -0.796875,0.85547 -1.359375,0.85547 -0.480469,0 -0.761719,-0.44531 -0.761719,-1.14844 0,-0.65625 0.375,-1.99219 0.597657,-2.49609 0.410156,-0.84375 0.972656,-1.26563 1.441406,-1.26563 0.785156,0 0.9375,0.97266 0.9375,1.06641 0,0.0117 -0.03516,0.17578 -0.04687,0.19922 z m 0.761719,-3.07031 c -0.128906,-0.30469 -0.445312,-0.78516 -1.066406,-0.78516 -1.359375,0 -2.8125,1.74609 -2.8125,3.51562 0,1.1836 0.691406,1.875 1.5,1.875 0.65625,0 1.21875,-0.51562 1.558594,-0.90234 0.117187,0.70313 0.679687,0.90234 1.042968,0.90234 0.351563,0 0.644532,-0.21093 0.855469,-0.64453 0.1875,-0.41015 0.363281,-1.13672 0.363281,-1.18359 0,-0.0586 -0.04687,-0.10547 -0.117187,-0.10547 -0.117188,0 -0.128906,0.0586 -0.175781,0.23438 -0.175782,0.71484 -0.398438,1.46484 -0.890625,1.46484 -0.351563,0 -0.375,-0.31641 -0.375,-0.55078 0,-0.28125 0.03516,-0.41016 0.140625,-0.87891 0.08203,-0.29297 0.152343,-0.5625 0.246093,-0.90234 0.433594,-1.79297 0.550782,-2.22656 0.550782,-2.29688 0,-0.16406 -0.140625,-0.29297 -0.316407,-0.29297 -0.375,0 -0.480468,0.41016 -0.503906,0.55079 z m 0,0"
         style="fill:#000000;fill-opacity:1;fill-rule:nonzero;stroke:none" />
      <path
         id="path42"
         d="m 56.17868,294.0271 h 3.304687 c 0.164063,0 0.375,0 0.375,-0.21094 0,-0.22265 -0.199219,-0.22265 -0.375,-0.22265 H 56.17868 v -3.30469 c 0,-0.16406 0,-0.38672 -0.210938,-0.38672 -0.234375,0 -0.234375,0.21094 -0.234375,0.38672 v 3.30469 h -3.292969 c -0.175781,0 -0.386718,0 -0.386718,0.21094 0,0.22265 0.199218,0.22265 0.386718,0.22265 h 3.292969 v 3.30469 c 0,0.16406 0,0.38672 0.222656,0.38672 0.222657,0 0.222657,-0.21094 0.222657,-0.38672 z m 12.251953,0.76172 h -0.269531 c -0.03516,0.19922 -0.128907,0.85547 -0.246094,1.04297 -0.08203,0.11719 -0.761719,0.11719 -1.125,0.11719 h -2.214844 c 0.328125,-0.28125 1.054688,-1.04297 1.371094,-1.33594 1.816406,-1.66406 2.484375,-2.28516 2.484375,-3.46875 0,-1.38281 -1.089844,-2.29688 -2.472656,-2.29688 -1.394532,0 -2.203125,1.1836 -2.203125,2.20313 0,0.60937 0.527343,0.60937 0.5625,0.60937 0.246093,0 0.5625,-0.17578 0.5625,-0.5625 0,-0.32812 -0.234375,-0.55078 -0.5625,-0.55078 -0.105469,0 -0.128907,0 -0.164063,0.0117 0.222656,-0.82031 0.867188,-1.37109 1.640625,-1.37109 1.019531,0 1.640625,0.85547 1.640625,1.95703 0,1.00781 -0.585937,1.89844 -1.265625,2.66016 l -2.414062,2.70703 v 0.28125 h 4.359375 z m 0,0"
         style="fill:#000000;fill-opacity:1;fill-rule:nonzero;stroke:none" />
      <path
         id="path43"
         d="m 40.545867,361.97241 c 0,-0.82031 0.222656,-2.71875 1.992188,-3.97265 0.128906,-0.10547 0.140625,-0.10547 0.140625,-0.29297 0,-0.22266 -0.01172,-0.23438 -0.257813,-0.23438 h -0.152344 c -2.144531,1.14844 -2.917968,3.03516 -2.917968,4.5 v 4.28907 c 0,0.25781 0.01172,0.26953 0.28125,0.26953 h 0.644531 c 0.269531,0 0.269531,-0.0117 0.269531,-0.26953 z m 0,4.61719 c 0,-0.25781 0,-0.26953 -0.269531,-0.26953 h -0.644531 c -0.269532,0 -0.28125,0.0117 -0.28125,0.26953 v 2.66016 c 0,0.25781 0.01172,0.26953 0.28125,0.26953 h 0.644531 c 0.269531,0 0.269531,-0.0117 0.269531,-0.26953 z m 0,2.99121 c 0,-0.25781 0,-0.26953 -0.269531,-0.26953 h -0.644531 c -0.269532,0 -0.28125,0.0117 -0.28125,0.26953 v 2.66016 c 0,0.25781 0.01172,0.26953 0.28125,0.26953 h 0.644531 c 0.269531,0 0.269531,-0.0117 0.269531,-0.26953 z m 0,16.38282 c 0,-1.20704 -0.503906,-3.23438 -2.730469,-4.59375 2.25,-1.35938 2.730469,-3.42188 2.730469,-4.59375 v -4.20704 c 0,-0.25781 0,-0.26953 -0.269531,-0.26953 h -0.644531 c -0.269532,0 -0.28125,0.0117 -0.28125,0.26953 v 4.21875 c 0,0.83204 -0.175782,2.90625 -2.003907,4.30079 -0.117187,0.0937 -0.117187,0.10546 -0.117187,0.28125 0,0.17578 0,0.1875 0.117187,0.28125 0.257813,0.19921 0.9375,0.72656 1.417969,1.73437 0.386719,0.79688 0.585938,1.67578 0.585938,2.56641 v 4.21875 c 0,0.25781 0.01172,0.26953 0.28125,0.26953 h 0.644531 c 0.269531,0 0.269531,-0.0117 0.269531,-0.26953 z m 0,4.53808 c 0,-0.25781 0,-0.26953 -0.269531,-0.26953 h -0.644531 c -0.269532,0 -0.28125,0.0117 -0.28125,0.26953 v 2.66016 c 0,0.25781 0.01172,0.26953 0.28125,0.26953 h 0.644531 c 0.269531,0 0.269531,-0.0117 0.269531,-0.26953 z m 0,2.98828 c 0,-0.25781 0,-0.26953 -0.269531,-0.26953 h -0.644531 c -0.269532,0 -0.28125,0.0117 -0.28125,0.26953 v 2.66016 c 0,0.25781 0.01172,0.26953 0.28125,0.26953 h 0.644531 c 0.269531,0 0.269531,-0.0117 0.269531,-0.26953 z m 0,2.98828 c 0,-0.25781 0,-0.26953 -0.269531,-0.26953 h -0.644531 c -0.269532,0 -0.28125,0.0117 -0.28125,0.26953 v 4.28907 c 0,1.47656 0.773437,3.35156 2.917968,4.5 h 0.152344 c 0.246094,0 0.257813,-0.0117 0.257813,-0.23438 0,-0.1875 -0.01172,-0.1875 -0.04687,-0.22266 -0.304688,-0.22265 -1.019532,-0.73828 -1.488282,-1.65234 -0.398437,-0.76172 -0.597656,-1.52344 -0.597656,-2.39062 z m 0,0"
         style="fill:#000000;fill-opacity:1;fill-rule:nonzero;stroke:none" />
      <path
         id="path44"
         d="m 49.648406,365.26245 h -0.269531 c -0.03516,0.19922 -0.128906,0.85547 -0.246094,1.04297 -0.08203,0.11719 -0.761718,0.11719 -1.125,0.11719 h -2.214843 c 0.328125,-0.28125 1.054687,-1.04297 1.371093,-1.33594 1.816407,-1.66406 2.484375,-2.28515 2.484375,-3.46875 0,-1.38281 -1.089843,-2.29687 -2.472656,-2.29687 -1.394531,0 -2.203125,1.18359 -2.203125,2.20312 0,0.60938 0.527344,0.60938 0.5625,0.60938 0.246094,0 0.5625,-0.17578 0.5625,-0.5625 0,-0.32813 -0.234375,-0.55078 -0.5625,-0.55078 -0.105469,0 -0.128906,0 -0.164062,0.0117 0.222656,-0.82031 0.867187,-1.37109 1.640625,-1.37109 1.019531,0 1.640625,0.85547 1.640625,1.95703 0,1.00781 -0.585938,1.89844 -1.265625,2.66016 l -2.414063,2.70703 v 0.28125 H 49.332 Z m 0,0"
         style="fill:#000000;fill-opacity:1;fill-rule:nonzero;stroke:none" />
      <path
         id="path45"
         d="m 55.900359,362.39136 c -0.375,0.0703 -0.515625,0.35156 -0.515625,0.58594 0,0.28125 0.222657,0.375 0.386719,0.375 0.363281,0 0.609375,-0.30469 0.609375,-0.63282 0,-0.49218 -0.574219,-0.72656 -1.078125,-0.72656 -0.726562,0 -1.125,0.71485 -1.242187,0.94922 -0.269532,-0.90234 -1.007813,-0.94922 -1.230469,-0.94922 -1.21875,0 -1.863281,1.57031 -1.863281,1.82813 0,0.0469 0.04687,0.10547 0.128906,0.10547 0.105469,0 0.128906,-0.0703 0.152344,-0.11719 0.398437,-1.32422 1.207031,-1.57031 1.546875,-1.57031 0.539062,0 0.644531,0.49218 0.644531,0.78515 0,0.25781 -0.07031,0.53906 -0.210938,1.11328 -0.1875,0.76172 -0.234375,0.9375 -0.410156,1.62891 -0.175781,0.72656 -0.527344,1.38281 -1.160156,1.38281 -0.05859,0 -0.351563,0 -0.609375,-0.15234 0.433594,-0.0937 0.527344,-0.44531 0.527344,-0.58594 0,-0.24609 -0.175782,-0.38672 -0.398438,-0.38672 -0.292969,0 -0.597656,0.2461 -0.597656,0.63281 0,0.50391 0.5625,0.72657 1.066406,0.72657 0.574219,0 0.984375,-0.45703 1.230469,-0.9375 0.199219,0.70312 0.796875,0.9375 1.230469,0.9375 1.230468,0 1.875,-1.5586 1.875,-1.82813 0,-0.0586 -0.04687,-0.10547 -0.128907,-0.10547 -0.105468,0 -0.117187,0.0586 -0.152343,0.15235 -0.316407,1.05468 -1.019532,1.54687 -1.546875,1.54687 -0.421875,0 -0.65625,-0.3164 -0.65625,-0.80859 0,-0.25781 0.05859,-0.44531 0.246093,-1.24219 0.140625,-0.55078 0.292969,-1.18359 0.421875,-1.61719 0.175782,-0.72656 0.585938,-1.24218 1.125,-1.24218 0.03516,0 0.363282,0 0.609375,0.15234 z m 0,0"
         style="fill:#000000;fill-opacity:1;fill-rule:nonzero;stroke:none" />
      <path
         id="path46"
         d="m 59.140594,361.30152 c 0.128906,-0.11719 0.457031,-0.375 0.585937,-0.49219 0.492188,-0.45703 0.960938,-0.89063 0.960938,-1.61719 0,-0.94922 -0.796875,-1.55859 -1.792969,-1.55859 -0.949219,0 -1.582031,0.72656 -1.582031,1.42968 0,0.39844 0.316406,0.44532 0.421875,0.44532 0.164062,0 0.410156,-0.11719 0.410156,-0.42188 0,-0.41015 -0.398437,-0.41015 -0.492187,-0.41015 0.234375,-0.58594 0.773437,-0.78516 1.160156,-0.78516 0.738281,0 1.125,0.63281 1.125,1.30078 0,0.83203 -0.585938,1.42969 -1.523438,2.40234 l -1.007812,1.03125 c -0.09375,0.0937 -0.09375,0.10547 -0.09375,0.30469 h 3.152344 l 0.222656,-1.42969 h -0.246094 c -0.02344,0.16407 -0.08203,0.5625 -0.175781,0.71485 -0.04687,0.0586 -0.65625,0.0586 -0.785156,0.0586 h -1.417969 z m 0,0"
         style="fill:#000000;fill-opacity:1;fill-rule:nonzero;stroke:none" />
      <path
         id="path47"
         d="m 69.051727,364.50073 h 3.304687 c 0.164063,0 0.375,0 0.375,-0.21093 0,-0.22266 -0.199219,-0.22266 -0.375,-0.22266 h -3.304687 v -3.30469 c 0,-0.16406 0,-0.38672 -0.210938,-0.38672 -0.234375,0 -0.234375,0.21094 -0.234375,0.38672 v 3.30469 h -3.292969 c -0.175781,0 -0.386718,0 -0.386718,0.21094 0,0.22265 0.199218,0.22265 0.386718,0.22265 h 3.292969 v 3.30469 c 0,0.16406 0,0.38672 0.222656,0.38672 0.222657,0 0.222657,-0.21094 0.222657,-0.38672 z m 0,0"
         style="fill:#000000;fill-opacity:1;fill-rule:nonzero;stroke:none" />
      <path
         id="path48"
         d="m 81.842742,357.48706 c 0,-0.22265 -0.02344,-0.22265 -0.234375,-0.22265 -0.328125,0.3164 -0.75,0.5039 -1.511719,0.5039 v 0.26953 c 0.222657,0 0.644532,0 1.113282,-0.22265 v 4.08984 c 0,0.29297 -0.02344,0.39844 -0.785157,0.39844 h -0.28125 v 0.25781 c 0.328125,-0.0234 1.019532,-0.0234 1.371094,-0.0234 0.363281,0 1.054688,0 1.382813,0.0234 v -0.25781 h -0.28125 c -0.75,0 -0.773438,-0.10547 -0.773438,-0.39844 z m 0,0"
         style="fill:#000000;fill-opacity:1;fill-rule:nonzero;stroke:none" />
    </g>
    <path
       id="path49"
       d="M 0,0 H 8.427"
       style="fill:none;stroke:#000000;stroke-width:0.398;stroke-linecap:butt;stroke-linejoin:miter;stroke-miterlimit:10;stroke-dasharray:none;stroke-opacity:1"
       transform="matrix(1.3333333,0,0,-1.3333333,377.70667,541.77333)" />
    <g
       id="g49"
       aria-label="z&#10;2&#10;=y&#10;2&#10;+2&#10;2y&#10;2&#10;+&#10;1"
       transform="matrix(1.3333333,0,0,1.3333333,377.70667,551.256)">
      <path
         id="path50"
         d="m 1.1604297,-0.69004688 c 0.28125,-0.29296875 0.375,-0.38671872 1.0664062,-0.96093752 0.09375,-0.082031 0.6445313,-0.5390625 0.8671875,-0.75 0.5039063,-0.4921875 0.8085938,-0.9257812 0.8085938,-1.0195312 0,-0.070312 -0.058594,-0.09375 -0.1171875,-0.09375 -0.082031,0 -0.082031,0.011719 -0.1640625,0.140625 -0.2460938,0.3632812 -0.421875,0.421875 -0.5742188,0.421875 -0.140625,0 -0.2460937,-0.058594 -0.3984375,-0.2226563 -0.2109375,-0.1992187 -0.375,-0.3398437 -0.6210937,-0.3398437 -0.6445313,0 -1.04296876,0.7148437 -1.04296876,0.9375 0,0 0,0.09375 0.12890626,0.09375 0.082031,0 0.09375,-0.035156 0.1289062,-0.1171875 0.1054688,-0.234375 0.4453125,-0.3164063 0.6914063,-0.3164063 0.1757812,0 0.375,0.046875 0.5625,0.1054688 0.328125,0.082031 0.4101562,0.082031 0.5859375,0.082031 -0.1640625,0.1757813 -0.3867188,0.3984375 -1.0078125,0.9023438 -0.328125,0.28125 -0.6679688,0.5507812 -0.8789063,0.7617187 -0.58593746,0.58593752 -0.84374996,0.97265627 -0.84374996,1.05468752 0,0.0703125 0.0585938,0.09375 0.1171875,0.09375 0.0820312,0 0.09375,-0.0234375 0.140625,-0.08203125 0.15234375,-0.234375 0.39843746,-0.48046875 0.70312496,-0.48046875 0.1875,0 0.2695313,0.0703125 0.421875,0.22265625 0.2460938,0.24609375 0.3984375,0.33984375 0.6210938,0.33984375 0.8320312,0 1.3359375,-0.99609375 1.3359375,-1.24218752 0,-0.070312 -0.058594,-0.09375 -0.1171875,-0.09375 -0.09375,0 -0.1054688,0.046875 -0.140625,0.1171875 -0.1523438,0.39843752 -0.5859375,0.62109377 -0.984375,0.62109377 -0.1523438,0 -0.328125,-0.046875 -0.5742188,-0.10546875 -0.328125,-0.09375 -0.4101562,-0.09375 -0.5273437,-0.09375 -0.082031,0 -0.1289063,0 -0.1875,0.0234377 z m 0,0"
         style="fill:#000000;fill-opacity:1;fill-rule:nonzero;stroke:none" />
      <path
         id="path51"
         d="M 7.485625,-3.3824297 H 7.2746875 c -0.023437,0.082031 -0.082031,0.46875 -0.1640625,0.5390625 -0.046875,0.035156 -0.5273437,0.035156 -0.609375,0.035156 h -1.125 C 5.5520313,-2.9488359 5.9739063,-3.2886797 6.1496875,-3.4293047 6.3489063,-3.5933672 6.87625,-3.9683672 7.06375,-4.1558672 c 0.1757813,-0.1757812 0.421875,-0.4804687 0.421875,-0.9023437 0,-0.75 -0.6679687,-1.1835938 -1.4765625,-1.1835938 -0.7617187,0 -1.3007812,0.5039063 -1.3007812,1.0664063 0,0.3046875 0.2578125,0.3398437 0.3164062,0.3398437 0.1523438,0 0.328125,-0.1054687 0.328125,-0.3164062 0,-0.140625 -0.082031,-0.328125 -0.3398437,-0.328125 0.1289062,-0.3046875 0.5039062,-0.5273438 0.9140625,-0.5273438 0.6210937,0 0.9609375,0.46875 0.9609375,0.9492188 0,0.421875 -0.28125,0.8554687 -0.703125,1.2421875 L 4.766875,-2.5152422 c -0.058594,0.058594 -0.058594,0.058594 -0.058594,0.2460938 h 2.6015625 z m 0,0"
         style="fill:#000000;fill-opacity:1;fill-rule:nonzero;stroke:none" />
      <path
         id="path52"
         d="m 21.017852,-7.9908281 c 0.164062,0 0.375,0 0.375,-0.2226563 0,-0.2226562 -0.199219,-0.2226562 -0.375,-0.2226562 h -7.042969 c -0.175781,0 -0.386719,0 -0.386719,0.2109375 0,0.234375 0.199219,0.234375 0.386719,0.234375 z m 0,2.2148437 c 0.164062,0 0.375,0 0.375,-0.2109375 0,-0.234375 -0.199219,-0.234375 -0.375,-0.234375 h -7.042969 c -0.175781,0 -0.386719,0 -0.386719,0.2226563 0,0.2226562 0.199219,0.2226562 0.386719,0.2226562 z m 0,0"
         style="fill:#000000;fill-opacity:1;fill-rule:nonzero;stroke:none" />
      <path
         id="path53"
         d="m 28.509063,-2.7877031 c -0.316407,0.4570312 -0.785157,0.8671875 -1.371094,0.8671875 -0.140625,0 -0.714844,-0.023437 -0.902344,-0.5742188 0.04687,0.011719 0.105469,0.011719 0.128906,0.011719 0.351563,0 0.597657,-0.3164063 0.597657,-0.5859375 0,-0.28125 -0.234375,-0.375 -0.410157,-0.375 -0.1875,0 -0.609375,0.140625 -0.609375,0.7265625 0,0.609375 0.515625,1.03125 1.195313,1.03125 1.195312,0 2.402344,-1.1015625 2.742187,-2.4257813 l 1.171875,-4.6640625 c 0.01172,-0.058594 0.03516,-0.1289062 0.03516,-0.1992187 0,-0.1757813 -0.152344,-0.3046875 -0.328125,-0.3046875 -0.105469,0 -0.363282,0.046875 -0.457032,0.4101562 l -0.878906,3.515625 c -0.05859,0.2109375 -0.05859,0.234375 -0.152344,0.375 -0.246093,0.328125 -0.644531,0.7382813 -1.207031,0.7382813 -0.679687,0 -0.738281,-0.65625 -0.738281,-0.984375 0,-0.6796875 0.328125,-1.6054688 0.644531,-2.4609375 0.140625,-0.3515625 0.210938,-0.515625 0.210938,-0.75 0,-0.5039063 -0.363282,-0.9609375 -0.949219,-0.9609375 -1.101563,0 -1.535156,1.734375 -1.535156,1.828125 0,0.046875 0.04687,0.1054687 0.128906,0.1054687 0.105469,0 0.117187,-0.046875 0.164062,-0.2109375 0.292969,-1.0078125 0.738282,-1.4765625 1.207032,-1.4765625 0.105468,0 0.316406,0 0.316406,0.3867188 0,0.3164062 -0.140625,0.65625 -0.316406,1.1132812 -0.585938,1.5703125 -0.585938,1.9570313 -0.585938,2.25 0,1.1367188 0.808594,1.3945313 1.40625,1.3945313 0.351563,0 0.785156,-0.1054688 1.195313,-0.5507813 l 0.01172,0.011719 c -0.175781,0.703125 -0.292968,1.171875 -0.714843,1.7578125 z m 0,0"
         style="fill:#000000;fill-opacity:1;fill-rule:nonzero;stroke:none" />
      <path
         id="path54"
         d="m 33.756133,-10.088484 c 0.128906,-0.117188 0.457031,-0.375 0.585937,-0.492188 0.492188,-0.457031 0.960938,-0.890625 0.960938,-1.617187 0,-0.949219 -0.796875,-1.558594 -1.792969,-1.558594 -0.949219,0 -1.582031,0.726562 -1.582031,1.429687 0,0.398438 0.316406,0.445313 0.421875,0.445313 0.164062,0 0.410156,-0.117188 0.410156,-0.421875 0,-0.410156 -0.398437,-0.410156 -0.492187,-0.410156 0.234375,-0.585938 0.773437,-0.785157 1.160156,-0.785157 0.738281,0 1.125,0.632813 1.125,1.300782 0,0.832031 -0.585938,1.429687 -1.523438,2.4023434 l -1.007812,1.03125 c -0.09375,0.09375 -0.09375,0.1054687 -0.09375,0.3046875 h 3.152344 l 0.222656,-1.4296875 h -0.246094 c -0.02344,0.1640625 -0.08203,0.5625 -0.175781,0.7148437 -0.04687,0.058594 -0.65625,0.058594 -0.785156,0.058594 h -1.417969 z m 0,0"
         style="fill:#000000;fill-opacity:1;fill-rule:nonzero;stroke:none" />
      <path
         id="path55"
         d="m 43.664336,-6.8892656 h 3.304687 c 0.164063,0 0.375,0 0.375,-0.2109375 0,-0.2226563 -0.199218,-0.2226563 -0.375,-0.2226563 h -3.304687 v -3.3046876 c 0,-0.164062 0,-0.386719 -0.210938,-0.386719 -0.234375,0 -0.234375,0.210938 -0.234375,0.386719 v 3.3046876 h -3.292968 c -0.175782,0 -0.386719,0 -0.386719,0.2109375 0,0.2226563 0.199219,0.2226563 0.386719,0.2226563 h 3.292968 v 3.3046875 c 0,0.1640625 0,0.3867187 0.222657,0.3867187 0.222656,0 0.222656,-0.2109375 0.222656,-0.3867187 z m 12.251953,0.7617187 h -0.269531 c -0.03516,0.1992188 -0.128906,0.8554688 -0.246094,1.0429688 -0.08203,0.1171875 -0.761719,0.1171875 -1.125,0.1171875 H 52.06082 c 0.328125,-0.28125 1.054688,-1.0429688 1.371094,-1.3359375 1.816406,-1.6640625 2.484375,-2.2851563 2.484375,-3.46875 0,-1.3828129 -1.089844,-2.2968749 -2.472656,-2.2968749 -1.394531,0 -2.203125,1.183594 -2.203125,2.2031249 0,0.609375 0.527344,0.609375 0.5625,0.609375 0.246094,0 0.5625,-0.1757813 0.5625,-0.5625 0,-0.3281249 -0.234375,-0.5507809 -0.5625,-0.5507809 -0.105469,0 -0.128906,0 -0.164063,0.01172 0.222657,-0.820312 0.867188,-1.371093 1.640625,-1.371093 1.019532,0 1.640625,0.855468 1.640625,1.9570309 0,1.0078125 -0.585937,1.8984375 -1.265625,2.6601562 l -2.414062,2.7070313 v 0.28125 h 4.359375 z M -27.588594,11.207414 h -0.269531 c -0.03516,0.199219 -0.128906,0.855469 -0.246094,1.042969 -0.08203,0.117187 -0.761718,0.117187 -1.125,0.117187 h -2.214843 c 0.328125,-0.28125 1.054687,-1.042968 1.371093,-1.335937 1.816407,-1.6640627 2.484375,-2.2851564 2.484375,-3.4687502 0,-1.3828125 -1.089843,-2.296875 -2.472656,-2.296875 -1.394531,0 -2.203125,1.1835938 -2.203125,2.203125 0,0.609375 0.527344,0.609375 0.5625,0.609375 0.246094,0 0.5625,-0.1757812 0.5625,-0.5625 0,-0.328125 -0.234375,-0.5507812 -0.5625,-0.5507812 -0.105469,0 -0.128906,0 -0.164062,0.011719 0.222656,-0.8203125 0.867187,-1.3710937 1.640625,-1.3710937 1.019531,0 1.640625,0.8554687 1.640625,1.9570312 0,1.0078125 -0.585938,1.8984375 -1.265625,2.6601559 l -2.414063,2.707031 v 0.28125 H -27.905 Z m 0,0"
         style="fill:#000000;fill-opacity:1;fill-rule:nonzero;stroke:none" />
      <path
         id="path56"
         d="m -23.856172,14.547258 c -0.316406,0.457031 -0.785156,0.867187 -1.371094,0.867187 -0.140625,0 -0.714843,-0.02344 -0.902343,-0.574218 0.04687,0.01172 0.105468,0.01172 0.128906,0.01172 0.351562,0 0.597656,-0.316406 0.597656,-0.585937 0,-0.28125 -0.234375,-0.375 -0.410156,-0.375 -0.1875,0 -0.609375,0.140625 -0.609375,0.726562 0,0.609375 0.515625,1.03125 1.195312,1.03125 1.195313,0 2.402344,-1.101562 2.742188,-2.425781 l 1.171875,-4.6640624 c 0.01172,-0.058594 0.03516,-0.1289063 0.03516,-0.1992188 0,-0.1757812 -0.152344,-0.3046875 -0.328125,-0.3046875 -0.105469,0 -0.363281,0.046875 -0.457031,0.4101563 l -0.878906,3.5156254 c -0.05859,0.210937 -0.05859,0.234375 -0.152344,0.375 -0.246094,0.328125 -0.644531,0.738281 -1.207031,0.738281 -0.679688,0 -0.738282,-0.65625 -0.738282,-0.984375 0,-0.679688 0.328125,-1.605469 0.644532,-2.4609377 0.140625,-0.3515625 0.210937,-0.515625 0.210937,-0.75 0,-0.5039062 -0.363281,-0.9609375 -0.949219,-0.9609375 -1.101562,0 -1.535156,1.734375 -1.535156,1.828125 0,0.046875 0.04687,0.1054688 0.128906,0.1054688 0.105469,0 0.117188,-0.046875 0.164063,-0.2109375 0.292969,-1.0078125 0.738281,-1.4765625 1.207031,-1.4765625 0.105469,0 0.316406,0 0.316406,0.3867187 0,0.3164063 -0.140625,0.65625 -0.316406,1.1132813 -0.585937,1.5703124 -0.585937,1.9570314 -0.585937,2.2500004 0,1.136718 0.808593,1.394531 1.40625,1.394531 0.351562,0 0.785156,-0.105469 1.195312,-0.550781 l 0.01172,0.01172 c -0.175781,0.703125 -0.292969,1.171875 -0.714844,1.757813 z m 0,0"
         style="fill:#000000;fill-opacity:1;fill-rule:nonzero;stroke:none" />
      <path
         id="path57"
         d="m -18.612031,7.2464766 c 0.128906,-0.1171875 0.457031,-0.375 0.585937,-0.4921875 0.492188,-0.4570313 0.960938,-0.890625 0.960938,-1.6171875 0,-0.9492188 -0.796875,-1.5585938 -1.792969,-1.5585938 -0.949219,0 -1.582031,0.7265625 -1.582031,1.4296875 0,0.3984375 0.316406,0.4453125 0.421875,0.4453125 0.164062,0 0.410156,-0.1171875 0.410156,-0.421875 0,-0.4101562 -0.398437,-0.4101562 -0.492187,-0.4101562 0.234375,-0.5859375 0.773437,-0.7851563 1.160156,-0.7851563 0.738281,0 1.125,0.6328125 1.125,1.3007813 0,0.8320312 -0.585938,1.4296875 -1.523438,2.4023437 l -1.007812,1.03125 c -0.09375,0.09375 -0.09375,0.1054688 -0.09375,0.3046875 h 3.152344 l 0.222656,-1.4296875 h -0.246094 c -0.02344,0.1640625 -0.08203,0.5625 -0.175781,0.7148438 -0.04687,0.058594 -0.65625,0.058594 -0.785156,0.058594 h -1.417969 z m 0,0"
         style="fill:#000000;fill-opacity:1;fill-rule:nonzero;stroke:none" />
      <path
         id="path58"
         d="m -8.7038281,10.445695 h 3.3046875 c 0.1640625,0 0.375,0 0.375,-0.210937 0,-0.222656 -0.1992188,-0.222656 -0.375,-0.222656 H -8.7038281 V 6.7074141 c 0,-0.1640625 0,-0.3867188 -0.2109375,-0.3867188 -0.234375,0 -0.234375,0.2109375 -0.234375,0.3867188 v 3.3046879 h -3.2929684 c -0.175782,0 -0.386719,0 -0.386719,0.210937 0,0.222656 0.199219,0.222656 0.386719,0.222656 h 3.2929684 v 3.304688 c 0,0.164062 0,0.386719 0.2226562,0.386719 0.2226563,0 0.2226563,-0.210938 0.2226563,-0.386719 z m 0,0"
         style="fill:#000000;fill-opacity:1;fill-rule:nonzero;stroke:none" />
      <path
         id="path59"
         d="m 4.3362109,3.4320234 c 0,-0.2226562 -0.023437,-0.2226562 -0.234375,-0.2226562 -0.328125,0.3164062 -0.75,0.5039062 -1.5117187,0.5039062 v 0.2695313 c 0.2226562,0 0.6445312,0 1.1132812,-0.2226563 v 4.0898438 c 0,0.2929687 -0.023437,0.3984375 -0.7851562,0.3984375 h -0.28125 v 0.2578125 c 0.328125,-0.023437 1.0195312,-0.023437 1.3710937,-0.023437 0.3632813,0 1.0546875,0 1.3828125,0.023437 V 8.2484297 h -0.28125 c -0.75,0 -0.7734375,-0.1054688 -0.7734375,-0.3984375 z m 0,0"
         style="fill:#000000;fill-opacity:1;fill-rule:nonzero;stroke:none" />
    </g>
    <path
       id="path60"
       d="M 0,0 H 8.918"
       style="fill:none;stroke:#000000;stroke-width:0.398;stroke-linecap:butt;stroke-linejoin:miter;stroke-miterlimit:10;stroke-dasharray:none;stroke-opacity:1"
       transform="matrix(1.3333333,0,0,-1.3333333,377.02,564.88667)" />
    <g
       id="g60"
       aria-label="x&#10;2&#10;=z&#10;2&#10;+2&#10;2z&#10;2&#10;+&#10;1"
       transform="matrix(1.3333333,0,0,1.3333333,377.02,574.36933)">
      <path
         id="path61"
         d="m 3.9957422,-3.1744609 c -0.3515625,0.082031 -0.375,0.3984375 -0.375,0.421875 0,0.1757812 0.140625,0.3046875 0.3164062,0.3046875 0.1757813,0 0.4453125,-0.140625 0.4453125,-0.4804688 0,-0.4570312 -0.5039062,-0.5859375 -0.796875,-0.5859375 -0.375,0 -0.6796875,0.2695313 -0.8554687,0.5742188 -0.1757813,-0.421875 -0.5976563,-0.5742188 -0.9257813,-0.5742188 -0.86718746,0 -1.34765621,0.9960938 -1.34765621,1.21875 0,0.070312 0.0585937,0.1054688 0.1171875,0.1054688 0.09375,0 0.10546875,-0.035156 0.140625,-0.140625 0.17578125,-0.5742188 0.65625001,-0.9609375 1.06640621,-0.9609375 0.3164063,0 0.46875,0.2226562 0.46875,0.515625 0,0.1523437 -0.09375,0.5273437 -0.1640625,0.7734375 -0.058594,0.234375 -0.234375,0.9492187 -0.2695312,1.08984371 -0.1054688,0.43359375 -0.3984375,0.7734375 -0.7617188,0.7734375 -0.023437,0 -0.23437496,0 -0.39843746,-0.1171875 0.36328126,-0.0820313 0.36328126,-0.421875 0.36328126,-0.421875 0,-0.1875 -0.14062501,-0.3046875 -0.31640626,-0.3046875 -0.22265625,0 -0.4453125,0.1875 -0.4453125,0.4921875 0,0.36328125 0.38671875,0.57421875 0.79687496,0.57421875 0.421875,0 0.7148438,-0.31640625 0.8554688,-0.57421875 0.1757812,0.38671875 0.5390625,0.57421875 0.9257812,0.57421875 0.8671875,0 1.3476563,-0.99609375 1.3476563,-1.21874996 0,-0.082031 -0.058594,-0.1054688 -0.1171875,-0.1054688 -0.09375,0 -0.1171875,0.058594 -0.140625,0.1289063 -0.1523438,0.53906246 -0.609375,0.97265621 -1.078125,0.97265621 -0.2578125,0 -0.4453125,-0.17578125 -0.4453125,-0.515625 0,-0.15234375 0.046875,-0.33984375 0.1523437,-0.78515621 0.058594,-0.234375 0.234375,-0.9375 0.2695313,-1.0898438 0.1171875,-0.421875 0.3984375,-0.7617187 0.75,-0.7617187 0.046875,0 0.2460937,0 0.421875,0.1171875 z m 0,0"
         style="fill:#000000;fill-opacity:1;fill-rule:nonzero;stroke:none" />
      <path
         id="path62"
         d="M 7.9771875,-3.3824687 H 7.76625 c -0.023437,0.082031 -0.082031,0.46875 -0.1640625,0.5390625 -0.046875,0.035156 -0.5273437,0.035156 -0.609375,0.035156 h -1.125 C 6.0435938,-2.948875 6.4654688,-3.2887187 6.64125,-3.4293437 6.8404688,-3.5934062 7.3678125,-3.9684062 7.5553125,-4.1559062 7.7310938,-4.3316875 7.9771875,-4.636375 7.9771875,-5.05825 c 0,-0.75 -0.6679687,-1.1835937 -1.4765625,-1.1835937 -0.7617187,0 -1.3007812,0.5039062 -1.3007812,1.0664062 0,0.3046875 0.2578125,0.3398438 0.3164062,0.3398438 0.1523438,0 0.328125,-0.1054688 0.328125,-0.3164063 0,-0.140625 -0.082031,-0.328125 -0.3398437,-0.328125 0.1289062,-0.3046875 0.5039062,-0.5273437 0.9140625,-0.5273437 0.6210937,0 0.9609375,0.46875 0.9609375,0.9492187 0,0.421875 -0.28125,0.8554688 -0.703125,1.2421875 l -1.4179688,1.3007813 c -0.058594,0.058594 -0.058594,0.058594 -0.058594,0.2460937 H 7.801406 Z m 0,0"
         style="fill:#000000;fill-opacity:1;fill-rule:nonzero;stroke:none" />
      <path
         id="path63"
         d="m 21.509414,-7.9908672 c 0.164063,0 0.375,0 0.375,-0.2226562 0,-0.2226563 -0.199219,-0.2226563 -0.375,-0.2226563 h -7.042969 c -0.175781,0 -0.386718,0 -0.386718,0.2109375 0,0.234375 0.199218,0.234375 0.386718,0.234375 z m 0,2.2148438 c 0.164063,0 0.375,0 0.375,-0.2109375 0,-0.234375 -0.199219,-0.234375 -0.375,-0.234375 h -7.042969 c -0.175781,0 -0.386718,0 -0.386718,0.2226562 0,0.2226563 0.199218,0.2226563 0.386718,0.2226563 z m 0,0"
         style="fill:#000000;fill-opacity:1;fill-rule:nonzero;stroke:none" />
      <path
         id="path64"
         d="m 27.383438,-5.0963359 c 0.503906,-0.5859375 0.925781,-0.9492188 1.523437,-1.4882813 0.714844,-0.6210937 1.03125,-0.9257812 1.195313,-1.1015625 0.84375,-0.8203125 1.253906,-1.5234375 1.253906,-1.6171875 0,-0.09375 -0.09375,-0.09375 -0.117188,-0.09375 -0.08203,0 -0.105468,0.046875 -0.164062,0.1289063 -0.304688,0.515625 -0.585938,0.7734375 -0.902344,0.7734375 -0.246094,0 -0.375,-0.1171875 -0.609375,-0.3984375 -0.246094,-0.2929688 -0.457031,-0.5039063 -0.796875,-0.5039063 -0.878906,0 -1.394531,1.0898438 -1.394531,1.3359375 0,0.035156 0.01172,0.1171875 0.117187,0.1171875 0.09375,0 0.105469,-0.046875 0.140625,-0.140625 0.199219,-0.46875 0.773438,-0.5625 1.007813,-0.5625 0.246094,0 0.480469,0.09375 0.738281,0.1992188 0.457031,0.1875 0.644531,0.1875 0.761719,0.1875 0.08203,0 0.128906,0 0.1875,-0.011719 -0.386719,0.46875 -1.03125,1.0429688 -1.570313,1.5351563 -0.761718,0.6679687 -0.972656,0.8789062 -1.207031,1.1015625 -0.726562,0.75 -1.171875,1.453125 -1.171875,1.5351562 0,0.070312 0.05859,0.09375 0.128906,0.09375 0.07031,0 0.08203,-0.011719 0.164063,-0.1523437 0.199219,-0.3046875 0.574219,-0.7382813 1.019531,-0.7382813 0.246094,0 0.375,0.082031 0.609375,0.375 0.222656,0.2695313 0.433594,0.515625 0.808594,0.515625 1.171875,0 1.851562,-1.5117187 1.851562,-1.7929687 0,-0.046875 -0.01172,-0.1171875 -0.140625,-0.1171875 -0.09375,0 -0.105468,0.046875 -0.140625,0.1640625 -0.257812,0.703125 -0.972656,0.9960937 -1.429687,0.9960937 -0.257813,0 -0.492188,-0.082031 -0.75,-0.1875 -0.46875,-0.1992187 -0.609375,-0.1992187 -0.761719,-0.1992187 -0.117187,0 -0.246094,0 -0.351562,0.046875 z m 0,0"
         style="fill:#000000;fill-opacity:1;fill-rule:nonzero;stroke:none" />
      <path
         id="path65"
         d="m 34.080703,-10.088523 c 0.128906,-0.117188 0.457031,-0.375 0.585938,-0.492188 0.492187,-0.457031 0.960937,-0.890625 0.960937,-1.617187 0,-0.949219 -0.796875,-1.558594 -1.792969,-1.558594 -0.949218,0 -1.582031,0.726562 -1.582031,1.429687 0,0.398438 0.316406,0.445313 0.421875,0.445313 0.164063,0 0.410156,-0.117188 0.410156,-0.421875 0,-0.410156 -0.398437,-0.410156 -0.492187,-0.410156 0.234375,-0.585938 0.773437,-0.785157 1.160156,-0.785157 0.738281,0 1.125,0.632813 1.125,1.300782 0,0.832031 -0.585937,1.429687 -1.523437,2.4023433 l -1.007813,1.03125 c -0.09375,0.09375 -0.09375,0.1054688 -0.09375,0.3046875 h 3.152344 l 0.222656,-1.4296875 h -0.246094 c -0.02344,0.1640625 -0.08203,0.5625 -0.175781,0.7148438 -0.04687,0.058594 -0.65625,0.058594 -0.785156,0.058594 h -1.417969 z m 0,0"
         style="fill:#000000;fill-opacity:1;fill-rule:nonzero;stroke:none" />
      <path
         id="path66"
         d="m 43.988906,-6.8893047 h 3.304688 c 0.164062,0 0.375,0 0.375,-0.2109375 0,-0.2226562 -0.199219,-0.2226562 -0.375,-0.2226562 h -3.304688 v -3.3046876 c 0,-0.164062 0,-0.386719 -0.210937,-0.386719 -0.234375,0 -0.234375,0.210938 -0.234375,0.386719 v 3.3046876 h -3.292969 c -0.175781,0 -0.386719,0 -0.386719,0.2109375 0,0.2226562 0.199219,0.2226562 0.386719,0.2226562 h 3.292969 v 3.3046875 c 0,0.1640625 0,0.3867188 0.222656,0.3867188 0.222656,0 0.222656,-0.2109375 0.222656,-0.3867188 z m 12.251953,0.7617188 h -0.269531 c -0.03516,0.1992187 -0.128906,0.8554687 -0.246094,1.0429687 -0.08203,0.1171875 -0.761718,0.1171875 -1.125,0.1171875 h -2.214843 c 0.328125,-0.28125 1.054687,-1.0429687 1.371093,-1.3359375 1.816407,-1.6640625 2.484375,-2.2851562 2.484375,-3.46875 0,-1.3828128 -1.089843,-2.2968748 -2.472656,-2.2968748 -1.394531,0 -2.203125,1.183594 -2.203125,2.2031248 0,0.609375 0.527344,0.609375 0.5625,0.609375 0.246094,0 0.5625,-0.1757812 0.5625,-0.5625 0,-0.3281248 -0.234375,-0.5507808 -0.5625,-0.5507808 -0.105469,0 -0.128906,0 -0.164062,0.01172 0.222656,-0.820312 0.867187,-1.371093 1.640625,-1.371093 1.019531,0 1.640625,0.855468 1.640625,1.9570308 0,1.0078125 -0.585938,1.8984375 -1.265625,2.6601563 l -2.414063,2.7070312 v 0.28125 h 4.359375 z M -27.073594,11.207375 h -0.269531 c -0.03516,0.199219 -0.128906,0.855469 -0.246094,1.042969 -0.08203,0.117187 -0.761718,0.117187 -1.125,0.117187 h -2.214843 c 0.328125,-0.28125 1.054687,-1.042968 1.371093,-1.335937 1.816407,-1.6640627 2.484375,-2.2851565 2.484375,-3.4687502 0,-1.3828125 -1.089843,-2.296875 -2.472656,-2.296875 -1.394531,0 -2.203125,1.1835937 -2.203125,2.203125 0,0.609375 0.527344,0.609375 0.5625,0.609375 0.246094,0 0.5625,-0.1757813 0.5625,-0.5625 0,-0.328125 -0.234375,-0.5507813 -0.5625,-0.5507813 -0.105469,0 -0.128906,0 -0.164062,0.011719 0.222656,-0.8203125 0.867187,-1.3710938 1.640625,-1.3710938 1.019531,0 1.640625,0.8554688 1.640625,1.9570313 0,1.0078125 -0.585938,1.8984375 -1.265625,2.660156 l -2.414063,2.707031 v 0.28125 H -27.39 Z m 0,0"
         style="fill:#000000;fill-opacity:1;fill-rule:nonzero;stroke:none" />
      <path
         id="path67"
         d="m -24.958359,12.238625 c 0.503906,-0.585937 0.925781,-0.949219 1.523437,-1.488281 0.714844,-0.621094 1.03125,-0.9257815 1.195313,-1.1015627 0.84375,-0.8203125 1.253906,-1.5234375 1.253906,-1.6171875 0,-0.09375 -0.09375,-0.09375 -0.117188,-0.09375 -0.08203,0 -0.105468,0.046875 -0.164062,0.1289062 -0.304688,0.515625 -0.585938,0.7734375 -0.902344,0.7734375 -0.246094,0 -0.375,-0.1171875 -0.609375,-0.3984375 -0.246094,-0.2929687 -0.457031,-0.5039062 -0.796875,-0.5039062 -0.878906,0 -1.394531,1.0898437 -1.394531,1.3359375 0,0.035156 0.01172,0.1171875 0.117187,0.1171875 0.09375,0 0.105469,-0.046875 0.140625,-0.140625 0.199219,-0.46875 0.773438,-0.5625 1.007813,-0.5625 0.246094,0 0.480469,0.09375 0.738281,0.1992187 0.457031,0.1875 0.644531,0.1875 0.761719,0.1875 0.08203,0 0.128906,0 0.1875,-0.011719 -0.386719,0.46875 -1.03125,1.0429695 -1.570313,1.5351565 -0.761718,0.667969 -0.972656,0.878906 -1.207031,1.101563 -0.726562,0.75 -1.171875,1.453125 -1.171875,1.535156 0,0.07031 0.05859,0.09375 0.128906,0.09375 0.07031,0 0.08203,-0.01172 0.164063,-0.152344 0.199219,-0.304687 0.574219,-0.738281 1.019531,-0.738281 0.246094,0 0.375,0.08203 0.609375,0.375 0.222656,0.269531 0.433594,0.515625 0.808594,0.515625 1.171875,0 1.851562,-1.511719 1.851562,-1.792969 0,-0.04687 -0.01172,-0.117187 -0.140625,-0.117187 -0.09375,0 -0.105468,0.04687 -0.140625,0.164062 -0.257812,0.703125 -0.972656,0.996094 -1.429687,0.996094 -0.257813,0 -0.492188,-0.08203 -0.75,-0.1875 -0.46875,-0.199219 -0.609375,-0.199219 -0.761719,-0.199219 -0.117187,0 -0.246094,0 -0.351562,0.04687 z m 0,0"
         style="fill:#000000;fill-opacity:1;fill-rule:nonzero;stroke:none" />
      <path
         id="path68"
         d="m -18.261094,7.2464375 c 0.128907,-0.1171875 0.457032,-0.375 0.585938,-0.4921875 0.492187,-0.4570312 0.960937,-0.890625 0.960937,-1.6171875 0,-0.9492187 -0.796875,-1.5585937 -1.792968,-1.5585937 -0.949219,0 -1.582032,0.7265625 -1.582032,1.4296875 0,0.3984375 0.316407,0.4453125 0.421875,0.4453125 0.164063,0 0.410157,-0.1171875 0.410157,-0.421875 0,-0.4101563 -0.398438,-0.4101563 -0.492188,-0.4101563 0.234375,-0.5859375 0.773438,-0.7851562 1.160156,-0.7851562 0.738282,0 1.125,0.6328125 1.125,1.3007812 0,0.8320313 -0.585937,1.4296875 -1.523437,2.4023438 l -1.007813,1.03125 c -0.09375,0.09375 -0.09375,0.1054687 -0.09375,0.3046875 h 3.152344 l 0.222656,-1.4296875 h -0.246093 c -0.02344,0.1640625 -0.08203,0.5625 -0.175782,0.7148437 -0.04687,0.058594 -0.65625,0.058594 -0.785156,0.058594 h -1.417969 z m 0,0"
         style="fill:#000000;fill-opacity:1;fill-rule:nonzero;stroke:none" />
      <path
         id="path69"
         d="m -8.3528906,10.445656 h 3.3046875 c 0.1640625,0 0.375,0 0.375,-0.210937 0,-0.222656 -0.1992188,-0.222656 -0.375,-0.222656 H -8.3528906 V 6.707375 c 0,-0.1640625 0,-0.3867187 -0.2109375,-0.3867187 -0.234375,0 -0.234375,0.2109375 -0.234375,0.3867187 v 3.304688 h -3.2929689 c -0.175781,0 -0.386719,0 -0.386719,0.210937 0,0.222656 0.199219,0.222656 0.386719,0.222656 h 3.2929689 v 3.304688 c 0,0.164062 0,0.386719 0.2226562,0.386719 0.2226563,0 0.2226563,-0.210938 0.2226563,-0.386719 z m 0,0"
         style="fill:#000000;fill-opacity:1;fill-rule:nonzero;stroke:none" />
      <path
         id="path70"
         d="m 4.5348047,3.4319844 c 0,-0.2226563 -0.023437,-0.2226563 -0.234375,-0.2226563 -0.328125,0.3164063 -0.75,0.5039063 -1.5117188,0.5039063 v 0.2695312 c 0.2226563,0 0.6445313,0 1.1132813,-0.2226562 v 4.0898437 c 0,0.2929688 -0.023437,0.3984375 -0.7851563,0.3984375 h -0.28125 v 0.2578125 c 0.328125,-0.023437 1.0195313,-0.023437 1.3710938,-0.023437 0.3632812,0 1.0546875,0 1.3828125,0.023437 V 8.2483906 h -0.28125 c -0.75,0 -0.7734375,-0.1054687 -0.7734375,-0.3984375 z m 0,0"
         style="fill:#000000;fill-opacity:1;fill-rule:nonzero;stroke:none" />
    </g>
    <path
       id="path71"
       d="M 0,0 H 8.623"
       style="fill:none;stroke:#000000;stroke-width:0.398;stroke-linecap:butt;stroke-linejoin:miter;stroke-miterlimit:10;stroke-dasharray:none;stroke-opacity:1"
       transform="matrix(1.3333333,0,0,-1.3333333,376.79867,588)" />
    <g
       id="g71"
       aria-label="y&#10;2&#10;=x&#10;2&#10;+2."
       transform="matrix(1.3333333,0,0,1.3333333,376.79867,597.48267)">
      <path
         id="path72"
         d="m 4.1236563,-2.9987187 c 0.035156,-0.1171875 0.035156,-0.1289063 0.035156,-0.1875 0,-0.1992188 -0.1640625,-0.2460938 -0.2578125,-0.2460938 -0.035156,0 -0.2226562,0.011719 -0.328125,0.2109375 -0.011719,0.046875 -0.082031,0.328125 -0.1289062,0.4921875 l -0.46875,1.921875 c -0.011719,0.0234375 -0.3515625,0.66796875 -0.9375,0.66796875 -0.3867188,0 -0.5273438,-0.29296875 -0.5273438,-0.64453125 0,-0.46875 0.2695313,-1.171875 0.4570313,-1.640625 0.082031,-0.1992187 0.1054687,-0.2695312 0.1054687,-0.4101562 0,-0.4335938 -0.3515625,-0.6796875 -0.7148437,-0.6796875 -0.79687505,0 -1.12500005,1.125 -1.12500005,1.21875 0,0.070312 0.0585938,0.1054687 0.12890625,0.1054687 0.09375,0 0.10546875,-0.046875 0.12890625,-0.1289062 0.2109375,-0.6914063 0.55078125,-0.9726563 0.84375005,-0.9726563 0.1171875,0 0.1875,0.082031 0.1875,0.2695313 0,0.1640625 -0.070312,0.3515625 -0.1171875,0.4921875 -0.328125,0.84375 -0.46875005,1.2539062 -0.46875005,1.61718745 0,0.78515625 0.59765625,0.99609375 1.06640625,0.99609375 0.375,0 0.6445313,-0.1640625 0.8320313,-0.3515625 -0.1054688,0.4453125 -0.1875,0.75 -0.4921875,1.13671875 C 2.072875,1.1965938 1.7564688,1.4075313 1.4049063,1.4075313 1.2642813,1.4075313 0.95959375,1.3840938 0.80725,1.138 1.229125,1.1145625 1.2525625,0.75128125 1.2525625,0.70440625 c 0,-0.1875 -0.140625,-0.29296875 -0.3046875,-0.29296875 -0.17578125,0 -0.45703125,0.12890625 -0.45703125,0.52734375 0,0.37500005 0.33984375,0.69140625 0.91406255,0.69140625 0.8085937,0 1.7226562,-0.65625 1.96875,-1.6171875 z m 0,0"
         style="fill:#000000;fill-opacity:1;fill-rule:nonzero;stroke:none" />
      <path
         id="path73"
         d="M 7.6832266,-3.3825078 H 7.4722891 c -0.023437,0.082031 -0.082031,0.46875 -0.1640625,0.5390625 -0.046875,0.035156 -0.5273438,0.035156 -0.609375,0.035156 h -1.125 c 0.1757812,-0.140625 0.5976562,-0.4804687 0.7734375,-0.6210937 0.1992187,-0.1640625 0.7265625,-0.5390625 0.9140625,-0.7265625 0.1757812,-0.1757813 0.421875,-0.4804688 0.421875,-0.9023438 0,-0.75 -0.6679688,-1.1835937 -1.4765625,-1.1835937 -0.7617188,0 -1.3007813,0.5039062 -1.3007813,1.0664062 0,0.3046875 0.2578125,0.3398438 0.3164063,0.3398438 0.1523437,0 0.328125,-0.1054688 0.328125,-0.3164063 0,-0.140625 -0.082031,-0.328125 -0.3398438,-0.328125 0.1289063,-0.3046875 0.5039063,-0.5273437 0.9140625,-0.5273437 0.6210938,0 0.9609375,0.46875 0.9609375,0.9492187 0,0.421875 -0.28125,0.8554688 -0.703125,1.2421875 l -1.4179687,1.3007813 c -0.058594,0.058594 -0.058594,0.058594 -0.058594,0.2460937 h 2.6015625 z m 0,0"
         style="fill:#000000;fill-opacity:1;fill-rule:nonzero;stroke:none" />
      <path
         id="path74"
         d="m 21.212523,-7.9909062 c 0.164063,0 0.375,0 0.375,-0.2226563 0,-0.2226562 -0.199218,-0.2226562 -0.375,-0.2226562 h -7.042968 c -0.175782,0 -0.386719,0 -0.386719,0.2109375 0,0.234375 0.199219,0.234375 0.386719,0.234375 z m 0,2.2148437 c 0.164063,0 0.375,0 0.375,-0.2109375 0,-0.234375 -0.199218,-0.234375 -0.375,-0.234375 h -7.042968 c -0.175782,0 -0.386719,0 -0.386719,0.2226563 0,0.2226562 0.199219,0.2226562 0.386719,0.2226562 z m 0,0"
         style="fill:#000000;fill-opacity:1;fill-rule:nonzero;stroke:none" />
      <path
         id="path75"
         d="m 31.226195,-8.9987187 c -0.375,0.070312 -0.515625,0.3515625 -0.515625,0.5859375 0,0.28125 0.222657,0.375 0.386719,0.375 0.363281,0 0.609375,-0.3046875 0.609375,-0.6328125 0,-0.4921875 -0.574219,-0.7265625 -1.078125,-0.7265625 -0.726562,0 -1.125,0.7148437 -1.242187,0.9492187 -0.269532,-0.9023437 -1.007813,-0.9492187 -1.230469,-0.9492187 -1.21875,0 -1.863281,1.5703125 -1.863281,1.828125 0,0.046875 0.04687,0.1054687 0.128906,0.1054687 0.105469,0 0.128906,-0.070312 0.152344,-0.1171875 0.398437,-1.3242187 1.207031,-1.5703125 1.546875,-1.5703125 0.539062,0 0.644531,0.4921875 0.644531,0.7851563 0,0.2578125 -0.07031,0.5390625 -0.210938,1.1132812 -0.1875,0.7617188 -0.234375,0.9375 -0.410156,1.6289063 -0.175781,0.7265625 -0.527344,1.3828125 -1.160156,1.3828125 -0.05859,0 -0.351563,0 -0.609375,-0.1523438 0.433594,-0.09375 0.527344,-0.4453125 0.527344,-0.5859375 0,-0.2460937 -0.175782,-0.3867187 -0.398438,-0.3867187 -0.292969,0 -0.597656,0.2460937 -0.597656,0.6328125 0,0.5039062 0.5625,0.7265625 1.066406,0.7265625 0.574219,0 0.984375,-0.4570313 1.230469,-0.9375 0.199219,0.703125 0.796875,0.9375 1.230469,0.9375 1.230468,0 1.875,-1.5585938 1.875,-1.828125 0,-0.058594 -0.04687,-0.1054688 -0.128907,-0.1054688 -0.105468,0 -0.117187,0.058594 -0.152343,0.1523438 -0.316407,1.0546875 -1.019532,1.546875 -1.546875,1.546875 -0.421875,0 -0.65625,-0.3164063 -0.65625,-0.8085938 0,-0.2578125 0.05859,-0.4453125 0.246093,-1.2421875 0.140625,-0.5507812 0.292969,-1.1835937 0.421875,-1.6171875 0.175782,-0.7265625 0.585938,-1.2421875 1.125,-1.2421875 0.03516,0 0.363282,0 0.609375,0.1523438 z m 0,0"
         style="fill:#000000;fill-opacity:1;fill-rule:nonzero;stroke:none" />
      <path
         id="path76"
         d="m 34.46643,-10.088562 c 0.128906,-0.117188 0.457031,-0.375 0.585937,-0.492188 0.492188,-0.457031 0.960938,-0.890625 0.960938,-1.617187 0,-0.949219 -0.796875,-1.558594 -1.792969,-1.558594 -0.949219,0 -1.582031,0.726562 -1.582031,1.429687 0,0.398438 0.316406,0.445313 0.421875,0.445313 0.164062,0 0.410156,-0.117188 0.410156,-0.421875 0,-0.410156 -0.398438,-0.410156 -0.492188,-0.410156 0.234375,-0.585938 0.773438,-0.785157 1.160157,-0.785157 0.738281,0 1.125,0.632813 1.125,1.300782 0,0.832031 -0.585938,1.429687 -1.523438,2.4023433 l -1.007812,1.03125 c -0.09375,0.09375 -0.09375,0.1054687 -0.09375,0.3046875 h 3.152343 l 0.222657,-1.4296875 h -0.246094 c -0.02344,0.1640625 -0.08203,0.5625 -0.175781,0.7148437 -0.04687,0.058594 -0.65625,0.058594 -0.785157,0.058594 h -1.417968 z m 0,0"
         style="fill:#000000;fill-opacity:1;fill-rule:nonzero;stroke:none" />
      <path
         id="path77"
         d="m 44.374633,-6.8893437 h 3.304687 c 0.164063,0 0.375,0 0.375,-0.2109375 0,-0.2226563 -0.199218,-0.2226563 -0.375,-0.2226563 h -3.304687 v -3.3046875 c 0,-0.164062 0,-0.386719 -0.210938,-0.386719 -0.234375,0 -0.234375,0.210938 -0.234375,0.386719 v 3.3046875 h -3.292968 c -0.175782,0 -0.386719,0 -0.386719,0.2109375 0,0.2226563 0.199219,0.2226563 0.386719,0.2226563 h 3.292968 v 3.3046875 c 0,0.1640625 0,0.3867187 0.222657,0.3867187 0.222656,0 0.222656,-0.2109375 0.222656,-0.3867187 z m 12.251953,0.7617187 h -0.269531 c -0.03516,0.1992188 -0.128907,0.8554688 -0.246094,1.0429688 -0.08203,0.1171875 -0.761719,0.1171875 -1.125,0.1171875 h -2.214844 c 0.328125,-0.28125 1.054688,-1.0429688 1.371094,-1.3359375 1.816406,-1.6640625 2.484375,-2.2851563 2.484375,-3.46875 0,-1.3828128 -1.089844,-2.2968748 -2.472656,-2.2968748 -1.394532,0 -2.203125,1.183594 -2.203125,2.2031248 0,0.609375 0.527343,0.609375 0.5625,0.609375 0.246093,0 0.5625,-0.1757813 0.5625,-0.5625 0,-0.3281248 -0.234375,-0.5507808 -0.5625,-0.5507808 -0.105469,0 -0.128907,0 -0.164063,0.01172 0.222656,-0.820312 0.867188,-1.371093 1.640625,-1.371093 1.019531,0 1.640625,0.855468 1.640625,1.9570308 0,1.0078125 -0.585937,1.8984375 -1.265625,2.6601562 l -2.414062,2.7070313 v 0.28125 h 4.359375 z m 0,0"
         style="fill:#000000;fill-opacity:1;fill-rule:nonzero;stroke:none" />
      <path
         id="path78"
         d="m 59.424438,-4.6979375 c 0,-0.3515625 -0.292969,-0.5859375 -0.574219,-0.5859375 -0.351563,0 -0.585938,0.2929688 -0.585938,0.5742188 0,0.3515625 0.28125,0.5859375 0.574219,0.5859375 0.339844,0 0.585938,-0.28125 0.585938,-0.5742188 z m 0,0"
         style="fill:#000000;fill-opacity:1;fill-rule:nonzero;stroke:none" />
    </g>
  </g>
</svg>
