<?xml version="1.0" encoding="UTF-8" standalone="no"?>
<!-- Created with Inkscape (http://www.inkscape.org/) -->

<svg
   version="1.1"
   id="svg1"
   width="794.55066"
   height="1123.6533"
   viewBox="0 0 794.55066 1123.6533"
   sodipodi:docname="LigaMatematycznaMatuskiego_Liceum_Zestaw4_2011_2012_page0.pdf"
   xmlns:inkscape="http://www.inkscape.org/namespaces/inkscape"
   xmlns:sodipodi="http://sodipodi.sourceforge.net/DTD/sodipodi-0.dtd"
   xmlns="http://www.w3.org/2000/svg"
   xmlns:svg="http://www.w3.org/2000/svg">
  <defs
     id="defs1" />
  <sodipodi:namedview
     id="namedview1"
     pagecolor="#ffffff"
     bordercolor="#000000"
     borderopacity="0.25"
     inkscape:showpageshadow="2"
     inkscape:pageopacity="0.0"
     inkscape:pagecheckerboard="0"
     inkscape:deskcolor="#d1d1d1">
    <inkscape:page
       x="0"
       y="0"
       inkscape:label="1"
       id="page1"
       width="794.55066"
       height="1123.6533"
       margin="0"
       bleed="0" />
  </sodipodi:namedview>
  <g
     id="g1"
     inkscape:groupmode="layer"
     inkscape:label="1">
    <g
       id="g2"
       aria-label="LIGAMATEMATYCZNA&#10;STYCZE2012&#10;SZKOAPONADGIMNAZJALNA&#10;ZADANIE1.&#10;Rozwi¡»równanie&#10;1"
       transform="matrix(1.3333333,0,0,1.3333333,274.724,56.069333)">
      <path
         id="path2"
         d="m 56.07907,108.19409 c 0,-0.26953 0,-0.28125 -0.246093,-0.28125 -0.28125,0.31641 -0.878907,0.76172 -2.109375,0.76172 v 0.35157 c 0.269531,0 0.867187,0 1.523437,-0.31641 v 6.22266 c 0,0.43359 -0.03516,0.57421 -1.078125,0.57421 h -0.375 v 0.35157 c 0.316406,-0.0234 1.476563,-0.0234 1.875,-0.0234 0.398438,0 1.546875,0 1.863281,0.0234 v -0.35157 h -0.363281 c -1.054687,0 -1.089844,-0.14062 -1.089844,-0.57421 z m 0,0"
         style="fill:#000000;fill-opacity:1;fill-rule:nonzero;stroke:none" />
    </g>
    <path
       id="path3"
       d="M 0,0 H 6.652"
       style="fill:none;stroke:#000000;stroke-width:0.478;stroke-linecap:butt;stroke-linejoin:miter;stroke-miterlimit:10;stroke-dasharray:none;stroke-opacity:1"
       transform="matrix(1.3333333,0,0,-1.3333333,344.36933,217.34533)" />
    <g
       id="g3"
       aria-label="x&#10;+&#10;1"
       transform="matrix(1.3333333,0,0,1.3333333,344.36933,232.264)">
      <path
         id="path4"
         d="m 5.6614766,-4.8737813 c -0.375,0.070312 -0.515625,0.3515625 -0.515625,0.5859375 0,0.28125 0.2226562,0.375 0.3867187,0.375 0.3632813,0 0.609375,-0.3046875 0.609375,-0.6328125 0,-0.4921875 -0.5742187,-0.7265625 -1.078125,-0.7265625 -0.7265625,0 -1.125,0.7148438 -1.2421875,0.9492188 -0.2695312,-0.9023438 -1.0078125,-0.9492188 -1.2304687,-0.9492188 -1.21875,0 -1.86328129,1.5703125 -1.86328129,1.828125 0,0.046875 0.046875,0.1054688 0.12890625,0.1054688 0.10546875,0 0.12890625,-0.070312 0.15234374,-0.1171875 0.3984375,-1.3242188 1.2070313,-1.5703125 1.546875,-1.5703125 0.5390625,0 0.6445313,0.4921875 0.6445313,0.7851562 0,0.2578125 -0.070312,0.5390625 -0.2109375,1.1132813 l -0.4101563,1.6289062 c -0.1757812,0.72656255 -0.5273437,1.38281255 -1.1601562,1.38281255 -0.058594,0 -0.3515625,0 -0.60937504,-0.15234375 0.43359374,-0.09375 0.52734374,-0.4453125 0.52734374,-0.5859375 0,-0.2460938 -0.1757812,-0.3867188 -0.39843749,-0.3867188 -0.29296875,0 -0.59765625,0.2460938 -0.59765625,0.63281255 0,0.50390625 0.5625,0.7265625 1.06640624,0.7265625 0.5742188,0 0.984375,-0.45703125 1.2304688,-0.9375 0.1992187,0.703125 0.796875,0.9375 1.2304687,0.9375 1.2304688,0 1.875,-1.55859375 1.875,-1.82812505 0,-0.058594 -0.046875,-0.1054687 -0.1289062,-0.1054687 -0.1054688,0 -0.1171875,0.058594 -0.1523438,0.1523437 -0.3164062,1.05468755 -1.0195312,1.54687505 -1.546875,1.54687505 -0.421875,0 -0.65625,-0.31640625 -0.65625,-0.80859375 0,-0.2578125 0.058594,-0.4453125 0.2460938,-1.2421875 l 0.421875,-1.6171875 c 0.1757812,-0.7265625 0.5859375,-1.2421875 1.125,-1.2421875 0.035156,0 0.3632812,0 0.609375,0.1523437 z m 0,0"
         style="fill:#000000;fill-opacity:1;fill-rule:nonzero;stroke:none" />
      <path
         id="path5"
         d="m 15.273781,-10.967531 h 3.304688 c 0.164062,0 0.375,0 0.375,-0.210938 0,-0.222656 -0.199219,-0.222656 -0.375,-0.222656 h -3.304688 v -3.304688 c 0,-0.164062 0,-0.386718 -0.210937,-0.386718 -0.234375,0 -0.234375,0.210937 -0.234375,0.386718 v 3.304688 H 11.5355 c -0.175781,0 -0.386719,0 -0.386719,0.210937 0,0.222657 0.199219,0.222657 0.386719,0.222657 h 3.292969 v 3.3046872 c 0,0.1640625 0,0.3867188 0.222656,0.3867188 0.222656,0 0.222656,-0.2109375 0.222656,-0.3867188 z m 11.774414,-12.984375 c 0,-0.269532 0,-0.28125 -0.246093,-0.28125 -0.28125,0.316406 -0.878907,0.761718 -2.109375,0.761718 v 0.351563 c 0.269531,0 0.867187,0 1.523437,-0.316406 v 6.222656 c 0,0.433594 -0.03516,0.574219 -1.078125,0.574219 h -0.375 v 0.351562 c 0.316406,-0.02344 1.476563,-0.02344 1.875,-0.02344 0.398438,0 1.546875,0 1.863281,0.02344 v -0.351562 h -0.363281 c -1.054687,0 -1.089844,-0.140625 -1.089844,-0.574219 z m 0,0"
         style="fill:#000000;fill-opacity:1;fill-rule:nonzero;stroke:none" />
    </g>
    <path
       id="path6"
       d="M 0,0 H 6.137"
       style="fill:none;stroke:#000000;stroke-width:0.478;stroke-linecap:butt;stroke-linejoin:miter;stroke-miterlimit:10;stroke-dasharray:none;stroke-opacity:1"
       transform="matrix(1.3333333,0,0,-1.3333333,375.65067,217.34533)" />
    <g
       id="g6"
       aria-label="y&#10;=1−&#10;1"
       transform="matrix(1.3333333,0,0,1.3333333,375.65067,232.264)">
      <path
         id="path7"
         d="M 3.1418828,1.3371562 C 2.8254766,1.7941875 2.3567266,2.2043437 1.7707891,2.2043437 c -0.140625,0 -0.7148438,-0.023437 -0.90234379,-0.5742187 0.046875,0.011719 0.10546875,0.011719 0.12890625,0.011719 0.35156254,0 0.59765624,-0.3164062 0.59765624,-0.5859375 0,-0.28124995 -0.234375,-0.37499995 -0.4101562,-0.37499995 -0.18750004,0 -0.60937504,0.140625 -0.60937504,0.72656245 0,0.609375 0.51562504,1.03125 1.19531254,1.03125 1.1953125,0 2.4023437,-1.1015625 2.7421875,-2.4257812 l 1.171875,-4.6640625 c 0.011719,-0.058594 0.035156,-0.1289063 0.035156,-0.1992188 0,-0.1757812 -0.1523437,-0.3046875 -0.328125,-0.3046875 -0.1054687,0 -0.3632812,0.046875 -0.4570312,0.4101563 L 4.0559453,-1.22925 c -0.058594,0.2109375 -0.058594,0.234375 -0.1523437,0.375 -0.2460938,0.328125 -0.6445313,0.73828125 -1.2070313,0.73828125 -0.6796875,0 -0.7382812,-0.65625 -0.7382812,-0.98437505 0,-0.6796875 0.328125,-1.6054687 0.6445312,-2.4609375 0.140625,-0.3515625 0.2109375,-0.515625 0.2109375,-0.75 0,-0.5039062 -0.3632812,-0.9609375 -0.9492187,-0.9609375 -1.10156254,0 -1.53515629,1.734375 -1.53515629,1.828125 0,0.046875 0.046875,0.1054688 0.12890625,0.1054688 0.10546875,0 0.1171875,-0.046875 0.1640625,-0.2109375 C 0.91532031,-4.557375 1.3606328,-5.026125 1.8293828,-5.026125 c 0.1054688,0 0.3164063,0 0.3164063,0.3867187 0,0.3164063 -0.140625,0.65625 -0.3164063,1.1132813 -0.5859375,1.5703125 -0.5859375,1.9570312 -0.5859375,2.25 0,1.13671875 0.8085938,1.39453125 1.40625,1.39453125 0.3515625,0 0.7851563,-0.10546875 1.1953125,-0.55078125 l 0.011719,0.0117188 C 3.6809455,0.2824688 3.563758,0.7512188 3.1418828,1.3371562 Z m 0,0"
         style="fill:#000000;fill-opacity:1;fill-rule:nonzero;stroke:none" />
      <path
         id="path8"
         d="m 18.72782,-12.069094 c 0.164063,0 0.375,0 0.375,-0.222656 0,-0.222656 -0.199218,-0.222656 -0.375,-0.222656 h -7.042968 c -0.175782,0 -0.386719,0 -0.386719,0.210937 0,0.234375 0.199219,0.234375 0.386719,0.234375 z m 0,2.214844 c 0.164063,0 0.375,0 0.375,-0.210938 0,-0.234375 -0.199218,-0.234375 -0.375,-0.234375 h -7.042968 c -0.175782,0 -0.386719,0 -0.386719,0.222657 0,0.222656 0.199219,0.222656 0.386719,0.222656 z m 7.798828,-6.011719 c 0,-0.269531 0,-0.28125 -0.246093,-0.28125 -0.28125,0.316406 -0.878907,0.761719 -2.109375,0.761719 v 0.351562 c 0.269531,0 0.867187,0 1.523437,-0.316406 v 6.2226565 c 0,0.4335937 -0.03516,0.5742187 -1.078125,0.5742187 h -0.375 v 0.3515625 c 0.316406,-0.023437 1.476563,-0.023437 1.875,-0.023437 0.398438,0 1.546875,0 1.863281,0.023437 v -0.3515625 h -0.363281 c -1.054687,0 -1.089844,-0.140625 -1.089844,-0.5742187 z m 0,0"
         style="fill:#000000;fill-opacity:1;fill-rule:nonzero;stroke:none" />
      <path
         id="path9"
         d="m 39.464148,-10.955813 c 0.210938,0 0.421875,0 0.421875,-0.234375 0,-0.234375 -0.210937,-0.234375 -0.421875,-0.234375 h -6.46875 c -0.199218,0 -0.410156,0 -0.410156,0.234375 0,0.234375 0.210938,0.234375 0.410156,0.234375 z m 0,0"
         style="fill:#000000;fill-opacity:1;fill-rule:nonzero;stroke:none" />
      <path
         id="path10"
         d="m 51.651648,-23.951906 c 0,-0.269532 0,-0.28125 -0.246093,-0.28125 -0.28125,0.316406 -0.878907,0.761718 -2.109375,0.761718 v 0.351563 c 0.269531,0 0.867187,0 1.523437,-0.316406 v 6.222656 c 0,0.433594 -0.03516,0.574219 -1.078125,0.574219 h -0.375 v 0.351562 c 0.316406,-0.02344 1.476563,-0.02344 1.875,-0.02344 0.398438,0 1.546875,0 1.863281,0.02344 v -0.351562 h -0.363281 c -1.054687,0 -1.089844,-0.140625 -1.089844,-0.574219 z m 0,0"
         style="fill:#000000;fill-opacity:1;fill-rule:nonzero;stroke:none" />
    </g>
    <path
       id="path11"
       d="M 0,0 H 12.789"
       style="fill:none;stroke:#000000;stroke-width:0.478;stroke-linecap:butt;stroke-linejoin:miter;stroke-miterlimit:10;stroke-dasharray:none;stroke-opacity:1"
       transform="matrix(1.3333333,0,0,-1.3333333,435.30267,217.34533)" />
    <g
       id="g11"
       aria-label="xy&#10;wzbiorzeliczbcaªkowitych.&#10;ZADANIE2.&#10;Wyka»,»eje»elia−1,a+1s¡liczbamipierwszymiwi¦kszymiod10,toliczbaa&#10;3&#10;−4ajest&#10;podzielnaprzez240.&#10;ZADANIE3.&#10;Wyznaczwszystkiefunkcjef:R→Rspeªniaj¡cewarunek&#10;2f(x)+3f(1−x)=4x−1&#10;dlaka»dejliczbyrzeczywistejx.&#10;ZADANIE4.&#10;Dwusiecznek¡tówzewn¦trznychwypukªegoczworok¡taABCDutworzyªynowyczworok¡t.&#10;Udowodnij,»esumadªugo±ciprzek¡tnychnowegoczworok¡tajestniemniejszani»obwódczwo-&#10;rok¡taABCD.&#10;ZADANIE5.&#10;Wklasiejest20uczniówwpisanychdodziennikapodnumeramiod1do20.Czyudasi¦ustawi¢&#10;uczniówwparytak,abysumanumerówuczniówka»dejparybyªapodzielnaprzez6?"
       transform="matrix(1.3333333,0,0,1.3333333,435.30267,232.264)">
      <path
         id="path12"
         d="m 5.6587422,-4.8737813 c -0.375,0.070312 -0.515625,0.3515625 -0.515625,0.5859375 0,0.28125 0.2226562,0.375 0.3867187,0.375 0.3632813,0 0.609375,-0.3046875 0.609375,-0.6328125 0,-0.4921875 -0.5742187,-0.7265625 -1.078125,-0.7265625 -0.7265625,0 -1.125,0.7148438 -1.2421875,0.9492188 -0.2695312,-0.9023438 -1.0078125,-0.9492188 -1.2304687,-0.9492188 -1.21875,0 -1.86328126,1.5703125 -1.86328126,1.828125 0,0.046875 0.046875,0.1054688 0.12890625,0.1054688 0.10546875,0 0.12890625,-0.070312 0.15234371,-0.1171875 0.3984375,-1.3242188 1.2070313,-1.5703125 1.546875,-1.5703125 0.5390625,0 0.6445313,0.4921875 0.6445313,0.7851562 0,0.2578125 -0.070312,0.5390625 -0.2109375,1.1132813 l -0.4101563,1.6289062 c -0.1757812,0.72656255 -0.5273437,1.38281255 -1.1601562,1.38281255 -0.058594,0 -0.3515625,0 -0.60937501,-0.15234375 0.43359371,-0.09375 0.52734371,-0.4453125 0.52734371,-0.5859375 0,-0.2460938 -0.1757812,-0.3867188 -0.39843746,-0.3867188 -0.29296875,0 -0.59765625,0.2460938 -0.59765625,0.63281255 0,0.50390625 0.5625,0.7265625 1.06640621,0.7265625 0.5742188,0 0.984375,-0.45703125 1.2304688,-0.9375 0.1992187,0.703125 0.796875,0.9375 1.2304687,0.9375 1.2304688,0 1.875,-1.55859375 1.875,-1.82812505 0,-0.058594 -0.046875,-0.1054687 -0.1289062,-0.1054687 -0.1054688,0 -0.1171875,0.058594 -0.1523438,0.1523437 -0.3164062,1.05468755 -1.0195312,1.54687505 -1.546875,1.54687505 -0.421875,0 -0.65625,-0.31640625 -0.65625,-0.80859375 0,-0.2578125 0.058594,-0.4453125 0.2460938,-1.2421875 l 0.421875,-1.6171875 c 0.1757812,-0.7265625 0.5859375,-1.2421875 1.125,-1.2421875 0.035156,0 0.3632812,0 0.609375,0.1523437 z M 9.7925313,1.3371562 C 9.476125,1.7941875 9.007375,2.2043437 8.4214375,2.2043437 c -0.140625,0 -0.7148437,-0.023437 -0.9023437,-0.5742187 0.046875,0.011719 0.1054687,0.011719 0.1289062,0.011719 0.3515625,0 0.5976563,-0.3164062 0.5976563,-0.5859375 0,-0.28124995 -0.234375,-0.37499995 -0.4101563,-0.37499995 -0.1875,0 -0.609375,0.140625 -0.609375,0.72656245 0,0.609375 0.515625,1.03125 1.1953125,1.03125 1.1953125,0 2.4023435,-1.1015625 2.7421875,-2.4257812 L 12.3355,-4.651125 c 0.01172,-0.058594 0.03516,-0.1289063 0.03516,-0.1992188 0,-0.1757812 -0.152343,-0.3046875 -0.328125,-0.3046875 -0.105468,0 -0.363281,0.046875 -0.457031,0.4101563 l -0.878906,3.515625 c -0.05859,0.2109375 -0.05859,0.234375 -0.152344,0.375 -0.246094,0.328125 -0.6445312,0.73828125 -1.2070312,0.73828125 -0.6796875,0 -0.7382813,-0.65625 -0.7382813,-0.98437505 0,-0.6796875 0.328125,-1.6054687 0.6445313,-2.4609375 0.140625,-0.3515625 0.2109375,-0.515625 0.2109375,-0.75 0,-0.5039062 -0.3632813,-0.9609375 -0.9492188,-0.9609375 -1.1015625,0 -1.5351562,1.734375 -1.5351562,1.828125 0,0.046875 0.046875,0.1054688 0.1289062,0.1054688 0.1054688,0 0.1171875,-0.046875 0.1640625,-0.2109375 0.2929688,-1.0078125 0.7382813,-1.4765625 1.2070313,-1.4765625 0.1054687,0 0.3164062,0 0.3164062,0.3867187 0,0.3164063 -0.140625,0.65625 -0.3164062,1.1132813 -0.5859375,1.5703125 -0.5859375,1.9570312 -0.5859375,2.25 0,1.13671875 0.8085937,1.39453125 1.40625,1.39453125 0.3515625,0 0.7851562,-0.10546875 1.1953122,-0.55078125 l 0.01172,0.0117188 c -0.175781,0.703125 -0.292969,1.171875 -0.7148437,1.7578124 z m 0,0"
         style="fill:#000000;fill-opacity:1;fill-rule:nonzero;stroke:none" />
      <path
         id="path13"
         d="m -177.90376,65.456297 c -0.0586,0.199219 -0.0586,0.222656 -0.22265,0.445312 -0.26954,0.339844 -0.79688,0.855469 -1.35938,0.855469 -0.48047,0 -0.76172,-0.445312 -0.76172,-1.148437 0,-0.65625 0.375,-1.992188 0.59766,-2.496094 0.41015,-0.84375 0.97265,-1.265625 1.4414,-1.265625 0.78516,0 0.9375,0.972656 0.9375,1.066406 0,0.01172 -0.0351,0.175781 -0.0469,0.199219 z m 0.76172,-3.070313 c -0.12891,-0.304687 -0.44531,-0.785156 -1.06641,-0.785156 -1.35937,0 -2.8125,1.746094 -2.8125,3.515625 0,1.183594 0.69141,1.875 1.5,1.875 0.65625,0 1.21875,-0.515625 1.5586,-0.902344 0.11719,0.703125 0.67969,0.902344 1.04297,0.902344 0.35156,0 0.64453,-0.210937 0.85547,-0.644531 0.1875,-0.410156 0.36328,-1.136719 0.36328,-1.183594 0,-0.05859 -0.0469,-0.105469 -0.11719,-0.105469 -0.11719,0 -0.12891,0.05859 -0.17578,0.234375 -0.17578,0.714844 -0.39844,1.464844 -0.89063,1.464844 -0.35156,0 -0.375,-0.316406 -0.375,-0.550781 0,-0.28125 0.0352,-0.410156 0.14063,-0.878906 0.082,-0.292969 0.15234,-0.5625 0.24609,-0.902344 0.4336,-1.792969 0.55078,-2.226563 0.55078,-2.296875 0,-0.164063 -0.14062,-0.292969 -0.3164,-0.292969 -0.375,0 -0.48047,0.410156 -0.50391,0.550781 z m 0,0"
         style="fill:#000000;fill-opacity:1;fill-rule:nonzero;stroke:none" />
      <path
         id="path14"
         d="m -164.3393,64.120359 c 0.21093,0 0.42187,0 0.42187,-0.234375 0,-0.234375 -0.21094,-0.234375 -0.42187,-0.234375 h -6.46875 c -0.19922,0 -0.41016,0 -0.41016,0.234375 0,0.234375 0.21094,0.234375 0.41016,0.234375 z m 0,0"
         style="fill:#000000;fill-opacity:1;fill-rule:nonzero;stroke:none" />
      <path
         id="path15"
         d="m -156.33247,59.210203 c 0,-0.269531 0,-0.28125 -0.24609,-0.28125 -0.28125,0.316406 -0.87891,0.761719 -2.10938,0.761719 v 0.351562 c 0.26953,0 0.86719,0 1.52344,-0.316406 v 6.222656 c 0,0.433594 -0.0352,0.574219 -1.07812,0.574219 h -0.375 v 0.351563 c 0.3164,-0.02344 1.47656,-0.02344 1.875,-0.02344 0.39843,0 1.54687,0 1.86328,0.02344 v -0.351563 h -0.36328 c -1.05469,0 -1.08985,-0.140625 -1.08985,-0.574219 z m 0,0"
         style="fill:#000000;fill-opacity:1;fill-rule:nonzero;stroke:none" />
      <path
         id="path16"
         d="m -142.28755,65.456297 c -0.0586,0.199219 -0.0586,0.222656 -0.22265,0.445312 -0.26953,0.339844 -0.79688,0.855469 -1.35938,0.855469 -0.48047,0 -0.76172,-0.445312 -0.76172,-1.148437 0,-0.65625 0.375,-1.992188 0.59766,-2.496094 0.41016,-0.84375 0.97266,-1.265625 1.44141,-1.265625 0.78515,0 0.9375,0.972656 0.9375,1.066406 0,0.01172 -0.0352,0.175781 -0.0469,0.199219 z m 0.76172,-3.070313 c -0.1289,-0.304687 -0.44531,-0.785156 -1.0664,-0.785156 -1.35938,0 -2.8125,1.746094 -2.8125,3.515625 0,1.183594 0.6914,1.875 1.5,1.875 0.65625,0 1.21875,-0.515625 1.55859,-0.902344 0.11719,0.703125 0.67969,0.902344 1.04297,0.902344 0.35156,0 0.64453,-0.210937 0.85547,-0.644531 0.1875,-0.410156 0.36328,-1.136719 0.36328,-1.183594 0,-0.05859 -0.0469,-0.105469 -0.11719,-0.105469 -0.11719,0 -0.12891,0.05859 -0.17578,0.234375 -0.17578,0.714844 -0.39844,1.464844 -0.89063,1.464844 -0.35156,0 -0.375,-0.316406 -0.375,-0.550781 0,-0.28125 0.0352,-0.410156 0.14063,-0.878906 0.082,-0.292969 0.15234,-0.5625 0.24609,-0.902344 0.4336,-1.792969 0.55078,-2.226563 0.55078,-2.296875 0,-0.164063 -0.14062,-0.292969 -0.3164,-0.292969 -0.375,0 -0.48047,0.410156 -0.50391,0.550781 z m 0,0"
         style="fill:#000000;fill-opacity:1;fill-rule:nonzero;stroke:none" />
      <path
         id="path17"
         d="m -131.83149,64.108641 h 3.30469 c 0.16406,0 0.375,0 0.375,-0.210938 0,-0.222656 -0.19922,-0.222656 -0.375,-0.222656 h -3.30469 v -3.304688 c 0,-0.164062 0,-0.386718 -0.21094,-0.386718 -0.23437,0 -0.23437,0.210937 -0.23437,0.386718 v 3.304688 h -3.29297 c -0.17578,0 -0.38672,0 -0.38672,0.210937 0,0.222657 0.19922,0.222657 0.38672,0.222657 h 3.29297 v 3.304687 c 0,0.164063 0,0.386719 0.22265,0.386719 0.22266,0 0.22266,-0.210938 0.22266,-0.386719 z m 10.9248,-4.898438 c 0,-0.269531 0,-0.28125 -0.24609,-0.28125 -0.28125,0.316406 -0.87891,0.761719 -2.10938,0.761719 v 0.351562 c 0.26954,0 0.86719,0 1.52344,-0.316406 v 6.222656 c 0,0.433594 -0.0352,0.574219 -1.07812,0.574219 h -0.375 v 0.351563 c 0.3164,-0.02344 1.47656,-0.02344 1.875,-0.02344 0.39843,0 1.54687,0 1.86328,0.02344 v -0.351563 h -0.36328 c -1.05469,0 -1.08985,-0.140625 -1.08985,-0.574219 z m 0,0"
         style="fill:#000000;fill-opacity:1;fill-rule:nonzero;stroke:none" />
      <path
         id="path18"
         d="m 87.048391,59.210203 c 0,-0.269531 0,-0.28125 -0.246094,-0.28125 -0.28125,0.316406 -0.878906,0.761719 -2.109375,0.761719 v 0.351562 c 0.269531,0 0.867187,0 1.523437,-0.316406 v 6.222656 c 0,0.433594 -0.03516,0.574219 -1.078125,0.574219 h -0.375 v 0.351563 c 0.316407,-0.02344 1.476563,-0.02344 1.875,-0.02344 0.398438,0 1.546875,0 1.863282,0.02344 v -0.351563 h -0.363282 c -1.054687,0 -1.089843,-0.140625 -1.089843,-0.574219 z m 7.763672,3.84375 c 0,-0.996094 -0.05859,-1.96875 -0.492188,-2.871094 -0.492187,-0.996093 -1.347656,-1.253906 -1.933594,-1.253906 -0.691406,0 -1.546875,0.339844 -1.980468,1.335938 -0.339844,0.75 -0.457032,1.488281 -0.457032,2.789062 0,1.160156 0.08203,2.027344 0.515625,2.871094 0.457032,0.914062 1.289063,1.195312 1.910157,1.195312 1.042968,0 1.640625,-0.621093 1.980468,-1.3125 0.433594,-0.890625 0.457032,-2.0625 0.457032,-2.753906 z m -2.4375,3.832031 c -0.386719,0 -1.160157,-0.210937 -1.382813,-1.523437 -0.140625,-0.714844 -0.140625,-1.617188 -0.140625,-2.460938 0,-0.972656 0,-1.863281 0.199219,-2.566406 0.199219,-0.796875 0.808594,-1.171875 1.324219,-1.171875 0.457031,0 1.148437,0.28125 1.371093,1.300781 0.152344,0.679688 0.152344,1.628907 0.152344,2.4375 0,0.808594 0,1.710938 -0.128906,2.4375 -0.222656,1.324219 -0.972656,1.546875 -1.394531,1.546875 z m 0,0"
         style="fill:#000000;fill-opacity:1;fill-rule:nonzero;stroke:none" />
      <path
         id="path19"
         d="m 155.82866,65.456297 c -0.0586,0.199219 -0.0586,0.222656 -0.22265,0.445312 -0.26953,0.339844 -0.79688,0.855469 -1.35938,0.855469 -0.48047,0 -0.76172,-0.445312 -0.76172,-1.148437 0,-0.65625 0.375,-1.992188 0.59766,-2.496094 0.41016,-0.84375 0.97266,-1.265625 1.44141,-1.265625 0.78515,0 0.9375,0.972656 0.9375,1.066406 0,0.01172 -0.0352,0.175781 -0.0469,0.199219 z m 0.76172,-3.070313 c -0.1289,-0.304687 -0.44531,-0.785156 -1.0664,-0.785156 -1.35938,0 -2.8125,1.746094 -2.8125,3.515625 0,1.183594 0.6914,1.875 1.5,1.875 0.65625,0 1.21875,-0.515625 1.55859,-0.902344 0.11719,0.703125 0.67969,0.902344 1.04297,0.902344 0.35156,0 0.64453,-0.210937 0.85547,-0.644531 0.1875,-0.410156 0.36328,-1.136719 0.36328,-1.183594 0,-0.05859 -0.0469,-0.105469 -0.11719,-0.105469 -0.11719,0 -0.1289,0.05859 -0.17578,0.234375 -0.17578,0.714844 -0.39844,1.464844 -0.89062,1.464844 -0.35157,0 -0.375,-0.316406 -0.375,-0.550781 0,-0.28125 0.0352,-0.410156 0.14062,-0.878906 0.082,-0.292969 0.15234,-0.5625 0.24609,-0.902344 0.4336,-1.792969 0.55079,-2.226563 0.55079,-2.296875 0,-0.164063 -0.14063,-0.292969 -0.31641,-0.292969 -0.375,0 -0.48047,0.410156 -0.50391,0.550781 z m 0,0"
         style="fill:#000000;fill-opacity:1;fill-rule:nonzero;stroke:none" />
      <path
         id="path20"
         d="m 160.39019,59.875242 c 0.63281,0 1.03125,0.457031 1.03125,1.300781 0,0.996094 -0.57422,1.289063 -0.9961,1.289063 -0.43359,0 -1.03125,-0.164063 -1.3125,-0.585938 0.29297,0 0.49219,-0.175781 0.49219,-0.445312 0,-0.257813 -0.1875,-0.433594 -0.44531,-0.433594 -0.21094,0 -0.43359,0.128906 -0.43359,0.457031 0,0.75 0.80859,1.242188 1.72265,1.242188 1.05469,0 1.79297,-0.726563 1.79297,-1.523438 0,-0.667968 -0.51562,-1.265625 -1.33594,-1.441406 0.63282,-0.222656 1.10157,-0.773437 1.10157,-1.40625 0,-0.632812 -0.71485,-1.089844 -1.54688,-1.089844 -0.85547,0 -1.5,0.457032 -1.5,1.066407 0,0.292968 0.19922,0.421875 0.41016,0.421875 0.24609,0 0.41015,-0.175782 0.41015,-0.410157 0,-0.292968 -0.25781,-0.398437 -0.43359,-0.410156 0.33984,-0.433594 0.94922,-0.46875 1.08984,-0.46875 0.21094,0 0.8086,0.07031 0.8086,0.890625 0,0.5625 -0.22266,0.890625 -0.33985,1.019531 -0.23437,0.246094 -0.42187,0.257813 -0.90234,0.292969 -0.15234,0.01172 -0.22266,0.02344 -0.22266,0.117188 0,0.117187 0.0703,0.117187 0.21094,0.117187 z m 0,0"
         style="fill:#000000;fill-opacity:1;fill-rule:nonzero;stroke:none" />
      <path
         id="path21"
         d="m 174.12163,64.120359 c 0.21094,0 0.42188,0 0.42188,-0.234375 0,-0.234375 -0.21094,-0.234375 -0.42188,-0.234375 h -6.46875 c -0.19922,0 -0.41015,0 -0.41015,0.234375 0,0.234375 0.21093,0.234375 0.41015,0.234375 z m 0,0"
         style="fill:#000000;fill-opacity:1;fill-rule:nonzero;stroke:none" />
      <path
         id="path22"
         d="m 182.99859,59.093016 c 0,-0.222657 0,-0.292969 -0.16407,-0.292969 -0.0937,0 -0.1289,0 -0.22265,0.152344 l -3.59766,5.578125 v 0.351562 h 3.14063 v 1.078125 c 0,0.445313 -0.0234,0.5625 -0.90235,0.5625 h -0.23437 v 0.351563 c 0.26953,-0.02344 1.21875,-0.02344 1.55859,-0.02344 0.32813,0 1.28906,0 1.55859,0.02344 v -0.351563 h -0.23437 c -0.86719,0 -0.90234,-0.117187 -0.90234,-0.5625 v -1.078125 h 1.20703 v -0.351562 h -1.20703 z m -0.78516,0.9375 v 4.5 h -2.90625 z m 0,0"
         style="fill:#000000;fill-opacity:1;fill-rule:nonzero;stroke:none" />
      <path
         id="path23"
         d="m 188.13726,65.456297 c -0.0586,0.199219 -0.0586,0.222656 -0.22266,0.445312 -0.26953,0.339844 -0.79687,0.855469 -1.35937,0.855469 -0.48047,0 -0.76172,-0.445312 -0.76172,-1.148437 0,-0.65625 0.375,-1.992188 0.59765,-2.496094 0.41016,-0.84375 0.97266,-1.265625 1.44141,-1.265625 0.78516,0 0.9375,0.972656 0.9375,1.066406 0,0.01172 -0.0352,0.175781 -0.0469,0.199219 z m 0.76172,-3.070313 c -0.12891,-0.304687 -0.44532,-0.785156 -1.06641,-0.785156 -1.35937,0 -2.8125,1.746094 -2.8125,3.515625 0,1.183594 0.69141,1.875 1.5,1.875 0.65625,0 1.21875,-0.515625 1.55859,-0.902344 0.11719,0.703125 0.67969,0.902344 1.04297,0.902344 0.35157,0 0.64453,-0.210937 0.85547,-0.644531 0.1875,-0.410156 0.36328,-1.136719 0.36328,-1.183594 0,-0.05859 -0.0469,-0.105469 -0.11718,-0.105469 -0.11719,0 -0.12891,0.05859 -0.17579,0.234375 -0.17578,0.714844 -0.39843,1.464844 -0.89062,1.464844 -0.35156,0 -0.375,-0.316406 -0.375,-0.550781 0,-0.28125 0.0352,-0.410156 0.14062,-0.878906 0.082,-0.292969 0.15235,-0.5625 0.2461,-0.902344 0.43359,-1.792969 0.55078,-2.226563 0.55078,-2.296875 0,-0.164063 -0.14063,-0.292969 -0.31641,-0.292969 -0.375,0 -0.48047,0.410156 -0.5039,0.550781 z m 0,0"
         style="fill:#000000;fill-opacity:1;fill-rule:nonzero;stroke:none" />
      <path
         id="path24"
         d="m -180.16548,82.20532 h -0.26953 c -0.0351,0.199219 -0.1289,0.855469 -0.24609,1.042969 -0.082,0.117188 -0.76172,0.117188 -1.125,0.117188 h -2.21485 c 0.32813,-0.28125 1.05469,-1.042969 1.3711,-1.335938 1.8164,-1.664062 2.48437,-2.285156 2.48437,-3.46875 0,-1.382812 -1.08984,-2.296875 -2.47265,-2.296875 -1.39453,0 -2.20313,1.183594 -2.20313,2.203125 0,0.609375 0.52735,0.609375 0.5625,0.609375 0.2461,0 0.5625,-0.175781 0.5625,-0.5625 0,-0.328125 -0.23437,-0.550781 -0.5625,-0.550781 -0.10547,0 -0.1289,0 -0.16406,0.01172 0.22266,-0.820313 0.86719,-1.371094 1.64062,-1.371094 1.01954,0 1.64063,0.855469 1.64063,1.957031 0,1.007813 -0.58594,1.898438 -1.26563,2.660156 l -2.41406,2.707032 v 0.28125 h 4.35938 z m 4.9043,-5.777343 c 0,-0.222657 0,-0.292969 -0.16406,-0.292969 -0.0937,0 -0.12891,0 -0.22266,0.152344 l -3.59765,5.578125 v 0.351562 h 3.14062 v 1.078125 c 0,0.445313 -0.0234,0.5625 -0.90234,0.5625 h -0.23438 v 0.351563 c 0.26953,-0.02344 1.21875,-0.02344 1.5586,-0.02344 0.32812,0 1.28906,0 1.55859,0.02344 v -0.351563 h -0.23438 c -0.86718,0 -0.90234,-0.117187 -0.90234,-0.5625 v -1.078125 h 1.20703 v -0.351562 h -1.20703 z m -0.78516,0.9375 v 4.5 h -2.90625 z m 7.68164,3.023437 c 0,-0.996094 -0.0586,-1.96875 -0.49218,-2.871094 -0.49219,-0.996093 -1.34766,-1.253906 -1.9336,-1.253906 -0.6914,0 -1.54687,0.339844 -1.98047,1.335938 -0.33984,0.75 -0.45703,1.488281 -0.45703,2.789062 0,1.160156 0.082,2.027344 0.51563,2.871094 0.45703,0.914062 1.28906,1.195312 1.91015,1.195312 1.04297,0 1.64063,-0.621093 1.98047,-1.3125 0.4336,-0.890625 0.45703,-2.0625 0.45703,-2.753906 z m -2.4375,3.832031 c -0.38671,0 -1.16015,-0.210937 -1.38281,-1.523437 -0.14062,-0.714844 -0.14062,-1.617188 -0.14062,-2.460938 0,-0.972656 0,-1.863281 0.19922,-2.566406 0.19921,-0.796875 0.80859,-1.171875 1.32421,-1.171875 0.45704,0 1.14844,0.28125 1.3711,1.300781 0.15234,0.679688 0.15234,1.628907 0.15234,2.4375 0,0.808594 0,1.710938 -0.1289,2.4375 -0.22266,1.324219 -0.97266,1.546875 -1.39454,1.546875 z m 0,0"
         style="fill:#000000;fill-opacity:1;fill-rule:nonzero;stroke:none" />
      <path
         id="path25"
         d="m -121.7768,128.24829 c 0.23437,0 0.32812,0 0.32812,-0.22266 0,-0.1289 -0.0937,-0.1289 -0.30469,-0.1289 h -0.97265 c 0.23437,-1.23047 0.39843,-2.07422 0.49218,-2.46094 0.0703,-0.28125 0.32813,-0.5625 0.63282,-0.5625 0.25781,0 0.5039,0.10547 0.62109,0.22266 -0.46875,0.0469 -0.60937,0.38671 -0.60937,0.59765 0,0.23438 0.1875,0.375 0.41015,0.375 0.23438,0 0.59766,-0.19922 0.59766,-0.65625 0,-0.5039 -0.50391,-0.77344 -1.03125,-0.77344 -0.51563,0 -1.00781,0.38672 -1.25391,0.84375 -0.21094,0.42188 -0.32812,0.85547 -0.60937,2.41407 h -0.79688 c -0.23437,0 -0.35156,0 -0.35156,0.22265 0,0.12891 0.0703,0.12891 0.31641,0.12891 h 0.76171 c -0.21093,1.11328 -0.70312,3.80859 -0.98437,5.08594 -0.19922,1.04297 -0.375,1.92187 -0.97266,1.92187 -0.0352,0 -0.38672,0 -0.59765,-0.23437 0.60937,-0.0469 0.60937,-0.57422 0.60937,-0.58594 0,-0.23438 -0.1875,-0.375 -0.41015,-0.375 -0.23438,0 -0.59766,0.19922 -0.59766,0.65625 0,0.51562 0.52734,0.77344 0.99609,0.77344 1.21875,0 1.72266,-2.19141 1.85157,-2.78907 0.21093,-0.91406 0.79687,-4.08984 0.85546,-4.45312 z m 0,0"
         style="fill:#000000;fill-opacity:1;fill-rule:nonzero;stroke:none" />
      <path
         id="path26"
         d="m -116.53266,128.47095 c 0,-0.31641 -0.28125,-0.57422 -0.57422,-0.57422 -0.35157,0 -0.58594,0.28125 -0.58594,0.57422 0,0.36328 0.29297,0.58593 0.57422,0.58593 0.3164,0 0.58594,-0.24609 0.58594,-0.58593 z m 0,3.99609 c 0,-0.32813 -0.28125,-0.57422 -0.57422,-0.57422 -0.35157,0 -0.58594,0.28125 -0.58594,0.57422 0,0.36328 0.29297,0.58594 0.57422,0.58594 0.3164,0 0.58594,-0.2461 0.58594,-0.58594 z m 0,0"
         style="fill:#000000;fill-opacity:1;fill-rule:nonzero;stroke:none" />
      <path
         id="path27"
         d="m -108.30024,129.30298 h 0.43359 l 1.79297,2.76562 c 0.11719,0.19922 0.41016,0.65625 0.53906,0.84375 0.082,0.14063 0.11719,0.14063 0.39844,0.14063 h 1.64063 c 0.22265,0 0.39843,0 0.39843,-0.21094 0,-0.10547 -0.0703,-0.1875 -0.17578,-0.21094 -0.44531,-0.0937 -1.03125,-0.8789 -1.3125,-1.26562 -0.0937,-0.11719 -0.6914,-0.90235 -1.48828,-2.20313 1.06641,-0.1875 2.09766,-0.64453 2.09766,-2.0625 0,-1.66406 -1.75782,-2.23828 -3.17578,-2.23828 h -3.75 c -0.21094,0 -0.41016,0 -0.41016,0.22266 0,0.19922 0.23437,0.19922 0.32812,0.19922 0.67969,0 0.73829,0.082 0.73829,0.67968 v 5.98828 c 0,0.59766 -0.0586,0.67969 -0.73829,0.67969 -0.0937,0 -0.32812,0 -0.32812,0.21094 0,0.21094 0.19922,0.21094 0.41016,0.21094 h 3.26953 c 0.22265,0 0.39843,0 0.39843,-0.21094 0,-0.21094 -0.19921,-0.21094 -0.32812,-0.21094 -0.69141,0 -0.73828,-0.0937 -0.73828,-0.67969 z m 2.30859,-0.58594 c 0.33985,-0.44531 0.375,-1.07813 0.375,-1.60547 0,-0.57422 -0.0703,-1.20703 -0.45703,-1.69922 0.49219,0.10547 1.67578,0.48047 1.67578,1.6875 0,0.77344 -0.36328,1.38281 -1.59375,1.61719 z m -2.30859,-2.78906 c 0,-0.2461 0,-0.64453 0.75,-0.64453 1.00781,0 1.51172,0.42187 1.51172,1.82812 0,1.54688 -0.36328,1.76953 -2.26172,1.76953 z m -1.61719,6.70312 c 0.0937,-0.21094 0.0937,-0.55078 0.0937,-0.65625 v -6.03515 c 0,-0.11719 0,-0.44532 -0.0937,-0.65625 h 1.35938 c -0.15235,0.1875 -0.15235,0.43359 -0.15235,0.60937 v 6.08203 c 0,0.11719 0,0.44531 0.0937,0.65625 z m 2.54297,-3.32812 c 0.082,-0.0117 0.12891,-0.0234 0.22266,-0.0234 0.1875,0 0.44531,-0.0234 0.62109,-0.0469 0.1875,0.28125 1.47656,2.41407 2.46094,3.39844 h -1.14844 z m 0,0"
         style="fill:#000000;fill-opacity:1;fill-rule:nonzero;stroke:none" />
      <path
         id="path28"
         d="m -89.57075,130.29907 c -0.65625,0.50391 -0.984375,0.99609 -1.078125,1.14844 -0.539062,0.83203 -0.632812,1.58203 -0.632812,1.59375 0,0.14062 0.140625,0.14062 0.234375,0.14062 0.210937,0 0.222656,-0.0234 0.269531,-0.23437 0.269531,-1.17188 0.972656,-2.17969 2.332031,-2.73047 0.140625,-0.0469 0.175781,-0.0703 0.175781,-0.15234 0,-0.082 -0.07031,-0.11719 -0.09375,-0.12891 -0.527343,-0.21094 -1.980468,-0.80859 -2.425781,-2.8125 -0.03516,-0.14063 -0.04687,-0.17578 -0.257812,-0.17578 -0.09375,0 -0.234375,0 -0.234375,0.14062 0,0.0234 0.105468,0.77344 0.609375,1.58203 0.234375,0.35157 0.585937,0.77344 1.101562,1.16016 h -8.882812 c -0.222657,0 -0.433594,0 -0.433594,0.23438 0,0.23437 0.210937,0.23437 0.433594,0.23437 z m 0,0"
         style="fill:#000000;fill-opacity:1;fill-rule:nonzero;stroke:none" />
      <path
         id="path29"
         d="m -81.068797,129.30298 h 0.433594 l 1.792969,2.76562 c 0.117187,0.19922 0.410156,0.65625 0.539062,0.84375 0.08203,0.14063 0.117188,0.14063 0.398438,0.14063 h 1.640625 c 0.222656,0 0.398437,0 0.398437,-0.21094 0,-0.10547 -0.07031,-0.1875 -0.175781,-0.21094 -0.445313,-0.0937 -1.03125,-0.8789 -1.3125,-1.26562 -0.09375,-0.11719 -0.691406,-0.90235 -1.488281,-2.20313 1.066406,-0.1875 2.097656,-0.64453 2.097656,-2.0625 0,-1.66406 -1.757813,-2.23828 -3.175781,-2.23828 h -3.75 c -0.210938,0 -0.410157,0 -0.410157,0.22266 0,0.19922 0.234375,0.19922 0.328125,0.19922 0.679688,0 0.738282,0.082 0.738282,0.67968 v 5.98828 c 0,0.59766 -0.05859,0.67969 -0.738282,0.67969 -0.09375,0 -0.328125,0 -0.328125,0.21094 0,0.21094 0.199219,0.21094 0.410157,0.21094 h 3.269531 c 0.222656,0 0.398437,0 0.398437,-0.21094 0,-0.21094 -0.199218,-0.21094 -0.328125,-0.21094 -0.691406,0 -0.738281,-0.0937 -0.738281,-0.67969 z m 2.308594,-0.58594 c 0.339844,-0.44531 0.375,-1.07813 0.375,-1.60547 0,-0.57422 -0.07031,-1.20703 -0.457031,-1.69922 0.492187,0.10547 1.675781,0.48047 1.675781,1.6875 0,0.77344 -0.363281,1.38281 -1.59375,1.61719 z m -2.308594,-2.78906 c 0,-0.2461 0,-0.64453 0.75,-0.64453 1.007813,0 1.511719,0.42187 1.511719,1.82812 0,1.54688 -0.363281,1.76953 -2.261719,1.76953 z m -1.617187,6.70312 c 0.09375,-0.21094 0.09375,-0.55078 0.09375,-0.65625 v -6.03515 c 0,-0.11719 0,-0.44532 -0.09375,-0.65625 h 1.359375 c -0.152344,0.1875 -0.152344,0.43359 -0.152344,0.60937 v 6.08203 c 0,0.11719 0,0.44531 0.09375,0.65625 z m 2.542968,-3.32812 c 0.08203,-0.0117 0.128907,-0.0234 0.222657,-0.0234 0.1875,0 0.445312,-0.0234 0.621093,-0.0469 0.1875,0.28125 1.476563,2.41407 2.460938,3.39844 h -1.148438 z m 0,0"
         style="fill:#000000;fill-opacity:1;fill-rule:nonzero;stroke:none" />
      <path
         id="path30"
         d="m -92.898875,160.33716 h -0.269531 c -0.03516,0.19921 -0.128906,0.85546 -0.246094,1.04296 -0.08203,0.11719 -0.761719,0.11719 -1.125,0.11719 h -2.214844 c 0.328125,-0.28125 1.054688,-1.04297 1.371094,-1.33594 1.816406,-1.66406 2.484375,-2.28515 2.484375,-3.46875 0,-1.38281 -1.089844,-2.29687 -2.472656,-2.29687 -1.394531,0 -2.203125,1.18359 -2.203125,2.20312 0,0.60938 0.527344,0.60938 0.5625,0.60938 0.246094,0 0.5625,-0.17578 0.5625,-0.5625 0,-0.32813 -0.234375,-0.55078 -0.5625,-0.55078 -0.105469,0 -0.128906,0 -0.164063,0.0117 0.222657,-0.82032 0.867188,-1.3711 1.640625,-1.3711 1.019532,0 1.640625,0.85547 1.640625,1.95703 0,1.00782 -0.585937,1.89844 -1.265625,2.66016 l -2.414062,2.70703 v 0.28125 h 4.359375 z m 0,0"
         style="fill:#000000;fill-opacity:1;fill-rule:nonzero;stroke:none" />
      <path
         id="path31"
         d="m -86.975047,157.53637 c 0.234375,0 0.328125,0 0.328125,-0.22265 0,-0.12891 -0.09375,-0.12891 -0.304687,-0.12891 h -0.972657 c 0.234375,-1.23047 0.398438,-2.07422 0.492188,-2.46094 0.07031,-0.28125 0.328125,-0.5625 0.632812,-0.5625 0.257813,0 0.503907,0.10547 0.621094,0.22266 -0.46875,0.0469 -0.609375,0.38672 -0.609375,0.59766 0,0.23437 0.1875,0.375 0.410156,0.375 0.234375,0 0.597657,-0.19922 0.597657,-0.65625 0,-0.50391 -0.503907,-0.77344 -1.03125,-0.77344 -0.515625,0 -1.007813,0.38672 -1.253907,0.84375 -0.210937,0.42187 -0.328125,0.85547 -0.609375,2.41406 h -0.796875 c -0.234375,0 -0.351562,0 -0.351562,0.22266 0,0.1289 0.07031,0.1289 0.316406,0.1289 h 0.761719 c -0.210938,1.11329 -0.703125,3.8086 -0.984375,5.08594 -0.199219,1.04297 -0.375,1.92188 -0.972656,1.92188 -0.03516,0 -0.386719,0 -0.597657,-0.23438 0.609375,-0.0469 0.609375,-0.57422 0.609375,-0.58594 0,-0.23437 -0.1875,-0.375 -0.410156,-0.375 -0.234375,0 -0.597656,0.19922 -0.597656,0.65625 0,0.51563 0.527344,0.77344 0.996094,0.77344 1.21875,0 1.722656,-2.1914 1.851562,-2.78906 0.210938,-0.91406 0.796875,-4.08984 0.855469,-4.45313 z m 0,0"
         style="fill:#000000;fill-opacity:1;fill-rule:nonzero;stroke:none" />
      <path
         id="path32"
         d="m -81.370555,165.24731 c 0,-0.0351 0,-0.0586 -0.210937,-0.26953 -1.195313,-1.20703 -1.863281,-3.17578 -1.863281,-5.61328 0,-2.32031 0.5625,-4.3125 1.945312,-5.73047 0.128906,-0.10547 0.128906,-0.12891 0.128906,-0.16406 0,-0.0703 -0.07031,-0.0937 -0.117187,-0.0937 -0.152344,0 -1.136719,0.85547 -1.722656,2.02734 -0.609375,1.20703 -0.878907,2.4961 -0.878907,3.96094 0,1.06641 0.164063,2.48437 0.785157,3.76172 0.703125,1.4414 1.6875,2.21484 1.816406,2.21484 0.04687,0 0.117187,-0.0234 0.117187,-0.0937 z m 0,0"
         style="fill:#000000;fill-opacity:1;fill-rule:nonzero;stroke:none" />
      <path
         id="path33"
         d="m -75.048289,157.46606 c -0.375,0.0703 -0.515625,0.35156 -0.515625,0.58594 0,0.28125 0.222656,0.375 0.386719,0.375 0.363281,0 0.609375,-0.30469 0.609375,-0.63281 0,-0.49219 -0.574219,-0.72657 -1.078125,-0.72657 -0.726563,0 -1.125,0.71485 -1.242188,0.94922 -0.269531,-0.90234 -1.007812,-0.94922 -1.230469,-0.94922 -1.21875,0 -1.863281,1.57032 -1.863281,1.82813 0,0.0469 0.04687,0.10547 0.128906,0.10547 0.105469,0 0.128907,-0.0703 0.152344,-0.11719 0.398438,-1.32422 1.207031,-1.57031 1.546875,-1.57031 0.539063,0 0.644531,0.49219 0.644531,0.78515 0,0.25782 -0.07031,0.53907 -0.210937,1.11329 l -0.410156,1.6289 c -0.175782,0.72656 -0.527344,1.38281 -1.160157,1.38281 -0.05859,0 -0.351562,0 -0.609375,-0.15234 0.433594,-0.0937 0.527344,-0.44531 0.527344,-0.58594 0,-0.24609 -0.175781,-0.38672 -0.398437,-0.38672 -0.292969,0 -0.597657,0.2461 -0.597657,0.63282 0,0.5039 0.5625,0.72656 1.066407,0.72656 0.574218,0 0.984375,-0.45703 1.230468,-0.9375 0.199219,0.70312 0.796875,0.9375 1.230469,0.9375 1.230469,0 1.875,-1.55859 1.875,-1.82813 0,-0.0586 -0.04687,-0.10546 -0.128906,-0.10546 -0.105469,0 -0.117188,0.0586 -0.152344,0.15234 -0.316406,1.05469 -1.019531,1.54687 -1.546875,1.54687 -0.421875,0 -0.65625,-0.3164 -0.65625,-0.80859 0,-0.25781 0.05859,-0.44531 0.246094,-1.24219 l 0.421875,-1.61718 c 0.175781,-0.72657 0.585937,-1.24219 1.125,-1.24219 0.03516,0 0.363281,0 0.609375,0.15234 z m 0,0"
         style="fill:#000000;fill-opacity:1;fill-rule:nonzero;stroke:none" />
      <path
         id="path34"
         d="m -70.683055,159.3645 c 0,-0.91406 -0.128906,-2.39063 -0.796875,-3.77344 -0.703125,-1.4414 -1.675781,-2.21484 -1.816406,-2.21484 -0.04687,0 -0.105469,0.0234 -0.105469,0.0937 0,0.0352 0,0.0586 0.199219,0.26953 1.195313,1.20703 1.875,3.17578 1.875,5.61328 0,2.32031 -0.5625,4.3125 -1.957031,5.73047 -0.117188,0.10547 -0.117188,0.12891 -0.117188,0.16406 0,0.0703 0.05859,0.0937 0.105469,0.0937 0.164063,0 1.136719,-0.85547 1.722656,-2.02734 0.609375,-1.21875 0.890625,-2.51953 0.890625,-3.94922 z m 8.601563,0.21094 h 3.304687 c 0.164063,0 0.375,0 0.375,-0.21094 0,-0.22266 -0.199218,-0.22266 -0.375,-0.22266 h -3.304687 v -3.30468 c 0,-0.16407 0,-0.38672 -0.210938,-0.38672 -0.234375,0 -0.234375,0.21093 -0.234375,0.38672 v 3.30468 h -3.292968 c -0.175782,0 -0.386719,0 -0.386719,0.21094 0,0.22266 0.199219,0.22266 0.386719,0.22266 h 3.292968 v 3.30468 c 0,0.16407 0,0.38672 0.222657,0.38672 0.222656,0 0.222656,-0.21093 0.222656,-0.38672 z m 9.193359,-1.52344 c -0.210937,0.0117 -0.257812,0.0234 -0.257812,0.12891 0,0.11718 0.05859,0.11718 0.28125,0.11718 h 0.550781 c 1.007812,0 1.464844,0.84375 1.464844,1.99219 0,1.55859 -0.808594,1.98047 -1.394532,1.98047 -0.574218,0 -1.558593,-0.28125 -1.898437,-1.06641 0.375,0.0586 0.726562,-0.15234 0.726562,-0.58593 0,-0.33985 -0.257812,-0.58594 -0.585937,-0.58594 -0.292969,0 -0.597656,0.16406 -0.597656,0.62109 0,1.06641 1.066406,1.9336 2.390625,1.9336 1.417968,0 2.472656,-1.07813 2.472656,-2.28516 0,-1.10156 -0.890625,-1.96875 -2.027344,-2.16797 1.03125,-0.30469 1.699219,-1.17187 1.699219,-2.10937 0,-0.9375 -0.972656,-1.62891 -2.132813,-1.62891 -1.195312,0 -2.085937,0.72656 -2.085937,1.59375 0,0.48047 0.375,0.57422 0.550781,0.57422 0.257813,0 0.539063,-0.17578 0.539063,-0.53906 0,-0.375 -0.28125,-0.53907 -0.550782,-0.53907 -0.07031,0 -0.09375,0 -0.128906,0.0117 0.457031,-0.82031 1.582031,-0.82031 1.640625,-0.82031 0.386719,0 1.171875,0.17578 1.171875,1.34766 0,0.23437 -0.03516,0.90234 -0.386719,1.41796 -0.351562,0.52735 -0.761718,0.5625 -1.089843,0.57422 z m 0,0"
         style="fill:#000000;fill-opacity:1;fill-rule:nonzero;stroke:none" />
      <path
         id="path35"
         d="m -43.902781,157.53637 c 0.234375,0 0.328125,0 0.328125,-0.22265 0,-0.12891 -0.09375,-0.12891 -0.304688,-0.12891 H -44.852 c 0.234375,-1.23047 0.398438,-2.07422 0.492188,-2.46094 0.07031,-0.28125 0.328125,-0.5625 0.632812,-0.5625 0.257813,0 0.503906,0.10547 0.621094,0.22266 -0.46875,0.0469 -0.609375,0.38672 -0.609375,0.59766 0,0.23437 0.1875,0.375 0.410156,0.375 0.234375,0 0.597656,-0.19922 0.597656,-0.65625 0,-0.50391 -0.503906,-0.77344 -1.03125,-0.77344 -0.515625,0 -1.007812,0.38672 -1.253906,0.84375 -0.210937,0.42187 -0.328125,0.85547 -0.609375,2.41406 h -0.796875 c -0.234375,0 -0.351562,0 -0.351562,0.22266 0,0.1289 0.07031,0.1289 0.316406,0.1289 h 0.761719 c -0.210938,1.11329 -0.703125,3.8086 -0.984375,5.08594 -0.199219,1.04297 -0.375,1.92188 -0.972657,1.92188 -0.03516,0 -0.386718,0 -0.597656,-0.23438 0.609375,-0.0469 0.609375,-0.57422 0.609375,-0.58594 0,-0.23437 -0.1875,-0.375 -0.410156,-0.375 -0.234375,0 -0.597656,0.19922 -0.597656,0.65625 0,0.51563 0.527343,0.77344 0.996093,0.77344 1.21875,0 1.722657,-2.1914 1.851563,-2.78906 0.210937,-0.91406 0.796875,-4.08984 0.855469,-4.45313 z m 0,0"
         style="fill:#000000;fill-opacity:1;fill-rule:nonzero;stroke:none" />
      <path
         id="path36"
         d="m -38.295359,165.24731 c 0,-0.0351 0,-0.0586 -0.210938,-0.26953 -1.195312,-1.20703 -1.863281,-3.17578 -1.863281,-5.61328 0,-2.32031 0.5625,-4.3125 1.945312,-5.73047 0.128907,-0.10547 0.128907,-0.12891 0.128907,-0.16406 0,-0.0703 -0.07031,-0.0937 -0.117188,-0.0937 -0.152344,0 -1.136719,0.85547 -1.722656,2.02734 -0.609375,1.20703 -0.878906,2.4961 -0.878906,3.96094 0,1.06641 0.164062,2.48437 0.785156,3.76172 0.703125,1.4414 1.6875,2.21484 1.816406,2.21484 0.04687,0 0.117188,-0.0234 0.117188,-0.0937 z m 4.107422,-10.57031 c 0,-0.26953 0,-0.28125 -0.246094,-0.28125 -0.28125,0.31641 -0.878906,0.76172 -2.109375,0.76172 v 0.35156 c 0.269531,0 0.867187,0 1.523437,-0.31641 v 6.22266 c 0,0.43359 -0.03516,0.57422 -1.078125,0.57422 h -0.375 v 0.35156 c 0.316407,-0.0234 1.476563,-0.0234 1.875,-0.0234 0.398438,0 1.546875,0 1.863282,0.0234 v -0.35156 h -0.363282 c -1.054687,0 -1.089843,-0.14063 -1.089843,-0.57422 z m 0,0"
         style="fill:#000000;fill-opacity:1;fill-rule:nonzero;stroke:none" />
      <path
         id="path37"
         d="m -21.250437,159.58716 c 0.210937,0 0.421875,0 0.421875,-0.23438 0,-0.23437 -0.210938,-0.23437 -0.421875,-0.23437 h -6.46875 c -0.199219,0 -0.410157,0 -0.410157,0.23437 0,0.23438 0.210938,0.23438 0.410157,0.23438 z m 0,0"
         style="fill:#000000;fill-opacity:1;fill-rule:nonzero;stroke:none" />
      <path
         id="path38"
         d="m -11.509227,157.46606 c -0.375,0.0703 -0.515625,0.35156 -0.515625,0.58594 0,0.28125 0.222657,0.375 0.386719,0.375 0.363281,0 0.609375,-0.30469 0.609375,-0.63281 0,-0.49219 -0.574219,-0.72657 -1.078125,-0.72657 -0.726562,0 -1.125,0.71485 -1.242187,0.94922 -0.269532,-0.90234 -1.007813,-0.94922 -1.230469,-0.94922 -1.21875,0 -1.863281,1.57032 -1.863281,1.82813 0,0.0469 0.04687,0.10547 0.128906,0.10547 0.105469,0 0.128906,-0.0703 0.152344,-0.11719 0.398437,-1.32422 1.207031,-1.57031 1.546875,-1.57031 0.539062,0 0.644531,0.49219 0.644531,0.78515 0,0.25782 -0.07031,0.53907 -0.210938,1.11329 l -0.410156,1.6289 c -0.175781,0.72656 -0.527344,1.38281 -1.160156,1.38281 -0.05859,0 -0.351563,0 -0.609375,-0.15234 0.433594,-0.0937 0.527344,-0.44531 0.527344,-0.58594 0,-0.24609 -0.175782,-0.38672 -0.398438,-0.38672 -0.292969,0 -0.597656,0.2461 -0.597656,0.63282 0,0.5039 0.5625,0.72656 1.066406,0.72656 0.574219,0 0.984375,-0.45703 1.230469,-0.9375 0.199219,0.70312 0.796875,0.9375 1.230469,0.9375 1.230468,0 1.875,-1.55859 1.875,-1.82813 0,-0.0586 -0.04687,-0.10546 -0.128907,-0.10546 -0.105468,0 -0.117187,0.0586 -0.152343,0.15234 -0.316407,1.05469 -1.019532,1.54687 -1.546875,1.54687 -0.421875,0 -0.65625,-0.3164 -0.65625,-0.80859 0,-0.25781 0.05859,-0.44531 0.246093,-1.24219 l 0.421875,-1.61718 c 0.175782,-0.72657 0.585938,-1.24219 1.125,-1.24219 0.03516,0 0.363282,0 0.609375,0.15234 z m 0,0"
         style="fill:#000000;fill-opacity:1;fill-rule:nonzero;stroke:none" />
      <path
         id="path39"
         d="m -7.1439922,159.3645 c 0,-0.91406 -0.1289062,-2.39063 -0.796875,-3.77344 -0.703125,-1.4414 -1.6757812,-2.21484 -1.8164062,-2.21484 -0.046875,0 -0.1054688,0.0234 -0.1054688,0.0937 0,0.0352 0,0.0586 0.1992188,0.26953 1.1953125,1.20703 1.875,3.17578 1.875,5.61328 0,2.32031 -0.5625,4.3125 -1.9570313,5.73047 -0.1171875,0.10547 -0.1171875,0.12891 -0.1171875,0.16406 0,0.0703 0.058594,0.0937 0.1054688,0.0937 0.1640625,0 1.1367187,-0.85547 1.7226562,-2.02734 0.609375,-1.21875 0.890625,-2.51953 0.890625,-3.94922 z m 12.5771485,-0.89063 c 0.1640625,0 0.375,0 0.375,-0.22265 0,-0.22266 -0.1992188,-0.22266 -0.375,-0.22266 h -7.0429688 c -0.1757812,0 -0.3867187,0 -0.3867187,0.21094 0,0.23437 0.1992187,0.23437 0.3867187,0.23437 z m 0,2.21485 c 0.1640625,0 0.375,0 0.375,-0.21094 0,-0.23437 -0.1992188,-0.23437 -0.375,-0.23437 h -7.0429688 c -0.1757812,0 -0.3867187,0 -0.3867187,0.22265 0,0.22266 0.1992187,0.22266 0.3867187,0.22266 z m 8.6542967,-6.12891 c 0,-0.22265 0,-0.29297 -0.164062,-0.29297 -0.09375,0 -0.128907,0 -0.222657,0.15235 l -3.597656,5.57812 v 0.35156 h 3.140625 v 1.07813 c 0,0.44531 -0.02344,0.5625 -0.902344,0.5625 h -0.234375 v 0.35156 c 0.269532,-0.0234 1.21875,-0.0234 1.558594,-0.0234 0.328125,0 1.289063,0 1.558594,0.0234 v -0.35156 h -0.234375 c -0.867188,0 -0.902344,-0.11719 -0.902344,-0.5625 v -1.07813 h 1.207031 v -0.35156 h -1.207031 z m -0.785156,0.9375 v 4.5 h -2.90625 z m 0,0"
         style="fill:#000000;fill-opacity:1;fill-rule:nonzero;stroke:none" />
      <path
         id="path40"
         d="m 21.294484,157.46606 c -0.375,0.0703 -0.515625,0.35156 -0.515625,0.58594 0,0.28125 0.222657,0.375 0.386719,0.375 0.363281,0 0.609375,-0.30469 0.609375,-0.63281 0,-0.49219 -0.574219,-0.72657 -1.078125,-0.72657 -0.726562,0 -1.125,0.71485 -1.242187,0.94922 -0.269532,-0.90234 -1.007813,-0.94922 -1.230469,-0.94922 -1.21875,0 -1.863281,1.57032 -1.863281,1.82813 0,0.0469 0.04687,0.10547 0.128906,0.10547 0.105469,0 0.128906,-0.0703 0.152344,-0.11719 0.398437,-1.32422 1.207031,-1.57031 1.546875,-1.57031 0.539062,0 0.644531,0.49219 0.644531,0.78515 0,0.25782 -0.07031,0.53907 -0.210938,1.11329 l -0.410156,1.6289 c -0.175781,0.72656 -0.527344,1.38281 -1.160156,1.38281 -0.05859,0 -0.351563,0 -0.609375,-0.15234 0.433594,-0.0937 0.527344,-0.44531 0.527344,-0.58594 0,-0.24609 -0.175782,-0.38672 -0.398438,-0.38672 -0.292969,0 -0.597656,0.2461 -0.597656,0.63282 0,0.5039 0.5625,0.72656 1.066406,0.72656 0.574219,0 0.984375,-0.45703 1.230469,-0.9375 0.199219,0.70312 0.796875,0.9375 1.230469,0.9375 1.230468,0 1.875,-1.55859 1.875,-1.82813 0,-0.0586 -0.04687,-0.10546 -0.128907,-0.10546 -0.105468,0 -0.117187,0.0586 -0.152343,0.15234 -0.316407,1.05469 -1.019532,1.54687 -1.546875,1.54687 -0.421875,0 -0.65625,-0.3164 -0.65625,-0.80859 0,-0.25781 0.05859,-0.44531 0.246093,-1.24219 l 0.421875,-1.61718 c 0.175782,-0.72657 0.585938,-1.24219 1.125,-1.24219 0.03516,0 0.363282,0 0.609375,0.15234 z m 0,0"
         style="fill:#000000;fill-opacity:1;fill-rule:nonzero;stroke:none" />
      <path
         id="path41"
         d="m 32.816945,159.58716 c 0.210938,0 0.421875,0 0.421875,-0.23438 0,-0.23437 -0.210937,-0.23437 -0.421875,-0.23437 h -6.46875 c -0.199218,0 -0.410156,0 -0.410156,0.23437 0,0.23438 0.210938,0.23438 0.410156,0.23438 z m 0,0"
         style="fill:#000000;fill-opacity:1;fill-rule:nonzero;stroke:none" />
      <path
         id="path42"
         d="m 40.343313,154.677 c 0,-0.26953 0,-0.28125 -0.246094,-0.28125 -0.28125,0.31641 -0.878906,0.76172 -2.109375,0.76172 v 0.35156 c 0.269531,0 0.867187,0 1.523437,-0.31641 v 6.22266 c 0,0.43359 -0.03516,0.57422 -1.078125,0.57422 h -0.375 v 0.35156 c 0.316407,-0.0234 1.476563,-0.0234 1.875,-0.0234 0.398438,0 1.546875,0 1.863282,0.0234 v -0.35156 h -0.363282 c -1.054687,0 -1.089843,-0.14063 -1.089843,-0.57422 z m 0,0"
         style="fill:#000000;fill-opacity:1;fill-rule:nonzero;stroke:none" />
      <path
         id="path43"
         d="m -109.48384,186.75708 c -0.375,0.0703 -0.51562,0.35156 -0.51562,0.58594 0,0.28125 0.22266,0.375 0.38672,0.375 0.36328,0 0.60937,-0.30469 0.60937,-0.63282 0,-0.49218 -0.57422,-0.72656 -1.07812,-0.72656 -0.72656,0 -1.125,0.71484 -1.24219,0.94922 -0.26953,-0.90234 -1.00781,-0.94922 -1.23047,-0.94922 -1.21875,0 -1.86328,1.57031 -1.86328,1.82813 0,0.0469 0.0469,0.10546 0.12891,0.10546 0.10547,0 0.1289,-0.0703 0.15234,-0.11718 0.39844,-1.32422 1.20703,-1.57032 1.54688,-1.57032 0.53906,0 0.64453,0.49219 0.64453,0.78516 0,0.25781 -0.0703,0.53906 -0.21094,1.11328 l -0.41016,1.62891 c -0.17578,0.72656 -0.52734,1.38281 -1.16015,1.38281 -0.0586,0 -0.35157,0 -0.60938,-0.15234 0.4336,-0.0937 0.52735,-0.44532 0.52735,-0.58594 0,-0.24609 -0.17579,-0.38672 -0.39844,-0.38672 -0.29297,0 -0.59766,0.24609 -0.59766,0.63281 0,0.50391 0.5625,0.72657 1.06641,0.72657 0.57422,0 0.98437,-0.45704 1.23047,-0.9375 0.19922,0.70312 0.79687,0.9375 1.23047,0.9375 1.23046,0 1.875,-1.5586 1.875,-1.82813 0,-0.0586 -0.0469,-0.10547 -0.12891,-0.10547 -0.10547,0 -0.11719,0.0586 -0.15234,0.15235 -0.31641,1.05468 -1.01954,1.54687 -1.54688,1.54687 -0.42187,0 -0.65625,-0.31641 -0.65625,-0.80859 0,-0.25782 0.0586,-0.44532 0.24609,-1.24219 l 0.42188,-1.61719 c 0.17578,-0.72656 0.58594,-1.24219 1.125,-1.24219 0.0352,0 0.36328,0 0.60937,0.15235 z m 0,0"
         style="fill:#000000;fill-opacity:1;fill-rule:nonzero;stroke:none" />
      <path
         id="path44"
         d="m 29.77593,239.15161 c -0.410157,0.70312 -0.820313,0.9375 -1.394532,0.97266 -0.128906,0.0117 -0.222656,0.0117 -0.222656,0.23437 0,0.0703 0.05859,0.11719 0.140625,0.11719 0.210938,0 0.75,-0.0234 0.972656,-0.0234 0.339844,0 0.726563,0.0234 1.054688,0.0234 0.07031,0 0.222656,0 0.222656,-0.22266 0,-0.11719 -0.09375,-0.1289 -0.175781,-0.1289 -0.269531,-0.0234 -0.492188,-0.11719 -0.492188,-0.39844 0,-0.17578 0.07031,-0.30469 0.222657,-0.5625 l 0.902343,-1.51172 h 3.058594 c 0.01172,0.10547 0.01172,0.21094 0.02344,0.31641 0.03516,0.30468 0.175781,1.54687 0.175781,1.78125 0,0.35156 -0.609375,0.375 -0.796875,0.375 -0.140625,0 -0.269531,0 -0.269531,0.22265 0,0.12891 0.105468,0.12891 0.175781,0.12891 0.210937,0 0.445312,-0.0234 0.65625,-0.0234 h 0.679687 c 0.726563,0 1.253907,0.0234 1.265625,0.0234 0.08203,0 0.210938,0 0.210938,-0.22266 0,-0.1289 -0.105469,-0.1289 -0.28125,-0.1289 -0.65625,0 -0.667969,-0.10547 -0.714844,-0.45704 l -0.726562,-7.46484 c -0.02344,-0.23437 -0.07031,-0.25781 -0.199219,-0.25781 -0.117188,0 -0.1875,0.0234 -0.304688,0.19922 z m 1.441406,-1.83984 2.402344,-4.01954 0.410156,4.01954 z m 9.679687,-4.1836 c 0.117188,-0.44531 0.164063,-0.46875 0.621094,-0.46875 h 1.558594 c 1.347656,0 1.347656,1.14844 1.347656,1.25391 0,0.97265 -0.960937,2.20312 -2.542969,2.20312 h -1.722656 z m 2.027344,3.08203 c 1.300781,-0.24609 2.484375,-1.14843 2.484375,-2.25 0,-0.92578 -0.832031,-1.65234 -2.179687,-1.65234 h -3.832032 c -0.234375,0 -0.339843,0 -0.339843,0.23437 0,0.11719 0.105468,0.11719 0.292968,0.11719 0.726563,0 0.726563,0.0937 0.726563,0.22266 0,0.0234 0,0.0937 -0.04687,0.28125 l -1.617188,6.43359 c -0.105468,0.41016 -0.128906,0.52735 -0.960937,0.52735 -0.234375,0 -0.351563,0 -0.351563,0.22265 0,0.12891 0.07031,0.12891 0.304688,0.12891 h 4.101562 c 1.828125,0 3.246094,-1.38281 3.246094,-2.58985 0,-0.98437 -0.867187,-1.58203 -1.828125,-1.67578 z m -1.699219,3.91407 h -1.617187 c -0.164063,0 -0.1875,0 -0.257813,-0.0117 -0.128906,-0.0117 -0.152343,-0.0352 -0.152343,-0.12891 0,-0.082 0.03516,-0.15234 0.05859,-0.25781 l 0.832032,-3.375 h 2.25 c 1.40625,0 1.40625,1.3125 1.40625,1.40625 0,1.14844 -1.042969,2.36719 -2.519532,2.36719 z m 13.719727,-7.95704 c 0,-0.10546 -0.08203,-0.10546 -0.105469,-0.10546 -0.02344,0 -0.07031,0 -0.175781,0.11718 l -0.820312,1.00782 c -0.421875,-0.71485 -1.078125,-1.125 -1.96875,-1.125 -2.589844,0 -5.261719,2.61328 -5.261719,5.42578 0,1.99218 1.394531,3.23437 3.140625,3.23437 0.960937,0 1.792969,-0.39844 2.484375,-0.98437 1.042969,-0.87891 1.359375,-2.03907 1.359375,-2.13282 0,-0.10546 -0.09375,-0.10546 -0.140625,-0.10546 -0.105469,0 -0.117188,0.0703 -0.140625,0.11718 -0.550781,1.86328 -2.15625,2.76563 -3.351563,2.76563 -1.277343,0 -2.367187,-0.82031 -2.367187,-2.50781 0,-0.38672 0.117187,-2.46094 1.464844,-4.03125 0.65625,-0.76172 1.78125,-1.44141 2.917968,-1.44141 1.3125,0 1.898438,1.08984 1.898438,2.30859 0,0.31641 -0.03516,0.57422 -0.03516,0.6211 0,0.11718 0.117187,0.11718 0.152343,0.11718 0.140625,0 0.152344,-0.0117 0.199219,-0.23437 z m 2.182617,7.42969 c -0.105469,0.41016 -0.128906,0.52735 -0.960937,0.52735 -0.234375,0 -0.351563,0 -0.351563,0.22265 0,0.12891 0.07031,0.12891 0.304688,0.12891 h 3.796875 c 2.414062,0 4.769531,-2.4961 4.769531,-5.16797 0,-1.72266 -1.03125,-3 -2.742188,-3 h -3.832031 c -0.234375,0 -0.339844,0 -0.339844,0.23437 0,0.11719 0.105469,0.11719 0.292969,0.11719 0.726563,0 0.726563,0.0937 0.726563,0.22266 0,0.0234 0,0.0937 -0.04687,0.28125 z m 2.519531,-6.46875 c 0.117188,-0.44531 0.164063,-0.46875 0.621094,-0.46875 h 1.324219 c 1.113281,0 2.144531,0.60938 2.144531,2.26172 0,0.59766 -0.234375,2.67188 -1.394531,3.98438 -0.339844,0.39843 -1.242188,1.21875 -2.625,1.21875 h -1.359375 c -0.164063,0 -0.1875,0 -0.257813,-0.0117 -0.128906,-0.0117 -0.140625,-0.0352 -0.140625,-0.12891 0,-0.082 0.02344,-0.15234 0.04687,-0.25781 z m 0,0"
         style="fill:#000000;fill-opacity:1;fill-rule:nonzero;stroke:none" />
      <path
         id="path45"
         d="m -230.53852,273.82153 c -0.41016,0.70313 -0.82032,0.9375 -1.39453,0.97266 -0.12891,0.0117 -0.22266,0.0117 -0.22266,0.23437 0,0.0703 0.0586,0.11719 0.14062,0.11719 0.21094,0 0.75,-0.0234 0.97266,-0.0234 0.33984,0 0.72656,0.0234 1.05469,0.0234 0.0703,0 0.22265,0 0.22265,-0.22266 0,-0.11718 -0.0937,-0.1289 -0.17578,-0.1289 -0.26953,-0.0234 -0.49218,-0.11719 -0.49218,-0.39844 0,-0.17578 0.0703,-0.30469 0.22265,-0.5625 l 0.90235,-1.51172 h 3.05859 c 0.0117,0.10547 0.0117,0.21094 0.0234,0.31641 0.0352,0.30469 0.17578,1.54687 0.17578,1.78125 0,0.35156 -0.60938,0.375 -0.79688,0.375 -0.14062,0 -0.26953,0 -0.26953,0.22265 0,0.12891 0.10547,0.12891 0.17578,0.12891 0.21094,0 0.44532,-0.0234 0.65625,-0.0234 h 0.67969 c 0.72656,0 1.25391,0.0234 1.26563,0.0234 0.082,0 0.21093,0 0.21093,-0.22266 0,-0.1289 -0.10547,-0.1289 -0.28125,-0.1289 -0.65625,0 -0.66797,-0.10547 -0.71484,-0.45703 l -0.72656,-7.46485 c -0.0234,-0.23437 -0.0703,-0.25781 -0.19922,-0.25781 -0.11719,0 -0.1875,0.0234 -0.30469,0.19922 z m 1.4414,-1.83984 2.40235,-4.01953 0.41015,4.01953 z m 9.67969,-4.1836 c 0.11719,-0.44531 0.16406,-0.46875 0.62109,-0.46875 h 1.5586 c 1.34765,0 1.34765,1.14844 1.34765,1.25391 0,0.97266 -0.96093,2.20313 -2.54296,2.20313 h -1.72266 z m 2.02734,3.08204 c 1.30079,-0.2461 2.48438,-1.14844 2.48438,-2.25 0,-0.92579 -0.83203,-1.65235 -2.17969,-1.65235 h -3.83203 c -0.23437,0 -0.33984,0 -0.33984,0.23438 0,0.11718 0.10547,0.11718 0.29297,0.11718 0.72656,0 0.72656,0.0937 0.72656,0.22266 0,0.0234 0,0.0937 -0.0469,0.28125 l -1.61718,6.43359 c -0.10547,0.41016 -0.12891,0.52735 -0.96094,0.52735 -0.23438,0 -0.35156,0 -0.35156,0.22265 0,0.12891 0.0703,0.12891 0.30468,0.12891 h 4.10157 c 1.82812,0 3.24609,-1.38281 3.24609,-2.58984 0,-0.98438 -0.86719,-1.58203 -1.82813,-1.67578 z m -1.69921,3.91406 h -1.61719 c -0.16406,0 -0.1875,0 -0.25781,-0.0117 -0.12891,-0.0117 -0.15235,-0.0352 -0.15235,-0.12891 0,-0.082 0.0352,-0.15234 0.0586,-0.25781 l 0.83203,-3.375 h 2.25 c 1.40625,0 1.40625,1.3125 1.40625,1.40625 0,1.14844 -1.04297,2.36719 -2.51953,2.36719 z m 13.71972,-7.95703 c 0,-0.10547 -0.082,-0.10547 -0.10547,-0.10547 -0.0234,0 -0.0703,0 -0.17578,0.11719 l -0.82031,1.00781 c -0.42188,-0.71485 -1.07813,-1.125 -1.96875,-1.125 -2.58984,0 -5.26172,2.61328 -5.26172,5.42578 0,1.99219 1.39453,3.23437 3.14063,3.23437 0.96093,0 1.79296,-0.39843 2.48437,-0.98437 1.04297,-0.87891 1.35938,-2.03906 1.35938,-2.13281 0,-0.10547 -0.0937,-0.10547 -0.14063,-0.10547 -0.10547,0 -0.11719,0.0703 -0.14062,0.11719 -0.55079,1.86328 -2.15625,2.76562 -3.35157,2.76562 -1.27734,0 -2.36718,-0.82031 -2.36718,-2.50781 0,-0.38672 0.11718,-2.46094 1.46484,-4.03125 0.65625,-0.76172 1.78125,-1.44141 2.91797,-1.44141 1.3125,0 1.89844,1.08985 1.89844,2.3086 0,0.3164 -0.0352,0.57421 -0.0352,0.62109 0,0.11719 0.11719,0.11719 0.15234,0.11719 0.14063,0 0.15235,-0.0117 0.19922,-0.23438 z m 2.18262,7.42968 c -0.10547,0.41016 -0.12891,0.52735 -0.96094,0.52735 -0.23437,0 -0.35156,0 -0.35156,0.22265 0,0.12891 0.0703,0.12891 0.30469,0.12891 h 3.79687 c 2.41406,0 4.76953,-2.49609 4.76953,-5.16797 0,-1.72265 -1.03125,-3 -2.74218,-3 h -3.83204 c -0.23437,0 -0.33984,0 -0.33984,0.23438 0,0.11718 0.10547,0.11718 0.29297,0.11718 0.72656,0 0.72656,0.0937 0.72656,0.22266 0,0.0234 0,0.0937 -0.0469,0.28125 z m 2.51953,-6.46875 c 0.11719,-0.44531 0.16406,-0.46875 0.62109,-0.46875 h 1.32422 c 1.11328,0 2.14453,0.60938 2.14453,2.26172 0,0.59766 -0.23437,2.67188 -1.39453,3.98438 -0.33984,0.39844 -1.24218,1.21875 -2.625,1.21875 h -1.35937 c -0.16406,0 -0.1875,0 -0.25781,-0.0117 -0.12891,-0.0117 -0.14063,-0.0352 -0.14063,-0.12891 0,-0.082 0.0234,-0.15234 0.0469,-0.25781 z m 0,0"
         style="fill:#000000;fill-opacity:1;fill-rule:nonzero;stroke:none" />
      <path
         id="path46"
         d="m -196.15571,321.98266 h -0.26953 c -0.0352,0.19922 -0.12891,0.85547 -0.2461,1.04297 -0.082,0.11719 -0.76171,0.11719 -1.125,0.11719 h -2.21484 c 0.32813,-0.28125 1.05469,-1.04297 1.37109,-1.33594 1.81641,-1.66406 2.48438,-2.28515 2.48438,-3.46875 0,-1.38281 -1.08984,-2.29687 -2.47266,-2.29687 -1.39453,0 -2.20312,1.18359 -2.20312,2.20312 0,0.60938 0.52734,0.60938 0.5625,0.60938 0.24609,0 0.5625,-0.17578 0.5625,-0.5625 0,-0.32813 -0.23438,-0.55078 -0.5625,-0.55078 -0.10547,0 -0.12891,0 -0.16406,0.0117 0.22265,-0.82032 0.86718,-1.3711 1.64062,-1.3711 1.01953,0 1.64063,0.85547 1.64063,1.95703 0,1.00782 -0.58594,1.89844 -1.26563,2.66016 l -2.41406,2.70703 v 0.28125 h 4.35937 z m 5.94726,-1.8164 c 0,-0.9961 -0.0586,-1.96875 -0.49218,-2.8711 -0.49219,-0.99609 -1.34766,-1.2539 -1.9336,-1.2539 -0.6914,0 -1.54687,0.33984 -1.98047,1.33594 -0.33984,0.75 -0.45703,1.48828 -0.45703,2.78906 0,1.16015 0.082,2.02734 0.51563,2.87109 0.45703,0.91406 1.28906,1.19531 1.91015,1.19531 1.04297,0 1.64063,-0.62109 1.98047,-1.3125 0.4336,-0.89062 0.45703,-2.0625 0.45703,-2.7539 z m -2.4375,3.83203 c -0.38671,0 -1.16015,-0.21094 -1.38281,-1.52344 -0.14062,-0.71484 -0.14062,-1.61719 -0.14062,-2.46094 0,-0.97265 0,-1.86328 0.19922,-2.5664 0.19921,-0.79688 0.80859,-1.17188 1.32421,-1.17188 0.45704,0 1.14844,0.28125 1.3711,1.30078 0.15234,0.67969 0.15234,1.62891 0.15234,2.4375 0,0.8086 0,1.71094 -0.1289,2.4375 -0.22266,1.32422 -0.97266,1.54688 -1.39454,1.54688 z m 0,0"
         style="fill:#000000;fill-opacity:1;fill-rule:nonzero;stroke:none" />
      <path
         id="path47"
         d="m 73.914602,316.32251 c 0,-0.26953 0,-0.28125 -0.246094,-0.28125 -0.28125,0.3164 -0.878906,0.76172 -2.109375,0.76172 v 0.35156 c 0.269531,0 0.867187,0 1.523437,-0.31641 v 6.22266 c 0,0.43359 -0.03516,0.57422 -1.078125,0.57422 h -0.375 v 0.35156 c 0.316407,-0.0234 1.476563,-0.0234 1.875,-0.0234 0.398438,0 1.546875,0 1.863282,0.0234 v -0.35156 h -0.363282 c -1.054687,0 -1.089843,-0.14063 -1.089843,-0.57422 z m 0,0"
         style="fill:#000000;fill-opacity:1;fill-rule:nonzero;stroke:none" />
      <path
         id="path48"
         d="m 99.880422,321.98266 h -0.269531 c -0.03516,0.19922 -0.128907,0.85547 -0.246094,1.04297 -0.08203,0.11719 -0.761719,0.11719 -1.125,0.11719 h -2.214844 c 0.328125,-0.28125 1.054688,-1.04297 1.371094,-1.33594 1.816406,-1.66406 2.484375,-2.28515 2.484375,-3.46875 0,-1.38281 -1.089844,-2.29687 -2.472656,-2.29687 -1.394532,0 -2.203125,1.18359 -2.203125,2.20312 0,0.60938 0.527343,0.60938 0.5625,0.60938 0.246093,0 0.5625,-0.17578 0.5625,-0.5625 0,-0.32813 -0.234375,-0.55078 -0.5625,-0.55078 -0.105469,0 -0.128907,0 -0.164063,0.0117 0.222656,-0.82032 0.867188,-1.3711 1.640625,-1.3711 1.019531,0 1.640625,0.85547 1.640625,1.95703 0,1.00782 -0.585937,1.89844 -1.265625,2.66016 l -2.414062,2.70703 v 0.28125 h 4.359375 z m 5.947268,-1.8164 c 0,-0.9961 -0.0586,-1.96875 -0.49219,-2.8711 -0.49219,-0.99609 -1.34766,-1.2539 -1.93359,-1.2539 -0.69141,0 -1.54688,0.33984 -1.98047,1.33594 -0.33985,0.75 -0.45703,1.48828 -0.45703,2.78906 0,1.16015 0.082,2.02734 0.51562,2.87109 0.45703,0.91406 1.28906,1.19531 1.91016,1.19531 1.04297,0 1.64062,-0.62109 1.98047,-1.3125 0.43359,-0.89062 0.45703,-2.0625 0.45703,-2.7539 z m -2.4375,3.83203 c -0.38672,0 -1.16016,-0.21094 -1.38281,-1.52344 -0.14063,-0.71484 -0.14063,-1.61719 -0.14063,-2.46094 0,-0.97265 0,-1.86328 0.19922,-2.5664 0.19922,-0.79688 0.80859,-1.17188 1.32422,-1.17188 0.45703,0 1.14844,0.28125 1.37109,1.30078 0.15235,0.67969 0.15235,1.62891 0.15235,2.4375 0,0.8086 0,1.71094 -0.12891,2.4375 -0.22266,1.32422 -0.97266,1.54688 -1.39453,1.54688 z m 0,0"
         style="fill:#000000;fill-opacity:1;fill-rule:nonzero;stroke:none" />
      <path
         id="path49"
         d="m 159.75445,337.1643 c 0,-3.02343 1.47656,-3.5039 2.12109,-3.5039 0.43359,0 0.85547,0.1289 1.08984,0.49219 -0.14062,0 -0.59765,0 -0.59765,0.49218 0,0.25782 0.17578,0.49219 0.49218,0.49219 0.29297,0 0.49219,-0.1875 0.49219,-0.52734 0,-0.6211 -0.44531,-1.23047 -1.48828,-1.23047 -1.51172,0 -3.08203,1.53515 -3.08203,4.17187 0,3.28125 1.42969,4.01953 2.44922,4.01953 1.30078,0 2.41406,-1.125 2.41406,-2.68359 0,-1.59375 -1.11328,-2.66016 -2.30859,-2.66016 -1.06641,0 -1.45313,0.92579 -1.58203,1.26563 z m 1.47656,4.08985 c -0.75,0 -1.11328,-0.66797 -1.21875,-0.92578 -0.10547,-0.30469 -0.22266,-0.89063 -0.22266,-1.73438 0,-0.9375 0.42188,-2.12109 1.5,-2.12109 0.65625,0 1.00781,0.44531 1.1836,0.84375 0.1875,0.44531 0.1875,1.04297 0.1875,1.55859 0,0.60938 0,1.14844 -0.22266,1.60547 -0.30469,0.57422 -0.72656,0.77344 -1.20703,0.77344 z m 0,0"
         style="fill:#000000;fill-opacity:1;fill-rule:nonzero;stroke:none" />
    </g>
  </g>
</svg>
