<?xml version="1.0" encoding="UTF-8" standalone="no"?>
<!-- Created with Inkscape (http://www.inkscape.org/) -->

<svg
   version="1.1"
   id="svg1"
   width="793.62665"
   height="1122.6667"
   viewBox="0 0 793.62665 1122.6667"
   sodipodi:docname="F1_M_PP_M2008_page18.pdf"
   xmlns:inkscape="http://www.inkscape.org/namespaces/inkscape"
   xmlns:sodipodi="http://sodipodi.sourceforge.net/DTD/sodipodi-0.dtd"
   xmlns="http://www.w3.org/2000/svg"
   xmlns:svg="http://www.w3.org/2000/svg">
  <defs
     id="defs1" />
  <sodipodi:namedview
     id="namedview1"
     pagecolor="#ffffff"
     bordercolor="#000000"
     borderopacity="0.25"
     inkscape:showpageshadow="2"
     inkscape:pageopacity="0.0"
     inkscape:pagecheckerboard="0"
     inkscape:deskcolor="#d1d1d1">
    <inkscape:page
       x="0"
       y="0"
       inkscape:label="1"
       id="page1"
       width="793.62665"
       height="1122.6667"
       margin="0"
       bleed="0" />
  </sodipodi:namedview>
  <g
     id="g1"
     inkscape:groupmode="layer"
     inkscape:label="1">
    <text
       id="text1"
       xml:space="preserve"
       transform="matrix(1.3333333,0,0,1.3333333,326.72,59.519467)"><tspan
         style="font-style:italic;font-variant:normal;font-weight:normal;font-stretch:normal;font-size:10.02px;font-family:'Times New Roman';writing-mode:lr-tb;fill:#000000;fill-opacity:1;fill-rule:nonzero;stroke:none"
         x="0 6.131238 11.150256 14.988918 20.028978 27.272436 29.973827 34.992847 37.452755 44.696213 49.715233 52.416622 57.456684 61.295345 66.335403 69.129982 74.149002 78.606903 81.066811 84.97361 87.433517 94.676979 99.695992 102.49057 106.87231 114.11578 119.1348 121.83619 126.29408 130.75198 133.54655"
         y="0"
         sodipodi:role="line"
         id="tspan1">Egzamin maturalny z matematyki </tspan><tspan
         style="font-style:italic;font-variant:normal;font-weight:normal;font-stretch:normal;font-size:10.02px;font-family:'Times New Roman';writing-mode:lr-tb;fill:#000000;fill-opacity:1;fill-rule:nonzero;stroke:none"
         x="25.799496 31.900675 36.940735 40.817471 43.581989 48.57095 55.829437 58.289345 63.278305 68.318367 73.30732 77.184059 79.948578 84.937538 91.599831 96.639893 103.30219"
         y="11.459874"
         sodipodi:role="line"
         id="tspan2">Poziom podstawowy</tspan><tspan
         style="font-style:italic;font-variant:normal;font-weight:700;font-stretch:normal;font-size:10.02px;font-family:'Times New Roman';writing-mode:lr-tb;fill:#000000;fill-opacity:1;fill-rule:nonzero;stroke:none"
         x="107.75909"
         y="11.459874"
         id="tspan3"> </tspan></text>
    <path
       id="path3"
       d="M 81.24,782.78 H 541.8 v 0.72003 H 81.24 Z"
       style="fill:#000000;fill-opacity:1;fill-rule:nonzero;stroke:none"
       transform="matrix(1.3333333,0,0,-1.3333333,0,1122.6667)" />
    <text
       id="text3"
       xml:space="preserve"
       transform="matrix(1.3333333,0,0,1.3333333,704.8,59.7596)"><tspan
         style="font-style:italic;font-variant:normal;font-weight:700;font-stretch:normal;font-size:10.02px;font-family:'Times New Roman';writing-mode:lr-tb;fill:#000000;fill-opacity:1;fill-rule:nonzero;stroke:none"
         x="0 5.04006"
         y="0"
         sodipodi:role="line"
         id="tspan4">19</tspan></text>
    <text
       id="text4"
       xml:space="preserve"
       transform="matrix(1.3333333,0,0,1.3333333,352.96,114.3996)"><tspan
         style="font-variant:normal;font-weight:700;font-stretch:normal;font-size:16.02px;font-family:'Times New Roman';writing-mode:lr-tb;fill:#000000;fill-opacity:1;fill-rule:nonzero;stroke:none"
         x="0 10.672524 22.226149 33.779774 45.333397 56.88702 69.337761 79.113167 85.33213 94.226433"
         y="0"
         sodipodi:role="line"
         id="tspan5">BRUDNOPIS </tspan></text>
  </g>
</svg>
