<?xml version="1.0" encoding="UTF-8" standalone="no"?>
<!-- Created with Inkscape (http://www.inkscape.org/) -->

<svg
   version="1.1"
   id="svg1"
   width="794.55066"
   height="1123.6533"
   viewBox="0 0 794.55066 1123.6533"
   sodipodi:docname="LigaMatematycznaMatuskiego_Liceum_Zestaw2_2020_2021_page0.pdf"
   xmlns:inkscape="http://www.inkscape.org/namespaces/inkscape"
   xmlns:sodipodi="http://sodipodi.sourceforge.net/DTD/sodipodi-0.dtd"
   xmlns="http://www.w3.org/2000/svg"
   xmlns:svg="http://www.w3.org/2000/svg">
  <defs
     id="defs1" />
  <sodipodi:namedview
     id="namedview1"
     pagecolor="#ffffff"
     bordercolor="#000000"
     borderopacity="0.25"
     inkscape:showpageshadow="2"
     inkscape:pageopacity="0.0"
     inkscape:pagecheckerboard="0"
     inkscape:deskcolor="#d1d1d1">
    <inkscape:page
       x="0"
       y="0"
       inkscape:label="1"
       id="page1"
       width="794.55066"
       height="1123.6533"
       margin="0"
       bleed="0" />
  </sodipodi:namedview>
  <g
     id="g1"
     inkscape:groupmode="layer"
     inkscape:label="1">
    <g
       id="g2"
       aria-label="LIGAMATEMATYCZNA&#10;im.ZdzisªawaMatuskiego&#10;LISTOPAD2020&#10;SZKOAPONADPODSTAWOWA&#10;ZADANIE1.&#10;Danyjesttrójk¡trównobocznyTobokuodªugo±ciai±rodkuci¦»ko±ciS.Zakre±lonookr¡g&#10;o±rodkuSipromieniu&#10;a"
       transform="matrix(1.3333333,0,0,1.3333333,274.724,56.069333)">
      <path
         id="path2"
         d="m 20.544891,102.52515 c 0.07031,-0.29297 0.105468,-0.39844 0.28125,-0.44531 0.09375,-0.0234 0.492187,-0.0234 0.738281,-0.0234 1.195312,0 1.757812,0.0469 1.757812,0.98437 0,0.17578 -0.04687,0.63282 -0.117187,1.06641 l -0.01172,0.15234 c 0,0.0469 0.04687,0.11719 0.117188,0.11719 0.117187,0 0.117187,-0.0586 0.152343,-0.25781 l 0.351563,-2.10938 c 0.02344,-0.10547 0.02344,-0.1289 0.02344,-0.16406 0,-0.14062 -0.07031,-0.14062 -0.316406,-0.14062 h -6.539062 c -0.269532,0 -0.28125,0.0117 -0.351563,0.23437 l -0.726562,2.14453 c -0.01172,0.0234 -0.05859,0.16406 -0.05859,0.17578 0,0.0586 0.05859,0.11719 0.128906,0.11719 0.09375,0 0.117188,-0.0469 0.164063,-0.19922 0.503906,-1.45312 0.75,-2.12109 2.34375,-2.12109 h 0.796875 c 0.292968,0 0.410156,0 0.410156,0.1289 0,0.0352 0,0.0586 -0.05859,0.28125 l -1.605469,6.41016 c -0.117187,0.46875 -0.140625,0.58594 -1.40625,0.58594 -0.304687,0 -0.386718,0 -0.386718,0.23437 0,0.11719 0.128906,0.11719 0.1875,0.11719 0.304687,0 0.609375,-0.0234 0.914062,-0.0234 h 1.863281 c 0.304688,0 0.621094,0.0234 0.925782,0.0234 0.128906,0 0.246093,0 0.246093,-0.22266 0,-0.1289 -0.08203,-0.1289 -0.398437,-0.1289 -1.066406,0 -1.066406,-0.10547 -1.066406,-0.28125 0,-0.0117 0,-0.0937 0.04687,-0.29297 z m 0,0"
         style="fill:#000000;fill-opacity:1;fill-rule:nonzero;stroke:none" />
      <path
         id="path3"
         d="m 127.58981,108.39624 c -0.0586,0.19922 -0.0586,0.22266 -0.22265,0.44531 -0.26953,0.33985 -0.79688,0.85547 -1.35938,0.85547 -0.48047,0 -0.76172,-0.44531 -0.76172,-1.14843 0,-0.65625 0.375,-1.99219 0.59766,-2.4961 0.41016,-0.84375 0.97266,-1.26562 1.44141,-1.26562 0.78515,0 0.9375,0.97265 0.9375,1.0664 0,0.0117 -0.0352,0.17578 -0.0469,0.19922 z m 0.76172,-3.07031 c -0.1289,-0.30469 -0.44531,-0.78516 -1.0664,-0.78516 -1.35938,0 -2.8125,1.7461 -2.8125,3.51563 0,1.18359 0.6914,1.875 1.5,1.875 0.65625,0 1.21875,-0.51563 1.55859,-0.90235 0.11719,0.70313 0.67969,0.90235 1.04297,0.90235 0.35156,0 0.64453,-0.21094 0.85547,-0.64453 0.1875,-0.41016 0.36328,-1.13672 0.36328,-1.1836 0,-0.0586 -0.0469,-0.10547 -0.11719,-0.10547 -0.11719,0 -0.12891,0.0586 -0.17578,0.23438 -0.17578,0.71484 -0.39844,1.46484 -0.89063,1.46484 -0.35156,0 -0.375,-0.3164 -0.375,-0.55078 0,-0.28125 0.0352,-0.41015 0.14063,-0.8789 0.082,-0.29297 0.15234,-0.5625 0.24609,-0.90235 0.4336,-1.79297 0.55078,-2.22656 0.55078,-2.29687 0,-0.16407 -0.14062,-0.29297 -0.3164,-0.29297 -0.375,0 -0.48047,0.41015 -0.50391,0.55078 z m 0,0"
         style="fill:#000000;fill-opacity:1;fill-rule:nonzero;stroke:none" />
      <path
         id="path4"
         d="m 236.07321,101.50562 c 0,-0.10547 -0.082,-0.10547 -0.10547,-0.10547 -0.0586,0 -0.0703,0.0117 -0.21094,0.1875 -0.0703,0.082 -0.5625,0.70312 -0.57421,0.71484 -0.38672,-0.77344 -1.1836,-0.90234 -1.6875,-0.90234 -1.51172,0 -2.88282,1.38281 -2.88282,2.73047 0,0.90234 0.52735,1.42968 1.11328,1.6289 0.14063,0.0469 0.84375,0.2461 1.19532,0.32813 0.60937,0.16406 0.77343,0.21094 1.01953,0.48047 0.0469,0.0586 0.29297,0.32812 0.29297,0.89062 0,1.11328 -1.03125,2.26172 -2.22657,2.26172 -0.98437,0 -2.07421,-0.42187 -2.07421,-1.75781 0,-0.22266 0.0586,-0.51563 0.0937,-0.63281 0,-0.0352 0.0117,-0.0937 0.0117,-0.11719 0,-0.0469 -0.0234,-0.11719 -0.1289,-0.11719 -0.10547,0 -0.11719,0.0234 -0.16406,0.23438 l -0.60938,2.44921 c 0,0.0117 -0.0469,0.16407 -0.0469,0.17579 0,0.10546 0.0937,0.10546 0.11718,0.10546 0.0469,0 0.0586,-0.0117 0.21094,-0.1875 l 0.53906,-0.71484 c 0.29297,0.43359 0.91407,0.90234 2.02735,0.90234 1.53515,0 2.95312,-1.48828 2.95312,-2.98828 0,-0.49218 -0.11719,-0.9375 -0.57422,-1.38281 -0.25781,-0.24609 -0.46875,-0.30469 -1.57031,-0.59766 -0.79687,-0.21093 -0.90234,-0.24609 -1.125,-0.44531 -0.19922,-0.19922 -0.35156,-0.48047 -0.35156,-0.89062 0,-1.00782 1.00781,-2.03907 2.14453,-2.03907 1.17187,0 1.72266,0.72657 1.72266,1.86329 0,0.30468 -0.0586,0.63281 -0.0586,0.67968 0,0.10547 0.0937,0.10547 0.12891,0.10547 0.11719,0 0.1289,-0.0352 0.17578,-0.23437 z m 0,0"
         style="fill:#000000;fill-opacity:1;fill-rule:nonzero;stroke:none" />
      <path
         id="path5"
         d="m -92.444367,115.95191 c 0,-0.10547 -0.08203,-0.10547 -0.105469,-0.10547 -0.05859,0 -0.07031,0.0117 -0.210937,0.1875 -0.07031,0.082 -0.5625,0.70312 -0.574219,0.71484 -0.386719,-0.77344 -1.183594,-0.90234 -1.6875,-0.90234 -1.511719,0 -2.882813,1.38281 -2.882813,2.73047 0,0.90234 0.527344,1.42968 1.113282,1.6289 0.140625,0.0469 0.84375,0.2461 1.195312,0.32813 0.609375,0.16406 0.773438,0.21094 1.019531,0.48047 0.04687,0.0586 0.292969,0.32812 0.292969,0.89062 0,1.11328 -1.03125,2.26172 -2.226562,2.26172 -0.984375,0 -2.074219,-0.42187 -2.074219,-1.75781 0,-0.22266 0.05859,-0.51563 0.09375,-0.63281 0,-0.0352 0.01172,-0.0937 0.01172,-0.11719 0,-0.0469 -0.02344,-0.11719 -0.128907,-0.11719 -0.105468,0 -0.117187,0.0234 -0.164062,0.23438 l -0.609375,2.44921 c 0,0.0117 -0.04687,0.16407 -0.04687,0.17579 0,0.10546 0.09375,0.10546 0.117187,0.10546 0.04687,0 0.05859,-0.0117 0.210938,-0.1875 l 0.539062,-0.71484 c 0.292969,0.43359 0.914063,0.90234 2.027344,0.90234 1.535156,0 2.953125,-1.48828 2.953125,-2.98828 0,-0.49218 -0.117187,-0.9375 -0.574219,-1.38281 -0.257812,-0.24609 -0.46875,-0.30469 -1.570312,-0.59766 -0.796875,-0.21093 -0.902344,-0.24609 -1.125,-0.44531 -0.199219,-0.19922 -0.351563,-0.48047 -0.351563,-0.89062 0,-1.00782 1.007813,-2.03907 2.144532,-2.03907 1.171875,0 1.722656,0.72657 1.722656,1.86329 0,0.30468 -0.05859,0.63281 -0.05859,0.67968 0,0.10547 0.09375,0.10547 0.128906,0.10547 0.117188,0 0.128907,-0.0352 0.175782,-0.23437 z m 0,0"
         style="fill:#000000;fill-opacity:1;fill-rule:nonzero;stroke:none" />
      <path
         id="path6"
         d="m -21.499055,116.51734 c -0.08203,-0.14063 -0.304687,-0.48047 -0.796875,-0.48047 -0.949218,0 -1.992187,1.11328 -1.992187,2.28515 0,0.83203 0.539062,1.3125 1.148437,1.3125 0.515625,0 0.949219,-0.41015 1.089844,-0.5625 0.152344,0.53907 0.691406,0.5625 0.785156,0.5625 0.363282,0 0.550782,-0.30468 0.609375,-0.44531 0.164063,-0.28125 0.269532,-0.75 0.269532,-0.77344 0,-0.0469 -0.02344,-0.10547 -0.117188,-0.10547 -0.105469,0 -0.117187,0.0469 -0.164062,0.2461 -0.117188,0.43359 -0.257813,0.85547 -0.574219,0.85547 -0.1875,0 -0.257813,-0.15235 -0.257813,-0.375 0,-0.14063 0.07031,-0.41016 0.117188,-0.60938 0.05859,-0.19922 0.175781,-0.67969 0.199219,-0.82031 l 0.164062,-0.60938 c 0.03516,-0.1875 0.128906,-0.51562 0.128906,-0.5625 0,-0.1875 -0.152343,-0.24609 -0.257812,-0.24609 -0.117188,0 -0.316406,0.082 -0.351563,0.32813 z m -0.550781,2.17968 c -0.398437,0.53907 -0.808594,0.71485 -1.066406,0.71485 -0.363281,0 -0.550781,-0.33985 -0.550781,-0.75 0,-0.375 0.222656,-1.23047 0.398437,-1.58203 0.222656,-0.48047 0.621094,-0.82032 0.984375,-0.82032 0.515625,0 0.667969,0.58594 0.667969,0.67969 0,0.0352 -0.199219,0.80859 -0.246094,1.01953 -0.105469,0.375 -0.105469,0.38672 -0.1875,0.73828 z m 0,0"
         style="fill:#000000;fill-opacity:1;fill-rule:nonzero;stroke:none" />
    </g>
    <path
       id="path7"
       d="M 0,0 H 4.498"
       style="fill:none;stroke:#000000;stroke-width:0.478;stroke-linecap:butt;stroke-linejoin:miter;stroke-miterlimit:10;stroke-dasharray:none;stroke-opacity:1"
       transform="matrix(1.3333333,0,0,-1.3333333,241.88533,217.764)" />
    <g
       id="g7"
       aria-label="3&#10;ograniczaj¡cykoªoK.ObliczpoleguryK−T.&#10;ZADANIE2.&#10;Natablicynapisanokilkaró»nychliczbcaªkowitychdodatnich(conajmniejcztery).Okazaªo&#10;si¦,»esumaka»dychtrzechspo±ródnichjestliczb¡pierwsz¡.Ileliczbnapisanonatablicy?&#10;ZADANIE3.&#10;Danyjestnast¦puj¡cyci¡gliczb:pierwszaliczbato2020,ka»d¡nast¦pn¡obliczasi¦wedªug&#10;wzoru&#10;1−a"
       transform="matrix(1.3333333,0,0,1.3333333,242.06133,227.24667)">
      <path
         id="path8"
         d="m 2.0165,-2.6605859 c 0.6328125,0 1.03125,0.4570312 1.03125,1.3007812 0,0.99609376 -0.5742187,1.28906251 -0.9960937,1.28906251 -0.4335938,0 -1.03125,-0.1640625 -1.31250005,-0.5859375 0.29296875,0 0.49218755,-0.17578125 0.49218755,-0.44531251 0,-0.2578125 -0.1875,-0.4335937 -0.44531255,-0.4335937 -0.2109375,0 -0.43359375,0.1289062 -0.43359375,0.4570312 0,0.75000001 0.8085938,1.24218751 1.7226563,1.24218751 1.0546875,0 1.7929687,-0.7265625 1.7929687,-1.52343751 0,-0.6679687 -0.515625,-1.265625 -1.3359375,-1.4414062 0.6328125,-0.2226563 1.1015625,-0.7734375 1.1015625,-1.40625 0,-0.6328125 -0.7148437,-1.0898438 -1.546875,-1.0898438 -0.8554687,0 -1.5,0.4570313 -1.5,1.0664063 0,0.2929687 0.19921875,0.421875 0.41015625,0.421875 0.24609375,0 0.41015625,-0.1757813 0.41015625,-0.4101563 0,-0.2929687 -0.2578125,-0.3984375 -0.43359375,-0.4101562 0.33984375,-0.4335938 0.94921875,-0.46875 1.08984375,-0.46875 0.2109375,0 0.8085938,0.070312 0.8085938,0.890625 0,0.5625 -0.2226563,0.890625 -0.3398438,1.0195312 -0.234375,0.2460938 -0.421875,0.2578125 -0.9023437,0.2929688 -0.1523438,0.011719 -0.2226563,0.023437 -0.2226563,0.1171875 0,0.1171875 0.070312,0.1171875 0.2109375,0.1171875 z m 0,0"
         style="fill:#000000;fill-opacity:1;fill-rule:nonzero;stroke:none" />
      <path
         id="path9"
         d="m 114.2997,-8.950625 c -0.0117,-0.035156 -0.0586,-0.1289063 -0.0586,-0.1640625 0,-0.011719 0.0117,-0.023437 0.21094,-0.1875 l 1.16015,-0.9023435 c 1.60547,-1.242188 2.13282,-1.664063 2.95313,-1.734375 0.082,-0.01172 0.19922,-0.01172 0.19922,-0.210938 0,-0.08203 -0.0352,-0.140625 -0.12891,-0.140625 -0.12891,0 -0.26953,0.02344 -0.39844,0.02344 h -0.45703 c -0.375,0 -0.76172,-0.02344 -1.125,-0.02344 -0.082,0 -0.22265,0 -0.22265,0.222656 0,0.117188 0.082,0.128907 0.15234,0.128907 0.12891,0.01172 0.28125,0.05859 0.28125,0.222656 0,0.246094 -0.35156,0.527344 -0.44531,0.597656 l -4.6875,3.6445315 0.98437,-3.9375005 c 0.11719,-0.410156 0.14063,-0.527343 0.98438,-0.527343 0.22265,0 0.33984,0 0.33984,-0.222657 0,-0.128906 -0.12891,-0.128906 -0.1875,-0.128906 -0.21094,0 -0.46875,0.02344 -0.69141,0.02344 h -1.40625 c -0.22265,0 -0.48046,-0.02344 -0.6914,-0.02344 -0.10547,0 -0.23438,0 -0.23438,0.234375 0,0.117188 0.10547,0.117188 0.29297,0.117188 0.72656,0 0.72656,0.09375 0.72656,0.222656 0,0.02344 0,0.09375 -0.0469,0.28125 l -1.61719,6.4335937 c -0.10547,0.4101563 -0.1289,0.5273438 -0.96094,0.5273438 -0.23437,0 -0.35156,0 -0.35156,0.2226562 0,0.1289063 0.10547,0.1289063 0.17578,0.1289063 0.23438,0 0.46875,-0.023437 0.69141,-0.023437 h 1.40625 c 0.22266,0 0.48047,0.023437 0.70312,0.023437 0.0937,0 0.22266,0 0.22266,-0.2226563 0,-0.1289062 -0.10547,-0.1289062 -0.28125,-0.1289062 -0.72656,0 -0.72656,-0.09375 -0.72656,-0.2109375 0,-0.082031 0.0703,-0.3867188 0.11719,-0.5742188 l 0.46875,-1.8515625 1.8164,-1.4179687 c 0.33985,0.7617187 0.97266,2.2851562 1.46485,3.4570312 0.0352,0.082031 0.0586,0.1523438 0.0586,0.234375 0,0.3515625 -0.48047,0.3632813 -0.58594,0.3632813 -0.10547,0 -0.22265,0 -0.22265,0.234375 0,0.1171875 0.1289,0.1171875 0.16406,0.1171875 0.42187,0 0.86719,-0.023437 1.27734,-0.023437 h 0.57422 c 0.17578,0 0.38672,0.023437 0.5625,0.023437 0.0703,0 0.19922,0 0.19922,-0.2226563 0,-0.1289062 -0.10547,-0.1289062 -0.22266,-0.1289062 -0.44531,-0.011719 -0.59765,-0.1054688 -0.77343,-0.5273438 z m 0,0"
         style="fill:#000000;fill-opacity:1;fill-rule:nonzero;stroke:none" />
      <path
         id="path10"
         d="m 228.49599,-8.950625 c -0.0117,-0.035156 -0.0586,-0.1289063 -0.0586,-0.1640625 0,-0.011719 0.0117,-0.023437 0.21094,-0.1875 l 1.16015,-0.9023435 c 1.60547,-1.242188 2.13281,-1.664063 2.95313,-1.734375 0.082,-0.01172 0.19922,-0.01172 0.19922,-0.210938 0,-0.08203 -0.0352,-0.140625 -0.12891,-0.140625 -0.12891,0 -0.26953,0.02344 -0.39844,0.02344 h -0.45703 c -0.375,0 -0.76172,-0.02344 -1.125,-0.02344 -0.082,0 -0.22266,0 -0.22266,0.222656 0,0.117188 0.082,0.128907 0.15235,0.128907 0.1289,0.01172 0.28125,0.05859 0.28125,0.222656 0,0.246094 -0.35156,0.527344 -0.44531,0.597656 l -4.6875,3.6445315 0.98437,-3.9375005 c 0.11719,-0.410156 0.14063,-0.527343 0.98438,-0.527343 0.22265,0 0.33984,0 0.33984,-0.222657 0,-0.128906 -0.12891,-0.128906 -0.1875,-0.128906 -0.21094,0 -0.46875,0.02344 -0.69141,0.02344 h -1.40625 c -0.22265,0 -0.48047,-0.02344 -0.6914,-0.02344 -0.10547,0 -0.23438,0 -0.23438,0.234375 0,0.117188 0.10547,0.117188 0.29297,0.117188 0.72656,0 0.72656,0.09375 0.72656,0.222656 0,0.02344 0,0.09375 -0.0469,0.28125 l -1.61719,6.4335937 c -0.10547,0.4101563 -0.12891,0.5273438 -0.96094,0.5273438 -0.23437,0 -0.35156,0 -0.35156,0.2226562 0,0.1289063 0.10547,0.1289063 0.17578,0.1289063 0.23438,0 0.46875,-0.023437 0.69141,-0.023437 h 1.40625 c 0.22265,0 0.48047,0.023437 0.70312,0.023437 0.0937,0 0.22266,0 0.22266,-0.2226563 0,-0.1289062 -0.10547,-0.1289062 -0.28125,-0.1289062 -0.72656,0 -0.72656,-0.09375 -0.72656,-0.2109375 0,-0.082031 0.0703,-0.3867188 0.11718,-0.5742188 l 0.46875,-1.8515625 1.81641,-1.4179687 c 0.33984,0.7617187 0.97266,2.2851562 1.46484,3.4570312 0.0352,0.082031 0.0586,0.1523438 0.0586,0.234375 0,0.3515625 -0.48047,0.3632813 -0.58594,0.3632813 -0.10547,0 -0.22266,0 -0.22266,0.234375 0,0.1171875 0.12891,0.1171875 0.16407,0.1171875 0.42187,0 0.86718,-0.023437 1.27734,-0.023437 h 0.57422 c 0.17578,0 0.38672,0.023437 0.5625,0.023437 0.0703,0 0.19922,0 0.19922,-0.2226563 0,-0.1289062 -0.10547,-0.1289062 -0.22266,-0.1289062 -0.44531,-0.011719 -0.59765,-0.1054688 -0.77344,-0.5273438 z m 0,0"
         style="fill:#000000;fill-opacity:1;fill-rule:nonzero;stroke:none" />
      <path
         id="path11"
         d="m 243.86806,-6.8764063 c 0.21094,0 0.42188,0 0.42188,-0.234375 0,-0.234375 -0.21094,-0.234375 -0.42188,-0.234375 h -6.46875 c -0.19922,0 -0.41015,0 -0.41015,0.234375 0,0.234375 0.21093,0.234375 0.41015,0.234375 z m 0,0"
         style="fill:#000000;fill-opacity:1;fill-rule:nonzero;stroke:none" />
      <path
         id="path12"
         d="m 252.92959,-11.411563 c 0.0703,-0.292968 0.10546,-0.398437 0.28125,-0.445312 0.0937,-0.02344 0.49218,-0.02344 0.73828,-0.02344 1.19531,0 1.75781,0.04687 1.75781,0.984375 0,0.175782 -0.0469,0.632813 -0.11719,1.0664067 l -0.0117,0.1523438 c 0,0.046875 0.0469,0.1171875 0.11719,0.1171875 0.11719,0 0.11719,-0.058594 0.15234,-0.2578125 l 0.35157,-2.1093755 c 0.0234,-0.105468 0.0234,-0.128906 0.0234,-0.164062 0,-0.140625 -0.0703,-0.140625 -0.3164,-0.140625 h -6.53906 c -0.26954,0 -0.28125,0.01172 -0.35157,0.234375 l -0.72656,2.1445312 c -0.0117,0.023437 -0.0586,0.1640625 -0.0586,0.1757813 0,0.058594 0.0586,0.1171875 0.1289,0.1171875 0.0937,0 0.11719,-0.046875 0.16407,-0.1992188 0.5039,-1.4531252 0.75,-2.1210942 2.34375,-2.1210942 h 0.79687 c 0.29297,0 0.41016,0 0.41016,0.128907 0,0.03516 0,0.05859 -0.0586,0.28125 L 250.41005,-5.06 c -0.11718,0.46875 -0.14062,0.5859375 -1.40625,0.5859375 -0.30468,0 -0.38671,0 -0.38671,0.234375 0,0.1171875 0.1289,0.1171875 0.1875,0.1171875 0.30468,0 0.60937,-0.023437 0.91406,-0.023437 h 1.86328 c 0.30469,0 0.62109,0.023437 0.92578,0.023437 0.12891,0 0.24609,0 0.24609,-0.2226563 0,-0.1289062 -0.082,-0.1289062 -0.39843,-0.1289062 -1.06641,0 -1.06641,-0.1054688 -1.06641,-0.28125 0,-0.011719 0,-0.09375 0.0469,-0.2929688 z m 0,0"
         style="fill:#000000;fill-opacity:1;fill-rule:nonzero;stroke:none" />
      <path
         id="path13"
         d="m 155.37685,94.449766 h -0.26953 c -0.0352,0.199218 -0.12891,0.855468 -0.24609,1.042968 -0.082,0.117188 -0.76172,0.117188 -1.125,0.117188 h -2.21485 c 0.32813,-0.28125 1.05469,-1.042969 1.3711,-1.335938 1.8164,-1.664062 2.48437,-2.285156 2.48437,-3.46875 0,-1.382812 -1.08984,-2.296875 -2.47265,-2.296875 -1.39454,0 -2.20313,1.183594 -2.20313,2.203125 0,0.609375 0.52734,0.609375 0.5625,0.609375 0.24609,0 0.5625,-0.175781 0.5625,-0.5625 0,-0.328125 -0.23437,-0.550781 -0.5625,-0.550781 -0.10547,0 -0.12891,0 -0.16406,0.01172 0.22265,-0.820313 0.86719,-1.371094 1.64062,-1.371094 1.01953,0 1.64063,0.855469 1.64063,1.957031 0,1.007813 -0.58594,1.898438 -1.26563,2.660157 l -2.41406,2.707031 v 0.28125 h 4.35938 z m 5.94727,-1.816407 c 0,-0.996093 -0.0586,-1.96875 -0.49219,-2.871093 -0.49219,-0.996094 -1.34766,-1.253907 -1.93359,-1.253907 -0.69141,0 -1.54688,0.339844 -1.98047,1.335938 -0.33985,0.75 -0.45703,1.488281 -0.45703,2.789062 0,1.160157 0.082,2.027344 0.51562,2.871094 0.45703,0.914063 1.28906,1.195313 1.91016,1.195313 1.04297,0 1.64062,-0.621094 1.98047,-1.3125 0.43359,-0.890625 0.45703,-2.0625 0.45703,-2.753907 z m -2.4375,3.832032 c -0.38672,0 -1.16016,-0.210938 -1.38282,-1.523438 -0.14062,-0.714844 -0.14062,-1.617187 -0.14062,-2.460937 0,-0.972657 0,-1.863282 0.19922,-2.566407 0.19922,-0.796875 0.80859,-1.171875 1.32422,-1.171875 0.45703,0 1.14843,0.28125 1.37109,1.300782 0.15234,0.679687 0.15234,1.628906 0.15234,2.4375 0,0.808593 0,1.710937 -0.1289,2.4375 -0.22266,1.324218 -0.97266,1.546875 -1.39453,1.546875 z m 8.19726,-2.015625 h -0.26953 c -0.0351,0.199218 -0.1289,0.855468 -0.24609,1.042968 -0.082,0.117188 -0.76172,0.117188 -1.125,0.117188 h -2.21485 c 0.32813,-0.28125 1.05469,-1.042969 1.3711,-1.335938 1.8164,-1.664062 2.48437,-2.285156 2.48437,-3.46875 0,-1.382812 -1.08984,-2.296875 -2.47265,-2.296875 -1.39453,0 -2.20313,1.183594 -2.20313,2.203125 0,0.609375 0.52735,0.609375 0.5625,0.609375 0.2461,0 0.5625,-0.175781 0.5625,-0.5625 0,-0.328125 -0.23437,-0.550781 -0.5625,-0.550781 -0.10547,0 -0.1289,0 -0.16406,0.01172 0.22266,-0.820313 0.86719,-1.371094 1.64062,-1.371094 1.01954,0 1.64063,0.855469 1.64063,1.957031 0,1.007813 -0.58594,1.898438 -1.26563,2.660157 l -2.41406,2.707031 v 0.28125 h 4.35938 z m 5.94727,-1.816407 c 0,-0.996093 -0.0586,-1.96875 -0.49219,-2.871093 -0.49219,-0.996094 -1.34766,-1.253907 -1.93359,-1.253907 -0.69141,0 -1.54688,0.339844 -1.98047,1.335938 -0.33985,0.75 -0.45703,1.488281 -0.45703,2.789062 0,1.160157 0.082,2.027344 0.51562,2.871094 0.45703,0.914063 1.28906,1.195313 1.91016,1.195313 1.04297,0 1.64062,-0.621094 1.98047,-1.3125 0.43359,-0.890625 0.45703,-2.0625 0.45703,-2.753907 z m -2.4375,3.832032 c -0.38672,0 -1.16016,-0.210938 -1.38281,-1.523438 -0.14063,-0.714844 -0.14063,-1.617187 -0.14063,-2.460937 0,-0.972657 0,-1.863282 0.19922,-2.566407 0.19922,-0.796875 0.80859,-1.171875 1.32422,-1.171875 0.45703,0 1.14844,0.28125 1.37109,1.300782 0.15235,0.679687 0.15235,1.628906 0.15235,2.4375 0,0.808593 0,1.710937 -0.12891,2.4375 -0.22266,1.324218 -0.97266,1.546875 -1.39453,1.546875 z m 0,0"
         style="fill:#000000;fill-opacity:1;fill-rule:nonzero;stroke:none" />
      <path
         id="path14"
         d="m -85.502055,101.11773 c 0,-0.22265 -0.02344,-0.22265 -0.234375,-0.22265 -0.328125,0.3164 -0.75,0.5039 -1.511718,0.5039 v 0.26954 c 0.222656,0 0.644531,0 1.113281,-0.22266 v 4.08984 c 0,0.29297 -0.02344,0.39844 -0.785156,0.39844 h -0.28125 v 0.25781 c 0.328125,-0.0234 1.019531,-0.0234 1.371093,-0.0234 0.363282,0 1.054688,0 1.382813,0.0234 v -0.25781 h -0.28125 c -0.75,0 -0.773438,-0.10547 -0.773438,-0.39844 z m 0,0"
         style="fill:#000000;fill-opacity:1;fill-rule:nonzero;stroke:none" />
      <path
         id="path15"
         d="m -78.210062,104.38727 c 0.128906,0 0.304687,0 0.304687,-0.1875 0,-0.1875 -0.175781,-0.1875 -0.304687,-0.1875 h -4.558594 c -0.128906,0 -0.304688,0 -0.304688,0.1875 0,0.1875 0.175782,0.1875 0.304688,0.1875 z m 0,0"
         style="fill:#000000;fill-opacity:1;fill-rule:nonzero;stroke:none" />
      <path
         id="path16"
         d="m -74.061625,103.1568 c -0.08203,-0.14063 -0.304687,-0.48047 -0.796875,-0.48047 -0.949219,0 -1.992187,1.11328 -1.992187,2.28515 0,0.83204 0.539062,1.3125 1.148437,1.3125 0.515625,0 0.949219,-0.41015 1.089844,-0.5625 0.152344,0.53907 0.691406,0.5625 0.785156,0.5625 0.363281,0 0.550781,-0.30468 0.609375,-0.44531 0.164063,-0.28125 0.269531,-0.75 0.269531,-0.77344 0,-0.0469 -0.02344,-0.10546 -0.117187,-0.10546 -0.105469,0 -0.117188,0.0469 -0.164063,0.24609 -0.117187,0.43359 -0.257812,0.85547 -0.574218,0.85547 -0.1875,0 -0.257813,-0.15235 -0.257813,-0.375 0,-0.14063 0.07031,-0.41016 0.117188,-0.60938 0.05859,-0.19922 0.175781,-0.67968 0.199218,-0.82031 l 0.164063,-0.60937 c 0.03516,-0.1875 0.128906,-0.51563 0.128906,-0.5625 0,-0.1875 -0.152344,-0.2461 -0.257812,-0.2461 -0.117188,0 -0.316407,0.082 -0.351563,0.32813 z m -0.550781,2.17968 c -0.398438,0.53907 -0.808594,0.71485 -1.066406,0.71485 -0.363282,0 -0.550782,-0.33985 -0.550782,-0.75 0,-0.375 0.222657,-1.23047 0.398438,-1.58203 0.222656,-0.48047 0.621094,-0.82032 0.984375,-0.82032 0.515625,0 0.667969,0.58594 0.667969,0.67969 0,0.0352 -0.199219,0.8086 -0.246094,1.01953 -0.105469,0.375 -0.105469,0.38672 -0.1875,0.73828 z m 0,0"
         style="fill:#000000;fill-opacity:1;fill-rule:nonzero;stroke:none" />
    </g>
    <path
       id="path17"
       d="M 0,0 H 15.319"
       style="fill:none;stroke:#000000;stroke-width:0.478;stroke-linecap:butt;stroke-linejoin:miter;stroke-miterlimit:10;stroke-dasharray:none;stroke-opacity:1"
       transform="matrix(1.3333333,0,0,-1.3333333,124.71333,371.12667)" />
    <g
       id="g17"
       aria-label="1+a&#10;,gdzieaoznaczapoprzedni¡liczb¦.Znajd¹dwatysi¡cedwudziestypierwszywyraz&#10;tegoci¡gu.&#10;ZADANIE4.&#10;Wzbiorzeliczbrzeczywistychrozwi¡»ukªadrówna«&#10;(&#10;x&#10;2&#10;+x(y−4)=−2&#10;y&#10;2&#10;+y(x−4)=−2.&#10;ZADANIE5.&#10;Wyznaczwszystkiefunkcjef:R→Rspeªniaj¡cewarunek&#10;f(x)·f(y)=f(xy)+x&#10;2&#10;+y&#10;2&#10;dladowolnychliczbrzeczywistychx,y."
       transform="matrix(1.3333333,0,0,1.3333333,124.71333,380.608)">
      <path
         id="path18"
         d="m 2.5089453,-5.0731875 c 0,-0.2226562 -0.023437,-0.2226562 -0.234375,-0.2226562 -0.328125,0.3164062 -0.75,0.5039062 -1.51171874,0.5039062 v 0.2695313 c 0.22265625,0 0.64453124,0 1.11328124,-0.2226563 v 4.08984375 c 0,0.29296875 -0.023437,0.3984375 -0.7851562,0.3984375 H 0.80972656 v 0.2578125 c 0.32812504,-0.0234375 1.01953124,-0.0234375 1.37109374,-0.0234375 0.3632813,0 1.0546875,0 1.3828125,0.0234375 v -0.2578125 h -0.28125 c -0.75,0 -0.7734375,-0.10546875 -0.7734375,-0.3984375 z m 5.194336,3.2695313 h 2.3437497 c 0.117188,0 0.292969,0 0.292969,-0.1875 0,-0.1875 -0.175781,-0.1875 -0.292969,-0.1875 H 7.7032813 v -2.34375 c 0,-0.1171875 0,-0.2929688 -0.1757813,-0.2929688 -0.1875,0 -0.1875,0.1757813 -0.1875,0.2929688 v 2.34375 H 4.99625 c -0.1171875,0 -0.2929687,0 -0.2929687,0.1875 0,0.1875 0.1757812,0.1875 0.2929687,0.1875 H 7.34 v 2.34374995 c 0,0.1171875 0,0.29296875 0.1875,0.29296875 0.1757813,0 0.1757813,-0.17578125 0.1757813,-0.29296875 z m 0,0"
         style="fill:#000000;fill-opacity:1;fill-rule:nonzero;stroke:none" />
      <path
         id="path19"
         d="m 13.949375,-3.034125 c -0.08203,-0.140625 -0.304687,-0.4804687 -0.796875,-0.4804687 -0.949219,0 -1.992187,1.1132812 -1.992187,2.2851562 0,0.83203125 0.539062,1.3125 1.148437,1.3125 0.515625,0 0.949219,-0.41015625 1.089844,-0.5625 0.152344,0.5390625 0.691406,0.5625 0.785156,0.5625 0.363281,0 0.550781,-0.3046875 0.609375,-0.4453125 0.164063,-0.28125 0.269531,-0.75 0.269531,-0.7734375 0,-0.046875 -0.02344,-0.1054687 -0.117187,-0.1054687 -0.105469,0 -0.117188,0.046875 -0.164063,0.2460937 -0.117187,0.43359375 -0.257812,0.85546875 -0.574218,0.85546875 -0.1875,0 -0.257813,-0.15234375 -0.257813,-0.375 0,-0.140625 0.07031,-0.41015625 0.117188,-0.60937495 0.05859,-0.1992188 0.175781,-0.6796875 0.199218,-0.8203125 l 0.164063,-0.609375 c 0.03516,-0.1875 0.128906,-0.515625 0.128906,-0.5625 0,-0.1875 -0.152344,-0.2460938 -0.257812,-0.2460938 -0.117188,0 -0.316407,0.082031 -0.351563,0.328125 z m -0.550781,2.1796875 c -0.398438,0.5390625 -0.808594,0.71484375 -1.066406,0.71484375 -0.363282,0 -0.550782,-0.33984375 -0.550782,-0.75 0,-0.37499995 0.222657,-1.23046875 0.398438,-1.58203125 0.222656,-0.4804687 0.621094,-0.8203125 0.984375,-0.8203125 0.515625,0 0.667969,0.5859375 0.667969,0.6796875 0,0.035156 -0.199219,0.8085938 -0.246094,1.0195313 -0.105469,0.375 -0.105469,0.3867187 -0.1875,0.7382812 z m 0,0"
         style="fill:#000000;fill-opacity:1;fill-rule:nonzero;stroke:none" />
      <path
         id="path20"
         d="m 57.294102,-5.5390078 c -0.05859,0.1992187 -0.05859,0.2226562 -0.222657,0.4453125 -0.269531,0.3398437 -0.796875,0.8554687 -1.359375,0.8554687 -0.480468,0 -0.761718,-0.4453125 -0.761718,-1.1484375 0,-0.65625 0.375,-1.9921875 0.597656,-2.4960937 0.410156,-0.84375 0.972656,-1.265625 1.441406,-1.265625 0.785156,0 0.9375,0.9726562 0.9375,1.0664062 0,0.011719 -0.03516,0.1757813 -0.04687,0.1992188 z m 0.761718,-3.0703125 c -0.128906,-0.3046875 -0.445312,-0.7851563 -1.066406,-0.7851563 -1.359375,0 -2.8125,1.7460938 -2.8125,3.515625 0,1.1835938 0.691406,1.875 1.5,1.875 0.65625,0 1.21875,-0.515625 1.558594,-0.9023437 0.117187,0.703125 0.679687,0.9023437 1.042969,0.9023437 0.351562,0 0.644531,-0.2109375 0.855468,-0.6445312 0.1875,-0.4101563 0.363282,-1.1367188 0.363282,-1.1835938 0,-0.058594 -0.04687,-0.1054687 -0.117188,-0.1054687 -0.117187,0 -0.128906,0.058594 -0.175781,0.234375 -0.175781,0.7148437 -0.398438,1.4648437 -0.890625,1.4648437 -0.351563,0 -0.375,-0.3164062 -0.375,-0.5507812 0,-0.28125 0.03516,-0.4101563 0.140625,-0.8789063 0.08203,-0.2929687 0.152344,-0.5625 0.246094,-0.9023437 0.433593,-1.7929688 0.550781,-2.2265625 0.550781,-2.296875 0,-0.1640625 -0.140625,-0.2929688 -0.316406,-0.2929688 -0.375,0 -0.480469,0.4101563 -0.503907,0.5507813 z m 0,0"
         style="fill:#000000;fill-opacity:1;fill-rule:nonzero;stroke:none" />
      <path
         id="path21"
         d="m 148.46598,90.985406 c 0,-1.324218 -0.90235,-3.339843 -2.98828,-4.394531 1.28906,-0.691406 2.83593,-2.085937 2.97656,-4.324219 l 0.0117,-0.07031 V 73.91119 c 0,-0.984375 0,-1.195313 0.0937,-1.652344 0.22265,-0.949219 0.79687,-2.132813 2.30859,-3.035156 0.0937,-0.05859 0.10547,-0.07031 0.10547,-0.28125 0,-0.269532 -0.0117,-0.28125 -0.26953,-0.28125 -0.22266,0 -0.2461,0 -0.5625,0.199218 -2.6836,1.511719 -2.83594,3.738282 -2.83594,4.148438 v 8.507812 c 0,0.855469 0,1.828125 -0.62109,2.929688 -0.55078,0.972656 -1.19532,1.464844 -1.71094,1.816406 -0.16406,0.105469 -0.17578,0.117188 -0.17578,0.316406 0,0.222657 0.0117,0.234375 0.10547,0.292969 1.01953,0.667969 2.10937,1.734375 2.36718,3.679688 0.0352,0.257812 0.0352,0.28125 0.0352,0.433593 v 9.175782 c 0,0.97265 0.59766,2.97656 2.90625,4.19531 0.26953,0.15234 0.29297,0.15234 0.49219,0.15234 0.25781,0 0.26953,-0.0117 0.26953,-0.26953 0,-0.22265 -0.0117,-0.23437 -0.0586,-0.25781 -0.51563,-0.31641 -2.07422,-1.26562 -2.40235,-3.33984 -0.0469,-0.31641 -0.0469,-0.33985 -0.0469,-0.49219 z m 0,0"
         style="fill:#000000;fill-opacity:1;fill-rule:nonzero;stroke:none" />
      <path
         id="path22"
         d="m 158.36539,76.521539 c -0.375,0.07031 -0.51562,0.351563 -0.51562,0.585938 0,0.28125 0.22265,0.375 0.38671,0.375 0.36329,0 0.60938,-0.304688 0.60938,-0.632813 0,-0.492187 -0.57422,-0.726562 -1.07813,-0.726562 -0.72656,0 -1.125,0.714843 -1.24218,0.949218 -0.26953,-0.902343 -1.00782,-0.949218 -1.23047,-0.949218 -1.21875,0 -1.86328,1.570312 -1.86328,1.828125 0,0.04687 0.0469,0.105468 0.1289,0.105468 0.10547,0 0.12891,-0.07031 0.15235,-0.117187 0.39843,-1.324219 1.20703,-1.570313 1.54687,-1.570313 0.53906,0 0.64453,0.492188 0.64453,0.785157 0,0.257812 -0.0703,0.539062 -0.21093,1.113281 l -0.41016,1.628906 c -0.17578,0.726563 -0.52734,1.382813 -1.16016,1.382813 -0.0586,0 -0.35156,0 -0.60937,-0.152344 0.43359,-0.09375 0.52734,-0.445313 0.52734,-0.585938 0,-0.246093 -0.17578,-0.386718 -0.39844,-0.386718 -0.29296,0 -0.59765,0.246093 -0.59765,0.632812 0,0.503906 0.5625,0.726563 1.0664,0.726563 0.57422,0 0.98438,-0.457032 1.23047,-0.9375 0.19922,0.703125 0.79688,0.9375 1.23047,0.9375 1.23047,0 1.875,-1.558594 1.875,-1.828125 0,-0.05859 -0.0469,-0.105469 -0.1289,-0.105469 -0.10547,0 -0.11719,0.05859 -0.15235,0.152344 -0.3164,1.054687 -1.01953,1.546875 -1.54687,1.546875 -0.42188,0 -0.65625,-0.316407 -0.65625,-0.808594 0,-0.257813 0.0586,-0.445313 0.24609,-1.242188 l 0.42188,-1.617187 c 0.17578,-0.726563 0.58593,-1.242188 1.125,-1.242188 0.0351,0 0.36328,0 0.60937,0.152344 z m 0,0"
         style="fill:#000000;fill-opacity:1;fill-rule:nonzero;stroke:none" />
      <path
         id="path23"
         d="m 161.60562,75.428766 c 0.12891,-0.117188 0.45704,-0.375 0.58594,-0.492188 0.49219,-0.457031 0.96094,-0.890625 0.96094,-1.617187 0,-0.949219 -0.79688,-1.558594 -1.79297,-1.558594 -0.94922,0 -1.58203,0.726562 -1.58203,1.429687 0,0.398438 0.31641,0.445313 0.42187,0.445313 0.16407,0 0.41016,-0.117188 0.41016,-0.421875 0,-0.410156 -0.39844,-0.410156 -0.49219,-0.410156 0.23438,-0.585938 0.77344,-0.785157 1.16016,-0.785157 0.73828,0 1.125,0.632813 1.125,1.300782 0,0.832031 -0.58594,1.429687 -1.52344,2.402343 l -1.00781,1.03125 c -0.0937,0.09375 -0.0937,0.105469 -0.0937,0.304688 h 3.15234 l 0.22266,-1.429688 h -0.24609 c -0.0234,0.164063 -0.082,0.5625 -0.17579,0.714844 -0.0469,0.05859 -0.65625,0.05859 -0.78515,0.05859 h -1.41797 z m 0,0"
         style="fill:#000000;fill-opacity:1;fill-rule:nonzero;stroke:none" />
      <path
         id="path24"
         d="m 171.51676,78.630914 h 3.30469 c 0.16406,0 0.375,0 0.375,-0.210937 0,-0.222657 -0.19922,-0.222657 -0.375,-0.222657 h -3.30469 v -3.304687 c 0,-0.164063 0,-0.386719 -0.21094,-0.386719 -0.23437,0 -0.23437,0.210938 -0.23437,0.386719 v 3.304687 h -3.29297 c -0.17578,0 -0.38672,0 -0.38672,0.210938 0,0.222656 0.19922,0.222656 0.38672,0.222656 h 3.29297 v 3.304688 c 0,0.164062 0,0.386718 0.22265,0.386718 0.22266,0 0.22266,-0.210937 0.22266,-0.386718 z m 0,0"
         style="fill:#000000;fill-opacity:1;fill-rule:nonzero;stroke:none" />
      <path
         id="path25"
         d="m 184.16715,76.521539 c -0.375,0.07031 -0.51563,0.351563 -0.51563,0.585938 0,0.28125 0.22266,0.375 0.38672,0.375 0.36328,0 0.60938,-0.304688 0.60938,-0.632813 0,-0.492187 -0.57422,-0.726562 -1.07813,-0.726562 -0.72656,0 -1.125,0.714843 -1.24219,0.949218 -0.26953,-0.902343 -1.00781,-0.949218 -1.23046,-0.949218 -1.21875,0 -1.86329,1.570312 -1.86329,1.828125 0,0.04687 0.0469,0.105468 0.12891,0.105468 0.10547,0 0.12891,-0.07031 0.15234,-0.117187 0.39844,-1.324219 1.20704,-1.570313 1.54688,-1.570313 0.53906,0 0.64453,0.492188 0.64453,0.785157 0,0.257812 -0.0703,0.539062 -0.21094,1.113281 l -0.41015,1.628906 c -0.17578,0.726563 -0.52735,1.382813 -1.16016,1.382813 -0.0586,0 -0.35156,0 -0.60937,-0.152344 0.43359,-0.09375 0.52734,-0.445313 0.52734,-0.585938 0,-0.246093 -0.17578,-0.386718 -0.39844,-0.386718 -0.29297,0 -0.59765,0.246093 -0.59765,0.632812 0,0.503906 0.5625,0.726563 1.0664,0.726563 0.57422,0 0.98438,-0.457032 1.23047,-0.9375 0.19922,0.703125 0.79688,0.9375 1.23047,0.9375 1.23047,0 1.875,-1.558594 1.875,-1.828125 0,-0.05859 -0.0469,-0.105469 -0.12891,-0.105469 -0.10547,0 -0.11718,0.05859 -0.15234,0.152344 -0.31641,1.054687 -1.01953,1.546875 -1.54688,1.546875 -0.42187,0 -0.65625,-0.316407 -0.65625,-0.808594 0,-0.257813 0.0586,-0.445313 0.2461,-1.242188 l 0.42187,-1.617187 c 0.17578,-0.726563 0.58594,-1.242188 1.125,-1.242188 0.0352,0 0.36328,0 0.60938,0.152344 z m 0,0"
         style="fill:#000000;fill-opacity:1;fill-rule:nonzero;stroke:none" />
      <path
         id="path26"
         d="m 189.05094,84.302789 c 0,-0.03516 0,-0.05859 -0.21094,-0.269531 -1.19531,-1.207031 -1.86328,-3.175781 -1.86328,-5.613281 0,-2.320313 0.5625,-4.3125 1.94531,-5.730469 0.12891,-0.105469 0.12891,-0.128906 0.12891,-0.164063 0,-0.07031 -0.0703,-0.09375 -0.11719,-0.09375 -0.15234,0 -1.13672,0.855469 -1.72266,2.027344 -0.60937,1.207031 -0.8789,2.496094 -0.8789,3.960938 0,1.066406 0.16406,2.484375 0.78515,3.761718 0.70313,1.441407 1.6875,2.214844 1.81641,2.214844 0.0469,0 0.11719,-0.02344 0.11719,-0.09375 z m 0,0"
         style="fill:#000000;fill-opacity:1;fill-rule:nonzero;stroke:none" />
      <path
         id="path27"
         d="m 192.85367,82.732477 c -0.3164,0.457031 -0.78515,0.867187 -1.37109,0.867187 -0.14063,0 -0.71485,-0.02344 -0.90235,-0.574219 0.0469,0.01172 0.10547,0.01172 0.12891,0.01172 0.35156,0 0.59766,-0.316406 0.59766,-0.585937 0,-0.28125 -0.23438,-0.375 -0.41016,-0.375 -0.1875,0 -0.60937,0.140625 -0.60937,0.726562 0,0.609375 0.51562,1.03125 1.19531,1.03125 1.19531,0 2.40234,-1.101562 2.74219,-2.425781 l 1.17187,-4.664063 c 0.0117,-0.05859 0.0352,-0.128906 0.0352,-0.199218 0,-0.175782 -0.15235,-0.304688 -0.32813,-0.304688 -0.10547,0 -0.36328,0.04687 -0.45703,0.410156 l -0.87891,3.515625 c -0.0586,0.210938 -0.0586,0.234375 -0.15234,0.375 -0.24609,0.328125 -0.64453,0.738282 -1.20703,0.738282 -0.67969,0 -0.73828,-0.65625 -0.73828,-0.984375 0,-0.679688 0.32812,-1.605469 0.64453,-2.460938 0.14062,-0.351562 0.21094,-0.515625 0.21094,-0.75 0,-0.503906 -0.36328,-0.960937 -0.94922,-0.960937 -1.10156,0 -1.53516,1.734375 -1.53516,1.828125 0,0.04687 0.0469,0.105468 0.12891,0.105468 0.10547,0 0.11719,-0.04687 0.16406,-0.210937 0.29297,-1.007813 0.73828,-1.476563 1.20703,-1.476563 0.10547,0 0.31641,0 0.31641,0.386719 0,0.316406 -0.14063,0.65625 -0.31641,1.113281 -0.58594,1.570313 -0.58594,1.957032 -0.58594,2.25 0,1.136719 0.8086,1.394532 1.40625,1.394532 0.35157,0 0.78516,-0.105469 1.19532,-0.550782 l 0.0117,0.01172 c -0.17579,0.703125 -0.29297,1.171875 -0.71485,1.757813 z m 0,0"
         style="fill:#000000;fill-opacity:1;fill-rule:nonzero;stroke:none" />
      <path
         id="path28"
         d="m 206.38004,78.642633 c 0.21094,0 0.42187,0 0.42187,-0.234375 0,-0.234375 -0.21093,-0.234375 -0.42187,-0.234375 h -6.46875 c -0.19922,0 -0.41016,0 -0.41016,0.234375 0,0.234375 0.21094,0.234375 0.41016,0.234375 z m 0,0"
         style="fill:#000000;fill-opacity:1;fill-rule:nonzero;stroke:none" />
      <path
         id="path29"
         d="m 214.77359,73.615289 c 0,-0.222656 0,-0.292969 -0.16406,-0.292969 -0.0937,0 -0.12891,0 -0.22266,0.152344 l -3.59765,5.578125 v 0.351563 h 3.14062 v 1.078125 c 0,0.445312 -0.0234,0.5625 -0.90234,0.5625 h -0.23438 v 0.351562 c 0.26954,-0.02344 1.21875,-0.02344 1.5586,-0.02344 0.32812,0 1.28906,0 1.55859,0.02344 v -0.351562 h -0.23437 c -0.86719,0 -0.90235,-0.117188 -0.90235,-0.5625 v -1.078125 h 1.20703 v -0.351563 h -1.20703 z m -0.78515,0.9375 v 4.5 h -2.90625 z m 5.70117,3.867188 c 0,-0.914063 -0.12891,-2.390625 -0.79688,-3.773438 -0.70312,-1.441406 -1.67578,-2.214844 -1.8164,-2.214844 -0.0469,0 -0.10547,0.02344 -0.10547,0.09375 0,0.03516 0,0.05859 0.19922,0.269532 1.19531,1.207031 1.875,3.175781 1.875,5.613281 0,2.320312 -0.5625,4.3125 -1.95703,5.730469 -0.11719,0.105468 -0.11719,0.128906 -0.11719,0.164062 0,0.07031 0.0586,0.09375 0.10547,0.09375 0.16406,0 1.13672,-0.855469 1.72265,-2.027344 0.60938,-1.21875 0.89063,-2.519531 0.89063,-3.949218 z m 12.57422,-0.890625 c 0.16406,0 0.375,0 0.375,-0.222657 0,-0.222656 -0.19922,-0.222656 -0.375,-0.222656 h -7.04297 c -0.17578,0 -0.38672,0 -0.38672,0.210938 0,0.234375 0.19922,0.234375 0.38672,0.234375 z m 0,2.214843 c 0.16406,0 0.375,0 0.375,-0.210937 0,-0.234375 -0.19922,-0.234375 -0.375,-0.234375 h -7.04297 c -0.17578,0 -0.38672,0 -0.38672,0.222656 0,0.222656 0.19922,0.222656 0.38672,0.222656 z m 0,0"
         style="fill:#000000;fill-opacity:1;fill-rule:nonzero;stroke:none" />
      <path
         id="path30"
         d="m 244.48648,78.642633 c 0.21094,0 0.42188,0 0.42188,-0.234375 0,-0.234375 -0.21094,-0.234375 -0.42188,-0.234375 h -6.46875 c -0.19921,0 -0.41015,0 -0.41015,0.234375 0,0.234375 0.21094,0.234375 0.41015,0.234375 z m 0,0"
         style="fill:#000000;fill-opacity:1;fill-rule:nonzero;stroke:none" />
      <path
         id="path31"
         d="m 251.17203,79.392633 h -0.26953 c -0.0352,0.199219 -0.12891,0.855469 -0.24609,1.042969 -0.082,0.117187 -0.76172,0.117187 -1.125,0.117187 h -2.21485 c 0.32813,-0.28125 1.05469,-1.042969 1.3711,-1.335937 1.8164,-1.664063 2.48437,-2.285157 2.48437,-3.46875 0,-1.382813 -1.08984,-2.296875 -2.47266,-2.296875 -1.39453,0 -2.20312,1.183593 -2.20312,2.203125 0,0.609375 0.52734,0.609375 0.5625,0.609375 0.24609,0 0.5625,-0.175782 0.5625,-0.5625 0,-0.328125 -0.23438,-0.550782 -0.5625,-0.550782 -0.10547,0 -0.12891,0 -0.16406,0.01172 0.22265,-0.820312 0.86718,-1.371094 1.64062,-1.371094 1.01953,0 1.64063,0.855469 1.64063,1.957032 0,1.007812 -0.58594,1.898437 -1.26563,2.660156 l -2.41406,2.707031 v 0.28125 h 4.35937 z m 0,0"
         style="fill:#000000;fill-opacity:1;fill-rule:nonzero;stroke:none" />
      <path
         id="path32"
         d="m 155.84586,100.06744 c -0.31641,0.45703 -0.78516,0.86719 -1.37109,0.86719 -0.14063,0 -0.71485,-0.0234 -0.90235,-0.57422 0.0469,0.0117 0.10547,0.0117 0.12891,0.0117 0.35156,0 0.59765,-0.31641 0.59765,-0.585942 0,-0.28125 -0.23437,-0.375 -0.41015,-0.375 -0.1875,0 -0.60938,0.140625 -0.60938,0.726562 0,0.60938 0.51563,1.03125 1.19532,1.03125 1.19531,0 2.40234,-1.10156 2.74218,-2.425781 l 1.17188,-4.664063 c 0.0117,-0.05859 0.0351,-0.128906 0.0351,-0.199218 0,-0.175782 -0.15234,-0.304688 -0.32812,-0.304688 -0.10547,0 -0.36328,0.04687 -0.45703,0.410156 l -0.87891,3.515625 c -0.0586,0.210938 -0.0586,0.234375 -0.15234,0.375 -0.2461,0.328125 -0.64453,0.738282 -1.20703,0.738282 -0.67969,0 -0.73828,-0.65625 -0.73828,-0.984375 0,-0.679688 0.32812,-1.605469 0.64453,-2.460938 0.14062,-0.351562 0.21093,-0.515625 0.21093,-0.75 0,-0.503906 -0.36328,-0.960937 -0.94921,-0.960937 -1.10157,0 -1.53516,1.734375 -1.53516,1.828125 0,0.04687 0.0469,0.105468 0.12891,0.105468 0.10546,0 0.11718,-0.04687 0.16406,-0.210937 0.29297,-1.007813 0.73828,-1.476563 1.20703,-1.476563 0.10547,0 0.31641,0 0.31641,0.386719 0,0.316406 -0.14063,0.65625 -0.31641,1.113281 -0.58594,1.570313 -0.58594,1.957032 -0.58594,2.25 0,1.136719 0.8086,1.394532 1.40625,1.394532 0.35156,0 0.78516,-0.105469 1.19531,-0.550782 l 0.0117,0.01172 c -0.17578,0.703125 -0.29297,1.171875 -0.71484,1.757814 z m 0,0"
         style="fill:#000000;fill-opacity:1;fill-rule:nonzero;stroke:none" />
      <path
         id="path33"
         d="m 161.09293,92.763727 c 0.12891,-0.117188 0.45703,-0.375 0.58594,-0.492188 0.49218,-0.457031 0.96093,-0.890625 0.96093,-1.617187 0,-0.949219 -0.79687,-1.558594 -1.79296,-1.558594 -0.94922,0 -1.58204,0.726562 -1.58204,1.429687 0,0.398438 0.31641,0.445313 0.42188,0.445313 0.16406,0 0.41016,-0.117188 0.41016,-0.421875 0,-0.410156 -0.39844,-0.410156 -0.49219,-0.410156 0.23437,-0.585938 0.77344,-0.785157 1.16015,-0.785157 0.73829,0 1.125,0.632813 1.125,1.300782 0,0.832031 -0.58593,1.429687 -1.52343,2.402343 l -1.00782,1.03125 c -0.0937,0.09375 -0.0937,0.105469 -0.0937,0.304688 h 3.15235 l 0.22265,-1.429688 h -0.24609 c -0.0234,0.164063 -0.082,0.5625 -0.17578,0.714844 -0.0469,0.05859 -0.65625,0.05859 -0.78516,0.05859 h -1.41797 z m 0,0"
         style="fill:#000000;fill-opacity:1;fill-rule:nonzero;stroke:none" />
      <path
         id="path34"
         d="m 171.00113,95.965875 h 3.30469 c 0.16406,0 0.375,0 0.375,-0.210937 0,-0.222657 -0.19922,-0.222657 -0.375,-0.222657 h -3.30469 v -3.304687 c 0,-0.164063 0,-0.386719 -0.21093,-0.386719 -0.23438,0 -0.23438,0.210938 -0.23438,0.386719 v 3.304687 h -3.29297 c -0.17578,0 -0.38672,0 -0.38672,0.210938 0,0.222656 0.19922,0.222656 0.38672,0.222656 h 3.29297 v 3.304688 c 0,0.164062 0,0.386718 0.22266,0.386718 0.22265,0 0.22265,-0.210937 0.22265,-0.386718 z m 0,0"
         style="fill:#000000;fill-opacity:1;fill-rule:nonzero;stroke:none" />
      <path
         id="path35"
         d="m 181.13199,100.06744 c -0.3164,0.45703 -0.78515,0.86719 -1.37109,0.86719 -0.14063,0 -0.71485,-0.0234 -0.90235,-0.57422 0.0469,0.0117 0.10547,0.0117 0.12891,0.0117 0.35156,0 0.59766,-0.31641 0.59766,-0.585942 0,-0.28125 -0.23438,-0.375 -0.41016,-0.375 -0.1875,0 -0.60937,0.140625 -0.60937,0.726562 0,0.60938 0.51562,1.03125 1.19531,1.03125 1.19531,0 2.40234,-1.10156 2.74219,-2.425781 l 1.17187,-4.664063 c 0.0117,-0.05859 0.0352,-0.128906 0.0352,-0.199218 0,-0.175782 -0.15235,-0.304688 -0.32813,-0.304688 -0.10547,0 -0.36328,0.04687 -0.45703,0.410156 l -0.87891,3.515625 c -0.0586,0.210938 -0.0586,0.234375 -0.15234,0.375 -0.24609,0.328125 -0.64453,0.738282 -1.20703,0.738282 -0.67969,0 -0.73828,-0.65625 -0.73828,-0.984375 0,-0.679688 0.32812,-1.605469 0.64453,-2.460938 0.14062,-0.351562 0.21094,-0.515625 0.21094,-0.75 0,-0.503906 -0.36328,-0.960937 -0.94922,-0.960937 -1.10156,0 -1.53516,1.734375 -1.53516,1.828125 0,0.04687 0.0469,0.105468 0.12891,0.105468 0.10547,0 0.11719,-0.04687 0.16406,-0.210937 0.29297,-1.007813 0.73828,-1.476563 1.20703,-1.476563 0.10547,0 0.31641,0 0.31641,0.386719 0,0.316406 -0.14063,0.65625 -0.31641,1.113281 -0.58594,1.570313 -0.58594,1.957032 -0.58594,2.25 0,1.136719 0.8086,1.394532 1.40625,1.394532 0.35157,0 0.78516,-0.105469 1.19532,-0.550782 l 0.0117,0.01172 c -0.17579,0.703125 -0.29297,1.171875 -0.71485,1.757814 z m 0,0"
         style="fill:#000000;fill-opacity:1;fill-rule:nonzero;stroke:none" />
      <path
         id="path36"
         d="m 188.01969,101.63775 c 0,-0.0352 0,-0.0586 -0.21094,-0.26953 -1.19531,-1.20703 -1.86328,-3.175782 -1.86328,-5.613282 0,-2.320313 0.5625,-4.3125 1.94531,-5.730469 0.12891,-0.105469 0.12891,-0.128906 0.12891,-0.164063 0,-0.07031 -0.0703,-0.09375 -0.11719,-0.09375 -0.15234,0 -1.13672,0.855469 -1.72266,2.027344 -0.60937,1.207031 -0.8789,2.496094 -0.8789,3.960938 0,1.066406 0.16406,2.484375 0.78515,3.761718 0.70313,1.441404 1.6875,2.214844 1.81641,2.214844 0.0469,0 0.11719,-0.0234 0.11719,-0.0937 z m 0,0"
         style="fill:#000000;fill-opacity:1;fill-rule:nonzero;stroke:none" />
      <path
         id="path37"
         d="m 194.34195,93.8565 c -0.375,0.07031 -0.51562,0.351563 -0.51562,0.585938 0,0.28125 0.22265,0.375 0.38672,0.375 0.36328,0 0.60937,-0.304688 0.60937,-0.632813 0,-0.492187 -0.57422,-0.726562 -1.07812,-0.726562 -0.72657,0 -1.125,0.714843 -1.24219,0.949218 -0.26953,-0.902343 -1.00781,-0.949218 -1.23047,-0.949218 -1.21875,0 -1.86328,1.570312 -1.86328,1.828125 0,0.04687 0.0469,0.105468 0.12891,0.105468 0.10546,0 0.1289,-0.07031 0.15234,-0.117187 0.39844,-1.324219 1.20703,-1.570313 1.54687,-1.570313 0.53907,0 0.64454,0.492188 0.64454,0.785157 0,0.257812 -0.0703,0.539062 -0.21094,1.113281 l -0.41016,1.628906 c -0.17578,0.726563 -0.52734,1.382813 -1.16015,1.382813 -0.0586,0 -0.35157,0 -0.60938,-0.152344 0.43359,-0.09375 0.52734,-0.445313 0.52734,-0.585938 0,-0.246093 -0.17578,-0.386718 -0.39843,-0.386718 -0.29297,0 -0.59766,0.246093 -0.59766,0.632812 0,0.503906 0.5625,0.726563 1.06641,0.726563 0.57422,0 0.98437,-0.457032 1.23047,-0.9375 0.19921,0.703125 0.79687,0.9375 1.23046,0.9375 1.23047,0 1.875,-1.558594 1.875,-1.828125 0,-0.05859 -0.0469,-0.105469 -0.1289,-0.105469 -0.10547,0 -0.11719,0.05859 -0.15235,0.152344 -0.3164,1.054687 -1.01953,1.546875 -1.54687,1.546875 -0.42188,0 -0.65625,-0.316407 -0.65625,-0.808594 0,-0.257813 0.0586,-0.445313 0.24609,-1.242188 l 0.42188,-1.617187 c 0.17578,-0.726563 0.58594,-1.242188 1.125,-1.242188 0.0351,0 0.36328,0 0.60937,0.152344 z m 0,0"
         style="fill:#000000;fill-opacity:1;fill-rule:nonzero;stroke:none" />
      <path
         id="path38"
         d="m 205.86441,95.977594 c 0.21094,0 0.42188,0 0.42188,-0.234375 0,-0.234375 -0.21094,-0.234375 -0.42188,-0.234375 h -6.46875 c -0.19921,0 -0.41015,0 -0.41015,0.234375 0,0.234375 0.21094,0.234375 0.41015,0.234375 z m 0,0"
         style="fill:#000000;fill-opacity:1;fill-rule:nonzero;stroke:none" />
      <path
         id="path39"
         d="m 214.25797,90.95025 c 0,-0.222656 0,-0.292969 -0.16406,-0.292969 -0.0937,0 -0.12891,0 -0.22266,0.152344 l -3.59766,5.578125 v 0.351563 h 3.14063 v 1.078125 c 0,0.445312 -0.0234,0.5625 -0.90235,0.5625 H 212.2775 V 98.7315 c 0.26953,-0.02344 1.21875,-0.02344 1.55859,-0.02344 0.32813,0 1.28907,0 1.5586,0.02344 v -0.351562 h -0.23438 c -0.86719,0 -0.90234,-0.117188 -0.90234,-0.5625 V 96.739313 H 215.465 V 96.38775 h -1.20703 z m -0.78516,0.9375 v 4.5 h -2.90625 z m 5.70117,3.867188 c 0,-0.914063 -0.1289,-2.390625 -0.79687,-3.773438 -0.70313,-1.441406 -1.67578,-2.214844 -1.81641,-2.214844 -0.0469,0 -0.10547,0.02344 -0.10547,0.09375 0,0.03516 0,0.05859 0.19922,0.269532 1.19532,1.207031 1.875,3.175781 1.875,5.613281 0,2.320312 -0.5625,4.312501 -1.95703,5.730471 -0.11719,0.10547 -0.11719,0.1289 -0.11719,0.16406 0,0.0703 0.0586,0.0937 0.10547,0.0937 0.16407,0 1.13672,-0.85547 1.72266,-2.027344 0.60937,-1.21875 0.89062,-2.519531 0.89062,-3.949218 z m 12.57422,-0.890625 c 0.16407,0 0.375,0 0.375,-0.222657 0,-0.222656 -0.19922,-0.222656 -0.375,-0.222656 h -7.04297 c -0.17578,0 -0.38671,0 -0.38671,0.210938 0,0.234375 0.19921,0.234375 0.38671,0.234375 z m 0,2.214843 c 0.16407,0 0.375,0 0.375,-0.210937 0,-0.234375 -0.19922,-0.234375 -0.375,-0.234375 h -7.04297 c -0.17578,0 -0.38671,0 -0.38671,0.222656 0,0.222656 0.19921,0.222656 0.38671,0.222656 z m 0,0"
         style="fill:#000000;fill-opacity:1;fill-rule:nonzero;stroke:none" />
      <path
         id="path40"
         d="m 243.97086,95.977594 c 0.21094,0 0.42187,0 0.42187,-0.234375 0,-0.234375 -0.21093,-0.234375 -0.42187,-0.234375 h -6.46875 c -0.19922,0 -0.41016,0 -0.41016,0.234375 0,0.234375 0.21094,0.234375 0.41016,0.234375 z m 0,0"
         style="fill:#000000;fill-opacity:1;fill-rule:nonzero;stroke:none" />
      <path
         id="path41"
         d="m 250.65641,96.727594 h -0.26954 c -0.0351,0.199219 -0.1289,0.855469 -0.24609,1.042969 -0.082,0.117187 -0.76172,0.117187 -1.125,0.117187 h -2.21484 c 0.32812,-0.28125 1.05468,-1.042969 1.37109,-1.335937 1.81641,-1.664063 2.48438,-2.285157 2.48438,-3.46875 0,-1.382813 -1.08985,-2.296875 -2.47266,-2.296875 -1.39453,0 -2.20313,1.183593 -2.20313,2.203125 0,0.609375 0.52735,0.609375 0.5625,0.609375 0.2461,0 0.5625,-0.175782 0.5625,-0.5625 0,-0.328125 -0.23437,-0.550782 -0.5625,-0.550782 -0.10546,0 -0.1289,0 -0.16406,0.01172 0.22266,-0.820312 0.86719,-1.371094 1.64063,-1.371094 1.01953,0 1.64062,0.855469 1.64062,1.957032 0,1.007812 -0.58594,1.898437 -1.26562,2.660156 l -2.41407,2.707031 V 98.7315 H 250.34 Z m 0,0"
         style="fill:#000000;fill-opacity:1;fill-rule:nonzero;stroke:none" />
      <path
         id="path42"
         d="m 253.45133,98.157281 c 0,-0.351562 -0.29297,-0.585937 -0.57422,-0.585937 -0.35156,0 -0.58594,0.292969 -0.58594,0.574219 0,0.351562 0.28125,0.585937 0.57422,0.585937 0.33984,0 0.58594,-0.28125 0.58594,-0.574219 z m 0,0"
         style="fill:#000000;fill-opacity:1;fill-rule:nonzero;stroke:none" />
      <path
         id="path43"
         d="m 111.1652,149.54693 c 0.23437,0 0.32812,0 0.32812,-0.22266 0,-0.1289 -0.0937,-0.1289 -0.30469,-0.1289 h -0.97265 c 0.23437,-1.23047 0.39843,-2.07422 0.49218,-2.46094 0.0703,-0.28125 0.32813,-0.5625 0.63282,-0.5625 0.25781,0 0.5039,0.10547 0.62109,0.22266 -0.46875,0.0469 -0.60937,0.38671 -0.60937,0.59765 0,0.23438 0.1875,0.375 0.41015,0.375 0.23438,0 0.59766,-0.19922 0.59766,-0.65625 0,-0.5039 -0.50391,-0.77344 -1.03125,-0.77344 -0.51563,0 -1.00781,0.38672 -1.25391,0.84375 -0.21094,0.42188 -0.32812,0.85547 -0.60937,2.41407 h -0.79688 c -0.23437,0 -0.35156,0 -0.35156,0.22265 0,0.12891 0.0703,0.12891 0.31641,0.12891 h 0.76171 c -0.21093,1.11328 -0.70312,3.80859 -0.98437,5.08594 -0.19922,1.04297 -0.375,1.92187 -0.97266,1.92187 -0.0352,0 -0.38672,0 -0.59765,-0.23437 0.60937,-0.0469 0.60937,-0.57422 0.60937,-0.58594 0,-0.23438 -0.1875,-0.375 -0.41015,-0.375 -0.23438,0 -0.59766,0.19922 -0.59766,0.65625 0,0.51562 0.52734,0.77344 0.99609,0.77344 1.21875,0 1.72266,-2.19141 1.85157,-2.78907 0.21093,-0.91406 0.79687,-4.08984 0.85546,-4.45312 z m 0,0"
         style="fill:#000000;fill-opacity:1;fill-rule:nonzero;stroke:none" />
      <path
         id="path44"
         d="m 116.40934,149.76959 c 0,-0.31641 -0.28125,-0.57422 -0.57422,-0.57422 -0.35157,0 -0.58594,0.28125 -0.58594,0.57422 0,0.36328 0.29297,0.58593 0.57422,0.58593 0.3164,0 0.58594,-0.24609 0.58594,-0.58593 z m 0,3.99609 c 0,-0.32813 -0.28125,-0.57422 -0.57422,-0.57422 -0.35157,0 -0.58594,0.28125 -0.58594,0.57422 0,0.36328 0.29297,0.58594 0.57422,0.58594 0.3164,0 0.58594,-0.2461 0.58594,-0.58594 z m 0,0"
         style="fill:#000000;fill-opacity:1;fill-rule:nonzero;stroke:none" />
      <path
         id="path45"
         d="m 124.64176,150.60162 h 0.43359 l 1.79297,2.76562 c 0.11719,0.19922 0.41016,0.65625 0.53906,0.84375 0.082,0.14063 0.11719,0.14063 0.39844,0.14063 h 1.64063 c 0.22265,0 0.39843,0 0.39843,-0.21094 0,-0.10547 -0.0703,-0.1875 -0.17578,-0.21094 -0.44531,-0.0937 -1.03125,-0.8789 -1.3125,-1.26562 -0.0937,-0.11719 -0.6914,-0.90235 -1.48828,-2.20313 1.06641,-0.1875 2.09766,-0.64453 2.09766,-2.0625 0,-1.66406 -1.75782,-2.23828 -3.17578,-2.23828 h -3.75 c -0.21094,0 -0.41016,0 -0.41016,0.22266 0,0.19922 0.23437,0.19922 0.32812,0.19922 0.67969,0 0.73829,0.082 0.73829,0.67968 v 5.98828 c 0,0.59766 -0.0586,0.67969 -0.73829,0.67969 -0.0937,0 -0.32812,0 -0.32812,0.21094 0,0.21094 0.19922,0.21094 0.41016,0.21094 h 3.26953 c 0.22265,0 0.39843,0 0.39843,-0.21094 0,-0.21094 -0.19921,-0.21094 -0.32812,-0.21094 -0.69141,0 -0.73828,-0.0937 -0.73828,-0.67969 z m 2.30859,-0.58594 c 0.33985,-0.44531 0.375,-1.07813 0.375,-1.60547 0,-0.57422 -0.0703,-1.20703 -0.45703,-1.69922 0.49219,0.10547 1.67578,0.48047 1.67578,1.6875 0,0.77344 -0.36328,1.38281 -1.59375,1.61719 z m -2.30859,-2.78906 c 0,-0.2461 0,-0.64453 0.75,-0.64453 1.00781,0 1.51172,0.42187 1.51172,1.82812 0,1.54688 -0.36328,1.76953 -2.26172,1.76953 z m -1.61719,6.70312 c 0.0937,-0.21094 0.0937,-0.55078 0.0937,-0.65625 v -6.03515 c 0,-0.11719 0,-0.44532 -0.0937,-0.65625 h 1.35938 c -0.15235,0.1875 -0.15235,0.43359 -0.15235,0.60937 v 6.08203 c 0,0.11719 0,0.44531 0.0937,0.65625 z m 2.54297,-3.32812 c 0.082,-0.0117 0.12891,-0.0234 0.22266,-0.0234 0.1875,0 0.44531,-0.0234 0.62109,-0.0469 0.1875,0.28125 1.47656,2.41407 2.46094,3.39844 h -1.14844 z m 0,0"
         style="fill:#000000;fill-opacity:1;fill-rule:nonzero;stroke:none" />
      <path
         id="path46"
         d="m 143.37125,151.59771 c -0.65625,0.50391 -0.98438,0.99609 -1.07813,1.14844 -0.53906,0.83203 -0.63281,1.58203 -0.63281,1.59375 0,0.14062 0.14063,0.14062 0.23438,0.14062 0.21093,0 0.22265,-0.0234 0.26953,-0.23437 0.26953,-1.17188 0.97265,-2.17969 2.33203,-2.73047 0.14062,-0.0469 0.17578,-0.0703 0.17578,-0.15234 0,-0.082 -0.0703,-0.11719 -0.0937,-0.12891 -0.52734,-0.21094 -1.98047,-0.80859 -2.42578,-2.8125 -0.0352,-0.14063 -0.0469,-0.17578 -0.25781,-0.17578 -0.0937,0 -0.23438,0 -0.23438,0.14062 0,0.0234 0.10547,0.77344 0.60938,1.58203 0.23437,0.35157 0.58593,0.77344 1.10156,1.16016 h -8.88281 c -0.22266,0 -0.4336,0 -0.4336,0.23438 0,0.23437 0.21094,0.23437 0.4336,0.23437 z m 0,0"
         style="fill:#000000;fill-opacity:1;fill-rule:nonzero;stroke:none" />
      <path
         id="path47"
         d="m 151.8732,150.60162 h 0.4336 l 1.79297,2.76562 c 0.11718,0.19922 0.41015,0.65625 0.53906,0.84375 0.082,0.14063 0.11719,0.14063 0.39844,0.14063 h 1.64062 c 0.22266,0 0.39844,0 0.39844,-0.21094 0,-0.10547 -0.0703,-0.1875 -0.17578,-0.21094 -0.44532,-0.0937 -1.03125,-0.8789 -1.3125,-1.26562 -0.0937,-0.11719 -0.69141,-0.90235 -1.48828,-2.20313 1.0664,-0.1875 2.09765,-0.64453 2.09765,-2.0625 0,-1.66406 -1.75781,-2.23828 -3.17578,-2.23828 h -3.75 c -0.21094,0 -0.41016,0 -0.41016,0.22266 0,0.19922 0.23438,0.19922 0.32813,0.19922 0.67969,0 0.73828,0.082 0.73828,0.67968 v 5.98828 c 0,0.59766 -0.0586,0.67969 -0.73828,0.67969 -0.0937,0 -0.32813,0 -0.32813,0.21094 0,0.21094 0.19922,0.21094 0.41016,0.21094 h 3.26953 c 0.22266,0 0.39844,0 0.39844,-0.21094 0,-0.21094 -0.19922,-0.21094 -0.32813,-0.21094 -0.6914,0 -0.73828,-0.0937 -0.73828,-0.67969 z m 2.3086,-0.58594 c 0.33984,-0.44531 0.375,-1.07813 0.375,-1.60547 0,-0.57422 -0.0703,-1.20703 -0.45703,-1.69922 0.49218,0.10547 1.67578,0.48047 1.67578,1.6875 0,0.77344 -0.36328,1.38281 -1.59375,1.61719 z m -2.3086,-2.78906 c 0,-0.2461 0,-0.64453 0.75,-0.64453 1.00782,0 1.51172,0.42187 1.51172,1.82812 0,1.54688 -0.36328,1.76953 -2.26172,1.76953 z m -1.61718,6.70312 c 0.0937,-0.21094 0.0937,-0.55078 0.0937,-0.65625 v -6.03515 c 0,-0.11719 0,-0.44532 -0.0937,-0.65625 h 1.35937 c -0.15234,0.1875 -0.15234,0.43359 -0.15234,0.60937 v 6.08203 c 0,0.11719 0,0.44531 0.0937,0.65625 z m 2.54296,-3.32812 c 0.082,-0.0117 0.12891,-0.0234 0.22266,-0.0234 0.1875,0 0.44531,-0.0234 0.62109,-0.0469 0.1875,0.28125 1.47657,2.41407 2.46094,3.39844 h -1.14844 z m 0,0"
         style="fill:#000000;fill-opacity:1;fill-rule:nonzero;stroke:none" />
      <path
         id="path48"
         d="m 135.81852,175.94634 c 0.23437,0 0.32812,0 0.32812,-0.22265 0,-0.12891 -0.0937,-0.12891 -0.30469,-0.12891 h -0.97265 c 0.23437,-1.23047 0.39843,-2.07422 0.49218,-2.46094 0.0703,-0.28125 0.32813,-0.5625 0.63282,-0.5625 0.25781,0 0.5039,0.10547 0.62109,0.22266 -0.46875,0.0469 -0.60937,0.38672 -0.60937,0.59766 0,0.23437 0.1875,0.375 0.41015,0.375 0.23438,0 0.59766,-0.19922 0.59766,-0.65625 0,-0.50391 -0.50391,-0.77344 -1.03125,-0.77344 -0.51563,0 -1.00781,0.38672 -1.25391,0.84375 -0.21094,0.42187 -0.32812,0.85547 -0.60937,2.41406 h -0.79688 c -0.23437,0 -0.35156,0 -0.35156,0.22266 0,0.1289 0.0703,0.1289 0.31641,0.1289 h 0.76171 c -0.21093,1.11329 -0.70312,3.8086 -0.98437,5.08594 -0.19922,1.04297 -0.375,1.92188 -0.97266,1.92188 -0.0351,0 -0.38672,0 -0.59765,-0.23438 0.60937,-0.0469 0.60937,-0.57422 0.60937,-0.58594 0,-0.23437 -0.1875,-0.375 -0.41015,-0.375 -0.23438,0 -0.59766,0.19922 -0.59766,0.65625 0,0.51563 0.52734,0.77344 0.99609,0.77344 1.21875,0 1.72266,-2.1914 1.85157,-2.78906 0.21093,-0.91406 0.79687,-4.08984 0.85546,-4.45313 z m 0,0"
         style="fill:#000000;fill-opacity:1;fill-rule:nonzero;stroke:none" />
      <path
         id="path49"
         d="m 141.42301,183.65728 c 0,-0.0351 0,-0.0586 -0.21094,-0.26953 -1.19531,-1.20703 -1.86328,-3.17578 -1.86328,-5.61328 0,-2.32031 0.5625,-4.3125 1.94531,-5.73047 0.12891,-0.10547 0.12891,-0.12891 0.12891,-0.16406 0,-0.0703 -0.0703,-0.0937 -0.11719,-0.0937 -0.15234,0 -1.13672,0.85547 -1.72266,2.02734 -0.60937,1.20703 -0.8789,2.4961 -0.8789,3.96094 0,1.06641 0.16406,2.48437 0.78515,3.76172 0.70313,1.4414 1.6875,2.21484 1.81641,2.21484 0.0469,0 0.11719,-0.0234 0.11719,-0.0937 z m 0,0"
         style="fill:#000000;fill-opacity:1;fill-rule:nonzero;stroke:none" />
      <path
         id="path50"
         d="m 147.74527,175.87603 c -0.375,0.0703 -0.51562,0.35156 -0.51562,0.58594 0,0.28125 0.22265,0.375 0.38672,0.375 0.36328,0 0.60937,-0.30469 0.60937,-0.63281 0,-0.49219 -0.57422,-0.72657 -1.07812,-0.72657 -0.72657,0 -1.125,0.71485 -1.24219,0.94922 -0.26953,-0.90234 -1.00781,-0.94922 -1.23047,-0.94922 -1.21875,0 -1.86328,1.57032 -1.86328,1.82813 0,0.0469 0.0469,0.10547 0.12891,0.10547 0.10546,0 0.1289,-0.0703 0.15234,-0.11719 0.39844,-1.32422 1.20703,-1.57031 1.54687,-1.57031 0.53907,0 0.64454,0.49219 0.64454,0.78515 0,0.25782 -0.0703,0.53907 -0.21094,1.11329 l -0.41016,1.6289 c -0.17578,0.72656 -0.52734,1.38281 -1.16015,1.38281 -0.0586,0 -0.35157,0 -0.60938,-0.15234 0.43359,-0.0937 0.52734,-0.44531 0.52734,-0.58594 0,-0.24609 -0.17578,-0.38672 -0.39843,-0.38672 -0.29297,0 -0.59766,0.2461 -0.59766,0.63282 0,0.5039 0.5625,0.72656 1.06641,0.72656 0.57422,0 0.98437,-0.45703 1.23047,-0.9375 0.19921,0.70312 0.79687,0.9375 1.23046,0.9375 1.23047,0 1.875,-1.55859 1.875,-1.82813 0,-0.0586 -0.0469,-0.10546 -0.1289,-0.10546 -0.10547,0 -0.11719,0.0586 -0.15235,0.15234 -0.3164,1.05469 -1.01953,1.54687 -1.54687,1.54687 -0.42188,0 -0.65625,-0.3164 -0.65625,-0.80859 0,-0.25781 0.0586,-0.44531 0.24609,-1.24219 l 0.42188,-1.61718 c 0.17578,-0.72657 0.58594,-1.24219 1.125,-1.24219 0.0352,0 0.36328,0 0.60937,0.15234 z m 0,0"
         style="fill:#000000;fill-opacity:1;fill-rule:nonzero;stroke:none" />
      <path
         id="path51"
         d="m 152.11344,177.77447 c 0,-0.91406 -0.12891,-2.39063 -0.79688,-3.77344 -0.70312,-1.4414 -1.67578,-2.21484 -1.8164,-2.21484 -0.0469,0 -0.10547,0.0234 -0.10547,0.0937 0,0.0351 0,0.0586 0.19922,0.26953 1.19531,1.20703 1.875,3.17578 1.875,5.61328 0,2.32031 -0.5625,4.3125 -1.95704,5.73047 -0.11718,0.10547 -0.11718,0.12891 -0.11718,0.16406 0,0.0703 0.0586,0.0937 0.10547,0.0937 0.16406,0 1.13671,-0.85547 1.72265,-2.02734 0.60938,-1.21875 0.89063,-2.51953 0.89063,-3.94922 z m 0,0"
         style="fill:#000000;fill-opacity:1;fill-rule:nonzero;stroke:none" />
      <path
         id="path52"
         d="m 158.24234,177.76275 c 0,-0.35156 -0.29297,-0.63281 -0.63281,-0.63281 -0.35156,0 -0.63281,0.28125 -0.63281,0.63281 0,0.35156 0.28125,0.63281 0.63281,0.63281 0.33984,0 0.63281,-0.28125 0.63281,-0.63281 z m 0,0"
         style="fill:#000000;fill-opacity:1;fill-rule:nonzero;stroke:none" />
      <path
         id="path53"
         d="m 167.25699,175.94634 c 0.23438,0 0.32813,0 0.32813,-0.22265 0,-0.12891 -0.0937,-0.12891 -0.30469,-0.12891 h -0.97266 c 0.23438,-1.23047 0.39844,-2.07422 0.49219,-2.46094 0.0703,-0.28125 0.32813,-0.5625 0.63281,-0.5625 0.25782,0 0.50391,0.10547 0.6211,0.22266 -0.46875,0.0469 -0.60938,0.38672 -0.60938,0.59766 0,0.23437 0.1875,0.375 0.41016,0.375 0.23437,0 0.59765,-0.19922 0.59765,-0.65625 0,-0.50391 -0.5039,-0.77344 -1.03125,-0.77344 -0.51562,0 -1.00781,0.38672 -1.2539,0.84375 -0.21094,0.42187 -0.32813,0.85547 -0.60938,2.41406 h -0.79687 c -0.23438,0 -0.35156,0 -0.35156,0.22266 0,0.1289 0.0703,0.1289 0.3164,0.1289 h 0.76172 c -0.21094,1.11329 -0.70312,3.8086 -0.98437,5.08594 -0.19922,1.04297 -0.375,1.92188 -0.97266,1.92188 -0.0352,0 -0.38672,0 -0.59766,-0.23438 0.60938,-0.0469 0.60938,-0.57422 0.60938,-0.58594 0,-0.23437 -0.1875,-0.375 -0.41016,-0.375 -0.23437,0 -0.59765,0.19922 -0.59765,0.65625 0,0.51563 0.52734,0.77344 0.99609,0.77344 1.21875,0 1.72266,-2.1914 1.85156,-2.78906 0.21094,-0.91406 0.79688,-4.08984 0.85547,-4.45313 z m 0,0"
         style="fill:#000000;fill-opacity:1;fill-rule:nonzero;stroke:none" />
      <path
         id="path54"
         d="m 172.86148,183.65728 c 0,-0.0351 0,-0.0586 -0.21093,-0.26953 -1.19532,-1.20703 -1.86328,-3.17578 -1.86328,-5.61328 0,-2.32031 0.5625,-4.3125 1.94531,-5.73047 0.1289,-0.10547 0.1289,-0.12891 0.1289,-0.16406 0,-0.0703 -0.0703,-0.0937 -0.11718,-0.0937 -0.15235,0 -1.13672,0.85547 -1.72266,2.02734 -0.60937,1.20703 -0.87891,2.4961 -0.87891,3.96094 0,1.06641 0.16407,2.48437 0.78516,3.76172 0.70313,1.4414 1.6875,2.21484 1.81641,2.21484 0.0469,0 0.11718,-0.0234 0.11718,-0.0937 z m 0,0"
         style="fill:#000000;fill-opacity:1;fill-rule:nonzero;stroke:none" />
      <path
         id="path55"
         d="m 176.66129,182.08697 c -0.31641,0.45703 -0.78516,0.86719 -1.37109,0.86719 -0.14063,0 -0.71485,-0.0234 -0.90235,-0.57422 0.0469,0.0117 0.10547,0.0117 0.12891,0.0117 0.35156,0 0.59765,-0.31641 0.59765,-0.58594 0,-0.28125 -0.23437,-0.375 -0.41015,-0.375 -0.1875,0 -0.60938,0.14062 -0.60938,0.72656 0,0.60938 0.51563,1.03125 1.19532,1.03125 1.19531,0 2.40234,-1.10156 2.74218,-2.42578 l 1.17188,-4.66406 c 0.0117,-0.0586 0.0351,-0.12891 0.0351,-0.19922 0,-0.17578 -0.15234,-0.30469 -0.32812,-0.30469 -0.10547,0 -0.36328,0.0469 -0.45703,0.41016 l -0.87891,3.51562 c -0.0586,0.21094 -0.0586,0.23438 -0.15234,0.375 -0.2461,0.32813 -0.64453,0.73828 -1.20703,0.73828 -0.67969,0 -0.73828,-0.65625 -0.73828,-0.98437 0,-0.67969 0.32812,-1.60547 0.64453,-2.46094 0.14062,-0.35156 0.21093,-0.51562 0.21093,-0.75 0,-0.5039 -0.36328,-0.96094 -0.94921,-0.96094 -1.10157,0 -1.53516,1.73438 -1.53516,1.82813 0,0.0469 0.0469,0.10547 0.12891,0.10547 0.10546,0 0.11718,-0.0469 0.16406,-0.21094 0.29297,-1.00781 0.73828,-1.47656 1.20703,-1.47656 0.10547,0 0.31641,0 0.31641,0.38672 0,0.3164 -0.14063,0.65625 -0.31641,1.11328 -0.58594,1.57031 -0.58594,1.95703 -0.58594,2.25 0,1.13672 0.8086,1.39453 1.40625,1.39453 0.35156,0 0.78516,-0.10547 1.19531,-0.55078 l 0.0117,0.0117 c -0.17578,0.70312 -0.29297,1.17187 -0.71484,1.75781 z m 0,0"
         style="fill:#000000;fill-opacity:1;fill-rule:nonzero;stroke:none" />
      <path
         id="path56"
         d="m 183.03336,177.77447 c 0,-0.91406 -0.12891,-2.39063 -0.79688,-3.77344 -0.70312,-1.4414 -1.67578,-2.21484 -1.8164,-2.21484 -0.0469,0 -0.10547,0.0234 -0.10547,0.0937 0,0.0351 0,0.0586 0.19922,0.26953 1.19531,1.20703 1.875,3.17578 1.875,5.61328 0,2.32031 -0.5625,4.3125 -1.95703,5.73047 -0.11719,0.10547 -0.11719,0.12891 -0.11719,0.16406 0,0.0703 0.0586,0.0937 0.10547,0.0937 0.16406,0 1.13672,-0.85547 1.72265,-2.02734 0.60938,-1.21875 0.89063,-2.51953 0.89063,-3.94922 z m 12.57715,-0.89063 c 0.16406,0 0.375,0 0.375,-0.22265 0,-0.22266 -0.19922,-0.22266 -0.375,-0.22266 h -7.04297 c -0.17578,0 -0.38672,0 -0.38672,0.21094 0,0.23437 0.19922,0.23437 0.38672,0.23437 z m 0,2.21485 c 0.16406,0 0.375,0 0.375,-0.21094 0,-0.23437 -0.19922,-0.23437 -0.375,-0.23437 h -7.04297 c -0.17578,0 -0.38672,0 -0.38672,0.22265 0,0.22266 0.19922,0.22266 0.38672,0.22266 z m 0,0"
         style="fill:#000000;fill-opacity:1;fill-rule:nonzero;stroke:none" />
      <path
         id="path57"
         d="m 205.2902,175.94634 c 0.23437,0 0.32812,0 0.32812,-0.22265 0,-0.12891 -0.0937,-0.12891 -0.30469,-0.12891 h -0.97265 c 0.23437,-1.23047 0.39843,-2.07422 0.49218,-2.46094 0.0703,-0.28125 0.32813,-0.5625 0.63282,-0.5625 0.25781,0 0.5039,0.10547 0.62109,0.22266 -0.46875,0.0469 -0.60937,0.38672 -0.60937,0.59766 0,0.23437 0.1875,0.375 0.41015,0.375 0.23438,0 0.59766,-0.19922 0.59766,-0.65625 0,-0.50391 -0.50391,-0.77344 -1.03125,-0.77344 -0.51563,0 -1.00781,0.38672 -1.25391,0.84375 -0.21094,0.42187 -0.32812,0.85547 -0.60937,2.41406 h -0.79688 c -0.23437,0 -0.35156,0 -0.35156,0.22266 0,0.1289 0.0703,0.1289 0.31641,0.1289 h 0.76171 c -0.21093,1.11329 -0.70312,3.8086 -0.98437,5.08594 -0.19922,1.04297 -0.375,1.92188 -0.97266,1.92188 -0.0351,0 -0.38672,0 -0.59765,-0.23438 0.60937,-0.0469 0.60937,-0.57422 0.60937,-0.58594 0,-0.23437 -0.1875,-0.375 -0.41015,-0.375 -0.23438,0 -0.59766,0.19922 -0.59766,0.65625 0,0.51563 0.52734,0.77344 0.99609,0.77344 1.21875,0 1.72266,-2.1914 1.85157,-2.78906 0.21093,-0.91406 0.79687,-4.08984 0.85546,-4.45313 z m 0,0"
         style="fill:#000000;fill-opacity:1;fill-rule:nonzero;stroke:none" />
      <path
         id="path58"
         d="m 210.89469,183.65728 c 0,-0.0351 0,-0.0586 -0.21094,-0.26953 -1.19531,-1.20703 -1.86328,-3.17578 -1.86328,-5.61328 0,-2.32031 0.5625,-4.3125 1.94531,-5.73047 0.12891,-0.10547 0.12891,-0.12891 0.12891,-0.16406 0,-0.0703 -0.0703,-0.0937 -0.11719,-0.0937 -0.15234,0 -1.13672,0.85547 -1.72266,2.02734 -0.60937,1.20703 -0.8789,2.4961 -0.8789,3.96094 0,1.06641 0.16406,2.48437 0.78515,3.76172 0.70313,1.4414 1.6875,2.21484 1.81641,2.21484 0.0469,0 0.11719,-0.0234 0.11719,-0.0937 z m 0,0"
         style="fill:#000000;fill-opacity:1;fill-rule:nonzero;stroke:none" />
      <path
         id="path59"
         d="m 217.21695,175.87603 c -0.375,0.0703 -0.51562,0.35156 -0.51562,0.58594 0,0.28125 0.22265,0.375 0.38672,0.375 0.36328,0 0.60937,-0.30469 0.60937,-0.63281 0,-0.49219 -0.57422,-0.72657 -1.07812,-0.72657 -0.72657,0 -1.125,0.71485 -1.24219,0.94922 -0.26953,-0.90234 -1.00781,-0.94922 -1.23047,-0.94922 -1.21875,0 -1.86328,1.57032 -1.86328,1.82813 0,0.0469 0.0469,0.10547 0.12891,0.10547 0.10546,0 0.1289,-0.0703 0.15234,-0.11719 0.39844,-1.32422 1.20703,-1.57031 1.54687,-1.57031 0.53907,0 0.64454,0.49219 0.64454,0.78515 0,0.25782 -0.0703,0.53907 -0.21094,1.11329 l -0.41016,1.6289 c -0.17578,0.72656 -0.52734,1.38281 -1.16015,1.38281 -0.0586,0 -0.35157,0 -0.60938,-0.15234 0.43359,-0.0937 0.52734,-0.44531 0.52734,-0.58594 0,-0.24609 -0.17578,-0.38672 -0.39843,-0.38672 -0.29297,0 -0.59766,0.2461 -0.59766,0.63282 0,0.5039 0.5625,0.72656 1.06641,0.72656 0.57422,0 0.98437,-0.45703 1.23047,-0.9375 0.19921,0.70312 0.79687,0.9375 1.23046,0.9375 1.23047,0 1.875,-1.55859 1.875,-1.82813 0,-0.0586 -0.0469,-0.10546 -0.1289,-0.10546 -0.10547,0 -0.11719,0.0586 -0.15235,0.15234 -0.3164,1.05469 -1.01953,1.54687 -1.54687,1.54687 -0.42188,0 -0.65625,-0.3164 -0.65625,-0.80859 0,-0.25781 0.0586,-0.44531 0.24609,-1.24219 l 0.42188,-1.61718 c 0.17578,-0.72657 0.58594,-1.24219 1.125,-1.24219 0.0351,0 0.36328,0 0.60937,0.15234 z m 4.13086,6.21094 c -0.3164,0.45703 -0.78515,0.86719 -1.37109,0.86719 -0.14063,0 -0.71485,-0.0234 -0.90235,-0.57422 0.0469,0.0117 0.10547,0.0117 0.12891,0.0117 0.35156,0 0.59766,-0.31641 0.59766,-0.58594 0,-0.28125 -0.23438,-0.375 -0.41016,-0.375 -0.1875,0 -0.60937,0.14062 -0.60937,0.72656 0,0.60938 0.51562,1.03125 1.19531,1.03125 1.19531,0 2.40234,-1.10156 2.74219,-2.42578 l 1.17187,-4.66406 c 0.0117,-0.0586 0.0352,-0.12891 0.0352,-0.19922 0,-0.17578 -0.15235,-0.30469 -0.32813,-0.30469 -0.10547,0 -0.36328,0.0469 -0.45703,0.41016 l -0.87891,3.51562 c -0.0586,0.21094 -0.0586,0.23438 -0.15234,0.375 -0.24609,0.32813 -0.64453,0.73828 -1.20703,0.73828 -0.67969,0 -0.73828,-0.65625 -0.73828,-0.98437 0,-0.67969 0.32812,-1.60547 0.64453,-2.46094 0.14062,-0.35156 0.21094,-0.51562 0.21094,-0.75 0,-0.5039 -0.36328,-0.96094 -0.94922,-0.96094 -1.10156,0 -1.53516,1.73438 -1.53516,1.82813 0,0.0469 0.0469,0.10547 0.12891,0.10547 0.10547,0 0.11719,-0.0469 0.16406,-0.21094 0.29297,-1.00781 0.73828,-1.47656 1.20703,-1.47656 0.10547,0 0.31641,0 0.31641,0.38672 0,0.3164 -0.14063,0.65625 -0.31641,1.11328 -0.58594,1.57031 -0.58594,1.95703 -0.58594,2.25 0,1.13672 0.8086,1.39453 1.40625,1.39453 0.35157,0 0.78516,-0.10547 1.19532,-0.55078 l 0.0117,0.0117 c -0.17579,0.70312 -0.29297,1.17187 -0.71485,1.75781 z m 0,0"
         style="fill:#000000;fill-opacity:1;fill-rule:nonzero;stroke:none" />
      <path
         id="path60"
         d="m 227.71988,177.77447 c 0,-0.91406 -0.1289,-2.39063 -0.79687,-3.77344 -0.70313,-1.4414 -1.67578,-2.21484 -1.81641,-2.21484 -0.0469,0 -0.10547,0.0234 -0.10547,0.0937 0,0.0351 0,0.0586 0.19922,0.26953 1.19531,1.20703 1.875,3.17578 1.875,5.61328 0,2.32031 -0.5625,4.3125 -1.95703,5.73047 -0.11719,0.10547 -0.11719,0.12891 -0.11719,0.16406 0,0.0703 0.0586,0.0937 0.10547,0.0937 0.16406,0 1.13672,-0.85547 1.72266,-2.02734 0.60937,-1.21875 0.89062,-2.51953 0.89062,-3.94922 z m 8.60157,0.21094 h 3.30468 c 0.16407,0 0.375,0 0.375,-0.21094 0,-0.22266 -0.19922,-0.22266 -0.375,-0.22266 h -3.30468 v -3.30468 c 0,-0.16407 0,-0.38672 -0.21094,-0.38672 -0.23438,0 -0.23438,0.21093 -0.23438,0.38672 v 3.30468 h -3.29297 c -0.17578,0 -0.38671,0 -0.38671,0.21094 0,0.22266 0.19921,0.22266 0.38671,0.22266 h 3.29297 v 3.30468 c 0,0.16407 0,0.38672 0.22266,0.38672 0.22266,0 0.22266,-0.21093 0.22266,-0.38672 z m 0,0"
         style="fill:#000000;fill-opacity:1;fill-rule:nonzero;stroke:none" />
      <path
         id="path61"
         d="m 248.97477,175.87603 c -0.375,0.0703 -0.51563,0.35156 -0.51563,0.58594 0,0.28125 0.22266,0.375 0.38672,0.375 0.36328,0 0.60937,-0.30469 0.60937,-0.63281 0,-0.49219 -0.57421,-0.72657 -1.07812,-0.72657 -0.72656,0 -1.125,0.71485 -1.24219,0.94922 -0.26953,-0.90234 -1.00781,-0.94922 -1.23047,-0.94922 -1.21875,0 -1.86328,1.57032 -1.86328,1.82813 0,0.0469 0.0469,0.10547 0.12891,0.10547 0.10547,0 0.1289,-0.0703 0.15234,-0.11719 0.39844,-1.32422 1.20703,-1.57031 1.54688,-1.57031 0.53906,0 0.64453,0.49219 0.64453,0.78515 0,0.25782 -0.0703,0.53907 -0.21094,1.11329 l -0.41016,1.6289 c -0.17578,0.72656 -0.52734,1.38281 -1.16015,1.38281 -0.0586,0 -0.35156,0 -0.60938,-0.15234 0.4336,-0.0937 0.52735,-0.44531 0.52735,-0.58594 0,-0.24609 -0.17578,-0.38672 -0.39844,-0.38672 -0.29297,0 -0.59766,0.2461 -0.59766,0.63282 0,0.5039 0.5625,0.72656 1.06641,0.72656 0.57422,0 0.98437,-0.45703 1.23047,-0.9375 0.19922,0.70312 0.79687,0.9375 1.23047,0.9375 1.23047,0 1.875,-1.55859 1.875,-1.82813 0,-0.0586 -0.0469,-0.10546 -0.12891,-0.10546 -0.10547,0 -0.11719,0.0586 -0.15234,0.15234 -0.31641,1.05469 -1.01953,1.54687 -1.54688,1.54687 -0.42187,0 -0.65625,-0.3164 -0.65625,-0.80859 0,-0.25781 0.0586,-0.44531 0.2461,-1.24219 l 0.42187,-1.61718 c 0.17578,-0.72657 0.58594,-1.24219 1.125,-1.24219 0.0352,0 0.36328,0 0.60938,0.15234 z m 0,0"
         style="fill:#000000;fill-opacity:1;fill-rule:nonzero;stroke:none" />
      <path
         id="path62"
         d="m 252.21793,174.1856 c 0.12891,-0.11719 0.45703,-0.375 0.58594,-0.49219 0.49218,-0.45703 0.96093,-0.89062 0.96093,-1.61718 0,-0.94922 -0.79687,-1.5586 -1.79296,-1.5586 -0.94922,0 -1.58204,0.72657 -1.58204,1.42969 0,0.39844 0.31641,0.44531 0.42188,0.44531 0.16406,0 0.41016,-0.11718 0.41016,-0.42187 0,-0.41016 -0.39844,-0.41016 -0.49219,-0.41016 0.23437,-0.58594 0.77344,-0.78515 1.16015,-0.78515 0.73829,0 1.125,0.63281 1.125,1.30078 0,0.83203 -0.58593,1.42968 -1.52343,2.40234 l -1.00782,1.03125 c -0.0937,0.0937 -0.0937,0.10547 -0.0937,0.30469 h 3.15235 l 0.22265,-1.42969 h -0.24609 c -0.0234,0.16406 -0.082,0.5625 -0.17578,0.71484 -0.0469,0.0586 -0.65625,0.0586 -0.78516,0.0586 h -1.41797 z m 0,0"
         style="fill:#000000;fill-opacity:1;fill-rule:nonzero;stroke:none" />
      <path
         id="path63"
         d="m 262.12613,177.98541 h 3.30469 c 0.16406,0 0.375,0 0.375,-0.21094 0,-0.22266 -0.19922,-0.22266 -0.375,-0.22266 h -3.30469 v -3.30468 c 0,-0.16407 0,-0.38672 -0.21093,-0.38672 -0.23438,0 -0.23438,0.21093 -0.23438,0.38672 v 3.30468 h -3.29297 c -0.17578,0 -0.38672,0 -0.38672,0.21094 0,0.22266 0.19922,0.22266 0.38672,0.22266 h 3.29297 v 3.30468 c 0,0.16407 0,0.38672 0.22266,0.38672 0.22265,0 0.22265,-0.21093 0.22265,-0.38672 z m 0,0"
         style="fill:#000000;fill-opacity:1;fill-rule:nonzero;stroke:none" />
      <path
         id="path64"
         d="m 272.25992,182.08697 c -0.3164,0.45703 -0.78515,0.86719 -1.37109,0.86719 -0.14063,0 -0.71485,-0.0234 -0.90235,-0.57422 0.0469,0.0117 0.10547,0.0117 0.12891,0.0117 0.35156,0 0.59766,-0.31641 0.59766,-0.58594 0,-0.28125 -0.23438,-0.375 -0.41016,-0.375 -0.1875,0 -0.60937,0.14062 -0.60937,0.72656 0,0.60938 0.51562,1.03125 1.19531,1.03125 1.19531,0 2.40234,-1.10156 2.74219,-2.42578 l 1.17187,-4.66406 c 0.0117,-0.0586 0.0352,-0.12891 0.0352,-0.19922 0,-0.17578 -0.15235,-0.30469 -0.32813,-0.30469 -0.10547,0 -0.36328,0.0469 -0.45703,0.41016 l -0.87891,3.51562 c -0.0586,0.21094 -0.0586,0.23438 -0.15234,0.375 -0.24609,0.32813 -0.64453,0.73828 -1.20703,0.73828 -0.67969,0 -0.73828,-0.65625 -0.73828,-0.98437 0,-0.67969 0.32812,-1.60547 0.64453,-2.46094 0.14062,-0.35156 0.21094,-0.51562 0.21094,-0.75 0,-0.5039 -0.36328,-0.96094 -0.94922,-0.96094 -1.10156,0 -1.53516,1.73438 -1.53516,1.82813 0,0.0469 0.0469,0.10547 0.12891,0.10547 0.10547,0 0.11719,-0.0469 0.16406,-0.21094 0.29297,-1.00781 0.73828,-1.47656 1.20703,-1.47656 0.10547,0 0.31641,0 0.31641,0.38672 0,0.3164 -0.14063,0.65625 -0.31641,1.11328 -0.58594,1.57031 -0.58594,1.95703 -0.58594,2.25 0,1.13672 0.8086,1.39453 1.40625,1.39453 0.35157,0 0.78516,-0.10547 1.19532,-0.55078 l 0.0117,0.0117 c -0.17579,0.70312 -0.29297,1.17187 -0.71485,1.75781 z m 0,0"
         style="fill:#000000;fill-opacity:1;fill-rule:nonzero;stroke:none" />
      <path
         id="path65"
         d="m 277.50406,174.1856 c 0.12891,-0.11719 0.45703,-0.375 0.58594,-0.49219 0.49219,-0.45703 0.96094,-0.89062 0.96094,-1.61718 0,-0.94922 -0.79688,-1.5586 -1.79297,-1.5586 -0.94922,0 -1.58203,0.72657 -1.58203,1.42969 0,0.39844 0.3164,0.44531 0.42187,0.44531 0.16407,0 0.41016,-0.11718 0.41016,-0.42187 0,-0.41016 -0.39844,-0.41016 -0.49219,-0.41016 0.23438,-0.58594 0.77344,-0.78515 1.16016,-0.78515 0.73828,0 1.125,0.63281 1.125,1.30078 0,0.83203 -0.58594,1.42968 -1.52344,2.40234 l -1.00781,1.03125 c -0.0937,0.0937 -0.0937,0.10547 -0.0937,0.30469 h 3.15234 l 0.22266,-1.42969 h -0.2461 c -0.0234,0.16406 -0.082,0.5625 -0.17578,0.71484 -0.0469,0.0586 -0.65625,0.0586 -0.78515,0.0586 h -1.41797 z m 0,0"
         style="fill:#000000;fill-opacity:1;fill-rule:nonzero;stroke:none" />
      <path
         id="path66"
         d="m 147.19156,202.27838 c -0.375,0.0703 -0.51562,0.35156 -0.51562,0.58593 0,0.28125 0.22265,0.375 0.38672,0.375 0.36328,0 0.60937,-0.30468 0.60937,-0.63281 0,-0.49219 -0.57422,-0.72656 -1.07812,-0.72656 -0.72657,0 -1.125,0.71484 -1.24219,0.94922 -0.26953,-0.90235 -1.00781,-0.94922 -1.23047,-0.94922 -1.21875,0 -1.86328,1.57031 -1.86328,1.82812 0,0.0469 0.0469,0.10547 0.1289,0.10547 0.10547,0 0.12891,-0.0703 0.15235,-0.11719 0.39844,-1.32421 1.20703,-1.57031 1.54687,-1.57031 0.53907,0 0.64453,0.49219 0.64453,0.78516 0,0.25781 -0.0703,0.53906 -0.21093,1.11328 l -0.41016,1.62891 c -0.17578,0.72656 -0.52734,1.38281 -1.16016,1.38281 -0.0586,0 -0.35156,0 -0.60937,-0.15235 0.43359,-0.0937 0.52734,-0.44531 0.52734,-0.58593 0,-0.2461 -0.17578,-0.38672 -0.39843,-0.38672 -0.29297,0 -0.59766,0.24609 -0.59766,0.63281 0,0.50391 0.5625,0.72656 1.06641,0.72656 0.57421,0 0.98437,-0.45703 1.23046,-0.9375 0.19922,0.70313 0.79688,0.9375 1.23047,0.9375 1.23047,0 1.875,-1.55859 1.875,-1.82812 0,-0.0586 -0.0469,-0.10547 -0.1289,-0.10547 -0.10547,0 -0.11719,0.0586 -0.15235,0.15234 -0.3164,1.05469 -1.01953,1.54688 -1.54687,1.54688 -0.42188,0 -0.65625,-0.31641 -0.65625,-0.8086 0,-0.25781 0.0586,-0.44531 0.24609,-1.24218 l 0.42188,-1.61719 c 0.17578,-0.72656 0.58593,-1.24219 1.125,-1.24219 0.0352,0 0.36328,0 0.60937,0.15235 z m 0,0"
         style="fill:#000000;fill-opacity:1;fill-rule:nonzero;stroke:none" />
      <path
         id="path67"
         d="m 158.47672,208.48931 c -0.31641,0.45703 -0.78516,0.86719 -1.3711,0.86719 -0.14062,0 -0.71484,-0.0234 -0.90234,-0.57422 0.0469,0.0117 0.10547,0.0117 0.12891,0.0117 0.35156,0 0.59765,-0.31641 0.59765,-0.58594 0,-0.28125 -0.23437,-0.375 -0.41015,-0.375 -0.1875,0 -0.60938,0.14063 -0.60938,0.72657 0,0.60937 0.51563,1.03125 1.19531,1.03125 1.19532,0 2.40235,-1.10157 2.74219,-2.42579 l 1.17188,-4.66406 c 0.0117,-0.0586 0.0352,-0.1289 0.0352,-0.19922 0,-0.17578 -0.15234,-0.30468 -0.32812,-0.30468 -0.10547,0 -0.36328,0.0469 -0.45703,0.41015 l -0.87891,3.51563 c -0.0586,0.21093 -0.0586,0.23437 -0.15234,0.375 -0.2461,0.32812 -0.64453,0.73828 -1.20703,0.73828 -0.67969,0 -0.73829,-0.65625 -0.73829,-0.98438 0,-0.67968 0.32813,-1.60547 0.64454,-2.46093 0.14062,-0.35157 0.21093,-0.51563 0.21093,-0.75 0,-0.50391 -0.36328,-0.96094 -0.94922,-0.96094 -1.10156,0 -1.53515,1.73437 -1.53515,1.82812 0,0.0469 0.0469,0.10547 0.1289,0.10547 0.10547,0 0.11719,-0.0469 0.16407,-0.21094 0.29297,-1.00781 0.73828,-1.47656 1.20703,-1.47656 0.10547,0 0.3164,0 0.3164,0.38672 0,0.31641 -0.14062,0.65625 -0.3164,1.11328 -0.58594,1.57031 -0.58594,1.95703 -0.58594,2.25 0,1.13672 0.80859,1.39453 1.40625,1.39453 0.35156,0 0.78516,-0.10547 1.19531,-0.55078 l 0.0117,0.0117 c -0.17578,0.70313 -0.29297,1.17188 -0.71484,1.75781 z m 0,0"
         style="fill:#000000;fill-opacity:1;fill-rule:nonzero;stroke:none" />
    </g>
  </g>
</svg>
