<?xml version="1.0" encoding="UTF-8" standalone="no"?>
<!-- Created with Inkscape (http://www.inkscape.org/) -->

<svg
   version="1.1"
   id="svg1"
   width="793.76001"
   height="1122.5601"
   viewBox="0 0 793.76001 1122.5601"
   sodipodi:docname="F2_M_PP_M2024_page31.pdf"
   xmlns:inkscape="http://www.inkscape.org/namespaces/inkscape"
   xmlns:sodipodi="http://sodipodi.sourceforge.net/DTD/sodipodi-0.dtd"
   xmlns="http://www.w3.org/2000/svg"
   xmlns:svg="http://www.w3.org/2000/svg">
  <defs
     id="defs1">
    <clipPath
       clipPathUnits="userSpaceOnUse"
       id="clipPath4">
      <path
         d="M 8.871e-6,0 H 595.32001 V 841.92 H 8.871e-6 Z"
         transform="matrix(1,0,0,-1,-70.824002,712.90002)"
         clip-rule="evenodd"
         id="path4" />
    </clipPath>
    <clipPath
       clipPathUnits="userSpaceOnUse"
       id="clipPath5">
      <path
         d="M 8.871e-6,0 H 595.32001 V 841.92 H 8.871e-6 Z"
         transform="matrix(1,0,0,-1,-70.824002,645.46001)"
         clip-rule="evenodd"
         id="path5" />
    </clipPath>
    <clipPath
       clipPathUnits="userSpaceOnUse"
       id="clipPath6">
      <path
         d="M 8.871e-6,0 H 595.32001 V 841.92 H 8.871e-6 Z"
         transform="matrix(1,0,0,-1,-243.29001,645.46001)"
         clip-rule="evenodd"
         id="path6" />
    </clipPath>
    <clipPath
       clipPathUnits="userSpaceOnUse"
       id="clipPath7">
      <path
         d="M 8.871e-6,0 H 595.32001 V 841.92 H 8.871e-6 Z"
         transform="matrix(1,0,0,-1,-70.824002,591.10001)"
         clip-rule="evenodd"
         id="path7" />
    </clipPath>
    <clipPath
       clipPathUnits="userSpaceOnUse"
       id="clipPath8">
      <path
         d="M 8.871e-6,0 H 595.32001 V 841.92 H 8.871e-6 Z"
         transform="matrix(1,0,0,-1,-247.85001,591.10001)"
         clip-rule="evenodd"
         id="path8" />
    </clipPath>
    <clipPath
       clipPathUnits="userSpaceOnUse"
       id="clipPath9">
      <path
         d="M 8.871e-6,0 H 595.32001 V 841.92 H 8.871e-6 Z"
         transform="matrix(1,0,0,-1,-70.824002,467.59001)"
         clip-rule="evenodd"
         id="path9" />
    </clipPath>
    <clipPath
       clipPathUnits="userSpaceOnUse"
       id="clipPath10">
      <path
         d="M 8.871e-6,0 H 595.32001 V 841.92 H 8.871e-6 Z"
         transform="matrix(1,0,0,-1,-70.824002,400.15001)"
         clip-rule="evenodd"
         id="path10" />
    </clipPath>
    <clipPath
       clipPathUnits="userSpaceOnUse"
       id="clipPath11">
      <path
         d="M 8.871e-6,0 H 595.32001 V 841.92 H 8.871e-6 Z"
         transform="matrix(1,0,0,-1,-243.29001,400.15001)"
         clip-rule="evenodd"
         id="path11" />
    </clipPath>
    <clipPath
       clipPathUnits="userSpaceOnUse"
       id="clipPath12">
      <path
         d="M 8.871e-6,0 H 595.32001 V 841.92 H 8.871e-6 Z"
         transform="matrix(1,0,0,-1,-70.824002,345.77001)"
         clip-rule="evenodd"
         id="path12" />
    </clipPath>
    <clipPath
       clipPathUnits="userSpaceOnUse"
       id="clipPath13">
      <path
         d="M 8.871e-6,0 H 595.32001 V 841.92 H 8.871e-6 Z"
         transform="matrix(1,0,0,-1,-247.85001,345.77001)"
         clip-rule="evenodd"
         id="path13" />
    </clipPath>
    <clipPath
       clipPathUnits="userSpaceOnUse"
       id="clipPath14">
      <path
         d="M 8.871e-6,0 H 595.32001 V 841.92 H 8.871e-6 Z"
         transform="matrix(1,0,0,-1,-70.824002,222.29001)"
         clip-rule="evenodd"
         id="path14" />
    </clipPath>
    <clipPath
       clipPathUnits="userSpaceOnUse"
       id="clipPath15">
      <path
         d="M 8.871e-6,0 H 595.32001 V 841.92 H 8.871e-6 Z"
         transform="matrix(1,0,0,-1,-70.824002,154.82001)"
         clip-rule="evenodd"
         id="path15" />
    </clipPath>
    <clipPath
       clipPathUnits="userSpaceOnUse"
       id="clipPath16">
      <path
         d="M 8.871e-6,0 H 595.32001 V 841.92 H 8.871e-6 Z"
         transform="matrix(1,0,0,-1,-243.29001,154.82001)"
         clip-rule="evenodd"
         id="path16" />
    </clipPath>
    <clipPath
       clipPathUnits="userSpaceOnUse"
       id="clipPath17">
      <path
         d="M 8.871e-6,0 H 595.32001 V 841.92 H 8.871e-6 Z"
         transform="matrix(1,0,0,-1,-70.824002,100.46001)"
         clip-rule="evenodd"
         id="path17" />
    </clipPath>
    <clipPath
       clipPathUnits="userSpaceOnUse"
       id="clipPath18">
      <path
         d="M 8.871e-6,0 H 595.32001 V 841.92 H 8.871e-6 Z"
         transform="matrix(1,0,0,-1,-247.85001,100.46001)"
         clip-rule="evenodd"
         id="path18" />
    </clipPath>
  </defs>
  <sodipodi:namedview
     id="namedview1"
     pagecolor="#ffffff"
     bordercolor="#000000"
     borderopacity="0.25"
     inkscape:showpageshadow="2"
     inkscape:pageopacity="0.0"
     inkscape:pagecheckerboard="0"
     inkscape:deskcolor="#d1d1d1">
    <inkscape:page
       x="0"
       y="0"
       inkscape:label="1"
       id="page1"
       width="793.76001"
       height="1122.5601"
       margin="0"
       bleed="0" />
  </sodipodi:namedview>
  <g
     id="g1"
     inkscape:groupmode="layer"
     inkscape:label="1">
    <g
       id="g2" />
    <g
       id="g3" />
    <g
       id="g4">
      <text
         id="text4"
         xml:space="preserve"
         transform="matrix(1.3333333,0,0,1.3333333,94.432,172.02667)"
         clip-path="url(#clipPath4)"><tspan
           style="font-variant:normal;font-weight:700;font-size:62.04px;font-family:Arial;writing-mode:lr-tb;fill:#ffe49f;fill-opacity:1;fill-rule:nonzero;stroke:none"
           x="0 51.679321 96.472198 134.37865 175.75932 227.43864 272.23151 310.13797 351.51865 396.1254"
           y="0"
           sodipodi:role="line"
           id="tspan4">MATEMATYKA</tspan></text>
    </g>
    <g
       id="g5">
      <text
         id="text5"
         xml:space="preserve"
         transform="matrix(1.3333333,0,0,1.3333333,94.432,261.94667)"
         clip-path="url(#clipPath5)"><tspan
           style="font-variant:normal;font-weight:700;font-size:45px;font-family:Arial;writing-mode:lr-tb;fill:#ffe49f;fill-opacity:1;fill-rule:nonzero;stroke:none"
           x="0 30.014999 57.509998 80.010002 92.519997 120.015 160.02"
           y="0"
           sodipodi:role="line"
           id="tspan5">Poziom </tspan></text>
      <text
         id="text6"
         xml:space="preserve"
         transform="matrix(1.3333333,0,0,1.3333333,324.38667,261.94667)"
         clip-path="url(#clipPath6)"><tspan
           style="font-variant:normal;font-weight:700;font-size:45px;font-family:Arial;writing-mode:lr-tb;fill:#ffe49f;fill-opacity:1;fill-rule:nonzero;stroke:none"
           x="0 27.495001 54.990002 82.485001 107.595 122.58 147.60001 182.61 210.105 245.11501"
           y="0"
           sodipodi:role="line"
           id="tspan6">podstawowy</tspan></text>
    </g>
    <g
       id="g6">
      <text
         id="text7"
         xml:space="preserve"
         transform="matrix(1.3333333,0,0,1.3333333,94.432,334.42667)"
         clip-path="url(#clipPath7)"><tspan
           style="font-style:italic;font-variant:normal;font-weight:normal;font-size:35.04px;font-family:Arial;writing-mode:lr-tb;fill:#ffe49f;fill-opacity:1;fill-rule:nonzero;stroke:none"
           x="0 21.409439 40.891682 52.45488 81.643204 101.12544 108.90432 128.38657 138.12769 157.60992"
           y="0"
           sodipodi:role="line"
           id="tspan7">Formuła 20</tspan></text>
      <text
         id="text8"
         xml:space="preserve"
         transform="matrix(1.3333333,0,0,1.3333333,330.46667,334.42667)"
         clip-path="url(#clipPath8)"><tspan
           style="font-style:italic;font-variant:normal;font-weight:normal;font-size:35.04px;font-family:Arial;writing-mode:lr-tb;fill:#ffe49f;fill-opacity:1;fill-rule:nonzero;stroke:none"
           x="0 19.440041"
           y="0"
           sodipodi:role="line"
           id="tspan8">15</tspan></text>
    </g>
    <g
       id="g8" />
    <g
       id="g9">
      <text
         id="text9"
         xml:space="preserve"
         transform="matrix(1.3333333,0,0,1.3333333,94.432,499.10667)"
         clip-path="url(#clipPath9)"><tspan
           style="font-variant:normal;font-weight:700;font-size:62.04px;font-family:Arial;writing-mode:lr-tb;fill:#ffe49f;fill-opacity:1;fill-rule:nonzero;stroke:none"
           x="0 51.679321 96.472198 134.37865 175.75932 227.43864 272.23151 310.13797 351.51865 396.1254"
           y="0"
           sodipodi:role="line"
           id="tspan9">MATEMATYKA</tspan></text>
    </g>
    <g
       id="g10">
      <text
         id="text10"
         xml:space="preserve"
         transform="matrix(1.3333333,0,0,1.3333333,94.432,589.02667)"
         clip-path="url(#clipPath10)"><tspan
           style="font-variant:normal;font-weight:700;font-size:45px;font-family:Arial;writing-mode:lr-tb;fill:#ffe49f;fill-opacity:1;fill-rule:nonzero;stroke:none"
           x="0 30.014999 57.509998 80.010002 92.519997 120.015 160.02"
           y="0"
           sodipodi:role="line"
           id="tspan10">Poziom </tspan></text>
      <text
         id="text11"
         xml:space="preserve"
         transform="matrix(1.3333333,0,0,1.3333333,324.38667,589.02667)"
         clip-path="url(#clipPath11)"><tspan
           style="font-variant:normal;font-weight:700;font-size:45px;font-family:Arial;writing-mode:lr-tb;fill:#ffe49f;fill-opacity:1;fill-rule:nonzero;stroke:none"
           x="0 27.495001 54.990002 82.485001 107.595 122.58 147.60001 182.61 210.105 245.11501"
           y="0"
           sodipodi:role="line"
           id="tspan11">podstawowy</tspan></text>
    </g>
    <g
       id="g11">
      <text
         id="text12"
         xml:space="preserve"
         transform="matrix(1.3333333,0,0,1.3333333,94.432,661.53333)"
         clip-path="url(#clipPath12)"><tspan
           style="font-style:italic;font-variant:normal;font-weight:normal;font-size:35.04px;font-family:Arial;writing-mode:lr-tb;fill:#ffe49f;fill-opacity:1;fill-rule:nonzero;stroke:none"
           x="0 21.409439 40.891682 52.45488 81.643204 101.12544 108.90432 128.38657 138.12769 157.60992"
           y="0"
           sodipodi:role="line"
           id="tspan12">Formuła 20</tspan></text>
      <text
         id="text13"
         xml:space="preserve"
         transform="matrix(1.3333333,0,0,1.3333333,330.46667,661.53333)"
         clip-path="url(#clipPath13)"><tspan
           style="font-style:italic;font-variant:normal;font-weight:normal;font-size:35.04px;font-family:Arial;writing-mode:lr-tb;fill:#ffe49f;fill-opacity:1;fill-rule:nonzero;stroke:none"
           x="0 19.440041"
           y="0"
           sodipodi:role="line"
           id="tspan13">15</tspan></text>
    </g>
    <g
       id="g13" />
    <g
       id="g14">
      <text
         id="text14"
         xml:space="preserve"
         transform="matrix(1.3333333,0,0,1.3333333,94.432,826.17333)"
         clip-path="url(#clipPath14)"><tspan
           style="font-variant:normal;font-weight:700;font-size:62.04px;font-family:Arial;writing-mode:lr-tb;fill:#ffe49f;fill-opacity:1;fill-rule:nonzero;stroke:none"
           x="0 51.679321 96.472198 134.37865 175.75932 227.43864 272.23151 310.13797 351.51865 396.1254"
           y="0"
           sodipodi:role="line"
           id="tspan14">MATEMATYKA</tspan></text>
    </g>
    <g
       id="g15">
      <text
         id="text15"
         xml:space="preserve"
         transform="matrix(1.3333333,0,0,1.3333333,94.432,916.13333)"
         clip-path="url(#clipPath15)"><tspan
           style="font-variant:normal;font-weight:700;font-size:45px;font-family:Arial;writing-mode:lr-tb;fill:#ffe49f;fill-opacity:1;fill-rule:nonzero;stroke:none"
           x="0 30.014999 57.509998 80.010002 92.519997 120.015 160.02"
           y="0"
           sodipodi:role="line"
           id="tspan15">Poziom </tspan></text>
      <text
         id="text16"
         xml:space="preserve"
         transform="matrix(1.3333333,0,0,1.3333333,324.38667,916.13333)"
         clip-path="url(#clipPath16)"><tspan
           style="font-variant:normal;font-weight:700;font-size:45px;font-family:Arial;writing-mode:lr-tb;fill:#ffe49f;fill-opacity:1;fill-rule:nonzero;stroke:none"
           x="0 27.495001 54.990002 82.485001 107.595 122.58 147.60001 182.61 210.105 245.11501"
           y="0"
           sodipodi:role="line"
           id="tspan16">podstawowy</tspan></text>
    </g>
    <g
       id="g16">
      <text
         id="text17"
         xml:space="preserve"
         transform="matrix(1.3333333,0,0,1.3333333,94.432,988.61333)"
         clip-path="url(#clipPath17)"><tspan
           style="font-style:italic;font-variant:normal;font-weight:normal;font-size:35.04px;font-family:Arial;writing-mode:lr-tb;fill:#ffe49f;fill-opacity:1;fill-rule:nonzero;stroke:none"
           x="0 21.409439 40.891682 52.45488 81.643204 101.12544 108.90432 128.38657 138.12769 157.60992"
           y="0"
           sodipodi:role="line"
           id="tspan17">Formuła 20</tspan></text>
      <text
         id="text18"
         xml:space="preserve"
         transform="matrix(1.3333333,0,0,1.3333333,330.46667,988.61333)"
         clip-path="url(#clipPath18)"><tspan
           style="font-style:italic;font-variant:normal;font-weight:normal;font-size:35.04px;font-family:Arial;writing-mode:lr-tb;fill:#ffe49f;fill-opacity:1;fill-rule:nonzero;stroke:none"
           x="0 19.440041"
           y="0"
           sodipodi:role="line"
           id="tspan18">15</tspan></text>
    </g>
    <g
       id="g18" />
  </g>
</svg>
