<?xml version="1.0" encoding="UTF-8" standalone="no"?>
<!-- Created with Inkscape (http://www.inkscape.org/) -->

<svg
   version="1.1"
   id="svg1"
   width="794.55066"
   height="1123.6533"
   viewBox="0 0 794.55066 1123.6533"
   sodipodi:docname="LigaMatematycznaMatuskiego_Gim_Zestaw5_2017_2018_page0.pdf"
   xmlns:inkscape="http://www.inkscape.org/namespaces/inkscape"
   xmlns:sodipodi="http://sodipodi.sourceforge.net/DTD/sodipodi-0.dtd"
   xmlns="http://www.w3.org/2000/svg"
   xmlns:svg="http://www.w3.org/2000/svg">
  <defs
     id="defs1" />
  <sodipodi:namedview
     id="namedview1"
     pagecolor="#ffffff"
     bordercolor="#000000"
     borderopacity="0.25"
     inkscape:showpageshadow="2"
     inkscape:pageopacity="0.0"
     inkscape:pagecheckerboard="0"
     inkscape:deskcolor="#d1d1d1">
    <inkscape:page
       x="0"
       y="0"
       inkscape:label="1"
       id="page1"
       width="794.55066"
       height="1123.6533"
       margin="0"
       bleed="0" />
  </sodipodi:namedview>
  <g
     id="g1"
     inkscape:groupmode="layer"
     inkscape:label="1">
    <g
       id="g2"
       aria-label="LIGAMATEMATYCZNA&#10;im.ZdzisªawaMatuskiego&#10;FINA&#10;24kwietnia2017&#10;GIMNAZJUM&#10;ZADANIE1.&#10;Nastolepoªo»onopojednympatyczkuodªugo±ci2,4,6,8,9,10,30,40,50i60.Adam&#10;zbudowaªramk¦wybieraj¡ctrzypatyczkitak,abyobwódtrójk¡tabyªjaknajmniejszy.Zpo-&#10;zostaªychpatykówBartekwybraªtrzy,zktórychmo»nazbudowa¢trójk¡tonajwi¦kszymob-&#10;wodzie.Ostatnimiczteremapatykamizainteresowaªsi¦Czarek,wybraªtrzyizbudowaªznich&#10;trójk¡tn¡ramk¦.Którypatykpozostaªnastole?&#10;ZADANIE2.&#10;WrombieABCDpunktyMiN,ró»neodpunktówA,BiC,le»¡naodcinkachodpowiednio&#10;AB,BCtak,»etrójk¡tDMNjestrównobocznyoraz|AD|=|MD|.Wyznaczmiar¦k¡ta&#10;^ABC.&#10;ZADANIE3.&#10;Sumaliczbytrzycyfrowejiliczbyotrzymanejznapisaniacyfrpoprzedniejliczbywodwrotnej&#10;kolejno±cijestrówna444.Ró»nic¡tychliczbjest198.Wyznaczliczb¦trzycyfrow¡wiedz¡c,»e&#10;sumajejcyfrjestrówna6.&#10;ZADANIE4.&#10;Czysuma2017ró»nychliczbpierwszychmo»eby¢liczb¡parzyst¡?Czyiloczyn2017ró»nych&#10;liczbpierwszychmo»eby¢liczb¡parzyst¡?Odpowied¹uzasadnij.&#10;ZADANIE5.&#10;Rozwa»myliczbytrzycyfrowezaczynaj¡ceiko«cz¡cesi¦t¡sam¡cyfr¡.Wyka»,»eje»elisuma&#10;pierwszejidrugiejcyfrytakiejliczbyjestpodzielnaprzez7,tosamaliczbate»dzielisi¦przez7."
       transform="matrix(1.3333333,0,0,1.3333333,274.724,56.069333)">
      <path
         id="path2"
         d="m 125.4863,125.74292 h -0.26953 c -0.0352,0.19922 -0.12891,0.85547 -0.2461,1.04297 -0.082,0.11719 -0.76172,0.11719 -1.125,0.11719 h -2.21484 c 0.32812,-0.28125 1.05469,-1.04297 1.37109,-1.33594 1.81641,-1.66406 2.48438,-2.28516 2.48438,-3.46875 0,-1.38281 -1.08985,-2.29687 -2.47266,-2.29687 -1.39453,0 -2.20312,1.18359 -2.20312,2.20312 0,0.60938 0.52734,0.60938 0.5625,0.60938 0.24609,0 0.5625,-0.17579 0.5625,-0.5625 0,-0.32813 -0.23438,-0.55079 -0.5625,-0.55079 -0.10547,0 -0.12891,0 -0.16407,0.0117 0.22266,-0.82031 0.86719,-1.37109 1.64063,-1.37109 1.01953,0 1.64062,0.85547 1.64062,1.95703 0,1.00781 -0.58593,1.89844 -1.26562,2.66016 l -2.41406,2.70703 v 0.28125 h 4.35937 z m 0,0"
         style="fill:#000000;fill-opacity:1;fill-rule:nonzero;stroke:none" />
      <path
         id="path3"
         d="m 139.07126,119.96558 c 0,-0.22266 0,-0.29297 -0.16406,-0.29297 -0.0937,0 -0.12891,0 -0.22266,0.15234 l -3.59766,5.57813 v 0.35156 h 3.14063 v 1.07813 c 0,0.44531 -0.0234,0.5625 -0.90235,0.5625 h -0.23437 v 0.35156 c 0.26953,-0.0234 1.21875,-0.0234 1.55859,-0.0234 0.32813,0 1.28907,0 1.5586,0.0234 v -0.35156 h -0.23438 c -0.86719,0 -0.90234,-0.11719 -0.90234,-0.5625 v -1.07813 h 1.20703 v -0.35156 h -1.20703 z m -0.78516,0.9375 v 4.5 h -2.90625 z m 0,0"
         style="fill:#000000;fill-opacity:1;fill-rule:nonzero;stroke:none" />
      <path
         id="path4"
         d="m 150.76071,123.58667 c 0,-3.02344 1.47656,-3.5039 2.12109,-3.5039 0.4336,0 0.85547,0.1289 1.08985,0.49218 -0.14063,0 -0.59766,0 -0.59766,0.49219 0,0.25781 0.17578,0.49219 0.49219,0.49219 0.29297,0 0.49219,-0.1875 0.49219,-0.52735 0,-0.62109 -0.44532,-1.23046 -1.48828,-1.23046 -1.51172,0 -3.08204,1.53515 -3.08204,4.17187 0,3.28125 1.42969,4.01953 2.44922,4.01953 1.30078,0 2.41407,-1.125 2.41407,-2.68359 0,-1.59375 -1.11329,-2.66016 -2.3086,-2.66016 -1.0664,0 -1.45312,0.92578 -1.58203,1.26563 z m 1.47656,4.08985 c -0.75,0 -1.11328,-0.66797 -1.21875,-0.92579 -0.10547,-0.30468 -0.22265,-0.89062 -0.22265,-1.73437 0,-0.9375 0.42187,-2.12109 1.5,-2.12109 0.65625,0 1.00781,0.44531 1.18359,0.84375 0.1875,0.44531 0.1875,1.04296 0.1875,1.55859 0,0.60937 0,1.14844 -0.22266,1.60547 -0.30468,0.57422 -0.72656,0.77344 -1.20703,0.77344 z m 0,0"
         style="fill:#000000;fill-opacity:1;fill-rule:nonzero;stroke:none" />
      <path
         id="path5"
         d="m 167.39548,123.43433 c 0.59765,-0.32813 1.46484,-0.87891 1.46484,-1.875 0,-1.04297 -0.99609,-1.75781 -2.09766,-1.75781 -1.18359,0 -2.12109,0.86718 -2.12109,1.95703 0,0.41015 0.12891,0.80859 0.45703,1.21875 0.12891,0.15234 0.14063,0.16406 0.98438,0.75 -1.16016,0.53906 -1.75782,1.34765 -1.75782,2.21484 0,1.26563 1.20704,2.05078 2.42579,2.05078 1.32421,0 2.4375,-0.97265 2.4375,-2.22656 0,-1.21875 -0.85547,-1.75781 -1.79297,-2.33203 z m -1.62891,-1.07813 c -0.15234,-0.10547 -0.63281,-0.42187 -0.63281,-1.00781 0,-0.77344 0.82031,-1.26562 1.61719,-1.26562 0.85546,0 1.6289,0.62109 1.6289,1.48828 0,0.72656 -0.52734,1.3125 -1.21875,1.6875 z m 0.5625,1.54688 1.45313,0.9375 c 0.30468,0.19922 0.85546,0.57422 0.85546,1.30078 0,0.91406 -0.91406,1.53516 -1.875,1.53516 -1.01953,0 -1.88671,-0.73829 -1.88671,-1.73438 0,-0.9375 0.67968,-1.6875 1.45312,-2.03906 z m 0,0"
         style="fill:#000000;fill-opacity:1;fill-rule:nonzero;stroke:none" />
      <path
         id="path6"
         d="m 182.74118,124.26636 c 0,2.82422 -1.25391,3.41016 -1.96875,3.41016 -0.28125,0 -0.92578,-0.0352 -1.21875,-0.45704 h 0.0703 c 0.082,0.0234 0.51563,-0.0469 0.51563,-0.49218 0,-0.25782 -0.17578,-0.49219 -0.49219,-0.49219 -0.30469,0 -0.50391,0.21094 -0.50391,0.51562 0,0.75 0.59766,1.24219 1.64063,1.24219 1.5,0 2.9414,-1.58203 2.9414,-4.18359 0,-3.21094 -1.33593,-4.00781 -2.39062,-4.00781 -1.3125,0 -2.47266,1.10156 -2.47266,2.67187 0,1.58203 1.11328,2.66016 2.3086,2.66016 0.8789,0 1.33593,-0.64453 1.57031,-1.25391 z m -1.52344,0.62109 c -0.75,0 -1.07812,-0.60937 -1.18359,-0.83203 -0.19922,-0.45703 -0.19922,-1.03125 -0.19922,-1.57031 0,-0.66797 0,-1.24219 0.31641,-1.73438 0.21093,-0.3164 0.53906,-0.66796 1.18359,-0.66796 0.67969,0 1.03125,0.59765 1.14844,0.8789 0.23437,0.58594 0.23437,1.59375 0.23437,1.78125 0,0.9961 -0.44531,2.14453 -1.5,2.14453 z m 0,0"
         style="fill:#000000;fill-opacity:1;fill-rule:nonzero;stroke:none" />
      <path
         id="path7"
         d="m 196.35251,120.08277 c 0,-0.26954 0,-0.28125 -0.2461,-0.28125 -0.28125,0.3164 -0.8789,0.76171 -2.10937,0.76171 v 0.35157 c 0.26953,0 0.86719,0 1.52344,-0.31641 v 6.22266 c 0,0.43359 -0.0352,0.57422 -1.07813,0.57422 h -0.375 v 0.35156 c 0.31641,-0.0234 1.47656,-0.0234 1.875,-0.0234 0.39844,0 1.54688,0 1.86328,0.0234 v -0.35156 h -0.36328 c -1.05469,0 -1.08984,-0.14063 -1.08984,-0.57422 z m 7.76367,3.84375 c 0,-0.9961 -0.0586,-1.96875 -0.49219,-2.8711 -0.49219,-0.99609 -1.34765,-1.2539 -1.93359,-1.2539 -0.69141,0 -1.54688,0.33984 -1.98047,1.33593 -0.33984,0.75 -0.45703,1.48828 -0.45703,2.78907 0,1.16015 0.082,2.02734 0.51562,2.87109 0.45703,0.91406 1.28907,1.19531 1.91016,1.19531 1.04297,0 1.64062,-0.62109 1.98047,-1.3125 0.43359,-0.89062 0.45703,-2.0625 0.45703,-2.7539 z m -2.4375,3.83203 c -0.38672,0 -1.16016,-0.21094 -1.38281,-1.52344 -0.14063,-0.71484 -0.14063,-1.61719 -0.14063,-2.46094 0,-0.97265 0,-1.86328 0.19922,-2.5664 0.19922,-0.79688 0.80859,-1.17188 1.32422,-1.17188 0.45703,0 1.14844,0.28125 1.37109,1.30078 0.15235,0.67969 0.15235,1.62891 0.15235,2.4375 0,0.8086 0,1.71094 -0.12891,2.4375 -0.22266,1.32422 -0.97266,1.54688 -1.39453,1.54688 z m 0,0"
         style="fill:#000000;fill-opacity:1;fill-rule:nonzero;stroke:none" />
      <path
         id="path8"
         d="m 215.49802,123.45777 c -0.21094,0.0117 -0.25782,0.0234 -0.25782,0.1289 0,0.11719 0.0586,0.11719 0.28125,0.11719 h 0.55078 c 1.00782,0 1.46485,0.84375 1.46485,1.99219 0,1.55859 -0.8086,1.98047 -1.39453,1.98047 -0.57422,0 -1.5586,-0.28125 -1.89844,-1.06641 0.375,0.0586 0.72656,-0.15234 0.72656,-0.58594 0,-0.33984 -0.25781,-0.58594 -0.58594,-0.58594 -0.29296,0 -0.59765,0.16407 -0.59765,0.6211 0,1.0664 1.0664,1.93359 2.39062,1.93359 1.41797,0 2.47266,-1.07812 2.47266,-2.28515 0,-1.10157 -0.89063,-1.96875 -2.02734,-2.16797 1.03125,-0.30469 1.69921,-1.17188 1.69921,-2.10938 0,-0.9375 -0.97265,-1.6289 -2.13281,-1.6289 -1.19531,0 -2.08594,0.72656 -2.08594,1.59375 0,0.48046 0.375,0.57421 0.55079,0.57421 0.25781,0 0.53906,-0.17578 0.53906,-0.53906 0,-0.375 -0.28125,-0.53906 -0.55078,-0.53906 -0.0703,0 -0.0937,0 -0.12891,0.0117 0.45703,-0.82031 1.58203,-0.82031 1.64063,-0.82031 0.38671,0 1.17187,0.17578 1.17187,1.34765 0,0.23438 -0.0352,0.90235 -0.38672,1.41797 -0.35156,0.52734 -0.76172,0.5625 -1.08984,0.57422 z m 9.00586,0.46875 c 0,-0.9961 -0.0586,-1.96875 -0.49219,-2.8711 -0.49219,-0.99609 -1.34766,-1.2539 -1.9336,-1.2539 -0.6914,0 -1.54687,0.33984 -1.98046,1.33593 -0.33985,0.75 -0.45704,1.48828 -0.45704,2.78907 0,1.16015 0.082,2.02734 0.51563,2.87109 0.45703,0.91406 1.28906,1.19531 1.91016,1.19531 1.04296,0 1.64062,-0.62109 1.98046,-1.3125 0.4336,-0.89062 0.45704,-2.0625 0.45704,-2.7539 z m -2.4375,3.83203 c -0.38672,0 -1.16016,-0.21094 -1.38282,-1.52344 -0.14062,-0.71484 -0.14062,-1.61719 -0.14062,-2.46094 0,-0.97265 0,-1.86328 0.19922,-2.5664 0.19922,-0.79688 0.80859,-1.17188 1.32422,-1.17188 0.45703,0 1.14843,0.28125 1.37109,1.30078 0.15234,0.67969 0.15234,1.62891 0.15234,2.4375 0,0.8086 0,1.71094 -0.1289,2.4375 -0.22266,1.32422 -0.97266,1.54688 -1.39453,1.54688 z m 0,0"
         style="fill:#000000;fill-opacity:1;fill-rule:nonzero;stroke:none" />
      <path
         id="path9"
         d="m 237.99802,119.96558 c 0,-0.22266 0,-0.29297 -0.16407,-0.29297 -0.0937,0 -0.1289,0 -0.22265,0.15234 l -3.59766,5.57813 v 0.35156 h 3.14063 v 1.07813 c 0,0.44531 -0.0234,0.5625 -0.90235,0.5625 h -0.23437 v 0.35156 c 0.26953,-0.0234 1.21875,-0.0234 1.55859,-0.0234 0.32813,0 1.28906,0 1.55859,0.0234 v -0.35156 h -0.23437 c -0.86719,0 -0.90234,-0.11719 -0.90234,-0.5625 v -1.07813 h 1.20703 v -0.35156 h -1.20703 z m -0.78516,0.9375 v 4.5 h -2.90625 z m 7.68164,3.02344 c 0,-0.9961 -0.0586,-1.96875 -0.49219,-2.8711 -0.49218,-0.99609 -1.34765,-1.2539 -1.93359,-1.2539 -0.69141,0 -1.54688,0.33984 -1.98047,1.33593 -0.33984,0.75 -0.45703,1.48828 -0.45703,2.78907 0,1.16015 0.082,2.02734 0.51562,2.87109 0.45704,0.91406 1.28907,1.19531 1.91016,1.19531 1.04297,0 1.64063,-0.62109 1.98047,-1.3125 0.43359,-0.89062 0.45703,-2.0625 0.45703,-2.7539 z m -2.4375,3.83203 c -0.38672,0 -1.16016,-0.21094 -1.38281,-1.52344 -0.14063,-0.71484 -0.14063,-1.61719 -0.14063,-2.46094 0,-0.97265 0,-1.86328 0.19922,-2.5664 0.19922,-0.79688 0.8086,-1.17188 1.32422,-1.17188 0.45703,0 1.14844,0.28125 1.37109,1.30078 0.15235,0.67969 0.15235,1.62891 0.15235,2.4375 0,0.8086 0,1.71094 -0.12891,2.4375 -0.22265,1.32422 -0.97265,1.54688 -1.39453,1.54688 z m 0,0"
         style="fill:#000000;fill-opacity:1;fill-rule:nonzero;stroke:none" />
      <path
         id="path10"
         d="m 255.6113,120.90308 c 0.5039,0.16406 0.92578,0.17578 1.05468,0.17578 1.35938,0 2.21485,-0.99609 2.21485,-1.16016 0,-0.0469 -0.0234,-0.10547 -0.0937,-0.10547 -0.0234,0 -0.0469,0 -0.15235,0.0469 -0.66796,0.28125 -1.24218,0.31641 -1.55859,0.31641 -0.78516,0 -1.34766,-0.23438 -1.58203,-0.32813 -0.082,-0.0352 -0.10547,-0.0352 -0.11719,-0.0352 -0.0937,0 -0.0937,0.0703 -0.0937,0.25782 v 3.55078 c 0,0.21094 0,0.29297 0.14063,0.29297 0.0586,0 0.0703,-0.0117 0.19922,-0.16407 0.32812,-0.49218 0.89062,-0.77343 1.48828,-0.77343 0.63281,0 0.94922,0.58593 1.04297,0.78515 0.19921,0.46875 0.21093,1.05469 0.21093,1.51172 0,0.45703 0,1.13672 -0.32812,1.67578 -0.26953,0.42188 -0.73828,0.72657 -1.25391,0.72657 -0.79687,0 -1.57031,-0.53907 -1.78125,-1.40625 0.0586,0.0234 0.12891,0.0352 0.1875,0.0352 0.19922,0 0.52735,-0.1289 0.52735,-0.52734 0,-0.33985 -0.23438,-0.52735 -0.52735,-0.52735 -0.21094,0 -0.52734,0.10547 -0.52734,0.57422 0,1.00782 0.80859,2.16797 2.14453,2.16797 1.34766,0 2.53125,-1.125 2.53125,-2.64844 0,-1.41796 -0.96094,-2.60156 -2.21484,-2.60156 -0.67969,0 -1.20704,0.29297 -1.51172,0.63281 z m 9.67383,3.02344 c 0,-0.9961 -0.0586,-1.96875 -0.49219,-2.8711 -0.49219,-0.99609 -1.34766,-1.2539 -1.9336,-1.2539 -0.6914,0 -1.54687,0.33984 -1.98046,1.33593 -0.33985,0.75 -0.45704,1.48828 -0.45704,2.78907 0,1.16015 0.082,2.02734 0.51563,2.87109 0.45703,0.91406 1.28906,1.19531 1.91016,1.19531 1.04296,0 1.64062,-0.62109 1.98046,-1.3125 0.4336,-0.89062 0.45704,-2.0625 0.45704,-2.7539 z m -2.4375,3.83203 c -0.38672,0 -1.16016,-0.21094 -1.38282,-1.52344 -0.14062,-0.71484 -0.14062,-1.61719 -0.14062,-2.46094 0,-0.97265 0,-1.86328 0.19922,-2.5664 0.19922,-0.79688 0.80859,-1.17188 1.32422,-1.17188 0.45703,0 1.14843,0.28125 1.37109,1.30078 0.15234,0.67969 0.15234,1.62891 0.15234,2.4375 0,0.8086 0,1.71094 -0.1289,2.4375 -0.22266,1.32422 -0.97266,1.54688 -1.39453,1.54688 z m 0,0"
         style="fill:#000000;fill-opacity:1;fill-rule:nonzero;stroke:none" />
      <path
         id="path11"
         d="m 280.75095,123.58667 c 0,-3.02344 1.47656,-3.5039 2.12109,-3.5039 0.43359,0 0.85547,0.1289 1.08984,0.49218 -0.14062,0 -0.59765,0 -0.59765,0.49219 0,0.25781 0.17578,0.49219 0.49218,0.49219 0.29297,0 0.49219,-0.1875 0.49219,-0.52735 0,-0.62109 -0.44531,-1.23046 -1.48828,-1.23046 -1.51172,0 -3.08203,1.53515 -3.08203,4.17187 0,3.28125 1.42969,4.01953 2.44922,4.01953 1.30078,0 2.41406,-1.125 2.41406,-2.68359 0,-1.59375 -1.11328,-2.66016 -2.30859,-2.66016 -1.06641,0 -1.45313,0.92578 -1.58203,1.26563 z m 1.47656,4.08985 c -0.75,0 -1.11328,-0.66797 -1.21875,-0.92579 -0.10547,-0.30468 -0.22266,-0.89062 -0.22266,-1.73437 0,-0.9375 0.42188,-2.12109 1.5,-2.12109 0.65625,0 1.00781,0.44531 1.1836,0.84375 0.1875,0.44531 0.1875,1.04296 0.1875,1.55859 0,0.60937 0,1.14844 -0.22266,1.60547 -0.30469,0.57422 -0.72656,0.77344 -1.20703,0.77344 z m 8.26758,-3.75 c 0,-0.9961 -0.0586,-1.96875 -0.49219,-2.8711 -0.49219,-0.99609 -1.34766,-1.2539 -1.9336,-1.2539 -0.6914,0 -1.54687,0.33984 -1.98046,1.33593 -0.33985,0.75 -0.45704,1.48828 -0.45704,2.78907 0,1.16015 0.082,2.02734 0.51563,2.87109 0.45703,0.91406 1.28906,1.19531 1.91016,1.19531 1.04296,0 1.64062,-0.62109 1.98046,-1.3125 0.4336,-0.89062 0.45704,-2.0625 0.45704,-2.7539 z m -2.4375,3.83203 c -0.38672,0 -1.16016,-0.21094 -1.38282,-1.52344 -0.14062,-0.71484 -0.14062,-1.61719 -0.14062,-2.46094 0,-0.97265 0,-1.86328 0.19922,-2.5664 0.19922,-0.79688 0.80859,-1.17188 1.32422,-1.17188 0.45703,0 1.14843,0.28125 1.37109,1.30078 0.15234,0.67969 0.15234,1.62891 0.15234,2.4375 0,0.8086 0,1.71094 -0.1289,2.4375 -0.22266,1.32422 -0.97266,1.54688 -1.39453,1.54688 z m 0,0"
         style="fill:#000000;fill-opacity:1;fill-rule:nonzero;stroke:none" />
      <path
         id="path12"
         d="m -91.861359,227.27124 c -0.410157,0.70313 -0.820313,0.9375 -1.394532,0.97266 -0.128906,0.0117 -0.222656,0.0117 -0.222656,0.23437 0,0.0703 0.05859,0.11719 0.140625,0.11719 0.210938,0 0.75,-0.0234 0.972656,-0.0234 0.339844,0 0.726563,0.0234 1.054688,0.0234 0.07031,0 0.222656,0 0.222656,-0.22266 0,-0.11718 -0.09375,-0.1289 -0.175781,-0.1289 -0.269531,-0.0234 -0.492188,-0.11719 -0.492188,-0.39844 0,-0.17578 0.07031,-0.30469 0.222657,-0.5625 l 0.902343,-1.51172 h 3.058594 c 0.01172,0.10547 0.01172,0.21094 0.02344,0.31641 0.03516,0.30469 0.175781,1.54687 0.175781,1.78125 0,0.35156 -0.609375,0.375 -0.796875,0.375 -0.140625,0 -0.269531,0 -0.269531,0.22265 0,0.12891 0.105468,0.12891 0.175781,0.12891 0.210937,0 0.445312,-0.0234 0.65625,-0.0234 h 0.679687 c 0.726563,0 1.253907,0.0234 1.265625,0.0234 0.08203,0 0.210938,0 0.210938,-0.22266 0,-0.1289 -0.105469,-0.1289 -0.28125,-0.1289 -0.65625,0 -0.667969,-0.10547 -0.714844,-0.45703 l -0.726562,-7.46485 c -0.02344,-0.23437 -0.07031,-0.25781 -0.199219,-0.25781 -0.117188,0 -0.1875,0.0234 -0.304688,0.19922 z m 1.441406,-1.83984 2.402344,-4.01953 0.410156,4.01953 z m 9.676758,-4.1836 c 0.117187,-0.44531 0.164062,-0.46875 0.621093,-0.46875 h 1.558594 c 1.347656,0 1.347656,1.14844 1.347656,1.25391 0,0.97266 -0.960937,2.20313 -2.542968,2.20313 h -1.722657 z m 2.027343,3.08204 c 1.300782,-0.2461 2.484375,-1.14844 2.484375,-2.25 0,-0.92579 -0.832031,-1.65235 -2.179687,-1.65235 h -3.832031 c -0.234375,0 -0.339844,0 -0.339844,0.23438 0,0.11718 0.105469,0.11718 0.292969,0.11718 0.726562,0 0.726562,0.0937 0.726562,0.22266 0,0.0234 0,0.0937 -0.04687,0.28125 l -1.617187,6.43359 c -0.105469,0.41016 -0.128907,0.52735 -0.960938,0.52735 -0.234375,0 -0.351562,0 -0.351562,0.22265 0,0.12891 0.07031,0.12891 0.304687,0.12891 h 4.101563 c 1.828125,0 3.246093,-1.38281 3.246093,-2.58984 0,-0.98438 -0.867187,-1.58203 -1.828125,-1.67578 z m -1.699218,3.91406 h -1.617188 c -0.164062,0 -0.1875,0 -0.257812,-0.0117 -0.128907,-0.0117 -0.152344,-0.0352 -0.152344,-0.12891 0,-0.082 0.03516,-0.15234 0.05859,-0.25781 l 0.832031,-3.375 h 2.25 c 1.40625,0 1.40625,1.3125 1.40625,1.40625 0,1.14844 -1.042969,2.36719 -2.519531,2.36719 z m 13.722656,-7.95703 c 0,-0.10547 -0.08203,-0.10547 -0.105469,-0.10547 -0.02344,0 -0.07031,0 -0.175781,0.11719 l -0.820313,1.00781 c -0.421875,-0.71485 -1.078125,-1.125 -1.96875,-1.125 -2.589843,0 -5.261718,2.61328 -5.261718,5.42578 0,1.99219 1.394531,3.23437 3.140625,3.23437 0.960937,0 1.792968,-0.39843 2.484375,-0.98437 1.042968,-0.87891 1.359375,-2.03906 1.359375,-2.13281 0,-0.10547 -0.09375,-0.10547 -0.140625,-0.10547 -0.105469,0 -0.117188,0.0703 -0.140625,0.11719 -0.550782,1.86328 -2.15625,2.76562 -3.351563,2.76562 -1.277344,0 -2.367187,-0.82031 -2.367187,-2.50781 0,-0.38672 0.117187,-2.46094 1.464843,-4.03125 0.65625,-0.76172 1.78125,-1.44141 2.917969,-1.44141 1.3125,0 1.898438,1.08985 1.898438,2.3086 0,0.3164 -0.03516,0.57421 -0.03516,0.62109 0,0.11719 0.117188,0.11719 0.152344,0.11719 0.140625,0 0.152344,-0.0117 0.199219,-0.23438 z m 2.182617,7.42968 c -0.105469,0.41016 -0.128906,0.52735 -0.960937,0.52735 -0.234375,0 -0.351563,0 -0.351563,0.22265 0,0.12891 0.07031,0.12891 0.304688,0.12891 h 3.796875 c 2.414062,0 4.769531,-2.49609 4.769531,-5.16797 0,-1.72265 -1.03125,-3 -2.742188,-3 h -3.832031 c -0.234375,0 -0.339844,0 -0.339844,0.23438 0,0.11718 0.105469,0.11718 0.292969,0.11718 0.726563,0 0.726563,0.0937 0.726563,0.22266 0,0.0234 0,0.0937 -0.04687,0.28125 z m 2.519531,-6.46875 c 0.117188,-0.44531 0.164063,-0.46875 0.621094,-0.46875 h 1.324219 c 1.113281,0 2.144531,0.60938 2.144531,2.26172 0,0.59766 -0.234375,2.67188 -1.394531,3.98438 -0.339844,0.39844 -1.242188,1.21875 -2.625,1.21875 h -1.359375 c -0.164063,0 -0.1875,0 -0.257813,-0.0117 -0.128906,-0.0117 -0.140625,-0.0352 -0.140625,-0.12891 0,-0.082 0.02344,-0.15234 0.04687,-0.25781 z m 0,0"
         style="fill:#000000;fill-opacity:1;fill-rule:nonzero;stroke:none" />
      <path
         id="path13"
         d="m -1.8818672,221.3064 c 0.1054688,-0.41016 0.1289063,-0.52735 0.98437501,-0.52735 0.22265625,0 0.328125,0 0.328125,-0.22265 0,-0.12891 -0.0820313,-0.12891 -0.3046875,-0.12891 H -2.3154609 c -0.2929688,0 -0.3046875,0.0117 -0.4335938,0.21094 l -4.3710937,6.89062 -0.890625,-6.83203 c -0.035156,-0.26953 -0.046875,-0.26953 -0.3632813,-0.26953 h -1.4765625 c -0.2343748,0 -0.3398438,0 -0.3398438,0.23438 0,0.11718 0.105469,0.11718 0.2929688,0.11718 0.7265625,0 0.7265625,0.0937 0.7265625,0.22266 0,0.0234 0,0.0937 -0.046875,0.28125 l -1.5351563,6.09375 c -0.140625,0.57422 -0.410156,0.83203 -1.21875,0.86719 -0.03516,0 -0.175781,0.0117 -0.175781,0.22265 0,0.12891 0.105469,0.12891 0.152344,0.12891 0.246093,0 0.855468,-0.0234 1.089843,-0.0234 h 0.574219 c 0.164063,0 0.3750001,0.0234 0.5390626,0.0234 0.082031,0 0.2109375,0 0.2109375,-0.22266 0,-0.11718 -0.1171875,-0.1289 -0.1640625,-0.1289 -0.3984376,-0.0117 -0.7734376,-0.082 -0.7734376,-0.50391 0,-0.1289 0,-0.14062 0.04687,-0.30469 l 1.6523438,-6.58593 h 0.011719 l 0.984375,7.41797 c 0.035156,0.29296 0.046875,0.32812 0.1523437,0.32812 0.140625,0 0.1992188,-0.0937 0.2578125,-0.19922 l 4.8046875,-7.60547 h 0.011719 l -1.734375,6.92578 c -0.1054688,0.41016 -0.1289063,0.52735 -0.9726563,0.52735 -0.2226562,0 -0.3398437,0 -0.3398437,0.22265 0,0.12891 0.1054687,0.12891 0.1757812,0.12891 0.2109375,0 0.4453125,-0.0234 0.6445313,-0.0234 h 1.4179687 c 0.1992188,0 0.4453125,0.0234 0.65625,0.0234 0.09375,0 0.2226563,0 0.2226563,-0.22266 0,-0.1289 -0.1054688,-0.1289 -0.28125,-0.1289 -0.7382813,0 -0.7382813,-0.0937 -0.7382813,-0.21094 0,-0.0117 0,-0.0937 0.023437,-0.1875 z m 0,0"
         style="fill:#000000;fill-opacity:1;fill-rule:nonzero;stroke:none" />
      <path
         id="path14"
         d="m 19.457977,221.6814 c 0.128906,-0.50391 0.316406,-0.86719 1.230468,-0.90235 0.03516,0 0.175782,-0.0117 0.175782,-0.21093 0,-0.14063 -0.105469,-0.14063 -0.152344,-0.14063 -0.234375,0 -0.855469,0.0234 -1.089844,0.0234 H 19.04782 c -0.164062,0 -0.386718,-0.0234 -0.550781,-0.0234 -0.07031,0 -0.210937,0 -0.210937,0.23438 0,0.11718 0.09375,0.11718 0.175781,0.11718 0.714844,0.0234 0.761719,0.29297 0.761719,0.51563 0,0.10547 -0.01172,0.14062 -0.04687,0.30469 l -1.347657,5.39062 -2.554687,-6.35156 c -0.08203,-0.19922 -0.09375,-0.21094 -0.363281,-0.21094 h -1.453125 c -0.246094,0 -0.351563,0 -0.351563,0.23438 0,0.11718 0.08203,0.11718 0.316406,0.11718 0.05859,0 0.761719,0 0.761719,0.10547 0,0.0234 -0.02344,0.11719 -0.03516,0.15235 l -1.59375,6.33984 c -0.140625,0.58594 -0.421875,0.83203 -1.21875,0.86719 -0.05859,0 -0.175781,0.0117 -0.175781,0.23437 0,0.11719 0.117187,0.11719 0.152343,0.11719 0.246094,0 0.855469,-0.0234 1.089844,-0.0234 h 0.574219 c 0.164062,0 0.375,0.0234 0.539062,0.0234 0.08203,0 0.210938,0 0.210938,-0.22266 0,-0.11718 -0.117188,-0.1289 -0.164063,-0.1289 -0.398437,-0.0117 -0.773437,-0.082 -0.773437,-0.50391 0,-0.10547 0.02344,-0.21094 0.04687,-0.30469 l 1.605469,-6.39843 c 0.08203,0.1289 0.08203,0.15234 0.128906,0.25781 l 2.835937,7.08984 c 0.05859,0.14063 0.09375,0.21094 0.199219,0.21094 0.117188,0 0.128906,-0.0352 0.175781,-0.23437 z m 0,0"
         style="fill:#000000;fill-opacity:1;fill-rule:nonzero;stroke:none" />
      <path
         id="path15"
         d="m 125.77634,227.27124 c -0.41016,0.70313 -0.82032,0.9375 -1.39454,0.97266 -0.1289,0.0117 -0.22265,0.0117 -0.22265,0.23437 0,0.0703 0.0586,0.11719 0.14062,0.11719 0.21094,0 0.75,-0.0234 0.97266,-0.0234 0.33984,0 0.72656,0.0234 1.05469,0.0234 0.0703,0 0.22265,0 0.22265,-0.22266 0,-0.11718 -0.0937,-0.1289 -0.17578,-0.1289 -0.26953,-0.0234 -0.49219,-0.11719 -0.49219,-0.39844 0,-0.17578 0.0703,-0.30469 0.22266,-0.5625 l 0.90234,-1.51172 h 3.0586 c 0.0117,0.10547 0.0117,0.21094 0.0234,0.31641 0.0351,0.30469 0.17578,1.54687 0.17578,1.78125 0,0.35156 -0.60938,0.375 -0.79688,0.375 -0.14062,0 -0.26953,0 -0.26953,0.22265 0,0.12891 0.10547,0.12891 0.17578,0.12891 0.21094,0 0.44531,-0.0234 0.65625,-0.0234 h 0.67969 c 0.72656,0 1.25391,0.0234 1.26562,0.0234 0.082,0 0.21094,0 0.21094,-0.22266 0,-0.1289 -0.10547,-0.1289 -0.28125,-0.1289 -0.65625,0 -0.66797,-0.10547 -0.71484,-0.45703 l -0.72656,-7.46485 c -0.0234,-0.23437 -0.0703,-0.25781 -0.19922,-0.25781 -0.11719,0 -0.1875,0.0234 -0.30469,0.19922 z m 1.4414,-1.83984 2.40235,-4.01953 0.41015,4.01953 z m 0,0"
         style="fill:#000000;fill-opacity:1;fill-rule:nonzero;stroke:none" />
      <path
         id="path16"
         d="m 143.93454,221.2478 c 0.11719,-0.44531 0.16406,-0.46875 0.62109,-0.46875 h 1.5586 c 1.34765,0 1.34765,1.14844 1.34765,1.25391 0,0.97266 -0.96093,2.20313 -2.54297,2.20313 h -1.72265 z m 2.02734,3.08204 c 1.30078,-0.2461 2.48438,-1.14844 2.48438,-2.25 0,-0.92579 -0.83203,-1.65235 -2.17969,-1.65235 h -3.83203 c -0.23438,0 -0.33984,0 -0.33984,0.23438 0,0.11718 0.10546,0.11718 0.29296,0.11718 0.72657,0 0.72657,0.0937 0.72657,0.22266 0,0.0234 0,0.0937 -0.0469,0.28125 l -1.61719,6.43359 c -0.10546,0.41016 -0.1289,0.52735 -0.96093,0.52735 -0.23438,0 -0.35157,0 -0.35157,0.22265 0,0.12891 0.0703,0.12891 0.30469,0.12891 h 4.10156 c 1.82813,0 3.2461,-1.38281 3.2461,-2.58984 0,-0.98438 -0.86719,-1.58203 -1.82813,-1.67578 z m -1.69922,3.91406 h -1.61718 c -0.16407,0 -0.1875,0 -0.25782,-0.0117 -0.1289,-0.0117 -0.15234,-0.0352 -0.15234,-0.12891 0,-0.082 0.0352,-0.15234 0.0586,-0.25781 l 0.83204,-3.375 h 2.25 c 1.40625,0 1.40625,1.3125 1.40625,1.40625 0,1.14844 -1.04297,2.36719 -2.51954,2.36719 z m 0,0"
         style="fill:#000000;fill-opacity:1;fill-rule:nonzero;stroke:none" />
      <path
         id="path17"
         d="m 168.76071,220.28687 c 0,-0.10547 -0.082,-0.10547 -0.10547,-0.10547 -0.0234,0 -0.0703,0 -0.17578,0.11719 l -0.82031,1.00781 c -0.42188,-0.71485 -1.07813,-1.125 -1.96875,-1.125 -2.58985,0 -5.26172,2.61328 -5.26172,5.42578 0,1.99219 1.39453,3.23437 3.14062,3.23437 0.96094,0 1.79297,-0.39843 2.48438,-0.98437 1.04297,-0.87891 1.35937,-2.03906 1.35937,-2.13281 0,-0.10547 -0.0937,-0.10547 -0.14062,-0.10547 -0.10547,0 -0.11719,0.0703 -0.14063,0.11719 -0.55078,1.86328 -2.15625,2.76562 -3.35156,2.76562 -1.27734,0 -2.36719,-0.82031 -2.36719,-2.50781 0,-0.38672 0.11719,-2.46094 1.46485,-4.03125 0.65625,-0.76172 1.78125,-1.44141 2.91797,-1.44141 1.3125,0 1.89843,1.08985 1.89843,2.3086 0,0.3164 -0.0351,0.57421 -0.0351,0.62109 0,0.11719 0.11719,0.11719 0.15234,0.11719 0.14063,0 0.15235,-0.0117 0.19922,-0.23438 z m 0,0"
         style="fill:#000000;fill-opacity:1;fill-rule:nonzero;stroke:none" />
      <path
         id="path18"
         d="m -146.18948,241.71753 c -0.41016,0.70313 -0.82032,0.9375 -1.39454,0.97266 -0.1289,0.0117 -0.22265,0.0117 -0.22265,0.23437 0,0.0703 0.0586,0.11719 0.14062,0.11719 0.21094,0 0.75,-0.0234 0.97266,-0.0234 0.33984,0 0.72656,0.0234 1.05469,0.0234 0.0703,0 0.22265,0 0.22265,-0.22266 0,-0.11718 -0.0937,-0.1289 -0.17578,-0.1289 -0.26953,-0.0234 -0.49219,-0.11719 -0.49219,-0.39844 0,-0.17578 0.0703,-0.30469 0.22266,-0.5625 l 0.90234,-1.51172 h 3.0586 c 0.0117,0.10547 0.0117,0.21094 0.0234,0.31641 0.0352,0.30469 0.17578,1.54687 0.17578,1.78125 0,0.35156 -0.60938,0.375 -0.79688,0.375 -0.14062,0 -0.26953,0 -0.26953,0.22265 0,0.12891 0.10547,0.12891 0.17578,0.12891 0.21094,0 0.44531,-0.0234 0.65625,-0.0234 h 0.67969 c 0.72656,0 1.25391,0.0234 1.26562,0.0234 0.082,0 0.21094,0 0.21094,-0.22266 0,-0.1289 -0.10547,-0.1289 -0.28125,-0.1289 -0.65625,0 -0.66797,-0.10547 -0.71484,-0.45703 l -0.72656,-7.46485 c -0.0234,-0.23437 -0.0703,-0.25781 -0.19922,-0.25781 -0.11719,0 -0.1875,0.0234 -0.30469,0.19922 z m 1.4414,-1.83984 2.40235,-4.01953 0.41015,4.01953 z m 9.67969,-4.1836 c 0.11719,-0.44531 0.16406,-0.46875 0.62109,-0.46875 h 1.5586 c 1.34765,0 1.34765,1.14844 1.34765,1.25391 0,0.97266 -0.96093,2.20313 -2.54297,2.20313 h -1.72265 z m 2.02734,3.08204 c 1.30078,-0.2461 2.48438,-1.14844 2.48438,-2.25 0,-0.92579 -0.83203,-1.65235 -2.17969,-1.65235 h -3.83203 c -0.23438,0 -0.33984,0 -0.33984,0.23438 0,0.11718 0.10546,0.11718 0.29296,0.11718 0.72657,0 0.72657,0.0937 0.72657,0.22266 0,0.0234 0,0.0937 -0.0469,0.28125 l -1.61719,6.43359 c -0.10546,0.41016 -0.1289,0.52735 -0.96093,0.52735 -0.23438,0 -0.35157,0 -0.35157,0.22265 0,0.12891 0.0703,0.12891 0.30469,0.12891 h 4.10156 c 1.82813,0 3.2461,-1.38281 3.2461,-2.58984 0,-0.98438 -0.86719,-1.58203 -1.82813,-1.67578 z m -1.69922,3.91406 h -1.61718 c -0.16407,0 -0.1875,0 -0.25782,-0.0117 -0.1289,-0.0117 -0.15234,-0.0352 -0.15234,-0.12891 0,-0.082 0.0352,-0.15234 0.0586,-0.25781 l 0.83204,-3.375 h 2.25 c 1.40625,0 1.40625,1.3125 1.40625,1.40625 0,1.14844 -1.04297,2.36719 -2.51954,2.36719 z m 0,0"
         style="fill:#000000;fill-opacity:1;fill-rule:nonzero;stroke:none" />
      <path
         id="path19"
         d="m -117.05374,235.69409 c 0.11719,-0.44531 0.16406,-0.46875 0.62109,-0.46875 h 1.5586 c 1.34765,0 1.34765,1.14844 1.34765,1.25391 0,0.97266 -0.96094,2.20313 -2.54297,2.20313 h -1.72265 z m 2.02734,3.08204 c 1.30078,-0.2461 2.48438,-1.14844 2.48438,-2.25 0,-0.92579 -0.83203,-1.65235 -2.17969,-1.65235 h -3.83203 c -0.23438,0 -0.33985,0 -0.33985,0.23438 0,0.11718 0.10547,0.11718 0.29297,0.11718 0.72657,0 0.72657,0.0937 0.72657,0.22266 0,0.0234 0,0.0937 -0.0469,0.28125 l -1.61719,6.43359 c -0.10547,0.41016 -0.1289,0.52735 -0.96093,0.52735 -0.23438,0 -0.35157,0 -0.35157,0.22265 0,0.12891 0.0703,0.12891 0.30469,0.12891 h 4.10156 c 1.82813,0 3.2461,-1.38281 3.2461,-2.58984 0,-0.98438 -0.86719,-1.58203 -1.82813,-1.67578 z m -1.69922,3.91406 h -1.61718 c -0.16407,0 -0.1875,0 -0.25782,-0.0117 -0.1289,-0.0117 -0.15234,-0.0352 -0.15234,-0.12891 0,-0.082 0.0352,-0.15234 0.0586,-0.25781 l 0.83203,-3.375 h 2.25 c 1.40625,0 1.40625,1.3125 1.40625,1.40625 0,1.14844 -1.04296,2.36719 -2.51953,2.36719 z m 13.72266,-7.95703 c 0,-0.10547 -0.082,-0.10547 -0.10547,-0.10547 -0.0234,0 -0.0703,0 -0.17578,0.11719 l -0.82031,1.00781 c -0.42188,-0.71485 -1.07813,-1.125 -1.96875,-1.125 -2.58985,0 -5.26172,2.61328 -5.26172,5.42578 0,1.99219 1.39453,3.23437 3.14062,3.23437 0.96094,0 1.79297,-0.39843 2.48438,-0.98437 1.04297,-0.87891 1.35937,-2.03906 1.35937,-2.13281 0,-0.10547 -0.0937,-0.10547 -0.14062,-0.10547 -0.10547,0 -0.11719,0.0703 -0.14063,0.11719 -0.55078,1.86328 -2.15625,2.76562 -3.35156,2.76562 -1.27734,0 -2.36719,-0.82031 -2.36719,-2.50781 0,-0.38672 0.11719,-2.46094 1.46485,-4.03125 0.65625,-0.76172 1.78125,-1.44141 2.91797,-1.44141 1.3125,0 1.89843,1.08985 1.89843,2.3086 0,0.3164 -0.0351,0.57421 -0.0351,0.62109 0,0.11719 0.11718,0.11719 0.15234,0.11719 0.14063,0 0.15234,-0.0117 0.19922,-0.23438 z m 0,0"
         style="fill:#000000;fill-opacity:1;fill-rule:nonzero;stroke:none" />
      <path
         id="path20"
         d="m -15.217805,242.16284 c -0.105468,0.41016 -0.128906,0.52735 -0.960937,0.52735 -0.234375,0 -0.351563,0 -0.351563,0.22265 0,0.12891 0.07031,0.12891 0.304688,0.12891 h 3.796875 c 2.414062,0 4.7695311,-2.49609 4.7695311,-5.16797 0,-1.72265 -1.03125,-3 -2.7421871,-3 h -3.832032 c -0.234375,0 -0.339843,0 -0.339843,0.23438 0,0.11718 0.105468,0.11718 0.292968,0.11718 0.726563,0 0.726563,0.0937 0.726563,0.22266 0,0.0234 0,0.0937 -0.04687,0.28125 z m 2.519532,-6.46875 c 0.117187,-0.44531 0.164062,-0.46875 0.621093,-0.46875 h 1.324219 c 1.1132813,0 2.1445313,0.60938 2.1445313,2.26172 0,0.59766 -0.234375,2.67188 -1.3945313,3.98438 -0.339844,0.39844 -1.242187,1.21875 -2.625,1.21875 h -1.359375 c -0.164062,0 -0.1875,0 -0.257812,-0.0117 -0.128907,-0.0117 -0.140625,-0.0352 -0.140625,-0.12891 0,-0.082 0.02344,-0.15234 0.04687,-0.25781 z m 16.4999996,0.0586 c 0.1054687,-0.41016 0.1289062,-0.52735 0.984375,-0.52735 0.2226562,0 0.328125,0 0.328125,-0.22265 0,-0.12891 -0.082031,-0.12891 -0.3046875,-0.12891 H 3.3681328 c -0.2929687,0 -0.3046875,0.0117 -0.4335937,0.21094 l -4.3710938,6.89062 -0.890625,-6.83203 c -0.035156,-0.26953 -0.046875,-0.26953 -0.3632812,-0.26953 h -1.4765625 c -0.234375,0 -0.3398438,0 -0.3398438,0.23438 0,0.11718 0.1054688,0.11718 0.2929688,0.11718 0.7265625,0 0.7265625,0.0937 0.7265625,0.22266 0,0.0234 0,0.0937 -0.046875,0.28125 l -1.5351563,6.09375 c -0.140625,0.57422 -0.4101562,0.83203 -1.21875,0.86719 -0.035156,0 -0.1757812,0.0117 -0.1757812,0.22265 0,0.12891 0.1054687,0.12891 0.1523437,0.12891 0.2460938,0 0.8554688,-0.0234 1.0898438,-0.0234 h 0.5742187 c 0.1640625,0 0.375,0.0234 0.5390625,0.0234 0.082031,0 0.2109375,0 0.2109375,-0.22266 0,-0.11718 -0.1171875,-0.1289 -0.1640625,-0.1289 -0.3984375,-0.0117 -0.7734375,-0.082 -0.7734375,-0.50391 0,-0.1289 0,-0.14062 0.046875,-0.30469 l 1.6523438,-6.58593 h 0.011719 l 0.984375,7.41797 c 0.035156,0.29296 0.046875,0.32812 0.1523438,0.32812 0.140625,0 0.1992187,-0.0937 0.2578125,-0.19922 l 4.8046875,-7.60547 h 0.011719 l -1.734375,6.92578 c -0.1054687,0.41016 -0.1289062,0.52735 -0.97265624,0.52735 -0.22265625,0 -0.33984375,0 -0.33984375,0.22265 0,0.12891 0.10546875,0.12891 0.17578125,0.12891 0.2109375,0 0.4453125,-0.0234 0.64453125,-0.0234 H 2.2782891 c 0.1992187,0 0.4453125,0.0234 0.65625,0.0234 0.09375,0 0.2226562,0 0.2226562,-0.22266 0,-0.1289 -0.1054687,-0.1289 -0.28125,-0.1289 -0.7382812,0 -0.7382812,-0.0937 -0.7382812,-0.21094 0,-0.0117 0,-0.0937 0.023437,-0.1875 z m 10.5761714,0.375 c 0.128907,-0.50391 0.316407,-0.86719 1.230469,-0.90235 0.03516,0 0.175781,-0.0117 0.175781,-0.21093 0,-0.14063 -0.105468,-0.14063 -0.152343,-0.14063 -0.234375,0 -0.855469,0.0234 -1.089844,0.0234 h -0.574219 c -0.164062,0 -0.386719,-0.0234 -0.550781,-0.0234 -0.07031,0 -0.210938,0 -0.210938,0.23438 0,0.11718 0.09375,0.11718 0.175782,0.11718 0.714843,0.0234 0.761718,0.29297 0.761718,0.51563 0,0.10547 -0.01172,0.14062 -0.04687,0.30469 l -1.347656,5.39062 -2.554687,-6.35156 c -0.08203,-0.19922 -0.09375,-0.21094 -0.3632816,-0.21094 h -1.453125 c -0.2460937,0 -0.3515625,0 -0.3515625,0.23438 0,0.11718 0.082031,0.11718 0.3164063,0.11718 0.058594,0 0.7617187,0 0.7617187,0.10547 0,0.0234 -0.023437,0.11719 -0.035156,0.15235 l -1.59375,6.33984 c -0.140625,0.58594 -0.421875,0.83203 -1.21875,0.86719 -0.058594,0 -0.1757813,0.0117 -0.1757813,0.23437 0,0.11719 0.1171875,0.11719 0.1523438,0.11719 0.2460937,0 0.8554687,-0.0234 1.0898437,-0.0234 h 0.5742188 c 0.1640625,0 0.375,0.0234 0.5390625,0.0234 0.082031,0 0.2109375,0 0.2109375,-0.22266 0,-0.11718 -0.1171875,-0.1289 -0.1640625,-0.1289 -0.3984375,-0.0117 -0.7734375,-0.082 -0.7734375,-0.50391 0,-0.10547 0.023437,-0.21094 0.046875,-0.30469 l 1.6054687,-6.39843 c 0.082031,0.1289 0.082031,0.15234 0.1289063,0.25781 l 2.8359371,7.08984 c 0.05859,0.14063 0.09375,0.21094 0.199219,0.21094 0.117187,0 0.128906,-0.0352 0.175781,-0.23437 z m 0,0"
         style="fill:#000000;fill-opacity:1;fill-rule:nonzero;stroke:none" />
      <path
         id="path21"
         d="m 144.07516,234.5105 c 0,-0.22266 0,-0.43359 -0.23437,-0.43359 -0.24609,0 -0.24609,0.21093 -0.24609,0.43359 v 11.08594 c 0,0.22265 0,0.43359 0.24609,0.43359 0.23437,0 0.23437,-0.21094 0.23437,-0.43359 z m 0,0"
         style="fill:#000000;fill-opacity:1;fill-rule:nonzero;stroke:none" />
      <path
         id="path22"
         d="m 147.52341,241.71753 c -0.41016,0.70313 -0.82032,0.9375 -1.39453,0.97266 -0.12891,0.0117 -0.22266,0.0117 -0.22266,0.23437 0,0.0703 0.0586,0.11719 0.14062,0.11719 0.21094,0 0.75,-0.0234 0.97266,-0.0234 0.33984,0 0.72656,0.0234 1.05469,0.0234 0.0703,0 0.22265,0 0.22265,-0.22266 0,-0.11718 -0.0937,-0.1289 -0.17578,-0.1289 -0.26953,-0.0234 -0.49218,-0.11719 -0.49218,-0.39844 0,-0.17578 0.0703,-0.30469 0.22265,-0.5625 l 0.90235,-1.51172 h 3.05859 c 0.0117,0.10547 0.0117,0.21094 0.0234,0.31641 0.0351,0.30469 0.17578,1.54687 0.17578,1.78125 0,0.35156 -0.60938,0.375 -0.79688,0.375 -0.14062,0 -0.26953,0 -0.26953,0.22265 0,0.12891 0.10547,0.12891 0.17578,0.12891 0.21094,0 0.44532,-0.0234 0.65625,-0.0234 h 0.67969 c 0.72656,0 1.25391,0.0234 1.26563,0.0234 0.082,0 0.21093,0 0.21093,-0.22266 0,-0.1289 -0.10547,-0.1289 -0.28125,-0.1289 -0.65625,0 -0.66797,-0.10547 -0.71484,-0.45703 l -0.72656,-7.46485 c -0.0234,-0.23437 -0.0703,-0.25781 -0.19922,-0.25781 -0.11719,0 -0.1875,0.0234 -0.30469,0.19922 z m 1.4414,-1.83984 2.40235,-4.01953 0.41015,4.01953 z m 7.1836,2.28515 c -0.10547,0.41016 -0.12891,0.52735 -0.96094,0.52735 -0.23438,0 -0.35156,0 -0.35156,0.22265 0,0.12891 0.0703,0.12891 0.30468,0.12891 h 3.79688 c 2.41406,0 4.76953,-2.49609 4.76953,-5.16797 0,-1.72265 -1.03125,-3 -2.74219,-3 h -3.83203 c -0.23437,0 -0.33984,0 -0.33984,0.23438 0,0.11718 0.10547,0.11718 0.29297,0.11718 0.72656,0 0.72656,0.0937 0.72656,0.22266 0,0.0234 0,0.0937 -0.0469,0.28125 z m 2.51953,-6.46875 c 0.11719,-0.44531 0.16406,-0.46875 0.62109,-0.46875 h 1.32422 c 1.11328,0 2.14453,0.60938 2.14453,2.26172 0,0.59766 -0.23437,2.67188 -1.39453,3.98438 -0.33984,0.39844 -1.24219,1.21875 -2.625,1.21875 h -1.35937 c -0.16407,0 -0.1875,0 -0.25782,-0.0117 -0.1289,-0.0117 -0.14062,-0.0352 -0.14062,-0.12891 0,-0.082 0.0234,-0.15234 0.0469,-0.25781 z m 0,0"
         style="fill:#000000;fill-opacity:1;fill-rule:nonzero;stroke:none" />
      <path
         id="path23"
         d="m 166.21481,234.5105 c 0,-0.22266 0,-0.43359 -0.23437,-0.43359 -0.2461,0 -0.2461,0.21093 -0.2461,0.43359 v 11.08594 c 0,0.22265 0,0.43359 0.2461,0.43359 0.23437,0 0.23437,-0.21094 0.23437,-0.43359 z m 0,0"
         style="fill:#000000;fill-opacity:1;fill-rule:nonzero;stroke:none" />
      <path
         id="path24"
         d="m 180.89841,239.17456 c 0.16406,0 0.375,0 0.375,-0.22265 0,-0.22266 -0.19922,-0.22266 -0.375,-0.22266 h -7.04297 c -0.17578,0 -0.38672,0 -0.38672,0.21094 0,0.23437 0.19922,0.23437 0.38672,0.23437 z m 0,2.21485 c 0.16406,0 0.375,0 0.375,-0.21094 0,-0.23438 -0.19922,-0.23438 -0.375,-0.23438 h -7.04297 c -0.17578,0 -0.38672,0 -0.38672,0.22266 0,0.22266 0.19922,0.22266 0.38672,0.22266 z m 0,0"
         style="fill:#000000;fill-opacity:1;fill-rule:nonzero;stroke:none" />
      <path
         id="path25"
         d="m 189.01071,234.5105 c 0,-0.22266 0,-0.43359 -0.23437,-0.43359 -0.2461,0 -0.2461,0.21093 -0.2461,0.43359 v 11.08594 c 0,0.22265 0,0.43359 0.2461,0.43359 0.23437,0 0.23437,-0.21094 0.23437,-0.43359 z m 0,0"
         style="fill:#000000;fill-opacity:1;fill-rule:nonzero;stroke:none" />
      <path
         id="path26"
         d="m 201.28317,235.75269 c 0.10547,-0.41016 0.12891,-0.52735 0.98438,-0.52735 0.22265,0 0.32812,0 0.32812,-0.22265 0,-0.12891 -0.082,-0.12891 -0.30469,-0.12891 h -1.4414 c -0.29297,0 -0.30469,0.0117 -0.4336,0.21094 l -4.37109,6.89062 -0.89062,-6.83203 c -0.0352,-0.26953 -0.0469,-0.26953 -0.36329,-0.26953 h -1.47656 c -0.23437,0 -0.33984,0 -0.33984,0.23438 0,0.11718 0.10547,0.11718 0.29297,0.11718 0.72656,0 0.72656,0.0937 0.72656,0.22266 0,0.0234 0,0.0937 -0.0469,0.28125 l -1.53515,6.09375 c -0.14063,0.57422 -0.41016,0.83203 -1.21875,0.86719 -0.0352,0 -0.17578,0.0117 -0.17578,0.22265 0,0.12891 0.10547,0.12891 0.15234,0.12891 0.24609,0 0.85547,-0.0234 1.08984,-0.0234 h 0.57422 c 0.16407,0 0.375,0.0234 0.53907,0.0234 0.082,0 0.21093,0 0.21093,-0.22266 0,-0.11718 -0.11718,-0.1289 -0.16406,-0.1289 -0.39844,-0.0117 -0.77344,-0.082 -0.77344,-0.50391 0,-0.1289 0,-0.14062 0.0469,-0.30469 l 1.65234,-6.58593 h 0.0117 l 0.98438,7.41797 c 0.0352,0.29296 0.0469,0.32812 0.15234,0.32812 0.14062,0 0.19922,-0.0937 0.25781,-0.19922 l 4.80469,-7.60547 h 0.0117 l -1.73438,6.92578 c -0.10547,0.41016 -0.1289,0.52735 -0.97265,0.52735 -0.22266,0 -0.33985,0 -0.33985,0.22265 0,0.12891 0.10547,0.12891 0.17578,0.12891 0.21094,0 0.44532,-0.0234 0.64454,-0.0234 h 1.41796 c 0.19922,0 0.44532,0.0234 0.65625,0.0234 0.0937,0 0.22266,0 0.22266,-0.22266 0,-0.1289 -0.10547,-0.1289 -0.28125,-0.1289 -0.73828,0 -0.73828,-0.0937 -0.73828,-0.21094 0,-0.0117 0,-0.0937 0.0234,-0.1875 z m 3.59473,6.41015 c -0.10547,0.41016 -0.12891,0.52735 -0.96094,0.52735 -0.23437,0 -0.35156,0 -0.35156,0.22265 0,0.12891 0.0703,0.12891 0.30469,0.12891 h 3.79687 c 2.41406,0 4.76953,-2.49609 4.76953,-5.16797 0,-1.72265 -1.03125,-3 -2.74219,-3 h -3.83203 c -0.23437,0 -0.33984,0 -0.33984,0.23438 0,0.11718 0.10547,0.11718 0.29297,0.11718 0.72656,0 0.72656,0.0937 0.72656,0.22266 0,0.0234 0,0.0937 -0.0469,0.28125 z m 2.51953,-6.46875 c 0.11719,-0.44531 0.16406,-0.46875 0.62109,-0.46875 h 1.32422 c 1.11328,0 2.14453,0.60938 2.14453,2.26172 0,0.59766 -0.23437,2.67188 -1.39453,3.98438 -0.33984,0.39844 -1.24219,1.21875 -2.625,1.21875 h -1.35937 c -0.16407,0 -0.1875,0 -0.25782,-0.0117 -0.1289,-0.0117 -0.14062,-0.0352 -0.14062,-0.12891 0,-0.082 0.0234,-0.15234 0.0469,-0.25781 z m 0,0"
         style="fill:#000000;fill-opacity:1;fill-rule:nonzero;stroke:none" />
      <path
         id="path27"
         d="m 214.95016,234.5105 c 0,-0.22266 0,-0.43359 -0.23437,-0.43359 -0.24609,0 -0.24609,0.21093 -0.24609,0.43359 v 11.08594 c 0,0.22265 0,0.43359 0.24609,0.43359 0.23437,0 0.23437,-0.21094 0.23437,-0.43359 z m 0,0"
         style="fill:#000000;fill-opacity:1;fill-rule:nonzero;stroke:none" />
      <path
         id="path28"
         d="m -140.51761,251.41773 c 0.14063,-0.0703 0.24609,-0.12891 0.24609,-0.28125 0,-0.14063 -0.10546,-0.23438 -0.23437,-0.23438 -0.0352,0 -0.0586,0 -0.21094,0.082 l -6.59765,3.25782 c -0.12891,0.0586 -0.23438,0.11718 -0.23438,0.25781 0,0.14062 0.0937,0.1875 0.24609,0.25781 l 6.58594,3.25781 c 0.15235,0.082 0.17578,0.082 0.21094,0.082 0.12891,0 0.23437,-0.0937 0.23437,-0.23437 0,-0.15234 -0.082,-0.19922 -0.26953,-0.28125 l -1.38281,-0.69141 c 0.32813,-0.75 0.49219,-1.57031 0.49219,-2.39062 0,-0.82031 -0.16406,-1.64063 -0.49219,-2.39063 z m -6.25781,3.08203 4.41797,-2.17969 c 0.32812,0.78516 0.45703,1.5 0.45703,2.17969 0,0.73828 -0.15235,1.4414 -0.45703,2.17969 z m 0,0"
         style="fill:#000000;fill-opacity:1;fill-rule:nonzero;stroke:none" />
      <path
         id="path29"
         d="m -137.5557,256.16382 c -0.41015,0.70313 -0.82031,0.9375 -1.39453,0.97266 -0.1289,0.0117 -0.22265,0.0117 -0.22265,0.23437 0,0.0703 0.0586,0.11719 0.14062,0.11719 0.21094,0 0.75,-0.0234 0.97266,-0.0234 0.33984,0 0.72656,0.0234 1.05469,0.0234 0.0703,0 0.22265,0 0.22265,-0.22266 0,-0.11718 -0.0937,-0.1289 -0.17578,-0.1289 -0.26953,-0.0234 -0.49219,-0.11719 -0.49219,-0.39844 0,-0.17578 0.0703,-0.30469 0.22266,-0.5625 l 0.90234,-1.51172 h 3.0586 c 0.0117,0.10547 0.0117,0.21094 0.0234,0.31641 0.0352,0.30468 0.17579,1.54687 0.17579,1.78125 0,0.35156 -0.60938,0.375 -0.79688,0.375 -0.14062,0 -0.26953,0 -0.26953,0.22265 0,0.12891 0.10547,0.12891 0.17578,0.12891 0.21094,0 0.44531,-0.0234 0.65625,-0.0234 h 0.67969 c 0.72656,0 1.2539,0.0234 1.26562,0.0234 0.082,0 0.21094,0 0.21094,-0.22266 0,-0.1289 -0.10547,-0.1289 -0.28125,-0.1289 -0.65625,0 -0.66797,-0.10547 -0.71484,-0.45703 l -0.72657,-7.46485 c -0.0234,-0.23437 -0.0703,-0.25781 -0.19921,-0.25781 -0.11719,0 -0.1875,0.0234 -0.30469,0.19922 z m 1.44141,-1.83984 2.40234,-4.01953 0.41016,4.01953 z m 9.67969,-4.1836 c 0.11719,-0.44531 0.16406,-0.46875 0.62109,-0.46875 h 1.5586 c 1.34765,0 1.34765,1.14844 1.34765,1.25391 0,0.97266 -0.96094,2.20312 -2.54297,2.20312 h -1.72265 z m 2.02734,3.08203 c 1.30078,-0.24609 2.48438,-1.14843 2.48438,-2.25 0,-0.92578 -0.83203,-1.65234 -2.17969,-1.65234 h -3.83203 c -0.23438,0 -0.33985,0 -0.33985,0.23438 0,0.11718 0.10547,0.11718 0.29297,0.11718 0.72657,0 0.72657,0.0937 0.72657,0.22266 0,0.0234 0,0.0937 -0.0469,0.28125 l -1.61719,6.43359 c -0.10547,0.41016 -0.1289,0.52735 -0.96093,0.52735 -0.23438,0 -0.35157,0 -0.35157,0.22265 0,0.12891 0.0703,0.12891 0.30469,0.12891 h 4.10156 c 1.82813,0 3.2461,-1.38281 3.2461,-2.58984 0,-0.98438 -0.86719,-1.58204 -1.82813,-1.67579 z m -1.69922,3.91407 h -1.61718 c -0.16407,0 -0.1875,0 -0.25782,-0.0117 -0.1289,-0.0117 -0.15234,-0.0352 -0.15234,-0.12891 0,-0.082 0.0352,-0.15234 0.0586,-0.25781 l 0.83203,-3.375 h 2.25 c 1.40625,0 1.40625,1.3125 1.40625,1.40625 0,1.14844 -1.04296,2.36719 -2.51953,2.36719 z m 13.71973,-7.95703 c 0,-0.10547 -0.082,-0.10547 -0.10547,-0.10547 -0.0234,0 -0.0703,0 -0.17578,0.11718 l -0.82031,1.00782 c -0.42188,-0.71485 -1.07813,-1.125 -1.96875,-1.125 -2.58985,0 -5.26172,2.61328 -5.26172,5.42578 0,1.99219 1.39453,3.23437 3.14062,3.23437 0.96094,0 1.79297,-0.39843 2.48438,-0.98437 1.04297,-0.87891 1.35937,-2.03906 1.35937,-2.13281 0,-0.10547 -0.0937,-0.10547 -0.14062,-0.10547 -0.10547,0 -0.11719,0.0703 -0.14063,0.11718 -0.55078,1.86329 -2.15625,2.76563 -3.35156,2.76563 -1.27734,0 -2.36719,-0.82031 -2.36719,-2.50781 0,-0.38672 0.11719,-2.46094 1.46485,-4.03125 0.65625,-0.76172 1.78125,-1.44141 2.91797,-1.44141 1.3125,0 1.89843,1.08984 1.89843,2.30859 0,0.31641 -0.0352,0.57422 -0.0352,0.6211 0,0.11719 0.11719,0.11719 0.15234,0.11719 0.14063,0 0.15235,-0.0117 0.19922,-0.23438 z m 0,0"
         style="fill:#000000;fill-opacity:1;fill-rule:nonzero;stroke:none" />
      <path
         id="path30"
         d="m -34.624055,307.21655 c 0,-0.22265 0,-0.29296 -0.164062,-0.29296 -0.09375,0 -0.128906,0 -0.222656,0.15234 l -3.597657,5.57812 v 0.35157 h 3.140625 v 1.07812 c 0,0.44531 -0.02344,0.5625 -0.902343,0.5625 h -0.234375 v 0.35156 c 0.269531,-0.0234 1.21875,-0.0234 1.558593,-0.0234 0.328125,0 1.289063,0 1.558594,0.0234 v -0.35156 h -0.234375 c -0.867187,0 -0.902344,-0.11719 -0.902344,-0.5625 v -1.07812 h 1.207032 v -0.35157 h -1.207032 z m -0.785156,0.9375 v 4.5 h -2.90625 z m 6.638672,-0.9375 c 0,-0.22265 0,-0.29296 -0.164063,-0.29296 -0.09375,0 -0.128906,0 -0.222656,0.15234 l -3.597656,5.57812 v 0.35157 h 3.140625 v 1.07812 c 0,0.44531 -0.02344,0.5625 -0.902344,0.5625 h -0.234375 v 0.35156 c 0.269531,-0.0234 1.21875,-0.0234 1.558594,-0.0234 0.328125,0 1.289062,0 1.558594,0.0234 v -0.35156 h -0.234375 c -0.867188,0 -0.902344,-0.11719 -0.902344,-0.5625 v -1.07812 h 1.207031 v -0.35157 h -1.207031 z m -0.785156,0.9375 v 4.5 h -2.90625 z m 6.638672,-0.9375 c 0,-0.22265 0,-0.29296 -0.164063,-0.29296 -0.09375,0 -0.128906,0 -0.222656,0.15234 l -3.597656,5.57812 v 0.35157 h 3.140625 v 1.07812 c 0,0.44531 -0.02344,0.5625 -0.902344,0.5625 h -0.234375 v 0.35156 c 0.269531,-0.0234 1.21875,-0.0234 1.558594,-0.0234 0.328125,0 1.289062,0 1.558593,0.0234 v -0.35156 h -0.234375 c -0.867187,0 -0.902343,-0.11719 -0.902343,-0.5625 v -1.07812 h 1.207031 v -0.35157 h -1.207031 z m -0.785157,0.9375 v 4.5 h -2.90625 z m 0,0"
         style="fill:#000000;fill-opacity:1;fill-rule:nonzero;stroke:none" />
      <path
         id="path31"
         d="m 109.14157,307.33374 c 0,-0.26953 0,-0.28125 -0.24609,-0.28125 -0.28125,0.31641 -0.87891,0.76172 -2.10938,0.76172 v 0.35156 c 0.26953,0 0.86719,0 1.52344,-0.3164 v 6.22265 c 0,0.4336 -0.0352,0.57422 -1.07813,0.57422 h -0.375 v 0.35156 c 0.31641,-0.0234 1.47657,-0.0234 1.875,-0.0234 0.39844,0 1.54688,0 1.86329,0.0234 v -0.35156 h -0.36329 c -1.05468,0 -1.08984,-0.14062 -1.08984,-0.57422 z m 6.77637,4.1836 c 0,2.82421 -1.25391,3.41015 -1.96875,3.41015 -0.28125,0 -0.92578,-0.0351 -1.21875,-0.45703 h 0.0703 c 0.082,0.0234 0.51563,-0.0469 0.51563,-0.49219 0,-0.25781 -0.17579,-0.49218 -0.49219,-0.49218 -0.30469,0 -0.50391,0.21093 -0.50391,0.51562 0,0.75 0.59766,1.24219 1.64063,1.24219 1.5,0 2.9414,-1.58203 2.9414,-4.1836 0,-3.21093 -1.33593,-4.00781 -2.39062,-4.00781 -1.3125,0 -2.47266,1.10156 -2.47266,2.67188 0,1.58203 1.11328,2.66015 2.3086,2.66015 0.8789,0 1.33593,-0.64453 1.57031,-1.2539 z m -1.52344,0.62109 c -0.75,0 -1.07812,-0.60938 -1.18359,-0.83203 -0.19922,-0.45703 -0.19922,-1.03125 -0.19922,-1.57031 0,-0.66797 0,-1.24219 0.3164,-1.73438 0.21094,-0.31641 0.53907,-0.66797 1.1836,-0.66797 0.67969,0 1.03125,0.59766 1.14844,0.87891 0.23437,0.58594 0.23437,1.59375 0.23437,1.78125 0,0.99609 -0.44531,2.14453 -1.5,2.14453 z m 6.56836,-1.45313 c 0.59766,-0.32812 1.46484,-0.8789 1.46484,-1.875 0,-1.04296 -0.99609,-1.75781 -2.09765,-1.75781 -1.1836,0 -2.1211,0.86719 -2.1211,1.95703 0,0.41016 0.12891,0.8086 0.45703,1.21875 0.12891,0.15235 0.14063,0.16407 0.98438,0.75 -1.16016,0.53907 -1.75781,1.34766 -1.75781,2.21485 0,1.26562 1.20703,2.05078 2.42578,2.05078 1.32422,0 2.4375,-0.97266 2.4375,-2.22656 0,-1.21875 -0.85547,-1.75782 -1.79297,-2.33204 z m -1.62891,-1.07812 c -0.15234,-0.10547 -0.63281,-0.42188 -0.63281,-1.00781 0,-0.77344 0.82031,-1.26563 1.61719,-1.26563 0.85547,0 1.6289,0.6211 1.6289,1.48828 0,0.72657 -0.52734,1.3125 -1.21875,1.6875 z m 0.5625,1.54687 1.45313,0.9375 c 0.30469,0.19922 0.85547,0.57422 0.85547,1.30079 0,0.91406 -0.91407,1.53515 -1.875,1.53515 -1.01953,0 -1.88672,-0.73828 -1.88672,-1.73437 0,-0.9375 0.67969,-1.6875 1.45312,-2.03907 z m 0,0"
         style="fill:#000000;fill-opacity:1;fill-rule:nonzero;stroke:none" />
      <path
         id="path32"
         d="m -19.834992,325.28394 c 0,-3.02344 1.476562,-3.50391 2.121094,-3.50391 0.433593,0 0.855468,0.12891 1.089843,0.49219 -0.140625,0 -0.597656,0 -0.597656,0.49219 0,0.25781 0.175781,0.49218 0.492188,0.49218 0.292968,0 0.492187,-0.1875 0.492187,-0.52734 0,-0.62109 -0.445312,-1.23047 -1.488281,-1.23047 -1.511719,0 -3.082031,1.53516 -3.082031,4.17188 0,3.28125 1.429687,4.01953 2.449218,4.01953 1.300782,0 2.414063,-1.125 2.414063,-2.6836 0,-1.59375 -1.113281,-2.66015 -2.308594,-2.66015 -1.066406,0 -1.453125,0.92578 -1.582031,1.26562 z m 1.476562,4.08984 c -0.75,0 -1.113281,-0.66797 -1.21875,-0.92578 -0.105468,-0.30469 -0.222656,-0.89062 -0.222656,-1.73437 0,-0.9375 0.421875,-2.1211 1.5,-2.1211 0.65625,0 1.007813,0.44531 1.183594,0.84375 0.1875,0.44531 0.1875,1.04297 0.1875,1.5586 0,0.60937 0,1.14843 -0.222656,1.60546 -0.304688,0.57422 -0.726563,0.77344 -1.207032,0.77344 z m 0,0"
         style="fill:#000000;fill-opacity:1;fill-rule:nonzero;stroke:none" />
      <path
         id="path33"
         d="m -88.351594,370.50366 h -0.269531 c -0.03516,0.19922 -0.128906,0.85547 -0.246094,1.04297 -0.08203,0.11719 -0.761718,0.11719 -1.125,0.11719 h -2.214843 c 0.328125,-0.28125 1.054687,-1.04297 1.371093,-1.33594 1.816407,-1.66406 2.484375,-2.28515 2.484375,-3.46875 0,-1.38281 -1.089843,-2.29687 -2.472656,-2.29687 -1.394531,0 -2.203125,1.18359 -2.203125,2.20312 0,0.60938 0.527344,0.60938 0.5625,0.60938 0.246094,0 0.5625,-0.17578 0.5625,-0.5625 0,-0.32813 -0.234375,-0.55078 -0.5625,-0.55078 -0.105469,0 -0.128906,0 -0.164062,0.0117 0.222656,-0.82032 0.867187,-1.3711 1.640625,-1.3711 1.019531,0 1.640625,0.85547 1.640625,1.95703 0,1.00782 -0.585938,1.89844 -1.265625,2.66016 l -2.414063,2.70703 v 0.28125 H -88.668 Z m 5.947266,-1.8164 c 0,-0.9961 -0.05859,-1.96875 -0.492188,-2.8711 -0.492187,-0.99609 -1.347656,-1.2539 -1.933593,-1.2539 -0.691407,0 -1.546875,0.33984 -1.980469,1.33594 -0.339844,0.75 -0.457031,1.48828 -0.457031,2.78906 0,1.16015 0.08203,2.02734 0.515625,2.87109 0.457031,0.91406 1.289062,1.19531 1.910156,1.19531 1.042969,0 1.640625,-0.62109 1.980469,-1.3125 0.433593,-0.89062 0.457031,-2.0625 0.457031,-2.7539 z m -2.4375,3.83203 c -0.386719,0 -1.160156,-0.21094 -1.382813,-1.52344 -0.140625,-0.71484 -0.140625,-1.61719 -0.140625,-2.46094 0,-0.97265 0,-1.86328 0.199219,-2.5664 0.199219,-0.79688 0.808594,-1.17188 1.324219,-1.17188 0.457031,0 1.148437,0.28125 1.371094,1.30078 0.152343,0.67969 0.152343,1.62891 0.152343,2.4375 0,0.8086 0,1.71094 -0.128906,2.4375 -0.222656,1.32422 -0.972656,1.54688 -1.394531,1.54688 z m 6.380859,-7.67578 c 0,-0.26953 0,-0.28125 -0.246093,-0.28125 -0.28125,0.3164 -0.878907,0.76172 -2.109375,0.76172 v 0.35156 c 0.269531,0 0.867187,0 1.523437,-0.31641 v 6.22266 c 0,0.43359 -0.03516,0.57422 -1.078125,0.57422 h -0.375 v 0.35156 c 0.316406,-0.0234 1.476563,-0.0234 1.875,-0.0234 0.398438,0 1.546875,0 1.863281,0.0234 v -0.35156 h -0.363281 c -1.054687,0 -1.089844,-0.14063 -1.089844,-0.57422 z m 8.091797,0.24609 v -0.28125 h -2.882812 c -1.453125,0 -1.476563,-0.15234 -1.523438,-0.38672 h -0.257812 l -0.375,2.39063 h 0.269531 c 0.03516,-0.21094 0.140625,-0.94922 0.292969,-1.07813 0.09375,-0.0703 0.996093,-0.0703 1.160156,-0.0703 h 2.53125 l -1.265625,1.81641 c -0.316406,0.45703 -1.523438,2.42578 -1.523438,4.66406 0,0.14062 0,0.60937 0.480469,0.60937 0.503906,0 0.503906,-0.45703 0.503906,-0.62109 v -0.59766 c 0,-1.78125 0.292969,-3.16406 0.855469,-3.96093 z m 0,0"
         style="fill:#000000;fill-opacity:1;fill-rule:nonzero;stroke:none" />
      <path
         id="path34"
         d="m 272.16403,370.50366 h -0.26953 c -0.0352,0.19922 -0.12891,0.85547 -0.24609,1.04297 -0.082,0.11719 -0.76172,0.11719 -1.125,0.11719 h -2.21485 c 0.32813,-0.28125 1.05469,-1.04297 1.3711,-1.33594 1.8164,-1.66406 2.48437,-2.28515 2.48437,-3.46875 0,-1.38281 -1.08984,-2.29687 -2.47265,-2.29687 -1.39454,0 -2.20313,1.18359 -2.20313,2.20312 0,0.60938 0.52734,0.60938 0.5625,0.60938 0.24609,0 0.5625,-0.17578 0.5625,-0.5625 0,-0.32813 -0.23437,-0.55078 -0.5625,-0.55078 -0.10547,0 -0.12891,0 -0.16406,0.0117 0.22265,-0.82032 0.86719,-1.3711 1.64062,-1.3711 1.01953,0 1.64063,0.85547 1.64063,1.95703 0,1.00782 -0.58594,1.89844 -1.26563,2.66016 l -2.41406,2.70703 v 0.28125 h 4.35938 z m 5.94434,-1.8164 c 0,-0.9961 -0.0586,-1.96875 -0.49219,-2.8711 -0.49219,-0.99609 -1.34766,-1.2539 -1.93359,-1.2539 -0.69141,0 -1.54688,0.33984 -1.98047,1.33594 -0.33985,0.75 -0.45703,1.48828 -0.45703,2.78906 0,1.16015 0.082,2.02734 0.51562,2.87109 0.45703,0.91406 1.28906,1.19531 1.91016,1.19531 1.04297,0 1.64062,-0.62109 1.98047,-1.3125 0.43359,-0.89062 0.45703,-2.0625 0.45703,-2.7539 z m -2.4375,3.83203 c -0.38672,0 -1.16016,-0.21094 -1.38282,-1.52344 -0.14062,-0.71484 -0.14062,-1.61719 -0.14062,-2.46094 0,-0.97265 0,-1.86328 0.19922,-2.5664 0.19922,-0.79688 0.80859,-1.17188 1.32422,-1.17188 0.45703,0 1.14843,0.28125 1.37109,1.30078 0.15234,0.67969 0.15234,1.62891 0.15234,2.4375 0,0.8086 0,1.71094 -0.1289,2.4375 -0.22266,1.32422 -0.97266,1.54688 -1.39453,1.54688 z m 6.38086,-7.67578 c 0,-0.26953 0,-0.28125 -0.2461,-0.28125 -0.28125,0.3164 -0.8789,0.76172 -2.10937,0.76172 v 0.35156 c 0.26953,0 0.86719,0 1.52344,-0.31641 v 6.22266 c 0,0.43359 -0.0352,0.57422 -1.07813,0.57422 h -0.375 v 0.35156 c 0.31641,-0.0234 1.47656,-0.0234 1.875,-0.0234 0.39844,0 1.54688,0 1.86328,0.0234 v -0.35156 h -0.36328 c -1.05469,0 -1.08984,-0.14063 -1.08984,-0.57422 z m 8.09179,0.24609 v -0.28125 h -2.88281 c -1.45312,0 -1.47656,-0.15234 -1.52344,-0.38672 h -0.25781 l -0.375,2.39063 h 0.26953 c 0.0352,-0.21094 0.14063,-0.94922 0.29297,-1.07813 0.0937,-0.0703 0.99609,-0.0703 1.16016,-0.0703 h 2.53125 l -1.26563,1.81641 c -0.3164,0.45703 -1.52344,2.42578 -1.52344,4.66406 0,0.14062 0,0.60937 0.48047,0.60937 0.50391,0 0.50391,-0.45703 0.50391,-0.62109 v -0.59766 c 0,-1.78125 0.29297,-3.16406 0.85547,-3.96093 z m 0,0"
         style="fill:#000000;fill-opacity:1;fill-rule:nonzero;stroke:none" />
      <path
         id="path35"
         d="m 148.37595,437.04566 v -0.28125 h -2.88282 c -1.45312,0 -1.47656,-0.15235 -1.52343,-0.38672 h -0.25782 l -0.375,2.39062 h 0.26953 c 0.0352,-0.21093 0.14063,-0.94922 0.29297,-1.07812 0.0937,-0.0703 0.9961,-0.0703 1.16016,-0.0703 h 2.53125 l -1.26563,1.8164 c -0.3164,0.45703 -1.52343,2.42578 -1.52343,4.66406 0,0.14063 0,0.60938 0.48047,0.60938 0.5039,0 0.5039,-0.45703 0.5039,-0.62109 v -0.59766 c 0,-1.78125 0.29297,-3.16406 0.85547,-3.96094 z m 0,0"
         style="fill:#000000;fill-opacity:1;fill-rule:nonzero;stroke:none" />
      <path
         id="path36"
         d="m 330.25388,437.04566 v -0.28125 h -2.88282 c -1.45312,0 -1.47656,-0.15235 -1.52343,-0.38672 h -0.25782 l -0.375,2.39062 h 0.26953 c 0.0352,-0.21093 0.14063,-0.94922 0.29297,-1.07812 0.0937,-0.0703 0.9961,-0.0703 1.16016,-0.0703 h 2.53125 l -1.26563,1.8164 c -0.3164,0.45703 -1.52343,2.42578 -1.52343,4.66406 0,0.14063 0,0.60938 0.48047,0.60938 0.5039,0 0.5039,-0.45703 0.5039,-0.62109 v -0.59766 c 0,-1.78125 0.29297,-3.16406 0.85547,-3.96094 z m 0,0"
         style="fill:#000000;fill-opacity:1;fill-rule:nonzero;stroke:none" />
    </g>
  </g>
</svg>
