<?xml version="1.0" encoding="UTF-8" standalone="no"?>
<!-- Created with Inkscape (http://www.inkscape.org/) -->

<svg
   version="1.1"
   id="svg1"
   width="794.55066"
   height="1123.6533"
   viewBox="0 0 794.55066 1123.6533"
   sodipodi:docname="LigaMatematycznaMatuskiego_Liceum_Zestaw2_2018_2019_page0.pdf"
   xmlns:inkscape="http://www.inkscape.org/namespaces/inkscape"
   xmlns:sodipodi="http://sodipodi.sourceforge.net/DTD/sodipodi-0.dtd"
   xmlns="http://www.w3.org/2000/svg"
   xmlns:svg="http://www.w3.org/2000/svg">
  <defs
     id="defs1" />
  <sodipodi:namedview
     id="namedview1"
     pagecolor="#ffffff"
     bordercolor="#000000"
     borderopacity="0.25"
     inkscape:showpageshadow="2"
     inkscape:pageopacity="0.0"
     inkscape:pagecheckerboard="0"
     inkscape:deskcolor="#d1d1d1">
    <inkscape:page
       x="0"
       y="0"
       inkscape:label="1"
       id="page1"
       width="794.55066"
       height="1123.6533"
       margin="0"
       bleed="0" />
  </sodipodi:namedview>
  <g
     id="g1"
     inkscape:groupmode="layer"
     inkscape:label="1">
    <g
       id="g2"
       aria-label="LIGAMATEMATYCZNA&#10;im.ZdzisªawaMatuskiego&#10;LISTOPAD2018&#10;SZKOAPONADPODSTAWOWA&#10;ZADANIE1.&#10;Wyka»,»eistniejeniesko«czeniewieleliczbnaturalnych,dlaktórychiloczyncyfrorazsuma&#10;cyfrs¡liczbamipierwszymi.&#10;ZADANIE2.&#10;Trójk¡tABCpodzielonodwiemaprostymi,przechodz¡cymiprzezpunktyAiBodpowiednio,&#10;naczterycz¦±ci.Polatrzechznichs¡równe3,4,6.Obliczpoleczwartejcz¦±ci.&#10;ZADANIE3.&#10;Danychjest30liczbrzeczywistych,którychsumajestrówna300.Wyka»,»ew±ródtychliczb&#10;istniejetakich5liczb,którychsumajestrównaconajmniej50.&#10;ZADANIE4.&#10;Funkcjaf:R→Rspeªniawarunek&#10;2f(x)+3f&#10;&#10;2010"
       transform="matrix(1.3333333,0,0,1.3333333,274.724,56.069333)">
      <path
         id="path2"
         d="m -104.33304,165.99976 c -0.41016,0.70312 -0.82031,0.9375 -1.39453,0.97265 -0.12891,0.0117 -0.22266,0.0117 -0.22266,0.23438 0,0.0703 0.0586,0.11719 0.14063,0.11719 0.21094,0 0.75,-0.0234 0.97265,-0.0234 0.33985,0 0.72657,0.0234 1.05469,0.0234 0.0703,0 0.22266,0 0.22266,-0.22266 0,-0.11719 -0.0937,-0.12891 -0.17578,-0.12891 -0.26953,-0.0234 -0.49219,-0.11718 -0.49219,-0.39843 0,-0.17578 0.0703,-0.30469 0.22266,-0.5625 l 0.90234,-1.51172 h 3.05859 c 0.0117,0.10547 0.0117,0.21094 0.0234,0.3164 0.03516,0.30469 0.175782,1.54688 0.175782,1.78125 0,0.35157 -0.609372,0.375 -0.796872,0.375 -0.14063,0 -0.26953,0 -0.26953,0.22266 0,0.12891 0.10546,0.12891 0.17578,0.12891 0.21093,0 0.44531,-0.0234 0.65625,-0.0234 h 0.679685 c 0.726562,0 1.253906,0.0234 1.265625,0.0234 0.08203,0 0.210937,0 0.210937,-0.22266 0,-0.12891 -0.105469,-0.12891 -0.28125,-0.12891 -0.65625,0 -0.667969,-0.10546 -0.714844,-0.45703 l -0.726562,-7.46484 c -0.02344,-0.23438 -0.07031,-0.25781 -0.199219,-0.25781 -0.117187,0 -0.187502,0.0234 -0.304692,0.19922 z m 1.44141,-1.83985 2.40234,-4.01953 0.41016,4.01953 z m 9.676755,-4.18359 c 0.117188,-0.44531 0.164063,-0.46875 0.621094,-0.46875 h 1.558594 c 1.347656,0 1.347656,1.14844 1.347656,1.25391 0,0.97265 -0.960938,2.20312 -2.542969,2.20312 h -1.722656 z m 2.027344,3.08203 c 1.300781,-0.24609 2.484375,-1.14844 2.484375,-2.25 0,-0.92578 -0.832031,-1.65234 -2.179688,-1.65234 h -3.832031 c -0.234375,0 -0.339844,0 -0.339844,0.23437 0,0.11719 0.105469,0.11719 0.292969,0.11719 0.726563,0 0.726563,0.0937 0.726563,0.22266 0,0.0234 0,0.0937 -0.04687,0.28125 l -1.617188,6.43359 c -0.105469,0.41016 -0.128906,0.52734 -0.960937,0.52734 -0.234375,0 -0.351563,0 -0.351563,0.22266 0,0.12891 0.07031,0.12891 0.304688,0.12891 h 4.101562 c 1.828125,0 3.246094,-1.38282 3.246094,-2.58985 0,-0.98437 -0.867188,-1.58203 -1.828125,-1.67578 z m -1.699219,3.91406 h -1.617187 c -0.164063,0 -0.1875,0 -0.257813,-0.0117 -0.128906,-0.0117 -0.152344,-0.0352 -0.152344,-0.12891 0,-0.082 0.03516,-0.15234 0.05859,-0.25781 l 0.832031,-3.375 h 2.25 c 1.40625,0 1.40625,1.3125 1.40625,1.40625 0,1.14843 -1.042968,2.36718 -2.519531,2.36718 z m 13.722656,-7.95703 c 0,-0.10547 -0.08203,-0.10547 -0.105468,-0.10547 -0.02344,0 -0.07031,0 -0.175782,0.11719 l -0.820312,1.00781 c -0.421875,-0.71484 -1.078125,-1.125 -1.96875,-1.125 -2.589844,0 -5.261719,2.61329 -5.261719,5.42579 0,1.99218 1.394531,3.23437 3.140625,3.23437 0.960938,0 1.792969,-0.39844 2.484375,-0.98437 1.042969,-0.87891 1.359375,-2.03907 1.359375,-2.13282 0,-0.10547 -0.09375,-0.10547 -0.140625,-0.10547 -0.105469,0 -0.117187,0.0703 -0.140625,0.11719 -0.550781,1.86328 -2.15625,2.76563 -3.351562,2.76563 -1.277344,0 -2.367188,-0.82032 -2.367188,-2.50782 0,-0.38671 0.117188,-2.46093 1.464844,-4.03125 0.65625,-0.76171 1.78125,-1.4414 2.917969,-1.4414 1.3125,0 1.898437,1.08984 1.898437,2.30859 0,0.31641 -0.03516,0.57422 -0.03516,0.6211 0,0.11718 0.117187,0.11718 0.152344,0.11718 0.140625,0 0.152343,-0.0117 0.199218,-0.23437 z m 0,0"
         style="fill:#000000;fill-opacity:1;fill-rule:nonzero;stroke:none" />
      <path
         id="path3"
         d="m 235.42575,165.99976 c -0.41016,0.70312 -0.82031,0.9375 -1.39453,0.97265 -0.12891,0.0117 -0.22266,0.0117 -0.22266,0.23438 0,0.0703 0.0586,0.11719 0.14063,0.11719 0.21094,0 0.75,-0.0234 0.97265,-0.0234 0.33985,0 0.72657,0.0234 1.05469,0.0234 0.0703,0 0.22266,0 0.22266,-0.22266 0,-0.11719 -0.0937,-0.12891 -0.17578,-0.12891 -0.26953,-0.0234 -0.49219,-0.11718 -0.49219,-0.39843 0,-0.17578 0.0703,-0.30469 0.22266,-0.5625 l 0.90234,-1.51172 h 3.05859 c 0.0117,0.10547 0.0117,0.21094 0.0234,0.3164 0.0352,0.30469 0.17578,1.54688 0.17578,1.78125 0,0.35157 -0.60937,0.375 -0.79687,0.375 -0.14063,0 -0.26953,0 -0.26953,0.22266 0,0.12891 0.10546,0.12891 0.17578,0.12891 0.21093,0 0.44531,-0.0234 0.65625,-0.0234 h 0.67968 c 0.72657,0 1.25391,0.0234 1.26563,0.0234 0.082,0 0.21094,0 0.21094,-0.22266 0,-0.12891 -0.10547,-0.12891 -0.28125,-0.12891 -0.65625,0 -0.66797,-0.10546 -0.71485,-0.45703 l -0.72656,-7.46484 c -0.0234,-0.23438 -0.0703,-0.25781 -0.19922,-0.25781 -0.11719,0 -0.1875,0.0234 -0.30469,0.19922 z m 1.44141,-1.83985 2.40234,-4.01953 0.41016,4.01953 z m 0,0"
         style="fill:#000000;fill-opacity:1;fill-rule:nonzero;stroke:none" />
      <path
         id="path4"
         d="m 257.43356,159.97632 c 0.11719,-0.44531 0.16407,-0.46875 0.6211,-0.46875 h 1.55859 c 1.34766,0 1.34766,1.14844 1.34766,1.25391 0,0.97265 -0.96094,2.20312 -2.54297,2.20312 h -1.72266 z m 2.02735,3.08203 c 1.30078,-0.24609 2.48437,-1.14844 2.48437,-2.25 0,-0.92578 -0.83203,-1.65234 -2.17969,-1.65234 h -3.83203 c -0.23437,0 -0.33984,0 -0.33984,0.23437 0,0.11719 0.10547,0.11719 0.29297,0.11719 0.72656,0 0.72656,0.0937 0.72656,0.22266 0,0.0234 0,0.0937 -0.0469,0.28125 l -1.61719,6.43359 c -0.10547,0.41016 -0.12891,0.52734 -0.96094,0.52734 -0.23437,0 -0.35156,0 -0.35156,0.22266 0,0.12891 0.0703,0.12891 0.30469,0.12891 h 4.10156 c 1.82812,0 3.24609,-1.38282 3.24609,-2.58985 0,-0.98437 -0.86719,-1.58203 -1.82812,-1.67578 z m -1.69922,3.91406 h -1.61719 c -0.16406,0 -0.1875,0 -0.25781,-0.0117 -0.12891,-0.0117 -0.15235,-0.0352 -0.15235,-0.12891 0,-0.082 0.0352,-0.15234 0.0586,-0.25781 l 0.83203,-3.375 h 2.25 c 1.40625,0 1.40625,1.3125 1.40625,1.40625 0,1.14843 -1.04297,2.36718 -2.51953,2.36718 z m 0,0"
         style="fill:#000000;fill-opacity:1;fill-rule:nonzero;stroke:none" />
      <path
         id="path5"
         d="m 86.067352,177.4812 c -0.210938,0.0117 -0.257813,0.0234 -0.257813,0.12891 0,0.11719 0.05859,0.11719 0.28125,0.11719 h 0.550781 c 1.007813,0 1.464844,0.84375 1.464844,1.99218 0,1.5586 -0.808594,1.98047 -1.394531,1.98047 -0.574219,0 -1.558594,-0.28125 -1.898438,-1.0664 0.375,0.0586 0.726563,-0.15235 0.726563,-0.58594 0,-0.33984 -0.257813,-0.58594 -0.585938,-0.58594 -0.292968,0 -0.597656,0.16406 -0.597656,0.6211 0,1.0664 1.066406,1.93359 2.390625,1.93359 1.417969,0 2.472656,-1.07813 2.472656,-2.28516 0,-1.10156 -0.890625,-1.96875 -2.027343,-2.16797 1.03125,-0.30468 1.699218,-1.17187 1.699218,-2.10937 0,-0.9375 -0.972656,-1.62891 -2.132812,-1.62891 -1.195313,0 -2.085938,0.72657 -2.085938,1.59375 0,0.48047 0.375,0.57422 0.550782,0.57422 0.257812,0 0.539062,-0.17578 0.539062,-0.53906 0,-0.375 -0.28125,-0.53906 -0.550781,-0.53906 -0.07031,0 -0.09375,0 -0.128906,0.0117 0.457031,-0.82032 1.582031,-0.82032 1.640625,-0.82032 0.386718,0 1.171875,0.17578 1.171875,1.34766 0,0.23437 -0.03516,0.90234 -0.386719,1.41797 -0.351563,0.52734 -0.761719,0.5625 -1.089844,0.57422 z m 0,0"
         style="fill:#000000;fill-opacity:1;fill-rule:nonzero;stroke:none" />
      <path
         id="path6"
         d="m 101.18161,173.98902 c 0,-0.22266 0,-0.29297 -0.16406,-0.29297 -0.0937,0 -0.12891,0 -0.22266,0.15234 l -3.597656,5.57813 v 0.35156 h 3.140626 v 1.07812 c 0,0.44532 -0.0234,0.5625 -0.902344,0.5625 h -0.234375 v 0.35157 c 0.269531,-0.0234 1.218749,-0.0234 1.558589,-0.0234 0.32813,0 1.28907,0 1.5586,0.0234 v -0.35157 h -0.23438 c -0.86718,0 -0.90234,-0.11718 -0.90234,-0.5625 v -1.07812 h 1.20703 v -0.35156 h -1.20703 z m -0.78516,0.9375 v 4.5 h -2.906247 z m 0,0"
         style="fill:#000000;fill-opacity:1;fill-rule:nonzero;stroke:none" />
      <path
         id="path7"
         d="m 111.33884,177.61011 c 0,-3.02344 1.47656,-3.50391 2.12109,-3.50391 0.43359,0 0.85547,0.12891 1.08984,0.49219 -0.14062,0 -0.59765,0 -0.59765,0.49219 0,0.25781 0.17578,0.49219 0.49218,0.49219 0.29297,0 0.49219,-0.1875 0.49219,-0.52735 0,-0.62109 -0.44531,-1.23047 -1.48828,-1.23047 -1.51172,0 -3.08203,1.53516 -3.08203,4.17188 0,3.28125 1.42969,4.01953 2.44922,4.01953 1.30078,0 2.41406,-1.125 2.41406,-2.68359 0,-1.59375 -1.11328,-2.66016 -2.30859,-2.66016 -1.06641,0 -1.45313,0.92578 -1.58203,1.26562 z m 1.47656,4.08984 c -0.75,0 -1.11328,-0.66797 -1.21875,-0.92578 -0.10547,-0.30469 -0.22266,-0.89062 -0.22266,-1.73437 0,-0.9375 0.42188,-2.1211 1.5,-2.1211 0.65625,0 1.00781,0.44532 1.1836,0.84375 0.1875,0.44532 0.1875,1.04297 0.1875,1.5586 0,0.60937 0,1.14843 -0.22266,1.60547 -0.30469,0.57421 -0.72656,0.77343 -1.20703,0.77343 z m 0,0"
         style="fill:#000000;fill-opacity:1;fill-rule:nonzero;stroke:none" />
      <path
         id="path8"
         d="m -81.317414,220.54761 c -0.210938,0.0117 -0.257813,0.0234 -0.257813,0.12891 0,0.11718 0.05859,0.11718 0.28125,0.11718 h 0.550782 c 1.007812,0 1.464843,0.84375 1.464843,1.99219 0,1.55859 -0.808593,1.98047 -1.394531,1.98047 -0.574219,0 -1.558594,-0.28125 -1.898437,-1.06641 0.375,0.0586 0.726562,-0.15234 0.726562,-0.58593 0,-0.33985 -0.257812,-0.58594 -0.585937,-0.58594 -0.292969,0 -0.597657,0.16406 -0.597657,0.62109 0,1.06641 1.066407,1.9336 2.390625,1.9336 1.417969,0 2.472657,-1.07813 2.472657,-2.28516 0,-1.10156 -0.890625,-1.96875 -2.027344,-2.16797 1.03125,-0.30469 1.699219,-1.17187 1.699219,-2.10937 0,-0.9375 -0.972657,-1.62891 -2.132813,-1.62891 -1.195312,0 -2.085937,0.72656 -2.085937,1.59375 0,0.48047 0.375,0.57422 0.550781,0.57422 0.257812,0 0.539062,-0.17578 0.539062,-0.53906 0,-0.375 -0.28125,-0.53907 -0.550781,-0.53907 -0.07031,0 -0.09375,0 -0.128906,0.0117 0.457031,-0.82031 1.582031,-0.82031 1.640625,-0.82031 0.386719,0 1.171875,0.17578 1.171875,1.34766 0,0.23437 -0.03516,0.90234 -0.386719,1.41796 -0.351562,0.52735 -0.761719,0.5625 -1.089844,0.57422 z m 9.005859,0.46875 c 0,-0.99609 -0.05859,-1.96875 -0.492187,-2.87109 -0.492188,-0.9961 -1.347656,-1.25391 -1.933594,-1.25391 -0.691406,0 -1.546875,0.33984 -1.980469,1.33594 -0.339843,0.75 -0.457031,1.48828 -0.457031,2.78906 0,1.16016 0.08203,2.02734 0.515625,2.87109 0.457031,0.91407 1.289063,1.19532 1.910156,1.19532 1.042969,0 1.640625,-0.6211 1.980469,-1.3125 0.433594,-0.89063 0.457031,-2.0625 0.457031,-2.75391 z m -2.4375,3.83203 c -0.386718,0 -1.160156,-0.21094 -1.382812,-1.52344 -0.140625,-0.71484 -0.140625,-1.61718 -0.140625,-2.46093 0,-0.97266 0,-1.86329 0.199219,-2.56641 0.199218,-0.79688 0.808593,-1.17188 1.324218,-1.17188 0.457032,0 1.148438,0.28125 1.371094,1.30079 0.152344,0.67968 0.152344,1.6289 0.152344,2.4375 0,0.80859 0,1.71093 -0.128906,2.4375 -0.222657,1.32421 -0.972657,1.54687 -1.394532,1.54687 z m 0,0"
         style="fill:#000000;fill-opacity:1;fill-rule:nonzero;stroke:none" />
      <path
         id="path9"
         d="m 169.77145,220.54761 c -0.21093,0.0117 -0.25781,0.0234 -0.25781,0.12891 0,0.11718 0.0586,0.11718 0.28125,0.11718 h 0.55078 c 1.00781,0 1.46485,0.84375 1.46485,1.99219 0,1.55859 -0.8086,1.98047 -1.39454,1.98047 -0.57421,0 -1.55859,-0.28125 -1.89843,-1.06641 0.375,0.0586 0.72656,-0.15234 0.72656,-0.58593 0,-0.33985 -0.25781,-0.58594 -0.58594,-0.58594 -0.29297,0 -0.59765,0.16406 -0.59765,0.62109 0,1.06641 1.0664,1.9336 2.39062,1.9336 1.41797,0 2.47266,-1.07813 2.47266,-2.28516 0,-1.10156 -0.89063,-1.96875 -2.02735,-2.16797 1.03125,-0.30469 1.69922,-1.17187 1.69922,-2.10937 0,-0.9375 -0.97265,-1.62891 -2.13281,-1.62891 -1.19531,0 -2.08594,0.72656 -2.08594,1.59375 0,0.48047 0.375,0.57422 0.55078,0.57422 0.25782,0 0.53907,-0.17578 0.53907,-0.53906 0,-0.375 -0.28125,-0.53907 -0.55079,-0.53907 -0.0703,0 -0.0937,0 -0.1289,0.0117 0.45703,-0.82031 1.58203,-0.82031 1.64062,-0.82031 0.38672,0 1.17188,0.17578 1.17188,1.34766 0,0.23437 -0.0352,0.90234 -0.38672,1.41796 -0.35156,0.52735 -0.76172,0.5625 -1.08984,0.57422 z m 9.00293,0.46875 c 0,-0.99609 -0.0586,-1.96875 -0.49218,-2.87109 -0.49219,-0.9961 -1.34766,-1.25391 -1.9336,-1.25391 -0.6914,0 -1.54687,0.33984 -1.98047,1.33594 -0.33984,0.75 -0.45703,1.48828 -0.45703,2.78906 0,1.16016 0.082,2.02734 0.51563,2.87109 0.45703,0.91407 1.28906,1.19532 1.91015,1.19532 1.04297,0 1.64063,-0.6211 1.98047,-1.3125 0.4336,-0.89063 0.45703,-2.0625 0.45703,-2.75391 z m -2.4375,3.83203 c -0.38672,0 -1.16015,-0.21094 -1.38281,-1.52344 -0.14062,-0.71484 -0.14062,-1.61718 -0.14062,-2.46093 0,-0.97266 0,-1.86329 0.19921,-2.56641 0.19922,-0.79688 0.8086,-1.17188 1.32422,-1.17188 0.45703,0 1.14844,0.28125 1.3711,1.30079 0.15234,0.67968 0.15234,1.6289 0.15234,2.4375 0,0.80859 0,1.71093 -0.12891,2.4375 -0.22265,1.32421 -0.97265,1.54687 -1.39453,1.54687 z m 8.29102,-3.83203 c 0,-0.99609 -0.0586,-1.96875 -0.49219,-2.87109 -0.49219,-0.9961 -1.34766,-1.25391 -1.93359,-1.25391 -0.69141,0 -1.54688,0.33984 -1.98047,1.33594 -0.33985,0.75 -0.45703,1.48828 -0.45703,2.78906 0,1.16016 0.082,2.02734 0.51562,2.87109 0.45703,0.91407 1.28906,1.19532 1.91016,1.19532 1.04297,0 1.64062,-0.6211 1.98047,-1.3125 0.43359,-0.89063 0.45703,-2.0625 0.45703,-2.75391 z m -2.4375,3.83203 c -0.38672,0 -1.16016,-0.21094 -1.38281,-1.52344 -0.14063,-0.71484 -0.14063,-1.61718 -0.14063,-2.46093 0,-0.97266 0,-1.86329 0.19922,-2.56641 0.19922,-0.79688 0.80859,-1.17188 1.32422,-1.17188 0.45703,0 1.14844,0.28125 1.37109,1.30079 0.15235,0.67968 0.15235,1.6289 0.15235,2.4375 0,0.80859 0,1.71093 -0.12891,2.4375 -0.22266,1.32421 -0.97266,1.54687 -1.39453,1.54687 z m 0,0"
         style="fill:#000000;fill-opacity:1;fill-rule:nonzero;stroke:none" />
      <path
         id="path10"
         d="m -71.520539,232.43921 c 0.503906,0.16406 0.925781,0.17578 1.054687,0.17578 1.359375,0 2.214844,-0.99609 2.214844,-1.16015 0,-0.0469 -0.02344,-0.10547 -0.09375,-0.10547 -0.02344,0 -0.04687,0 -0.152344,0.0469 -0.667968,0.28125 -1.242187,0.31641 -1.558593,0.31641 -0.785157,0 -1.347657,-0.23438 -1.582032,-0.32813 -0.08203,-0.0352 -0.105468,-0.0352 -0.117187,-0.0352 -0.09375,0 -0.09375,0.0703 -0.09375,0.25781 v 3.55078 c 0,0.21094 0,0.29297 0.140625,0.29297 0.05859,0 0.07031,-0.0117 0.199219,-0.16406 0.328125,-0.49219 0.890625,-0.77344 1.488281,-0.77344 0.632812,0 0.949219,0.58594 1.042969,0.78516 0.199218,0.46875 0.210937,1.05468 0.210937,1.51171 0,0.45704 0,1.13672 -0.328125,1.67579 -0.269531,0.42187 -0.738281,0.72656 -1.253906,0.72656 -0.796875,0 -1.570313,-0.53906 -1.78125,-1.40625 0.05859,0.0234 0.128906,0.0352 0.1875,0.0352 0.199219,0 0.527344,-0.1289 0.527344,-0.52734 0,-0.33984 -0.234375,-0.52734 -0.527344,-0.52734 -0.210938,0 -0.527344,0.10547 -0.527344,0.57422 0,1.00781 0.808594,2.16796 2.144531,2.16796 1.347657,0 2.53125,-1.125 2.53125,-2.64843 0,-1.41797 -0.960937,-2.60157 -2.214843,-2.60157 -0.679688,0 -1.207032,0.29297 -1.511719,0.63282 z m 0,0"
         style="fill:#000000;fill-opacity:1;fill-rule:nonzero;stroke:none" />
      <path
         id="path11"
         d="m 162.35055,232.43921 c 0.50391,0.16406 0.92579,0.17578 1.05469,0.17578 1.35938,0 2.21485,-0.99609 2.21485,-1.16015 0,-0.0469 -0.0234,-0.10547 -0.0937,-0.10547 -0.0234,0 -0.0469,0 -0.15235,0.0469 -0.66797,0.28125 -1.24219,0.31641 -1.55859,0.31641 -0.78516,0 -1.34766,-0.23438 -1.58203,-0.32813 -0.082,-0.0352 -0.10547,-0.0352 -0.11719,-0.0352 -0.0937,0 -0.0937,0.0703 -0.0937,0.25781 v 3.55078 c 0,0.21094 0,0.29297 0.14062,0.29297 0.0586,0 0.0703,-0.0117 0.19922,-0.16406 0.32813,-0.49219 0.89063,-0.77344 1.48828,-0.77344 0.63282,0 0.94922,0.58594 1.04297,0.78516 0.19922,0.46875 0.21094,1.05468 0.21094,1.51171 0,0.45704 0,1.13672 -0.32812,1.67579 -0.26954,0.42187 -0.73829,0.72656 -1.25391,0.72656 -0.79688,0 -1.57031,-0.53906 -1.78125,-1.40625 0.0586,0.0234 0.12891,0.0352 0.1875,0.0352 0.19922,0 0.52734,-0.1289 0.52734,-0.52734 0,-0.33984 -0.23437,-0.52734 -0.52734,-0.52734 -0.21094,0 -0.52734,0.10547 -0.52734,0.57422 0,1.00781 0.80859,2.16796 2.14453,2.16796 1.34765,0 2.53125,-1.125 2.53125,-2.64843 0,-1.41797 -0.96094,-2.60157 -2.21485,-2.60157 -0.67968,0 -1.20703,0.29297 -1.51172,0.63282 z m 9.67383,3.02344 c 0,-0.9961 -0.0586,-1.96875 -0.49218,-2.8711 -0.49219,-0.99609 -1.34766,-1.2539 -1.9336,-1.2539 -0.6914,0 -1.54687,0.33984 -1.98047,1.33594 -0.33984,0.75 -0.45703,1.48828 -0.45703,2.78906 0,1.16015 0.082,2.02734 0.51563,2.87109 0.45703,0.91406 1.28906,1.19531 1.91015,1.19531 1.04297,0 1.64063,-0.62109 1.98047,-1.3125 0.4336,-0.89062 0.45703,-2.0625 0.45703,-2.7539 z m -2.4375,3.83203 c -0.38672,0 -1.16015,-0.21094 -1.38281,-1.52344 -0.14062,-0.71484 -0.14062,-1.61719 -0.14062,-2.46094 0,-0.97265 0,-1.86328 0.19921,-2.5664 0.19922,-0.79688 0.8086,-1.17188 1.32422,-1.17188 0.45703,0 1.14844,0.28125 1.3711,1.30078 0.15234,0.67969 0.15234,1.62891 0.15234,2.4375 0,0.8086 0,1.71094 -0.12891,2.4375 -0.22265,1.32422 -0.97265,1.54688 -1.39453,1.54688 z m 0,0"
         style="fill:#000000;fill-opacity:1;fill-rule:nonzero;stroke:none" />
      <path
         id="path12"
         d="m -98.836945,277.54175 c 0.234375,0 0.328125,0 0.328125,-0.22266 0,-0.1289 -0.09375,-0.1289 -0.304688,-0.1289 h -0.972656 c 0.234375,-1.23047 0.398437,-2.07422 0.492187,-2.46094 0.07031,-0.28125 0.328125,-0.5625 0.632813,-0.5625 0.257812,0 0.503906,0.10547 0.621094,0.22266 -0.46875,0.0469 -0.609375,0.38672 -0.609375,0.59765 0,0.23438 0.1875,0.375 0.410156,0.375 0.234375,0 0.597656,-0.19922 0.597656,-0.65625 0,-0.5039 -0.503906,-0.77343 -1.03125,-0.77343 -0.515625,0 -1.007812,0.38671 -1.253906,0.84375 -0.210941,0.42187 -0.328121,0.85546 -0.609371,2.41406 h -0.79688 c -0.23437,0 -0.35156,0 -0.35156,0.22265 0,0.12891 0.0703,0.12891 0.3164,0.12891 h 0.76172 c -0.21093,1.11328 -0.70312,3.80859 -0.98437,5.08594 -0.19922,1.04297 -0.375,1.92187 -0.97266,1.92187 -0.0352,0 -0.38672,0 -0.59765,-0.23437 0.60937,-0.0469 0.60937,-0.57422 0.60937,-0.58594 0,-0.23437 -0.1875,-0.375 -0.41016,-0.375 -0.23437,0 -0.59765,0.19922 -0.59765,0.65625 0,0.51563 0.52734,0.77344 0.99609,0.77344 1.21875,0 1.72266,-2.19141 1.85156,-2.78906 0.21094,-0.91407 0.79688,-4.08985 0.855473,-4.45313 z m 0,0"
         style="fill:#000000;fill-opacity:1;fill-rule:nonzero;stroke:none" />
      <path
         id="path13"
         d="m -93.589875,277.76441 c 0,-0.31641 -0.28125,-0.57422 -0.574219,-0.57422 -0.351562,0 -0.585937,0.28125 -0.585937,0.57422 0,0.36328 0.292969,0.58593 0.574219,0.58593 0.316406,0 0.585937,-0.24609 0.585937,-0.58593 z m 0,3.99609 c 0,-0.32812 -0.28125,-0.57422 -0.574219,-0.57422 -0.351562,0 -0.585937,0.28125 -0.585937,0.57422 0,0.36328 0.292969,0.58594 0.574219,0.58594 0.316406,0 0.585937,-0.2461 0.585937,-0.58594 z m 0,0"
         style="fill:#000000;fill-opacity:1;fill-rule:nonzero;stroke:none" />
      <path
         id="path14"
         d="m -85.357453,278.59644 h 0.433594 l 1.792968,2.76562 c 0.117188,0.19922 0.410157,0.65625 0.539063,0.84375 0.08203,0.14063 0.117187,0.14063 0.398437,0.14063 h 1.640625 c 0.222657,0 0.398438,0 0.398438,-0.21094 0,-0.10547 -0.07031,-0.1875 -0.175781,-0.21094 -0.445313,-0.0937 -1.03125,-0.8789 -1.3125,-1.26562 -0.09375,-0.11719 -0.691407,-0.90235 -1.488282,-2.20313 1.066407,-0.1875 2.097657,-0.64453 2.097657,-2.0625 0,-1.66406 -1.757813,-2.23828 -3.175782,-2.23828 h -3.75 c -0.210937,0 -0.410156,0 -0.410156,0.22266 0,0.19922 0.234375,0.19922 0.328125,0.19922 0.679688,0 0.738281,0.082 0.738281,0.67968 v 5.98829 c 0,0.59765 -0.05859,0.67968 -0.738281,0.67968 -0.09375,0 -0.328125,0 -0.328125,0.21094 0,0.21094 0.199219,0.21094 0.410156,0.21094 h 3.269532 c 0.222656,0 0.398437,0 0.398437,-0.21094 0,-0.21094 -0.199219,-0.21094 -0.328125,-0.21094 -0.691406,0 -0.738281,-0.0937 -0.738281,-0.67968 z m 2.308594,-0.58594 c 0.339843,-0.44531 0.375,-1.07812 0.375,-1.60547 0,-0.57422 -0.07031,-1.20703 -0.457032,-1.69922 0.492188,0.10547 1.675782,0.48047 1.675782,1.6875 0,0.77344 -0.363282,1.38282 -1.59375,1.61719 z m -2.308594,-2.78906 c 0,-0.2461 0,-0.64453 0.75,-0.64453 1.007812,0 1.511719,0.42187 1.511719,1.82812 0,1.54688 -0.363282,1.76953 -2.261719,1.76953 z m -1.617188,6.70312 c 0.09375,-0.21093 0.09375,-0.55078 0.09375,-0.65625 v -6.03515 c 0,-0.11719 0,-0.44532 -0.09375,-0.65625 h 1.359375 c -0.152343,0.1875 -0.152343,0.43359 -0.152343,0.60937 v 6.08203 c 0,0.11719 0,0.44532 0.09375,0.65625 z m 2.542969,-3.32812 c 0.08203,-0.0117 0.128906,-0.0234 0.222656,-0.0234 0.1875,0 0.445313,-0.0234 0.621094,-0.0469 0.1875,0.28125 1.476563,2.41406 2.460938,3.39843 h -1.148438 z m 0,0"
         style="fill:#000000;fill-opacity:1;fill-rule:nonzero;stroke:none" />
      <path
         id="path15"
         d="m -66.627961,279.59253 c -0.65625,0.50391 -0.984375,0.9961 -1.078125,1.14844 -0.539062,0.83203 -0.632812,1.58203 -0.632812,1.59375 0,0.14062 0.140625,0.14062 0.234375,0.14062 0.210937,0 0.222656,-0.0234 0.269531,-0.23437 0.269531,-1.17188 0.972656,-2.17969 2.332031,-2.73047 0.140625,-0.0469 0.175781,-0.0703 0.175781,-0.15234 0,-0.082 -0.07031,-0.11719 -0.09375,-0.12891 -0.527343,-0.21094 -1.980468,-0.80859 -2.425781,-2.8125 -0.03516,-0.14062 -0.04687,-0.17578 -0.257812,-0.17578 -0.09375,0 -0.234375,0 -0.234375,0.14062 0,0.0234 0.105468,0.77344 0.609375,1.58204 0.234375,0.35156 0.585937,0.77343 1.101562,1.16015 h -8.882812 c -0.222657,0 -0.433594,0 -0.433594,0.23438 0,0.23437 0.210937,0.23437 0.433594,0.23437 z m 0,0"
         style="fill:#000000;fill-opacity:1;fill-rule:nonzero;stroke:none" />
      <path
         id="path16"
         d="m -58.126008,278.59644 h 0.433594 l 1.792969,2.76562 c 0.117187,0.19922 0.410156,0.65625 0.539062,0.84375 0.08203,0.14063 0.117188,0.14063 0.398438,0.14063 h 1.640625 c 0.222656,0 0.398437,0 0.398437,-0.21094 0,-0.10547 -0.07031,-0.1875 -0.175781,-0.21094 -0.445313,-0.0937 -1.03125,-0.8789 -1.3125,-1.26562 -0.09375,-0.11719 -0.691406,-0.90235 -1.488281,-2.20313 1.066406,-0.1875 2.097656,-0.64453 2.097656,-2.0625 0,-1.66406 -1.757813,-2.23828 -3.175781,-2.23828 h -3.75 c -0.210938,0 -0.410157,0 -0.410157,0.22266 0,0.19922 0.234375,0.19922 0.328125,0.19922 0.679688,0 0.738282,0.082 0.738282,0.67968 v 5.98829 c 0,0.59765 -0.05859,0.67968 -0.738282,0.67968 -0.09375,0 -0.328125,0 -0.328125,0.21094 0,0.21094 0.199219,0.21094 0.410157,0.21094 h 3.269531 c 0.222656,0 0.398437,0 0.398437,-0.21094 0,-0.21094 -0.199218,-0.21094 -0.328125,-0.21094 -0.691406,0 -0.738281,-0.0937 -0.738281,-0.67968 z m 2.308594,-0.58594 c 0.339844,-0.44531 0.375,-1.07812 0.375,-1.60547 0,-0.57422 -0.07031,-1.20703 -0.457031,-1.69922 0.492187,0.10547 1.675781,0.48047 1.675781,1.6875 0,0.77344 -0.363281,1.38282 -1.59375,1.61719 z m -2.308594,-2.78906 c 0,-0.2461 0,-0.64453 0.75,-0.64453 1.007813,0 1.511719,0.42187 1.511719,1.82812 0,1.54688 -0.363281,1.76953 -2.261719,1.76953 z m -1.617187,6.70312 c 0.09375,-0.21093 0.09375,-0.55078 0.09375,-0.65625 v -6.03515 c 0,-0.11719 0,-0.44532 -0.09375,-0.65625 h 1.359375 c -0.152344,0.1875 -0.152344,0.43359 -0.152344,0.60937 v 6.08203 c 0,0.11719 0,0.44532 0.09375,0.65625 z m 2.542968,-3.32812 c 0.08203,-0.0117 0.128907,-0.0234 0.222657,-0.0234 0.1875,0 0.445312,-0.0234 0.621093,-0.0469 0.1875,0.28125 1.476563,2.41406 2.460938,3.39843 h -1.148438 z m 0,0"
         style="fill:#000000;fill-opacity:1;fill-rule:nonzero;stroke:none" />
      <path
         id="path17"
         d="m 39.737273,306.74488 h -0.269531 c -0.03516,0.19921 -0.128906,0.85546 -0.246094,1.04296 -0.08203,0.11719 -0.761718,0.11719 -1.125,0.11719 h -2.214843 c 0.328125,-0.28125 1.054687,-1.04297 1.371093,-1.33594 1.816407,-1.66406 2.484375,-2.28515 2.484375,-3.46875 0,-1.38281 -1.089843,-2.29687 -2.472656,-2.29687 -1.394531,0 -2.203125,1.18359 -2.203125,2.20312 0,0.60938 0.527344,0.60938 0.5625,0.60938 0.246094,0 0.5625,-0.17578 0.5625,-0.5625 0,-0.32813 -0.234375,-0.55078 -0.5625,-0.55078 -0.105469,0 -0.128906,0 -0.164062,0.0117 0.222656,-0.82032 0.867187,-1.3711 1.640625,-1.3711 1.019531,0 1.640625,0.85547 1.640625,1.95703 0,1.00782 -0.585938,1.89844 -1.265625,2.66016 l -2.414063,2.70703 v 0.28125 h 4.359375 z m 0,0"
         style="fill:#000000;fill-opacity:1;fill-rule:nonzero;stroke:none" />
      <path
         id="path18"
         d="m 45.661102,303.94409 c 0.234375,0 0.328125,0 0.328125,-0.22265 0,-0.12891 -0.09375,-0.12891 -0.304688,-0.12891 h -0.972656 c 0.234375,-1.23047 0.398437,-2.07422 0.492187,-2.46094 0.07031,-0.28125 0.328125,-0.5625 0.632813,-0.5625 0.257812,0 0.503906,0.10547 0.621094,0.22266 -0.46875,0.0469 -0.609375,0.38672 -0.609375,0.59766 0,0.23437 0.1875,0.375 0.410156,0.375 0.234375,0 0.597656,-0.19922 0.597656,-0.65625 0,-0.50391 -0.503906,-0.77344 -1.03125,-0.77344 -0.515625,0 -1.007812,0.38672 -1.253906,0.84375 -0.210938,0.42187 -0.328125,0.85547 -0.609375,2.41406 h -0.796875 c -0.234375,0 -0.351563,0 -0.351563,0.22266 0,0.1289 0.07031,0.1289 0.316407,0.1289 h 0.761718 c -0.210937,1.11329 -0.703125,3.8086 -0.984375,5.08594 -0.199218,1.04297 -0.375,1.92188 -0.972656,1.92188 -0.03516,0 -0.386719,0 -0.597656,-0.23438 0.609375,-0.0469 0.609375,-0.57422 0.609375,-0.58594 0,-0.23437 -0.1875,-0.375 -0.410156,-0.375 -0.234375,0 -0.597657,0.19922 -0.597657,0.65625 0,0.51563 0.527344,0.77344 0.996094,0.77344 1.21875,0 1.722656,-2.1914 1.851563,-2.78906 0.210937,-0.91406 0.796875,-4.08984 0.855468,-4.45313 z m 0,0"
         style="fill:#000000;fill-opacity:1;fill-rule:nonzero;stroke:none" />
      <path
         id="path19"
         d="m 51.265594,311.65503 c 0,-0.0351 0,-0.0586 -0.210938,-0.26953 -1.195312,-1.20703 -1.863281,-3.17578 -1.863281,-5.61328 0,-2.32031 0.5625,-4.3125 1.945313,-5.73047 0.128906,-0.10547 0.128906,-0.12891 0.128906,-0.16406 0,-0.0703 -0.07031,-0.0937 -0.117188,-0.0937 -0.152343,0 -1.136718,0.85547 -1.722656,2.02734 -0.609375,1.20703 -0.878906,2.4961 -0.878906,3.96094 0,1.06641 0.164062,2.48437 0.785156,3.76172 0.703125,1.4414 1.6875,2.21484 1.816406,2.21484 0.04687,0 0.117188,-0.0234 0.117188,-0.0937 z m 0,0"
         style="fill:#000000;fill-opacity:1;fill-rule:nonzero;stroke:none" />
      <path
         id="path20"
         d="m 57.587859,303.87378 c -0.375,0.0703 -0.515625,0.35156 -0.515625,0.58594 0,0.28125 0.222657,0.375 0.386719,0.375 0.363281,0 0.609375,-0.30469 0.609375,-0.63281 0,-0.49219 -0.574219,-0.72657 -1.078125,-0.72657 -0.726562,0 -1.125,0.71485 -1.242187,0.94922 -0.269532,-0.90234 -1.007813,-0.94922 -1.230469,-0.94922 -1.21875,0 -1.863281,1.57032 -1.863281,1.82813 0,0.0469 0.04687,0.10547 0.128906,0.10547 0.105469,0 0.128906,-0.0703 0.152344,-0.11719 0.398437,-1.32422 1.207031,-1.57031 1.546875,-1.57031 0.539062,0 0.644531,0.49219 0.644531,0.78515 0,0.25782 -0.07031,0.53907 -0.210938,1.11329 l -0.410156,1.6289 c -0.175781,0.72656 -0.527344,1.38281 -1.160156,1.38281 -0.05859,0 -0.351563,0 -0.609375,-0.15234 0.433594,-0.0937 0.527344,-0.44531 0.527344,-0.58594 0,-0.24609 -0.175782,-0.38672 -0.398438,-0.38672 -0.292969,0 -0.597656,0.2461 -0.597656,0.63282 0,0.5039 0.5625,0.72656 1.066406,0.72656 0.574219,0 0.984375,-0.45703 1.230469,-0.9375 0.199219,0.70312 0.796875,0.9375 1.230469,0.9375 1.230468,0 1.875,-1.55859 1.875,-1.82813 0,-0.0586 -0.04687,-0.10546 -0.128907,-0.10546 -0.105468,0 -0.117187,0.0586 -0.152343,0.15234 -0.316407,1.05469 -1.019532,1.54687 -1.546875,1.54687 -0.421875,0 -0.65625,-0.3164 -0.65625,-0.80859 0,-0.25781 0.05859,-0.44531 0.246093,-1.24219 l 0.421875,-1.61718 c 0.175782,-0.72657 0.585938,-1.24219 1.125,-1.24219 0.03516,0 0.363282,0 0.609375,0.15234 z m 0,0"
         style="fill:#000000;fill-opacity:1;fill-rule:nonzero;stroke:none" />
      <path
         id="path21"
         d="m 61.956023,305.77222 c 0,-0.91406 -0.128906,-2.39063 -0.796875,-3.77344 -0.703125,-1.4414 -1.675781,-2.21484 -1.816406,-2.21484 -0.04687,0 -0.105469,0.0234 -0.105469,0.0937 0,0.0352 0,0.0586 0.199219,0.26953 1.195313,1.20703 1.875,3.17578 1.875,5.61328 0,2.32031 -0.5625,4.3125 -1.957031,5.73047 -0.117188,0.10547 -0.117188,0.12891 -0.117188,0.16406 0,0.0703 0.05859,0.0937 0.105469,0.0937 0.164063,0 1.136719,-0.85547 1.722656,-2.02734 0.609375,-1.21875 0.890625,-2.51953 0.890625,-3.94922 z m 8.601563,0.21094 h 3.304687 c 0.164063,0 0.375,0 0.375,-0.21094 0,-0.22266 -0.199218,-0.22266 -0.375,-0.22266 h -3.304687 v -3.30468 c 0,-0.16407 0,-0.38672 -0.210938,-0.38672 -0.234375,0 -0.234375,0.21093 -0.234375,0.38672 v 3.30468 h -3.292968 c -0.175782,0 -0.386719,0 -0.386719,0.21094 0,0.22266 0.199219,0.22266 0.386719,0.22266 h 3.292968 v 3.30468 c 0,0.16407 0,0.38672 0.222657,0.38672 0.222656,0 0.222656,-0.21093 0.222656,-0.38672 z m 9.19043,-1.52344 c -0.210938,0.0117 -0.257813,0.0234 -0.257813,0.12891 0,0.11718 0.05859,0.11718 0.28125,0.11718 h 0.550781 c 1.007813,0 1.464844,0.84375 1.464844,1.99219 0,1.55859 -0.808594,1.98047 -1.394531,1.98047 -0.574219,0 -1.558594,-0.28125 -1.898438,-1.06641 0.375,0.0586 0.726563,-0.15234 0.726563,-0.58593 0,-0.33985 -0.257813,-0.58594 -0.585938,-0.58594 -0.292968,0 -0.597656,0.16406 -0.597656,0.62109 0,1.06641 1.066406,1.9336 2.390625,1.9336 1.417969,0 2.472656,-1.07813 2.472656,-2.28516 0,-1.10156 -0.890625,-1.96875 -2.027343,-2.16797 1.03125,-0.30469 1.699218,-1.17187 1.699218,-2.10937 0,-0.9375 -0.972656,-1.62891 -2.132812,-1.62891 -1.195313,0 -2.085938,0.72656 -2.085938,1.59375 0,0.48047 0.375,0.57422 0.550782,0.57422 0.257812,0 0.539062,-0.17578 0.539062,-0.53906 0,-0.375 -0.28125,-0.53907 -0.550781,-0.53907 -0.07031,0 -0.09375,0 -0.128906,0.0117 0.457031,-0.82031 1.582031,-0.82031 1.640625,-0.82031 0.386718,0 1.171875,0.17578 1.171875,1.34766 0,0.23437 -0.03516,0.90234 -0.386719,1.41796 -0.351563,0.52735 -0.761719,0.5625 -1.089844,0.57422 z m 0,0"
         style="fill:#000000;fill-opacity:1;fill-rule:nonzero;stroke:none" />
      <path
         id="path22"
         d="m 88.736297,303.94409 c 0.234375,0 0.328125,0 0.328125,-0.22265 0,-0.12891 -0.09375,-0.12891 -0.304688,-0.12891 h -0.972656 c 0.234375,-1.23047 0.398438,-2.07422 0.492188,-2.46094 0.07031,-0.28125 0.328125,-0.5625 0.632812,-0.5625 0.257813,0 0.503906,0.10547 0.621094,0.22266 -0.46875,0.0469 -0.609375,0.38672 -0.609375,0.59766 0,0.23437 0.1875,0.375 0.410156,0.375 0.234375,0 0.597656,-0.19922 0.597656,-0.65625 0,-0.50391 -0.503906,-0.77344 -1.03125,-0.77344 -0.515625,0 -1.007812,0.38672 -1.253906,0.84375 -0.210937,0.42187 -0.328125,0.85547 -0.609375,2.41406 h -0.796875 c -0.234375,0 -0.351562,0 -0.351562,0.22266 0,0.1289 0.07031,0.1289 0.316406,0.1289 h 0.761719 c -0.210938,1.11329 -0.703125,3.8086 -0.984375,5.08594 -0.199219,1.04297 -0.375,1.92188 -0.972657,1.92188 -0.03516,0 -0.386718,0 -0.597656,-0.23438 0.609375,-0.0469 0.609375,-0.57422 0.609375,-0.58594 0,-0.23437 -0.1875,-0.375 -0.410156,-0.375 -0.234375,0 -0.597656,0.19922 -0.597656,0.65625 0,0.51563 0.527343,0.77344 0.996093,0.77344 1.21875,0 1.722657,-2.1914 1.851563,-2.78906 0.210937,-0.91406 0.796875,-4.08984 0.855469,-4.45313 z m 0,0"
         style="fill:#000000;fill-opacity:1;fill-rule:nonzero;stroke:none" />
      <path
         id="path23"
         d="m 97.375945,312.79761 c 0,-0.0469 -0.02344,-0.0703 -0.04687,-0.10547 -0.550781,-0.58594 -1.359375,-1.55859 -1.863281,-3.50391 -0.269531,-1.08984 -0.386719,-2.32031 -0.386719,-3.43359 0,-3.14062 0.761719,-5.34375 2.191407,-6.89062 0.105468,-0.11719 0.105468,-0.14063 0.105468,-0.16407 0,-0.11718 -0.09375,-0.11718 -0.140625,-0.11718 -0.175781,0 -0.820312,0.71484 -0.984375,0.90234 -1.21875,1.44141 -1.992187,3.59766 -1.992187,6.25781 0,1.69922 0.304687,4.10156 1.863281,6.11719 0.117188,0.15234 0.902344,1.05469 1.113281,1.05469 0.04687,0 0.140625,0 0.140625,-0.11719 z m 0,0"
         style="fill:#000000;fill-opacity:1;fill-rule:nonzero;stroke:none" />
      <path
         id="path24"
         d="m 101.36911,302.41187 c 0.12891,-0.11719 0.45703,-0.375 0.58594,-0.49219 0.49218,-0.45703 0.96093,-0.89063 0.96093,-1.61719 0,-0.94922 -0.79687,-1.55859 -1.79296,-1.55859 -0.94922,0 -1.582036,0.72656 -1.582036,1.42969 0,0.39843 0.316407,0.44531 0.421875,0.44531 0.164061,0 0.410161,-0.11719 0.410161,-0.42188 0,-0.41015 -0.398442,-0.41015 -0.492192,-0.41015 0.234372,-0.58594 0.773442,-0.78516 1.160152,-0.78516 0.73829,0 1.125,0.63281 1.125,1.30078 0,0.83203 -0.58593,1.42969 -1.52343,2.40235 l -1.007816,1.03125 c -0.09375,0.0937 -0.09375,0.10546 -0.09375,0.30468 h 3.152346 l 0.22265,-1.42968 h -0.24609 c -0.0234,0.16406 -0.082,0.5625 -0.17578,0.71484 -0.0469,0.0586 -0.65625,0.0586 -0.78516,0.0586 h -1.41797 z m 5.88574,-0.91407 c 0,-0.85546 -0.0937,-1.37109 -0.35156,-1.875 -0.35156,-0.70312 -0.99609,-0.8789 -1.44141,-0.8789 -0.99609,0 -1.37109,0.75 -1.47656,0.97265 -0.29297,0.57422 -0.30469,1.3711 -0.30469,1.78125 0,0.52735 0.0234,1.33594 0.41016,1.96875 0.36328,0.58594 0.94922,0.73829 1.37109,0.73829 0.38672,0 1.06641,-0.11719 1.46485,-0.90235 0.29297,-0.57422 0.32812,-1.28906 0.32812,-1.80469 z m -1.79297,2.48438 c -0.26953,0 -0.82031,-0.12891 -0.98437,-0.96094 -0.0937,-0.45703 -0.0937,-1.20703 -0.0937,-1.61719 0,-0.55078 0,-1.11328 0.0937,-1.54687 0.16406,-0.80859 0.78515,-0.89063 0.98437,-0.89063 0.26953,0 0.82032,0.12891 0.98438,0.85547 0.0937,0.44532 0.0937,1.04297 0.0937,1.58203 0,0.46875 0,1.1836 -0.0937,1.62891 -0.16406,0.84375 -0.71485,0.94922 -0.98438,0.94922 z m 4.63184,-5.01563 c 0,-0.22265 -0.0234,-0.22265 -0.23438,-0.22265 -0.32812,0.3164 -0.75,0.5039 -1.51171,0.5039 v 0.26954 c 0.22265,0 0.64453,0 1.11328,-0.22266 v 4.08984 c 0,0.29297 -0.0234,0.39844 -0.78516,0.39844 h -0.28125 v 0.25781 c 0.32813,-0.0234 1.01953,-0.0234 1.37109,-0.0234 0.36329,0 1.05469,0 1.38282,0.0234 v -0.25781 h -0.28125 c -0.75,0 -0.77344,-0.10547 -0.77344,-0.39844 z m 5.63086,2.53125 c 0,-0.85546 -0.0937,-1.37109 -0.35156,-1.875 -0.35157,-0.70312 -0.9961,-0.8789 -1.44141,-0.8789 -0.99609,0 -1.37109,0.75 -1.47656,0.97265 -0.29297,0.57422 -0.30469,1.3711 -0.30469,1.78125 0,0.52735 0.0234,1.33594 0.41016,1.96875 0.36328,0.58594 0.94921,0.73829 1.37109,0.73829 0.38672,0 1.06641,-0.11719 1.46484,-0.90235 0.29297,-0.57422 0.32813,-1.28906 0.32813,-1.80469 z m -1.79297,2.48438 c -0.26953,0 -0.82031,-0.12891 -0.98438,-0.96094 -0.0937,-0.45703 -0.0937,-1.20703 -0.0937,-1.61719 0,-0.55078 0,-1.11328 0.0937,-1.54687 0.16407,-0.80859 0.78516,-0.89063 0.98438,-0.89063 0.26953,0 0.82031,0.12891 0.98437,0.85547 0.0937,0.44532 0.0937,1.04297 0.0937,1.58203 0,0.46875 0,1.1836 -0.0937,1.62891 -0.16406,0.84375 -0.71484,0.94922 -0.98437,0.94922 z m 0,0"
         style="fill:#000000;fill-opacity:1;fill-rule:nonzero;stroke:none" />
    </g>
    <path
       id="path25"
       d="M 0,0 H 16.937"
       style="fill:none;stroke:#000000;stroke-width:0.478;stroke-linecap:butt;stroke-linejoin:miter;stroke-miterlimit:10;stroke-dasharray:none;stroke-opacity:1"
       transform="matrix(1.3333333,0,0,-1.3333333,406.88133,463.748)" />
    <g
       id="g25"
       aria-label="x&#10;&#10;=5x&#10;dlaka»dejliczbyrzeczywistejdodatniejx.Wyznaczf(6).&#10;ZADANIE5.&#10;Znajd¹wszystkieparyliczbcaªkowitychdodatnich(x,y),którespeªniaj¡równanie&#10;4&#10;x&#10;+260=y&#10;2&#10;.&#10;1"
       transform="matrix(1.3333333,0,0,1.3333333,414.99467,473.22933)">
      <path
         id="path26"
         d="m 3.9971641,-3.1749297 c -0.3515625,0.082031 -0.375,0.3984375 -0.375,0.421875 0,0.1757813 0.140625,0.3046875 0.3164062,0.3046875 0.1757813,0 0.4453125,-0.140625 0.4453125,-0.4804687 0,-0.4570313 -0.5039062,-0.5859375 -0.796875,-0.5859375 -0.375,0 -0.6796875,0.2695312 -0.8554687,0.5742187 -0.1757813,-0.421875 -0.5976563,-0.5742187 -0.9257813,-0.5742187 -0.86718749,0 -1.34765624,0.9960937 -1.34765624,1.21875 0,0.070312 0.0585938,0.1054687 0.1171875,0.1054687 0.09375,0 0.10546875,-0.035156 0.140625,-0.140625 0.17578125,-0.5742187 0.65625004,-0.9609375 1.06640624,-0.9609375 0.3164063,0 0.46875,0.2226563 0.46875,0.515625 0,0.1523438 -0.09375,0.5273438 -0.1640625,0.7734375 -0.058594,0.234375 -0.234375,0.9492188 -0.2695312,1.08984376 -0.1054688,0.43359375 -0.3984375,0.7734375 -0.7617188,0.7734375 -0.023437,0 -0.23437499,0 -0.39843749,-0.1171875 0.36328129,-0.0820313 0.36328129,-0.421875 0.36328129,-0.421875 0,-0.1875 -0.14062504,-0.3046875 -0.31640629,-0.3046875 -0.22265625,0 -0.4453125,0.1875 -0.4453125,0.4921875 0,0.36328125 0.38671875,0.57421875 0.79687499,0.57421875 0.421875,0 0.7148438,-0.31640625 0.8554688,-0.57421875 0.1757812,0.38671875 0.5390625,0.57421875 0.9257812,0.57421875 0.8671875,0 1.3476563,-0.99609375 1.3476563,-1.21875001 0,-0.082031 -0.058594,-0.1054687 -0.1171875,-0.1054687 -0.09375,0 -0.1171875,0.058594 -0.140625,0.1289062 -0.1523438,0.53906251 -0.609375,0.97265626 -1.078125,0.97265626 -0.2578125,0 -0.4453125,-0.17578125 -0.4453125,-0.515625 0,-0.15234375 0.046875,-0.33984375 0.1523437,-0.78515626 0.058594,-0.234375 0.234375,-0.9375 0.2695313,-1.0898437 0.1171875,-0.421875 0.3984375,-0.7617188 0.75,-0.7617188 0.046875,0 0.2460937,0 0.421875,0.1171875 z m 0,0"
         style="fill:#000000;fill-opacity:1;fill-rule:nonzero;stroke:none" />
      <path
         id="path27"
         d="m 28.920016,-7.9884062 c 0.164062,0 0.375,0 0.375,-0.2226563 0,-0.2226562 -0.199219,-0.2226562 -0.375,-0.2226562 h -7.042969 c -0.175781,0 -0.386719,0 -0.386719,0.2109375 0,0.234375 0.199219,0.234375 0.386719,0.234375 z m 0,2.2148437 c 0.164062,0 0.375,0 0.375,-0.2109375 0,-0.234375 -0.199219,-0.234375 -0.375,-0.234375 h -7.042969 c -0.175781,0 -0.386719,0 -0.386719,0.2226563 0,0.2226562 0.199219,0.2226562 0.386719,0.2226562 z m 5.891601,-5.1914065 c 0.503906,0.164063 0.925781,0.175782 1.054688,0.175782 1.359375,0 2.214843,-0.996094 2.214843,-1.160157 0,-0.04687 -0.02344,-0.105468 -0.09375,-0.105468 -0.02344,0 -0.04687,0 -0.152343,0.04687 -0.667969,0.28125 -1.242188,0.316406 -1.558594,0.316406 -0.785156,0 -1.347656,-0.234375 -1.582031,-0.328125 -0.08203,-0.03516 -0.105469,-0.03516 -0.117188,-0.03516 -0.09375,0 -0.09375,0.07031 -0.09375,0.257812 v 3.5507813 c 0,0.2109375 0,0.2929687 0.140625,0.2929687 0.05859,0 0.07031,-0.011719 0.199219,-0.1640625 0.328125,-0.4921875 0.890625,-0.7734375 1.488281,-0.7734375 0.632813,0 0.949219,0.5859375 1.042969,0.7851563 0.199219,0.46875 0.210937,1.0546875 0.210937,1.5117187 0,0.4570313 0,1.1367188 -0.328125,1.6757813 -0.269531,0.421875 -0.738281,0.7265625 -1.253906,0.7265625 -0.796875,0 -1.570312,-0.5390625 -1.78125,-1.40625 0.05859,0.023437 0.128906,0.035156 0.1875,0.035156 0.199219,0 0.527344,-0.1289062 0.527344,-0.5273437 0,-0.3398438 -0.234375,-0.5273438 -0.527344,-0.5273438 -0.210937,0 -0.527344,0.1054688 -0.527344,0.5742188 0,1.0078125 0.808594,2.1679687 2.144532,2.1679687 1.347656,0 2.53125,-1.125 2.53125,-2.6484375 0,-1.4179687 -0.960938,-2.6015625 -2.214844,-2.6015625 -0.679688,0 -1.207031,0.2929688 -1.511719,0.6328125 z m 0,0"
         style="fill:#000000;fill-opacity:1;fill-rule:nonzero;stroke:none" />
      <path
         id="path28"
         d="m 44.787203,-8.9962187 c -0.375,0.070312 -0.515625,0.3515625 -0.515625,0.5859375 0,0.28125 0.222656,0.375 0.386719,0.375 0.363281,0 0.609375,-0.3046875 0.609375,-0.6328125 0,-0.4921875 -0.574219,-0.7265625 -1.078125,-0.7265625 -0.726563,0 -1.125,0.7148437 -1.242188,0.9492187 -0.269531,-0.9023437 -1.007812,-0.9492187 -1.230468,-0.9492187 -1.21875,0 -1.863282,1.5703125 -1.863282,1.828125 0,0.046875 0.04687,0.1054687 0.128907,0.1054687 0.105468,0 0.128906,-0.070312 0.152343,-0.1171875 0.398438,-1.3242187 1.207032,-1.5703125 1.546875,-1.5703125 0.539063,0 0.644532,0.4921875 0.644532,0.7851563 0,0.2578125 -0.07031,0.5390625 -0.210938,1.1132812 l -0.410156,1.6289063 c -0.175781,0.7265625 -0.527344,1.3828125 -1.160156,1.3828125 -0.05859,0 -0.351563,0 -0.609375,-0.1523438 0.433593,-0.09375 0.527343,-0.4453125 0.527343,-0.5859375 0,-0.2460937 -0.175781,-0.3867187 -0.398437,-0.3867187 -0.292969,0 -0.597656,0.2460937 -0.597656,0.6328125 0,0.5039062 0.5625,0.7265625 1.066406,0.7265625 0.574219,0 0.984375,-0.4570313 1.230469,-0.9375 0.199218,0.703125 0.796875,0.9375 1.230468,0.9375 1.230469,0 1.875,-1.5585938 1.875,-1.828125 0,-0.058594 -0.04687,-0.1054688 -0.128906,-0.1054688 -0.105469,0 -0.117187,0.058594 -0.152344,0.1523438 -0.316406,1.0546875 -1.019531,1.546875 -1.546875,1.546875 -0.421875,0 -0.65625,-0.3164063 -0.65625,-0.8085938 0,-0.2578125 0.05859,-0.4453125 0.246094,-1.2421875 l 0.421875,-1.6171875 c 0.175781,-0.7265625 0.585938,-1.2421875 1.125,-1.2421875 0.03516,0 0.363281,0 0.609375,0.1523438 z m 0,0"
         style="fill:#000000;fill-opacity:1;fill-rule:nonzero;stroke:none" />
      <path
         id="path29"
         d="m -42.236234,17.403195 c -0.375,0.07031 -0.515625,0.351563 -0.515625,0.585938 0,0.28125 0.222656,0.375 0.386718,0.375 0.363282,0 0.609375,-0.304688 0.609375,-0.632813 0,-0.492187 -0.574218,-0.726562 -1.078125,-0.726562 -0.726562,0 -1.125,0.714844 -1.242187,0.949219 -0.269531,-0.902344 -1.007813,-0.949219 -1.230469,-0.949219 -1.21875,0 -1.863281,1.570312 -1.863281,1.828125 0,0.04687 0.04687,0.105469 0.128906,0.105469 0.105469,0 0.128906,-0.07031 0.152344,-0.117188 0.398437,-1.324219 1.207031,-1.570312 1.546875,-1.570312 0.539062,0 0.644531,0.492187 0.644531,0.785156 0,0.257812 -0.07031,0.539062 -0.210937,1.113281 l -0.410157,1.628906 c -0.175781,0.726563 -0.527343,1.382813 -1.160156,1.382813 -0.05859,0 -0.351562,0 -0.609375,-0.152344 0.433594,-0.09375 0.527344,-0.445312 0.527344,-0.585937 0,-0.246094 -0.175781,-0.386719 -0.398438,-0.386719 -0.292968,0 -0.597656,0.246094 -0.597656,0.632812 0,0.503907 0.5625,0.726563 1.066406,0.726563 0.574219,0 0.984375,-0.457031 1.230469,-0.9375 0.199219,0.703125 0.796875,0.9375 1.230469,0.9375 1.230469,0 1.875,-1.558594 1.875,-1.828125 0,-0.05859 -0.04687,-0.105469 -0.128906,-0.105469 -0.105469,0 -0.117188,0.05859 -0.152344,0.152344 -0.316406,1.054687 -1.019531,1.546875 -1.546875,1.546875 -0.421875,0 -0.65625,-0.316406 -0.65625,-0.808594 0,-0.257812 0.05859,-0.445312 0.246094,-1.242187 l 0.421875,-1.617188 c 0.175781,-0.726562 0.585937,-1.242187 1.125,-1.242187 0.03516,0 0.363281,0 0.609375,0.152343 z m 0,0"
         style="fill:#000000;fill-opacity:1;fill-rule:nonzero;stroke:none" />
      <path
         id="path30"
         d="m 21.622164,17.473508 c 0.234375,0 0.328125,0 0.328125,-0.222656 0,-0.128907 -0.09375,-0.128907 -0.304687,-0.128907 h -0.972657 c 0.234375,-1.230468 0.398438,-2.074218 0.492188,-2.460937 0.07031,-0.28125 0.328125,-0.5625 0.632812,-0.5625 0.257813,0 0.503907,0.105469 0.621094,0.222656 -0.46875,0.04687 -0.609375,0.386719 -0.609375,0.597656 0,0.234375 0.1875,0.375 0.410156,0.375 0.234375,0 0.597657,-0.199218 0.597657,-0.65625 0,-0.503906 -0.503907,-0.773437 -1.03125,-0.773437 -0.515625,0 -1.007813,0.386719 -1.253907,0.84375 -0.210937,0.421875 -0.328125,0.855469 -0.609375,2.414062 H 19.12607 c -0.234375,0 -0.351562,0 -0.351562,0.222657 0,0.128906 0.07031,0.128906 0.316406,0.128906 h 0.761719 c -0.210938,1.113281 -0.703125,3.808594 -0.984375,5.085937 -0.199219,1.042969 -0.375,1.921875 -0.972656,1.921875 -0.03516,0 -0.386719,0 -0.597657,-0.234375 0.609375,-0.04687 0.609375,-0.574218 0.609375,-0.585937 0,-0.234375 -0.1875,-0.375 -0.410156,-0.375 -0.234375,0 -0.597656,0.199219 -0.597656,0.65625 0,0.515625 0.527344,0.773437 0.996094,0.773437 1.21875,0 1.722656,-2.191406 1.851562,-2.789062 0.210938,-0.914063 0.796875,-4.089844 0.855469,-4.453125 z m 0,0"
         style="fill:#000000;fill-opacity:1;fill-rule:nonzero;stroke:none" />
      <path
         id="path31"
         d="m 27.229586,25.184445 c 0,-0.03516 0,-0.05859 -0.210938,-0.269531 -1.195312,-1.207031 -1.863281,-3.175781 -1.863281,-5.613281 0,-2.320313 0.5625,-4.3125 1.945313,-5.730469 0.128906,-0.105469 0.128906,-0.128906 0.128906,-0.164062 0,-0.07031 -0.07031,-0.09375 -0.117188,-0.09375 -0.152343,0 -1.136718,0.855468 -1.722656,2.027343 -0.609375,1.207032 -0.878906,2.496094 -0.878906,3.960938 0,1.066406 0.164062,2.484375 0.785156,3.761719 0.703125,1.441406 1.6875,2.214843 1.816406,2.214843 0.04687,0 0.117188,-0.02344 0.117188,-0.09375 z m 2.126953,-7.066406 c 0,-3.023437 1.476563,-3.503906 2.121094,-3.503906 0.433594,0 0.855469,0.128906 1.089844,0.492187 -0.140625,0 -0.597657,0 -0.597657,0.492188 0,0.257812 0.175782,0.492187 0.492188,0.492187 0.292969,0 0.492187,-0.1875 0.492187,-0.527343 0,-0.621094 -0.445312,-1.230469 -1.488281,-1.230469 -1.511719,0 -3.082031,1.535156 -3.082031,4.171875 0,3.28125 1.429687,4.019531 2.449219,4.019531 1.300781,0 2.414062,-1.125 2.414062,-2.683594 0,-1.59375 -1.113281,-2.660156 -2.308594,-2.660156 -1.066406,0 -1.453125,0.925781 -1.582031,1.265625 z m 1.476563,4.089844 c -0.75,0 -1.113282,-0.667969 -1.21875,-0.925781 -0.105469,-0.304688 -0.222657,-0.890625 -0.222657,-1.734375 0,-0.9375 0.421875,-2.121094 1.5,-2.121094 0.65625,0 1.007813,0.445312 1.183594,0.84375 0.1875,0.445312 0.1875,1.042969 0.1875,1.558594 0,0.609375 0,1.148437 -0.222656,1.605468 -0.304688,0.574219 -0.726563,0.773438 -1.207031,0.773438 z m 6.287109,-2.90625 c 0,-0.914063 -0.128906,-2.390625 -0.796875,-3.773438 -0.703125,-1.441406 -1.675781,-2.214843 -1.816406,-2.214843 -0.04687,0 -0.105469,0.02344 -0.105469,0.09375 0,0.03516 0,0.05859 0.199219,0.269531 1.195312,1.207031 1.875,3.175781 1.875,5.613281 0,2.320313 -0.5625,4.3125 -1.957032,5.730469 -0.117187,0.105469 -0.117187,0.128906 -0.117187,0.164062 0,0.07031 0.05859,0.09375 0.105469,0.09375 0.164062,0 1.136718,-0.855468 1.722656,-2.027343 0.609375,-1.21875 0.890625,-2.519532 0.890625,-3.949219 z m 0,0"
         style="fill:#000000;fill-opacity:1;fill-rule:nonzero;stroke:none" />
      <path
         id="path32"
         d="m 14.605563,68.247922 c 0,-0.03516 0,-0.05859 -0.210938,-0.269531 -1.195312,-1.207032 -1.863281,-3.175782 -1.863281,-5.613282 0,-2.320312 0.5625,-4.3125 1.945312,-5.730468 0.128907,-0.105469 0.128907,-0.128907 0.128907,-0.164063 0,-0.07031 -0.07031,-0.09375 -0.117188,-0.09375 -0.152344,0 -1.136719,0.855469 -1.722656,2.027344 -0.609375,1.207031 -0.878906,2.496094 -0.878906,3.960937 0,1.066407 0.164062,2.484375 0.785156,3.761719 0.703125,1.441406 1.6875,2.214844 1.816406,2.214844 0.04687,0 0.117188,-0.02344 0.117188,-0.09375 z m 0,0"
         style="fill:#000000;fill-opacity:1;fill-rule:nonzero;stroke:none" />
      <path
         id="path33"
         d="m 20.927828,60.466672 c -0.375,0.07031 -0.515625,0.351562 -0.515625,0.585937 0,0.28125 0.222656,0.375 0.386719,0.375 0.363281,0 0.609375,-0.304687 0.609375,-0.632812 0,-0.492188 -0.574219,-0.726563 -1.078125,-0.726563 -0.726563,0 -1.125,0.714844 -1.242188,0.949219 -0.269531,-0.902344 -1.007812,-0.949219 -1.230468,-0.949219 -1.21875,0 -1.863282,1.570313 -1.863282,1.828125 0,0.04687 0.04687,0.105469 0.128907,0.105469 0.105468,0 0.128906,-0.07031 0.152343,-0.117187 0.398438,-1.324219 1.207032,-1.570313 1.546875,-1.570313 0.539063,0 0.644532,0.492188 0.644532,0.785156 0,0.257813 -0.07031,0.539063 -0.210938,1.113282 l -0.410156,1.628906 c -0.175781,0.726562 -0.527344,1.382812 -1.160156,1.382812 -0.05859,0 -0.351563,0 -0.609375,-0.152343 0.433593,-0.09375 0.527343,-0.445313 0.527343,-0.585938 0,-0.246094 -0.175781,-0.386719 -0.398437,-0.386719 -0.292969,0 -0.597656,0.246094 -0.597656,0.632813 0,0.503906 0.5625,0.726562 1.066406,0.726562 0.574219,0 0.984375,-0.457031 1.230469,-0.9375 0.199218,0.703125 0.796875,0.9375 1.230468,0.9375 1.230469,0 1.875,-1.558593 1.875,-1.828125 0,-0.05859 -0.04687,-0.105468 -0.128906,-0.105468 -0.105469,0 -0.117187,0.05859 -0.152344,0.152343 -0.316406,1.054688 -1.019531,1.546875 -1.546875,1.546875 -0.421875,0 -0.65625,-0.316406 -0.65625,-0.808593 0,-0.257813 0.05859,-0.445313 0.246094,-1.242188 l 0.421875,-1.617187 c 0.175781,-0.726563 0.585938,-1.242188 1.125,-1.242188 0.03516,0 0.363281,0 0.609375,0.152344 z m 3.325195,4.921875 c 0,-0.691406 -0.222656,-1.207031 -0.714843,-1.207031 -0.386719,0 -0.574219,0.316406 -0.574219,0.574218 0,0.257813 0.175781,0.585938 0.585937,0.585938 0.152344,0 0.28125,-0.04687 0.386719,-0.152344 0.02344,-0.02344 0.03516,-0.02344 0.04687,-0.02344 0.03516,0 0.03516,0.164062 0.03516,0.222656 0,0.398437 -0.08203,1.171875 -0.773437,1.945312 -0.128906,0.152344 -0.128906,0.175782 -0.128906,0.199219 0,0.05859 0.05859,0.117188 0.117187,0.117188 0.09375,0 1.019531,-0.890625 1.019531,-2.261719 z m 6.055665,1.289062 c -0.316407,0.457032 -0.785157,0.867188 -1.371094,0.867188 -0.140625,0 -0.714844,-0.02344 -0.902344,-0.574219 0.04687,0.01172 0.105469,0.01172 0.128906,0.01172 0.351563,0 0.597657,-0.316406 0.597657,-0.585938 0,-0.28125 -0.234375,-0.375 -0.410157,-0.375 -0.1875,0 -0.609375,0.140625 -0.609375,0.726563 0,0.609375 0.515625,1.03125 1.195313,1.03125 1.195312,0 2.402344,-1.101563 2.742187,-2.425781 l 1.171875,-4.664063 c 0.01172,-0.05859 0.03516,-0.128906 0.03516,-0.199219 0,-0.175781 -0.152344,-0.304687 -0.328125,-0.304687 -0.105469,0 -0.363282,0.04687 -0.457032,0.410156 l -0.878906,3.515625 c -0.05859,0.210938 -0.05859,0.234375 -0.152344,0.375 -0.246093,0.328125 -0.644531,0.738281 -1.207031,0.738281 -0.679687,0 -0.738281,-0.65625 -0.738281,-0.984375 0,-0.679687 0.328125,-1.605468 0.644531,-2.460937 0.140625,-0.351563 0.210938,-0.515625 0.210938,-0.75 0,-0.503906 -0.363282,-0.960938 -0.949219,-0.960938 -1.101563,0 -1.535156,1.734375 -1.535156,1.828125 0,0.04687 0.04687,0.105469 0.128906,0.105469 0.105469,0 0.117187,-0.04687 0.164062,-0.210937 0.292969,-1.007813 0.738282,-1.476563 1.207032,-1.476563 0.105468,0 0.316406,0 0.316406,0.386719 0,0.316406 -0.140625,0.65625 -0.316406,1.113281 -0.585938,1.570313 -0.585938,1.957031 -0.585938,2.25 0,1.136719 0.808594,1.394531 1.40625,1.394531 0.351563,0 0.785156,-0.105468 1.195313,-0.550781 l 0.01172,0.01172 c -0.175781,0.703125 -0.292968,1.171875 -0.714843,1.757812 z m 0,0"
         style="fill:#000000;fill-opacity:1;fill-rule:nonzero;stroke:none" />
      <path
         id="path34"
         d="m 36.674898,62.365109 c 0,-0.914062 -0.128906,-2.390625 -0.796875,-3.773437 -0.703125,-1.441406 -1.675781,-2.214844 -1.816406,-2.214844 -0.04687,0 -0.105469,0.02344 -0.105469,0.09375 0,0.03516 0,0.05859 0.199219,0.269531 1.195313,1.207032 1.875,3.175782 1.875,5.613282 0,2.320312 -0.5625,4.3125 -1.957031,5.730468 -0.117188,0.105469 -0.117188,0.128907 -0.117188,0.164063 0,0.07031 0.05859,0.09375 0.105469,0.09375 0.164063,0 1.136719,-0.855469 1.722656,-2.027344 0.609375,-1.21875 0.890625,-2.519531 0.890625,-3.949219 z m 0,0"
         style="fill:#000000;fill-opacity:1;fill-rule:nonzero;stroke:none" />
      <path
         id="path35"
         d="m -44.641508,83.962766 c 0,-0.222657 0,-0.292969 -0.164062,-0.292969 -0.09375,0 -0.128907,0 -0.222657,0.152344 l -3.597656,5.578125 v 0.351562 h 3.140625 v 1.078125 c 0,0.445313 -0.02344,0.5625 -0.902344,0.5625 h -0.234375 v 0.351563 c 0.269532,-0.02344 1.21875,-0.02344 1.558594,-0.02344 0.328125,0 1.289063,0 1.558594,0.02344 v -0.351563 h -0.234375 c -0.867188,0 -0.902344,-0.117187 -0.902344,-0.5625 v -1.078125 h 1.207031 v -0.351562 h -1.207031 z m -0.785156,0.9375 v 4.5 h -2.90625 z m 0,0"
         style="fill:#000000;fill-opacity:1;fill-rule:nonzero;stroke:none" />
      <path
         id="path36"
         d="m -39.107328,83.631711 c -0.351563,0.08203 -0.375,0.398437 -0.375,0.421875 0,0.175781 0.140625,0.304687 0.316406,0.304687 0.175781,0 0.445313,-0.140625 0.445313,-0.480468 0,-0.457032 -0.503907,-0.585938 -0.796875,-0.585938 -0.375,0 -0.679688,0.269531 -0.855469,0.574219 -0.175781,-0.421875 -0.597656,-0.574219 -0.925781,-0.574219 -0.867188,0 -1.347657,0.996094 -1.347657,1.21875 0,0.07031 0.05859,0.105469 0.117188,0.105469 0.09375,0 0.105469,-0.03516 0.140625,-0.140625 0.175781,-0.574219 0.65625,-0.960938 1.066406,-0.960938 0.316406,0 0.46875,0.222657 0.46875,0.515625 0,0.152344 -0.09375,0.527344 -0.164062,0.773438 -0.05859,0.234375 -0.234375,0.949219 -0.269532,1.089844 -0.105468,0.433593 -0.398437,0.773437 -0.761718,0.773437 -0.02344,0 -0.234375,0 -0.398438,-0.117187 0.363281,-0.08203 0.363281,-0.421875 0.363281,-0.421875 0,-0.1875 -0.140625,-0.304688 -0.316406,-0.304688 -0.222656,0 -0.445312,0.1875 -0.445312,0.492188 0,0.363281 0.386718,0.574218 0.796875,0.574218 0.421875,0 0.714843,-0.316406 0.855468,-0.574218 0.175782,0.386718 0.539063,0.574218 0.925782,0.574218 0.867187,0 1.347656,-0.996093 1.347656,-1.21875 0,-0.08203 -0.05859,-0.105468 -0.117188,-0.105468 -0.09375,0 -0.117187,0.05859 -0.140625,0.128906 -0.152343,0.539062 -0.609375,0.972656 -1.078125,0.972656 -0.257812,0 -0.445312,-0.175781 -0.445312,-0.515625 0,-0.152344 0.04687,-0.339844 0.152344,-0.785156 0.05859,-0.234375 0.234375,-0.9375 0.269531,-1.089844 0.117187,-0.421875 0.398437,-0.761719 0.75,-0.761719 0.04687,0 0.246094,0 0.421875,0.117188 z m 0,0"
         style="fill:#000000;fill-opacity:1;fill-rule:nonzero;stroke:none" />
      <path
         id="path37"
         d="m -30.412016,88.978391 h 3.304688 c 0.164062,0 0.375,0 0.375,-0.210938 0,-0.222656 -0.199219,-0.222656 -0.375,-0.222656 h -3.304688 v -3.304688 c 0,-0.164062 0,-0.386718 -0.210937,-0.386718 -0.234375,0 -0.234375,0.210937 -0.234375,0.386718 v 3.304688 h -3.292969 c -0.175781,0 -0.386719,0 -0.386719,0.210937 0,0.222657 0.199219,0.222657 0.386719,0.222657 h 3.292969 v 3.304687 c 0,0.164063 0,0.386719 0.222656,0.386719 0.222656,0 0.222656,-0.210938 0.222656,-0.386719 z m 12.251954,0.761718 h -0.269532 c -0.03516,0.199219 -0.128906,0.855469 -0.246093,1.042969 -0.08203,0.117188 -0.761719,0.117188 -1.125,0.117188 h -2.214844 c 0.328125,-0.28125 1.054687,-1.042969 1.371094,-1.335938 1.816406,-1.664062 2.484375,-2.285156 2.484375,-3.46875 0,-1.382812 -1.089844,-2.296875 -2.472657,-2.296875 -1.394531,0 -2.203125,1.183594 -2.203125,2.203125 0,0.609375 0.527344,0.609375 0.5625,0.609375 0.246094,0 0.5625,-0.175781 0.5625,-0.5625 0,-0.328125 -0.234375,-0.550781 -0.5625,-0.550781 -0.105468,0 -0.128906,0 -0.164062,0.01172 0.222656,-0.820313 0.867187,-1.371094 1.640625,-1.371094 1.019531,0 1.640625,0.855469 1.640625,1.957031 0,1.007813 -0.585938,1.898438 -1.265625,2.660156 l -2.414063,2.707032 v 0.28125 h 4.359375 z m 2.05664,-2.15625 c 0,-3.023437 1.476563,-3.503906 2.121094,-3.503906 0.433594,0 0.855469,0.128906 1.089844,0.492188 -0.140625,0 -0.597657,0 -0.597657,0.492187 0,0.257813 0.175782,0.492188 0.492188,0.492188 0.292969,0 0.492187,-0.1875 0.492187,-0.527344 0,-0.621094 -0.445312,-1.230469 -1.488281,-1.230469 -1.511719,0 -3.082031,1.535156 -3.082031,4.171875 0,3.28125 1.429687,4.019531 2.449219,4.019531 1.300781,0 2.414062,-1.125 2.414062,-2.683593 0,-1.59375 -1.113281,-2.660157 -2.308594,-2.660157 -1.066406,0 -1.453125,0.925782 -1.582031,1.265625 z m 1.476563,4.089844 c -0.75,0 -1.113282,-0.667969 -1.21875,-0.925781 -0.105469,-0.304688 -0.222657,-0.890625 -0.222657,-1.734375 0,-0.9375 0.421875,-2.121094 1.5,-2.121094 0.65625,0 1.007813,0.445313 1.183594,0.84375 0.1875,0.445313 0.1875,1.042969 0.1875,1.558594 0,0.609375 0,1.148437 -0.222656,1.605469 -0.304688,0.574218 -0.726563,0.773437 -1.207031,0.773437 z m 8.2675778,-3.75 c 0,-0.996094 -0.058594,-1.96875 -0.4921875,-2.871094 -0.4921875,-0.996093 -1.3476563,-1.253906 -1.9335938,-1.253906 -0.6914062,0 -1.5468745,0.339844 -1.9804685,1.335938 -0.339844,0.75 -0.457031,1.488281 -0.457031,2.789062 0,1.160156 0.08203,2.027344 0.515625,2.871094 0.457031,0.914062 1.289062,1.195312 1.9101558,1.195312 1.0429687,0 1.640625,-0.621093 1.9804687,-1.3125 0.4335938,-0.890625 0.4570313,-2.0625 0.4570313,-2.753906 z m -2.4375,3.832031 c -0.3867188,0 -1.1601563,-0.210937 -1.3828128,-1.523437 -0.140625,-0.714844 -0.140625,-1.617188 -0.140625,-2.460938 0,-0.972656 0,-1.863281 0.199219,-2.566406 0.1992188,-0.796875 0.8085938,-1.171875 1.3242188,-1.171875 0.4570312,0 1.1484375,0.28125 1.3710937,1.300781 0.1523438,0.679688 0.1523438,1.628907 0.1523438,2.4375 0,0.808594 0,1.710938 -0.1289063,2.4375 -0.2226562,1.324219 -0.9726562,1.546875 -1.3945312,1.546875 z M 5.53525,87.876828 c 0.1640625,0 0.375,0 0.375,-0.222656 0,-0.222656 -0.1992187,-0.222656 -0.375,-0.222656 h -7.0429687 c -0.1757813,0 -0.3867188,0 -0.3867188,0.210937 0,0.234375 0.1992188,0.234375 0.3867188,0.234375 z m 0,2.214844 c 0.1640625,0 0.375,0 0.375,-0.210938 0,-0.234375 -0.1992187,-0.234375 -0.375,-0.234375 h -7.0429687 c -0.1757813,0 -0.3867188,0 -0.3867188,0.222657 0,0.222656 0.1992188,0.222656 0.3867188,0.222656 z m 0,0"
         style="fill:#000000;fill-opacity:1;fill-rule:nonzero;stroke:none" />
      <path
         id="path38"
         d="m 13.026461,93.079953 c -0.316406,0.457031 -0.785156,0.867188 -1.371094,0.867188 -0.140625,0 -0.714844,-0.02344 -0.902344,-0.574219 0.04687,0.01172 0.105469,0.01172 0.128907,0.01172 0.351562,0 0.597656,-0.316407 0.597656,-0.585938 0,-0.28125 -0.234375,-0.375 -0.410156,-0.375 -0.1875,0 -0.609375,0.140625 -0.609375,0.726563 0,0.609375 0.515625,1.03125 1.195312,1.03125 1.195313,0 2.402344,-1.101563 2.742188,-2.425782 l 1.171875,-4.664062 c 0.01172,-0.05859 0.03516,-0.128906 0.03516,-0.199219 0,-0.175781 -0.152344,-0.304687 -0.328125,-0.304687 -0.105469,0 -0.363281,0.04687 -0.457031,0.410156 l -0.878907,3.515625 c -0.05859,0.210937 -0.05859,0.234375 -0.152343,0.375 -0.246094,0.328125 -0.644532,0.738281 -1.207032,0.738281 -0.679687,0 -0.738281,-0.65625 -0.738281,-0.984375 0,-0.679687 0.328125,-1.605469 0.644531,-2.460937 0.140625,-0.351563 0.210938,-0.515625 0.210938,-0.75 0,-0.503907 -0.363281,-0.960938 -0.949219,-0.960938 -1.101562,0 -1.535156,1.734375 -1.535156,1.828125 0,0.04687 0.04687,0.105469 0.128906,0.105469 0.105469,0 0.117188,-0.04687 0.164063,-0.210938 0.292968,-1.007812 0.738281,-1.476562 1.207031,-1.476562 0.105469,0 0.316406,0 0.316406,0.386719 0,0.316406 -0.140625,0.65625 -0.316406,1.113281 -0.585938,1.570312 -0.585938,1.957031 -0.585938,2.25 0,1.136719 0.808594,1.394531 1.40625,1.394531 0.351563,0 0.785157,-0.105469 1.195313,-0.550781 l 0.01172,0.01172 c -0.175782,0.703125 -0.292969,1.171875 -0.714844,1.757812 z m 0,0"
         style="fill:#000000;fill-opacity:1;fill-rule:nonzero;stroke:none" />
      <path
         id="path39"
         d="m 18.273531,85.178586 c 0.128907,-0.117188 0.457032,-0.375 0.585938,-0.492188 0.492187,-0.457031 0.960937,-0.890625 0.960937,-1.617187 0,-0.949219 -0.796875,-1.558594 -1.792968,-1.558594 -0.949219,0 -1.582032,0.726563 -1.582032,1.429688 0,0.398437 0.316407,0.445312 0.421875,0.445312 0.164063,0 0.410157,-0.117187 0.410157,-0.421875 0,-0.410156 -0.398438,-0.410156 -0.492188,-0.410156 0.234375,-0.585938 0.773438,-0.785156 1.160156,-0.785156 0.738282,0 1.125,0.632812 1.125,1.300781 0,0.832031 -0.585937,1.429687 -1.523437,2.402344 l -1.007813,1.03125 c -0.09375,0.09375 -0.09375,0.105468 -0.09375,0.304687 h 3.152344 l 0.222656,-1.429687 h -0.246093 c -0.02344,0.164062 -0.08203,0.5625 -0.175782,0.714843 -0.04687,0.05859 -0.65625,0.05859 -0.785156,0.05859 h -1.417969 z m 0,0"
         style="fill:#000000;fill-opacity:1;fill-rule:nonzero;stroke:none" />
      <path
         id="path40"
         d="m 22.958102,91.169797 c 0,-0.351563 -0.292969,-0.585938 -0.574219,-0.585938 -0.351563,0 -0.585938,0.292969 -0.585938,0.574219 0,0.351563 0.28125,0.585938 0.574219,0.585938 0.339844,0 0.585938,-0.28125 0.585938,-0.574219 z m 0,0"
         style="fill:#000000;fill-opacity:1;fill-rule:nonzero;stroke:none" />
    </g>
  </g>
</svg>
