<?xml version="1.0" encoding="UTF-8" standalone="no"?>
<!-- Created with Inkscape (http://www.inkscape.org/) -->

<svg
   version="1.1"
   id="svg1"
   width="794.55066"
   height="1123.6533"
   viewBox="0 0 794.55066 1123.6533"
   sodipodi:docname="LigaMatematycznaMatuskiego_Klasa7i8_Zestaw2_2021_2022_page0.pdf"
   xmlns:inkscape="http://www.inkscape.org/namespaces/inkscape"
   xmlns:sodipodi="http://sodipodi.sourceforge.net/DTD/sodipodi-0.dtd"
   xmlns="http://www.w3.org/2000/svg"
   xmlns:svg="http://www.w3.org/2000/svg">
  <defs
     id="defs1" />
  <sodipodi:namedview
     id="namedview1"
     pagecolor="#ffffff"
     bordercolor="#000000"
     borderopacity="0.25"
     inkscape:showpageshadow="2"
     inkscape:pageopacity="0.0"
     inkscape:pagecheckerboard="0"
     inkscape:deskcolor="#d1d1d1">
    <inkscape:page
       x="0"
       y="0"
       inkscape:label="1"
       id="page1"
       width="794.55066"
       height="1123.6533"
       margin="0"
       bleed="0" />
  </sodipodi:namedview>
  <g
     id="g1"
     inkscape:groupmode="layer"
     inkscape:label="1">
    <g
       id="g2"
       aria-label="LIGAMATEMATYCZNA&#10;im.ZdzisªawaMatuskiego&#10;LISTOPAD2021&#10;SZKOAPODSTAWOWA&#10;klasyVII-VIII&#10;ZADANIE1.&#10;Znajd¹wszystkieliczbyczterocyfrowe,któremaj¡takiedwadzielniki,»eichsumajestrówna&#10;110,aró»nica36.&#10;ZADANIE2.&#10;Poleprostok¡taABCDjestrówne24.NabokuABzaznaczonopunktEró»nyodpunktówA&#10;iB,naDCzaznaczonopunktFró»nyodpunktówCiD.Poletrójk¡taAFDjestrówne5.&#10;Obliczpoletrójk¡taECF.&#10;ZADANIE3.&#10;Adamdodaªzerow¡,pierwsz¡,drug¡itrzeci¡pot¦g¦pewnejliczbynaturalnejiotrzymaª400.&#10;Jakatoliczba?&#10;ZADANIE4.&#10;Naokr¦guzaznaczono55punktów.TrzyznichoznaczonoA,B,C.Aniapoliczyªapunktyod&#10;AdoC,przechodz¡crazprzezB,iotrzymaªa31.GdyliczyªaodAdoBprzechodz¡crazprzez&#10;C,touzyskaªa39.&#10;Wyznacznajmniejsz¡liczb¦punktówodCdoBprzyjednokrotnymprzej±ciuprzez&#10;punktA.&#10;Wyznacznajmniejsz¡liczb¦punktówodBdoAprzyprzej±ciuprzezpunktC.&#10;ZADANIE5.&#10;Wªadcapewnegokrólestwanagrodziªswoichdwóchdzielnychrycerzy:starszego110dukatami,&#10;mªodszego100dukatami.Monetyznajdowaªysi¦wdwóchrodzajachsakiewek:wmaªychbyªo&#10;po7dukatów,wdu»ychpo17dukatów.Ka»dyrycerzotrzymaª10sakiewek.&#10;Iledu»ychsakiewekotrzymaªstarszyrycerz?&#10;Ilemaªychsakiewekdostaªmªodszyrycerz?"
       transform="matrix(1.3333333,0,0,1.3333333,274.724,56.069333)">
      <path
         id="path2"
         d="m -144.77152,130.14624 c 0,-0.26953 0,-0.28125 -0.24609,-0.28125 -0.28125,0.31641 -0.87891,0.76172 -2.10937,0.76172 v 0.35156 c 0.26953,0 0.86718,0 1.52343,-0.3164 v 6.22265 c 0,0.4336 -0.0351,0.57422 -1.07812,0.57422 h -0.375 v 0.35156 c 0.3164,-0.0234 1.47656,-0.0234 1.875,-0.0234 0.39844,0 1.54687,0 1.86328,0.0234 v -0.35156 h -0.36328 c -1.05469,0 -1.08985,-0.14062 -1.08985,-0.57422 z m 5.85352,0 c 0,-0.26953 0,-0.28125 -0.24609,-0.28125 -0.28125,0.31641 -0.87891,0.76172 -2.10938,0.76172 v 0.35156 c 0.26953,0 0.86719,0 1.52344,-0.3164 v 6.22265 c 0,0.4336 -0.0352,0.57422 -1.07813,0.57422 h -0.375 v 0.35156 c 0.31641,-0.0234 1.47657,-0.0234 1.875,-0.0234 0.39844,0 1.54688,0 1.86329,0.0234 v -0.35156 h -0.36329 c -1.05468,0 -1.08984,-0.14062 -1.08984,-0.57422 z m 7.76367,3.84375 c 0,-0.99609 -0.0586,-1.96875 -0.49219,-2.87109 -0.49218,-0.9961 -1.34765,-1.25391 -1.93359,-1.25391 -0.69141,0 -1.54687,0.33985 -1.98047,1.33594 -0.33984,0.75 -0.45703,1.48828 -0.45703,2.78906 0,1.16016 0.082,2.02735 0.51563,2.8711 0.45703,0.91406 1.28906,1.19531 1.91015,1.19531 1.04297,0 1.64063,-0.6211 1.98047,-1.3125 0.43359,-0.89063 0.45703,-2.0625 0.45703,-2.75391 z m -2.4375,3.83203 c -0.38672,0 -1.16015,-0.21093 -1.38281,-1.52343 -0.14063,-0.71485 -0.14063,-1.61719 -0.14063,-2.46094 0,-0.97266 0,-1.86328 0.19922,-2.56641 0.19922,-0.79687 0.8086,-1.17187 1.32422,-1.17187 0.45703,0 1.14844,0.28125 1.3711,1.30078 0.15234,0.67969 0.15234,1.6289 0.15234,2.4375 0,0.80859 0,1.71094 -0.12891,2.4375 -0.22265,1.32422 -0.97265,1.54687 -1.39453,1.54687 z m 0,0"
         style="fill:#000000;fill-opacity:1;fill-rule:nonzero;stroke:none" />
      <path
         id="path3"
         d="m -71.239289,133.52124 c -0.210938,0.0117 -0.257813,0.0234 -0.257813,0.12891 0,0.11719 0.05859,0.11719 0.28125,0.11719 h 0.550782 c 1.007812,0 1.464843,0.84375 1.464843,1.99218 0,1.5586 -0.808593,1.98047 -1.394531,1.98047 -0.574219,0 -1.558594,-0.28125 -1.898437,-1.0664 0.375,0.0586 0.726562,-0.15235 0.726562,-0.58594 0,-0.33985 -0.257812,-0.58594 -0.585937,-0.58594 -0.292969,0 -0.597657,0.16406 -0.597657,0.62109 0,1.06641 1.066407,1.9336 2.390625,1.9336 1.417969,0 2.472657,-1.07813 2.472657,-2.28516 0,-1.10156 -0.890625,-1.96875 -2.027344,-2.16797 1.03125,-0.30468 1.699219,-1.17187 1.699219,-2.10937 0,-0.9375 -0.972657,-1.62891 -2.132813,-1.62891 -1.195312,0 -2.085937,0.72656 -2.085937,1.59375 0,0.48047 0.375,0.57422 0.550781,0.57422 0.257812,0 0.539062,-0.17578 0.539062,-0.53906 0,-0.375 -0.28125,-0.53906 -0.550781,-0.53906 -0.07031,0 -0.09375,0 -0.128906,0.0117 0.457031,-0.82031 1.582031,-0.82031 1.640625,-0.82031 0.386719,0 1.171875,0.17578 1.171875,1.34766 0,0.23437 -0.03516,0.90234 -0.386719,1.41797 -0.351562,0.52734 -0.761719,0.5625 -1.089844,0.57422 z m 5.115234,0.12891 c 0,-3.02344 1.476563,-3.50391 2.121094,-3.50391 0.433594,0 0.855469,0.12891 1.089844,0.49219 -0.140625,0 -0.597656,0 -0.597656,0.49219 0,0.25781 0.175781,0.49218 0.492187,0.49218 0.292969,0 0.492188,-0.1875 0.492188,-0.52734 0,-0.62109 -0.445313,-1.23047 -1.488282,-1.23047 -1.511718,0 -3.082031,1.53516 -3.082031,4.17188 0,3.28125 1.429688,4.01953 2.449219,4.01953 1.300781,0 2.414062,-1.125 2.414062,-2.6836 0,-1.59375 -1.113281,-2.66015 -2.308593,-2.66015 -1.066407,0 -1.453125,0.92578 -1.582032,1.26562 z m 1.476563,4.08984 c -0.75,0 -1.113281,-0.66797 -1.21875,-0.92578 -0.105469,-0.30469 -0.222656,-0.89062 -0.222656,-1.73437 0,-0.9375 0.421875,-2.1211 1.5,-2.1211 0.65625,0 1.007812,0.44531 1.183593,0.84375 0.1875,0.44531 0.1875,1.04297 0.1875,1.5586 0,0.60937 0,1.14843 -0.222656,1.60546 -0.304687,0.57422 -0.726562,0.77344 -1.207031,0.77344 z m 0,0"
         style="fill:#000000;fill-opacity:1;fill-rule:nonzero;stroke:none" />
      <path
         id="path4"
         d="m -62.959992,179.54956 c -0.410156,0.70313 -0.820313,0.9375 -1.394531,0.97266 -0.128907,0.0117 -0.222657,0.0117 -0.222657,0.23437 0,0.0703 0.05859,0.11719 0.140625,0.11719 0.210938,0 0.75,-0.0234 0.972657,-0.0234 0.339843,0 0.726562,0.0234 1.054687,0.0234 0.07031,0 0.222656,0 0.222656,-0.22265 0,-0.11719 -0.09375,-0.12891 -0.175781,-0.12891 -0.269531,-0.0234 -0.492187,-0.11719 -0.492187,-0.39844 0,-0.17578 0.07031,-0.30469 0.222656,-0.5625 l 0.902344,-1.51172 h 3.058593 c 0.01172,0.10547 0.01172,0.21094 0.02344,0.31641 0.03516,0.30469 0.175781,1.54687 0.175781,1.78125 0,0.35156 -0.609375,0.375 -0.796875,0.375 -0.140625,0 -0.269531,0 -0.269531,0.22266 0,0.1289 0.105469,0.1289 0.175781,0.1289 0.210938,0 0.445313,-0.0234 0.65625,-0.0234 h 0.679688 c 0.726562,0 1.253906,0.0234 1.265625,0.0234 0.08203,0 0.210937,0 0.210937,-0.22265 0,-0.12891 -0.105469,-0.12891 -0.28125,-0.12891 -0.65625,0 -0.667969,-0.10547 -0.714844,-0.45703 l -0.726562,-7.46485 c -0.02344,-0.23437 -0.07031,-0.25781 -0.199219,-0.25781 -0.117187,0 -0.1875,0.0234 -0.304687,0.19922 z m 1.441406,-1.83984 2.402344,-4.01953 0.410156,4.01953 z m 9.676758,-4.18359 c 0.117187,-0.44532 0.164062,-0.46875 0.621094,-0.46875 h 1.558593 c 1.347657,0 1.347657,1.14843 1.347657,1.2539 0,0.97266 -0.960938,2.20313 -2.542969,2.20313 h -1.722656 z m 2.027344,3.08203 c 1.300781,-0.2461 2.484375,-1.14844 2.484375,-2.25 0,-0.92578 -0.832032,-1.65235 -2.179688,-1.65235 h -3.832031 c -0.234375,0 -0.339844,0 -0.339844,0.23438 0,0.11719 0.105469,0.11719 0.292969,0.11719 0.726562,0 0.726562,0.0937 0.726562,0.22265 0,0.0234 0,0.0937 -0.04687,0.28125 l -1.617187,6.4336 c -0.105469,0.41015 -0.128906,0.52734 -0.960938,0.52734 -0.234375,0 -0.351562,0 -0.351562,0.22266 0,0.1289 0.07031,0.1289 0.304687,0.1289 h 4.101563 c 1.828125,0 3.246094,-1.38281 3.246094,-2.58984 0,-0.98438 -0.867188,-1.58203 -1.828125,-1.67578 z m -1.699219,3.91406 h -1.617188 c -0.164062,0 -0.1875,0 -0.257812,-0.0117 -0.128906,-0.0117 -0.152344,-0.0352 -0.152344,-0.12891 0,-0.082 0.03516,-0.15234 0.05859,-0.25781 l 0.832031,-3.375 h 2.25 c 1.40625,0 1.40625,1.3125 1.40625,1.40625 0,1.14844 -1.042969,2.36719 -2.519531,2.36719 z m 13.722656,-7.95703 c 0,-0.10547 -0.08203,-0.10547 -0.105469,-0.10547 -0.02344,0 -0.07031,0 -0.175781,0.11719 l -0.820312,1.00781 c -0.421875,-0.71484 -1.078125,-1.125 -1.96875,-1.125 -2.589844,0 -5.261719,2.61328 -5.261719,5.42578 0,1.99219 1.394531,3.23438 3.140625,3.23438 0.960937,0 1.792969,-0.39844 2.484375,-0.98438 1.042969,-0.87891 1.359375,-2.03906 1.359375,-2.13281 0,-0.10547 -0.09375,-0.10547 -0.140625,-0.10547 -0.105469,0 -0.117188,0.0703 -0.140625,0.11719 -0.550781,1.86328 -2.15625,2.76562 -3.351563,2.76562 -1.277343,0 -2.367187,-0.82031 -2.367187,-2.50781 0,-0.38672 0.117187,-2.46094 1.464844,-4.03125 0.65625,-0.76172 1.78125,-1.44141 2.917968,-1.44141 1.3125,0 1.898438,1.08985 1.898438,2.3086 0,0.3164 -0.03516,0.57422 -0.03516,0.62109 0,0.11719 0.117187,0.11719 0.152343,0.11719 0.140625,0 0.152344,-0.0117 0.199219,-0.23438 z m 2.179688,7.42969 c -0.105469,0.41015 -0.128907,0.52734 -0.960938,0.52734 -0.234375,0 -0.351562,0 -0.351562,0.22266 0,0.1289 0.07031,0.1289 0.304687,0.1289 h 3.796875 c 2.414063,0 4.769531,-2.49609 4.769531,-5.16797 0,-1.72265 -1.03125,-3 -2.742187,-3 h -3.832031 c -0.234375,0 -0.339844,0 -0.339844,0.23438 0,0.11719 0.105469,0.11719 0.292969,0.11719 0.726562,0 0.726562,0.0937 0.726562,0.22265 0,0.0234 0,0.0937 -0.04687,0.28125 z m 2.519531,-6.46875 c 0.117187,-0.44532 0.164062,-0.46875 0.621094,-0.46875 h 1.324218 c 1.113282,0 2.144532,0.60937 2.144532,2.26171 0,0.59766 -0.234375,2.67188 -1.394532,3.98438 -0.339843,0.39844 -1.242187,1.21875 -2.625,1.21875 h -1.359375 c -0.164062,0 -0.1875,0 -0.257812,-0.0117 -0.128906,-0.0117 -0.140625,-0.0352 -0.140625,-0.12891 0,-0.082 0.02344,-0.15234 0.04687,-0.25781 z m 0,0"
         style="fill:#000000;fill-opacity:1;fill-rule:nonzero;stroke:none" />
      <path
         id="path5"
         d="m 37.375945,178.86988 h -0.269531 c -0.03516,0.19921 -0.128906,0.85546 -0.246094,1.04296 -0.08203,0.11719 -0.761718,0.11719 -1.125,0.11719 h -2.214843 c 0.328125,-0.28125 1.054687,-1.04297 1.371093,-1.33594 1.816407,-1.66406 2.484375,-2.28515 2.484375,-3.46875 0,-1.38281 -1.089843,-2.29687 -2.472656,-2.29687 -1.394531,0 -2.203125,1.18359 -2.203125,2.20312 0,0.60938 0.527344,0.60938 0.5625,0.60938 0.246094,0 0.5625,-0.17578 0.5625,-0.5625 0,-0.32813 -0.234375,-0.55078 -0.5625,-0.55078 -0.105469,0 -0.128906,0 -0.164062,0.0117 0.222656,-0.82032 0.867187,-1.3711 1.640625,-1.3711 1.019531,0 1.640625,0.85547 1.640625,1.95703 0,1.00782 -0.585938,1.89844 -1.265625,2.66016 l -2.414063,2.70703 v 0.28125 h 4.359375 z m 4.901368,-5.77735 c 0,-0.22265 0,-0.29297 -0.164063,-0.29297 -0.09375,0 -0.128906,0 -0.222656,0.15235 l -3.597656,5.57812 v 0.35156 h 3.140625 v 1.07813 c 0,0.44531 -0.02344,0.5625 -0.902344,0.5625 h -0.234375 v 0.35156 c 0.269531,-0.0234 1.21875,-0.0234 1.558594,-0.0234 0.328125,0 1.289062,0 1.558593,0.0234 v -0.35156 h -0.234375 c -0.867187,0 -0.902343,-0.11719 -0.902343,-0.5625 v -1.07813 h 1.207031 v -0.35156 h -1.207031 z m -0.785157,0.9375 v 4.5 h -2.90625 z m 0,0"
         style="fill:#000000;fill-opacity:1;fill-rule:nonzero;stroke:none" />
      <path
         id="path6"
         d="m 100.45212,179.54956 c -0.41016,0.70313 -0.820315,0.9375 -1.394534,0.97266 -0.128906,0.0117 -0.222656,0.0117 -0.222656,0.23437 0,0.0703 0.05859,0.11719 0.140625,0.11719 0.210937,0 0.75,-0.0234 0.972656,-0.0234 0.339839,0 0.726559,0.0234 1.054689,0.0234 0.0703,0 0.22265,0 0.22265,-0.22265 0,-0.11719 -0.0937,-0.12891 -0.17578,-0.12891 -0.26953,-0.0234 -0.49218,-0.11719 -0.49218,-0.39844 0,-0.17578 0.0703,-0.30469 0.22265,-0.5625 l 0.90235,-1.51172 h 3.05859 c 0.0117,0.10547 0.0117,0.21094 0.0234,0.31641 0.0352,0.30469 0.17578,1.54687 0.17578,1.78125 0,0.35156 -0.60938,0.375 -0.79688,0.375 -0.14062,0 -0.26953,0 -0.26953,0.22266 0,0.1289 0.10547,0.1289 0.17578,0.1289 0.21094,0 0.44532,-0.0234 0.65625,-0.0234 h 0.67969 c 0.72656,0 1.25391,0.0234 1.26563,0.0234 0.082,0 0.21093,0 0.21093,-0.22265 0,-0.12891 -0.10547,-0.12891 -0.28125,-0.12891 -0.65625,0 -0.66797,-0.10547 -0.71484,-0.45703 l -0.72656,-7.46485 c -0.0234,-0.23437 -0.0703,-0.25781 -0.19922,-0.25781 -0.11719,0 -0.1875,0.0234 -0.30469,0.19922 z m 1.4414,-1.83984 2.40235,-4.01953 0.41015,4.01953 z m 9.67676,-4.18359 c 0.11719,-0.44532 0.16406,-0.46875 0.6211,-0.46875 h 1.55859 c 1.34766,0 1.34766,1.14843 1.34766,1.2539 0,0.97266 -0.96094,2.20313 -2.54297,2.20313 H 110.832 Z m 2.02735,3.08203 c 1.30078,-0.2461 2.48437,-1.14844 2.48437,-2.25 0,-0.92578 -0.83203,-1.65235 -2.17969,-1.65235 h -3.83203 c -0.23437,0 -0.33984,0 -0.33984,0.23438 0,0.11719 0.10547,0.11719 0.29297,0.11719 0.72656,0 0.72656,0.0937 0.72656,0.22265 0,0.0234 0,0.0937 -0.0469,0.28125 l -1.61718,6.4336 c -0.10547,0.41015 -0.12891,0.52734 -0.96094,0.52734 -0.23438,0 -0.35156,0 -0.35156,0.22266 0,0.1289 0.0703,0.1289 0.30468,0.1289 h 4.10157 c 1.82812,0 3.24609,-1.38281 3.24609,-2.58984 0,-0.98438 -0.86719,-1.58203 -1.82812,-1.67578 z m -1.69922,3.91406 h -1.61719 c -0.16406,0 -0.1875,0 -0.25781,-0.0117 -0.12891,-0.0117 -0.15235,-0.0352 -0.15235,-0.12891 0,-0.082 0.0352,-0.15234 0.0586,-0.25781 l 0.83203,-3.375 h 2.25 c 1.40625,0 1.40625,1.3125 1.40625,1.40625 0,1.14844 -1.04297,2.36719 -2.51953,2.36719 z m 0,0"
         style="fill:#000000;fill-opacity:1;fill-rule:nonzero;stroke:none" />
      <path
         id="path7"
         d="m 223.82712,178.09644 c 0.0117,-0.0352 0.0469,-0.11719 0.0469,-0.16406 0,-0.0586 -0.0469,-0.11719 -0.11719,-0.11719 -0.0469,0 -0.0703,0.0117 -0.10546,0.0469 -0.0234,0.0117 -0.0234,0.0352 -0.14063,0.26953 -0.70312,1.67579 -1.21875,2.39063 -3.12891,2.39063 h -1.74609 c -0.16406,0 -0.1875,0 -0.25781,-0.0117 -0.12891,-0.0117 -0.14063,-0.0352 -0.14063,-0.12891 0,-0.082 0.0234,-0.15234 0.0469,-0.25781 l 0.82031,-3.30469 h 1.18359 c 0.9375,0 1.00782,0.21094 1.00782,0.5625 0,0.11719 0,0.23438 -0.082,0.58594 -0.0352,0.0469 -0.0469,0.0937 -0.0469,0.12891 0,0.082 0.0703,0.1289 0.14063,0.1289 0.10546,0 0.11718,-0.0937 0.16406,-0.25781 l 0.67969,-2.77734 c 0,-0.0586 -0.0469,-0.11719 -0.11719,-0.11719 -0.10547,0 -0.11719,0.0469 -0.16406,0.22266 -0.2461,0.91406 -0.48047,1.18359 -1.54688,1.18359 h -1.13672 l 0.73828,-2.94141 c 0.11719,-0.42187 0.14063,-0.45703 0.6211,-0.45703 h 1.71093 c 1.47657,0 1.76954,0.39844 1.76954,1.30078 0,0.0117 0,0.35157 -0.0469,0.73829 -0.0117,0.0469 -0.0234,0.1289 -0.0234,0.15234 0,0.0937 0.0586,0.12891 0.12891,0.12891 0.082,0 0.14062,-0.0469 0.16406,-0.26954 l 0.2461,-2.08593 c 0,-0.0352 0.0234,-0.15235 0.0234,-0.17578 0,-0.14063 -0.10547,-0.14063 -0.3164,-0.14063 h -5.83594 c -0.23438,0 -0.35156,0 -0.35156,0.22266 0,0.1289 0.082,0.1289 0.29297,0.1289 0.73828,0 0.73828,0.082 0.73828,0.21094 0,0.0586 -0.0117,0.10547 -0.0469,0.24609 l -1.61719,6.45704 c -0.10546,0.41015 -0.1289,0.52734 -0.96093,0.52734 -0.23438,0 -0.35157,0 -0.35157,0.22266 0,0.1289 0.0703,0.1289 0.30469,0.1289 h 6 c 0.26953,0 0.28125,-0.0117 0.36328,-0.19922 z m 0,0"
         style="fill:#000000;fill-opacity:1;fill-rule:nonzero;stroke:none" />
      <path
         id="path8"
         d="m 326.92575,179.54956 c -0.41016,0.70313 -0.82031,0.9375 -1.39453,0.97266 -0.12891,0.0117 -0.22266,0.0117 -0.22266,0.23437 0,0.0703 0.0586,0.11719 0.14063,0.11719 0.21094,0 0.75,-0.0234 0.97265,-0.0234 0.33985,0 0.72657,0.0234 1.05469,0.0234 0.0703,0 0.22266,0 0.22266,-0.22265 0,-0.11719 -0.0937,-0.12891 -0.17578,-0.12891 -0.26953,-0.0234 -0.49219,-0.11719 -0.49219,-0.39844 0,-0.17578 0.0703,-0.30469 0.22266,-0.5625 l 0.90234,-1.51172 h 3.05859 c 0.0117,0.10547 0.0117,0.21094 0.0234,0.31641 0.0352,0.30469 0.17578,1.54687 0.17578,1.78125 0,0.35156 -0.60937,0.375 -0.79687,0.375 -0.14063,0 -0.26953,0 -0.26953,0.22266 0,0.1289 0.10546,0.1289 0.17578,0.1289 0.21093,0 0.44531,-0.0234 0.65625,-0.0234 h 0.67968 c 0.72657,0 1.25391,0.0234 1.26563,0.0234 0.082,0 0.21094,0 0.21094,-0.22265 0,-0.12891 -0.10547,-0.12891 -0.28125,-0.12891 -0.65625,0 -0.66797,-0.10547 -0.71485,-0.45703 l -0.72656,-7.46485 c -0.0234,-0.23437 -0.0703,-0.25781 -0.19922,-0.25781 -0.11719,0 -0.1875,0.0234 -0.30469,0.19922 z m 1.44141,-1.83984 2.40234,-4.01953 0.41016,4.01953 z m 0,0"
         style="fill:#000000;fill-opacity:1;fill-rule:nonzero;stroke:none" />
      <path
         id="path9"
         d="m -136.21683,187.97241 c 0.11719,-0.44531 0.16406,-0.46875 0.6211,-0.46875 h 1.55859 c 1.34766,0 1.34766,1.14844 1.34766,1.25391 0,0.97266 -0.96094,2.20313 -2.54297,2.20313 h -1.72266 z m 2.02735,3.08204 c 1.30078,-0.2461 2.48437,-1.14844 2.48437,-2.25 0,-0.92579 -0.83203,-1.65235 -2.17969,-1.65235 h -3.83203 c -0.23437,0 -0.33984,0 -0.33984,0.23438 0,0.11718 0.10547,0.11718 0.29297,0.11718 0.72656,0 0.72656,0.0937 0.72656,0.22266 0,0.0234 0,0.0937 -0.0469,0.28125 l -1.61718,6.43359 c -0.10547,0.41016 -0.12891,0.52735 -0.96094,0.52735 -0.23438,0 -0.35156,0 -0.35156,0.22265 0,0.12891 0.0703,0.12891 0.30468,0.12891 h 4.10157 c 1.82812,0 3.24609,-1.38281 3.24609,-2.58984 0,-0.98438 -0.86719,-1.58203 -1.82812,-1.67578 z m -1.69922,3.91406 h -1.61719 c -0.16406,0 -0.1875,0 -0.25781,-0.0117 -0.12891,-0.0117 -0.15235,-0.0352 -0.15235,-0.12891 0,-0.082 0.0352,-0.15234 0.0586,-0.25781 l 0.83203,-3.375 h 2.25 c 1.40625,0 1.40625,1.3125 1.40625,1.40625 0,1.14844 -1.04297,2.36719 -2.51953,2.36719 z m 0,0"
         style="fill:#000000;fill-opacity:1;fill-rule:nonzero;stroke:none" />
      <path
         id="path10"
         d="m -104.86038,194.44116 c -0.10547,0.41016 -0.12891,0.52735 -0.96094,0.52735 -0.23438,0 -0.35156,0 -0.35156,0.22265 0,0.12891 0.0703,0.12891 0.30468,0.12891 h 3.79688 c 2.414062,0 4.769531,-2.49609 4.769531,-5.16797 0,-1.72265 -1.03125,-3 -2.742191,-3 h -3.83203 c -0.23437,0 -0.33984,0 -0.33984,0.23438 0,0.11718 0.10547,0.11718 0.29297,0.11718 0.72656,0 0.72656,0.0937 0.72656,0.22266 0,0.0234 0,0.0937 -0.0469,0.28125 z m 2.51953,-6.46875 c 0.11719,-0.44531 0.16406,-0.46875 0.62109,-0.46875 h 1.32422 c 1.113282,0 2.144532,0.60938 2.144532,2.26172 0,0.59766 -0.234375,2.67188 -1.394531,3.98438 -0.339844,0.39844 -1.242191,1.21875 -2.625001,1.21875 h -1.35937 c -0.16407,0 -0.1875,0 -0.25782,-0.0117 -0.1289,-0.0117 -0.14062,-0.0352 -0.14062,-0.12891 0,-0.082 0.0234,-0.15234 0.0469,-0.25781 z m 14.578123,-0.96093 c 0,-0.10547 -0.08203,-0.10547 -0.105468,-0.10547 -0.02344,0 -0.07031,0 -0.175782,0.11719 l -0.820312,1.00781 c -0.421875,-0.71485 -1.078125,-1.125 -1.96875,-1.125 -2.589844,0 -5.261719,2.61328 -5.261719,5.42578 0,1.99219 1.394531,3.23437 3.140625,3.23437 0.960938,0 1.792969,-0.39843 2.484375,-0.98437 1.042969,-0.87891 1.359375,-2.03906 1.359375,-2.13281 0,-0.10547 -0.09375,-0.10547 -0.140625,-0.10547 -0.105469,0 -0.117187,0.0703 -0.140625,0.11719 -0.550781,1.86328 -2.15625,2.76562 -3.351562,2.76562 -1.277344,0 -2.367188,-0.82031 -2.367188,-2.50781 0,-0.38672 0.117188,-2.46094 1.464844,-4.03125 0.65625,-0.76172 1.78125,-1.44141 2.917969,-1.44141 1.3125,0 1.898437,1.08985 1.898437,2.3086 0,0.3164 -0.03516,0.57421 -0.03516,0.62109 0,0.11719 0.117187,0.11719 0.152344,0.11719 0.140625,0 0.152343,-0.0117 0.199218,-0.23438 z m 0,0"
         style="fill:#000000;fill-opacity:1;fill-rule:nonzero;stroke:none" />
      <path
         id="path11"
         d="m 16.668914,191.41773 h 1.148438 c 0.902343,0 0.984375,0.21093 0.984375,0.55078 0,0.16406 -0.03516,0.32812 -0.09375,0.58594 -0.02344,0.0469 -0.03516,0.11718 -0.03516,0.14062 0,0.082 0.04687,0.12891 0.140625,0.12891 0.09375,0 0.105469,-0.0469 0.152344,-0.2461 l 0.691406,-2.77734 c 0,-0.0469 -0.03516,-0.11719 -0.117187,-0.11719 -0.105469,0 -0.117188,0.0469 -0.175781,0.2461 -0.246094,0.89062 -0.480469,1.14843 -1.523438,1.14843 h -1.089844 l 0.773438,-3.09375 c 0.117187,-0.42187 0.140625,-0.45703 0.621094,-0.45703 h 1.605468 c 1.5,0 1.710938,0.44531 1.710938,1.28906 0,0.0703 0,0.33985 -0.03516,0.64454 -0.01172,0.0469 -0.03516,0.21093 -0.03516,0.25781 0,0.0937 0.05859,0.1289 0.128907,0.1289 0.08203,0 0.128906,-0.0469 0.152343,-0.26953 l 0.257813,-2.08593 c 0,-0.0352 0.02344,-0.15235 0.02344,-0.17579 0,-0.14062 -0.105468,-0.14062 -0.328125,-0.14062 h -5.660156 c -0.234375,0 -0.351562,0 -0.351562,0.22266 0,0.1289 0.08203,0.1289 0.292968,0.1289 0.738282,0 0.738282,0.082 0.738282,0.21094 0,0.0586 -0.01172,0.10547 -0.04687,0.24609 l -1.617188,6.45703 c -0.105469,0.41016 -0.128906,0.52735 -0.960937,0.52735 -0.234375,0 -0.351563,0 -0.351563,0.22265 0,0.12891 0.105469,0.12891 0.175781,0.12891 0.234375,0 0.46875,-0.0234 0.691407,-0.0234 h 1.558593 c 0.257813,0 0.550782,0.0234 0.808594,0.0234 0.117188,0 0.257813,0 0.257813,-0.21094 0,-0.14062 -0.07031,-0.14062 -0.339844,-0.14062 -0.9375,0 -0.960938,-0.082 -0.960938,-0.25781 0,-0.0586 0.02344,-0.15235 0.04687,-0.23438 z m 0,0"
         style="fill:#000000;fill-opacity:1;fill-rule:nonzero;stroke:none" />
      <path
         id="path12"
         d="m 133.60446,187.01148 c 0,-0.10547 -0.082,-0.10547 -0.10547,-0.10547 -0.0234,0 -0.0703,0 -0.17578,0.11719 l -0.82031,1.00781 c -0.42188,-0.71485 -1.07813,-1.125 -1.96875,-1.125 -2.58985,0 -5.26172,2.61328 -5.26172,5.42578 0,1.99219 1.39453,3.23437 3.14062,3.23437 0.96094,0 1.79297,-0.39843 2.48438,-0.98437 1.04297,-0.87891 1.35937,-2.03906 1.35937,-2.13281 0,-0.10547 -0.0937,-0.10547 -0.14062,-0.10547 -0.10547,0 -0.11719,0.0703 -0.14063,0.11719 -0.55078,1.86328 -2.15625,2.76562 -3.35156,2.76562 -1.27734,0 -2.36719,-0.82031 -2.36719,-2.50781 0,-0.38672 0.11719,-2.46094 1.46485,-4.03125 0.65625,-0.76172 1.78125,-1.44141 2.91797,-1.44141 1.3125,0 1.89843,1.08985 1.89843,2.3086 0,0.3164 -0.0351,0.57421 -0.0351,0.62109 0,0.11719 0.11719,0.11719 0.15234,0.11719 0.14063,0 0.15235,-0.0117 0.19922,-0.23438 z m 0,0"
         style="fill:#000000;fill-opacity:1;fill-rule:nonzero;stroke:none" />
      <path
         id="path13"
         d="m 147.78708,194.44116 c -0.10547,0.41016 -0.12891,0.52735 -0.96094,0.52735 -0.23437,0 -0.35156,0 -0.35156,0.22265 0,0.12891 0.0703,0.12891 0.30469,0.12891 h 3.79687 c 2.41406,0 4.76953,-2.49609 4.76953,-5.16797 0,-1.72265 -1.03125,-3 -2.74219,-3 h -3.83203 c -0.23437,0 -0.33984,0 -0.33984,0.23438 0,0.11718 0.10547,0.11718 0.29297,0.11718 0.72656,0 0.72656,0.0937 0.72656,0.22266 0,0.0234 0,0.0937 -0.0469,0.28125 z m 2.51953,-6.46875 c 0.11719,-0.44531 0.16406,-0.46875 0.62109,-0.46875 h 1.32422 c 1.11328,0 2.14453,0.60938 2.14453,2.26172 0,0.59766 -0.23437,2.67188 -1.39453,3.98438 -0.33984,0.39844 -1.24219,1.21875 -2.625,1.21875 h -1.35937 c -0.16407,0 -0.1875,0 -0.25782,-0.0117 -0.1289,-0.0117 -0.14062,-0.0352 -0.14062,-0.12891 0,-0.082 0.0234,-0.15234 0.0469,-0.25781 z m 0,0"
         style="fill:#000000;fill-opacity:1;fill-rule:nonzero;stroke:none" />
      <path
         id="path14"
         d="m 237.26559,193.99585 c -0.41015,0.70313 -0.82031,0.9375 -1.39453,0.97266 -0.1289,0.0117 -0.22265,0.0117 -0.22265,0.23437 0,0.0703 0.0586,0.11719 0.14062,0.11719 0.21094,0 0.75,-0.0234 0.97266,-0.0234 0.33984,0 0.72656,0.0234 1.05469,0.0234 0.0703,0 0.22265,0 0.22265,-0.22266 0,-0.11718 -0.0937,-0.1289 -0.17578,-0.1289 -0.26953,-0.0234 -0.49219,-0.11719 -0.49219,-0.39844 0,-0.17578 0.0703,-0.30469 0.22266,-0.5625 l 0.90234,-1.51172 h 3.0586 c 0.0117,0.10547 0.0117,0.21094 0.0234,0.31641 0.0352,0.30469 0.17579,1.54687 0.17579,1.78125 0,0.35156 -0.60938,0.375 -0.79688,0.375 -0.14062,0 -0.26953,0 -0.26953,0.22265 0,0.12891 0.10547,0.12891 0.17578,0.12891 0.21094,0 0.44531,-0.0234 0.65625,-0.0234 h 0.67969 c 0.72656,0 1.2539,0.0234 1.26562,0.0234 0.082,0 0.21094,0 0.21094,-0.22266 0,-0.1289 -0.10547,-0.1289 -0.28125,-0.1289 -0.65625,0 -0.66797,-0.10547 -0.71484,-0.45703 l -0.72657,-7.46485 c -0.0234,-0.23437 -0.0703,-0.25781 -0.19921,-0.25781 -0.11719,0 -0.1875,0.0234 -0.30469,0.19922 z m 1.44141,-1.83984 2.40234,-4.01953 0.41016,4.01953 z m 8.85645,-0.73828 h 1.14843 c 0.90235,0 0.98438,0.21093 0.98438,0.55078 0,0.16406 -0.0352,0.32812 -0.0937,0.58594 -0.0234,0.0469 -0.0352,0.11718 -0.0352,0.14062 0,0.082 0.0469,0.12891 0.14063,0.12891 0.0937,0 0.10547,-0.0469 0.15234,-0.2461 l 0.69141,-2.77734 c 0,-0.0469 -0.0352,-0.11719 -0.11719,-0.11719 -0.10547,0 -0.11719,0.0469 -0.17578,0.2461 -0.2461,0.89062 -0.48047,1.14843 -1.52344,1.14843 h -1.08984 l 0.77343,-3.09375 c 0.11719,-0.42187 0.14063,-0.45703 0.6211,-0.45703 h 1.60547 c 1.5,0 1.71093,0.44531 1.71093,1.28906 0,0.0703 0,0.33985 -0.0352,0.64454 -0.0117,0.0469 -0.0352,0.21093 -0.0352,0.25781 0,0.0937 0.0586,0.1289 0.12891,0.1289 0.082,0 0.1289,-0.0469 0.15234,-0.26953 l 0.25781,-2.08593 c 0,-0.0352 0.0234,-0.15235 0.0234,-0.17579 0,-0.14062 -0.10547,-0.14062 -0.32812,-0.14062 h -5.66016 c -0.23437,0 -0.35156,0 -0.35156,0.22266 0,0.1289 0.082,0.1289 0.29297,0.1289 0.73828,0 0.73828,0.082 0.73828,0.21094 0,0.0586 -0.0117,0.10547 -0.0469,0.24609 l -1.61718,6.45703 c -0.10547,0.41016 -0.12891,0.52735 -0.96094,0.52735 -0.23438,0 -0.35156,0 -0.35156,0.22265 0,0.12891 0.10546,0.12891 0.17578,0.12891 0.23437,0 0.46875,-0.0234 0.6914,-0.0234 h 1.5586 c 0.25781,0 0.55078,0.0234 0.80859,0.0234 0.11719,0 0.25781,0 0.25781,-0.21094 0,-0.14062 -0.0703,-0.14062 -0.33984,-0.14062 -0.9375,0 -0.96094,-0.082 -0.96094,-0.25781 0,-0.0586 0.0234,-0.15235 0.0469,-0.23438 z m 7.52929,3.02343 c -0.10547,0.41016 -0.1289,0.52735 -0.96094,0.52735 -0.23437,0 -0.35156,0 -0.35156,0.22265 0,0.12891 0.0703,0.12891 0.30469,0.12891 h 3.79687 c 2.41407,0 4.76954,-2.49609 4.76954,-5.16797 0,-1.72265 -1.03125,-3 -2.74219,-3 h -3.83203 c -0.23438,0 -0.33985,0 -0.33985,0.23438 0,0.11718 0.10547,0.11718 0.29297,0.11718 0.72656,0 0.72656,0.0937 0.72656,0.22266 0,0.0234 0,0.0937 -0.0469,0.28125 z m 2.51953,-6.46875 c 0.11719,-0.44531 0.16407,-0.46875 0.6211,-0.46875 h 1.32422 c 1.11328,0 2.14453,0.60938 2.14453,2.26172 0,0.59766 -0.23438,2.67188 -1.39453,3.98438 -0.33985,0.39844 -1.24219,1.21875 -2.625,1.21875 h -1.35938 c -0.16406,0 -0.1875,0 -0.25781,-0.0117 -0.12891,-0.0117 -0.14063,-0.0352 -0.14063,-0.12891 0,-0.082 0.0234,-0.15234 0.0469,-0.25781 z m 0,0"
         style="fill:#000000;fill-opacity:1;fill-rule:nonzero;stroke:none" />
      <path
         id="path15"
         d="m 326.10544,188.47632 c 0.5039,0.16406 0.92578,0.17578 1.05469,0.17578 1.35937,0 2.21484,-0.99609 2.21484,-1.16015 0,-0.0469 -0.0234,-0.10547 -0.0937,-0.10547 -0.0234,0 -0.0469,0 -0.15234,0.0469 -0.66797,0.28125 -1.24219,0.31641 -1.5586,0.31641 -0.78515,0 -1.34765,-0.23438 -1.58203,-0.32813 -0.082,-0.0351 -0.10547,-0.0351 -0.11719,-0.0351 -0.0937,0 -0.0937,0.0703 -0.0937,0.25781 v 3.55078 c 0,0.21094 0,0.29297 0.14063,0.29297 0.0586,0 0.0703,-0.0117 0.19922,-0.16406 0.32812,-0.49219 0.89062,-0.77344 1.48828,-0.77344 0.63281,0 0.94922,0.58594 1.04297,0.78516 0.19922,0.46875 0.21093,1.05468 0.21093,1.51171 0,0.45704 0,1.13672 -0.32812,1.67579 -0.26953,0.42187 -0.73828,0.72656 -1.25391,0.72656 -0.79687,0 -1.57031,-0.53906 -1.78125,-1.40625 0.0586,0.0234 0.12891,0.0351 0.1875,0.0351 0.19922,0 0.52735,-0.1289 0.52735,-0.52734 0,-0.33984 -0.23438,-0.52734 -0.52735,-0.52734 -0.21093,0 -0.52734,0.10547 -0.52734,0.57422 0,1.00781 0.80859,2.16796 2.14453,2.16796 1.34766,0 2.53125,-1.125 2.53125,-2.64843 0,-1.41797 -0.96094,-2.60157 -2.21484,-2.60157 -0.67969,0 -1.20703,0.29297 -1.51172,0.63282 z m 0,0"
         style="fill:#000000;fill-opacity:1;fill-rule:nonzero;stroke:none" />
      <path
         id="path16"
         d="m -33.604523,206.98902 c 0.01172,-0.0352 0.04687,-0.11719 0.04687,-0.16407 0,-0.0586 -0.04687,-0.11718 -0.117188,-0.11718 -0.04687,0 -0.07031,0.0117 -0.105469,0.0469 -0.02344,0.0117 -0.02344,0.0352 -0.140625,0.26953 -0.703125,1.67578 -1.21875,2.39063 -3.128906,2.39063 h -1.746094 c -0.164062,0 -0.1875,0 -0.257812,-0.0117 -0.128906,-0.0117 -0.140625,-0.0352 -0.140625,-0.12891 0,-0.082 0.02344,-0.15234 0.04687,-0.25781 l 0.820312,-3.30469 h 1.183594 c 0.9375,0 1.007813,0.21094 1.007813,0.5625 0,0.11719 0,0.23438 -0.08203,0.58594 -0.03516,0.0469 -0.04687,0.0937 -0.04687,0.12891 0,0.082 0.07031,0.1289 0.140625,0.1289 0.105469,0 0.117188,-0.0937 0.164063,-0.25781 l 0.679687,-2.77734 c 0,-0.0586 -0.04687,-0.11719 -0.117187,-0.11719 -0.105469,0 -0.117188,0.0469 -0.164063,0.22265 -0.246093,0.91407 -0.480468,1.1836 -1.546875,1.1836 h -1.136718 l 0.738281,-2.94141 c 0.117187,-0.42187 0.140625,-0.45703 0.621094,-0.45703 h 1.710937 c 1.476563,0 1.769531,0.39844 1.769531,1.30078 0,0.0117 0,0.35156 -0.04687,0.73828 -0.01172,0.0469 -0.02344,0.12891 -0.02344,0.15235 0,0.0937 0.05859,0.1289 0.128906,0.1289 0.08203,0 0.140625,-0.0469 0.164063,-0.26953 l 0.246093,-2.08594 c 0,-0.0352 0.02344,-0.15234 0.02344,-0.17578 0,-0.14062 -0.105469,-0.14062 -0.316406,-0.14062 h -5.835938 c -0.234375,0 -0.351562,0 -0.351562,0.22265 0,0.12891 0.08203,0.12891 0.292968,0.12891 0.738282,0 0.738282,0.082 0.738282,0.21094 0,0.0586 -0.01172,0.10547 -0.04687,0.24609 l -1.617188,6.45703 c -0.105469,0.41016 -0.128906,0.52735 -0.960937,0.52735 -0.234375,0 -0.351563,0 -0.351563,0.22265 0,0.12891 0.07031,0.12891 0.304688,0.12891 h 6 c 0.269531,0 0.28125,-0.0117 0.363281,-0.19922 z m 9.993164,-5.53125 c 0,-0.10547 -0.08203,-0.10547 -0.105469,-0.10547 -0.02344,0 -0.07031,0 -0.175781,0.11718 l -0.820313,1.00782 c -0.421875,-0.71485 -1.078125,-1.125 -1.96875,-1.125 -2.589844,0 -5.261719,2.61328 -5.261719,5.42578 0,1.99219 1.394532,3.23437 3.140625,3.23437 0.960938,0 1.792969,-0.39843 2.484375,-0.98437 1.042969,-0.87891 1.359375,-2.03906 1.359375,-2.13281 0,-0.10547 -0.09375,-0.10547 -0.140625,-0.10547 -0.105468,0 -0.117187,0.0703 -0.140625,0.11718 -0.550781,1.86329 -2.15625,2.76563 -3.351562,2.76563 -1.277344,0 -2.367188,-0.82031 -2.367188,-2.50781 0,-0.38672 0.117188,-2.46094 1.464844,-4.03125 0.65625,-0.76172 1.78125,-1.44141 2.917969,-1.44141 1.3125,0 1.898437,1.08984 1.898437,2.30859 0,0.31641 -0.03516,0.57422 -0.03516,0.6211 0,0.11719 0.117188,0.11719 0.152344,0.11719 0.140625,0 0.152344,-0.0117 0.199219,-0.23438 z m 3.84375,4.40625 h 1.148437 c 0.902344,0 0.984375,0.21093 0.984375,0.55078 0,0.16406 -0.03516,0.32812 -0.09375,0.58593 -0.02344,0.0469 -0.03516,0.11719 -0.03516,0.14063 0,0.082 0.04687,0.12891 0.140625,0.12891 0.09375,0 0.105469,-0.0469 0.152344,-0.2461 l 0.691406,-2.77734 c 0,-0.0469 -0.03516,-0.11719 -0.117188,-0.11719 -0.105468,0 -0.117187,0.0469 -0.175781,0.24609 -0.246094,0.89063 -0.480469,1.14844 -1.523437,1.14844 h -1.089844 l 0.773437,-3.09375 c 0.117188,-0.42187 0.140625,-0.45703 0.621094,-0.45703 h 1.605469 c 1.5,0 1.710937,0.44531 1.710937,1.28906 0,0.0703 0,0.33985 -0.03516,0.64453 -0.01172,0.0469 -0.03516,0.21094 -0.03516,0.25782 0,0.0937 0.05859,0.1289 0.128906,0.1289 0.08203,0 0.128906,-0.0469 0.152344,-0.26953 l 0.257812,-2.08594 c 0,-0.0352 0.02344,-0.15234 0.02344,-0.17578 0,-0.14062 -0.105469,-0.14062 -0.328125,-0.14062 h -5.660156 c -0.234375,0 -0.351563,0 -0.351563,0.22265 0,0.12891 0.08203,0.12891 0.292969,0.12891 0.738281,0 0.738281,0.082 0.738281,0.21094 0,0.0586 -0.01172,0.10547 -0.04687,0.24609 l -1.617187,6.45703 c -0.105469,0.41016 -0.128907,0.52735 -0.960938,0.52735 -0.234375,0 -0.351562,0 -0.351562,0.22265 0,0.12891 0.105468,0.12891 0.175781,0.12891 0.234375,0 0.46875,-0.0234 0.691406,-0.0234 h 1.558594 c 0.257812,0 0.550781,0.0234 0.808594,0.0234 0.117187,0 0.257812,0 0.257812,-0.21094 0,-0.14062 -0.07031,-0.14062 -0.339844,-0.14062 -0.9375,0 -0.960937,-0.082 -0.960937,-0.25782 0,-0.0586 0.02344,-0.15234 0.04687,-0.23437 z m 0,0"
         style="fill:#000000;fill-opacity:1;fill-rule:nonzero;stroke:none" />
      <path
         id="path17"
         d="m 317.17575,245.04859 c 0,-0.22266 0,-0.29297 -0.16406,-0.29297 -0.0937,0 -0.12891,0 -0.22266,0.15234 l -3.59765,5.57813 v 0.35156 h 3.14062 v 1.07812 c 0,0.44532 -0.0234,0.5625 -0.90234,0.5625 h -0.23438 v 0.35157 c 0.26953,-0.0234 1.21875,-0.0234 1.5586,-0.0234 0.32812,0 1.28906,0 1.55859,0.0234 v -0.35157 h -0.23438 c -0.86718,0 -0.90234,-0.11718 -0.90234,-0.5625 v -1.07812 h 1.20703 v -0.35156 h -1.20703 z m -0.78516,0.9375 v 4.5 h -2.90625 z m 7.68164,3.02343 c 0,-0.99609 -0.0586,-1.96875 -0.49218,-2.87109 -0.49219,-0.99609 -1.34766,-1.25391 -1.9336,-1.25391 -0.6914,0 -1.54687,0.33985 -1.98047,1.33594 -0.33984,0.75 -0.45703,1.48828 -0.45703,2.78906 0,1.16016 0.082,2.02735 0.51563,2.8711 0.45703,0.91406 1.28906,1.19531 1.91015,1.19531 1.04297,0 1.64063,-0.62109 1.98047,-1.3125 0.4336,-0.89063 0.45703,-2.0625 0.45703,-2.75391 z m -2.4375,3.83203 c -0.38671,0 -1.16015,-0.21093 -1.38281,-1.52343 -0.14062,-0.71485 -0.14062,-1.61719 -0.14062,-2.46094 0,-0.97266 0,-1.86328 0.19922,-2.56641 0.19921,-0.79687 0.80859,-1.17187 1.32421,-1.17187 0.45704,0 1.14844,0.28125 1.3711,1.30078 0.15234,0.67969 0.15234,1.62891 0.15234,2.4375 0,0.80859 0,1.71094 -0.1289,2.4375 -0.22266,1.32422 -0.97266,1.54687 -1.39454,1.54687 z m 8.29102,-3.83203 c 0,-0.99609 -0.0586,-1.96875 -0.49219,-2.87109 -0.49218,-0.99609 -1.34765,-1.25391 -1.93359,-1.25391 -0.69141,0 -1.54688,0.33985 -1.98047,1.33594 -0.33984,0.75 -0.45703,1.48828 -0.45703,2.78906 0,1.16016 0.082,2.02735 0.51562,2.8711 0.45704,0.91406 1.28907,1.19531 1.91016,1.19531 1.04297,0 1.64063,-0.62109 1.98047,-1.3125 0.43359,-0.89063 0.45703,-2.0625 0.45703,-2.75391 z m -2.4375,3.83203 c -0.38672,0 -1.16016,-0.21093 -1.38281,-1.52343 -0.14063,-0.71485 -0.14063,-1.61719 -0.14063,-2.46094 0,-0.97266 0,-1.86328 0.19922,-2.56641 0.19922,-0.79687 0.8086,-1.17187 1.32422,-1.17187 0.45703,0 1.14844,0.28125 1.37109,1.30078 0.15235,0.67969 0.15235,1.62891 0.15235,2.4375 0,0.80859 0,1.71094 -0.12891,2.4375 -0.22265,1.32422 -0.97265,1.54687 -1.39453,1.54687 z m 0,0"
         style="fill:#000000;fill-opacity:1;fill-rule:nonzero;stroke:none" />
      <path
         id="path18"
         d="m -28.896516,303.49878 c 0.503907,0.16406 0.925782,0.17578 1.054688,0.17578 1.359375,0 2.214844,-0.99609 2.214844,-1.16015 0,-0.0469 -0.02344,-0.10547 -0.09375,-0.10547 -0.02344,0 -0.04687,0 -0.152344,0.0469 -0.667969,0.28125 -1.242188,0.31641 -1.558594,0.31641 -0.785156,0 -1.347656,-0.23438 -1.582031,-0.32813 -0.08203,-0.0352 -0.105469,-0.0352 -0.117188,-0.0352 -0.09375,0 -0.09375,0.0703 -0.09375,0.25781 v 3.55078 c 0,0.21094 0,0.29297 0.140625,0.29297 0.05859,0 0.07031,-0.0117 0.199219,-0.16406 0.328125,-0.49219 0.890625,-0.77344 1.488281,-0.77344 0.632813,0 0.949219,0.58594 1.042969,0.78516 0.199219,0.46875 0.210938,1.05468 0.210938,1.51172 0,0.45703 0,1.13671 -0.328125,1.67578 -0.269532,0.42187 -0.738282,0.72656 -1.253907,0.72656 -0.796875,0 -1.570312,-0.53906 -1.78125,-1.40625 0.05859,0.0234 0.128907,0.0352 0.1875,0.0352 0.199219,0 0.527344,-0.12891 0.527344,-0.52735 0,-0.33984 -0.234375,-0.52734 -0.527344,-0.52734 -0.210937,0 -0.527343,0.10547 -0.527343,0.57422 0,1.00781 0.808593,2.16797 2.144531,2.16797 1.347656,0 2.53125,-1.125 2.53125,-2.64844 0,-1.41797 -0.960938,-2.60156 -2.214844,-2.60156 -0.679687,0 -1.207031,0.29296 -1.511719,0.63281 z m 5.853516,0 c 0.503906,0.16406 0.925781,0.17578 1.054688,0.17578 1.359375,0 2.214843,-0.99609 2.214843,-1.16015 0,-0.0469 -0.02344,-0.10547 -0.09375,-0.10547 -0.02344,0 -0.04687,0 -0.152343,0.0469 -0.667969,0.28125 -1.242188,0.31641 -1.558594,0.31641 -0.785156,0 -1.347656,-0.23438 -1.582031,-0.32813 -0.08203,-0.0352 -0.105469,-0.0352 -0.117188,-0.0352 -0.09375,0 -0.09375,0.0703 -0.09375,0.25781 v 3.55078 c 0,0.21094 0,0.29297 0.140625,0.29297 0.05859,0 0.07031,-0.0117 0.199219,-0.16406 0.328125,-0.49219 0.890625,-0.77344 1.488281,-0.77344 0.632813,0 0.949219,0.58594 1.042969,0.78516 0.199219,0.46875 0.210937,1.05468 0.210937,1.51172 0,0.45703 0,1.13671 -0.328125,1.67578 -0.269531,0.42187 -0.738281,0.72656 -1.253906,0.72656 -0.796875,0 -1.570312,-0.53906 -1.78125,-1.40625 0.05859,0.0234 0.128906,0.0352 0.1875,0.0352 0.199219,0 0.527344,-0.12891 0.527344,-0.52735 0,-0.33984 -0.234375,-0.52734 -0.527344,-0.52734 -0.210937,0 -0.527344,0.10547 -0.527344,0.57422 0,1.00781 0.808594,2.16797 2.144532,2.16797 1.347656,0 2.53125,-1.125 2.53125,-2.64844 0,-1.41797 -0.960938,-2.60156 -2.214844,-2.60156 -0.679688,0 -1.207031,0.29296 -1.511719,0.63281 z m 0,0"
         style="fill:#000000;fill-opacity:1;fill-rule:nonzero;stroke:none" />
      <path
         id="path19"
         d="m 156.13669,309.01831 c -0.41016,0.70313 -0.82031,0.9375 -1.39453,0.97266 -0.12891,0.0117 -0.22266,0.0117 -0.22266,0.23437 0,0.0703 0.0586,0.11719 0.14063,0.11719 0.21093,0 0.75,-0.0234 0.97265,-0.0234 0.33985,0 0.72656,0.0234 1.05469,0.0234 0.0703,0 0.22266,0 0.22266,-0.22265 0,-0.11719 -0.0937,-0.12891 -0.17579,-0.12891 -0.26953,-0.0234 -0.49218,-0.11719 -0.49218,-0.39844 0,-0.17578 0.0703,-0.30469 0.22265,-0.5625 l 0.90235,-1.51172 h 3.05859 c 0.0117,0.10547 0.0117,0.21094 0.0234,0.31641 0.0352,0.30469 0.17578,1.54687 0.17578,1.78125 0,0.35156 -0.60938,0.375 -0.79688,0.375 -0.14062,0 -0.26953,0 -0.26953,0.22266 0,0.1289 0.10547,0.1289 0.17578,0.1289 0.21094,0 0.44532,-0.0234 0.65625,-0.0234 h 0.67969 c 0.72656,0 1.25391,0.0234 1.26563,0.0234 0.082,0 0.21093,0 0.21093,-0.22265 0,-0.12891 -0.10546,-0.12891 -0.28125,-0.12891 -0.65625,0 -0.66796,-0.10547 -0.71484,-0.45703 l -0.72656,-7.46485 c -0.0234,-0.23437 -0.0703,-0.25781 -0.19922,-0.25781 -0.11719,0 -0.1875,0.0234 -0.30469,0.19922 z m 1.4414,-1.83984 2.40235,-4.01953 0.41015,4.01953 z m 0,0"
         style="fill:#000000;fill-opacity:1;fill-rule:nonzero;stroke:none" />
      <path
         id="path20"
         d="m 174.4443,302.99488 c 0.11719,-0.44532 0.16407,-0.46875 0.6211,-0.46875 h 1.55859 c 1.34766,0 1.34766,1.14843 1.34766,1.2539 0,0.97266 -0.96094,2.20313 -2.54297,2.20313 h -1.72266 z m 2.02735,3.08203 c 1.30078,-0.2461 2.48437,-1.14844 2.48437,-2.25 0,-0.92578 -0.83203,-1.65235 -2.17968,-1.65235 h -3.83204 c -0.23437,0 -0.33984,0 -0.33984,0.23438 0,0.11719 0.10547,0.11719 0.29297,0.11719 0.72656,0 0.72656,0.0937 0.72656,0.22265 0,0.0234 0,0.0937 -0.0469,0.28125 l -1.61719,6.4336 c -0.10547,0.41015 -0.12891,0.52734 -0.96094,0.52734 -0.23437,0 -0.35156,0 -0.35156,0.22266 0,0.1289 0.0703,0.1289 0.30469,0.1289 h 4.10156 c 1.82812,0 3.24609,-1.38281 3.24609,-2.58984 0,-0.98438 -0.86718,-1.58203 -1.82812,-1.67578 z m -1.69922,3.91406 h -1.61719 c -0.16406,0 -0.1875,0 -0.25781,-0.0117 -0.12891,-0.0117 -0.15234,-0.0352 -0.15234,-0.12891 0,-0.082 0.0351,-0.15234 0.0586,-0.25781 l 0.83203,-3.375 h 2.25 c 1.40625,0 1.40625,1.3125 1.40625,1.40625 0,1.14844 -1.04297,2.36719 -2.51953,2.36719 z m 0,0"
         style="fill:#000000;fill-opacity:1;fill-rule:nonzero;stroke:none" />
      <path
         id="path21"
         d="m 195.68747,302.03394 c 0,-0.10547 -0.082,-0.10547 -0.10547,-0.10547 -0.0234,0 -0.0703,0 -0.17578,0.11719 l -0.82031,1.00781 c -0.42188,-0.71484 -1.07813,-1.125 -1.96875,-1.125 -2.58985,0 -5.26172,2.61328 -5.26172,5.42578 0,1.99219 1.39453,3.23438 3.14062,3.23438 0.96094,0 1.79297,-0.39844 2.48438,-0.98438 1.04297,-0.87891 1.35937,-2.03906 1.35937,-2.13281 0,-0.10547 -0.0937,-0.10547 -0.14062,-0.10547 -0.10547,0 -0.11719,0.0703 -0.14063,0.11719 -0.55078,1.86328 -2.15625,2.76562 -3.35156,2.76562 -1.27734,0 -2.36719,-0.82031 -2.36719,-2.50781 0,-0.38672 0.11719,-2.46094 1.46485,-4.03125 0.65625,-0.76172 1.78125,-1.44141 2.91797,-1.44141 1.3125,0 1.89843,1.08985 1.89843,2.3086 0,0.3164 -0.0351,0.57422 -0.0351,0.62109 0,0.11719 0.11718,0.11719 0.15234,0.11719 0.14063,0 0.15234,-0.0117 0.19922,-0.23438 z m 0,0"
         style="fill:#000000;fill-opacity:1;fill-rule:nonzero;stroke:none" />
      <path
         id="path22"
         d="m -146.18948,323.46167 c -0.41016,0.70313 -0.82032,0.9375 -1.39454,0.97266 -0.1289,0.0117 -0.22265,0.0117 -0.22265,0.23437 0,0.0703 0.0586,0.11719 0.14062,0.11719 0.21094,0 0.75,-0.0234 0.97266,-0.0234 0.33984,0 0.72656,0.0234 1.05469,0.0234 0.0703,0 0.22265,0 0.22265,-0.22266 0,-0.11718 -0.0937,-0.1289 -0.17578,-0.1289 -0.26953,-0.0234 -0.49219,-0.11719 -0.49219,-0.39844 0,-0.17578 0.0703,-0.30469 0.22266,-0.5625 l 0.90234,-1.51172 h 3.0586 c 0.0117,0.10547 0.0117,0.21094 0.0234,0.31641 0.0352,0.30469 0.17578,1.54687 0.17578,1.78125 0,0.35156 -0.60938,0.375 -0.79688,0.375 -0.14062,0 -0.26953,0 -0.26953,0.22265 0,0.12891 0.10547,0.12891 0.17578,0.12891 0.21094,0 0.44531,-0.0234 0.65625,-0.0234 h 0.67969 c 0.72656,0 1.25391,0.0234 1.26562,0.0234 0.082,0 0.21094,0 0.21094,-0.22266 0,-0.1289 -0.10547,-0.1289 -0.28125,-0.1289 -0.65625,0 -0.66797,-0.10547 -0.71484,-0.45703 l -0.72656,-7.46485 c -0.0234,-0.23437 -0.0703,-0.25781 -0.19922,-0.25781 -0.11719,0 -0.1875,0.0234 -0.30469,0.19922 z m 1.4414,-1.83984 2.40235,-4.01953 0.41015,4.01953 z m 0,0"
         style="fill:#000000;fill-opacity:1;fill-rule:nonzero;stroke:none" />
      <path
         id="path23"
         d="m -111.54593,316.4773 c 0,-0.10547 -0.082,-0.10547 -0.10547,-0.10547 -0.0234,0 -0.0703,0 -0.17578,0.11719 l -0.82031,1.00781 c -0.42188,-0.71485 -1.07813,-1.125 -1.96875,-1.125 -2.58985,0 -5.26172,2.61328 -5.26172,5.42578 0,1.99219 1.39453,3.23437 3.14062,3.23437 0.96094,0 1.79297,-0.39843 2.48438,-0.98437 1.04297,-0.87891 1.35937,-2.03906 1.35937,-2.13281 0,-0.10547 -0.0937,-0.10547 -0.14062,-0.10547 -0.10547,0 -0.11719,0.0703 -0.14063,0.11719 -0.55078,1.86328 -2.15625,2.76562 -3.35156,2.76562 -1.27734,0 -2.36719,-0.82031 -2.36719,-2.50781 0,-0.38672 0.11719,-2.46094 1.46485,-4.03125 0.65625,-0.76172 1.78125,-1.44141 2.91797,-1.44141 1.3125,0 1.89843,1.08985 1.89843,2.3086 0,0.3164 -0.0352,0.57421 -0.0352,0.62109 0,0.11719 0.11719,0.11719 0.15234,0.11719 0.14063,0 0.15235,-0.0117 0.19922,-0.23438 z m 0,0"
         style="fill:#000000;fill-opacity:1;fill-rule:nonzero;stroke:none" />
      <path
         id="path24"
         d="m 13.633758,317.43823 c 0.117187,-0.44531 0.164062,-0.46875 0.621094,-0.46875 h 1.558593 c 1.347657,0 1.347657,1.14844 1.347657,1.25391 0,0.97266 -0.960938,2.20313 -2.542969,2.20313 h -1.722656 z m 2.027344,3.08204 c 1.300781,-0.2461 2.484375,-1.14844 2.484375,-2.25 0,-0.92579 -0.832032,-1.65235 -2.179688,-1.65235 h -3.832031 c -0.234375,0 -0.339844,0 -0.339844,0.23438 0,0.11718 0.105469,0.11718 0.292969,0.11718 0.726562,0 0.726562,0.0937 0.726562,0.22266 0,0.0234 0,0.0937 -0.04687,0.28125 l -1.617187,6.43359 c -0.105469,0.41016 -0.128906,0.52735 -0.960938,0.52735 -0.2343747,0 -0.3515622,0 -0.3515622,0.22265 0,0.12891 0.070312,0.12891 0.3046872,0.12891 h 4.101563 c 1.828125,0 3.246094,-1.38281 3.246094,-2.58984 0,-0.98438 -0.867188,-1.58203 -1.828125,-1.67578 z m -1.699219,3.91406 h -1.617188 c -0.164062,0 -0.1875,0 -0.257812,-0.0117 -0.128906,-0.0117 -0.152344,-0.0352 -0.152344,-0.12891 0,-0.082 0.03516,-0.15234 0.05859,-0.25781 l 0.832031,-3.375 h 2.25 c 1.40625,0 1.40625,1.3125 1.40625,1.40625 0,1.14844 -1.042969,2.36719 -2.519531,2.36719 z m 0,0"
         style="fill:#000000;fill-opacity:1;fill-rule:nonzero;stroke:none" />
      <path
         id="path25"
         d="m 89.105438,320.49683 c -0.210938,0.0117 -0.257813,0.0234 -0.257813,0.1289 0,0.11719 0.05859,0.11719 0.28125,0.11719 h 0.550781 c 1.007813,0 1.464844,0.84375 1.464844,1.99219 0,1.55859 -0.808594,1.98047 -1.394531,1.98047 -0.574219,0 -1.558594,-0.28125 -1.898438,-1.06641 0.375,0.0586 0.726563,-0.15234 0.726563,-0.58594 0,-0.33984 -0.257813,-0.58593 -0.585938,-0.58593 -0.292968,0 -0.597656,0.16406 -0.597656,0.62109 0,1.06641 1.066406,1.93359 2.390625,1.93359 1.417969,0 2.472656,-1.07812 2.472656,-2.28515 0,-1.10156 -0.890625,-1.96875 -2.027343,-2.16797 1.03125,-0.30469 1.699218,-1.17188 1.699218,-2.10938 0,-0.9375 -0.972656,-1.6289 -2.132812,-1.6289 -1.195313,0 -2.085938,0.72656 -2.085938,1.59375 0,0.48047 0.375,0.57422 0.550782,0.57422 0.257812,0 0.539062,-0.17578 0.539062,-0.53907 0,-0.375 -0.28125,-0.53906 -0.550781,-0.53906 -0.07031,0 -0.09375,0 -0.128906,0.0117 0.457031,-0.82031 1.582031,-0.82031 1.640625,-0.82031 0.386718,0 1.171875,0.17578 1.171875,1.34765 0,0.23438 -0.03516,0.90235 -0.386719,1.41797 -0.351563,0.52735 -0.761719,0.5625 -1.089844,0.57422 z m 7.092773,-3.375 c 0,-0.26953 0,-0.28125 -0.246094,-0.28125 -0.28125,0.3164 -0.878906,0.76172 -2.109375,0.76172 v 0.35156 c 0.269531,0 0.867188,0 1.523438,-0.31641 v 6.22266 c 0,0.43359 -0.03516,0.57422 -1.078125,0.57422 h -0.375 v 0.35156 c 0.316406,-0.0234 1.476562,-0.0234 1.875,-0.0234 0.398437,0 1.546875,0 1.863281,0.0234 v -0.35156 h -0.363281 c -1.054688,0 -1.089844,-0.14063 -1.089844,-0.57422 z m 0,0"
         style="fill:#000000;fill-opacity:1;fill-rule:nonzero;stroke:none" />
      <path
         id="path26"
         d="m 184.51657,323.46167 c -0.41016,0.70313 -0.82031,0.9375 -1.39453,0.97266 -0.12891,0.0117 -0.22266,0.0117 -0.22266,0.23437 0,0.0703 0.0586,0.11719 0.14063,0.11719 0.21094,0 0.75,-0.0234 0.97265,-0.0234 0.33985,0 0.72657,0.0234 1.05469,0.0234 0.0703,0 0.22266,0 0.22266,-0.22266 0,-0.11718 -0.0937,-0.1289 -0.17578,-0.1289 -0.26953,-0.0234 -0.49219,-0.11719 -0.49219,-0.39844 0,-0.17578 0.0703,-0.30469 0.22266,-0.5625 l 0.90234,-1.51172 h 3.05859 c 0.0117,0.10547 0.0117,0.21094 0.0234,0.31641 0.0352,0.30469 0.17578,1.54687 0.17578,1.78125 0,0.35156 -0.60937,0.375 -0.79687,0.375 -0.14063,0 -0.26953,0 -0.26953,0.22265 0,0.12891 0.10546,0.12891 0.17578,0.12891 0.21093,0 0.44531,-0.0234 0.65625,-0.0234 h 0.67968 c 0.72657,0 1.25391,0.0234 1.26563,0.0234 0.082,0 0.21094,0 0.21094,-0.22266 0,-0.1289 -0.10547,-0.1289 -0.28125,-0.1289 -0.65625,0 -0.66797,-0.10547 -0.71485,-0.45703 l -0.72656,-7.46485 c -0.0234,-0.23437 -0.0703,-0.25781 -0.19922,-0.25781 -0.11719,0 -0.1875,0.0234 -0.30469,0.19922 z m 1.44141,-1.83984 2.40234,-4.01953 0.41016,4.01953 z m 0,0"
         style="fill:#000000;fill-opacity:1;fill-rule:nonzero;stroke:none" />
      <path
         id="path27"
         d="m 214.60153,317.43823 c 0.11719,-0.44531 0.16406,-0.46875 0.6211,-0.46875 h 1.55859 c 1.34766,0 1.34766,1.14844 1.34766,1.25391 0,0.97266 -0.96094,2.20313 -2.54297,2.20313 h -1.72266 z m 2.02735,3.08204 c 1.30078,-0.2461 2.48437,-1.14844 2.48437,-2.25 0,-0.92579 -0.83203,-1.65235 -2.17969,-1.65235 h -3.83203 c -0.23437,0 -0.33984,0 -0.33984,0.23438 0,0.11718 0.10547,0.11718 0.29297,0.11718 0.72656,0 0.72656,0.0937 0.72656,0.22266 0,0.0234 0,0.0937 -0.0469,0.28125 l -1.61718,6.43359 c -0.10547,0.41016 -0.12891,0.52735 -0.96094,0.52735 -0.23438,0 -0.35156,0 -0.35156,0.22265 0,0.12891 0.0703,0.12891 0.30468,0.12891 h 4.10157 c 1.82812,0 3.24609,-1.38281 3.24609,-2.58984 0,-0.98438 -0.86719,-1.58203 -1.82812,-1.67578 z m -1.69922,3.91406 h -1.61719 c -0.16406,0 -0.1875,0 -0.25781,-0.0117 -0.12891,-0.0117 -0.15235,-0.0352 -0.15235,-0.12891 0,-0.082 0.0352,-0.15234 0.0586,-0.25781 l 0.83203,-3.375 h 2.25 c 1.40625,0 1.40625,1.3125 1.40625,1.40625 0,1.14844 -1.04297,2.36719 -2.51953,2.36719 z m 0,0"
         style="fill:#000000;fill-opacity:1;fill-rule:nonzero;stroke:none" />
      <path
         id="path28"
         d="m -139.28714,330.92359 c 0,-0.10547 -0.082,-0.10547 -0.10547,-0.10547 -0.0234,0 -0.0703,0 -0.17578,0.11718 l -0.82031,1.00782 c -0.42188,-0.71485 -1.07813,-1.125 -1.96875,-1.125 -2.58985,0 -5.26172,2.61328 -5.26172,5.42578 0,1.99219 1.39453,3.23437 3.14062,3.23437 0.96094,0 1.79297,-0.39843 2.48438,-0.98437 1.04297,-0.87891 1.35937,-2.03906 1.35937,-2.13281 0,-0.10547 -0.0937,-0.10547 -0.14062,-0.10547 -0.10547,0 -0.11719,0.0703 -0.14063,0.11718 -0.55078,1.86329 -2.15625,2.76563 -3.35156,2.76563 -1.27734,0 -2.36719,-0.82031 -2.36719,-2.50781 0,-0.38672 0.11719,-2.46094 1.46485,-4.03125 0.65625,-0.76172 1.78125,-1.44141 2.91797,-1.44141 1.3125,0 1.89843,1.08984 1.89843,2.30859 0,0.31641 -0.0351,0.57422 -0.0351,0.6211 0,0.11719 0.11718,0.11719 0.15234,0.11719 0.14063,0 0.15234,-0.0117 0.19922,-0.23438 z m 0,0"
         style="fill:#000000;fill-opacity:1;fill-rule:nonzero;stroke:none" />
      <path
         id="path29"
         d="m -67.76175,334.94312 c -0.210937,0.0117 -0.257812,0.0234 -0.257812,0.1289 0,0.11719 0.05859,0.11719 0.28125,0.11719 h 0.550781 c 1.007812,0 1.464844,0.84375 1.464844,1.99219 0,1.55859 -0.808594,1.98047 -1.394532,1.98047 -0.574218,0 -1.558593,-0.28125 -1.898437,-1.06641 0.375,0.0586 0.726562,-0.15234 0.726562,-0.58594 0,-0.33984 -0.257812,-0.58593 -0.585937,-0.58593 -0.292969,0 -0.597656,0.16406 -0.597656,0.62109 0,1.06641 1.066406,1.93359 2.390625,1.93359 1.417968,0 2.472656,-1.07812 2.472656,-2.28515 0,-1.10157 -0.890625,-1.96875 -2.027344,-2.16797 1.03125,-0.30469 1.699219,-1.17188 1.699219,-2.10938 0,-0.9375 -0.972656,-1.6289 -2.132813,-1.6289 -1.195312,0 -2.085937,0.72656 -2.085937,1.59375 0,0.48047 0.375,0.57422 0.550781,0.57422 0.257813,0 0.539063,-0.17579 0.539063,-0.53907 0,-0.375 -0.28125,-0.53906 -0.550782,-0.53906 -0.07031,0 -0.09375,0 -0.128906,0.0117 0.457031,-0.82031 1.582031,-0.82031 1.640625,-0.82031 0.386719,0 1.171875,0.17578 1.171875,1.34765 0,0.23438 -0.03516,0.90235 -0.386719,1.41797 -0.351562,0.52735 -0.761718,0.5625 -1.089843,0.57422 z m 8.021484,0.80859 c 0,2.82422 -1.253906,3.41016 -1.96875,3.41016 -0.28125,0 -0.925781,-0.0352 -1.21875,-0.45703 h 0.07031 c 0.08203,0.0234 0.515625,-0.0469 0.515625,-0.49219 0,-0.25781 -0.175781,-0.49219 -0.492188,-0.49219 -0.304687,0 -0.503906,0.21094 -0.503906,0.51563 0,0.75 0.597656,1.24218 1.640625,1.24218 1.5,0 2.941406,-1.58203 2.941406,-4.18359 0,-3.21094 -1.335937,-4.00781 -2.390625,-4.00781 -1.3125,0 -2.472656,1.10156 -2.472656,2.67187 0,1.58203 1.113281,2.66016 2.308594,2.66016 0.878906,0 1.335937,-0.64453 1.570312,-1.25391 z m -1.523437,0.62109 c -0.75,0 -1.078125,-0.60937 -1.183594,-0.83203 -0.199219,-0.45703 -0.199219,-1.03125 -0.199219,-1.57031 0,-0.66797 0,-1.24219 0.316407,-1.73437 0.210937,-0.31641 0.539062,-0.66797 1.183593,-0.66797 0.679688,0 1.03125,0.59765 1.148438,0.8789 0.234375,0.58594 0.234375,1.59375 0.234375,1.78125 0,0.9961 -0.445313,2.14453 -1.5,2.14453 z m 0,0"
         style="fill:#000000;fill-opacity:1;fill-rule:nonzero;stroke:none" />
      <path
         id="path30"
         d="m 111.26266,355.33374 c 0,-0.10547 -0.082,-0.10547 -0.10546,-0.10547 -0.0234,0 -0.0703,0 -0.17579,0.11719 l -0.82031,1.00781 c -0.42187,-0.71484 -1.07812,-1.125 -1.96875,-1.125 -2.58984,0 -5.26172,2.61328 -5.26172,5.42578 0,1.99219 1.39453,3.23438 3.14063,3.23438 0.96094,0 1.79297,-0.39844 2.48437,-0.98438 1.04297,-0.8789 1.35938,-2.03906 1.35938,-2.13281 0,-0.10547 -0.0937,-0.10547 -0.14063,-0.10547 -0.10547,0 -0.11718,0.0703 -0.14062,0.11719 -0.55078,1.86328 -2.15625,2.76563 -3.35156,2.76563 -1.27735,0 -2.36719,-0.82032 -2.36719,-2.50782 0,-0.38672 0.11719,-2.46093 1.46484,-4.03125 0.65625,-0.76172 1.78125,-1.4414 2.91797,-1.4414 1.3125,0 1.89844,1.08984 1.89844,2.30859 0,0.31641 -0.0352,0.57422 -0.0352,0.62109 0,0.11719 0.11719,0.11719 0.15235,0.11719 0.14062,0 0.15234,-0.0117 0.19921,-0.23437 z m 0,0"
         style="fill:#000000;fill-opacity:1;fill-rule:nonzero;stroke:none" />
      <path
         id="path31"
         d="m 140.1904,356.29468 c 0.11719,-0.44531 0.16406,-0.46875 0.62109,-0.46875 h 1.5586 c 1.34765,0 1.34765,1.14844 1.34765,1.25391 0,0.97265 -0.96094,2.20312 -2.54297,2.20312 h -1.72265 z m 2.02734,3.08203 c 1.30078,-0.24609 2.48438,-1.14844 2.48438,-2.25 0,-0.92578 -0.83203,-1.65234 -2.17969,-1.65234 h -3.83203 c -0.23438,0 -0.33985,0 -0.33985,0.23437 0,0.11719 0.10547,0.11719 0.29297,0.11719 0.72657,0 0.72657,0.0937 0.72657,0.22266 0,0.0234 0,0.0937 -0.0469,0.28125 l -1.61719,6.43359 c -0.10547,0.41016 -0.1289,0.52734 -0.96093,0.52734 -0.23438,0 -0.35157,0 -0.35157,0.22266 0,0.12891 0.0703,0.12891 0.30469,0.12891 h 4.10156 c 1.82813,0 3.2461,-1.38282 3.2461,-2.58985 0,-0.98437 -0.86719,-1.58203 -1.82813,-1.67578 z m -1.69922,3.91406 h -1.61718 c -0.16407,0 -0.1875,0 -0.25782,-0.0117 -0.1289,-0.0117 -0.15234,-0.0351 -0.15234,-0.1289 0,-0.082 0.0352,-0.15235 0.0586,-0.25781 l 0.83203,-3.375 h 2.25 c 1.40625,0 1.40625,1.3125 1.40625,1.40625 0,1.14843 -1.04296,2.36718 -2.51953,2.36718 z m 0,0"
         style="fill:#000000;fill-opacity:1;fill-rule:nonzero;stroke:none" />
      <path
         id="path32"
         d="m -82.791047,376.76148 c -0.410156,0.70312 -0.820312,0.9375 -1.394531,0.97265 -0.128906,0.0117 -0.222656,0.0117 -0.222656,0.23438 0,0.0703 0.05859,0.11719 0.140625,0.11719 0.210937,0 0.75,-0.0234 0.972656,-0.0234 0.339844,0 0.726562,0.0234 1.054687,0.0234 0.07031,0 0.222657,0 0.222657,-0.22266 0,-0.11719 -0.09375,-0.12891 -0.175782,-0.12891 -0.269531,-0.0234 -0.492187,-0.11718 -0.492187,-0.39843 0,-0.17579 0.07031,-0.30469 0.222656,-0.5625 l 0.902344,-1.51172 h 3.058594 c 0.01172,0.10547 0.01172,0.21093 0.02344,0.3164 0.03516,0.30469 0.175781,1.54688 0.175781,1.78125 0,0.35157 -0.609375,0.375 -0.796875,0.375 -0.140625,0 -0.269531,0 -0.269531,0.22266 0,0.12891 0.105469,0.12891 0.175781,0.12891 0.210938,0 0.445313,-0.0234 0.65625,-0.0234 h 0.679688 c 0.726562,0 1.253906,0.0234 1.265625,0.0234 0.08203,0 0.210937,0 0.210937,-0.22266 0,-0.12891 -0.105468,-0.12891 -0.28125,-0.12891 -0.65625,0 -0.667968,-0.10547 -0.714843,-0.45703 l -0.726563,-7.46484 c -0.02344,-0.23438 -0.07031,-0.25781 -0.199219,-0.25781 -0.117187,0 -0.1875,0.0234 -0.304687,0.19921 z m 1.441406,-1.83985 2.402344,-4.01953 0.410156,4.01953 z m 0,0"
         style="fill:#000000;fill-opacity:1;fill-rule:nonzero;stroke:none" />
      <path
         id="path33"
         d="m 96.464813,395.1482 c 0.117187,-0.44532 0.164062,-0.46875 0.621093,-0.46875 H 98.6445 c 1.347656,0 1.347656,1.14843 1.347656,1.2539 0,0.97266 -0.960937,2.20313 -2.542968,2.20313 h -1.722657 z m 2.027343,3.08203 c 1.300782,-0.2461 2.484374,-1.14844 2.484374,-2.25 0,-0.92578 -0.83203,-1.65235 -2.179686,-1.65235 h -3.832031 c -0.234375,0 -0.339844,0 -0.339844,0.23438 0,0.11719 0.105469,0.11719 0.292969,0.11719 0.726562,0 0.726562,0.0937 0.726562,0.22265 0,0.0234 0,0.0937 -0.04687,0.28125 l -1.617187,6.4336 c -0.105469,0.41015 -0.128907,0.52734 -0.960938,0.52734 -0.234375,0 -0.351562,0 -0.351562,0.22266 0,0.1289 0.07031,0.1289 0.304687,0.1289 h 4.101563 c 1.828125,0 3.246097,-1.38281 3.246097,-2.58984 0,-0.98438 -0.867191,-1.58203 -1.828129,-1.67578 z m -1.699218,3.91406 H 95.17575 c -0.164062,0 -0.1875,0 -0.257812,-0.0117 -0.128907,-0.0117 -0.152344,-0.0352 -0.152344,-0.12891 0,-0.082 0.03516,-0.15234 0.05859,-0.25781 l 0.832031,-3.375 h 2.25 c 1.40625,0 1.40625,1.3125 1.40625,1.40625 0,1.14844 -1.042969,2.36719 -2.519531,2.36719 z m 0,0"
         style="fill:#000000;fill-opacity:1;fill-rule:nonzero;stroke:none" />
      <path
         id="path34"
         d="m 123.77243,401.17163 c -0.41016,0.70313 -0.82031,0.9375 -1.39453,0.97266 -0.12891,0.0117 -0.22266,0.0117 -0.22266,0.23437 0,0.0703 0.0586,0.11719 0.14063,0.11719 0.21093,0 0.75,-0.0234 0.97265,-0.0234 0.33985,0 0.72657,0.0234 1.05469,0.0234 0.0703,0 0.22266,0 0.22266,-0.22265 0,-0.11719 -0.0937,-0.12891 -0.17578,-0.12891 -0.26954,-0.0234 -0.49219,-0.11719 -0.49219,-0.39844 0,-0.17578 0.0703,-0.30469 0.22265,-0.5625 l 0.90235,-1.51172 h 3.05859 c 0.0117,0.10547 0.0117,0.21094 0.0234,0.31641 0.0352,0.30469 0.17578,1.54687 0.17578,1.78125 0,0.35156 -0.60937,0.375 -0.79687,0.375 -0.14063,0 -0.26954,0 -0.26954,0.22266 0,0.1289 0.10547,0.1289 0.17579,0.1289 0.21093,0 0.44531,-0.0234 0.65625,-0.0234 h 0.67968 c 0.72657,0 1.25391,0.0234 1.26563,0.0234 0.082,0 0.21094,0 0.21094,-0.22265 0,-0.12891 -0.10547,-0.12891 -0.28125,-0.12891 -0.65625,0 -0.66797,-0.10547 -0.71485,-0.45703 l -0.72656,-7.46485 c -0.0234,-0.23437 -0.0703,-0.25781 -0.19922,-0.25781 -0.11719,0 -0.1875,0.0234 -0.30469,0.19922 z m 1.44141,-1.83984 2.40234,-4.01953 0.41016,4.01953 z m 0,0"
         style="fill:#000000;fill-opacity:1;fill-rule:nonzero;stroke:none" />
      <path
         id="path35"
         d="m 282.88083,394.18726 c 0,-0.10547 -0.082,-0.10547 -0.10547,-0.10547 -0.0234,0 -0.0703,0 -0.17578,0.11719 l -0.82031,1.00781 c -0.42188,-0.71484 -1.07813,-1.125 -1.96875,-1.125 -2.58985,0 -5.26172,2.61328 -5.26172,5.42578 0,1.99219 1.39453,3.23438 3.14062,3.23438 0.96094,0 1.79297,-0.39844 2.48438,-0.98438 1.04297,-0.87891 1.35937,-2.03906 1.35937,-2.13281 0,-0.10547 -0.0937,-0.10547 -0.14062,-0.10547 -0.10547,0 -0.11719,0.0703 -0.14063,0.11719 -0.55078,1.86328 -2.15625,2.76562 -3.35156,2.76562 -1.27734,0 -2.36719,-0.82031 -2.36719,-2.50781 0,-0.38672 0.11719,-2.46094 1.46485,-4.03125 0.65625,-0.76172 1.78125,-1.44141 2.91796,-1.44141 1.3125,0 1.89844,1.08985 1.89844,2.3086 0,0.3164 -0.0351,0.57422 -0.0351,0.62109 0,0.11719 0.11718,0.11719 0.15234,0.11719 0.14062,0 0.15234,-0.0117 0.19922,-0.23438 z m 0,0"
         style="fill:#000000;fill-opacity:1;fill-rule:nonzero;stroke:none" />
      <path
         id="path36"
         d="m 264.99802,447.85913 c 0,-0.26953 0,-0.28125 -0.2461,-0.28125 -0.28125,0.31641 -0.8789,0.76172 -2.10937,0.76172 v 0.35156 c 0.26953,0 0.86718,0 1.52343,-0.3164 v 6.22265 c 0,0.4336 -0.0351,0.57422 -1.07812,0.57422 h -0.375 v 0.35157 c 0.31641,-0.0234 1.47656,-0.0234 1.875,-0.0234 0.39844,0 1.54687,0 1.86328,0.0234 v -0.35157 h -0.36328 c -1.05469,0 -1.08984,-0.14062 -1.08984,-0.57422 z m 5.85351,0 c 0,-0.26953 0,-0.28125 -0.24609,-0.28125 -0.28125,0.31641 -0.87891,0.76172 -2.10938,0.76172 v 0.35156 c 0.26953,0 0.86719,0 1.52344,-0.3164 v 6.22265 c 0,0.4336 -0.0352,0.57422 -1.07812,0.57422 h -0.375 v 0.35157 c 0.3164,-0.0234 1.47656,-0.0234 1.875,-0.0234 0.39843,0 1.54687,0 1.86328,0.0234 v -0.35157 h -0.36328 c -1.05469,0 -1.08985,-0.14062 -1.08985,-0.57422 z m 7.76367,3.84375 c 0,-0.99609 -0.0586,-1.96875 -0.49218,-2.87109 -0.49219,-0.99609 -1.34766,-1.25391 -1.9336,-1.25391 -0.6914,0 -1.54687,0.33985 -1.98047,1.33594 -0.33984,0.75 -0.45703,1.48828 -0.45703,2.78906 0,1.16016 0.082,2.02735 0.51563,2.8711 0.45703,0.91406 1.28906,1.19531 1.91015,1.19531 1.04297,0 1.64063,-0.62109 1.98047,-1.3125 0.4336,-0.89063 0.45703,-2.0625 0.45703,-2.75391 z m -2.4375,3.83203 c -0.38672,0 -1.16015,-0.21093 -1.38281,-1.52343 -0.14062,-0.71485 -0.14062,-1.61719 -0.14062,-2.46094 0,-0.97266 0,-1.86328 0.19921,-2.56641 0.19922,-0.79687 0.8086,-1.17187 1.32422,-1.17187 0.45703,0 1.14844,0.28125 1.3711,1.30078 0.15234,0.67969 0.15234,1.62891 0.15234,2.4375 0,0.80859 0,1.71094 -0.12891,2.4375 -0.22265,1.32422 -0.97265,1.54687 -1.39453,1.54687 z m 0,0"
         style="fill:#000000;fill-opacity:1;fill-rule:nonzero;stroke:none" />
      <path
         id="path37"
         d="m -87.964875,462.30542 c 0,-0.26953 0,-0.28125 -0.246094,-0.28125 -0.28125,0.31641 -0.878906,0.76172 -2.109375,0.76172 v 0.35156 c 0.269532,0 0.867188,0 1.523438,-0.3164 v 6.22265 c 0,0.4336 -0.03516,0.57422 -1.078125,0.57422 h -0.375 v 0.35156 c 0.316406,-0.0234 1.476562,-0.0234 1.875,-0.0234 0.398437,0 1.546875,0 1.863281,0.0234 v -0.35156 h -0.363281 c -1.054688,0 -1.089844,-0.14062 -1.089844,-0.57422 z m 7.763672,3.84375 c 0,-0.99609 -0.05859,-1.96875 -0.492188,-2.87109 -0.492187,-0.9961 -1.347656,-1.25391 -1.933593,-1.25391 -0.691407,0 -1.546875,0.33985 -1.980469,1.33594 -0.339844,0.75 -0.457031,1.48828 -0.457031,2.78906 0,1.16016 0.08203,2.02735 0.515625,2.8711 0.457031,0.91406 1.289062,1.19531 1.910156,1.19531 1.042969,0 1.640625,-0.6211 1.980469,-1.3125 0.433593,-0.89063 0.457031,-2.0625 0.457031,-2.75391 z m -2.4375,3.83203 c -0.386719,0 -1.160156,-0.21093 -1.382813,-1.52343 -0.140625,-0.71485 -0.140625,-1.61719 -0.140625,-2.46094 0,-0.97266 0,-1.86328 0.199219,-2.56641 0.199219,-0.79687 0.808594,-1.17187 1.324219,-1.17187 0.457031,0 1.148437,0.28125 1.371094,1.30078 0.152343,0.67969 0.152343,1.6289 0.152343,2.4375 0,0.80859 0,1.71094 -0.128906,2.4375 -0.222656,1.32422 -0.972656,1.54687 -1.394531,1.54687 z m 8.291016,-3.83203 c 0,-0.99609 -0.05859,-1.96875 -0.492188,-2.87109 -0.492187,-0.9961 -1.347656,-1.25391 -1.933594,-1.25391 -0.691406,0 -1.546875,0.33985 -1.980468,1.33594 -0.339844,0.75 -0.457032,1.48828 -0.457032,2.78906 0,1.16016 0.08203,2.02735 0.515625,2.8711 0.457032,0.91406 1.289063,1.19531 1.910157,1.19531 1.042968,0 1.640625,-0.6211 1.980468,-1.3125 0.433594,-0.89063 0.457032,-2.0625 0.457032,-2.75391 z m -2.4375,3.83203 c -0.386719,0 -1.160157,-0.21093 -1.382813,-1.52343 -0.140625,-0.71485 -0.140625,-1.61719 -0.140625,-2.46094 0,-0.97266 0,-1.86328 0.199219,-2.56641 0.199219,-0.79687 0.808594,-1.17187 1.324219,-1.17187 0.457031,0 1.148437,0.28125 1.371093,1.30078 0.152344,0.67969 0.152344,1.6289 0.152344,2.4375 0,0.80859 0,1.71094 -0.128906,2.4375 -0.222656,1.32422 -0.972656,1.54687 -1.394531,1.54687 z m 0,0"
         style="fill:#000000;fill-opacity:1;fill-rule:nonzero;stroke:none" />
      <path
         id="path38"
         d="m -125.95413,476.9978 v -0.28125 h -2.88282 c -1.45312,0 -1.47656,-0.15234 -1.52343,-0.38671 h -0.25782 l -0.375,2.39062 h 0.26954 c 0.0351,-0.21094 0.14062,-0.94922 0.29296,-1.07812 0.0937,-0.0703 0.9961,-0.0703 1.16016,-0.0703 h 2.53125 l -1.26562,1.81641 c -0.31641,0.45703 -1.52344,2.42578 -1.52344,4.66406 0,0.14063 0,0.60938 0.48047,0.60938 0.5039,0 0.5039,-0.45703 0.5039,-0.6211 v -0.59765 c 0,-1.78125 0.29297,-3.16407 0.85547,-3.96094 z m 0,0"
         style="fill:#000000;fill-opacity:1;fill-rule:nonzero;stroke:none" />
      <path
         id="path39"
         d="m 0.22164844,476.75171 c 0,-0.26953 0,-0.28125 -0.24609375,-0.28125 -0.28125,0.31641 -0.87890625,0.76172 -2.10937499,0.76172 v 0.35156 c 0.2695312,0 0.8671875,0 1.52343749,-0.3164 v 6.22265 c 0,0.4336 -0.0351563,0.57422 -1.07812499,0.57422 h -0.375 v 0.35156 c 0.3164062,-0.0234 1.47656249,-0.0234 1.87499999,-0.0234 0.3984375,0 1.54687501,0 1.86328121,0.0234 v -0.35156 H 1.3114922 c -1.05468751,0 -1.08984376,-0.14062 -1.08984376,-0.57422 z m 8.08886716,0.24609 v -0.28125 H 5.4277031 c -1.453125,0 -1.4765625,-0.15234 -1.5234375,-0.38671 H 3.6464531 l -0.375,2.39062 h 0.2695313 c 0.035156,-0.21094 0.140625,-0.94922 0.2929687,-1.07812 0.09375,-0.0703 0.9960938,-0.0703 1.1601563,-0.0703 h 2.53125 l -1.265625,1.81641 c -0.3164063,0.45703 -1.5234375,2.42578 -1.5234375,4.66406 0,0.14063 0,0.60938 0.4804687,0.60938 0.5039063,0 0.5039063,-0.45703 0.5039063,-0.6211 v -0.59765 c 0,-1.78125 0.2929687,-3.16407 0.8554687,-3.96094 z m 0,0"
         style="fill:#000000;fill-opacity:1;fill-rule:nonzero;stroke:none" />
      <path
         id="path40"
         d="m 187.17966,476.75171 c 0,-0.26953 0,-0.28125 -0.2461,-0.28125 -0.28125,0.31641 -0.8789,0.76172 -2.10937,0.76172 v 0.35156 c 0.26953,0 0.86719,0 1.52344,-0.3164 v 6.22265 c 0,0.4336 -0.0352,0.57422 -1.07813,0.57422 h -0.375 v 0.35156 c 0.31641,-0.0234 1.47656,-0.0234 1.875,-0.0234 0.39844,0 1.54688,0 1.86328,0.0234 v -0.35156 h -0.36328 c -1.05469,0 -1.08984,-0.14062 -1.08984,-0.57422 z m 7.76074,3.84375 c 0,-0.99609 -0.0586,-1.96875 -0.49219,-2.87109 -0.49219,-0.9961 -1.34766,-1.25391 -1.93359,-1.25391 -0.69141,0 -1.54688,0.33984 -1.98047,1.33594 -0.33985,0.75 -0.45703,1.48828 -0.45703,2.78906 0,1.16016 0.082,2.02734 0.51562,2.87109 0.45703,0.91407 1.28906,1.19532 1.91016,1.19532 1.04297,0 1.64062,-0.6211 1.98047,-1.3125 0.43359,-0.89063 0.45703,-2.0625 0.45703,-2.75391 z m -2.4375,3.83203 c -0.38672,0 -1.16016,-0.21094 -1.38281,-1.52344 -0.14063,-0.71484 -0.14063,-1.61718 -0.14063,-2.46093 0,-0.97266 0,-1.86328 0.19922,-2.56641 0.19922,-0.79687 0.80859,-1.17187 1.32422,-1.17187 0.45703,0 1.14844,0.28125 1.37109,1.30078 0.15235,0.67968 0.15235,1.6289 0.15235,2.4375 0,0.80859 0,1.71093 -0.12891,2.4375 -0.22266,1.32422 -0.97266,1.54687 -1.39453,1.54687 z m 0,0"
         style="fill:#000000;fill-opacity:1;fill-rule:nonzero;stroke:none" />
    </g>
  </g>
</svg>
