<?xml version="1.0" encoding="UTF-8" standalone="no"?>
<!-- Created with Inkscape (http://www.inkscape.org/) -->

<svg
   version="1.1"
   id="svg1"
   width="794.55066"
   height="1123.6533"
   viewBox="0 0 794.55066 1123.6533"
   sodipodi:docname="LigaMatematycznaMatuskiego_Gim_Zestaw3_2013_2014_page0.pdf"
   xmlns:inkscape="http://www.inkscape.org/namespaces/inkscape"
   xmlns:sodipodi="http://sodipodi.sourceforge.net/DTD/sodipodi-0.dtd"
   xmlns="http://www.w3.org/2000/svg"
   xmlns:svg="http://www.w3.org/2000/svg">
  <defs
     id="defs1" />
  <sodipodi:namedview
     id="namedview1"
     pagecolor="#ffffff"
     bordercolor="#000000"
     borderopacity="0.25"
     inkscape:showpageshadow="2"
     inkscape:pageopacity="0.0"
     inkscape:pagecheckerboard="0"
     inkscape:deskcolor="#d1d1d1">
    <inkscape:page
       x="0"
       y="0"
       inkscape:label="1"
       id="page1"
       width="794.55066"
       height="1123.6533"
       margin="0"
       bleed="0" />
  </sodipodi:namedview>
  <g
     id="g1"
     inkscape:groupmode="layer"
     inkscape:label="1">
    <g
       id="g2"
       aria-label="LIGAMATEMATYCZNA&#10;im.ZdzisªawaMatuskiego&#10;GRUDZIE2013&#10;GIMNAZJUM&#10;ZADANIE1.&#10;Wyznacznajmniejsz¡mo»liw¡warto±¢wyra»enia&#10;x&#10;1&#10;x&#10;2&#10;+x&#10;2&#10;x&#10;3&#10;+x&#10;3&#10;x&#10;4&#10;+...+x&#10;100&#10;x&#10;101&#10;+x&#10;101&#10;x&#10;1&#10;,&#10;gdyka»dazliczbx&#10;1&#10;,x&#10;2&#10;,x&#10;3&#10;,...,x&#10;101&#10;jestrówna1lub−1.&#10;ZADANIE2.&#10;Podstawatrójk¡tarównoramiennegoABCmadªugo±¢2cm,arami¦-4cm.Obliczobwód&#10;trójk¡ta,któregowierzchoªkamis¡spodkiwysoko±citrójk¡taABC.&#10;ZADANIE3.&#10;Wyka»,»eje»eliliczbyaorazbs¡dodatnie,to&#10;1"
       transform="matrix(1.3333333,0,0,1.3333333,274.724,56.069333)">
      <path
         id="path2"
         d="m -15.777375,141.0564 c -0.375,0.0703 -0.515625,0.35156 -0.515625,0.58594 0,0.28125 0.222656,0.375 0.386719,0.375 0.363281,0 0.609375,-0.30469 0.609375,-0.63282 0,-0.49218 -0.574219,-0.72656 -1.078125,-0.72656 -0.726563,0 -1.125,0.71484 -1.242188,0.94922 -0.269531,-0.90234 -1.007812,-0.94922 -1.230468,-0.94922 -1.21875,0 -1.863282,1.57031 -1.863282,1.82813 0,0.0469 0.04687,0.10546 0.128907,0.10546 0.105468,0 0.128906,-0.0703 0.152343,-0.11718 0.398438,-1.32422 1.207032,-1.57032 1.546875,-1.57032 0.539063,0 0.644532,0.49219 0.644532,0.78516 0,0.25781 -0.07031,0.53906 -0.210938,1.11328 l -0.410156,1.62891 c -0.175781,0.72656 -0.527344,1.38281 -1.160156,1.38281 -0.05859,0 -0.351563,0 -0.609375,-0.15234 0.433593,-0.0937 0.527343,-0.44532 0.527343,-0.58594 0,-0.24609 -0.175781,-0.38672 -0.398437,-0.38672 -0.292969,0 -0.597656,0.24609 -0.597656,0.63281 0,0.50391 0.5625,0.72657 1.066406,0.72657 0.574219,0 0.984375,-0.45704 1.230469,-0.9375 0.199218,0.70312 0.796875,0.9375 1.230468,0.9375 1.230469,0 1.875,-1.5586 1.875,-1.82813 0,-0.0586 -0.04687,-0.10547 -0.128906,-0.10547 -0.105469,0 -0.117187,0.0586 -0.152344,0.15235 -0.316406,1.05468 -1.019531,1.54687 -1.546875,1.54687 -0.421875,0 -0.65625,-0.31641 -0.65625,-0.80859 0,-0.25782 0.05859,-0.44532 0.246094,-1.24219 l 0.421875,-1.61719 c 0.175781,-0.72656 0.585938,-1.24219 1.125,-1.24219 0.03516,0 0.363281,0 0.609375,0.15235 z m 0,0"
         style="fill:#000000;fill-opacity:1;fill-rule:nonzero;stroke:none" />
      <path
         id="path3"
         d="m -12.276398,142.65015 c 0,-0.22266 -0.02344,-0.22266 -0.234375,-0.22266 -0.328125,0.31641 -0.75,0.50391 -1.511719,0.50391 v 0.26953 c 0.222656,0 0.644531,0 1.113281,-0.22266 v 4.08985 c 0,0.29297 -0.02344,0.39843 -0.785156,0.39843 h -0.28125 v 0.25782 c 0.328125,-0.0234 1.019531,-0.0234 1.371094,-0.0234 0.363281,0 1.054687,0 1.382812,0.0234 v -0.25782 h -0.28125 c -0.75,0 -0.773437,-0.10546 -0.773437,-0.39843 z m 0,0"
         style="fill:#000000;fill-opacity:1;fill-rule:nonzero;stroke:none" />
      <path
         id="path4"
         d="m -4.3926094,141.0564 c -0.375,0.0703 -0.515625,0.35156 -0.515625,0.58594 0,0.28125 0.2226563,0.375 0.3867188,0.375 0.3632812,0 0.609375,-0.30469 0.609375,-0.63282 0,-0.49218 -0.5742188,-0.72656 -1.078125,-0.72656 -0.7265625,0 -1.125,0.71484 -1.2421875,0.94922 -0.2695313,-0.90234 -1.0078125,-0.94922 -1.2304688,-0.94922 -1.21875,0 -1.8632812,1.57031 -1.8632812,1.82813 0,0.0469 0.046875,0.10546 0.1289062,0.10546 0.1054688,0 0.1289063,-0.0703 0.1523438,-0.11718 0.3984375,-1.32422 1.2070312,-1.57032 1.546875,-1.57032 0.5390625,0 0.6445312,0.49219 0.6445312,0.78516 0,0.25781 -0.070312,0.53906 -0.2109375,1.11328 l -0.4101562,1.62891 c -0.1757813,0.72656 -0.5273438,1.38281 -1.1601563,1.38281 -0.058594,0 -0.3515625,0 -0.609375,-0.15234 0.4335938,-0.0937 0.5273438,-0.44532 0.5273438,-0.58594 0,-0.24609 -0.1757813,-0.38672 -0.3984375,-0.38672 -0.2929688,0 -0.5976563,0.24609 -0.5976563,0.63281 0,0.50391 0.5625,0.72657 1.0664063,0.72657 0.5742187,0 0.984375,-0.45704 1.2304687,-0.9375 0.1992188,0.70312 0.796875,0.9375 1.2304688,0.9375 1.2304687,0 1.875,-1.5586 1.875,-1.82813 0,-0.0586 -0.046875,-0.10547 -0.1289063,-0.10547 -0.1054687,0 -0.1171875,0.0586 -0.1523437,0.15235 -0.3164063,1.05468 -1.0195313,1.54687 -1.546875,1.54687 -0.421875,0 -0.65625,-0.31641 -0.65625,-0.80859 0,-0.25782 0.058594,-0.44532 0.2460937,-1.24219 l 0.421875,-1.61719 c 0.1757813,-0.72656 0.5859375,-1.24219 1.125,-1.24219 0.035156,0 0.3632813,0 0.609375,0.15235 z m 0,0"
         style="fill:#000000;fill-opacity:1;fill-rule:nonzero;stroke:none" />
      <path
         id="path5"
         d="m -1.1494453,146.09546 c 0.1289062,-0.11719 0.45703124,-0.375 0.58593749,-0.49219 0.4921875,-0.45703 0.9609375,-0.89062 0.9609375,-1.61718 0,-0.94922 -0.796875,-1.5586 -1.79296879,-1.5586 -0.9492187,0 -1.5820312,0.72656 -1.5820312,1.42969 0,0.39844 0.3164062,0.44531 0.421875,0.44531 0.1640625,0 0.4101562,-0.11719 0.4101562,-0.42187 0,-0.41016 -0.3984375,-0.41016 -0.4921875,-0.41016 0.234375,-0.58594 0.7734375,-0.78516 1.1601563,-0.78516 0.73828124,0 1.12499999,0.63282 1.12499999,1.30079 0,0.83203 -0.5859375,1.42968 -1.52343749,2.40234 l -1.0078125,1.03125 c -0.09375,0.0937 -0.09375,0.10547 -0.09375,0.30469 h 3.15234374 l 0.22265625,-1.42969 H 0.15133594 c -0.0234375,0.16406 -0.08203125,0.5625 -0.17578125,0.71484 -0.046875,0.0586 -0.65625,0.0586 -0.78515625,0.0586 H -2.2275703 Z m 0,0"
         style="fill:#000000;fill-opacity:1;fill-rule:nonzero;stroke:none" />
      <path
         id="path6"
         d="m 8.7587578,143.16577 h 3.3046872 c 0.164063,0 0.375,0 0.375,-0.21093 0,-0.22266 -0.199218,-0.22266 -0.375,-0.22266 H 8.7587578 v -3.30469 c 0,-0.16406 0,-0.38672 -0.2109375,-0.38672 -0.234375,0 -0.234375,0.21094 -0.234375,0.38672 v 3.30469 H 5.0204766 c -0.1757813,0 -0.3867188,0 -0.3867188,0.21094 0,0.22265 0.1992188,0.22265 0.3867188,0.22265 h 3.2929687 v 3.30469 c 0,0.16406 0,0.38672 0.2226563,0.38672 0.2226562,0 0.2226562,-0.21094 0.2226562,-0.38672 z m 0,0"
         style="fill:#000000;fill-opacity:1;fill-rule:nonzero;stroke:none" />
      <path
         id="path7"
         d="m 21.409148,141.0564 c -0.375,0.0703 -0.515625,0.35156 -0.515625,0.58594 0,0.28125 0.222657,0.375 0.386719,0.375 0.363281,0 0.609375,-0.30469 0.609375,-0.63282 0,-0.49218 -0.574219,-0.72656 -1.078125,-0.72656 -0.726562,0 -1.125,0.71484 -1.242187,0.94922 -0.269532,-0.90234 -1.007813,-0.94922 -1.230469,-0.94922 -1.21875,0 -1.863281,1.57031 -1.863281,1.82813 0,0.0469 0.04687,0.10546 0.128906,0.10546 0.105469,0 0.128906,-0.0703 0.152344,-0.11718 0.398437,-1.32422 1.207031,-1.57032 1.546875,-1.57032 0.539062,0 0.644531,0.49219 0.644531,0.78516 0,0.25781 -0.07031,0.53906 -0.210938,1.11328 l -0.410156,1.62891 c -0.175781,0.72656 -0.527344,1.38281 -1.160156,1.38281 -0.05859,0 -0.351563,0 -0.609375,-0.15234 0.433594,-0.0937 0.527344,-0.44532 0.527344,-0.58594 0,-0.24609 -0.175782,-0.38672 -0.398438,-0.38672 -0.292969,0 -0.597656,0.24609 -0.597656,0.63281 0,0.50391 0.5625,0.72657 1.066406,0.72657 0.574219,0 0.984375,-0.45704 1.230469,-0.9375 0.199219,0.70312 0.796875,0.9375 1.230469,0.9375 1.230468,0 1.875,-1.5586 1.875,-1.82813 0,-0.0586 -0.04687,-0.10547 -0.128907,-0.10547 -0.105468,0 -0.117187,0.0586 -0.152343,0.15235 -0.316407,1.05468 -1.019532,1.54687 -1.546875,1.54687 -0.421875,0 -0.65625,-0.31641 -0.65625,-0.80859 0,-0.25782 0.05859,-0.44532 0.246093,-1.24219 l 0.421875,-1.61719 c 0.175782,-0.72656 0.585938,-1.24219 1.125,-1.24219 0.03516,0 0.363282,0 0.609375,0.15235 z m 0,0"
         style="fill:#000000;fill-opacity:1;fill-rule:nonzero;stroke:none" />
      <path
         id="path8"
         d="m 24.652313,146.09546 c 0.128906,-0.11719 0.457031,-0.375 0.585937,-0.49219 0.492188,-0.45703 0.960938,-0.89062 0.960938,-1.61718 0,-0.94922 -0.796875,-1.5586 -1.792969,-1.5586 -0.949219,0 -1.582031,0.72656 -1.582031,1.42969 0,0.39844 0.316406,0.44531 0.421875,0.44531 0.164062,0 0.410156,-0.11719 0.410156,-0.42187 0,-0.41016 -0.398438,-0.41016 -0.492188,-0.41016 0.234375,-0.58594 0.773438,-0.78516 1.160157,-0.78516 0.738281,0 1.125,0.63282 1.125,1.30079 0,0.83203 -0.585938,1.42968 -1.523438,2.40234 l -1.007812,1.03125 c -0.09375,0.0937 -0.09375,0.10547 -0.09375,0.30469 h 3.152343 l 0.222657,-1.42969 h -0.246094 c -0.02344,0.16406 -0.08203,0.5625 -0.175781,0.71484 -0.04687,0.0586 -0.65625,0.0586 -0.785157,0.0586 h -1.417968 z m 0,0"
         style="fill:#000000;fill-opacity:1;fill-rule:nonzero;stroke:none" />
      <path
         id="path9"
         d="m 32.793914,141.0564 c -0.375,0.0703 -0.515625,0.35156 -0.515625,0.58594 0,0.28125 0.222656,0.375 0.386719,0.375 0.363281,0 0.609375,-0.30469 0.609375,-0.63282 0,-0.49218 -0.574219,-0.72656 -1.078125,-0.72656 -0.726563,0 -1.125,0.71484 -1.242188,0.94922 -0.269531,-0.90234 -1.007812,-0.94922 -1.230468,-0.94922 -1.21875,0 -1.863282,1.57031 -1.863282,1.82813 0,0.0469 0.04687,0.10546 0.128907,0.10546 0.105468,0 0.128906,-0.0703 0.152343,-0.11718 0.398438,-1.32422 1.207032,-1.57032 1.546875,-1.57032 0.539063,0 0.644532,0.49219 0.644532,0.78516 0,0.25781 -0.07031,0.53906 -0.210938,1.11328 l -0.410156,1.62891 c -0.175781,0.72656 -0.527344,1.38281 -1.160156,1.38281 -0.05859,0 -0.351563,0 -0.609375,-0.15234 0.433593,-0.0937 0.527343,-0.44532 0.527343,-0.58594 0,-0.24609 -0.175781,-0.38672 -0.398437,-0.38672 -0.292969,0 -0.597656,0.24609 -0.597656,0.63281 0,0.50391 0.5625,0.72657 1.066406,0.72657 0.574219,0 0.984375,-0.45704 1.230469,-0.9375 0.199218,0.70312 0.796875,0.9375 1.230468,0.9375 1.230469,0 1.875,-1.5586 1.875,-1.82813 0,-0.0586 -0.04687,-0.10547 -0.128906,-0.10547 -0.105469,0 -0.117187,0.0586 -0.152344,0.15235 -0.316406,1.05468 -1.019531,1.54687 -1.546875,1.54687 -0.421875,0 -0.65625,-0.31641 -0.65625,-0.80859 0,-0.25782 0.05859,-0.44532 0.246094,-1.24219 l 0.421875,-1.61719 c 0.175781,-0.72656 0.585938,-1.24219 1.125,-1.24219 0.03516,0 0.363281,0 0.609375,0.15235 z m 0,0"
         style="fill:#000000;fill-opacity:1;fill-rule:nonzero;stroke:none" />
      <path
         id="path10"
         d="m 35.802703,145.06421 c 0.632813,0 1.03125,0.45703 1.03125,1.30078 0,0.9961 -0.574219,1.28906 -0.996094,1.28906 -0.433593,0 -1.03125,-0.16406 -1.3125,-0.58593 0.292969,0 0.492188,-0.17578 0.492188,-0.44532 0,-0.25781 -0.1875,-0.43359 -0.445313,-0.43359 -0.210937,0 -0.433593,0.12891 -0.433593,0.45703 0,0.75 0.808593,1.24219 1.722656,1.24219 1.054687,0 1.792969,-0.72656 1.792969,-1.52344 0,-0.66797 -0.515625,-1.26562 -1.335938,-1.4414 0.632813,-0.22266 1.101563,-0.77344 1.101563,-1.40625 0,-0.63282 -0.714844,-1.08985 -1.546875,-1.08985 -0.855469,0 -1.5,0.45703 -1.5,1.06641 0,0.29297 0.199218,0.42187 0.410156,0.42187 0.246094,0 0.410156,-0.17578 0.410156,-0.41015 0,-0.29297 -0.257812,-0.39844 -0.433594,-0.41016 0.339844,-0.43359 0.949219,-0.46875 1.089844,-0.46875 0.210938,0 0.808594,0.0703 0.808594,0.89063 0,0.5625 -0.222656,0.89062 -0.339844,1.01953 -0.234375,0.24609 -0.421875,0.25781 -0.902344,0.29297 -0.152343,0.0117 -0.222656,0.0234 -0.222656,0.11718 0,0.11719 0.07031,0.11719 0.210938,0.11719 z m 0,0"
         style="fill:#000000;fill-opacity:1;fill-rule:nonzero;stroke:none" />
      <path
         id="path11"
         d="m 45.945281,143.16577 h 3.304688 c 0.164062,0 0.375,0 0.375,-0.21093 0,-0.22266 -0.199219,-0.22266 -0.375,-0.22266 h -3.304688 v -3.30469 c 0,-0.16406 0,-0.38672 -0.210937,-0.38672 -0.234375,0 -0.234375,0.21094 -0.234375,0.38672 v 3.30469 H 42.207 c -0.175781,0 -0.386719,0 -0.386719,0.21094 0,0.22265 0.199219,0.22265 0.386719,0.22265 h 3.292969 v 3.30469 c 0,0.16406 0,0.38672 0.222656,0.38672 0.222656,0 0.222656,-0.21094 0.222656,-0.38672 z m 0,0"
         style="fill:#000000;fill-opacity:1;fill-rule:nonzero;stroke:none" />
      <path
         id="path12"
         d="m 58.598602,141.0564 c -0.375,0.0703 -0.515625,0.35156 -0.515625,0.58594 0,0.28125 0.222656,0.375 0.386718,0.375 0.363282,0 0.609375,-0.30469 0.609375,-0.63282 0,-0.49218 -0.574218,-0.72656 -1.078125,-0.72656 -0.726562,0 -1.125,0.71484 -1.242187,0.94922 -0.269531,-0.90234 -1.007813,-0.94922 -1.230469,-0.94922 -1.21875,0 -1.863281,1.57031 -1.863281,1.82813 0,0.0469 0.04687,0.10546 0.128906,0.10546 0.105469,0 0.128906,-0.0703 0.152344,-0.11718 0.398437,-1.32422 1.207031,-1.57032 1.546875,-1.57032 0.539062,0 0.644531,0.49219 0.644531,0.78516 0,0.25781 -0.07031,0.53906 -0.210937,1.11328 l -0.410157,1.62891 c -0.175781,0.72656 -0.527343,1.38281 -1.160156,1.38281 -0.05859,0 -0.351562,0 -0.609375,-0.15234 0.433594,-0.0937 0.527344,-0.44532 0.527344,-0.58594 0,-0.24609 -0.175781,-0.38672 -0.398438,-0.38672 -0.292968,0 -0.597656,0.24609 -0.597656,0.63281 0,0.50391 0.5625,0.72657 1.066406,0.72657 0.574219,0 0.984375,-0.45704 1.230469,-0.9375 0.199219,0.70312 0.796875,0.9375 1.230469,0.9375 1.230469,0 1.875,-1.5586 1.875,-1.82813 0,-0.0586 -0.04687,-0.10547 -0.128906,-0.10547 -0.105469,0 -0.117188,0.0586 -0.152344,0.15235 -0.316406,1.05468 -1.019531,1.54687 -1.546875,1.54687 -0.421875,0 -0.65625,-0.31641 -0.65625,-0.80859 0,-0.25782 0.05859,-0.44532 0.246094,-1.24219 l 0.421875,-1.61719 c 0.175781,-0.72656 0.585937,-1.24219 1.125,-1.24219 0.03516,0 0.363281,0 0.609375,0.15235 z m 0,0"
         style="fill:#000000;fill-opacity:1;fill-rule:nonzero;stroke:none" />
      <path
         id="path13"
         d="m 61.604461,145.06421 c 0.632812,0 1.03125,0.45703 1.03125,1.30078 0,0.9961 -0.574219,1.28906 -0.996094,1.28906 -0.433594,0 -1.03125,-0.16406 -1.3125,-0.58593 0.292969,0 0.492188,-0.17578 0.492188,-0.44532 0,-0.25781 -0.1875,-0.43359 -0.445313,-0.43359 -0.210937,0 -0.433594,0.12891 -0.433594,0.45703 0,0.75 0.808594,1.24219 1.722657,1.24219 1.054687,0 1.792968,-0.72656 1.792968,-1.52344 0,-0.66797 -0.515625,-1.26562 -1.335937,-1.4414 0.632812,-0.22266 1.101562,-0.77344 1.101562,-1.40625 0,-0.63282 -0.714843,-1.08985 -1.546875,-1.08985 -0.855468,0 -1.5,0.45703 -1.5,1.06641 0,0.29297 0.199219,0.42187 0.410157,0.42187 0.246093,0 0.410156,-0.17578 0.410156,-0.41015 0,-0.29297 -0.257813,-0.39844 -0.433594,-0.41016 0.339844,-0.43359 0.949219,-0.46875 1.089844,-0.46875 0.210937,0 0.808594,0.0703 0.808594,0.89063 0,0.5625 -0.222657,0.89062 -0.339844,1.01953 -0.234375,0.24609 -0.421875,0.25781 -0.902344,0.29297 -0.152344,0.0117 -0.222656,0.0234 -0.222656,0.11718 0,0.11719 0.07031,0.11719 0.210937,0.11719 z m 0,0"
         style="fill:#000000;fill-opacity:1;fill-rule:nonzero;stroke:none" />
      <path
         id="path14"
         d="m 69.980438,141.0564 c -0.375,0.0703 -0.515625,0.35156 -0.515625,0.58594 0,0.28125 0.222656,0.375 0.386718,0.375 0.363282,0 0.609375,-0.30469 0.609375,-0.63282 0,-0.49218 -0.574218,-0.72656 -1.078125,-0.72656 -0.726562,0 -1.125,0.71484 -1.242187,0.94922 -0.269531,-0.90234 -1.007813,-0.94922 -1.230469,-0.94922 -1.21875,0 -1.863281,1.57031 -1.863281,1.82813 0,0.0469 0.04687,0.10546 0.128906,0.10546 0.105469,0 0.128906,-0.0703 0.152344,-0.11718 0.398437,-1.32422 1.207031,-1.57032 1.546875,-1.57032 0.539062,0 0.644531,0.49219 0.644531,0.78516 0,0.25781 -0.07031,0.53906 -0.210937,1.11328 l -0.410157,1.62891 c -0.175781,0.72656 -0.527343,1.38281 -1.160156,1.38281 -0.05859,0 -0.351562,0 -0.609375,-0.15234 0.433594,-0.0937 0.527344,-0.44532 0.527344,-0.58594 0,-0.24609 -0.175781,-0.38672 -0.398438,-0.38672 -0.292968,0 -0.597656,0.24609 -0.597656,0.63281 0,0.50391 0.5625,0.72657 1.066406,0.72657 0.574219,0 0.984375,-0.45704 1.230469,-0.9375 0.199219,0.70312 0.796875,0.9375 1.230469,0.9375 1.230469,0 1.875,-1.5586 1.875,-1.82813 0,-0.0586 -0.04687,-0.10547 -0.128906,-0.10547 -0.105469,0 -0.117188,0.0586 -0.152344,0.15235 -0.316406,1.05468 -1.019531,1.54687 -1.546875,1.54687 -0.421875,0 -0.65625,-0.31641 -0.65625,-0.80859 0,-0.25782 0.05859,-0.44532 0.246094,-1.24219 l 0.421875,-1.61719 c 0.175781,-0.72656 0.585937,-1.24219 1.125,-1.24219 0.03516,0 0.363281,0 0.609375,0.15235 z m 0,0"
         style="fill:#000000;fill-opacity:1;fill-rule:nonzero;stroke:none" />
      <path
         id="path15"
         d="m 74.114227,142.56812 c 0,-0.16407 0,-0.22266 -0.164063,-0.22266 -0.105469,0 -0.117187,0.0117 -0.199219,0.11719 l -2.542968,3.6914 v 0.25782 h 2.25 v 0.66797 c 0,0.29296 -0.02344,0.38671 -0.632813,0.38671 h -0.1875 v 0.25782 c 0.679688,-0.0234 0.691406,-0.0234 1.148438,-0.0234 0.457031,0 0.46875,0 1.148437,0.0234 v -0.25782 h -0.1875 c -0.609375,0 -0.632812,-0.0937 -0.632812,-0.38671 v -0.66797 h 0.84375 v -0.25782 h -0.84375 z m -0.597657,0.64453 v 2.9414 h -2.027343 z m 0,0"
         style="fill:#000000;fill-opacity:1;fill-rule:nonzero;stroke:none" />
      <path
         id="path16"
         d="m 83.131805,143.16577 h 3.304687 c 0.164063,0 0.375,0 0.375,-0.21093 0,-0.22266 -0.199219,-0.22266 -0.375,-0.22266 h -3.304687 v -3.30469 c 0,-0.16406 0,-0.38672 -0.210938,-0.38672 -0.234375,0 -0.234375,0.21094 -0.234375,0.38672 v 3.30469 h -3.292969 c -0.175781,0 -0.386718,0 -0.386718,0.21094 0,0.22265 0.199218,0.22265 0.386718,0.22265 h 3.292969 v 3.30469 c 0,0.16406 0,0.38672 0.222656,0.38672 0.222657,0 0.222657,-0.21094 0.222657,-0.38672 z m 0,0"
         style="fill:#000000;fill-opacity:1;fill-rule:nonzero;stroke:none" />
      <path
         id="path17"
         d="m 92.328094,145.35718 c 0,-0.35156 -0.292969,-0.58594 -0.574219,-0.58594 -0.351562,0 -0.585937,0.29297 -0.585937,0.57422 0,0.35156 0.28125,0.58594 0.574218,0.58594 0.339844,0 0.585938,-0.28125 0.585938,-0.57422 z m 5.24707,0 c 0,-0.35156 -0.292969,-0.58594 -0.574219,-0.58594 -0.351562,0 -0.585937,0.29297 -0.585937,0.57422 0,0.35156 0.28125,0.58594 0.574219,0.58594 0.339843,0 0.585937,-0.28125 0.585937,-0.57422 z m 5.235356,0 c 0,-0.35156 -0.29297,-0.58594 -0.57422,-0.58594 -0.35157,0 -0.58594,0.29297 -0.58594,0.57422 0,0.35156 0.28125,0.58594 0.57422,0.58594 0.33984,0 0.58594,-0.28125 0.58594,-0.57422 z m 0,0"
         style="fill:#000000;fill-opacity:1;fill-rule:nonzero;stroke:none" />
      <path
         id="path18"
         d="m 111.28903,143.16577 h 3.30469 c 0.16406,0 0.375,0 0.375,-0.21093 0,-0.22266 -0.19922,-0.22266 -0.375,-0.22266 h -3.30469 v -3.30469 c 0,-0.16406 0,-0.38672 -0.21094,-0.38672 -0.23437,0 -0.23437,0.21094 -0.23437,0.38672 v 3.30469 h -3.29297 c -0.17578,0 -0.38672,0 -0.38672,0.21094 0,0.22265 0.19922,0.22265 0.38672,0.22265 h 3.29297 v 3.30469 c 0,0.16406 0,0.38672 0.22266,0.38672 0.22265,0 0.22265,-0.21094 0.22265,-0.38672 z m 0,0"
         style="fill:#000000;fill-opacity:1;fill-rule:nonzero;stroke:none" />
      <path
         id="path19"
         d="m 123.94235,141.0564 c -0.375,0.0703 -0.51562,0.35156 -0.51562,0.58594 0,0.28125 0.22265,0.375 0.38672,0.375 0.36328,0 0.60937,-0.30469 0.60937,-0.63282 0,-0.49218 -0.57422,-0.72656 -1.07812,-0.72656 -0.72657,0 -1.125,0.71484 -1.24219,0.94922 -0.26953,-0.90234 -1.00781,-0.94922 -1.23047,-0.94922 -1.21875,0 -1.86328,1.57031 -1.86328,1.82813 0,0.0469 0.0469,0.10546 0.1289,0.10546 0.10547,0 0.12891,-0.0703 0.15235,-0.11718 0.39844,-1.32422 1.20703,-1.57032 1.54687,-1.57032 0.53907,0 0.64453,0.49219 0.64453,0.78516 0,0.25781 -0.0703,0.53906 -0.21093,1.11328 l -0.41016,1.62891 c -0.17578,0.72656 -0.52734,1.38281 -1.16016,1.38281 -0.0586,0 -0.35156,0 -0.60937,-0.15234 0.43359,-0.0937 0.52734,-0.44532 0.52734,-0.58594 0,-0.24609 -0.17578,-0.38672 -0.39843,-0.38672 -0.29297,0 -0.59766,0.24609 -0.59766,0.63281 0,0.50391 0.5625,0.72657 1.06641,0.72657 0.57421,0 0.98437,-0.45704 1.23046,-0.9375 0.19922,0.70312 0.79688,0.9375 1.23047,0.9375 1.23047,0 1.875,-1.5586 1.875,-1.82813 0,-0.0586 -0.0469,-0.10547 -0.1289,-0.10547 -0.10547,0 -0.11719,0.0586 -0.15235,0.15235 -0.3164,1.05468 -1.01953,1.54687 -1.54687,1.54687 -0.42188,0 -0.65625,-0.31641 -0.65625,-0.80859 0,-0.25782 0.0586,-0.44532 0.24609,-1.24219 l 0.42188,-1.61719 c 0.17578,-0.72656 0.58593,-1.24219 1.125,-1.24219 0.0351,0 0.36328,0 0.60937,0.15235 z m 0,0"
         style="fill:#000000;fill-opacity:1;fill-rule:nonzero;stroke:none" />
      <path
         id="path20"
         d="m 127.4404,142.65015 c 0,-0.22266 -0.0234,-0.22266 -0.23438,-0.22266 -0.32812,0.31641 -0.75,0.50391 -1.51172,0.50391 v 0.26953 c 0.22266,0 0.64454,0 1.11329,-0.22266 v 4.08985 c 0,0.29297 -0.0234,0.39843 -0.78516,0.39843 h -0.28125 v 0.25782 c 0.32812,-0.0234 1.01953,-0.0234 1.37109,-0.0234 0.36328,0 1.05469,0 1.38282,0.0234 v -0.25782 h -0.28125 c -0.75,0 -0.77344,-0.10546 -0.77344,-0.39843 z m 5.63086,2.53125 c 0,-0.85547 -0.0937,-1.3711 -0.35156,-1.875 -0.35157,-0.70313 -0.9961,-0.87891 -1.44141,-0.87891 -0.99609,0 -1.37109,0.75 -1.47656,0.97266 -0.29297,0.57422 -0.30469,1.37109 -0.30469,1.78125 0,0.52734 0.0234,1.33594 0.41016,1.96875 0.36328,0.58594 0.94921,0.73828 1.37109,0.73828 0.38672,0 1.06641,-0.11719 1.46484,-0.90234 0.29297,-0.57422 0.32813,-1.28907 0.32813,-1.80469 z m -1.79297,2.48437 c -0.26953,0 -0.82031,-0.1289 -0.98438,-0.96093 -0.0937,-0.45704 -0.0937,-1.20704 -0.0937,-1.61719 0,-0.55078 0,-1.11328 0.0937,-1.54688 0.16407,-0.80859 0.78516,-0.89062 0.98438,-0.89062 0.26953,0 0.82031,0.1289 0.98437,0.85547 0.0937,0.44531 0.0937,1.04297 0.0937,1.58203 0,0.46875 0,1.18359 -0.0937,1.6289 -0.16406,0.84375 -0.71484,0.94922 -0.98437,0.94922 z m 6.02637,-2.48437 c 0,-0.85547 -0.0937,-1.3711 -0.35157,-1.875 -0.35156,-0.70313 -0.99609,-0.87891 -1.4414,-0.87891 -0.9961,0 -1.3711,0.75 -1.47656,0.97266 -0.29297,0.57422 -0.30469,1.37109 -0.30469,1.78125 0,0.52734 0.0234,1.33594 0.41015,1.96875 0.36329,0.58594 0.94922,0.73828 1.3711,0.73828 0.38672,0 1.0664,-0.11719 1.46484,-0.90234 0.29297,-0.57422 0.32813,-1.28907 0.32813,-1.80469 z m -1.79297,2.48437 c -0.26953,0 -0.82031,-0.1289 -0.98438,-0.96093 -0.0937,-0.45704 -0.0937,-1.20704 -0.0937,-1.61719 0,-0.55078 0,-1.11328 0.0937,-1.54688 0.16407,-0.80859 0.78516,-0.89062 0.98438,-0.89062 0.26953,0 0.82031,0.1289 0.98437,0.85547 0.0937,0.44531 0.0937,1.04297 0.0937,1.58203 0,0.46875 0,1.18359 -0.0937,1.6289 -0.16406,0.84375 -0.71484,0.94922 -0.98437,0.94922 z m 0,0"
         style="fill:#000000;fill-opacity:1;fill-rule:nonzero;stroke:none" />
      <path
         id="path21"
         d="m 143.79391,141.0564 c -0.375,0.0703 -0.51562,0.35156 -0.51562,0.58594 0,0.28125 0.22266,0.375 0.38672,0.375 0.36328,0 0.60937,-0.30469 0.60937,-0.63282 0,-0.49218 -0.57422,-0.72656 -1.07812,-0.72656 -0.72656,0 -1.125,0.71484 -1.24219,0.94922 -0.26953,-0.90234 -1.00781,-0.94922 -1.23047,-0.94922 -1.21875,0 -1.86328,1.57031 -1.86328,1.82813 0,0.0469 0.0469,0.10546 0.12891,0.10546 0.10547,0 0.1289,-0.0703 0.15234,-0.11718 0.39844,-1.32422 1.20703,-1.57032 1.54688,-1.57032 0.53906,0 0.64453,0.49219 0.64453,0.78516 0,0.25781 -0.0703,0.53906 -0.21094,1.11328 l -0.41016,1.62891 c -0.17578,0.72656 -0.52734,1.38281 -1.16015,1.38281 -0.0586,0 -0.35157,0 -0.60938,-0.15234 0.4336,-0.0937 0.52735,-0.44532 0.52735,-0.58594 0,-0.24609 -0.17579,-0.38672 -0.39844,-0.38672 -0.29297,0 -0.59766,0.24609 -0.59766,0.63281 0,0.50391 0.5625,0.72657 1.06641,0.72657 0.57422,0 0.98437,-0.45704 1.23047,-0.9375 0.19922,0.70312 0.79687,0.9375 1.23047,0.9375 1.23046,0 1.875,-1.5586 1.875,-1.82813 0,-0.0586 -0.0469,-0.10547 -0.12891,-0.10547 -0.10547,0 -0.11719,0.0586 -0.15234,0.15235 -0.31641,1.05468 -1.01954,1.54687 -1.54688,1.54687 -0.42187,0 -0.65625,-0.31641 -0.65625,-0.80859 0,-0.25782 0.0586,-0.44532 0.24609,-1.24219 l 0.42188,-1.61719 c 0.17578,-0.72656 0.58594,-1.24219 1.125,-1.24219 0.0352,0 0.36328,0 0.60937,0.15235 z m 0,0"
         style="fill:#000000;fill-opacity:1;fill-rule:nonzero;stroke:none" />
      <path
         id="path22"
         d="m 147.29489,142.65015 c 0,-0.22266 -0.0234,-0.22266 -0.23437,-0.22266 -0.32813,0.31641 -0.75,0.50391 -1.51172,0.50391 v 0.26953 c 0.22265,0 0.64453,0 1.11328,-0.22266 v 4.08985 c 0,0.29297 -0.0234,0.39843 -0.78516,0.39843 h -0.28125 v 0.25782 c 0.32813,-0.0234 1.01953,-0.0234 1.3711,-0.0234 0.36328,0 1.05468,0 1.38281,0.0234 v -0.25782 h -0.28125 c -0.75,0 -0.77344,-0.10546 -0.77344,-0.39843 z m 5.62793,2.53125 c 0,-0.85547 -0.0937,-1.3711 -0.35156,-1.875 -0.35156,-0.70313 -0.9961,-0.87891 -1.44141,-0.87891 -0.99609,0 -1.37109,0.75 -1.47656,0.97266 -0.29297,0.57422 -0.30469,1.37109 -0.30469,1.78125 0,0.52734 0.0234,1.33594 0.41016,1.96875 0.36328,0.58594 0.94922,0.73828 1.37109,0.73828 0.38672,0 1.06641,-0.11719 1.46485,-0.90234 0.29296,-0.57422 0.32812,-1.28907 0.32812,-1.80469 z m -1.79297,2.48437 c -0.26953,0 -0.82031,-0.1289 -0.98437,-0.96093 -0.0937,-0.45704 -0.0937,-1.20704 -0.0937,-1.61719 0,-0.55078 0,-1.11328 0.0937,-1.54688 0.16406,-0.80859 0.78515,-0.89062 0.98437,-0.89062 0.26953,0 0.82031,0.1289 0.98438,0.85547 0.0937,0.44531 0.0937,1.04297 0.0937,1.58203 0,0.46875 0,1.18359 -0.0937,1.6289 -0.16407,0.84375 -0.71485,0.94922 -0.98438,0.94922 z m 4.63184,-5.01562 c 0,-0.22266 -0.0234,-0.22266 -0.23438,-0.22266 -0.32812,0.31641 -0.75,0.50391 -1.51172,0.50391 v 0.26953 c 0.22266,0 0.64454,0 1.11329,-0.22266 v 4.08985 c 0,0.29297 -0.0234,0.39843 -0.78516,0.39843 h -0.28125 v 0.25782 c 0.32812,-0.0234 1.01953,-0.0234 1.37109,-0.0234 0.36328,0 1.05469,0 1.38282,0.0234 v -0.25782 h -0.28125 c -0.75,0 -0.77344,-0.10546 -0.77344,-0.39843 z m 0,0"
         style="fill:#000000;fill-opacity:1;fill-rule:nonzero;stroke:none" />
      <path
         id="path23"
         d="m 165.41208,143.16577 h 3.30469 c 0.16406,0 0.375,0 0.375,-0.21093 0,-0.22266 -0.19922,-0.22266 -0.375,-0.22266 h -3.30469 v -3.30469 c 0,-0.16406 0,-0.38672 -0.21094,-0.38672 -0.23437,0 -0.23437,0.21094 -0.23437,0.38672 v 3.30469 h -3.29297 c -0.17578,0 -0.38672,0 -0.38672,0.21094 0,0.22265 0.19922,0.22265 0.38672,0.22265 h 3.29297 v 3.30469 c 0,0.16406 0,0.38672 0.22265,0.38672 0.22266,0 0.22266,-0.21094 0.22266,-0.38672 z m 0,0"
         style="fill:#000000;fill-opacity:1;fill-rule:nonzero;stroke:none" />
      <path
         id="path24"
         d="m 178.0654,141.0564 c -0.375,0.0703 -0.51563,0.35156 -0.51563,0.58594 0,0.28125 0.22266,0.375 0.38672,0.375 0.36328,0 0.60938,-0.30469 0.60938,-0.63282 0,-0.49218 -0.57422,-0.72656 -1.07813,-0.72656 -0.72656,0 -1.125,0.71484 -1.24219,0.94922 -0.26953,-0.90234 -1.00781,-0.94922 -1.23046,-0.94922 -1.21875,0 -1.86329,1.57031 -1.86329,1.82813 0,0.0469 0.0469,0.10546 0.12891,0.10546 0.10547,0 0.12891,-0.0703 0.15234,-0.11718 0.39844,-1.32422 1.20704,-1.57032 1.54688,-1.57032 0.53906,0 0.64453,0.49219 0.64453,0.78516 0,0.25781 -0.0703,0.53906 -0.21094,1.11328 l -0.41015,1.62891 c -0.17578,0.72656 -0.52735,1.38281 -1.16016,1.38281 -0.0586,0 -0.35156,0 -0.60937,-0.15234 0.43359,-0.0937 0.52734,-0.44532 0.52734,-0.58594 0,-0.24609 -0.17578,-0.38672 -0.39844,-0.38672 -0.29297,0 -0.59765,0.24609 -0.59765,0.63281 0,0.50391 0.5625,0.72657 1.0664,0.72657 0.57422,0 0.98438,-0.45704 1.23047,-0.9375 0.19922,0.70312 0.79688,0.9375 1.23047,0.9375 1.23047,0 1.875,-1.5586 1.875,-1.82813 0,-0.0586 -0.0469,-0.10547 -0.12891,-0.10547 -0.10547,0 -0.11718,0.0586 -0.15234,0.15235 -0.31641,1.05468 -1.01953,1.54687 -1.54688,1.54687 -0.42187,0 -0.65625,-0.31641 -0.65625,-0.80859 0,-0.25782 0.0586,-0.44532 0.2461,-1.24219 l 0.42187,-1.61719 c 0.17578,-0.72656 0.58594,-1.24219 1.125,-1.24219 0.0352,0 0.36328,0 0.60938,0.15235 z m 0,0"
         style="fill:#000000;fill-opacity:1;fill-rule:nonzero;stroke:none" />
      <path
         id="path25"
         d="m 181.56345,142.65015 c 0,-0.22266 -0.0234,-0.22266 -0.23438,-0.22266 -0.32812,0.31641 -0.75,0.50391 -1.51172,0.50391 v 0.26953 c 0.22266,0 0.64453,0 1.11328,-0.22266 v 4.08985 c 0,0.29297 -0.0234,0.39843 -0.78515,0.39843 h -0.28125 v 0.25782 c 0.32812,-0.0234 1.01953,-0.0234 1.37109,-0.0234 0.36328,0 1.05469,0 1.38281,0.0234 v -0.25782 h -0.28125 c -0.75,0 -0.77343,-0.10546 -0.77343,-0.39843 z m 5.63085,2.53125 c 0,-0.85547 -0.0937,-1.3711 -0.35156,-1.875 -0.35156,-0.70313 -0.99609,-0.87891 -1.4414,-0.87891 -0.9961,0 -1.3711,0.75 -1.47657,0.97266 -0.29297,0.57422 -0.30468,1.37109 -0.30468,1.78125 0,0.52734 0.0234,1.33594 0.41015,1.96875 0.36328,0.58594 0.94922,0.73828 1.3711,0.73828 0.38671,0 1.0664,-0.11719 1.46484,-0.90234 0.29297,-0.57422 0.32812,-1.28907 0.32812,-1.80469 z m -1.79296,2.48437 c -0.26954,0 -0.82032,-0.1289 -0.98438,-0.96093 -0.0937,-0.45704 -0.0937,-1.20704 -0.0937,-1.61719 0,-0.55078 0,-1.11328 0.0937,-1.54688 0.16406,-0.80859 0.78516,-0.89062 0.98438,-0.89062 0.26953,0 0.82031,0.1289 0.98437,0.85547 0.0937,0.44531 0.0937,1.04297 0.0937,1.58203 0,0.46875 0,1.18359 -0.0937,1.6289 -0.16406,0.84375 -0.71484,0.94922 -0.98437,0.94922 z m 4.63183,-5.01562 c 0,-0.22266 -0.0234,-0.22266 -0.23437,-0.22266 -0.32813,0.31641 -0.75,0.50391 -1.51172,0.50391 v 0.26953 c 0.22265,0 0.64453,0 1.11328,-0.22266 v 4.08985 c 0,0.29297 -0.0234,0.39843 -0.78516,0.39843 h -0.28125 v 0.25782 c 0.32813,-0.0234 1.01953,-0.0234 1.3711,-0.0234 0.36328,0 1.05468,0 1.38281,0.0234 v -0.25782 h -0.28125 c -0.75,0 -0.77344,-0.10546 -0.77344,-0.39843 z m 0,0"
         style="fill:#000000;fill-opacity:1;fill-rule:nonzero;stroke:none" />
      <path
         id="path26"
         d="m 197.91696,141.0564 c -0.375,0.0703 -0.51562,0.35156 -0.51562,0.58594 0,0.28125 0.22265,0.375 0.38671,0.375 0.36329,0 0.60938,-0.30469 0.60938,-0.63282 0,-0.49218 -0.57422,-0.72656 -1.07813,-0.72656 -0.72656,0 -1.125,0.71484 -1.24218,0.94922 -0.26953,-0.90234 -1.00782,-0.94922 -1.23047,-0.94922 -1.21875,0 -1.86328,1.57031 -1.86328,1.82813 0,0.0469 0.0469,0.10546 0.1289,0.10546 0.10547,0 0.12891,-0.0703 0.15235,-0.11718 0.39843,-1.32422 1.20703,-1.57032 1.54687,-1.57032 0.53906,0 0.64453,0.49219 0.64453,0.78516 0,0.25781 -0.0703,0.53906 -0.21093,1.11328 l -0.41016,1.62891 c -0.17578,0.72656 -0.52734,1.38281 -1.16016,1.38281 -0.0586,0 -0.35156,0 -0.60937,-0.15234 0.43359,-0.0937 0.52734,-0.44532 0.52734,-0.58594 0,-0.24609 -0.17578,-0.38672 -0.39844,-0.38672 -0.29296,0 -0.59765,0.24609 -0.59765,0.63281 0,0.50391 0.5625,0.72657 1.0664,0.72657 0.57422,0 0.98438,-0.45704 1.23047,-0.9375 0.19922,0.70312 0.79688,0.9375 1.23047,0.9375 1.23047,0 1.875,-1.5586 1.875,-1.82813 0,-0.0586 -0.0469,-0.10547 -0.1289,-0.10547 -0.10547,0 -0.11719,0.0586 -0.15235,0.15235 -0.3164,1.05468 -1.01953,1.54687 -1.54687,1.54687 -0.42188,0 -0.65625,-0.31641 -0.65625,-0.80859 0,-0.25782 0.0586,-0.44532 0.24609,-1.24219 l 0.42188,-1.61719 c 0.17578,-0.72656 0.58593,-1.24219 1.125,-1.24219 0.0351,0 0.36328,0 0.60937,0.15235 z m 0,0"
         style="fill:#000000;fill-opacity:1;fill-rule:nonzero;stroke:none" />
      <path
         id="path27"
         d="m 201.41794,142.65015 c 0,-0.22266 -0.0234,-0.22266 -0.23438,-0.22266 -0.32812,0.31641 -0.75,0.50391 -1.51172,0.50391 v 0.26953 c 0.22266,0 0.64454,0 1.11329,-0.22266 v 4.08985 c 0,0.29297 -0.0234,0.39843 -0.78516,0.39843 h -0.28125 v 0.25782 c 0.32812,-0.0234 1.01953,-0.0234 1.37109,-0.0234 0.36328,0 1.05469,0 1.38282,0.0234 v -0.25782 h -0.28125 c -0.75,0 -0.77344,-0.10546 -0.77344,-0.39843 z m 0,0"
         style="fill:#000000;fill-opacity:1;fill-rule:nonzero;stroke:none" />
      <path
         id="path28"
         d="m 205.9736,145.97827 c 0,-0.6914 -0.22265,-1.20703 -0.71484,-1.20703 -0.38672,0 -0.57422,0.31641 -0.57422,0.57422 0,0.25781 0.17578,0.58594 0.58594,0.58594 0.15234,0 0.28125,-0.0469 0.38672,-0.15235 0.0234,-0.0234 0.0352,-0.0234 0.0469,-0.0234 0.0352,0 0.0352,0.16406 0.0352,0.22265 0,0.39844 -0.082,1.17188 -0.77344,1.94532 -0.12891,0.15234 -0.12891,0.17578 -0.12891,0.19921 0,0.0586 0.0586,0.11719 0.11719,0.11719 0.0937,0 1.01953,-0.89062 1.01953,-2.26172 z m 0,0"
         style="fill:#000000;fill-opacity:1;fill-rule:nonzero;stroke:none" />
      <path
         id="path29"
         d="m -50.880891,168.90015 c -0.375,0.0703 -0.515625,0.35156 -0.515625,0.58594 0,0.28125 0.222657,0.375 0.386719,0.375 0.363281,0 0.609375,-0.30469 0.609375,-0.63282 0,-0.49218 -0.574219,-0.72656 -1.078125,-0.72656 -0.726562,0 -1.125,0.71484 -1.242187,0.94922 -0.269532,-0.90234 -1.007813,-0.94922 -1.230469,-0.94922 -1.21875,0 -1.863281,1.57031 -1.863281,1.82813 0,0.0469 0.04687,0.10546 0.128906,0.10546 0.105469,0 0.128906,-0.0703 0.152344,-0.11718 0.398437,-1.32422 1.207031,-1.57032 1.546875,-1.57032 0.539062,0 0.644531,0.49219 0.644531,0.78516 0,0.25781 -0.07031,0.53906 -0.210938,1.11328 l -0.410156,1.62891 c -0.175781,0.72656 -0.527344,1.38281 -1.160156,1.38281 -0.05859,0 -0.351563,0 -0.609375,-0.15234 0.433594,-0.0937 0.527344,-0.44532 0.527344,-0.58594 0,-0.24609 -0.175782,-0.38672 -0.398438,-0.38672 -0.292969,0 -0.597656,0.24609 -0.597656,0.63281 0,0.50391 0.5625,0.72657 1.066406,0.72657 0.574219,0 0.984375,-0.45704 1.230469,-0.9375 0.199219,0.70312 0.796875,0.9375 1.230469,0.9375 1.230468,0 1.875,-1.5586 1.875,-1.82813 0,-0.0586 -0.04687,-0.10547 -0.128907,-0.10547 -0.105468,0 -0.117187,0.0586 -0.152343,0.15235 -0.316407,1.05468 -1.019532,1.54687 -1.546875,1.54687 -0.421875,0 -0.65625,-0.31641 -0.65625,-0.80859 0,-0.25782 0.05859,-0.44532 0.246093,-1.24219 l 0.421875,-1.61719 c 0.175782,-0.72656 0.585938,-1.24219 1.125,-1.24219 0.03516,0 0.363282,0 0.609375,0.15235 z m 0,0"
         style="fill:#000000;fill-opacity:1;fill-rule:nonzero;stroke:none" />
      <path
         id="path30"
         d="m -47.379914,170.4939 c 0,-0.22266 -0.02344,-0.22266 -0.234375,-0.22266 -0.328125,0.31641 -0.75,0.50391 -1.511719,0.50391 v 0.26953 c 0.222656,0 0.644531,0 1.113281,-0.22266 v 4.08985 c 0,0.29297 -0.02344,0.39843 -0.785156,0.39843 h -0.28125 v 0.25782 c 0.328125,-0.0234 1.019531,-0.0234 1.371094,-0.0234 0.363281,0 1.054687,0 1.382812,0.0234 v -0.25782 h -0.28125 c -0.75,0 -0.773437,-0.10546 -0.773437,-0.39843 z m 0,0"
         style="fill:#000000;fill-opacity:1;fill-rule:nonzero;stroke:none" />
      <path
         id="path31"
         d="m -42.82425,173.82202 c 0,-0.6914 -0.222656,-1.20703 -0.714844,-1.20703 -0.386718,0 -0.574218,0.31641 -0.574218,0.57422 0,0.25781 0.175781,0.58594 0.585937,0.58594 0.152344,0 0.28125,-0.0469 0.386719,-0.15235 0.02344,-0.0234 0.03516,-0.0234 0.04687,-0.0234 0.03516,0 0.03516,0.16406 0.03516,0.22265 0,0.39844 -0.08203,1.17188 -0.773437,1.94532 -0.128907,0.15234 -0.128907,0.17578 -0.128907,0.19921 0,0.0586 0.05859,0.11719 0.117188,0.11719 0.09375,0 1.019531,-0.89062 1.019531,-2.26172 z m 8.575195,-4.92187 c -0.375,0.0703 -0.515625,0.35156 -0.515625,0.58594 0,0.28125 0.222657,0.375 0.386719,0.375 0.363281,0 0.609375,-0.30469 0.609375,-0.63282 0,-0.49218 -0.574219,-0.72656 -1.078125,-0.72656 -0.726562,0 -1.125,0.71484 -1.242187,0.94922 -0.269532,-0.90234 -1.007813,-0.94922 -1.230469,-0.94922 -1.21875,0 -1.863281,1.57031 -1.863281,1.82813 0,0.0469 0.04687,0.10546 0.128906,0.10546 0.105469,0 0.128906,-0.0703 0.152344,-0.11718 0.398437,-1.32422 1.207031,-1.57032 1.546875,-1.57032 0.539062,0 0.644531,0.49219 0.644531,0.78516 0,0.25781 -0.07031,0.53906 -0.210938,1.11328 l -0.410156,1.62891 c -0.175781,0.72656 -0.527344,1.38281 -1.160156,1.38281 -0.05859,0 -0.351563,0 -0.609375,-0.15234 0.433594,-0.0937 0.527344,-0.44532 0.527344,-0.58594 0,-0.24609 -0.175782,-0.38672 -0.398438,-0.38672 -0.292969,0 -0.597656,0.24609 -0.597656,0.63281 0,0.50391 0.5625,0.72657 1.066406,0.72657 0.574219,0 0.984375,-0.45704 1.230469,-0.9375 0.199219,0.70312 0.796875,0.9375 1.230469,0.9375 1.230468,0 1.875,-1.5586 1.875,-1.82813 0,-0.0586 -0.04687,-0.10547 -0.128907,-0.10547 -0.105468,0 -0.117187,0.0586 -0.152343,0.15235 -0.316407,1.05468 -1.019532,1.54687 -1.546875,1.54687 -0.421875,0 -0.65625,-0.31641 -0.65625,-0.80859 0,-0.25782 0.05859,-0.44532 0.246093,-1.24219 l 0.421875,-1.61719 c 0.175782,-0.72656 0.585938,-1.24219 1.125,-1.24219 0.03516,0 0.363282,0 0.609375,0.15235 z m 0,0"
         style="fill:#000000;fill-opacity:1;fill-rule:nonzero;stroke:none" />
      <path
         id="path32"
         d="m -31.00882,173.93921 c 0.128906,-0.11719 0.457031,-0.375 0.585937,-0.49219 0.492188,-0.45703 0.960938,-0.89062 0.960938,-1.61718 0,-0.94922 -0.796875,-1.5586 -1.792969,-1.5586 -0.949219,0 -1.582031,0.72656 -1.582031,1.42969 0,0.39844 0.316406,0.44531 0.421875,0.44531 0.164062,0 0.410156,-0.11719 0.410156,-0.42187 0,-0.41016 -0.398438,-0.41016 -0.492188,-0.41016 0.234375,-0.58594 0.773438,-0.78516 1.160157,-0.78516 0.738281,0 1.125,0.63282 1.125,1.30079 0,0.83203 -0.585938,1.42968 -1.523438,2.40234 l -1.007812,1.03125 c -0.09375,0.0937 -0.09375,0.10547 -0.09375,0.30469 h 3.152343 l 0.222657,-1.42969 h -0.246094 c -0.02344,0.16406 -0.08203,0.5625 -0.175781,0.71484 -0.04687,0.0586 -0.65625,0.0586 -0.785157,0.0586 h -1.417968 z m 0,0"
         style="fill:#000000;fill-opacity:1;fill-rule:nonzero;stroke:none" />
      <path
         id="path33"
         d="m -26.195344,173.82202 c 0,-0.6914 -0.222656,-1.20703 -0.714843,-1.20703 -0.386719,0 -0.574219,0.31641 -0.574219,0.57422 0,0.25781 0.175781,0.58594 0.585937,0.58594 0.152344,0 0.28125,-0.0469 0.386719,-0.15235 0.02344,-0.0234 0.03516,-0.0234 0.04687,-0.0234 0.03516,0 0.03516,0.16406 0.03516,0.22265 0,0.39844 -0.08203,1.17188 -0.773437,1.94532 -0.128906,0.15234 -0.128906,0.17578 -0.128906,0.19921 0,0.0586 0.05859,0.11719 0.117187,0.11719 0.09375,0 1.019531,-0.89062 1.019531,-2.26172 z m 8.575196,-4.92187 c -0.375,0.0703 -0.515625,0.35156 -0.515625,0.58594 0,0.28125 0.222656,0.375 0.386718,0.375 0.363282,0 0.609375,-0.30469 0.609375,-0.63282 0,-0.49218 -0.574218,-0.72656 -1.078125,-0.72656 -0.726562,0 -1.125,0.71484 -1.242187,0.94922 -0.269531,-0.90234 -1.007813,-0.94922 -1.230469,-0.94922 -1.21875,0 -1.863281,1.57031 -1.863281,1.82813 0,0.0469 0.04687,0.10546 0.128906,0.10546 0.105469,0 0.128906,-0.0703 0.152344,-0.11718 0.398437,-1.32422 1.207031,-1.57032 1.546875,-1.57032 0.539062,0 0.644531,0.49219 0.644531,0.78516 0,0.25781 -0.07031,0.53906 -0.210937,1.11328 l -0.410157,1.62891 c -0.175781,0.72656 -0.527343,1.38281 -1.160156,1.38281 -0.05859,0 -0.351562,0 -0.609375,-0.15234 0.433594,-0.0937 0.527344,-0.44532 0.527344,-0.58594 0,-0.24609 -0.175781,-0.38672 -0.398438,-0.38672 -0.292968,0 -0.597656,0.24609 -0.597656,0.63281 0,0.50391 0.5625,0.72657 1.066406,0.72657 0.574219,0 0.984375,-0.45704 1.230469,-0.9375 0.199219,0.70312 0.796875,0.9375 1.230469,0.9375 1.230469,0 1.875,-1.5586 1.875,-1.82813 0,-0.0586 -0.04687,-0.10547 -0.128906,-0.10547 -0.105469,0 -0.117188,0.0586 -0.152344,0.15235 -0.316406,1.05468 -1.019531,1.54687 -1.546875,1.54687 -0.421875,0 -0.65625,-0.31641 -0.65625,-0.80859 0,-0.25782 0.05859,-0.44532 0.246094,-1.24219 l 0.421875,-1.61719 c 0.175781,-0.72656 0.585937,-1.24219 1.125,-1.24219 0.03516,0 0.363281,0 0.609375,0.15235 z m 0,0"
         style="fill:#000000;fill-opacity:1;fill-rule:nonzero;stroke:none" />
      <path
         id="path34"
         d="m -14.617219,172.90796 c 0.632813,0 1.03125,0.45703 1.03125,1.30078 0,0.9961 -0.574218,1.28906 -0.996093,1.28906 -0.433594,0 -1.03125,-0.16406 -1.3125,-0.58593 0.292968,0 0.492187,-0.17578 0.492187,-0.44532 0,-0.25781 -0.1875,-0.43359 -0.445312,-0.43359 -0.210938,0 -0.433594,0.12891 -0.433594,0.45703 0,0.75 0.808594,1.24219 1.722656,1.24219 1.054688,0 1.792969,-0.72656 1.792969,-1.52344 0,-0.66797 -0.515625,-1.26562 -1.335938,-1.4414 0.632813,-0.22266 1.101563,-0.77344 1.101563,-1.40625 0,-0.63282 -0.714844,-1.08985 -1.546875,-1.08985 -0.855469,0 -1.5,0.45703 -1.5,1.06641 0,0.29297 0.199219,0.42187 0.410156,0.42187 0.246094,0 0.410156,-0.17578 0.410156,-0.41015 0,-0.29297 -0.257812,-0.39844 -0.433593,-0.41016 0.339843,-0.43359 0.949218,-0.46875 1.089843,-0.46875 0.210938,0 0.808594,0.0703 0.808594,0.89063 0,0.5625 -0.222656,0.89062 -0.339844,1.01953 -0.234375,0.24609 -0.421875,0.25781 -0.902343,0.29297 -0.152344,0.0117 -0.222657,0.0234 -0.222657,0.11718 0,0.11719 0.07031,0.11719 0.210938,0.11719 z m 0,0"
         style="fill:#000000;fill-opacity:1;fill-rule:nonzero;stroke:none" />
      <path
         id="path35"
         d="m -9.5693672,173.82202 c 0,-0.6914 -0.2226562,-1.20703 -0.7148438,-1.20703 -0.386719,0 -0.574219,0.31641 -0.574219,0.57422 0,0.25781 0.175782,0.58594 0.585938,0.58594 0.152344,0 0.2812498,-0.0469 0.3867186,-0.15235 0.023437,-0.0234 0.035156,-0.0234 0.046875,-0.0234 0.035156,0 0.035156,0.16406 0.035156,0.22265 0,0.39844 -0.082031,1.17188 -0.7734376,1.94532 -0.128906,0.15234 -0.128906,0.17578 -0.128906,0.19921 0,0.0586 0.05859,0.11719 0.117188,0.11719 0.09375,0 1.0195306,-0.89062 1.0195306,-2.26172 z m 5.1210938,-0.62109 c 0,-0.35156 -0.2929688,-0.58594 -0.5742188,-0.58594 -0.3515625,0 -0.5859375,0.29297 -0.5859375,0.57422 0,0.35156 0.28125,0.58594 0.5742188,0.58594 0.3398437,0 0.5859375,-0.28125 0.5859375,-0.57422 z m 5.23535153,0 c 0,-0.35156 -0.29296875,-0.58594 -0.57421875,-0.58594 -0.3515625,0 -0.5859375,0.29297 -0.5859375,0.57422 0,0.35156 0.28125,0.58594 0.57421875,0.58594 0.33984375,0 0.5859375,-0.28125 0.5859375,-0.57422 z m 5.24999997,0 c 0,-0.35156 -0.2929687,-0.58594 -0.5742187,-0.58594 -0.3515625,0 -0.5859375,0.29297 -0.5859375,0.57422 0,0.35156 0.28125,0.58594 0.5742187,0.58594 0.3398438,0 0.5859375,-0.28125 0.5859375,-0.57422 z m 5.3759769,0.62109 c 0,-0.6914 -0.222657,-1.20703 -0.714844,-1.20703 -0.386719,0 -0.574219,0.31641 -0.574219,0.57422 0,0.25781 0.175781,0.58594 0.585938,0.58594 0.152343,0 0.28125,-0.0469 0.386718,-0.15235 0.02344,-0.0234 0.03516,-0.0234 0.04687,-0.0234 0.03516,0 0.03516,0.16406 0.03516,0.22265 0,0.39844 -0.08203,1.17188 -0.773438,1.94532 -0.128906,0.15234 -0.128906,0.17578 -0.128906,0.19921 0,0.0586 0.05859,0.11719 0.117187,0.11719 0.09375,0 1.019532,-0.89062 1.019532,-2.26172 z m 8.563476,-4.92187 c -0.375,0.0703 -0.515625,0.35156 -0.515625,0.58594 0,0.28125 0.222657,0.375 0.386719,0.375 0.363281,0 0.609375,-0.30469 0.609375,-0.63282 0,-0.49218 -0.574219,-0.72656 -1.078125,-0.72656 -0.726562,0 -1.125,0.71484 -1.242187,0.94922 -0.269532,-0.90234 -1.007813,-0.94922 -1.230469,-0.94922 -1.21875,0 -1.863281,1.57031 -1.863281,1.82813 0,0.0469 0.04687,0.10546 0.128906,0.10546 0.105469,0 0.128906,-0.0703 0.152344,-0.11718 0.398437,-1.32422 1.207031,-1.57032 1.546875,-1.57032 0.539062,0 0.644531,0.49219 0.644531,0.78516 0,0.25781 -0.07031,0.53906 -0.210938,1.11328 l -0.410156,1.62891 c -0.175781,0.72656 -0.527344,1.38281 -1.160156,1.38281 -0.05859,0 -0.351563,0 -0.609375,-0.15234 0.433594,-0.0937 0.527344,-0.44532 0.527344,-0.58594 0,-0.24609 -0.175782,-0.38672 -0.398438,-0.38672 -0.292969,0 -0.597656,0.24609 -0.597656,0.63281 0,0.50391 0.5625,0.72657 1.066406,0.72657 0.574219,0 0.984375,-0.45704 1.230469,-0.9375 0.199219,0.70312 0.796875,0.9375 1.230469,0.9375 1.230468,0 1.875,-1.5586 1.875,-1.82813 0,-0.0586 -0.04687,-0.10547 -0.128907,-0.10547 -0.105468,0 -0.117187,0.0586 -0.152343,0.15235 -0.316407,1.05468 -1.019532,1.54687 -1.546875,1.54687 -0.421875,0 -0.65625,-0.31641 -0.65625,-0.80859 0,-0.25782 0.05859,-0.44532 0.246093,-1.24219 l 0.421875,-1.61719 c 0.175782,-0.72656 0.585938,-1.24219 1.125,-1.24219 0.03516,0 0.363282,0 0.609375,0.15235 z m 0,0"
         style="fill:#000000;fill-opacity:1;fill-rule:nonzero;stroke:none" />
      <path
         id="path36"
         d="m 23.480438,170.4939 c 0,-0.22266 -0.02344,-0.22266 -0.234375,-0.22266 -0.328125,0.31641 -0.75,0.50391 -1.511719,0.50391 v 0.26953 c 0.222656,0 0.644531,0 1.113281,-0.22266 v 4.08985 c 0,0.29297 -0.02344,0.39843 -0.785156,0.39843 h -0.28125 v 0.25782 c 0.328125,-0.0234 1.019531,-0.0234 1.371094,-0.0234 0.363281,0 1.054687,0 1.382812,0.0234 v -0.25782 h -0.28125 c -0.75,0 -0.773437,-0.10546 -0.773437,-0.39843 z m 5.630859,2.53125 c 0,-0.85547 -0.09375,-1.3711 -0.351563,-1.875 -0.351562,-0.70313 -0.996093,-0.87891 -1.441406,-0.87891 -0.996094,0 -1.371094,0.75 -1.476562,0.97266 -0.292969,0.57422 -0.304688,1.37109 -0.304688,1.78125 0,0.52734 0.02344,1.33594 0.410156,1.96875 0.363282,0.58594 0.949219,0.73828 1.371094,0.73828 0.386719,0 1.066406,-0.11719 1.464844,-0.90234 0.292969,-0.57422 0.328125,-1.28907 0.328125,-1.80469 z m -1.792969,2.48437 c -0.269531,0 -0.820312,-0.1289 -0.984375,-0.96093 -0.09375,-0.45704 -0.09375,-1.20704 -0.09375,-1.61719 0,-0.55078 0,-1.11328 0.09375,-1.54688 0.164063,-0.80859 0.785156,-0.89062 0.984375,-0.89062 0.269531,0 0.820313,0.1289 0.984375,0.85547 0.09375,0.44531 0.09375,1.04297 0.09375,1.58203 0,0.46875 0,1.18359 -0.09375,1.6289 -0.164062,0.84375 -0.714844,0.94922 -0.984375,0.94922 z m 4.631836,-5.01562 c 0,-0.22266 -0.02344,-0.22266 -0.234375,-0.22266 -0.328125,0.31641 -0.75,0.50391 -1.511719,0.50391 v 0.26953 c 0.222657,0 0.644532,0 1.113282,-0.22266 v 4.08985 c 0,0.29297 -0.02344,0.39843 -0.785157,0.39843 h -0.28125 v 0.25782 c 0.328125,-0.0234 1.019532,-0.0234 1.371094,-0.0234 0.363281,0 1.054688,0 1.382813,0.0234 v -0.25782 h -0.28125 c -0.75,0 -0.773438,-0.10546 -0.773438,-0.39843 z m 0,0"
         style="fill:#000000;fill-opacity:1;fill-rule:nonzero;stroke:none" />
      <path
         id="path37"
         d="m 98.152313,166.11109 c 0,-0.26954 0,-0.28125 -0.246094,-0.28125 -0.28125,0.3164 -0.878906,0.76171 -2.109375,0.76171 v 0.35157 c 0.269531,0 0.867187,0 1.523437,-0.31641 v 6.22266 c 0,0.43359 -0.03516,0.57422 -1.078125,0.57422 h -0.375 v 0.35156 c 0.316407,-0.0234 1.476563,-0.0234 1.875,-0.0234 0.398438,0 1.546875,0 1.863282,0.0234 v -0.35156 h -0.363282 c -1.054687,0 -1.089843,-0.14063 -1.089843,-0.57422 z m 0,0"
         style="fill:#000000;fill-opacity:1;fill-rule:nonzero;stroke:none" />
      <path
         id="path38"
         d="m 132.49118,171.02124 c 0.21094,0 0.42187,0 0.42187,-0.23437 0,-0.23438 -0.21093,-0.23438 -0.42187,-0.23438 h -6.46875 c -0.19922,0 -0.41016,0 -0.41016,0.23438 0,0.23437 0.21094,0.23437 0.41016,0.23437 z m 0,0"
         style="fill:#000000;fill-opacity:1;fill-rule:nonzero;stroke:none" />
      <path
         id="path39"
         d="m 137.36032,166.11109 c 0,-0.26954 0,-0.28125 -0.24609,-0.28125 -0.28125,0.3164 -0.87891,0.76171 -2.10938,0.76171 v 0.35157 c 0.26953,0 0.86719,0 1.52344,-0.31641 v 6.22266 c 0,0.43359 -0.0352,0.57422 -1.07813,0.57422 h -0.375 v 0.35156 c 0.31641,-0.0234 1.47657,-0.0234 1.875,-0.0234 0.39844,0 1.54688,0 1.86329,0.0234 v -0.35156 h -0.36329 c -1.05468,0 -1.08984,-0.14063 -1.08984,-0.57422 z m 0,0"
         style="fill:#000000;fill-opacity:1;fill-rule:nonzero;stroke:none" />
      <path
         id="path40"
         d="m 47.307586,218.40601 c -0.410156,0.70312 -0.820313,0.9375 -1.394531,0.97265 -0.128907,0.0117 -0.222657,0.0117 -0.222657,0.23438 0,0.0703 0.05859,0.11719 0.140625,0.11719 0.210938,0 0.75,-0.0234 0.972657,-0.0234 0.339843,0 0.726562,0.0234 1.054687,0.0234 0.07031,0 0.222656,0 0.222656,-0.22266 0,-0.11719 -0.09375,-0.12891 -0.175781,-0.12891 -0.269531,-0.0234 -0.492187,-0.11718 -0.492187,-0.39843 0,-0.17578 0.07031,-0.30469 0.222656,-0.5625 l 0.902344,-1.51172 h 3.058593 c 0.01172,0.10547 0.01172,0.21094 0.02344,0.3164 0.03516,0.30469 0.175781,1.54688 0.175781,1.78125 0,0.35157 -0.609375,0.375 -0.796875,0.375 -0.140625,0 -0.269531,0 -0.269531,0.22266 0,0.12891 0.105469,0.12891 0.175781,0.12891 0.210938,0 0.445313,-0.0234 0.65625,-0.0234 h 0.679688 c 0.726562,0 1.253906,0.0234 1.265625,0.0234 0.08203,0 0.210937,0 0.210937,-0.22266 0,-0.12891 -0.105469,-0.12891 -0.28125,-0.12891 -0.65625,0 -0.667969,-0.10546 -0.714844,-0.45703 l -0.726562,-7.46484 c -0.02344,-0.23438 -0.07031,-0.25781 -0.199219,-0.25781 -0.117187,0 -0.1875,0.0234 -0.304687,0.19922 z m 1.441406,-1.83985 2.402344,-4.01953 0.410156,4.01953 z m 9.676758,-4.18359 c 0.117188,-0.44531 0.164063,-0.46875 0.621094,-0.46875 h 1.558594 c 1.347656,0 1.347656,1.14844 1.347656,1.25391 0,0.97265 -0.960938,2.20312 -2.542969,2.20312 h -1.722656 z m 2.027344,3.08203 c 1.300781,-0.24609 2.484375,-1.14844 2.484375,-2.25 0,-0.92578 -0.832031,-1.65234 -2.179688,-1.65234 H 56.92575 c -0.234375,0 -0.339844,0 -0.339844,0.23437 0,0.11719 0.105469,0.11719 0.292969,0.11719 0.726563,0 0.726563,0.0937 0.726563,0.22266 0,0.0234 0,0.0937 -0.04687,0.28125 l -1.617188,6.43359 c -0.105469,0.41016 -0.128906,0.52734 -0.960937,0.52734 -0.234375,0 -0.351563,0 -0.351563,0.22266 0,0.12891 0.07031,0.12891 0.304688,0.12891 h 4.101562 c 1.828125,0 3.246094,-1.38282 3.246094,-2.58985 0,-0.98437 -0.867188,-1.58203 -1.828125,-1.67578 z m -1.699219,3.91406 h -1.617187 c -0.164063,0 -0.1875,0 -0.257813,-0.0117 -0.128906,-0.0117 -0.152344,-0.0352 -0.152344,-0.12891 0,-0.082 0.03516,-0.15234 0.05859,-0.25781 l 0.832031,-3.375 h 2.25 c 1.40625,0 1.40625,1.3125 1.40625,1.40625 0,1.14843 -1.042968,2.36718 -2.519531,2.36718 z m 13.722656,-7.95703 c 0,-0.10547 -0.08203,-0.10547 -0.105468,-0.10547 -0.02344,0 -0.07031,0 -0.175782,0.11719 l -0.820312,1.00781 c -0.421875,-0.71484 -1.078125,-1.125 -1.96875,-1.125 -2.589844,0 -5.261719,2.61329 -5.261719,5.42579 0,1.99218 1.394531,3.23437 3.140625,3.23437 0.960938,0 1.792969,-0.39844 2.484375,-0.98437 1.042969,-0.87891 1.359375,-2.03907 1.359375,-2.13282 0,-0.10547 -0.09375,-0.10547 -0.140625,-0.10547 -0.105469,0 -0.117187,0.0703 -0.140625,0.11719 -0.550781,1.86328 -2.15625,2.76563 -3.351562,2.76563 -1.277344,0 -2.367188,-0.82032 -2.367188,-2.50782 0,-0.38671 0.117188,-2.46093 1.464844,-4.03125 0.65625,-0.76171 1.78125,-1.4414 2.917969,-1.4414 1.3125,0 1.898437,1.08984 1.898437,2.30859 0,0.31641 -0.03516,0.57422 -0.03516,0.6211 0,0.11718 0.117187,0.11718 0.152344,0.11718 0.140625,0 0.152343,-0.0117 0.199218,-0.23437 z m 0,0"
         style="fill:#000000;fill-opacity:1;fill-rule:nonzero;stroke:none" />
      <path
         id="path41"
         d="m 146.25778,217.72632 h -0.26953 c -0.0352,0.19922 -0.12891,0.85547 -0.24609,1.04297 -0.082,0.11719 -0.76172,0.11719 -1.125,0.11719 h -2.21485 c 0.32813,-0.28125 1.05469,-1.04297 1.3711,-1.33594 1.8164,-1.66406 2.48437,-2.28516 2.48437,-3.46875 0,-1.38281 -1.08984,-2.29688 -2.47265,-2.29688 -1.39454,0 -2.20313,1.1836 -2.20313,2.20313 0,0.60937 0.52734,0.60937 0.5625,0.60937 0.24609,0 0.5625,-0.17578 0.5625,-0.5625 0,-0.32812 -0.23437,-0.55078 -0.5625,-0.55078 -0.10547,0 -0.12891,0 -0.16406,0.0117 0.22265,-0.82031 0.86719,-1.37109 1.64062,-1.37109 1.01953,0 1.64063,0.85547 1.64063,1.95703 0,1.00781 -0.58594,1.89844 -1.26563,2.66016 l -2.41406,2.70703 v 0.28125 h 4.35938 z m 0,0"
         style="fill:#000000;fill-opacity:1;fill-rule:nonzero;stroke:none" />
      <path
         id="path42"
         d="m 231.50876,211.94898 c 0,-0.22266 0,-0.29297 -0.16406,-0.29297 -0.0937,0 -0.12891,0 -0.22266,0.15234 l -3.59766,5.57813 v 0.35156 h 3.14063 v 1.07812 c 0,0.44532 -0.0234,0.5625 -0.90235,0.5625 h -0.23437 v 0.35157 c 0.26953,-0.0234 1.21875,-0.0234 1.55859,-0.0234 0.32813,0 1.28907,0 1.5586,0.0234 v -0.35157 h -0.23438 c -0.86719,0 -0.90234,-0.11718 -0.90234,-0.5625 v -1.07812 h 1.20703 v -0.35156 h -1.20703 z m -0.78516,0.9375 v 4.5 h -2.90625 z m 0,0"
         style="fill:#000000;fill-opacity:1;fill-rule:nonzero;stroke:none" />
      <path
         id="path43"
         d="m 170.41598,234.29663 c -0.41015,0.70313 -0.82031,0.9375 -1.39453,0.97266 -0.1289,0.0117 -0.22265,0.0117 -0.22265,0.23437 0,0.0703 0.0586,0.11719 0.14062,0.11719 0.21094,0 0.75,-0.0234 0.97266,-0.0234 0.33984,0 0.72656,0.0234 1.05469,0.0234 0.0703,0 0.22265,0 0.22265,-0.22265 0,-0.11719 -0.0937,-0.12891 -0.17578,-0.12891 -0.26953,-0.0234 -0.49219,-0.11719 -0.49219,-0.39844 0,-0.17578 0.0703,-0.30469 0.22266,-0.5625 l 0.90234,-1.51172 h 3.0586 c 0.0117,0.10547 0.0117,0.21094 0.0234,0.31641 0.0352,0.30469 0.17579,1.54687 0.17579,1.78125 0,0.35156 -0.60938,0.375 -0.79688,0.375 -0.14062,0 -0.26953,0 -0.26953,0.22266 0,0.1289 0.10547,0.1289 0.17578,0.1289 0.21094,0 0.44531,-0.0234 0.65625,-0.0234 h 0.67969 c 0.72656,0 1.2539,0.0234 1.26562,0.0234 0.082,0 0.21094,0 0.21094,-0.22265 0,-0.12891 -0.10547,-0.12891 -0.28125,-0.12891 -0.65625,0 -0.66797,-0.10547 -0.71484,-0.45703 l -0.72657,-7.46485 c -0.0234,-0.23437 -0.0703,-0.25781 -0.19921,-0.25781 -0.11719,0 -0.1875,0.0234 -0.30469,0.19922 z m 1.44141,-1.83984 2.40234,-4.01953 0.41016,4.01953 z m 9.67676,-4.18359 c 0.11719,-0.44532 0.16406,-0.46875 0.62109,-0.46875 h 1.5586 c 1.34765,0 1.34765,1.14843 1.34765,1.2539 0,0.97266 -0.96094,2.20313 -2.54297,2.20313 h -1.72265 z m 2.02734,3.08203 c 1.30078,-0.2461 2.48438,-1.14844 2.48438,-2.25 0,-0.92578 -0.83203,-1.65235 -2.17969,-1.65235 h -3.83203 c -0.23438,0 -0.33985,0 -0.33985,0.23438 0,0.11719 0.10547,0.11719 0.29297,0.11719 0.72657,0 0.72657,0.0937 0.72657,0.22265 0,0.0234 0,0.0937 -0.0469,0.28125 l -1.61719,6.4336 c -0.10547,0.41015 -0.1289,0.52734 -0.96093,0.52734 -0.23438,0 -0.35157,0 -0.35157,0.22266 0,0.1289 0.0703,0.1289 0.30469,0.1289 h 4.10156 c 1.82813,0 3.2461,-1.38281 3.2461,-2.58984 0,-0.98438 -0.86719,-1.58203 -1.82813,-1.67578 z m -1.69922,3.91406 h -1.61718 c -0.16407,0 -0.1875,0 -0.25782,-0.0117 -0.1289,-0.0117 -0.15234,-0.0352 -0.15234,-0.12891 0,-0.082 0.0352,-0.15234 0.0586,-0.25781 l 0.83203,-3.375 h 2.25 c 1.40625,0 1.40625,1.3125 1.40625,1.40625 0,1.14844 -1.04296,2.36719 -2.51953,2.36719 z m 13.72266,-7.95703 c 0,-0.10547 -0.082,-0.10547 -0.10547,-0.10547 -0.0234,0 -0.0703,0 -0.17578,0.11719 l -0.82031,1.00781 c -0.42188,-0.71484 -1.07813,-1.125 -1.96875,-1.125 -2.58985,0 -5.26172,2.61328 -5.26172,5.42578 0,1.99219 1.39453,3.23438 3.14062,3.23438 0.96094,0 1.79297,-0.39844 2.48438,-0.98438 1.04297,-0.87891 1.35937,-2.03906 1.35937,-2.13281 0,-0.10547 -0.0937,-0.10547 -0.14062,-0.10547 -0.10547,0 -0.11719,0.0703 -0.14063,0.11719 -0.55078,1.86328 -2.15625,2.76562 -3.35156,2.76562 -1.27734,0 -2.36719,-0.82031 -2.36719,-2.50781 0,-0.38672 0.11719,-2.46094 1.46485,-4.03125 0.65625,-0.76172 1.78125,-1.44141 2.91797,-1.44141 1.3125,0 1.89843,1.08985 1.89843,2.3086 0,0.3164 -0.0351,0.57422 -0.0351,0.62109 0,0.11719 0.11718,0.11719 0.15234,0.11719 0.14063,0 0.15234,-0.0117 0.19922,-0.23438 z m 0,0"
         style="fill:#000000;fill-opacity:1;fill-rule:nonzero;stroke:none" />
      <path
         id="path44"
         d="m -26.614289,280.15503 c -0.05859,0.19922 -0.05859,0.22266 -0.222656,0.44531 -0.269532,0.33985 -0.796875,0.85547 -1.359375,0.85547 -0.480469,0 -0.761719,-0.44531 -0.761719,-1.14843 0,-0.65625 0.375,-1.99219 0.597656,-2.4961 0.410156,-0.84375 0.972656,-1.26562 1.441406,-1.26562 0.785157,0 0.9375,0.97265 0.9375,1.0664 0,0.0117 -0.03516,0.17578 -0.04687,0.19922 z m 0.761719,-3.07031 c -0.128907,-0.30469 -0.445313,-0.78516 -1.066407,-0.78516 -1.359375,0 -2.8125,1.7461 -2.8125,3.51563 0,1.18359 0.691407,1.875 1.5,1.875 0.65625,0 1.21875,-0.51563 1.558594,-0.90235 0.117188,0.70313 0.679688,0.90235 1.042969,0.90235 0.351562,0 0.644531,-0.21094 0.855469,-0.64453 0.1875,-0.41016 0.363281,-1.13672 0.363281,-1.1836 0,-0.0586 -0.04687,-0.10547 -0.117188,-0.10547 -0.117187,0 -0.128906,0.0586 -0.175781,0.23438 -0.175781,0.71484 -0.398437,1.46484 -0.890625,1.46484 -0.351562,0 -0.375,-0.3164 -0.375,-0.55078 0,-0.28125 0.03516,-0.41015 0.140625,-0.8789 0.08203,-0.29297 0.152344,-0.5625 0.246094,-0.90235 0.433594,-1.79297 0.550781,-2.22656 0.550781,-2.29687 0,-0.16407 -0.140625,-0.29297 -0.316406,-0.29297 -0.375,0 -0.480469,0.41015 -0.503906,0.55078 z m 0,0"
         style="fill:#000000;fill-opacity:1;fill-rule:nonzero;stroke:none" />
      <path
         id="path45"
         d="m 7.9560234,273.58081 c 0.011719,-0.0469 0.035156,-0.1289 0.035156,-0.1875 0,-0.11718 -0.1289063,-0.11718 -0.1523438,-0.11718 -0.011719,0 -0.4335937,0.0351 -0.65625,0.0586 -0.1992187,0.0117 -0.375,0.0352 -0.5976562,0.0469 -0.28125,0.0234 -0.3632813,0.0352 -0.3632813,0.25782 0,0.11718 0.1171875,0.11718 0.234375,0.11718 0.609375,0 0.609375,0.10547 0.609375,0.22266 0,0.082 -0.09375,0.43359 -0.140625,0.64453 l -0.2929687,1.14844 c -0.1171875,0.48047 -0.796875,3.19922 -0.84375,3.41016 -0.058594,0.29296 -0.058594,0.5039 -0.058594,0.65625 0,1.21875 0.6796875,1.85156 1.453125,1.85156 1.3945313,0 2.8242186,-1.78125 2.8242186,-3.51563 0,-1.10156 -0.6210936,-1.875 -1.5117186,-1.875 -0.6328125,0 -1.1835937,0.51563 -1.4179687,0.75 z m -0.7617187,7.875 c -0.375,0 -0.796875,-0.29297 -0.796875,-1.21875 0,-0.39843 0.035156,-0.62109 0.2460937,-1.46484 0.046875,-0.15234 0.234375,-0.91406 0.28125,-1.06641 0.023437,-0.10547 0.7265625,-1.16015 1.5351563,-1.16015 0.5273437,0 0.7734375,0.51562 0.7734375,1.13672 0,0.57421 -0.3398438,1.93359 -0.6328125,2.55468 -0.3046875,0.64453 -0.8554688,1.21875 -1.40625,1.21875 z m 0,0"
         style="fill:#000000;fill-opacity:1;fill-rule:nonzero;stroke:none" />
      <path
         id="path46"
         d="m 58.355438,296.88941 c 0,-0.26953 0,-0.28125 -0.246094,-0.28125 -0.28125,0.3164 -0.878906,0.76172 -2.109375,0.76172 v 0.35156 c 0.269531,0 0.867187,0 1.523437,-0.31641 v 6.22266 c 0,0.43359 -0.03516,0.57422 -1.078125,0.57422 h -0.375 v 0.35156 c 0.316407,-0.0234 1.476563,-0.0234 1.875,-0.0234 0.398438,0 1.546875,0 1.863282,0.0234 v -0.35156 h -0.363282 c -1.054687,0 -1.089843,-0.14063 -1.089843,-0.57422 z m 0,0"
         style="fill:#000000;fill-opacity:1;fill-rule:nonzero;stroke:none" />
    </g>
    <path
       id="path47"
       d="M 0,0 H 6.145"
       style="fill:none;stroke:#000000;stroke-width:0.478;stroke-linecap:butt;stroke-linejoin:miter;stroke-miterlimit:10;stroke-dasharray:none;stroke-opacity:1"
       transform="matrix(1.3333333,0,0,-1.3333333,347.74267,468.94)" />
    <g
       id="g47"
       aria-label="a&#10;+&#10;1"
       transform="matrix(1.3333333,0,0,1.3333333,347.74267,483.86)">
      <path
         id="path48"
         d="m 3.5972969,-1.4184375 c -0.058594,0.1992188 -0.058594,0.2226563 -0.2226563,0.4453125 -0.2695312,0.33984375 -0.796875,0.85546875 -1.359375,0.85546875 -0.4804687,0 -0.7617187,-0.4453125 -0.7617187,-1.14843745 0,-0.65625 0.375,-1.9921875 0.5976562,-2.4960938 0.4101563,-0.84375 0.9726563,-1.265625 1.4414063,-1.265625 0.7851562,0 0.9375,0.9726563 0.9375,1.0664063 0,0.011719 -0.035156,0.1757812 -0.046875,0.1992187 z M 4.3590156,-4.48875 C 4.2301094,-4.7934375 3.9137031,-5.2739062 3.2926094,-5.2739062 c -1.359375,0 -2.81250003,1.7460937 -2.81250003,3.515625 0,1.1835937 0.69140623,1.87499995 1.50000003,1.87499995 0.65625,0 1.21875,-0.515625 1.5585937,-0.90234375 0.1171875,0.703125 0.6796875,0.90234375 1.0429688,0.90234375 0.3515625,0 0.6445312,-0.2109375 0.8554687,-0.64453125 0.1875,-0.41015625 0.3632813,-1.1367187 0.3632813,-1.1835937 0,-0.058594 -0.046875,-0.1054688 -0.1171875,-0.1054688 -0.1171875,0 -0.1289063,0.058594 -0.1757813,0.234375 -0.1757812,0.71484375 -0.3984375,1.46484375 -0.890625,1.46484375 -0.3515625,0 -0.375,-0.31640625 -0.375,-0.55078125 0,-0.28125 0.035156,-0.4101562 0.140625,-0.8789062 0.082031,-0.2929688 0.1523438,-0.5625 0.2460938,-0.9023438 0.4335937,-1.7929687 0.5507812,-2.2265625 0.5507812,-2.296875 0,-0.1640625 -0.140625,-0.2929687 -0.3164062,-0.2929687 -0.375,0 -0.4804688,0.4101562 -0.5039063,0.5507812 z m 0,0"
         style="fill:#000000;fill-opacity:1;fill-rule:nonzero;stroke:none" />
      <path
         id="path49"
         d="m 14.765266,-10.966289 h 3.304687 c 0.164063,0 0.375,0 0.375,-0.210938 0,-0.222656 -0.199219,-0.222656 -0.375,-0.222656 h -3.304687 v -3.304687 c 0,-0.164063 0,-0.386719 -0.210938,-0.386719 -0.234375,0 -0.234375,0.210937 -0.234375,0.386719 v 3.304687 h -3.292969 c -0.175781,0 -0.386718,0 -0.386718,0.210938 0,0.222656 0.199218,0.222656 0.386718,0.222656 h 3.292969 v 3.3046874 c 0,0.1640625 0,0.3867188 0.222656,0.3867188 0.222657,0 0.222657,-0.2109375 0.222657,-0.3867188 z m 11.633789,-12.987305 c 0,-0.269531 0,-0.28125 -0.246094,-0.28125 -0.28125,0.316407 -0.878906,0.761719 -2.109375,0.761719 v 0.351563 c 0.269531,0 0.867187,0 1.523437,-0.316407 v 6.222657 c 0,0.433593 -0.03516,0.574218 -1.078125,0.574218 h -0.375 v 0.351563 c 0.316407,-0.02344 1.476563,-0.02344 1.875,-0.02344 0.398438,0 1.546875,0 1.863282,0.02344 v -0.351563 h -0.363282 c -1.054687,0 -1.089843,-0.140625 -1.089843,-0.574218 z m 0,0"
         style="fill:#000000;fill-opacity:1;fill-rule:nonzero;stroke:none" />
    </g>
    <path
       id="path50"
       d="M 0,0 H 5.853"
       style="fill:none;stroke:#000000;stroke-width:0.478;stroke-linecap:butt;stroke-linejoin:miter;stroke-miterlimit:10;stroke-dasharray:none;stroke-opacity:1"
       transform="matrix(1.3333333,0,0,-1.3333333,378.348,468.94)" />
    <g
       id="g50"
       aria-label="b&#10;&gt;&#10;4"
       transform="matrix(1.3333333,0,0,1.3333333,378.932,483.86)">
      <path
         id="path51"
         d="m 2.7668203,-7.9926562 c 0.011719,-0.046875 0.035156,-0.1289063 0.035156,-0.1875 0,-0.1171875 -0.1289063,-0.1171875 -0.1523438,-0.1171875 -0.011719,0 -0.4335937,0.035156 -0.65625,0.058594 -0.1992187,0.011719 -0.375,0.035156 -0.5976562,0.046875 -0.28125,0.023437 -0.3632813,0.035156 -0.3632813,0.2578125 0,0.1171875 0.1171875,0.1171875 0.234375,0.1171875 0.609375,0 0.609375,0.1054688 0.609375,0.2226563 0,0.082031 -0.09375,0.4335937 -0.140625,0.6445312 L 1.4426016,-5.80125 c -0.1171875,0.4804688 -0.79687504,3.1992188 -0.84375004,3.4101563 -0.0585938,0.2929687 -0.0585938,0.5039062 -0.0585938,0.65625 0,1.21874995 0.67968744,1.85156245 1.45312494,1.85156245 1.3945314,0 2.8242188,-1.78124995 2.8242188,-3.51562495 0,-1.1015625 -0.6210937,-1.875 -1.5117187,-1.875 -0.6328125,0 -1.1835937,0.515625 -1.4179687,0.75 z m -0.7617187,7.87499995 c -0.375,0 -0.796875,-0.29296875 -0.796875,-1.21874995 0,-0.3984375 0.035156,-0.6210938 0.2460937,-1.4648438 0.046875,-0.1523437 0.234375,-0.9140625 0.28125,-1.0664062 0.023437,-0.1054688 0.7265625,-1.1601563 1.5351563,-1.1601563 0.5273437,0 0.7734375,0.515625 0.7734375,1.1367188 0,0.5742187 -0.3398438,1.9335937 -0.6328125,2.5546875 -0.3046875,0.6445312 -0.8554688,1.21874995 -1.40625,1.21874995 z m 0,0"
         style="fill:#000000;fill-opacity:1;fill-rule:nonzero;stroke:none" />
      <path
         id="path52"
         d="m 17.980687,-12.067852 c 0.199219,-0.09375 0.246094,-0.175781 0.246094,-0.269531 0,-0.152344 -0.08203,-0.1875 -0.246094,-0.257812 l -6.585937,-3.128907 c -0.164063,-0.08203 -0.210938,-0.08203 -0.234375,-0.08203 -0.128906,0 -0.234375,0.105469 -0.234375,0.246094 0,0.152344 0.09375,0.1875 0.234375,0.257812 l 6.269531,2.953125 -6.28125,2.9648442 c -0.175781,0.082031 -0.222656,0.1523437 -0.222656,0.2578125 0,0.140625 0.105469,0.2460937 0.234375,0.2460937 0.03516,0 0.05859,0 0.210937,-0.082031 z m 0,2.3085942 c 0.199219,-0.082031 0.246094,-0.1640625 0.246094,-0.2578122 0,-0.234375 -0.222656,-0.234375 -0.316406,-0.234375 l -6.761719,3.1874997 c -0.117187,0.058594 -0.222656,0.1289062 -0.222656,0.2578125 0,0.140625 0.105469,0.2460937 0.234375,0.2460937 0.03516,0 0.05859,0 0.210937,-0.082031 z m 0,0"
         style="fill:#000000;fill-opacity:1;fill-rule:nonzero;stroke:none" />
      <path
         id="path53"
         d="m 37.902562,-24.070781 c 0,-0.222656 0,-0.292969 -0.164062,-0.292969 -0.09375,0 -0.128906,0 -0.222656,0.152344 l -3.597657,5.578125 v 0.351562 h 3.140625 v 1.078125 c 0,0.445313 -0.02344,0.5625 -0.902343,0.5625 h -0.234375 v 0.351563 c 0.269531,-0.02344 1.21875,-0.02344 1.558593,-0.02344 0.328125,0 1.289063,0 1.558594,0.02344 v -0.351563 h -0.234375 c -0.867187,0 -0.902344,-0.117187 -0.902344,-0.5625 v -1.078125 h 1.207032 v -0.351562 h -1.207032 z m -0.785156,0.9375 v 4.5 h -2.90625 z m 0,0"
         style="fill:#000000;fill-opacity:1;fill-rule:nonzero;stroke:none" />
    </g>
    <path
       id="path54"
       d="M 0,0 H 25.54"
       style="fill:none;stroke:#000000;stroke-width:0.478;stroke-linecap:butt;stroke-linejoin:miter;stroke-miterlimit:10;stroke-dasharray:none;stroke-opacity:1"
       transform="matrix(1.3333333,0,0,-1.3333333,410.59333,468.94)" />
    <g
       id="g54"
       aria-label="a+b&#10;.&#10;ZADANIE4.&#10;Wyznaczdwiekolejneliczbynaturalne,zktórychwi¦kszadzielisi¦przez2009,amniejsza&#10;przez45.&#10;ZADANIE5.&#10;Wkasyniestoj¡automatydogry.Pracownikopró»niªjeiprzyniósªdobiura2013»etonów.&#10;O±wiadczyª,»ewyj¡ª»etonyzewszystkich31automatów,wka»dymbyªoconajmniej50&#10;»etonów,alew»adnychdwóchmaszynachniebyªotejsamejliczby»etonów.Kierownikkasyna&#10;oskar»yªgoooszustwo.Dlaczego?"
       transform="matrix(1.3333333,0,0,1.3333333,410.59333,483.86)">
      <path
         id="path55"
         d="m 3.5979688,-1.4184375 c -0.058594,0.1992188 -0.058594,0.2226563 -0.2226563,0.4453125 -0.2695312,0.33984375 -0.796875,0.85546875 -1.359375,0.85546875 -0.4804687,0 -0.7617187,-0.4453125 -0.7617187,-1.14843745 0,-0.65625 0.375,-1.9921875 0.5976562,-2.4960938 0.4101563,-0.84375 0.9726563,-1.265625 1.4414063,-1.265625 0.7851562,0 0.9375,0.9726563 0.9375,1.0664063 0,0.011719 -0.035156,0.1757812 -0.046875,0.1992187 z M 4.3596875,-4.48875 C 4.2307813,-4.7934375 3.914375,-5.2739062 3.2932813,-5.2739062 c -1.359375,0 -2.81250005,1.7460937 -2.81250005,3.515625 0,1.1835937 0.69140625,1.87499995 1.50000005,1.87499995 0.65625,0 1.21875,-0.515625 1.5585937,-0.90234375 0.1171875,0.703125 0.6796875,0.90234375 1.0429688,0.90234375 0.3515625,0 0.6445312,-0.2109375 0.8554687,-0.64453125 0.1875,-0.41015625 0.3632813,-1.1367187 0.3632813,-1.1835937 0,-0.058594 -0.046875,-0.1054688 -0.1171875,-0.1054688 -0.1171875,0 -0.1289063,0.058594 -0.1757813,0.234375 -0.1757812,0.71484375 -0.3984375,1.46484375 -0.890625,1.46484375 -0.3515625,0 -0.375,-0.31640625 -0.375,-0.55078125 0,-0.28125 0.035156,-0.4101562 0.140625,-0.8789062 0.082031,-0.2929688 0.1523438,-0.5625 0.2460938,-0.9023438 C 5.0628125,-4.2426562 5.18,-4.67625 5.18,-4.7465625 c 0,-0.1640625 -0.140625,-0.2929687 -0.3164062,-0.2929687 -0.375,0 -0.4804688,0.4101562 -0.5039063,0.5507812 z m 0,0"
         style="fill:#000000;fill-opacity:1;fill-rule:nonzero;stroke:none" />
      <path
         id="path56"
         d="m 13.570625,-2.7660937 h 3.304688 c 0.164062,0 0.375,0 0.375,-0.2109375 0,-0.2226563 -0.199219,-0.2226563 -0.375,-0.2226563 H 13.570625 V -6.504375 c 0,-0.1640625 0,-0.3867187 -0.210937,-0.3867187 -0.234375,0 -0.234375,0.2109375 -0.234375,0.3867187 v 3.3046875 H 9.8323438 c -0.1757813,0 -0.3867188,0 -0.3867188,0.2109375 0,0.2226563 0.1992188,0.2226563 0.3867188,0.2226563 h 3.2929692 v 3.30468745 c 0,0.1640625 0,0.38671875 0.222656,0.38671875 0.222656,0 0.222656,-0.2109375 0.222656,-0.38671875 z m 0,0"
         style="fill:#000000;fill-opacity:1;fill-rule:nonzero;stroke:none" />
      <path
         id="path57"
         d="m 23.329414,-7.9926562 c 0.01172,-0.046875 0.03516,-0.1289063 0.03516,-0.1875 0,-0.1171875 -0.128906,-0.1171875 -0.152343,-0.1171875 -0.01172,0 -0.433594,0.035156 -0.65625,0.058594 -0.199219,0.011719 -0.375,0.035156 -0.597657,0.046875 -0.28125,0.023437 -0.363281,0.035156 -0.363281,0.2578125 0,0.1171875 0.117188,0.1171875 0.234375,0.1171875 0.609375,0 0.609375,0.1054688 0.609375,0.2226563 0,0.082031 -0.09375,0.4335937 -0.140625,0.6445312 L 22.005195,-5.80125 c -0.117187,0.4804688 -0.796875,3.1992188 -0.84375,3.4101563 -0.05859,0.2929687 -0.05859,0.5039062 -0.05859,0.65625 0,1.21874995 0.679687,1.85156245 1.453125,1.85156245 1.394531,0 2.824218,-1.78124995 2.824218,-3.51562495 0,-1.1015625 -0.621093,-1.875 -1.511718,-1.875 -0.632813,0 -1.183594,0.515625 -1.417969,0.75 z m -0.761719,7.87499995 c -0.375,0 -0.796875,-0.29296875 -0.796875,-1.21874995 0,-0.3984375 0.03516,-0.6210938 0.246094,-1.4648438 0.04687,-0.1523437 0.234375,-0.9140625 0.28125,-1.0664062 0.02344,-0.1054688 0.726563,-1.1601563 1.535156,-1.1601563 0.527344,0 0.773438,0.515625 0.773438,1.1367188 0,0.5742187 -0.339844,1.9335937 -0.632813,2.5546875 -0.304687,0.6445312 -0.855468,1.21874995 -1.40625,1.21874995 z m 6.369141,-8.65722655 c 0,-0.3515625 -0.292969,-0.5859375 -0.574219,-0.5859375 -0.351562,0 -0.585937,0.2929687 -0.585937,0.5742187 0,0.3515625 0.28125,0.5859375 0.574218,0.5859375 0.339844,0 0.585938,-0.28125 0.585938,-0.5742187 z m 0,0"
         style="fill:#000000;fill-opacity:1;fill-rule:nonzero;stroke:none" />
      <path
         id="path58"
         d="m 149.36457,50.173359 h -0.26953 c -0.0352,0.199219 -0.12891,0.855469 -0.24609,1.042969 -0.082,0.117188 -0.76172,0.117188 -1.125,0.117188 h -2.21485 c 0.32813,-0.28125 1.05469,-1.042969 1.3711,-1.335938 1.8164,-1.664062 2.48437,-2.285156 2.48437,-3.46875 0,-1.382812 -1.08984,-2.296875 -2.47266,-2.296875 -1.39453,0 -2.20312,1.183594 -2.20312,2.203125 0,0.609375 0.52734,0.609375 0.5625,0.609375 0.24609,0 0.5625,-0.175781 0.5625,-0.5625 0,-0.328125 -0.23438,-0.550781 -0.5625,-0.550781 -0.10547,0 -0.12891,0 -0.16406,0.01172 0.22265,-0.820313 0.86718,-1.371094 1.64062,-1.371094 1.01953,0 1.64063,0.855469 1.64063,1.957031 0,1.007813 -0.58594,1.898438 -1.26563,2.660156 l -2.41406,2.707032 v 0.28125 h 4.35937 z m 5.94727,-1.816406 c 0,-0.996094 -0.0586,-1.96875 -0.49219,-2.871094 -0.49219,-0.996093 -1.34766,-1.253906 -1.9336,-1.253906 -0.6914,0 -1.54687,0.339844 -1.98046,1.335938 -0.33985,0.75 -0.45704,1.488281 -0.45704,2.789062 0,1.160156 0.082,2.027344 0.51563,2.871094 0.45703,0.914062 1.28906,1.195312 1.91016,1.195312 1.04296,0 1.64062,-0.621093 1.98046,-1.3125 0.4336,-0.890625 0.45704,-2.0625 0.45704,-2.753906 z m -2.4375,3.832031 c -0.38672,0 -1.16016,-0.210937 -1.38282,-1.523437 -0.14062,-0.714844 -0.14062,-1.617188 -0.14062,-2.460938 0,-0.972656 0,-1.863281 0.19922,-2.566406 0.19922,-0.796875 0.80859,-1.171875 1.32422,-1.171875 0.45703,0 1.14843,0.28125 1.37109,1.300781 0.15234,0.679688 0.15234,1.628907 0.15234,2.4375 0,0.808594 0,1.710938 -0.1289,2.4375 -0.22266,1.324219 -0.97266,1.546875 -1.39453,1.546875 z m 8.29101,-3.832031 c 0,-0.996094 -0.0586,-1.96875 -0.49219,-2.871094 -0.49218,-0.996093 -1.34765,-1.253906 -1.93359,-1.253906 -0.69141,0 -1.54687,0.339844 -1.98047,1.335938 -0.33984,0.75 -0.45703,1.488281 -0.45703,2.789062 0,1.160156 0.082,2.027344 0.51563,2.871094 0.45703,0.914062 1.28906,1.195312 1.91015,1.195312 1.04297,0 1.64063,-0.621093 1.98047,-1.3125 0.43359,-0.890625 0.45703,-2.0625 0.45703,-2.753906 z m -2.4375,3.832031 c -0.38672,0 -1.16015,-0.210937 -1.38281,-1.523437 -0.14063,-0.714844 -0.14063,-1.617188 -0.14063,-2.460938 0,-0.972656 0,-1.863281 0.19922,-2.566406 0.19922,-0.796875 0.8086,-1.171875 1.32422,-1.171875 0.45703,0 1.14844,0.28125 1.3711,1.300781 0.15234,0.679688 0.15234,1.628907 0.15234,2.4375 0,0.808594 0,1.710938 -0.12891,2.4375 -0.22265,1.324219 -0.97265,1.546875 -1.39453,1.546875 z m 7.30664,-3.492187 c 0,2.824219 -1.2539,3.410156 -1.96875,3.410156 -0.28125,0 -0.92578,-0.03516 -1.21875,-0.457031 h 0.0703 c 0.082,0.02344 0.51563,-0.04687 0.51563,-0.492188 0,-0.257812 -0.17578,-0.492187 -0.49219,-0.492187 -0.30469,0 -0.5039,0.210937 -0.5039,0.515625 0,0.75 0.59765,1.242187 1.64062,1.242187 1.5,0 2.94141,-1.582031 2.94141,-4.183593 0,-3.210938 -1.33594,-4.007813 -2.39063,-4.007813 -1.3125,0 -2.47265,1.101563 -2.47265,2.671875 0,1.582031 1.11328,2.660156 2.30859,2.660156 0.87891,0 1.33594,-0.644531 1.57031,-1.253906 z m -1.52344,0.621094 c -0.75,0 -1.07812,-0.609375 -1.18359,-0.832032 -0.19922,-0.457031 -0.19922,-1.03125 -0.19922,-1.570312 0,-0.667969 0,-1.242188 0.31641,-1.734375 0.21094,-0.316406 0.53906,-0.667969 1.18359,-0.667969 0.67969,0 1.03125,0.597656 1.14844,0.878906 0.23437,0.585938 0.23437,1.59375 0.23437,1.78125 0,0.996094 -0.44531,2.144532 -1.5,2.144532 z m 0,0"
         style="fill:#000000;fill-opacity:1;fill-rule:nonzero;stroke:none" />
      <path
         id="path59"
         d="m -215.24676,60.286641 c 0,-0.222657 0,-0.292969 -0.16406,-0.292969 -0.0937,0 -0.12891,0 -0.22266,0.152344 l -3.59765,5.578125 v 0.351562 h 3.14062 v 1.078125 c 0,0.445313 -0.0234,0.5625 -0.90234,0.5625 h -0.23438 v 0.351563 c 0.26953,-0.02344 1.21875,-0.02344 1.5586,-0.02344 0.32812,0 1.28906,0 1.55859,0.02344 v -0.351563 h -0.23437 c -0.86719,0 -0.90235,-0.117187 -0.90235,-0.5625 v -1.078125 h 1.20703 v -0.351562 h -1.20703 z m -0.78515,0.9375 v 4.5 h -2.90625 z m 3.86132,0 c 0.50391,0.164062 0.92579,0.175781 1.05469,0.175781 1.35938,0 2.21485,-0.996094 2.21485,-1.160156 0,-0.04687 -0.0234,-0.105469 -0.0937,-0.105469 -0.0234,0 -0.0469,0 -0.15235,0.04687 -0.66797,0.28125 -1.24219,0.316406 -1.55859,0.316406 -0.78516,0 -1.34766,-0.234375 -1.58203,-0.328125 -0.082,-0.03516 -0.10547,-0.03516 -0.11719,-0.03516 -0.0937,0 -0.0937,0.07031 -0.0937,0.257812 v 3.550782 c 0,0.210937 0,0.292968 0.14062,0.292968 0.0586,0 0.0703,-0.01172 0.19922,-0.164062 0.32813,-0.492188 0.89063,-0.773438 1.48828,-0.773438 0.63282,0 0.94922,0.585938 1.04297,0.785157 0.19922,0.46875 0.21094,1.054687 0.21094,1.511718 0,0.457032 0,1.136719 -0.32812,1.675782 -0.26954,0.421875 -0.73829,0.726562 -1.25391,0.726562 -0.79688,0 -1.57031,-0.539062 -1.78125,-1.40625 0.0586,0.02344 0.12891,0.03516 0.1875,0.03516 0.19922,0 0.52734,-0.128906 0.52734,-0.527343 0,-0.339844 -0.23437,-0.527344 -0.52734,-0.527344 -0.21094,0 -0.52734,0.105469 -0.52734,0.574219 0,1.007812 0.80859,2.167968 2.14453,2.167968 1.34765,0 2.53125,-1.125 2.53125,-2.648437 0,-1.417969 -0.96094,-2.601563 -2.21485,-2.601563 -0.67968,0 -1.20703,0.292969 -1.51172,0.632813 z m 0,0"
         style="fill:#000000;fill-opacity:1;fill-rule:nonzero;stroke:none" />
      <path
         id="path60"
         d="m 164.49055,112.01906 h -0.26953 c -0.0352,0.19922 -0.12891,0.85547 -0.2461,1.04297 -0.082,0.11719 -0.76172,0.11719 -1.125,0.11719 h -2.21484 c 0.32812,-0.28125 1.05469,-1.04297 1.37109,-1.33594 1.81641,-1.66406 2.48438,-2.28515 2.48438,-3.46875 0,-1.38281 -1.08985,-2.29687 -2.47266,-2.29687 -1.39453,0 -2.20312,1.18359 -2.20312,2.20312 0,0.60938 0.52734,0.60938 0.5625,0.60938 0.24609,0 0.5625,-0.17578 0.5625,-0.5625 0,-0.32813 -0.23438,-0.55078 -0.5625,-0.55078 -0.10547,0 -0.12891,0 -0.16407,0.0117 0.22266,-0.82031 0.86719,-1.37109 1.64063,-1.37109 1.01953,0 1.64062,0.85547 1.64062,1.95703 0,1.00781 -0.58593,1.89844 -1.26562,2.66016 l -2.41406,2.70703 v 0.28125 h 4.35937 z m 5.94726,-1.8164 c 0,-0.9961 -0.0586,-1.96875 -0.49219,-2.8711 -0.49218,-0.99609 -1.34765,-1.2539 -1.93359,-1.2539 -0.69141,0 -1.54687,0.33984 -1.98047,1.33593 -0.33984,0.75 -0.45703,1.48829 -0.45703,2.78907 0,1.16015 0.082,2.02734 0.51563,2.87109 0.45703,0.91406 1.28906,1.19531 1.91015,1.19531 1.04297,0 1.64063,-0.62109 1.98047,-1.3125 0.43359,-0.89062 0.45703,-2.0625 0.45703,-2.7539 z m -2.4375,3.83203 c -0.38672,0 -1.16015,-0.21094 -1.38281,-1.52344 -0.14063,-0.71484 -0.14063,-1.61719 -0.14063,-2.46094 0,-0.97265 0,-1.86328 0.19922,-2.5664 0.19922,-0.79688 0.8086,-1.17188 1.32422,-1.17188 0.45703,0 1.14844,0.28125 1.3711,1.30078 0.15234,0.67969 0.15234,1.62891 0.15234,2.4375 0,0.8086 0,1.71094 -0.12891,2.4375 -0.22265,1.32422 -0.97265,1.54688 -1.39453,1.54688 z m 6.38086,-7.67578 c 0,-0.26953 0,-0.28125 -0.24609,-0.28125 -0.28125,0.3164 -0.87891,0.76172 -2.10938,0.76172 v 0.35156 c 0.26953,0 0.86719,0 1.52344,-0.31641 v 6.22266 c 0,0.43359 -0.0352,0.57422 -1.07812,0.57422 h -0.375 v 0.35156 c 0.3164,-0.0234 1.47656,-0.0234 1.875,-0.0234 0.39843,0 1.54687,0 1.86328,0.0234 v -0.35156 h -0.36328 c -1.05469,0 -1.08985,-0.14063 -1.08985,-0.57422 z m 4.61133,3.375 c -0.21094,0.0117 -0.25781,0.0234 -0.25781,0.1289 0,0.11719 0.0586,0.11719 0.28125,0.11719 h 0.55078 c 1.00781,0 1.46484,0.84375 1.46484,1.99219 0,1.55859 -0.80859,1.98047 -1.39453,1.98047 -0.57422,0 -1.55859,-0.28125 -1.89844,-1.06641 0.375,0.0586 0.72657,-0.15234 0.72657,-0.58594 0,-0.33984 -0.25782,-0.58593 -0.58594,-0.58593 -0.29297,0 -0.59766,0.16406 -0.59766,0.62109 0,1.06641 1.06641,1.93359 2.39063,1.93359 1.41797,0 2.47265,-1.07812 2.47265,-2.28515 0,-1.10157 -0.89062,-1.96875 -2.02734,-2.16797 1.03125,-0.30469 1.69922,-1.17188 1.69922,-2.10938 0,-0.9375 -0.97266,-1.6289 -2.13281,-1.6289 -1.19532,0 -2.08594,0.72656 -2.08594,1.59375 0,0.48047 0.375,0.57422 0.55078,0.57422 0.25781,0 0.53906,-0.17579 0.53906,-0.53907 0,-0.375 -0.28125,-0.53906 -0.55078,-0.53906 -0.0703,0 -0.0937,0 -0.12891,0.0117 0.45704,-0.82031 1.58204,-0.82031 1.64063,-0.82031 0.38672,0 1.17187,0.17578 1.17187,1.34765 0,0.23438 -0.0351,0.90235 -0.38671,1.41797 -0.35157,0.52735 -0.76172,0.5625 -1.08985,0.57422 z m 0,0"
         style="fill:#000000;fill-opacity:1;fill-rule:nonzero;stroke:none" />
      <path
         id="path61"
         d="m -15.395195,125.62453 c -0.210938,0.0117 -0.257813,0.0234 -0.257813,0.12891 0,0.11719 0.05859,0.11719 0.28125,0.11719 h 0.550781 c 1.007813,0 1.464844,0.84375 1.464844,1.99218 0,1.5586 -0.808594,1.98047 -1.394531,1.98047 -0.574219,0 -1.558594,-0.28125 -1.898438,-1.0664 0.375,0.0586 0.726563,-0.15235 0.726563,-0.58594 0,-0.33985 -0.257813,-0.58594 -0.585938,-0.58594 -0.292968,0 -0.597656,0.16406 -0.597656,0.62109 0,1.06641 1.066406,1.9336 2.390625,1.9336 1.417969,0 2.472656,-1.07813 2.472656,-2.28516 0,-1.10156 -0.890625,-1.96875 -2.027343,-2.16797 1.03125,-0.30468 1.699218,-1.17187 1.699218,-2.10937 0,-0.9375 -0.972656,-1.62891 -2.132812,-1.62891 -1.195313,0 -2.085938,0.72656 -2.085938,1.59375 0,0.48047 0.375,0.57422 0.550782,0.57422 0.257812,0 0.539062,-0.17578 0.539062,-0.53906 0,-0.375 -0.28125,-0.53906 -0.550781,-0.53906 -0.07031,0 -0.09375,0 -0.128906,0.0117 0.457031,-0.82031 1.582031,-0.82031 1.640625,-0.82031 0.386718,0 1.171875,0.17578 1.171875,1.34766 0,0.23437 -0.03516,0.90234 -0.386719,1.41797 -0.351563,0.52734 -0.761719,0.5625 -1.089844,0.57422 z m 7.0957028,-3.375 c 0,-0.26953 0,-0.28125 -0.2460937,-0.28125 -0.28125,0.31641 -0.8789063,0.76172 -2.1093751,0.76172 v 0.35156 c 0.269531,0 0.8671876,0 1.5234376,-0.3164 v 6.22265 c 0,0.4336 -0.035156,0.57422 -1.0781246,0.57422 h -0.375 v 0.35156 c 0.316406,-0.0234 1.4765621,-0.0234 1.8749996,-0.0234 0.3984375,0 1.546875,0 1.8632812,0.0234 v -0.35156 h -0.3632812 c -1.0546875,0 -1.0898438,-0.14062 -1.0898438,-0.57422 z m 0,0"
         style="fill:#000000;fill-opacity:1;fill-rule:nonzero;stroke:none" />
      <path
         id="path62"
         d="m 221.60187,123.06984 c 0.50391,0.16407 0.92579,0.17579 1.05469,0.17579 1.35938,0 2.21485,-0.9961 2.21485,-1.16016 0,-0.0469 -0.0234,-0.10547 -0.0937,-0.10547 -0.0234,0 -0.0469,0 -0.15235,0.0469 -0.66797,0.28125 -1.24219,0.3164 -1.55859,0.3164 -0.78516,0 -1.34766,-0.23437 -1.58203,-0.32812 -0.082,-0.0352 -0.10547,-0.0352 -0.11719,-0.0352 -0.0937,0 -0.0937,0.0703 -0.0937,0.25781 v 3.55078 c 0,0.21094 0,0.29297 0.14062,0.29297 0.0586,0 0.0703,-0.0117 0.19922,-0.16406 0.32813,-0.49219 0.89063,-0.77344 1.48828,-0.77344 0.63282,0 0.94922,0.58594 1.04297,0.78516 0.19922,0.46875 0.21094,1.05469 0.21094,1.51172 0,0.45703 0,1.13672 -0.32812,1.67578 -0.26954,0.42187 -0.73829,0.72656 -1.25391,0.72656 -0.79688,0 -1.57031,-0.53906 -1.78125,-1.40625 0.0586,0.0234 0.12891,0.0352 0.1875,0.0352 0.19922,0 0.52734,-0.12891 0.52734,-0.52735 0,-0.33984 -0.23437,-0.52734 -0.52734,-0.52734 -0.21094,0 -0.52734,0.10547 -0.52734,0.57422 0,1.00781 0.80859,2.16797 2.14453,2.16797 1.34765,0 2.53125,-1.125 2.53125,-2.64844 0,-1.41797 -0.96094,-2.60156 -2.21485,-2.60156 -0.67968,0 -1.20703,0.29297 -1.51172,0.63281 z m 9.67383,3.02344 c 0,-0.99609 -0.0586,-1.96875 -0.49218,-2.87109 -0.49219,-0.9961 -1.34766,-1.25391 -1.9336,-1.25391 -0.6914,0 -1.54687,0.33985 -1.98047,1.33594 -0.33984,0.75 -0.45703,1.48828 -0.45703,2.78906 0,1.16016 0.082,2.02735 0.51563,2.8711 0.45703,0.91406 1.28906,1.19531 1.91015,1.19531 1.04297,0 1.64063,-0.6211 1.98047,-1.3125 0.4336,-0.89063 0.45703,-2.0625 0.45703,-2.75391 z m -2.4375,3.83203 c -0.38672,0 -1.16015,-0.21093 -1.38281,-1.52343 -0.14062,-0.71485 -0.14062,-1.61719 -0.14062,-2.46094 0,-0.97266 0,-1.86328 0.19921,-2.56641 0.19922,-0.79687 0.8086,-1.17187 1.32422,-1.17187 0.45703,0 1.14844,0.28125 1.3711,1.30078 0.15234,0.67969 0.15234,1.6289 0.15234,2.4375 0,0.80859 0,1.71094 -0.12891,2.4375 -0.22265,1.32422 -0.97265,1.54687 -1.39453,1.54687 z m 0,0"
         style="fill:#000000;fill-opacity:1;fill-rule:nonzero;stroke:none" />
    </g>
  </g>
</svg>
