<?xml version="1.0" encoding="UTF-8" standalone="no"?>
<!-- Created with Inkscape (http://www.inkscape.org/) -->

<svg
   version="1.1"
   id="svg1"
   width="794.55066"
   height="1123.6533"
   viewBox="0 0 794.55066 1123.6533"
   sodipodi:docname="LigaMatematycznaMatuskiego_SP_Zestaw4_2018_2019_page0.pdf"
   xmlns:inkscape="http://www.inkscape.org/namespaces/inkscape"
   xmlns:sodipodi="http://sodipodi.sourceforge.net/DTD/sodipodi-0.dtd"
   xmlns="http://www.w3.org/2000/svg"
   xmlns:svg="http://www.w3.org/2000/svg">
  <defs
     id="defs1" />
  <sodipodi:namedview
     id="namedview1"
     pagecolor="#ffffff"
     bordercolor="#000000"
     borderopacity="0.25"
     inkscape:showpageshadow="2"
     inkscape:pageopacity="0.0"
     inkscape:pagecheckerboard="0"
     inkscape:deskcolor="#d1d1d1">
    <inkscape:page
       x="0"
       y="0"
       inkscape:label="1"
       id="page1"
       width="794.55066"
       height="1123.6533"
       margin="0"
       bleed="0" />
  </sodipodi:namedview>
  <g
     id="g1"
     inkscape:groupmode="layer"
     inkscape:label="1">
    <g
       id="g2"
       aria-label="LIGAMATEMATYCZNA&#10;im.ZdzisªawaMatuskiego&#10;PÓFINA&#10;21lutego2018&#10;SZKOAPODSTAWOWA&#10;(klasyIV-VI)&#10;ZADANIE1.&#10;ZczterocyfrowejliczbypierwszejAdamwymazaªjedn¡cyfr¦iotrzymaª630.Wyznaczt¦liczb¦&#10;czterocyfrow¡.&#10;ZADANIE2.&#10;Ka»dyztrzechsynówpa«stwaMalinowskichmacaªkowit¡liczb¦lat.Iloczynichlatjestrówny&#10;18,azarokwyniesie60.Podajwiekka»degoznich.&#10;ZADANIE3.&#10;Wtrapezierównoramiennymprzek¡tnadzielik¡tostrynapoªowy.Dªu»szapodstawatrapezu&#10;madªugo±¢24,aobwódjestrówny54.Obliczdªugo±cipozostaªychbokówtrapezu.&#10;ZADANIE4.&#10;Adam,BartekiCzarekmaj¡razem30piªek.GdyBartekdaª5piªekCzarkowi,Czarekdaª&#10;4piªkiAdamowi,Adamdaª2piªkiBartkowi,tookazaªosi¦,»ewszyscymaj¡jednakow¡liczb¦&#10;piªek.Ilepiªekmielinapocz¡tku?&#10;ZADANIE5.&#10;Wpewnymtrójk¡cierównoramiennymk¡tmi¦dzydwusiecznymijednakowychk¡tówjesttrzy&#10;razywi¦kszyni»k¡tmi¦dzyramionamitrójk¡ta.Wyznaczmiaryk¡tówtrójk¡ta."
       transform="matrix(1.3333333,0,0,1.3333333,274.724,56.069333)">
      <path
         id="path2"
         d="m 218.93454,137.13648 c 0,-3.02344 1.47656,-3.50391 2.12109,-3.50391 0.4336,0 0.85547,0.12891 1.08985,0.49219 -0.14063,0 -0.59766,0 -0.59766,0.49219 0,0.25781 0.17578,0.49218 0.49219,0.49218 0.29297,0 0.49219,-0.1875 0.49219,-0.52734 0,-0.62109 -0.44532,-1.23047 -1.48829,-1.23047 -1.51171,0 -3.08203,1.53516 -3.08203,4.17188 0,3.28125 1.42969,4.01953 2.44922,4.01953 1.30078,0 2.41406,-1.125 2.41406,-2.6836 0,-1.59375 -1.11328,-2.66015 -2.30859,-2.66015 -1.06641,0 -1.45312,0.92578 -1.58203,1.26562 z m 1.47656,4.08984 c -0.75,0 -1.11328,-0.66797 -1.21875,-0.92578 -0.10547,-0.30469 -0.22265,-0.89063 -0.22265,-1.73438 0,-0.9375 0.42187,-2.12109 1.5,-2.12109 0.65625,0 1.00781,0.44531 1.18359,0.84375 0.1875,0.44531 0.1875,1.04297 0.1875,1.55859 0,0.60938 0,1.14844 -0.22266,1.60547 -0.30468,0.57422 -0.72656,0.77344 -1.20703,0.77344 z m 5.11524,-4.21875 c -0.21094,0.0117 -0.25782,0.0234 -0.25782,0.12891 0,0.11718 0.0586,0.11718 0.28125,0.11718 h 0.55078 c 1.00782,0 1.46485,0.84375 1.46485,1.99219 0,1.5586 -0.8086,1.98047 -1.39453,1.98047 -0.57422,0 -1.5586,-0.28125 -1.89844,-1.06641 0.375,0.0586 0.72656,-0.15234 0.72656,-0.58593 0,-0.33985 -0.25781,-0.58594 -0.58594,-0.58594 -0.29296,0 -0.59765,0.16406 -0.59765,0.62109 0,1.06641 1.0664,1.9336 2.39062,1.9336 1.41797,0 2.47266,-1.07813 2.47266,-2.28516 0,-1.10156 -0.89063,-1.96875 -2.02734,-2.16797 1.03125,-0.30469 1.69921,-1.17187 1.69921,-2.10937 0,-0.9375 -0.97265,-1.62891 -2.13281,-1.62891 -1.19531,0 -2.08594,0.72656 -2.08594,1.59375 0,0.48047 0.375,0.57422 0.55079,0.57422 0.25781,0 0.53906,-0.17578 0.53906,-0.53906 0,-0.375 -0.28125,-0.53907 -0.55078,-0.53907 -0.0703,0 -0.0937,0 -0.12891,0.0117 0.45703,-0.82031 1.58203,-0.82031 1.64063,-0.82031 0.38671,0 1.17187,0.17578 1.17187,1.34766 0,0.23437 -0.0352,0.90234 -0.38672,1.41797 -0.35156,0.52734 -0.76172,0.5625 -1.08984,0.57421 z m 9.00586,0.46875 c 0,-0.99609 -0.0586,-1.96875 -0.49219,-2.87109 -0.49219,-0.9961 -1.34766,-1.25391 -1.9336,-1.25391 -0.6914,0 -1.54687,0.33984 -1.98046,1.33594 -0.33985,0.75 -0.45704,1.48828 -0.45704,2.78906 0,1.16016 0.082,2.02734 0.51563,2.87109 0.45703,0.91407 1.28906,1.19532 1.91016,1.19532 1.04296,0 1.64062,-0.6211 1.98046,-1.3125 0.4336,-0.89063 0.45704,-2.0625 0.45704,-2.75391 z m -2.4375,3.83203 c -0.38672,0 -1.16016,-0.21094 -1.38282,-1.52344 -0.14062,-0.71484 -0.14062,-1.61718 -0.14062,-2.46093 0,-0.97266 0,-1.86328 0.19922,-2.56641 0.19922,-0.79687 0.80859,-1.17187 1.32422,-1.17187 0.45703,0 1.14843,0.28125 1.37109,1.30078 0.15234,0.67968 0.15234,1.6289 0.15234,2.4375 0,0.80859 0,1.71093 -0.1289,2.4375 -0.22266,1.32422 -0.97266,1.54687 -1.39453,1.54687 z m 0,0"
         style="fill:#000000;fill-opacity:1;fill-rule:nonzero;stroke:none" />
      <path
         id="path3"
         d="m -144.77152,205.58863 c 0,-0.26954 0,-0.28125 -0.24609,-0.28125 -0.28125,0.3164 -0.87891,0.76171 -2.10937,0.76171 v 0.35157 c 0.26953,0 0.86718,0 1.52343,-0.31641 v 6.22266 c 0,0.43359 -0.0351,0.57422 -1.07812,0.57422 h -0.375 v 0.35156 c 0.3164,-0.0234 1.47656,-0.0234 1.875,-0.0234 0.39844,0 1.54687,0 1.86328,0.0234 v -0.35156 h -0.36328 c -1.05469,0 -1.08985,-0.14063 -1.08985,-0.57422 z m 5.97071,3.35156 c 0.59765,-0.32813 1.46484,-0.87891 1.46484,-1.875 0,-1.04297 -0.99609,-1.75781 -2.09765,-1.75781 -1.1836,0 -2.1211,0.86718 -2.1211,1.95703 0,0.41015 0.12891,0.80859 0.45703,1.21875 0.12891,0.15234 0.14063,0.16406 0.98438,0.75 -1.16016,0.53906 -1.75781,1.34765 -1.75781,2.21484 0,1.26563 1.20703,2.05078 2.42578,2.05078 1.32422,0 2.4375,-0.97265 2.4375,-2.22656 0,-1.21875 -0.85547,-1.75781 -1.79297,-2.33203 z m -1.62891,-1.07813 c -0.15234,-0.10547 -0.63281,-0.42187 -0.63281,-1.00781 0,-0.77344 0.82031,-1.26562 1.61719,-1.26562 0.85547,0 1.6289,0.62109 1.6289,1.48828 0,0.72656 -0.52734,1.3125 -1.21875,1.6875 z m 0.5625,1.54688 1.45313,0.9375 c 0.30468,0.19922 0.85547,0.57422 0.85547,1.30078 0,0.91406 -0.91407,1.53516 -1.875,1.53516 -1.01954,0 -1.88672,-0.73829 -1.88672,-1.73438 0,-0.9375 0.67968,-1.6875 1.45312,-2.03906 z m 0,0"
         style="fill:#000000;fill-opacity:1;fill-rule:nonzero;stroke:none" />
      <path
         id="path4"
         d="m -36.153352,209.09253 c 0,-3.02344 1.476563,-3.5039 2.121094,-3.5039 0.433594,0 0.855469,0.1289 1.089844,0.49218 -0.140625,0 -0.597656,0 -0.597656,0.49219 0,0.25781 0.175781,0.49219 0.492187,0.49219 0.292969,0 0.492188,-0.1875 0.492188,-0.52735 0,-0.62109 -0.445313,-1.23046 -1.488282,-1.23046 -1.511718,0 -3.082031,1.53515 -3.082031,4.17187 0,3.28125 1.429688,4.01953 2.449219,4.01953 1.300781,0 2.414062,-1.125 2.414062,-2.68359 0,-1.59375 -1.113281,-2.66016 -2.308593,-2.66016 -1.066407,0 -1.453125,0.92578 -1.582032,1.26563 z m 1.476563,4.08985 c -0.75,0 -1.113281,-0.66797 -1.21875,-0.92579 -0.105469,-0.30468 -0.222656,-0.89062 -0.222656,-1.73437 0,-0.9375 0.421875,-2.12109 1.5,-2.12109 0.65625,0 1.007812,0.44531 1.183593,0.84375 0.1875,0.44531 0.1875,1.04296 0.1875,1.55859 0,0.60937 0,1.14844 -0.222656,1.60547 -0.304687,0.57422 -0.726562,0.77344 -1.207031,0.77344 z m 8.267578,-3.75 c 0,-0.9961 -0.05859,-1.96875 -0.492187,-2.8711 -0.492188,-0.99609 -1.347657,-1.2539 -1.933594,-1.2539 -0.691406,0 -1.546875,0.33984 -1.980469,1.33593 -0.339844,0.75 -0.457031,1.48828 -0.457031,2.78907 0,1.16015 0.08203,2.02734 0.515625,2.87109 0.457031,0.91406 1.289062,1.19531 1.910156,1.19531 1.042969,0 1.640625,-0.62109 1.980469,-1.3125 0.433594,-0.89062 0.457031,-2.0625 0.457031,-2.7539 z m -2.4375,3.83203 c -0.386719,0 -1.160156,-0.21094 -1.382812,-1.52344 -0.140625,-0.71484 -0.140625,-1.61719 -0.140625,-2.46094 0,-0.97265 0,-1.86328 0.199218,-2.5664 0.199219,-0.79688 0.808594,-1.17188 1.324219,-1.17188 0.457031,0 1.148438,0.28125 1.371094,1.30078 0.152344,0.67969 0.152344,1.62891 0.152344,2.4375 0,0.8086 0,1.71094 -0.128907,2.4375 -0.222656,1.32422 -0.972656,1.54688 -1.394531,1.54688 z m 0,0"
         style="fill:#000000;fill-opacity:1;fill-rule:nonzero;stroke:none" />
      <path
         id="path5"
         d="m -81.088898,268.76148 h -0.269532 c -0.03516,0.19922 -0.128906,0.85547 -0.246093,1.04297 -0.08203,0.11718 -0.761719,0.11718 -1.125,0.11718 h -2.214844 c 0.328125,-0.28125 1.054687,-1.04297 1.371094,-1.33593 1.816406,-1.66407 2.484375,-2.28516 2.484375,-3.46875 0,-1.38282 -1.089844,-2.29688 -2.472657,-2.29688 -1.394531,0 -2.203125,1.18359 -2.203125,2.20313 0,0.60937 0.527344,0.60937 0.5625,0.60937 0.246094,0 0.5625,-0.17578 0.5625,-0.5625 0,-0.32812 -0.234375,-0.55078 -0.5625,-0.55078 -0.105468,0 -0.128906,0 -0.164062,0.0117 0.222656,-0.82031 0.867187,-1.3711 1.640625,-1.3711 1.019531,0 1.640625,0.85547 1.640625,1.95704 0,1.00781 -0.585938,1.89843 -1.265625,2.66015 l -2.414063,2.70703 v 0.28125 h 4.359375 z m 4.901367,-5.77735 c 0,-0.22265 0,-0.29297 -0.164063,-0.29297 -0.09375,0 -0.128906,0 -0.222656,0.15235 l -3.597656,5.57812 v 0.35157 h 3.140625 v 1.07812 c 0,0.44531 -0.02344,0.5625 -0.902344,0.5625 H -78.168 v 0.35156 c 0.269531,-0.0234 1.21875,-0.0234 1.558594,-0.0234 0.328125,0 1.289062,0 1.558594,0.0234 v -0.35156 h -0.234375 c -0.867188,0 -0.902344,-0.11719 -0.902344,-0.5625 v -1.07812 h 1.207031 v -0.35157 h -1.207031 z m -0.785156,0.9375 v 4.5 h -2.90625 z m 0,0"
         style="fill:#000000;fill-opacity:1;fill-rule:nonzero;stroke:none" />
      <path
         id="path6"
         d="m 37.159148,263.92163 c 0.503907,0.16407 0.925782,0.17578 1.054688,0.17578 1.359375,0 2.214844,-0.99609 2.214844,-1.16015 0,-0.0469 -0.02344,-0.10547 -0.09375,-0.10547 -0.02344,0 -0.04687,0 -0.152344,0.0469 -0.667969,0.28125 -1.242188,0.31641 -1.558594,0.31641 -0.785156,0 -1.347656,-0.23437 -1.582031,-0.32812 -0.08203,-0.0352 -0.105469,-0.0352 -0.117188,-0.0352 -0.09375,0 -0.09375,0.0703 -0.09375,0.25781 v 3.55078 c 0,0.21094 0,0.29297 0.140625,0.29297 0.05859,0 0.07031,-0.0117 0.199219,-0.16406 0.328125,-0.49219 0.890625,-0.77344 1.488281,-0.77344 0.632813,0 0.949219,0.58594 1.042969,0.78516 0.199219,0.46875 0.210938,1.05469 0.210938,1.51172 0,0.45703 0,1.13672 -0.328125,1.67578 -0.269532,0.42187 -0.738282,0.72656 -1.253907,0.72656 -0.796875,0 -1.570312,-0.53906 -1.78125,-1.40625 0.05859,0.0234 0.128907,0.0352 0.1875,0.0352 0.199219,0 0.527344,-0.12891 0.527344,-0.52735 0,-0.33984 -0.234375,-0.52734 -0.527344,-0.52734 -0.210937,0 -0.527343,0.10547 -0.527343,0.57422 0,1.00781 0.808593,2.16797 2.144531,2.16797 1.347656,0 2.53125,-1.125 2.53125,-2.64844 0,-1.41797 -0.960938,-2.60156 -2.214844,-2.60156 -0.679687,0 -1.207031,0.29297 -1.511719,0.63281 z m 8.63086,-0.9375 c 0,-0.22265 0,-0.29297 -0.164063,-0.29297 -0.09375,0 -0.128906,0 -0.222656,0.15235 l -3.597656,5.57812 v 0.35157 h 3.140625 v 1.07812 c 0,0.44531 -0.02344,0.5625 -0.902344,0.5625 h -0.234375 v 0.35156 c 0.269531,-0.0234 1.21875,-0.0234 1.558594,-0.0234 0.328125,0 1.289062,0 1.558594,0.0234 v -0.35156 h -0.234375 c -0.867188,0 -0.902344,-0.11719 -0.902344,-0.5625 v -1.07812 h 1.207031 v -0.35157 h -1.207031 z m -0.785156,0.9375 v 4.5 h -2.90625 z m 0,0"
         style="fill:#000000;fill-opacity:1;fill-rule:nonzero;stroke:none" />
      <path
         id="path7"
         d="m 45.353484,309.5398 c -0.210937,0.0117 -0.257812,0.0234 -0.257812,0.1289 0,0.11719 0.05859,0.11719 0.28125,0.11719 h 0.550781 c 1.007813,0 1.464844,0.84375 1.464844,1.99219 0,1.55859 -0.808594,1.98047 -1.394531,1.98047 -0.574219,0 -1.558594,-0.28125 -1.898438,-1.06641 0.375,0.0586 0.726563,-0.15234 0.726563,-0.58594 0,-0.33984 -0.257813,-0.58593 -0.585938,-0.58593 -0.292969,0 -0.597656,0.16406 -0.597656,0.62109 0,1.06641 1.066406,1.93359 2.390625,1.93359 1.417969,0 2.472656,-1.07812 2.472656,-2.28515 0,-1.10157 -0.890625,-1.96875 -2.027344,-2.16797 1.03125,-0.30469 1.699219,-1.17188 1.699219,-2.10938 0,-0.9375 -0.972656,-1.6289 -2.132812,-1.6289 -1.195313,0 -2.085938,0.72656 -2.085938,1.59375 0,0.48047 0.375,0.57422 0.550781,0.57422 0.257813,0 0.539063,-0.17579 0.539063,-0.53907 0,-0.375 -0.28125,-0.53906 -0.550781,-0.53906 -0.07031,0 -0.09375,0 -0.128907,0.0117 0.457032,-0.82031 1.582032,-0.82031 1.640625,-0.82031 0.386719,0 1.171875,0.17578 1.171875,1.34765 0,0.23438 -0.03516,0.90235 -0.386718,1.41797 -0.351563,0.52735 -0.761719,0.5625 -1.089844,0.57422 z m 9.00586,0.46875 c 0,-0.9961 -0.05859,-1.96875 -0.492188,-2.8711 -0.492187,-0.99609 -1.347656,-1.2539 -1.933593,-1.2539 -0.691407,0 -1.546875,0.33984 -1.980469,1.33593 -0.339844,0.75 -0.457031,1.48829 -0.457031,2.78907 0,1.16015 0.08203,2.02734 0.515625,2.87109 0.457031,0.91406 1.289062,1.19531 1.910156,1.19531 1.042969,0 1.640625,-0.62109 1.980469,-1.3125 0.433593,-0.89062 0.457031,-2.0625 0.457031,-2.7539 z m -2.4375,3.83203 c -0.386719,0 -1.160156,-0.21094 -1.382813,-1.52344 -0.140625,-0.71484 -0.140625,-1.61719 -0.140625,-2.46094 0,-0.97265 0,-1.86328 0.199219,-2.5664 0.199219,-0.79688 0.808594,-1.17188 1.324219,-1.17188 0.457031,0 1.148437,0.28125 1.371094,1.30078 0.152343,0.67969 0.152343,1.62891 0.152343,2.4375 0,0.8086 0,1.71094 -0.128906,2.4375 -0.222656,1.32422 -0.972656,1.54688 -1.394531,1.54688 z m 0,0"
         style="fill:#000000;fill-opacity:1;fill-rule:nonzero;stroke:none" />
      <path
         id="path8"
         d="m 183.44138,306.98511 c 0.5039,0.16406 0.92578,0.17578 1.05468,0.17578 1.35938,0 2.21485,-0.99609 2.21485,-1.16016 0,-0.0469 -0.0234,-0.10546 -0.0937,-0.10546 -0.0234,0 -0.0469,0 -0.15235,0.0469 -0.66797,0.28125 -1.24218,0.31641 -1.55859,0.31641 -0.78516,0 -1.34766,-0.23438 -1.58203,-0.32813 -0.082,-0.0352 -0.10547,-0.0352 -0.11719,-0.0352 -0.0937,0 -0.0937,0.0703 -0.0937,0.25781 v 3.55078 c 0,0.21094 0,0.29297 0.14063,0.29297 0.0586,0 0.0703,-0.0117 0.19921,-0.16406 0.32813,-0.49219 0.89063,-0.77344 1.48829,-0.77344 0.63281,0 0.94921,0.58594 1.04296,0.78515 0.19922,0.46875 0.21094,1.05469 0.21094,1.51172 0,0.45703 0,1.13672 -0.32812,1.67578 -0.26953,0.42188 -0.73828,0.72657 -1.25391,0.72657 -0.79687,0 -1.57031,-0.53907 -1.78125,-1.40625 0.0586,0.0234 0.12891,0.0351 0.1875,0.0351 0.19922,0 0.52734,-0.1289 0.52734,-0.52734 0,-0.33984 -0.23437,-0.52734 -0.52734,-0.52734 -0.21094,0 -0.52734,0.10546 -0.52734,0.57421 0,1.00782 0.80859,2.16797 2.14453,2.16797 1.34765,0 2.53125,-1.125 2.53125,-2.64843 0,-1.41797 -0.96094,-2.60157 -2.21485,-2.60157 -0.67968,0 -1.20703,0.29297 -1.51171,0.63282 z m 0,0"
         style="fill:#000000;fill-opacity:1;fill-rule:nonzero;stroke:none" />
      <path
         id="path9"
         d="m -143.90433,320.4939 c 0,-0.22266 0,-0.29297 -0.16406,-0.29297 -0.0937,0 -0.12891,0 -0.22266,0.15234 l -3.59765,5.57813 v 0.35156 h 3.14062 v 1.07813 c 0,0.44531 -0.0234,0.5625 -0.90234,0.5625 h -0.23438 v 0.35156 c 0.26953,-0.0234 1.21875,-0.0234 1.5586,-0.0234 0.32812,0 1.28906,0 1.55859,0.0234 v -0.35156 h -0.23437 c -0.86719,0 -0.90235,-0.11719 -0.90235,-0.5625 v -1.07813 h 1.20703 v -0.35156 h -1.20703 z m -0.78515,0.9375 v 4.5 h -2.90625 z m 0,0"
         style="fill:#000000;fill-opacity:1;fill-rule:nonzero;stroke:none" />
      <path
         id="path10"
         d="M 1.6425469,326.27124 H 1.3730156 c -0.035156,0.19922 -0.1289062,0.85547 -0.2460937,1.04297 -0.082031,0.11719 -0.76171877,0.11719 -1.12500002,0.11719 H -2.2129219 c 0.328125,-0.28125 1.0546875,-1.04297 1.37109378,-1.33594 1.81640625,-1.66406 2.48437502,-2.28516 2.48437502,-3.46875 0,-1.38281 -1.08984377,-2.29687 -2.47265627,-2.29687 -1.39453123,0 -2.20312503,1.18359 -2.20312503,2.20312 0,0.60938 0.5273438,0.60938 0.5625,0.60938 0.2460938,0 0.5625,-0.17579 0.5625,-0.5625 0,-0.32813 -0.234375,-0.55079 -0.5625,-0.55079 -0.1054687,0 -0.1289062,0 -0.1640625,0.0117 0.2226563,-0.82031 0.8671875,-1.37109 1.64062503,-1.37109 1.01953125,0 1.640625,0.85547 1.640625,1.95703 0,1.00781 -0.5859375,1.89844 -1.265625,2.66016 l -2.41406253,2.70703 v 0.28125 h 4.359375 z m 0,0"
         style="fill:#000000;fill-opacity:1;fill-rule:nonzero;stroke:none" />
    </g>
  </g>
</svg>
