<?xml version="1.0" encoding="UTF-8" standalone="no"?>
<!-- Created with Inkscape (http://www.inkscape.org/) -->

<svg
   version="1.1"
   id="svg1"
   width="794.55066"
   height="1123.6533"
   viewBox="0 0 794.55066 1123.6533"
   sodipodi:docname="LigaMatematycznaMatuskiego_Liceum_Zestaw3_2021_2022_page0.pdf"
   xmlns:inkscape="http://www.inkscape.org/namespaces/inkscape"
   xmlns:sodipodi="http://sodipodi.sourceforge.net/DTD/sodipodi-0.dtd"
   xmlns="http://www.w3.org/2000/svg"
   xmlns:svg="http://www.w3.org/2000/svg">
  <defs
     id="defs1" />
  <sodipodi:namedview
     id="namedview1"
     pagecolor="#ffffff"
     bordercolor="#000000"
     borderopacity="0.25"
     inkscape:showpageshadow="2"
     inkscape:pageopacity="0.0"
     inkscape:pagecheckerboard="0"
     inkscape:deskcolor="#d1d1d1">
    <inkscape:page
       x="0"
       y="0"
       inkscape:label="1"
       id="page1"
       width="794.55066"
       height="1123.6533"
       margin="0"
       bleed="0" />
  </sodipodi:namedview>
  <g
     id="g1"
     inkscape:groupmode="layer"
     inkscape:label="1">
    <g
       id="g2"
       aria-label="LIGAMATEMATYCZNA&#10;im.ZdzisªawaMatuskiego&#10;GRUDZIE2021&#10;SZKOAPONADPODSTAWOWA&#10;ZADANIE1.&#10;Wzbiorzeliczbcaªkowitychrozwi¡»równaniex&#10;2&#10;+y&#10;2&#10;+3=xy+2x+2y.&#10;ZADANIE2.&#10;Czyliczb¦123456789mo»naprzedstawi¢wpostacisumydwóchskªadników,zktórychjeden&#10;jestzapisanytylkocyframiparzystymi,adruginieparzystymi?&#10;ZADANIE3.&#10;Wyka»,»ewdowolnymci¡gusiedmiuliczbcaªkowitychzawszemo¹nawskaza¢pewn¡liczb¦&#10;kolejnychwyrazów,którychsumajestpodzielnaprzez7.&#10;ZADANIE4.&#10;Niechpiqb¦d¡takimidodatnimiliczbamirzeczywistymi,»eq&gt;p.Wyka»,»eje»elipiqs¡&#10;dªugo±ciamiprzek¡tnychrombuok¡cieomierze&#10;π"
       transform="matrix(1.3333333,0,0,1.3333333,274.724,56.069333)">
      <path
         id="path2"
         d="m 96.086883,104.93921 c -0.375,0.0703 -0.515625,0.35156 -0.515625,0.58594 0,0.28125 0.222656,0.375 0.386719,0.375 0.363281,0 0.609375,-0.30469 0.609375,-0.63281 0,-0.49219 -0.574219,-0.72657 -1.078125,-0.72657 -0.726563,0 -1.125,0.71485 -1.242188,0.94922 -0.269531,-0.90234 -1.007812,-0.94922 -1.230469,-0.94922 -1.21875,0 -1.863281,1.57032 -1.863281,1.82813 0,0.0469 0.04687,0.10547 0.128906,0.10547 0.105469,0 0.128907,-0.0703 0.152344,-0.11719 0.398438,-1.32422 1.207031,-1.57031 1.546875,-1.57031 0.539063,0 0.644531,0.49218 0.644531,0.78515 0,0.25782 -0.07031,0.53907 -0.210937,1.11328 -0.1875,0.76172 -0.234375,0.9375 -0.410156,1.62891 -0.175782,0.72656 -0.527344,1.38281 -1.160157,1.38281 -0.05859,0 -0.351562,0 -0.609375,-0.15234 0.433594,-0.0937 0.527344,-0.44531 0.527344,-0.58594 0,-0.24609 -0.175781,-0.38672 -0.398437,-0.38672 -0.292969,0 -0.597657,0.2461 -0.597657,0.63282 0,0.5039 0.5625,0.72656 1.066407,0.72656 0.574218,0 0.984375,-0.45703 1.230468,-0.9375 0.199219,0.70312 0.796875,0.9375 1.230469,0.9375 1.230469,0 1.875,-1.5586 1.875,-1.82813 0,-0.0586 -0.04687,-0.10547 -0.128906,-0.10547 -0.105469,0 -0.117188,0.0586 -0.152344,0.15235 -0.316406,1.05469 -1.019531,1.54687 -1.546875,1.54687 -0.421875,0 -0.65625,-0.3164 -0.65625,-0.80859 0,-0.25781 0.05859,-0.44531 0.246094,-1.24219 0.140625,-0.55078 0.292969,-1.18359 0.421875,-1.61719 0.175781,-0.72656 0.585937,-1.24218 1.125,-1.24218 0.03516,0 0.363281,0 0.609375,0.15234 z m 0,0"
         style="fill:#000000;fill-opacity:1;fill-rule:nonzero;stroke:none" />
      <path
         id="path3"
         d="m 99.330047,103.84644 c 0.128906,-0.11719 0.457031,-0.375 0.585937,-0.49219 0.492186,-0.45703 0.960936,-0.89062 0.960936,-1.61719 0,-0.94922 -0.79687,-1.55859 -1.792967,-1.55859 -0.949219,0 -1.582031,0.72656 -1.582031,1.42969 0,0.39843 0.316406,0.44531 0.421875,0.44531 0.164062,0 0.410156,-0.11719 0.410156,-0.42188 0,-0.41015 -0.398437,-0.41015 -0.492187,-0.41015 0.234375,-0.58594 0.773437,-0.78516 1.160156,-0.78516 0.738281,0 1.124998,0.63281 1.124998,1.30078 0,0.83203 -0.585936,1.42969 -1.523436,2.40235 l -1.007812,1.03125 c -0.09375,0.0937 -0.09375,0.10547 -0.09375,0.30468 h 3.152348 l 0.22265,-1.42968 h -0.24609 c -0.0234,0.16406 -0.082,0.5625 -0.17578,0.71484 -0.0469,0.0586 -0.656253,0.0586 -0.785159,0.0586 h -1.417969 z m 0,0"
         style="fill:#000000;fill-opacity:1;fill-rule:nonzero;stroke:none" />
      <path
         id="path4"
         d="m 109.23825,107.04859 h 3.30469 c 0.16406,0 0.375,0 0.375,-0.21094 0,-0.22266 -0.19922,-0.22266 -0.375,-0.22266 h -3.30469 v -3.30469 c 0,-0.16406 0,-0.38671 -0.21094,-0.38671 -0.23437,0 -0.23437,0.21093 -0.23437,0.38671 v 3.30469 h -3.29297 c -0.17578,0 -0.38672,0 -0.38672,0.21094 0,0.22266 0.19922,0.22266 0.38672,0.22266 h 3.29297 v 3.30468 c 0,0.16407 0,0.38672 0.22265,0.38672 0.22266,0 0.22266,-0.21094 0.22266,-0.38672 z m 0,0"
         style="fill:#000000;fill-opacity:1;fill-rule:nonzero;stroke:none" />
      <path
         id="path5"
         d="m 119.37204,111.15015 c -0.31641,0.45703 -0.78516,0.86719 -1.37109,0.86719 -0.14063,0 -0.71485,-0.0234 -0.90235,-0.57422 0.0469,0.0117 0.10547,0.0117 0.12891,0.0117 0.35156,0 0.59765,-0.31641 0.59765,-0.58594 0,-0.28125 -0.23437,-0.375 -0.41015,-0.375 -0.1875,0 -0.60938,0.14062 -0.60938,0.72656 0,0.60938 0.51563,1.03125 1.19532,1.03125 1.19531,0 2.40234,-1.10156 2.74218,-2.42578 l 1.17188,-4.66406 c 0.0117,-0.0586 0.0352,-0.12891 0.0352,-0.19922 0,-0.17578 -0.15234,-0.30469 -0.32812,-0.30469 -0.10547,0 -0.36328,0.0469 -0.45703,0.41016 l -0.87891,3.51562 c -0.0586,0.21094 -0.0586,0.23438 -0.15234,0.375 -0.2461,0.32813 -0.64453,0.73828 -1.20703,0.73828 -0.67969,0 -0.73828,-0.65625 -0.73828,-0.98437 0,-0.67969 0.32812,-1.60547 0.64453,-2.46094 0.14062,-0.35156 0.21093,-0.51562 0.21093,-0.75 0,-0.50391 -0.36328,-0.96094 -0.94921,-0.96094 -1.10157,0 -1.53516,1.73438 -1.53516,1.82813 0,0.0469 0.0469,0.10547 0.12891,0.10547 0.10546,0 0.11718,-0.0469 0.16406,-0.21094 0.29297,-1.00781 0.73828,-1.47656 1.20703,-1.47656 0.10547,0 0.31641,0 0.31641,0.38672 0,0.3164 -0.14063,0.65625 -0.31641,1.11328 -0.58594,1.57031 -0.58594,1.95703 -0.58594,2.25 0,1.13672 0.8086,1.39453 1.40625,1.39453 0.35156,0 0.78516,-0.10547 1.19531,-0.55078 l 0.0117,0.0117 c -0.17578,0.70312 -0.29297,1.17187 -0.71484,1.75781 z m 0,0"
         style="fill:#000000;fill-opacity:1;fill-rule:nonzero;stroke:none" />
      <path
         id="path6"
         d="m 124.61618,103.84644 c 0.12891,-0.11719 0.45703,-0.375 0.58594,-0.49219 0.49218,-0.45703 0.96093,-0.89062 0.96093,-1.61719 0,-0.94922 -0.79687,-1.55859 -1.79296,-1.55859 -0.94922,0 -1.58204,0.72656 -1.58204,1.42969 0,0.39843 0.31641,0.44531 0.42188,0.44531 0.16406,0 0.41016,-0.11719 0.41016,-0.42188 0,-0.41015 -0.39844,-0.41015 -0.49219,-0.41015 0.23437,-0.58594 0.77344,-0.78516 1.16015,-0.78516 0.73829,0 1.125,0.63281 1.125,1.30078 0,0.83203 -0.58593,1.42969 -1.52343,2.40235 l -1.00782,1.03125 c -0.0937,0.0937 -0.0937,0.10547 -0.0937,0.30468 h 3.15235 l 0.22265,-1.42968 h -0.24609 c -0.0234,0.16406 -0.082,0.5625 -0.17578,0.71484 -0.0469,0.0586 -0.65625,0.0586 -0.78516,0.0586 h -1.41797 z m 0,0"
         style="fill:#000000;fill-opacity:1;fill-rule:nonzero;stroke:none" />
      <path
         id="path7"
         d="m 134.52438,107.04859 h 3.30469 c 0.16406,0 0.375,0 0.375,-0.21094 0,-0.22266 -0.19922,-0.22266 -0.375,-0.22266 h -3.30469 v -3.30469 c 0,-0.16406 0,-0.38671 -0.21093,-0.38671 -0.23438,0 -0.23438,0.21093 -0.23438,0.38671 v 3.30469 h -3.29297 c -0.17578,0 -0.38672,0 -0.38672,0.21094 0,0.22266 0.19922,0.22266 0.38672,0.22266 h 3.29297 v 3.30468 c 0,0.16407 0,0.38672 0.22266,0.38672 0.22265,0 0.22265,-0.21094 0.22265,-0.38672 z m 9.19336,-1.52344 c -0.21094,0.0117 -0.25781,0.0234 -0.25781,0.1289 0,0.11719 0.0586,0.11719 0.28125,0.11719 h 0.55078 c 1.00781,0 1.46484,0.84375 1.46484,1.99219 0,1.55859 -0.80859,1.98047 -1.39453,1.98047 -0.57422,0 -1.55859,-0.28125 -1.89843,-1.06641 0.375,0.0586 0.72656,-0.15234 0.72656,-0.58594 0,-0.33984 -0.25781,-0.58593 -0.58594,-0.58593 -0.29297,0 -0.59766,0.16406 -0.59766,0.62109 0,1.06641 1.06641,1.93359 2.39063,1.93359 1.41797,0 2.47266,-1.07812 2.47266,-2.28515 0,-1.10156 -0.89063,-1.96875 -2.02735,-2.16797 1.03125,-0.30469 1.69922,-1.17188 1.69922,-2.10938 0,-0.9375 -0.97266,-1.6289 -2.13281,-1.6289 -1.19531,0 -2.08594,0.72656 -2.08594,1.59375 0,0.48047 0.375,0.57422 0.55078,0.57422 0.25781,0 0.53906,-0.17578 0.53906,-0.53907 0,-0.375 -0.28125,-0.53906 -0.55078,-0.53906 -0.0703,0 -0.0937,0 -0.1289,0.0117 0.45703,-0.82031 1.58203,-0.82031 1.64062,-0.82031 0.38672,0 1.17188,0.17578 1.17188,1.34765 0,0.23438 -0.0352,0.90235 -0.38672,1.41797 -0.35156,0.52735 -0.76172,0.5625 -1.08985,0.57422 z m 15.04981,0.42187 c 0.16406,0 0.375,0 0.375,-0.22265 0,-0.22266 -0.19922,-0.22266 -0.375,-0.22266 h -7.04297 c -0.17578,0 -0.38672,0 -0.38672,0.21094 0,0.23437 0.19922,0.23437 0.38672,0.23437 z m 0,2.21485 c 0.16406,0 0.375,0 0.375,-0.21094 0,-0.23438 -0.19922,-0.23438 -0.375,-0.23438 h -7.04297 c -0.17578,0 -0.38672,0 -0.38672,0.22266 0,0.22266 0.19922,0.22266 0.38672,0.22266 z m 0,0"
         style="fill:#000000;fill-opacity:1;fill-rule:nonzero;stroke:none" />
      <path
         id="path8"
         d="m 168.77829,104.93921 c -0.375,0.0703 -0.51563,0.35156 -0.51563,0.58594 0,0.28125 0.22266,0.375 0.38672,0.375 0.36328,0 0.60938,-0.30469 0.60938,-0.63281 0,-0.49219 -0.57422,-0.72657 -1.07813,-0.72657 -0.72656,0 -1.125,0.71485 -1.24218,0.94922 -0.26954,-0.90234 -1.00782,-0.94922 -1.23047,-0.94922 -1.21875,0 -1.86328,1.57032 -1.86328,1.82813 0,0.0469 0.0469,0.10547 0.1289,0.10547 0.10547,0 0.12891,-0.0703 0.15235,-0.11719 0.39843,-1.32422 1.20703,-1.57031 1.54687,-1.57031 0.53906,0 0.64453,0.49218 0.64453,0.78515 0,0.25782 -0.0703,0.53907 -0.21094,1.11328 -0.1875,0.76172 -0.23437,0.9375 -0.41015,1.62891 -0.17578,0.72656 -0.52735,1.38281 -1.16016,1.38281 -0.0586,0 -0.35156,0 -0.60937,-0.15234 0.43359,-0.0937 0.52734,-0.44531 0.52734,-0.58594 0,-0.24609 -0.17578,-0.38672 -0.39844,-0.38672 -0.29297,0 -0.59765,0.2461 -0.59765,0.63282 0,0.5039 0.5625,0.72656 1.0664,0.72656 0.57422,0 0.98438,-0.45703 1.23047,-0.9375 0.19922,0.70312 0.79688,0.9375 1.23047,0.9375 1.23047,0 1.875,-1.5586 1.875,-1.82813 0,-0.0586 -0.0469,-0.10547 -0.12891,-0.10547 -0.10546,0 -0.11718,0.0586 -0.15234,0.15235 -0.31641,1.05469 -1.01953,1.54687 -1.54687,1.54687 -0.42188,0 -0.65625,-0.3164 -0.65625,-0.80859 0,-0.25781 0.0586,-0.44531 0.24609,-1.24219 0.14062,-0.55078 0.29297,-1.18359 0.42187,-1.61719 0.17579,-0.72656 0.58594,-1.24218 1.125,-1.24218 0.0352,0 0.36329,0 0.60938,0.15234 z m 4.13086,6.21094 c -0.31641,0.45703 -0.78516,0.86719 -1.3711,0.86719 -0.14062,0 -0.71484,-0.0234 -0.90234,-0.57422 0.0469,0.0117 0.10547,0.0117 0.12891,0.0117 0.35156,0 0.59765,-0.31641 0.59765,-0.58594 0,-0.28125 -0.23437,-0.375 -0.41015,-0.375 -0.1875,0 -0.60938,0.14062 -0.60938,0.72656 0,0.60938 0.51563,1.03125 1.19531,1.03125 1.19532,0 2.40235,-1.10156 2.74219,-2.42578 l 1.17188,-4.66406 c 0.0117,-0.0586 0.0351,-0.12891 0.0351,-0.19922 0,-0.17578 -0.15234,-0.30469 -0.32812,-0.30469 -0.10547,0 -0.36328,0.0469 -0.45703,0.41016 l -0.87891,3.51562 c -0.0586,0.21094 -0.0586,0.23438 -0.15234,0.375 -0.2461,0.32813 -0.64453,0.73828 -1.20703,0.73828 -0.67969,0 -0.73829,-0.65625 -0.73829,-0.98437 0,-0.67969 0.32813,-1.60547 0.64454,-2.46094 0.14062,-0.35156 0.21093,-0.51562 0.21093,-0.75 0,-0.50391 -0.36328,-0.96094 -0.94922,-0.96094 -1.10156,0 -1.53515,1.73438 -1.53515,1.82813 0,0.0469 0.0469,0.10547 0.1289,0.10547 0.10547,0 0.11719,-0.0469 0.16407,-0.21094 0.29297,-1.00781 0.73828,-1.47656 1.20703,-1.47656 0.10547,0 0.3164,0 0.3164,0.38672 0,0.3164 -0.14062,0.65625 -0.3164,1.11328 -0.58594,1.57031 -0.58594,1.95703 -0.58594,2.25 0,1.13672 0.80859,1.39453 1.40625,1.39453 0.35156,0 0.78516,-0.10547 1.19531,-0.55078 l 0.0117,0.0117 c -0.17578,0.70312 -0.29297,1.17187 -0.71484,1.75781 z m 0,0"
         style="fill:#000000;fill-opacity:1;fill-rule:nonzero;stroke:none" />
      <path
         id="path9"
         d="m 183.33298,107.04859 h 3.30468 c 0.16407,0 0.375,0 0.375,-0.21094 0,-0.22266 -0.19921,-0.22266 -0.375,-0.22266 h -3.30468 v -3.30469 c 0,-0.16406 0,-0.38671 -0.21094,-0.38671 -0.23438,0 -0.23438,0.21093 -0.23438,0.38671 v 3.30469 h -3.29296 c -0.17579,0 -0.38672,0 -0.38672,0.21094 0,0.22266 0.19922,0.22266 0.38672,0.22266 h 3.29296 v 3.30468 c 0,0.16407 0,0.38672 0.22266,0.38672 0.22266,0 0.22266,-0.21094 0.22266,-0.38672 z m 12.24902,0.76171 h -0.26953 c -0.0352,0.19922 -0.12891,0.85547 -0.24609,1.04297 -0.082,0.11719 -0.76172,0.11719 -1.125,0.11719 h -2.21485 c 0.32813,-0.28125 1.05469,-1.04297 1.3711,-1.33594 1.8164,-1.66406 2.48437,-2.28515 2.48437,-3.46875 0,-1.38281 -1.08984,-2.29687 -2.47266,-2.29687 -1.39453,0 -2.20312,1.18359 -2.20312,2.20312 0,0.60938 0.52734,0.60938 0.5625,0.60938 0.24609,0 0.5625,-0.17578 0.5625,-0.5625 0,-0.32813 -0.23438,-0.55078 -0.5625,-0.55078 -0.10547,0 -0.12891,0 -0.16406,0.0117 0.22265,-0.82032 0.86718,-1.3711 1.64062,-1.3711 1.01953,0 1.64063,0.85547 1.64063,1.95703 0,1.00782 -0.58594,1.89844 -1.26563,2.66016 l -2.41406,2.70703 v 0.28125 h 4.35937 z m 0,0"
         style="fill:#000000;fill-opacity:1;fill-rule:nonzero;stroke:none" />
      <path
         id="path10"
         d="m 201.83688,104.93921 c -0.375,0.0703 -0.51562,0.35156 -0.51562,0.58594 0,0.28125 0.22265,0.375 0.38672,0.375 0.36328,0 0.60937,-0.30469 0.60937,-0.63281 0,-0.49219 -0.57422,-0.72657 -1.07812,-0.72657 -0.72657,0 -1.125,0.71485 -1.24219,0.94922 -0.26953,-0.90234 -1.00781,-0.94922 -1.23047,-0.94922 -1.21875,0 -1.86328,1.57032 -1.86328,1.82813 0,0.0469 0.0469,0.10547 0.12891,0.10547 0.10546,0 0.1289,-0.0703 0.15234,-0.11719 0.39844,-1.32422 1.20703,-1.57031 1.54687,-1.57031 0.53907,0 0.64454,0.49218 0.64454,0.78515 0,0.25782 -0.0703,0.53907 -0.21094,1.11328 -0.1875,0.76172 -0.23438,0.9375 -0.41016,1.62891 -0.17578,0.72656 -0.52734,1.38281 -1.16015,1.38281 -0.0586,0 -0.35157,0 -0.60938,-0.15234 0.43359,-0.0937 0.52734,-0.44531 0.52734,-0.58594 0,-0.24609 -0.17578,-0.38672 -0.39843,-0.38672 -0.29297,0 -0.59766,0.2461 -0.59766,0.63282 0,0.5039 0.5625,0.72656 1.06641,0.72656 0.57422,0 0.98437,-0.45703 1.23047,-0.9375 0.19921,0.70312 0.79687,0.9375 1.23046,0.9375 1.23047,0 1.875,-1.5586 1.875,-1.82813 0,-0.0586 -0.0469,-0.10547 -0.1289,-0.10547 -0.10547,0 -0.11719,0.0586 -0.15235,0.15235 -0.3164,1.05469 -1.01953,1.54687 -1.54687,1.54687 -0.42188,0 -0.65625,-0.3164 -0.65625,-0.80859 0,-0.25781 0.0586,-0.44531 0.24609,-1.24219 0.14063,-0.55078 0.29297,-1.18359 0.42188,-1.61719 0.17578,-0.72656 0.58594,-1.24218 1.125,-1.24218 0.0352,0 0.36328,0 0.60937,0.15234 z m 0,0"
         style="fill:#000000;fill-opacity:1;fill-rule:nonzero;stroke:none" />
      <path
         id="path11"
         d="m 210.25388,107.04859 h 3.30468 c 0.16407,0 0.375,0 0.375,-0.21094 0,-0.22266 -0.19922,-0.22266 -0.375,-0.22266 h -3.30468 v -3.30469 c 0,-0.16406 0,-0.38671 -0.21094,-0.38671 -0.23438,0 -0.23438,0.21093 -0.23438,0.38671 v 3.30469 h -3.29297 c -0.17578,0 -0.38671,0 -0.38671,0.21094 0,0.22266 0.19921,0.22266 0.38671,0.22266 h 3.29297 v 3.30468 c 0,0.16407 0,0.38672 0.22266,0.38672 0.22266,0 0.22266,-0.21094 0.22266,-0.38672 z m 12.25195,0.76171 h -0.26953 c -0.0352,0.19922 -0.12891,0.85547 -0.2461,1.04297 -0.082,0.11719 -0.76172,0.11719 -1.125,0.11719 h -2.21484 c 0.32812,-0.28125 1.05469,-1.04297 1.37109,-1.33594 1.81641,-1.66406 2.48438,-2.28515 2.48438,-3.46875 0,-1.38281 -1.08985,-2.29687 -2.47266,-2.29687 -1.39453,0 -2.20312,1.18359 -2.20312,2.20312 0,0.60938 0.52734,0.60938 0.5625,0.60938 0.24609,0 0.5625,-0.17578 0.5625,-0.5625 0,-0.32813 -0.23438,-0.55078 -0.5625,-0.55078 -0.10547,0 -0.12891,0 -0.16407,0.0117 0.22266,-0.82032 0.86719,-1.3711 1.64063,-1.3711 1.01953,0 1.64062,0.85547 1.64062,1.95703 0,1.00782 -0.58593,1.89844 -1.26562,2.66016 l -2.41406,2.70703 v 0.28125 h 4.35937 z m 0,0"
         style="fill:#000000;fill-opacity:1;fill-rule:nonzero;stroke:none" />
      <path
         id="path12"
         d="m 226.23825,111.15015 c -0.31641,0.45703 -0.78516,0.86719 -1.37109,0.86719 -0.14063,0 -0.71485,-0.0234 -0.90235,-0.57422 0.0469,0.0117 0.10547,0.0117 0.12891,0.0117 0.35156,0 0.59766,-0.31641 0.59766,-0.58594 0,-0.28125 -0.23438,-0.375 -0.41016,-0.375 -0.1875,0 -0.60938,0.14062 -0.60938,0.72656 0,0.60938 0.51563,1.03125 1.19532,1.03125 1.19531,0 2.40234,-1.10156 2.74218,-2.42578 l 1.17188,-4.66406 c 0.0117,-0.0586 0.0352,-0.12891 0.0352,-0.19922 0,-0.17578 -0.15235,-0.30469 -0.32813,-0.30469 -0.10547,0 -0.36328,0.0469 -0.45703,0.41016 l -0.87891,3.51562 c -0.0586,0.21094 -0.0586,0.23438 -0.15234,0.375 -0.24609,0.32813 -0.64453,0.73828 -1.20703,0.73828 -0.67969,0 -0.73828,-0.65625 -0.73828,-0.98437 0,-0.67969 0.32812,-1.60547 0.64453,-2.46094 0.14062,-0.35156 0.21094,-0.51562 0.21094,-0.75 0,-0.50391 -0.36329,-0.96094 -0.94922,-0.96094 -1.10157,0 -1.53516,1.73438 -1.53516,1.82813 0,0.0469 0.0469,0.10547 0.12891,0.10547 0.10547,0 0.11718,-0.0469 0.16406,-0.21094 0.29297,-1.00781 0.73828,-1.47656 1.20703,-1.47656 0.10547,0 0.31641,0 0.31641,0.38672 0,0.3164 -0.14063,0.65625 -0.31641,1.11328 -0.58594,1.57031 -0.58594,1.95703 -0.58594,2.25 0,1.13672 0.8086,1.39453 1.40625,1.39453 0.35157,0 0.78516,-0.10547 1.19532,-0.55078 l 0.0117,0.0117 c -0.17578,0.70312 -0.29296,1.17187 -0.71484,1.75781 z m 0,0"
         style="fill:#000000;fill-opacity:1;fill-rule:nonzero;stroke:none" />
      <path
         id="path13"
         d="m -87.100617,145.21363 c 0,-0.26954 0,-0.28125 -0.246094,-0.28125 -0.28125,0.3164 -0.878906,0.76171 -2.109375,0.76171 v 0.35157 c 0.269531,0 0.867188,0 1.523438,-0.31641 v 6.22266 c 0,0.43359 -0.03516,0.57422 -1.078125,0.57422 h -0.375 v 0.35156 c 0.316406,-0.0234 1.476562,-0.0234 1.875,-0.0234 0.398437,0 1.546875,0 1.863281,0.0234 v -0.35156 h -0.363281 c -1.054688,0 -1.089844,-0.14063 -1.089844,-0.57422 z m 7.669922,5.66015 h -0.269532 c -0.03516,0.19922 -0.128906,0.85547 -0.246093,1.04297 -0.08203,0.11719 -0.761719,0.11719 -1.125,0.11719 h -2.214844 c 0.328125,-0.28125 1.054687,-1.04297 1.371094,-1.33594 1.816406,-1.66406 2.484375,-2.28516 2.484375,-3.46875 0,-1.38281 -1.089844,-2.29687 -2.472657,-2.29687 -1.394531,0 -2.203125,1.18359 -2.203125,2.20312 0,0.60938 0.527344,0.60938 0.5625,0.60938 0.246094,0 0.5625,-0.17579 0.5625,-0.5625 0,-0.32813 -0.234375,-0.55079 -0.5625,-0.55079 -0.105468,0 -0.128906,0 -0.164062,0.0117 0.222656,-0.82031 0.867187,-1.37109 1.640625,-1.37109 1.019531,0 1.640625,0.85547 1.640625,1.95703 0,1.00781 -0.585938,1.89844 -1.265625,2.66016 l -2.414063,2.70703 v 0.28125 h 4.359375 z m 2.794922,-2.28515 c -0.210938,0.0117 -0.257813,0.0234 -0.257813,0.1289 0,0.11719 0.05859,0.11719 0.28125,0.11719 h 0.550781 c 1.007813,0 1.464844,0.84375 1.464844,1.99219 0,1.55859 -0.808594,1.98047 -1.394531,1.98047 -0.574219,0 -1.558594,-0.28125 -1.898438,-1.06641 0.375,0.0586 0.726563,-0.15234 0.726563,-0.58594 0,-0.33984 -0.257813,-0.58594 -0.585938,-0.58594 -0.292968,0 -0.597656,0.16407 -0.597656,0.6211 0,1.0664 1.066406,1.93359 2.390625,1.93359 1.417969,0 2.472656,-1.07812 2.472656,-2.28515 0,-1.10157 -0.890625,-1.96875 -2.027343,-2.16797 1.03125,-0.30469 1.699218,-1.17188 1.699218,-2.10938 0,-0.9375 -0.972656,-1.6289 -2.132812,-1.6289 -1.195313,0 -2.085938,0.72656 -2.085938,1.59375 0,0.48046 0.375,0.57421 0.550782,0.57421 0.257812,0 0.539062,-0.17578 0.539062,-0.53906 0,-0.375 -0.28125,-0.53906 -0.550781,-0.53906 -0.07031,0 -0.09375,0 -0.128906,0.0117 0.457031,-0.82031 1.582031,-0.82031 1.640625,-0.82031 0.386718,0 1.171875,0.17578 1.171875,1.34765 0,0.23438 -0.03516,0.90235 -0.386719,1.41797 -0.351563,0.52734 -0.761719,0.5625 -1.089844,0.57422 z m 7.96289,-3.49219 c 0,-0.22266 0,-0.29297 -0.164062,-0.29297 -0.09375,0 -0.128907,0 -0.222657,0.15234 l -3.597656,5.57813 v 0.35156 h 3.140625 v 1.07813 c 0,0.44531 -0.02344,0.5625 -0.902344,0.5625 h -0.234375 v 0.35156 c 0.269532,-0.0234 1.21875,-0.0234 1.558594,-0.0234 0.328125,0 1.289063,0 1.558594,0.0234 v -0.35156 h -0.234375 c -0.867188,0 -0.902344,-0.11719 -0.902344,-0.5625 v -1.07813 h 1.207031 v -0.35156 h -1.207031 z m -0.785156,0.9375 v 4.5 h -2.90625 z m 3.861328,0 c 0.503906,0.16406 0.925781,0.17578 1.054688,0.17578 1.359375,0 2.214843,-0.99609 2.214843,-1.16016 0,-0.0469 -0.02344,-0.10547 -0.09375,-0.10547 -0.02344,0 -0.04687,0 -0.152343,0.0469 -0.667969,0.28125 -1.242188,0.31641 -1.558594,0.31641 -0.785156,0 -1.347656,-0.23438 -1.582031,-0.32813 -0.08203,-0.0352 -0.105469,-0.0352 -0.117188,-0.0352 -0.09375,0 -0.09375,0.0703 -0.09375,0.25782 v 3.55078 c 0,0.21094 0,0.29297 0.140625,0.29297 0.05859,0 0.07031,-0.0117 0.199219,-0.16407 0.328125,-0.49218 0.890625,-0.77343 1.488281,-0.77343 0.632813,0 0.949219,0.58593 1.042969,0.78515 0.199219,0.46875 0.210937,1.05469 0.210937,1.51172 0,0.45703 0,1.13672 -0.328125,1.67578 -0.269531,0.42188 -0.738281,0.72657 -1.253906,0.72657 -0.796875,0 -1.570312,-0.53907 -1.78125,-1.40625 0.05859,0.0234 0.128906,0.0352 0.1875,0.0352 0.199219,0 0.527344,-0.1289 0.527344,-0.52734 0,-0.33985 -0.234375,-0.52735 -0.527344,-0.52735 -0.210937,0 -0.527344,0.10547 -0.527344,0.57422 0,1.00782 0.808594,2.16797 2.144532,2.16797 1.347656,0 2.53125,-1.125 2.53125,-2.64844 0,-1.41796 -0.960938,-2.60156 -2.214844,-2.60156 -0.679688,0 -1.207031,0.29297 -1.511719,0.63281 z m 5.783203,2.68359 c 0,-3.02344 1.476563,-3.5039 2.121094,-3.5039 0.433594,0 0.855469,0.1289 1.089844,0.49218 -0.140625,0 -0.597657,0 -0.597657,0.49219 0,0.25781 0.175782,0.49219 0.492188,0.49219 0.292969,0 0.492187,-0.1875 0.492187,-0.52735 0,-0.62109 -0.445312,-1.23046 -1.488281,-1.23046 -1.511719,0 -3.082031,1.53515 -3.082031,4.17187 0,3.28125 1.429687,4.01953 2.449219,4.01953 1.300781,0 2.414062,-1.125 2.414062,-2.68359 0,-1.59375 -1.113281,-2.66016 -2.308594,-2.66016 -1.066406,0 -1.453125,0.92578 -1.582031,1.26563 z m 1.476563,4.08985 c -0.75,0 -1.113282,-0.66797 -1.21875,-0.92579 -0.105469,-0.30468 -0.222657,-0.89062 -0.222657,-1.73437 0,-0.9375 0.421875,-2.12109 1.5,-2.12109 0.65625,0 1.007813,0.44531 1.183594,0.84375 0.1875,0.44531 0.1875,1.04296 0.1875,1.55859 0,0.60937 0,1.14844 -0.222656,1.60547 -0.304688,0.57422 -0.726563,0.77344 -1.207031,0.77344 z m 8.592773,-7.34766 v -0.28125 h -2.882812 c -1.453125,0 -1.476563,-0.15234 -1.523438,-0.38672 h -0.257812 l -0.375,2.39063 h 0.269531 c 0.03516,-0.21094 0.140625,-0.94922 0.292969,-1.07813 0.09375,-0.0703 0.996093,-0.0703 1.160156,-0.0703 h 2.53125 l -1.265625,1.8164 c -0.316406,0.45704 -1.523438,2.42579 -1.523438,4.66407 0,0.14062 0,0.60937 0.480469,0.60937 0.503906,0 0.503906,-0.45703 0.503906,-0.62109 v -0.59766 c 0,-1.78125 0.292969,-3.16406 0.855469,-3.96094 z m 3.732422,3.10547 c 0.597656,-0.32813 1.464844,-0.87891 1.464844,-1.875 0,-1.04297 -0.996094,-1.75781 -2.097656,-1.75781 -1.183594,0 -2.121094,0.86718 -2.121094,1.95703 0,0.41015 0.128906,0.80859 0.457031,1.21875 0.128906,0.15234 0.140625,0.16406 0.984375,0.75 -1.160156,0.53906 -1.757812,1.34765 -1.757812,2.21484 0,1.26563 1.207031,2.05078 2.425781,2.05078 1.324219,0 2.4375,-0.97265 2.4375,-2.22656 0,-1.21875 -0.855469,-1.75781 -1.792969,-2.33203 z m -1.628906,-1.07813 c -0.152344,-0.10547 -0.632813,-0.42187 -0.632813,-1.00781 0,-0.77344 0.820313,-1.26562 1.617188,-1.26562 0.855469,0 1.628906,0.62109 1.628906,1.48828 0,0.72656 -0.527344,1.3125 -1.21875,1.6875 z m 0.5625,1.54688 c 0.328125,0.21094 1.125,0.72656 1.453125,0.9375 0.304687,0.19922 0.855469,0.57422 0.855469,1.30078 0,0.91406 -0.914063,1.53516 -1.875,1.53516 -1.019532,0 -1.886719,-0.73829 -1.886719,-1.73438 0,-0.9375 0.679687,-1.6875 1.453125,-2.03906 z m 7.728515,0.36328 c 0,2.82422 -1.253906,3.41016 -1.96875,3.41016 -0.28125,0 -0.925781,-0.0352 -1.21875,-0.45704 h 0.07031 c 0.08203,0.0234 0.515625,-0.0469 0.515625,-0.49218 0,-0.25782 -0.175781,-0.49219 -0.492188,-0.49219 -0.304687,0 -0.503906,0.21094 -0.503906,0.51562 0,0.75 0.597656,1.24219 1.640625,1.24219 1.5,0 2.941406,-1.58203 2.941406,-4.18359 0,-3.21094 -1.335937,-4.00781 -2.390625,-4.00781 -1.3125,0 -2.472656,1.10156 -2.472656,2.67187 0,1.58203 1.113281,2.66016 2.308594,2.66016 0.878906,0 1.335937,-0.64453 1.570312,-1.25391 z m -1.523437,0.62109 c -0.75,0 -1.078125,-0.60937 -1.183594,-0.83203 -0.199219,-0.45703 -0.199219,-1.03125 -0.199219,-1.57031 0,-0.66797 0,-1.24219 0.316407,-1.73438 0.210937,-0.3164 0.539062,-0.66796 1.183593,-0.66796 0.679688,0 1.03125,0.59765 1.148438,0.8789 0.234375,0.58594 0.234375,1.59375 0.234375,1.78125 0,0.9961 -0.445313,2.14453 -1.5,2.14453 z m 0,0"
         style="fill:#000000;fill-opacity:1;fill-rule:nonzero;stroke:none" />
      <path
         id="path14"
         d="m 138.4736,217.4187 v -0.28125 h -2.88281 c -1.45313,0 -1.47656,-0.15234 -1.52344,-0.38672 h -0.25781 l -0.375,2.39063 h 0.26953 c 0.0352,-0.21094 0.14063,-0.94922 0.29297,-1.07813 0.0937,-0.0703 0.99609,-0.0703 1.16016,-0.0703 h 2.53125 l -1.26563,1.81641 c -0.31641,0.45703 -1.52344,2.42578 -1.52344,4.66406 0,0.14063 0,0.60938 0.48047,0.60938 0.50391,0 0.50391,-0.45704 0.50391,-0.6211 v -0.59765 c 0,-1.78125 0.29297,-3.16407 0.85547,-3.96094 z m 0,0"
         style="fill:#000000;fill-opacity:1;fill-rule:nonzero;stroke:none" />
      <path
         id="path15"
         d="m -114.87112,269.42359 c -0.082,0.35156 -0.12891,0.44531 -0.6211,0.44531 -0.14062,0 -0.26953,0 -0.26953,0.23437 0,0.0234 0.0117,0.11719 0.15234,0.11719 0.15235,0 0.31641,-0.0234 0.46875,-0.0234 h 0.51563 c 0.25781,0 0.86719,0.0234 1.11328,0.0234 0.0703,0 0.22266,0 0.22266,-0.21094 0,-0.14062 -0.0937,-0.14062 -0.29297,-0.14062 -0.55078,0 -0.58594,-0.082 -0.58594,-0.17578 0,-0.14063 0.53906,-2.20313 0.60938,-2.47266 0.1289,0.32813 0.45703,0.79688 1.07812,0.79688 1.34766,0 2.8125,-1.75782 2.8125,-3.51563 0,-1.10156 -0.62109,-1.875 -1.52344,-1.875 -0.76172,0 -1.40625,0.73828 -1.54687,0.91406 -0.0937,-0.59765 -0.55078,-0.91406 -1.03125,-0.91406 -0.35156,0 -0.6211,0.16406 -0.85547,0.62109 -0.21094,0.4336 -0.375,1.16016 -0.375,1.20704 0,0.0469 0.0469,0.10546 0.12891,0.10546 0.0937,0 0.10546,-0.0117 0.17578,-0.28125 0.17578,-0.70312 0.41015,-1.40625 0.89062,-1.40625 0.26953,0 0.36328,0.1875 0.36328,0.53907 0,0.29297 -0.0352,0.41015 -0.082,0.63281 z m 2.0625,-5.25 c 0.082,-0.33985 0.42187,-0.67969 0.60937,-0.85547 0.14063,-0.11719 0.52734,-0.44532 0.98438,-0.44532 0.52734,0 0.76171,0.51563 0.76171,1.13672 0,0.57422 -0.32812,1.9336 -0.63281,2.55469 -0.29297,0.64453 -0.84375,1.21875 -1.39453,1.21875 -0.80859,0 -0.94922,-1.03125 -0.94922,-1.07812 0,-0.0352 0.0234,-0.12891 0.0352,-0.1875 z m 0,0"
         style="fill:#000000;fill-opacity:1;fill-rule:nonzero;stroke:none" />
      <path
         id="path16"
         d="m -92.532258,262.7439 c 0,-0.0586 -0.04687,-0.10547 -0.105469,-0.10547 -0.105468,0 -0.5625,0.43359 -0.796875,0.85547 -0.210937,-0.53906 -0.585937,-0.86719 -1.101562,-0.86719 -1.347656,0 -2.800781,1.74609 -2.800781,3.51563 0,1.18359 0.691406,1.875 1.5,1.875 0.632812,0 1.160156,-0.48047 1.417968,-0.75 l 0.01172,0.0117 c -0.152344,0.58594 -0.304687,1.1836 -0.457031,1.79297 l -0.105469,0.4336 c -0.105469,0.35156 -0.292969,0.35156 -0.855469,0.36328 -0.128906,0 -0.246093,0 -0.246093,0.23437 0,0.082 0.07031,0.11719 0.152343,0.11719 0.164063,0 0.386719,-0.0234 0.550782,-0.0234 h 1.21875 c 0.175781,0 0.386718,0.0234 0.5625,0.0234 0.07031,0 0.210937,0 0.210937,-0.22266 0,-0.1289 -0.09375,-0.1289 -0.269531,-0.1289 -0.5625,0 -0.597656,-0.082 -0.597656,-0.17578 0,-0.0586 0.01172,-0.0703 0.04687,-0.22266 z m -1.6875,3.73828 c -0.05859,0.19922 -0.05859,0.22266 -0.222656,0.44531 -0.269531,0.33985 -0.796875,0.85547 -1.359375,0.85547 -0.480469,0 -0.761719,-0.44531 -0.761719,-1.14844 0,-0.65625 0.375,-1.99218 0.597656,-2.49609 0.410157,-0.84375 0.972657,-1.26563 1.429688,-1.26563 0.796875,0 0.949219,0.97266 0.949219,1.06641 0,0.0117 -0.03516,0.17578 -0.04687,0.19922 z m 0,0"
         style="fill:#000000;fill-opacity:1;fill-rule:nonzero;stroke:none" />
      <path
         id="path17"
         d="m 179.40427,262.7439 c 0,-0.0586 -0.0469,-0.10547 -0.10547,-0.10547 -0.10547,0 -0.5625,0.43359 -0.79688,0.85547 -0.21094,-0.53906 -0.58594,-0.86719 -1.10156,-0.86719 -1.34766,0 -2.80078,1.74609 -2.80078,3.51563 0,1.18359 0.6914,1.875 1.5,1.875 0.63281,0 1.16015,-0.48047 1.41797,-0.75 l 0.0117,0.0117 c -0.15235,0.58594 -0.30469,1.1836 -0.45704,1.79297 l -0.10546,0.4336 c -0.10547,0.35156 -0.29297,0.35156 -0.85547,0.36328 -0.12891,0 -0.2461,0 -0.2461,0.23437 0,0.082 0.0703,0.11719 0.15235,0.11719 0.16406,0 0.38672,-0.0234 0.55078,-0.0234 h 1.21875 c 0.17578,0 0.38672,0.0234 0.5625,0.0234 0.0703,0 0.21094,0 0.21094,-0.22266 0,-0.1289 -0.0937,-0.1289 -0.26954,-0.1289 -0.5625,0 -0.59765,-0.082 -0.59765,-0.17578 0,-0.0586 0.0117,-0.0703 0.0469,-0.22266 z m -1.6875,3.73828 c -0.0586,0.19922 -0.0586,0.22266 -0.22266,0.44531 -0.26953,0.33985 -0.79688,0.85547 -1.35938,0.85547 -0.48046,0 -0.76171,-0.44531 -0.76171,-1.14844 0,-0.65625 0.375,-1.99218 0.59765,-2.49609 0.41016,-0.84375 0.97266,-1.26563 1.42969,-1.26563 0.79687,0 0.94922,0.97266 0.94922,1.06641 0,0.0117 -0.0352,0.17578 -0.0469,0.19922 z m 13.78418,-1.3125 c 0.23437,-0.10547 0.24609,-0.17578 0.24609,-0.25781 0,-0.0703 -0.0234,-0.15235 -0.24609,-0.2461 l -6.46875,-2.97656 c -0.15235,-0.082 -0.17579,-0.0937 -0.19922,-0.0937 -0.14063,0 -0.22266,0.12891 -0.22266,0.22266 0,0.14062 0.0937,0.1875 0.24609,0.25781 l 6.14063,2.83594 -6.15234,2.84765 c -0.23438,0.10547 -0.23438,0.1875 -0.23438,0.25782 0,0.0937 0.082,0.22265 0.22266,0.22265 0.0234,0 0.0352,-0.0117 0.19922,-0.0937 z m 5.61914,4.25391 c -0.082,0.35156 -0.12891,0.44531 -0.6211,0.44531 -0.14062,0 -0.26953,0 -0.26953,0.23437 0,0.0234 0.0117,0.11719 0.15234,0.11719 0.15235,0 0.31641,-0.0234 0.46875,-0.0234 h 0.51563 c 0.25781,0 0.86719,0.0234 1.11328,0.0234 0.0703,0 0.22266,0 0.22266,-0.21094 0,-0.14062 -0.0937,-0.14062 -0.29297,-0.14062 -0.55078,0 -0.58594,-0.082 -0.58594,-0.17578 0,-0.14063 0.53906,-2.20313 0.60938,-2.47266 0.1289,0.32813 0.45703,0.79688 1.07812,0.79688 1.34766,0 2.8125,-1.75782 2.8125,-3.51563 0,-1.10156 -0.62109,-1.875 -1.52344,-1.875 -0.76172,0 -1.40625,0.73828 -1.54687,0.91406 -0.0937,-0.59765 -0.55078,-0.91406 -1.03125,-0.91406 -0.35156,0 -0.6211,0.16406 -0.85547,0.62109 -0.21094,0.4336 -0.375,1.16016 -0.375,1.20704 0,0.0469 0.0469,0.10546 0.12891,0.10546 0.0937,0 0.10546,-0.0117 0.17578,-0.28125 0.17578,-0.70312 0.41015,-1.40625 0.89062,-1.40625 0.26953,0 0.36328,0.1875 0.36328,0.53907 0,0.29297 -0.0351,0.41015 -0.082,0.63281 z m 2.0625,-5.25 c 0.082,-0.33985 0.42187,-0.67969 0.60937,-0.85547 0.14063,-0.11719 0.52734,-0.44532 0.98438,-0.44532 0.52734,0 0.76171,0.51563 0.76171,1.13672 0,0.57422 -0.32812,1.9336 -0.63281,2.55469 -0.29297,0.64453 -0.84375,1.21875 -1.39453,1.21875 -0.80859,0 -0.94922,-1.03125 -0.94922,-1.07812 0,-0.0352 0.0234,-0.12891 0.0352,-0.1875 z m 0,0"
         style="fill:#000000;fill-opacity:1;fill-rule:nonzero;stroke:none" />
      <path
         id="path18"
         d="m 296.29587,269.42359 c -0.082,0.35156 -0.12891,0.44531 -0.6211,0.44531 -0.14062,0 -0.26953,0 -0.26953,0.23437 0,0.0234 0.0117,0.11719 0.15235,0.11719 0.15234,0 0.3164,-0.0234 0.46875,-0.0234 h 0.51562 c 0.25781,0 0.86719,0.0234 1.11328,0.0234 0.0703,0 0.22266,0 0.22266,-0.21094 0,-0.14062 -0.0937,-0.14062 -0.29297,-0.14062 -0.55078,0 -0.58594,-0.082 -0.58594,-0.17578 0,-0.14063 0.53906,-2.20313 0.60938,-2.47266 0.1289,0.32813 0.45703,0.79688 1.07812,0.79688 1.34766,0 2.8125,-1.75782 2.8125,-3.51563 0,-1.10156 -0.62109,-1.875 -1.52344,-1.875 -0.76171,0 -1.40625,0.73828 -1.54687,0.91406 -0.0937,-0.59765 -0.55078,-0.91406 -1.03125,-0.91406 -0.35156,0 -0.62109,0.16406 -0.85547,0.62109 -0.21094,0.4336 -0.375,1.16016 -0.375,1.20704 0,0.0469 0.0469,0.10546 0.12891,0.10546 0.0937,0 0.10547,-0.0117 0.17578,-0.28125 0.17578,-0.70312 0.41015,-1.40625 0.89062,-1.40625 0.26953,0 0.36328,0.1875 0.36328,0.53907 0,0.29297 -0.0351,0.41015 -0.082,0.63281 z m 2.0625,-5.25 c 0.082,-0.33985 0.42187,-0.67969 0.60937,-0.85547 0.14063,-0.11719 0.52735,-0.44532 0.98438,-0.44532 0.52734,0 0.76172,0.51563 0.76172,1.13672 0,0.57422 -0.32813,1.9336 -0.63282,2.55469 -0.29297,0.64453 -0.84375,1.21875 -1.39453,1.21875 -0.80859,0 -0.94922,-1.03125 -0.94922,-1.07812 0,-0.0352 0.0234,-0.12891 0.0352,-0.1875 z m 0,0"
         style="fill:#000000;fill-opacity:1;fill-rule:nonzero;stroke:none" />
      <path
         id="path19"
         d="m 318.63473,262.7439 c 0,-0.0586 -0.0469,-0.10547 -0.10546,-0.10547 -0.10547,0 -0.5625,0.43359 -0.79688,0.85547 -0.21094,-0.53906 -0.58594,-0.86719 -1.10156,-0.86719 -1.34766,0 -2.80078,1.74609 -2.80078,3.51563 0,1.18359 0.6914,1.875 1.5,1.875 0.63281,0 1.16015,-0.48047 1.41797,-0.75 l 0.0117,0.0117 c -0.15234,0.58594 -0.30468,1.1836 -0.45703,1.79297 l -0.10547,0.4336 c -0.10546,0.35156 -0.29296,0.35156 -0.85546,0.36328 -0.12891,0 -0.2461,0 -0.2461,0.23437 0,0.082 0.0703,0.11719 0.15235,0.11719 0.16406,0 0.38671,-0.0234 0.55078,-0.0234 h 1.21875 c 0.17578,0 0.38672,0.0234 0.5625,0.0234 0.0703,0 0.21093,0 0.21093,-0.22266 0,-0.1289 -0.0937,-0.1289 -0.26953,-0.1289 -0.5625,0 -0.59765,-0.082 -0.59765,-0.17578 0,-0.0586 0.0117,-0.0703 0.0469,-0.22266 z m -1.6875,3.73828 c -0.0586,0.19922 -0.0586,0.22266 -0.22265,0.44531 -0.26953,0.33985 -0.79688,0.85547 -1.35938,0.85547 -0.48047,0 -0.76172,-0.44531 -0.76172,-1.14844 0,-0.65625 0.375,-1.99218 0.59766,-2.49609 0.41016,-0.84375 0.97266,-1.26563 1.42969,-1.26563 0.79687,0 0.94922,0.97266 0.94922,1.06641 0,0.0117 -0.0352,0.17578 -0.0469,0.19922 z m 0,0"
         style="fill:#000000;fill-opacity:1;fill-rule:nonzero;stroke:none" />
      <path
         id="path20"
         d="m 106.95895,274.73218 h 0.91407 c -0.16407,0.72656 -0.30469,1.3125 -0.30469,1.89844 0,0.0586 0,0.39843 0.082,0.6914 0.10547,0.32813 0.1875,0.39844 0.32812,0.39844 0.17579,0 0.36329,-0.15234 0.36329,-0.33984 0,-0.0586 -0.0117,-0.082 -0.0469,-0.15235 -0.16406,-0.36328 -0.28125,-0.75 -0.28125,-1.39453 0,-0.1875 0,-0.52734 0.11719,-1.10156 h 0.96094 c 0.1289,0 0.22265,0 0.30468,-0.0703 0.0937,-0.082 0.11719,-0.1875 0.11719,-0.23438 0,-0.22265 -0.19922,-0.22265 -0.33984,-0.22265 h -2.8711 c -0.17578,0 -0.46875,0 -0.86718,0.38671 -0.28125,0.28125 -0.50391,0.64454 -0.50391,0.70313 0,0.0703 0.0469,0.0937 0.11719,0.0937 0.082,0 0.0937,-0.0234 0.14062,-0.082 0.38672,-0.57422 0.86719,-0.57422 1.04297,-0.57422 h 0.46875 c -0.23437,0.84375 -0.65625,1.80469 -0.94922,2.39062 -0.0586,0.11719 -0.14062,0.28125 -0.14062,0.35157 0,0.16406 0.14062,0.24609 0.26953,0.24609 0.29297,0 0.375,-0.30469 0.55078,-0.96094 z m 0,0"
         style="fill:#000000;fill-opacity:1;fill-rule:nonzero;stroke:none" />
    </g>
    <path
       id="path21"
       d="M 0,0 H 5.149"
       style="fill:none;stroke:#000000;stroke-width:0.398;stroke-linecap:butt;stroke-linejoin:miter;stroke-miterlimit:10;stroke-dasharray:none;stroke-opacity:1"
       transform="matrix(1.3333333,0,0,-1.3333333,414.31867,428.54667)" />
    <g
       id="g21"
       aria-label="6&#10;,to&#10;p"
       transform="matrix(1.3333333,0,0,1.3333333,414.92933,438.028)">
      <path
         id="path22"
         d="m 1.1018281,-2.6372109 c 0,-0.6679688 0.058594,-1.2421875 0.3398438,-1.734375 0.234375,-0.3984375 0.6445312,-0.7265625 1.1484375,-0.7265625 0.1640625,0 0.5273437,0.035156 0.7148437,0.3046875 -0.3632812,0.023437 -0.3984375,0.2929687 -0.3984375,0.375 0,0.2460937 0.1875,0.375 0.375,0.375 0.140625,0 0.375,-0.082031 0.375,-0.3867188 0,-0.4804687 -0.3515625,-0.8671875 -1.078125,-0.8671875 -1.1015625,0 -2.22656248,1.0546875 -2.22656248,2.765625 0,2.16796876 1.00781248,2.69531251 1.78124998,2.69531251 0.375,0 0.796875,-0.10546875 1.1484375,-0.4453125 0.3164063,-0.3046875 0.5859375,-0.64453125 0.5859375,-1.33593751 0,-1.0429687 -0.7851562,-1.78125 -1.6640625,-1.78125 -0.5742187,0 -0.9257812,0.375 -1.1015625,0.7617188 z m 1.03125,2.56640621 c -0.421875,0 -0.6914062,-0.29296875 -0.8085937,-0.515625 -0.1875,-0.36328125 -0.1992188,-0.90234371 -0.1992188,-1.20703121 0,-0.7851563 0.4335938,-1.3828125 1.0429688,-1.3828125 0.3984375,0 0.6328125,0.2109375 0.7851562,0.4921875 0.1757813,0.2929687 0.1757813,0.65625 0.1757813,1.0546875 0,0.4101562 0,0.76171871 -0.1640625,1.04296871 -0.2109375,0.375 -0.4921875,0.515625 -0.8320313,0.515625 z m 0,0"
         style="fill:#000000;fill-opacity:1;fill-rule:nonzero;stroke:none" />
      <path
         id="path23"
         d="m 28.948508,-8.2973672 c -0.05859,0.2578125 -0.07031,0.3164063 -0.398438,0.3164063 -0.105468,0 -0.199218,0 -0.199218,0.1523437 0,0.082031 0.07031,0.1171875 0.105468,0.1171875 0.08203,0 0.117188,-0.023437 0.703125,-0.023437 0.574219,0 0.738282,0.023437 0.796875,0.023437 0.03516,0 0.152344,0 0.152344,-0.1523437 0,-0.1171875 -0.117187,-0.1171875 -0.210937,-0.1171875 -0.375,0 -0.375,-0.046875 -0.375,-0.1171875 0,-0.046875 0.140625,-0.6210938 0.375,-1.546875 0.105468,0.1757812 0.351562,0.46875 0.785156,0.46875 0.984375,0 2.003906,-1.1367186 2.003906,-2.2851566 0,-0.796875 -0.515625,-1.3125 -1.148437,-1.3125 -0.480469,0 -0.867188,0.328125 -1.089844,0.5625 -0.175781,-0.5625 -0.703125,-0.5625 -0.785156,-0.5625 -0.292969,0 -0.492188,0.1875 -0.609375,0.433594 -0.1875,0.351563 -0.28125,0.761719 -0.28125,0.785156 0,0.07031 0.05859,0.105469 0.128906,0.105469 0.09375,0 0.105469,-0.03516 0.164062,-0.234375 0.105469,-0.410156 0.246094,-0.867187 0.574219,-0.867187 0.199219,0 0.257813,0.1875 0.257813,0.375 0,0.08203 -0.03516,0.269531 -0.04687,0.339843 z m 1.464844,-3.4101558 c 0.04687,-0.140625 0.04687,-0.152344 0.164062,-0.304688 0.304688,-0.351562 0.644531,-0.539062 0.9375,-0.539062 0.398438,0 0.550781,0.386718 0.550781,0.75 0,0.292968 -0.175781,1.148437 -0.421875,1.617187 -0.199218,0.4335938 -0.585937,0.7851563 -0.960937,0.7851563 -0.539063,0 -0.667969,-0.6210933 -0.667969,-0.6796873 0,-0.01172 0.01172,-0.105469 0.02344,-0.128906 z m 0,0"
         style="fill:#000000;fill-opacity:1;fill-rule:nonzero;stroke:none" />
    </g>
    <path
       id="path24"
       d="M 0,0 H 4.263"
       style="fill:none;stroke:#000000;stroke-width:0.398;stroke-linecap:butt;stroke-linejoin:miter;stroke-miterlimit:10;stroke-dasharray:none;stroke-opacity:1"
       transform="matrix(1.3333333,0,0,-1.3333333,452.98,428.54667)" />
    <g
       id="g24"
       aria-label="q&#10;=2−&#10;√"
       transform="matrix(1.3333333,0,0,1.3333333,453.11067,438.028)">
      <path
         id="path25"
         d="m 3.7959063,-3.2817422 c 0,-0.035156 0.011719,-0.082031 0.011719,-0.1171875 0,-0.046875 -0.035156,-0.1171875 -0.1054687,-0.1171875 -0.09375,0 -0.421875,0.3164063 -0.5507813,0.5390625 -0.082031,-0.1757812 -0.328125,-0.5390625 -0.8203125,-0.5390625 -0.9492187,0 -1.9921875,1.1132813 -1.9921875,2.2851563 0,0.83203121 0.5390625,1.31249996 1.1484375,1.31249996 0.3984375,0 0.7265625,-0.234375 0.9609375,-0.4453125 0,0.0234375 -0.2460937,1.03125 -0.28125,1.171875 C 2.0498125,1.2651328 2.0498125,1.2768516 1.5459063,1.2768516 c -0.09375,0 -0.1992188,0 -0.1992188,0.1523437 0,0.046875 0.035156,0.1171875 0.1171875,0.1171875 0.1054688,0 0.2929688,-0.011719 0.3867188,-0.023437 h 0.421875 c 0.6445312,0 0.7851562,0.023437 0.8554687,0.023437 0.023437,0 0.140625,0 0.140625,-0.1523437 0,-0.1171875 -0.1054687,-0.1171875 -0.1992187,-0.1171875 -0.3867188,0 -0.3867188,-0.046875 -0.3867188,-0.1171875 0,0 0,-0.046875 0.035156,-0.16406254 z m -1.1835938,2.29687501 c -0.035156,0.1171875 -0.035156,0.140625 -0.1640625,0.29296875 -0.421875,0.48046875 -0.7734375,0.55078125 -0.9375,0.55078125 -0.3632812,0 -0.55078125,-0.33984375 -0.55078125,-0.75 0,-0.37500001 0.22265625,-1.23046871 0.39843755,-1.58203121 0.2226562,-0.4804688 0.6210937,-0.8203125 0.984375,-0.8203125 0.5273437,0 0.6679687,0.6210937 0.6679687,0.6796875 0,0.035156 -0.011719,0.082031 -0.023437,0.1289062 z m 0,0"
         style="fill:#000000;fill-opacity:1;fill-rule:nonzero;stroke:none" />
      <path
         id="path26"
         d="m 16.753914,-7.98975 c 0.164063,0 0.375,0 0.375,-0.2226562 0,-0.2226563 -0.199219,-0.2226563 -0.375,-0.2226563 H 9.7109453 c -0.1757812,0 -0.3867187,0 -0.3867187,0.2109375 0,0.234375 0.1992187,0.234375 0.3867187,0.234375 z m 0,2.2148438 c 0.164063,0 0.375,0 0.375,-0.2109375 0,-0.234375 -0.199219,-0.234375 -0.375,-0.234375 H 9.7109453 c -0.1757812,0 -0.3867187,0 -0.3867187,0.2226562 0,0.2226563 0.1992187,0.2226563 0.3867187,0.2226563 z m 9.618164,-0.3515625 H 26.102547 C 26.067391,-5.92725 25.973641,-5.271 25.856453,-5.0835 c -0.08203,0.1171875 -0.761719,0.1171875 -1.125,0.1171875 h -2.214844 c 0.328125,-0.28125 1.054688,-1.0429687 1.371094,-1.3359375 1.816406,-1.6640625 2.484375,-2.2851562 2.484375,-3.46875 0,-1.382812 -1.089844,-2.296875 -2.472656,-2.296875 -1.394531,0 -2.203125,1.183594 -2.203125,2.203125 0,0.609375 0.527344,0.609375 0.5625,0.609375 0.246094,0 0.5625,-0.1757812 0.5625,-0.5625 0,-0.328125 -0.234375,-0.550781 -0.5625,-0.550781 -0.105469,0 -0.128906,0 -0.164063,0.01172 0.222657,-0.820313 0.867188,-1.371094 1.640625,-1.371094 1.019532,0 1.640625,0.855469 1.640625,1.957031 0,1.0078125 -0.585937,1.8984375 -1.265625,2.6601563 l -2.414062,2.7070312 v 0.28125 h 4.359375 z m 0,0"
         style="fill:#000000;fill-opacity:1;fill-rule:nonzero;stroke:none" />
      <path
         id="path27"
         d="m 37.51368,-6.8764687 c 0.175781,0 0.398437,0 0.398437,-0.234375 0,-0.234375 -0.222656,-0.234375 -0.398437,-0.234375 h -6.515625 c -0.164063,0 -0.386719,0 -0.386719,0.234375 0,0.234375 0.222656,0.234375 0.386719,0.234375 z m 8.709961,3.1318359 -2.132813,-4.6875 c -0.04687,-0.09375 -0.07031,-0.1640625 -0.152344,-0.1640625 -0.03516,0 -0.05859,0 -0.164062,0.09375 l -1.183594,0.9023437 c -0.140625,0.1054688 -0.152344,0.1171875 -0.152344,0.1640625 0,0.082031 0.05859,0.1289063 0.128907,0.1289063 0.03516,0 0.05859,0 0.164062,-0.09375 l 0.621094,-0.46875 2.367187,5.203125 c 0.07031,0.1640625 0.09375,0.1757812 0.222657,0.1757812 0.199218,0 0.222656,-0.046875 0.304687,-0.2226562 l 5.449219,-11.2851562 c 0.05859,-0.128906 0.07031,-0.140625 0.07031,-0.199219 0,-0.140625 -0.09375,-0.246094 -0.234375,-0.246094 -0.152343,0 -0.1875,0.08203 -0.257812,0.234375 z m 0,0"
         style="fill:#000000;fill-opacity:1;fill-rule:nonzero;stroke:none" />
    </g>
    <path
       id="path28"
       d="M 0,0 H 5.853"
       style="fill:none;stroke:#000000;stroke-width:0.478;stroke-linecap:butt;stroke-linejoin:miter;stroke-miterlimit:10;stroke-dasharray:none;stroke-opacity:1"
       transform="matrix(1.3333333,0,0,-1.3333333,521.82267,419.09333)" />
    <g
       id="g28"
       aria-label="3.&#10;ZADANIE5.&#10;Pewnaliczbadwucyfrowamatrzydzielnikijednocyfroweitrzydzielnikidwucyfrowe.Suma&#10;wszystkichdzielnikówjednocyfrowychjestrówna8.Obliczsum¦wszystkichdzielnikówdwucy-&#10;frowychtejliczby."
       transform="matrix(1.3333333,0,0,1.3333333,521.82267,432.532)">
      <path
         id="path29"
         d="m 2.2042891,-4.289625 c -0.2109375,0.011719 -0.2578125,0.023437 -0.2578125,0.1289062 0,0.1171875 0.058594,0.1171875 0.28125,0.1171875 h 0.5507812 c 1.0078125,0 1.4648438,0.84375 1.4648438,1.9921875 0,1.5585938 -0.8085938,1.9804688 -1.3945313,1.9804688 -0.5742187,0 -1.5585937,-0.28125 -1.89843749,-1.0664063 0.37499999,0.058594 0.72656249,-0.1523437 0.72656249,-0.5859375 0,-0.3398437 -0.2578125,-0.5859375 -0.5859375,-0.5859375 -0.29296874,0 -0.59765624,0.1640625 -0.59765624,0.6210938 0,1.06640625 1.06640624,1.93359375 2.39062504,1.93359375 1.4179687,0 2.4726562,-1.078125 2.4726562,-2.28515625 0,-1.1015625 -0.890625,-1.96875 -2.0273437,-2.1679688 1.03125,-0.3046875 1.6992187,-1.171875 1.6992187,-2.109375 0,-0.9375 -0.9726562,-1.6289062 -2.1328125,-1.6289062 -1.1953125,0 -2.08593749,0.7265625 -2.08593749,1.59375 0,0.4804687 0.37499999,0.5742187 0.55078129,0.5742187 0.2578125,0 0.5390625,-0.1757812 0.5390625,-0.5390625 0,-0.375 -0.28125,-0.5390625 -0.5507813,-0.5390625 -0.070312,0 -0.09375,0 -0.1289062,0.011719 0.4570312,-0.8203125 1.5820312,-0.8203125 1.640625,-0.8203125 0.3867187,0 1.171875,0.1757812 1.171875,1.3476562 0,0.234375 -0.035156,0.9023438 -0.3867188,1.4179688 -0.3515625,0.5273437 -0.7617187,0.5625 -1.0898437,0.5742187 z m 0,0"
         style="fill:#000000;fill-opacity:1;fill-rule:nonzero;stroke:none" />
      <path
         id="path30"
         d="m -77.330867,53.196703 c 0.597656,-0.328125 1.464844,-0.878906 1.464844,-1.875 0,-1.042969 -0.996094,-1.757812 -2.097657,-1.757812 -1.183593,0 -2.121093,0.867187 -2.121093,1.957031 0,0.410156 0.128906,0.808594 0.457031,1.21875 0.128906,0.152344 0.140625,0.164062 0.984375,0.75 -1.160156,0.539062 -1.757813,1.347656 -1.757813,2.214844 0,1.265625 1.207032,2.050781 2.425782,2.050781 1.324218,0 2.4375,-0.972656 2.4375,-2.226563 0,-1.21875 -0.855469,-1.757812 -1.792969,-2.332031 z m -1.628906,-1.078125 c -0.152344,-0.105469 -0.632813,-0.421875 -0.632813,-1.007812 0,-0.773438 0.820313,-1.265625 1.617188,-1.265625 0.855468,0 1.628906,0.621093 1.628906,1.488281 0,0.726562 -0.527344,1.3125 -1.21875,1.6875 z m 0.5625,1.546875 c 0.328125,0.210938 1.125,0.726563 1.453125,0.9375 0.304687,0.199219 0.855468,0.574219 0.855468,1.300781 0,0.914063 -0.914062,1.535157 -1.875,1.535157 -1.019531,0 -1.886718,-0.738282 -1.886718,-1.734375 0,-0.9375 0.679687,-1.6875 1.453125,-2.039063 z m 0,0"
         style="fill:#000000;fill-opacity:1;fill-rule:nonzero;stroke:none" />
    </g>
  </g>
</svg>
