<?xml version="1.0" encoding="UTF-8" standalone="no"?>
<!-- Created with Inkscape (http://www.inkscape.org/) -->

<svg
   version="1.1"
   id="svg1"
   width="794.55066"
   height="1123.6533"
   viewBox="0 0 794.55066 1123.6533"
   sodipodi:docname="LigaMatematycznaMatuskiego_Liceum_Zestaw4_2021_2022_page0.pdf"
   xmlns:inkscape="http://www.inkscape.org/namespaces/inkscape"
   xmlns:sodipodi="http://sodipodi.sourceforge.net/DTD/sodipodi-0.dtd"
   xmlns="http://www.w3.org/2000/svg"
   xmlns:svg="http://www.w3.org/2000/svg">
  <defs
     id="defs1" />
  <sodipodi:namedview
     id="namedview1"
     pagecolor="#ffffff"
     bordercolor="#000000"
     borderopacity="0.25"
     inkscape:showpageshadow="2"
     inkscape:pageopacity="0.0"
     inkscape:pagecheckerboard="0"
     inkscape:deskcolor="#d1d1d1">
    <inkscape:page
       x="0"
       y="0"
       inkscape:label="1"
       id="page1"
       width="794.55066"
       height="1123.6533"
       margin="0"
       bleed="0" />
  </sodipodi:namedview>
  <g
     id="g1"
     inkscape:groupmode="layer"
     inkscape:label="1">
    <g
       id="g2"
       aria-label="LIGAMATEMATYCZNA&#10;im.ZdzisªawaMatuskiego&#10;STYCZE2022&#10;SZKOAPONADPODSTAWOWA&#10;ZADANIE1.&#10;Znajd¹wszystkieliczbypierwszeptakie,»ep&#10;2&#10;+2ip&#10;3&#10;+2s¡liczbamipierwszymi.&#10;ZADANIE2.&#10;Na101kartkachAdamzapisaªliczbynaturalneod1do101,pojednejnaka»dejkartce.Potem&#10;kartkiodwróciª,pomieszaªizapisaªznowuliczbyod1do101,pojednejnaka»dejkartce.&#10;Nast¦pniedodaªliczbyzobustronkartki.Wyka»,»eiloczynotrzymanychwynikówjestliczb¡&#10;parzyst¡.&#10;ZADANIE3.&#10;Wtrójk¡cieprostok¡tnymABCdwusiecznak¡taostregodzieliprzeciwlegªybokwstosunku&#10;3:5.Obliczstosunekpromieniarokr¦guwpisanegowtentrójk¡tdopromieniaRokr¦gu&#10;opisanegonatymtrójk¡cie.&#10;ZADANIE4.&#10;Wyznaczwszystkieparyró»nychliczbcaªkowitych(x,y)speªniaj¡cerównanie&#10;x+&#10;1"
       transform="matrix(1.3333333,0,0,1.3333333,274.724,56.069333)">
      <path
         id="path2"
         d="m 23.817352,111.33765 c -0.08203,0.35156 -0.128907,0.44531 -0.621094,0.44531 -0.140625,0 -0.269531,0 -0.269531,0.23438 0,0.0234 0.01172,0.11718 0.152343,0.11718 0.152344,0 0.316407,-0.0234 0.46875,-0.0234 h 0.515625 c 0.257813,0 0.867188,0.0234 1.113282,0.0234 0.07031,0 0.222656,0 0.222656,-0.21093 0,-0.14063 -0.09375,-0.14063 -0.292969,-0.14063 -0.550781,0 -0.585937,-0.082 -0.585937,-0.17578 0,-0.14063 0.539062,-2.20313 0.609375,-2.47266 0.128906,0.32813 0.457031,0.79688 1.078125,0.79688 1.347656,0 2.8125,-1.75781 2.8125,-3.51563 0,-1.10156 -0.621094,-1.875 -1.523438,-1.875 -0.761719,0 -1.40625,0.73828 -1.546875,0.91407 -0.09375,-0.59766 -0.550781,-0.91407 -1.03125,-0.91407 -0.351562,0 -0.621094,0.16407 -0.855469,0.6211 -0.210937,0.43359 -0.375,1.16015 -0.375,1.20703 0,0.0469 0.04687,0.10547 0.128907,0.10547 0.09375,0 0.105468,-0.0117 0.175781,-0.28125 0.175781,-0.70313 0.410156,-1.40625 0.890625,-1.40625 0.269531,0 0.363281,0.1875 0.363281,0.53906 0,0.29297 -0.03516,0.41016 -0.08203,0.63281 z m 2.0625,-5.25 c 0.08203,-0.33985 0.421875,-0.67969 0.609375,-0.85547 0.140625,-0.11719 0.527343,-0.44531 0.984375,-0.44531 0.527343,0 0.761718,0.51562 0.761718,1.13672 0,0.57421 -0.328125,1.93359 -0.632812,2.55468 -0.292969,0.64453 -0.84375,1.21875 -1.394531,1.21875 -0.808594,0 -0.949219,-1.03125 -0.949219,-1.07812 0,-0.0352 0.02344,-0.12891 0.03516,-0.1875 z m 0,0"
         style="fill:#000000;fill-opacity:1;fill-rule:nonzero;stroke:none" />
      <path
         id="path3"
         d="m 80.082,111.33765 c -0.08203,0.35156 -0.128906,0.44531 -0.621094,0.44531 -0.140625,0 -0.269531,0 -0.269531,0.23438 0,0.0234 0.01172,0.11718 0.152344,0.11718 0.152344,0 0.316406,-0.0234 0.46875,-0.0234 h 0.515625 c 0.257812,0 0.867187,0.0234 1.113281,0.0234 0.07031,0 0.222656,0 0.222656,-0.21093 0,-0.14063 -0.09375,-0.14063 -0.292968,-0.14063 -0.550782,0 -0.585938,-0.082 -0.585938,-0.17578 0,-0.14063 0.539063,-2.20313 0.609375,-2.47266 0.128906,0.32813 0.457031,0.79688 1.078125,0.79688 1.347656,0 2.8125,-1.75781 2.8125,-3.51563 0,-1.10156 -0.621094,-1.875 -1.523437,-1.875 -0.761719,0 -1.40625,0.73828 -1.546875,0.91407 -0.09375,-0.59766 -0.550782,-0.91407 -1.03125,-0.91407 -0.351563,0 -0.621094,0.16407 -0.855469,0.6211 -0.210938,0.43359 -0.375,1.16015 -0.375,1.20703 0,0.0469 0.04687,0.10547 0.128906,0.10547 0.09375,0 0.105469,-0.0117 0.175781,-0.28125 0.175782,-0.70313 0.410157,-1.40625 0.890625,-1.40625 0.269532,0 0.363282,0.1875 0.363282,0.53906 0,0.29297 -0.03516,0.41016 -0.08203,0.63281 z m 2.0625,-5.25 c 0.08203,-0.33985 0.421875,-0.67969 0.609375,-0.85547 0.140625,-0.11719 0.527344,-0.44531 0.984375,-0.44531 0.527344,0 0.761719,0.51562 0.761719,1.13672 0,0.57421 -0.328125,1.93359 -0.632813,2.55468 -0.292968,0.64453 -0.84375,1.21875 -1.394531,1.21875 -0.808594,0 -0.949219,-1.03125 -0.949219,-1.07812 0,-0.0352 0.02344,-0.12891 0.03516,-0.1875 z m 0,0"
         style="fill:#000000;fill-opacity:1;fill-rule:nonzero;stroke:none" />
      <path
         id="path4"
         d="m 87.690398,103.84644 c 0.128907,-0.11719 0.457032,-0.375 0.585938,-0.49219 0.492187,-0.45703 0.960937,-0.89062 0.960937,-1.61719 0,-0.94922 -0.796875,-1.55859 -1.792968,-1.55859 -0.949219,0 -1.582032,0.72656 -1.582032,1.42969 0,0.39843 0.316407,0.44531 0.421875,0.44531 0.164063,0 0.410157,-0.11719 0.410157,-0.42188 0,-0.41015 -0.398438,-0.41015 -0.492188,-0.41015 0.234375,-0.58594 0.773438,-0.78516 1.160156,-0.78516 0.738282,0 1.125,0.63281 1.125,1.30078 0,0.83203 -0.585937,1.42969 -1.523437,2.40235 l -1.007813,1.03125 c -0.09375,0.0937 -0.09375,0.10547 -0.09375,0.30468 h 3.152344 l 0.222656,-1.42968 H 88.99118 c -0.02344,0.16406 -0.08203,0.5625 -0.175782,0.71484 -0.04687,0.0586 -0.65625,0.0586 -0.785156,0.0586 h -1.417969 z m 0,0"
         style="fill:#000000;fill-opacity:1;fill-rule:nonzero;stroke:none" />
      <path
         id="path5"
         d="m 97.598602,107.04859 h 3.304688 c 0.16406,0 0.375,0 0.375,-0.21094 0,-0.22266 -0.19922,-0.22266 -0.375,-0.22266 h -3.304688 v -3.30469 c 0,-0.16406 0,-0.38671 -0.210938,-0.38671 -0.234375,0 -0.234375,0.21093 -0.234375,0.38671 v 3.30469 H 93.86032 c -0.175781,0 -0.386718,0 -0.386718,0.21094 0,0.22266 0.199218,0.22266 0.386718,0.22266 h 3.292969 v 3.30468 c 0,0.16407 0,0.38672 0.222656,0.38672 0.222657,0 0.222657,-0.21094 0.222657,-0.38672 z m 12.251948,0.76171 h -0.26953 c -0.0352,0.19922 -0.1289,0.85547 -0.24609,1.04297 -0.082,0.11719 -0.76172,0.11719 -1.125,0.11719 h -2.21484 c 0.32812,-0.28125 1.05468,-1.04297 1.37109,-1.33594 1.81641,-1.66406 2.48437,-2.28515 2.48437,-3.46875 0,-1.38281 -1.08984,-2.29687 -2.47265,-2.29687 -1.39453,0 -2.20313,1.18359 -2.20313,2.20312 0,0.60938 0.52735,0.60938 0.5625,0.60938 0.2461,0 0.5625,-0.17578 0.5625,-0.5625 0,-0.32813 -0.23437,-0.55078 -0.5625,-0.55078 -0.10547,0 -0.1289,0 -0.16406,0.0117 0.22266,-0.82032 0.86719,-1.3711 1.64063,-1.3711 1.01953,0 1.64062,0.85547 1.64062,1.95703 0,1.00782 -0.58594,1.89844 -1.26562,2.66016 l -2.41407,2.70703 v 0.28125 h 4.35938 z m 0,0"
         style="fill:#000000;fill-opacity:1;fill-rule:nonzero;stroke:none" />
      <path
         id="path6"
         d="m 122.01169,111.33765 c -0.082,0.35156 -0.12891,0.44531 -0.6211,0.44531 -0.14062,0 -0.26953,0 -0.26953,0.23438 0,0.0234 0.0117,0.11718 0.15235,0.11718 0.15234,0 0.3164,-0.0234 0.46875,-0.0234 h 0.51562 c 0.25781,0 0.86719,0.0234 1.11328,0.0234 0.0703,0 0.22266,0 0.22266,-0.21093 0,-0.14063 -0.0937,-0.14063 -0.29297,-0.14063 -0.55078,0 -0.58594,-0.082 -0.58594,-0.17578 0,-0.14063 0.53907,-2.20313 0.60938,-2.47266 0.1289,0.32813 0.45703,0.79688 1.07812,0.79688 1.34766,0 2.8125,-1.75781 2.8125,-3.51563 0,-1.10156 -0.62109,-1.875 -1.52343,-1.875 -0.76172,0 -1.40625,0.73828 -1.54688,0.91407 -0.0937,-0.59766 -0.55078,-0.91407 -1.03125,-0.91407 -0.35156,0 -0.62109,0.16407 -0.85547,0.6211 -0.21094,0.43359 -0.375,1.16015 -0.375,1.20703 0,0.0469 0.0469,0.10547 0.12891,0.10547 0.0937,0 0.10547,-0.0117 0.17578,-0.28125 0.17578,-0.70313 0.41016,-1.40625 0.89062,-1.40625 0.26954,0 0.36329,0.1875 0.36329,0.53906 0,0.29297 -0.0352,0.41016 -0.082,0.63281 z m 2.0625,-5.25 c 0.082,-0.33985 0.42187,-0.67969 0.60937,-0.85547 0.14063,-0.11719 0.52735,-0.44531 0.98438,-0.44531 0.52734,0 0.76172,0.51562 0.76172,1.13672 0,0.57421 -0.32813,1.93359 -0.63282,2.55468 -0.29296,0.64453 -0.84375,1.21875 -1.39453,1.21875 -0.80859,0 -0.94922,-1.03125 -0.94922,-1.07812 0,-0.0352 0.0234,-0.12891 0.0352,-0.1875 z m 0,0"
         style="fill:#000000;fill-opacity:1;fill-rule:nonzero;stroke:none" />
      <path
         id="path7"
         d="m 129.38864,102.81519 c 0.63281,0 1.03125,0.45703 1.03125,1.30078 0,0.99609 -0.57422,1.28906 -0.99609,1.28906 -0.4336,0 -1.03125,-0.16406 -1.3125,-0.58594 0.29297,0 0.49218,-0.17578 0.49218,-0.44531 0,-0.25781 -0.1875,-0.43359 -0.44531,-0.43359 -0.21094,0 -0.43359,0.1289 -0.43359,0.45703 0,0.75 0.80859,1.24219 1.72265,1.24219 1.05469,0 1.79297,-0.72657 1.79297,-1.52344 0,-0.66797 -0.51562,-1.26563 -1.33593,-1.44141 0.63281,-0.22265 1.10156,-0.77343 1.10156,-1.40625 0,-0.63281 -0.71485,-1.08984 -1.54688,-1.08984 -0.85547,0 -1.5,0.45703 -1.5,1.06641 0,0.29296 0.19922,0.42187 0.41016,0.42187 0.24609,0 0.41016,-0.17578 0.41016,-0.41016 0,-0.29296 -0.25782,-0.39843 -0.4336,-0.41015 0.33985,-0.4336 0.94922,-0.46875 1.08985,-0.46875 0.21093,0 0.80859,0.0703 0.80859,0.89062 0,0.5625 -0.22266,0.89063 -0.33984,1.01953 -0.23438,0.2461 -0.42188,0.25782 -0.90235,0.29297 -0.15234,0.0117 -0.22265,0.0234 -0.22265,0.11719 0,0.11719 0.0703,0.11719 0.21093,0.11719 z m 0,0"
         style="fill:#000000;fill-opacity:1;fill-rule:nonzero;stroke:none" />
      <path
         id="path8"
         d="m 139.53122,107.04859 h 3.30469 c 0.16406,0 0.375,0 0.375,-0.21094 0,-0.22266 -0.19922,-0.22266 -0.375,-0.22266 h -3.30469 v -3.30469 c 0,-0.16406 0,-0.38671 -0.21094,-0.38671 -0.23437,0 -0.23437,0.21093 -0.23437,0.38671 v 3.30469 h -3.29297 c -0.17578,0 -0.38672,0 -0.38672,0.21094 0,0.22266 0.19922,0.22266 0.38672,0.22266 h 3.29297 v 3.30468 c 0,0.16407 0,0.38672 0.22265,0.38672 0.22266,0 0.22266,-0.21094 0.22266,-0.38672 z m 12.25195,0.76171 h -0.26953 c -0.0352,0.19922 -0.12891,0.85547 -0.24609,1.04297 -0.082,0.11719 -0.76172,0.11719 -1.125,0.11719 h -2.21485 c 0.32813,-0.28125 1.05469,-1.04297 1.3711,-1.33594 1.8164,-1.66406 2.48437,-2.28515 2.48437,-3.46875 0,-1.38281 -1.08984,-2.29687 -2.47265,-2.29687 -1.39454,0 -2.20313,1.18359 -2.20313,2.20312 0,0.60938 0.52734,0.60938 0.5625,0.60938 0.24609,0 0.5625,-0.17578 0.5625,-0.5625 0,-0.32813 -0.23437,-0.55078 -0.5625,-0.55078 -0.10547,0 -0.12891,0 -0.16406,0.0117 0.22265,-0.82032 0.86719,-1.3711 1.64062,-1.3711 1.01953,0 1.64063,0.85547 1.64063,1.95703 0,1.00782 -0.58594,1.89844 -1.26563,2.66016 l -2.41406,2.70703 v 0.28125 h 4.35938 z m 0,0"
         style="fill:#000000;fill-opacity:1;fill-rule:nonzero;stroke:none" />
      <path
         id="path9"
         d="m -126.6221,145.21363 c 0,-0.26954 0,-0.28125 -0.2461,-0.28125 -0.28125,0.3164 -0.8789,0.76171 -2.10937,0.76171 v 0.35157 c 0.26953,0 0.86719,0 1.52344,-0.31641 v 6.22266 c 0,0.43359 -0.0352,0.57422 -1.07813,0.57422 h -0.375 v 0.35156 c 0.31641,-0.0234 1.47656,-0.0234 1.875,-0.0234 0.39844,0 1.54688,0 1.86328,0.0234 v -0.35156 h -0.36328 c -1.05469,0 -1.08984,-0.14063 -1.08984,-0.57422 z m 7.76367,3.84375 c 0,-0.9961 -0.0586,-1.96875 -0.49219,-2.8711 -0.49218,-0.99609 -1.34765,-1.2539 -1.93359,-1.2539 -0.69141,0 -1.54688,0.33984 -1.98047,1.33593 -0.33984,0.75 -0.45703,1.48828 -0.45703,2.78907 0,1.16015 0.082,2.02734 0.51562,2.87109 0.45704,0.91406 1.28907,1.19531 1.91016,1.19531 1.04297,0 1.64063,-0.62109 1.98047,-1.3125 0.43359,-0.89062 0.45703,-2.0625 0.45703,-2.7539 z m -2.4375,3.83203 c -0.38672,0 -1.16016,-0.21094 -1.38281,-1.52344 -0.14063,-0.71484 -0.14063,-1.61719 -0.14063,-2.46094 0,-0.97265 0,-1.86328 0.19922,-2.5664 0.19922,-0.79688 0.8086,-1.17188 1.32422,-1.17188 0.45703,0 1.14844,0.28125 1.37109,1.30078 0.15235,0.67969 0.15235,1.62891 0.15235,2.4375 0,0.8086 0,1.71094 -0.12891,2.4375 -0.22265,1.32422 -0.97265,1.54688 -1.39453,1.54688 z m 6.38086,-7.67578 c 0,-0.26954 0,-0.28125 -0.24609,-0.28125 -0.28125,0.3164 -0.87891,0.76171 -2.10938,0.76171 v 0.35157 c 0.26953,0 0.86719,0 1.52344,-0.31641 v 6.22266 c 0,0.43359 -0.0352,0.57422 -1.07813,0.57422 h -0.375 v 0.35156 c 0.31641,-0.0234 1.47657,-0.0234 1.875,-0.0234 0.39844,0 1.54688,0 1.86328,0.0234 v -0.35156 h -0.36328 c -1.05468,0 -1.08984,-0.14063 -1.08984,-0.57422 z m 0,0"
         style="fill:#000000;fill-opacity:1;fill-rule:nonzero;stroke:none" />
      <path
         id="path10"
         d="m 115.31735,145.21363 c 0,-0.26954 0,-0.28125 -0.24609,-0.28125 -0.28125,0.3164 -0.87891,0.76171 -2.10938,0.76171 v 0.35157 c 0.26953,0 0.86719,0 1.52344,-0.31641 v 6.22266 c 0,0.43359 -0.0352,0.57422 -1.07812,0.57422 h -0.375 v 0.35156 c 0.3164,-0.0234 1.47656,-0.0234 1.875,-0.0234 0.39843,0 1.54687,0 1.86328,0.0234 v -0.35156 h -0.36328 c -1.05469,0 -1.08985,-0.14063 -1.08985,-0.57422 z m 0,0"
         style="fill:#000000;fill-opacity:1;fill-rule:nonzero;stroke:none" />
      <path
         id="path11"
         d="m 140.57712,145.21363 c 0,-0.26954 0,-0.28125 -0.2461,-0.28125 -0.28125,0.3164 -0.8789,0.76171 -2.10937,0.76171 v 0.35157 c 0.26953,0 0.86719,0 1.52344,-0.31641 v 6.22266 c 0,0.43359 -0.0352,0.57422 -1.07813,0.57422 h -0.375 v 0.35156 c 0.31641,-0.0234 1.47656,-0.0234 1.875,-0.0234 0.39844,0 1.54688,0 1.86328,0.0234 v -0.35156 h -0.36328 c -1.05469,0 -1.08984,-0.14063 -1.08984,-0.57422 z m 7.76367,3.84375 c 0,-0.9961 -0.0586,-1.96875 -0.49219,-2.8711 -0.49219,-0.99609 -1.34765,-1.2539 -1.93359,-1.2539 -0.69141,0 -1.54688,0.33984 -1.98047,1.33593 -0.33984,0.75 -0.45703,1.48828 -0.45703,2.78907 0,1.16015 0.082,2.02734 0.51562,2.87109 0.45703,0.91406 1.28907,1.19531 1.91016,1.19531 1.04297,0 1.64062,-0.62109 1.98047,-1.3125 0.43359,-0.89062 0.45703,-2.0625 0.45703,-2.7539 z m -2.4375,3.83203 c -0.38672,0 -1.16016,-0.21094 -1.38281,-1.52344 -0.14063,-0.71484 -0.14063,-1.61719 -0.14063,-2.46094 0,-0.97265 0,-1.86328 0.19922,-2.5664 0.19922,-0.79688 0.80859,-1.17188 1.32422,-1.17188 0.45703,0 1.14844,0.28125 1.37109,1.30078 0.15235,0.67969 0.15235,1.62891 0.15235,2.4375 0,0.8086 0,1.71094 -0.12891,2.4375 -0.22266,1.32422 -0.97266,1.54688 -1.39453,1.54688 z m 6.38086,-7.67578 c 0,-0.26954 0,-0.28125 -0.2461,-0.28125 -0.28125,0.3164 -0.8789,0.76171 -2.10937,0.76171 v 0.35157 c 0.26953,0 0.86719,0 1.52344,-0.31641 v 6.22266 c 0,0.43359 -0.0352,0.57422 -1.07813,0.57422 h -0.375 v 0.35156 c 0.31641,-0.0234 1.47656,-0.0234 1.875,-0.0234 0.39844,0 1.54688,0 1.86328,0.0234 v -0.35156 h -0.36328 c -1.05469,0 -1.08984,-0.14063 -1.08984,-0.57422 z m 0,0"
         style="fill:#000000;fill-opacity:1;fill-rule:nonzero;stroke:none" />
      <path
         id="path12"
         d="m 138.80173,159.65991 c 0,-0.26953 0,-0.28125 -0.2461,-0.28125 -0.28125,0.31641 -0.8789,0.76172 -2.10937,0.76172 v 0.35157 c 0.26953,0 0.86719,0 1.52344,-0.31641 v 6.22266 c 0,0.43359 -0.0352,0.57421 -1.07813,0.57421 h -0.375 v 0.35157 c 0.31641,-0.0234 1.47656,-0.0234 1.875,-0.0234 0.39844,0 1.54688,0 1.86328,0.0234 v -0.35157 h -0.36328 c -1.05469,0 -1.08984,-0.14062 -1.08984,-0.57421 z m 0,0"
         style="fill:#000000;fill-opacity:1;fill-rule:nonzero;stroke:none" />
      <path
         id="path13"
         d="m 167.78513,159.65991 c 0,-0.26953 0,-0.28125 -0.2461,-0.28125 -0.28125,0.31641 -0.8789,0.76172 -2.10937,0.76172 v 0.35157 c 0.26953,0 0.86718,0 1.52343,-0.31641 v 6.22266 c 0,0.43359 -0.0352,0.57421 -1.07812,0.57421 h -0.375 v 0.35157 c 0.31641,-0.0234 1.47656,-0.0234 1.875,-0.0234 0.39844,0 1.54687,0 1.86328,0.0234 v -0.35157 h -0.36328 c -1.05469,0 -1.08984,-0.14062 -1.08984,-0.57421 z m 7.76367,3.84375 c 0,-0.99609 -0.0586,-1.96875 -0.49219,-2.87109 -0.49219,-0.99609 -1.34766,-1.25391 -1.93359,-1.25391 -0.69141,0 -1.54688,0.33985 -1.98047,1.33594 -0.33985,0.75 -0.45703,1.48828 -0.45703,2.78906 0,1.16016 0.082,2.02735 0.51562,2.8711 0.45703,0.91406 1.28906,1.19531 1.91016,1.19531 1.04297,0 1.64062,-0.62109 1.98047,-1.3125 0.43359,-0.89062 0.45703,-2.0625 0.45703,-2.75391 z m -2.4375,3.83204 c -0.38672,0 -1.16016,-0.21094 -1.38282,-1.52344 -0.14062,-0.71485 -0.14062,-1.61719 -0.14062,-2.46094 0,-0.97266 0,-1.86328 0.19922,-2.56641 0.19922,-0.79687 0.80859,-1.17187 1.32422,-1.17187 0.45703,0 1.14843,0.28125 1.37109,1.30078 0.15234,0.67969 0.15234,1.62891 0.15234,2.4375 0,0.80859 0,1.71094 -0.1289,2.4375 -0.22266,1.32422 -0.97266,1.54688 -1.39453,1.54688 z m 6.38086,-7.67579 c 0,-0.26953 0,-0.28125 -0.2461,-0.28125 -0.28125,0.31641 -0.8789,0.76172 -2.10937,0.76172 v 0.35157 c 0.26953,0 0.86719,0 1.52344,-0.31641 v 6.22266 c 0,0.43359 -0.0352,0.57421 -1.07813,0.57421 h -0.375 v 0.35157 c 0.31641,-0.0234 1.47656,-0.0234 1.875,-0.0234 0.39844,0 1.54688,0 1.86328,0.0234 v -0.35157 H 180.582 c -1.05469,0 -1.08984,-0.14062 -1.08984,-0.57421 z m 0,0"
         style="fill:#000000;fill-opacity:1;fill-rule:nonzero;stroke:none" />
      <path
         id="path14"
         d="m -6.1943672,237.95874 c -0.4101562,0.70313 -0.8203125,0.9375 -1.3945312,0.97266 -0.1289063,0.0117 -0.2226563,0.0117 -0.2226563,0.23437 0,0.0703 0.058594,0.11719 0.140625,0.11719 0.2109375,0 0.75,-0.0234 0.9726563,-0.0234 0.3398437,0 0.7265625,0.0234 1.0546875,0.0234 0.070312,0 0.2226562,0 0.2226562,-0.22266 0,-0.11718 -0.09375,-0.1289 -0.1757812,-0.1289 -0.2695313,-0.0234 -0.4921875,-0.11719 -0.4921875,-0.39844 0,-0.17578 0.070312,-0.30469 0.2226562,-0.5625 l 0.9023438,-1.51172 h 3.0585937 c 0.011719,0.10547 0.011719,0.21094 0.023437,0.31641 0.035156,0.30469 0.1757813,1.54687 0.1757813,1.78125 0,0.35156 -0.609375,0.375 -0.796875,0.375 -0.140625,0 -0.2695313,0 -0.2695313,0.22265 0,0.12891 0.1054688,0.12891 0.1757813,0.12891 0.2109375,0 0.4453125,-0.0234 0.65625,-0.0234 h 0.6796875 c 0.72656246,0 1.25390621,0.0234 1.26562496,0.0234 0.08203125,0 0.2109375,0 0.2109375,-0.22266 0,-0.1289 -0.10546875,-0.1289 -0.28125,-0.1289 -0.65625,0 -0.66796875,-0.10547 -0.71484375,-0.45703 l -0.72656251,-7.46485 c -0.023437,-0.23437 -0.070312,-0.25781 -0.1992187,-0.25781 -0.1171875,0 -0.1875,0.0234 -0.3046875,0.19922 z m 1.4414063,-1.83984 2.4023437,-4.01953 0.4101563,4.01953 z m 9.6767578,-4.1836 c 0.1171875,-0.44531 0.1640625,-0.46875 0.6210937,-0.46875 h 1.5585938 c 1.3476562,0 1.3476562,1.14844 1.3476562,1.25391 0,0.97266 -0.9609375,2.20313 -2.5429687,2.20313 H 4.1855156 Z m 2.0273437,3.08204 c 1.3007813,-0.2461 2.484375,-1.14844 2.484375,-2.25 0,-0.92579 -0.8320312,-1.65235 -2.1796875,-1.65235 H 3.4237969 c -0.234375,0 -0.3398438,0 -0.3398438,0.23438 0,0.11718 0.1054688,0.11718 0.2929688,0.11718 0.7265625,0 0.7265625,0.0937 0.7265625,0.22266 0,0.0234 0,0.0937 -0.046875,0.28125 l -1.6171875,6.43359 c -0.1054688,0.41016 -0.1289063,0.52735 -0.9609375,0.52735 -0.234375,0 -0.3515625,0 -0.3515625,0.22265 0,0.12891 0.070312,0.12891 0.3046875,0.12891 h 4.1015625 c 1.828125,0 3.2460937,-1.38281 3.2460937,-2.58984 0,-0.98438 -0.8671875,-1.58203 -1.828125,-1.67578 z M 5.2519219,238.9314 H 3.6347344 c -0.1640625,0 -0.1875,0 -0.2578125,-0.0117 -0.1289063,-0.0117 -0.1523438,-0.0352 -0.1523438,-0.12891 0,-0.082 0.035156,-0.15234 0.058594,-0.25781 l 0.8320312,-3.375 h 2.25 c 1.40625,0 1.40625,1.3125 1.40625,1.40625 0,1.14844 -1.0429687,2.36719 -2.5195312,2.36719 z m 13.7197261,-7.95703 c 0,-0.10547 -0.08203,-0.10547 -0.105468,-0.10547 -0.02344,0 -0.07031,0 -0.175782,0.11719 l -0.820312,1.00781 c -0.421875,-0.71485 -1.078125,-1.125 -1.96875,-1.125 -2.589844,0 -5.261719,2.61328 -5.261719,5.42578 0,1.99219 1.394531,3.23437 3.140625,3.23437 0.960938,0 1.792969,-0.39843 2.484375,-0.98437 1.042969,-0.87891 1.359375,-2.03906 1.359375,-2.13281 0,-0.10547 -0.09375,-0.10547 -0.140625,-0.10547 -0.105469,0 -0.117187,0.0703 -0.140625,0.11719 -0.550781,1.86328 -2.15625,2.76562 -3.351562,2.76562 -1.277344,0 -2.367188,-0.82031 -2.367188,-2.50781 0,-0.38672 0.117188,-2.46094 1.464844,-4.03125 0.65625,-0.76172 1.78125,-1.44141 2.917969,-1.44141 1.3125,0 1.898437,1.08985 1.898437,2.3086 0,0.3164 -0.03516,0.57421 -0.03516,0.62109 0,0.11719 0.117187,0.11719 0.152344,0.11719 0.140625,0 0.152343,-0.0117 0.199218,-0.23438 z m 0,0"
         style="fill:#000000;fill-opacity:1;fill-rule:nonzero;stroke:none" />
      <path
         id="path15"
         d="m -146.0137,249.43726 c -0.21094,0.0117 -0.25782,0.0234 -0.25782,0.1289 0,0.11719 0.0586,0.11719 0.28125,0.11719 h 0.55079 c 1.00781,0 1.46484,0.84375 1.46484,1.99219 0,1.55859 -0.80859,1.98047 -1.39453,1.98047 -0.57422,0 -1.5586,-0.28125 -1.89844,-1.06641 0.375,0.0586 0.72656,-0.15234 0.72656,-0.58594 0,-0.33984 -0.25781,-0.58593 -0.58593,-0.58593 -0.29297,0 -0.59766,0.16406 -0.59766,0.62109 0,1.06641 1.06641,1.93359 2.39062,1.93359 1.41797,0 2.47266,-1.07812 2.47266,-2.28515 0,-1.10156 -0.89062,-1.96875 -2.02734,-2.16797 1.03125,-0.30469 1.69922,-1.17188 1.69922,-2.10938 0,-0.9375 -0.97266,-1.6289 -2.13282,-1.6289 -1.19531,0 -2.08593,0.72656 -2.08593,1.59375 0,0.48047 0.375,0.57422 0.55078,0.57422 0.25781,0 0.53906,-0.17578 0.53906,-0.53907 0,-0.375 -0.28125,-0.53906 -0.55078,-0.53906 -0.0703,0 -0.0937,0 -0.12891,0.0117 0.45703,-0.82031 1.58203,-0.82031 1.64063,-0.82031 0.38672,0 1.17187,0.17578 1.17187,1.34765 0,0.23438 -0.0352,0.90235 -0.38672,1.41797 -0.35156,0.52735 -0.76172,0.5625 -1.08984,0.57422 z m 11.37597,-0.29297 c 0,-0.31641 -0.28125,-0.57422 -0.57422,-0.57422 -0.35156,0 -0.58593,0.28125 -0.58593,0.57422 0,0.36328 0.29297,0.58594 0.57422,0.58594 0.3164,0 0.58593,-0.2461 0.58593,-0.58594 z m 0,3.99609 c 0,-0.32812 -0.28125,-0.57422 -0.57422,-0.57422 -0.35156,0 -0.58593,0.28125 -0.58593,0.57422 0,0.36328 0.29297,0.58594 0.57422,0.58594 0.3164,0 0.58593,-0.24609 0.58593,-0.58594 z m 8.10938,-6.25781 c 0.5039,0.16406 0.92578,0.17578 1.05469,0.17578 1.35937,0 2.21484,-0.99609 2.21484,-1.16015 0,-0.0469 -0.0234,-0.10547 -0.0937,-0.10547 -0.0234,0 -0.0469,0 -0.15234,0.0469 -0.66797,0.28125 -1.24219,0.31641 -1.5586,0.31641 -0.78515,0 -1.34765,-0.23438 -1.58203,-0.32813 -0.082,-0.0351 -0.10547,-0.0351 -0.11719,-0.0351 -0.0937,0 -0.0937,0.0703 -0.0937,0.25781 v 3.55078 c 0,0.21094 0,0.29297 0.14063,0.29297 0.0586,0 0.0703,-0.0117 0.19922,-0.16406 0.32812,-0.49219 0.89062,-0.77344 1.48828,-0.77344 0.63281,0 0.94922,0.58594 1.04297,0.78516 0.19922,0.46875 0.21093,1.05468 0.21093,1.51171 0,0.45704 0,1.13672 -0.32812,1.67579 -0.26953,0.42187 -0.73828,0.72656 -1.25391,0.72656 -0.79687,0 -1.57031,-0.53906 -1.78125,-1.40625 0.0586,0.0234 0.12891,0.0351 0.1875,0.0351 0.19922,0 0.52735,-0.1289 0.52735,-0.52734 0,-0.33984 -0.23438,-0.52734 -0.52735,-0.52734 -0.21093,0 -0.52734,0.10547 -0.52734,0.57422 0,1.00781 0.80859,2.16796 2.14453,2.16796 1.34766,0 2.53125,-1.125 2.53125,-2.64843 0,-1.41797 -0.96094,-2.60157 -2.21484,-2.60157 -0.67969,0 -1.20703,0.29297 -1.51172,0.63282 z m 0,0"
         style="fill:#000000;fill-opacity:1;fill-rule:nonzero;stroke:none" />
      <path
         id="path16"
         d="m 33.719695,248.8396 c -0.375,0.0703 -0.5625,0.32813 -0.5625,0.59766 0,0.28125 0.222657,0.375 0.398438,0.375 0.328125,0 0.609375,-0.28125 0.609375,-0.64453 0,-0.375 -0.375,-0.71485 -0.972656,-0.71485 -0.480469,0 -1.03125,0.22266 -1.535157,0.94922 -0.08203,-0.63281 -0.5625,-0.94922 -1.03125,-0.94922 -0.46875,0 -0.714843,0.36328 -0.855468,0.6211 -0.199219,0.43359 -0.375,1.14843 -0.375,1.20703 0,0.0469 0.04687,0.10547 0.128906,0.10547 0.09375,0 0.105469,-0.0117 0.175781,-0.28125 0.175781,-0.71485 0.410156,-1.40625 0.890625,-1.40625 0.28125,0 0.363281,0.19922 0.363281,0.53906 0,0.26953 -0.117187,0.73828 -0.199218,1.10156 -0.105469,0.4336 -0.234375,0.86719 -0.339844,1.28906 -0.04687,0.23438 -0.175781,0.77344 -0.234375,0.98438 -0.08203,0.31641 -0.210938,0.87891 -0.210938,0.9375 0,0.16406 0.128907,0.29297 0.304688,0.29297 0.128906,0 0.363281,-0.082 0.433594,-0.31641 0.03516,-0.10547 0.480468,-1.91015 0.550781,-2.17969 0.05859,-0.25781 0.128906,-0.51562 0.1875,-0.77343 0.04687,-0.17578 0.09375,-0.36328 0.128906,-0.51563 0.03516,-0.10547 0.363281,-0.6914 0.65625,-0.96094 0.152344,-0.1289 0.457031,-0.39843 0.949219,-0.39843 0.1875,0 0.386719,0.0351 0.539062,0.14062 z m 0,0"
         style="fill:#000000;fill-opacity:1;fill-rule:nonzero;stroke:none" />
      <path
         id="path17"
         d="m 289.72751,246.37866 c 0.11719,-0.44531 0.16406,-0.46875 0.62109,-0.46875 h 0.86719 c 1.03125,0 1.79297,0.30469 1.79297,1.24219 0,0.60938 -0.31641,2.36719 -2.71875,2.36719 h -1.34766 z m 1.66406,3.28125 c 1.48828,-0.3164 2.64844,-1.27734 2.64844,-2.30859 0,-0.92578 -0.94922,-1.79297 -2.61328,-1.79297 h -3.23438 c -0.24609,0 -0.35156,0 -0.35156,0.23438 0,0.11718 0.082,0.11718 0.31641,0.11718 0.71484,0 0.71484,0.0937 0.71484,0.22266 0,0.0234 0,0.0937 -0.0469,0.28125 l -1.61718,6.43359 c -0.10547,0.41016 -0.12891,0.52735 -0.94922,0.52735 -0.28125,0 -0.36328,0 -0.36328,0.23437 0,0.11719 0.1289,0.11719 0.16406,0.11719 0.22266,0 0.46875,-0.0234 0.69141,-0.0234 h 1.41796 c 0.21094,0 0.46875,0.0234 0.67969,0.0234 0.0937,0 0.22266,0 0.22266,-0.22266 0,-0.1289 -0.10547,-0.1289 -0.28125,-0.1289 -0.72656,0 -0.72656,-0.0937 -0.72656,-0.21094 0,-0.0117 0,-0.0937 0.0234,-0.1875 l 0.79688,-3.22266 h 1.42969 c 1.13671,0 1.35937,0.72657 1.35937,1.11329 0,0.1875 -0.12891,0.64453 -0.21094,0.96093 -0.1289,0.55078 -0.16406,0.67969 -0.16406,0.90235 0,0.85547 0.69141,1.24218 1.48828,1.24218 0.97266,0 1.39453,-1.18359 1.39453,-1.34765 0,-0.082 -0.0586,-0.11719 -0.1289,-0.11719 -0.10547,0 -0.12891,0.0703 -0.15235,0.16406 -0.28125,0.85547 -0.77343,1.06641 -1.0664,1.06641 -0.30469,0 -0.49219,-0.12891 -0.49219,-0.66797 0,-0.29297 0.14062,-1.37109 0.15234,-1.44141 0.0586,-0.43359 0.0586,-0.48046 0.0586,-0.57421 0,-0.87891 -0.70313,-1.25391 -1.16016,-1.39454 z m 0,0"
         style="fill:#000000;fill-opacity:1;fill-rule:nonzero;stroke:none" />
      <path
         id="path18"
         d="m 118.17966,314.14527 c 0,-0.0352 0,-0.0586 -0.21094,-0.26954 -1.19531,-1.20703 -1.86328,-3.17578 -1.86328,-5.61328 0,-2.32031 0.5625,-4.3125 1.94531,-5.73047 0.12891,-0.10546 0.12891,-0.1289 0.12891,-0.16406 0,-0.0703 -0.0703,-0.0937 -0.11719,-0.0937 -0.15234,0 -1.13672,0.85547 -1.72266,2.02735 -0.60937,1.20703 -0.8789,2.49609 -0.8789,3.96093 0,1.06641 0.16406,2.48438 0.78515,3.76172 0.70313,1.44141 1.6875,2.21485 1.81641,2.21485 0.0469,0 0.11719,-0.0234 0.11719,-0.0937 z m 0,0"
         style="fill:#000000;fill-opacity:1;fill-rule:nonzero;stroke:none" />
      <path
         id="path19"
         d="m 124.50192,306.36402 c -0.375,0.0703 -0.51562,0.35156 -0.51562,0.58593 0,0.28125 0.22265,0.375 0.38672,0.375 0.36328,0 0.60937,-0.30468 0.60937,-0.63281 0,-0.49219 -0.57422,-0.72656 -1.07812,-0.72656 -0.72657,0 -1.125,0.71484 -1.24219,0.94922 -0.26953,-0.90235 -1.00781,-0.94922 -1.23047,-0.94922 -1.21875,0 -1.86328,1.57031 -1.86328,1.82812 0,0.0469 0.0469,0.10547 0.1289,0.10547 0.10547,0 0.12891,-0.0703 0.15235,-0.11719 0.39844,-1.32421 1.20703,-1.57031 1.54687,-1.57031 0.53907,0 0.64453,0.49219 0.64453,0.78516 0,0.25781 -0.0703,0.53906 -0.21093,1.11328 -0.1875,0.76172 -0.23438,0.9375 -0.41016,1.62891 -0.17578,0.72656 -0.52734,1.38281 -1.16016,1.38281 -0.0586,0 -0.35156,0 -0.60937,-0.15235 0.43359,-0.0937 0.52734,-0.44531 0.52734,-0.58593 0,-0.2461 -0.17578,-0.38672 -0.39843,-0.38672 -0.29297,0 -0.59766,0.24609 -0.59766,0.63281 0,0.50391 0.5625,0.72656 1.06641,0.72656 0.57421,0 0.98437,-0.45703 1.23046,-0.9375 0.19922,0.70313 0.79688,0.9375 1.23047,0.9375 1.23047,0 1.875,-1.55859 1.875,-1.82812 0,-0.0586 -0.0469,-0.10547 -0.1289,-0.10547 -0.10547,0 -0.11719,0.0586 -0.15235,0.15234 -0.3164,1.05469 -1.01953,1.54688 -1.54687,1.54688 -0.42188,0 -0.65625,-0.31641 -0.65625,-0.8086 0,-0.25781 0.0586,-0.44531 0.24609,-1.24218 0.14063,-0.55078 0.29297,-1.1836 0.42188,-1.61719 0.17578,-0.72656 0.58593,-1.24219 1.125,-1.24219 0.0352,0 0.36328,0 0.60937,0.15235 z m 3.3252,4.92187 c 0,-0.69141 -0.22266,-1.20703 -0.71485,-1.20703 -0.38672,0 -0.57422,0.31641 -0.57422,0.57422 0,0.25781 0.17579,0.58594 0.58594,0.58594 0.15235,0 0.28125,-0.0469 0.38672,-0.15235 0.0234,-0.0234 0.0352,-0.0234 0.0469,-0.0234 0.0352,0 0.0352,0.16407 0.0352,0.22266 0,0.39844 -0.082,1.17188 -0.77344,1.94531 -0.1289,0.15235 -0.1289,0.17578 -0.1289,0.19922 0,0.0586 0.0586,0.11719 0.11719,0.11719 0.0937,0 1.01953,-0.89063 1.01953,-2.26172 z m 6.05566,1.28906 c -0.3164,0.45703 -0.78515,0.86719 -1.37109,0.86719 -0.14063,0 -0.71485,-0.0234 -0.90235,-0.57422 0.0469,0.0117 0.10547,0.0117 0.12891,0.0117 0.35156,0 0.59766,-0.31641 0.59766,-0.58594 0,-0.28125 -0.23438,-0.375 -0.41016,-0.375 -0.1875,0 -0.60937,0.14063 -0.60937,0.72657 0,0.60937 0.51562,1.03125 1.19531,1.03125 1.19531,0 2.40234,-1.10157 2.74219,-2.42579 l 1.17187,-4.66406 c 0.0117,-0.0586 0.0352,-0.1289 0.0352,-0.19922 0,-0.17578 -0.15235,-0.30468 -0.32813,-0.30468 -0.10547,0 -0.36328,0.0469 -0.45703,0.41015 l -0.87891,3.51563 c -0.0586,0.21093 -0.0586,0.23437 -0.15234,0.375 -0.24609,0.32812 -0.64453,0.73828 -1.20703,0.73828 -0.67969,0 -0.73828,-0.65625 -0.73828,-0.98438 0,-0.67968 0.32812,-1.60547 0.64453,-2.46093 0.14062,-0.35157 0.21094,-0.51563 0.21094,-0.75 0,-0.50391 -0.36328,-0.96094 -0.94922,-0.96094 -1.10156,0 -1.53516,1.73437 -1.53516,1.82812 0,0.0469 0.0469,0.10547 0.12891,0.10547 0.10547,0 0.11719,-0.0469 0.16406,-0.21094 0.29297,-1.00781 0.73828,-1.47656 1.20703,-1.47656 0.10547,0 0.31641,0 0.31641,0.38672 0,0.31641 -0.14063,0.65625 -0.31641,1.11328 -0.58594,1.57031 -0.58594,1.95703 -0.58594,2.25 0,1.13672 0.8086,1.39453 1.40625,1.39453 0.35157,0 0.78516,-0.10547 1.19532,-0.55078 l 0.0117,0.0117 c -0.17579,0.70313 -0.29297,1.17188 -0.71485,1.75781 z m 0,0"
         style="fill:#000000;fill-opacity:1;fill-rule:nonzero;stroke:none" />
      <path
         id="path20"
         d="m 140.24899,308.26245 c 0,-0.91406 -0.1289,-2.39062 -0.79687,-3.77343 -0.70313,-1.44141 -1.67578,-2.21485 -1.81641,-2.21485 -0.0469,0 -0.10547,0.0234 -0.10547,0.0937 0,0.0352 0,0.0586 0.19922,0.26953 1.19531,1.20703 1.875,3.17578 1.875,5.61328 0,2.32032 -0.5625,4.3125 -1.95703,5.73047 -0.11719,0.10547 -0.11719,0.12891 -0.11719,0.16407 0,0.0703 0.0586,0.0937 0.10547,0.0937 0.16406,0 1.13672,-0.85547 1.72266,-2.02735 0.60937,-1.21875 0.89062,-2.51953 0.89062,-3.94922 z m 0,0"
         style="fill:#000000;fill-opacity:1;fill-rule:nonzero;stroke:none" />
      <path
         id="path21"
         d="m 21.268523,338.09546 c -0.375,0.0703 -0.515625,0.35156 -0.515625,0.58594 0,0.28125 0.222657,0.375 0.386719,0.375 0.363281,0 0.609375,-0.30469 0.609375,-0.63281 0,-0.49219 -0.574219,-0.72657 -1.078125,-0.72657 -0.726562,0 -1.125,0.71485 -1.242187,0.94922 -0.269532,-0.90234 -1.007813,-0.94922 -1.230469,-0.94922 -1.21875,0 -1.863281,1.57032 -1.863281,1.82813 0,0.0469 0.04687,0.10547 0.128906,0.10547 0.105469,0 0.128906,-0.0703 0.152344,-0.11719 0.398437,-1.32422 1.207031,-1.57031 1.546875,-1.57031 0.539062,0 0.644531,0.49218 0.644531,0.78515 0,0.25782 -0.07031,0.53907 -0.210938,1.11328 -0.1875,0.76172 -0.234375,0.9375 -0.410156,1.62891 -0.175781,0.72656 -0.527344,1.38281 -1.160156,1.38281 -0.05859,0 -0.351563,0 -0.609375,-0.15234 0.433594,-0.0937 0.527344,-0.44531 0.527344,-0.58594 0,-0.24609 -0.175782,-0.38672 -0.398438,-0.38672 -0.292969,0 -0.597656,0.2461 -0.597656,0.63282 0,0.5039 0.5625,0.72656 1.066406,0.72656 0.574219,0 0.984375,-0.45703 1.230469,-0.9375 0.199219,0.70312 0.796875,0.9375 1.230469,0.9375 1.230468,0 1.875,-1.5586 1.875,-1.82813 0,-0.0586 -0.04687,-0.10547 -0.128907,-0.10547 -0.105468,0 -0.117187,0.0586 -0.152343,0.15235 -0.316407,1.05469 -1.019532,1.54687 -1.546875,1.54687 -0.421875,0 -0.65625,-0.3164 -0.65625,-0.80859 0,-0.25781 0.05859,-0.44531 0.246093,-1.24219 0.140625,-0.55078 0.292969,-1.18359 0.421875,-1.61719 0.175782,-0.72656 0.585938,-1.24218 1.125,-1.24218 0.03516,0 0.363282,0 0.609375,0.15234 z m 0,0"
         style="fill:#000000;fill-opacity:1;fill-rule:nonzero;stroke:none" />
      <path
         id="path22"
         d="m 29.685516,340.20484 h 3.304687 c 0.164063,0 0.375,0 0.375,-0.21094 0,-0.22266 -0.199219,-0.22266 -0.375,-0.22266 h -3.304687 v -3.30469 c 0,-0.16406 0,-0.38671 -0.210938,-0.38671 -0.234375,0 -0.234375,0.21093 -0.234375,0.38671 v 3.30469 h -3.292969 c -0.175781,0 -0.386718,0 -0.386718,0.21094 0,0.22266 0.199218,0.22266 0.386718,0.22266 h 3.292969 v 3.30468 c 0,0.16407 0,0.38672 0.222656,0.38672 0.222657,0 0.222657,-0.21094 0.222657,-0.38672 z m 30.788086,-12.98731 c 0,-0.26953 0,-0.28125 -0.246094,-0.28125 -0.28125,0.31641 -0.878906,0.76172 -2.109375,0.76172 v 0.35156 c 0.269531,0 0.867187,0 1.523437,-0.3164 v 6.22265 c 0,0.4336 -0.03516,0.57422 -1.078125,0.57422 h -0.375 v 0.35156 c 0.316407,-0.0234 1.476563,-0.0234 1.875,-0.0234 0.398438,0 1.546875,0 1.863282,0.0234 v -0.35156 h -0.363282 c -1.054687,0 -1.089843,-0.14062 -1.089843,-0.57422 z m 0,0"
         style="fill:#000000;fill-opacity:1;fill-rule:nonzero;stroke:none" />
    </g>
    <path
       id="path23"
       d="M 0,0 H 44.16"
       style="fill:none;stroke:#000000;stroke-width:0.398;stroke-linecap:butt;stroke-linejoin:miter;stroke-miterlimit:10;stroke-dasharray:none;stroke-opacity:1"
       transform="matrix(1.3333333,0,0,-1.3333333,325.22267,509.37867)" />
    <g
       id="g23"
       aria-label="y−2021&#10;=y+&#10;1"
       transform="matrix(1.3333333,0,0,1.3333333,325.22267,524.29733)">
      <path
         id="path24"
         d="M 3.1406172,1.3355938 C 2.8242109,1.792625 2.3554609,2.2027813 1.7695234,2.2027813 c -0.140625,0 -0.7148437,-0.023437 -0.90234371,-0.5742188 0.046875,0.011719 0.10546875,0.011719 0.12890625,0.011719 0.35156246,0 0.59765626,-0.3164063 0.59765626,-0.5859375 0,-0.28125005 -0.234375,-0.37500005 -0.4101563,-0.37500005 -0.18749996,0 -0.60937496,0.140625 -0.60937496,0.72656255 0,0.609375 0.51562496,1.03125 1.19531246,1.03125 1.1953125,0 2.4023438,-1.1015625 2.7421875,-2.4257813 l 1.171875,-4.6640625 c 0.011719,-0.058594 0.035156,-0.1289062 0.035156,-0.1992187 0,-0.1757813 -0.1523438,-0.3046875 -0.328125,-0.3046875 -0.1054688,0 -0.3632813,0.046875 -0.4570313,0.4101562 l -0.8789062,3.515625 c -0.058594,0.2109375 -0.058594,0.234375 -0.1523438,0.375 -0.2460937,0.328125 -0.6445312,0.73828125 -1.2070312,0.73828125 -0.6796875,0 -0.7382813,-0.65625 -0.7382813,-0.98437495 0,-0.6796875 0.328125,-1.6054688 0.6445313,-2.4609375 0.140625,-0.3515625 0.2109375,-0.515625 0.2109375,-0.75 0,-0.5039063 -0.3632813,-0.9609375 -0.9492188,-0.9609375 -1.10156246,0 -1.53515621,1.734375 -1.53515621,1.828125 0,0.046875 0.046875,0.1054687 0.12890625,0.1054687 0.10546875,0 0.1171875,-0.046875 0.1640625,-0.2109375 0.29296875,-1.0078125 0.73828126,-1.4765625 1.20703126,-1.4765625 0.1054687,0 0.3164062,0 0.3164062,0.3867188 0,0.3164062 -0.140625,0.65625 -0.3164062,1.1132812 -0.5859375,1.5703125 -0.5859375,1.9570313 -0.5859375,2.25 0,1.13671875 0.8085937,1.39453125 1.40625,1.39453125 0.3515625,0 0.7851562,-0.10546875 1.1953125,-0.55078125 l 0.011719,0.0117188 C 3.6796797,0.2809065 3.5624922,0.7496565 3.1406172,1.3355938 Z m 0,0"
         style="fill:#000000;fill-opacity:1;fill-rule:nonzero;stroke:none" />
      <path
         id="path25"
         d="m 16.690422,-2.75425 c 0.175781,0 0.398437,0 0.398437,-0.234375 0,-0.234375 -0.222656,-0.234375 -0.398437,-0.234375 h -6.515625 c -0.164063,0 -0.3867189,0 -0.3867189,0.234375 0,0.234375 0.2226559,0.234375 0.3867189,0.234375 z m 0,0"
         style="fill:#000000;fill-opacity:1;fill-rule:nonzero;stroke:none" />
      <path
         id="path26"
         d="m 26.009758,-2.00425 h -0.269531 c -0.03516,0.1992188 -0.128907,0.8554688 -0.246094,1.04296875 -0.08203,0.1171875 -0.761719,0.1171875 -1.125,0.1171875 h -2.214844 c 0.328125,-0.28124995 1.054688,-1.04296875 1.371094,-1.33593745 1.816406,-1.6640625 2.484375,-2.2851563 2.484375,-3.46875 0,-1.3828125 -1.089844,-2.296875 -2.472656,-2.296875 -1.394532,0 -2.203125,1.1835937 -2.203125,2.203125 0,0.609375 0.527343,0.609375 0.5625,0.609375 0.246093,0 0.5625,-0.1757813 0.5625,-0.5625 0,-0.328125 -0.234375,-0.5507813 -0.5625,-0.5507813 -0.105469,0 -0.128907,0 -0.164063,0.011719 0.222656,-0.8203125 0.867188,-1.3710938 1.640625,-1.3710938 1.019531,0 1.640625,0.8554688 1.640625,1.9570313 0,1.0078125 -0.585937,1.8984375 -1.265625,2.6601562 l -2.414062,2.70703125 v 0.28125 h 4.359375 z m 5.947265,-1.8164062 c 0,-0.9960938 -0.05859,-1.96875 -0.492187,-2.8710938 -0.492188,-0.9960937 -1.347656,-1.2539062 -1.933594,-1.2539062 -0.691406,0 -1.546875,0.3398437 -1.980469,1.3359375 -0.339843,0.75 -0.457031,1.4882812 -0.457031,2.7890625 0,1.1601562 0.08203,2.0273437 0.515625,2.8710937 0.457031,0.9140625 1.289063,1.1953125 1.910156,1.1953125 1.042969,0 1.640625,-0.62109375 1.980469,-1.3125 0.433594,-0.890625 0.457031,-2.0625 0.457031,-2.7539062 z m -2.4375,3.8320312 c -0.386718,0 -1.160156,-0.2109375 -1.382812,-1.5234375 C 27.996086,-2.2269062 27.996086,-3.12925 27.996086,-3.973 c 0,-0.9726562 0,-1.8632812 0.199219,-2.5664062 0.199218,-0.796875 0.808593,-1.171875 1.324218,-1.171875 0.457032,0 1.148438,0.28125 1.371094,1.3007812 0.152344,0.6796875 0.152344,1.6289063 0.152344,2.4375 0,0.8085938 0,1.7109375 -0.128906,2.4375 -0.222657,1.32421875 -0.972657,1.546875 -1.394532,1.546875 z m 8.197266,-2.015625 h -0.269531 c -0.03516,0.1992188 -0.128906,0.8554688 -0.246094,1.04296875 -0.08203,0.1171875 -0.761719,0.1171875 -1.125,0.1171875 H 33.86132 c 0.328125,-0.28124995 1.054688,-1.04296875 1.371094,-1.33593745 1.816406,-1.6640625 2.484375,-2.2851563 2.484375,-3.46875 0,-1.3828125 -1.089844,-2.296875 -2.472656,-2.296875 -1.394531,0 -2.203125,1.1835937 -2.203125,2.203125 0,0.609375 0.527344,0.609375 0.5625,0.609375 0.246094,0 0.5625,-0.1757813 0.5625,-0.5625 0,-0.328125 -0.234375,-0.5507813 -0.5625,-0.5507813 -0.105469,0 -0.128906,0 -0.164063,0.011719 0.222657,-0.8203125 0.867188,-1.3710938 1.640625,-1.3710938 1.019532,0 1.640625,0.8554688 1.640625,1.9570313 0,1.0078125 -0.585937,1.8984375 -1.265625,2.6601562 l -2.414062,2.70703125 v 0.28125 h 4.359375 z m 4.037109,-5.6601562 c 0,-0.2695313 0,-0.28125 -0.246093,-0.28125 -0.28125,0.3164062 -0.878907,0.7617187 -2.109375,0.7617187 v 0.3515625 c 0.269531,0 0.867187,0 1.523437,-0.3164062 v 6.2226562 c 0,0.43359375 -0.03516,0.57421875 -1.078125,0.57421875 h -0.375 v 0.3515625 c 0.316406,-0.0234375 1.476563,-0.0234375 1.875,-0.0234375 0.398438,0 1.546875,0 1.863281,0.0234375 v -0.3515625 h -0.363281 c -1.054687,0 -1.089844,-0.140625 -1.089844,-0.57421875 z m 14.997071,-4.4033208 c 0.164062,0 0.375,0 0.375,-0.222656 0,-0.222656 -0.199219,-0.222656 -0.375,-0.222656 H 49.708 c -0.175781,0 -0.386719,0 -0.386719,0.210937 0,0.234375 0.199219,0.234375 0.386719,0.234375 z m 0,2.2148442 c 0.164062,0 0.375,0 0.375,-0.2109372 0,-0.234375 -0.199219,-0.234375 -0.375,-0.234375 H 49.708 c -0.175781,0 -0.386719,0 -0.386719,0.222656 0,0.2226562 0.199219,0.2226562 0.386719,0.2226562 z m 0,0"
         style="fill:#000000;fill-opacity:1;fill-rule:nonzero;stroke:none" />
      <path
         id="path27"
         d="m 64.24218,-6.8646016 c -0.316407,0.4570313 -0.785157,0.8671875 -1.371094,0.8671875 -0.140625,0 -0.714844,-0.023437 -0.902344,-0.5742187 0.04687,0.011719 0.105469,0.011719 0.128906,0.011719 0.351563,0 0.597657,-0.3164062 0.597657,-0.5859375 0,-0.28125 -0.234375,-0.375 -0.410157,-0.375 -0.1875,0 -0.609375,0.140625 -0.609375,0.7265625 0,0.609375 0.515625,1.03125 1.195313,1.03125 1.195312,0 2.402344,-1.1015625 2.742187,-2.4257812 l 1.171875,-4.664063 c 0.01172,-0.05859 0.03516,-0.128906 0.03516,-0.199219 0,-0.175781 -0.152344,-0.304687 -0.328125,-0.304687 -0.105469,0 -0.363282,0.04687 -0.457032,0.410156 l -0.878906,3.5156255 c -0.05859,0.2109375 -0.05859,0.234375 -0.152344,0.375 -0.246093,0.328125 -0.644531,0.7382812 -1.207031,0.7382812 -0.679687,0 -0.738281,-0.65625 -0.738281,-0.984375 0,-0.6796875 0.328125,-1.6054687 0.644531,-2.4609377 0.140625,-0.351563 0.210938,-0.515625 0.210938,-0.75 0,-0.503906 -0.363282,-0.960938 -0.949219,-0.960938 -1.101563,0 -1.535156,1.734375 -1.535156,1.828125 0,0.04687 0.04687,0.105469 0.128906,0.105469 0.105469,0 0.117187,-0.04687 0.164062,-0.210937 0.292969,-1.007813 0.738282,-1.476563 1.207032,-1.476563 0.105468,0 0.316406,0 0.316406,0.386719 0,0.316406 -0.140625,0.65625 -0.316406,1.113281 -0.585938,1.570313 -0.585938,1.9570317 -0.585938,2.2500005 0,1.1367187 0.808594,1.3945312 1.40625,1.3945312 0.351563,0 0.785156,-0.1054687 1.195313,-0.5507812 l 0.01172,0.011719 c -0.175781,0.703125 -0.292968,1.171875 -0.714843,1.7578125 z m 0,0"
         style="fill:#000000;fill-opacity:1;fill-rule:nonzero;stroke:none" />
      <path
         id="path28"
         d="m 74.663078,-10.966164 h 3.304688 c 0.164062,0 0.375,0 0.375,-0.210938 0,-0.222656 -0.199219,-0.222656 -0.375,-0.222656 h -3.304688 v -3.304687 c 0,-0.164063 0,-0.386719 -0.210937,-0.386719 -0.234375,0 -0.234375,0.210937 -0.234375,0.386719 v 3.304687 h -3.292969 c -0.175781,0 -0.386719,0 -0.386719,0.210938 0,0.222656 0.199219,0.222656 0.386719,0.222656 h 3.292969 v 3.3046874 c 0,0.1640625 0,0.3867188 0.222656,0.3867188 0.222656,0 0.222656,-0.2109375 0.222656,-0.3867188 z m 31.045902,-12.987305 c 0,-0.269531 0,-0.28125 -0.2461,-0.28125 -0.28125,0.316407 -0.8789,0.761719 -2.10937,0.761719 v 0.351563 c 0.26953,0 0.86719,0 1.52344,-0.316407 v 6.222657 c 0,0.433593 -0.0352,0.574218 -1.07813,0.574218 h -0.375 v 0.351563 c 0.31641,-0.02344 1.47656,-0.02344 1.875,-0.02344 0.39844,0 1.54688,0 1.86328,0.02344 v -0.351563 h -0.36328 c -1.05469,0 -1.08984,-0.140625 -1.08984,-0.574218 z m 0,0"
         style="fill:#000000;fill-opacity:1;fill-rule:nonzero;stroke:none" />
    </g>
    <path
       id="path29"
       d="M 0,0 H 44.676"
       style="fill:none;stroke:#000000;stroke-width:0.398;stroke-linecap:butt;stroke-linejoin:miter;stroke-miterlimit:10;stroke-dasharray:none;stroke-opacity:1"
       transform="matrix(1.3333333,0,0,-1.3333333,435.692,509.37867)" />
    <g
       id="g29"
       aria-label="x−2021&#10;.&#10;ZADANIE5.&#10;Wzbiorzeliczbrzeczywistychrozwi¡»ukªadrówna«&#10;&#10;&#10;&#10;&#10;&#10;&#10;&#10;25x&#10;2&#10;+9y&#10;2&#10;=12yz&#10;9y&#10;2&#10;+4z&#10;2&#10;=20xz&#10;4z&#10;2&#10;+25x&#10;2&#10;=30xy."
       transform="matrix(1.3333333,0,0,1.3333333,435.692,524.29733)">
      <path
         id="path30"
         d="m 5.6597109,-4.8753437 c -0.375,0.070312 -0.515625,0.3515625 -0.515625,0.5859375 0,0.28125 0.2226563,0.375 0.3867188,0.375 0.3632812,0 0.609375,-0.3046875 0.609375,-0.6328125 0,-0.4921875 -0.5742188,-0.7265625 -1.078125,-0.7265625 -0.7265625,0 -1.125,0.7148437 -1.2421875,0.9492187 -0.2695313,-0.9023437 -1.0078125,-0.9492187 -1.2304688,-0.9492187 -1.21875,0 -1.86328121,1.5703125 -1.86328121,1.828125 0,0.046875 0.046875,0.1054687 0.12890625,0.1054687 0.10546875,0 0.12890625,-0.070312 0.15234376,-0.1171875 0.3984375,-1.3242187 1.2070312,-1.5703125 1.546875,-1.5703125 0.5390625,0 0.6445312,0.4921875 0.6445312,0.7851563 0,0.2578125 -0.070312,0.5390625 -0.2109375,1.1132812 -0.1875,0.7617188 -0.234375,0.9375 -0.4101562,1.6289063 -0.1757813,0.72656245 -0.5273438,1.38281245 -1.1601563,1.38281245 -0.058594,0 -0.3515625,0 -0.60937496,-0.15234375 0.43359376,-0.09375 0.52734376,-0.4453125 0.52734376,-0.5859375 0,-0.2460937 -0.1757813,-0.3867187 -0.39843751,-0.3867187 -0.29296875,0 -0.59765625,0.2460937 -0.59765625,0.63281245 0,0.50390625 0.5625,0.7265625 1.06640626,0.7265625 0.5742187,0 0.984375,-0.45703125 1.2304687,-0.9375 0.1992188,0.703125 0.796875,0.9375 1.2304688,0.9375 1.2304687,0 1.875,-1.55859375 1.875,-1.82812495 0,-0.058594 -0.046875,-0.1054688 -0.1289063,-0.1054688 -0.1054687,0 -0.1171875,0.058594 -0.1523437,0.1523438 -0.3164063,1.05468745 -1.0195313,1.54687495 -1.546875,1.54687495 -0.421875,0 -0.65625,-0.31640625 -0.65625,-0.80859375 0,-0.2578125 0.058594,-0.4453125 0.2460937,-1.2421875 0.140625,-0.5507812 0.2929688,-1.1835937 0.421875,-1.6171875 0.1757813,-0.7265625 0.5859375,-1.2421875 1.125,-1.2421875 0.035156,0 0.3632813,0 0.609375,0.1523438 z m 0,0"
         style="fill:#000000;fill-opacity:1;fill-rule:nonzero;stroke:none" />
      <path
         id="path31"
         d="m 17.208539,-2.75425 c 0.175781,0 0.398438,0 0.398438,-0.234375 0,-0.234375 -0.222657,-0.234375 -0.398438,-0.234375 h -6.515625 c -0.164062,0 -0.386719,0 -0.386719,0.234375 0,0.234375 0.222657,0.234375 0.386719,0.234375 z m 0,0"
         style="fill:#000000;fill-opacity:1;fill-rule:nonzero;stroke:none" />
      <path
         id="path32"
         d="m 26.524945,-2.00425 h -0.269531 c -0.03516,0.1992188 -0.128906,0.8554688 -0.246094,1.04296875 -0.08203,0.1171875 -0.761718,0.1171875 -1.125,0.1171875 h -2.214843 c 0.328125,-0.28124995 1.054687,-1.04296875 1.371093,-1.33593745 1.816407,-1.6640625 2.484375,-2.2851563 2.484375,-3.46875 0,-1.3828125 -1.089843,-2.296875 -2.472656,-2.296875 -1.394531,0 -2.203125,1.1835937 -2.203125,2.203125 0,0.609375 0.527344,0.609375 0.5625,0.609375 0.246094,0 0.5625,-0.1757813 0.5625,-0.5625 0,-0.328125 -0.234375,-0.5507813 -0.5625,-0.5507813 -0.105469,0 -0.128906,0 -0.164062,0.011719 0.222656,-0.8203125 0.867187,-1.3710938 1.640625,-1.3710938 1.019531,0 1.640625,0.8554688 1.640625,1.9570313 0,1.0078125 -0.585938,1.8984375 -1.265625,2.6601562 l -2.414063,2.70703125 v 0.28125 h 4.359375 z m 5.947266,-1.8164062 c 0,-0.9960938 -0.05859,-1.96875 -0.492188,-2.8710938 -0.492187,-0.9960937 -1.347656,-1.2539062 -1.933593,-1.2539062 -0.691407,0 -1.546875,0.3398437 -1.980469,1.3359375 -0.339844,0.75 -0.457031,1.4882812 -0.457031,2.7890625 0,1.1601562 0.08203,2.0273437 0.515625,2.8710937 0.457031,0.9140625 1.289062,1.1953125 1.910156,1.1953125 1.042969,0 1.640625,-0.62109375 1.980469,-1.3125 0.433593,-0.890625 0.457031,-2.0625 0.457031,-2.7539062 z m -2.4375,3.8320312 c -0.386719,0 -1.160156,-0.2109375 -1.382813,-1.5234375 C 28.511273,-2.2269062 28.511273,-3.12925 28.511273,-3.973 c 0,-0.9726562 0,-1.8632812 0.199219,-2.5664062 0.199219,-0.796875 0.808594,-1.171875 1.324219,-1.171875 0.457031,0 1.148437,0.28125 1.371094,1.3007812 0.152343,0.6796875 0.152343,1.6289063 0.152343,2.4375 0,0.8085938 0,1.7109375 -0.128906,2.4375 -0.222656,1.32421875 -0.972656,1.546875 -1.394531,1.546875 z m 8.197266,-2.015625 h -0.269532 c -0.03516,0.1992188 -0.128906,0.8554688 -0.246093,1.04296875 -0.08203,0.1171875 -0.761719,0.1171875 -1.125,0.1171875 h -2.214844 c 0.328125,-0.28124995 1.054687,-1.04296875 1.371094,-1.33593745 1.816406,-1.6640625 2.484375,-2.2851563 2.484375,-3.46875 0,-1.3828125 -1.089844,-2.296875 -2.472657,-2.296875 -1.394531,0 -2.203125,1.1835937 -2.203125,2.203125 0,0.609375 0.527344,0.609375 0.5625,0.609375 0.246094,0 0.5625,-0.1757813 0.5625,-0.5625 0,-0.328125 -0.234375,-0.5507813 -0.5625,-0.5507813 -0.105468,0 -0.128906,0 -0.164062,0.011719 0.222656,-0.8203125 0.867187,-1.3710938 1.640625,-1.3710938 1.019531,0 1.640625,0.8554688 1.640625,1.9570313 0,1.0078125 -0.585938,1.8984375 -1.265625,2.6601562 l -2.414063,2.70703125 v 0.28125 h 4.359375 z m 4.037109,-5.6601562 c 0,-0.2695313 0,-0.28125 -0.246094,-0.28125 -0.28125,0.3164062 -0.878906,0.7617187 -2.109375,0.7617187 v 0.3515625 c 0.269531,0 0.867188,0 1.523438,-0.3164062 v 6.2226562 c 0,0.43359375 -0.03516,0.57421875 -1.078125,0.57421875 h -0.375 v 0.3515625 c 0.316406,-0.0234375 1.476562,-0.0234375 1.875,-0.0234375 0.398437,0 1.546875,0 1.863281,0.0234375 v -0.3515625 H 43.35893 c -1.054688,0 -1.089844,-0.140625 -1.089844,-0.57421875 z m 0,0"
         style="fill:#000000;fill-opacity:1;fill-rule:nonzero;stroke:none" />
      <path
         id="path33"
         d="m 48.072797,-8.7747578 c 0,-0.3515625 -0.292969,-0.5859375 -0.574219,-0.5859375 -0.351562,0 -0.585937,0.2929687 -0.585937,0.5742187 0,0.3515625 0.28125,0.5859375 0.574218,0.5859375 0.339844,0 0.585938,-0.28125 0.585938,-0.5742187 z m 0,0"
         style="fill:#000000;fill-opacity:1;fill-rule:nonzero;stroke:none" />
      <path
         id="path34"
         d="m -82.638141,59.853172 c 0,-0.820313 0.222657,-2.71875 1.992188,-3.972656 0.128906,-0.105469 0.140625,-0.105469 0.140625,-0.292969 0,-0.222656 -0.01172,-0.234375 -0.257813,-0.234375 h -0.152343 c -2.144532,1.148437 -2.917969,3.035156 -2.917969,4.5 v 4.289062 c 0,0.257813 0.01172,0.269532 0.28125,0.269532 h 0.644531 c 0.269531,0 0.269531,-0.01172 0.269531,-0.269532 z m 0,4.617187 c 0,-0.257812 0,-0.269531 -0.269531,-0.269531 h -0.644531 c -0.269531,0 -0.28125,0.01172 -0.28125,0.269531 v 2.660157 c 0,0.257812 0.01172,0.269531 0.28125,0.269531 h 0.644531 c 0.269531,0 0.269531,-0.01172 0.269531,-0.269531 z m 0,2.988282 c 0,-0.257813 0,-0.269532 -0.269531,-0.269532 h -0.644531 c -0.269531,0 -0.28125,0.01172 -0.28125,0.269532 v 2.660156 c 0,0.257812 0.01172,0.269531 0.28125,0.269531 h 0.644531 c 0.269531,0 0.269531,-0.01172 0.269531,-0.269531 z m 0,16.382812 c 0,-1.207031 -0.503906,-3.234375 -2.730468,-4.59375 2.25,-1.359375 2.730468,-3.421875 2.730468,-4.59375 v -4.207031 c 0,-0.257813 0,-0.269531 -0.269531,-0.269531 h -0.644531 c -0.269531,0 -0.28125,0.01172 -0.28125,0.269531 v 4.21875 c 0,0.832031 -0.175781,2.90625 -2.003906,4.300781 -0.117188,0.09375 -0.117188,0.105469 -0.117188,0.28125 0,0.175781 0,0.1875 0.117188,0.28125 0.257812,0.199219 0.9375,0.726563 1.417968,1.734375 0.386719,0.796875 0.585938,1.675781 0.585938,2.566406 v 4.21875 c 0,0.257813 0.01172,0.269532 0.28125,0.269532 h 0.644531 c 0.269531,0 0.269531,-0.01172 0.269531,-0.269532 z m 0,4.541016 c 0,-0.257813 0,-0.269531 -0.269531,-0.269531 h -0.644531 c -0.269531,0 -0.28125,0.01172 -0.28125,0.269531 v 2.660156 c 0,0.257813 0.01172,0.269531 0.28125,0.269531 h 0.644531 c 0.269531,0 0.269531,-0.01172 0.269531,-0.269531 z m 0,2.988281 c 0,-0.257812 0,-0.269531 -0.269531,-0.269531 h -0.644531 c -0.269531,0 -0.28125,0.01172 -0.28125,0.269531 v 2.660156 c 0,0.257813 0.01172,0.269532 0.28125,0.269532 h 0.644531 c 0.269531,0 0.269531,-0.01172 0.269531,-0.269532 z m 0,2.988281 c 0,-0.257812 0,-0.269531 -0.269531,-0.269531 h -0.644531 c -0.269531,0 -0.28125,0.01172 -0.28125,0.269531 v 4.289063 c 0,1.476566 0.773437,3.351566 2.917969,4.499996 h 0.152343 c 0.246094,0 0.257813,-0.0117 0.257813,-0.23437 0,-0.1875 -0.01172,-0.1875 -0.04687,-0.22266 -0.304688,-0.22265 -1.019531,-0.73828 -1.488281,-1.65234 -0.398438,-0.76172 -0.597657,-1.523439 -0.597657,-2.390626 z m 0,0"
         style="fill:#000000;fill-opacity:1;fill-rule:nonzero;stroke:none" />
      <path
         id="path35"
         d="m -73.535602,63.377586 h -0.269531 c -0.03516,0.199219 -0.128906,0.855469 -0.246094,1.042969 -0.08203,0.117187 -0.761718,0.117187 -1.125,0.117187 h -2.214843 c 0.328125,-0.28125 1.054687,-1.042969 1.371093,-1.335937 1.816407,-1.664063 2.484375,-2.285157 2.484375,-3.46875 0,-1.382813 -1.089843,-2.296875 -2.472656,-2.296875 -1.394531,0 -2.203125,1.183593 -2.203125,2.203125 0,0.609375 0.527344,0.609375 0.5625,0.609375 0.246094,0 0.5625,-0.175782 0.5625,-0.5625 0,-0.328125 -0.234375,-0.550782 -0.5625,-0.550782 -0.105469,0 -0.128906,0 -0.164062,0.01172 0.222656,-0.820312 0.867187,-1.371094 1.640625,-1.371094 1.019531,0 1.640625,0.855469 1.640625,1.957032 0,1.007812 -0.585938,1.898437 -1.265625,2.660156 l -2.414063,2.707031 v 0.28125 h 4.359375 z m 2.126954,-4.839844 c 0.503906,0.164063 0.925781,0.175781 1.054687,0.175781 1.359375,0 2.214844,-0.996093 2.214844,-1.160156 0,-0.04687 -0.02344,-0.105469 -0.09375,-0.105469 -0.02344,0 -0.04687,0 -0.152344,0.04687 -0.667969,0.28125 -1.242187,0.316407 -1.558594,0.316407 -0.785156,0 -1.347656,-0.234375 -1.582031,-0.328125 -0.08203,-0.03516 -0.105469,-0.03516 -0.117187,-0.03516 -0.09375,0 -0.09375,0.07031 -0.09375,0.257813 v 3.550781 c 0,0.210938 0,0.292969 0.140625,0.292969 0.05859,0 0.07031,-0.01172 0.199218,-0.164063 0.328125,-0.492187 0.890625,-0.773437 1.488282,-0.773437 0.632812,0 0.949218,0.585937 1.042968,0.785156 0.199219,0.46875 0.210938,1.054688 0.210938,1.511719 0,0.457031 0,1.136719 -0.328125,1.675781 -0.269531,0.421875 -0.738281,0.726563 -1.253906,0.726563 -0.796875,0 -1.570313,-0.539063 -1.78125,-1.40625 0.05859,0.02344 0.128906,0.03516 0.1875,0.03516 0.199218,0 0.527343,-0.128906 0.527343,-0.527344 0,-0.339844 -0.234375,-0.527344 -0.527343,-0.527344 -0.210938,0 -0.527344,0.105469 -0.527344,0.574219 0,1.007813 0.808594,2.167969 2.144531,2.167969 1.347656,0 2.53125,-1.125 2.53125,-2.648438 0,-1.417968 -0.960937,-2.601562 -2.214844,-2.601562 -0.679687,0 -1.207031,0.292969 -1.511718,0.632812 z m 0,0"
         style="fill:#000000;fill-opacity:1;fill-rule:nonzero;stroke:none" />
      <path
         id="path36"
         d="m -61.430133,60.506492 c -0.375,0.07031 -0.515625,0.351563 -0.515625,0.585938 0,0.28125 0.222656,0.375 0.386719,0.375 0.363281,0 0.609375,-0.304688 0.609375,-0.632813 0,-0.492187 -0.574219,-0.726562 -1.078125,-0.726562 -0.726563,0 -1.125,0.714843 -1.242188,0.949218 -0.269531,-0.902343 -1.007812,-0.949218 -1.230468,-0.949218 -1.21875,0 -1.863282,1.570312 -1.863282,1.828125 0,0.04687 0.04687,0.105468 0.128907,0.105468 0.105468,0 0.128906,-0.07031 0.152343,-0.117187 0.398438,-1.324219 1.207032,-1.570313 1.546875,-1.570313 0.539063,0 0.644532,0.492188 0.644532,0.785157 0,0.257812 -0.07031,0.539062 -0.210938,1.113281 -0.1875,0.761719 -0.234375,0.9375 -0.410156,1.628906 -0.175781,0.726563 -0.527344,1.382813 -1.160156,1.382813 -0.05859,0 -0.351563,0 -0.609375,-0.152344 0.433593,-0.09375 0.527343,-0.445313 0.527343,-0.585938 0,-0.246093 -0.175781,-0.386718 -0.398437,-0.386718 -0.292969,0 -0.597656,0.246093 -0.597656,0.632812 0,0.503906 0.5625,0.726563 1.066406,0.726563 0.574219,0 0.984375,-0.457032 1.230469,-0.9375 0.199218,0.703125 0.796875,0.9375 1.230468,0.9375 1.230469,0 1.875,-1.558594 1.875,-1.828125 0,-0.05859 -0.04687,-0.105469 -0.128906,-0.105469 -0.105469,0 -0.117187,0.05859 -0.152344,0.152344 -0.316406,1.054687 -1.019531,1.546875 -1.546875,1.546875 -0.421875,0 -0.65625,-0.316407 -0.65625,-0.808594 0,-0.257813 0.05859,-0.445313 0.246094,-1.242188 0.140625,-0.550781 0.292969,-1.183593 0.421875,-1.617187 0.175781,-0.726563 0.585938,-1.242188 1.125,-1.242188 0.03516,0 0.363281,0 0.609375,0.152344 z m 0,0"
         style="fill:#000000;fill-opacity:1;fill-rule:nonzero;stroke:none" />
      <path
         id="path37"
         d="m -58.189898,59.413719 c 0.128906,-0.117188 0.457031,-0.375 0.585937,-0.492188 0.492188,-0.457031 0.960938,-0.890625 0.960938,-1.617187 0,-0.949219 -0.796875,-1.558594 -1.792969,-1.558594 -0.949219,0 -1.582031,0.726563 -1.582031,1.429688 0,0.398437 0.316406,0.445312 0.421875,0.445312 0.164062,0 0.410156,-0.117187 0.410156,-0.421875 0,-0.410156 -0.398438,-0.410156 -0.492188,-0.410156 0.234375,-0.585938 0.773438,-0.785156 1.160157,-0.785156 0.738281,0 1.125,0.632812 1.125,1.300781 0,0.832031 -0.585938,1.429687 -1.523438,2.402344 l -1.007812,1.03125 c -0.09375,0.09375 -0.09375,0.105468 -0.09375,0.304687 h 3.152343 l 0.222657,-1.429687 h -0.246094 c -0.02344,0.164062 -0.08203,0.5625 -0.175781,0.714843 -0.04687,0.05859 -0.65625,0.05859 -0.785157,0.05859 h -1.417968 z m 0,0"
         style="fill:#000000;fill-opacity:1;fill-rule:nonzero;stroke:none" />
      <path
         id="path38"
         d="m -48.281695,62.615867 h 3.304687 c 0.164063,0 0.375,0 0.375,-0.210937 0,-0.222657 -0.199219,-0.222657 -0.375,-0.222657 h -3.304687 v -3.304687 c 0,-0.164063 0,-0.386719 -0.210938,-0.386719 -0.234375,0 -0.234375,0.210938 -0.234375,0.386719 v 3.304687 h -3.292969 c -0.175781,0 -0.386718,0 -0.386718,0.210938 0,0.222656 0.199218,0.222656 0.386718,0.222656 h 3.292969 v 3.304688 c 0,0.164062 0,0.386718 0.222656,0.386718 0.222657,0 0.222657,-0.210937 0.222657,-0.386718 z m 11.361328,-0.714844 c 0,2.824219 -1.253906,3.410157 -1.96875,3.410157 -0.28125,0 -0.925781,-0.03516 -1.21875,-0.457032 h 0.07031 c 0.08203,0.02344 0.515625,-0.04687 0.515625,-0.492187 0,-0.257813 -0.175781,-0.492188 -0.492187,-0.492188 -0.304688,0 -0.503906,0.210938 -0.503906,0.515625 0,0.75 0.597656,1.242188 1.640625,1.242188 1.5,0 2.941406,-1.582031 2.941406,-4.183594 0,-3.210937 -1.335938,-4.007812 -2.390625,-4.007812 -1.3125,0 -2.472656,1.101562 -2.472656,2.671875 0,1.582031 1.113281,2.660156 2.308593,2.660156 0.878907,0 1.335938,-0.644531 1.570313,-1.253906 z m -1.523438,0.621094 c -0.75,0 -1.078125,-0.609375 -1.183593,-0.832031 -0.199219,-0.457031 -0.199219,-1.03125 -0.199219,-1.570313 0,-0.667968 0,-1.242187 0.316406,-1.734375 0.210938,-0.316406 0.539063,-0.667968 1.183594,-0.667968 0.679687,0 1.03125,0.597656 1.148437,0.878906 0.234375,0.585937 0.234375,1.59375 0.234375,1.78125 0,0.996094 -0.445312,2.144531 -1.5,2.144531 z m 0,0"
         style="fill:#000000;fill-opacity:1;fill-rule:nonzero;stroke:none" />
      <path
         id="path39"
         d="m -32.294391,66.71743 c -0.316406,0.457031 -0.785156,0.867187 -1.371093,0.867187 -0.140625,0 -0.714844,-0.02344 -0.902344,-0.574219 0.04687,0.01172 0.105469,0.01172 0.128906,0.01172 0.351563,0 0.597656,-0.316406 0.597656,-0.585937 0,-0.28125 -0.234375,-0.375 -0.410156,-0.375 -0.1875,0 -0.609375,0.140625 -0.609375,0.726562 0,0.609375 0.515625,1.03125 1.195313,1.03125 1.195312,0 2.402343,-1.101562 2.742187,-2.425781 l 1.171875,-4.664063 c 0.01172,-0.05859 0.03516,-0.128906 0.03516,-0.199218 0,-0.175782 -0.152343,-0.304688 -0.328125,-0.304688 -0.105468,0 -0.363281,0.04687 -0.457031,0.410156 l -0.878906,3.515625 c -0.05859,0.210938 -0.05859,0.234375 -0.152344,0.375 -0.246094,0.328125 -0.644531,0.738282 -1.207031,0.738282 -0.679688,0 -0.738281,-0.65625 -0.738281,-0.984375 0,-0.679688 0.328125,-1.605469 0.644531,-2.460938 0.140625,-0.351562 0.210937,-0.515625 0.210937,-0.75 0,-0.503906 -0.363281,-0.960937 -0.949218,-0.960937 -1.101563,0 -1.535157,1.734375 -1.535157,1.828125 0,0.04687 0.04687,0.105468 0.128907,0.105468 0.105468,0 0.117187,-0.04687 0.164062,-0.210937 0.292969,-1.007813 0.738281,-1.476563 1.207031,-1.476563 0.105469,0 0.316407,0 0.316407,0.386719 0,0.316406 -0.140625,0.65625 -0.316407,1.113281 -0.585937,1.570313 -0.585937,1.957032 -0.585937,2.25 0,1.136719 0.808594,1.394532 1.40625,1.394532 0.351562,0 0.785156,-0.105469 1.195312,-0.550782 l 0.01172,0.01172 c -0.175781,0.703125 -0.292969,1.171875 -0.714844,1.757813 z m 0,0"
         style="fill:#000000;fill-opacity:1;fill-rule:nonzero;stroke:none" />
      <path
         id="path40"
         d="m -27.05025,59.413719 c 0.128906,-0.117188 0.457031,-0.375 0.585937,-0.492188 0.492188,-0.457031 0.960938,-0.890625 0.960938,-1.617187 0,-0.949219 -0.796875,-1.558594 -1.792969,-1.558594 -0.949219,0 -1.582031,0.726563 -1.582031,1.429688 0,0.398437 0.316406,0.445312 0.421875,0.445312 0.164062,0 0.410156,-0.117187 0.410156,-0.421875 0,-0.410156 -0.398437,-0.410156 -0.492187,-0.410156 0.234375,-0.585938 0.773437,-0.785156 1.160156,-0.785156 0.738281,0 1.125,0.632812 1.125,1.300781 0,0.832031 -0.585938,1.429687 -1.523438,2.402344 l -1.007812,1.03125 c -0.09375,0.09375 -0.09375,0.105468 -0.09375,0.304687 h 3.152344 l 0.222656,-1.429687 h -0.246094 c -0.02344,0.164062 -0.08203,0.5625 -0.175781,0.714843 -0.04687,0.05859 -0.65625,0.05859 -0.785156,0.05859 h -1.417969 z m 0,0"
         style="fill:#000000;fill-opacity:1;fill-rule:nonzero;stroke:none" />
      <path
         id="path41"
         d="m -13.17232,61.514305 c 0.164062,0 0.375,0 0.375,-0.222657 0,-0.222656 -0.199219,-0.222656 -0.375,-0.222656 h -7.042969 c -0.175781,0 -0.386719,0 -0.386719,0.210938 0,0.234375 0.199219,0.234375 0.386719,0.234375 z m 0,2.214843 c 0.164062,0 0.375,0 0.375,-0.210937 0,-0.234375 -0.199219,-0.234375 -0.375,-0.234375 h -7.042969 c -0.175781,0 -0.386719,0 -0.386719,0.222656 0,0.222656 0.199219,0.222656 0.386719,0.222656 z m 7.7988278,-6.011718 c 0,-0.269532 0,-0.28125 -0.2460937,-0.28125 -0.28125,0.316406 -0.8789063,0.761718 -2.109375,0.761718 v 0.351563 c 0.2695312,0 0.8671875,0 1.5234375,-0.316406 v 6.222656 c 0,0.433594 -0.035156,0.574219 -1.078125,0.574219 h -0.375 v 0.351562 c 0.3164062,-0.02344 1.4765625,-0.02344 1.875,-0.02344 0.3984375,0 1.546875,0 1.8632812,0.02344 V 65.02993 h -0.3632812 c -1.0546875,0 -1.0898438,-0.140625 -1.0898438,-0.574219 z m 7.6699219,5.660156 H 2.0268984 c -0.035156,0.199219 -0.1289062,0.855469 -0.2460937,1.042969 -0.082031,0.117187 -0.7617188,0.117187 -1.12500001,0.117187 H -1.5590391 c 0.328125,-0.28125 1.05468754,-1.042969 1.37109379,-1.335937 1.81640621,-1.664063 2.48437501,-2.285157 2.48437501,-3.46875 0,-1.382813 -1.0898438,-2.296875 -2.47265626,-2.296875 -1.39453124,0 -2.20312504,1.183593 -2.20312504,2.203125 0,0.609375 0.5273438,0.609375 0.5625,0.609375 0.2460938,0 0.5625,-0.175782 0.5625,-0.5625 0,-0.328125 -0.234375,-0.550782 -0.5625,-0.550782 -0.1054687,0 -0.1289062,0 -0.1640625,0.01172 0.2226563,-0.820312 0.8671875,-1.371094 1.64062504,-1.371094 1.01953125,0 1.64062496,0.855469 1.64062496,1.957032 0,1.007812 -0.58593746,1.898437 -1.26562496,2.660156 l -2.41406254,2.707031 v 0.28125 h 4.359375 z m 0,0"
         style="fill:#000000;fill-opacity:1;fill-rule:nonzero;stroke:none" />
      <path
         id="path42"
         d="m 6.0259219,66.71743 c -0.3164063,0.457031 -0.7851563,0.867187 -1.3710938,0.867187 -0.140625,0 -0.7148437,-0.02344 -0.9023437,-0.574219 0.046875,0.01172 0.1054687,0.01172 0.1289062,0.01172 0.3515625,0 0.5976563,-0.316406 0.5976563,-0.585937 0,-0.28125 -0.234375,-0.375 -0.4101563,-0.375 -0.1875,0 -0.609375,0.140625 -0.609375,0.726562 0,0.609375 0.515625,1.03125 1.1953125,1.03125 1.1953125,0 2.4023438,-1.101562 2.7421875,-2.425781 l 1.171875,-4.664063 c 0.011719,-0.05859 0.035156,-0.128906 0.035156,-0.199218 0,-0.175782 -0.1523438,-0.304688 -0.328125,-0.304688 -0.1054688,0 -0.3632813,0.04687 -0.4570313,0.410156 l -0.8789062,3.515625 c -0.058594,0.210938 -0.058594,0.234375 -0.1523438,0.375 -0.2460937,0.328125 -0.6445312,0.738282 -1.2070312,0.738282 -0.6796875,0 -0.7382813,-0.65625 -0.7382813,-0.984375 0,-0.679688 0.328125,-1.605469 0.6445313,-2.460938 0.140625,-0.351562 0.2109375,-0.515625 0.2109375,-0.75 0,-0.503906 -0.3632813,-0.960937 -0.9492188,-0.960937 -1.1015625,0 -1.5351562,1.734375 -1.5351562,1.828125 0,0.04687 0.046875,0.105468 0.1289062,0.105468 0.1054688,0 0.1171875,-0.04687 0.1640625,-0.210937 0.2929688,-1.007813 0.7382813,-1.476563 1.2070313,-1.476563 0.1054687,0 0.3164062,0 0.3164062,0.386719 0,0.316406 -0.140625,0.65625 -0.3164062,1.113281 -0.5859375,1.570313 -0.5859375,1.957032 -0.5859375,2.25 0,1.136719 0.8085937,1.394532 1.40625,1.394532 0.3515625,0 0.7851562,-0.105469 1.1953125,-0.550782 l 0.011719,0.01172 C 6.5649844,65.662742 6.4477969,66.131492 6.0259219,66.71743 Z M 10.54643,64.408836 c 0.503906,-0.585938 0.925781,-0.949219 1.523437,-1.488281 0.714844,-0.621094 1.03125,-0.925782 1.195313,-1.101563 0.84375,-0.820312 1.253906,-1.523437 1.253906,-1.617187 0,-0.09375 -0.09375,-0.09375 -0.117188,-0.09375 -0.08203,0 -0.105468,0.04687 -0.164062,0.128906 -0.304688,0.515625 -0.585938,0.773437 -0.902344,0.773437 -0.246094,0 -0.375,-0.117187 -0.609375,-0.398437 -0.246094,-0.292969 -0.457031,-0.503906 -0.796875,-0.503906 -0.878906,0 -1.394531,1.089843 -1.394531,1.335937 0,0.03516 0.01172,0.117188 0.117187,0.117188 0.09375,0 0.105469,-0.04687 0.140625,-0.140625 0.199219,-0.46875 0.773438,-0.5625 1.007813,-0.5625 0.246094,0 0.480469,0.09375 0.738281,0.199218 0.457031,0.1875 0.644531,0.1875 0.761719,0.1875 0.08203,0 0.128906,0 0.1875,-0.01172 -0.386719,0.46875 -1.03125,1.042968 -1.570313,1.535156 -0.761718,0.667969 -0.972656,0.878906 -1.207031,1.101562 -0.7265623,0.75 -1.1718748,1.453125 -1.1718748,1.535157 0,0.07031 0.058594,0.09375 0.1289062,0.09375 0.070312,0 0.082031,-0.01172 0.1640625,-0.152344 0.1992191,-0.304688 0.5742191,-0.738281 1.0195311,-0.738281 0.246094,0 0.375,0.08203 0.609375,0.375 0.222656,0.269531 0.433594,0.515625 0.808594,0.515625 1.171875,0 1.851562,-1.511719 1.851562,-1.792969 0,-0.04687 -0.01172,-0.117188 -0.140625,-0.117188 -0.09375,0 -0.105468,0.04687 -0.140625,0.164063 -0.257812,0.703125 -0.972656,0.996094 -1.429687,0.996094 -0.257813,0 -0.492188,-0.08203 -0.75,-0.1875 -0.46875,-0.199219 -0.609375,-0.199219 -0.761719,-0.199219 -0.117187,0 -0.246094,0 -0.351562,0.04687 z m 0,0"
         style="fill:#000000;fill-opacity:1;fill-rule:nonzero;stroke:none" />
      <path
         id="path43"
         d="m -74.426227,79.235984 c 0,2.824219 -1.253906,3.410157 -1.96875,3.410157 -0.28125,0 -0.925781,-0.03516 -1.21875,-0.457032 h 0.07031 c 0.08203,0.02344 0.515625,-0.04687 0.515625,-0.492187 0,-0.257813 -0.175781,-0.492188 -0.492188,-0.492188 -0.304687,0 -0.503906,0.210938 -0.503906,0.515625 0,0.75 0.597656,1.242188 1.640625,1.242188 1.5,0 2.941406,-1.582031 2.941406,-4.183594 0,-3.210937 -1.335937,-4.007812 -2.390625,-4.007812 -1.3125,0 -2.472656,1.101562 -2.472656,2.671875 0,1.582031 1.113281,2.660156 2.308594,2.660156 0.878906,0 1.335937,-0.644531 1.570312,-1.253906 z m -1.523437,0.621094 c -0.75,0 -1.078125,-0.609375 -1.183594,-0.832031 -0.199219,-0.457031 -0.199219,-1.03125 -0.199219,-1.570313 0,-0.667968 0,-1.242187 0.316407,-1.734375 0.210937,-0.316406 0.539062,-0.667968 1.183593,-0.667968 0.679688,0 1.03125,0.597656 1.148438,0.878906 0.234375,0.585937 0.234375,1.59375 0.234375,1.78125 0,0.996094 -0.445313,2.144531 -1.5,2.144531 z m 0,0"
         style="fill:#000000;fill-opacity:1;fill-rule:nonzero;stroke:none" />
      <path
         id="path44"
         d="m -69.80318,84.052391 c -0.316406,0.457031 -0.785156,0.867187 -1.371093,0.867187 -0.140625,0 -0.714844,-0.02344 -0.902344,-0.574219 0.04687,0.01172 0.105469,0.01172 0.128906,0.01172 0.351563,0 0.597656,-0.316406 0.597656,-0.585937 0,-0.28125 -0.234375,-0.375 -0.410156,-0.375 -0.1875,0 -0.609375,0.140625 -0.609375,0.726562 0,0.609375 0.515625,1.03125 1.195313,1.03125 1.195312,0 2.402343,-1.101562 2.742187,-2.425781 l 1.171875,-4.664063 c 0.01172,-0.05859 0.03516,-0.128906 0.03516,-0.199218 0,-0.175782 -0.152343,-0.304688 -0.328125,-0.304688 -0.105468,0 -0.363281,0.04687 -0.457031,0.410156 l -0.878906,3.515625 c -0.05859,0.210938 -0.05859,0.234375 -0.152344,0.375 -0.246094,0.328125 -0.644531,0.738282 -1.207031,0.738282 -0.679688,0 -0.738281,-0.65625 -0.738281,-0.984375 0,-0.679688 0.328125,-1.605469 0.644531,-2.460938 0.140625,-0.351562 0.210937,-0.515625 0.210937,-0.75 0,-0.503906 -0.363281,-0.960937 -0.949218,-0.960937 -1.101563,0 -1.535157,1.734375 -1.535157,1.828125 0,0.04687 0.04687,0.105468 0.128907,0.105468 0.105468,0 0.117187,-0.04687 0.164062,-0.210937 0.292969,-1.007813 0.738281,-1.476563 1.207031,-1.476563 0.105469,0 0.316407,0 0.316407,0.386719 0,0.316406 -0.140625,0.65625 -0.316407,1.113281 -0.585937,1.570313 -0.585937,1.957032 -0.585937,2.25 0,1.136719 0.808594,1.394532 1.40625,1.394532 0.351562,0 0.785156,-0.105469 1.195312,-0.550782 l 0.01172,0.01172 c -0.175781,0.703125 -0.292969,1.171875 -0.714844,1.757813 z m 0,0"
         style="fill:#000000;fill-opacity:1;fill-rule:nonzero;stroke:none" />
      <path
         id="path45"
         d="m -64.559039,76.74868 c 0.128906,-0.117188 0.457031,-0.375 0.585937,-0.492188 0.492188,-0.457031 0.960938,-0.890625 0.960938,-1.617187 0,-0.949219 -0.796875,-1.558594 -1.792969,-1.558594 -0.949219,0 -1.582031,0.726562 -1.582031,1.429687 0,0.398438 0.316406,0.445313 0.421875,0.445313 0.164062,0 0.410156,-0.117188 0.410156,-0.421875 0,-0.410156 -0.398437,-0.410156 -0.492187,-0.410156 0.234375,-0.585938 0.773437,-0.785157 1.160156,-0.785157 0.738281,0 1.125,0.632813 1.125,1.300782 0,0.832031 -0.585938,1.429687 -1.523438,2.402343 l -1.007812,1.03125 c -0.09375,0.09375 -0.09375,0.105469 -0.09375,0.304688 h 3.152344 l 0.222656,-1.429688 h -0.246094 c -0.02344,0.164063 -0.08203,0.5625 -0.175781,0.714844 -0.04687,0.05859 -0.65625,0.05859 -0.785156,0.05859 h -1.417969 z m 0,0"
         style="fill:#000000;fill-opacity:1;fill-rule:nonzero;stroke:none" />
      <path
         id="path46"
         d="m -54.650836,79.950828 h 3.304688 c 0.164062,0 0.375,0 0.375,-0.210937 0,-0.222657 -0.199219,-0.222657 -0.375,-0.222657 h -3.304688 v -3.304687 c 0,-0.164063 0,-0.386719 -0.210937,-0.386719 -0.234375,0 -0.234375,0.210938 -0.234375,0.386719 v 3.304687 h -3.292969 c -0.175781,0 -0.386719,0 -0.386719,0.210938 0,0.222656 0.199219,0.222656 0.386719,0.222656 h 3.292969 v 3.304688 c 0,0.164062 0,0.386718 0.222656,0.386718 0.222656,0 0.222656,-0.210937 0.222656,-0.386718 z m 11.302734,-5.015625 c 0,-0.222656 0,-0.292969 -0.164062,-0.292969 -0.09375,0 -0.128906,0 -0.222656,0.152344 l -3.597657,5.578125 v 0.351563 h 3.140625 v 1.078125 c 0,0.445312 -0.02344,0.5625 -0.902343,0.5625 h -0.234375 v 0.351562 c 0.269531,-0.02344 1.21875,-0.02344 1.558593,-0.02344 0.328125,0 1.289063,0 1.558594,0.02344 v -0.351562 h -0.234375 c -0.867187,0 -0.902344,-0.117188 -0.902344,-0.5625 v -1.078125 h 1.207032 v -0.351563 h -1.207032 z m -0.785156,0.9375 v 4.5 h -2.90625 z m 0,0"
         style="fill:#000000;fill-opacity:1;fill-rule:nonzero;stroke:none" />
      <path
         id="path47"
         d="m -40.280719,81.743797 c 0.503906,-0.585938 0.925781,-0.949219 1.523438,-1.488281 0.714843,-0.621094 1.03125,-0.925782 1.195312,-1.101563 0.84375,-0.820312 1.253906,-1.523437 1.253906,-1.617187 0,-0.09375 -0.09375,-0.09375 -0.117187,-0.09375 -0.08203,0 -0.105469,0.04687 -0.164063,0.128906 -0.304687,0.515625 -0.585937,0.773437 -0.902343,0.773437 -0.246094,0 -0.375,-0.117187 -0.609375,-0.398437 -0.246094,-0.292969 -0.457032,-0.503906 -0.796875,-0.503906 -0.878907,0 -1.394532,1.089843 -1.394532,1.335937 0,0.03516 0.01172,0.117188 0.117188,0.117188 0.09375,0 0.105469,-0.04687 0.140625,-0.140625 0.199219,-0.46875 0.773437,-0.5625 1.007812,-0.5625 0.246094,0 0.480469,0.09375 0.738282,0.199218 0.457031,0.1875 0.644531,0.1875 0.761718,0.1875 0.08203,0 0.128907,0 0.1875,-0.01172 -0.386718,0.46875 -1.03125,1.042968 -1.570312,1.535156 -0.761719,0.667969 -0.972656,0.878906 -1.207031,1.101562 -0.726563,0.75 -1.171875,1.453125 -1.171875,1.535157 0,0.07031 0.05859,0.09375 0.128906,0.09375 0.07031,0 0.08203,-0.01172 0.164062,-0.152344 0.199219,-0.304688 0.574219,-0.738281 1.019532,-0.738281 0.246093,0 0.375,0.08203 0.609375,0.375 0.222656,0.269531 0.433593,0.515625 0.808593,0.515625 1.171875,0 1.851563,-1.511719 1.851563,-1.792969 0,-0.04687 -0.01172,-0.117188 -0.140625,-0.117188 -0.09375,0 -0.105469,0.04687 -0.140625,0.164063 -0.257813,0.703125 -0.972656,0.996094 -1.429688,0.996094 -0.257812,0 -0.492187,-0.08203 -0.75,-0.1875 -0.46875,-0.199219 -0.609375,-0.199219 -0.761718,-0.199219 -0.117188,0 -0.246094,0 -0.351563,0.04687 z m 0,0"
         style="fill:#000000;fill-opacity:1;fill-rule:nonzero;stroke:none" />
      <path
         id="path48"
         d="m -33.583453,76.74868 c 0.128906,-0.117188 0.457031,-0.375 0.585937,-0.492188 0.492188,-0.457031 0.960938,-0.890625 0.960938,-1.617187 0,-0.949219 -0.796875,-1.558594 -1.792969,-1.558594 -0.949219,0 -1.582031,0.726562 -1.582031,1.429687 0,0.398438 0.316406,0.445313 0.421875,0.445313 0.164062,0 0.410156,-0.117188 0.410156,-0.421875 0,-0.410156 -0.398437,-0.410156 -0.492187,-0.410156 0.234375,-0.585938 0.773437,-0.785157 1.160156,-0.785157 0.738281,0 1.125,0.632813 1.125,1.300782 0,0.832031 -0.585938,1.429687 -1.523438,2.402343 l -1.007812,1.03125 c -0.09375,0.09375 -0.09375,0.105469 -0.09375,0.304688 h 3.152344 l 0.222656,-1.429688 h -0.246094 c -0.02344,0.164063 -0.08203,0.5625 -0.175781,0.714844 -0.04687,0.05859 -0.65625,0.05859 -0.785156,0.05859 h -1.417969 z m 0,0"
         style="fill:#000000;fill-opacity:1;fill-rule:nonzero;stroke:none" />
      <path
         id="path49"
         d="m -19.705523,78.849266 c 0.164062,0 0.375,0 0.375,-0.222657 0,-0.222656 -0.199219,-0.222656 -0.375,-0.222656 h -7.042969 c -0.175781,0 -0.386719,0 -0.386719,0.210938 0,0.234375 0.199219,0.234375 0.386719,0.234375 z m 0,2.214843 c 0.164062,0 0.375,0 0.375,-0.210937 0,-0.234375 -0.199219,-0.234375 -0.375,-0.234375 h -7.042969 c -0.175781,0 -0.386719,0 -0.386719,0.222656 0,0.222656 0.199219,0.222656 0.386719,0.222656 z m 9.615234,-0.351562 h -0.269531 c -0.03516,0.199219 -0.128907,0.855469 -0.246094,1.042969 -0.08203,0.117187 -0.761719,0.117187 -1.125,0.117187 h -2.214844 c 0.328125,-0.28125 1.054688,-1.042969 1.371094,-1.335937 1.816406,-1.664063 2.484375,-2.285157 2.484375,-3.46875 0,-1.382813 -1.089844,-2.296875 -2.472656,-2.296875 -1.394532,0 -2.203125,1.183593 -2.203125,2.203125 0,0.609375 0.527343,0.609375 0.5625,0.609375 0.246093,0 0.5625,-0.175782 0.5625,-0.5625 0,-0.328125 -0.234375,-0.550782 -0.5625,-0.550782 -0.105469,0 -0.128907,0 -0.164063,0.01172 0.222656,-0.820312 0.867188,-1.371094 1.640625,-1.371094 1.019531,0 1.640625,0.855469 1.640625,1.957032 0,1.007812 -0.585937,1.898437 -1.265625,2.660156 l -2.414062,2.707031 v 0.28125 h 4.359375 z m 5.9472656,-1.816406 c 0,-0.996094 -0.058594,-1.96875 -0.4921875,-2.871094 -0.4921875,-0.996094 -1.3476563,-1.253906 -1.9335938,-1.253906 -0.6914062,0 -1.546875,0.339843 -1.9804687,1.335937 -0.3398438,0.75 -0.4570313,1.488281 -0.4570313,2.789063 0,1.160156 0.082031,2.027343 0.515625,2.871093 0.4570313,0.914063 1.2890625,1.195313 1.9101563,1.195313 1.0429687,0 1.640625,-0.621094 1.9804687,-1.3125 0.4335938,-0.890625 0.4570313,-2.0625 0.4570313,-2.753906 z m -2.4375,3.832031 c -0.3867188,0 -1.1601563,-0.210938 -1.3828125,-1.523438 -0.140625,-0.714843 -0.140625,-1.617187 -0.140625,-2.460937 0,-0.972656 0,-1.863281 0.1992187,-2.566406 0.1992188,-0.796875 0.8085938,-1.171875 1.3242188,-1.171875 0.4570312,0 1.1484375,0.28125 1.3710937,1.300781 0.1523438,0.679687 0.1523438,1.628906 0.1523438,2.4375 0,0.808594 0,1.710937 -0.1289063,2.4375 -0.2226562,1.324219 -0.9726562,1.546875 -1.3945312,1.546875 z m 0,0"
         style="fill:#000000;fill-opacity:1;fill-rule:nonzero;stroke:none" />
      <path
         id="path50"
         d="m 2.01225,77.841453 c -0.375,0.07031 -0.515625,0.351563 -0.515625,0.585938 0,0.28125 0.2226562,0.375 0.3867187,0.375 0.3632813,0 0.609375,-0.304688 0.609375,-0.632813 0,-0.492187 -0.5742187,-0.726562 -1.078125,-0.726562 -0.72656245,0 -1.12499995,0.714843 -1.24218745,0.949218 -0.26953125,-0.902343 -1.0078125,-0.949218 -1.23046875,-0.949218 -1.21875,0 -1.8632813,1.570312 -1.8632813,1.828125 0,0.04687 0.046875,0.105468 0.1289063,0.105468 0.1054687,0 0.1289062,-0.07031 0.1523437,-0.117187 0.3984375,-1.324219 1.2070313,-1.570313 1.546875,-1.570313 0.53906255,0 0.6445313,0.492188 0.6445313,0.785157 0,0.257812 -0.0703125,0.539062 -0.2109375,1.113281 -0.1875,0.761719 -0.234375,0.9375 -0.4101563,1.628906 -0.1757812,0.726563 -0.5273437,1.382813 -1.1601562,1.382813 -0.058594,0 -0.3515625,0 -0.609375,-0.152344 0.4335937,-0.09375 0.5273437,-0.445313 0.5273437,-0.585938 0,-0.246093 -0.1757812,-0.386718 -0.3984375,-0.386718 -0.2929687,0 -0.5976562,0.246093 -0.5976562,0.632812 0,0.503906 0.5625,0.726563 1.0664062,0.726563 0.5742188,0 0.984375,-0.457032 1.2304688,-0.9375 0.19921875,0.703125 0.796875,0.9375 1.23046875,0.9375 1.23046875,0 1.87499995,-1.558594 1.87499995,-1.828125 0,-0.05859 -0.046875,-0.105469 -0.1289062,-0.105469 -0.1054688,0 -0.1171875,0.05859 -0.1523438,0.152344 -0.3164062,1.054687 -1.0195312,1.546875 -1.54687495,1.546875 -0.421875,0 -0.65625,-0.316407 -0.65625,-0.808594 0,-0.257813 0.0585938,-0.445313 0.24609375,-1.242188 0.140625,-0.550781 0.29296875,-1.183593 0.421875,-1.617187 0.17578125,-0.726563 0.5859375,-1.242188 1.125,-1.242188 0.035156,0 0.3632812,0 0.609375,0.152344 z m 2.5136719,3.902344 c 0.5039062,-0.585938 0.9257812,-0.949219 1.5234375,-1.488281 0.7148437,-0.621094 1.03125,-0.925782 1.1953125,-1.101563 0.84375,-0.820312 1.2539062,-1.523437 1.2539062,-1.617187 0,-0.09375 -0.09375,-0.09375 -0.1171875,-0.09375 -0.082031,0 -0.1054687,0.04687 -0.1640625,0.128906 -0.3046875,0.515625 -0.5859375,0.773437 -0.9023437,0.773437 -0.2460938,0 -0.375,-0.117187 -0.609375,-0.398437 -0.2460938,-0.292969 -0.4570313,-0.503906 -0.796875,-0.503906 -0.8789063,0 -1.3945313,1.089843 -1.3945313,1.335937 0,0.03516 0.011719,0.117188 0.1171875,0.117188 0.09375,0 0.1054688,-0.04687 0.140625,-0.140625 0.1992188,-0.46875 0.7734375,-0.5625 1.0078125,-0.5625 0.2460938,0 0.4804688,0.09375 0.7382813,0.199218 0.4570312,0.1875 0.6445312,0.1875 0.7617187,0.1875 0.082031,0 0.1289063,0 0.1875,-0.01172 -0.3867187,0.46875 -1.03125,1.042968 -1.5703125,1.535156 -0.7617187,0.667969 -0.9726562,0.878906 -1.2070312,1.101562 -0.7265625,0.75 -1.171875,1.453125 -1.171875,1.535157 0,0.07031 0.058594,0.09375 0.1289062,0.09375 0.070312,0 0.082031,-0.01172 0.1640625,-0.152344 0.1992188,-0.304688 0.5742188,-0.738281 1.0195313,-0.738281 0.2460937,0 0.375,0.08203 0.609375,0.375 0.2226562,0.269531 0.4335937,0.515625 0.8085937,0.515625 1.171875,0 1.8515625,-1.511719 1.8515625,-1.792969 0,-0.04687 -0.011719,-0.117188 -0.140625,-0.117188 -0.09375,0 -0.1054687,0.04687 -0.140625,0.164063 -0.2578125,0.703125 -0.9726562,0.996094 -1.4296875,0.996094 -0.2578125,0 -0.4921875,-0.08203 -0.75,-0.1875 -0.46875,-0.199219 -0.609375,-0.199219 -0.7617187,-0.199219 -0.1171875,0 -0.2460938,0 -0.3515625,0.04687 z m 0,0"
         style="fill:#000000;fill-opacity:1;fill-rule:nonzero;stroke:none" />
      <path
         id="path51"
         d="m -74.48482,92.270164 c 0,-0.222656 0,-0.292969 -0.164063,-0.292969 -0.09375,0 -0.128906,0 -0.222656,0.152344 l -3.597656,5.578125 v 0.351563 h 3.140625 v 1.078125 c 0,0.445312 -0.02344,0.5625 -0.902344,0.5625 h -0.234375 v 0.351558 c 0.269531,-0.0234 1.21875,-0.0234 1.558594,-0.0234 0.328125,0 1.289062,0 1.558593,0.0234 v -0.351558 h -0.234375 c -0.867187,0 -0.902343,-0.117188 -0.902343,-0.5625 v -1.078125 h 1.207031 v -0.351563 h -1.207031 z m -0.785157,0.9375 v 4.5 h -2.90625 z m 0,0"
         style="fill:#000000;fill-opacity:1;fill-rule:nonzero;stroke:none" />
      <path
         id="path52"
         d="m -71.420367,99.078758 c 0.503906,-0.585938 0.925781,-0.949219 1.523437,-1.488281 0.714844,-0.621094 1.03125,-0.925782 1.195313,-1.101563 0.84375,-0.820312 1.253906,-1.523437 1.253906,-1.617187 0,-0.09375 -0.09375,-0.09375 -0.117187,-0.09375 -0.08203,0 -0.105469,0.04687 -0.164063,0.128906 -0.304687,0.515625 -0.585937,0.773437 -0.902344,0.773437 -0.246093,0 -0.375,-0.117187 -0.609375,-0.398437 -0.246093,-0.292969 -0.457031,-0.503906 -0.796875,-0.503906 -0.878906,0 -1.394531,1.089843 -1.394531,1.335937 0,0.03516 0.01172,0.117188 0.117188,0.117188 0.09375,0 0.105468,-0.04687 0.140625,-0.140625 0.199218,-0.46875 0.773437,-0.5625 1.007812,-0.5625 0.246094,0 0.480469,0.09375 0.738281,0.199218 0.457032,0.1875 0.644532,0.1875 0.761719,0.1875 0.08203,0 0.128906,0 0.1875,-0.01172 -0.386719,0.46875 -1.03125,1.042968 -1.570312,1.535156 -0.761719,0.667969 -0.972657,0.878906 -1.207032,1.101562 -0.726562,0.75 -1.171875,1.453125 -1.171875,1.535157 0,0.0703 0.05859,0.0937 0.128907,0.0937 0.07031,0 0.08203,-0.0117 0.164062,-0.15234 0.199219,-0.304692 0.574219,-0.738285 1.019531,-0.738285 0.246094,0 0.375,0.08203 0.609375,0.375 0.222657,0.269531 0.433594,0.515625 0.808594,0.515625 1.171875,0 1.851563,-1.511719 1.851563,-1.792969 0,-0.04687 -0.01172,-0.117188 -0.140625,-0.117188 -0.09375,0 -0.105469,0.04687 -0.140625,0.164063 -0.257813,0.703125 -0.972657,0.996094 -1.429688,0.996094 -0.257812,0 -0.492187,-0.08203 -0.75,-0.1875 -0.46875,-0.199219 -0.609375,-0.199219 -0.761719,-0.199219 -0.117187,0 -0.246093,0 -0.351562,0.04687 z m 0,0"
         style="fill:#000000;fill-opacity:1;fill-rule:nonzero;stroke:none" />
      <path
         id="path53"
         d="m -64.723102,94.083641 c 0.128907,-0.117188 0.457032,-0.375 0.585938,-0.492188 0.492187,-0.457031 0.960937,-0.890625 0.960937,-1.617187 0,-0.949219 -0.796875,-1.558594 -1.792968,-1.558594 -0.949219,0 -1.582032,0.726562 -1.582032,1.429687 0,0.398438 0.316407,0.445313 0.421875,0.445313 0.164063,0 0.410157,-0.117188 0.410157,-0.421875 0,-0.410156 -0.398438,-0.410156 -0.492188,-0.410156 0.234375,-0.585938 0.773438,-0.785157 1.160156,-0.785157 0.738282,0 1.125,0.632813 1.125,1.300782 0,0.832031 -0.585937,1.429687 -1.523437,2.402343 l -1.007813,1.03125 c -0.09375,0.09375 -0.09375,0.105469 -0.09375,0.304688 h 3.152344 l 0.222656,-1.429688 h -0.246093 c -0.02344,0.164063 -0.08203,0.5625 -0.175782,0.714844 -0.04687,0.05859 -0.65625,0.05859 -0.785156,0.05859 h -1.417969 z m 0,0"
         style="fill:#000000;fill-opacity:1;fill-rule:nonzero;stroke:none" />
      <path
         id="path54"
         d="m -54.814898,97.285789 h 3.304687 c 0.164063,0 0.375,0 0.375,-0.210937 0,-0.222657 -0.199219,-0.222657 -0.375,-0.222657 h -3.304687 v -3.304687 c 0,-0.164063 0,-0.386719 -0.210938,-0.386719 -0.234375,0 -0.234375,0.210938 -0.234375,0.386719 v 3.304687 h -3.292969 c -0.175781,0 -0.386718,0 -0.386718,0.210938 0,0.222656 0.199218,0.222656 0.386718,0.222656 h 3.292969 v 3.304691 c 0,0.16406 0,0.38672 0.222656,0.38672 0.222657,0 0.222657,-0.21094 0.222657,-0.38672 z m 12.251953,0.761719 h -0.269532 c -0.03516,0.199219 -0.128906,0.855469 -0.246093,1.042969 -0.08203,0.117187 -0.761719,0.117187 -1.125,0.117187 h -2.214844 c 0.328125,-0.28125 1.054687,-1.042969 1.371094,-1.335937 1.816406,-1.664063 2.484375,-2.285157 2.484375,-3.46875 0,-1.382813 -1.089844,-2.296875 -2.472657,-2.296875 -1.394531,0 -2.203125,1.183593 -2.203125,2.203125 0,0.609375 0.527344,0.609375 0.5625,0.609375 0.246094,0 0.5625,-0.175782 0.5625,-0.5625 0,-0.328125 -0.234375,-0.550782 -0.5625,-0.550782 -0.105468,0 -0.128906,0 -0.164062,0.01172 0.222656,-0.820312 0.867187,-1.371094 1.640625,-1.371094 1.019531,0 1.640625,0.855469 1.640625,1.957032 0,1.007812 -0.585938,1.898437 -1.265625,2.660156 l -2.414063,2.707031 v 0.281245 h 4.359375 z m 2.126953,-4.839844 c 0.503906,0.164063 0.925781,0.175781 1.054687,0.175781 1.359375,0 2.214844,-0.996093 2.214844,-1.160156 0,-0.04687 -0.02344,-0.105469 -0.09375,-0.105469 -0.02344,0 -0.04687,0 -0.152344,0.04687 -0.667968,0.28125 -1.242187,0.316407 -1.558593,0.316407 -0.785157,0 -1.347657,-0.234375 -1.582032,-0.328125 -0.08203,-0.03516 -0.105468,-0.03516 -0.117187,-0.03516 -0.09375,0 -0.09375,0.07031 -0.09375,0.257813 v 3.550781 c 0,0.210938 0,0.292969 0.140625,0.292969 0.05859,0 0.07031,-0.01172 0.199219,-0.164063 0.328125,-0.492187 0.890625,-0.773437 1.488281,-0.773437 0.632812,0 0.949219,0.585937 1.042969,0.785156 0.199218,0.46875 0.210937,1.054688 0.210937,1.511719 0,0.457031 0,1.136719 -0.328125,1.675781 -0.269531,0.421875 -0.738281,0.726563 -1.253906,0.726563 -0.796875,0 -1.570313,-0.539063 -1.78125,-1.40625 0.05859,0.02344 0.128906,0.03516 0.1875,0.03516 0.199219,0 0.527344,-0.128906 0.527344,-0.527344 0,-0.339844 -0.234375,-0.527344 -0.527344,-0.527344 -0.210938,0 -0.527344,0.105469 -0.527344,0.574219 0,1.007813 0.808594,2.167975 2.144531,2.167975 1.347657,0 2.53125,-1.125006 2.53125,-2.648444 0,-1.417968 -0.960937,-2.601562 -2.214843,-2.601562 -0.679688,0 -1.207032,0.292969 -1.511719,0.632812 z m 0,0"
         style="fill:#000000;fill-opacity:1;fill-rule:nonzero;stroke:none" />
      <path
         id="path55"
         d="m -30.457477,95.176414 c -0.375,0.07031 -0.515625,0.351563 -0.515625,0.585938 0,0.28125 0.222657,0.375 0.386719,0.375 0.363281,0 0.609375,-0.304688 0.609375,-0.632813 0,-0.492187 -0.574219,-0.726562 -1.078125,-0.726562 -0.726562,0 -1.125,0.714843 -1.242187,0.949218 -0.269532,-0.902343 -1.007813,-0.949218 -1.230469,-0.949218 -1.21875,0 -1.863281,1.570312 -1.863281,1.828125 0,0.04687 0.04687,0.105468 0.128906,0.105468 0.105469,0 0.128906,-0.07031 0.152344,-0.117187 0.398437,-1.324219 1.207031,-1.570313 1.546875,-1.570313 0.539062,0 0.644531,0.492188 0.644531,0.785157 0,0.257812 -0.07031,0.539062 -0.210938,1.113281 -0.1875,0.761719 -0.234375,0.9375 -0.410156,1.628906 -0.175781,0.726563 -0.527344,1.382813 -1.160156,1.382813 -0.05859,0 -0.351563,0 -0.609375,-0.152344 0.433594,-0.09375 0.527344,-0.445313 0.527344,-0.585938 0,-0.246093 -0.175782,-0.386718 -0.398438,-0.386718 -0.292969,0 -0.597656,0.246093 -0.597656,0.632812 0,0.503906 0.5625,0.726561 1.066406,0.726561 0.574219,0 0.984375,-0.45703 1.230469,-0.937498 0.199219,0.703125 0.796875,0.937498 1.230469,0.937498 1.230468,0 1.875,-1.558592 1.875,-1.828123 0,-0.05859 -0.04687,-0.105469 -0.128907,-0.105469 -0.105468,0 -0.117187,0.05859 -0.152343,0.152344 -0.316407,1.054687 -1.019532,1.546875 -1.546875,1.546875 -0.421875,0 -0.65625,-0.316407 -0.65625,-0.808594 0,-0.257813 0.05859,-0.445313 0.246093,-1.242188 0.140625,-0.550781 0.292969,-1.183593 0.421875,-1.617187 0.175782,-0.726563 0.585938,-1.242188 1.125,-1.242188 0.03516,0 0.363282,0 0.609375,0.152344 z m 0,0"
         style="fill:#000000;fill-opacity:1;fill-rule:nonzero;stroke:none" />
      <path
         id="path56"
         d="m -27.214313,94.083641 c 0.128907,-0.117188 0.457032,-0.375 0.585938,-0.492188 0.492187,-0.457031 0.960937,-0.890625 0.960937,-1.617187 0,-0.949219 -0.796875,-1.558594 -1.792968,-1.558594 -0.949219,0 -1.582032,0.726562 -1.582032,1.429687 0,0.398438 0.316407,0.445313 0.421875,0.445313 0.164063,0 0.410157,-0.117188 0.410157,-0.421875 0,-0.410156 -0.398438,-0.410156 -0.492188,-0.410156 0.234375,-0.585938 0.773438,-0.785157 1.160156,-0.785157 0.738282,0 1.125,0.632813 1.125,1.300782 0,0.832031 -0.585937,1.429687 -1.523437,2.402343 l -1.007813,1.03125 c -0.09375,0.09375 -0.09375,0.105469 -0.09375,0.304688 h 3.152344 l 0.222656,-1.429688 h -0.246093 c -0.02344,0.164063 -0.08203,0.5625 -0.175782,0.714844 -0.04687,0.05859 -0.65625,0.05859 -0.785156,0.05859 h -1.417969 z m 0,0"
         style="fill:#000000;fill-opacity:1;fill-rule:nonzero;stroke:none" />
      <path
         id="path57"
         d="m -13.336383,96.184227 c 0.164063,0 0.375,0 0.375,-0.222657 0,-0.222656 -0.199219,-0.222656 -0.375,-0.222656 h -7.042969 c -0.175781,0 -0.386718,0 -0.386718,0.210938 0,0.234375 0.199218,0.234375 0.386718,0.234375 z m 0,2.214843 c 0.164063,0 0.375,0 0.375,-0.210937 0,-0.234375 -0.199219,-0.234375 -0.375,-0.234375 h -7.042969 c -0.175781,0 -0.386718,0 -0.386718,0.222656 0,0.222656 0.199218,0.222656 0.386718,0.222656 z m 6.5566408,-2.636718 c -0.2109375,0.01172 -0.2578125,0.02344 -0.2578125,0.128906 0,0.117187 0.058594,0.117187 0.28125,0.117187 h 0.5507813 c 1.0078125,0 1.4648437,0.84375 1.4648437,1.992188 0,1.558594 -0.8085937,1.980469 -1.3945312,1.980469 -0.5742188,0 -1.5585938,-0.28125 -1.8984375,-1.066407 0.375,0.05859 0.7265625,-0.152343 0.7265625,-0.585937 0,-0.339844 -0.2578125,-0.585938 -0.5859375,-0.585938 -0.2929688,0 -0.5976563,0.164063 -0.5976563,0.621094 0,1.066406 1.0664063,1.933596 2.390625,1.933596 1.4179688,0 2.4726563,-1.078127 2.4726563,-2.285158 0,-1.101563 -0.890625,-1.96875 -2.0273438,-2.167969 1.03125,-0.304688 1.6992188,-1.171875 1.6992188,-2.109375 0,-0.9375 -0.9726563,-1.628906 -2.1328125,-1.628906 -1.1953125,0 -2.0859375,0.726562 -2.0859375,1.59375 0,0.480468 0.375,0.574218 0.5507812,0.574218 0.2578125,0 0.5390625,-0.175781 0.5390625,-0.539062 0,-0.375 -0.28125,-0.539063 -0.5507812,-0.539063 -0.070312,0 -0.09375,0 -0.1289063,0.01172 0.4570313,-0.820312 1.5820313,-0.820312 1.640625,-0.820312 0.3867188,0 1.171875,0.175781 1.171875,1.347656 0,0.234375 -0.035156,0.902344 -0.3867187,1.417969 -0.3515625,0.527343 -0.7617188,0.5625 -1.0898438,0.574218 z m 9.0058594,0.46875 c 0,-0.996094 -0.058594,-1.96875 -0.4921875,-2.871094 -0.4921875,-0.996094 -1.34765626,-1.253906 -1.93359376,-1.253906 -0.69140625,0 -1.54687504,0.339843 -1.98046874,1.335937 -0.3398438,0.75 -0.4570313,1.488281 -0.4570313,2.789063 0,1.160156 0.082031,2.027343 0.515625,2.871093 0.4570313,0.914065 1.28906254,1.195315 1.91015629,1.195315 1.04296875,0 1.64062501,-0.621096 1.98046871,-1.312502 0.4335938,-0.890625 0.4570313,-2.0625 0.4570313,-2.753906 z m -2.43750001,3.832028 c -0.38671875,0 -1.16015629,-0.210935 -1.38281249,-1.523435 -0.140625,-0.714843 -0.140625,-1.617187 -0.140625,-2.460937 0,-0.972656 0,-1.863281 0.1992187,-2.566406 0.1992188,-0.796875 0.80859379,-1.171875 1.32421879,-1.171875 0.45703125,0 1.1484375,0.28125 1.37109371,1.300781 0.1523438,0.679687 0.1523438,1.628906 0.1523438,2.4375 0,0.808594 0,1.710937 -0.1289063,2.4375 -0.22265621,1.324219 -0.97265621,1.546872 -1.39453121,1.546872 z m 0,0"
         style="fill:#000000;fill-opacity:1;fill-rule:nonzero;stroke:none" />
      <path
         id="path58"
         d="m 8.3784609,95.176414 c -0.375,0.07031 -0.515625,0.351563 -0.515625,0.585938 0,0.28125 0.2226563,0.375 0.3867188,0.375 0.3632812,0 0.609375,-0.304688 0.609375,-0.632813 0,-0.492187 -0.5742188,-0.726562 -1.078125,-0.726562 -0.7265625,0 -1.125,0.714843 -1.2421875,0.949218 -0.2695313,-0.902343 -1.0078125,-0.949218 -1.2304688,-0.949218 -1.21875,0 -1.8632812,1.570312 -1.8632812,1.828125 0,0.04687 0.046875,0.105468 0.1289062,0.105468 0.1054688,0 0.1289063,-0.07031 0.1523438,-0.117187 0.3984375,-1.324219 1.2070312,-1.570313 1.546875,-1.570313 0.5390625,0 0.6445312,0.492188 0.6445312,0.785157 0,0.257812 -0.070312,0.539062 -0.2109375,1.113281 -0.1875,0.761719 -0.234375,0.9375 -0.4101562,1.628906 -0.1757813,0.726563 -0.5273438,1.382813 -1.1601563,1.382813 -0.058594,0 -0.3515625,0 -0.609375,-0.152344 0.4335938,-0.09375 0.5273438,-0.445313 0.5273438,-0.585938 0,-0.246093 -0.1757813,-0.386718 -0.3984375,-0.386718 -0.2929688,0 -0.5976563,0.246093 -0.5976563,0.632812 0,0.503906 0.5625,0.726561 1.0664063,0.726561 0.5742187,0 0.984375,-0.45703 1.2304687,-0.937498 0.1992188,0.703125 0.796875,0.937498 1.2304688,0.937498 1.2304687,0 1.875,-1.558592 1.875,-1.828123 0,-0.05859 -0.046875,-0.105469 -0.1289063,-0.105469 -0.1054687,0 -0.1171875,0.05859 -0.1523437,0.152344 -0.3164063,1.054687 -1.0195313,1.546875 -1.546875,1.546875 -0.421875,0 -0.65625,-0.316407 -0.65625,-0.808594 0,-0.257813 0.058594,-0.445313 0.2460937,-1.242188 0.140625,-0.550781 0.2929688,-1.183593 0.421875,-1.617187 0.1757813,-0.726563 0.5859375,-1.242188 1.125,-1.242188 0.035156,0 0.3632813,0 0.609375,0.152344 z m 4.1337891,6.210936 c -0.316406,0.45703 -0.785156,0.86719 -1.371094,0.86719 -0.140625,0 -0.714844,-0.0234 -0.902344,-0.57422 0.04687,0.0117 0.105469,0.0117 0.128907,0.0117 0.351562,0 0.597656,-0.31641 0.597656,-0.58594 0,-0.28125 -0.234375,-0.375 -0.410156,-0.375 -0.1875,0 -0.6093753,0.14063 -0.6093753,0.72656 0,0.60938 0.5156253,1.03125 1.1953123,1.03125 1.195313,0 2.402344,-1.10156 2.742188,-2.42578 l 1.171875,-4.66406 c 0.01172,-0.05859 0.03516,-0.128906 0.03516,-0.199218 0,-0.175782 -0.152344,-0.304688 -0.328125,-0.304688 -0.105469,0 -0.363281,0.04687 -0.457031,0.410156 l -0.878907,3.515625 c -0.05859,0.210938 -0.05859,0.234375 -0.152343,0.375 -0.246094,0.328125 -0.644532,0.738282 -1.207032,0.738282 -0.679687,0 -0.738281,-0.65625 -0.738281,-0.984375 0,-0.679688 0.328125,-1.605469 0.644531,-2.460938 0.140625,-0.351562 0.210938,-0.515625 0.210938,-0.75 0,-0.503906 -0.363281,-0.960937 -0.949219,-0.960937 -1.101562,0 -1.535156,1.734375 -1.535156,1.828125 0,0.04687 0.046875,0.105468 0.1289062,0.105468 0.1054688,0 0.1171875,-0.04687 0.1640625,-0.210937 C 10.285687,95.49282 10.731,95.02407 11.19975,95.02407 c 0.105469,0 0.316406,0 0.316406,0.386719 0,0.316406 -0.140625,0.65625 -0.316406,1.113281 -0.585938,1.570313 -0.585938,1.957032 -0.585938,2.25 0,1.136719 0.808594,1.39453 1.40625,1.39453 0.351563,0 0.785157,-0.10547 1.195313,-0.55078 l 0.01172,0.01172 c -0.175782,0.70312 -0.292969,1.17187 -0.714844,1.75781 z m 5.200195,-1.910155 c 0,-0.351562 -0.292968,-0.585937 -0.574218,-0.585937 -0.351563,0 -0.585938,0.292969 -0.585938,0.574219 0,0.351562 0.28125,0.585933 0.574219,0.585933 0.339844,0 0.585937,-0.281246 0.585937,-0.574215 z m 0,0"
         style="fill:#000000;fill-opacity:1;fill-rule:nonzero;stroke:none" />
    </g>
  </g>
</svg>
