<?xml version="1.0" encoding="UTF-8" standalone="no"?>
<!-- Created with Inkscape (http://www.inkscape.org/) -->

<svg
   version="1.1"
   id="svg1"
   width="794.55066"
   height="1123.6533"
   viewBox="0 0 794.55066 1123.6533"
   sodipodi:docname="LigaMatematycznaMatuskiego_Klasa5i6_Zestaw2_2020_2021_page0.pdf"
   xmlns:inkscape="http://www.inkscape.org/namespaces/inkscape"
   xmlns:sodipodi="http://sodipodi.sourceforge.net/DTD/sodipodi-0.dtd"
   xmlns="http://www.w3.org/2000/svg"
   xmlns:svg="http://www.w3.org/2000/svg">
  <defs
     id="defs1" />
  <sodipodi:namedview
     id="namedview1"
     pagecolor="#ffffff"
     bordercolor="#000000"
     borderopacity="0.25"
     inkscape:showpageshadow="2"
     inkscape:pageopacity="0.0"
     inkscape:pagecheckerboard="0"
     inkscape:deskcolor="#d1d1d1">
    <inkscape:page
       x="0"
       y="0"
       inkscape:label="1"
       id="page1"
       width="794.55066"
       height="1123.6533"
       margin="0"
       bleed="0" />
  </sodipodi:namedview>
  <g
     id="g1"
     inkscape:groupmode="layer"
     inkscape:label="1">
    <g
       id="g2"
       aria-label="LIGAMATEMATYCZNA&#10;im.ZdzisªawaMatuskiego&#10;LISTOPAD2020&#10;SZKOAPODSTAWOWA&#10;klasyIV-VI&#10;ZADANIE1.&#10;Znajd¹najmniejsz¡liczb¦naturaln¡zªo»on¡tylkozósemekizerpodzieln¡przez72.&#10;ZADANIE2.&#10;Bartekmapi¦¢sze±ciennychklocków.Gdys¡uªo»oneodnajmniejszegodonajwi¦kszego,to&#10;wysoko±cika»dychdwóchs¡siednichklockówró»ni¡si¦o2cm.Wysoko±¢wie»yzbudowa-&#10;nejzdwóchnajmniejszychsze±cianówjestrównawysoko±cinajwi¦kszegosze±cianu.Oblicz&#10;wysoko±¢wie»yzbudowanejzewszystkichpi¦ciusze±ciennychklocków.&#10;ZADANIE3.&#10;AniaiBartekstoj¡nas¡siednichstopniachschodów.GdyBartekstoinani»szymstopniu,&#10;aAnianawy»szym,toAniajesto5cmwy»szaodBartka.Gdyzamieni¡si¦miejscami,&#10;toBartekjestwy»szyodAnio25cm.Jak¡wysoko±¢majedenstopie«schodów?&#10;ZADANIE4.&#10;Wiadomo,»ekotyzjadªy999919myszy,ka»dykotzjadªtylesamomyszyika»dykotzjadª&#10;wi¦cejmyszyni»byªokotów.Ilebyªokotów?&#10;ZADANIE5.&#10;Aniamakilkana±ciedwuzªotówek,za±Basiamatylesamopieni¦dzy,alewmonetachpi¦cio-&#10;zªotowych.Ilemonetª¡czniemaj¡obiedziewczynki?"
       transform="matrix(1.3333333,0,0,1.3333333,274.724,56.069333)">
      <path
         id="path2"
         d="m 277.97067,115.94605 v -0.28125 h -2.88281 c -1.45313,0 -1.47656,-0.15235 -1.52344,-0.38672 h -0.25781 l -0.375,2.39062 h 0.26953 c 0.0352,-0.21093 0.14063,-0.94922 0.29297,-1.07812 0.0937,-0.0703 0.99609,-0.0703 1.16016,-0.0703 h 2.53125 l -1.26563,1.8164 c -0.31641,0.45703 -1.52344,2.42578 -1.52344,4.66406 0,0.14063 0,0.60938 0.48047,0.60938 0.50391,0 0.50391,-0.45703 0.50391,-0.62109 v -0.59766 c 0,-1.78125 0.29297,-3.16406 0.85547,-3.96094 z m 5.43164,5.41406 h -0.26953 c -0.0352,0.19922 -0.1289,0.85547 -0.24609,1.04297 -0.082,0.11719 -0.76172,0.11719 -1.125,0.11719 h -2.21485 c 0.32813,-0.28125 1.05469,-1.04297 1.3711,-1.33594 1.8164,-1.66406 2.48437,-2.28516 2.48437,-3.46875 0,-1.38281 -1.08984,-2.29688 -2.47265,-2.29688 -1.39453,0 -2.20313,1.1836 -2.20313,2.20313 0,0.60937 0.52735,0.60937 0.5625,0.60937 0.2461,0 0.5625,-0.17578 0.5625,-0.5625 0,-0.32812 -0.23437,-0.55078 -0.5625,-0.55078 -0.10547,0 -0.1289,0 -0.16406,0.0117 0.22266,-0.82031 0.86719,-1.37109 1.64062,-1.37109 1.01954,0 1.64063,0.85547 1.64063,1.95703 0,1.00781 -0.58594,1.89844 -1.26563,2.66015 l -2.41406,2.70704 v 0.28125 h 4.35938 z m 0,0"
         style="fill:#000000;fill-opacity:1;fill-rule:nonzero;stroke:none" />
      <path
         id="path3"
         d="m 163.87106,178.86988 h -0.26953 c -0.0351,0.19921 -0.1289,0.85546 -0.24609,1.04296 -0.082,0.11719 -0.76172,0.11719 -1.125,0.11719 h -2.21485 c 0.32813,-0.28125 1.05469,-1.04297 1.3711,-1.33594 1.8164,-1.66406 2.48437,-2.28515 2.48437,-3.46875 0,-1.38281 -1.08984,-2.29687 -2.47265,-2.29687 -1.39453,0 -2.20313,1.18359 -2.20313,2.20312 0,0.60938 0.52735,0.60938 0.5625,0.60938 0.2461,0 0.5625,-0.17578 0.5625,-0.5625 0,-0.32813 -0.23437,-0.55078 -0.5625,-0.55078 -0.10547,0 -0.1289,0 -0.16406,0.0117 0.22266,-0.82032 0.86719,-1.3711 1.64062,-1.3711 1.01954,0 1.64063,0.85547 1.64063,1.95703 0,1.00782 -0.58594,1.89844 -1.26563,2.66016 l -2.41406,2.70703 v 0.28125 h 4.35938 z m 0,0"
         style="fill:#000000;fill-opacity:1;fill-rule:nonzero;stroke:none" />
      <path
         id="path4"
         d="m 47.096648,260.43238 c 0.503907,0.16406 0.925782,0.17578 1.054688,0.17578 1.359375,0 2.214844,-0.9961 2.214844,-1.16016 0,-0.0469 -0.02344,-0.10547 -0.09375,-0.10547 -0.02344,0 -0.04687,0 -0.152344,0.0469 -0.667969,0.28125 -1.242188,0.3164 -1.558594,0.3164 -0.785156,0 -1.347656,-0.23437 -1.582031,-0.32812 -0.08203,-0.0352 -0.105469,-0.0352 -0.117188,-0.0352 -0.09375,0 -0.09375,0.0703 -0.09375,0.25781 v 3.55079 c 0,0.21093 0,0.29296 0.140625,0.29296 0.05859,0 0.07031,-0.0117 0.199219,-0.16406 0.328125,-0.49219 0.890625,-0.77344 1.488281,-0.77344 0.632813,0 0.949219,0.58594 1.042969,0.78516 0.199219,0.46875 0.210938,1.05469 0.210938,1.51172 0,0.45703 0,1.13672 -0.328125,1.67578 -0.269532,0.42188 -0.738282,0.72656 -1.253907,0.72656 -0.796875,0 -1.570312,-0.53906 -1.78125,-1.40625 0.05859,0.0234 0.128907,0.0352 0.1875,0.0352 0.199219,0 0.527344,-0.12891 0.527344,-0.52734 0,-0.33985 -0.234375,-0.52735 -0.527344,-0.52735 -0.210937,0 -0.527343,0.10547 -0.527343,0.57422 0,1.00781 0.808593,2.16797 2.144531,2.16797 1.347656,0 2.53125,-1.125 2.53125,-2.64844 0,-1.41797 -0.960938,-2.60156 -2.214844,-2.60156 -0.679687,0 -1.207031,0.29297 -1.511719,0.63281 z m 0,0"
         style="fill:#000000;fill-opacity:1;fill-rule:nonzero;stroke:none" />
      <path
         id="path5"
         d="m 20.202117,279.71851 h -0.269531 c -0.03516,0.19922 -0.128906,0.85547 -0.246094,1.04297 -0.08203,0.11718 -0.761719,0.11718 -1.125,0.11718 h -2.214844 c 0.328125,-0.28125 1.054688,-1.04296 1.371094,-1.33593 1.816406,-1.66407 2.484375,-2.28516 2.484375,-3.46875 0,-1.38282 -1.089844,-2.29688 -2.472656,-2.29688 -1.394531,0 -2.203125,1.1836 -2.203125,2.20313 0,0.60937 0.527344,0.60937 0.5625,0.60937 0.246094,0 0.5625,-0.17578 0.5625,-0.5625 0,-0.32812 -0.234375,-0.55078 -0.5625,-0.55078 -0.105469,0 -0.128906,0 -0.164063,0.0117 0.222657,-0.82031 0.867188,-1.37109 1.640625,-1.37109 1.019532,0 1.640625,0.85546 1.640625,1.95703 0,1.00781 -0.585937,1.89843 -1.265625,2.66015 l -2.414062,2.70703 v 0.28125 h 4.359375 z m 2.126953,-4.83985 c 0.503907,0.16407 0.925782,0.17579 1.054688,0.17579 1.359375,0 2.214844,-0.9961 2.214844,-1.16016 0,-0.0469 -0.02344,-0.10547 -0.09375,-0.10547 -0.02344,0 -0.04687,0 -0.152344,0.0469 -0.667969,0.28125 -1.242188,0.3164 -1.558594,0.3164 -0.785156,0 -1.347656,-0.23437 -1.582031,-0.32812 -0.08203,-0.0352 -0.105469,-0.0352 -0.117188,-0.0352 -0.09375,0 -0.09375,0.0703 -0.09375,0.25781 v 3.55078 c 0,0.21094 0,0.29297 0.140625,0.29297 0.05859,0 0.07031,-0.0117 0.199219,-0.16406 0.328125,-0.49219 0.890625,-0.77344 1.488281,-0.77344 0.632813,0 0.949219,0.58594 1.042969,0.78516 0.199219,0.46875 0.210938,1.05469 0.210938,1.51172 0,0.45703 0,1.13672 -0.328125,1.67578 -0.269532,0.42187 -0.738282,0.72656 -1.253907,0.72656 -0.796875,0 -1.570312,-0.53906 -1.78125,-1.40625 0.05859,0.0234 0.128907,0.0352 0.1875,0.0352 0.199219,0 0.527344,-0.12891 0.527344,-0.52735 0,-0.33984 -0.234375,-0.52734 -0.527344,-0.52734 -0.210937,0 -0.527343,0.10547 -0.527343,0.57422 0,1.00781 0.808593,2.16797 2.144531,2.16797 1.347656,0 2.53125,-1.125 2.53125,-2.64844 0,-1.41797 -0.960938,-2.60156 -2.214844,-2.60156 -0.679687,0 -1.207031,0.29297 -1.511719,0.63281 z m 0,0"
         style="fill:#000000;fill-opacity:1;fill-rule:nonzero;stroke:none" />
      <path
         id="path6"
         d="m -8.2920234,321.30542 c 0,2.82422 -1.2539063,3.41016 -1.9687496,3.41016 -0.28125,0 -0.925782,-0.0352 -1.21875,-0.45703 h 0.07031 c 0.08203,0.0234 0.515625,-0.0469 0.515625,-0.49219 0,-0.25781 -0.175781,-0.49219 -0.492187,-0.49219 -0.304688,0 -0.503907,0.21094 -0.503907,0.51563 0,0.75 0.597657,1.24218 1.640625,1.24218 1.5000003,0 2.9414066,-1.58203 2.9414066,-4.18359 0,-3.21094 -1.3359375,-4.00781 -2.390625,-4.00781 -1.3124996,0 -2.4726566,1.10156 -2.4726566,2.67187 0,1.58203 1.113282,2.66016 2.3085941,2.66016 0.8789062,0 1.3359375,-0.64453 1.5703125,-1.25391 z m -1.5234375,0.6211 c -0.7500001,0 -1.0781251,-0.60938 -1.1835941,-0.83204 -0.199218,-0.45703 -0.199218,-1.03125 -0.199218,-1.57031 0,-0.66797 0,-1.24219 0.316406,-1.73437 0.210937,-0.31641 0.539062,-0.66797 1.1835936,-0.66797 0.6796875,0 1.03125,0.59765 1.1484375,0.8789 0.234375,0.58594 0.234375,1.59375 0.234375,1.78125 0,0.9961 -0.4453125,2.14454 -1.5,2.14454 z m 7.3769531,-0.6211 c 0,2.82422 -1.2539063,3.41016 -1.96875,3.41016 -0.28125,0 -0.9257813,-0.0352 -1.21875,-0.45703 h 0.070312 c 0.082031,0.0234 0.515625,-0.0469 0.515625,-0.49219 0,-0.25781 -0.1757813,-0.49219 -0.4921875,-0.49219 -0.3046875,0 -0.5039063,0.21094 -0.5039063,0.51563 0,0.75 0.5976563,1.24218 1.640625,1.24218 1.5,0 2.9414063,-1.58203 2.9414063,-4.18359 0,-3.21094 -1.3359375,-4.00781 -2.390625,-4.00781 -1.3125,0 -2.4726563,1.10156 -2.4726563,2.67187 0,1.58203 1.1132813,2.66016 2.3085938,2.66016 0.8789062,0 1.3359375,-0.64453 1.5703125,-1.25391 z m -1.5234375,0.6211 c -0.75,0 -1.078125,-0.60938 -1.1835938,-0.83204 -0.1992187,-0.45703 -0.1992187,-1.03125 -0.1992187,-1.57031 0,-0.66797 0,-1.24219 0.3164062,-1.73437 0.2109375,-0.31641 0.5390625,-0.66797 1.1835938,-0.66797 0.6796875,0 1.03125,0.59765 1.1484375,0.8789 0.234375,0.58594 0.234375,1.59375 0.234375,1.78125 0,0.9961 -0.4453125,2.14454 -1.5,2.14454 z m 7.3769531,-0.6211 c 0,2.82422 -1.2539062,3.41016 -1.96875,3.41016 -0.28125,0 -0.92578124,-0.0352 -1.21874999,-0.45703 h 0.0703125 c 0.0820313,0.0234 0.515625,-0.0469 0.515625,-0.49219 0,-0.25781 -0.17578125,-0.49219 -0.4921875,-0.49219 -0.3046875,0 -0.50390625,0.21094 -0.50390625,0.51563 0,0.75 0.59765625,1.24218 1.64062504,1.24218 1.5,0 2.9414062,-1.58203 2.9414062,-4.18359 0,-3.21094 -1.3359375,-4.00781 -2.390625,-4.00781 -1.31249999,0 -2.47265624,1.10156 -2.47265624,2.67187 0,1.58203 1.11328125,2.66016 2.30859374,2.66016 0.8789063,0 1.3359375,-0.64453 1.5703125,-1.25391 z m -1.5234375,0.6211 c -0.75,0 -1.07812499,-0.60938 -1.18359374,-0.83204 -0.19921875,-0.45703 -0.19921875,-1.03125 -0.19921875,-1.57031 0,-0.66797 0,-1.24219 0.31640625,-1.73437 0.21093754,-0.31641 0.53906254,-0.66797 1.18359374,-0.66797 0.6796875,0 1.03125,0.59765 1.1484375,0.8789 0.234375,0.58594 0.234375,1.59375 0.234375,1.78125 0,0.9961 -0.4453125,2.14454 -1.5,2.14454 z m 10.6523437,-0.6211 c 0,2.82422 -1.253906,3.41016 -1.96875,3.41016 -0.28125,0 -0.9257812,-0.0352 -1.2187499,-0.45703 h 0.070312 c 0.082031,0.0234 0.515625,-0.0469 0.515625,-0.49219 0,-0.25781 -0.1757813,-0.49219 -0.4921875,-0.49219 -0.3046875,0 -0.5039063,0.21094 -0.5039063,0.51563 0,0.75 0.5976563,1.24218 1.6406247,1.24218 1.5,0 2.941406,-1.58203 2.941406,-4.18359 0,-3.21094 -1.335937,-4.00781 -2.390625,-4.00781 -1.3124994,0 -2.4726557,1.10156 -2.4726557,2.67187 0,1.58203 1.1132813,2.66016 2.3085937,2.66016 0.878907,0 1.335937,-0.64453 1.570312,-1.25391 z m -1.523437,0.6211 c -0.75,0 -1.0781254,-0.60938 -1.1835942,-0.83204 -0.1992187,-0.45703 -0.1992187,-1.03125 -0.1992187,-1.57031 0,-0.66797 0,-1.24219 0.3164062,-1.73437 0.2109377,-0.31641 0.5390627,-0.66797 1.1835937,-0.66797 0.679688,0 1.03125,0.59765 1.148438,0.8789 0.234375,0.58594 0.234375,1.59375 0.234375,1.78125 0,0.9961 -0.445313,2.14454 -1.5,2.14454 z m 6.451171,-4.80469 c 0,-0.26953 0,-0.28125 -0.246093,-0.28125 -0.28125,0.3164 -0.878907,0.76172 -2.109375,0.76172 v 0.35156 c 0.269531,0 0.867187,0 1.523437,-0.31641 v 6.22266 c 0,0.43359 -0.03516,0.57422 -1.078125,0.57422 h -0.375 v 0.35156 c 0.316406,-0.0234 1.476563,-0.0234 1.875,-0.0234 0.398438,0 1.546875,0 1.863281,0.0234 v -0.35156 h -0.363281 c -1.054687,0 -1.089844,-0.14063 -1.089844,-0.57422 z m 6.779297,4.18359 c 0,2.82422 -1.253906,3.41016 -1.96875,3.41016 -0.28125,0 -0.925781,-0.0352 -1.21875,-0.45703 h 0.07031 c 0.08203,0.0234 0.515625,-0.0469 0.515625,-0.49219 0,-0.25781 -0.175781,-0.49219 -0.492188,-0.49219 -0.304687,0 -0.503906,0.21094 -0.503906,0.51563 0,0.75 0.597656,1.24218 1.640625,1.24218 1.5,0 2.941406,-1.58203 2.941406,-4.18359 0,-3.21094 -1.335937,-4.00781 -2.390625,-4.00781 -1.3125,0 -2.472656,1.10156 -2.472656,2.67187 0,1.58203 1.113281,2.66016 2.308594,2.66016 0.878906,0 1.335937,-0.64453 1.570312,-1.25391 z m -1.523437,0.6211 c -0.75,0 -1.078125,-0.60938 -1.183594,-0.83204 -0.199219,-0.45703 -0.199219,-1.03125 -0.199219,-1.57031 0,-0.66797 0,-1.24219 0.316407,-1.73437 0.210937,-0.31641 0.539062,-0.66797 1.183593,-0.66797 0.679688,0 1.03125,0.59765 1.148438,0.8789 0.234375,0.58594 0.234375,1.59375 0.234375,1.78125 0,0.9961 -0.445313,2.14454 -1.5,2.14454 z m 0,0"
         style="fill:#000000;fill-opacity:1;fill-rule:nonzero;stroke:none" />
    </g>
  </g>
</svg>
