<?xml version="1.0" encoding="UTF-8" standalone="no"?>
<!-- Created with Inkscape (http://www.inkscape.org/) -->

<svg
   version="1.1"
   id="svg1"
   width="794.55066"
   height="1123.6533"
   viewBox="0 0 794.55066 1123.6533"
   sodipodi:docname="LigaMatematycznaMatuskiego_Klasa5i6_Zestaw2_2021_2022_page0.pdf"
   xmlns:inkscape="http://www.inkscape.org/namespaces/inkscape"
   xmlns:sodipodi="http://sodipodi.sourceforge.net/DTD/sodipodi-0.dtd"
   xmlns="http://www.w3.org/2000/svg"
   xmlns:svg="http://www.w3.org/2000/svg">
  <defs
     id="defs1" />
  <sodipodi:namedview
     id="namedview1"
     pagecolor="#ffffff"
     bordercolor="#000000"
     borderopacity="0.25"
     inkscape:showpageshadow="2"
     inkscape:pageopacity="0.0"
     inkscape:pagecheckerboard="0"
     inkscape:deskcolor="#d1d1d1">
    <inkscape:page
       x="0"
       y="0"
       inkscape:label="1"
       id="page1"
       width="794.55066"
       height="1123.6533"
       margin="0"
       bleed="0" />
  </sodipodi:namedview>
  <g
     id="g1"
     inkscape:groupmode="layer"
     inkscape:label="1">
    <g
       id="g2"
       aria-label="LIGAMATEMATYCZNA&#10;im.ZdzisªawaMatuskiego&#10;LISTOPAD2021&#10;SZKOAPODSTAWOWA&#10;klasyIV-VI&#10;ZADANIE1.&#10;Liczbatrzycyfrowanmanast¦puj¡cewªasno±ci:&#10;sumacyfrjestrówna16;&#10;iloczyncyfrjestró»nyodzera,alecyfr¡jedno±citegoiloczynujestzero;&#10;sumacyfriloczynucyfrliczbynjestrówna3.&#10;Znajd¹najwi¦ksz¡liczb¦notychwªasno±ciach.&#10;ZADANIE2.&#10;Uzupeªnijbrakuj¡cemianowniki&#10;1"
       transform="matrix(1.3333333,0,0,1.3333333,274.724,56.069333)">
      <path
         id="path2"
         d="m -45.141633,119.86011 c 0.02344,-0.0703 0.328125,-0.66797 0.761719,-1.05469 0.316406,-0.28125 0.726562,-0.46875 1.183594,-0.46875 0.480468,0 0.644531,0.35156 0.644531,0.83203 0,0.67969 -0.480469,2.03907 -0.726563,2.6836 -0.105468,0.29297 -0.164062,0.44531 -0.164062,0.66797 0,0.52734 0.375,0.96093 0.949219,0.96093 1.101562,0 1.523437,-1.75781 1.523437,-1.82812 0,-0.0586 -0.04687,-0.10547 -0.117187,-0.10547 -0.105469,0 -0.117188,0.0352 -0.175782,0.23437 -0.28125,0.98438 -0.738281,1.46485 -1.195312,1.46485 -0.128906,0 -0.316406,-0.0117 -0.316406,-0.39844 0,-0.29297 0.128906,-0.65625 0.199218,-0.82031 0.246094,-0.65625 0.75,-2.00391 0.75,-2.6836 0,-0.71484 -0.421875,-1.2539 -1.335937,-1.2539 -1.054688,0 -1.617188,0.75 -1.839844,1.05469 -0.03516,-0.67969 -0.527344,-1.05469 -1.042969,-1.05469 -0.386718,0 -0.644531,0.23437 -0.855468,0.63281 -0.210938,0.43359 -0.375,1.14844 -0.375,1.19531 0,0.0469 0.04687,0.10547 0.128906,0.10547 0.09375,0 0.105469,-0.0117 0.175781,-0.28125 0.1875,-0.72656 0.410156,-1.40625 0.890625,-1.40625 0.269531,0 0.363281,0.1875 0.363281,0.53906 0,0.26954 -0.117187,0.73829 -0.199218,1.10157 -0.105469,0.43359 -0.234375,0.86718 -0.339844,1.28906 -0.04687,0.23437 -0.175781,0.77344 -0.234375,0.98437 -0.08203,0.31641 -0.210938,0.87891 -0.210938,0.9375 0,0.16407 0.128907,0.29297 0.304688,0.29297 0.140625,0 0.316406,-0.0703 0.410156,-0.24609 0.02344,-0.0586 0.128906,-0.48047 0.1875,-0.71484 0.08203,-0.36329 0.175781,-0.72657 0.257813,-1.07813 z m 0,0"
         style="fill:#000000;fill-opacity:1;fill-rule:nonzero;stroke:none" />
      <path
         id="path3"
         d="m -4.8467109,140.10718 c 0,-0.26953 0,-0.28125 -0.2460938,-0.28125 -0.28125,0.31641 -0.8789062,0.76172 -2.109375,0.76172 v 0.35156 c 0.2695313,0 0.8671875,0 1.5234375,-0.31641 v 6.22266 c 0,0.43359 -0.035156,0.57422 -1.078125,0.57422 h -0.375 v 0.35156 c 0.3164063,-0.0234 1.4765625,-0.0234 1.875,-0.0234 0.3984375,0 1.546875,0 1.8632813,0.0234 v -0.35156 h -0.3632813 c -1.0546875,0 -1.0898437,-0.14063 -1.0898437,-0.57422 z m 3.87304684,3.50391 c 0,-3.02344 1.4765625,-3.50391 2.12109376,-3.50391 0.4335937,0 0.8554687,0.12891 1.0898437,0.49219 -0.140625,0 -0.5976562,0 -0.5976562,0.49218 0,0.25782 0.1757812,0.49219 0.4921875,0.49219 0.2929687,0 0.4921875,-0.1875 0.4921875,-0.52734 0,-0.6211 -0.4453125,-1.23047 -1.4882813,-1.23047 -1.51171871,0 -3.0820312,1.53516 -3.0820312,4.17187 0,3.28125 1.42968749,4.01954 2.44921874,4.01954 1.30078126,0 2.41406246,-1.125 2.41406246,-2.6836 0,-1.59375 -1.1132812,-2.66015 -2.30859371,-2.66015 -1.06640625,0 -1.453125,0.92578 -1.58203125,1.26562 z m 1.4765625,4.08984 c -0.75,0 -1.11328125,-0.66797 -1.21875,-0.92578 -0.10546875,-0.30469 -0.22265625,-0.89063 -0.22265625,-1.73438 0,-0.9375 0.421875,-2.12109 1.5,-2.12109 0.65625001,0 1.00781251,0.44531 1.18359371,0.84375 0.1875,0.44531 0.1875,1.04297 0.1875,1.55859 0,0.60938 0,1.14844 -0.2226562,1.60547 -0.3046875,0.57422 -0.72656251,0.77344 -1.20703126,0.77344 z m 0,0"
         style="fill:#000000;fill-opacity:1;fill-rule:nonzero;stroke:none" />
      <path
         id="path4"
         d="m 39.942352,193.08472 c 0.02344,-0.0703 0.328125,-0.66797 0.761718,-1.05469 0.316407,-0.28125 0.726563,-0.46875 1.183594,-0.46875 0.480469,0 0.644531,0.35156 0.644531,0.83203 0,0.67969 -0.480468,2.03907 -0.726562,2.6836 -0.105469,0.29297 -0.164063,0.44531 -0.164063,0.66797 0,0.52734 0.375,0.96093 0.949219,0.96093 1.101563,0 1.523438,-1.75781 1.523438,-1.82812 0,-0.0586 -0.04687,-0.10547 -0.117188,-0.10547 -0.105469,0 -0.117187,0.0352 -0.175781,0.23437 -0.28125,0.98438 -0.738281,1.46485 -1.195313,1.46485 -0.128906,0 -0.316406,-0.0117 -0.316406,-0.39844 0,-0.29297 0.128906,-0.65625 0.199219,-0.82031 0.246094,-0.65625 0.75,-2.00391 0.75,-2.6836 0,-0.71484 -0.421875,-1.2539 -1.335938,-1.2539 -1.054687,0 -1.617187,0.75 -1.839843,1.05469 -0.03516,-0.67969 -0.527344,-1.05469 -1.042969,-1.05469 -0.386719,0 -0.644531,0.23437 -0.855469,0.63281 -0.210937,0.43359 -0.375,1.14844 -0.375,1.19531 0,0.0469 0.04687,0.10547 0.128906,0.10547 0.09375,0 0.105469,-0.0117 0.175782,-0.28125 0.1875,-0.72656 0.410156,-1.40625 0.890625,-1.40625 0.269531,0 0.363281,0.1875 0.363281,0.53906 0,0.26954 -0.117188,0.73829 -0.199219,1.10157 -0.105469,0.43359 -0.234375,0.86718 -0.339844,1.28906 -0.04687,0.23437 -0.175781,0.77344 -0.234375,0.98437 -0.08203,0.31641 -0.210937,0.87891 -0.210937,0.9375 0,0.16407 0.128906,0.29297 0.304687,0.29297 0.140625,0 0.316407,-0.0703 0.410157,-0.24609 0.02344,-0.0586 0.128906,-0.48047 0.1875,-0.71484 0.08203,-0.36329 0.175781,-0.72657 0.257812,-1.07813 z m 0,0"
         style="fill:#000000;fill-opacity:1;fill-rule:nonzero;stroke:none" />
      <path
         id="path5"
         d="m 107.20505,192.29956 c -0.21094,0.0117 -0.25782,0.0234 -0.25782,0.12891 0,0.11719 0.0586,0.11719 0.28125,0.11719 h 0.55079 c 1.00781,0 1.46484,0.84375 1.46484,1.99218 0,1.5586 -0.80859,1.98047 -1.39453,1.98047 -0.57422,0 -1.5586,-0.28125 -1.89844,-1.0664 0.375,0.0586 0.72656,-0.15235 0.72656,-0.58594 0,-0.33984 -0.25781,-0.58594 -0.58593,-0.58594 -0.29297,0 -0.59766,0.16406 -0.59766,0.6211 0,1.0664 1.06641,1.93359 2.39062,1.93359 1.41797,0 2.47266,-1.07813 2.47266,-2.28516 0,-1.10156 -0.89062,-1.96875 -2.02734,-2.16797 1.03125,-0.30468 1.69922,-1.17187 1.69922,-2.10937 0,-0.9375 -0.97266,-1.62891 -2.13282,-1.62891 -1.19531,0 -2.08593,0.72657 -2.08593,1.59375 0,0.48047 0.375,0.57422 0.55078,0.57422 0.25781,0 0.53906,-0.17578 0.53906,-0.53906 0,-0.375 -0.28125,-0.53906 -0.55078,-0.53906 -0.0703,0 -0.0937,0 -0.12891,0.0117 0.45703,-0.82032 1.58203,-0.82032 1.64063,-0.82032 0.38672,0 1.17187,0.17578 1.17187,1.34766 0,0.23437 -0.0352,0.90234 -0.38672,1.41797 -0.35156,0.52734 -0.76172,0.5625 -1.08984,0.57422 z m 0,0"
         style="fill:#000000;fill-opacity:1;fill-rule:nonzero;stroke:none" />
      <path
         id="path6"
         d="m -14.353547,217.49195 c 0.02344,-0.0703 0.328125,-0.66797 0.761719,-1.05469 0.316406,-0.28125 0.726562,-0.46875 1.183594,-0.46875 0.480468,0 0.644531,0.35156 0.644531,0.83203 0,0.67969 -0.480469,2.03906 -0.726563,2.68359 -0.105468,0.29297 -0.164062,0.44532 -0.164062,0.66797 0,0.52735 0.375,0.96094 0.949219,0.96094 1.101562,0 1.523437,-1.75781 1.523437,-1.82813 0,-0.0586 -0.04687,-0.10546 -0.117187,-0.10546 -0.105469,0 -0.117188,0.0351 -0.175782,0.23437 -0.28125,0.98438 -0.738281,1.46484 -1.195312,1.46484 -0.128906,0 -0.316406,-0.0117 -0.316406,-0.39843 0,-0.29297 0.128906,-0.65625 0.199218,-0.82032 0.246094,-0.65625 0.75,-2.0039 0.75,-2.68359 0,-0.71484 -0.421875,-1.25391 -1.335937,-1.25391 -1.054688,0 -1.617188,0.75 -1.839844,1.05469 -0.03516,-0.67969 -0.527344,-1.05469 -1.042969,-1.05469 -0.386718,0 -0.644531,0.23438 -0.855468,0.63282 -0.210938,0.43359 -0.375,1.14843 -0.375,1.19531 0,0.0469 0.04687,0.10547 0.128906,0.10547 0.09375,0 0.105469,-0.0117 0.175781,-0.28125 0.1875,-0.72656 0.410156,-1.40625 0.890625,-1.40625 0.269531,0 0.363281,0.1875 0.363281,0.53906 0,0.26953 -0.117187,0.73828 -0.199218,1.10156 -0.105469,0.4336 -0.234375,0.86719 -0.339844,1.28907 -0.04687,0.23437 -0.175781,0.77343 -0.234375,0.98437 -0.08203,0.31641 -0.210938,0.87891 -0.210938,0.9375 0,0.16406 0.128907,0.29297 0.304688,0.29297 0.140625,0 0.316406,-0.0703 0.410156,-0.24609 0.02344,-0.0586 0.128906,-0.48047 0.1875,-0.71485 0.08203,-0.36328 0.175781,-0.72656 0.257813,-1.07812 z m 0,0"
         style="fill:#000000;fill-opacity:1;fill-rule:nonzero;stroke:none" />
      <path
         id="path7"
         d="m -5.2422187,279.37866 c 0,-0.26953 0,-0.28125 -0.2460938,-0.28125 -0.28125,0.31641 -0.8789062,0.76172 -2.109375,0.76172 v 0.35157 c 0.2695313,0 0.8671875,0 1.5234375,-0.31641 v 6.22266 c 0,0.43359 -0.035156,0.57421 -1.078125,0.57421 h -0.375 v 0.35157 c 0.3164063,-0.0234 1.4765625,-0.0234 1.875,-0.0234 0.3984375,0 1.546875,0 1.8632813,0.0234 v -0.35157 H -4.152375 c -1.0546875,0 -1.0898437,-0.14062 -1.0898437,-0.57421 z m 0,0"
         style="fill:#000000;fill-opacity:1;fill-rule:nonzero;stroke:none" />
    </g>
    <path
       id="path8"
       d="M 0,0 H 5.853"
       style="fill:none;stroke:#000000;stroke-width:0.398;stroke-linecap:butt;stroke-linejoin:miter;stroke-miterlimit:10;stroke-dasharray:none;stroke-opacity:1"
       transform="matrix(1.3333333,0,0,-1.3333333,263.14133,445.59067)" />
    <path
       id="path9"
       d="M 5.2611875,-2.0031172 H 4.9916562 C 4.9565,-1.8038984 4.86275,-1.1476484 4.7455625,-0.96014844 c -0.082031,0.1171875 -0.7617188,0.1171875 -1.125,0.1171875 H 1.4057187 c 0.328125,-0.28124996 1.0546875,-1.04296876 1.3710938,-1.33593746 1.8164062,-1.6640625 2.484375,-2.2851563 2.484375,-3.46875 0,-1.3828125 -1.0898438,-2.296875 -2.4726563,-2.296875 -1.3945312,0 -2.20312495,1.1835937 -2.20312495,2.203125 0,0.609375 0.52734375,0.609375 0.56249995,0.609375 0.2460938,0 0.5625,-0.1757813 0.5625,-0.5625 0,-0.328125 -0.234375,-0.5507813 -0.5625,-0.5507813 -0.1054687,0 -0.1289062,0 -0.16406245,0.011719 0.22265625,-0.8203127 0.86718745,-1.371094 1.64062495,-1.371094 1.0195313,0 1.640625,0.8554688 1.640625,1.9570313 0,1.0078125 -0.5859375,1.8984375 -1.265625,2.6601562 L 0.58540625,-0.28046094 V 7.890625e-4 H 4.9447812 Z m 9.2138675,-8.9648438 h 3.304687 c 0.164063,0 0.375,0 0.375,-0.210937 0,-0.222657 -0.199219,-0.222657 -0.375,-0.222657 h -3.304687 v -3.304687 c 0,-0.164063 0,-0.386719 -0.210938,-0.386719 -0.234375,0 -0.234375,0.210938 -0.234375,0.386719 v 3.304687 h -3.292969 c -0.175781,0 -0.386718,0 -0.386718,0.210938 0,0.222656 0.199218,0.222656 0.386718,0.222656 h 3.292969 v 3.3046876 c 0,0.1640625 0,0.3867187 0.222656,0.3867187 0.222657,0 0.222657,-0.2109375 0.222657,-0.3867187 z m 11.630859,-12.984375 c 0,-0.269531 0,-0.28125 -0.246094,-0.28125 -0.28125,0.316406 -0.878906,0.761719 -2.109375,0.761719 v 0.351562 c 0.269532,0 0.867188,0 1.523438,-0.316406 v 6.222656 c 0,0.433594 -0.03516,0.574219 -1.078125,0.574219 h -0.375 v 0.351563 c 0.316406,-0.02344 1.476562,-0.02344 1.875,-0.02344 0.398437,0 1.546875,0 1.863281,0.02344 v -0.351563 h -0.363281 c -1.054688,0 -1.089844,-0.140625 -1.089844,-0.574219 z m 0,0"
       style="fill:#000000;fill-opacity:1;fill-rule:nonzero;stroke:none"
       aria-label="2&#10;+&#10;1"
       transform="matrix(1.3333333,0,0,1.3333333,263.14133,460.51067)" />
    <path
       id="path10"
       d="M 0,0 H 5.853"
       style="fill:none;stroke:#000000;stroke-width:0.398;stroke-linecap:butt;stroke-linejoin:miter;stroke-miterlimit:10;stroke-dasharray:none;stroke-opacity:1"
       transform="matrix(1.3333333,0,0,-1.3333333,293.35733,445.59067)" />
    <path
       id="path11"
       d="m 2.2017266,-4.2882734 c -0.2109375,0.011719 -0.2578125,0.023437 -0.2578125,0.1289062 0,0.1171875 0.058594,0.1171875 0.28125,0.1171875 h 0.5507812 c 1.0078125,0 1.4648438,0.84375 1.4648438,1.9921875 0,1.55859376 -0.8085938,1.98046876 -1.3945313,1.98046876 -0.5742187,0 -1.5585937,-0.28125 -1.89843749,-1.06640626 0.37499999,0.058594 0.72656249,-0.1523437 0.72656249,-0.5859375 0,-0.3398437 -0.2578125,-0.5859375 -0.5859375,-0.5859375 -0.29296874,0 -0.59765624,0.1640625 -0.59765624,0.6210938 0,1.06640621 1.06640624,1.93359371 2.39062504,1.93359371 1.4179687,0 2.4726562,-1.078125 2.4726562,-2.28515621 0,-1.1015625 -0.890625,-1.96875 -2.0273437,-2.1679688 1.03125,-0.3046875 1.6992187,-1.171875 1.6992187,-2.109375 0,-0.9375 -0.9726562,-1.6289062 -2.1328125,-1.6289062 -1.1953125,0 -2.08593749,0.7265625 -2.08593749,1.59375 0,0.4804687 0.37499999,0.5742187 0.55078129,0.5742187 0.2578125,0 0.5390625,-0.1757812 0.5390625,-0.5390625 0,-0.375 -0.28125,-0.5390625 -0.5507813,-0.5390625 -0.070312,0 -0.09375,0 -0.1289062,0.011719 0.4570312,-0.8203125 1.5820312,-0.8203125 1.640625,-0.8203125 0.3867187,0 1.171875,0.1757812 1.171875,1.3476562 0,0.234375 -0.035156,0.9023438 -0.3867188,1.4179688 -0.3515625,0.5273437 -0.7617187,0.5625 -1.0898437,0.5742187 z M 14.474188,-10.967961 h 3.304687 c 0.164063,0 0.375,0 0.375,-0.210937 0,-0.222657 -0.199219,-0.222657 -0.375,-0.222657 h -3.304687 v -3.304687 c 0,-0.164063 0,-0.386719 -0.210938,-0.386719 -0.234375,0 -0.234375,0.210938 -0.234375,0.386719 v 3.304687 h -3.292969 c -0.175781,0 -0.386718,0 -0.386718,0.210938 0,0.222656 0.199218,0.222656 0.386718,0.222656 h 3.292969 v 3.3046876 c 0,0.1640625 0,0.3867187 0.222656,0.3867187 0.222657,0 0.222657,-0.2109375 0.222657,-0.3867187 z m 13.356445,-12.984375 c 0,-0.269531 0,-0.28125 -0.246094,-0.28125 -0.28125,0.316406 -0.878906,0.761719 -2.109375,0.761719 v 0.351562 c 0.269531,0 0.867188,0 1.523438,-0.316406 v 6.222656 c 0,0.433594 -0.03516,0.574219 -1.078125,0.574219 h -0.375 v 0.351563 c 0.316406,-0.02344 1.476562,-0.02344 1.875,-0.02344 0.398437,0 1.546875,0 1.863281,0.02344 v -0.351563 h -0.363281 c -1.054688,0 -1.089844,-0.140625 -1.089844,-0.574219 z m 0,0"
       style="fill:#000000;fill-opacity:1;fill-rule:nonzero;stroke:none"
       aria-label="3&#10;+&#10;1"
       transform="matrix(1.3333333,0,0,1.3333333,293.35733,460.51067)" />
    <path
       id="path12"
       d="M 0,0 H 9.298"
       style="fill:none;stroke:#000000;stroke-width:0.398;stroke-linecap:butt;stroke-linejoin:miter;stroke-miterlimit:10;stroke-dasharray:none;stroke-opacity:1"
       transform="matrix(1.3333333,0,0,-1.3333333,323.57333,445.59067)" />
    <g
       id="g12"
       aria-label="□&#10;+&#10;1"
       transform="matrix(1.3333333,0,0,1.3333333,323.57333,460.51067)">
      <path
         id="path13"
         d="m 8.6139453,-7.7921797 c 0,-0.375 -0.035156,-0.421875 -0.4101562,-0.421875 H 1.0905078 c -0.37499999,0 -0.42187499,0.035156 -0.42187499,0.421875 v 7.35937501 c 0,0.38671875 0.0351563,0.4335937525 0.43359379,0.4335937525 h 7.0898437 c 0.3867188,0 0.421875,-0.0351562525 0.421875,-0.4218750025 z m -7.4648437,0.058594 h 6.9960937 v 7.25390621 H 1.1491016 Z m 0,0"
         style="fill:#000000;fill-opacity:1;fill-rule:nonzero;stroke:none" />
      <path
         id="path14"
         d="m 17.918633,-10.967961 h 3.304687 c 0.164063,0 0.375,0 0.375,-0.210937 0,-0.222657 -0.199218,-0.222657 -0.375,-0.222657 h -3.304687 v -3.304687 c 0,-0.164063 0,-0.386719 -0.210938,-0.386719 -0.234375,0 -0.234375,0.210938 -0.234375,0.386719 v 3.304687 h -3.292968 c -0.175782,0 -0.386719,0 -0.386719,0.210938 0,0.222656 0.199219,0.222656 0.386719,0.222656 h 3.292968 v 3.3046876 c 0,0.1640625 0,0.3867187 0.222657,0.3867187 0.222656,0 0.222656,-0.2109375 0.222656,-0.3867187 z m 13.356445,-12.984375 c 0,-0.269531 0,-0.28125 -0.246094,-0.28125 -0.28125,0.316406 -0.878906,0.761719 -2.109375,0.761719 v 0.351562 c 0.269532,0 0.867188,0 1.523438,-0.316406 v 6.222656 c 0,0.433594 -0.03516,0.574219 -1.078125,0.574219 h -0.375 v 0.351563 c 0.316406,-0.02344 1.476562,-0.02344 1.875,-0.02344 0.398437,0 1.546875,0 1.863281,0.02344 v -0.351563 h -0.363281 c -1.054688,0 -1.089844,-0.140625 -1.089844,-0.574219 z m 0,0"
         style="fill:#000000;fill-opacity:1;fill-rule:nonzero;stroke:none" />
    </g>
    <path
       id="path15"
       d="M 0,0 H 9.298"
       style="fill:none;stroke:#000000;stroke-width:0.398;stroke-linecap:butt;stroke-linejoin:miter;stroke-miterlimit:10;stroke-dasharray:none;stroke-opacity:1"
       transform="matrix(1.3333333,0,0,-1.3333333,358.38267,445.59067)" />
    <g
       id="g15"
       aria-label="□&#10;+&#10;1"
       transform="matrix(1.3333333,0,0,1.3333333,358.38267,460.51067)">
      <path
         id="path16"
         d="m 8.6133906,-7.7921797 c 0,-0.375 -0.035156,-0.421875 -0.4101562,-0.421875 H 1.0899531 c -0.37499997,0 -0.42187497,0.035156 -0.42187497,0.421875 v 7.35937501 c 0,0.38671875 0.0351563,0.4335937525 0.43359377,0.4335937525 h 7.0898437 c 0.3867188,0 0.421875,-0.0351562525 0.421875,-0.4218750025 z m -7.4648437,0.058594 h 6.9960937 v 7.25390621 H 1.1485469 Z m 0,0"
         style="fill:#000000;fill-opacity:1;fill-rule:nonzero;stroke:none" />
      <path
         id="path17"
         d="m 17.921008,-10.967961 h 3.304687 c 0.164063,0 0.375,0 0.375,-0.210937 0,-0.222657 -0.199218,-0.222657 -0.375,-0.222657 h -3.304687 v -3.304687 c 0,-0.164063 0,-0.386719 -0.210938,-0.386719 -0.234375,0 -0.234375,0.210938 -0.234375,0.386719 v 3.304687 h -3.292968 c -0.175782,0 -0.386719,0 -0.386719,0.210938 0,0.222656 0.199219,0.222656 0.386719,0.222656 h 3.292968 v 3.3046876 c 0,0.1640625 0,0.3867187 0.222657,0.3867187 0.222656,0 0.222656,-0.2109375 0.222656,-0.3867187 z m 14.557617,-12.984375 c 0,-0.269531 0,-0.28125 -0.246094,-0.28125 -0.28125,0.316406 -0.878906,0.761719 -2.109375,0.761719 v 0.351562 c 0.269532,0 0.867188,0 1.523438,-0.316406 v 6.222656 c 0,0.433594 -0.03516,0.574219 -1.078125,0.574219 h -0.375 v 0.351563 c 0.316406,-0.02344 1.476562,-0.02344 1.875,-0.02344 0.398437,0 1.546875,0 1.863281,0.02344 v -0.351563 h -0.363281 c -1.054688,0 -1.089844,-0.140625 -1.089844,-0.574219 z m 0,0"
         style="fill:#000000;fill-opacity:1;fill-rule:nonzero;stroke:none" />
    </g>
    <path
       id="path18"
       d="M 0,0 H 11.706"
       style="fill:none;stroke:#000000;stroke-width:0.398;stroke-linecap:butt;stroke-linejoin:miter;stroke-miterlimit:10;stroke-dasharray:none;stroke-opacity:1"
       transform="matrix(1.3333333,0,0,-1.3333333,393.19333,445.59067)" />
    <path
       id="path19"
       d="m 5.6821484,-7.4171797 v -0.28125 H 2.7993359 c -1.453125,0 -1.4765625,-0.1523437 -1.5234375,-0.3867187 H 1.0180859 l -0.37499996,2.390625 h 0.26953125 c 0.0351563,-0.2109375 0.14062501,-0.9492188 0.29296871,-1.078125 0.09375,-0.070312 0.9960938,-0.070312 1.1601563,-0.070312 h 2.53125 l -1.265625,1.8164062 c -0.3164063,0.4570313 -1.5234375,2.4257813 -1.5234375,4.66406251 0,0.140625 0,0.609375 0.4804687,0.609375 0.5039063,0 0.5039063,-0.45703125 0.5039063,-0.62109375 v -0.59765625 c 0,-1.78125001 0.2929687,-3.16406251 0.8554687,-3.96093751 z m 5.4316406,5.4140625 h -0.269531 c -0.03516,0.1992188 -0.128906,0.8554688 -0.246094,1.04296876 -0.08203,0.1171875 -0.7617187,0.1171875 -1.1249999,0.1171875 H 7.2583203 c 0.328125,-0.28124996 1.0546875,-1.04296876 1.3710938,-1.33593746 1.8164059,-1.6640625 2.4843749,-2.2851563 2.4843749,-3.46875 0,-1.3828125 -1.089844,-2.296875 -2.4726562,-2.296875 -1.3945312,0 -2.203125,1.1835937 -2.203125,2.203125 0,0.609375 0.5273438,0.609375 0.5625,0.609375 0.2460938,0 0.5625,-0.1757813 0.5625,-0.5625 0,-0.328125 -0.234375,-0.5507813 -0.5625,-0.5507813 -0.1054687,0 -0.1289062,0 -0.1640625,0.011719 0.2226563,-0.8203125 0.8671875,-1.3710938 1.640625,-1.3710938 1.0195313,0 1.6406247,0.8554688 1.6406247,1.9570313 0,1.0078125 -0.5859372,1.8984375 -1.2656247,2.6601562 L 6.4380078,-0.28046094 V 7.890625e-4 h 4.3593752 z m 9.213867,-8.9648438 h 3.304688 c 0.164062,0 0.375,0 0.375,-0.210937 0,-0.222657 -0.199219,-0.222657 -0.375,-0.222657 h -3.304688 v -3.304687 c 0,-0.164063 0,-0.386719 -0.210937,-0.386719 -0.234375,0 -0.234375,0.210938 -0.234375,0.386719 v 3.304687 h -3.292969 c -0.175781,0 -0.386719,0 -0.386719,0.210938 0,0.222656 0.199219,0.222656 0.386719,0.222656 h 3.292969 v 3.3046876 c 0,0.1640625 0,0.3867187 0.222656,0.3867187 0.222656,0 0.222656,-0.2109375 0.222656,-0.3867187 z m 17.484375,-12.984375 c 0,-0.269531 0,-0.28125 -0.246093,-0.28125 -0.28125,0.316406 -0.878907,0.761719 -2.109375,0.761719 v 0.351562 c 0.269531,0 0.867187,0 1.523437,-0.316406 v 6.222656 c 0,0.433594 -0.03516,0.574219 -1.078125,0.574219 h -0.375 v 0.351563 c 0.316406,-0.02344 1.476563,-0.02344 1.875,-0.02344 0.398438,0 1.546875,0 1.863281,0.02344 v -0.351563 h -0.363281 c -1.054687,0 -1.089844,-0.140625 -1.089844,-0.574219 z m 0,0"
       style="fill:#000000;fill-opacity:1;fill-rule:nonzero;stroke:none"
       aria-label="72&#10;+&#10;1"
       transform="matrix(1.3333333,0,0,1.3333333,393.19333,460.51067)" />
    <path
       id="path20"
       d="M 0,0 H 17.559"
       style="fill:none;stroke:#000000;stroke-width:0.398;stroke-linecap:butt;stroke-linejoin:miter;stroke-miterlimit:10;stroke-dasharray:none;stroke-opacity:1"
       transform="matrix(1.3333333,0,0,-1.3333333,431.21333,445.59067)" />
    <path
       id="path21"
       d="m 3.4464453,-7.6632734 c 0,-0.2695313 0,-0.28125 -0.2460937,-0.28125 -0.28125,0.3164062 -0.8789063,0.7617187 -2.109375,0.7617187 v 0.3515625 c 0.2695312,0 0.8671875,0 1.5234375,-0.3164062 v 6.22265621 c 0,0.43359375 -0.035156,0.57421875 -1.078125,0.57421875 h -0.375 V 7.890625e-4 c 0.3164062,-0.0234375025 1.4765625,-0.0234375025 1.875,-0.0234375025 0.3984375,0 1.546875,0 1.8632812,0.0234375025 V -0.35077344 H 4.5362891 c -1.0546875,0 -1.0898438,-0.140625 -1.0898438,-0.57421875 z m 7.7636717,3.84375 c 0,-0.9960938 -0.05859,-1.96875 -0.492187,-2.8710938 -0.492188,-0.9960937 -1.3476566,-1.2539062 -1.9335941,-1.2539062 -0.6914062,0 -1.546875,0.3398437 -1.9804687,1.3359375 -0.3398438,0.75 -0.4570313,1.4882812 -0.4570313,2.7890625 0,1.1601562 0.082031,2.0273437 0.515625,2.87109371 0.4570313,0.9140625 1.2890625,1.1953125 1.9101563,1.1953125 1.0429687,0 1.6406248,-0.62109375 1.9804688,-1.31250001 0.433594,-0.890625 0.457031,-2.0625 0.457031,-2.7539062 z M 8.7726172,0.01250781 c -0.3867188,0 -1.1601563,-0.2109375 -1.3828125,-1.52343751 -0.140625,-0.7148437 -0.140625,-1.6171875 -0.140625,-2.4609375 0,-0.9726562 0,-1.8632812 0.1992187,-2.5664062 0.1992188,-0.796875 0.8085938,-1.171875 1.3242188,-1.171875 0.4570312,0 1.1484375,0.28125 1.3710938,1.3007812 0.152344,0.6796875 0.152344,1.6289063 0.152344,2.4375 0,0.8085938 0,1.7109375 -0.128907,2.4375 C 9.9444922,-0.21014844 9.1944922,0.01250781 8.7726172,0.01250781 Z M 15.267734,-4.3117109 c 0.597657,-0.328125 1.464844,-0.8789063 1.464844,-1.875 0,-1.0429688 -0.996094,-1.7578125 -2.097656,-1.7578125 -1.183594,0 -2.121094,0.8671875 -2.121094,1.9570312 0,0.4101563 0.128906,0.8085938 0.457031,1.21875 0.128907,0.1523438 0.140625,0.1640625 0.984375,0.75 -1.160156,0.5390625 -1.757812,1.3476563 -1.757812,2.2148438 0,1.26562496 1.207031,2.05078121 2.425781,2.05078121 1.324219,0 2.4375,-0.97265625 2.4375,-2.22656251 0,-1.21875 -0.855469,-1.7578125 -1.792969,-2.3320312 z m -1.628906,-1.078125 c -0.152344,-0.1054688 -0.632812,-0.421875 -0.632812,-1.0078125 0,-0.7734375 0.820312,-1.265625 1.617187,-1.265625 0.855469,0 1.628906,0.6210937 1.628906,1.4882812 0,0.7265625 -0.527343,1.3125 -1.21875,1.6875 z m 0.5625,1.546875 c 0.328125,0.2109375 1.125,0.7265625 1.453125,0.9375 0.304688,0.1992187 0.855469,0.5742187 0.855469,1.3007812 0,0.91406251 -0.914063,1.53515626 -1.875,1.53515626 -1.019531,0 -1.886719,-0.73828125 -1.886719,-1.73437496 0,-0.9375 0.679688,-1.6875 1.453125,-2.0390625 z M 26.18082,-10.967961 h 3.304688 c 0.164062,0 0.375,0 0.375,-0.210937 0,-0.222657 -0.199219,-0.222657 -0.375,-0.222657 H 26.18082 v -3.304687 c 0,-0.164063 0,-0.386719 -0.210937,-0.386719 -0.234375,0 -0.234375,0.210938 -0.234375,0.386719 v 3.304687 h -3.292969 c -0.175781,0 -0.386719,0 -0.386719,0.210938 0,0.222656 0.199219,0.222656 0.386719,0.222656 h 3.292969 v 3.3046876 c 0,0.1640625 0,0.3867187 0.222656,0.3867187 0.222656,0 0.222656,-0.2109375 0.222656,-0.3867187 z m 17.484375,-12.984375 c 0,-0.269531 0,-0.28125 -0.246093,-0.28125 -0.28125,0.316406 -0.878907,0.761719 -2.109375,0.761719 v 0.351562 c 0.269531,0 0.867187,0 1.523437,-0.316406 v 6.222656 c 0,0.433594 -0.03516,0.574219 -1.078125,0.574219 h -0.375 v 0.351563 c 0.316406,-0.02344 1.476563,-0.02344 1.875,-0.02344 0.398438,0 1.546875,0 1.863281,0.02344 v -0.351563 h -0.363281 c -1.054687,0 -1.089844,-0.140625 -1.089844,-0.574219 z m 0,0"
       style="fill:#000000;fill-opacity:1;fill-rule:nonzero;stroke:none"
       aria-label="108&#10;+&#10;1"
       transform="matrix(1.3333333,0,0,1.3333333,431.21333,460.51067)" />
    <path
       id="path22"
       d="M 0,0 H 17.559"
       style="fill:none;stroke:#000000;stroke-width:0.398;stroke-linecap:butt;stroke-linejoin:miter;stroke-miterlimit:10;stroke-dasharray:none;stroke-opacity:1"
       transform="matrix(1.3333333,0,0,-1.3333333,477.03733,445.59067)" />
    <g
       id="g22"
       aria-label="216&#10;=1.&#10;Wska»wszystkierozwi¡zania.&#10;ZADANIE3.&#10;Bokiczworok¡tamaj¡dªugo±¢8,6,5i7(kolejno±¢zapisutychliczbniemusiby¢zgodna&#10;zdªugo±ciamikolejnychboków).Przek¡tnaodªugo±ci12dzielitenczworok¡tnadwatrójk¡ty.&#10;Podajobwódka»degoznich.&#10;ZADANIE4.&#10;Wpewnejkamienicyjest9mieszka«.Ka»deznichmadwalubtrzypokoje.Ilejestmieszka«&#10;trzypokojowych,je»eliª¡czniewszystkiemieszkaniamaj¡24pokoje?&#10;ZADANIE5.&#10;Wo±miujednakowychskrzynkachznajdujesi¦140buteleksoku,przyczymwjednejzeskrzynek&#10;brakujekilkubutelek,za±pozostaªeskrzynkis¡peªne.Ilebutelekmie±cisi¦wdwunastupeªnych&#10;skrzynkach?"
       transform="matrix(1.3333333,0,0,1.3333333,477.03733,460.51067)">
      <path
         id="path23"
         d="M 5.2630156,-2.0031172 H 4.9934844 c -0.035156,0.1992188 -0.1289063,0.8554688 -0.2460938,1.04296876 -0.082031,0.1171875 -0.7617187,0.1171875 -1.125,0.1171875 H 1.4075469 c 0.328125,-0.28124996 1.0546875,-1.04296876 1.3710937,-1.33593746 1.8164063,-1.6640625 2.484375,-2.2851563 2.484375,-3.46875 0,-1.3828125 -1.0898437,-2.296875 -2.4726562,-2.296875 -1.3945313,0 -2.20312502,1.1835937 -2.20312502,2.203125 0,0.609375 0.52734372,0.609375 0.56250002,0.609375 0.2460937,0 0.5625,-0.1757813 0.5625,-0.5625 0,-0.328125 -0.234375,-0.5507813 -0.5625,-0.5507813 -0.1054688,0 -0.1289063,0 -0.16406252,0.011719 0.22265622,-0.8203125 0.86718752,-1.3710938 1.64062502,-1.3710938 1.0195312,0 1.640625,0.8554688 1.640625,1.9570313 0,1.0078125 -0.5859375,1.8984375 -1.265625,2.6601562 L 0.58723438,-0.28046094 V 7.890625e-4 H 4.9466094 Z m 4.0341797,-5.6601562 c 0,-0.2695313 0,-0.28125 -0.2460937,-0.28125 -0.28125,0.3164062 -0.8789063,0.7617187 -2.109375,0.7617187 v 0.3515625 c 0.2695312,0 0.8671875,0 1.5234375,-0.3164062 v 6.22265621 c 0,0.43359375 -0.035156,0.57421875 -1.078125,0.57421875 h -0.375 V 7.890625e-4 c 0.3164062,-0.0234375025 1.4765625,-0.0234375025 1.875,-0.0234375025 0.3984375,0 1.5468749,0 1.8632809,0.0234375025 V -0.35077344 h -0.363281 c -1.0546874,0 -1.0898437,-0.140625 -1.0898437,-0.57421875 z m 3.8730467,3.5039062 c 0,-3.0234375 1.476563,-3.5039062 2.121094,-3.5039062 0.433594,0 0.855469,0.1289062 1.089844,0.4921875 -0.140625,0 -0.597657,0 -0.597657,0.4921875 0,0.2578125 0.175782,0.4921875 0.492188,0.4921875 0.292969,0 0.492187,-0.1875 0.492187,-0.5273438 0,-0.6210937 -0.445312,-1.2304687 -1.488281,-1.2304687 -1.511719,0 -3.082031,1.5351562 -3.082031,4.171875 0,3.28124996 1.429687,4.01953121 2.449219,4.01953121 1.300781,0 2.414062,-1.125 2.414062,-2.68359371 0,-1.59375 -1.113281,-2.6601563 -2.308594,-2.6601563 -1.066406,0 -1.453125,0.9257813 -1.582031,1.265625 z m 1.476563,4.08984376 c -0.75,0 -1.113282,-0.66796875 -1.21875,-0.92578125 -0.105469,-0.30468751 -0.222657,-0.89062501 -0.222657,-1.73437501 0,-0.9375 0.421875,-2.1210937 1.5,-2.1210937 0.65625,0 1.007813,0.4453125 1.183594,0.84375 0.1875,0.4453125 0.1875,1.0429687 0.1875,1.5585937 0,0.609375 0,1.1484375 -0.222656,1.60546876 -0.304688,0.57421875 -0.726563,0.7734375 -1.207031,0.7734375 z M 30.147781,-12.069523 c 0.164063,0 0.375,0 0.375,-0.222657 0,-0.222656 -0.199218,-0.222656 -0.375,-0.222656 h -7.042968 c -0.175782,0 -0.386719,0 -0.386719,0.210938 0,0.234375 0.199219,0.234375 0.386719,0.234375 z m 0,2.2148433 c 0.164063,0 0.375,0 0.375,-0.2109373 0,-0.234375 -0.199218,-0.234375 -0.375,-0.234375 h -7.042968 c -0.175782,0 -0.386719,0 -0.386719,0.222656 0,0.2226563 0.199219,0.2226563 0.386719,0.2226563 z m 7.801758,-6.0117183 c 0,-0.269532 0,-0.28125 -0.246094,-0.28125 -0.28125,0.316406 -0.878906,0.761718 -2.109375,0.761718 v 0.351563 c 0.269532,0 0.867188,0 1.523438,-0.316406 v 6.2226558 c 0,0.4335938 -0.03516,0.5742188 -1.078125,0.5742188 h -0.375 v 0.3515625 c 0.316406,-0.023437 1.476562,-0.023437 1.875,-0.023437 0.398437,0 1.546875,0 1.863281,0.023437 v -0.3515625 h -0.363281 c -1.054688,0 -1.089844,-0.140625 -1.089844,-0.5742188 z m 0,0"
         style="fill:#000000;fill-opacity:1;fill-rule:nonzero;stroke:none" />
      <path
         id="path24"
         d="m 42.555008,-8.7765547 c 0,-0.3515625 -0.292969,-0.5859375 -0.574219,-0.5859375 -0.351562,0 -0.585937,0.2929688 -0.585937,0.5742188 0,0.3515625 0.28125,0.5859375 0.574218,0.5859375 0.339844,0 0.585938,-0.28125 0.585938,-0.5742188 z m 0,0"
         style="fill:#000000;fill-opacity:1;fill-rule:nonzero;stroke:none" />
      <path
         id="path25"
         d="m -130.99089,59.936336 c 0.59766,-0.328125 1.46484,-0.878906 1.46484,-1.875 0,-1.042969 -0.99609,-1.757813 -2.09765,-1.757813 -1.1836,0 -2.1211,0.867188 -2.1211,1.957032 0,0.410156 0.12891,0.808593 0.45703,1.21875 0.12891,0.152343 0.14063,0.164062 0.98438,0.75 -1.16016,0.539062 -1.75781,1.347656 -1.75781,2.214843 0,1.265625 1.20703,2.050782 2.42578,2.050782 1.32422,0 2.4375,-0.972657 2.4375,-2.226563 0,-1.21875 -0.85547,-1.757812 -1.79297,-2.332031 z m -1.62891,-1.078125 c -0.15234,-0.105469 -0.63281,-0.421875 -0.63281,-1.007813 0,-0.773437 0.82031,-1.265625 1.61719,-1.265625 0.85547,0 1.6289,0.621094 1.6289,1.488282 0,0.726562 -0.52734,1.3125 -1.21875,1.6875 z m 0.5625,1.546875 c 0.32813,0.210937 1.125,0.726562 1.45313,0.9375 0.30469,0.199219 0.85547,0.574219 0.85547,1.300781 0,0.914063 -0.91407,1.535156 -1.875,1.535156 -1.01953,0 -1.88672,-0.738281 -1.88672,-1.734375 0,-0.9375 0.67969,-1.6875 1.45312,-2.039062 z m 0,0"
         style="fill:#000000;fill-opacity:1;fill-rule:nonzero;stroke:none" />
      <path
         id="path26"
         d="m -118.70378,60.08868 c 0,-3.023438 1.47656,-3.503907 2.12109,-3.503907 0.4336,0 0.85547,0.128907 1.08985,0.492188 -0.14063,0 -0.59766,0 -0.59766,0.492187 0,0.257813 0.17578,0.492188 0.49219,0.492188 0.29297,0 0.49219,-0.1875 0.49219,-0.527344 0,-0.621094 -0.44532,-1.230469 -1.48829,-1.230469 -1.51171,0 -3.08203,1.535157 -3.08203,4.171875 0,3.28125 1.42969,4.019532 2.44922,4.019532 1.30078,0 2.41406,-1.125 2.41406,-2.683594 0,-1.59375 -1.11328,-2.660156 -2.30859,-2.660156 -1.06641,0 -1.45312,0.925781 -1.58203,1.265625 z m 1.47656,4.089843 c -0.75,0 -1.11328,-0.667968 -1.21875,-0.925781 -0.10547,-0.304687 -0.22265,-0.890625 -0.22265,-1.734375 0,-0.9375 0.42187,-2.121094 1.5,-2.121094 0.65625,0 1.00781,0.445313 1.18359,0.84375 0.1875,0.445313 0.1875,1.042969 0.1875,1.558594 0,0.609375 0,1.148438 -0.22266,1.605469 -0.30468,0.574219 -0.72656,0.773437 -1.20703,0.773437 z m 0,0"
         style="fill:#000000;fill-opacity:1;fill-rule:nonzero;stroke:none" />
      <path
         id="path27"
         d="m -104.2487,57.405086 c 0.5039,0.164062 0.92578,0.175781 1.05468,0.175781 1.35938,0 2.21485,-0.996094 2.21485,-1.160156 0,-0.04687 -0.0234,-0.105469 -0.0937,-0.105469 -0.0234,0 -0.0469,0 -0.15235,0.04687 -0.66796,0.28125 -1.24218,0.316406 -1.55859,0.316406 -0.78516,0 -1.34766,-0.234375 -1.58203,-0.328125 -0.082,-0.03516 -0.10547,-0.03516 -0.11719,-0.03516 -0.0937,0 -0.0937,0.07031 -0.0937,0.257813 v 3.550781 c 0,0.210937 0,0.292969 0.14063,0.292969 0.0586,0 0.0703,-0.01172 0.19922,-0.164063 0.32812,-0.492187 0.89062,-0.773437 1.48828,-0.773437 0.63281,0 0.94922,0.585937 1.04297,0.785156 0.19921,0.46875 0.21093,1.054687 0.21093,1.511719 0,0.457031 0,1.136718 -0.32812,1.675781 -0.26953,0.421875 -0.73828,0.726562 -1.25391,0.726562 -0.79687,0 -1.57031,-0.539062 -1.78125,-1.40625 0.0586,0.02344 0.12891,0.03516 0.1875,0.03516 0.19922,0 0.52735,-0.128907 0.52735,-0.527344 0,-0.339844 -0.23438,-0.527344 -0.52735,-0.527344 -0.21094,0 -0.52734,0.105469 -0.52734,0.574219 0,1.007812 0.80859,2.167969 2.14453,2.167969 1.34766,0 2.53125,-1.125 2.53125,-2.648438 0,-1.417969 -0.96094,-2.601562 -2.21484,-2.601562 -0.67969,0 -1.20704,0.292968 -1.51172,0.632812 z m 0,0"
         style="fill:#000000;fill-opacity:1;fill-rule:nonzero;stroke:none" />
      <path
         id="path28"
         d="m -80.433273,56.830867 v -0.28125 h -2.882813 c -1.453125,0 -1.476562,-0.152344 -1.523437,-0.386719 h -0.257813 l -0.375,2.390625 h 0.269531 c 0.03516,-0.210937 0.140625,-0.949218 0.292969,-1.078125 0.09375,-0.07031 0.996094,-0.07031 1.160156,-0.07031 h 2.53125 l -1.265625,1.816406 c -0.316406,0.457031 -1.523437,2.425781 -1.523437,4.664063 0,0.140625 0,0.609375 0.480469,0.609375 0.503906,0 0.503906,-0.457032 0.503906,-0.621094 V 63.27618 c 0,-1.78125 0.292969,-3.164063 0.855469,-3.960938 z m 0,0"
         style="fill:#000000;fill-opacity:1;fill-rule:nonzero;stroke:none" />
      <path
         id="path29"
         d="m -18.259445,71.031063 c 0,-0.269532 0,-0.28125 -0.246094,-0.28125 -0.28125,0.316406 -0.878906,0.761718 -2.109375,0.761718 v 0.351563 c 0.269531,0 0.867187,0 1.523437,-0.316406 v 6.222656 c 0,0.433594 -0.03516,0.574219 -1.078125,0.574219 h -0.375 v 0.351562 c 0.316407,-0.02344 1.476563,-0.02344 1.875,-0.02344 0.398438,0 1.546875,0 1.863282,0.02344 v -0.351562 h -0.363282 c -1.054687,0 -1.089843,-0.140625 -1.089843,-0.574219 z m 7.669922,5.660156 h -0.269532 c -0.03516,0.199219 -0.128906,0.855469 -0.246093,1.042969 -0.08203,0.117187 -0.761719,0.117187 -1.125,0.117187 h -2.214844 c 0.328125,-0.28125 1.054687,-1.042969 1.371094,-1.335937 1.816406,-1.664063 2.484375,-2.285157 2.484375,-3.46875 0,-1.382813 -1.089844,-2.296875 -2.472657,-2.296875 -1.394531,0 -2.203125,1.183593 -2.203125,2.203125 0,0.609375 0.527344,0.609375 0.5625,0.609375 0.246094,0 0.5625,-0.175782 0.5625,-0.5625 0,-0.328125 -0.234375,-0.550782 -0.5625,-0.550782 -0.105468,0 -0.128906,0 -0.164062,0.01172 0.222656,-0.820312 0.867187,-1.371094 1.640625,-1.371094 1.019531,0 1.640625,0.855469 1.640625,1.957032 0,1.007812 -0.585938,1.898437 -1.265625,2.660156 l -2.414063,2.707031 v 0.28125 h 4.359375 z m 0,0"
         style="fill:#000000;fill-opacity:1;fill-rule:nonzero;stroke:none" />
      <path
         id="path30"
         d="m -162.67546,132.72442 c 0,2.82422 -1.25391,3.41016 -1.96875,3.41016 -0.28125,0 -0.92578,-0.0352 -1.21875,-0.45703 h 0.0703 c 0.082,0.0234 0.51563,-0.0469 0.51563,-0.49219 0,-0.25781 -0.17578,-0.49219 -0.49219,-0.49219 -0.30469,0 -0.50391,0.21094 -0.50391,0.51563 0,0.75 0.59766,1.24218 1.64063,1.24218 1.5,0 2.9414,-1.58203 2.9414,-4.18359 0,-3.21094 -1.33593,-4.00781 -2.39062,-4.00781 -1.3125,0 -2.47266,1.10156 -2.47266,2.67187 0,1.58203 1.11328,2.66016 2.3086,2.66016 0.8789,0 1.33593,-0.64453 1.57031,-1.25391 z m -1.52344,0.6211 c -0.75,0 -1.07812,-0.60938 -1.18359,-0.83204 -0.19922,-0.45703 -0.19922,-1.03125 -0.19922,-1.57031 0,-0.66797 0,-1.24219 0.31641,-1.73437 0.21093,-0.31641 0.53906,-0.66797 1.18359,-0.66797 0.67969,0 1.03125,0.59765 1.14844,0.8789 0.23437,0.58594 0.23437,1.59375 0.23437,1.78125 0,0.9961 -0.44531,2.14454 -1.5,2.14454 z m 0,0"
         style="fill:#000000;fill-opacity:1;fill-rule:nonzero;stroke:none" />
      <path
         id="path31"
         d="M 2.3450469,148.64727 H 2.0755156 c -0.035156,0.19922 -0.1289062,0.85547 -0.2460937,1.04297 -0.082031,0.11719 -0.7617188,0.11719 -1.12500002,0.11719 H -1.5104219 c 0.328125,-0.28125 1.05468753,-1.04297 1.37109378,-1.33594 1.81640622,-1.66406 2.48437502,-2.28515 2.48437502,-3.46875 0,-1.38281 -1.0898438,-2.29687 -2.47265627,-2.29687 -1.39453123,0 -2.20312503,1.18359 -2.20312503,2.20312 0,0.60938 0.5273438,0.60938 0.5625,0.60938 0.2460938,0 0.5625,-0.17578 0.5625,-0.5625 0,-0.32813 -0.234375,-0.55078 -0.5625,-0.55078 -0.1054687,0 -0.1289062,0 -0.1640625,0.0117 0.2226563,-0.82031 0.8671875,-1.37109 1.64062503,-1.37109 1.01953125,0 1.64062497,0.85547 1.64062497,1.95703 0,1.00781 -0.58593747,1.89844 -1.26562497,2.66016 l -2.41406253,2.70703 v 0.28125 h 4.359375 z m 4.9042969,-5.77734 c 0,-0.22266 0,-0.29297 -0.1640625,-0.29297 -0.09375,0 -0.1289063,0 -0.2226563,0.15234 l -3.5976562,5.57813 v 0.35156 h 3.140625 v 1.07813 c 0,0.44531 -0.023437,0.5625 -0.9023438,0.5625 H 5.268875 v 0.35156 c 0.2695313,-0.0234 1.21875,-0.0234 1.5585938,-0.0234 0.328125,0 1.2890625,0 1.5585937,0.0234 v -0.35156 h -0.234375 c -0.8671875,0 -0.9023437,-0.11719 -0.9023437,-0.5625 v -1.07813 H 8.456375 v -0.35156 H 7.2493438 Z m -0.7851563,0.9375 v 4.5 h -2.90625 z m 0,0"
         style="fill:#000000;fill-opacity:1;fill-rule:nonzero;stroke:none" />
      <path
         id="path32"
         d="m -60.534836,186.05352 c 0,-0.26953 0,-0.28125 -0.246094,-0.28125 -0.28125,0.31641 -0.878906,0.76172 -2.109375,0.76172 v 0.35156 c 0.269532,0 0.867188,0 1.523438,-0.3164 v 6.22265 c 0,0.4336 -0.03516,0.57422 -1.078125,0.57422 h -0.375 v 0.35157 c 0.316406,-0.0234 1.476562,-0.0234 1.875,-0.0234 0.398437,0 1.546875,0 1.863281,0.0234 v -0.35157 h -0.363281 c -1.054688,0 -1.089844,-0.14062 -1.089844,-0.57422 z m 6.720703,-0.11718 c 0,-0.22266 0,-0.29297 -0.164062,-0.29297 -0.09375,0 -0.128907,0 -0.222657,0.15234 l -3.597656,5.57813 v 0.35156 h 3.140625 v 1.07812 c 0,0.44532 -0.02344,0.5625 -0.902344,0.5625 h -0.234375 v 0.35157 c 0.269532,-0.0234 1.21875,-0.0234 1.558594,-0.0234 0.328125,0 1.289063,0 1.558594,0.0234 v -0.35157 h -0.234375 c -0.867188,0 -0.902344,-0.11718 -0.902344,-0.5625 v -1.07812 h 1.207031 v -0.35156 h -1.207031 z m -0.785156,0.9375 v 4.5 h -2.90625 z m 7.681641,3.02343 c 0,-0.99609 -0.05859,-1.96875 -0.492188,-2.87109 -0.492187,-0.99609 -1.347656,-1.25391 -1.933594,-1.25391 -0.691406,0 -1.546875,0.33985 -1.980468,1.33594 -0.339844,0.75 -0.457032,1.48828 -0.457032,2.78906 0,1.16016 0.08203,2.02735 0.515625,2.8711 0.457032,0.91406 1.289063,1.19531 1.910157,1.19531 1.042968,0 1.640625,-0.62109 1.980468,-1.3125 0.433594,-0.89063 0.457032,-2.0625 0.457032,-2.75391 z m -2.4375,3.83203 c -0.386719,0 -1.160157,-0.21093 -1.382813,-1.52343 -0.140625,-0.71485 -0.140625,-1.61719 -0.140625,-2.46094 0,-0.97266 0,-1.86328 0.199219,-2.56641 0.199219,-0.79687 0.808594,-1.17187 1.324219,-1.17187 0.457031,0 1.148437,0.28125 1.371093,1.30078 0.152344,0.67969 0.152344,1.62891 0.152344,2.4375 0,0.80859 0,1.71094 -0.128906,2.4375 -0.222656,1.32422 -0.972656,1.54687 -1.394531,1.54687 z m 0,0"
         style="fill:#000000;fill-opacity:1;fill-rule:nonzero;stroke:none" />
    </g>
  </g>
</svg>
