<?xml version="1.0" encoding="UTF-8" standalone="no"?>
<!-- Created with Inkscape (http://www.inkscape.org/) -->

<svg
   version="1.1"
   id="svg1"
   width="794.55066"
   height="1123.6533"
   viewBox="0 0 794.55066 1123.6533"
   sodipodi:docname="LigaMatematycznaMatuskiego_Klasa7i8_Zestaw1_2020_2021_page0.pdf"
   xmlns:inkscape="http://www.inkscape.org/namespaces/inkscape"
   xmlns:sodipodi="http://sodipodi.sourceforge.net/DTD/sodipodi-0.dtd"
   xmlns="http://www.w3.org/2000/svg"
   xmlns:svg="http://www.w3.org/2000/svg">
  <defs
     id="defs1" />
  <sodipodi:namedview
     id="namedview1"
     pagecolor="#ffffff"
     bordercolor="#000000"
     borderopacity="0.25"
     inkscape:showpageshadow="2"
     inkscape:pageopacity="0.0"
     inkscape:pagecheckerboard="0"
     inkscape:deskcolor="#d1d1d1">
    <inkscape:page
       x="0"
       y="0"
       inkscape:label="1"
       id="page1"
       width="794.55066"
       height="1123.6533"
       margin="0"
       bleed="0" />
  </sodipodi:namedview>
  <g
     id="g1"
     inkscape:groupmode="layer"
     inkscape:label="1">
    <g
       id="g2"
       aria-label="LIGAMATEMATYCZNA&#10;im.ZdzisªawaMatuskiego&#10;PADZIERNIK2020&#10;SZKOAPODSTAWOWA&#10;klasyVII-VIII&#10;ZADANIE1.&#10;NapromenadziewHelukoloni±cikupowalipami¡tki:bursztynowebransoletki,koralezmusze-&#10;lekipluszowefoczki.Ka»dywybraªdwieró»nepami¡tki.Foczekkupilidwarazywi¦cejni»&#10;bransoletek,akoralitrzyrazywi¦cejni»foczek.Uzasadnij,»eliczbakolonistówbyªapodzielna&#10;przez9,aliczbakupionychbransoletekbyªaparzysta.&#10;ZADANIE2.&#10;Poleprostok¡taABCDjestrówne1.Ka»dyboktegoprostok¡taprzedªu»onooodcinekrówny&#10;temubokowiiotrzymanopunktyP,Q,R,Swtakisposób,»epunktAjest±rodkiemodcinka&#10;PB,Bjest±rodkiemCQ,Cjest±rodkiemDR,Djest±rodkiemAS.Obliczpoleczworok¡ta&#10;PQRS.&#10;ZADANIE3.&#10;PunktEle»ywewn¡trzkwadratuABCDtak,»etrójk¡tABEjestrównoboczny.Obliczmiar¦&#10;k¡taDCE.&#10;ZADANIE4.&#10;Wkolekcjirmyjubilerskiejs¡trzyrodzajenaszyjników:zdwiemaperªami,zjedn¡perª¡&#10;itakie,któreniemaj¡pereª.Naszyjnikówbezpereªjestdwarazymniejni»wszystkichpozo-&#10;staªych.W99naszyjnikachjest100pereª.Ilejestnaszyjnikówzjedn¡perª¡?&#10;ZADANIE5.&#10;Liczbatrzycyfrowamacyfr¦jedno±cirówn¡5.Je»elidotejliczbydodamy1iotrzyman¡sum¦&#10;podzielimyprzez3,tootrzymamyliczb¡trzycyfrow¡,którejcyfr¡setekjest1,anast¦pnejej&#10;cyfrys¡pierwsz¡idrug¡cyfr¡liczbywyj±ciowej.Wyznaczt¦liczb¦."
       transform="matrix(1.3333333,0,0,1.3333333,274.724,56.069333)">
      <path
         id="path2"
         d="m -113.28616,163.21948 c 0,2.82422 -1.25391,3.41016 -1.96875,3.41016 -0.28125,0 -0.92579,-0.0352 -1.21875,-0.45703 h 0.0703 c 0.082,0.0234 0.51562,-0.0469 0.51562,-0.49219 0,-0.25781 -0.17578,-0.49219 -0.49218,-0.49219 -0.30469,0 -0.50391,0.21094 -0.50391,0.51563 0,0.75 0.59766,1.24219 1.64062,1.24219 1.5,0 2.94141,-1.58203 2.94141,-4.1836 0,-3.21093 -1.33594,-4.00781 -2.39062,-4.00781 -1.3125,0 -2.47266,1.10156 -2.47266,2.67188 0,1.58203 1.11328,2.66015 2.30859,2.66015 0.87891,0 1.33594,-0.64453 1.57032,-1.2539 z m -1.52344,0.6211 c -0.75,0 -1.07813,-0.60938 -1.1836,-0.83203 -0.19921,-0.45703 -0.19921,-1.03125 -0.19921,-1.57032 0,-0.66796 0,-1.24218 0.3164,-1.73437 0.21094,-0.31641 0.53906,-0.66797 1.1836,-0.66797 0.67968,0 1.03125,0.59766 1.14843,0.87891 0.23438,0.58593 0.23438,1.59375 0.23438,1.78125 0,0.99609 -0.44531,2.14453 -1.5,2.14453 z m 0,0"
         style="fill:#000000;fill-opacity:1;fill-rule:nonzero;stroke:none" />
      <path
         id="path3"
         d="m -63.551789,208.44214 c -0.410156,0.70313 -0.820313,0.9375 -1.394531,0.97266 -0.128907,0.0117 -0.222657,0.0117 -0.222657,0.23437 0,0.0703 0.05859,0.11719 0.140625,0.11719 0.210938,0 0.75,-0.0234 0.972657,-0.0234 0.339843,0 0.726562,0.0234 1.054687,0.0234 0.07031,0 0.222656,0 0.222656,-0.22266 0,-0.11718 -0.09375,-0.1289 -0.175781,-0.1289 -0.269531,-0.0234 -0.492187,-0.11719 -0.492187,-0.39844 0,-0.17578 0.07031,-0.30469 0.222656,-0.5625 l 0.902344,-1.51172 h 3.058593 c 0.01172,0.10547 0.01172,0.21094 0.02344,0.31641 0.03516,0.30468 0.175781,1.54687 0.175781,1.78125 0,0.35156 -0.609375,0.375 -0.796875,0.375 -0.140625,0 -0.269531,0 -0.269531,0.22265 0,0.12891 0.105469,0.12891 0.175781,0.12891 0.210938,0 0.445313,-0.0234 0.65625,-0.0234 h 0.679688 c 0.726562,0 1.253906,0.0234 1.265625,0.0234 0.08203,0 0.210937,0 0.210937,-0.22266 0,-0.1289 -0.105469,-0.1289 -0.28125,-0.1289 -0.65625,0 -0.667969,-0.10547 -0.714844,-0.45703 l -0.726562,-7.46485 c -0.02344,-0.23437 -0.07031,-0.25781 -0.199219,-0.25781 -0.117187,0 -0.1875,0.0234 -0.304687,0.19922 z m 1.441406,-1.83984 2.402344,-4.01953 0.410156,4.01953 z m 9.679688,-4.1836 c 0.117187,-0.44531 0.164062,-0.46875 0.621093,-0.46875 h 1.558594 c 1.347656,0 1.347656,1.14844 1.347656,1.25391 0,0.97266 -0.960937,2.20312 -2.542968,2.20312 h -1.722657 z m 2.027343,3.08203 c 1.300782,-0.24609 2.484375,-1.14843 2.484375,-2.25 0,-0.92578 -0.832031,-1.65234 -2.179687,-1.65234 h -3.832031 c -0.234375,0 -0.339844,0 -0.339844,0.23438 0,0.11718 0.105469,0.11718 0.292969,0.11718 0.726562,0 0.726562,0.0937 0.726562,0.22266 0,0.0234 0,0.0937 -0.04687,0.28125 l -1.617187,6.43359 c -0.105469,0.41016 -0.128907,0.52735 -0.960938,0.52735 -0.234375,0 -0.351562,0 -0.351562,0.22265 0,0.12891 0.07031,0.12891 0.304687,0.12891 h 4.101563 c 1.828125,0 3.246093,-1.38281 3.246093,-2.58984 0,-0.98438 -0.867187,-1.58204 -1.828125,-1.67579 z m -1.699218,3.91407 h -1.617188 c -0.164062,0 -0.1875,0 -0.257812,-0.0117 -0.128907,-0.0117 -0.152344,-0.0352 -0.152344,-0.12891 0,-0.082 0.03516,-0.15234 0.05859,-0.25781 l 0.832031,-3.375 h 2.25 c 1.40625,0 1.40625,1.3125 1.40625,1.40625 0,1.14844 -1.042969,2.36719 -2.519531,2.36719 z m 13.719726,-7.95703 c 0,-0.10547 -0.08203,-0.10547 -0.105468,-0.10547 -0.02344,0 -0.07031,0 -0.175782,0.11718 l -0.820312,1.00782 c -0.421875,-0.71485 -1.078125,-1.125 -1.96875,-1.125 -2.589844,0 -5.261719,2.61328 -5.261719,5.42578 0,1.99219 1.394531,3.23437 3.140625,3.23437 0.960938,0 1.792969,-0.39843 2.484375,-0.98437 1.042969,-0.87891 1.359375,-2.03906 1.359375,-2.13281 0,-0.10547 -0.09375,-0.10547 -0.140625,-0.10547 -0.105469,0 -0.117187,0.0703 -0.140625,0.11718 -0.550781,1.86329 -2.15625,2.76563 -3.351562,2.76563 -1.277344,0 -2.367188,-0.82031 -2.367188,-2.50781 0,-0.38672 0.117188,-2.46094 1.464844,-4.03125 0.65625,-0.76172 1.78125,-1.44141 2.917969,-1.44141 1.3125,0 1.898437,1.08984 1.898437,2.30859 0,0.31641 -0.03516,0.57422 -0.03516,0.6211 0,0.11719 0.117187,0.11719 0.152344,0.11719 0.140625,0 0.152343,-0.0117 0.199218,-0.23438 z m 2.182617,7.42968 c -0.105468,0.41016 -0.128906,0.52735 -0.960937,0.52735 -0.234375,0 -0.351563,0 -0.351563,0.22265 0,0.12891 0.07031,0.12891 0.304688,0.12891 h 3.796875 c 2.414062,0 4.769531,-2.49609 4.769531,-5.16797 0,-1.72266 -1.03125,-3 -2.742187,-3 h -3.832032 c -0.234375,0 -0.339843,0 -0.339843,0.23438 0,0.11718 0.105468,0.11718 0.292968,0.11718 0.726563,0 0.726563,0.0937 0.726563,0.22266 0,0.0234 0,0.0937 -0.04687,0.28125 z m 2.519532,-6.46875 c 0.117187,-0.44531 0.164062,-0.46875 0.621093,-0.46875 h 1.324219 c 1.113281,0 2.144531,0.60938 2.144531,2.26172 0,0.59766 -0.234375,2.67188 -1.394531,3.98438 -0.339844,0.39843 -1.242187,1.21875 -2.625,1.21875 h -1.359375 c -0.164062,0 -0.1875,0 -0.257812,-0.0117 -0.128907,-0.0117 -0.140625,-0.0352 -0.140625,-0.12891 0,-0.082 0.02344,-0.15234 0.04687,-0.25781 z m 0,0"
         style="fill:#000000;fill-opacity:1;fill-rule:nonzero;stroke:none" />
      <path
         id="path4"
         d="m 34.082977,202.1023 c 0,-0.26953 0,-0.28125 -0.246094,-0.28125 -0.28125,0.3164 -0.878906,0.76172 -2.109375,0.76172 v 0.35156 c 0.269531,0 0.867187,0 1.523437,-0.31641 v 6.22266 c 0,0.43359 -0.03516,0.57422 -1.078125,0.57422 h -0.375 v 0.35156 c 0.316407,-0.0234 1.476563,-0.0234 1.875,-0.0234 0.398438,0 1.546875,0 1.863282,0.0234 V 209.4148 H 35.17282 c -1.054687,0 -1.089843,-0.14063 -1.089843,-0.57422 z m 0,0"
         style="fill:#000000;fill-opacity:1;fill-rule:nonzero;stroke:none" />
      <path
         id="path5"
         d="m 28.973602,220.41577 h 2.003906 c 1.652344,0 3.304687,-1.21875 3.304687,-2.58984 0,-0.92578 -0.796875,-1.78125 -2.296875,-1.78125 h -3.691406 c -0.234375,0 -0.339844,0 -0.339844,0.23437 0,0.11719 0.105469,0.11719 0.292969,0.11719 0.726563,0 0.726563,0.0937 0.726563,0.22266 0,0.0234 0,0.0937 -0.04687,0.28125 l -1.617188,6.43359 c -0.105469,0.41016 -0.128906,0.52735 -0.960937,0.52735 -0.234375,0 -0.351563,0 -0.351563,0.22265 0,0.12891 0.105469,0.12891 0.175781,0.12891 0.234375,0 0.46875,-0.0234 0.691407,-0.0234 h 1.40625 c 0.222656,0 0.480468,0.0234 0.703125,0.0234 0.09375,0 0.222656,0 0.222656,-0.22266 0,-0.1289 -0.105469,-0.1289 -0.28125,-0.1289 -0.714844,0 -0.726563,-0.082 -0.726563,-0.19922 0,-0.0586 0.01172,-0.14063 0.02344,-0.19922 z m 0.855468,-3.55078 c 0.117188,-0.44531 0.164063,-0.46875 0.621094,-0.46875 h 1.183594 c 0.902344,0 1.640625,0.28125 1.640625,1.1836 0,0.30468 -0.152344,1.32421 -0.703125,1.875 -0.199219,0.21093 -0.773438,0.66796 -1.863281,0.66796 h -1.6875 z m 0,0"
         style="fill:#000000;fill-opacity:1;fill-rule:nonzero;stroke:none" />
      <path
         id="path6"
         d="m 46.707,224.14234 c 2.050781,-0.83204 3.585938,-3 3.585938,-5.16797 0,-1.96875 -1.300782,-3.17578 -2.964844,-3.17578 -2.566406,0 -5.144531,2.7539 -5.144531,5.50781 0,1.875 1.242187,3.15234 2.976562,3.15234 0.410156,0 0.796875,-0.0586 1.183594,-0.17578 -0.07031,0.71484 -0.07031,0.77344 -0.07031,1.00781 0,0.33985 0,1.24219 0.949219,1.24219 1.429688,0 1.957031,-2.23828 1.957031,-2.30859 0,-0.0703 -0.04687,-0.11719 -0.117187,-0.11719 -0.07031,0 -0.09375,0.0586 -0.128906,0.1875 -0.257813,0.75 -0.878907,1.18359 -1.40625,1.18359 -0.609375,0 -0.761719,-0.42187 -0.820313,-1.33593 z m -2.15625,-0.0586 c -0.949219,-0.32812 -1.394531,-1.3125 -1.394531,-2.41406 0,-0.84375 0.304687,-2.42578 1.089844,-3.63281 0.890625,-1.3711 2.074218,-1.98047 3,-1.98047 1.253906,0 2.085937,1.00781 2.085937,2.5664 0,0.87891 -0.421875,3.84375 -2.671875,5.15625 -0.05859,-0.60937 -0.222656,-1.32421 -1.007812,-1.32421 -0.644532,0 -1.195313,0.64453 -1.195313,1.23046 0,0.12891 0.04687,0.31641 0.09375,0.39844 z m 1.816406,-0.14062 c -0.433593,0.1875 -0.796875,0.25781 -1.136718,0.25781 -0.117188,0 -0.539063,0 -0.539063,-0.52734 0,-0.4336 0.421875,-0.98438 0.960938,-0.98438 0.597656,0 0.726562,0.41016 0.726562,1.00781 0,0.0703 0,0.16407 -0.01172,0.2461 z m 0,0"
         style="fill:#000000;fill-opacity:1;fill-rule:nonzero;stroke:none" />
      <path
         id="path7"
         d="m 62.281219,216.86499 c 0.117187,-0.44531 0.164062,-0.46875 0.621094,-0.46875 H 63.7695 c 1.03125,0 1.792969,0.30469 1.792969,1.24219 0,0.60937 -0.316406,2.36719 -2.71875,2.36719 h -1.347656 z m 1.664062,3.28125 c 1.488282,-0.3164 2.648438,-1.27734 2.648438,-2.30859 0,-0.92578 -0.949219,-1.79297 -2.613281,-1.79297 h -3.234375 c -0.246094,0 -0.351563,0 -0.351563,0.23437 0,0.11719 0.08203,0.11719 0.316406,0.11719 0.714844,0 0.714844,0.0937 0.714844,0.22266 0,0.0234 0,0.0937 -0.04687,0.28125 l -1.617187,6.43359 c -0.105469,0.41016 -0.128907,0.52735 -0.949219,0.52735 -0.28125,0 -0.363281,0 -0.363281,0.23437 0,0.11719 0.128906,0.11719 0.164062,0.11719 0.222656,0 0.46875,-0.0234 0.691406,-0.0234 h 1.417969 c 0.210938,0 0.46875,0.0234 0.679688,0.0234 0.09375,0 0.222656,0 0.222656,-0.22266 0,-0.1289 -0.105469,-0.1289 -0.28125,-0.1289 -0.726563,0 -0.726563,-0.0937 -0.726563,-0.21094 0,-0.0117 0,-0.0937 0.02344,-0.1875 l 0.796875,-3.22266 h 1.429687 c 1.136719,0 1.359375,0.72656 1.359375,1.11328 0,0.1875 -0.128906,0.64453 -0.210937,0.96094 -0.128906,0.55078 -0.164063,0.67969 -0.164063,0.90234 0,0.85547 0.691407,1.24219 1.488282,1.24219 0.972656,0 1.394531,-1.18359 1.394531,-1.34765 0,-0.082 -0.05859,-0.11719 -0.128906,-0.11719 -0.105469,0 -0.128907,0.0703 -0.152344,0.16406 -0.28125,0.85547 -0.773438,1.06641 -1.066406,1.06641 -0.304688,0 -0.492188,-0.12891 -0.492188,-0.66797 0,-0.29297 0.140625,-1.3711 0.152344,-1.44141 0.05859,-0.43359 0.05859,-0.48047 0.05859,-0.57422 0,-0.8789 -0.703125,-1.2539 -1.160157,-1.39453 z m 0,0"
         style="fill:#000000;fill-opacity:1;fill-rule:nonzero;stroke:none" />
      <path
         id="path8"
         d="m 81.494109,215.90405 c 0,-0.10546 -0.08203,-0.10546 -0.105468,-0.10546 -0.05859,0 -0.07031,0.0117 -0.210938,0.1875 -0.07031,0.082 -0.5625,0.70312 -0.574219,0.71484 -0.386718,-0.77344 -1.183593,-0.90234 -1.6875,-0.90234 -1.511718,0 -2.882812,1.38281 -2.882812,2.73046 0,0.90235 0.527344,1.42969 1.113281,1.62891 0.140625,0.0469 0.84375,0.24609 1.195313,0.32813 0.609375,0.16406 0.773437,0.21093 1.019531,0.48046 0.04687,0.0586 0.292969,0.32813 0.292969,0.89063 0,1.11328 -1.03125,2.26172 -2.226563,2.26172 -0.984375,0 -2.074219,-0.42188 -2.074219,-1.75781 0,-0.22266 0.05859,-0.51563 0.09375,-0.63282 0,-0.0352 0.01172,-0.0937 0.01172,-0.11718 0,-0.0469 -0.02344,-0.11719 -0.128906,-0.11719 -0.105469,0 -0.117188,0.0234 -0.164063,0.23437 l -0.609375,2.44922 c 0,0.0117 -0.04687,0.16406 -0.04687,0.17578 0,0.10547 0.09375,0.10547 0.117188,0.10547 0.04687,0 0.05859,-0.0117 0.210937,-0.1875 l 0.539063,-0.71484 c 0.292969,0.43359 0.914062,0.90234 2.027344,0.90234 1.535156,0 2.953125,-1.48828 2.953125,-2.98828 0,-0.49219 -0.117188,-0.9375 -0.574219,-1.38281 -0.257813,-0.2461 -0.46875,-0.30469 -1.570313,-0.59766 -0.796875,-0.21094 -0.902343,-0.24609 -1.125,-0.44531 -0.199218,-0.19922 -0.351562,-0.48047 -0.351562,-0.89063 0,-1.00781 1.007812,-2.03906 2.144531,-2.03906 1.171875,0 1.722656,0.72656 1.722656,1.86328 0,0.30469 -0.05859,0.63282 -0.05859,0.67969 0,0.10547 0.09375,0.10547 0.128906,0.10547 0.117187,0 0.128906,-0.0352 0.175781,-0.23438 z m 0,0"
         style="fill:#000000;fill-opacity:1;fill-rule:nonzero;stroke:none" />
      <path
         id="path9"
         d="m 212.59177,222.88843 c -0.41016,0.70312 -0.82032,0.9375 -1.39454,0.97266 -0.1289,0.0117 -0.22265,0.0117 -0.22265,0.23437 0,0.0703 0.0586,0.11719 0.14062,0.11719 0.21094,0 0.75,-0.0234 0.97266,-0.0234 0.33984,0 0.72656,0.0234 1.05469,0.0234 0.0703,0 0.22265,0 0.22265,-0.22266 0,-0.11719 -0.0937,-0.1289 -0.17578,-0.1289 -0.26953,-0.0234 -0.49219,-0.11719 -0.49219,-0.39844 0,-0.17578 0.0703,-0.30469 0.22266,-0.5625 l 0.90234,-1.51172 h 3.0586 c 0.0117,0.10547 0.0117,0.21094 0.0234,0.31641 0.0352,0.30468 0.17578,1.54687 0.17578,1.78125 0,0.35156 -0.60938,0.375 -0.79688,0.375 -0.14062,0 -0.26953,0 -0.26953,0.22265 0,0.12891 0.10547,0.12891 0.17578,0.12891 0.21094,0 0.44531,-0.0234 0.65625,-0.0234 h 0.67969 c 0.72656,0 1.25391,0.0234 1.26562,0.0234 0.082,0 0.21094,0 0.21094,-0.22266 0,-0.1289 -0.10547,-0.1289 -0.28125,-0.1289 -0.65625,0 -0.66797,-0.10547 -0.71484,-0.45704 l -0.72656,-7.46484 c -0.0234,-0.23437 -0.0703,-0.25781 -0.19922,-0.25781 -0.11719,0 -0.1875,0.0234 -0.30469,0.19922 z m 1.4414,-1.83984 2.40235,-4.01954 0.41015,4.01954 z m 0,0"
         style="fill:#000000;fill-opacity:1;fill-rule:nonzero;stroke:none" />
      <path
         id="path10"
         d="m -144.67777,234.86206 h 2.00391 c 1.65234,0 3.30469,-1.21875 3.30469,-2.58984 0,-0.92578 -0.79688,-1.78125 -2.29688,-1.78125 h -3.6914 c -0.23438,0 -0.33985,0 -0.33985,0.23437 0,0.11719 0.10547,0.11719 0.29297,0.11719 0.72656,0 0.72656,0.0937 0.72656,0.22266 0,0.0234 0,0.0937 -0.0469,0.28125 l -1.61719,6.43359 c -0.10547,0.41016 -0.1289,0.52735 -0.96094,0.52735 -0.23437,0 -0.35156,0 -0.35156,0.22265 0,0.12891 0.10547,0.12891 0.17578,0.12891 0.23438,0 0.46875,-0.0234 0.69141,-0.0234 h 1.40625 c 0.22266,0 0.48047,0.0234 0.70312,0.0234 0.0937,0 0.22266,0 0.22266,-0.22266 0,-0.1289 -0.10547,-0.1289 -0.28125,-0.1289 -0.71484,0 -0.72656,-0.082 -0.72656,-0.19922 0,-0.0586 0.0117,-0.14063 0.0234,-0.19922 z m 0.85547,-3.55078 c 0.11719,-0.44531 0.16407,-0.46875 0.6211,-0.46875 h 1.18359 c 0.90234,0 1.64063,0.28125 1.64063,1.1836 0,0.30468 -0.15235,1.32421 -0.70313,1.875 -0.19922,0.21093 -0.77344,0.66796 -1.86328,0.66796 h -1.6875 z m 9.14942,0 c 0.11718,-0.44531 0.16406,-0.46875 0.62109,-0.46875 h 1.55859 c 1.34766,0 1.34766,1.14844 1.34766,1.25391 0,0.97265 -0.96094,2.20312 -2.54297,2.20312 h -1.72265 z m 2.02734,3.08203 c 1.30078,-0.24609 2.48438,-1.14843 2.48438,-2.25 0,-0.92578 -0.83204,-1.65234 -2.17969,-1.65234 h -3.83203 c -0.23438,0 -0.33985,0 -0.33985,0.23437 0,0.11719 0.10547,0.11719 0.29297,0.11719 0.72656,0 0.72656,0.0937 0.72656,0.22266 0,0.0234 0,0.0937 -0.0469,0.28125 l -1.61719,6.43359 c -0.10547,0.41016 -0.1289,0.52735 -0.96094,0.52735 -0.23437,0 -0.35156,0 -0.35156,0.22265 0,0.12891 0.0703,0.12891 0.30469,0.12891 h 4.10156 c 1.82813,0 3.2461,-1.38281 3.2461,-2.58985 0,-0.98437 -0.86719,-1.58203 -1.82813,-1.67578 z m -1.69922,3.91407 h -1.61719 c -0.16406,0 -0.1875,0 -0.25781,-0.0117 -0.1289,-0.0117 -0.15234,-0.0352 -0.15234,-0.12891 0,-0.082 0.0351,-0.15234 0.0586,-0.25781 l 0.83203,-3.375 h 2.25 c 1.40625,0 1.40625,1.3125 1.40625,1.40625 0,1.14844 -1.04297,2.36719 -2.51953,2.36719 z m 0,0"
         style="fill:#000000;fill-opacity:1;fill-rule:nonzero;stroke:none" />
      <path
         id="path11"
         d="m -117.69827,231.31128 c 0.11718,-0.44531 0.16406,-0.46875 0.62109,-0.46875 h 1.55859 c 1.34766,0 1.34766,1.14844 1.34766,1.25391 0,0.97265 -0.96094,2.20312 -2.54297,2.20312 h -1.72265 z m 2.02734,3.08203 c 1.30078,-0.24609 2.48438,-1.14843 2.48438,-2.25 0,-0.92578 -0.83204,-1.65234 -2.17969,-1.65234 h -3.83203 c -0.23438,0 -0.33985,0 -0.33985,0.23437 0,0.11719 0.10547,0.11719 0.29297,0.11719 0.72656,0 0.72656,0.0937 0.72656,0.22266 0,0.0234 0,0.0937 -0.0469,0.28125 l -1.61719,6.43359 c -0.10547,0.41016 -0.1289,0.52735 -0.96094,0.52735 -0.23437,0 -0.35156,0 -0.35156,0.22265 0,0.12891 0.0703,0.12891 0.30469,0.12891 h 4.10156 c 1.82813,0 3.2461,-1.38281 3.2461,-2.58985 0,-0.98437 -0.86719,-1.58203 -1.82813,-1.67578 z m -1.69922,3.91407 h -1.61719 c -0.16406,0 -0.1875,0 -0.25781,-0.0117 -0.1289,-0.0117 -0.15234,-0.0352 -0.15234,-0.12891 0,-0.082 0.0352,-0.15234 0.0586,-0.25781 l 0.83203,-3.375 h 2.25 c 1.40625,0 1.40625,1.3125 1.40625,1.40625 0,1.14844 -1.04297,2.36719 -2.51953,2.36719 z m 0,0"
         style="fill:#000000;fill-opacity:1;fill-rule:nonzero;stroke:none" />
      <path
         id="path12"
         d="m -26.974641,230.35034 c 0,-0.10546 -0.08203,-0.10546 -0.105468,-0.10546 -0.02344,0 -0.07031,0 -0.175782,0.11718 l -0.820312,1.00782 c -0.421875,-0.71485 -1.078125,-1.125 -1.96875,-1.125 -2.589844,0 -5.261719,2.61328 -5.261719,5.42578 0,1.99218 1.394531,3.23437 3.140625,3.23437 0.960938,0 1.792969,-0.39844 2.484375,-0.98437 1.042969,-0.87891 1.359375,-2.03907 1.359375,-2.13282 0,-0.10546 -0.09375,-0.10546 -0.140625,-0.10546 -0.105469,0 -0.117187,0.0703 -0.140625,0.11718 -0.550781,1.86328 -2.15625,2.76563 -3.351562,2.76563 -1.277344,0 -2.367188,-0.82031 -2.367188,-2.50781 0,-0.38672 0.117188,-2.46094 1.464844,-4.03125 0.65625,-0.76172 1.78125,-1.44141 2.917969,-1.44141 1.3125,0 1.898437,1.08984 1.898437,2.30859 0,0.31641 -0.03516,0.57422 -0.03516,0.6211 0,0.11718 0.117187,0.11718 0.152344,0.11718 0.140625,0 0.152343,-0.0117 0.199218,-0.23437 z m 5.402344,8.23829 c 2.050781,-0.83204 3.585938,-3 3.585938,-5.16797 0,-1.96875 -1.300782,-3.17578 -2.964844,-3.17578 -2.566406,0 -5.144531,2.7539 -5.144531,5.50781 0,1.875 1.242187,3.15234 2.976562,3.15234 0.410156,0 0.796875,-0.0586 1.183594,-0.17578 -0.07031,0.71484 -0.07031,0.77344 -0.07031,1.00781 0,0.33985 0,1.24219 0.949219,1.24219 1.429688,0 1.957031,-2.23828 1.957031,-2.30859 0,-0.0703 -0.04687,-0.11719 -0.117187,-0.11719 -0.07031,0 -0.09375,0.0586 -0.128906,0.1875 -0.257813,0.75 -0.878907,1.18359 -1.40625,1.18359 -0.609375,0 -0.761719,-0.42187 -0.820313,-1.33593 z m -2.15625,-0.0586 c -0.949219,-0.32812 -1.394531,-1.3125 -1.394531,-2.41406 0,-0.84375 0.304687,-2.42578 1.089844,-3.63281 0.890625,-1.3711 2.074218,-1.98047 3,-1.98047 1.253906,0 2.085937,1.00781 2.085937,2.5664 0,0.87891 -0.421875,3.84375 -2.671875,5.15625 -0.05859,-0.60937 -0.222656,-1.32421 -1.007812,-1.32421 -0.644532,0 -1.195313,0.64453 -1.195313,1.23046 0,0.12891 0.04687,0.31641 0.09375,0.39844 z m 1.816406,-0.14062 c -0.433593,0.1875 -0.796875,0.25781 -1.136718,0.25781 -0.117188,0 -0.539063,0 -0.539063,-0.52734 0,-0.4336 0.421875,-0.98438 0.960938,-0.98438 0.597656,0 0.726562,0.41016 0.726562,1.00781 0,0.0703 0,0.16407 -0.01172,0.2461 z m 0,0"
         style="fill:#000000;fill-opacity:1;fill-rule:nonzero;stroke:none" />
      <path
         id="path13"
         d="m -0.9883125,230.35034 c 0,-0.10546 -0.0820312,-0.10546 -0.1054687,-0.10546 -0.023437,0 -0.070312,0 -0.1757813,0.11718 l -0.8203125,1.00782 c -0.421875,-0.71485 -1.078125,-1.125 -1.96875,-1.125 -2.5898437,0 -5.2617187,2.61328 -5.2617187,5.42578 0,1.99218 1.3945312,3.23437 3.140625,3.23437 0.9609375,0 1.7929687,-0.39844 2.484375,-0.98437 1.0429687,-0.87891 1.359375,-2.03907 1.359375,-2.13282 0,-0.10546 -0.09375,-0.10546 -0.140625,-0.10546 -0.1054688,0 -0.1171875,0.0703 -0.140625,0.11718 -0.5507813,1.86328 -2.15625,2.76563 -3.3515625,2.76563 -1.2773438,0 -2.3671875,-0.82031 -2.3671875,-2.50781 0,-0.38672 0.1171875,-2.46094 1.4648437,-4.03125 0.65625,-0.76172 1.78125,-1.44141 2.9179688,-1.44141 1.3125,0 1.8984375,1.08984 1.8984375,2.30859 0,0.31641 -0.035156,0.57422 -0.035156,0.6211 0,0.11718 0.1171875,0.11718 0.1523438,0.11718 0.140625,0 0.1523437,-0.0117 0.1992187,-0.23437 z m 0,0"
         style="fill:#000000;fill-opacity:1;fill-rule:nonzero;stroke:none" />
      <path
         id="path14"
         d="m 77.855438,237.78003 c -0.105469,0.41016 -0.128907,0.52735 -0.960938,0.52735 -0.234375,0 -0.351562,0 -0.351562,0.22265 0,0.12891 0.07031,0.12891 0.304687,0.12891 H 80.6445 c 2.414063,0 4.769531,-2.4961 4.769531,-5.16797 0,-1.72266 -1.03125,-3 -2.742187,-3 h -3.832031 c -0.234375,0 -0.339844,0 -0.339844,0.23437 0,0.11719 0.105469,0.11719 0.292969,0.11719 0.726562,0 0.726562,0.0937 0.726562,0.22266 0,0.0234 0,0.0937 -0.04687,0.28125 z m 2.519531,-6.46875 c 0.117187,-0.44531 0.164062,-0.46875 0.621094,-0.46875 h 1.324218 c 1.113282,0 2.144532,0.60938 2.144532,2.26172 0,0.59766 -0.234375,2.67188 -1.394532,3.98438 -0.339843,0.39843 -1.242187,1.21875 -2.625,1.21875 h -1.359375 c -0.164062,0 -0.1875,0 -0.257812,-0.0117 -0.128906,-0.0117 -0.140625,-0.0352 -0.140625,-0.12891 0,-0.082 0.02344,-0.15234 0.04687,-0.25781 z m 10.042969,0 c 0.117187,-0.44531 0.164062,-0.46875 0.621093,-0.46875 h 0.867188 c 1.03125,0 1.792969,0.30469 1.792969,1.24219 0,0.60937 -0.316407,2.36719 -2.71875,2.36719 h -1.347657 z m 1.664062,3.28125 c 1.488281,-0.3164 2.648438,-1.27734 2.648438,-2.30859 0,-0.92578 -0.949219,-1.79297 -2.613282,-1.79297 h -3.234375 c -0.246093,0 -0.351562,0 -0.351562,0.23437 0,0.11719 0.08203,0.11719 0.316406,0.11719 0.714844,0 0.714844,0.0937 0.714844,0.22266 0,0.0234 0,0.0937 -0.04687,0.28125 l -1.617188,6.43359 c -0.105468,0.41016 -0.128906,0.52735 -0.949218,0.52735 -0.28125,0 -0.363282,0 -0.363282,0.23437 0,0.11719 0.128907,0.11719 0.164063,0.11719 0.222656,0 0.46875,-0.0234 0.691406,-0.0234 h 1.417969 c 0.210937,0 0.46875,0.0234 0.679687,0.0234 0.09375,0 0.222657,0 0.222657,-0.22266 0,-0.1289 -0.105469,-0.1289 -0.28125,-0.1289 -0.726563,0 -0.726563,-0.0937 -0.726563,-0.21094 0,-0.0117 0,-0.0937 0.02344,-0.1875 l 0.796875,-3.22266 h 1.429687 c 1.136719,0 1.359375,0.72656 1.359375,1.11328 0,0.1875 -0.128906,0.64453 -0.210937,0.96094 -0.128907,0.55078 -0.164063,0.67969 -0.164063,0.90234 0,0.85547 0.691406,1.24219 1.488281,1.24219 0.972657,0 1.394532,-1.18359 1.394532,-1.34765 0,-0.082 -0.05859,-0.11719 -0.128907,-0.11719 -0.105468,0 -0.128906,0.0703 -0.152343,0.16406 -0.28125,0.85547 -0.773438,1.06641 -1.066407,1.06641 -0.304687,0 -0.492187,-0.12891 -0.492187,-0.66797 0,-0.29297 0.140625,-1.3711 0.152344,-1.44141 0.05859,-0.43359 0.05859,-0.48047 0.05859,-0.57422 0,-0.8789 -0.703125,-1.2539 -1.160156,-1.39453 z m 0,0"
         style="fill:#000000;fill-opacity:1;fill-rule:nonzero;stroke:none" />
      <path
         id="path15"
         d="m 104.38962,237.78003 c -0.10547,0.41016 -0.12891,0.52735 -0.96094,0.52735 -0.23438,0 -0.35156,0 -0.35156,0.22265 0,0.12891 0.0703,0.12891 0.30468,0.12891 h 3.79688 c 2.41406,0 4.76953,-2.4961 4.76953,-5.16797 0,-1.72266 -1.03125,-3 -2.74219,-3 h -3.83203 c -0.23437,0 -0.33984,0 -0.33984,0.23437 0,0.11719 0.10547,0.11719 0.29297,0.11719 0.72656,0 0.72656,0.0937 0.72656,0.22266 0,0.0234 0,0.0937 -0.0469,0.28125 z m 2.51953,-6.46875 c 0.11719,-0.44531 0.16406,-0.46875 0.62109,-0.46875 h 1.32422 c 1.11328,0 2.14453,0.60938 2.14453,2.26172 0,0.59766 -0.23437,2.67188 -1.39453,3.98438 -0.33984,0.39843 -1.24219,1.21875 -2.625,1.21875 h -1.35937 c -0.16407,0 -0.1875,0 -0.25782,-0.0117 -0.1289,-0.0117 -0.14062,-0.0352 -0.14062,-0.12891 0,-0.082 0.0234,-0.15234 0.0469,-0.25781 z m 0,0"
         style="fill:#000000;fill-opacity:1;fill-rule:nonzero;stroke:none" />
      <path
         id="path16"
         d="m 191.25192,237.33472 c -0.41015,0.70312 -0.82031,0.9375 -1.39453,0.97266 -0.12891,0.0117 -0.22266,0.0117 -0.22266,0.23437 0,0.0703 0.0586,0.11719 0.14063,0.11719 0.21094,0 0.75,-0.0234 0.97266,-0.0234 0.33984,0 0.72656,0.0234 1.05468,0.0234 0.0703,0 0.22266,0 0.22266,-0.22266 0,-0.11719 -0.0937,-0.1289 -0.17578,-0.1289 -0.26953,-0.0234 -0.49219,-0.11719 -0.49219,-0.39844 0,-0.17578 0.0703,-0.30469 0.22266,-0.5625 l 0.90234,-1.51172 h 3.05859 c 0.0117,0.10547 0.0117,0.21094 0.0234,0.31641 0.0352,0.30468 0.17578,1.54687 0.17578,1.78125 0,0.35156 -0.60937,0.375 -0.79687,0.375 -0.14063,0 -0.26953,0 -0.26953,0.22265 0,0.12891 0.10547,0.12891 0.17578,0.12891 0.21094,0 0.44531,-0.0234 0.65625,-0.0234 h 0.67969 c 0.72656,0 1.2539,0.0234 1.26562,0.0234 0.082,0 0.21094,0 0.21094,-0.22266 0,-0.1289 -0.10547,-0.1289 -0.28125,-0.1289 -0.65625,0 -0.66797,-0.10547 -0.71485,-0.45704 l -0.72656,-7.46484 c -0.0234,-0.23437 -0.0703,-0.25781 -0.19922,-0.25781 -0.11718,0 -0.1875,0.0234 -0.30468,0.19922 z m 1.44141,-1.83984 2.40234,-4.01954 0.41016,4.01954 z m 12.90234,-5.14454 c 0,-0.10546 -0.082,-0.10546 -0.10547,-0.10546 -0.0586,0 -0.0703,0.0117 -0.21093,0.1875 -0.0703,0.082 -0.5625,0.70312 -0.57422,0.71484 -0.38672,-0.77344 -1.1836,-0.90234 -1.6875,-0.90234 -1.51172,0 -2.88282,1.38281 -2.88282,2.73046 0,0.90235 0.52735,1.42969 1.11329,1.62891 0.14062,0.0469 0.84375,0.24609 1.19531,0.32813 0.60937,0.16406 0.77344,0.21093 1.01953,0.48046 0.0469,0.0586 0.29297,0.32813 0.29297,0.89063 0,1.11328 -1.03125,2.26172 -2.22656,2.26172 -0.98438,0 -2.07422,-0.42188 -2.07422,-1.75781 0,-0.22266 0.0586,-0.51563 0.0937,-0.63282 0,-0.0352 0.0117,-0.0937 0.0117,-0.11718 0,-0.0469 -0.0234,-0.11719 -0.12891,-0.11719 -0.10547,0 -0.11719,0.0234 -0.16406,0.23437 l -0.60938,2.44922 c 0,0.0117 -0.0469,0.16406 -0.0469,0.17578 0,0.10547 0.0937,0.10547 0.11718,0.10547 0.0469,0 0.0586,-0.0117 0.21094,-0.1875 l 0.53906,-0.71484 c 0.29297,0.43359 0.91407,0.90234 2.02735,0.90234 1.53515,0 2.95312,-1.48828 2.95312,-2.98828 0,-0.49219 -0.11718,-0.9375 -0.57422,-1.38281 -0.25781,-0.2461 -0.46875,-0.30469 -1.57031,-0.59766 -0.79687,-0.21094 -0.90234,-0.24609 -1.125,-0.44531 -0.19922,-0.19922 -0.35156,-0.48047 -0.35156,-0.89063 0,-1.00781 1.00781,-2.03906 2.14453,-2.03906 1.17188,0 1.72266,0.72656 1.72266,1.86328 0,0.30469 -0.0586,0.63282 -0.0586,0.67969 0,0.10547 0.0937,0.10547 0.12891,0.10547 0.11719,0 0.12891,-0.0352 0.17578,-0.23438 z m 0,0"
         style="fill:#000000;fill-opacity:1;fill-rule:nonzero;stroke:none" />
      <path
         id="path17"
         d="m -144.67777,249.30542 h 2.00391 c 1.65234,0 3.30469,-1.21875 3.30469,-2.58984 0,-0.92578 -0.79688,-1.78125 -2.29688,-1.78125 h -3.6914 c -0.23438,0 -0.33985,0 -0.33985,0.23437 0,0.11719 0.10547,0.11719 0.29297,0.11719 0.72656,0 0.72656,0.0937 0.72656,0.22266 0,0.0234 0,0.0937 -0.0469,0.28125 l -1.61719,6.43359 c -0.10547,0.41016 -0.1289,0.52734 -0.96094,0.52734 -0.23437,0 -0.35156,0 -0.35156,0.22266 0,0.12891 0.10547,0.12891 0.17578,0.12891 0.23438,0 0.46875,-0.0234 0.69141,-0.0234 h 1.40625 c 0.22266,0 0.48047,0.0234 0.70312,0.0234 0.0937,0 0.22266,0 0.22266,-0.22266 0,-0.12891 -0.10547,-0.12891 -0.28125,-0.12891 -0.71484,0 -0.72656,-0.082 -0.72656,-0.19921 0,-0.0586 0.0117,-0.14063 0.0234,-0.19922 z m 0.85547,-3.55078 c 0.11719,-0.44531 0.16407,-0.46875 0.6211,-0.46875 h 1.18359 c 0.90234,0 1.64063,0.28125 1.64063,1.18359 0,0.30469 -0.15235,1.32422 -0.70313,1.875 -0.19922,0.21094 -0.77344,0.66797 -1.86328,0.66797 h -1.6875 z m 9.87598,7.27734 c 2.05078,-0.83203 3.58594,-3 3.58594,-5.16796 0,-1.96875 -1.30078,-3.17579 -2.96485,-3.17579 -2.5664,0 -5.14453,2.75391 -5.14453,5.50782 0,1.875 1.24219,3.15234 2.97656,3.15234 0.41016,0 0.79688,-0.0586 1.1836,-0.17578 -0.0703,0.71484 -0.0703,0.77344 -0.0703,1.00781 0,0.33985 0,1.24219 0.94921,1.24219 1.42969,0 1.95704,-2.23828 1.95704,-2.30859 0,-0.0703 -0.0469,-0.11719 -0.11719,-0.11719 -0.0703,0 -0.0937,0.0586 -0.12891,0.1875 -0.25781,0.75 -0.8789,1.18359 -1.40625,1.18359 -0.60937,0 -0.76172,-0.42187 -0.82031,-1.33594 z m -2.15625,-0.0586 c -0.94922,-0.32812 -1.39453,-1.3125 -1.39453,-2.41406 0,-0.84375 0.30469,-2.42578 1.08984,-3.63281 0.89063,-1.3711 2.07422,-1.98047 3,-1.98047 1.25391,0 2.08594,1.00781 2.08594,2.5664 0,0.87891 -0.42188,3.84375 -2.67188,5.15625 -0.0586,-0.60937 -0.22265,-1.32422 -1.00781,-1.32422 -0.64453,0 -1.19531,0.64454 -1.19531,1.23047 0,0.12891 0.0469,0.31641 0.0937,0.39844 z m 1.81641,-0.14062 c -0.4336,0.1875 -0.79688,0.25781 -1.13672,0.25781 -0.11719,0 -0.53907,0 -0.53907,-0.52735 0,-0.43359 0.42188,-0.98437 0.96094,-0.98437 0.59766,0 0.72656,0.41016 0.72656,1.00781 0,0.0703 0,0.16406 -0.0117,0.2461 z m 8.90625,-7.07813 c 0.11718,-0.44531 0.16406,-0.46875 0.62109,-0.46875 h 0.86719 c 1.03125,0 1.79297,0.30469 1.79297,1.24219 0,0.60937 -0.31641,2.36719 -2.71875,2.36719 h -1.34766 z m 1.66406,3.28125 c 1.48828,-0.31641 2.64844,-1.27734 2.64844,-2.30859 0,-0.92578 -0.94922,-1.79297 -2.61329,-1.79297 h -3.23437 c -0.24609,0 -0.35156,0 -0.35156,0.23437 0,0.11719 0.082,0.11719 0.3164,0.11719 0.71485,0 0.71485,0.0937 0.71485,0.22266 0,0.0234 0,0.0937 -0.0469,0.28125 l -1.61719,6.43359 c -0.10546,0.41016 -0.1289,0.52734 -0.94921,0.52734 -0.28125,0 -0.36329,0 -0.36329,0.23438 0,0.11719 0.12891,0.11719 0.16407,0.11719 0.22265,0 0.46875,-0.0234 0.6914,-0.0234 h 1.41797 c 0.21094,0 0.46875,0.0234 0.67969,0.0234 0.0937,0 0.22266,0 0.22266,-0.22266 0,-0.12891 -0.10547,-0.12891 -0.28125,-0.12891 -0.72657,0 -0.72657,-0.0937 -0.72657,-0.21093 0,-0.0117 0,-0.0937 0.0234,-0.1875 l 0.79688,-3.22266 h 1.42968 c 1.13672,0 1.35938,0.72656 1.35938,1.11328 0,0.1875 -0.12891,0.64453 -0.21094,0.96094 -0.12891,0.55078 -0.16406,0.67969 -0.16406,0.90234 0,0.85547 0.6914,1.24219 1.48828,1.24219 0.97266,0 1.39453,-1.18359 1.39453,-1.34766 0,-0.082 -0.0586,-0.11718 -0.12891,-0.11718 -0.10546,0 -0.1289,0.0703 -0.15234,0.16406 -0.28125,0.85547 -0.77344,1.06641 -1.06641,1.06641 -0.30468,0 -0.49218,-0.12891 -0.49218,-0.66797 0,-0.29297 0.14062,-1.3711 0.15234,-1.44141 0.0586,-0.43359 0.0586,-0.48047 0.0586,-0.57422 0,-0.8789 -0.70312,-1.2539 -1.16015,-1.39453 z m 10.54101,-4.24219 c 0,-0.10547 -0.082,-0.10547 -0.10546,-0.10547 -0.0586,0 -0.0703,0.0117 -0.21094,0.1875 -0.0703,0.082 -0.5625,0.70313 -0.57422,0.71485 -0.38672,-0.77344 -1.18359,-0.90235 -1.6875,-0.90235 -1.51172,0 -2.88281,1.38282 -2.88281,2.73047 0,0.90235 0.52734,1.42969 1.11328,1.62891 0.14062,0.0469 0.84375,0.24609 1.19531,0.32812 0.60938,0.16407 0.77344,0.21094 1.01953,0.48047 0.0469,0.0586 0.29297,0.32813 0.29297,0.89063 0,1.11328 -1.03125,2.26172 -2.22656,2.26172 -0.98438,0 -2.07422,-0.42188 -2.07422,-1.75782 0,-0.22265 0.0586,-0.51562 0.0937,-0.63281 0,-0.0351 0.0117,-0.0937 0.0117,-0.11719 0,-0.0469 -0.0234,-0.11718 -0.12891,-0.11718 -0.10547,0 -0.11719,0.0234 -0.16406,0.23437 l -0.60938,2.44922 c 0,0.0117 -0.0469,0.16406 -0.0469,0.17578 0,0.10547 0.0937,0.10547 0.11719,0.10547 0.0469,0 0.0586,-0.0117 0.21093,-0.1875 l 0.53907,-0.71484 c 0.29297,0.43359 0.91406,0.90234 2.02734,0.90234 1.53516,0 2.95313,-1.48828 2.95313,-2.98828 0,-0.49219 -0.11719,-0.9375 -0.57422,-1.38281 -0.25782,-0.2461 -0.46875,-0.30469 -1.57032,-0.59766 -0.79687,-0.21094 -0.90234,-0.24609 -1.125,-0.44531 -0.19921,-0.19922 -0.35156,-0.48047 -0.35156,-0.89063 0,-1.00781 1.00781,-2.03906 2.14453,-2.03906 1.17188,0 1.72266,0.72656 1.72266,1.86328 0,0.30469 -0.0586,0.63281 -0.0586,0.67969 0,0.10547 0.0937,0.10547 0.1289,0.10547 0.11719,0 0.12891,-0.0352 0.17578,-0.23438 z m 0,0"
         style="fill:#000000;fill-opacity:1;fill-rule:nonzero;stroke:none" />
      <path
         id="path18"
         d="m -104.81351,293.39136 c 0.0117,-0.0352 0.0469,-0.11719 0.0469,-0.16406 0,-0.0586 -0.0469,-0.11719 -0.11719,-0.11719 -0.0469,0 -0.0703,0.0117 -0.10547,0.0469 -0.0234,0.0117 -0.0234,0.0352 -0.14062,0.26954 -0.70313,1.67578 -1.21875,2.39062 -3.12891,2.39062 h -1.74609 c -0.16407,0 -0.1875,0 -0.25782,-0.0117 -0.1289,-0.0117 -0.14062,-0.0352 -0.14062,-0.1289 0,-0.082 0.0234,-0.15235 0.0469,-0.25782 l 0.82032,-3.30468 h 1.18359 c 0.9375,0 1.00781,0.21093 1.00781,0.5625 0,0.11718 0,0.23437 -0.082,0.58593 -0.0352,0.0469 -0.0469,0.0937 -0.0469,0.12891 0,0.082 0.0703,0.12891 0.14062,0.12891 0.10547,0 0.11719,-0.0937 0.16406,-0.25782 l 0.67969,-2.77734 c 0,-0.0586 -0.0469,-0.11719 -0.11719,-0.11719 -0.10547,0 -0.11718,0.0469 -0.16406,0.22266 -0.24609,0.91406 -0.48047,1.18359 -1.54687,1.18359 h -1.13672 l 0.73828,-2.9414 c 0.11719,-0.42188 0.14062,-0.45704 0.62109,-0.45704 h 1.71094 c 1.47656,0 1.76953,0.39844 1.76953,1.30079 0,0.0117 0,0.35156 -0.0469,0.73828 -0.0117,0.0469 -0.0234,0.1289 -0.0234,0.15234 0,0.0937 0.0586,0.12891 0.1289,0.12891 0.082,0 0.14063,-0.0469 0.16407,-0.26953 l 0.24609,-2.08594 c 0,-0.0352 0.0234,-0.15235 0.0234,-0.17578 0,-0.14063 -0.10547,-0.14063 -0.31641,-0.14063 h -5.83594 c -0.23437,0 -0.35156,0 -0.35156,0.22266 0,0.1289 0.082,0.1289 0.29297,0.1289 0.73828,0 0.73828,0.082 0.73828,0.21094 0,0.0586 -0.0117,0.10547 -0.0469,0.2461 l -1.61719,6.45703 c -0.10547,0.41015 -0.12891,0.52734 -0.96094,0.52734 -0.23437,0 -0.35156,0 -0.35156,0.22266 0,0.1289 0.0703,0.1289 0.30469,0.1289 h 6 c 0.26953,0 0.28125,-0.0117 0.36328,-0.19922 z m 0,0"
         style="fill:#000000;fill-opacity:1;fill-rule:nonzero;stroke:none" />
      <path
         id="path19"
         d="m 28.252898,294.84448 c -0.410156,0.70313 -0.820312,0.9375 -1.394531,0.97266 -0.128906,0.0117 -0.222656,0.0117 -0.222656,0.23438 0,0.0703 0.05859,0.11718 0.140625,0.11718 0.210937,0 0.75,-0.0234 0.972656,-0.0234 0.339844,0 0.726563,0.0234 1.054688,0.0234 0.07031,0 0.222656,0 0.222656,-0.22265 0,-0.11719 -0.09375,-0.12891 -0.175781,-0.12891 -0.269532,-0.0234 -0.492188,-0.11719 -0.492188,-0.39844 0,-0.17578 0.07031,-0.30468 0.222656,-0.5625 l 0.902344,-1.51172 h 3.058594 c 0.01172,0.10547 0.01172,0.21094 0.02344,0.31641 0.03516,0.30469 0.175782,1.54688 0.175782,1.78125 0,0.35156 -0.609375,0.375 -0.796875,0.375 -0.140625,0 -0.269532,0 -0.269532,0.22266 0,0.1289 0.105469,0.1289 0.175782,0.1289 0.210937,0 0.445312,-0.0234 0.65625,-0.0234 h 0.679687 c 0.726563,0 1.253906,0.0234 1.265625,0.0234 0.08203,0 0.210938,0 0.210938,-0.22265 0,-0.12891 -0.105469,-0.12891 -0.28125,-0.12891 -0.65625,0 -0.667969,-0.10547 -0.714844,-0.45703 l -0.726563,-7.46484 c -0.02344,-0.23438 -0.07031,-0.25782 -0.199218,-0.25782 -0.117188,0 -0.1875,0.0234 -0.304688,0.19922 z m 1.441407,-1.83984 2.402343,-4.01953 0.410157,4.01953 z m 9.679687,-4.18359 c 0.117188,-0.44532 0.164063,-0.46875 0.621094,-0.46875 h 1.558594 c 1.347656,0 1.347656,1.14843 1.347656,1.2539 0,0.97266 -0.960938,2.20313 -2.542969,2.20313 h -1.722656 z m 2.027344,3.08203 c 1.300781,-0.2461 2.484375,-1.14844 2.484375,-2.25 0,-0.92578 -0.832031,-1.65235 -2.179688,-1.65235 h -3.832031 c -0.234375,0 -0.339844,0 -0.339844,0.23438 0,0.11719 0.105469,0.11719 0.292969,0.11719 0.726563,0 0.726563,0.0937 0.726563,0.22265 0,0.0234 0,0.0937 -0.04687,0.28125 l -1.617188,6.4336 c -0.105469,0.41015 -0.128906,0.52734 -0.960937,0.52734 -0.234375,0 -0.351563,0 -0.351563,0.22266 0,0.1289 0.07031,0.1289 0.304688,0.1289 h 4.101562 c 1.828125,0 3.246094,-1.38281 3.246094,-2.58984 0,-0.98438 -0.867188,-1.58203 -1.828125,-1.67578 z m -1.699219,3.91406 H 38.08493 c -0.164063,0 -0.1875,0 -0.257813,-0.0117 -0.128906,-0.0117 -0.152344,-0.0352 -0.152344,-0.1289 0,-0.082 0.03516,-0.15235 0.05859,-0.25782 l 0.832031,-3.375 h 2.25 c 1.40625,0 1.40625,1.3125 1.40625,1.40625 0,1.14844 -1.042968,2.36719 -2.519531,2.36719 z m 13.719727,-7.95703 c 0,-0.10547 -0.08203,-0.10547 -0.105469,-0.10547 -0.02344,0 -0.07031,0 -0.175781,0.11719 l -0.820313,1.00781 c -0.421875,-0.71484 -1.078125,-1.125 -1.96875,-1.125 -2.589843,0 -5.261718,2.61328 -5.261718,5.42578 0,1.99219 1.394531,3.23438 3.140625,3.23438 0.960937,0 1.792968,-0.39844 2.484375,-0.98438 1.042968,-0.8789 1.359375,-2.03906 1.359375,-2.13281 0,-0.10547 -0.09375,-0.10547 -0.140625,-0.10547 -0.105469,0 -0.117188,0.0703 -0.140625,0.11719 -0.550782,1.86328 -2.15625,2.76562 -3.351563,2.76562 -1.277344,0 -2.367187,-0.82031 -2.367187,-2.50781 0,-0.38672 0.117187,-2.46094 1.464843,-4.03125 0.65625,-0.76172 1.78125,-1.44141 2.917969,-1.44141 1.3125,0 1.898438,1.08985 1.898438,2.3086 0,0.3164 -0.03516,0.57422 -0.03516,0.62109 0,0.11719 0.117188,0.11719 0.152344,0.11719 0.140625,0 0.152344,-0.0117 0.199219,-0.23438 z m 2.182617,7.42969 c -0.105469,0.41015 -0.128906,0.52734 -0.960938,0.52734 -0.234375,0 -0.351562,0 -0.351562,0.22266 0,0.1289 0.07031,0.1289 0.304687,0.1289 h 3.796875 c 2.414063,0 4.769532,-2.49609 4.769532,-5.16797 0,-1.72265 -1.03125,-3 -2.742188,-3 h -3.832031 c -0.234375,0 -0.339844,0 -0.339844,0.23438 0,0.11719 0.105469,0.11719 0.292969,0.11719 0.726562,0 0.726562,0.0937 0.726562,0.22265 0,0.0234 0,0.0937 -0.04687,0.28125 z m 2.519531,-6.46875 c 0.117188,-0.44532 0.164063,-0.46875 0.621094,-0.46875 h 1.324219 c 1.113281,0 2.144531,0.60937 2.144531,2.26172 0,0.59765 -0.234375,2.67187 -1.394531,3.98437 -0.339844,0.39844 -1.242188,1.21875 -2.625,1.21875 H 56.83493 c -0.164063,0 -0.1875,0 -0.257813,-0.0117 -0.128906,-0.0117 -0.140625,-0.0352 -0.140625,-0.1289 0,-0.082 0.02344,-0.15235 0.04687,-0.25782 z m 0,0"
         style="fill:#000000;fill-opacity:1;fill-rule:nonzero;stroke:none" />
      <path
         id="path20"
         d="m 144.8486,294.84448 c -0.41015,0.70313 -0.82031,0.9375 -1.39453,0.97266 -0.12891,0.0117 -0.22266,0.0117 -0.22266,0.23438 0,0.0703 0.0586,0.11718 0.14063,0.11718 0.21094,0 0.75,-0.0234 0.97266,-0.0234 0.33984,0 0.72656,0.0234 1.05468,0.0234 0.0703,0 0.22266,0 0.22266,-0.22265 0,-0.11719 -0.0937,-0.12891 -0.17578,-0.12891 -0.26953,-0.0234 -0.49219,-0.11719 -0.49219,-0.39844 0,-0.17578 0.0703,-0.30468 0.22266,-0.5625 l 0.90234,-1.51172 h 3.05859 c 0.0117,0.10547 0.0117,0.21094 0.0234,0.31641 0.0352,0.30469 0.17578,1.54688 0.17578,1.78125 0,0.35156 -0.60937,0.375 -0.79687,0.375 -0.14063,0 -0.26953,0 -0.26953,0.22266 0,0.1289 0.10547,0.1289 0.17578,0.1289 0.21094,0 0.44531,-0.0234 0.65625,-0.0234 h 0.67969 c 0.72656,0 1.2539,0.0234 1.26562,0.0234 0.082,0 0.21094,0 0.21094,-0.22265 0,-0.12891 -0.10547,-0.12891 -0.28125,-0.12891 -0.65625,0 -0.66797,-0.10547 -0.71485,-0.45703 l -0.72656,-7.46484 c -0.0234,-0.23438 -0.0703,-0.25782 -0.19922,-0.25782 -0.11718,0 -0.1875,0.0234 -0.30468,0.19922 z m 1.44141,-1.83984 2.40234,-4.01953 0.41016,4.01953 z m 9.67676,-4.18359 c 0.11718,-0.44532 0.16406,-0.46875 0.62109,-0.46875 h 1.55859 c 1.34766,0 1.34766,1.14843 1.34766,1.2539 0,0.97266 -0.96094,2.20313 -2.54297,2.20313 h -1.72266 z m 2.02734,3.08203 c 1.30078,-0.2461 2.48437,-1.14844 2.48437,-2.25 0,-0.92578 -0.83203,-1.65235 -2.17968,-1.65235 h -3.83203 c -0.23438,0 -0.33985,0 -0.33985,0.23438 0,0.11719 0.10547,0.11719 0.29297,0.11719 0.72656,0 0.72656,0.0937 0.72656,0.22265 0,0.0234 0,0.0937 -0.0469,0.28125 l -1.61719,6.4336 c -0.10547,0.41015 -0.12891,0.52734 -0.96094,0.52734 -0.23437,0 -0.35156,0 -0.35156,0.22266 0,0.1289 0.0703,0.1289 0.30469,0.1289 h 4.10156 c 1.82813,0 3.24609,-1.38281 3.24609,-2.58984 0,-0.98438 -0.86718,-1.58203 -1.82812,-1.67578 z m -1.69922,3.91406 h -1.61719 c -0.16406,0 -0.1875,0 -0.25781,-0.0117 -0.12891,-0.0117 -0.15234,-0.0352 -0.15234,-0.1289 0,-0.082 0.0351,-0.15235 0.0586,-0.25782 l 0.83203,-3.375 h 2.25 c 1.40625,0 1.40625,1.3125 1.40625,1.40625 0,1.14844 -1.04297,2.36719 -2.51953,2.36719 z m 13.09863,-2.42578 c 0.0117,-0.0352 0.0469,-0.11719 0.0469,-0.16406 0,-0.0586 -0.0469,-0.11719 -0.11719,-0.11719 -0.0469,0 -0.0703,0.0117 -0.10547,0.0469 -0.0234,0.0117 -0.0234,0.0352 -0.14062,0.26954 -0.70313,1.67578 -1.21875,2.39062 -3.12891,2.39062 h -1.74609 c -0.16407,0 -0.1875,0 -0.25782,-0.0117 -0.1289,-0.0117 -0.14062,-0.0352 -0.14062,-0.1289 0,-0.082 0.0234,-0.15235 0.0469,-0.25782 l 0.82032,-3.30468 h 1.18359 c 0.9375,0 1.00781,0.21093 1.00781,0.5625 0,0.11718 0,0.23437 -0.082,0.58593 -0.0351,0.0469 -0.0469,0.0937 -0.0469,0.12891 0,0.082 0.0703,0.12891 0.14062,0.12891 0.10547,0 0.11719,-0.0937 0.16406,-0.25782 l 0.67969,-2.77734 c 0,-0.0586 -0.0469,-0.11719 -0.11719,-0.11719 -0.10546,0 -0.11718,0.0469 -0.16406,0.22266 -0.24609,0.91406 -0.48047,1.18359 -1.54687,1.18359 h -1.13672 l 0.73828,-2.9414 c 0.11719,-0.42188 0.14062,-0.45704 0.62109,-0.45704 h 1.71094 c 1.47656,0 1.76953,0.39844 1.76953,1.30079 0,0.0117 0,0.35156 -0.0469,0.73828 -0.0117,0.0469 -0.0234,0.1289 -0.0234,0.15234 0,0.0937 0.0586,0.12891 0.12891,0.12891 0.082,0 0.14062,-0.0469 0.16406,-0.26953 l 0.24609,-2.08594 c 0,-0.0352 0.0234,-0.15235 0.0234,-0.17578 0,-0.14063 -0.10547,-0.14063 -0.31641,-0.14063 h -5.83593 c -0.23438,0 -0.35157,0 -0.35157,0.22266 0,0.1289 0.082,0.1289 0.29297,0.1289 0.73828,0 0.73828,0.082 0.73828,0.21094 0,0.0586 -0.0117,0.10547 -0.0469,0.2461 l -1.61719,6.45703 c -0.10547,0.41015 -0.12891,0.52734 -0.96094,0.52734 -0.23437,0 -0.35156,0 -0.35156,0.22266 0,0.1289 0.0703,0.1289 0.30469,0.1289 h 6 c 0.26953,0 0.28125,-0.0117 0.36328,-0.19922 z m 0,0"
         style="fill:#000000;fill-opacity:1;fill-rule:nonzero;stroke:none" />
      <path
         id="path21"
         d="m -120.66019,309.73609 c -0.10547,0.41015 -0.1289,0.52734 -0.96093,0.52734 -0.23438,0 -0.35157,0 -0.35157,0.22266 0,0.1289 0.0703,0.1289 0.30469,0.1289 h 3.79688 c 2.41406,0 4.76953,-2.49609 4.76953,-5.16797 0,-1.72265 -1.03125,-3 -2.74219,-3 h -3.83203 c -0.23438,0 -0.33985,0 -0.33985,0.23438 0,0.11719 0.10547,0.11719 0.29297,0.11719 0.72657,0 0.72657,0.0937 0.72657,0.22265 0,0.0234 0,0.0937 -0.0469,0.28125 z m 2.51953,-6.46875 c 0.11719,-0.44532 0.16407,-0.46875 0.6211,-0.46875 h 1.32422 c 1.11328,0 2.14453,0.60937 2.14453,2.26171 0,0.59766 -0.23438,2.67188 -1.39453,3.98438 -0.33985,0.39844 -1.24219,1.21875 -2.625,1.21875 h -1.35938 c -0.16406,0 -0.1875,0 -0.25781,-0.0117 -0.12891,-0.0117 -0.14063,-0.0352 -0.14063,-0.12891 0,-0.082 0.0234,-0.15234 0.0469,-0.25781 z m 14.57813,-0.96094 c 0,-0.10547 -0.082,-0.10547 -0.10547,-0.10547 -0.0234,0 -0.0703,0 -0.17578,0.11719 l -0.82031,1.00781 c -0.42188,-0.71484 -1.07813,-1.125 -1.96875,-1.125 -2.58985,0 -5.26172,2.61328 -5.26172,5.42578 0,1.99219 1.39453,3.23438 3.14062,3.23438 0.96094,0 1.79297,-0.39844 2.48438,-0.98438 1.04297,-0.87891 1.35937,-2.03906 1.35937,-2.13281 0,-0.10547 -0.0937,-0.10547 -0.14062,-0.10547 -0.10547,0 -0.11719,0.0703 -0.14063,0.11719 -0.55078,1.86328 -2.15625,2.76562 -3.35156,2.76562 -1.27734,0 -2.36719,-0.82031 -2.36719,-2.50781 0,-0.38672 0.11719,-2.46094 1.46485,-4.03125 0.65625,-0.76172 1.78125,-1.44141 2.91797,-1.44141 1.3125,0 1.89843,1.08985 1.89843,2.3086 0,0.3164 -0.0352,0.57422 -0.0352,0.62109 0,0.11719 0.11718,0.11719 0.15234,0.11719 0.14063,0 0.15234,-0.0117 0.19922,-0.23438 z m 8.61621,5.53125 c 0.01172,-0.0352 0.04687,-0.11719 0.04687,-0.16406 0,-0.0586 -0.04687,-0.11719 -0.117188,-0.11719 -0.04687,0 -0.07031,0.0117 -0.105469,0.0469 -0.02344,0.0117 -0.02344,0.0352 -0.140625,0.26953 -0.703125,1.67579 -1.21875,2.39063 -3.128906,2.39063 h -1.746102 c -0.16406,0 -0.1875,0 -0.25781,-0.0117 -0.12891,-0.0117 -0.14062,-0.0352 -0.14062,-0.12891 0,-0.082 0.0234,-0.15234 0.0469,-0.25781 l 0.820318,-3.30469 h 1.183594 c 0.9375,0 1.007813,0.21094 1.007813,0.5625 0,0.11719 0,0.23438 -0.08203,0.58594 -0.03516,0.0469 -0.04687,0.0937 -0.04687,0.12891 0,0.082 0.07031,0.1289 0.140625,0.1289 0.105469,0 0.117188,-0.0937 0.164063,-0.25781 l 0.679687,-2.77734 c 0,-0.0586 -0.04687,-0.11719 -0.117187,-0.11719 -0.105469,0 -0.117188,0.0469 -0.164063,0.22266 -0.246093,0.91406 -0.480468,1.18359 -1.546875,1.18359 h -1.136718 l 0.738281,-2.94141 c 0.117187,-0.42187 0.140625,-0.45703 0.621094,-0.45703 h 1.710937 c 1.476563,0 1.769531,0.39844 1.769531,1.30078 0,0.0117 0,0.35157 -0.04687,0.73829 -0.01172,0.0469 -0.02344,0.1289 -0.02344,0.15234 0,0.0937 0.05859,0.12891 0.128906,0.12891 0.08203,0 0.140625,-0.0469 0.164063,-0.26954 l 0.246093,-2.08593 c 0,-0.0352 0.02344,-0.15235 0.02344,-0.17578 0,-0.14063 -0.105469,-0.14063 -0.316406,-0.14063 h -5.835936 c -0.23437,0 -0.35156,0 -0.35156,0.22266 0,0.1289 0.082,0.1289 0.29297,0.1289 0.738276,0 0.738276,0.082 0.738276,0.21094 0,0.0586 -0.01172,0.10547 -0.04687,0.24609 l -1.617186,6.45704 c -0.10547,0.41015 -0.12891,0.52734 -0.96094,0.52734 -0.23438,0 -0.35156,0 -0.35156,0.22266 0,0.1289 0.0703,0.1289 0.30468,0.1289 h 6.000006 c 0.269531,0 0.28125,-0.0117 0.363281,-0.19922 z m 0,0"
         style="fill:#000000;fill-opacity:1;fill-rule:nonzero;stroke:none" />
      <path
         id="path22"
         d="m -82.960969,379.09058 c 0,2.82422 -1.253906,3.41015 -1.96875,3.41015 -0.28125,0 -0.925781,-0.0351 -1.21875,-0.45703 h 0.07031 c 0.08203,0.0234 0.515625,-0.0469 0.515625,-0.49218 0,-0.25782 -0.175781,-0.49219 -0.492188,-0.49219 -0.304687,0 -0.503906,0.21094 -0.503906,0.51562 0,0.75 0.597656,1.24219 1.640625,1.24219 1.5,0 2.941406,-1.58203 2.941406,-4.18359 0,-3.21094 -1.335937,-4.00782 -2.390625,-4.00782 -1.3125,0 -2.472656,1.10157 -2.472656,2.67188 0,1.58203 1.113281,2.66016 2.308594,2.66016 0.878906,0 1.335937,-0.64454 1.570312,-1.25391 z m -1.523437,0.62109 c -0.75,0 -1.078125,-0.60937 -1.183594,-0.83203 -0.199219,-0.45703 -0.199219,-1.03125 -0.199219,-1.57031 0,-0.66797 0,-1.24219 0.316407,-1.73438 0.210937,-0.3164 0.539062,-0.66797 1.183593,-0.66797 0.679688,0 1.03125,0.59766 1.148438,0.87891 0.234375,0.58594 0.234375,1.59375 0.234375,1.78125 0,0.99609 -0.445313,2.14453 -1.5,2.14453 z m 7.376953,-0.62109 c 0,2.82422 -1.253906,3.41015 -1.96875,3.41015 -0.28125,0 -0.925781,-0.0351 -1.21875,-0.45703 h 0.07031 c 0.08203,0.0234 0.515625,-0.0469 0.515625,-0.49218 0,-0.25782 -0.175781,-0.49219 -0.492187,-0.49219 -0.304688,0 -0.503906,0.21094 -0.503906,0.51562 0,0.75 0.597656,1.24219 1.640625,1.24219 1.5,0 2.941406,-1.58203 2.941406,-4.18359 0,-3.21094 -1.335938,-4.00782 -2.390625,-4.00782 -1.3125,0 -2.472656,1.10157 -2.472656,2.67188 0,1.58203 1.113281,2.66016 2.308593,2.66016 0.878907,0 1.335938,-0.64454 1.570313,-1.25391 z m -1.523438,0.62109 c -0.75,0 -1.078125,-0.60937 -1.183593,-0.83203 -0.199219,-0.45703 -0.199219,-1.03125 -0.199219,-1.57031 0,-0.66797 0,-1.24219 0.316406,-1.73438 0.210938,-0.3164 0.539063,-0.66797 1.183594,-0.66797 0.679687,0 1.03125,0.59766 1.148437,0.87891 0.234375,0.58594 0.234375,1.59375 0.234375,1.78125 0,0.99609 -0.445312,2.14453 -1.5,2.14453 z m 0,0"
         style="fill:#000000;fill-opacity:1;fill-rule:nonzero;stroke:none" />
      <path
         id="path23"
         d="m 21.901336,374.90698 c 0,-0.26953 0,-0.28125 -0.246094,-0.28125 -0.28125,0.31641 -0.878906,0.76172 -2.109375,0.76172 v 0.35157 c 0.269531,0 0.867188,0 1.523438,-0.31641 v 6.22266 c 0,0.43359 -0.03516,0.57421 -1.078125,0.57421 h -0.375 v 0.35157 c 0.316406,-0.0234 1.476562,-0.0234 1.875,-0.0234 0.398437,0 1.546875,0 1.863281,0.0234 v -0.35157 H 22.99118 c -1.054688,0 -1.089844,-0.14062 -1.089844,-0.57421 z m 7.763672,3.84375 c 0,-0.99609 -0.05859,-1.96875 -0.492188,-2.87109 -0.492187,-0.99609 -1.347656,-1.25391 -1.933593,-1.25391 -0.691407,0 -1.546875,0.33985 -1.980469,1.33594 -0.339844,0.75 -0.457031,1.48828 -0.457031,2.78906 0,1.16016 0.08203,2.02735 0.515625,2.8711 0.457031,0.91406 1.289062,1.19531 1.910156,1.19531 1.042969,0 1.640625,-0.62109 1.980469,-1.3125 0.433593,-0.89062 0.457031,-2.0625 0.457031,-2.75391 z m -2.4375,3.83204 c -0.386719,0 -1.160156,-0.21094 -1.382813,-1.52344 -0.140625,-0.71485 -0.140625,-1.61719 -0.140625,-2.46094 0,-0.97266 0,-1.86328 0.199219,-2.56641 0.199219,-0.79687 0.808594,-1.17187 1.324219,-1.17187 0.457031,0 1.148437,0.28125 1.371094,1.30078 0.152343,0.67969 0.152343,1.62891 0.152343,2.4375 0,0.80859 0,1.71094 -0.128906,2.4375 -0.222656,1.32422 -0.972656,1.54688 -1.394531,1.54688 z m 8.291015,-3.83204 c 0,-0.99609 -0.05859,-1.96875 -0.492187,-2.87109 -0.492188,-0.99609 -1.347656,-1.25391 -1.933594,-1.25391 -0.691406,0 -1.546875,0.33985 -1.980469,1.33594 -0.339843,0.75 -0.457031,1.48828 -0.457031,2.78906 0,1.16016 0.08203,2.02735 0.515625,2.8711 0.457031,0.91406 1.289063,1.19531 1.910156,1.19531 1.042969,0 1.640625,-0.62109 1.980469,-1.3125 0.433594,-0.89062 0.457031,-2.0625 0.457031,-2.75391 z m -2.4375,3.83204 c -0.386718,0 -1.160156,-0.21094 -1.382812,-1.52344 -0.140625,-0.71485 -0.140625,-1.61719 -0.140625,-2.46094 0,-0.97266 0,-1.86328 0.199219,-2.56641 0.199218,-0.79687 0.808593,-1.17187 1.324218,-1.17187 0.457032,0 1.148438,0.28125 1.371094,1.30078 0.152344,0.67969 0.152344,1.62891 0.152344,2.4375 0,0.80859 0,1.71094 -0.128906,2.4375 -0.222657,1.32422 -0.972657,1.54688 -1.394532,1.54688 z m 0,0"
         style="fill:#000000;fill-opacity:1;fill-rule:nonzero;stroke:none" />
      <path
         id="path24"
         d="m 79.381805,418.7937 c 0.503906,0.16407 0.925781,0.17578 1.054687,0.17578 1.359375,0 2.214844,-0.99609 2.214844,-1.16015 0,-0.0469 -0.02344,-0.10547 -0.09375,-0.10547 -0.02344,0 -0.04687,0 -0.152344,0.0469 -0.667969,0.28125 -1.242187,0.31641 -1.558594,0.31641 -0.785156,0 -1.347656,-0.23437 -1.582031,-0.32812 -0.08203,-0.0352 -0.105469,-0.0352 -0.117187,-0.0352 -0.09375,0 -0.09375,0.0703 -0.09375,0.25781 v 3.55078 c 0,0.21094 0,0.29297 0.140625,0.29297 0.05859,0 0.07031,-0.0117 0.199218,-0.16406 0.328125,-0.49219 0.890625,-0.77344 1.488282,-0.77344 0.632812,0 0.949218,0.58594 1.042968,0.78516 0.199219,0.46875 0.210938,1.05469 0.210938,1.51172 0,0.45703 0,1.13672 -0.328125,1.67578 -0.269531,0.42187 -0.738281,0.72656 -1.253906,0.72656 -0.796875,0 -1.570313,-0.53906 -1.78125,-1.40625 0.05859,0.0234 0.128906,0.0352 0.1875,0.0352 0.199218,0 0.527343,-0.12891 0.527343,-0.52735 0,-0.33984 -0.234375,-0.52734 -0.527343,-0.52734 -0.210938,0 -0.527344,0.10547 -0.527344,0.57422 0,1.00781 0.808594,2.16797 2.144531,2.16797 1.347656,0 2.53125,-1.125 2.53125,-2.64844 0,-1.41797 -0.960937,-2.60156 -2.214844,-2.60156 -0.679687,0 -1.207031,0.29297 -1.511718,0.63281 z m 0,0"
         style="fill:#000000;fill-opacity:1;fill-rule:nonzero;stroke:none" />
      <path
         id="path25"
         d="m 236.97555,417.97339 c 0,-0.26953 0,-0.28125 -0.24609,-0.28125 -0.28125,0.31641 -0.87891,0.76172 -2.10937,0.76172 v 0.35156 c 0.26953,0 0.86718,0 1.52343,-0.3164 v 6.22265 c 0,0.4336 -0.0351,0.57422 -1.07812,0.57422 h -0.375 v 0.35156 c 0.3164,-0.0234 1.47656,-0.0234 1.875,-0.0234 0.39844,0 1.54687,0 1.86328,0.0234 v -0.35156 h -0.36328 c -1.05469,0 -1.08985,-0.14062 -1.08985,-0.57422 z m 0,0"
         style="fill:#000000;fill-opacity:1;fill-rule:nonzero;stroke:none" />
      <path
         id="path26"
         d="m -55.594758,435.79175 c -0.210937,0.0117 -0.257812,0.0234 -0.257812,0.12891 0,0.11718 0.05859,0.11718 0.28125,0.11718 h 0.550781 c 1.007812,0 1.464844,0.84375 1.464844,1.99219 0,1.5586 -0.808594,1.98047 -1.394532,1.98047 -0.574218,0 -1.558593,-0.28125 -1.898437,-1.06641 0.375,0.0586 0.726562,-0.15234 0.726562,-0.58593 0,-0.33985 -0.257812,-0.58594 -0.585937,-0.58594 -0.292969,0 -0.597656,0.16406 -0.597656,0.62109 0,1.06641 1.066406,1.9336 2.390625,1.9336 1.417968,0 2.472656,-1.07813 2.472656,-2.28516 0,-1.10156 -0.890625,-1.96875 -2.027344,-2.16797 1.03125,-0.30469 1.699219,-1.17187 1.699219,-2.10937 0,-0.9375 -0.972656,-1.62891 -2.132813,-1.62891 -1.195312,0 -2.085937,0.72656 -2.085937,1.59375 0,0.48047 0.375,0.57422 0.550781,0.57422 0.257813,0 0.539063,-0.17578 0.539063,-0.53906 0,-0.375 -0.28125,-0.53907 -0.550782,-0.53907 -0.07031,0 -0.09375,0 -0.128906,0.0117 0.457031,-0.82031 1.582031,-0.82031 1.640625,-0.82031 0.386719,0 1.171875,0.17578 1.171875,1.34766 0,0.23437 -0.03516,0.90234 -0.386719,1.41797 -0.351562,0.52734 -0.761718,0.5625 -1.089843,0.57421 z m 0,0"
         style="fill:#000000;fill-opacity:1;fill-rule:nonzero;stroke:none" />
      <path
         id="path27"
         d="m 252.05466,432.41675 c 0,-0.26953 0,-0.28125 -0.2461,-0.28125 -0.28125,0.31641 -0.8789,0.76172 -2.10937,0.76172 v 0.35156 c 0.26953,0 0.86719,0 1.52344,-0.3164 v 6.22265 c 0,0.4336 -0.0352,0.57422 -1.07813,0.57422 h -0.375 v 0.35156 c 0.31641,-0.0234 1.47656,-0.0234 1.875,-0.0234 0.39844,0 1.54688,0 1.86328,0.0234 v -0.35156 h -0.36328 c -1.05469,0 -1.08984,-0.14062 -1.08984,-0.57422 z m 0,0"
         style="fill:#000000;fill-opacity:1;fill-rule:nonzero;stroke:none" />
    </g>
  </g>
</svg>
