<?xml version="1.0" encoding="UTF-8" standalone="no"?>
<!-- Created with Inkscape (http://www.inkscape.org/) -->

<svg
   version="1.1"
   id="svg1"
   width="794.55066"
   height="1123.6533"
   viewBox="0 0 794.55066 1123.6533"
   sodipodi:docname="LigaMatematycznaMatuskiego_Liceum_Zestaw5_2018_2019_page0.pdf"
   xmlns:inkscape="http://www.inkscape.org/namespaces/inkscape"
   xmlns:sodipodi="http://sodipodi.sourceforge.net/DTD/sodipodi-0.dtd"
   xmlns="http://www.w3.org/2000/svg"
   xmlns:svg="http://www.w3.org/2000/svg">
  <defs
     id="defs1" />
  <sodipodi:namedview
     id="namedview1"
     pagecolor="#ffffff"
     bordercolor="#000000"
     borderopacity="0.25"
     inkscape:showpageshadow="2"
     inkscape:pageopacity="0.0"
     inkscape:pagecheckerboard="0"
     inkscape:deskcolor="#d1d1d1">
    <inkscape:page
       x="0"
       y="0"
       inkscape:label="1"
       id="page1"
       width="794.55066"
       height="1123.6533"
       margin="0"
       bleed="0" />
  </sodipodi:namedview>
  <g
     id="g1"
     inkscape:groupmode="layer"
     inkscape:label="1">
    <g
       id="g2"
       aria-label="LIGAMATEMATYCZNA&#10;im.ZdzisªawaMatuskiego&#10;FINA&#10;16kwietnia2018&#10;SZKOAPONADGIMNAZJALNA&#10;ZADANIE1.&#10;Wzbiorzeliczbrzeczywistychrozwi¡»równanie&#10;x&#10;2&#10;−7[x]+6=0.&#10;ZADANIE2.&#10;Wyka»,»ekwadratiloczynudwóchkolejnychliczbcaªkowitychpodzielnychprzez5dzielisi¦&#10;przez2500.&#10;ZADANIE3.&#10;Wzbiorzeliczbrzeczywistychrozwi¡»ukªadrówna«&#10;(&#10;a&#10;2&#10;+b&#10;2&#10;+c&#10;2&#10;=ab+bc+ca&#10;abc=8.&#10;ZADANIE4.&#10;Wyznaczwszystkietrójkiliczbpierwszychp,q,rtakie,»e&#10;pqr"
       transform="matrix(1.3333333,0,0,1.3333333,274.724,56.069333)">
      <path
         id="path2"
         d="m 53.325164,149.27417 c -0.375,0.0703 -0.515625,0.35156 -0.515625,0.58594 0,0.28125 0.222656,0.375 0.386719,0.375 0.363281,0 0.609375,-0.30469 0.609375,-0.63281 0,-0.49219 -0.574219,-0.72657 -1.078125,-0.72657 -0.726563,0 -1.125,0.71485 -1.242188,0.94922 -0.269531,-0.90234 -1.007812,-0.94922 -1.230468,-0.94922 -1.21875,0 -1.863282,1.57032 -1.863282,1.82813 0,0.0469 0.04687,0.10547 0.128907,0.10547 0.105468,0 0.128906,-0.0703 0.152343,-0.11719 0.398438,-1.32422 1.207032,-1.57031 1.546875,-1.57031 0.539063,0 0.644532,0.49219 0.644532,0.78515 0,0.25782 -0.07031,0.53907 -0.210938,1.11329 l -0.410156,1.6289 c -0.175781,0.72656 -0.527344,1.38281 -1.160156,1.38281 -0.05859,0 -0.351563,0 -0.609375,-0.15234 0.433593,-0.0937 0.527343,-0.44531 0.527343,-0.58594 0,-0.24609 -0.175781,-0.38672 -0.398437,-0.38672 -0.292969,0 -0.597656,0.2461 -0.597656,0.63282 0,0.5039 0.5625,0.72656 1.066406,0.72656 0.574219,0 0.984375,-0.45703 1.230469,-0.9375 0.199218,0.70312 0.796875,0.9375 1.230468,0.9375 1.230469,0 1.875,-1.55859 1.875,-1.82813 0,-0.0586 -0.04687,-0.10546 -0.128906,-0.10546 -0.105469,0 -0.117187,0.0586 -0.152344,0.15234 -0.316406,1.05469 -1.019531,1.54687 -1.546875,1.54687 -0.421875,0 -0.65625,-0.3164 -0.65625,-0.80859 0,-0.25781 0.05859,-0.44531 0.246094,-1.24219 l 0.421875,-1.61718 c 0.175781,-0.72657 0.585938,-1.24219 1.125,-1.24219 0.03516,0 0.363281,0 0.609375,0.15234 z m 0,0"
         style="fill:#000000;fill-opacity:1;fill-rule:nonzero;stroke:none" />
      <path
         id="path3"
         d="m 56.568328,147.58374 c 0.128906,-0.11719 0.457031,-0.375 0.585938,-0.49219 0.492187,-0.45703 0.960937,-0.89062 0.960937,-1.61718 0,-0.94922 -0.796875,-1.5586 -1.792969,-1.5586 -0.949218,0 -1.582031,0.72657 -1.582031,1.42969 0,0.39844 0.316406,0.44531 0.421875,0.44531 0.164063,0 0.410156,-0.11718 0.410156,-0.42187 0,-0.41016 -0.398437,-0.41016 -0.492187,-0.41016 0.234375,-0.58594 0.773437,-0.78515 1.160156,-0.78515 0.738281,0 1.125,0.63281 1.125,1.30078 0,0.83203 -0.585937,1.42968 -1.523437,2.40234 l -1.007813,1.03125 c -0.09375,0.0937 -0.09375,0.10547 -0.09375,0.30469 h 3.152344 l 0.222656,-1.42969 h -0.246094 c -0.02344,0.16406 -0.08203,0.5625 -0.175781,0.71484 -0.04687,0.0586 -0.65625,0.0586 -0.785156,0.0586 h -1.417969 z m 0,0"
         style="fill:#000000;fill-opacity:1;fill-rule:nonzero;stroke:none" />
      <path
         id="path4"
         d="m 69.582,151.39527 c 0.210938,0 0.421875,0 0.421875,-0.23438 0,-0.23437 -0.210937,-0.23437 -0.421875,-0.23437 h -6.46875 c -0.199219,0 -0.410156,0 -0.410156,0.23437 0,0.23438 0.210937,0.23438 0.410156,0.23438 z m 0,0"
         style="fill:#000000;fill-opacity:1;fill-rule:nonzero;stroke:none" />
      <path
         id="path5"
         d="m 79.346648,146.7312 v -0.28125 h -2.882812 c -1.453125,0 -1.476563,-0.15234 -1.523438,-0.38672 h -0.257812 l -0.375,2.39063 h 0.269531 c 0.03516,-0.21094 0.140625,-0.94922 0.292969,-1.07813 0.09375,-0.0703 0.996094,-0.0703 1.160156,-0.0703 h 2.53125 l -1.265625,1.81641 c -0.316406,0.45703 -1.523437,2.42578 -1.523437,4.66406 0,0.14063 0,0.60938 0.480468,0.60938 0.503907,0 0.503907,-0.45704 0.503907,-0.6211 v -0.59765 c 0,-1.78125 0.292968,-3.16407 0.855468,-3.96094 z m 3.158204,10.40625 v -0.44531 h -1.160157 v -11.0625 h 1.160157 v -0.44531 h -1.605469 v 11.95312 z m 0,0"
         style="fill:#000000;fill-opacity:1;fill-rule:nonzero;stroke:none" />
      <path
         id="path6"
         d="m 88.42575,149.27417 c -0.375,0.0703 -0.515625,0.35156 -0.515625,0.58594 0,0.28125 0.222656,0.375 0.386719,0.375 0.363281,0 0.609375,-0.30469 0.609375,-0.63281 0,-0.49219 -0.574219,-0.72657 -1.078125,-0.72657 -0.726563,0 -1.125,0.71485 -1.242188,0.94922 -0.269531,-0.90234 -1.007812,-0.94922 -1.230468,-0.94922 -1.21875,0 -1.863282,1.57032 -1.863282,1.82813 0,0.0469 0.04687,0.10547 0.128907,0.10547 0.105468,0 0.128906,-0.0703 0.152343,-0.11719 0.398438,-1.32422 1.207032,-1.57031 1.546875,-1.57031 0.539063,0 0.644532,0.49219 0.644532,0.78515 0,0.25782 -0.07031,0.53907 -0.210938,1.11329 l -0.410156,1.6289 c -0.175781,0.72656 -0.527344,1.38281 -1.160156,1.38281 -0.05859,0 -0.351563,0 -0.609375,-0.15234 0.433593,-0.0937 0.527343,-0.44531 0.527343,-0.58594 0,-0.24609 -0.175781,-0.38672 -0.398437,-0.38672 -0.292969,0 -0.597656,0.2461 -0.597656,0.63282 0,0.5039 0.5625,0.72656 1.066406,0.72656 0.574219,0 0.984375,-0.45703 1.230469,-0.9375 0.199218,0.70312 0.796875,0.9375 1.230468,0.9375 1.230469,0 1.875,-1.55859 1.875,-1.82813 0,-0.0586 -0.04687,-0.10546 -0.128906,-0.10546 -0.105469,0 -0.117187,0.0586 -0.152344,0.15234 -0.316406,1.05469 -1.019531,1.54687 -1.546875,1.54687 -0.421875,0 -0.65625,-0.3164 -0.65625,-0.80859 0,-0.25781 0.05859,-0.44531 0.246094,-1.24219 l 0.421875,-1.61718 c 0.175781,-0.72657 0.585938,-1.24219 1.125,-1.24219 0.03516,0 0.363281,0 0.609375,0.15234 z m 0,0"
         style="fill:#000000;fill-opacity:1;fill-rule:nonzero;stroke:none" />
      <path
         id="path7"
         d="m 91.270477,145.18433 h -1.605469 v 0.44531 h 1.160156 v 11.0625 h -1.160156 v 0.44531 h 1.605469 z m 8.824223,6.19922 h 3.30468 c 0.16407,0 0.375,0 0.375,-0.21094 0,-0.22266 -0.19922,-0.22266 -0.375,-0.22266 h -3.30468 v -3.30468 c 0,-0.16407 0,-0.38672 -0.210942,-0.38672 -0.234375,0 -0.234375,0.21093 -0.234375,0.38672 v 3.30468 h -3.292969 c -0.175781,0 -0.386719,0 -0.386719,0.21094 0,0.22266 0.199219,0.22266 0.386719,0.22266 h 3.292969 v 3.30468 c 0,0.16407 0,0.38672 0.222656,0.38672 0.222661,0 0.222661,-0.21093 0.222661,-0.38672 z m 8.45214,-1.39453 c 0,-3.02344 1.47657,-3.50391 2.1211,-3.50391 0.43359,0 0.85547,0.12891 1.08984,0.49219 -0.14062,0 -0.59765,0 -0.59765,0.49218 0,0.25782 0.17578,0.49219 0.49218,0.49219 0.29297,0 0.49219,-0.1875 0.49219,-0.52734 0,-0.6211 -0.44531,-1.23047 -1.48828,-1.23047 -1.51172,0 -3.08203,1.53516 -3.08203,4.17187 0,3.28125 1.42969,4.01954 2.44922,4.01954 1.30078,0 2.41406,-1.125 2.41406,-2.6836 0,-1.59375 -1.11328,-2.66015 -2.30859,-2.66015 -1.06641,0 -1.45313,0.92578 -1.58204,1.26562 z m 1.47657,4.08984 c -0.75,0 -1.11328,-0.66797 -1.21875,-0.92578 -0.10547,-0.30469 -0.22266,-0.89063 -0.22266,-1.73438 0,-0.9375 0.42188,-2.12109 1.5,-2.12109 0.65625,0 1.00781,0.44531 1.18359,0.84375 0.1875,0.44531 0.1875,1.04297 0.1875,1.55859 0,0.60938 0,1.14844 -0.22265,1.60547 -0.30469,0.57422 -0.72656,0.77344 -1.20703,0.77344 z m 14.31152,-3.79688 c 0.16406,0 0.375,0 0.375,-0.22265 0,-0.22266 -0.19922,-0.22266 -0.375,-0.22266 h -7.04297 c -0.17578,0 -0.38672,0 -0.38672,0.21094 0,0.23437 0.19922,0.23437 0.38672,0.23437 z m 0,2.21485 c 0.16406,0 0.375,0 0.375,-0.21094 0,-0.23437 -0.19922,-0.23437 -0.375,-0.23437 h -7.04297 c -0.17578,0 -0.38672,0 -0.38672,0.22265 0,0.22266 0.19922,0.22266 0.38672,0.22266 z m 9.70898,-2.16797 c 0,-0.99609 -0.0586,-1.96875 -0.49218,-2.87109 -0.49219,-0.9961 -1.34766,-1.25391 -1.9336,-1.25391 -0.6914,0 -1.54687,0.33984 -1.98047,1.33594 -0.33984,0.75 -0.45703,1.48828 -0.45703,2.78906 0,1.16016 0.082,2.02734 0.51563,2.87109 0.45703,0.91407 1.28906,1.19532 1.91015,1.19532 1.04297,0 1.64063,-0.6211 1.98047,-1.3125 0.4336,-0.89063 0.45703,-2.0625 0.45703,-2.75391 z m -2.4375,3.83203 c -0.38671,0 -1.16015,-0.21094 -1.38281,-1.52344 -0.14062,-0.71484 -0.14062,-1.61718 -0.14062,-2.46093 0,-0.97266 0,-1.86329 0.19922,-2.56641 0.19921,-0.79688 0.80859,-1.17188 1.32421,-1.17188 0.45704,0 1.14844,0.28125 1.3711,1.30079 0.15234,0.67968 0.15234,1.6289 0.15234,2.4375 0,0.80859 0,1.71093 -0.1289,2.4375 -0.22266,1.32421 -0.97266,1.54687 -1.39454,1.54687 z m 0,0"
         style="fill:#000000;fill-opacity:1;fill-rule:nonzero;stroke:none" />
      <path
         id="path8"
         d="m 136.74216,153.57495 c 0,-0.35156 -0.29297,-0.58593 -0.57422,-0.58593 -0.35156,0 -0.58594,0.29296 -0.58594,0.57421 0,0.35157 0.28125,0.58594 0.57422,0.58594 0.33984,0 0.58594,-0.28125 0.58594,-0.57422 z m 0,0"
         style="fill:#000000;fill-opacity:1;fill-rule:nonzero;stroke:none" />
      <path
         id="path9"
         d="m 280.39352,202.32495 c 0.50391,0.16407 0.92578,0.17578 1.05469,0.17578 1.35938,0 2.21484,-0.99609 2.21484,-1.16015 0,-0.0469 -0.0234,-0.10547 -0.0937,-0.10547 -0.0234,0 -0.0469,0 -0.15234,0.0469 -0.66797,0.28125 -1.24219,0.31641 -1.55859,0.31641 -0.78516,0 -1.34766,-0.23437 -1.58203,-0.32812 -0.082,-0.0352 -0.10547,-0.0352 -0.11719,-0.0352 -0.0937,0 -0.0937,0.0703 -0.0937,0.25781 v 3.55078 c 0,0.21094 0,0.29297 0.14062,0.29297 0.0586,0 0.0703,-0.0117 0.19922,-0.16406 0.32813,-0.49219 0.89063,-0.77344 1.48828,-0.77344 0.63282,0 0.94922,0.58594 1.04297,0.78516 0.19922,0.46875 0.21094,1.05469 0.21094,1.51172 0,0.45703 0,1.13672 -0.32813,1.67578 -0.26953,0.42187 -0.73828,0.72656 -1.2539,0.72656 -0.79688,0 -1.57031,-0.53906 -1.78125,-1.40625 0.0586,0.0234 0.1289,0.0352 0.1875,0.0352 0.19922,0 0.52734,-0.12891 0.52734,-0.52735 0,-0.33984 -0.23437,-0.52734 -0.52734,-0.52734 -0.21094,0 -0.52735,0.10547 -0.52735,0.57422 0,1.00781 0.8086,2.16797 2.14454,2.16797 1.34765,0 2.53125,-1.125 2.53125,-2.64844 0,-1.41797 -0.96094,-2.60156 -2.21485,-2.60156 -0.67969,0 -1.20703,0.29297 -1.51172,0.63281 z m 0,0"
         style="fill:#000000;fill-opacity:1;fill-rule:nonzero;stroke:none" />
      <path
         id="path10"
         d="m -112.39554,221.61109 h -0.26953 c -0.0352,0.19921 -0.12891,0.85546 -0.24609,1.04296 -0.082,0.11719 -0.76172,0.11719 -1.125,0.11719 h -2.21485 c 0.32813,-0.28125 1.05469,-1.04297 1.3711,-1.33594 1.8164,-1.66406 2.48437,-2.28515 2.48437,-3.46875 0,-1.38281 -1.08984,-2.29687 -2.47266,-2.29687 -1.39453,0 -2.20312,1.18359 -2.20312,2.20312 0,0.60938 0.52734,0.60938 0.5625,0.60938 0.24609,0 0.5625,-0.17578 0.5625,-0.5625 0,-0.32813 -0.23438,-0.55078 -0.5625,-0.55078 -0.10547,0 -0.12891,0 -0.16406,0.0117 0.22265,-0.82032 0.86718,-1.3711 1.64062,-1.3711 1.01953,0 1.64063,0.85547 1.64063,1.95703 0,1.00782 -0.58594,1.89844 -1.26563,2.66016 l -2.41406,2.70703 v 0.28125 h 4.35937 z m 2.12695,-4.83985 c 0.50391,0.16406 0.92579,0.17578 1.05469,0.17578 1.35938,0 2.21485,-0.99609 2.21485,-1.16015 0,-0.0469 -0.0234,-0.10547 -0.0937,-0.10547 -0.0234,0 -0.0469,0 -0.15235,0.0469 -0.66797,0.28125 -1.24219,0.31641 -1.55859,0.31641 -0.78516,0 -1.34766,-0.23438 -1.58203,-0.32813 -0.082,-0.0352 -0.10547,-0.0352 -0.11719,-0.0352 -0.0937,0 -0.0937,0.0703 -0.0937,0.25781 v 3.55078 c 0,0.21094 0,0.29297 0.14062,0.29297 0.0586,0 0.0703,-0.0117 0.19922,-0.16406 0.32813,-0.49219 0.89063,-0.77344 1.48828,-0.77344 0.63282,0 0.94922,0.58594 1.04297,0.78516 0.19922,0.46875 0.21094,1.05468 0.21094,1.51172 0,0.45703 0,1.13671 -0.32812,1.67578 -0.26954,0.42187 -0.73829,0.72656 -1.25391,0.72656 -0.79688,0 -1.57031,-0.53906 -1.78125,-1.40625 0.0586,0.0234 0.12891,0.0352 0.1875,0.0352 0.19922,0 0.52734,-0.12891 0.52734,-0.52735 0,-0.33984 -0.23437,-0.52734 -0.52734,-0.52734 -0.21094,0 -0.52734,0.10547 -0.52734,0.57422 0,1.00781 0.80859,2.16797 2.14453,2.16797 1.34765,0 2.53125,-1.125 2.53125,-2.64844 0,-1.41797 -0.96094,-2.60156 -2.21485,-2.60156 -0.67968,0 -1.20703,0.29296 -1.51172,0.63281 z m 9.67383,3.02344 c 0,-0.99609 -0.0586,-1.96875 -0.49219,-2.87109 -0.49218,-0.9961 -1.34765,-1.25391 -1.93359,-1.25391 -0.69141,0 -1.54687,0.33984 -1.98047,1.33594 -0.33984,0.75 -0.45703,1.48828 -0.45703,2.78906 0,1.16016 0.082,2.02734 0.51563,2.87109 0.45703,0.91407 1.28906,1.19532 1.91015,1.19532 1.04297,0 1.64063,-0.6211 1.98047,-1.3125 0.43359,-0.89063 0.45703,-2.0625 0.45703,-2.75391 z m -2.4375,3.83203 c -0.38672,0 -1.16015,-0.21094 -1.38281,-1.52344 -0.14063,-0.71484 -0.14063,-1.61718 -0.14063,-2.46093 0,-0.97266 0,-1.86329 0.19922,-2.56641 0.19922,-0.79688 0.8086,-1.17188 1.32422,-1.17188 0.45703,0 1.14844,0.28125 1.3711,1.30079 0.15234,0.67968 0.15234,1.6289 0.15234,2.4375 0,0.80859 0,1.71093 -0.12891,2.4375 -0.22265,1.32421 -0.97265,1.54687 -1.39453,1.54687 z m 8.288088,-3.83203 c 0,-0.99609 -0.05859,-1.96875 -0.492187,-2.87109 -0.492188,-0.9961 -1.347657,-1.25391 -1.933594,-1.25391 -0.691406,0 -1.546875,0.33984 -1.980469,1.33594 -0.339844,0.75 -0.457031,1.48828 -0.457031,2.78906 0,1.16016 0.08203,2.02734 0.515625,2.87109 0.457031,0.91407 1.289062,1.19532 1.910156,1.19532 1.042969,0 1.640625,-0.6211 1.980469,-1.3125 0.433594,-0.89063 0.457031,-2.0625 0.457031,-2.75391 z m -2.4375,3.83203 c -0.386719,0 -1.160156,-0.21094 -1.382812,-1.52344 -0.140625,-0.71484 -0.140625,-1.61718 -0.140625,-2.46093 0,-0.97266 0,-1.86329 0.199218,-2.56641 0.199219,-0.79688 0.808594,-1.17188 1.324219,-1.17188 0.457031,0 1.148438,0.28125 1.371094,1.30079 0.152344,0.67968 0.152344,1.6289 0.152344,2.4375 0,0.80859 0,1.71093 -0.128907,2.4375 -0.222656,1.32421 -0.972656,1.54687 -1.394531,1.54687 z m 0,0"
         style="fill:#000000;fill-opacity:1;fill-rule:nonzero;stroke:none" />
      <path
         id="path11"
         d="m 18.807586,304.27808 c 0,-1.32422 -0.902344,-3.33985 -2.988281,-4.39453 1.289062,-0.69141 2.835937,-2.08594 2.976562,-4.32422 l 0.01172,-0.0703 v -8.28516 c 0,-0.98438 0,-1.19531 0.09375,-1.65234 0.222656,-0.94922 0.796875,-2.13282 2.308594,-3.03516 0.09375,-0.0586 0.105468,-0.0703 0.105468,-0.28125 0,-0.26953 -0.01172,-0.28125 -0.269531,-0.28125 -0.222656,0 -0.246094,0 -0.5625,0.19922 -2.683594,1.51172 -2.835937,3.73828 -2.835937,4.14844 v 8.50781 c 0,0.85547 0,1.82812 -0.621094,2.92969 -0.550781,0.97265 -1.195313,1.46484 -1.710938,1.8164 -0.164062,0.10547 -0.175781,0.11719 -0.175781,0.31641 0,0.22265 0.01172,0.23437 0.105469,0.29297 1.019531,0.66797 2.109375,1.73437 2.367187,3.67968 0.03516,0.25782 0.03516,0.28125 0.03516,0.4336 v 9.17578 c 0,0.97266 0.597656,2.97656 2.90625,4.19531 0.269531,0.15235 0.292968,0.15235 0.492187,0.15235 0.257813,0 0.269531,-0.0117 0.269531,-0.26954 0,-0.22265 -0.01172,-0.23437 -0.05859,-0.25781 -0.515625,-0.3164 -2.074219,-1.26562 -2.402344,-3.33984 -0.04687,-0.31641 -0.04687,-0.33985 -0.04687,-0.49219 z m 0,0"
         style="fill:#000000;fill-opacity:1;fill-rule:nonzero;stroke:none" />
      <path
         id="path12"
         d="m 26.6445,293.26831 c -0.05859,0.19922 -0.05859,0.22266 -0.222656,0.44532 -0.269531,0.33984 -0.796875,0.85546 -1.359375,0.85546 -0.480469,0 -0.761719,-0.44531 -0.761719,-1.14843 0,-0.65625 0.375,-1.99219 0.597656,-2.4961 0.410157,-0.84375 0.972657,-1.26562 1.441407,-1.26562 0.785156,0 0.9375,0.97265 0.9375,1.0664 0,0.0117 -0.03516,0.17579 -0.04687,0.19922 z m 0.761719,-3.07031 c -0.128906,-0.30469 -0.445313,-0.78516 -1.066406,-0.78516 -1.359375,0 -2.8125,1.7461 -2.8125,3.51563 0,1.18359 0.691406,1.875 1.5,1.875 0.65625,0 1.21875,-0.51563 1.558593,-0.90234 0.117188,0.70312 0.679688,0.90234 1.042969,0.90234 0.351563,0 0.644531,-0.21094 0.855469,-0.64453 0.1875,-0.41016 0.363281,-1.13672 0.363281,-1.1836 0,-0.0586 -0.04687,-0.10546 -0.117187,-0.10546 -0.117188,0 -0.128907,0.0586 -0.175782,0.23437 -0.175781,0.71484 -0.398437,1.46484 -0.890625,1.46484 -0.351562,0 -0.375,-0.3164 -0.375,-0.55078 0,-0.28125 0.03516,-0.41015 0.140625,-0.8789 0.08203,-0.29297 0.152344,-0.5625 0.246094,-0.90235 0.433594,-1.79297 0.550781,-2.22656 0.550781,-2.29687 0,-0.16406 -0.140625,-0.29297 -0.316406,-0.29297 -0.375,0 -0.480469,0.41016 -0.503906,0.55078 z m 0,0"
         style="fill:#000000;fill-opacity:1;fill-rule:nonzero;stroke:none" />
      <path
         id="path13"
         d="m 31.443328,288.71851 c 0.128906,-0.11719 0.457031,-0.375 0.585938,-0.49219 0.492187,-0.45703 0.960937,-0.89062 0.960937,-1.61719 0,-0.94922 -0.796875,-1.55859 -1.792969,-1.55859 -0.949218,0 -1.582031,0.72656 -1.582031,1.42969 0,0.39843 0.316406,0.44531 0.421875,0.44531 0.164063,0 0.410156,-0.11719 0.410156,-0.42188 0,-0.41015 -0.398437,-0.41015 -0.492187,-0.41015 0.234375,-0.58594 0.773437,-0.78516 1.160156,-0.78516 0.738281,0 1.125,0.63281 1.125,1.30078 0,0.83203 -0.585937,1.42969 -1.523437,2.40235 l -1.007813,1.03125 c -0.09375,0.0937 -0.09375,0.10547 -0.09375,0.30468 h 3.152344 l 0.222656,-1.42968 h -0.246094 c -0.02344,0.16406 -0.08203,0.5625 -0.175781,0.71484 -0.04687,0.0586 -0.65625,0.0586 -0.785156,0.0586 h -1.417969 z m 0,0"
         style="fill:#000000;fill-opacity:1;fill-rule:nonzero;stroke:none" />
      <path
         id="path14"
         d="m 41.351531,291.92066 h 3.304688 c 0.164062,0 0.375,0 0.375,-0.21094 0,-0.22266 -0.199219,-0.22266 -0.375,-0.22266 h -3.304688 v -3.30468 c 0,-0.16407 0,-0.38672 -0.210937,-0.38672 -0.234375,0 -0.234375,0.21093 -0.234375,0.38672 v 3.30468 H 37.61325 c -0.175781,0 -0.386719,0 -0.386719,0.21094 0,0.22266 0.199219,0.22266 0.386719,0.22266 h 3.292969 v 3.30468 c 0,0.16407 0,0.38672 0.222656,0.38672 0.222656,0 0.222656,-0.21093 0.222656,-0.38672 z m 0,0"
         style="fill:#000000;fill-opacity:1;fill-rule:nonzero;stroke:none" />
      <path
         id="path15"
         d="m 51.107391,286.69409 c 0.01172,-0.0469 0.03516,-0.1289 0.03516,-0.1875 0,-0.11718 -0.128906,-0.11718 -0.152344,-0.11718 -0.01172,0 -0.433594,0.0351 -0.65625,0.0586 -0.199219,0.0117 -0.375,0.0352 -0.597656,0.0469 -0.28125,0.0234 -0.363281,0.0351 -0.363281,0.25781 0,0.11719 0.117187,0.11719 0.234375,0.11719 0.609375,0 0.609375,0.10546 0.609375,0.22265 0,0.082 -0.09375,0.4336 -0.140625,0.64453 l -0.292969,1.14844 c -0.117188,0.48047 -0.796875,3.19922 -0.84375,3.41016 -0.05859,0.29297 -0.05859,0.5039 -0.05859,0.65625 0,1.21875 0.679688,1.85156 1.453125,1.85156 1.394531,0 2.824219,-1.78125 2.824219,-3.51563 0,-1.10156 -0.621094,-1.875 -1.511719,-1.875 -0.632812,0 -1.183594,0.51563 -1.417969,0.75 z m -0.761719,7.875 c -0.375,0 -0.796875,-0.29296 -0.796875,-1.21875 0,-0.39843 0.03516,-0.62109 0.246094,-1.46484 0.04687,-0.15234 0.234375,-0.91406 0.28125,-1.06641 0.02344,-0.10546 0.726562,-1.16015 1.535156,-1.16015 0.527344,0 0.773437,0.51562 0.773437,1.13672 0,0.57422 -0.339843,1.93359 -0.632812,2.55468 -0.304688,0.64454 -0.855469,1.21875 -1.40625,1.21875 z m 0,0"
         style="fill:#000000;fill-opacity:1;fill-rule:nonzero;stroke:none" />
      <path
         id="path16"
         d="m 55.569305,288.71851 c 0.128906,-0.11719 0.457031,-0.375 0.585937,-0.49219 0.492188,-0.45703 0.960938,-0.89062 0.960938,-1.61719 0,-0.94922 -0.796875,-1.55859 -1.792969,-1.55859 -0.949219,0 -1.582031,0.72656 -1.582031,1.42969 0,0.39843 0.316406,0.44531 0.421875,0.44531 0.164062,0 0.410156,-0.11719 0.410156,-0.42188 0,-0.41015 -0.398438,-0.41015 -0.492188,-0.41015 0.234375,-0.58594 0.773438,-0.78516 1.160157,-0.78516 0.738281,0 1.125,0.63281 1.125,1.30078 0,0.83203 -0.585938,1.42969 -1.523438,2.40235 l -1.007812,1.03125 c -0.09375,0.0937 -0.09375,0.10547 -0.09375,0.30468 h 3.152343 l 0.222657,-1.42968 h -0.246094 c -0.02344,0.16406 -0.08203,0.5625 -0.175781,0.71484 -0.04687,0.0586 -0.65625,0.0586 -0.785157,0.0586 H 54.49118 Z m 0,0"
         style="fill:#000000;fill-opacity:1;fill-rule:nonzero;stroke:none" />
      <path
         id="path17"
         d="m 65.477508,291.92066 h 3.304687 c 0.164063,0 0.375,0 0.375,-0.21094 0,-0.22266 -0.199218,-0.22266 -0.375,-0.22266 h -3.304687 v -3.30468 c 0,-0.16407 0,-0.38672 -0.210938,-0.38672 -0.234375,0 -0.234375,0.21093 -0.234375,0.38672 v 3.30468 h -3.292968 c -0.175782,0 -0.386719,0 -0.386719,0.21094 0,0.22266 0.199219,0.22266 0.386719,0.22266 h 3.292968 v 3.30468 c 0,0.16407 0,0.38672 0.222657,0.38672 0.222656,0 0.222656,-0.21093 0.222656,-0.38672 z m 0,0"
         style="fill:#000000;fill-opacity:1;fill-rule:nonzero;stroke:none" />
      <path
         id="path18"
         d="m 77.146453,290.18628 c -0.234375,0 -0.339844,0 -0.503906,0.15235 -0.07031,0.0586 -0.199219,0.23437 -0.199219,0.42187 0,0.24609 0.175781,0.38672 0.398438,0.38672 0.292968,0 0.609375,-0.23438 0.609375,-0.71484 0,-0.57422 -0.550782,-1.01954 -1.371094,-1.01954 -1.570313,0 -3.128906,1.71094 -3.128906,3.41016 0,1.04297 0.644531,1.98047 1.863281,1.98047 1.628906,0 2.648437,-1.26563 2.648437,-1.41797 0,-0.0703 -0.07031,-0.12891 -0.117187,-0.12891 -0.03516,0 -0.04687,0.0117 -0.152344,0.11719 -0.761719,1.00781 -1.898437,1.19531 -2.355469,1.19531 -0.820312,0 -1.089843,-0.71484 -1.089843,-1.3125 0,-0.42187 0.199218,-1.58203 0.632812,-2.39062 0.316406,-0.5625 0.960938,-1.20703 1.710938,-1.20703 0.152343,0 0.808593,0.0234 1.054687,0.52734 z m 0,0"
         style="fill:#000000;fill-opacity:1;fill-rule:nonzero;stroke:none" />
      <path
         id="path19"
         d="m 79.756805,288.71851 c 0.128906,-0.11719 0.457031,-0.375 0.585937,-0.49219 0.492188,-0.45703 0.960938,-0.89062 0.960938,-1.61719 0,-0.94922 -0.796875,-1.55859 -1.792969,-1.55859 -0.949219,0 -1.582031,0.72656 -1.582031,1.42969 0,0.39843 0.316406,0.44531 0.421875,0.44531 0.164062,0 0.410156,-0.11719 0.410156,-0.42188 0,-0.41015 -0.398438,-0.41015 -0.492188,-0.41015 0.234375,-0.58594 0.773438,-0.78516 1.160157,-0.78516 0.738281,0 1.125,0.63281 1.125,1.30078 0,0.83203 -0.585938,1.42969 -1.523438,2.40235 l -1.007812,1.03125 c -0.09375,0.0937 -0.09375,0.10547 -0.09375,0.30468 h 3.152343 l 0.222657,-1.42968 h -0.246094 c -0.02344,0.16406 -0.08203,0.5625 -0.175781,0.71484 -0.04687,0.0586 -0.65625,0.0586 -0.785157,0.0586 H 78.67868 Z m 0,0"
         style="fill:#000000;fill-opacity:1;fill-rule:nonzero;stroke:none" />
      <path
         id="path20"
         d="m 93.634734,290.81909 c 0.164063,0 0.375,0 0.375,-0.22265 0,-0.22266 -0.199218,-0.22266 -0.375,-0.22266 h -7.042968 c -0.175782,0 -0.386719,0 -0.386719,0.21094 0,0.23437 0.199219,0.23437 0.386719,0.23437 z m 0,2.21485 c 0.164063,0 0.375,0 0.375,-0.21094 0,-0.23437 -0.199218,-0.23437 -0.375,-0.23437 h -7.042968 c -0.175782,0 -0.386719,0 -0.386719,0.22265 0,0.22266 0.199219,0.22266 0.386719,0.22266 z m 0,0"
         style="fill:#000000;fill-opacity:1;fill-rule:nonzero;stroke:none" />
      <path
         id="path21"
         d="m 101.58298,293.26831 c -0.0586,0.19922 -0.0586,0.22266 -0.22266,0.44532 -0.26953,0.33984 -0.79687,0.85546 -1.35937,0.85546 -0.480473,0 -0.761723,-0.44531 -0.761723,-1.14843 0,-0.65625 0.375,-1.99219 0.597656,-2.4961 0.410157,-0.84375 0.972657,-1.26562 1.441407,-1.26562 0.78516,0 0.9375,0.97265 0.9375,1.0664 0,0.0117 -0.0352,0.17579 -0.0469,0.19922 z m 0.76172,-3.07031 c -0.12891,-0.30469 -0.44532,-0.78516 -1.06641,-0.78516 -1.359376,0 -2.812501,1.7461 -2.812501,3.51563 0,1.18359 0.691406,1.875 1.5,1.875 0.656251,0 1.218751,-0.51563 1.558591,-0.90234 0.11719,0.70312 0.67969,0.90234 1.04297,0.90234 0.35156,0 0.64453,-0.21094 0.85547,-0.64453 0.1875,-0.41016 0.36328,-1.13672 0.36328,-1.1836 0,-0.0586 -0.0469,-0.10546 -0.11719,-0.10546 -0.11718,0 -0.1289,0.0586 -0.17578,0.23437 -0.17578,0.71484 -0.39843,1.46484 -0.89062,1.46484 -0.35156,0 -0.375,-0.3164 -0.375,-0.55078 0,-0.28125 0.0352,-0.41015 0.14062,-0.8789 0.082,-0.29297 0.15235,-0.5625 0.2461,-0.90235 0.43359,-1.79297 0.55078,-2.22656 0.55078,-2.29687 0,-0.16406 -0.14063,-0.29297 -0.31641,-0.29297 -0.375,0 -0.48047,0.41016 -0.5039,0.55078 z m 4.55273,-3.50391 c 0.0117,-0.0469 0.0352,-0.1289 0.0352,-0.1875 0,-0.11718 -0.12891,-0.11718 -0.15235,-0.11718 -0.0117,0 -0.43359,0.0351 -0.65625,0.0586 -0.19922,0.0117 -0.375,0.0352 -0.59765,0.0469 -0.28125,0.0234 -0.36329,0.0351 -0.36329,0.25781 0,0.11719 0.11719,0.11719 0.23438,0.11719 0.60937,0 0.60937,0.10546 0.60937,0.22265 0,0.082 -0.0937,0.4336 -0.14062,0.64453 l -0.29297,1.14844 c -0.11719,0.48047 -0.79687,3.19922 -0.84375,3.41016 -0.0586,0.29297 -0.0586,0.5039 -0.0586,0.65625 0,1.21875 0.67968,1.85156 1.45312,1.85156 1.39453,0 2.82422,-1.78125 2.82422,-3.51563 0,-1.10156 -0.62109,-1.875 -1.51172,-1.875 -0.63281,0 -1.18359,0.51563 -1.41797,0.75 z m -0.76172,7.875 c -0.375,0 -0.79687,-0.29296 -0.79687,-1.21875 0,-0.39843 0.0352,-0.62109 0.24609,-1.46484 0.0469,-0.15234 0.23437,-0.91406 0.28125,-1.06641 0.0234,-0.10546 0.72656,-1.16015 1.53516,-1.16015 0.52734,0 0.77343,0.51562 0.77343,1.13672 0,0.57422 -0.33984,1.93359 -0.63281,2.55468 -0.30469,0.64454 -0.85547,1.21875 -1.40625,1.21875 z m 0,0"
         style="fill:#000000;fill-opacity:1;fill-rule:nonzero;stroke:none" />
      <path
         id="path22"
         d="m 116.53317,291.92066 h 3.30469 c 0.16406,0 0.375,0 0.375,-0.21094 0,-0.22266 -0.19922,-0.22266 -0.375,-0.22266 h -3.30469 v -3.30468 c 0,-0.16407 0,-0.38672 -0.21094,-0.38672 -0.23437,0 -0.23437,0.21093 -0.23437,0.38672 v 3.30468 h -3.29297 c -0.17578,0 -0.38672,0 -0.38672,0.21094 0,0.22266 0.19922,0.22266 0.38672,0.22266 h 3.29297 v 3.30468 c 0,0.16407 0,0.38672 0.22266,0.38672 0.22265,0 0.22265,-0.21093 0.22265,-0.38672 z m 0,0"
         style="fill:#000000;fill-opacity:1;fill-rule:nonzero;stroke:none" />
      <path
         id="path23"
         d="m 126.29196,286.69409 c 0.0117,-0.0469 0.0352,-0.1289 0.0352,-0.1875 0,-0.11718 -0.12891,-0.11718 -0.15235,-0.11718 -0.0117,0 -0.43359,0.0351 -0.65625,0.0586 -0.19922,0.0117 -0.375,0.0352 -0.59765,0.0469 -0.28125,0.0234 -0.36328,0.0351 -0.36328,0.25781 0,0.11719 0.11718,0.11719 0.23437,0.11719 0.60938,0 0.60938,0.10546 0.60938,0.22265 0,0.082 -0.0937,0.4336 -0.14063,0.64453 l -0.29297,1.14844 c -0.11719,0.48047 -0.79687,3.19922 -0.84375,3.41016 -0.0586,0.29297 -0.0586,0.5039 -0.0586,0.65625 0,1.21875 0.67969,1.85156 1.45312,1.85156 1.39453,0 2.82422,-1.78125 2.82422,-3.51563 0,-1.10156 -0.62109,-1.875 -1.51172,-1.875 -0.63281,0 -1.18359,0.51563 -1.41797,0.75 z m -0.76172,7.875 c -0.375,0 -0.79687,-0.29296 -0.79687,-1.21875 0,-0.39843 0.0352,-0.62109 0.24609,-1.46484 0.0469,-0.15234 0.23438,-0.91406 0.28125,-1.06641 0.0234,-0.10546 0.72656,-1.16015 1.53516,-1.16015 0.52734,0 0.77343,0.51562 0.77343,1.13672 0,0.57422 -0.33984,1.93359 -0.63281,2.55468 -0.30469,0.64454 -0.85547,1.21875 -1.40625,1.21875 z m 7.64942,-4.38281 c -0.23438,0 -0.33985,0 -0.50391,0.15235 -0.0703,0.0586 -0.19922,0.23437 -0.19922,0.42187 0,0.24609 0.17578,0.38672 0.39844,0.38672 0.29297,0 0.60937,-0.23438 0.60937,-0.71484 0,-0.57422 -0.55078,-1.01954 -1.37109,-1.01954 -1.57031,0 -3.12891,1.71094 -3.12891,3.41016 0,1.04297 0.64454,1.98047 1.86329,1.98047 1.6289,0 2.64843,-1.26563 2.64843,-1.41797 0,-0.0703 -0.0703,-0.12891 -0.11718,-0.12891 -0.0352,0 -0.0469,0.0117 -0.15235,0.11719 -0.76172,1.00781 -1.89844,1.19531 -2.35547,1.19531 -0.82031,0 -1.08984,-0.71484 -1.08984,-1.3125 0,-0.42187 0.19922,-1.58203 0.63281,-2.39062 0.31641,-0.5625 0.96094,-1.20703 1.71094,-1.20703 0.15234,0 0.80859,0.0234 1.05469,0.52734 z m 0,0"
         style="fill:#000000;fill-opacity:1;fill-rule:nonzero;stroke:none" />
      <path
         id="path24"
         d="m 140.96677,291.92066 h 3.30468 c 0.16407,0 0.375,0 0.375,-0.21094 0,-0.22266 -0.19922,-0.22266 -0.375,-0.22266 h -3.30468 v -3.30468 c 0,-0.16407 0,-0.38672 -0.21094,-0.38672 -0.23438,0 -0.23438,0.21093 -0.23438,0.38672 v 3.30468 h -3.29297 c -0.17578,0 -0.38671,0 -0.38671,0.21094 0,0.22266 0.19921,0.22266 0.38671,0.22266 h 3.29297 v 3.30468 c 0,0.16407 0,0.38672 0.22266,0.38672 0.22266,0 0.22266,-0.21093 0.22266,-0.38672 z m 0,0"
         style="fill:#000000;fill-opacity:1;fill-rule:nonzero;stroke:none" />
      <path
         id="path25"
         d="m 152.63571,290.18628 c -0.23437,0 -0.33984,0 -0.50391,0.15235 -0.0703,0.0586 -0.19921,0.23437 -0.19921,0.42187 0,0.24609 0.17578,0.38672 0.39843,0.38672 0.29297,0 0.60938,-0.23438 0.60938,-0.71484 0,-0.57422 -0.55078,-1.01954 -1.3711,-1.01954 -1.57031,0 -3.1289,1.71094 -3.1289,3.41016 0,1.04297 0.64453,1.98047 1.86328,1.98047 1.62891,0 2.64844,-1.26563 2.64844,-1.41797 0,-0.0703 -0.0703,-0.12891 -0.11719,-0.12891 -0.0352,0 -0.0469,0.0117 -0.15234,0.11719 -0.76172,1.00781 -1.89844,1.19531 -2.35547,1.19531 -0.82032,0 -1.08985,-0.71484 -1.08985,-1.3125 0,-0.42187 0.19922,-1.58203 0.63282,-2.39062 0.3164,-0.5625 0.96093,-1.20703 1.71093,-1.20703 0.15235,0 0.8086,0.0234 1.05469,0.52734 z m 3.95801,3.08203 c -0.0586,0.19922 -0.0586,0.22266 -0.22266,0.44532 -0.26953,0.33984 -0.79687,0.85546 -1.35937,0.85546 -0.48047,0 -0.76172,-0.44531 -0.76172,-1.14843 0,-0.65625 0.375,-1.99219 0.59766,-2.4961 0.41015,-0.84375 0.97265,-1.26562 1.4414,-1.26562 0.78516,0 0.9375,0.97265 0.9375,1.0664 0,0.0117 -0.0351,0.17579 -0.0469,0.19922 z m 0.76172,-3.07031 c -0.12891,-0.30469 -0.44531,-0.78516 -1.06641,-0.78516 -1.35937,0 -2.8125,1.7461 -2.8125,3.51563 0,1.18359 0.69141,1.875 1.5,1.875 0.65625,0 1.21875,-0.51563 1.5586,-0.90234 0.11718,0.70312 0.67968,0.90234 1.04296,0.90234 0.35157,0 0.64454,-0.21094 0.85547,-0.64453 0.1875,-0.41016 0.36328,-1.13672 0.36328,-1.1836 0,-0.0586 -0.0469,-0.10546 -0.11718,-0.10546 -0.11719,0 -0.12891,0.0586 -0.17578,0.23437 -0.17579,0.71484 -0.39844,1.46484 -0.89063,1.46484 -0.35156,0 -0.375,-0.3164 -0.375,-0.55078 0,-0.28125 0.0352,-0.41015 0.14063,-0.8789 0.082,-0.29297 0.15234,-0.5625 0.24609,-0.90235 0.43359,-1.79297 0.55078,-2.22656 0.55078,-2.29687 0,-0.16406 -0.14062,-0.29297 -0.31641,-0.29297 -0.375,0 -0.48046,0.41016 -0.5039,0.55078 z M 26.6445,310.60327 c -0.05859,0.19922 -0.05859,0.22266 -0.222656,0.44532 -0.269531,0.33984 -0.796875,0.85546 -1.359375,0.85546 -0.480469,0 -0.761719,-0.44531 -0.761719,-1.14843 0,-0.65625 0.375,-1.99219 0.597656,-2.4961 0.410157,-0.84375 0.972657,-1.26562 1.441407,-1.26562 0.785156,0 0.9375,0.97265 0.9375,1.0664 0,0.0117 -0.03516,0.17579 -0.04687,0.19922 z m 0.761719,-3.07031 c -0.128906,-0.30469 -0.445313,-0.78516 -1.066406,-0.78516 -1.359375,0 -2.8125,1.7461 -2.8125,3.51563 0,1.18359 0.691406,1.875 1.5,1.875 0.65625,0 1.21875,-0.51563 1.558593,-0.90234 0.117188,0.70312 0.679688,0.90234 1.042969,0.90234 0.351563,0 0.644531,-0.21094 0.855469,-0.64453 0.1875,-0.41016 0.363281,-1.13672 0.363281,-1.1836 0,-0.0586 -0.04687,-0.10546 -0.117187,-0.10546 -0.117188,0 -0.128907,0.0586 -0.175782,0.23437 -0.175781,0.71484 -0.398437,1.46484 -0.890625,1.46484 -0.351562,0 -0.375,-0.3164 -0.375,-0.55078 0,-0.28125 0.03516,-0.41015 0.140625,-0.8789 0.08203,-0.29297 0.152344,-0.5625 0.246094,-0.90235 0.433594,-1.79297 0.550781,-2.22656 0.550781,-2.29687 0,-0.16406 -0.140625,-0.29297 -0.316406,-0.29297 -0.375,0 -0.480469,0.41016 -0.503906,0.55078 z m 4.552734,-3.50391 c 0.01172,-0.0469 0.03516,-0.1289 0.03516,-0.1875 0,-0.11718 -0.128906,-0.11718 -0.152343,-0.11718 -0.01172,0 -0.433594,0.0351 -0.65625,0.0586 -0.199219,0.0117 -0.375,0.0352 -0.597657,0.0469 -0.28125,0.0234 -0.363281,0.0351 -0.363281,0.25781 0,0.11719 0.117188,0.11719 0.234375,0.11719 0.609375,0 0.609375,0.10546 0.609375,0.22265 0,0.082 -0.09375,0.4336 -0.140625,0.64453 l -0.292969,1.14844 c -0.117187,0.48047 -0.796875,3.19922 -0.84375,3.41016 -0.05859,0.29297 -0.05859,0.5039 -0.05859,0.65625 0,1.21875 0.679687,1.85156 1.453125,1.85156 1.394531,0 2.824218,-1.78125 2.824218,-3.51563 0,-1.10156 -0.621093,-1.875 -1.511718,-1.875 -0.632813,0 -1.183594,0.51563 -1.417969,0.75 z m -0.761719,7.875 c -0.375,0 -0.796875,-0.29296 -0.796875,-1.21875 0,-0.39843 0.03516,-0.62109 0.246094,-1.46484 0.04687,-0.15234 0.234375,-0.91406 0.28125,-1.06641 0.02344,-0.10546 0.726563,-1.16015 1.535156,-1.16015 0.527344,0 0.773438,0.51562 0.773438,1.13672 0,0.57422 -0.339844,1.93359 -0.632813,2.55468 -0.304687,0.64454 -0.855468,1.21875 -1.40625,1.21875 z m 7.646485,-4.38281 c -0.234375,0 -0.339844,0 -0.503906,0.15235 -0.07031,0.0586 -0.199219,0.23437 -0.199219,0.42187 0,0.24609 0.175781,0.38672 0.398437,0.38672 0.292969,0 0.609375,-0.23438 0.609375,-0.71484 0,-0.57422 -0.550781,-1.01954 -1.371093,-1.01954 -1.570313,0 -3.128907,1.71094 -3.128907,3.41016 0,1.04297 0.644532,1.98047 1.863282,1.98047 1.628906,0 2.648437,-1.26563 2.648437,-1.41797 0,-0.0703 -0.07031,-0.12891 -0.117187,-0.12891 -0.03516,0 -0.04687,0.0117 -0.152344,0.11719 -0.761719,1.00781 -1.898438,1.19531 -2.355469,1.19531 -0.820312,0 -1.089844,-0.71484 -1.089844,-1.3125 0,-0.42187 0.199219,-1.58203 0.632813,-2.39062 0.316406,-0.5625 0.960937,-1.20703 1.710937,-1.20703 0.152344,0 0.808594,0.0234 1.054688,0.52734 z m 0,0"
         style="fill:#000000;fill-opacity:1;fill-rule:nonzero;stroke:none" />
      <path
         id="path26"
         d="m 50.603484,308.15405 c 0.164063,0 0.375,0 0.375,-0.22265 0,-0.22266 -0.199218,-0.22266 -0.375,-0.22266 h -7.042968 c -0.175782,0 -0.386719,0 -0.386719,0.21094 0,0.23437 0.199219,0.23437 0.386719,0.23437 z m 0,2.21485 c 0.164063,0 0.375,0 0.375,-0.21094 0,-0.23437 -0.199218,-0.23437 -0.375,-0.23437 h -7.042968 c -0.175782,0 -0.386719,0 -0.386719,0.22265 0,0.22266 0.199219,0.22266 0.386719,0.22266 z m 7.916016,-2.66016 c 0.597656,-0.32812 1.464844,-0.8789 1.464844,-1.875 0,-1.04297 -0.996094,-1.75781 -2.097656,-1.75781 -1.183594,0 -2.121094,0.86719 -2.121094,1.95703 0,0.41016 0.128906,0.80859 0.457031,1.21875 0.128906,0.15234 0.140625,0.16406 0.984375,0.75 -1.160156,0.53906 -1.757812,1.34766 -1.757812,2.21484 0,1.26563 1.207031,2.05079 2.425781,2.05079 1.324219,0 2.4375,-0.97266 2.4375,-2.22657 0,-1.21875 -0.855469,-1.75781 -1.792969,-2.33203 z m -1.628906,-1.07812 c -0.152344,-0.10547 -0.632813,-0.42188 -0.632813,-1.00782 0,-0.77343 0.820313,-1.26562 1.617188,-1.26562 0.855469,0 1.628906,0.62109 1.628906,1.48828 0,0.72656 -0.527344,1.3125 -1.21875,1.6875 z m 0.5625,1.54687 1.453125,0.9375 c 0.304687,0.19922 0.855469,0.57422 0.855469,1.30078 0,0.91407 -0.914063,1.53516 -1.875,1.53516 -1.019532,0 -1.886719,-0.73828 -1.886719,-1.73438 0,-0.9375 0.679687,-1.6875 1.453125,-2.03906 z m 0,0"
         style="fill:#000000;fill-opacity:1;fill-rule:nonzero;stroke:none" />
      <path
         id="path27"
         d="m 63.007781,311.44702 c 0,-0.35156 -0.292968,-0.58593 -0.574218,-0.58593 -0.351563,0 -0.585938,0.29296 -0.585938,0.57421 0,0.35157 0.28125,0.58594 0.574219,0.58594 0.339844,0 0.585937,-0.28125 0.585937,-0.57422 z m 0,0"
         style="fill:#000000;fill-opacity:1;fill-rule:nonzero;stroke:none" />
      <path
         id="path28"
         d="m 72.576141,369.1648 c -0.08203,0.35156 -0.128907,0.44531 -0.621094,0.44531 -0.140625,0 -0.269531,0 -0.269531,0.23437 0,0.0234 0.01172,0.11719 0.152343,0.11719 0.152344,0 0.316407,-0.0234 0.46875,-0.0234 h 0.515625 c 0.257813,0 0.867188,0.0234 1.113282,0.0234 0.07031,0 0.222656,0 0.222656,-0.21094 0,-0.14062 -0.09375,-0.14062 -0.292969,-0.14062 -0.550781,0 -0.585937,-0.082 -0.585937,-0.17578 0,-0.14063 0.539062,-2.20313 0.609375,-2.47266 0.128906,0.32813 0.457031,0.79688 1.078125,0.79688 1.347656,0 2.8125,-1.75782 2.8125,-3.51563 0,-1.10156 -0.621094,-1.875 -1.523438,-1.875 -0.761719,0 -1.40625,0.73828 -1.546875,0.91406 -0.09375,-0.59765 -0.550781,-0.91406 -1.03125,-0.91406 -0.351562,0 -0.621094,0.16406 -0.855469,0.6211 -0.210937,0.43359 -0.375,1.16015 -0.375,1.20703 0,0.0469 0.04687,0.10547 0.128907,0.10547 0.09375,0 0.105468,-0.0117 0.175781,-0.28125 0.175781,-0.70313 0.410156,-1.40625 0.890625,-1.40625 0.269531,0 0.363281,0.1875 0.363281,0.53906 0,0.29297 -0.03516,0.41015 -0.08203,0.63281 z m 2.0625,-5.25 c 0.08203,-0.33985 0.421875,-0.67969 0.609375,-0.85547 0.140625,-0.11719 0.527343,-0.44531 0.984375,-0.44531 0.527343,0 0.761718,0.51562 0.761718,1.13671 0,0.57422 -0.328125,1.9336 -0.632812,2.55469 -0.292969,0.64453 -0.84375,1.21875 -1.394531,1.21875 -0.808594,0 -0.949219,-1.03125 -0.949219,-1.07812 0,-0.0352 0.02344,-0.12891 0.03516,-0.1875 z m 0,0"
         style="fill:#000000;fill-opacity:1;fill-rule:nonzero;stroke:none" />
      <path
         id="path29"
         d="m 90.359344,362.48511 c 0,-0.0586 -0.04687,-0.10547 -0.105469,-0.10547 -0.105469,0 -0.5625,0.43359 -0.796875,0.85547 -0.210937,-0.53906 -0.585937,-0.86719 -1.101562,-0.86719 -1.347657,0 -2.800782,1.7461 -2.800782,3.51563 0,1.18359 0.691407,1.875 1.5,1.875 0.632813,0 1.160157,-0.48047 1.417969,-0.75 l 0.01172,0.0117 -0.457031,1.79296 -0.105469,0.4336 c -0.105469,0.35156 -0.292969,0.35156 -0.855469,0.36328 -0.128906,0 -0.246094,0 -0.246094,0.23437 0,0.082 0.07031,0.11719 0.152344,0.11719 0.164063,0 0.386719,-0.0234 0.550781,-0.0234 h 1.21875 c 0.175782,0 0.386719,0.0234 0.5625,0.0234 0.07031,0 0.210938,0 0.210938,-0.22265 0,-0.12891 -0.09375,-0.12891 -0.269531,-0.12891 -0.5625,0 -0.597657,-0.082 -0.597657,-0.17578 0,-0.0586 0.01172,-0.0703 0.04687,-0.22266 z m -1.6875,3.73828 c -0.05859,0.19922 -0.05859,0.22266 -0.222656,0.44531 -0.269532,0.33985 -0.796875,0.85547 -1.359375,0.85547 -0.480469,0 -0.761719,-0.44531 -0.761719,-1.14844 0,-0.65625 0.375,-1.99218 0.597656,-2.49609 0.410156,-0.84375 0.972656,-1.26562 1.429688,-1.26562 0.796875,0 0.949218,0.97265 0.949218,1.0664 0,0.0117 -0.03516,0.17578 -0.04687,0.19922 z m 0,0"
         style="fill:#000000;fill-opacity:1;fill-rule:nonzero;stroke:none" />
      <path
         id="path30"
         d="m 102.51169,362.75464 c -0.375,0.0703 -0.5625,0.32813 -0.5625,0.59766 0,0.28125 0.22265,0.375 0.39844,0.375 0.32812,0 0.60937,-0.28125 0.60937,-0.64453 0,-0.375 -0.375,-0.71485 -0.97266,-0.71485 -0.48046,0 -1.03125,0.22266 -1.53515,0.94922 -0.082,-0.63281 -0.562502,-0.94922 -1.031252,-0.94922 -0.46875,0 -0.714844,0.36328 -0.855469,0.6211 -0.199219,0.43359 -0.375,1.14843 -0.375,1.20703 0,0.0469 0.04687,0.10547 0.128906,0.10547 0.09375,0 0.105469,-0.0117 0.175781,-0.28125 0.175782,-0.71485 0.410157,-1.40625 0.890625,-1.40625 0.28125,0 0.363282,0.19921 0.363282,0.53906 0,0.26953 -0.117188,0.73828 -0.199219,1.10156 L 99.207,365.5437 c -0.04687,0.23438 -0.175781,0.77344 -0.234375,0.98438 -0.08203,0.3164 -0.210937,0.8789 -0.210937,0.9375 0,0.16406 0.128906,0.29297 0.304687,0.29297 0.128906,0 0.363281,-0.082 0.433594,-0.31641 0.03516,-0.10547 0.480469,-1.91016 0.550781,-2.17969 0.0586,-0.25781 0.12891,-0.51562 0.1875,-0.77343 0.0469,-0.17579 0.0937,-0.36329 0.12891,-0.51563 0.0352,-0.10547 0.36328,-0.69141 0.65625,-0.96094 0.15234,-0.1289 0.45703,-0.39843 0.94922,-0.39843 0.1875,0 0.38671,0.0352 0.53906,0.14062 z m 0,0"
         style="fill:#000000;fill-opacity:1;fill-rule:nonzero;stroke:none" />
      <path
         id="path31"
         d="m 69.344695,389.58765 c -0.08203,0.35156 -0.128906,0.44531 -0.621093,0.44531 -0.140625,0 -0.269532,0 -0.269532,0.23438 0,0.0234 0.01172,0.11718 0.152344,0.11718 0.152344,0 0.316406,-0.0234 0.46875,-0.0234 h 0.515625 c 0.257813,0 0.867188,0.0234 1.113281,0.0234 0.07031,0 0.222657,0 0.222657,-0.21093 0,-0.14063 -0.09375,-0.14063 -0.292969,-0.14063 -0.550781,0 -0.585938,-0.082 -0.585938,-0.17578 0,-0.14063 0.539063,-2.20313 0.609375,-2.47266 0.128907,0.32813 0.457032,0.79688 1.078125,0.79688 1.347657,0 2.8125,-1.75781 2.8125,-3.51563 0,-1.10156 -0.621093,-1.875 -1.523437,-1.875 -0.761719,0 -1.40625,0.73828 -1.546875,0.91407 -0.09375,-0.59766 -0.550781,-0.91407 -1.03125,-0.91407 -0.351563,0 -0.621094,0.16407 -0.855469,0.6211 -0.210937,0.43359 -0.375,1.16015 -0.375,1.20703 0,0.0469 0.04687,0.10547 0.128906,0.10547 0.09375,0 0.105469,-0.0117 0.175782,-0.28125 0.175781,-0.70313 0.410156,-1.40625 0.890625,-1.40625 0.269531,0 0.363281,0.1875 0.363281,0.53906 0,0.29297 -0.03516,0.41016 -0.08203,0.63281 z m 2.0625,-5.25 c 0.08203,-0.33985 0.421875,-0.67969 0.609375,-0.85547 0.140625,-0.11719 0.527344,-0.44531 0.984375,-0.44531 0.527344,0 0.761719,0.51562 0.761719,1.13672 0,0.57421 -0.328125,1.93359 -0.632812,2.55468 -0.292969,0.64453 -0.84375,1.21875 -1.394532,1.21875 -0.808593,0 -0.949218,-1.03125 -0.949218,-1.07812 0,-0.0352 0.02344,-0.12891 0.03516,-0.1875 z m 8.569336,-1.42969 c 0,-0.0586 -0.04687,-0.10547 -0.105468,-0.10547 -0.105469,0 -0.5625,0.4336 -0.796875,0.85547 -0.210938,-0.53906 -0.585938,-0.86719 -1.101563,-0.86719 -1.347656,0 -2.800781,1.7461 -2.800781,3.51563 0,1.18359 0.691406,1.875 1.5,1.875 0.632812,0 1.160156,-0.48047 1.417969,-0.75 l 0.01172,0.0117 -0.457031,1.79297 -0.105469,0.43359 c -0.105468,0.35156 -0.292968,0.35156 -0.855468,0.36328 -0.128907,0 -0.246094,0 -0.246094,0.23438 0,0.082 0.07031,0.11718 0.152344,0.11718 0.164062,0 0.386718,-0.0234 0.550781,-0.0234 h 1.21875 c 0.175781,0 0.386719,0.0234 0.5625,0.0234 0.07031,0 0.210937,0 0.210937,-0.22265 0,-0.12891 -0.09375,-0.12891 -0.269531,-0.12891 -0.5625,0 -0.597656,-0.082 -0.597656,-0.17578 0,-0.0586 0.01172,-0.0703 0.04687,-0.22266 z m -1.6875,3.73828 c -0.05859,0.19922 -0.05859,0.22266 -0.222656,0.44531 -0.269531,0.33985 -0.796875,0.85547 -1.359375,0.85547 -0.480469,0 -0.761719,-0.44531 -0.761719,-1.14843 0,-0.65625 0.375,-1.99219 0.597657,-2.4961 0.410156,-0.84375 0.972656,-1.26562 1.429687,-1.26562 0.796875,0 0.949219,0.97265 0.949219,1.0664 0,0.0117 -0.03516,0.17578 -0.04687,0.19922 z m 6.688477,-3.46875 c -0.375,0.0703 -0.5625,0.32813 -0.5625,0.59766 0,0.28125 0.222656,0.375 0.398437,0.375 0.328125,0 0.609375,-0.28125 0.609375,-0.64453 0,-0.375 -0.375,-0.71485 -0.972656,-0.71485 -0.480469,0 -1.03125,0.22266 -1.535156,0.94922 -0.08203,-0.63281 -0.5625,-0.94922 -1.03125,-0.94922 -0.46875,0 -0.714844,0.36328 -0.855469,0.6211 -0.199219,0.43359 -0.375,1.14843 -0.375,1.20703 0,0.0469 0.04687,0.10547 0.128906,0.10547 0.09375,0 0.105469,-0.0117 0.175782,-0.28125 0.175781,-0.71485 0.410156,-1.40625 0.890625,-1.40625 0.28125,0 0.363281,0.19922 0.363281,0.53906 0,0.26953 -0.117188,0.73828 -0.199219,1.10156 l -0.339844,1.28906 c -0.04687,0.23438 -0.175781,0.77344 -0.234375,0.98438 -0.08203,0.31641 -0.210937,0.87891 -0.210937,0.9375 0,0.16406 0.128906,0.29297 0.304687,0.29297 0.128907,0 0.363282,-0.082 0.433594,-0.31641 0.03516,-0.10547 0.480469,-1.91015 0.550781,-2.17969 0.05859,-0.25781 0.128907,-0.51562 0.1875,-0.77343 0.04687,-0.17578 0.09375,-0.36328 0.128907,-0.51563 0.03516,-0.10547 0.363281,-0.6914 0.65625,-0.96094 0.152343,-0.1289 0.457031,-0.39843 0.949218,-0.39843 0.1875,0 0.386719,0.0351 0.539063,0.14062 z m 0,0"
         style="fill:#000000;fill-opacity:1;fill-rule:nonzero;stroke:none" />
    </g>
    <path
       id="path32"
       d="M 0,0 H 45.931"
       style="fill:none;stroke:#000000;stroke-width:0.478;stroke-linecap:butt;stroke-linejoin:miter;stroke-miterlimit:10;stroke-dasharray:none;stroke-opacity:1"
       transform="matrix(1.3333333,0,0,-1.3333333,347.272,580.28667)" />
    <g
       id="g32"
       aria-label="p+q+r&#10;=11.&#10;ZADANIE5.&#10;Symetralneramionrównoramiennegotrójk¡tarozwartok¡tnegodziel¡podstaw¦natrzyrówne&#10;cz¦±ci.Obliczmiaryk¡tówdanegotrójk¡ta.&#10;ZADANIE6.&#10;Sprawd¹,czyistniej¡liczbycaªkowitea,b,cspeªniaj¡cerównanie&#10;(9a−5b)(7b−3c)(5c−a)=20182019.&#10;Odpowied¹uzasadnij.&#10;ZADANIE7.&#10;Cyfr¡jedno±cipewnejliczbyczterocyfrowejjest5.Je»elit¦cyfr¦przeniesiemyzostatniego&#10;miejscanapierwsze,tootrzymamyliczb¦o2277wi¦ksz¡oddanej.Jakatoliczba?"
       transform="matrix(1.3333333,0,0,1.3333333,347.272,595.20667)">
      <path
         id="path33"
         d="m 0.51670312,1.5237109 c -0.0820312,0.3515625 -0.12890625,0.4453125 -0.62109375,0.4453125 -0.140625,0 -0.26953125,0 -0.26953125,0.234375 0,0.023437 0.0117188,0.1171875 0.15234375,0.1171875 0.15234375,0 0.31640625,-0.023437 0.46875,-0.023437 h 0.515625 c 0.25781253,0 0.86718753,0.023437 1.11328123,0.023437 0.070312,0 0.2226563,0 0.2226563,-0.2109375 0,-0.140625 -0.09375,-0.140625 -0.2929688,-0.140625 -0.5507812,0 -0.5859375,-0.082031 -0.5859375,-0.1757812 0,-0.140625 0.5390625,-2.20312501 0.609375,-2.47265626 0.1289063,0.328125 0.4570313,0.796875 1.078125,0.796875 1.3476563,0 2.8125,-1.75781254 2.8125,-3.51562504 0,-1.1015625 -0.6210937,-1.875 -1.5234375,-1.875 -0.7617187,0 -1.40625,0.7382813 -1.546875,0.9140625 -0.09375,-0.5976562 -0.5507812,-0.9140625 -1.03125,-0.9140625 -0.3515625,0 -0.62109373,0.1640625 -0.85546873,0.6210938 -0.2109375,0.4335937 -0.375,1.1601562 -0.375,1.2070312 0,0.046875 0.046875,0.1054688 0.12890625,0.1054688 0.09375,0 0.10546875,-0.011719 0.17578125,-0.28125 0.17578125,-0.703125 0.41015623,-1.40625 0.89062503,-1.40625 0.2695312,0 0.3632812,0.1875 0.3632812,0.5390625 0,0.2929687 -0.035156,0.4101562 -0.082031,0.6328125 z m 2.06249998,-5.25 c 0.082031,-0.3398437 0.421875,-0.6796875 0.609375,-0.8554687 0.140625,-0.1171875 0.5273438,-0.4453125 0.984375,-0.4453125 0.5273438,0 0.7617188,0.515625 0.7617188,1.1367187 0,0.5742188 -0.328125,1.9335938 -0.6328125,2.5546875 -0.2929688,0.64453129 -0.84375,1.21875004 -1.3945313,1.21875004 -0.8085937,0 -0.9492187,-1.03125004 -0.9492187,-1.07812504 0,-0.035156 0.023437,-0.1289062 0.035156,-0.1875 z m 0,0"
         style="fill:#000000;fill-opacity:1;fill-rule:nonzero;stroke:none" />
      <path
         id="path34"
         d="m 13.301859,-2.7653516 h 3.304688 c 0.164062,0 0.375,0 0.375,-0.2109375 0,-0.2226562 -0.199219,-0.2226562 -0.375,-0.2226562 h -3.304688 v -3.3046875 c 0,-0.1640625 0,-0.3867188 -0.210937,-0.3867188 -0.234375,0 -0.234375,0.2109375 -0.234375,0.3867188 v 3.3046875 H 9.5635781 c -0.1757812,0 -0.3867187,0 -0.3867187,0.2109375 0,0.2226562 0.1992187,0.2226562 0.3867187,0.2226562 h 3.2929689 v 3.30468754 c 0,0.1640625 0,0.38671875 0.222656,0.38671875 0.222656,0 0.222656,-0.2109375 0.222656,-0.38671875 z m 0,0"
         style="fill:#000000;fill-opacity:1;fill-rule:nonzero;stroke:none" />
      <path
         id="path35"
         d="m 25.565531,-5.1559766 c 0,-0.058594 -0.04687,-0.1054687 -0.105469,-0.1054687 -0.105468,0 -0.5625,0.4335937 -0.796875,0.8554687 -0.210937,-0.5390625 -0.585937,-0.8671875 -1.101562,-0.8671875 -1.347656,0 -2.800781,1.7460938 -2.800781,3.515625 0,1.18359379 0.691406,1.87500004 1.5,1.87500004 0.632812,0 1.160156,-0.48046875 1.417968,-0.75 l 0.01172,0.0117188 L 23.2335,1.1721484 23.128031,1.6057422 c -0.105469,0.3515625 -0.292969,0.3515625 -0.855469,0.3632812 -0.128906,0 -0.246093,0 -0.246093,0.234375 0,0.082031 0.07031,0.1171875 0.152343,0.1171875 0.164063,0 0.386719,-0.023437 0.550782,-0.023437 h 1.21875 c 0.175781,0 0.386718,0.023437 0.5625,0.023437 0.07031,0 0.210937,0 0.210937,-0.2226562 0,-0.1289063 -0.09375,-0.1289063 -0.269531,-0.1289063 -0.5625,0 -0.597656,-0.082031 -0.597656,-0.1757812 0,-0.058594 0.01172,-0.070312 0.04687,-0.2226563 z m -1.6875,3.7382813 c -0.05859,0.1992187 -0.05859,0.2226562 -0.222656,0.44531249 -0.269531,0.33984375 -0.796875,0.85546875 -1.359375,0.85546875 -0.480469,0 -0.761719,-0.4453125 -0.761719,-1.14843754 0,-0.65625 0.375,-1.9921875 0.597656,-2.4960937 0.410157,-0.84375 0.972657,-1.265625 1.429688,-1.265625 0.796875,0 0.949219,0.9726562 0.949219,1.0664062 0,0.011719 -0.03516,0.1757813 -0.04687,0.1992188 z m 0,0"
         style="fill:#000000;fill-opacity:1;fill-rule:nonzero;stroke:none" />
      <path
         id="path36"
         d="m 33.337992,-2.7653516 h 3.304688 c 0.164062,0 0.375,0 0.375,-0.2109375 0,-0.2226562 -0.199219,-0.2226562 -0.375,-0.2226562 h -3.304688 v -3.3046875 c 0,-0.1640625 0,-0.3867188 -0.210937,-0.3867188 -0.234375,0 -0.234375,0.2109375 -0.234375,0.3867188 v 3.3046875 h -3.292969 c -0.175781,0 -0.386719,0 -0.386719,0.2109375 0,0.2226562 0.199219,0.2226562 0.386719,0.2226562 h 3.292969 v 3.30468754 c 0,0.1640625 0,0.38671875 0.222656,0.38671875 0.222656,0 0.222656,-0.2109375 0.222656,-0.38671875 z m 0,0"
         style="fill:#000000;fill-opacity:1;fill-rule:nonzero;stroke:none" />
      <path
         id="path37"
         d="m 44.9835,-4.8864453 c -0.375,0.070312 -0.5625,0.328125 -0.5625,0.5976562 0,0.28125 0.222656,0.375 0.398437,0.375 0.328125,0 0.609375,-0.28125 0.609375,-0.6445312 0,-0.375 -0.375,-0.7148438 -0.972656,-0.7148438 -0.480469,0 -1.03125,0.2226563 -1.535156,0.9492188 -0.08203,-0.6328125 -0.5625,-0.9492188 -1.03125,-0.9492188 -0.46875,0 -0.714844,0.3632813 -0.855469,0.6210938 -0.199219,0.4335937 -0.375,1.1484375 -0.375,1.2070312 0,0.046875 0.04687,0.1054688 0.128906,0.1054688 0.09375,0 0.105469,-0.011719 0.175782,-0.28125 0.175781,-0.7148438 0.410156,-1.40625 0.890625,-1.40625 0.28125,0 0.363281,0.1992187 0.363281,0.5390625 0,0.2695312 -0.117188,0.7382812 -0.199219,1.1015625 l -0.339844,1.2890625 c -0.04687,0.234375 -0.175781,0.7734375 -0.234375,0.984375 -0.08203,0.31640624 -0.210937,0.87890624 -0.210937,0.93749999 0,0.1640625 0.128906,0.29296875 0.304687,0.29296875 0.128907,0 0.363282,-0.08203125 0.433594,-0.31640625 0.03516,-0.10546875 0.480469,-1.91015629 0.550781,-2.17968749 0.05859,-0.2578125 0.128907,-0.515625 0.1875,-0.7734375 0.04687,-0.1757813 0.09375,-0.3632813 0.128907,-0.515625 0.03516,-0.1054688 0.363281,-0.6914063 0.65625,-0.9609375 0.152343,-0.1289063 0.457031,-0.3984375 0.949218,-0.3984375 0.1875,0 0.386719,0.035156 0.539063,0.140625 z m 0,0"
         style="fill:#000000;fill-opacity:1;fill-rule:nonzero;stroke:none" />
      <path
         id="path38"
         d="m 58.521586,-12.067109 c 0.164062,0 0.375,0 0.375,-0.222657 0,-0.222656 -0.199219,-0.222656 -0.375,-0.222656 h -7.042969 c -0.175781,0 -0.386719,0 -0.386719,0.210938 0,0.234375 0.199219,0.234375 0.386719,0.234375 z m 0,2.2148434 c 0.164062,0 0.375,0 0.375,-0.2109374 0,-0.234375 -0.199219,-0.234375 -0.375,-0.234375 h -7.042969 c -0.175781,0 -0.386719,0 -0.386719,0.222656 0,0.2226564 0.199219,0.2226564 0.386719,0.2226564 z m 7.798828,-6.0117184 c 0,-0.269532 0,-0.28125 -0.246094,-0.28125 -0.28125,0.316406 -0.878906,0.761718 -2.109375,0.761718 v 0.351563 c 0.269532,0 0.867188,0 1.523438,-0.316406 v 6.2226559 c 0,0.4335937 -0.03516,0.5742187 -1.078125,0.5742187 h -0.375 v 0.3515625 c 0.316406,-0.023437 1.476562,-0.023437 1.875,-0.023437 0.398437,0 1.546875,0 1.863281,0.023437 v -0.3515625 h -0.363281 c -1.054688,0 -1.089844,-0.140625 -1.089844,-0.5742187 z m 5.853516,0 c 0,-0.269532 0,-0.28125 -0.246094,-0.28125 -0.28125,0.316406 -0.878906,0.761718 -2.109375,0.761718 v 0.351563 c 0.269531,0 0.867187,0 1.523437,-0.316406 v 6.2226559 c 0,0.4335937 -0.03516,0.5742187 -1.078125,0.5742187 h -0.375 v 0.3515625 c 0.316407,-0.023437 1.476563,-0.023437 1.875,-0.023437 0.398438,0 1.546875,0 1.863282,0.023437 v -0.3515625 h -0.363282 c -1.054687,0 -1.089843,-0.140625 -1.089843,-0.5742187 z m 0,0"
         style="fill:#000000;fill-opacity:1;fill-rule:nonzero;stroke:none" />
      <path
         id="path39"
         d="m 76.782328,-8.7741406 c 0,-0.3515625 -0.292969,-0.5859375 -0.574219,-0.5859375 -0.351562,0 -0.585937,0.2929687 -0.585937,0.5742187 0,0.3515625 0.28125,0.5859375 0.574219,0.5859375 0.339843,0 0.585937,-0.28125 0.585937,-0.5742187 z m 0,0"
         style="fill:#000000;fill-opacity:1;fill-rule:nonzero;stroke:none" />
      <path
         id="path40"
         d="m -2.5770469,108.23758 c -0.058594,0.19922 -0.058594,0.22265 -0.2226562,0.44531 -0.2695313,0.33984 -0.796875,0.85547 -1.359375,0.85547 -0.4804688,0 -0.7617188,-0.44531 -0.7617188,-1.14844 0,-0.65625 0.375,-1.99219 0.5976563,-2.49609 0.4101562,-0.84375 0.9726562,-1.26563 1.4414062,-1.26563 0.7851563,0 0.9375,0.97266 0.9375,1.06641 0,0.0117 -0.035156,0.17578 -0.046875,0.19922 z m 0.7617188,-3.07031 c -0.1289063,-0.30469 -0.4453125,-0.78516 -1.0664063,-0.78516 -1.359375,0 -2.8125,1.74609 -2.8125,3.51562 0,1.1836 0.6914063,1.875 1.5,1.875 0.65625,0 1.21875,-0.51562 1.5585938,-0.90234 0.1171875,0.70313 0.6796875,0.90234 1.0429687,0.90234 0.3515625,0 0.64453127,-0.21093 0.85546877,-0.64453 0.1875,-0.41015 0.36328125,-1.13672 0.36328125,-1.18359 0,-0.0586 -0.046875,-0.10547 -0.1171875,-0.10547 -0.1171875,0 -0.12890625,0.0586 -0.17578125,0.23438 -0.17578125,0.71484 -0.39843747,1.46484 -0.89062497,1.46484 -0.3515625,0 -0.375,-0.31641 -0.375,-0.55078 0,-0.28125 0.035156,-0.41016 0.140625,-0.87891 0.082031,-0.29297 0.1523437,-0.5625 0.2460937,-0.90234 0.4335938,-1.79297 0.55078127,-2.22656 0.55078127,-2.29688 0,-0.16406 -0.14062497,-0.29297 -0.31640627,-0.29297 -0.375,0 -0.4804687,0.41016 -0.5039062,0.55079 z m 0,0"
         style="fill:#000000;fill-opacity:1;fill-rule:nonzero;stroke:none" />
      <path
         id="path41"
         d="m 9.8858437,101.66336 c 0.011719,-0.0469 0.035156,-0.12891 0.035156,-0.1875 0,-0.11719 -0.1289063,-0.11719 -0.1523438,-0.11719 -0.011719,0 -0.4335937,0.0352 -0.65625,0.0586 -0.1992187,0.0117 -0.375,0.0352 -0.5976562,0.0469 -0.28125,0.0234 -0.3632813,0.0352 -0.3632813,0.25781 0,0.11719 0.1171875,0.11719 0.234375,0.11719 0.609375,0 0.609375,0.10547 0.609375,0.22266 0,0.082 -0.09375,0.43359 -0.140625,0.64453 l -0.2929687,1.14844 c -0.1171875,0.48046 -0.796875,3.19921 -0.84375,3.41015 -0.058594,0.29297 -0.058594,0.50391 -0.058594,0.65625 0,1.21875 0.6796875,1.85156 1.453125,1.85156 1.3945313,0 2.8242193,-1.78125 2.8242193,-3.51562 0,-1.10156 -0.621094,-1.875 -1.511719,-1.875 -0.6328128,0 -1.183594,0.51562 -1.417969,0.75 z m -0.7617187,7.875 c -0.375,0 -0.796875,-0.29297 -0.796875,-1.21875 0,-0.39844 0.035156,-0.62109 0.2460937,-1.46484 0.046875,-0.15235 0.234375,-0.91407 0.28125,-1.06641 0.023437,-0.10547 0.7265625,-1.16016 1.5351563,-1.16016 0.527344,0 0.773437,0.51563 0.773437,1.13672 0,0.57422 -0.339843,1.9336 -0.632812,2.55469 -0.304688,0.64453 -0.8554688,1.21875 -1.40625,1.21875 z m 0,0"
         style="fill:#000000;fill-opacity:1;fill-rule:nonzero;stroke:none" />
      <path
         id="path42"
         d="m 23.924906,105.15555 c -0.234375,0 -0.339844,0 -0.503906,0.15234 -0.07031,0.0586 -0.199219,0.23438 -0.199219,0.42188 0,0.24609 0.175781,0.38671 0.398438,0.38671 0.292968,0 0.609375,-0.23437 0.609375,-0.71484 0,-0.57422 -0.550782,-1.01953 -1.371094,-1.01953 -1.570313,0 -3.128906,1.71094 -3.128906,3.41016 0,1.04296 0.644531,1.98046 1.863281,1.98046 1.628906,0 2.648437,-1.26562 2.648437,-1.41796 0,-0.0703 -0.07031,-0.12891 -0.117187,-0.12891 -0.03516,0 -0.04687,0.0117 -0.152344,0.11719 -0.761719,1.00781 -1.898437,1.19531 -2.355469,1.19531 -0.820312,0 -1.089843,-0.71484 -1.089843,-1.3125 0,-0.42188 0.199218,-1.58203 0.632812,-2.39063 0.316406,-0.5625 0.960938,-1.20703 1.710938,-1.20703 0.152343,0 0.808593,0.0234 1.054687,0.52735 z m 0,0"
         style="fill:#000000;fill-opacity:1;fill-rule:nonzero;stroke:none" />
      <path
         id="path43"
         d="m -57.069234,138.96414 c 0,-0.0352 0,-0.0586 -0.210938,-0.26953 -1.195312,-1.20703 -1.863281,-3.17578 -1.863281,-5.61328 0,-2.32031 0.5625,-4.3125 1.945312,-5.73047 0.128907,-0.10547 0.128907,-0.12891 0.128907,-0.16406 0,-0.0703 -0.07031,-0.0937 -0.117188,-0.0937 -0.152344,0 -1.136719,0.85547 -1.722656,2.02734 -0.609375,1.20703 -0.878906,2.49609 -0.878906,3.96094 0,1.0664 0.164062,2.48437 0.785156,3.76172 0.703125,1.4414 1.6875,2.21484 1.816406,2.21484 0.04687,0 0.117188,-0.0234 0.117188,-0.0937 z m 5.033203,-6.38672 c 0,2.82422 -1.253907,3.41016 -1.96875,3.41016 -0.28125,0 -0.925782,-0.0352 -1.21875,-0.45703 h 0.07031 c 0.08203,0.0234 0.515625,-0.0469 0.515625,-0.49219 0,-0.25781 -0.175781,-0.49219 -0.492187,-0.49219 -0.304688,0 -0.503907,0.21094 -0.503907,0.51563 0,0.75 0.597657,1.24218 1.640625,1.24218 1.5,0 2.941407,-1.58203 2.941407,-4.18359 0,-3.21094 -1.335938,-4.00781 -2.390625,-4.00781 -1.3125,0 -2.472657,1.10156 -2.472657,2.67187 0,1.58203 1.113282,2.66016 2.308594,2.66016 0.878906,0 1.335938,-0.64453 1.570313,-1.25391 z m -1.523438,0.6211 c -0.75,0 -1.078125,-0.60938 -1.183594,-0.83204 -0.199218,-0.45703 -0.199218,-1.03125 -0.199218,-1.57031 0,-0.66797 0,-1.24219 0.316406,-1.73437 0.210937,-0.31641 0.539062,-0.66797 1.183594,-0.66797 0.679687,0 1.03125,0.59765 1.148437,0.8789 0.234375,0.58594 0.234375,1.59375 0.234375,1.78125 0,0.9961 -0.445312,2.14454 -1.5,2.14454 z m 0,0"
         style="fill:#000000;fill-opacity:1;fill-rule:nonzero;stroke:none" />
      <path
         id="path44"
         d="m -46.955953,134.63992 c -0.05859,0.19922 -0.05859,0.22266 -0.222656,0.44531 -0.269532,0.33985 -0.796875,0.85547 -1.359375,0.85547 -0.480469,0 -0.761719,-0.44531 -0.761719,-1.14843 0,-0.65625 0.375,-1.99219 0.597656,-2.4961 0.410156,-0.84375 0.972656,-1.26562 1.441406,-1.26562 0.785157,0 0.9375,0.97265 0.9375,1.0664 0,0.0117 -0.03516,0.17578 -0.04687,0.19922 z m 0.761719,-3.07031 c -0.128907,-0.30469 -0.445313,-0.78516 -1.066407,-0.78516 -1.359375,0 -2.8125,1.7461 -2.8125,3.51563 0,1.18359 0.691407,1.875 1.5,1.875 0.65625,0 1.21875,-0.51563 1.558594,-0.90235 0.117188,0.70313 0.679688,0.90235 1.042969,0.90235 0.351562,0 0.644531,-0.21094 0.855469,-0.64453 0.1875,-0.41016 0.363281,-1.13672 0.363281,-1.1836 0,-0.0586 -0.04687,-0.10547 -0.117188,-0.10547 -0.117187,0 -0.128906,0.0586 -0.175781,0.23438 -0.175781,0.71484 -0.398437,1.46484 -0.890625,1.46484 -0.351562,0 -0.375,-0.3164 -0.375,-0.55078 0,-0.28125 0.03516,-0.41015 0.140625,-0.8789 0.08203,-0.29297 0.152344,-0.5625 0.246094,-0.90235 0.433594,-1.79297 0.550781,-2.22656 0.550781,-2.29687 0,-0.16407 -0.140625,-0.29297 -0.316406,-0.29297 -0.375,0 -0.480469,0.41015 -0.503906,0.55078 z m 0,0"
         style="fill:#000000;fill-opacity:1;fill-rule:nonzero;stroke:none" />
      <path
         id="path45"
         d="m -33.877828,133.30398 c 0.210937,0 0.421875,0 0.421875,-0.23437 0,-0.23438 -0.210938,-0.23438 -0.421875,-0.23438 h -6.46875 c -0.199219,0 -0.410156,0 -0.410156,0.23438 0,0.23437 0.210937,0.23437 0.410156,0.23437 z m 0,0"
         style="fill:#000000;fill-opacity:1;fill-rule:nonzero;stroke:none" />
      <path
         id="path46"
         d="m -28.261617,129.21414 c 0.503906,0.16406 0.925781,0.17578 1.054687,0.17578 1.359375,0 2.214844,-0.99609 2.214844,-1.16015 0,-0.0469 -0.02344,-0.10547 -0.09375,-0.10547 -0.02344,0 -0.04687,0 -0.152344,0.0469 -0.667968,0.28125 -1.242187,0.31641 -1.558593,0.31641 -0.785157,0 -1.347657,-0.23438 -1.582032,-0.32813 -0.08203,-0.0351 -0.105468,-0.0351 -0.117187,-0.0351 -0.09375,0 -0.09375,0.0703 -0.09375,0.25781 v 3.55078 c 0,0.21094 0,0.29297 0.140625,0.29297 0.05859,0 0.07031,-0.0117 0.199219,-0.16406 0.328125,-0.49219 0.890625,-0.77344 1.488281,-0.77344 0.632812,0 0.949219,0.58594 1.042969,0.78516 0.199218,0.46875 0.210937,1.05468 0.210937,1.51171 0,0.45704 0,1.13672 -0.328125,1.67579 -0.269531,0.42187 -0.738281,0.72656 -1.253906,0.72656 -0.796875,0 -1.570313,-0.53906 -1.78125,-1.40625 0.05859,0.0234 0.128906,0.0351 0.1875,0.0351 0.199219,0 0.527344,-0.1289 0.527344,-0.52734 0,-0.33984 -0.234375,-0.52734 -0.527344,-0.52734 -0.210938,0 -0.527344,0.10547 -0.527344,0.57422 0,1.00781 0.808594,2.16796 2.144531,2.16796 1.347657,0 2.53125,-1.125 2.53125,-2.64843 0,-1.41797 -0.960937,-2.60157 -2.214843,-2.60157 -0.679688,0 -1.207032,0.29297 -1.511719,0.63282 z m 0,0"
         style="fill:#000000;fill-opacity:1;fill-rule:nonzero;stroke:none" />
      <path
         id="path47"
         d="m -21.180563,128.0657 c 0.01172,-0.0469 0.03516,-0.1289 0.03516,-0.1875 0,-0.11718 -0.128907,-0.11718 -0.152344,-0.11718 -0.01172,0 -0.433594,0.0352 -0.65625,0.0586 -0.199219,0.0117 -0.375,0.0352 -0.597656,0.0469 -0.28125,0.0234 -0.363282,0.0352 -0.363282,0.25782 0,0.11718 0.117188,0.11718 0.234375,0.11718 0.609375,0 0.609375,0.10547 0.609375,0.22266 0,0.082 -0.09375,0.43359 -0.140625,0.64453 l -0.292968,1.14844 c -0.117188,0.48047 -0.796875,3.19922 -0.84375,3.41016 -0.05859,0.29296 -0.05859,0.5039 -0.05859,0.65625 0,1.21875 0.679687,1.85156 1.453125,1.85156 1.394531,0 2.824219,-1.78125 2.824219,-3.51563 0,-1.10156 -0.621094,-1.875 -1.511719,-1.875 -0.632813,0 -1.183594,0.51563 -1.417969,0.75 z m -0.761718,7.875 c -0.375,0 -0.796875,-0.29297 -0.796875,-1.21875 0,-0.39843 0.03516,-0.62109 0.246093,-1.46484 0.04687,-0.15234 0.234375,-0.91406 0.28125,-1.06641 0.02344,-0.10547 0.726563,-1.16015 1.535157,-1.16015 0.527343,0 0.773437,0.51562 0.773437,1.13672 0,0.57421 -0.339844,1.93359 -0.632812,2.55468 -0.304688,0.64453 -0.855469,1.21875 -1.40625,1.21875 z m 0,0"
         style="fill:#000000;fill-opacity:1;fill-rule:nonzero;stroke:none" />
      <path
         id="path48"
         d="m -15.593648,133.08133 c 0,-0.91406 -0.128907,-2.39063 -0.796875,-3.77344 -0.703125,-1.44141 -1.675782,-2.21484 -1.816407,-2.21484 -0.04687,0 -0.105468,0.0234 -0.105468,0.0937 0,0.0352 0,0.0586 0.199218,0.26953 1.195313,1.20703 1.875,3.17578 1.875,5.61328 0,2.32031 -0.5625,4.3125 -1.957031,5.73047 -0.117187,0.10547 -0.117187,0.1289 -0.117187,0.16406 0,0.0703 0.05859,0.0937 0.105468,0.0937 0.164063,0 1.136719,-0.85547 1.722657,-2.02734 0.609375,-1.21875 0.890625,-2.51953 0.890625,-3.94922 z m 5.068359,5.88281 c 0,-0.0352 0,-0.0586 -0.210938,-0.26953 -1.195312,-1.20703 -1.863281,-3.17578 -1.863281,-5.61328 0,-2.32031 0.5625,-4.3125 1.945313,-5.73047 0.128906,-0.10547 0.128906,-0.12891 0.128906,-0.16406 0,-0.0703 -0.07031,-0.0937 -0.117188,-0.0937 -0.152343,0 -1.136718,0.85547 -1.722656,2.02734 -0.609375,1.20703 -0.878906,2.49609 -0.878906,3.96094 0,1.0664 0.164062,2.48437 0.785156,3.76172 0.703125,1.4414 1.6875,2.21484 1.816406,2.21484 0.04687,0 0.117188,-0.0234 0.117188,-0.0937 z m 6.3457031,-10.32422 v -0.28125 h -2.8828125 c -1.453125,0 -1.4765625,-0.15234 -1.5234375,-0.38672 h -0.2578125 l -0.375,2.39063 h 0.2695312 c 0.035156,-0.21094 0.140625,-0.94922 0.2929688,-1.07813 0.09375,-0.0703 0.9960937,-0.0703 1.1601562,-0.0703 h 2.53125 l -1.265625,1.81641 c -0.3164062,0.45703 -1.5234375,2.42578 -1.5234375,4.66406 0,0.14062 0,0.60937 0.4804688,0.60937 0.5039062,0 0.5039062,-0.45703 0.5039062,-0.62109 v -0.59766 c 0,-1.78125 0.2929688,-3.16406 0.8554688,-3.96093 z m 0,0"
         style="fill:#000000;fill-opacity:1;fill-rule:nonzero;stroke:none" />
      <path
         id="path49"
         d="m -1.2440391,128.0657 c 0.011719,-0.0469 0.035156,-0.1289 0.035156,-0.1875 0,-0.11718 -0.1289063,-0.11718 -0.1523438,-0.11718 -0.011719,0 -0.4335937,0.0352 -0.65625,0.0586 -0.1992187,0.0117 -0.375,0.0352 -0.5976562,0.0469 -0.28125,0.0234 -0.3632813,0.0352 -0.3632813,0.25782 0,0.11718 0.1171875,0.11718 0.234375,0.11718 0.609375,0 0.609375,0.10547 0.609375,0.22266 0,0.082 -0.09375,0.43359 -0.140625,0.64453 l -0.2929687,1.14844 c -0.1171875,0.48047 -0.796875,3.19922 -0.84375,3.41016 -0.058594,0.29296 -0.058594,0.5039 -0.058594,0.65625 0,1.21875 0.6796875,1.85156 1.453125,1.85156 1.39453129,0 2.82421879,-1.78125 2.82421879,-3.51563 0,-1.10156 -0.62109375,-1.875 -1.51171875,-1.875 -0.63281254,0 -1.18359374,0.51563 -1.41796874,0.75 z m -0.7617187,7.875 c -0.375,0 -0.796875,-0.29297 -0.796875,-1.21875 0,-0.39843 0.035156,-0.62109 0.2460937,-1.46484 0.046875,-0.15234 0.234375,-0.91406 0.28125,-1.06641 0.023437,-0.10547 0.7265625,-1.16015 1.53515629,-1.16015 0.52734375,0 0.7734375,0.51562 0.7734375,1.13672 0,0.57421 -0.33984375,1.93359 -0.6328125,2.55468 -0.3046875,0.64453 -0.85546879,1.21875 -1.40624999,1.21875 z m 0,0"
         style="fill:#000000;fill-opacity:1;fill-rule:nonzero;stroke:none" />
      <path
         id="path50"
         d="m 11.497172,133.30398 c 0.210937,0 0.421875,0 0.421875,-0.23437 0,-0.23438 -0.210938,-0.23438 -0.421875,-0.23438 H 5.0284219 c -0.1992188,0 -0.4101563,0 -0.4101563,0.23438 0,0.23437 0.2109375,0.23437 0.4101563,0.23437 z m 0,0"
         style="fill:#000000;fill-opacity:1;fill-rule:nonzero;stroke:none" />
      <path
         id="path51"
         d="m 17.781352,131.76883 c -0.210938,0.0117 -0.257813,0.0234 -0.257813,0.1289 0,0.11719 0.05859,0.11719 0.28125,0.11719 h 0.550781 c 1.007813,0 1.464844,0.84375 1.464844,1.99219 0,1.55859 -0.808594,1.98047 -1.394531,1.98047 -0.574219,0 -1.558594,-0.28125 -1.898438,-1.06641 0.375,0.0586 0.726563,-0.15234 0.726563,-0.58594 0,-0.33984 -0.257813,-0.58593 -0.585938,-0.58593 -0.292968,0 -0.597656,0.16406 -0.597656,0.62109 0,1.06641 1.066406,1.93359 2.390625,1.93359 1.417969,0 2.472656,-1.07812 2.472656,-2.28515 0,-1.10156 -0.890625,-1.96875 -2.027343,-2.16797 1.03125,-0.30469 1.699218,-1.17188 1.699218,-2.10938 0,-0.9375 -0.972656,-1.6289 -2.132812,-1.6289 -1.195313,0 -2.085938,0.72656 -2.085938,1.59375 0,0.48047 0.375,0.57422 0.550782,0.57422 0.257812,0 0.539062,-0.17578 0.539062,-0.53907 0,-0.375 -0.28125,-0.53906 -0.550781,-0.53906 -0.07031,0 -0.09375,0 -0.128906,0.0117 0.457031,-0.82031 1.582031,-0.82031 1.640625,-0.82031 0.386718,0 1.171875,0.17578 1.171875,1.34765 0,0.23438 -0.03516,0.90235 -0.386719,1.41797 -0.351563,0.52735 -0.761719,0.5625 -1.089844,0.57422 z m 0,0"
         style="fill:#000000;fill-opacity:1;fill-rule:nonzero;stroke:none" />
      <path
         id="path52"
         d="m 26.107523,131.55789 c -0.234375,0 -0.339843,0 -0.503906,0.15234 -0.07031,0.0586 -0.199219,0.23438 -0.199219,0.42188 0,0.24609 0.175782,0.38672 0.398438,0.38672 0.292969,0 0.609375,-0.23438 0.609375,-0.71485 0,-0.57421 -0.550781,-1.01953 -1.371094,-1.01953 -1.570312,0 -3.128906,1.71094 -3.128906,3.41016 0,1.04297 0.644531,1.98047 1.863281,1.98047 1.628906,0 2.648438,-1.26563 2.648438,-1.41797 0,-0.0703 -0.07031,-0.12891 -0.117188,-0.12891 -0.03516,0 -0.04687,0.0117 -0.152344,0.11719 -0.761718,1.00781 -1.898437,1.19531 -2.355468,1.19531 -0.820313,0 -1.089844,-0.71484 -1.089844,-1.3125 0,-0.42187 0.199219,-1.58203 0.632812,-2.39062 0.316407,-0.5625 0.960938,-1.20703 1.710938,-1.20703 0.152344,0 0.808594,0.0234 1.054687,0.52734 z m 0,0"
         style="fill:#000000;fill-opacity:1;fill-rule:nonzero;stroke:none" />
      <path
         id="path53"
         d="m 29.842875,133.08133 c 0,-0.91406 -0.128906,-2.39063 -0.796875,-3.77344 -0.703125,-1.44141 -1.675781,-2.21484 -1.816406,-2.21484 -0.04687,0 -0.105469,0.0234 -0.105469,0.0937 0,0.0352 0,0.0586 0.199219,0.26953 1.195312,1.20703 1.875,3.17578 1.875,5.61328 0,2.32031 -0.5625,4.3125 -1.957032,5.73047 -0.117187,0.10547 -0.117187,0.1289 -0.117187,0.16406 0,0.0703 0.05859,0.0937 0.105469,0.0937 0.164062,0 1.136718,-0.85547 1.722656,-2.02734 0.609375,-1.21875 0.890625,-2.51953 0.890625,-3.94922 z m 5.068359,5.88281 c 0,-0.0352 0,-0.0586 -0.210937,-0.26953 -1.195313,-1.20703 -1.863281,-3.17578 -1.863281,-5.61328 0,-2.32031 0.5625,-4.3125 1.945312,-5.73047 0.128906,-0.10547 0.128906,-0.12891 0.128906,-0.16406 0,-0.0703 -0.07031,-0.0937 -0.117187,-0.0937 -0.152344,0 -1.136719,0.85547 -1.722656,2.02734 -0.609375,1.20703 -0.878907,2.49609 -0.878907,3.96094 0,1.0664 0.164063,2.48437 0.785157,3.76172 0.703125,1.4414 1.6875,2.21484 1.816406,2.21484 0.04687,0 0.117187,-0.0234 0.117187,-0.0937 z m 2.197266,-9.75 c 0.503906,0.16406 0.925781,0.17578 1.054687,0.17578 1.359375,0 2.214844,-0.99609 2.214844,-1.16015 0,-0.0469 -0.02344,-0.10547 -0.09375,-0.10547 -0.02344,0 -0.04687,0 -0.152344,0.0469 -0.667968,0.28125 -1.242187,0.31641 -1.558593,0.31641 -0.785157,0 -1.347657,-0.23438 -1.582032,-0.32813 -0.08203,-0.0351 -0.105468,-0.0351 -0.117187,-0.0351 -0.09375,0 -0.09375,0.0703 -0.09375,0.25781 v 3.55078 c 0,0.21094 0,0.29297 0.140625,0.29297 0.05859,0 0.07031,-0.0117 0.199219,-0.16406 0.328125,-0.49219 0.890625,-0.77344 1.488281,-0.77344 0.632812,0 0.949219,0.58594 1.042969,0.78516 0.199218,0.46875 0.210937,1.05468 0.210937,1.51171 0,0.45704 0,1.13672 -0.328125,1.67579 -0.269531,0.42187 -0.738281,0.72656 -1.253906,0.72656 -0.796875,0 -1.570313,-0.53906 -1.78125,-1.40625 0.05859,0.0234 0.128906,0.0351 0.1875,0.0351 0.199219,0 0.527344,-0.1289 0.527344,-0.52734 0,-0.33984 -0.234375,-0.52734 -0.527344,-0.52734 -0.210938,0 -0.527344,0.10547 -0.527344,0.57422 0,1.00781 0.808594,2.16796 2.144531,2.16796 1.347657,0 2.53125,-1.125 2.53125,-2.64843 0,-1.41797 -0.960937,-2.60157 -2.214843,-2.60157 -0.679688,0 -1.207032,0.29297 -1.511719,0.63282 z m 0,0"
         style="fill:#000000;fill-opacity:1;fill-rule:nonzero;stroke:none" />
      <path
         id="path54"
         d="m 46.102641,131.55789 c -0.234375,0 -0.339844,0 -0.503907,0.15234 -0.07031,0.0586 -0.199218,0.23438 -0.199218,0.42188 0,0.24609 0.175781,0.38672 0.398437,0.38672 0.292969,0 0.609375,-0.23438 0.609375,-0.71485 0,-0.57421 -0.550781,-1.01953 -1.371094,-1.01953 -1.570312,0 -3.128906,1.71094 -3.128906,3.41016 0,1.04297 0.644531,1.98047 1.863281,1.98047 1.628907,0 2.648438,-1.26563 2.648438,-1.41797 0,-0.0703 -0.07031,-0.12891 -0.117188,-0.12891 -0.03516,0 -0.04687,0.0117 -0.152343,0.11719 -0.761719,1.00781 -1.898438,1.19531 -2.355469,1.19531 -0.820313,0 -1.089844,-0.71484 -1.089844,-1.3125 0,-0.42187 0.199219,-1.58203 0.632813,-2.39062 0.316406,-0.5625 0.960937,-1.20703 1.710937,-1.20703 0.152344,0 0.808594,0.0234 1.054688,0.52734 z m 0,0"
         style="fill:#000000;fill-opacity:1;fill-rule:nonzero;stroke:none" />
      <path
         id="path55"
         d="m 56.995219,133.30398 c 0.210937,0 0.421875,0 0.421875,-0.23437 0,-0.23438 -0.210938,-0.23438 -0.421875,-0.23438 h -6.46875 c -0.199219,0 -0.410157,0 -0.410157,0.23438 0,0.23437 0.210938,0.23437 0.410157,0.23437 z m 0,0"
         style="fill:#000000;fill-opacity:1;fill-rule:nonzero;stroke:none" />
      <path
         id="path56"
         d="m 64.67393,134.63992 c -0.05859,0.19922 -0.05859,0.22266 -0.222657,0.44531 -0.269531,0.33985 -0.796875,0.85547 -1.359375,0.85547 -0.480468,0 -0.761718,-0.44531 -0.761718,-1.14843 0,-0.65625 0.375,-1.99219 0.597656,-2.4961 0.410156,-0.84375 0.972656,-1.26562 1.441406,-1.26562 0.785156,0 0.9375,0.97265 0.9375,1.0664 0,0.0117 -0.03516,0.17578 -0.04687,0.19922 z m 0.761718,-3.07031 c -0.128906,-0.30469 -0.445312,-0.78516 -1.066406,-0.78516 -1.359375,0 -2.8125,1.7461 -2.8125,3.51563 0,1.18359 0.691406,1.875 1.5,1.875 0.65625,0 1.21875,-0.51563 1.558594,-0.90235 0.117187,0.70313 0.679687,0.90235 1.042969,0.90235 0.351562,0 0.644531,-0.21094 0.855468,-0.64453 0.1875,-0.41016 0.363282,-1.13672 0.363282,-1.1836 0,-0.0586 -0.04687,-0.10547 -0.117188,-0.10547 -0.117187,0 -0.128906,0.0586 -0.175781,0.23438 -0.175781,0.71484 -0.398438,1.46484 -0.890625,1.46484 -0.351563,0 -0.375,-0.3164 -0.375,-0.55078 0,-0.28125 0.03516,-0.41015 0.140625,-0.8789 0.08203,-0.29297 0.152344,-0.5625 0.246094,-0.90235 0.433593,-1.79297 0.550781,-2.22656 0.550781,-2.29687 0,-0.16407 -0.140625,-0.29297 -0.316406,-0.29297 -0.375,0 -0.480469,0.41015 -0.503907,0.55078 z m 0,0"
         style="fill:#000000;fill-opacity:1;fill-rule:nonzero;stroke:none" />
      <path
         id="path57"
         d="m 70.597758,133.08133 c 0,-0.91406 -0.128906,-2.39063 -0.796875,-3.77344 -0.703125,-1.44141 -1.675781,-2.21484 -1.816406,-2.21484 -0.04687,0 -0.105469,0.0234 -0.105469,0.0937 0,0.0352 0,0.0586 0.199219,0.26953 1.195312,1.20703 1.875,3.17578 1.875,5.61328 0,2.32031 -0.5625,4.3125 -1.957032,5.73047 -0.117187,0.10547 -0.117187,0.1289 -0.117187,0.16406 0,0.0703 0.05859,0.0937 0.105469,0.0937 0.164062,0 1.136718,-0.85547 1.722656,-2.02734 0.609375,-1.21875 0.890625,-2.51953 0.890625,-3.94922 z m 12.574219,-0.89063 c 0.164062,0 0.375,0 0.375,-0.22265 0,-0.22266 -0.199219,-0.22266 -0.375,-0.22266 h -7.042969 c -0.175781,0 -0.386719,0 -0.386719,0.21094 0,0.23437 0.199219,0.23437 0.386719,0.23437 z m 0,2.21485 c 0.164062,0 0.375,0 0.375,-0.21094 0,-0.23438 -0.199219,-0.23438 -0.375,-0.23438 h -7.042969 c -0.175781,0 -0.386719,0 -0.386719,0.22266 0,0.22266 0.199219,0.22266 0.386719,0.22266 z m 9.603515,-0.35157 h -0.269531 c -0.03516,0.19922 -0.128906,0.85547 -0.246094,1.04297 -0.08203,0.11719 -0.761719,0.11719 -1.125,0.11719 h -2.214844 c 0.328125,-0.28125 1.054688,-1.04297 1.371094,-1.33594 1.816406,-1.66406 2.484375,-2.28515 2.484375,-3.46875 0,-1.38281 -1.089844,-2.29687 -2.472656,-2.29687 -1.394531,0 -2.203125,1.18359 -2.203125,2.20312 0,0.60938 0.527344,0.60938 0.5625,0.60938 0.246094,0 0.5625,-0.17578 0.5625,-0.5625 0,-0.32813 -0.234375,-0.55078 -0.5625,-0.55078 -0.105469,0 -0.128906,0 -0.164063,0.0117 0.222657,-0.82032 0.867188,-1.3711 1.640625,-1.3711 1.019532,0 1.640625,0.85547 1.640625,1.95703 0,1.00782 -0.585937,1.89844 -1.265625,2.66016 l -2.414062,2.70703 v 0.28125 h 4.359375 z m 5.947266,-1.8164 c 0,-0.9961 -0.05859,-1.96875 -0.492188,-2.8711 -0.492187,-0.99609 -1.347656,-1.2539 -1.933593,-1.2539 -0.691407,0 -1.546875,0.33984 -1.980469,1.33594 -0.339844,0.75 -0.457031,1.48828 -0.457031,2.78906 0,1.16015 0.08203,2.02734 0.515625,2.87109 0.457031,0.91406 1.289062,1.19531 1.910156,1.19531 1.042969,0 1.640625,-0.62109 1.980469,-1.3125 0.433593,-0.89062 0.457031,-2.0625 0.457031,-2.7539 z m -2.4375,3.83203 c -0.386719,0 -1.160156,-0.21094 -1.382813,-1.52344 -0.140625,-0.71484 -0.140625,-1.61719 -0.140625,-2.46094 0,-0.97265 0,-1.86328 0.199219,-2.5664 0.199219,-0.79688 0.808594,-1.17188 1.324219,-1.17188 0.457031,0 1.148437,0.28125 1.371094,1.30078 0.152343,0.67969 0.152343,1.62891 0.152343,2.4375 0,0.8086 0,1.71094 -0.128906,2.4375 -0.222656,1.32422 -0.972656,1.54688 -1.394531,1.54688 z m 6.380862,-7.67578 c 0,-0.26953 0,-0.28125 -0.2461,-0.28125 -0.28125,0.3164 -0.8789,0.76172 -2.10937,0.76172 v 0.35156 c 0.26953,0 0.86719,0 1.52344,-0.31641 v 6.22266 c 0,0.43359 -0.0352,0.57422 -1.07813,0.57422 h -0.375 v 0.35156 c 0.31641,-0.0234 1.47656,-0.0234 1.875,-0.0234 0.39844,0 1.54688,0 1.86328,0.0234 v -0.35156 h -0.36328 c -1.05469,0 -1.08984,-0.14063 -1.08984,-0.57422 z m 5.9707,3.35156 c 0.59766,-0.32812 1.46484,-0.87891 1.46484,-1.875 0,-1.04297 -0.99609,-1.75781 -2.09765,-1.75781 -1.1836,0 -2.1211,0.86719 -2.1211,1.95703 0,0.41016 0.12891,0.80859 0.45704,1.21875 0.1289,0.15234 0.14062,0.16406 0.98437,0.75 -1.16016,0.53906 -1.75781,1.34766 -1.75781,2.21484 0,1.26563 1.20703,2.05078 2.42578,2.05078 1.32422,0 2.4375,-0.97265 2.4375,-2.22656 0,-1.21875 -0.85547,-1.75781 -1.79297,-2.33203 z m -1.62891,-1.07812 c -0.15234,-0.10547 -0.63281,-0.42188 -0.63281,-1.00782 0,-0.77343 0.82031,-1.26562 1.61719,-1.26562 0.85547,0 1.62891,0.62109 1.62891,1.48828 0,0.72656 -0.52735,1.3125 -1.21875,1.6875 z m 0.5625,1.54687 1.45313,0.9375 c 0.30469,0.19922 0.85547,0.57422 0.85547,1.30078 0,0.91406 -0.91406,1.53516 -1.875,1.53516 -1.01953,0 -1.88672,-0.73828 -1.88672,-1.73438 0,-0.9375 0.67969,-1.6875 1.45312,-2.03906 z m 8.61914,1.83984 h -0.26953 c -0.0351,0.19922 -0.1289,0.85547 -0.24609,1.04297 -0.082,0.11719 -0.76172,0.11719 -1.125,0.11719 h -2.21484 c 0.32812,-0.28125 1.05468,-1.04297 1.37109,-1.33594 1.81641,-1.66406 2.48437,-2.28515 2.48437,-3.46875 0,-1.38281 -1.08984,-2.29687 -2.47265,-2.29687 -1.39453,0 -2.20313,1.18359 -2.20313,2.20312 0,0.60938 0.52735,0.60938 0.5625,0.60938 0.2461,0 0.5625,-0.17578 0.5625,-0.5625 0,-0.32813 -0.23437,-0.55078 -0.5625,-0.55078 -0.10547,0 -0.1289,0 -0.16406,0.0117 0.22266,-0.82032 0.86719,-1.3711 1.64063,-1.3711 1.01953,0 1.64062,0.85547 1.64062,1.95703 0,1.00782 -0.58594,1.89844 -1.26562,2.66016 l -2.41407,2.70703 v 0.28125 h 4.35938 z m 5.94727,-1.8164 c 0,-0.9961 -0.0586,-1.96875 -0.49219,-2.8711 -0.49218,-0.99609 -1.34765,-1.2539 -1.93359,-1.2539 -0.69141,0 -1.54688,0.33984 -1.98047,1.33594 -0.33984,0.75 -0.45703,1.48828 -0.45703,2.78906 0,1.16015 0.082,2.02734 0.51562,2.87109 0.45704,0.91406 1.28907,1.19531 1.91016,1.19531 1.04297,0 1.64063,-0.62109 1.98047,-1.3125 0.43359,-0.89062 0.45703,-2.0625 0.45703,-2.7539 z m -2.4375,3.83203 c -0.38672,0 -1.16016,-0.21094 -1.38281,-1.52344 -0.14063,-0.71484 -0.14063,-1.61719 -0.14063,-2.46094 0,-0.97265 0,-1.86328 0.19922,-2.5664 0.19922,-0.79688 0.8086,-1.17188 1.32422,-1.17188 0.45703,0 1.14844,0.28125 1.37109,1.30078 0.15235,0.67969 0.15235,1.62891 0.15235,2.4375 0,0.8086 0,1.71094 -0.12891,2.4375 -0.22265,1.32422 -0.97265,1.54688 -1.39453,1.54688 z m 6.38086,-7.67578 c 0,-0.26953 0,-0.28125 -0.24609,-0.28125 -0.28125,0.3164 -0.87891,0.76172 -2.10938,0.76172 v 0.35156 c 0.26953,0 0.86719,0 1.52344,-0.31641 v 6.22266 c 0,0.43359 -0.0352,0.57422 -1.07813,0.57422 h -0.375 v 0.35156 c 0.31641,-0.0234 1.47657,-0.0234 1.875,-0.0234 0.39844,0 1.54688,0 1.86328,0.0234 v -0.35156 h -0.36328 c -1.05468,0 -1.08984,-0.14063 -1.08984,-0.57422 z m 6.7793,4.18359 c 0,2.82422 -1.25391,3.41016 -1.96875,3.41016 -0.28125,0 -0.92578,-0.0352 -1.21875,-0.45703 h 0.0703 c 0.082,0.0234 0.51562,-0.0469 0.51562,-0.49219 0,-0.25781 -0.17578,-0.49219 -0.49218,-0.49219 -0.30469,0 -0.50391,0.21094 -0.50391,0.51563 0,0.75 0.59766,1.24218 1.64063,1.24218 1.5,0 2.9414,-1.58203 2.9414,-4.18359 0,-3.21094 -1.33594,-4.00781 -2.39062,-4.00781 -1.3125,0 -2.47266,1.10156 -2.47266,2.67187 0,1.58203 1.11328,2.66016 2.30859,2.66016 0.87891,0 1.33594,-0.64453 1.57032,-1.25391 z m -1.52344,0.6211 c -0.75,0 -1.07813,-0.60938 -1.18359,-0.83204 -0.19922,-0.45703 -0.19922,-1.03125 -0.19922,-1.57031 0,-0.66797 0,-1.24219 0.3164,-1.73437 0.21094,-0.31641 0.53907,-0.66797 1.1836,-0.66797 0.67968,0 1.03125,0.59765 1.14843,0.8789 0.23438,0.58594 0.23438,1.59375 0.23438,1.78125 0,0.9961 -0.44531,2.14454 -1.5,2.14454 z m 0,0"
         style="fill:#000000;fill-opacity:1;fill-rule:nonzero;stroke:none" />
      <path
         id="path58"
         d="m 136.54795,135.48367 c 0,-0.35156 -0.29297,-0.58594 -0.57422,-0.58594 -0.35156,0 -0.58593,0.29297 -0.58593,0.57422 0,0.35157 0.28125,0.58594 0.57422,0.58594 0.33984,0 0.58593,-0.28125 0.58593,-0.57422 z m 0,0"
         style="fill:#000000;fill-opacity:1;fill-rule:nonzero;stroke:none" />
      <path
         id="path59"
         d="m 53.678812,198.67996 c 0.503907,0.16406 0.925782,0.17578 1.054688,0.17578 1.359375,0 2.214844,-0.99609 2.214844,-1.16015 0,-0.0469 -0.02344,-0.10547 -0.09375,-0.10547 -0.02344,0 -0.04687,0 -0.152344,0.0469 -0.667969,0.28125 -1.242188,0.31641 -1.558594,0.31641 -0.785156,0 -1.347656,-0.23438 -1.582031,-0.32813 -0.08203,-0.0351 -0.105469,-0.0351 -0.117188,-0.0351 -0.09375,0 -0.09375,0.0703 -0.09375,0.25781 v 3.55078 c 0,0.21094 0,0.29297 0.140625,0.29297 0.05859,0 0.07031,-0.0117 0.199219,-0.16406 0.328125,-0.49219 0.890625,-0.77344 1.488281,-0.77344 0.632813,0 0.949219,0.58594 1.042969,0.78516 0.199219,0.46875 0.210938,1.05468 0.210938,1.51171 0,0.45704 0,1.13672 -0.328125,1.67579 -0.269532,0.42187 -0.738282,0.72656 -1.253907,0.72656 -0.796875,0 -1.570312,-0.53906 -1.78125,-1.40625 0.05859,0.0234 0.128907,0.0352 0.1875,0.0352 0.199219,0 0.527344,-0.1289 0.527344,-0.52734 0,-0.33984 -0.234375,-0.52734 -0.527344,-0.52734 -0.210937,0 -0.527343,0.10547 -0.527343,0.57422 0,1.00781 0.808593,2.16796 2.144531,2.16796 1.347656,0 2.53125,-1.125 2.53125,-2.64843 0,-1.41797 -0.960938,-2.60157 -2.214844,-2.60157 -0.679687,0 -1.207031,0.29297 -1.511719,0.63282 z m 0,0"
         style="fill:#000000;fill-opacity:1;fill-rule:nonzero;stroke:none" />
      <path
         id="path60"
         d="m 28.700297,217.96609 h -0.269531 c -0.03516,0.19922 -0.128907,0.85547 -0.246094,1.04297 -0.08203,0.11719 -0.761719,0.11719 -1.125,0.11719 h -2.214844 c 0.328125,-0.28125 1.054688,-1.04297 1.371094,-1.33594 1.816406,-1.66406 2.484375,-2.28515 2.484375,-3.46875 0,-1.38281 -1.089844,-2.29687 -2.472656,-2.29687 -1.394532,0 -2.203125,1.18359 -2.203125,2.20312 0,0.60938 0.527343,0.60938 0.5625,0.60938 0.246093,0 0.5625,-0.17578 0.5625,-0.5625 0,-0.32813 -0.234375,-0.55078 -0.5625,-0.55078 -0.105469,0 -0.128907,0 -0.164063,0.0117 0.222656,-0.82032 0.867188,-1.3711 1.640625,-1.3711 1.019531,0 1.640625,0.85547 1.640625,1.95703 0,1.00782 -0.585937,1.89844 -1.265625,2.66016 l -2.414062,2.70703 V 219.97 h 4.359375 z m 5.853515,0 h -0.269531 c -0.03516,0.19922 -0.128906,0.85547 -0.246094,1.04297 -0.08203,0.11719 -0.761718,0.11719 -1.125,0.11719 h -2.214843 c 0.328125,-0.28125 1.054687,-1.04297 1.371093,-1.33594 1.816407,-1.66406 2.484375,-2.28515 2.484375,-3.46875 0,-1.38281 -1.089843,-2.29687 -2.472656,-2.29687 -1.394531,0 -2.203125,1.18359 -2.203125,2.20312 0,0.60938 0.527344,0.60938 0.5625,0.60938 0.246094,0 0.5625,-0.17578 0.5625,-0.5625 0,-0.32813 -0.234375,-0.55078 -0.5625,-0.55078 -0.105469,0 -0.128906,0 -0.164062,0.0117 0.222656,-0.82032 0.867187,-1.3711 1.640625,-1.3711 1.019531,0 1.640625,0.85547 1.640625,1.95703 0,1.00782 -0.585938,1.89844 -1.265625,2.66016 l -2.414063,2.70703 V 219.97 h 4.359375 z m 6.275391,-5.41406 v -0.28125 h -2.882812 c -1.453125,0 -1.476563,-0.15234 -1.523438,-0.38672 h -0.257812 l -0.375,2.39063 h 0.269531 c 0.03516,-0.21094 0.140625,-0.94922 0.292969,-1.07813 0.09375,-0.0703 0.996093,-0.0703 1.160156,-0.0703 h 2.53125 l -1.265625,1.81641 c -0.316406,0.45703 -1.523438,2.42578 -1.523438,4.66406 0,0.14062 0,0.60937 0.480469,0.60937 0.503906,0 0.503906,-0.45703 0.503906,-0.62109 v -0.59766 c 0,-1.78125 0.292969,-3.16406 0.855469,-3.96093 z m 5.853516,0 v -0.28125 h -2.882813 c -1.453125,0 -1.476562,-0.15234 -1.523437,-0.38672 h -0.257813 l -0.375,2.39063 h 0.269531 c 0.03516,-0.21094 0.140625,-0.94922 0.292969,-1.07813 0.09375,-0.0703 0.996094,-0.0703 1.160156,-0.0703 h 2.53125 l -1.265625,1.81641 c -0.316406,0.45703 -1.523437,2.42578 -1.523437,4.66406 0,0.14062 0,0.60937 0.480469,0.60937 0.503906,0 0.503906,-0.45703 0.503906,-0.62109 v -0.59766 c 0,-1.78125 0.292969,-3.16406 0.855469,-3.96093 z m 0,0"
         style="fill:#000000;fill-opacity:1;fill-rule:nonzero;stroke:none" />
    </g>
  </g>
</svg>
