<?xml version="1.0" encoding="UTF-8" standalone="no"?>
<!-- Created with Inkscape (http://www.inkscape.org/) -->

<svg
   version="1.1"
   id="svg1"
   width="794.55066"
   height="1123.6533"
   viewBox="0 0 794.55066 1123.6533"
   sodipodi:docname="LigaMatematycznaMatuskiego_Liceum_Zestaw4_2012_2013_page0.pdf"
   xmlns:inkscape="http://www.inkscape.org/namespaces/inkscape"
   xmlns:sodipodi="http://sodipodi.sourceforge.net/DTD/sodipodi-0.dtd"
   xmlns="http://www.w3.org/2000/svg"
   xmlns:svg="http://www.w3.org/2000/svg">
  <defs
     id="defs1" />
  <sodipodi:namedview
     id="namedview1"
     pagecolor="#ffffff"
     bordercolor="#000000"
     borderopacity="0.25"
     inkscape:showpageshadow="2"
     inkscape:pageopacity="0.0"
     inkscape:pagecheckerboard="0"
     inkscape:deskcolor="#d1d1d1">
    <inkscape:page
       x="0"
       y="0"
       inkscape:label="1"
       id="page1"
       width="794.55066"
       height="1123.6533"
       margin="0"
       bleed="0" />
  </sodipodi:namedview>
  <g
     id="g1"
     inkscape:groupmode="layer"
     inkscape:label="1">
    <g
       id="g2"
       aria-label="LIGAMATEMATYCZNA&#10;im.ZdzisªawaMatuskiego&#10;STYCZE2013&#10;SZKOAPONADGIMNAZJALNA&#10;ZADANIE1.&#10;Dwaokr¦gis¡stycznezewn¦trznie.PunktAle»ynajednymzokr¦gówinale»ydowspólnej&#10;stycznej,natomiastABjest±rednic¡okr¦gu.ZpunktuBprowadzimystyczn¡dodrugiego&#10;okr¦guwpunkcieM.Wyka»,»eAB=BM.&#10;ZADANIE2.&#10;Nadªugimpaskupapieruwypisanokolejnooboksiebie2010wybranychliczbnaturalnych.&#10;Liczbys¡dobranewtakisposób,»eiloczynka»dychsiedmius¡siednichjestrówny2010.Jaka&#10;jestnajmniejszamo»liwawarto±¢sumytych2010liczb?Jakajestnajwi¦kszamo»liwawarto±¢&#10;tejsumy?&#10;ZADANIE3.&#10;Czyistniej¡takieliczbycaªkowitea,b,»ea&#10;2&#10;+boraza+b&#10;2&#10;s¡kolejnymiliczbamicaªkowitymi?&#10;ZADANIE4.&#10;Danychjest111dodatnichliczbcaªkowitych.Wyka»,»espo±ródnichmo»nawybra¢11liczb,&#10;którychsumajestpodzielnaprzez11.&#10;ZADANIE5.&#10;Rozwi¡»ukªadrówna«&#10;&#10;&#10;&#10;&#10;&#10;&#10;&#10;(x+y)(x+y+z)=72&#10;(y+z)(x+y+z)=120&#10;(z+x)(x+y+z)=96."
       transform="matrix(1.3333333,0,0,1.3333333,274.724,56.069333)">
      <path
         id="path2"
         d="m 78.76657,116.7605 c -0.410156,0.70313 -0.820312,0.9375 -1.394531,0.97266 -0.128906,0.0117 -0.222656,0.0117 -0.222656,0.23437 0,0.0703 0.05859,0.11719 0.140625,0.11719 0.210937,0 0.75,-0.0234 0.972656,-0.0234 0.339844,0 0.726563,0.0234 1.054688,0.0234 0.07031,0 0.222656,0 0.222656,-0.22266 0,-0.11718 -0.09375,-0.1289 -0.175781,-0.1289 -0.269532,-0.0234 -0.492188,-0.11719 -0.492188,-0.39844 0,-0.17578 0.07031,-0.30469 0.222656,-0.5625 l 0.902344,-1.51172 h 3.058594 c 0.01172,0.10547 0.01172,0.21094 0.02344,0.31641 0.03516,0.30468 0.175782,1.54687 0.175782,1.78125 0,0.35156 -0.609375,0.375 -0.796875,0.375 -0.140625,0 -0.269532,0 -0.269532,0.22265 0,0.12891 0.105469,0.12891 0.175782,0.12891 0.210937,0 0.445312,-0.0234 0.65625,-0.0234 h 0.679687 c 0.726563,0 1.253906,0.0234 1.265625,0.0234 0.08203,0 0.210938,0 0.210938,-0.22266 0,-0.1289 -0.105469,-0.1289 -0.28125,-0.1289 -0.65625,0 -0.667969,-0.10547 -0.714844,-0.45703 l -0.726563,-7.46485 c -0.02344,-0.23437 -0.07031,-0.25781 -0.199218,-0.25781 -0.117188,0 -0.1875,0.0234 -0.304688,0.19922 z m 1.441407,-1.83984 2.402343,-4.01953 0.410157,4.01953 z m 0,0"
         style="fill:#000000;fill-opacity:1;fill-rule:nonzero;stroke:none" />
      <path
         id="path3"
         d="m -41.195344,132.65113 c -0.410156,0.70312 -0.820312,0.9375 -1.394531,0.97265 -0.128906,0.0117 -0.222656,0.0117 -0.222656,0.23438 0,0.0703 0.05859,0.11718 0.140625,0.11718 0.210937,0 0.75,-0.0234 0.972656,-0.0234 0.339844,0 0.726563,0.0234 1.054688,0.0234 0.07031,0 0.222656,0 0.222656,-0.22265 0,-0.11719 -0.09375,-0.12891 -0.175781,-0.12891 -0.269532,-0.0234 -0.492188,-0.11719 -0.492188,-0.39844 0,-0.17578 0.07031,-0.30468 0.222656,-0.5625 l 0.902344,-1.51171 h 3.058594 c 0.01172,0.10546 0.01172,0.21093 0.02344,0.3164 0.03516,0.30469 0.175782,1.54688 0.175782,1.78125 0,0.35156 -0.609375,0.375 -0.796875,0.375 -0.140625,0 -0.269532,0 -0.269532,0.22266 0,0.1289 0.105469,0.1289 0.175782,0.1289 0.210937,0 0.445312,-0.0234 0.65625,-0.0234 h 0.679687 c 0.726563,0 1.253906,0.0234 1.265625,0.0234 0.08203,0 0.210938,0 0.210938,-0.22265 0,-0.12891 -0.105469,-0.12891 -0.28125,-0.12891 -0.65625,0 -0.667969,-0.10547 -0.714844,-0.45703 l -0.726563,-7.46484 c -0.02344,-0.23438 -0.07031,-0.25782 -0.199218,-0.25782 -0.117188,0 -0.1875,0.0234 -0.304688,0.19922 z m 1.441407,-1.83985 2.402343,-4.01953 0.410157,4.01953 z m 9.676757,-4.18359 c 0.117188,-0.44531 0.164063,-0.46875 0.621094,-0.46875 h 1.558594 c 1.347656,0 1.347656,1.14844 1.347656,1.2539 0,0.97266 -0.960937,2.20313 -2.542969,2.20313 h -1.722656 z m 2.027344,3.08203 c 1.300781,-0.24609 2.484375,-1.14844 2.484375,-2.25 0,-0.92578 -0.832031,-1.65234 -2.179687,-1.65234 h -3.832032 c -0.234375,0 -0.339843,0 -0.339843,0.23437 0,0.11719 0.105468,0.11719 0.292968,0.11719 0.726563,0 0.726563,0.0937 0.726563,0.22265 0,0.0234 0,0.0937 -0.04687,0.28125 l -1.617188,6.4336 c -0.105468,0.41015 -0.128906,0.52734 -0.960937,0.52734 -0.234375,0 -0.351563,0 -0.351563,0.22266 0,0.1289 0.07031,0.1289 0.304688,0.1289 h 4.101562 c 1.828125,0 3.246094,-1.38281 3.246094,-2.58984 0,-0.98437 -0.867187,-1.58203 -1.828125,-1.67578 z m -1.699219,3.91406 h -1.617187 c -0.164063,0 -0.1875,0 -0.257813,-0.0117 -0.128906,-0.0117 -0.152343,-0.0352 -0.152343,-0.1289 0,-0.082 0.03516,-0.15235 0.05859,-0.25782 l 0.832032,-3.375 h 2.25 c 1.40625,0 1.40625,1.3125 1.40625,1.40625 0,1.14844 -1.042969,2.36719 -2.519532,2.36719 z m 0,0"
         style="fill:#000000;fill-opacity:1;fill-rule:nonzero;stroke:none" />
      <path
         id="path4"
         d="m 153.76364,126.62769 c 0.11719,-0.44531 0.16406,-0.46875 0.62109,-0.46875 h 1.5586 c 1.34765,0 1.34765,1.14844 1.34765,1.2539 0,0.97266 -0.96093,2.20313 -2.54296,2.20313 h -1.72266 z m 2.02734,3.08203 c 1.30079,-0.24609 2.48438,-1.14844 2.48438,-2.25 0,-0.92578 -0.83203,-1.65234 -2.17969,-1.65234 h -3.83203 c -0.23437,0 -0.33984,0 -0.33984,0.23437 0,0.11719 0.10547,0.11719 0.29297,0.11719 0.72656,0 0.72656,0.0937 0.72656,0.22265 0,0.0234 0,0.0937 -0.0469,0.28125 l -1.61718,6.4336 c -0.10547,0.41015 -0.12891,0.52734 -0.96094,0.52734 -0.23438,0 -0.35156,0 -0.35156,0.22266 0,0.1289 0.0703,0.1289 0.30468,0.1289 h 4.10157 c 1.82812,0 3.24609,-1.38281 3.24609,-2.58984 0,-0.98437 -0.86719,-1.58203 -1.82813,-1.67578 z m -1.69921,3.91406 h -1.61719 c -0.16406,0 -0.1875,0 -0.25781,-0.0117 -0.12891,-0.0117 -0.15235,-0.0352 -0.15235,-0.1289 0,-0.082 0.0352,-0.15235 0.0586,-0.25782 l 0.83203,-3.375 h 2.25 c 1.40625,0 1.40625,1.3125 1.40625,1.40625 0,1.14844 -1.04297,2.36719 -2.51953,2.36719 z m 0,0"
         style="fill:#000000;fill-opacity:1;fill-rule:nonzero;stroke:none" />
      <path
         id="path5"
         d="m -44.063508,142.57691 c 0.105469,-0.41016 0.128906,-0.52735 0.984375,-0.52735 0.222656,0 0.328125,0 0.328125,-0.22265 0,-0.12891 -0.08203,-0.12891 -0.304687,-0.12891 h -1.441407 c -0.292968,0 -0.304687,0.0117 -0.433593,0.21094 l -4.371094,6.89062 -0.890625,-6.83203 c -0.03516,-0.26953 -0.04687,-0.26953 -0.363281,-0.26953 h -1.476563 c -0.234375,0 -0.339844,0 -0.339844,0.23438 0,0.11718 0.105469,0.11718 0.292969,0.11718 0.726563,0 0.726563,0.0937 0.726563,0.22266 0,0.0234 0,0.0937 -0.04687,0.28125 l -1.535157,6.09375 c -0.140625,0.57422 -0.410156,0.83203 -1.21875,0.86719 -0.03516,0 -0.175781,0.0117 -0.175781,0.22265 0,0.12891 0.105469,0.12891 0.152344,0.12891 0.246094,0 0.855469,-0.0234 1.089844,-0.0234 h 0.574218 c 0.164063,0 0.375,0.0234 0.539063,0.0234 0.08203,0 0.210937,0 0.210937,-0.22266 0,-0.11718 -0.117187,-0.1289 -0.164062,-0.1289 -0.398438,-0.0117 -0.773438,-0.082 -0.773438,-0.50391 0,-0.12891 0,-0.14062 0.04687,-0.30469 l 1.652344,-6.58593 h 0.01172 l 0.984375,7.41796 c 0.03516,0.29297 0.04687,0.32813 0.152344,0.32813 0.140625,0 0.199218,-0.0937 0.257812,-0.19922 l 4.804688,-7.60547 h 0.01172 l -1.734375,6.92578 c -0.105468,0.41016 -0.128906,0.52735 -0.972656,0.52735 -0.222656,0 -0.339844,0 -0.339844,0.22265 0,0.12891 0.105469,0.12891 0.175782,0.12891 0.210937,0 0.445312,-0.0234 0.644531,-0.0234 h 1.417969 c 0.199218,0 0.445312,0.0234 0.65625,0.0234 0.09375,0 0.222656,0 0.222656,-0.22266 0,-0.1289 -0.105469,-0.1289 -0.28125,-0.1289 -0.738281,0 -0.738281,-0.0937 -0.738281,-0.21094 0,-0.0117 0,-0.0937 0.02344,-0.1875 z m 0,0"
         style="fill:#000000;fill-opacity:1;fill-rule:nonzero;stroke:none" />
      <path
         id="path6"
         d="m 23.398406,148.54175 c -0.410156,0.70313 -0.820312,0.9375 -1.394531,0.97266 -0.128906,0.0117 -0.222656,0.0117 -0.222656,0.23437 0,0.0703 0.05859,0.11719 0.140625,0.11719 0.210937,0 0.75,-0.0234 0.972656,-0.0234 0.339844,0 0.726563,0.0234 1.054688,0.0234 0.07031,0 0.222656,0 0.222656,-0.22266 0,-0.11718 -0.09375,-0.1289 -0.175781,-0.1289 -0.269532,-0.0234 -0.492188,-0.11719 -0.492188,-0.39844 0,-0.17578 0.07031,-0.30469 0.222656,-0.5625 l 0.902344,-1.51172 h 3.058594 c 0.01172,0.10547 0.01172,0.21094 0.02344,0.31641 0.03516,0.30468 0.175782,1.54687 0.175782,1.78125 0,0.35156 -0.609375,0.375 -0.796875,0.375 -0.140625,0 -0.269532,0 -0.269532,0.22265 0,0.12891 0.105469,0.12891 0.175782,0.12891 0.210937,0 0.445312,-0.0234 0.65625,-0.0234 H 28.332 c 0.726563,0 1.253906,0.0234 1.265625,0.0234 0.08203,0 0.210938,0 0.210938,-0.22266 0,-0.1289 -0.105469,-0.1289 -0.28125,-0.1289 -0.65625,0 -0.667969,-0.10547 -0.714844,-0.45703 l -0.726563,-7.46485 c -0.02344,-0.23437 -0.07031,-0.25781 -0.199218,-0.25781 -0.117188,0 -0.1875,0.0234 -0.304688,0.19922 z m 1.441407,-1.83984 2.402343,-4.01953 0.410157,4.01953 z m 9.679687,-4.1836 c 0.117188,-0.44531 0.164063,-0.46875 0.621094,-0.46875 h 1.558594 c 1.347656,0 1.347656,1.14844 1.347656,1.25391 0,0.97266 -0.960938,2.20312 -2.542969,2.20312 h -1.722656 z m 2.027344,3.08203 c 1.300781,-0.24609 2.484375,-1.14843 2.484375,-2.25 0,-0.92578 -0.832031,-1.65234 -2.179688,-1.65234 H 33.0195 c -0.234375,0 -0.339844,0 -0.339844,0.23438 0,0.11718 0.105469,0.11718 0.292969,0.11718 0.726563,0 0.726563,0.0937 0.726563,0.22266 0,0.0234 0,0.0937 -0.04687,0.28125 l -1.617188,6.43359 c -0.105469,0.41016 -0.128906,0.52735 -0.960937,0.52735 -0.234375,0 -0.351563,0 -0.351563,0.22265 0,0.12891 0.07031,0.12891 0.304688,0.12891 h 4.101562 c 1.828125,0 3.246094,-1.38281 3.246094,-2.58984 0,-0.98438 -0.867188,-1.58204 -1.828125,-1.67579 z m -1.699219,3.91407 h -1.617187 c -0.164063,0 -0.1875,0 -0.257813,-0.0117 -0.128906,-0.0117 -0.152344,-0.0352 -0.152344,-0.12891 0,-0.082 0.03516,-0.15234 0.05859,-0.25781 l 0.832031,-3.375 h 2.25 c 1.40625,0 1.40625,1.3125 1.40625,1.40625 0,1.14844 -1.042968,2.36719 -2.519531,2.36719 z m 0,0"
         style="fill:#000000;fill-opacity:1;fill-rule:nonzero;stroke:none" />
      <path
         id="path7"
         d="m 51.037078,145.99878 c 0.164063,0 0.375,0 0.375,-0.22265 0,-0.22266 -0.199219,-0.22266 -0.375,-0.22266 h -7.042969 c -0.175781,0 -0.386718,0 -0.386718,0.21094 0,0.23437 0.199218,0.23437 0.386718,0.23437 z m 0,2.21485 c 0.164063,0 0.375,0 0.375,-0.21094 0,-0.23438 -0.199219,-0.23438 -0.375,-0.23438 h -7.042969 c -0.175781,0 -0.386718,0 -0.386718,0.22266 0,0.22266 0.199218,0.22266 0.386718,0.22266 z m 0,0"
         style="fill:#000000;fill-opacity:1;fill-rule:nonzero;stroke:none" />
      <path
         id="path8"
         d="m 59.758758,142.51831 c 0.117187,-0.44531 0.164062,-0.46875 0.621094,-0.46875 h 1.558593 c 1.347657,0 1.347657,1.14844 1.347657,1.25391 0,0.97266 -0.960938,2.20312 -2.542969,2.20312 h -1.722656 z m 2.027344,3.08203 c 1.300781,-0.24609 2.484375,-1.14843 2.484375,-2.25 0,-0.92578 -0.832032,-1.65234 -2.179688,-1.65234 h -3.832031 c -0.234375,0 -0.339844,0 -0.339844,0.23438 0,0.11718 0.105469,0.11718 0.292969,0.11718 0.726562,0 0.726562,0.0937 0.726562,0.22266 0,0.0234 0,0.0937 -0.04687,0.28125 l -1.617187,6.43359 c -0.105469,0.41016 -0.128906,0.52735 -0.960938,0.52735 -0.234375,0 -0.351562,0 -0.351562,0.22265 0,0.12891 0.07031,0.12891 0.304687,0.12891 h 4.101563 c 1.828125,0 3.246094,-1.38281 3.246094,-2.58984 0,-0.98438 -0.867188,-1.58204 -1.828125,-1.67579 z m -1.699219,3.91407 h -1.617188 c -0.164062,0 -0.1875,0 -0.257812,-0.0117 -0.128906,-0.0117 -0.152344,-0.0352 -0.152344,-0.12891 0,-0.082 0.03516,-0.15234 0.05859,-0.25781 l 0.832031,-3.375 h 2.25 c 1.40625,0 1.40625,1.3125 1.40625,1.40625 0,1.14844 -1.042969,2.36719 -2.519531,2.36719 z m 15.644531,-6.9375 c 0.105469,-0.41016 0.128906,-0.52735 0.984375,-0.52735 0.222656,0 0.328125,0 0.328125,-0.22265 0,-0.12891 -0.08203,-0.12891 -0.304687,-0.12891 H 75.29782 c -0.292968,0 -0.304687,0.0117 -0.433593,0.21094 l -4.371094,6.89062 -0.890625,-6.83203 C 69.567352,141.698 69.555633,141.698 69.239227,141.698 h -1.476563 c -0.234375,0 -0.339844,0 -0.339844,0.23438 0,0.11718 0.105469,0.11718 0.292969,0.11718 0.726563,0 0.726563,0.0937 0.726563,0.22266 0,0.0234 0,0.0937 -0.04687,0.28125 l -1.535157,6.09375 c -0.140625,0.57422 -0.410156,0.83203 -1.21875,0.86719 -0.03516,0 -0.175781,0.0117 -0.175781,0.22265 0,0.12891 0.105469,0.12891 0.152344,0.12891 0.246094,0 0.855469,-0.0234 1.089844,-0.0234 H 67.2822 c 0.164063,0 0.375,0.0234 0.539063,0.0234 0.08203,0 0.210937,0 0.210937,-0.22266 0,-0.11718 -0.117187,-0.1289 -0.164062,-0.1289 -0.398438,-0.0117 -0.773438,-0.082 -0.773438,-0.50391 0,-0.12891 0,-0.14062 0.04687,-0.30469 l 1.652344,-6.58593 h 0.01172 l 0.984375,7.41796 c 0.03516,0.29297 0.04687,0.32813 0.152344,0.32813 0.140625,0 0.199218,-0.0937 0.257812,-0.19922 l 4.804688,-7.60547 h 0.01172 l -1.734375,6.92578 c -0.105468,0.41016 -0.128906,0.52735 -0.972656,0.52735 -0.222656,0 -0.339844,0 -0.339844,0.22265 0,0.12891 0.105469,0.12891 0.175782,0.12891 0.210937,0 0.445312,-0.0234 0.644531,-0.0234 h 1.417969 c 0.199218,0 0.445312,0.0234 0.65625,0.0234 0.09375,0 0.222656,0 0.222656,-0.22266 0,-0.1289 -0.105469,-0.1289 -0.28125,-0.1289 -0.738281,0 -0.738281,-0.0937 -0.738281,-0.21094 0,-0.0117 0,-0.0937 0.02344,-0.1875 z m 0,0"
         style="fill:#000000;fill-opacity:1;fill-rule:nonzero;stroke:none" />
      <path
         id="path9"
         d="m 156.08688,193.81421 h -0.26953 c -0.0352,0.19922 -0.1289,0.85547 -0.24609,1.04297 -0.082,0.11719 -0.76172,0.11719 -1.125,0.11719 h -2.21485 c 0.32813,-0.28125 1.05469,-1.04297 1.3711,-1.33594 1.8164,-1.66406 2.48437,-2.28516 2.48437,-3.46875 0,-1.38281 -1.08984,-2.29688 -2.47265,-2.29688 -1.39453,0 -2.20313,1.1836 -2.20313,2.20313 0,0.60937 0.52735,0.60937 0.5625,0.60937 0.2461,0 0.5625,-0.17578 0.5625,-0.5625 0,-0.32812 -0.23437,-0.55078 -0.5625,-0.55078 -0.10547,0 -0.1289,0 -0.16406,0.0117 0.22266,-0.82031 0.86719,-1.37109 1.64062,-1.37109 1.01954,0 1.64063,0.85547 1.64063,1.95703 0,1.00781 -0.58594,1.89844 -1.26563,2.66016 l -2.41406,2.70703 v 0.28125 h 4.35938 z m 5.94727,-1.81641 c 0,-0.99609 -0.0586,-1.96875 -0.49219,-2.87109 -0.49219,-0.99609 -1.34766,-1.25391 -1.93359,-1.25391 -0.69141,0 -1.54688,0.33985 -1.98047,1.33594 -0.33985,0.75 -0.45703,1.48828 -0.45703,2.78906 0,1.16016 0.082,2.02735 0.51562,2.8711 0.45703,0.91406 1.28906,1.19531 1.91016,1.19531 1.04297,0 1.64062,-0.62109 1.98047,-1.3125 0.43359,-0.89062 0.45703,-2.0625 0.45703,-2.75391 z m -2.4375,3.83204 c -0.38672,0 -1.16016,-0.21094 -1.38281,-1.52344 -0.14063,-0.71485 -0.14063,-1.61719 -0.14063,-2.46094 0,-0.97266 0,-1.86328 0.19922,-2.56641 0.19922,-0.79687 0.80859,-1.17187 1.32422,-1.17187 0.45703,0 1.14844,0.28125 1.37109,1.30078 0.15235,0.67969 0.15235,1.62891 0.15235,2.4375 0,0.80859 0,1.71094 -0.12891,2.4375 -0.22266,1.32422 -0.97266,1.54688 -1.39453,1.54688 z m 6.37793,-7.67579 c 0,-0.26953 0,-0.28125 -0.2461,-0.28125 -0.28125,0.31641 -0.8789,0.76172 -2.10937,0.76172 v 0.35157 c 0.26953,0 0.86719,0 1.52344,-0.31641 v 6.22266 c 0,0.43359 -0.0352,0.57421 -1.07813,0.57421 h -0.375 v 0.35157 c 0.31641,-0.0234 1.47656,-0.0234 1.875,-0.0234 0.39844,0 1.54688,0 1.86328,0.0234 v -0.35157 h -0.36328 c -1.05469,0 -1.08984,-0.14062 -1.08984,-0.57421 z m 7.76367,3.84375 c 0,-0.99609 -0.0586,-1.96875 -0.49219,-2.87109 -0.49218,-0.99609 -1.34765,-1.25391 -1.93359,-1.25391 -0.69141,0 -1.54688,0.33985 -1.98047,1.33594 -0.33984,0.75 -0.45703,1.48828 -0.45703,2.78906 0,1.16016 0.082,2.02735 0.51562,2.8711 0.45704,0.91406 1.28907,1.19531 1.91016,1.19531 1.04297,0 1.64063,-0.62109 1.98047,-1.3125 0.43359,-0.89062 0.45703,-2.0625 0.45703,-2.75391 z m -2.4375,3.83204 c -0.38672,0 -1.16016,-0.21094 -1.38281,-1.52344 -0.14063,-0.71485 -0.14063,-1.61719 -0.14063,-2.46094 0,-0.97266 0,-1.86328 0.19922,-2.56641 0.19922,-0.79687 0.8086,-1.17187 1.32422,-1.17187 0.45703,0 1.14844,0.28125 1.37109,1.30078 0.15235,0.67969 0.15235,1.62891 0.15235,2.4375 0,0.80859 0,1.71094 -0.12891,2.4375 -0.22265,1.32422 -0.97265,1.54688 -1.39453,1.54688 z m 0,0"
         style="fill:#000000;fill-opacity:1;fill-rule:nonzero;stroke:none" />
      <path
         id="path10"
         d="m 283.83884,209.70484 h -0.26954 c -0.0351,0.19921 -0.1289,0.85546 -0.24609,1.04296 -0.082,0.11719 -0.76172,0.11719 -1.125,0.11719 h -2.21484 c 0.32812,-0.28125 1.05468,-1.04297 1.37109,-1.33594 1.81641,-1.66406 2.48438,-2.28515 2.48438,-3.46875 0,-1.38281 -1.08985,-2.29687 -2.47266,-2.29687 -1.39453,0 -2.20313,1.18359 -2.20313,2.20312 0,0.60938 0.52735,0.60938 0.5625,0.60938 0.2461,0 0.5625,-0.17578 0.5625,-0.5625 0,-0.32813 -0.23437,-0.55078 -0.5625,-0.55078 -0.10546,0 -0.1289,0 -0.16406,0.0117 0.22266,-0.82032 0.86719,-1.3711 1.64063,-1.3711 1.01953,0 1.64062,0.85547 1.64062,1.95703 0,1.00782 -0.58594,1.89844 -1.26562,2.66016 l -2.41407,2.70703 v 0.28125 h 4.35938 z m 5.94726,-1.81641 c 0,-0.99609 -0.0586,-1.96875 -0.49219,-2.87109 -0.49218,-0.9961 -1.34765,-1.25391 -1.93359,-1.25391 -0.69141,0 -1.54687,0.33984 -1.98047,1.33594 -0.33984,0.75 -0.45703,1.48828 -0.45703,2.78906 0,1.16016 0.082,2.02734 0.51563,2.87109 0.45703,0.91407 1.28906,1.19532 1.91015,1.19532 1.04297,0 1.64063,-0.6211 1.98047,-1.3125 0.43359,-0.89063 0.45703,-2.0625 0.45703,-2.75391 z m -2.4375,3.83203 c -0.38672,0 -1.16015,-0.21094 -1.38281,-1.52344 -0.14063,-0.71484 -0.14063,-1.61718 -0.14063,-2.46093 0,-0.97266 0,-1.86329 0.19922,-2.56641 0.19922,-0.79688 0.8086,-1.17188 1.32422,-1.17188 0.45703,0 1.14844,0.28125 1.3711,1.30079 0.15234,0.67968 0.15234,1.6289 0.15234,2.4375 0,0.80859 0,1.71093 -0.12891,2.4375 -0.22265,1.32421 -0.97265,1.54687 -1.39453,1.54687 z m 6.37793,-7.67578 c 0,-0.26953 0,-0.28125 -0.24609,-0.28125 -0.28125,0.31641 -0.87891,0.76172 -2.10938,0.76172 v 0.35156 c 0.26953,0 0.86719,0 1.52344,-0.31641 v 6.22266 c 0,0.43359 -0.0352,0.57422 -1.07812,0.57422 h -0.375 v 0.35156 c 0.3164,-0.0234 1.47656,-0.0234 1.875,-0.0234 0.39843,0 1.54687,0 1.86328,0.0234 v -0.35156 h -0.36328 c -1.05469,0 -1.08985,-0.14063 -1.08985,-0.57422 z m 7.76367,3.84375 c 0,-0.99609 -0.0586,-1.96875 -0.49218,-2.87109 -0.49219,-0.9961 -1.34766,-1.25391 -1.9336,-1.25391 -0.6914,0 -1.54687,0.33984 -1.98047,1.33594 -0.33984,0.75 -0.45703,1.48828 -0.45703,2.78906 0,1.16016 0.082,2.02734 0.51563,2.87109 0.45703,0.91407 1.28906,1.19532 1.91015,1.19532 1.04297,0 1.64063,-0.6211 1.98047,-1.3125 0.4336,-0.89063 0.45703,-2.0625 0.45703,-2.75391 z m -2.4375,3.83203 c -0.38672,0 -1.16015,-0.21094 -1.38281,-1.52344 -0.14062,-0.71484 -0.14062,-1.61718 -0.14062,-2.46093 0,-0.97266 0,-1.86329 0.19921,-2.56641 0.19922,-0.79688 0.8086,-1.17188 1.32422,-1.17188 0.45703,0 1.14844,0.28125 1.3711,1.30079 0.15234,0.67968 0.15234,1.6289 0.15234,2.4375 0,0.80859 0,1.71093 -0.12891,2.4375 -0.22265,1.32421 -0.97265,1.54687 -1.39453,1.54687 z m 0,0"
         style="fill:#000000;fill-opacity:1;fill-rule:nonzero;stroke:none" />
      <path
         id="path11"
         d="m 86.336883,225.59546 h -0.269531 c -0.03516,0.19922 -0.128907,0.85547 -0.246094,1.04297 -0.08203,0.11719 -0.761719,0.11719 -1.125,0.11719 h -2.214844 c 0.328125,-0.28125 1.054688,-1.04297 1.371094,-1.33594 1.816406,-1.66406 2.484375,-2.28516 2.484375,-3.46875 0,-1.38281 -1.089844,-2.29688 -2.472656,-2.29688 -1.394532,0 -2.203125,1.1836 -2.203125,2.20313 0,0.60937 0.527343,0.60937 0.5625,0.60937 0.246093,0 0.5625,-0.17578 0.5625,-0.5625 0,-0.32812 -0.234375,-0.55078 -0.5625,-0.55078 -0.105469,0 -0.128907,0 -0.164063,0.0117 0.222656,-0.82031 0.867188,-1.37109 1.640625,-1.37109 1.019531,0 1.640625,0.85547 1.640625,1.95703 0,1.00781 -0.585937,1.89844 -1.265625,2.66016 l -2.414062,2.70703 v 0.28125 h 4.359375 z m 5.947265,-1.81641 c 0,-0.99609 -0.05859,-1.96875 -0.492187,-2.87109 -0.492188,-0.99609 -1.347656,-1.25391 -1.933594,-1.25391 -0.691406,0 -1.546875,0.33985 -1.980469,1.33594 -0.339843,0.75 -0.457031,1.48828 -0.457031,2.78906 0,1.16016 0.08203,2.02735 0.515625,2.8711 0.457031,0.91406 1.289063,1.19531 1.910156,1.19531 1.042969,0 1.640625,-0.62109 1.980469,-1.3125 0.433594,-0.89062 0.457031,-2.0625 0.457031,-2.75391 z m -2.4375,3.83204 c -0.386718,0 -1.160156,-0.21094 -1.382812,-1.52344 -0.140625,-0.71485 -0.140625,-1.61719 -0.140625,-2.46094 0,-0.97266 0,-1.86328 0.199219,-2.56641 0.199218,-0.79687 0.808593,-1.17187 1.324218,-1.17187 0.457032,0 1.148438,0.28125 1.371094,1.30078 0.152344,0.67969 0.152344,1.62891 0.152344,2.4375 0,0.80859 0,1.71094 -0.128906,2.4375 -0.222657,1.32422 -0.972657,1.54688 -1.394532,1.54688 z m 6.38086,-7.67579 c 0,-0.26953 0,-0.28125 -0.246094,-0.28125 -0.28125,0.31641 -0.878906,0.76172 -2.109375,0.76172 v 0.35157 c 0.269531,0 0.867188,0 1.523438,-0.31641 v 6.22266 c 0,0.43359 -0.03516,0.57421 -1.078125,0.57421 h -0.375 v 0.35157 c 0.316406,-0.0234 1.476562,-0.0234 1.875,-0.0234 0.398437,0 1.546875,0 1.863281,0.0234 v -0.35157 h -0.363281 c -1.054688,0 -1.089844,-0.14062 -1.089844,-0.57421 z m 7.763672,3.84375 c 0,-0.99609 -0.0586,-1.96875 -0.49219,-2.87109 -0.49219,-0.99609 -1.34765,-1.25391 -1.93359,-1.25391 -0.69141,0 -1.54688,0.33985 -1.98047,1.33594 -0.339844,0.75 -0.457032,1.48828 -0.457032,2.78906 0,1.16016 0.08203,2.02735 0.515625,2.8711 0.457027,0.91406 1.289067,1.19531 1.910157,1.19531 1.04297,0 1.64062,-0.62109 1.98047,-1.3125 0.43359,-0.89062 0.45703,-2.0625 0.45703,-2.75391 z m -2.4375,3.83204 c -0.38672,0 -1.16016,-0.21094 -1.38281,-1.52344 -0.14063,-0.71485 -0.14063,-1.61719 -0.14063,-2.46094 0,-0.97266 0,-1.86328 0.19922,-2.56641 0.19922,-0.79687 0.80859,-1.17187 1.32422,-1.17187 0.45703,0 1.14844,0.28125 1.37109,1.30078 0.15235,0.67969 0.15235,1.62891 0.15235,2.4375 0,0.80859 0,1.71094 -0.12891,2.4375 -0.22266,1.32422 -0.97266,1.54688 -1.39453,1.54688 z m 0,0"
         style="fill:#000000;fill-opacity:1;fill-rule:nonzero;stroke:none" />
      <path
         id="path12"
         d="m 31.258758,288.0271 c -0.05859,0.19922 -0.05859,0.22266 -0.222656,0.44531 -0.269532,0.33985 -0.796875,0.85547 -1.359375,0.85547 -0.480469,0 -0.761719,-0.44531 -0.761719,-1.14843 0,-0.65625 0.375,-1.99219 0.597656,-2.4961 0.410156,-0.84375 0.972656,-1.26562 1.441406,-1.26562 0.785157,0 0.9375,0.97265 0.9375,1.0664 0,0.0117 -0.03516,0.17578 -0.04687,0.19922 z m 0.761719,-3.07031 c -0.128907,-0.30469 -0.445313,-0.78516 -1.066407,-0.78516 -1.359375,0 -2.8125,1.7461 -2.8125,3.51563 0,1.18359 0.691407,1.875 1.5,1.875 0.65625,0 1.21875,-0.51563 1.558594,-0.90235 0.117188,0.70313 0.679688,0.90235 1.042969,0.90235 0.351562,0 0.644531,-0.21094 0.855469,-0.64453 0.1875,-0.41016 0.363281,-1.13672 0.363281,-1.1836 0,-0.0586 -0.04687,-0.10547 -0.117188,-0.10547 -0.117187,0 -0.128906,0.0586 -0.175781,0.23438 -0.175781,0.71484 -0.398437,1.46484 -0.890625,1.46484 -0.351562,0 -0.375,-0.3164 -0.375,-0.55078 0,-0.28125 0.03516,-0.41015 0.140625,-0.8789 0.08203,-0.29297 0.152344,-0.5625 0.246094,-0.90235 0.433594,-1.79297 0.550781,-2.22656 0.550781,-2.29687 0,-0.16407 -0.140625,-0.29297 -0.316406,-0.29297 -0.375,0 -0.480469,0.41015 -0.503906,0.55078 z m 0,0"
         style="fill:#000000;fill-opacity:1;fill-rule:nonzero;stroke:none" />
      <path
         id="path13"
         d="m 43.346648,281.45288 c 0.01172,-0.0469 0.03516,-0.1289 0.03516,-0.1875 0,-0.11718 -0.128907,-0.11718 -0.152344,-0.11718 -0.01172,0 -0.433594,0.0352 -0.65625,0.0586 -0.199219,0.0117 -0.375,0.0352 -0.597656,0.0469 -0.28125,0.0234 -0.363282,0.0352 -0.363282,0.25782 0,0.11718 0.117188,0.11718 0.234375,0.11718 0.609375,0 0.609375,0.10547 0.609375,0.22266 0,0.082 -0.09375,0.43359 -0.140625,0.64453 l -0.292968,1.14844 c -0.117188,0.48047 -0.796875,3.19922 -0.84375,3.41016 -0.05859,0.29296 -0.05859,0.5039 -0.05859,0.65625 0,1.21875 0.679687,1.85156 1.453125,1.85156 1.394531,0 2.824219,-1.78125 2.824219,-3.51563 0,-1.10156 -0.621094,-1.875 -1.511719,-1.875 -0.632813,0 -1.183594,0.51563 -1.417969,0.75 z m -0.761718,7.875 c -0.375,0 -0.796875,-0.29297 -0.796875,-1.21875 0,-0.39843 0.03516,-0.62109 0.246093,-1.46484 0.04687,-0.15234 0.234375,-0.91406 0.28125,-1.06641 0.02344,-0.10547 0.726563,-1.16015 1.535157,-1.16015 0.527343,0 0.773437,0.51562 0.773437,1.13672 0,0.57421 -0.339844,1.93359 -0.632812,2.55468 -0.304688,0.64453 -0.855469,1.21875 -1.40625,1.21875 z m 0,0"
         style="fill:#000000;fill-opacity:1;fill-rule:nonzero;stroke:none" />
      <path
         id="path14"
         d="m 69.757781,288.0271 c -0.05859,0.19922 -0.05859,0.22266 -0.222656,0.44531 -0.269531,0.33985 -0.796875,0.85547 -1.359375,0.85547 -0.480469,0 -0.761719,-0.44531 -0.761719,-1.14843 0,-0.65625 0.375,-1.99219 0.597657,-2.4961 0.410156,-0.84375 0.972656,-1.26562 1.441406,-1.26562 0.785156,0 0.9375,0.97265 0.9375,1.0664 0,0.0117 -0.03516,0.17578 -0.04687,0.19922 z m 0.761719,-3.07031 c -0.128906,-0.30469 -0.445312,-0.78516 -1.066406,-0.78516 -1.359375,0 -2.8125,1.7461 -2.8125,3.51563 0,1.18359 0.691406,1.875 1.5,1.875 0.65625,0 1.21875,-0.51563 1.558594,-0.90235 0.117187,0.70313 0.679687,0.90235 1.042968,0.90235 0.351563,0 0.644532,-0.21094 0.855469,-0.64453 0.1875,-0.41016 0.363281,-1.13672 0.363281,-1.1836 0,-0.0586 -0.04687,-0.10547 -0.117187,-0.10547 -0.117188,0 -0.128906,0.0586 -0.175781,0.23438 -0.175782,0.71484 -0.398438,1.46484 -0.890625,1.46484 -0.351563,0 -0.375,-0.3164 -0.375,-0.55078 0,-0.28125 0.03516,-0.41015 0.140625,-0.8789 0.08203,-0.29297 0.152343,-0.5625 0.246093,-0.90235 0.433594,-1.79297 0.550782,-2.22656 0.550782,-2.29687 0,-0.16407 -0.140625,-0.29297 -0.316407,-0.29297 -0.375,0 -0.480468,0.41015 -0.503906,0.55078 z m 0,0"
         style="fill:#000000;fill-opacity:1;fill-rule:nonzero;stroke:none" />
      <path
         id="path15"
         d="m 74.55368,283.4773 c 0.128906,-0.11719 0.457031,-0.375 0.585937,-0.49219 0.492188,-0.45703 0.960938,-0.89063 0.960938,-1.61719 0,-0.94922 -0.796875,-1.55859 -1.792969,-1.55859 -0.949219,0 -1.582031,0.72656 -1.582031,1.42969 0,0.39843 0.316406,0.44531 0.421875,0.44531 0.164062,0 0.410156,-0.11719 0.410156,-0.42188 0,-0.41015 -0.398438,-0.41015 -0.492188,-0.41015 0.234375,-0.58594 0.773438,-0.78516 1.160157,-0.78516 0.738281,0 1.125,0.63281 1.125,1.30078 0,0.83203 -0.585938,1.42969 -1.523438,2.40235 l -1.007812,1.03125 c -0.09375,0.0937 -0.09375,0.10546 -0.09375,0.30468 h 3.152343 l 0.222657,-1.42968 h -0.246094 c -0.02344,0.16406 -0.08203,0.5625 -0.175781,0.71484 -0.04687,0.0586 -0.65625,0.0586 -0.785157,0.0586 h -1.417968 z m 0,0"
         style="fill:#000000;fill-opacity:1;fill-rule:nonzero;stroke:none" />
      <path
         id="path16"
         d="m 83.495086,286.67945 h 3.304687 c 0.164063,0 0.375,0 0.375,-0.21094 0,-0.22266 -0.199218,-0.22266 -0.375,-0.22266 h -3.304687 v -3.30469 c 0,-0.16406 0,-0.38671 -0.210938,-0.38671 -0.234375,0 -0.234375,0.21093 -0.234375,0.38671 v 3.30469 h -3.292968 c -0.175782,0 -0.386719,0 -0.386719,0.21094 0,0.22266 0.199219,0.22266 0.386719,0.22266 h 3.292968 v 3.30468 c 0,0.16407 0,0.38672 0.222657,0.38672 0.222656,0 0.222656,-0.21094 0.222656,-0.38672 z m 0,0"
         style="fill:#000000;fill-opacity:1;fill-rule:nonzero;stroke:none" />
      <path
         id="path17"
         d="m 92.287078,281.45288 c 0.01172,-0.0469 0.03516,-0.1289 0.03516,-0.1875 0,-0.11718 -0.128906,-0.11718 -0.152343,-0.11718 -0.01172,0 -0.433594,0.0352 -0.65625,0.0586 -0.199219,0.0117 -0.375,0.0352 -0.597657,0.0469 -0.28125,0.0234 -0.363281,0.0352 -0.363281,0.25782 0,0.11718 0.117188,0.11718 0.234375,0.11718 0.609375,0 0.609375,0.10547 0.609375,0.22266 0,0.082 -0.09375,0.43359 -0.140625,0.64453 l -0.292969,1.14844 c -0.117187,0.48047 -0.796875,3.19922 -0.84375,3.41016 -0.05859,0.29296 -0.05859,0.5039 -0.05859,0.65625 0,1.21875 0.679687,1.85156 1.453125,1.85156 1.394531,0 2.824218,-1.78125 2.824218,-3.51563 0,-1.10156 -0.621093,-1.875 -1.511718,-1.875 -0.632813,0 -1.183594,0.51563 -1.417969,0.75 z m -0.761719,7.875 c -0.375,0 -0.796875,-0.29297 -0.796875,-1.21875 0,-0.39843 0.03516,-0.62109 0.246094,-1.46484 0.04687,-0.15234 0.234375,-0.91406 0.28125,-1.06641 0.02344,-0.10547 0.726563,-1.16015 1.535156,-1.16015 0.527344,0 0.773438,0.51562 0.773438,1.13672 0,0.57421 -0.339844,1.93359 -0.632813,2.55468 -0.304687,0.64453 -0.855468,1.21875 -1.40625,1.21875 z m 0,0"
         style="fill:#000000;fill-opacity:1;fill-rule:nonzero;stroke:none" />
      <path
         id="path18"
         d="m 126.40622,288.0271 c -0.0586,0.19922 -0.0586,0.22266 -0.22266,0.44531 -0.26953,0.33985 -0.79687,0.85547 -1.35937,0.85547 -0.48047,0 -0.76172,-0.44531 -0.76172,-1.14843 0,-0.65625 0.375,-1.99219 0.59766,-2.4961 0.41015,-0.84375 0.97265,-1.26562 1.4414,-1.26562 0.78516,0 0.9375,0.97265 0.9375,1.0664 0,0.0117 -0.0352,0.17578 -0.0469,0.19922 z m 0.76172,-3.07031 c -0.12891,-0.30469 -0.44531,-0.78516 -1.06641,-0.78516 -1.35937,0 -2.8125,1.7461 -2.8125,3.51563 0,1.18359 0.69141,1.875 1.5,1.875 0.65625,0 1.21875,-0.51563 1.5586,-0.90235 0.11718,0.70313 0.67968,0.90235 1.04296,0.90235 0.35157,0 0.64454,-0.21094 0.85547,-0.64453 0.1875,-0.41016 0.36328,-1.13672 0.36328,-1.1836 0,-0.0586 -0.0469,-0.10547 -0.11718,-0.10547 -0.11719,0 -0.12891,0.0586 -0.17578,0.23438 -0.17579,0.71484 -0.39844,1.46484 -0.89063,1.46484 -0.35156,0 -0.375,-0.3164 -0.375,-0.55078 0,-0.28125 0.0352,-0.41015 0.14063,-0.8789 0.082,-0.29297 0.15234,-0.5625 0.24609,-0.90235 0.43359,-1.79297 0.55078,-2.22656 0.55078,-2.29687 0,-0.16407 -0.14062,-0.29297 -0.31641,-0.29297 -0.375,0 -0.48046,0.41015 -0.5039,0.55078 z m 0,0"
         style="fill:#000000;fill-opacity:1;fill-rule:nonzero;stroke:none" />
      <path
         id="path19"
         d="m 135.41208,286.67945 h 3.30469 c 0.16406,0 0.375,0 0.375,-0.21094 0,-0.22266 -0.19922,-0.22266 -0.375,-0.22266 h -3.30469 v -3.30469 c 0,-0.16406 0,-0.38671 -0.21094,-0.38671 -0.23437,0 -0.23437,0.21093 -0.23437,0.38671 v 3.30469 h -3.29297 c -0.17578,0 -0.38672,0 -0.38672,0.21094 0,0.22266 0.19922,0.22266 0.38672,0.22266 h 3.29297 v 3.30468 c 0,0.16407 0,0.38672 0.22265,0.38672 0.22266,0 0.22266,-0.21094 0.22266,-0.38672 z m 0,0"
         style="fill:#000000;fill-opacity:1;fill-rule:nonzero;stroke:none" />
      <path
         id="path20"
         d="m 144.20114,281.45288 c 0.0117,-0.0469 0.0352,-0.1289 0.0352,-0.1875 0,-0.11718 -0.12891,-0.11718 -0.15235,-0.11718 -0.0117,0 -0.43359,0.0352 -0.65625,0.0586 -0.19922,0.0117 -0.375,0.0352 -0.59765,0.0469 -0.28125,0.0234 -0.36328,0.0352 -0.36328,0.25782 0,0.11718 0.11718,0.11718 0.23437,0.11718 0.60938,0 0.60938,0.10547 0.60938,0.22266 0,0.082 -0.0937,0.43359 -0.14063,0.64453 l -0.29297,1.14844 c -0.11719,0.48047 -0.79687,3.19922 -0.84375,3.41016 -0.0586,0.29296 -0.0586,0.5039 -0.0586,0.65625 0,1.21875 0.67969,1.85156 1.45312,1.85156 1.39453,0 2.82422,-1.78125 2.82422,-3.51563 0,-1.10156 -0.62109,-1.875 -1.51172,-1.875 -0.63281,0 -1.18359,0.51563 -1.41797,0.75 z m -0.76172,7.875 c -0.375,0 -0.79687,-0.29297 -0.79687,-1.21875 0,-0.39843 0.0351,-0.62109 0.24609,-1.46484 0.0469,-0.15234 0.23438,-0.91406 0.28125,-1.06641 0.0234,-0.10547 0.72656,-1.16015 1.53516,-1.16015 0.52734,0 0.77343,0.51562 0.77343,1.13672 0,0.57421 -0.33984,1.93359 -0.63281,2.55468 -0.30469,0.64453 -0.85547,1.21875 -1.40625,1.21875 z m 0,0"
         style="fill:#000000;fill-opacity:1;fill-rule:nonzero;stroke:none" />
      <path
         id="path21"
         d="m 148.66305,283.4773 c 0.12891,-0.11719 0.45704,-0.375 0.58594,-0.49219 0.49219,-0.45703 0.96094,-0.89063 0.96094,-1.61719 0,-0.94922 -0.79688,-1.55859 -1.79297,-1.55859 -0.94922,0 -1.58203,0.72656 -1.58203,1.42969 0,0.39843 0.31641,0.44531 0.42187,0.44531 0.16407,0 0.41016,-0.11719 0.41016,-0.42188 0,-0.41015 -0.39844,-0.41015 -0.49219,-0.41015 0.23438,-0.58594 0.77344,-0.78516 1.16016,-0.78516 0.73828,0 1.125,0.63281 1.125,1.30078 0,0.83203 -0.58594,1.42969 -1.52344,2.40235 l -1.00781,1.03125 c -0.0937,0.0937 -0.0937,0.10546 -0.0937,0.30468 h 3.15234 l 0.22266,-1.42968 h -0.24609 c -0.0234,0.16406 -0.082,0.5625 -0.17579,0.71484 -0.0469,0.0586 -0.65625,0.0586 -0.78515,0.0586 h -1.41797 z m 0,0"
         style="fill:#000000;fill-opacity:1;fill-rule:nonzero;stroke:none" />
      <path
         id="path22"
         d="m -80.157258,327.73609 c 0,-0.26954 0,-0.28125 -0.246094,-0.28125 -0.28125,0.3164 -0.878906,0.76171 -2.109375,0.76171 v 0.35157 c 0.269532,0 0.867188,0 1.523438,-0.31641 v 6.22266 c 0,0.43359 -0.03516,0.57422 -1.078125,0.57422 h -0.375 v 0.35156 c 0.316406,-0.0234 1.476562,-0.0234 1.875,-0.0234 0.398437,0 1.546875,0 1.863281,0.0234 v -0.35156 h -0.363281 c -1.054688,0 -1.089844,-0.14063 -1.089844,-0.57422 z m 5.853516,0 c 0,-0.26954 0,-0.28125 -0.246094,-0.28125 -0.28125,0.3164 -0.878906,0.76171 -2.109375,0.76171 v 0.35157 c 0.269531,0 0.867188,0 1.523438,-0.31641 v 6.22266 c 0,0.43359 -0.03516,0.57422 -1.078125,0.57422 h -0.375 v 0.35156 c 0.316406,-0.0234 1.476562,-0.0234 1.875,-0.0234 0.398437,0 1.546875,0 1.863281,0.0234 v -0.35156 h -0.363281 c -1.054688,0 -1.089844,-0.14063 -1.089844,-0.57422 z m 5.853515,0 c 0,-0.26954 0,-0.28125 -0.246093,-0.28125 -0.28125,0.3164 -0.878907,0.76171 -2.109375,0.76171 v 0.35157 c 0.269531,0 0.867187,0 1.523437,-0.31641 v 6.22266 c 0,0.43359 -0.03516,0.57422 -1.078125,0.57422 h -0.375 v 0.35156 c 0.316406,-0.0234 1.476563,-0.0234 1.875,-0.0234 0.398438,0 1.546875,0 1.863281,0.0234 v -0.35156 h -0.363281 c -1.054687,0 -1.089844,-0.14063 -1.089844,-0.57422 z m 0,0"
         style="fill:#000000;fill-opacity:1;fill-rule:nonzero;stroke:none" />
      <path
         id="path23"
         d="m 294.68161,327.73609 c 0,-0.26954 0,-0.28125 -0.24609,-0.28125 -0.28125,0.3164 -0.87891,0.76171 -2.10938,0.76171 v 0.35157 c 0.26953,0 0.86719,0 1.52344,-0.31641 v 6.22266 c 0,0.43359 -0.0352,0.57422 -1.07813,0.57422 h -0.375 v 0.35156 c 0.31641,-0.0234 1.47657,-0.0234 1.875,-0.0234 0.39844,0 1.54688,0 1.86328,0.0234 v -0.35156 h -0.36328 c -1.05468,0 -1.08984,-0.14063 -1.08984,-0.57422 z m 5.85352,0 c 0,-0.26954 0,-0.28125 -0.2461,-0.28125 -0.28125,0.3164 -0.8789,0.76171 -2.10937,0.76171 v 0.35157 c 0.26953,0 0.86718,0 1.52343,-0.31641 v 6.22266 c 0,0.43359 -0.0351,0.57422 -1.07812,0.57422 h -0.375 v 0.35156 c 0.31641,-0.0234 1.47656,-0.0234 1.875,-0.0234 0.39844,0 1.54687,0 1.86328,0.0234 v -0.35156 h -0.36328 c -1.05469,0 -1.08984,-0.14063 -1.08984,-0.57422 z m 0,0"
         style="fill:#000000;fill-opacity:1;fill-rule:nonzero;stroke:none" />
      <path
         id="path24"
         d="m 33.508758,343.62671 c 0,-0.26953 0,-0.28125 -0.246094,-0.28125 -0.28125,0.31641 -0.878906,0.76172 -2.109375,0.76172 v 0.35156 c 0.269531,0 0.867188,0 1.523438,-0.3164 v 6.22265 c 0,0.4336 -0.03516,0.57422 -1.078125,0.57422 h -0.375 v 0.35156 c 0.316406,-0.0234 1.476562,-0.0234 1.875,-0.0234 0.398437,0 1.546875,0 1.863281,0.0234 v -0.35156 h -0.363281 c -1.054688,0 -1.089844,-0.14062 -1.089844,-0.57422 z m 5.853515,0 c 0,-0.26953 0,-0.28125 -0.246093,-0.28125 -0.28125,0.31641 -0.878907,0.76172 -2.109375,0.76172 v 0.35156 c 0.269531,0 0.867187,0 1.523437,-0.3164 v 6.22265 c 0,0.4336 -0.03516,0.57422 -1.078125,0.57422 h -0.375 v 0.35156 c 0.316406,-0.0234 1.476563,-0.0234 1.875,-0.0234 0.398438,0 1.546875,0 1.863281,0.0234 v -0.35156 h -0.363281 c -1.054687,0 -1.089844,-0.14062 -1.089844,-0.57422 z m 0,0"
         style="fill:#000000;fill-opacity:1;fill-rule:nonzero;stroke:none" />
      <path
         id="path25"
         d="m 24.171844,405.97925 c 0,-0.98437 0.269531,-3.25781 2.390625,-4.76953 0.152344,-0.11719 0.164062,-0.12891 0.164062,-0.33984 0,-0.28125 -0.01172,-0.29297 -0.304687,-0.29297 h -0.1875 c -2.578125,1.38281 -3.492188,3.64453 -3.492188,5.40234 v 5.14453 c 0,0.30469 0.01172,0.31641 0.328125,0.31641 h 0.773438 c 0.316406,0 0.328125,-0.0117 0.328125,-0.31641 z m 0,5.54297 c 0,-0.30469 -0.01172,-0.31641 -0.328125,-0.31641 h -0.773438 c -0.316406,0 -0.328125,0.0117 -0.328125,0.31641 v 3.1875 c 0,0.30469 0.01172,0.31641 0.328125,0.31641 h 0.773438 c 0.316406,0 0.328125,-0.0117 0.328125,-0.31641 z m 0,3.58594 c 0,-0.30469 -0.01172,-0.31641 -0.328125,-0.31641 h -0.773438 c -0.316406,0 -0.328125,0.0117 -0.328125,0.31641 v 3.1875 c 0,0.30468 0.01172,0.3164 0.328125,0.3164 h 0.773438 c 0.316406,0 0.328125,-0.0117 0.328125,-0.3164 z m -1.429688,24.70605 c 0,0.30469 0.01172,0.31641 0.328125,0.31641 h 0.773438 c 0.316406,0 0.328125,-0.0117 0.328125,-0.31641 v -5.05078 c 0,-1.44141 -0.609375,-3.87891 -3.28125,-5.50781 2.695312,-1.64063 3.28125,-4.10157 3.28125,-5.50782 v -5.05078 c 0,-0.30468 -0.01172,-0.3164 -0.328125,-0.3164 h -0.773438 c -0.316406,0 -0.328125,0.0117 -0.328125,0.3164 v 5.0625 c 0,0.9961 -0.222656,3.49219 -2.414062,5.15625 -0.140625,0.11719 -0.152344,0.12891 -0.152344,0.33985 0,0.21093 0.01172,0.22265 0.152344,0.33984 0.304687,0.23438 1.136719,0.86719 1.710937,2.07422 0.457032,0.96094 0.703125,2.01562 0.703125,3.08203 z m 1.429688,0.40137 c 0,-0.30469 -0.01172,-0.31641 -0.328125,-0.31641 h -0.773438 c -0.316406,0 -0.328125,0.0117 -0.328125,0.31641 v 3.1875 c 0,0.30469 0.01172,0.3164 0.328125,0.3164 h 0.773438 c 0.316406,0 0.328125,-0.0117 0.328125,-0.3164 z m 0,3.58594 c 0,-0.30469 -0.01172,-0.31641 -0.328125,-0.31641 h -0.773438 c -0.316406,0 -0.328125,0.0117 -0.328125,0.31641 v 3.1875 c 0,0.30468 0.01172,0.3164 0.328125,0.3164 h 0.773438 c 0.316406,0 0.328125,-0.0117 0.328125,-0.3164 z m 2.25,14.13574 c 0.292969,0 0.304687,-0.0117 0.304687,-0.28125 0,-0.22266 -0.01172,-0.23438 -0.05859,-0.26953 -0.363282,-0.26953 -1.230469,-0.87891 -1.792969,-1.98047 -0.46875,-0.91406 -0.703125,-1.82813 -0.703125,-2.8711 v -5.14453 c 0,-0.30468 -0.01172,-0.3164 -0.328125,-0.3164 h -0.773438 c -0.316406,0 -0.328125,0.0117 -0.328125,0.3164 v 5.14453 c 0,1.76954 0.914063,4.03125 3.492188,5.40235 z m 0,0"
         style="fill:#000000;fill-opacity:1;fill-rule:nonzero;stroke:none" />
      <path
         id="path26"
         d="m 32.665008,416.90698 c 0,-0.0351 0,-0.0586 -0.210938,-0.26953 -1.195312,-1.20703 -1.863281,-3.17578 -1.863281,-5.61328 0,-2.32031 0.5625,-4.3125 1.945313,-5.73047 0.128906,-0.10547 0.128906,-0.1289 0.128906,-0.16406 0,-0.0703 -0.07031,-0.0937 -0.117188,-0.0937 -0.152343,0 -1.136718,0.85547 -1.722656,2.02734 -0.609375,1.20704 -0.878906,2.4961 -0.878906,3.96094 0,1.06641 0.164062,2.48438 0.785156,3.76172 0.703125,1.44141 1.6875,2.21484 1.816406,2.21484 0.04687,0 0.117188,-0.0234 0.117188,-0.0937 z m 0,0"
         style="fill:#000000;fill-opacity:1;fill-rule:nonzero;stroke:none" />
      <path
         id="path27"
         d="m 38.987273,409.12573 c -0.375,0.0703 -0.515625,0.35157 -0.515625,0.58594 0,0.28125 0.222657,0.375 0.386719,0.375 0.363281,0 0.609375,-0.30469 0.609375,-0.63281 0,-0.49219 -0.574219,-0.72656 -1.078125,-0.72656 -0.726562,0 -1.125,0.71484 -1.242187,0.94922 -0.269532,-0.90235 -1.007813,-0.94922 -1.230469,-0.94922 -1.21875,0 -1.863281,1.57031 -1.863281,1.82812 0,0.0469 0.04687,0.10547 0.128906,0.10547 0.105469,0 0.128906,-0.0703 0.152344,-0.11719 0.398437,-1.32422 1.207031,-1.57031 1.546875,-1.57031 0.539062,0 0.644531,0.49219 0.644531,0.78516 0,0.25781 -0.07031,0.53906 -0.210938,1.11328 l -0.410156,1.6289 c -0.175781,0.72657 -0.527344,1.38282 -1.160156,1.38282 -0.05859,0 -0.351563,0 -0.609375,-0.15235 0.433594,-0.0937 0.527344,-0.44531 0.527344,-0.58593 0,-0.2461 -0.175782,-0.38672 -0.398438,-0.38672 -0.292969,0 -0.597656,0.24609 -0.597656,0.63281 0,0.50391 0.5625,0.72656 1.066406,0.72656 0.574219,0 0.984375,-0.45703 1.230469,-0.9375 0.199219,0.70313 0.796875,0.9375 1.230469,0.9375 1.230468,0 1.875,-1.55859 1.875,-1.82812 0,-0.0586 -0.04687,-0.10547 -0.128907,-0.10547 -0.105468,0 -0.117187,0.0586 -0.152343,0.15234 -0.316407,1.05469 -1.019532,1.54688 -1.546875,1.54688 -0.421875,0 -0.65625,-0.31641 -0.65625,-0.8086 0,-0.25781 0.05859,-0.44531 0.246093,-1.24218 l 0.421875,-1.61719 c 0.175782,-0.72656 0.585938,-1.24219 1.125,-1.24219 0.03516,0 0.363282,0 0.609375,0.15234 z m 0,0"
         style="fill:#000000;fill-opacity:1;fill-rule:nonzero;stroke:none" />
      <path
         id="path28"
         d="m 47.404266,411.23511 h 3.304687 c 0.164063,0 0.375,0 0.375,-0.21094 0,-0.22265 -0.199219,-0.22265 -0.375,-0.22265 h -3.304687 v -3.30469 c 0,-0.16406 0,-0.38672 -0.210938,-0.38672 -0.234375,0 -0.234375,0.21094 -0.234375,0.38672 v 3.30469 h -3.292969 c -0.175781,0 -0.386718,0 -0.386718,0.21093 0,0.22266 0.199218,0.22266 0.386718,0.22266 h 3.292969 v 3.30469 c 0,0.16406 0,0.38672 0.222656,0.38672 0.222657,0 0.222657,-0.21094 0.222657,-0.38672 z m 0,0"
         style="fill:#000000;fill-opacity:1;fill-rule:nonzero;stroke:none" />
      <path
         id="path29"
         d="m 57.538055,415.33667 c -0.316407,0.45703 -0.785157,0.86719 -1.371094,0.86719 -0.140625,0 -0.714844,-0.0234 -0.902344,-0.57422 0.04687,0.0117 0.105469,0.0117 0.128906,0.0117 0.351563,0 0.597657,-0.31641 0.597657,-0.58594 0,-0.28125 -0.234375,-0.375 -0.410157,-0.375 -0.1875,0 -0.609375,0.14063 -0.609375,0.72656 0,0.60938 0.515625,1.03125 1.195313,1.03125 1.195312,0 2.402344,-1.10156 2.742187,-2.42578 l 1.171875,-4.66406 c 0.01172,-0.0586 0.03516,-0.12891 0.03516,-0.19922 0,-0.17578 -0.152344,-0.30469 -0.328125,-0.30469 -0.105469,0 -0.363282,0.0469 -0.457032,0.41016 l -0.878906,3.51563 c -0.05859,0.21093 -0.05859,0.23437 -0.152344,0.375 -0.246093,0.32812 -0.644531,0.73828 -1.207031,0.73828 -0.679687,0 -0.738281,-0.65625 -0.738281,-0.98438 0,-0.67969 0.328125,-1.60547 0.644531,-2.46094 0.140625,-0.35156 0.210938,-0.51562 0.210938,-0.75 0,-0.5039 -0.363282,-0.96093 -0.949219,-0.96093 -1.101563,0 -1.535156,1.73437 -1.535156,1.82812 0,0.0469 0.04687,0.10547 0.128906,0.10547 0.105469,0 0.117187,-0.0469 0.164062,-0.21094 0.292969,-1.00781 0.738282,-1.47656 1.207032,-1.47656 0.105468,0 0.316406,0 0.316406,0.38672 0,0.31641 -0.140625,0.65625 -0.316406,1.11328 -0.585938,1.57031 -0.585938,1.95703 -0.585938,2.25 0,1.13672 0.808594,1.39453 1.40625,1.39453 0.351563,0 0.785156,-0.10547 1.195313,-0.55078 l 0.01172,0.0117 c -0.175781,0.70312 -0.292968,1.17187 -0.714843,1.75781 z m 0,0"
         style="fill:#000000;fill-opacity:1;fill-rule:nonzero;stroke:none" />
      <path
         id="path30"
         d="m 63.910125,411.02417 c 0,-0.91406 -0.128906,-2.39062 -0.796875,-3.77344 -0.703125,-1.4414 -1.675781,-2.21484 -1.816406,-2.21484 -0.04687,0 -0.105469,0.0234 -0.105469,0.0937 0,0.0352 0,0.0586 0.199219,0.26953 1.195312,1.20703 1.875,3.17578 1.875,5.61328 0,2.32032 -0.5625,4.3125 -1.957031,5.73047 -0.117188,0.10547 -0.117188,0.12891 -0.117188,0.16406 0,0.0703 0.05859,0.0937 0.105469,0.0937 0.164062,0 1.136719,-0.85546 1.722656,-2.02734 0.609375,-1.21875 0.890625,-2.51953 0.890625,-3.94922 z m 5.068359,5.88281 c 0,-0.0351 0,-0.0586 -0.210937,-0.26953 -1.195313,-1.20703 -1.863281,-3.17578 -1.863281,-5.61328 0,-2.32031 0.5625,-4.3125 1.945312,-5.73047 0.128906,-0.10547 0.128906,-0.1289 0.128906,-0.16406 0,-0.0703 -0.07031,-0.0937 -0.117187,-0.0937 -0.152344,0 -1.136719,0.85547 -1.722656,2.02734 -0.609375,1.20704 -0.878907,2.4961 -0.878907,3.96094 0,1.06641 0.164063,2.48438 0.785157,3.76172 0.703125,1.44141 1.6875,2.21484 1.816406,2.21484 0.04687,0 0.117187,-0.0234 0.117187,-0.0937 z m 0,0"
         style="fill:#000000;fill-opacity:1;fill-rule:nonzero;stroke:none" />
      <path
         id="path31"
         d="m 75.29782,409.12573 c -0.375,0.0703 -0.515625,0.35157 -0.515625,0.58594 0,0.28125 0.222657,0.375 0.386719,0.375 0.363281,0 0.609375,-0.30469 0.609375,-0.63281 0,-0.49219 -0.574219,-0.72656 -1.078125,-0.72656 -0.726562,0 -1.125,0.71484 -1.242187,0.94922 -0.269532,-0.90235 -1.007813,-0.94922 -1.230469,-0.94922 -1.21875,0 -1.863281,1.57031 -1.863281,1.82812 0,0.0469 0.04687,0.10547 0.128906,0.10547 0.105469,0 0.128906,-0.0703 0.152344,-0.11719 0.398437,-1.32422 1.207031,-1.57031 1.546875,-1.57031 0.539062,0 0.644531,0.49219 0.644531,0.78516 0,0.25781 -0.07031,0.53906 -0.210938,1.11328 l -0.410156,1.6289 c -0.175781,0.72657 -0.527344,1.38282 -1.160156,1.38282 -0.05859,0 -0.351563,0 -0.609375,-0.15235 0.433594,-0.0937 0.527344,-0.44531 0.527344,-0.58593 0,-0.2461 -0.175782,-0.38672 -0.398438,-0.38672 -0.292969,0 -0.597656,0.24609 -0.597656,0.63281 0,0.50391 0.5625,0.72656 1.066406,0.72656 0.574219,0 0.984375,-0.45703 1.230469,-0.9375 0.199219,0.70313 0.796875,0.9375 1.230469,0.9375 1.230468,0 1.875,-1.55859 1.875,-1.82812 0,-0.0586 -0.04687,-0.10547 -0.128907,-0.10547 -0.105468,0 -0.117187,0.0586 -0.152343,0.15234 -0.316407,1.05469 -1.019532,1.54688 -1.546875,1.54688 -0.421875,0 -0.65625,-0.31641 -0.65625,-0.8086 0,-0.25781 0.05859,-0.44531 0.246093,-1.24218 l 0.421875,-1.61719 c 0.175782,-0.72656 0.585938,-1.24219 1.125,-1.24219 0.03516,0 0.363282,0 0.609375,0.15234 z m 0,0"
         style="fill:#000000;fill-opacity:1;fill-rule:nonzero;stroke:none" />
      <path
         id="path32"
         d="m 83.717742,411.23511 h 3.304688 c 0.164062,0 0.375,0 0.375,-0.21094 0,-0.22265 -0.199219,-0.22265 -0.375,-0.22265 h -3.304688 v -3.30469 c 0,-0.16406 0,-0.38672 -0.210937,-0.38672 -0.234375,0 -0.234375,0.21094 -0.234375,0.38672 v 3.30469 h -3.292969 c -0.175781,0 -0.386719,0 -0.386719,0.21093 0,0.22266 0.199219,0.22266 0.386719,0.22266 h 3.292969 v 3.30469 c 0,0.16406 0,0.38672 0.222656,0.38672 0.222656,0 0.222656,-0.21094 0.222656,-0.38672 z m 0,0"
         style="fill:#000000;fill-opacity:1;fill-rule:nonzero;stroke:none" />
      <path
         id="path33"
         d="m 93.848602,415.33667 c -0.316407,0.45703 -0.785157,0.86719 -1.371094,0.86719 -0.140625,0 -0.714844,-0.0234 -0.902344,-0.57422 0.04687,0.0117 0.105469,0.0117 0.128906,0.0117 0.351563,0 0.597657,-0.31641 0.597657,-0.58594 0,-0.28125 -0.234375,-0.375 -0.410157,-0.375 -0.1875,0 -0.609375,0.14063 -0.609375,0.72656 0,0.60938 0.515625,1.03125 1.195313,1.03125 1.195312,0 2.402344,-1.10156 2.742187,-2.42578 l 1.171875,-4.66406 c 0.01172,-0.0586 0.03516,-0.12891 0.03516,-0.19922 0,-0.17578 -0.152344,-0.30469 -0.328125,-0.30469 -0.105469,0 -0.363282,0.0469 -0.457032,0.41016 l -0.878906,3.51563 c -0.05859,0.21093 -0.05859,0.23437 -0.152344,0.375 -0.246093,0.32812 -0.644531,0.73828 -1.207031,0.73828 -0.679687,0 -0.738281,-0.65625 -0.738281,-0.98438 0,-0.67969 0.328125,-1.60547 0.644531,-2.46094 0.140625,-0.35156 0.210938,-0.51562 0.210938,-0.75 0,-0.5039 -0.363282,-0.96093 -0.949219,-0.96093 -1.101563,0 -1.535156,1.73437 -1.535156,1.82812 0,0.0469 0.04687,0.10547 0.128906,0.10547 0.105469,0 0.117187,-0.0469 0.164062,-0.21094 0.292969,-1.00781 0.738282,-1.47656 1.207032,-1.47656 0.105468,0 0.316406,0 0.316406,0.38672 0,0.31641 -0.140625,0.65625 -0.316406,1.11328 -0.585938,1.57031 -0.585938,1.95703 -0.585938,2.25 0,1.13672 0.808594,1.39453 1.40625,1.39453 0.351563,0 0.785156,-0.10547 1.195313,-0.55078 l 0.01172,0.0117 c -0.175781,0.70312 -0.292968,1.17187 -0.714843,1.75781 z m 0,0"
         style="fill:#000000;fill-opacity:1;fill-rule:nonzero;stroke:none" />
      <path
         id="path34"
         d="m 104.27243,411.23511 h 3.30469 c 0.16406,0 0.375,0 0.375,-0.21094 0,-0.22265 -0.19922,-0.22265 -0.375,-0.22265 h -3.30469 v -3.30469 c 0,-0.16406 0,-0.38672 -0.21094,-0.38672 -0.23437,0 -0.23437,0.21094 -0.23437,0.38672 v 3.30469 h -3.29297 c -0.17578,0 -0.38672,0 -0.38672,0.21093 0,0.22266 0.19922,0.22266 0.38672,0.22266 h 3.29297 v 3.30469 c 0,0.16406 0,0.38672 0.22265,0.38672 0.22266,0 0.22266,-0.21094 0.22266,-0.38672 z m 0,0"
         style="fill:#000000;fill-opacity:1;fill-rule:nonzero;stroke:none" />
      <path
         id="path35"
         d="m 112.7861,413.02808 c 0.50391,-0.58594 0.92578,-0.94922 1.52344,-1.48828 0.71484,-0.6211 1.03125,-0.92578 1.19531,-1.10157 0.84375,-0.82031 1.25391,-1.52343 1.25391,-1.61718 0,-0.0937 -0.0937,-0.0937 -0.11719,-0.0937 -0.082,0 -0.10547,0.0469 -0.16406,0.1289 -0.30469,0.51563 -0.58594,0.77344 -0.90235,0.77344 -0.24609,0 -0.375,-0.11719 -0.60937,-0.39844 -0.24609,-0.29297 -0.45703,-0.5039 -0.79688,-0.5039 -0.8789,0 -1.39453,1.08984 -1.39453,1.33593 0,0.0352 0.0117,0.11719 0.11719,0.11719 0.0937,0 0.10547,-0.0469 0.14063,-0.14062 0.19921,-0.46875 0.77343,-0.5625 1.00781,-0.5625 0.24609,0 0.48047,0.0937 0.73828,0.19922 0.45703,0.1875 0.64453,0.1875 0.76172,0.1875 0.082,0 0.1289,0 0.1875,-0.0117 -0.38672,0.46875 -1.03125,1.04297 -1.57031,1.53515 l -1.20704,1.10157 c -0.72656,0.75 -1.17187,1.45312 -1.17187,1.53515 0,0.0703 0.0586,0.0937 0.12891,0.0937 0.0703,0 0.082,-0.0117 0.16406,-0.15234 0.19922,-0.30469 0.57422,-0.73828 1.01953,-0.73828 0.24609,0 0.375,0.082 0.60937,0.375 0.22266,0.26953 0.4336,0.51562 0.8086,0.51562 1.17187,0 1.85156,-1.51172 1.85156,-1.79297 0,-0.0469 -0.0117,-0.11718 -0.14062,-0.11718 -0.0937,0 -0.10547,0.0469 -0.14063,0.16406 -0.25781,0.70312 -0.97266,0.99609 -1.42969,0.99609 -0.25781,0 -0.49218,-0.082 -0.75,-0.1875 -0.46875,-0.19922 -0.60937,-0.19922 -0.76172,-0.19922 -0.11718,0 -0.24609,0 -0.35156,0.0469 z m 0,0"
         style="fill:#000000;fill-opacity:1;fill-rule:nonzero;stroke:none" />
      <path
         id="path36"
         d="m 120.60837,411.02417 c 0,-0.91406 -0.12891,-2.39062 -0.79688,-3.77344 -0.70312,-1.4414 -1.67578,-2.21484 -1.8164,-2.21484 -0.0469,0 -0.10547,0.0234 -0.10547,0.0937 0,0.0352 0,0.0586 0.19922,0.26953 1.19531,1.20703 1.875,3.17578 1.875,5.61328 0,2.32032 -0.5625,4.3125 -1.95704,5.73047 -0.11718,0.10547 -0.11718,0.12891 -0.11718,0.16406 0,0.0703 0.0586,0.0937 0.10547,0.0937 0.16406,0 1.13671,-0.85546 1.72265,-2.02734 0.60938,-1.21875 0.89063,-2.51953 0.89063,-3.94922 z m 12.57715,-0.89062 c 0.16406,0 0.375,0 0.375,-0.22266 0,-0.22266 -0.19922,-0.22266 -0.375,-0.22266 h -7.04297 c -0.17578,0 -0.38672,0 -0.38672,0.21094 0,0.23438 0.19922,0.23438 0.38672,0.23438 z m 0,2.21484 c 0.16406,0 0.375,0 0.375,-0.21094 0,-0.23437 -0.19922,-0.23437 -0.375,-0.23437 h -7.04297 c -0.17578,0 -0.38672,0 -0.38672,0.22265 0,0.22266 0.19922,0.22266 0.38672,0.22266 z m 10.02539,-5.76562 v -0.28125 h -2.88282 c -1.45312,0 -1.47656,-0.15235 -1.52343,-0.38672 h -0.25782 l -0.375,2.39062 h 0.26954 c 0.0351,-0.21094 0.14062,-0.94922 0.29296,-1.07812 0.0937,-0.0703 0.9961,-0.0703 1.16016,-0.0703 h 2.53125 l -1.26562,1.81641 c -0.31641,0.45703 -1.52344,2.42578 -1.52344,4.66406 0,0.14063 0,0.60938 0.48047,0.60938 0.5039,0 0.5039,-0.45703 0.5039,-0.6211 v -0.59765 c 0,-1.78125 0.29297,-3.16406 0.85547,-3.96094 z m 5.43164,5.41406 h -0.26953 c -0.0352,0.19922 -0.12891,0.85547 -0.2461,1.04297 -0.082,0.11718 -0.76172,0.11718 -1.125,0.11718 h -2.21484 c 0.32812,-0.28125 1.05469,-1.04296 1.37109,-1.33593 1.81641,-1.66407 2.48438,-2.28516 2.48438,-3.46875 0,-1.38282 -1.08985,-2.29688 -2.47266,-2.29688 -1.39453,0 -2.20312,1.1836 -2.20312,2.20313 0,0.60937 0.52734,0.60937 0.5625,0.60937 0.24609,0 0.5625,-0.17578 0.5625,-0.5625 0,-0.32812 -0.23438,-0.55078 -0.5625,-0.55078 -0.10547,0 -0.12891,0 -0.16407,0.0117 0.22266,-0.82031 0.86719,-1.37109 1.64063,-1.37109 1.01953,0 1.64062,0.85546 1.64062,1.95703 0,1.00781 -0.58593,1.89843 -1.26562,2.66015 l -2.41406,2.70703 v 0.28125 h 4.35937 z M 32.665008,435.97632 c 0,-0.0352 0,-0.0586 -0.210938,-0.26953 -1.195312,-1.20703 -1.863281,-3.17578 -1.863281,-5.61328 0,-2.32031 0.5625,-4.3125 1.945313,-5.73047 0.128906,-0.10547 0.128906,-0.12891 0.128906,-0.16406 0,-0.0703 -0.07031,-0.0937 -0.117188,-0.0937 -0.152343,0 -1.136718,0.85547 -1.722656,2.02734 -0.609375,1.20703 -0.878906,2.49609 -0.878906,3.96094 0,1.0664 0.164062,2.48437 0.785156,3.76172 0.703125,1.4414 1.6875,2.21484 1.816406,2.21484 0.04687,0 0.117188,-0.0234 0.117188,-0.0937 z m 0,0"
         style="fill:#000000;fill-opacity:1;fill-rule:nonzero;stroke:none" />
      <path
         id="path37"
         d="m 36.467742,434.40601 c -0.316406,0.45703 -0.785156,0.86719 -1.371094,0.86719 -0.140625,0 -0.714843,-0.0234 -0.902343,-0.57422 0.04687,0.0117 0.105468,0.0117 0.128906,0.0117 0.351562,0 0.597656,-0.31641 0.597656,-0.58594 0,-0.28125 -0.234375,-0.375 -0.410156,-0.375 -0.1875,0 -0.609375,0.14062 -0.609375,0.72656 0,0.60938 0.515625,1.03125 1.195312,1.03125 1.195313,0 2.402344,-1.10156 2.742188,-2.42578 l 1.171875,-4.66406 c 0.01172,-0.0586 0.03516,-0.12891 0.03516,-0.19922 0,-0.17578 -0.152344,-0.30469 -0.328125,-0.30469 -0.105469,0 -0.363281,0.0469 -0.457031,0.41016 l -0.878906,3.51562 c -0.05859,0.21094 -0.05859,0.23438 -0.152344,0.375 -0.246094,0.32813 -0.644531,0.73828 -1.207031,0.73828 -0.679688,0 -0.738282,-0.65625 -0.738282,-0.98437 0,-0.67969 0.328125,-1.60547 0.644532,-2.46094 0.140625,-0.35156 0.210937,-0.51562 0.210937,-0.75 0,-0.50391 -0.363281,-0.96094 -0.949219,-0.96094 -1.101562,0 -1.535156,1.73438 -1.535156,1.82813 0,0.0469 0.04687,0.10547 0.128906,0.10547 0.105469,0 0.117188,-0.0469 0.164063,-0.21094 0.292969,-1.00781 0.738281,-1.47656 1.207031,-1.47656 0.105469,0 0.316406,0 0.316406,0.38672 0,0.3164 -0.140625,0.65625 -0.316406,1.11328 -0.585937,1.57031 -0.585937,1.95703 -0.585937,2.25 0,1.13672 0.808593,1.39453 1.40625,1.39453 0.351562,0 0.785156,-0.10547 1.195312,-0.55078 l 0.01172,0.0117 c -0.175781,0.70312 -0.292969,1.17187 -0.714844,1.75781 z m 0,0"
         style="fill:#000000;fill-opacity:1;fill-rule:nonzero;stroke:none" />
      <path
         id="path38"
         d="m 46.89157,430.30445 h 3.304688 c 0.164062,0 0.375,0 0.375,-0.21094 0,-0.22266 -0.199219,-0.22266 -0.375,-0.22266 H 46.89157 v -3.30469 c 0,-0.16406 0,-0.38671 -0.210937,-0.38671 -0.234375,0 -0.234375,0.21093 -0.234375,0.38671 v 3.30469 h -3.292969 c -0.175781,0 -0.386719,0 -0.386719,0.21094 0,0.22266 0.199219,0.22266 0.386719,0.22266 h 3.292969 v 3.30468 c 0,0.16407 0,0.38672 0.222656,0.38672 0.222656,0 0.222656,-0.21094 0.222656,-0.38672 z m 0,0"
         style="fill:#000000;fill-opacity:1;fill-rule:nonzero;stroke:none" />
      <path
         id="path39"
         d="m 55.405242,432.09741 c 0.503906,-0.58593 0.925781,-0.94921 1.523438,-1.48828 0.714843,-0.62109 1.03125,-0.92578 1.195312,-1.10156 0.84375,-0.82031 1.253906,-1.52344 1.253906,-1.61719 0,-0.0937 -0.09375,-0.0937 -0.117187,-0.0937 -0.08203,0 -0.105469,0.0469 -0.164063,0.12891 -0.304687,0.51562 -0.585937,0.77344 -0.902343,0.77344 -0.246094,0 -0.375,-0.11719 -0.609375,-0.39844 -0.246094,-0.29297 -0.457032,-0.50391 -0.796875,-0.50391 -0.878907,0 -1.394532,1.08985 -1.394532,1.33594 0,0.0352 0.01172,0.11719 0.117188,0.11719 0.09375,0 0.105469,-0.0469 0.140625,-0.14063 0.199219,-0.46875 0.773437,-0.5625 1.007812,-0.5625 0.246094,0 0.480469,0.0937 0.738282,0.19922 0.457031,0.1875 0.644531,0.1875 0.761718,0.1875 0.08203,0 0.128907,0 0.1875,-0.0117 -0.386718,0.46875 -1.03125,1.04297 -1.570312,1.53516 l -1.207031,1.10156 c -0.726563,0.75 -1.171875,1.45313 -1.171875,1.53516 0,0.0703 0.05859,0.0937 0.128906,0.0937 0.07031,0 0.08203,-0.0117 0.164062,-0.15235 0.199219,-0.30468 0.574219,-0.73828 1.019532,-0.73828 0.246093,0 0.375,0.082 0.609375,0.375 0.222656,0.26953 0.433593,0.51563 0.808593,0.51563 1.171875,0 1.851563,-1.51172 1.851563,-1.79297 0,-0.0469 -0.01172,-0.11719 -0.140625,-0.11719 -0.09375,0 -0.105469,0.0469 -0.140625,0.16406 -0.257813,0.70313 -0.972656,0.9961 -1.429688,0.9961 -0.257812,0 -0.492187,-0.082 -0.75,-0.1875 -0.46875,-0.19922 -0.609375,-0.19922 -0.761718,-0.19922 -0.117188,0 -0.246094,0 -0.351563,0.0469 z m 0,0"
         style="fill:#000000;fill-opacity:1;fill-rule:nonzero;stroke:none" />
      <path
         id="path40"
         d="m 63.227508,430.09351 c 0,-0.91406 -0.128906,-2.39063 -0.796875,-3.77344 -0.703125,-1.44141 -1.675781,-2.21484 -1.816406,-2.21484 -0.04687,0 -0.105469,0.0234 -0.105469,0.0937 0,0.0351 0,0.0586 0.199219,0.26953 1.195312,1.20703 1.875,3.17578 1.875,5.61328 0,2.32031 -0.5625,4.3125 -1.957032,5.73047 -0.117187,0.10547 -0.117187,0.1289 -0.117187,0.16406 0,0.0703 0.05859,0.0937 0.105469,0.0937 0.164062,0 1.136718,-0.85547 1.722656,-2.02734 0.609375,-1.21875 0.890625,-2.51953 0.890625,-3.94922 z m 5.068359,5.88281 c 0,-0.0352 0,-0.0586 -0.210937,-0.26953 -1.195313,-1.20703 -1.863282,-3.17578 -1.863282,-5.61328 0,-2.32031 0.5625,-4.3125 1.945313,-5.73047 0.128906,-0.10547 0.128906,-0.12891 0.128906,-0.16406 0,-0.0703 -0.07031,-0.0937 -0.117187,-0.0937 -0.152344,0 -1.136719,0.85547 -1.722657,2.02734 -0.609375,1.20703 -0.878906,2.49609 -0.878906,3.96094 0,1.0664 0.164063,2.48437 0.785156,3.76172 0.703125,1.4414 1.6875,2.21484 1.816407,2.21484 0.04687,0 0.117187,-0.0234 0.117187,-0.0937 z m 0,0"
         style="fill:#000000;fill-opacity:1;fill-rule:nonzero;stroke:none" />
      <path
         id="path41"
         d="m 74.618133,428.19507 c -0.375,0.0703 -0.515625,0.35156 -0.515625,0.58594 0,0.28125 0.222656,0.375 0.386719,0.375 0.363281,0 0.609375,-0.30469 0.609375,-0.63281 0,-0.49219 -0.574219,-0.72657 -1.078125,-0.72657 -0.726563,0 -1.125,0.71485 -1.242188,0.94922 -0.269531,-0.90234 -1.007812,-0.94922 -1.230469,-0.94922 -1.21875,0 -1.863281,1.57032 -1.863281,1.82813 0,0.0469 0.04687,0.10547 0.128906,0.10547 0.105469,0 0.128907,-0.0703 0.152344,-0.11719 0.398438,-1.32422 1.207031,-1.57031 1.546875,-1.57031 0.539063,0 0.644531,0.49218 0.644531,0.78515 0,0.25782 -0.07031,0.53907 -0.210937,1.11328 l -0.410156,1.62891 c -0.175782,0.72656 -0.527344,1.38281 -1.160157,1.38281 -0.05859,0 -0.351562,0 -0.609375,-0.15234 0.433594,-0.0937 0.527344,-0.44531 0.527344,-0.58594 0,-0.24609 -0.175781,-0.38672 -0.398437,-0.38672 -0.292969,0 -0.597657,0.2461 -0.597657,0.63282 0,0.5039 0.5625,0.72656 1.066407,0.72656 0.574218,0 0.984375,-0.45703 1.230468,-0.9375 0.199219,0.70312 0.796875,0.9375 1.230469,0.9375 1.230469,0 1.875,-1.5586 1.875,-1.82813 0,-0.0586 -0.04687,-0.10547 -0.128906,-0.10547 -0.105469,0 -0.117188,0.0586 -0.152344,0.15235 -0.316406,1.05469 -1.019531,1.54687 -1.546875,1.54687 -0.421875,0 -0.65625,-0.3164 -0.65625,-0.80859 0,-0.25781 0.05859,-0.44531 0.246094,-1.24219 l 0.421875,-1.61719 c 0.175781,-0.72656 0.585937,-1.24218 1.125,-1.24218 0.03516,0 0.363281,0 0.609375,0.15234 z m 0,0"
         style="fill:#000000;fill-opacity:1;fill-rule:nonzero;stroke:none" />
      <path
         id="path42"
         d="m 83.035125,430.30445 h 3.304688 c 0.164062,0 0.375,0 0.375,-0.21094 0,-0.22266 -0.199219,-0.22266 -0.375,-0.22266 h -3.304688 v -3.30469 c 0,-0.16406 0,-0.38671 -0.210937,-0.38671 -0.234375,0 -0.234375,0.21093 -0.234375,0.38671 v 3.30469 h -3.292969 c -0.175781,0 -0.386719,0 -0.386719,0.21094 0,0.22266 0.199219,0.22266 0.386719,0.22266 h 3.292969 v 3.30468 c 0,0.16407 0,0.38672 0.222656,0.38672 0.222656,0 0.222656,-0.21094 0.222656,-0.38672 z m 0,0"
         style="fill:#000000;fill-opacity:1;fill-rule:nonzero;stroke:none" />
      <path
         id="path43"
         d="m 93.168914,434.40601 c -0.316406,0.45703 -0.785156,0.86719 -1.371094,0.86719 -0.140625,0 -0.714843,-0.0234 -0.902343,-0.57422 0.04687,0.0117 0.105468,0.0117 0.128906,0.0117 0.351562,0 0.597656,-0.31641 0.597656,-0.58594 0,-0.28125 -0.234375,-0.375 -0.410156,-0.375 -0.1875,0 -0.609375,0.14062 -0.609375,0.72656 0,0.60938 0.515625,1.03125 1.195312,1.03125 1.195313,0 2.402344,-1.10156 2.742188,-2.42578 l 1.171875,-4.66406 c 0.01172,-0.0586 0.03516,-0.12891 0.03516,-0.19922 0,-0.17578 -0.152344,-0.30469 -0.328125,-0.30469 -0.105469,0 -0.363281,0.0469 -0.457031,0.41016 l -0.878906,3.51562 c -0.05859,0.21094 -0.05859,0.23438 -0.152344,0.375 -0.246094,0.32813 -0.644531,0.73828 -1.207031,0.73828 -0.679688,0 -0.738282,-0.65625 -0.738282,-0.98437 0,-0.67969 0.328125,-1.60547 0.644532,-2.46094 0.140625,-0.35156 0.210937,-0.51562 0.210937,-0.75 0,-0.50391 -0.363281,-0.96094 -0.949219,-0.96094 -1.101562,0 -1.535156,1.73438 -1.535156,1.82813 0,0.0469 0.04687,0.10547 0.128906,0.10547 0.105469,0 0.117188,-0.0469 0.164063,-0.21094 0.292969,-1.00781 0.738281,-1.47656 1.207031,-1.47656 0.105469,0 0.316406,0 0.316406,0.38672 0,0.3164 -0.140625,0.65625 -0.316406,1.11328 -0.585937,1.57031 -0.585937,1.95703 -0.585937,2.25 0,1.13672 0.808593,1.39453 1.40625,1.39453 0.351562,0 0.785156,-0.10547 1.195312,-0.55078 l 0.01172,0.0117 c -0.175781,0.70312 -0.292969,1.17187 -0.714844,1.75781 z m 0,0"
         style="fill:#000000;fill-opacity:1;fill-rule:nonzero;stroke:none" />
      <path
         id="path44"
         d="m 103.58981,430.30445 h 3.30469 c 0.16406,0 0.375,0 0.375,-0.21094 0,-0.22266 -0.19922,-0.22266 -0.375,-0.22266 h -3.30469 v -3.30469 c 0,-0.16406 0,-0.38671 -0.21093,-0.38671 -0.23438,0 -0.23438,0.21093 -0.23438,0.38671 v 3.30469 h -3.292969 c -0.175781,0 -0.386718,0 -0.386718,0.21094 0,0.22266 0.199218,0.22266 0.386718,0.22266 h 3.292969 v 3.30468 c 0,0.16407 0,0.38672 0.22266,0.38672 0.22265,0 0.22265,-0.21094 0.22265,-0.38672 z m 0,0"
         style="fill:#000000;fill-opacity:1;fill-rule:nonzero;stroke:none" />
      <path
         id="path45"
         d="m 112.10641,432.09741 c 0.50391,-0.58593 0.92579,-0.94921 1.52344,-1.48828 0.71485,-0.62109 1.03125,-0.92578 1.19531,-1.10156 0.84375,-0.82031 1.25391,-1.52344 1.25391,-1.61719 0,-0.0937 -0.0937,-0.0937 -0.11719,-0.0937 -0.082,0 -0.10547,0.0469 -0.16406,0.12891 -0.30469,0.51562 -0.58594,0.77344 -0.90234,0.77344 -0.2461,0 -0.375,-0.11719 -0.60938,-0.39844 -0.24609,-0.29297 -0.45703,-0.50391 -0.79687,-0.50391 -0.87891,0 -1.39453,1.08985 -1.39453,1.33594 0,0.0352 0.0117,0.11719 0.11718,0.11719 0.0937,0 0.10547,-0.0469 0.14063,-0.14063 0.19922,-0.46875 0.77344,-0.5625 1.00781,-0.5625 0.24609,0 0.48047,0.0937 0.73828,0.19922 0.45703,0.1875 0.64453,0.1875 0.76172,0.1875 0.082,0 0.12891,0 0.1875,-0.0117 -0.38672,0.46875 -1.03125,1.04297 -1.57031,1.53516 l -1.20703,1.10156 c -0.72657,0.75 -1.17188,1.45313 -1.17188,1.53516 0,0.0703 0.0586,0.0937 0.12891,0.0937 0.0703,0 0.082,-0.0117 0.16406,-0.15235 0.19922,-0.30468 0.57422,-0.73828 1.01953,-0.73828 0.2461,0 0.375,0.082 0.60938,0.375 0.22265,0.26953 0.43359,0.51563 0.80859,0.51563 1.17188,0 1.85156,-1.51172 1.85156,-1.79297 0,-0.0469 -0.0117,-0.11719 -0.14062,-0.11719 -0.0937,0 -0.10547,0.0469 -0.14063,0.16406 -0.25781,0.70313 -0.97265,0.9961 -1.42968,0.9961 -0.25782,0 -0.49219,-0.082 -0.75,-0.1875 -0.46875,-0.19922 -0.60938,-0.19922 -0.76172,-0.19922 -0.11719,0 -0.2461,0 -0.35157,0.0469 z m 0,0"
         style="fill:#000000;fill-opacity:1;fill-rule:nonzero;stroke:none" />
      <path
         id="path46"
         d="m 119.92868,430.09351 c 0,-0.91406 -0.12891,-2.39063 -0.79688,-3.77344 -0.70312,-1.44141 -1.67578,-2.21484 -1.8164,-2.21484 -0.0469,0 -0.10547,0.0234 -0.10547,0.0937 0,0.0351 0,0.0586 0.19922,0.26953 1.19531,1.20703 1.875,3.17578 1.875,5.61328 0,2.32031 -0.5625,4.3125 -1.95703,5.73047 -0.11719,0.10547 -0.11719,0.1289 -0.11719,0.16406 0,0.0703 0.0586,0.0937 0.10547,0.0937 0.16406,0 1.13672,-0.85547 1.72265,-2.02734 0.60938,-1.21875 0.89063,-2.51953 0.89063,-3.94922 z m 12.57422,-0.89063 c 0.16406,0 0.375,0 0.375,-0.22265 0,-0.22266 -0.19922,-0.22266 -0.375,-0.22266 h -7.04297 c -0.17578,0 -0.38672,0 -0.38672,0.21094 0,0.23437 0.19922,0.23437 0.38672,0.23437 z m 0,2.21485 c 0.16406,0 0.375,0 0.375,-0.21094 0,-0.23438 -0.19922,-0.23438 -0.375,-0.23438 h -7.04297 c -0.17578,0 -0.38672,0 -0.38672,0.22266 0,0.22266 0.19922,0.22266 0.38672,0.22266 z m 7.78711,-6.01172 c 0,-0.26953 0,-0.28125 -0.2461,-0.28125 -0.28125,0.3164 -0.8789,0.76172 -2.10937,0.76172 v 0.35156 c 0.26953,0 0.86719,0 1.52344,-0.31641 v 6.22266 c 0,0.43359 -0.0352,0.57422 -1.07813,0.57422 h -0.375 v 0.35156 c 0.31641,-0.0234 1.47656,-0.0234 1.875,-0.0234 0.39844,0 1.54688,0 1.86328,0.0234 v -0.35156 h -0.36328 c -1.05469,0 -1.08984,-0.14063 -1.08984,-0.57422 z m 7.66992,5.66015 h -0.26953 c -0.0352,0.19922 -0.12891,0.85547 -0.2461,1.04297 -0.082,0.11719 -0.76171,0.11719 -1.125,0.11719 h -2.21484 c 0.32813,-0.28125 1.05469,-1.04297 1.37109,-1.33594 1.81641,-1.66406 2.48438,-2.28515 2.48438,-3.46875 0,-1.38281 -1.08984,-2.29687 -2.47266,-2.29687 -1.39453,0 -2.20312,1.18359 -2.20312,2.20312 0,0.60938 0.52734,0.60938 0.5625,0.60938 0.24609,0 0.5625,-0.17578 0.5625,-0.5625 0,-0.32813 -0.23438,-0.55078 -0.5625,-0.55078 -0.10547,0 -0.12891,0 -0.16406,0.0117 0.22265,-0.82032 0.86718,-1.3711 1.64062,-1.3711 1.01953,0 1.64063,0.85547 1.64063,1.95703 0,1.00782 -0.58594,1.89844 -1.26563,2.66016 l -2.41406,2.70703 v 0.28125 h 4.35937 z m 5.94727,-1.8164 c 0,-0.9961 -0.0586,-1.96875 -0.49219,-2.8711 -0.49219,-0.99609 -1.34766,-1.2539 -1.9336,-1.2539 -0.6914,0 -1.54687,0.33984 -1.98046,1.33594 -0.33985,0.75 -0.45704,1.48828 -0.45704,2.78906 0,1.16015 0.082,2.02734 0.51563,2.87109 0.45703,0.91406 1.28906,1.19531 1.91016,1.19531 1.04296,0 1.64062,-0.62109 1.98046,-1.3125 0.4336,-0.89062 0.45704,-2.0625 0.45704,-2.7539 z m -2.4375,3.83203 c -0.38672,0 -1.16016,-0.21094 -1.38282,-1.52344 -0.14062,-0.71484 -0.14062,-1.61719 -0.14062,-2.46094 0,-0.97265 0,-1.86328 0.19922,-2.5664 0.19922,-0.79688 0.80859,-1.17188 1.32422,-1.17188 0.45703,0 1.14843,0.28125 1.37109,1.30078 0.15234,0.67969 0.15234,1.62891 0.15234,2.4375 0,0.8086 0,1.71094 -0.1289,2.4375 -0.22266,1.32422 -0.97266,1.54688 -1.39453,1.54688 z M 32.665008,455.04566 c 0,-0.0352 0,-0.0586 -0.210938,-0.26953 -1.195312,-1.20704 -1.863281,-3.17579 -1.863281,-5.61329 0,-2.32031 0.5625,-4.3125 1.945313,-5.73046 0.128906,-0.10547 0.128906,-0.12891 0.128906,-0.16407 0,-0.0703 -0.07031,-0.0937 -0.117188,-0.0937 -0.152343,0 -1.136718,0.85547 -1.722656,2.02735 -0.609375,1.20703 -0.878906,2.49609 -0.878906,3.96093 0,1.06641 0.164062,2.48438 0.785156,3.76172 0.703125,1.44141 1.6875,2.21485 1.816406,2.21485 0.04687,0 0.117188,-0.0234 0.117188,-0.0937 z m 0,0"
         style="fill:#000000;fill-opacity:1;fill-rule:nonzero;stroke:none" />
      <path
         id="path47"
         d="m 34.850555,451.16675 c 0.503906,-0.58594 0.925781,-0.94922 1.523437,-1.48828 0.714844,-0.62109 1.03125,-0.92578 1.195313,-1.10156 0.84375,-0.82032 1.253906,-1.52344 1.253906,-1.61719 0,-0.0937 -0.09375,-0.0937 -0.117188,-0.0937 -0.08203,0 -0.105468,0.0469 -0.164062,0.12891 -0.304688,0.51562 -0.585938,0.77343 -0.902344,0.77343 -0.246094,0 -0.375,-0.11718 -0.609375,-0.39843 -0.246094,-0.29297 -0.457031,-0.50391 -0.796875,-0.50391 -0.878906,0 -1.394531,1.08984 -1.394531,1.33594 0,0.0351 0.01172,0.11718 0.117187,0.11718 0.09375,0 0.105469,-0.0469 0.140625,-0.14062 0.199219,-0.46875 0.773438,-0.5625 1.007813,-0.5625 0.246094,0 0.480469,0.0937 0.738281,0.19922 0.457031,0.1875 0.644531,0.1875 0.761719,0.1875 0.08203,0 0.128906,0 0.1875,-0.0117 -0.386719,0.46875 -1.03125,1.04297 -1.570313,1.53516 l -1.207031,1.10156 c -0.726562,0.75 -1.171875,1.45312 -1.171875,1.53515 0,0.0703 0.05859,0.0937 0.128906,0.0937 0.07031,0 0.08203,-0.0117 0.164063,-0.15234 0.199219,-0.30469 0.574219,-0.73828 1.019531,-0.73828 0.246094,0 0.375,0.082 0.609375,0.375 0.222656,0.26953 0.433594,0.51562 0.808594,0.51562 1.171875,0 1.851562,-1.51171 1.851562,-1.79296 0,-0.0469 -0.01172,-0.11719 -0.140625,-0.11719 -0.09375,0 -0.105468,0.0469 -0.140625,0.16406 -0.257812,0.70313 -0.972656,0.99609 -1.429687,0.99609 -0.257813,0 -0.492188,-0.082 -0.75,-0.1875 -0.46875,-0.19921 -0.609375,-0.19921 -0.761719,-0.19921 -0.117187,0 -0.246094,0 -0.351562,0.0469 z m 0,0"
         style="fill:#000000;fill-opacity:1;fill-rule:nonzero;stroke:none" />
      <path
         id="path48"
         d="m 46.724578,449.37378 h 3.304688 c 0.164062,0 0.375,0 0.375,-0.21094 0,-0.22265 -0.199219,-0.22265 -0.375,-0.22265 h -3.304688 v -3.30469 c 0,-0.16406 0,-0.38672 -0.210937,-0.38672 -0.234375,0 -0.234375,0.21094 -0.234375,0.38672 v 3.30469 h -3.292969 c -0.175781,0 -0.386719,0 -0.386719,0.21094 0,0.22265 0.199219,0.22265 0.386719,0.22265 h 3.292969 v 3.30469 c 0,0.16406 0,0.38672 0.222656,0.38672 0.222656,0 0.222656,-0.21094 0.222656,-0.38672 z m 0,0"
         style="fill:#000000;fill-opacity:1;fill-rule:nonzero;stroke:none" />
      <path
         id="path49"
         d="m 59.374969,447.26441 c -0.375,0.0703 -0.515625,0.35156 -0.515625,0.58593 0,0.28125 0.222656,0.375 0.386719,0.375 0.363281,0 0.609375,-0.30468 0.609375,-0.63281 0,-0.49219 -0.574219,-0.72656 -1.078125,-0.72656 -0.726563,0 -1.125,0.71484 -1.242188,0.94922 -0.269531,-0.90235 -1.007812,-0.94922 -1.230469,-0.94922 -1.21875,0 -1.863281,1.57031 -1.863281,1.82812 0,0.0469 0.04687,0.10547 0.128906,0.10547 0.105469,0 0.128907,-0.0703 0.152344,-0.11718 0.398438,-1.32422 1.207031,-1.57032 1.546875,-1.57032 0.539063,0 0.644531,0.49219 0.644531,0.78516 0,0.25781 -0.07031,0.53906 -0.210937,1.11328 l -0.410156,1.62891 c -0.175782,0.72656 -0.527344,1.38281 -1.160157,1.38281 -0.05859,0 -0.351562,0 -0.609375,-0.15234 0.433594,-0.0937 0.527344,-0.44532 0.527344,-0.58594 0,-0.2461 -0.175781,-0.38672 -0.398437,-0.38672 -0.292969,0 -0.597657,0.24609 -0.597657,0.63281 0,0.50391 0.5625,0.72656 1.066407,0.72656 0.574218,0 0.984375,-0.45703 1.230468,-0.9375 0.199219,0.70313 0.796875,0.9375 1.230469,0.9375 1.230469,0 1.875,-1.55859 1.875,-1.82812 0,-0.0586 -0.04687,-0.10547 -0.128906,-0.10547 -0.105469,0 -0.117188,0.0586 -0.152344,0.15234 -0.316406,1.05469 -1.019531,1.54688 -1.546875,1.54688 -0.421875,0 -0.65625,-0.31641 -0.65625,-0.80859 0,-0.25782 0.05859,-0.44532 0.246094,-1.24219 l 0.421875,-1.61719 c 0.175781,-0.72656 0.585937,-1.24219 1.125,-1.24219 0.03516,0 0.363281,0 0.609375,0.15235 z m 0,0"
         style="fill:#000000;fill-opacity:1;fill-rule:nonzero;stroke:none" />
      <path
         id="path50"
         d="m 63.743133,449.16284 c 0,-0.91406 -0.128906,-2.39062 -0.796875,-3.77343 -0.703125,-1.44141 -1.675781,-2.21485 -1.816406,-2.21485 -0.04687,0 -0.105469,0.0234 -0.105469,0.0937 0,0.0352 0,0.0586 0.199219,0.26953 1.195312,1.20704 1.875,3.17579 1.875,5.61329 0,2.32031 -0.5625,4.3125 -1.957032,5.73046 -0.117187,0.10547 -0.117187,0.12891 -0.117187,0.16407 0,0.0703 0.05859,0.0937 0.105469,0.0937 0.164062,0 1.136718,-0.85547 1.722656,-2.02735 0.609375,-1.21875 0.890625,-2.51953 0.890625,-3.94922 z m 5.068359,5.88282 c 0,-0.0352 0,-0.0586 -0.210937,-0.26953 -1.195313,-1.20704 -1.863282,-3.17579 -1.863282,-5.61329 0,-2.32031 0.5625,-4.3125 1.945313,-5.73046 0.128906,-0.10547 0.128906,-0.12891 0.128906,-0.16407 0,-0.0703 -0.07031,-0.0937 -0.117187,-0.0937 -0.152344,0 -1.136719,0.85547 -1.722657,2.02735 -0.609375,1.20703 -0.878906,2.49609 -0.878906,3.96093 0,1.06641 0.164063,2.48438 0.785156,3.76172 0.703125,1.44141 1.6875,2.21485 1.816407,2.21485 0.04687,0 0.117187,-0.0234 0.117187,-0.0937 z m 0,0"
         style="fill:#000000;fill-opacity:1;fill-rule:nonzero;stroke:none" />
      <path
         id="path51"
         d="m 75.133758,447.26441 c -0.375,0.0703 -0.515625,0.35156 -0.515625,0.58593 0,0.28125 0.222656,0.375 0.386719,0.375 0.363281,0 0.609375,-0.30468 0.609375,-0.63281 0,-0.49219 -0.574219,-0.72656 -1.078125,-0.72656 -0.726563,0 -1.125,0.71484 -1.242188,0.94922 -0.269531,-0.90235 -1.007812,-0.94922 -1.230469,-0.94922 -1.21875,0 -1.863281,1.57031 -1.863281,1.82812 0,0.0469 0.04687,0.10547 0.128906,0.10547 0.105469,0 0.128907,-0.0703 0.152344,-0.11718 0.398438,-1.32422 1.207031,-1.57032 1.546875,-1.57032 0.539063,0 0.644531,0.49219 0.644531,0.78516 0,0.25781 -0.07031,0.53906 -0.210937,1.11328 l -0.410156,1.62891 c -0.175782,0.72656 -0.527344,1.38281 -1.160157,1.38281 -0.05859,0 -0.351562,0 -0.609375,-0.15234 0.433594,-0.0937 0.527344,-0.44532 0.527344,-0.58594 0,-0.2461 -0.175781,-0.38672 -0.398437,-0.38672 -0.292969,0 -0.597657,0.24609 -0.597657,0.63281 0,0.50391 0.5625,0.72656 1.066407,0.72656 0.574218,0 0.984375,-0.45703 1.230468,-0.9375 0.199219,0.70313 0.796875,0.9375 1.230469,0.9375 1.230469,0 1.875,-1.55859 1.875,-1.82812 0,-0.0586 -0.04687,-0.10547 -0.128906,-0.10547 -0.105469,0 -0.117188,0.0586 -0.152344,0.15234 -0.316406,1.05469 -1.019531,1.54688 -1.546875,1.54688 -0.421875,0 -0.65625,-0.31641 -0.65625,-0.80859 0,-0.25782 0.05859,-0.44532 0.246094,-1.24219 l 0.421875,-1.61719 c 0.175781,-0.72656 0.585937,-1.24219 1.125,-1.24219 0.03516,0 0.363281,0 0.609375,0.15235 z m 0,0"
         style="fill:#000000;fill-opacity:1;fill-rule:nonzero;stroke:none" />
      <path
         id="path52"
         d="m 83.55075,449.37378 h 3.304688 c 0.164062,0 0.375,0 0.375,-0.21094 0,-0.22265 -0.199219,-0.22265 -0.375,-0.22265 H 83.55075 v -3.30469 c 0,-0.16406 0,-0.38672 -0.210937,-0.38672 -0.234375,0 -0.234375,0.21094 -0.234375,0.38672 v 3.30469 h -3.292969 c -0.175781,0 -0.386719,0 -0.386719,0.21094 0,0.22265 0.199219,0.22265 0.386719,0.22265 h 3.292969 v 3.30469 c 0,0.16406 0,0.38672 0.222656,0.38672 0.222656,0 0.222656,-0.21094 0.222656,-0.38672 z m 0,0"
         style="fill:#000000;fill-opacity:1;fill-rule:nonzero;stroke:none" />
      <path
         id="path53"
         d="m 93.684539,453.47534 c -0.316406,0.45704 -0.785156,0.86719 -1.371094,0.86719 -0.140625,0 -0.714843,-0.0234 -0.902343,-0.57422 0.04687,0.0117 0.105468,0.0117 0.128906,0.0117 0.351562,0 0.597656,-0.3164 0.597656,-0.58594 0,-0.28125 -0.234375,-0.375 -0.410156,-0.375 -0.1875,0 -0.609375,0.14063 -0.609375,0.72657 0,0.60937 0.515625,1.03125 1.195312,1.03125 1.195313,0 2.402344,-1.10157 2.742188,-2.42578 l 1.171875,-4.66407 c 0.01172,-0.0586 0.03516,-0.1289 0.03516,-0.19922 0,-0.17578 -0.152344,-0.30468 -0.328125,-0.30468 -0.105469,0 -0.363281,0.0469 -0.457031,0.41015 l -0.878906,3.51563 c -0.05859,0.21094 -0.05859,0.23437 -0.152344,0.375 -0.246094,0.32812 -0.644531,0.73828 -1.207031,0.73828 -0.679688,0 -0.738282,-0.65625 -0.738282,-0.98438 0,-0.67968 0.328125,-1.60546 0.644532,-2.46093 0.140625,-0.35157 0.210937,-0.51563 0.210937,-0.75 0,-0.50391 -0.363281,-0.96094 -0.949219,-0.96094 -1.101562,0 -1.535156,1.73437 -1.535156,1.82812 0,0.0469 0.04687,0.10547 0.128906,0.10547 0.105469,0 0.117188,-0.0469 0.164063,-0.21093 0.292969,-1.00782 0.738281,-1.47657 1.207031,-1.47657 0.105469,0 0.316406,0 0.316406,0.38672 0,0.31641 -0.140625,0.65625 -0.316406,1.11328 -0.585937,1.57032 -0.585937,1.95703 -0.585937,2.25 0,1.13672 0.808593,1.39453 1.40625,1.39453 0.351562,0 0.785156,-0.10546 1.195312,-0.55078 l 0.01172,0.0117 c -0.175781,0.70313 -0.292969,1.17188 -0.714844,1.75781 z m 0,0"
         style="fill:#000000;fill-opacity:1;fill-rule:nonzero;stroke:none" />
      <path
         id="path54"
         d="m 104.10544,449.37378 h 3.30469 c 0.16406,0 0.375,0 0.375,-0.21094 0,-0.22265 -0.19922,-0.22265 -0.375,-0.22265 h -3.30469 v -3.30469 c 0,-0.16406 0,-0.38672 -0.21094,-0.38672 -0.23437,0 -0.23437,0.21094 -0.23437,0.38672 v 3.30469 h -3.29297 c -0.17578,0 -0.386722,0 -0.386722,0.21094 0,0.22265 0.199222,0.22265 0.386722,0.22265 h 3.29297 v 3.30469 c 0,0.16406 0,0.38672 0.22265,0.38672 0.22266,0 0.22266,-0.21094 0.22266,-0.38672 z m 0,0"
         style="fill:#000000;fill-opacity:1;fill-rule:nonzero;stroke:none" />
      <path
         id="path55"
         d="m 112.61911,451.16675 c 0.50391,-0.58594 0.92578,-0.94922 1.52344,-1.48828 0.71484,-0.62109 1.03125,-0.92578 1.19531,-1.10156 0.84375,-0.82032 1.25391,-1.52344 1.25391,-1.61719 0,-0.0937 -0.0937,-0.0937 -0.11719,-0.0937 -0.082,0 -0.10547,0.0469 -0.16406,0.12891 -0.30469,0.51562 -0.58594,0.77343 -0.90235,0.77343 -0.24609,0 -0.375,-0.11718 -0.60937,-0.39843 -0.2461,-0.29297 -0.45703,-0.50391 -0.79688,-0.50391 -0.8789,0 -1.39453,1.08984 -1.39453,1.33594 0,0.0351 0.0117,0.11718 0.11719,0.11718 0.0937,0 0.10547,-0.0469 0.14062,-0.14062 0.19922,-0.46875 0.77344,-0.5625 1.00782,-0.5625 0.24609,0 0.48046,0.0937 0.73828,0.19922 0.45703,0.1875 0.64453,0.1875 0.76172,0.1875 0.082,0 0.1289,0 0.1875,-0.0117 -0.38672,0.46875 -1.03125,1.04297 -1.57032,1.53516 l -1.20703,1.10156 c -0.72656,0.75 -1.17187,1.45312 -1.17187,1.53515 0,0.0703 0.0586,0.0937 0.1289,0.0937 0.0703,0 0.082,-0.0117 0.16407,-0.15234 0.19921,-0.30469 0.57421,-0.73828 1.01953,-0.73828 0.24609,0 0.375,0.082 0.60937,0.375 0.22266,0.26953 0.4336,0.51562 0.8086,0.51562 1.17187,0 1.85156,-1.51171 1.85156,-1.79296 0,-0.0469 -0.0117,-0.11719 -0.14063,-0.11719 -0.0937,0 -0.10547,0.0469 -0.14062,0.16406 -0.25781,0.70313 -0.97266,0.99609 -1.42969,0.99609 -0.25781,0 -0.49219,-0.082 -0.75,-0.1875 -0.46875,-0.19921 -0.60937,-0.19921 -0.76172,-0.19921 -0.11719,0 -0.24609,0 -0.35156,0.0469 z m 0,0"
         style="fill:#000000;fill-opacity:1;fill-rule:nonzero;stroke:none" />
      <path
         id="path56"
         d="m 120.4443,449.16284 c 0,-0.91406 -0.1289,-2.39062 -0.79687,-3.77343 -0.70313,-1.44141 -1.67578,-2.21485 -1.81641,-2.21485 -0.0469,0 -0.10547,0.0234 -0.10547,0.0937 0,0.0352 0,0.0586 0.19922,0.26953 1.19532,1.20704 1.875,3.17579 1.875,5.61329 0,2.32031 -0.5625,4.3125 -1.95703,5.73046 -0.11719,0.10547 -0.11719,0.12891 -0.11719,0.16407 0,0.0703 0.0586,0.0937 0.10547,0.0937 0.16407,0 1.13672,-0.85547 1.72266,-2.02735 0.60937,-1.21875 0.89062,-2.51953 0.89062,-3.94922 z m 12.57422,-0.89062 c 0.16407,0 0.375,0 0.375,-0.22266 0,-0.22265 -0.19922,-0.22265 -0.375,-0.22265 h -7.04297 c -0.17578,0 -0.38671,0 -0.38671,0.21093 0,0.23438 0.19921,0.23438 0.38671,0.23438 z m 0,2.21484 c 0.16407,0 0.375,0 0.375,-0.21093 0,-0.23438 -0.19922,-0.23438 -0.375,-0.23438 h -7.04297 c -0.17578,0 -0.38671,0 -0.38671,0.22266 0,0.22265 0.19921,0.22265 0.38671,0.22265 z m 8.71289,-1.82812 c 0,2.82422 -1.2539,3.41015 -1.96875,3.41015 -0.28125,0 -0.92578,-0.0352 -1.21875,-0.45703 h 0.0703 c 0.082,0.0234 0.51562,-0.0469 0.51562,-0.49218 0,-0.25782 -0.17578,-0.49219 -0.49219,-0.49219 -0.30468,0 -0.5039,0.21094 -0.5039,0.51562 0,0.75 0.59765,1.24219 1.64062,1.24219 1.5,0 2.94141,-1.58203 2.94141,-4.18359 0,-3.21094 -1.33594,-4.00782 -2.39063,-4.00782 -1.3125,0 -2.47265,1.10157 -2.47265,2.67188 0,1.58203 1.11328,2.66016 2.30859,2.66016 0.87891,0 1.33594,-0.64454 1.57031,-1.25391 z m -1.52343,0.62109 c -0.75,0 -1.07813,-0.60937 -1.1836,-0.83203 -0.19922,-0.45703 -0.19922,-1.03125 -0.19922,-1.57031 0,-0.66797 0,-1.24219 0.31641,-1.73438 0.21094,-0.3164 0.53906,-0.66797 1.18359,-0.66797 0.67969,0 1.03125,0.59766 1.14844,0.87891 0.23438,0.58594 0.23438,1.59375 0.23438,1.78125 0,0.99609 -0.44532,2.14453 -1.5,2.14453 z m 4.4707,-1.30078 c 0,-3.02344 1.47656,-3.50391 2.12109,-3.50391 0.4336,0 0.85547,0.12891 1.08985,0.49219 -0.14063,0 -0.59766,0 -0.59766,0.49219 0,0.25781 0.17578,0.49219 0.49219,0.49219 0.29297,0 0.49219,-0.1875 0.49219,-0.52735 0,-0.62109 -0.44532,-1.23047 -1.48829,-1.23047 -1.51171,0 -3.08203,1.53516 -3.08203,4.17188 0,3.28125 1.42969,4.01953 2.44922,4.01953 1.30078,0 2.41406,-1.125 2.41406,-2.68359 0,-1.59375 -1.11328,-2.66016 -2.30859,-2.66016 -1.06641,0 -1.45312,0.92578 -1.58203,1.26563 z m 1.47656,4.08984 c -0.75,0 -1.11328,-0.66796 -1.21875,-0.92578 -0.10547,-0.30468 -0.22265,-0.89062 -0.22265,-1.73437 0,-0.9375 0.42187,-2.1211 1.5,-2.1211 0.65625,0 1.00781,0.44532 1.18359,0.84375 0.1875,0.44532 0.1875,1.04297 0.1875,1.5586 0,0.60937 0,1.14844 -0.22266,1.60547 -0.30468,0.57422 -0.72656,0.77343 -1.20703,0.77343 z m 0,0"
         style="fill:#000000;fill-opacity:1;fill-rule:nonzero;stroke:none" />
      <path
         id="path57"
         d="m 151.27634,451.56519 c 0,-0.35156 -0.29297,-0.58594 -0.57422,-0.58594 -0.35157,0 -0.58594,0.29297 -0.58594,0.57422 0,0.35156 0.28125,0.58594 0.57422,0.58594 0.33984,0 0.58594,-0.28125 0.58594,-0.57422 z m 0,0"
         style="fill:#000000;fill-opacity:1;fill-rule:nonzero;stroke:none" />
    </g>
  </g>
</svg>
