<?xml version="1.0" encoding="UTF-8" standalone="no"?>
<!-- Created with Inkscape (http://www.inkscape.org/) -->

<svg
   version="1.1"
   id="svg1"
   width="794.55066"
   height="1123.6533"
   viewBox="0 0 794.55066 1123.6533"
   sodipodi:docname="LigaMatematycznaMatuskiego_Liceum_Zestaw2_2014_2015_page0.pdf"
   xmlns:inkscape="http://www.inkscape.org/namespaces/inkscape"
   xmlns:sodipodi="http://sodipodi.sourceforge.net/DTD/sodipodi-0.dtd"
   xmlns="http://www.w3.org/2000/svg"
   xmlns:svg="http://www.w3.org/2000/svg">
  <defs
     id="defs1" />
  <sodipodi:namedview
     id="namedview1"
     pagecolor="#ffffff"
     bordercolor="#000000"
     borderopacity="0.25"
     inkscape:showpageshadow="2"
     inkscape:pageopacity="0.0"
     inkscape:pagecheckerboard="0"
     inkscape:deskcolor="#d1d1d1">
    <inkscape:page
       x="0"
       y="0"
       inkscape:label="1"
       id="page1"
       width="794.55066"
       height="1123.6533"
       margin="0"
       bleed="0" />
  </sodipodi:namedview>
  <g
     id="g1"
     inkscape:groupmode="layer"
     inkscape:label="1">
    <g
       id="g2"
       aria-label="LIGAMATEMATYCZNA&#10;im.ZdzisªawaMatuskiego&#10;LISTOPAD2014&#10;SZKOAPONADGIMNAZJALNA&#10;ZADANIE1.&#10;ZpunktuAle»¡cegonazewn¡trzokr¦guo±rodkuOipromieniurpoprowadzonosieczn¡,która&#10;przecinadanyokr¡gwpunktachBiCwtakisposób,»eokr¡gzbudowanynaodcinkuBC&#10;jakona±rednicyokr¦gujeststycznydoprostejAOwpunkcieD.Wyznaczdªugo±¢odcinka&#10;AD,gdy|AO|=a.&#10;ZADANIE2.&#10;Naokr¦guumieszczono101liczbnaturalnych.Wyka»,»eznajdziemydwies¡siaduj¡cezesob¡&#10;liczby,którychsumajestliczb¡parzyst¡.&#10;ZADANIE3.&#10;Dwieniezeroweró»neliczbyrzeczywistea,bspeªniaj¡warunek&#10;a"
       transform="matrix(1.3333333,0,0,1.3333333,274.724,56.069333)">
      <path
         id="path2"
         d="m -96.118195,116.7605 c -0.410157,0.70313 -0.820313,0.9375 -1.394532,0.97266 -0.128906,0.0117 -0.222656,0.0117 -0.222656,0.23437 0,0.0703 0.05859,0.11719 0.140625,0.11719 0.210938,0 0.75,-0.0234 0.972656,-0.0234 0.339844,0 0.726563,0.0234 1.054688,0.0234 0.07031,0 0.222656,0 0.222656,-0.22266 0,-0.11718 -0.09375,-0.1289 -0.175781,-0.1289 -0.269531,-0.0234 -0.492188,-0.11719 -0.492188,-0.39844 0,-0.17578 0.07031,-0.30469 0.222657,-0.5625 l 0.902343,-1.51172 h 3.058594 c 0.01172,0.10547 0.01172,0.21094 0.02344,0.31641 0.03516,0.30468 0.175781,1.54687 0.175781,1.78125 0,0.35156 -0.609375,0.375 -0.796875,0.375 -0.140625,0 -0.269531,0 -0.269531,0.22265 0,0.12891 0.105468,0.12891 0.175781,0.12891 0.210937,0 0.445312,-0.0234 0.65625,-0.0234 h 0.679687 c 0.726563,0 1.253907,0.0234 1.265625,0.0234 0.08203,0 0.210938,0 0.210938,-0.22266 0,-0.1289 -0.105469,-0.1289 -0.28125,-0.1289 -0.65625,0 -0.667969,-0.10547 -0.714844,-0.45703 l -0.726562,-7.46485 c -0.02344,-0.23437 -0.07031,-0.25781 -0.199219,-0.25781 -0.117188,0 -0.1875,0.0234 -0.304688,0.19922 z m 1.441406,-1.83984 2.402344,-4.01953 0.410156,4.01953 z m 0,0"
         style="fill:#000000;fill-opacity:1;fill-rule:nonzero;stroke:none" />
      <path
         id="path3"
         d="m 114.94821,112.84644 c 0,-1.96875 -1.30078,-3.17578 -2.96484,-3.17578 -2.56641,0 -5.14453,2.7539 -5.14453,5.50781 0,1.875 1.24218,3.15234 2.97656,3.15234 2.50781,0 5.13281,-2.61328 5.13281,-5.48437 z m -5.0625,5.21484 c -0.98437,0 -2.01562,-0.71484 -2.01562,-2.57812 0,-1.08985 0.38671,-2.8711 1.37109,-4.06641 0.86719,-1.05469 1.875,-1.48828 2.67187,-1.48828 1.05469,0 2.07422,0.77344 2.07422,2.49609 0,1.05469 -0.45703,2.71875 -1.2539,3.85547 -0.87891,1.21875 -1.95703,1.78125 -2.84766,1.78125 z m 0,0"
         style="fill:#000000;fill-opacity:1;fill-rule:nonzero;stroke:none" />
      <path
         id="path4"
         d="m 184.08298,113.198 c -0.375,0.0703 -0.5625,0.32813 -0.5625,0.59766 0,0.28125 0.22265,0.375 0.39843,0.375 0.32813,0 0.60938,-0.28125 0.60938,-0.64453 0,-0.375 -0.375,-0.71485 -0.97266,-0.71485 -0.48047,0 -1.03125,0.22266 -1.53515,0.94922 -0.082,-0.63281 -0.5625,-0.94922 -1.03125,-0.94922 -0.46875,0 -0.71485,0.36328 -0.85547,0.6211 -0.19922,0.43359 -0.375,1.14843 -0.375,1.20703 0,0.0469 0.0469,0.10547 0.1289,0.10547 0.0937,0 0.10547,-0.0117 0.17579,-0.28125 0.17578,-0.71485 0.41015,-1.40625 0.89062,-1.40625 0.28125,0 0.36328,0.19921 0.36328,0.53906 0,0.26953 -0.11719,0.73828 -0.19922,1.10156 l -0.33984,1.28906 c -0.0469,0.23438 -0.17578,0.77344 -0.23438,0.98438 -0.082,0.3164 -0.21093,0.8789 -0.21093,0.9375 0,0.16406 0.1289,0.29297 0.30468,0.29297 0.12891,0 0.36329,-0.082 0.4336,-0.31641 0.0352,-0.10547 0.48047,-1.91016 0.55078,-2.17969 0.0586,-0.25781 0.12891,-0.51562 0.1875,-0.77343 0.0469,-0.17579 0.0937,-0.36329 0.12891,-0.51563 0.0352,-0.10547 0.36328,-0.69141 0.65625,-0.96094 0.15234,-0.1289 0.45703,-0.39843 0.94921,-0.39843 0.1875,0 0.38672,0.0352 0.53907,0.14062 z m 0,0"
         style="fill:#000000;fill-opacity:1;fill-rule:nonzero;stroke:none" />
      <path
         id="path5"
         d="m 31.223602,126.62769 c 0.117187,-0.44531 0.164062,-0.46875 0.621093,-0.46875 h 1.558594 c 1.347656,0 1.347656,1.14844 1.347656,1.2539 0,0.97266 -0.960937,2.20313 -2.542968,2.20313 H 30.48532 Z m 2.027343,3.08203 c 1.300782,-0.24609 2.484375,-1.14844 2.484375,-2.25 0,-0.92578 -0.832031,-1.65234 -2.179687,-1.65234 h -3.832031 c -0.234375,0 -0.339844,0 -0.339844,0.23437 0,0.11719 0.105469,0.11719 0.292969,0.11719 0.726562,0 0.726562,0.0937 0.726562,0.22265 0,0.0234 0,0.0937 -0.04687,0.28125 l -1.617187,6.4336 c -0.105469,0.41015 -0.128907,0.52734 -0.960938,0.52734 -0.234375,0 -0.351562,0 -0.351562,0.22266 0,0.1289 0.07031,0.1289 0.304687,0.1289 h 4.101563 c 1.828125,0 3.246093,-1.38281 3.246093,-2.58984 0,-0.98437 -0.867187,-1.58203 -1.828125,-1.67578 z m -1.699218,3.91406 h -1.617188 c -0.164062,0 -0.1875,0 -0.257812,-0.0117 -0.128907,-0.0117 -0.152344,-0.0352 -0.152344,-0.1289 0,-0.082 0.03516,-0.15235 0.05859,-0.25782 l 0.832031,-3.375 h 2.25 c 1.40625,0 1.40625,1.3125 1.40625,1.40625 0,1.14844 -1.042969,2.36719 -2.519531,2.36719 z m 0,0"
         style="fill:#000000;fill-opacity:1;fill-rule:nonzero;stroke:none" />
      <path
         id="path6"
         d="m 57.95993,125.66675 c 0,-0.10547 -0.08203,-0.10547 -0.105469,-0.10547 -0.02344,0 -0.07031,0 -0.175781,0.11719 l -0.820313,1.00781 c -0.421875,-0.71484 -1.078125,-1.125 -1.96875,-1.125 -2.589844,0 -5.261719,2.61328 -5.261719,5.42578 0,1.99219 1.394532,3.23438 3.140625,3.23438 0.960938,0 1.792969,-0.39844 2.484375,-0.98438 1.042969,-0.8789 1.359375,-2.03906 1.359375,-2.13281 0,-0.10547 -0.09375,-0.10547 -0.140625,-0.10547 -0.105468,0 -0.117187,0.0703 -0.140625,0.11719 -0.550781,1.86328 -2.15625,2.76562 -3.351562,2.76562 -1.277344,0 -2.367188,-0.82031 -2.367188,-2.50781 0,-0.38672 0.117188,-2.46094 1.464844,-4.03125 0.65625,-0.76172 1.78125,-1.4414 2.917969,-1.4414 1.3125,0 1.898437,1.08984 1.898437,2.30859 0,0.31641 -0.03516,0.57422 -0.03516,0.62109 0,0.11719 0.117188,0.11719 0.152344,0.11719 0.140625,0 0.152344,-0.0117 0.199219,-0.23437 z m 0,0"
         style="fill:#000000;fill-opacity:1;fill-rule:nonzero;stroke:none" />
      <path
         id="path7"
         d="m 319.31442,126.62769 c 0.11719,-0.44531 0.16406,-0.46875 0.6211,-0.46875 h 1.55859 c 1.34766,0 1.34766,1.14844 1.34766,1.2539 0,0.97266 -0.96094,2.20313 -2.54297,2.20313 h -1.72266 z m 2.02735,3.08203 c 1.30078,-0.24609 2.48437,-1.14844 2.48437,-2.25 0,-0.92578 -0.83203,-1.65234 -2.17969,-1.65234 h -3.83203 c -0.23437,0 -0.33984,0 -0.33984,0.23437 0,0.11719 0.10547,0.11719 0.29297,0.11719 0.72656,0 0.72656,0.0937 0.72656,0.22265 0,0.0234 0,0.0937 -0.0469,0.28125 l -1.61718,6.4336 c -0.10547,0.41015 -0.12891,0.52734 -0.96094,0.52734 -0.23438,0 -0.35156,0 -0.35156,0.22266 0,0.1289 0.0703,0.1289 0.30468,0.1289 h 4.10157 c 1.82812,0 3.24609,-1.38281 3.24609,-2.58984 0,-0.98437 -0.86719,-1.58203 -1.82812,-1.67578 z m -1.69922,3.91406 h -1.61719 c -0.16406,0 -0.1875,0 -0.25781,-0.0117 -0.12891,-0.0117 -0.15235,-0.0352 -0.15235,-0.1289 0,-0.082 0.0352,-0.15235 0.0586,-0.25782 l 0.83203,-3.375 h 2.25 c 1.40625,0 1.40625,1.3125 1.40625,1.40625 0,1.14844 -1.04297,2.36719 -2.51953,2.36719 z m 13.72265,-7.95703 c 0,-0.10547 -0.082,-0.10547 -0.10547,-0.10547 -0.0234,0 -0.0703,0 -0.17578,0.11719 l -0.82031,1.00781 c -0.42187,-0.71484 -1.07812,-1.125 -1.96875,-1.125 -2.58984,0 -5.26172,2.61328 -5.26172,5.42578 0,1.99219 1.39453,3.23438 3.14063,3.23438 0.96093,0 1.79297,-0.39844 2.48437,-0.98438 1.04297,-0.8789 1.35938,-2.03906 1.35938,-2.13281 0,-0.10547 -0.0937,-0.10547 -0.14063,-0.10547 -0.10547,0 -0.11719,0.0703 -0.14062,0.11719 -0.55078,1.86328 -2.15625,2.76562 -3.35157,2.76562 -1.27734,0 -2.36718,-0.82031 -2.36718,-2.50781 0,-0.38672 0.11718,-2.46094 1.46484,-4.03125 0.65625,-0.76172 1.78125,-1.4414 2.91797,-1.4414 1.3125,0 1.89844,1.08984 1.89844,2.30859 0,0.31641 -0.0352,0.57422 -0.0352,0.62109 0,0.11719 0.11719,0.11719 0.15234,0.11719 0.14063,0 0.15235,-0.0117 0.19922,-0.23437 z m 0,0"
         style="fill:#000000;fill-opacity:1;fill-rule:nonzero;stroke:none" />
      <path
         id="path8"
         d="m 103.55173,148.54175 c -0.41016,0.70313 -0.82032,0.9375 -1.39453,0.97266 -0.12891,0.0117 -0.22266,0.0117 -0.22266,0.23437 0,0.0703 0.0586,0.11719 0.14062,0.11719 0.21094,0 0.75,-0.0234 0.97266,-0.0234 0.33984,0 0.72656,0.0234 1.05469,0.0234 0.0703,0 0.22265,0 0.22265,-0.22266 0,-0.11718 -0.0937,-0.1289 -0.17578,-0.1289 -0.26953,-0.0234 -0.49218,-0.11719 -0.49218,-0.39844 0,-0.17578 0.0703,-0.30469 0.22265,-0.5625 l 0.90235,-1.51172 h 3.05859 c 0.0117,0.10547 0.0117,0.21094 0.0234,0.31641 0.0351,0.30468 0.17578,1.54687 0.17578,1.78125 0,0.35156 -0.60938,0.375 -0.79688,0.375 -0.14062,0 -0.26953,0 -0.26953,0.22265 0,0.12891 0.10547,0.12891 0.17578,0.12891 0.21094,0 0.44532,-0.0234 0.65625,-0.0234 h 0.67969 c 0.72656,0 1.25391,0.0234 1.26563,0.0234 0.082,0 0.21093,0 0.21093,-0.22266 0,-0.1289 -0.10547,-0.1289 -0.28125,-0.1289 -0.65625,0 -0.66797,-0.10547 -0.71484,-0.45703 l -0.72656,-7.46485 c -0.0234,-0.23437 -0.0703,-0.25781 -0.19922,-0.25781 -0.11719,0 -0.1875,0.0234 -0.30469,0.19922 z m 1.4414,-1.83984 2.40235,-4.01953 0.41015,4.01953 z m 13.98926,-2.07422 c 0,-1.96875 -1.30078,-3.17578 -2.96484,-3.17578 -2.56641,0 -5.14453,2.7539 -5.14453,5.50781 0,1.875 1.24218,3.15234 2.97656,3.15234 2.50781,0 5.13281,-2.61328 5.13281,-5.48437 z m -5.0625,5.21484 c -0.98437,0 -2.01562,-0.71484 -2.01562,-2.57812 0,-1.08985 0.38671,-2.8711 1.37109,-4.06641 0.86719,-1.05469 1.875,-1.48828 2.67187,-1.48828 1.05469,0 2.07422,0.77344 2.07422,2.49609 0,1.05469 -0.45703,2.71875 -1.2539,3.85547 -0.87891,1.21875 -1.95703,1.78125 -2.84766,1.78125 z m 0,0"
         style="fill:#000000;fill-opacity:1;fill-rule:nonzero;stroke:none" />
      <path
         id="path9"
         d="m 182.85544,148.98706 c -0.10547,0.41016 -0.12891,0.52735 -0.96094,0.52735 -0.23437,0 -0.35156,0 -0.35156,0.22265 0,0.12891 0.0703,0.12891 0.30469,0.12891 h 3.79687 c 2.41406,0 4.76953,-2.49609 4.76953,-5.16797 0,-1.72266 -1.03125,-3 -2.74219,-3 h -3.83203 c -0.23437,0 -0.33984,0 -0.33984,0.23438 0,0.11718 0.10547,0.11718 0.29297,0.11718 0.72656,0 0.72656,0.0937 0.72656,0.22266 0,0.0234 0,0.0937 -0.0469,0.28125 z m 2.51953,-6.46875 c 0.11719,-0.44531 0.16406,-0.46875 0.62109,-0.46875 h 1.32422 c 1.11328,0 2.14453,0.60938 2.14453,2.26172 0,0.59766 -0.23437,2.67188 -1.39453,3.98438 -0.33984,0.39843 -1.24219,1.21875 -2.625,1.21875 h -1.35937 c -0.16407,0 -0.1875,0 -0.25782,-0.0117 -0.1289,-0.0117 -0.14062,-0.0352 -0.14062,-0.12891 0,-0.082 0.0234,-0.15234 0.0469,-0.25781 z m 0,0"
         style="fill:#000000;fill-opacity:1;fill-rule:nonzero;stroke:none" />
      <path
         id="path10"
         d="m -146.18948,164.42945 c -0.41016,0.70312 -0.82032,0.9375 -1.39454,0.97265 -0.1289,0.0117 -0.22265,0.0117 -0.22265,0.23438 0,0.0703 0.0586,0.11718 0.14062,0.11718 0.21094,0 0.75,-0.0234 0.97266,-0.0234 0.33984,0 0.72656,0.0234 1.05469,0.0234 0.0703,0 0.22265,0 0.22265,-0.22265 0,-0.11719 -0.0937,-0.12891 -0.17578,-0.12891 -0.26953,-0.0234 -0.49219,-0.11719 -0.49219,-0.39844 0,-0.17578 0.0703,-0.30468 0.22266,-0.5625 l 0.90234,-1.51171 h 3.0586 c 0.0117,0.10546 0.0117,0.21093 0.0234,0.3164 0.0352,0.30469 0.17578,1.54688 0.17578,1.78125 0,0.35156 -0.60938,0.375 -0.79688,0.375 -0.14062,0 -0.26953,0 -0.26953,0.22266 0,0.1289 0.10547,0.1289 0.17578,0.1289 0.21094,0 0.44531,-0.0234 0.65625,-0.0234 h 0.67969 c 0.72656,0 1.25391,0.0234 1.26562,0.0234 0.082,0 0.21094,0 0.21094,-0.22265 0,-0.12891 -0.10547,-0.12891 -0.28125,-0.12891 -0.65625,0 -0.66797,-0.10547 -0.71484,-0.45703 l -0.72656,-7.46484 c -0.0234,-0.23438 -0.0703,-0.25782 -0.19922,-0.25782 -0.11719,0 -0.1875,0.0234 -0.30469,0.19922 z m 1.4414,-1.83985 2.40235,-4.01953 0.41015,4.01953 z m 7.1836,2.28516 c -0.10547,0.41015 -0.12891,0.52734 -0.96094,0.52734 -0.23438,0 -0.35156,0 -0.35156,0.22266 0,0.1289 0.0703,0.1289 0.30468,0.1289 h 3.79688 c 2.41406,0 4.76953,-2.49609 4.76953,-5.16796 0,-1.72266 -1.03125,-3 -2.74219,-3 h -3.83203 c -0.23437,0 -0.33984,0 -0.33984,0.23437 0,0.11719 0.10547,0.11719 0.29297,0.11719 0.72656,0 0.72656,0.0937 0.72656,0.22265 0,0.0234 0,0.0937 -0.0469,0.28125 z m 2.51953,-6.46875 c 0.11718,-0.44531 0.16406,-0.46875 0.62109,-0.46875 h 1.32422 c 1.11328,0 2.14453,0.60937 2.14453,2.26172 0,0.59765 -0.23437,2.67187 -1.39453,3.98437 -0.33984,0.39844 -1.24219,1.21875 -2.625,1.21875 h -1.35938 c -0.16406,0 -0.1875,0 -0.25781,-0.0117 -0.1289,-0.0117 -0.14062,-0.0351 -0.14062,-0.1289 0,-0.082 0.0234,-0.15235 0.0469,-0.25782 z m 0,0"
         style="fill:#000000;fill-opacity:1;fill-rule:nonzero;stroke:none" />
      <path
         id="path11"
         d="m -97.914094,157.22241 c 0,-0.22265 0,-0.43359 -0.234375,-0.43359 -0.246093,0 -0.246093,0.21094 -0.246093,0.43359 v 11.08594 c 0,0.22266 0,0.4336 0.246093,0.4336 0.234375,0 0.234375,-0.21094 0.234375,-0.4336 z m 0,0"
         style="fill:#000000;fill-opacity:1;fill-rule:nonzero;stroke:none" />
      <path
         id="path12"
         d="m -94.465852,164.42945 c -0.410156,0.70312 -0.820312,0.9375 -1.394531,0.97265 -0.128906,0.0117 -0.222656,0.0117 -0.222656,0.23438 0,0.0703 0.05859,0.11718 0.140625,0.11718 0.210937,0 0.75,-0.0234 0.972656,-0.0234 0.339844,0 0.726563,0.0234 1.054688,0.0234 0.07031,0 0.222656,0 0.222656,-0.22265 0,-0.11719 -0.09375,-0.12891 -0.175781,-0.12891 -0.269532,-0.0234 -0.492188,-0.11719 -0.492188,-0.39844 0,-0.17578 0.07031,-0.30468 0.222656,-0.5625 l 0.902344,-1.51171 h 3.058594 c 0.01172,0.10546 0.01172,0.21093 0.02344,0.3164 0.03516,0.30469 0.175782,1.54688 0.175782,1.78125 0,0.35156 -0.609375,0.375 -0.796875,0.375 -0.140625,0 -0.269532,0 -0.269532,0.22266 0,0.1289 0.105469,0.1289 0.175782,0.1289 0.210937,0 0.445312,-0.0234 0.65625,-0.0234 h 0.679687 c 0.726563,0 1.253906,0.0234 1.265625,0.0234 0.08203,0 0.210938,0 0.210938,-0.22265 0,-0.12891 -0.105469,-0.12891 -0.28125,-0.12891 -0.65625,0 -0.667969,-0.10547 -0.714844,-0.45703 l -0.726563,-7.46484 c -0.02344,-0.23438 -0.07031,-0.25782 -0.199218,-0.25782 -0.117188,0 -0.1875,0.0234 -0.304688,0.19922 z m 1.441407,-1.83985 2.402343,-4.01953 0.410157,4.01953 z m 13.992187,-2.07422 c 0,-1.96875 -1.300781,-3.17578 -2.964844,-3.17578 -2.566406,0 -5.144531,2.75391 -5.144531,5.50781 0,1.875 1.242188,3.15235 2.976563,3.15235 2.507812,0 5.132812,-2.61328 5.132812,-5.48438 z m -5.0625,5.21485 c -0.984375,0 -2.015625,-0.71485 -2.015625,-2.57813 0,-1.08984 0.386719,-2.87109 1.371094,-4.0664 0.867187,-1.05469 1.875,-1.48829 2.671875,-1.48829 1.054687,0 2.074219,0.77344 2.074219,2.4961 0,1.05469 -0.457032,2.71875 -1.253907,3.85547 -0.878906,1.21875 -1.957031,1.78125 -2.847656,1.78125 z m 0,0"
         style="fill:#000000;fill-opacity:1;fill-rule:nonzero;stroke:none" />
      <path
         id="path13"
         d="m -76.547883,157.22241 c 0,-0.22265 0,-0.43359 -0.234375,-0.43359 -0.246094,0 -0.246094,0.21094 -0.246094,0.43359 v 11.08594 c 0,0.22266 0,0.4336 0.246094,0.4336 0.234375,0 0.234375,-0.21094 0.234375,-0.4336 z m 0,0"
         style="fill:#000000;fill-opacity:1;fill-rule:nonzero;stroke:none" />
      <path
         id="path14"
         d="m -63.7305,161.88648 c 0.164063,0 0.375,0 0.375,-0.22266 0,-0.22266 -0.199219,-0.22266 -0.375,-0.22266 h -7.042969 c -0.175781,0 -0.386718,0 -0.386718,0.21094 0,0.23438 0.199218,0.23438 0.386718,0.23438 z m 0,2.21484 c 0.164063,0 0.375,0 0.375,-0.21094 0,-0.23437 -0.199219,-0.23437 -0.375,-0.23437 h -7.042969 c -0.175781,0 -0.386718,0 -0.386718,0.22265 0,0.22266 0.199218,0.22266 0.386718,0.22266 z m 0,0"
         style="fill:#000000;fill-opacity:1;fill-rule:nonzero;stroke:none" />
      <path
         id="path15"
         d="m -55.782258,164.3357 c -0.05859,0.19921 -0.05859,0.22265 -0.222656,0.44531 -0.269531,0.33984 -0.796875,0.85547 -1.359375,0.85547 -0.480469,0 -0.761719,-0.44532 -0.761719,-1.14844 0,-0.65625 0.375,-1.99219 0.597656,-2.49609 0.410157,-0.84375 0.972657,-1.26563 1.441407,-1.26563 0.785156,0 0.9375,0.97266 0.9375,1.06641 0,0.0117 -0.03516,0.17578 -0.04687,0.19922 z m 0.761719,-3.07032 c -0.128906,-0.30468 -0.445313,-0.78515 -1.066406,-0.78515 -1.359375,0 -2.8125,1.74609 -2.8125,3.51562 0,1.1836 0.691406,1.875 1.5,1.875 0.65625,0 1.21875,-0.51562 1.558593,-0.90234 0.117188,0.70312 0.679688,0.90234 1.042969,0.90234 0.351563,0 0.644531,-0.21094 0.855469,-0.64453 0.1875,-0.41016 0.363281,-1.13672 0.363281,-1.18359 0,-0.0586 -0.04687,-0.10547 -0.117187,-0.10547 -0.117188,0 -0.128907,0.0586 -0.175782,0.23437 -0.175781,0.71485 -0.398437,1.46485 -0.890625,1.46485 -0.351562,0 -0.375,-0.31641 -0.375,-0.55078 0,-0.28125 0.03516,-0.41016 0.140625,-0.87891 0.08203,-0.29297 0.152344,-0.5625 0.246094,-0.90234 0.433594,-1.79297 0.550781,-2.22657 0.550781,-2.29688 0,-0.16406 -0.140625,-0.29297 -0.316406,-0.29297 -0.375,0 -0.480469,0.41016 -0.503906,0.55078 z m 0,0"
         style="fill:#000000;fill-opacity:1;fill-rule:nonzero;stroke:none" />
      <path
         id="path16"
         d="m -21.654328,204.04468 c 0,-0.26953 0,-0.28125 -0.246094,-0.28125 -0.28125,0.31641 -0.878906,0.76172 -2.109375,0.76172 v 0.35156 c 0.269531,0 0.867188,0 1.523438,-0.31641 v 6.22266 c 0,0.43359 -0.03516,0.57422 -1.078125,0.57422 h -0.375 v 0.35156 c 0.316406,-0.0234 1.476562,-0.0234 1.875,-0.0234 0.398437,0 1.546875,0 1.863281,0.0234 v -0.35156 h -0.363281 c -1.054688,0 -1.089844,-0.14063 -1.089844,-0.57422 z m 7.763672,3.84375 c 0,-0.99609 -0.05859,-1.96875 -0.492188,-2.87109 -0.492187,-0.9961 -1.347656,-1.25391 -1.933593,-1.25391 -0.691407,0 -1.546875,0.33984 -1.980469,1.33594 -0.339844,0.75 -0.457031,1.48828 -0.457031,2.78906 0,1.16016 0.08203,2.02734 0.515625,2.87109 0.457031,0.91407 1.289062,1.19532 1.910156,1.19532 1.042969,0 1.640625,-0.6211 1.980469,-1.3125 0.433593,-0.89063 0.457031,-2.0625 0.457031,-2.75391 z m -2.4375,3.83203 c -0.386719,0 -1.160156,-0.21094 -1.382813,-1.52344 -0.140625,-0.71484 -0.140625,-1.61718 -0.140625,-2.46093 0,-0.97266 0,-1.86329 0.199219,-2.56641 0.199219,-0.79688 0.808594,-1.17188 1.324219,-1.17188 0.457031,0 1.148437,0.28125 1.371094,1.30079 0.152343,0.67968 0.152343,1.6289 0.152343,2.4375 0,0.80859 0,1.71093 -0.128906,2.4375 -0.222656,1.32421 -0.972656,1.54687 -1.394531,1.54687 z m 6.3808591,-7.67578 c 0,-0.26953 0,-0.28125 -0.2460941,-0.28125 -0.28125,0.31641 -0.878906,0.76172 -2.109375,0.76172 v 0.35156 c 0.269532,0 0.867188,0 1.523438,-0.31641 v 6.22266 c 0,0.43359 -0.03516,0.57422 -1.078125,0.57422 h -0.375 v 0.35156 c 0.316406,-0.0234 1.476562,-0.0234 1.875,-0.0234 0.3984374,0 1.5468749,0 1.8632811,0.0234 v -0.35156 h -0.3632812 c -1.0546875,0 -1.0898438,-0.14063 -1.0898438,-0.57422 z m 0,0"
         style="fill:#000000;fill-opacity:1;fill-rule:nonzero;stroke:none" />
      <path
         id="path17"
         d="m 63.664031,272.13648 c -0.05859,0.19922 -0.05859,0.22265 -0.222656,0.44531 -0.269531,0.33984 -0.796875,0.85547 -1.359375,0.85547 -0.480469,0 -0.761719,-0.44531 -0.761719,-1.14844 0,-0.65625 0.375,-1.99219 0.597657,-2.49609 0.410156,-0.84375 0.972656,-1.26563 1.441406,-1.26563 0.785156,0 0.9375,0.97266 0.9375,1.06641 0,0.0117 -0.03516,0.17578 -0.04687,0.19922 z m 0.761719,-3.07032 c -0.128906,-0.30468 -0.445312,-0.78515 -1.066406,-0.78515 -1.359375,0 -2.8125,1.74609 -2.8125,3.51562 0,1.1836 0.691406,1.875 1.5,1.875 0.65625,0 1.21875,-0.51562 1.558594,-0.90234 0.117187,0.70312 0.679687,0.90234 1.042968,0.90234 0.351563,0 0.644532,-0.21093 0.855469,-0.64453 0.1875,-0.41015 0.363281,-1.13672 0.363281,-1.18359 0,-0.0586 -0.04687,-0.10547 -0.117187,-0.10547 -0.117188,0 -0.128906,0.0586 -0.175781,0.23437 -0.175782,0.71485 -0.398438,1.46485 -0.890625,1.46485 -0.351563,0 -0.375,-0.31641 -0.375,-0.55078 0,-0.28125 0.03516,-0.41016 0.140625,-0.87891 0.08203,-0.29297 0.152343,-0.5625 0.246093,-0.90234 0.433594,-1.79297 0.550782,-2.22657 0.550782,-2.29688 0,-0.16406 -0.140625,-0.29297 -0.316407,-0.29297 -0.375,0 -0.480468,0.41016 -0.503906,0.55078 z m 0,0"
         style="fill:#000000;fill-opacity:1;fill-rule:nonzero;stroke:none" />
      <path
         id="path18"
         d="m 76.129852,265.56226 c 0.01172,-0.0469 0.03516,-0.12891 0.03516,-0.1875 0,-0.11719 -0.128906,-0.11719 -0.152344,-0.11719 -0.01172,0 -0.433594,0.0352 -0.65625,0.0586 -0.199219,0.0117 -0.375,0.0352 -0.597656,0.0469 -0.28125,0.0234 -0.363281,0.0352 -0.363281,0.25781 0,0.11719 0.117187,0.11719 0.234375,0.11719 0.609375,0 0.609375,0.10547 0.609375,0.22266 0,0.082 -0.09375,0.43359 -0.140625,0.64453 l -0.292969,1.14843 c -0.117188,0.48047 -0.796875,3.19922 -0.84375,3.41016 -0.05859,0.29297 -0.05859,0.50391 -0.05859,0.65625 0,1.21875 0.679688,1.85156 1.453125,1.85156 1.394531,0 2.824219,-1.78125 2.824219,-3.51562 0,-1.10156 -0.621094,-1.875 -1.511719,-1.875 -0.632812,0 -1.183594,0.51562 -1.417969,0.75 z m -0.761719,7.875 c -0.375,0 -0.796875,-0.29297 -0.796875,-1.21875 0,-0.39844 0.03516,-0.6211 0.246094,-1.46485 0.04687,-0.15234 0.234375,-0.91406 0.28125,-1.0664 0.02344,-0.10547 0.726562,-1.16016 1.535156,-1.16016 0.527344,0 0.773437,0.51563 0.773437,1.13672 0,0.57422 -0.339843,1.93359 -0.632812,2.55469 -0.304688,0.64453 -0.855469,1.21875 -1.40625,1.21875 z m 0,0"
         style="fill:#000000;fill-opacity:1;fill-rule:nonzero;stroke:none" />
      <path
         id="path19"
         d="m 183.54098,265.81128 c -0.082,-0.14062 -0.30468,-0.48047 -0.79687,-0.48047 -0.94922,0 -1.99219,1.11328 -1.99219,2.28516 0,0.83203 0.53906,1.3125 1.14844,1.3125 0.51562,0 0.94922,-0.41016 1.08984,-0.5625 0.15235,0.53906 0.69141,0.5625 0.78516,0.5625 0.36328,0 0.55078,-0.30469 0.60937,-0.44531 0.16407,-0.28125 0.26954,-0.75 0.26954,-0.77344 0,-0.0469 -0.0234,-0.10547 -0.11719,-0.10547 -0.10547,0 -0.11719,0.0469 -0.16406,0.24609 -0.11719,0.4336 -0.25782,0.85547 -0.57422,0.85547 -0.1875,0 -0.25782,-0.15234 -0.25782,-0.375 0,-0.14062 0.0703,-0.41015 0.11719,-0.60937 0.0586,-0.19922 0.17578,-0.67969 0.19922,-0.82031 l 0.16406,-0.60938 c 0.0352,-0.1875 0.12891,-0.51562 0.12891,-0.5625 0,-0.1875 -0.15234,-0.24609 -0.25781,-0.24609 -0.11719,0 -0.31641,0.082 -0.35157,0.32812 z m -0.55078,2.17969 c -0.39843,0.53906 -0.80859,0.71484 -1.0664,0.71484 -0.36328,0 -0.55078,-0.33984 -0.55078,-0.75 0,-0.375 0.22265,-1.23047 0.39843,-1.58203 0.22266,-0.48047 0.6211,-0.82031 0.98438,-0.82031 0.51562,0 0.66797,0.58594 0.66797,0.67969 0,0.0351 -0.19922,0.80859 -0.2461,1.01953 -0.10547,0.375 -0.10547,0.38672 -0.1875,0.73828 z m 0,0"
         style="fill:#000000;fill-opacity:1;fill-rule:nonzero;stroke:none" />
    </g>
    <path
       id="path20"
       d="M 0,0 H 4.498"
       style="fill:none;stroke:#000000;stroke-width:0.478;stroke-linecap:butt;stroke-linejoin:miter;stroke-miterlimit:10;stroke-dasharray:none;stroke-opacity:1"
       transform="matrix(1.3333333,0,0,-1.3333333,515.27333,416.824)" />
    <g
       id="g20"
       aria-label="b&#10;+a=&#10;b"
       transform="matrix(1.3333333,0,0,1.3333333,515.856,426.30533)">
      <path
         id="path21"
         d="m 1.9449141,-5.2973594 c 0.011719,-0.011719 0.035156,-0.1171875 0.035156,-0.1171875 0,-0.046875 -0.035156,-0.1171875 -0.1289062,-0.1171875 -0.035156,0 -0.28125,0.023437 -0.46875,0.035156 l -0.44531254,0.035156 c -0.17578125,0.023437 -0.2578125,0.023437 -0.2578125,0.1640625 0,0.1171875 0.1171875,0.1171875 0.2109375,0.1171875 0.38671874,0 0.38671874,0.046875 0.38671874,0.1171875 0,0.046875 -0.082031,0.3632813 -0.1289062,0.5507813 l -0.69140629,2.7773437 c -0.0703125,0.2695313 -0.0703125,0.3867188 -0.0703125,0.5273438 0,0.82031248 0.50390625,1.28906248 1.12499999,1.28906248 0.9726563,0 1.9921875,-1.13671878 1.9921875,-2.28515628 0,-0.796875 -0.5039062,-1.3125 -1.1484375,-1.3125 -0.4453125,0 -0.7851562,0.2929688 -0.9609375,0.4453125 z m -0.4335938,5.15625003 c -0.2929687,0 -0.57421874,-0.22265625 -0.57421874,-0.80859375 0,-0.21093748 0.0234375,-0.41015628 0.11718754,-0.79687498 0.058594,-0.234375 0.1171875,-0.4570313 0.1757812,-0.6796875 0.046875,-0.1523438 0.046875,-0.1640625 0.140625,-0.28125 0.2695313,-0.3398438 0.6328125,-0.5859375 0.9609375,-0.5859375 0.3984375,0 0.5507813,0.3867187 0.5507813,0.75 0,0.2929687 -0.1757813,1.1484375 -0.4101563,1.61718748 -0.2109375,0.43359375 -0.5976562,0.78515625 -0.9609375,0.78515625 z m 0,0"
         style="fill:#000000;fill-opacity:1;fill-rule:nonzero;stroke:none" />
      <path
         id="path22"
         d="m 12.682219,-6.8881797 h 3.304687 c 0.164063,0 0.375,0 0.375,-0.2109375 0,-0.2226562 -0.199218,-0.2226562 -0.375,-0.2226562 h -3.304687 v -3.3046876 c 0,-0.164062 0,-0.386719 -0.210938,-0.386719 -0.234375,0 -0.234375,0.210938 -0.234375,0.386719 v 3.3046876 H 8.9439375 c -0.1757812,0 -0.3867187,0 -0.3867187,0.2109375 0,0.2226562 0.1992187,0.2226562 0.3867187,0.2226562 h 3.2929685 v 3.3046875 c 0,0.1640625 0,0.3867188 0.222657,0.3867188 0.222656,0 0.222656,-0.2109375 0.222656,-0.3867188 z m 0,0"
         style="fill:#000000;fill-opacity:1;fill-rule:nonzero;stroke:none" />
      <path
         id="path23"
         d="m 23.273039,-5.5405234 c -0.05859,0.1992187 -0.05859,0.2226562 -0.222656,0.4453125 -0.269531,0.3398437 -0.796875,0.8554687 -1.359375,0.8554687 -0.480469,0 -0.761719,-0.4453125 -0.761719,-1.1484375 0,-0.65625 0.375,-1.9921875 0.597656,-2.4960937 0.410157,-0.84375 0.972657,-1.265625 1.441407,-1.265625 0.785156,0 0.9375,0.9726562 0.9375,1.0664062 0,0.011719 -0.03516,0.1757813 -0.04687,0.1992188 z m 0.761719,-3.0703125 c -0.128906,-0.3046875 -0.445313,-0.7851563 -1.066406,-0.7851563 -1.359375,0 -2.8125,1.7460938 -2.8125,3.515625 0,1.1835938 0.691406,1.875 1.5,1.875 0.65625,0 1.21875,-0.515625 1.558593,-0.9023437 0.117188,0.703125 0.679688,0.9023437 1.042969,0.9023437 0.351563,0 0.644531,-0.2109375 0.855469,-0.6445312 0.1875,-0.4101563 0.363281,-1.1367188 0.363281,-1.1835938 0,-0.058594 -0.04687,-0.1054687 -0.117187,-0.1054687 -0.117188,0 -0.128907,0.058594 -0.175782,0.234375 -0.175781,0.7148437 -0.398437,1.4648437 -0.890625,1.4648437 -0.351562,0 -0.375,-0.3164062 -0.375,-0.5507812 0,-0.28125 0.03516,-0.4101563 0.140625,-0.8789063 0.08203,-0.2929687 0.152344,-0.5625 0.246094,-0.9023437 0.433594,-1.7929688 0.550781,-2.2265625 0.550781,-2.296875 0,-0.1640625 -0.140625,-0.2929688 -0.316406,-0.2929688 -0.375,0 -0.480469,0.4101563 -0.503906,0.5507813 z m 0,0"
         style="fill:#000000;fill-opacity:1;fill-rule:nonzero;stroke:none" />
      <path
         id="path24"
         d="m 37.215422,-7.9897422 c 0.164062,0 0.375,0 0.375,-0.2226562 0,-0.2226563 -0.199219,-0.2226563 -0.375,-0.2226563 h -7.042969 c -0.175781,0 -0.386719,0 -0.386719,0.2109375 0,0.234375 0.199219,0.234375 0.386719,0.234375 z m 0,2.2148438 c 0.164062,0 0.375,0 0.375,-0.2109375 0,-0.234375 -0.199219,-0.234375 -0.375,-0.234375 h -7.042969 c -0.175781,0 -0.386719,0 -0.386719,0.2226562 0,0.2226563 0.199219,0.2226563 0.386719,0.2226563 z m 0,0"
         style="fill:#000000;fill-opacity:1;fill-rule:nonzero;stroke:none" />
      <path
         id="path25"
         d="m 45.143156,-14.127437 c 0.01172,-0.01172 0.03516,-0.117188 0.03516,-0.117188 0,-0.04687 -0.03516,-0.117187 -0.128907,-0.117187 -0.03516,0 -0.28125,0.02344 -0.46875,0.03516 l -0.445312,0.03516 c -0.175781,0.02344 -0.257813,0.02344 -0.257813,0.164063 0,0.117187 0.117188,0.117187 0.210938,0.117187 0.386719,0 0.386719,0.04687 0.386719,0.117188 0,0.04687 -0.08203,0.363281 -0.128907,0.550781 l -0.691406,2.777344 c -0.07031,0.269531 -0.07031,0.386718 -0.07031,0.527343 0,0.8203128 0.503906,1.2890628 1.125,1.2890628 0.972656,0 1.992187,-1.1367188 1.992187,-2.2851558 0,-0.796875 -0.503906,-1.3125 -1.148437,-1.3125 -0.445313,0 -0.785157,0.292968 -0.960938,0.445312 z m -0.433593,5.1562495 c -0.292969,0 -0.574219,-0.2226562 -0.574219,-0.8085937 0,-0.2109375 0.02344,-0.4101558 0.117187,-0.7968748 0.05859,-0.234375 0.117188,-0.457031 0.175782,-0.679688 0.04687,-0.152343 0.04687,-0.164062 0.140625,-0.28125 0.269531,-0.339843 0.632812,-0.585937 0.960937,-0.585937 0.398438,0 0.550781,0.386719 0.550781,0.75 0,0.292969 -0.175781,1.148437 -0.410156,1.6171873 -0.210937,0.4335937 -0.597656,0.7851562 -0.960937,0.7851562 z m 0,0"
         style="fill:#000000;fill-opacity:1;fill-rule:nonzero;stroke:none" />
    </g>
    <path
       id="path26"
       d="M 0,0 H 4.498"
       style="fill:none;stroke:#000000;stroke-width:0.478;stroke-linecap:butt;stroke-linejoin:miter;stroke-miterlimit:10;stroke-dasharray:none;stroke-opacity:1"
       transform="matrix(1.3333333,0,0,-1.3333333,572.87067,416.824)" />
    <g
       id="g26"
       aria-label="a&#10;+b.Oblicz&#10;1"
       transform="matrix(1.3333333,0,0,1.3333333,572.87067,426.30533)">
      <path
         id="path27"
         d="m 3.1292266,-3.0356406 c -0.082031,-0.140625 -0.3046875,-0.4804688 -0.796875,-0.4804688 -0.9492188,0 -1.99218754,1.1132813 -1.99218754,2.2851563 0,0.83203123 0.5390625,1.31249998 1.14843754,1.31249998 0.515625,0 0.9492187,-0.41015625 1.0898437,-0.5625 0.1523438,0.5390625 0.6914063,0.5625 0.7851563,0.5625 0.3632812,0 0.5507812,-0.3046875 0.609375,-0.4453125 0.1640625,-0.28125 0.2695312,-0.74999998 0.2695312,-0.77343748 0,-0.046875 -0.023437,-0.1054688 -0.1171875,-0.1054688 -0.1054687,0 -0.1171875,0.046875 -0.1640625,0.24609378 -0.1171875,0.43359375 -0.2578125,0.85546875 -0.5742187,0.85546875 -0.1875,0 -0.2578125,-0.15234375 -0.2578125,-0.375 0,-0.140625 0.070312,-0.41015625 0.1171875,-0.60937503 0.058594,-0.1992187 0.1757812,-0.6796875 0.1992187,-0.8203125 l 0.1640625,-0.609375 c 0.035156,-0.1875 0.1289063,-0.515625 0.1289063,-0.5625 0,-0.1875 -0.1523438,-0.2460937 -0.2578125,-0.2460937 -0.1171875,0 -0.3164063,0.082031 -0.3515625,0.328125 z m -0.5507813,2.17968748 c -0.3984375,0.5390625 -0.8085937,0.71484375 -1.0664062,0.71484375 -0.3632813,0 -0.55078129,-0.33984375 -0.55078129,-0.75 0,-0.37500003 0.22265629,-1.23046873 0.39843749,-1.58203123 0.2226563,-0.4804688 0.6210938,-0.8203125 0.984375,-0.8203125 0.515625,0 0.6679688,0.5859375 0.6679688,0.6796875 0,0.035156 -0.1992188,0.8085937 -0.2460938,1.0195312 -0.1054687,0.375 -0.1054687,0.3867188 -0.1875,0.73828128 z m 0,0"
         style="fill:#000000;fill-opacity:1;fill-rule:nonzero;stroke:none" />
      <path
         id="path28"
         d="m 13.119461,-6.8881797 h 3.304687 c 0.164063,0 0.375,0 0.375,-0.2109375 0,-0.2226562 -0.199218,-0.2226562 -0.375,-0.2226562 h -3.304687 v -3.3046876 c 0,-0.164062 0,-0.386719 -0.210938,-0.386719 -0.234375,0 -0.234375,0.210938 -0.234375,0.386719 v 3.3046876 H 9.3811797 c -0.1757813,0 -0.3867188,0 -0.3867188,0.2109375 0,0.2226562 0.1992188,0.2226562 0.3867188,0.2226562 h 3.2929683 v 3.3046875 c 0,0.1640625 0,0.3867188 0.222657,0.3867188 0.222656,0 0.222656,-0.2109375 0.222656,-0.3867188 z m 0,0"
         style="fill:#000000;fill-opacity:1;fill-rule:nonzero;stroke:none" />
      <path
         id="path29"
         d="m 22.87825,-12.114742 c 0.01172,-0.04687 0.03516,-0.128906 0.03516,-0.1875 0,-0.117188 -0.128906,-0.117188 -0.152344,-0.117188 -0.01172,0 -0.433593,0.03516 -0.65625,0.05859 -0.199218,0.01172 -0.375,0.03516 -0.597656,0.04687 -0.28125,0.02344 -0.363281,0.03516 -0.363281,0.257813 0,0.117187 0.117187,0.117187 0.234375,0.117187 0.609375,0 0.609375,0.105469 0.609375,0.222656 0,0.08203 -0.09375,0.433594 -0.140625,0.644532 l -0.292969,1.1484371 c -0.117187,0.4804687 -0.796875,3.1992187 -0.84375,3.4101562 -0.05859,0.2929688 -0.05859,0.5039063 -0.05859,0.65625 0,1.21875 0.679688,1.8515625 1.453125,1.8515625 1.394532,0 2.824219,-1.78125 2.824219,-3.515625 0,-1.1015625 -0.621094,-1.875 -1.511719,-1.875 -0.632812,0 -1.183593,0.515625 -1.417968,0.75 z m -0.761719,7.8749998 c -0.375,0 -0.796875,-0.2929687 -0.796875,-1.21875 0,-0.3984375 0.03516,-0.6210937 0.246094,-1.4648437 0.04687,-0.1523438 0.234375,-0.9140625 0.28125,-1.0664063 0.02344,-0.1054687 0.726562,-1.1601562 1.535156,-1.1601562 0.527344,0 0.773438,0.515625 0.773438,1.1367187 0,0.5742188 -0.339844,1.9335938 -0.632813,2.5546875 -0.304687,0.6445313 -0.855469,1.21875 -1.40625,1.21875 z m 0,0"
         style="fill:#000000;fill-opacity:1;fill-rule:nonzero;stroke:none" />
      <path
         id="path30"
         d="m 73.7845,-13.904781 c 0,-0.222656 -0.02344,-0.222656 -0.234375,-0.222656 -0.328125,0.316406 -0.75,0.503906 -1.511719,0.503906 V -13.354 c 0.222656,0 0.644531,0 1.113281,-0.222656 v 4.0898435 c 0,0.2929688 -0.02344,0.3984375 -0.785156,0.3984375 h -0.28125 v 0.2578125 C 72.413406,-8.854 73.104812,-8.854 73.456375,-8.854 c 0.363281,0 1.054687,0 1.382812,0.023437 v -0.257812 h -0.28125 c -0.75,0 -0.773437,-0.1054687 -0.773437,-0.3984375 z m 0,0"
         style="fill:#000000;fill-opacity:1;fill-rule:nonzero;stroke:none" />
    </g>
    <path
       id="path31"
       d="M 0,0 H 4.498"
       style="fill:none;stroke:#000000;stroke-width:0.478;stroke-linecap:butt;stroke-linejoin:miter;stroke-miterlimit:10;stroke-dasharray:none;stroke-opacity:1"
       transform="matrix(1.3333333,0,0,-1.3333333,667.732,416.824)" />
    <g
       id="g31"
       aria-label="a&#10;+&#10;1"
       transform="matrix(1.3333333,0,0,1.3333333,667.732,426.30533)">
      <path
         id="path32"
         d="m 3.1277578,-3.0356406 c -0.082031,-0.140625 -0.3046875,-0.4804688 -0.796875,-0.4804688 -0.9492187,0 -1.99218749,1.1132813 -1.99218749,2.2851563 0,0.83203123 0.5390625,1.31249998 1.14843749,1.31249998 0.515625,0 0.9492188,-0.41015625 1.0898438,-0.5625 0.1523437,0.5390625 0.6914062,0.5625 0.7851562,0.5625 0.3632813,0 0.5507813,-0.3046875 0.609375,-0.4453125 0.1640625,-0.28125 0.2695313,-0.74999998 0.2695313,-0.77343748 0,-0.046875 -0.023437,-0.1054688 -0.1171875,-0.1054688 -0.1054688,0 -0.1171875,0.046875 -0.1640625,0.24609378 -0.1171875,0.43359375 -0.2578125,0.85546875 -0.5742188,0.85546875 -0.1875,0 -0.2578125,-0.15234375 -0.2578125,-0.375 0,-0.140625 0.070312,-0.41015625 0.1171875,-0.60937503 0.058594,-0.1992187 0.1757813,-0.6796875 0.1992188,-0.8203125 l 0.1640625,-0.609375 c 0.035156,-0.1875 0.1289062,-0.515625 0.1289062,-0.5625 0,-0.1875 -0.1523437,-0.2460937 -0.2578125,-0.2460937 -0.1171875,0 -0.3164062,0.082031 -0.3515625,0.328125 z m -0.5507812,2.17968748 c -0.3984375,0.5390625 -0.8085938,0.71484375 -1.0664063,0.71484375 -0.3632812,0 -0.55078124,-0.33984375 -0.55078124,-0.75 0,-0.37500003 0.22265624,-1.23046873 0.39843754,-1.58203123 0.2226562,-0.4804688 0.6210937,-0.8203125 0.984375,-0.8203125 0.515625,0 0.6679687,0.5859375 0.6679687,0.6796875 0,0.035156 -0.1992187,0.8085937 -0.2460937,1.0195312 -0.1054688,0.375 -0.1054688,0.3867188 -0.1875,0.73828128 z m 0,0"
         style="fill:#000000;fill-opacity:1;fill-rule:nonzero;stroke:none" />
      <path
         id="path33"
         d="m 13.120922,-6.8881797 h 3.304687 c 0.164063,0 0.375,0 0.375,-0.2109375 0,-0.2226562 -0.199218,-0.2226562 -0.375,-0.2226562 h -3.304687 v -3.3046876 c 0,-0.164062 0,-0.386719 -0.210938,-0.386719 -0.234375,0 -0.234375,0.210938 -0.234375,0.386719 v 3.3046876 H 9.3826406 c -0.1757812,0 -0.3867187,0 -0.3867187,0.2109375 0,0.2226562 0.1992187,0.2226562 0.3867187,0.2226562 h 3.2929684 v 3.3046875 c 0,0.1640625 0,0.3867188 0.222657,0.3867188 0.222656,0 0.222656,-0.2109375 0.222656,-0.3867188 z m 0,0"
         style="fill:#000000;fill-opacity:1;fill-rule:nonzero;stroke:none" />
      <path
         id="path34"
         d="m 23.814281,-13.904781 c 0,-0.222656 -0.02344,-0.222656 -0.234375,-0.222656 -0.328125,0.316406 -0.75,0.503906 -1.511718,0.503906 V -13.354 c 0.222656,0 0.644531,0 1.113281,-0.222656 v 4.0898435 c 0,0.2929688 -0.02344,0.3984375 -0.785156,0.3984375 h -0.28125 v 0.2578125 C 22.443188,-8.854 23.134594,-8.854 23.486156,-8.854 c 0.363282,0 1.054688,0 1.382813,0.023437 v -0.257812 h -0.28125 c -0.75,0 -0.773438,-0.1054687 -0.773438,-0.3984375 z m 0,0"
         style="fill:#000000;fill-opacity:1;fill-rule:nonzero;stroke:none" />
    </g>
    <path
       id="path35"
       d="M 0,0 H 4.234"
       style="fill:none;stroke:#000000;stroke-width:0.478;stroke-linecap:butt;stroke-linejoin:miter;stroke-miterlimit:10;stroke-dasharray:none;stroke-opacity:1"
       transform="matrix(1.3333333,0,0,-1.3333333,696.14133,416.824)" />
    <g
       id="g35"
       aria-label="b&#10;.&#10;ZADANIE4.&#10;Wyznaczwszystkieliczbypierwszep,qtakie,»e2pq=3(p+q).&#10;ZADANIE5.&#10;Rozwi¡»ukªadrówna«&#10;&#10;&#10;&#10;&#10;&#10;&#10;&#10;3x+5y=8xy&#10;2y+3z=2yz&#10;5z+2x=4xz."
       transform="matrix(1.3333333,0,0,1.3333333,696.54933,426.30533)">
      <path
         id="path36"
         d="m 1.9463984,-5.2973594 c 0.011719,-0.011719 0.035156,-0.1171875 0.035156,-0.1171875 0,-0.046875 -0.035156,-0.1171875 -0.1289063,-0.1171875 -0.035156,0 -0.28125,0.023437 -0.46875,0.035156 l -0.44531246,0.035156 c -0.17578125,0.023437 -0.2578125,0.023437 -0.2578125,0.1640625 0,0.1171875 0.1171875,0.1171875 0.2109375,0.1171875 0.38671876,0 0.38671876,0.046875 0.38671876,0.1171875 0,0.046875 -0.082031,0.3632813 -0.1289063,0.5507813 l -0.69140621,2.7773437 c -0.0703125,0.2695313 -0.0703125,0.3867188 -0.0703125,0.5273438 0,0.82031248 0.50390625,1.28906248 1.12500001,1.28906248 0.9726562,0 1.9921875,-1.13671878 1.9921875,-2.28515628 0,-0.796875 -0.5039063,-1.3125 -1.1484375,-1.3125 -0.4453125,0 -0.7851563,0.2929688 -0.9609375,0.4453125 z m -0.4335937,5.15625003 c -0.2929688,0 -0.57421876,-0.22265625 -0.57421876,-0.80859375 0,-0.21093748 0.0234375,-0.41015628 0.11718746,-0.79687498 0.058594,-0.234375 0.1171875,-0.4570313 0.1757813,-0.6796875 0.046875,-0.1523438 0.046875,-0.1640625 0.140625,-0.28125 0.2695312,-0.3398438 0.6328125,-0.5859375 0.9609375,-0.5859375 0.3984375,0 0.5507812,0.3867187 0.5507812,0.75 0,0.2929687 -0.1757812,1.1484375 -0.4101562,1.61718748 -0.2109375,0.43359375 -0.5976563,0.78515625 -0.9609375,0.78515625 z m 0,0"
         style="fill:#000000;fill-opacity:1;fill-rule:nonzero;stroke:none" />
      <path
         id="path37"
         d="m -282.80458,43.355961 c -0.082,0.351562 -0.1289,0.445312 -0.62109,0.445312 -0.14063,0 -0.26953,0 -0.26953,0.234375 0,0.02344 0.0117,0.117188 0.15234,0.117188 0.15234,0 0.31641,-0.02344 0.46875,-0.02344 h 0.51563 c 0.25781,0 0.86718,0.02344 1.11328,0.02344 0.0703,0 0.22265,0 0.22265,-0.210938 0,-0.140625 -0.0937,-0.140625 -0.29297,-0.140625 -0.55078,0 -0.58593,-0.08203 -0.58593,-0.175781 0,-0.140625 0.53906,-2.203125 0.60937,-2.472656 0.12891,0.328125 0.45703,0.796875 1.07813,0.796875 1.34765,0 2.8125,-1.757813 2.8125,-3.515625 0,-1.101563 -0.6211,-1.875 -1.52344,-1.875 -0.76172,0 -1.40625,0.738281 -1.54688,0.914062 -0.0937,-0.597656 -0.55078,-0.914062 -1.03125,-0.914062 -0.35156,0 -0.62109,0.164062 -0.85546,0.621094 -0.21094,0.433593 -0.375,1.160156 -0.375,1.207031 0,0.04687 0.0469,0.105469 0.1289,0.105469 0.0937,0 0.10547,-0.01172 0.17578,-0.28125 0.17578,-0.703125 0.41016,-1.40625 0.89063,-1.40625 0.26953,0 0.36328,0.1875 0.36328,0.539062 0,0.292969 -0.0352,0.410156 -0.082,0.632813 z m 2.0625,-5.25 c 0.082,-0.339844 0.42188,-0.679688 0.60938,-0.855469 0.14062,-0.117187 0.52734,-0.445312 0.98437,-0.445312 0.52735,0 0.76172,0.515625 0.76172,1.136718 0,0.574219 -0.32812,1.933594 -0.63281,2.554688 -0.29297,0.644531 -0.84375,1.21875 -1.39453,1.21875 -0.8086,0 -0.94922,-1.03125 -0.94922,-1.078125 0,-0.03516 0.0234,-0.128906 0.0352,-0.1875 z m 0,0"
         style="fill:#000000;fill-opacity:1;fill-rule:nonzero;stroke:none" />
      <path
         id="path38"
         d="m -265.01845,36.676273 c 0,-0.05859 -0.0469,-0.105468 -0.10546,-0.105468 -0.10547,0 -0.5625,0.433593 -0.79688,0.855468 -0.21094,-0.539062 -0.58594,-0.867187 -1.10156,-0.867187 -1.34766,0 -2.80078,1.746094 -2.80078,3.515625 0,1.183594 0.6914,1.875 1.5,1.875 0.63281,0 1.16015,-0.480469 1.41797,-0.75 l 0.0117,0.01172 -0.45703,1.792968 -0.10547,0.433594 c -0.10546,0.351563 -0.29296,0.351563 -0.85546,0.363281 -0.12891,0 -0.2461,0 -0.2461,0.234375 0,0.08203 0.0703,0.117188 0.15235,0.117188 0.16406,0 0.38671,-0.02344 0.55078,-0.02344 h 1.21875 c 0.17578,0 0.38672,0.02344 0.5625,0.02344 0.0703,0 0.21093,0 0.21093,-0.222656 0,-0.128907 -0.0937,-0.128907 -0.26953,-0.128907 -0.5625,0 -0.59765,-0.08203 -0.59765,-0.175781 0,-0.05859 0.0117,-0.07031 0.0469,-0.222656 z m -1.6875,3.738282 c -0.0586,0.199218 -0.0586,0.222656 -0.22265,0.445312 -0.26953,0.339844 -0.79688,0.855469 -1.35938,0.855469 -0.48047,0 -0.76172,-0.445313 -0.76172,-1.148438 0,-0.65625 0.375,-1.992187 0.59766,-2.496093 0.41016,-0.84375 0.97266,-1.265625 1.42969,-1.265625 0.79687,0 0.94922,0.972656 0.94922,1.066406 0,0.01172 -0.0352,0.175781 -0.0469,0.199219 z m 0,0"
         style="fill:#000000;fill-opacity:1;fill-rule:nonzero;stroke:none" />
      <path
         id="path39"
         d="m -209.02333,39.828617 h -0.26953 c -0.0352,0.199219 -0.12891,0.855469 -0.24609,1.042969 -0.082,0.117187 -0.76172,0.117187 -1.125,0.117187 h -2.21485 c 0.32813,-0.28125 1.05469,-1.042968 1.3711,-1.335937 1.8164,-1.664063 2.48437,-2.285156 2.48437,-3.46875 0,-1.382813 -1.08984,-2.296875 -2.47265,-2.296875 -1.39454,0 -2.20313,1.183594 -2.20313,2.203125 0,0.609375 0.52734,0.609375 0.5625,0.609375 0.24609,0 0.5625,-0.175781 0.5625,-0.5625 0,-0.328125 -0.23437,-0.550781 -0.5625,-0.550781 -0.10547,0 -0.12891,0 -0.16406,0.01172 0.22265,-0.820312 0.86719,-1.371093 1.64062,-1.371093 1.01953,0 1.64063,0.855468 1.64063,1.957031 0,1.007812 -0.58594,1.898437 -1.26563,2.660156 l -2.41406,2.707031 v 0.28125 h 4.35938 z m 0,0"
         style="fill:#000000;fill-opacity:1;fill-rule:nonzero;stroke:none" />
      <path
         id="path40"
         d="m -207.91591,43.355961 c -0.082,0.351562 -0.1289,0.445312 -0.62109,0.445312 -0.14062,0 -0.26953,0 -0.26953,0.234375 0,0.02344 0.0117,0.117188 0.15234,0.117188 0.15235,0 0.31641,-0.02344 0.46875,-0.02344 h 0.51563 c 0.25781,0 0.86719,0.02344 1.11328,0.02344 0.0703,0 0.22266,0 0.22266,-0.210938 0,-0.140625 -0.0937,-0.140625 -0.29297,-0.140625 -0.55078,0 -0.58594,-0.08203 -0.58594,-0.175781 0,-0.140625 0.53906,-2.203125 0.60937,-2.472656 0.12891,0.328125 0.45704,0.796875 1.07813,0.796875 1.34766,0 2.8125,-1.757813 2.8125,-3.515625 0,-1.101563 -0.62109,-1.875 -1.52344,-1.875 -0.76172,0 -1.40625,0.738281 -1.54687,0.914062 -0.0937,-0.597656 -0.55078,-0.914062 -1.03125,-0.914062 -0.35157,0 -0.6211,0.164062 -0.85547,0.621094 -0.21094,0.433593 -0.375,1.160156 -0.375,1.207031 0,0.04687 0.0469,0.105469 0.1289,0.105469 0.0937,0 0.10547,-0.01172 0.17579,-0.28125 0.17578,-0.703125 0.41015,-1.40625 0.89062,-1.40625 0.26953,0 0.36328,0.1875 0.36328,0.539062 0,0.292969 -0.0351,0.410156 -0.082,0.632813 z m 2.0625,-5.25 c 0.082,-0.339844 0.42188,-0.679688 0.60938,-0.855469 0.14062,-0.117187 0.52734,-0.445312 0.98437,-0.445312 0.52735,0 0.76172,0.515625 0.76172,1.136718 0,0.574219 -0.32812,1.933594 -0.63281,2.554688 -0.29297,0.644531 -0.84375,1.21875 -1.39453,1.21875 -0.80859,0 -0.94922,-1.03125 -0.94922,-1.078125 0,-0.03516 0.0234,-0.128906 0.0352,-0.1875 z m 8.56934,-1.429688 c 0,-0.05859 -0.0469,-0.105468 -0.10547,-0.105468 -0.10547,0 -0.5625,0.433593 -0.79687,0.855468 -0.21094,-0.539062 -0.58594,-0.867187 -1.10157,-0.867187 -1.34765,0 -2.80078,1.746094 -2.80078,3.515625 0,1.183594 0.69141,1.875 1.5,1.875 0.63281,0 1.16016,-0.480469 1.41797,-0.75 l 0.0117,0.01172 -0.45703,1.792968 -0.10547,0.433594 c -0.10547,0.351563 -0.29297,0.351563 -0.85547,0.363281 -0.12891,0 -0.24609,0 -0.24609,0.234375 0,0.08203 0.0703,0.117188 0.15234,0.117188 0.16406,0 0.38672,-0.02344 0.55078,-0.02344 h 1.21875 c 0.17578,0 0.38672,0.02344 0.5625,0.02344 0.0703,0 0.21094,0 0.21094,-0.222656 0,-0.128907 -0.0937,-0.128907 -0.26953,-0.128907 -0.5625,0 -0.59766,-0.08203 -0.59766,-0.175781 0,-0.05859 0.0117,-0.07031 0.0469,-0.222656 z m -1.6875,3.738282 c -0.0586,0.199218 -0.0586,0.222656 -0.22266,0.445312 -0.26953,0.339844 -0.79687,0.855469 -1.35937,0.855469 -0.48047,0 -0.76172,-0.445313 -0.76172,-1.148438 0,-0.65625 0.375,-1.992187 0.59766,-2.496093 0.41015,-0.84375 0.97265,-1.265625 1.42968,-1.265625 0.79688,0 0.94922,0.972656 0.94922,1.066406 0,0.01172 -0.0351,0.175781 -0.0469,0.199219 z m 0,0"
         style="fill:#000000;fill-opacity:1;fill-rule:nonzero;stroke:none" />
      <path
         id="path41"
         d="m -185.54188,37.965336 c 0.16406,0 0.375,0 0.375,-0.222656 0,-0.222657 -0.19922,-0.222657 -0.375,-0.222657 h -7.04297 c -0.17578,0 -0.38672,0 -0.38672,0.210938 0,0.234375 0.19922,0.234375 0.38672,0.234375 z m 0,2.214844 c 0.16406,0 0.375,0 0.375,-0.210938 0,-0.234375 -0.19922,-0.234375 -0.375,-0.234375 h -7.04297 c -0.17578,0 -0.38672,0 -0.38672,0.222656 0,0.222657 0.19922,0.222657 0.38672,0.222657 z m 6.55664,-2.636719 c -0.21094,0.01172 -0.25781,0.02344 -0.25781,0.128906 0,0.117188 0.0586,0.117188 0.28125,0.117188 h 0.55078 c 1.00781,0 1.46484,0.84375 1.46484,1.992187 0,1.558594 -0.80859,1.980469 -1.39453,1.980469 -0.57422,0 -1.55859,-0.28125 -1.89844,-1.066406 0.375,0.05859 0.72656,-0.152344 0.72656,-0.585938 0,-0.339844 -0.25781,-0.585937 -0.58593,-0.585937 -0.29297,0 -0.59766,0.164062 -0.59766,0.621093 0,1.066407 1.06641,1.933594 2.39063,1.933594 1.41796,0 2.47265,-1.078125 2.47265,-2.285156 0,-1.101563 -0.89062,-1.96875 -2.02734,-2.167969 1.03125,-0.304687 1.69922,-1.171875 1.69922,-2.109375 0,-0.9375 -0.97266,-1.628906 -2.13282,-1.628906 -1.19531,0 -2.08593,0.726562 -2.08593,1.59375 0,0.480469 0.375,0.574219 0.55078,0.574219 0.25781,0 0.53906,-0.175782 0.53906,-0.539063 0,-0.375 -0.28125,-0.539062 -0.55078,-0.539062 -0.0703,0 -0.0937,0 -0.12891,0.01172 0.45703,-0.820312 1.58203,-0.820312 1.64063,-0.820312 0.38672,0 1.17187,0.175781 1.17187,1.347656 0,0.234375 -0.0352,0.902344 -0.38672,1.417969 -0.35156,0.527344 -0.76171,0.5625 -1.08984,0.574219 z m 7.54101,7.195312 c 0,-0.03516 0,-0.05859 -0.21093,-0.269531 -1.19532,-1.207031 -1.86329,-3.175781 -1.86329,-5.613281 0,-2.320313 0.5625,-4.3125 1.94532,-5.730469 0.1289,-0.105469 0.1289,-0.128906 0.1289,-0.164062 0,-0.07031 -0.0703,-0.09375 -0.11718,-0.09375 -0.15235,0 -1.13672,0.855468 -1.72266,2.027343 -0.60938,1.207032 -0.87891,2.496094 -0.87891,3.960938 0,1.066406 0.16407,2.484375 0.78516,3.761719 0.70312,1.441406 1.6875,2.214843 1.81641,2.214843 0.0469,0 0.11718,-0.02344 0.11718,-0.09375 z m 0,0"
         style="fill:#000000;fill-opacity:1;fill-rule:nonzero;stroke:none" />
      <path
         id="path42"
         d="m -170.26942,43.355961 c -0.082,0.351562 -0.12891,0.445312 -0.6211,0.445312 -0.14062,0 -0.26953,0 -0.26953,0.234375 0,0.02344 0.0117,0.117188 0.15235,0.117188 0.15234,0 0.3164,-0.02344 0.46875,-0.02344 h 0.51562 c 0.25781,0 0.86719,0.02344 1.11328,0.02344 0.0703,0 0.22266,0 0.22266,-0.210938 0,-0.140625 -0.0937,-0.140625 -0.29297,-0.140625 -0.55078,0 -0.58594,-0.08203 -0.58594,-0.175781 0,-0.140625 0.53907,-2.203125 0.60938,-2.472656 0.1289,0.328125 0.45703,0.796875 1.07812,0.796875 1.34766,0 2.8125,-1.757813 2.8125,-3.515625 0,-1.101563 -0.62109,-1.875 -1.52343,-1.875 -0.76172,0 -1.40625,0.738281 -1.54688,0.914062 -0.0937,-0.597656 -0.55078,-0.914062 -1.03125,-0.914062 -0.35156,0 -0.62109,0.164062 -0.85547,0.621094 -0.21094,0.433593 -0.375,1.160156 -0.375,1.207031 0,0.04687 0.0469,0.105469 0.12891,0.105469 0.0937,0 0.10547,-0.01172 0.17578,-0.28125 0.17578,-0.703125 0.41016,-1.40625 0.89062,-1.40625 0.26954,0 0.36329,0.1875 0.36329,0.539062 0,0.292969 -0.0352,0.410156 -0.082,0.632813 z m 2.0625,-5.25 c 0.082,-0.339844 0.42187,-0.679688 0.60937,-0.855469 0.14063,-0.117187 0.52735,-0.445312 0.98438,-0.445312 0.52734,0 0.76172,0.515625 0.76172,1.136718 0,0.574219 -0.32813,1.933594 -0.63282,2.554688 -0.29296,0.644531 -0.84375,1.21875 -1.39453,1.21875 -0.80859,0 -0.94922,-1.03125 -0.94922,-1.078125 0,-0.03516 0.0234,-0.128906 0.0352,-0.1875 z m 0,0"
         style="fill:#000000;fill-opacity:1;fill-rule:nonzero;stroke:none" />
      <path
         id="path43"
         d="m -157.48427,39.066898 h 3.30469 c 0.16406,0 0.375,0 0.375,-0.210937 0,-0.222656 -0.19922,-0.222656 -0.375,-0.222656 h -3.30469 v -3.304688 c 0,-0.164062 0,-0.386719 -0.21093,-0.386719 -0.23438,0 -0.23438,0.210938 -0.23438,0.386719 v 3.304688 h -3.29297 c -0.17578,0 -0.38672,0 -0.38672,0.210937 0,0.222656 0.19922,0.222656 0.38672,0.222656 h 3.29297 v 3.304688 c 0,0.164062 0,0.386719 0.22266,0.386719 0.22265,0 0.22265,-0.210938 0.22265,-0.386719 z m 0,0"
         style="fill:#000000;fill-opacity:1;fill-rule:nonzero;stroke:none" />
      <path
         id="path44"
         d="m -145.21766,36.676273 c 0,-0.05859 -0.0469,-0.105468 -0.10547,-0.105468 -0.10547,0 -0.5625,0.433593 -0.79688,0.855468 -0.21094,-0.539062 -0.58594,-0.867187 -1.10156,-0.867187 -1.34766,0 -2.80078,1.746094 -2.80078,3.515625 0,1.183594 0.6914,1.875 1.5,1.875 0.63281,0 1.16015,-0.480469 1.41797,-0.75 l 0.0117,0.01172 -0.45704,1.792968 -0.10546,0.433594 c -0.10547,0.351563 -0.29297,0.351563 -0.85547,0.363281 -0.12891,0 -0.2461,0 -0.2461,0.234375 0,0.08203 0.0703,0.117188 0.15235,0.117188 0.16406,0 0.38672,-0.02344 0.55078,-0.02344 h 1.21875 c 0.17578,0 0.38672,0.02344 0.5625,0.02344 0.0703,0 0.21094,0 0.21094,-0.222656 0,-0.128907 -0.0937,-0.128907 -0.26954,-0.128907 -0.5625,0 -0.59765,-0.08203 -0.59765,-0.175781 0,-0.05859 0.0117,-0.07031 0.0469,-0.222656 z m -1.6875,3.738282 c -0.0586,0.199218 -0.0586,0.222656 -0.22266,0.445312 -0.26953,0.339844 -0.79688,0.855469 -1.35938,0.855469 -0.48046,0 -0.76171,-0.445313 -0.76171,-1.148438 0,-0.65625 0.375,-1.992187 0.59765,-2.496093 0.41016,-0.84375 0.97266,-1.265625 1.42969,-1.265625 0.79687,0 0.94922,0.972656 0.94922,1.066406 0,0.01172 -0.0352,0.175781 -0.0469,0.199219 z m 0,0"
         style="fill:#000000;fill-opacity:1;fill-rule:nonzero;stroke:none" />
      <path
         id="path45"
         d="m -141.49696,38.855961 c 0,-0.914063 -0.12891,-2.390625 -0.79688,-3.773438 -0.70312,-1.441406 -1.67578,-2.214843 -1.8164,-2.214843 -0.0469,0 -0.10547,0.02344 -0.10547,0.09375 0,0.03516 0,0.05859 0.19922,0.269531 1.19531,1.207031 1.875,3.175781 1.875,5.613281 0,2.320313 -0.5625,4.3125 -1.95703,5.730469 -0.11719,0.105469 -0.11719,0.128906 -0.11719,0.164062 0,0.07031 0.0586,0.09375 0.10547,0.09375 0.16406,0 1.13672,-0.855468 1.72265,-2.027343 0.60938,-1.21875 0.89063,-2.519532 0.89063,-3.949219 z m 0,0"
         style="fill:#000000;fill-opacity:1;fill-rule:nonzero;stroke:none" />
      <path
         id="path46"
         d="m -267.48817,96.521 c 0,-0.984375 0.26953,-3.257812 2.39062,-4.769531 0.15235,-0.117188 0.16407,-0.128906 0.16407,-0.339844 0,-0.28125 -0.0117,-0.292969 -0.30469,-0.292969 h -0.1875 c -2.57813,1.382813 -3.49219,3.644532 -3.49219,5.402344 v 5.14453 c 0,0.30469 0.0117,0.31641 0.32813,0.31641 h 0.77343 c 0.31641,0 0.32813,-0.0117 0.32813,-0.31641 z m 0,5.54297 c 0,-0.30469 -0.0117,-0.31641 -0.32813,-0.31641 h -0.77343 c -0.31641,0 -0.32813,0.0117 -0.32813,0.31641 v 3.1875 c 0,0.30469 0.0117,0.31641 0.32813,0.31641 h 0.77343 c 0.31641,0 0.32813,-0.0117 0.32813,-0.31641 z m 0,3.58594 c 0,-0.30469 -0.0117,-0.31641 -0.32813,-0.31641 h -0.77343 c -0.31641,0 -0.32813,0.0117 -0.32813,0.31641 v 3.1875 c 0,0.30468 0.0117,0.3164 0.32813,0.3164 h 0.77343 c 0.31641,0 0.32813,-0.0117 0.32813,-0.3164 z m -1.42969,24.70605 c 0,0.30469 0.0117,0.31641 0.32813,0.31641 h 0.77343 c 0.31641,0 0.32813,-0.0117 0.32813,-0.31641 v -5.05078 c 0,-1.44141 -0.60938,-3.87891 -3.28125,-5.50781 2.69531,-1.64063 3.28125,-4.10157 3.28125,-5.50782 v -5.05078 c 0,-0.30468 -0.0117,-0.3164 -0.32813,-0.3164 h -0.77343 c -0.31641,0 -0.32813,0.0117 -0.32813,0.3164 v 5.0625 c 0,0.9961 -0.22266,3.49219 -2.41406,5.15625 -0.14063,0.11719 -0.15235,0.12891 -0.15235,0.33985 0,0.21093 0.0117,0.22265 0.15235,0.33984 0.30469,0.23438 1.13672,0.86719 1.71094,2.07422 0.45703,0.96094 0.70312,2.01562 0.70312,3.08203 z m 1.42969,0.40137 c 0,-0.30469 -0.0117,-0.31641 -0.32813,-0.31641 h -0.77343 c -0.31641,0 -0.32813,0.0117 -0.32813,0.31641 v 3.1875 c 0,0.30469 0.0117,0.3164 0.32813,0.3164 h 0.77343 c 0.31641,0 0.32813,-0.0117 0.32813,-0.3164 z m 0,3.58594 c 0,-0.30469 -0.0117,-0.31641 -0.32813,-0.31641 h -0.77343 c -0.31641,0 -0.32813,0.0117 -0.32813,0.31641 v 3.1875 c 0,0.30468 0.0117,0.3164 0.32813,0.3164 h 0.77343 c 0.31641,0 0.32813,-0.0117 0.32813,-0.3164 z m 2.25,14.13574 c 0.29297,0 0.30469,-0.0117 0.30469,-0.28125 0,-0.22266 -0.0117,-0.23438 -0.0586,-0.26953 -0.36328,-0.26953 -1.23047,-0.87891 -1.79297,-1.98047 -0.46875,-0.91406 -0.70312,-1.82813 -0.70312,-2.8711 v -5.14453 c 0,-0.30468 -0.0117,-0.3164 -0.32813,-0.3164 h -0.77343 c -0.31641,0 -0.32813,0.0117 -0.32813,0.3164 v 5.14453 c 0,1.76954 0.91406,4.03125 3.49219,5.40235 z m 0,0"
         style="fill:#000000;fill-opacity:1;fill-rule:nonzero;stroke:none" />
      <path
         id="path47"
         d="m -260.68251,100.25635 c -0.21094,0.0117 -0.25781,0.0234 -0.25781,0.12891 0,0.11719 0.0586,0.11719 0.28125,0.11719 h 0.55078 c 1.00781,0 1.46484,0.84375 1.46484,1.99218 0,1.5586 -0.80859,1.98047 -1.39453,1.98047 -0.57422,0 -1.55859,-0.28125 -1.89843,-1.0664 0.375,0.0586 0.72656,-0.15235 0.72656,-0.58594 0,-0.33985 -0.25781,-0.58594 -0.58594,-0.58594 -0.29297,0 -0.59766,0.16406 -0.59766,0.62109 0,1.06641 1.06641,1.9336 2.39063,1.9336 1.41797,0 2.47266,-1.07813 2.47266,-2.28516 0,-1.10156 -0.89063,-1.96875 -2.02735,-2.16797 1.03125,-0.30468 1.69922,-1.171872 1.69922,-2.109372 0,-0.9375 -0.97266,-1.628906 -2.13281,-1.628906 -1.19531,0 -2.08594,0.726562 -2.08594,1.59375 0,0.480468 0.375,0.574218 0.55078,0.574218 0.25781,0 0.53906,-0.175781 0.53906,-0.539062 0,-0.375 -0.28125,-0.539063 -0.55078,-0.539063 -0.0703,0 -0.0937,0 -0.1289,0.01172 0.45703,-0.820312 1.58203,-0.820312 1.64062,-0.820312 0.38672,0 1.17188,0.175781 1.17188,1.347656 0,0.234375 -0.0352,0.902344 -0.38672,1.417969 -0.35156,0.527342 -0.76172,0.562502 -1.08985,0.574222 z m 0,0"
         style="fill:#000000;fill-opacity:1;fill-rule:nonzero;stroke:none" />
      <path
         id="path48"
         d="m -251.37196,99.670414 c -0.375,0.07031 -0.51563,0.351566 -0.51563,0.585936 0,0.28125 0.22266,0.375 0.38672,0.375 0.36328,0 0.60938,-0.30469 0.60938,-0.632811 0,-0.492187 -0.57422,-0.726562 -1.07813,-0.726562 -0.72656,0 -1.125,0.714843 -1.24218,0.949223 -0.26954,-0.902348 -1.00782,-0.949223 -1.23047,-0.949223 -1.21875,0 -1.86328,1.570313 -1.86328,1.828123 0,0.0469 0.0469,0.10547 0.1289,0.10547 0.10547,0 0.12891,-0.0703 0.15235,-0.11719 0.39843,-1.324216 1.20703,-1.57031 1.54687,-1.57031 0.53906,0 0.64453,0.49219 0.64453,0.78516 0,0.25781 -0.0703,0.53906 -0.21094,1.11328 l -0.41015,1.6289 c -0.17578,0.72657 -0.52735,1.38282 -1.16016,1.38282 -0.0586,0 -0.35156,0 -0.60937,-0.15235 0.43359,-0.0937 0.52734,-0.44531 0.52734,-0.58593 0,-0.2461 -0.17578,-0.38672 -0.39844,-0.38672 -0.29297,0 -0.59765,0.24609 -0.59765,0.63281 0,0.50391 0.5625,0.72656 1.0664,0.72656 0.57422,0 0.98438,-0.45703 1.23047,-0.9375 0.19922,0.70313 0.79688,0.9375 1.23047,0.9375 1.23047,0 1.875,-1.55859 1.875,-1.82812 0,-0.0586 -0.0469,-0.10547 -0.12891,-0.10547 -0.10546,0 -0.11718,0.0586 -0.15234,0.15234 -0.31641,1.05469 -1.01953,1.54688 -1.54687,1.54688 -0.42188,0 -0.65625,-0.31641 -0.65625,-0.8086 0,-0.25781 0.0586,-0.44531 0.24609,-1.24218 l 0.42187,-1.61719 c 0.17579,-0.72656 0.58594,-1.24219 1.125,-1.24219 0.0352,0 0.36329,0 0.60938,0.152344 z m 0,0"
         style="fill:#000000;fill-opacity:1;fill-rule:nonzero;stroke:none" />
      <path
         id="path49"
         d="m -242.95497,101.77979 h 3.30469 c 0.16406,0 0.375,0 0.375,-0.21094 0,-0.22265 -0.19922,-0.22265 -0.375,-0.22265 h -3.30469 v -3.304692 c 0,-0.164063 0,-0.386719 -0.21094,-0.386719 -0.23437,0 -0.23437,0.210938 -0.23437,0.386719 v 3.304692 h -3.29297 c -0.17578,0 -0.38672,0 -0.38672,0.21093 0,0.22266 0.19922,0.22266 0.38672,0.22266 h 3.29297 v 3.30469 c 0,0.16406 0,0.38672 0.22266,0.38672 0.22265,0 0.22265,-0.21094 0.22265,-0.38672 z m 8.52539,-4.078126 c 0.50391,0.164063 0.92578,0.175781 1.05469,0.175781 1.35937,0 2.21484,-0.996093 2.21484,-1.160156 0,-0.04687 -0.0234,-0.105469 -0.0937,-0.105469 -0.0234,0 -0.0469,0 -0.15234,0.04687 -0.66797,0.28125 -1.24219,0.316407 -1.55859,0.316407 -0.78516,0 -1.34766,-0.234375 -1.58204,-0.328125 -0.082,-0.03516 -0.10546,-0.03516 -0.11718,-0.03516 -0.0937,0 -0.0937,0.07031 -0.0937,0.257813 v 3.550775 c 0,0.21094 0,0.29297 0.14062,0.29297 0.0586,0 0.0703,-0.0117 0.19922,-0.16406 0.32813,-0.49219 0.89063,-0.773435 1.48828,-0.773435 0.63281,0 0.94922,0.585935 1.04297,0.785155 0.19922,0.46875 0.21094,1.05469 0.21094,1.51172 0,0.45703 0,1.13672 -0.32813,1.67578 -0.26953,0.42187 -0.73828,0.72656 -1.2539,0.72656 -0.79688,0 -1.57032,-0.53906 -1.78125,-1.40625 0.0586,0.0234 0.1289,0.0352 0.1875,0.0352 0.19922,0 0.52734,-0.12891 0.52734,-0.52735 0,-0.33984 -0.23437,-0.52734 -0.52734,-0.52734 -0.21094,0 -0.52735,0.10547 -0.52735,0.57422 0,1.00781 0.8086,2.16797 2.14453,2.16797 1.34766,0 2.53125,-1.125 2.53125,-2.64844 0,-1.41797 -0.96093,-2.60156 -2.21484,-2.60156 -0.67969,0 -1.20703,0.292969 -1.51172,0.63281 z m 0,0"
         style="fill:#000000;fill-opacity:1;fill-rule:nonzero;stroke:none" />
      <path
         id="path50"
         d="m -226.97059,105.88135 c -0.31641,0.45703 -0.78516,0.86719 -1.3711,0.86719 -0.14062,0 -0.71484,-0.0234 -0.90234,-0.57422 0.0469,0.0117 0.10547,0.0117 0.12891,0.0117 0.35156,0 0.59765,-0.31641 0.59765,-0.58594 0,-0.28125 -0.23437,-0.375 -0.41015,-0.375 -0.1875,0 -0.60938,0.14063 -0.60938,0.72656 0,0.60938 0.51563,1.03125 1.19531,1.03125 1.19532,0 2.40235,-1.10156 2.74219,-2.42578 l 1.17188,-4.66406 c 0.0117,-0.05859 0.0351,-0.128906 0.0351,-0.199218 0,-0.175782 -0.15234,-0.304688 -0.32812,-0.304688 -0.10547,0 -0.36328,0.04687 -0.45703,0.410156 l -0.87891,3.51563 c -0.0586,0.21093 -0.0586,0.23437 -0.15234,0.375 -0.2461,0.32812 -0.64454,0.73828 -1.20704,0.73828 -0.67968,0 -0.73828,-0.65625 -0.73828,-0.98438 0,-0.67969 0.32813,-1.60547 0.64453,-2.46094 0.14063,-0.35156 0.21094,-0.51562 0.21094,-0.75 0,-0.503902 -0.36328,-0.960933 -0.94922,-0.960933 -1.10156,0 -1.53515,1.734373 -1.53515,1.828123 0,0.0469 0.0469,0.10547 0.1289,0.10547 0.10547,0 0.11719,-0.0469 0.16407,-0.21094 0.29296,-1.00781 0.73828,-1.47656 1.20703,-1.47656 0.10547,0 0.3164,0 0.3164,0.386719 0,0.316411 -0.14062,0.656251 -0.3164,1.113281 -0.58594,1.57031 -0.58594,1.95703 -0.58594,2.25 0,1.13672 0.80859,1.39453 1.40625,1.39453 0.35156,0 0.78516,-0.10547 1.19531,-0.55078 l 0.0117,0.0117 c -0.17578,0.70312 -0.29297,1.17187 -0.71484,1.75781 z m 0,0"
         style="fill:#000000;fill-opacity:1;fill-rule:nonzero;stroke:none" />
      <path
         id="path51"
         d="m -212.57997,100.67823 c 0.16406,0 0.375,0 0.375,-0.22266 0,-0.22266 -0.19922,-0.22266 -0.375,-0.22266 h -7.04297 c -0.17578,0 -0.38672,0 -0.38672,0.21094 0,0.23438 0.19922,0.23438 0.38672,0.23438 z m 0,2.21484 c 0.16406,0 0.375,0 0.375,-0.21094 0,-0.23437 -0.19922,-0.23437 -0.375,-0.23437 h -7.04297 c -0.17578,0 -0.38672,0 -0.38672,0.22265 0,0.22266 0.19922,0.22266 0.38672,0.22266 z m 7.91895,-2.66016 c 0.59765,-0.328121 1.46484,-0.878902 1.46484,-1.874996 0,-1.042969 -0.99609,-1.757812 -2.09766,-1.757812 -1.18359,0 -2.12109,0.867187 -2.12109,1.957031 0,0.410156 0.12891,0.808594 0.45703,1.21875 0.12891,0.152344 0.14063,0.164062 0.98438,0.749997 -1.16016,0.53907 -1.75782,1.34766 -1.75782,2.21485 0,1.26562 1.20704,2.05078 2.42579,2.05078 1.32421,0 2.4375,-0.97266 2.4375,-2.22656 0,-1.21875 -0.85547,-1.75782 -1.79297,-2.33204 z m -1.62891,-1.078121 c -0.15234,-0.105469 -0.63281,-0.421875 -0.63281,-1.007812 0,-0.773438 0.82031,-1.265625 1.61719,-1.265625 0.85546,0 1.6289,0.621093 1.6289,1.488281 0,0.726562 -0.52734,1.3125 -1.21875,1.687497 z m 0.5625,1.546871 1.45313,0.9375 c 0.30468,0.19922 0.85546,0.57422 0.85546,1.30079 0,0.91406 -0.91406,1.53515 -1.875,1.53515 -1.01953,0 -1.88671,-0.73828 -1.88671,-1.73437 0,-0.9375 0.67968,-1.6875 1.45312,-2.03907 z m 0,0"
         style="fill:#000000;fill-opacity:1;fill-rule:nonzero;stroke:none" />
      <path
         id="path52"
         d="m -196.71278,99.670414 c -0.375,0.07031 -0.51563,0.351566 -0.51563,0.585936 0,0.28125 0.22266,0.375 0.38672,0.375 0.36328,0 0.60938,-0.30469 0.60938,-0.632811 0,-0.492187 -0.57422,-0.726562 -1.07813,-0.726562 -0.72656,0 -1.125,0.714843 -1.24218,0.949223 -0.26954,-0.902348 -1.00782,-0.949223 -1.23047,-0.949223 -1.21875,0 -1.86328,1.570313 -1.86328,1.828123 0,0.0469 0.0469,0.10547 0.1289,0.10547 0.10547,0 0.12891,-0.0703 0.15235,-0.11719 0.39843,-1.324216 1.20703,-1.57031 1.54687,-1.57031 0.53906,0 0.64453,0.49219 0.64453,0.78516 0,0.25781 -0.0703,0.53906 -0.21094,1.11328 l -0.41015,1.6289 c -0.17578,0.72657 -0.52735,1.38282 -1.16016,1.38282 -0.0586,0 -0.35156,0 -0.60937,-0.15235 0.43359,-0.0937 0.52734,-0.44531 0.52734,-0.58593 0,-0.2461 -0.17578,-0.38672 -0.39844,-0.38672 -0.29297,0 -0.59765,0.24609 -0.59765,0.63281 0,0.50391 0.5625,0.72656 1.0664,0.72656 0.57422,0 0.98438,-0.45703 1.23047,-0.9375 0.19922,0.70313 0.79688,0.9375 1.23047,0.9375 1.23047,0 1.875,-1.55859 1.875,-1.82812 0,-0.0586 -0.0469,-0.10547 -0.12891,-0.10547 -0.10546,0 -0.11718,0.0586 -0.15234,0.15234 -0.31641,1.05469 -1.01953,1.54688 -1.54687,1.54688 -0.42188,0 -0.65625,-0.31641 -0.65625,-0.8086 0,-0.25781 0.0586,-0.44531 0.24609,-1.24218 l 0.42187,-1.61719 c 0.17579,-0.72656 0.58594,-1.24219 1.125,-1.24219 0.0352,0 0.36329,0 0.60938,0.152344 z m 4.13086,6.210936 c -0.31641,0.45703 -0.78516,0.86719 -1.3711,0.86719 -0.14062,0 -0.71484,-0.0234 -0.90234,-0.57422 0.0469,0.0117 0.10547,0.0117 0.12891,0.0117 0.35156,0 0.59765,-0.31641 0.59765,-0.58594 0,-0.28125 -0.23437,-0.375 -0.41015,-0.375 -0.1875,0 -0.60938,0.14063 -0.60938,0.72656 0,0.60938 0.51563,1.03125 1.19531,1.03125 1.19532,0 2.40235,-1.10156 2.74219,-2.42578 l 1.17188,-4.66406 c 0.0117,-0.05859 0.0351,-0.128906 0.0351,-0.199218 0,-0.175782 -0.15234,-0.304688 -0.32812,-0.304688 -0.10547,0 -0.36328,0.04687 -0.45703,0.410156 l -0.87891,3.51563 c -0.0586,0.21093 -0.0586,0.23437 -0.15234,0.375 -0.2461,0.32812 -0.64453,0.73828 -1.20703,0.73828 -0.67969,0 -0.73829,-0.65625 -0.73829,-0.98438 0,-0.67969 0.32813,-1.60547 0.64454,-2.46094 0.14062,-0.35156 0.21093,-0.51562 0.21093,-0.75 0,-0.503902 -0.36328,-0.960933 -0.94922,-0.960933 -1.10156,0 -1.53515,1.734373 -1.53515,1.828123 0,0.0469 0.0469,0.10547 0.1289,0.10547 0.10547,0 0.11719,-0.0469 0.16407,-0.21094 0.29297,-1.00781 0.73828,-1.47656 1.20703,-1.47656 0.10547,0 0.3164,0 0.3164,0.386719 0,0.316411 -0.14062,0.656251 -0.3164,1.113281 -0.58594,1.57031 -0.58594,1.95703 -0.58594,2.25 0,1.13672 0.80859,1.39453 1.40625,1.39453 0.35156,0 0.78516,-0.10547 1.19531,-0.55078 l 0.0117,0.0117 c -0.17578,0.70312 -0.29297,1.17187 -0.71484,1.75781 z m 0,0"
         style="fill:#000000;fill-opacity:1;fill-rule:nonzero;stroke:none" />
      <path
         id="path53"
         d="m -257.62391,121.60791 h -0.26954 c -0.0352,0.19922 -0.1289,0.85547 -0.24609,1.04297 -0.082,0.11719 -0.76172,0.11719 -1.125,0.11719 h -2.21484 c 0.32812,-0.28125 1.05468,-1.04297 1.37109,-1.33594 1.81641,-1.66406 2.48438,-2.28515 2.48438,-3.46875 0,-1.38281 -1.08985,-2.29687 -2.47266,-2.29687 -1.39453,0 -2.20313,1.18359 -2.20313,2.20312 0,0.60938 0.52735,0.60938 0.5625,0.60938 0.2461,0 0.5625,-0.17578 0.5625,-0.5625 0,-0.32813 -0.23437,-0.55078 -0.5625,-0.55078 -0.10546,0 -0.1289,0 -0.16406,0.0117 0.22266,-0.82032 0.86719,-1.3711 1.64063,-1.3711 1.01953,0 1.64062,0.85547 1.64062,1.95703 0,1.00782 -0.58594,1.89844 -1.26562,2.66016 l -2.41407,2.70703 v 0.28125 h 4.35938 z m 0,0"
         style="fill:#000000;fill-opacity:1;fill-rule:nonzero;stroke:none" />
      <path
         id="path54"
         d="m -253.89149,124.94776 c -0.31641,0.45703 -0.78516,0.86719 -1.3711,0.86719 -0.14062,0 -0.71484,-0.0234 -0.90234,-0.57422 0.0469,0.0117 0.10547,0.0117 0.12891,0.0117 0.35156,0 0.59765,-0.31641 0.59765,-0.58594 0,-0.28125 -0.23437,-0.375 -0.41015,-0.375 -0.1875,0 -0.60938,0.14062 -0.60938,0.72656 0,0.60938 0.51563,1.03125 1.19531,1.03125 1.19532,0 2.40235,-1.10156 2.74219,-2.42578 l 1.17188,-4.66406 c 0.0117,-0.0586 0.0352,-0.12891 0.0352,-0.19922 0,-0.17578 -0.15234,-0.30469 -0.32812,-0.30469 -0.10547,0 -0.36328,0.0469 -0.45703,0.41016 l -0.87891,3.51562 c -0.0586,0.21094 -0.0586,0.23438 -0.15234,0.375 -0.2461,0.32813 -0.64453,0.73828 -1.20703,0.73828 -0.67969,0 -0.73829,-0.65625 -0.73829,-0.98437 0,-0.67969 0.32813,-1.60547 0.64454,-2.46094 0.14062,-0.35156 0.21093,-0.51562 0.21093,-0.75 0,-0.50391 -0.36328,-0.96094 -0.94922,-0.96094 -1.10156,0 -1.53515,1.73438 -1.53515,1.82813 0,0.0469 0.0469,0.10547 0.1289,0.10547 0.10547,0 0.11719,-0.0469 0.16407,-0.21094 0.29297,-1.00781 0.73828,-1.47656 1.20703,-1.47656 0.10547,0 0.3164,0 0.3164,0.38672 0,0.3164 -0.14062,0.65625 -0.3164,1.11328 -0.58594,1.57031 -0.58594,1.95703 -0.58594,2.25 0,1.13672 0.80859,1.39453 1.40625,1.39453 0.35156,0 0.78516,-0.10547 1.19531,-0.55078 l 0.0117,0.0117 c -0.17578,0.70312 -0.29297,1.17187 -0.71484,1.75781 z m 0,0"
         style="fill:#000000;fill-opacity:1;fill-rule:nonzero;stroke:none" />
      <path
         id="path55"
         d="m -243.47059,120.8462 h 3.30468 c 0.16407,0 0.375,0 0.375,-0.21094 0,-0.22266 -0.19921,-0.22266 -0.375,-0.22266 h -3.30468 v -3.30469 c 0,-0.16406 0,-0.38671 -0.21094,-0.38671 -0.23438,0 -0.23438,0.21093 -0.23438,0.38671 v 3.30469 h -3.29296 c -0.17579,0 -0.38672,0 -0.38672,0.21094 0,0.22266 0.19922,0.22266 0.38672,0.22266 h 3.29296 v 3.30468 c 0,0.16407 0,0.38672 0.22266,0.38672 0.22266,0 0.22266,-0.21094 0.22266,-0.38672 z m 9.19336,-1.52344 c -0.21094,0.0117 -0.25782,0.0234 -0.25782,0.1289 0,0.11719 0.0586,0.11719 0.28125,0.11719 h 0.55078 c 1.00782,0 1.46485,0.84375 1.46485,1.99219 0,1.55859 -0.8086,1.98047 -1.39453,1.98047 -0.57422,0 -1.5586,-0.28125 -1.89844,-1.06641 0.375,0.0586 0.72656,-0.15234 0.72656,-0.58594 0,-0.33984 -0.25781,-0.58593 -0.58594,-0.58593 -0.29296,0 -0.59765,0.16406 -0.59765,0.62109 0,1.06641 1.0664,1.93359 2.39062,1.93359 1.41797,0 2.47266,-1.07812 2.47266,-2.28515 0,-1.10156 -0.89063,-1.96875 -2.02734,-2.16797 1.03125,-0.30469 1.69921,-1.17188 1.69921,-2.10938 0,-0.9375 -0.97265,-1.6289 -2.13281,-1.6289 -1.19531,0 -2.08594,0.72656 -2.08594,1.59375 0,0.48047 0.375,0.57422 0.55079,0.57422 0.25781,0 0.53906,-0.17578 0.53906,-0.53907 0,-0.375 -0.28125,-0.53906 -0.55078,-0.53906 -0.0703,0 -0.0937,0 -0.12891,0.0117 0.45703,-0.82031 1.58203,-0.82031 1.64063,-0.82031 0.38671,0 1.17187,0.17578 1.17187,1.34765 0,0.23438 -0.0352,0.90235 -0.38672,1.41797 -0.35156,0.52735 -0.76172,0.5625 -1.08984,0.57422 z m 0,0"
         style="fill:#000000;fill-opacity:1;fill-rule:nonzero;stroke:none" />
      <path
         id="path56"
         d="m -229.10341,122.63916 c 0.50391,-0.58593 0.92579,-0.94921 1.52344,-1.48828 0.71485,-0.62109 1.03125,-0.92578 1.19531,-1.10156 0.84375,-0.82031 1.25391,-1.52344 1.25391,-1.61719 0,-0.0937 -0.0937,-0.0937 -0.11719,-0.0937 -0.082,0 -0.10547,0.0469 -0.16406,0.12891 -0.30469,0.51562 -0.58594,0.77344 -0.90234,0.77344 -0.2461,0 -0.375,-0.11719 -0.60938,-0.39844 -0.24609,-0.29297 -0.45703,-0.50391 -0.79687,-0.50391 -0.87891,0 -1.39453,1.08985 -1.39453,1.33594 0,0.0352 0.0117,0.11719 0.11718,0.11719 0.0937,0 0.10547,-0.0469 0.14063,-0.14063 0.19922,-0.46875 0.77344,-0.5625 1.00781,-0.5625 0.24609,0 0.48047,0.0937 0.73828,0.19922 0.45703,0.1875 0.64453,0.1875 0.76172,0.1875 0.082,0 0.12891,0 0.1875,-0.0117 -0.38672,0.46875 -1.03125,1.04297 -1.57031,1.53516 l -1.20703,1.10156 c -0.72657,0.75 -1.17188,1.45313 -1.17188,1.53516 0,0.0703 0.0586,0.0937 0.12891,0.0937 0.0703,0 0.082,-0.0117 0.16406,-0.15235 0.19922,-0.30468 0.57422,-0.73828 1.01953,-0.73828 0.2461,0 0.375,0.082 0.60938,0.375 0.22265,0.26953 0.43359,0.51563 0.80859,0.51563 1.17188,0 1.85156,-1.51172 1.85156,-1.79297 0,-0.0469 -0.0117,-0.11719 -0.14062,-0.11719 -0.0937,0 -0.10547,0.0469 -0.14063,0.16406 -0.25781,0.70313 -0.97265,0.9961 -1.42968,0.9961 -0.25782,0 -0.49219,-0.082 -0.75,-0.1875 -0.46875,-0.19922 -0.60938,-0.19922 -0.76172,-0.19922 -0.11719,0 -0.2461,0 -0.35157,0.0469 z m 0,0"
         style="fill:#000000;fill-opacity:1;fill-rule:nonzero;stroke:none" />
      <path
         id="path57"
         d="m -213.25966,119.74463 c 0.16407,0 0.375,0 0.375,-0.22265 0,-0.22266 -0.19921,-0.22266 -0.375,-0.22266 h -7.04296 c -0.17579,0 -0.38672,0 -0.38672,0.21094 0,0.23437 0.19922,0.23437 0.38672,0.23437 z m 0,2.21485 c 0.16407,0 0.375,0 0.375,-0.21094 0,-0.23438 -0.19921,-0.23438 -0.375,-0.23438 h -7.04296 c -0.17579,0 -0.38672,0 -0.38672,0.22266 0,0.22266 0.19922,0.22266 0.38672,0.22266 z m 9.61524,-0.35157 h -0.26953 c -0.0352,0.19922 -0.12891,0.85547 -0.2461,1.04297 -0.082,0.11719 -0.76172,0.11719 -1.125,0.11719 h -2.21484 c 0.32812,-0.28125 1.05469,-1.04297 1.37109,-1.33594 1.81641,-1.66406 2.48438,-2.28515 2.48438,-3.46875 0,-1.38281 -1.08985,-2.29687 -2.47266,-2.29687 -1.39453,0 -2.20312,1.18359 -2.20312,2.20312 0,0.60938 0.52734,0.60938 0.5625,0.60938 0.24609,0 0.5625,-0.17578 0.5625,-0.5625 0,-0.32813 -0.23438,-0.55078 -0.5625,-0.55078 -0.10547,0 -0.12891,0 -0.16407,0.0117 0.22266,-0.82032 0.86719,-1.3711 1.64063,-1.3711 1.01953,0 1.64062,0.85547 1.64062,1.95703 0,1.00782 -0.58593,1.89844 -1.26562,2.66016 l -2.41406,2.70703 v 0.28125 h 4.35937 z m 0,0"
         style="fill:#000000;fill-opacity:1;fill-rule:nonzero;stroke:none" />
      <path
         id="path58"
         d="m -199.91493,124.94776 c -0.31641,0.45703 -0.78516,0.86719 -1.37109,0.86719 -0.14063,0 -0.71485,-0.0234 -0.90235,-0.57422 0.0469,0.0117 0.10547,0.0117 0.12891,0.0117 0.35156,0 0.59766,-0.31641 0.59766,-0.58594 0,-0.28125 -0.23438,-0.375 -0.41016,-0.375 -0.1875,0 -0.60938,0.14062 -0.60938,0.72656 0,0.60938 0.51563,1.03125 1.19532,1.03125 1.19531,0 2.40234,-1.10156 2.74218,-2.42578 l 1.17188,-4.66406 c 0.0117,-0.0586 0.0352,-0.12891 0.0352,-0.19922 0,-0.17578 -0.15235,-0.30469 -0.32813,-0.30469 -0.10547,0 -0.36328,0.0469 -0.45703,0.41016 l -0.87891,3.51562 c -0.0586,0.21094 -0.0586,0.23438 -0.15234,0.375 -0.24609,0.32813 -0.64453,0.73828 -1.20703,0.73828 -0.67969,0 -0.73828,-0.65625 -0.73828,-0.98437 0,-0.67969 0.32812,-1.60547 0.64453,-2.46094 0.14062,-0.35156 0.21094,-0.51562 0.21094,-0.75 0,-0.50391 -0.36329,-0.96094 -0.94922,-0.96094 -1.10157,0 -1.53516,1.73438 -1.53516,1.82813 0,0.0469 0.0469,0.10547 0.12891,0.10547 0.10547,0 0.11718,-0.0469 0.16406,-0.21094 0.29297,-1.00781 0.73828,-1.47656 1.20703,-1.47656 0.10547,0 0.31641,0 0.31641,0.38672 0,0.3164 -0.14063,0.65625 -0.31641,1.11328 -0.58594,1.57031 -0.58594,1.95703 -0.58594,2.25 0,1.13672 0.8086,1.39453 1.40625,1.39453 0.35157,0 0.78516,-0.10547 1.19532,-0.55078 l 0.0117,0.0117 c -0.17578,0.70312 -0.29296,1.17187 -0.71484,1.75781 z m 4.52051,-2.3086 c 0.5039,-0.58593 0.92578,-0.94921 1.52344,-1.48828 0.71484,-0.62109 1.03125,-0.92578 1.19531,-1.10156 0.84375,-0.82031 1.2539,-1.52344 1.2539,-1.61719 0,-0.0937 -0.0937,-0.0937 -0.11718,-0.0937 -0.082,0 -0.10547,0.0469 -0.16407,0.12891 -0.30468,0.51562 -0.58593,0.77344 -0.90234,0.77344 -0.24609,0 -0.375,-0.11719 -0.60937,-0.39844 -0.2461,-0.29297 -0.45704,-0.50391 -0.79688,-0.50391 -0.87891,0 -1.39453,1.08985 -1.39453,1.33594 0,0.0352 0.0117,0.11719 0.11719,0.11719 0.0937,0 0.10547,-0.0469 0.14062,-0.14063 0.19922,-0.46875 0.77344,-0.5625 1.00781,-0.5625 0.2461,0 0.48047,0.0937 0.73829,0.19922 0.45703,0.1875 0.64453,0.1875 0.76171,0.1875 0.082,0 0.12891,0 0.1875,-0.0117 -0.38671,0.46875 -1.03125,1.04297 -1.57031,1.53516 l -1.20703,1.10156 c -0.72656,0.75 -1.17187,1.45313 -1.17187,1.53516 0,0.0703 0.0586,0.0937 0.1289,0.0937 0.0703,0 0.082,-0.0117 0.16406,-0.15235 0.19922,-0.30468 0.57422,-0.73828 1.01954,-0.73828 0.24609,0 0.375,0.082 0.60937,0.375 0.22266,0.26953 0.43359,0.51563 0.80859,0.51563 1.17188,0 1.85157,-1.51172 1.85157,-1.79297 0,-0.0469 -0.0117,-0.11719 -0.14063,-0.11719 -0.0937,0 -0.10547,0.0469 -0.14062,0.16406 -0.25782,0.70313 -0.97266,0.9961 -1.42969,0.9961 -0.25781,0 -0.49219,-0.082 -0.75,-0.1875 -0.46875,-0.19922 -0.60938,-0.19922 -0.76172,-0.19922 -0.11719,0 -0.24609,0 -0.35156,0.0469 z m 0,0"
         style="fill:#000000;fill-opacity:1;fill-rule:nonzero;stroke:none" />
      <path
         id="path59"
         d="m -261.35048,135.83741 c 0.50391,0.16406 0.92578,0.17578 1.05469,0.17578 1.35938,0 2.21484,-0.9961 2.21484,-1.16016 0,-0.0469 -0.0234,-0.10547 -0.0937,-0.10547 -0.0234,0 -0.0469,0 -0.15234,0.0469 -0.66797,0.28125 -1.24219,0.3164 -1.55859,0.3164 -0.78516,0 -1.34766,-0.23437 -1.58203,-0.32812 -0.082,-0.0352 -0.10547,-0.0352 -0.11719,-0.0352 -0.0937,0 -0.0937,0.0703 -0.0937,0.25782 v 3.55078 c 0,0.21093 0,0.29297 0.14062,0.29297 0.0586,0 0.0703,-0.0117 0.19922,-0.16407 0.32813,-0.49218 0.89063,-0.77343 1.48828,-0.77343 0.63282,0 0.94922,0.58593 1.04297,0.78515 0.19922,0.46875 0.21094,1.05469 0.21094,1.51172 0,0.45703 0,1.13672 -0.32813,1.67578 -0.26953,0.42188 -0.73828,0.72656 -1.2539,0.72656 -0.79688,0 -1.57031,-0.53906 -1.78125,-1.40625 0.0586,0.0234 0.1289,0.0352 0.1875,0.0352 0.19922,0 0.52734,-0.12891 0.52734,-0.52734 0,-0.33985 -0.23437,-0.52735 -0.52734,-0.52735 -0.21094,0 -0.52735,0.10547 -0.52735,0.57422 0,1.00781 0.8086,2.16797 2.14454,2.16797 1.34765,0 2.53125,-1.125 2.53125,-2.64844 0,-1.41797 -0.96094,-2.60156 -2.21485,-2.60156 -0.67969,0 -1.20703,0.29297 -1.51172,0.63281 z m 0,0"
         style="fill:#000000;fill-opacity:1;fill-rule:nonzero;stroke:none" />
      <path
         id="path60"
         d="m -255.50868,141.7085 c 0.50391,-0.58594 0.92578,-0.94922 1.52344,-1.48828 0.71484,-0.62109 1.03125,-0.92578 1.19531,-1.10156 0.84375,-0.82032 1.25391,-1.52344 1.25391,-1.61719 0,-0.0937 -0.0937,-0.0937 -0.11719,-0.0937 -0.082,0 -0.10547,0.0469 -0.16406,0.12891 -0.30469,0.51562 -0.58594,0.77343 -0.90235,0.77343 -0.24609,0 -0.375,-0.11718 -0.60937,-0.39843 -0.2461,-0.29297 -0.45703,-0.50391 -0.79688,-0.50391 -0.8789,0 -1.39453,1.08984 -1.39453,1.33594 0,0.0351 0.0117,0.11718 0.11719,0.11718 0.0937,0 0.10547,-0.0469 0.14062,-0.14062 0.19922,-0.46875 0.77344,-0.5625 1.00782,-0.5625 0.24609,0 0.48047,0.0937 0.73828,0.19922 0.45703,0.1875 0.64453,0.1875 0.76172,0.1875 0.082,0 0.1289,0 0.1875,-0.0117 -0.38672,0.46875 -1.03125,1.04297 -1.57032,1.53516 l -1.20703,1.10156 c -0.72656,0.75 -1.17187,1.45312 -1.17187,1.53515 0,0.0703 0.0586,0.0937 0.1289,0.0937 0.0703,0 0.082,-0.0117 0.16407,-0.15234 0.19922,-0.30469 0.57422,-0.73828 1.01953,-0.73828 0.24609,0 0.375,0.082 0.60937,0.375 0.22266,0.26953 0.4336,0.51562 0.8086,0.51562 1.17187,0 1.85156,-1.51171 1.85156,-1.79296 0,-0.0469 -0.0117,-0.11719 -0.14063,-0.11719 -0.0937,0 -0.10546,0.0469 -0.14062,0.16406 -0.25781,0.70313 -0.97266,0.99609 -1.42969,0.99609 -0.25781,0 -0.49219,-0.082 -0.75,-0.1875 -0.46875,-0.19921 -0.60937,-0.19921 -0.76172,-0.19921 -0.11718,0 -0.24609,0 -0.35156,0.0469 z m 0,0"
         style="fill:#000000;fill-opacity:1;fill-rule:nonzero;stroke:none" />
      <path
         id="path61"
         d="m -243.63759,139.91553 h 3.30469 c 0.16406,0 0.375,0 0.375,-0.21094 0,-0.22265 -0.19922,-0.22265 -0.375,-0.22265 h -3.30469 v -3.30469 c 0,-0.16406 0,-0.38672 -0.21093,-0.38672 -0.23438,0 -0.23438,0.21094 -0.23438,0.38672 v 3.30469 h -3.29297 c -0.17578,0 -0.38672,0 -0.38672,0.21094 0,0.22265 0.19922,0.22265 0.38672,0.22265 h 3.29297 v 3.30469 c 0,0.16406 0,0.38672 0.22266,0.38672 0.22265,0 0.22265,-0.21094 0.22265,-0.38672 z m 12.25196,0.76172 h -0.26953 c -0.0352,0.19922 -0.12891,0.85547 -0.2461,1.04297 -0.082,0.11719 -0.76172,0.11719 -1.125,0.11719 h -2.21484 c 0.32812,-0.28125 1.05469,-1.04297 1.37109,-1.33594 1.81641,-1.66406 2.48438,-2.28516 2.48438,-3.46875 0,-1.38281 -1.08985,-2.29688 -2.47266,-2.29688 -1.39453,0 -2.20312,1.1836 -2.20312,2.20313 0,0.60937 0.52734,0.60937 0.5625,0.60937 0.24609,0 0.5625,-0.17578 0.5625,-0.5625 0,-0.32812 -0.23438,-0.55078 -0.5625,-0.55078 -0.10547,0 -0.12891,0 -0.16407,0.0117 0.22266,-0.82031 0.86719,-1.37109 1.64063,-1.37109 1.01953,0 1.64062,0.85547 1.64062,1.95703 0,1.00781 -0.58593,1.89844 -1.26562,2.66016 l -2.41406,2.70703 v 0.28125 h 4.35937 z m 0,0"
         style="fill:#000000;fill-opacity:1;fill-rule:nonzero;stroke:none" />
      <path
         id="path62"
         d="m -225.13075,137.80616 c -0.375,0.0703 -0.51562,0.35156 -0.51562,0.58593 0,0.28125 0.22265,0.375 0.38671,0.375 0.36329,0 0.60938,-0.30468 0.60938,-0.63281 0,-0.49219 -0.57422,-0.72656 -1.07813,-0.72656 -0.72656,0 -1.125,0.71484 -1.24218,0.94922 -0.26953,-0.90235 -1.00782,-0.94922 -1.23047,-0.94922 -1.21875,0 -1.86328,1.57031 -1.86328,1.82812 0,0.0469 0.0469,0.10547 0.1289,0.10547 0.10547,0 0.12891,-0.0703 0.15235,-0.11718 0.39843,-1.32422 1.20703,-1.57032 1.54687,-1.57032 0.53906,0 0.64453,0.49219 0.64453,0.78516 0,0.25781 -0.0703,0.53906 -0.21093,1.11328 l -0.41016,1.62891 c -0.17578,0.72656 -0.52734,1.38281 -1.16016,1.38281 -0.0586,0 -0.35156,0 -0.60937,-0.15234 0.43359,-0.0937 0.52734,-0.44532 0.52734,-0.58594 0,-0.2461 -0.17578,-0.38672 -0.39844,-0.38672 -0.29296,0 -0.59765,0.24609 -0.59765,0.63281 0,0.50391 0.5625,0.72656 1.0664,0.72656 0.57422,0 0.98438,-0.45703 1.23047,-0.9375 0.19922,0.70313 0.79688,0.9375 1.23047,0.9375 1.23047,0 1.875,-1.55859 1.875,-1.82812 0,-0.0586 -0.0469,-0.10547 -0.1289,-0.10547 -0.10547,0 -0.11719,0.0586 -0.15235,0.15234 -0.3164,1.05469 -1.01953,1.54688 -1.54687,1.54688 -0.42188,0 -0.65625,-0.31641 -0.65625,-0.80859 0,-0.25782 0.0586,-0.44532 0.24609,-1.24219 l 0.42188,-1.61719 c 0.17578,-0.72656 0.58593,-1.24219 1.125,-1.24219 0.0351,0 0.36328,0 0.60937,0.15235 z m 0,0"
         style="fill:#000000;fill-opacity:1;fill-rule:nonzero;stroke:none" />
      <path
         id="path63"
         d="m -212.74403,138.81397 c 0.16406,0 0.375,0 0.375,-0.22266 0,-0.22265 -0.19922,-0.22265 -0.375,-0.22265 h -7.04297 c -0.17578,0 -0.38672,0 -0.38672,0.21093 0,0.23438 0.19922,0.23438 0.38672,0.23438 z m 0,2.21484 c 0.16406,0 0.375,0 0.375,-0.21093 0,-0.23438 -0.19922,-0.23438 -0.375,-0.23438 h -7.04297 c -0.17578,0 -0.38672,0 -0.38672,0.22266 0,0.22265 0.19922,0.22265 0.38672,0.22265 z m 8.66601,-6.1289 c 0,-0.22266 0,-0.29297 -0.16406,-0.29297 -0.0937,0 -0.1289,0 -0.22265,0.15234 l -3.59766,5.57813 v 0.35156 h 3.14062 v 1.07812 c 0,0.44532 -0.0234,0.5625 -0.90234,0.5625 h -0.23437 v 0.35157 c 0.26953,-0.0234 1.21875,-0.0234 1.55859,-0.0234 0.32812,0 1.28906,0 1.55859,0.0234 v -0.35157 h -0.23437 c -0.86719,0 -0.90235,-0.11718 -0.90235,-0.5625 v -1.07812 h 1.20704 v -0.35156 h -1.20704 z m -0.78515,0.9375 v 4.5 h -2.90625 z m 0,0"
         style="fill:#000000;fill-opacity:1;fill-rule:nonzero;stroke:none" />
      <path
         id="path64"
         d="m -196.87977,137.80616 c -0.375,0.0703 -0.51563,0.35156 -0.51563,0.58593 0,0.28125 0.22266,0.375 0.38672,0.375 0.36328,0 0.60938,-0.30468 0.60938,-0.63281 0,-0.49219 -0.57422,-0.72656 -1.07813,-0.72656 -0.72656,0 -1.125,0.71484 -1.24219,0.94922 -0.26953,-0.90235 -1.00781,-0.94922 -1.23047,-0.94922 -1.21875,0 -1.86328,1.57031 -1.86328,1.82812 0,0.0469 0.0469,0.10547 0.12891,0.10547 0.10547,0 0.12891,-0.0703 0.15234,-0.11718 0.39844,-1.32422 1.20703,-1.57032 1.54688,-1.57032 0.53906,0 0.64453,0.49219 0.64453,0.78516 0,0.25781 -0.0703,0.53906 -0.21094,1.11328 l -0.41015,1.62891 c -0.17579,0.72656 -0.52735,1.38281 -1.16016,1.38281 -0.0586,0 -0.35156,0 -0.60938,-0.15234 0.4336,-0.0937 0.52735,-0.44532 0.52735,-0.58594 0,-0.2461 -0.17578,-0.38672 -0.39844,-0.38672 -0.29297,0 -0.59766,0.24609 -0.59766,0.63281 0,0.50391 0.5625,0.72656 1.06641,0.72656 0.57422,0 0.98438,-0.45703 1.23047,-0.9375 0.19922,0.70313 0.79687,0.9375 1.23047,0.9375 1.23047,0 1.875,-1.55859 1.875,-1.82812 0,-0.0586 -0.0469,-0.10547 -0.12891,-0.10547 -0.10547,0 -0.11719,0.0586 -0.15234,0.15234 -0.31641,1.05469 -1.01953,1.54688 -1.54688,1.54688 -0.42187,0 -0.65625,-0.31641 -0.65625,-0.80859 0,-0.25782 0.0586,-0.44532 0.2461,-1.24219 l 0.42187,-1.61719 c 0.17578,-0.72656 0.58594,-1.24219 1.125,-1.24219 0.0352,0 0.36328,0 0.60938,0.15235 z m 2.51367,3.90234 c 0.5039,-0.58594 0.92578,-0.94922 1.52344,-1.48828 0.71484,-0.62109 1.03125,-0.92578 1.19531,-1.10156 0.84375,-0.82032 1.2539,-1.52344 1.2539,-1.61719 0,-0.0937 -0.0937,-0.0937 -0.11718,-0.0937 -0.082,0 -0.10547,0.0469 -0.16407,0.12891 -0.30468,0.51562 -0.58593,0.77343 -0.90234,0.77343 -0.24609,0 -0.375,-0.11718 -0.60937,-0.39843 -0.2461,-0.29297 -0.45704,-0.50391 -0.79688,-0.50391 -0.87891,0 -1.39453,1.08984 -1.39453,1.33594 0,0.0351 0.0117,0.11718 0.11719,0.11718 0.0937,0 0.10547,-0.0469 0.14062,-0.14062 0.19922,-0.46875 0.77344,-0.5625 1.00781,-0.5625 0.2461,0 0.48047,0.0937 0.73829,0.19922 0.45703,0.1875 0.64453,0.1875 0.76171,0.1875 0.082,0 0.12891,0 0.1875,-0.0117 -0.38671,0.46875 -1.03125,1.04297 -1.57031,1.53516 l -1.20703,1.10156 c -0.72656,0.75 -1.17187,1.45312 -1.17187,1.53515 0,0.0703 0.0586,0.0937 0.1289,0.0937 0.0703,0 0.082,-0.0117 0.16406,-0.15234 0.19922,-0.30469 0.57422,-0.73828 1.01954,-0.73828 0.24609,0 0.375,0.082 0.60937,0.375 0.22266,0.26953 0.43359,0.51562 0.80859,0.51562 1.17188,0 1.85157,-1.51171 1.85157,-1.79296 0,-0.0469 -0.0117,-0.11719 -0.14063,-0.11719 -0.0937,0 -0.10547,0.0469 -0.14062,0.16406 -0.25782,0.70313 -0.97266,0.99609 -1.42969,0.99609 -0.25781,0 -0.49219,-0.082 -0.75,-0.1875 -0.46875,-0.19921 -0.60938,-0.19921 -0.76172,-0.19921 -0.11719,0 -0.24609,0 -0.35156,0.0469 z m 6.65625,0.39844 c 0,-0.35156 -0.29297,-0.58594 -0.57422,-0.58594 -0.35156,0 -0.58594,0.29297 -0.58594,0.57422 0,0.35156 0.28125,0.58594 0.57422,0.58594 0.33984,0 0.58594,-0.28125 0.58594,-0.57422 z m 0,0"
         style="fill:#000000;fill-opacity:1;fill-rule:nonzero;stroke:none" />
    </g>
  </g>
</svg>
