<?xml version="1.0" encoding="UTF-8" standalone="no"?>
<!-- Created with Inkscape (http://www.inkscape.org/) -->

<svg
   version="1.1"
   id="svg1"
   width="793.70135"
   height="1122.52"
   viewBox="0 0 793.70135 1122.52"
   sodipodi:docname="PolitechnikaGdanska_EgzaminWstepny_1991_page0.pdf"
   xmlns:inkscape="http://www.inkscape.org/namespaces/inkscape"
   xmlns:sodipodi="http://sodipodi.sourceforge.net/DTD/sodipodi-0.dtd"
   xmlns="http://www.w3.org/2000/svg"
   xmlns:svg="http://www.w3.org/2000/svg">
  <defs
     id="defs1" />
  <sodipodi:namedview
     id="namedview1"
     pagecolor="#ffffff"
     bordercolor="#000000"
     borderopacity="0.25"
     inkscape:showpageshadow="2"
     inkscape:pageopacity="0.0"
     inkscape:pagecheckerboard="0"
     inkscape:deskcolor="#d1d1d1">
    <inkscape:page
       x="0"
       y="0"
       inkscape:label="1"
       id="page1"
       width="793.70135"
       height="1122.52"
       margin="0"
       bleed="0" />
  </sodipodi:namedview>
  <g
     id="g1"
     inkscape:groupmode="layer"
     inkscape:label="1">
    <g
       id="g2"
       aria-label="POLITECHNIKAGDASKAGda«sk,2.07.1991r.&#10;TematyIcz¦±ciegzaminuzmatematyki"
       transform="matrix(1.3333333,0,0,1.3333333,103.55867,187.54667)" />
    <path
       id="path2"
       d="M 0,0.199 H 60.792"
       style="fill:none;stroke:#000000;stroke-width:0.398;stroke-linecap:butt;stroke-linejoin:miter;stroke-miterlimit:10;stroke-dasharray:none;stroke-opacity:1"
       transform="matrix(1.3333333,0,0,-1.3333333,440.656,248.56133)" />
    <g
       id="g3"
       aria-label="dlakandydatówubiegaj¡cychsi¦oprzyj¦cienaIrokstudiówdziennych.&#10;Kandydatwybieraª3dowolnezadania.Rozwi¡zaniawybranychzada«oceniane&#10;byªywskali010punktów.Egzamintrwaª120minut.&#10;1.Zbada¢przebiegzmienno±cifunkcji&#10;y=&#10;4x+5"
       transform="matrix(1.3333333,0,0,1.3333333,137.11467,262.59733)">
      <path
         id="path3"
         d="m 175.26166,88.693602 c -0.31641,0.457031 -0.78516,0.867187 -1.3711,0.867187 -0.14062,0 -0.71484,-0.02344 -0.90234,-0.574219 0.0469,0.01172 0.10547,0.01172 0.1289,0.01172 0.35157,0 0.59766,-0.316406 0.59766,-0.585937 0,-0.28125 -0.23437,-0.375 -0.41016,-0.375 -0.1875,0 -0.60937,0.140625 -0.60937,0.726562 0,0.609375 0.51562,1.03125 1.19531,1.03125 1.19531,0 2.40235,-1.101562 2.74219,-2.425781 l 1.17187,-4.664063 c 0.0117,-0.05859 0.0352,-0.128906 0.0352,-0.199218 0,-0.175782 -0.15234,-0.304688 -0.32812,-0.304688 -0.10547,0 -0.36329,0.04687 -0.45704,0.410156 l -0.8789,3.515625 c -0.0586,0.210938 -0.0586,0.234375 -0.15235,0.375 -0.24609,0.328125 -0.64453,0.738282 -1.20703,0.738282 -0.67968,0 -0.73828,-0.65625 -0.73828,-0.984375 0,-0.679688 0.32813,-1.605469 0.64453,-2.460938 0.14063,-0.351562 0.21094,-0.515625 0.21094,-0.75 0,-0.503906 -0.36328,-0.960937 -0.94922,-0.960937 -1.10156,0 -1.53515,1.734375 -1.53515,1.828125 0,0.04687 0.0469,0.105468 0.1289,0.105468 0.10547,0 0.11719,-0.04687 0.16406,-0.210937 0.29297,-1.007813 0.73829,-1.476563 1.20704,-1.476563 0.10546,0 0.3164,0 0.3164,0.386719 0,0.316406 -0.14062,0.65625 -0.3164,1.113281 -0.58594,1.570313 -0.58594,1.957032 -0.58594,2.25 0,1.136719 0.80859,1.394532 1.40625,1.394532 0.35156,0 0.78515,-0.105469 1.19531,-0.550782 l 0.0117,0.01172 c -0.17578,0.703125 -0.29297,1.171875 -0.71484,1.757813 z m 0,0"
         style="fill:#000000;fill-opacity:1;fill-rule:nonzero;stroke:none" />
      <path
         id="path4"
         d="m 189.65228,83.490477 c 0.16406,0 0.375,0 0.375,-0.222657 0,-0.222656 -0.19922,-0.222656 -0.375,-0.222656 h -7.04297 c -0.17578,0 -0.38672,0 -0.38672,0.210938 0,0.234375 0.19922,0.234375 0.38672,0.234375 z m 0,2.214843 c 0.16406,0 0.375,0 0.375,-0.210937 0,-0.234375 -0.19922,-0.234375 -0.375,-0.234375 h -7.04297 c -0.17578,0 -0.38672,0 -0.38672,0.222656 0,0.222656 0.19922,0.222656 0.38672,0.222656 z m 9.86133,-14.217773 c 0,-0.222656 0,-0.292969 -0.16406,-0.292969 -0.0937,0 -0.12891,0 -0.22266,0.152344 l -3.59766,5.578125 v 0.351562 h 3.14063 v 1.078125 c 0,0.445313 -0.0234,0.5625 -0.90234,0.5625 h -0.23438 v 0.351563 c 0.26953,-0.02344 1.21875,-0.02344 1.55859,-0.02344 0.32813,0 1.28907,0 1.5586,0.02344 v -0.351563 h -0.23438 c -0.86718,0 -0.90234,-0.117187 -0.90234,-0.5625 v -1.078125 h 1.20703 v -0.351562 h -1.20703 z m -0.78516,0.9375 v 4.5 h -2.90625 z m 0,0"
         style="fill:#000000;fill-opacity:1;fill-rule:nonzero;stroke:none" />
      <path
         id="path5"
         d="m 206.71185,74.393797 c -0.375,0.07031 -0.51562,0.351562 -0.51562,0.585937 0,0.28125 0.22265,0.375 0.38672,0.375 0.36328,0 0.60937,-0.304687 0.60937,-0.632812 0,-0.492188 -0.57422,-0.726563 -1.07812,-0.726563 -0.72657,0 -1.125,0.714844 -1.24219,0.949219 -0.26953,-0.902344 -1.00781,-0.949219 -1.23047,-0.949219 -1.21875,0 -1.86328,1.570313 -1.86328,1.828125 0,0.04687 0.0469,0.105469 0.1289,0.105469 0.10547,0 0.12891,-0.07031 0.15235,-0.117187 0.39844,-1.324219 1.20703,-1.570313 1.54687,-1.570313 0.53907,0 0.64453,0.492188 0.64453,0.785156 0,0.257813 -0.0703,0.539063 -0.21093,1.113282 -0.1875,0.761718 -0.23438,0.9375 -0.41016,1.628906 -0.17578,0.726562 -0.52734,1.382812 -1.16016,1.382812 -0.0586,0 -0.35156,0 -0.60937,-0.152343 0.43359,-0.09375 0.52734,-0.445313 0.52734,-0.585938 0,-0.246094 -0.17578,-0.386719 -0.39843,-0.386719 -0.29297,0 -0.59766,0.246094 -0.59766,0.632813 0,0.503906 0.5625,0.726562 1.06641,0.726562 0.57421,0 0.98437,-0.457031 1.23046,-0.9375 0.19922,0.703125 0.79688,0.9375 1.23047,0.9375 1.23047,0 1.875,-1.558593 1.875,-1.828125 0,-0.05859 -0.0469,-0.105468 -0.1289,-0.105468 -0.10547,0 -0.11719,0.05859 -0.15235,0.152343 -0.3164,1.054688 -1.01953,1.546875 -1.54687,1.546875 -0.42188,0 -0.65625,-0.316406 -0.65625,-0.808593 0,-0.257813 0.0586,-0.445313 0.24609,-1.242188 0.14063,-0.550781 0.29297,-1.183594 0.42188,-1.617187 0.17578,-0.726563 0.58593,-1.242188 1.125,-1.242188 0.0351,0 0.36328,0 0.60937,0.152344 z m 0,0"
         style="fill:#000000;fill-opacity:1;fill-rule:nonzero;stroke:none" />
      <path
         id="path6"
         d="m 215.13177,76.503172 h 3.30469 c 0.16406,0 0.375,0 0.375,-0.210938 0,-0.222656 -0.19922,-0.222656 -0.375,-0.222656 h -3.30469 v -3.304687 c 0,-0.164063 0,-0.386719 -0.21093,-0.386719 -0.23438,0 -0.23438,0.210937 -0.23438,0.386719 v 3.304687 h -3.29297 c -0.17578,0 -0.38672,0 -0.38672,0.210938 0,0.222656 0.19922,0.222656 0.38672,0.222656 h 3.29297 v 3.304687 c 0,0.164063 0,0.386719 0.22266,0.386719 0.22265,0 0.22265,-0.210937 0.22265,-0.386719 z m 8.52832,-4.078125 c 0.50391,0.164062 0.92578,0.175781 1.05469,0.175781 1.35938,0 2.21484,-0.996094 2.21484,-1.160156 0,-0.04687 -0.0234,-0.105469 -0.0937,-0.105469 -0.0234,0 -0.0469,0 -0.15234,0.04687 -0.66797,0.28125 -1.24219,0.316406 -1.55859,0.316406 -0.78516,0 -1.34766,-0.234375 -1.58203,-0.328125 -0.082,-0.03516 -0.10547,-0.03516 -0.11719,-0.03516 -0.0937,0 -0.0937,0.07031 -0.0937,0.257813 v 3.550781 c 0,0.210937 0,0.292969 0.14062,0.292969 0.0586,0 0.0703,-0.01172 0.19922,-0.164063 0.32813,-0.492187 0.89063,-0.773437 1.48828,-0.773437 0.63282,0 0.94922,0.585937 1.04297,0.785156 0.19922,0.46875 0.21094,1.054687 0.21094,1.511719 0,0.457031 0,1.136718 -0.32813,1.675781 -0.26953,0.421875 -0.73828,0.726562 -1.2539,0.726562 -0.79688,0 -1.57031,-0.539062 -1.78125,-1.40625 0.0586,0.02344 0.1289,0.03516 0.1875,0.03516 0.19922,0 0.52734,-0.128907 0.52734,-0.527344 0,-0.339844 -0.23437,-0.527344 -0.52734,-0.527344 -0.21094,0 -0.52735,0.105469 -0.52735,0.574219 0,1.007812 0.8086,2.167969 2.14454,2.167969 1.34765,0 2.53125,-1.125 2.53125,-2.648438 0,-1.417969 -0.96094,-2.601562 -2.21485,-2.601562 -0.67969,0 -1.20703,0.292968 -1.51172,0.632812 z m 0,0"
         style="fill:#000000;fill-opacity:1;fill-rule:nonzero;stroke:none" />
    </g>
    <path
       id="path7"
       d="M 0,0.199 H 32.776"
       style="fill:none;stroke:#000000;stroke-width:0.398;stroke-linecap:butt;stroke-linejoin:miter;stroke-miterlimit:10;stroke-dasharray:none;stroke-opacity:1"
       transform="matrix(1.3333333,0,0,-1.3333333,397.38133,375.35333)" />
    <g
       id="g7"
       aria-label="x&#10;2&#10;−1&#10;inatejpodstawieustali¢liczb¦pierwiastkówrównania&#10;4x+5"
       transform="matrix(1.3333333,0,0,1.3333333,398,390.008)">
      <path
         id="path8"
         d="m 5.6601562,-4.8751406 c -0.375,0.070312 -0.515625,0.3515625 -0.515625,0.5859375 0,0.28125 0.2226563,0.375 0.3867188,0.375 0.3632812,0 0.609375,-0.3046875 0.609375,-0.6328125 0,-0.4921875 -0.5742188,-0.7265625 -1.078125,-0.7265625 -0.7265625,0 -1.125,0.7148437 -1.2421875,0.9492187 C 3.5507813,-5.2267031 2.8125,-5.2735781 2.5898438,-5.2735781 c -1.2187501,0 -1.8632813,1.5703125 -1.8632813,1.828125 0,0.046875 0.046875,0.1054687 0.12890625,0.1054687 0.10546875,0 0.12890625,-0.070312 0.15234375,-0.1171875 0.3984375,-1.3242187 1.2070313,-1.5703125 1.546875,-1.5703125 0.5390625,0 0.6445313,0.4921875 0.6445313,0.7851563 0,0.2578125 -0.070312,0.5390625 -0.2109375,1.1132812 -0.1875,0.7617188 -0.234375,0.9375 -0.4101563,1.6289063 -0.1757812,0.72656247 -0.5273437,1.38281247 -1.1601563,1.38281247 -0.058594,0 -0.3515625,0 -0.60937495,-0.15234375 0.43359375,-0.09375 0.52734375,-0.4453125 0.52734375,-0.5859375 0,-0.24609372 -0.1757813,-0.38671872 -0.3984375,-0.38671872 -0.29296875,0 -0.59765625,0.24609372 -0.59765625,0.63281247 0,0.50390625 0.5625,0.7265625 1.06640625,0.7265625 0.5742187,0 0.984375,-0.45703125 1.2304688,-0.9375 0.1992187,0.703125 0.796875,0.9375 1.2304687,0.9375 1.2304687,0 1.875,-1.55859377 1.875,-1.82812497 0,-0.058594 -0.046875,-0.1054688 -0.1289063,-0.1054688 -0.1054687,0 -0.1171875,0.058594 -0.1523437,0.1523438 -0.3164063,1.05468747 -1.0195313,1.54687497 -1.546875,1.54687497 -0.421875,0 -0.65625,-0.31640625 -0.65625,-0.80859375 0,-0.25781252 0.058594,-0.44531252 0.2460938,-1.24218752 0.140625,-0.5507812 0.2929687,-1.1835937 0.421875,-1.6171875 0.1757812,-0.7265625 0.5859374,-1.2421875 1.1249999,-1.2421875 0.035156,0 0.3632813,0 0.609375,0.1523438 z m 0,0"
         style="fill:#000000;fill-opacity:1;fill-rule:nonzero;stroke:none" />
      <path
         id="path9"
         d="m 8.9033203,-5.0831484 c 0.1289063,-0.1171875 0.4570313,-0.375 0.5859375,-0.4921875 0.4921875,-0.4570313 0.9609372,-0.890625 0.9609372,-1.6171875 0,-0.9492188 -0.7968747,-1.5585938 -1.7929684,-1.5585938 -0.9492188,0 -1.5820313,0.7265625 -1.5820313,1.4296875 0,0.3984375 0.3164063,0.4453125 0.421875,0.4453125 0.1640625,0 0.4101563,-0.1171875 0.4101563,-0.421875 0,-0.4101562 -0.3984375,-0.4101562 -0.4921875,-0.4101562 0.234375,-0.5859375 0.7734375,-0.7851563 1.1601562,-0.7851563 0.7382813,0 1.125,0.6328125 1.125,1.3007813 0,0.8320312 -0.5859375,1.4296875 -1.5234375,2.4023437 l -1.0078125,1.03125 c -0.09375,0.09375 -0.09375,0.1054688 -0.09375,0.3046875 h 3.1523437 l 0.222656,-1.4296875 h -0.246093 c -0.02344,0.1640625 -0.08203,0.5625 -0.175782,0.7148438 -0.046875,0.058594 -0.6562497,0.058594 -0.7851559,0.058594 H 7.8251953 Z m 0,0"
         style="fill:#000000;fill-opacity:1;fill-rule:nonzero;stroke:none" />
      <path
         id="path10"
         d="m 21.94043,-2.7540469 c 0.175781,0 0.398437,0 0.398437,-0.234375 0,-0.234375 -0.222656,-0.234375 -0.398437,-0.234375 h -6.515625 c -0.164063,0 -0.386719,0 -0.386719,0.234375 0,0.234375 0.222656,0.234375 0.386719,0.234375 z m 0,0"
         style="fill:#000000;fill-opacity:1;fill-rule:nonzero;stroke:none" />
      <path
         id="path11"
         d="m 29.44043,-7.6642031 c 0,-0.2695313 0,-0.28125 -0.246094,-0.28125 -0.28125,0.3164062 -0.878906,0.7617187 -2.109375,0.7617187 v 0.3515625 c 0.269531,0 0.867187,0 1.523437,-0.3164062 v 6.22265622 c 0,0.43359375 -0.03516,0.57421875 -1.078125,0.57421875 h -0.375 v 0.351562505 c 0.316407,-0.023437505 1.476563,-0.023437505 1.875,-0.023437505 0.398438,0 1.546875,0 1.863282,0.023437505 V -0.35170313 h -0.363282 c -1.054687,0 -1.089843,-0.140625 -1.089843,-0.57421875 z m 0,0"
         style="fill:#000000;fill-opacity:1;fill-rule:nonzero;stroke:none" />
      <path
         id="path12"
         d="m -20.085937,37.379742 c 0,-0.222656 0,-0.292969 -0.164063,-0.292969 -0.09375,0 -0.128906,0 -0.222656,0.152344 l -3.597656,5.578125 v 0.351563 h 3.140625 v 1.078125 c 0,0.445312 -0.02344,0.5625 -0.902344,0.5625 h -0.234375 v 0.351562 c 0.269531,-0.02344 1.21875,-0.02344 1.558594,-0.02344 0.328125,0 1.289062,0 1.558593,0.02344 V 44.80943 h -0.234375 c -0.867187,0 -0.902343,-0.117188 -0.902343,-0.5625 v -1.078125 h 1.207031 v -0.351563 h -1.207031 z m -0.785157,0.9375 v 4.5 h -2.90625 z m 0,0"
         style="fill:#000000;fill-opacity:1;fill-rule:nonzero;stroke:none" />
      <path
         id="path13"
         d="m -12.884766,40.285992 c -0.375,0.07031 -0.515625,0.351563 -0.515625,0.585938 0,0.28125 0.222657,0.375 0.386719,0.375 0.363281,0 0.609375,-0.304688 0.609375,-0.632813 0,-0.492187 -0.574219,-0.726562 -1.078125,-0.726562 -0.726562,0 -1.125,0.714843 -1.242187,0.949218 -0.269532,-0.902343 -1.007813,-0.949218 -1.230469,-0.949218 -1.21875,0 -1.863281,1.570312 -1.863281,1.828125 0,0.04687 0.04687,0.105468 0.128906,0.105468 0.105469,0 0.128906,-0.07031 0.152344,-0.117187 0.398437,-1.324219 1.207031,-1.570313 1.546875,-1.570313 0.539062,0 0.644531,0.492188 0.644531,0.785157 0,0.257812 -0.07031,0.539062 -0.210938,1.113281 -0.1875,0.761719 -0.234375,0.9375 -0.410156,1.628906 -0.175781,0.726563 -0.527344,1.382813 -1.160156,1.382813 -0.05859,0 -0.351563,0 -0.609375,-0.152344 0.433594,-0.09375 0.527344,-0.445313 0.527344,-0.585938 0,-0.246093 -0.175782,-0.386718 -0.398438,-0.386718 -0.292969,0 -0.597656,0.246093 -0.597656,0.632812 0,0.503906 0.5625,0.726563 1.066406,0.726563 0.574219,0 0.984375,-0.457032 1.230469,-0.9375 0.199219,0.703125 0.796875,0.9375 1.230469,0.9375 1.230468,0 1.875,-1.558594 1.875,-1.828125 0,-0.05859 -0.04687,-0.105469 -0.128907,-0.105469 -0.105468,0 -0.117187,0.05859 -0.152343,0.152344 -0.316407,1.054687 -1.019532,1.546875 -1.546875,1.546875 -0.421875,0 -0.65625,-0.316407 -0.65625,-0.808594 0,-0.257813 0.05859,-0.445313 0.246093,-1.242188 0.140625,-0.550781 0.292969,-1.183593 0.421875,-1.617187 0.175782,-0.726563 0.585938,-1.242188 1.125,-1.242188 0.03516,0 0.363282,0 0.609375,0.152344 z m 0,0"
         style="fill:#000000;fill-opacity:1;fill-rule:nonzero;stroke:none" />
      <path
         id="path14"
         d="m -4.4677734,42.395367 h 3.3046875 c 0.16406246,0 0.37499996,0 0.37499996,-0.210937 0,-0.222657 -0.19921875,-0.222657 -0.37499996,-0.222657 h -3.3046875 v -3.304687 c 0,-0.164063 0,-0.386719 -0.2109375,-0.386719 -0.234375,0 -0.234375,0.210938 -0.234375,0.386719 v 3.304687 h -3.2929688 c -0.1757812,0 -0.3867187,0 -0.3867187,0.210938 0,0.222656 0.1992187,0.222656 0.3867187,0.222656 h 3.2929688 v 3.304688 c 0,0.164062 0,0.386718 0.2226562,0.386718 0.2226563,0 0.2226563,-0.210937 0.2226563,-0.386718 z m 8.53125,-4.078125 c 0.5039062,0.164063 0.9257812,0.175781 1.0546875,0.175781 1.359375,0 2.2148437,-0.996093 2.2148437,-1.160156 0,-0.04687 -0.023437,-0.105469 -0.09375,-0.105469 -0.023437,0 -0.046875,0 -0.1523437,0.04687 -0.6679688,0.28125 -1.2421875,0.316407 -1.5585938,0.316407 -0.7851562,0 -1.3476562,-0.234375 -1.5820312,-0.328125 -0.082031,-0.03516 -0.1054688,-0.03516 -0.1171875,-0.03516 -0.09375,0 -0.09375,0.07031 -0.09375,0.257813 v 3.550781 c 0,0.210938 0,0.292969 0.140625,0.292969 0.058594,0 0.070312,-0.01172 0.1992187,-0.164063 0.328125,-0.492187 0.890625,-0.773437 1.4882813,-0.773437 0.6328125,0 0.9492187,0.585937 1.0429687,0.785156 0.1992188,0.46875 0.2109375,1.054688 0.2109375,1.511719 0,0.457031 0,1.136719 -0.328125,1.675781 -0.2695312,0.421875 -0.7382812,0.726563 -1.2539062,0.726563 -0.796875,0 -1.5703125,-0.539063 -1.78125,-1.40625 0.058594,0.02344 0.1289062,0.03516 0.1875,0.03516 0.1992187,0 0.5273437,-0.128906 0.5273437,-0.527344 0,-0.339844 -0.234375,-0.527344 -0.5273437,-0.527344 -0.2109375,0 -0.5273438,0.105469 -0.5273438,0.574219 0,1.007813 0.8085938,2.167969 2.1445313,2.167969 1.3476562,0 2.53125,-1.125 2.53125,-2.648438 0,-1.417968 -0.9609375,-2.601562 -2.2148438,-2.601562 -0.6796875,0 -1.2070312,0.292969 -1.5117187,0.632812 z m 0,0"
         style="fill:#000000;fill-opacity:1;fill-rule:nonzero;stroke:none" />
    </g>
    <path
       id="path15"
       d="M 0,0.199 H 32.776"
       style="fill:none;stroke:#000000;stroke-width:0.398;stroke-linecap:butt;stroke-linejoin:miter;stroke-miterlimit:10;stroke-dasharray:none;stroke-opacity:1"
       transform="matrix(1.3333333,0,0,-1.3333333,365.46933,457.28667)" />
    <g
       id="g15"
       aria-label="x&#10;2&#10;−1&#10;=m&#10;wzale»no±ciodparametrum.&#10;2.Wtrójk¡cieABCdanyjestwierzchoªekA(1,3)orazrównanie±rodkowejy=7&#10;irównaniewysoko±cix+4y−51=0.Wiedz¡c,»e±rodkowaiwysoko±¢wy-&#10;chodz¡zró»nychwierzchoªkówtrójk¡tapoda¢równaniabokówtegotrójk¡ta.&#10;3.Dlajakichwarto±ciparametrum∈Rrównanie&#10;log&#10;2&#10;(x+3)−2log&#10;4&#10;x=m&#10;posiadarozwi¡zanienale»¡cedoprzedziaªuh3;4)?&#10;4.Wurnieznajduj¡si¦trzykulebiaªeonumerach1,2i3orazpi¦¢kulczarnych&#10;onumerach1,2,3,4i5.Losujemybezzwracaniadwukrotniepojednejkuli.&#10;Jakiejestprawdopodobie«stwotego,»epierwszazwylosowanychkulb¦dzie&#10;biaªa,adrugab¦dziekul¡onumerze1?&#10;5.Natrójk¡cieprostok¡tnymok¡cieostrymxopisanookr¡g.Okr¡gtenitrójk¡t&#10;obracaj¡si¦dookoªaprzeciwprostok¡tnej.Przyjakimxstosunekobj¦to±ci&#10;kulipowstaªejzobrotuokr¦gudoobj¦to±cibryªypowstaªejzobrotutrójk¡ta&#10;b¦dzienajmniejszy?"
       transform="matrix(1.3333333,0,0,1.3333333,366.08667,471.94)">
      <path
         id="path16"
         d="m 5.6596094,-4.8739453 c -0.375,0.070312 -0.515625,0.3515625 -0.515625,0.5859375 0,0.28125 0.2226562,0.375 0.3867187,0.375 0.3632813,0 0.609375,-0.3046875 0.609375,-0.6328125 0,-0.4921875 -0.5742187,-0.7265625 -1.078125,-0.7265625 -0.7265625,0 -1.125,0.7148437 -1.2421875,0.9492187 -0.2695312,-0.9023437 -1.0078125,-0.9492187 -1.2304687,-0.9492187 -1.21875,0 -1.86328127,1.5703125 -1.86328127,1.828125 0,0.046875 0.046875,0.1054687 0.12890625,0.1054687 0.10546875,0 0.12890625,-0.070312 0.15234372,-0.1171875 0.3984375,-1.3242187 1.2070313,-1.5703125 1.546875,-1.5703125 0.5390625,0 0.6445313,0.4921875 0.6445313,0.7851563 0,0.2578125 -0.070312,0.5390625 -0.2109375,1.1132812 -0.1875,0.7617188 -0.234375,0.9375 -0.4101563,1.6289063 -0.1757812,0.72656249 -0.5273437,1.38281249 -1.1601562,1.38281249 -0.058594,0 -0.3515625,0 -0.60937502,-0.15234375 0.43359372,-0.09375 0.52734372,-0.4453125 0.52734372,-0.5859375 0,-0.24609374 -0.1757812,-0.38671874 -0.39843747,-0.38671874 -0.29296875,0 -0.59765625,0.24609374 -0.59765625,0.63281249 0,0.50390625 0.5625,0.7265625 1.06640622,0.7265625 0.5742188,0 0.984375,-0.45703125 1.2304688,-0.9375 0.1992187,0.703125 0.796875,0.9375 1.2304687,0.9375 1.2304688,0 1.875,-1.55859379 1.875,-1.82812499 0,-0.058594 -0.046875,-0.1054688 -0.1289062,-0.1054688 -0.1054688,0 -0.1171875,0.058594 -0.1523438,0.1523438 -0.3164062,1.05468749 -1.0195312,1.54687499 -1.546875,1.54687499 -0.421875,0 -0.65625,-0.31640625 -0.65625,-0.80859375 0,-0.25781254 0.058594,-0.44531254 0.2460938,-1.24218754 0.140625,-0.5507812 0.2929687,-1.1835937 0.421875,-1.6171875 0.1757812,-0.7265625 0.5859375,-1.2421875 1.125,-1.2421875 0.035156,0 0.3632812,0 0.609375,0.1523438 z m 0,0"
         style="fill:#000000;fill-opacity:1;fill-rule:nonzero;stroke:none" />
      <path
         id="path17"
         d="m 8.9027734,-5.0819531 c 0.1289063,-0.1171875 0.4570313,-0.375 0.5859375,-0.4921875 0.4921875,-0.4570313 0.9609371,-0.890625 0.9609371,-1.6171875 0,-0.9492188 -0.7968746,-1.5585938 -1.7929683,-1.5585938 -0.9492188,0 -1.5820313,0.7265625 -1.5820313,1.4296875 0,0.3984375 0.3164063,0.4453125 0.421875,0.4453125 0.1640625,0 0.4101563,-0.1171875 0.4101563,-0.421875 0,-0.4101562 -0.3984375,-0.4101562 -0.4921875,-0.4101562 0.234375,-0.5859375 0.7734375,-0.7851563 1.1601562,-0.7851563 0.7382813,0 1.125,0.6328125 1.125,1.3007813 0,0.8320312 -0.5859375,1.4296875 -1.5234375,2.4023437 l -1.0078125,1.03125 c -0.09375,0.09375 -0.09375,0.1054688 -0.09375,0.3046875 h 3.1523436 l 0.222656,-1.4296875 h -0.246093 c -0.02344,0.1640625 -0.08203,0.5625 -0.175782,0.7148438 -0.046875,0.058594 -0.6562496,0.058594 -0.7851558,0.058594 H 7.8246484 Z m 0,0"
         style="fill:#000000;fill-opacity:1;fill-rule:nonzero;stroke:none" />
      <path
         id="path18"
         d="m 21.939883,-2.7528516 c 0.175781,0 0.398437,0 0.398437,-0.234375 0,-0.234375 -0.222656,-0.234375 -0.398437,-0.234375 h -6.515625 c -0.164063,0 -0.386719,0 -0.386719,0.234375 0,0.234375 0.222656,0.234375 0.386719,0.234375 z m 0,0"
         style="fill:#000000;fill-opacity:1;fill-rule:nonzero;stroke:none" />
      <path
         id="path19"
         d="m 29.439883,-7.6630078 c 0,-0.2695313 0,-0.28125 -0.246094,-0.28125 -0.28125,0.3164062 -0.878906,0.7617187 -2.109375,0.7617187 v 0.3515625 c 0.269531,0 0.867188,0 1.523438,-0.3164062 v 6.22265624 c 0,0.43359375 -0.03516,0.57421875 -1.078125,0.57421875 h -0.375 v 0.3515625 c 0.316406,-0.0234375 1.476562,-0.0234375 1.875,-0.0234375 0.398437,0 1.546875,0 1.863281,0.0234375 v -0.3515625 h -0.363281 c -1.054688,0 -1.089844,-0.140625 -1.089844,-0.57421875 z m 15.46289,-4.4033202 c 0.164063,0 0.375,0 0.375,-0.222656 0,-0.222657 -0.199218,-0.222657 -0.375,-0.222657 h -7.042968 c -0.175782,0 -0.386719,0 -0.386719,0.210938 0,0.234375 0.199219,0.234375 0.386719,0.234375 z m 0,2.2148436 c 0.164063,0 0.375,0 0.375,-0.2109376 0,-0.234375 -0.199218,-0.234375 -0.375,-0.234375 h -7.042968 c -0.175782,0 -0.386719,0 -0.386719,0.222656 0,0.2226566 0.199219,0.2226566 0.386719,0.2226566 z m 0,0"
         style="fill:#000000;fill-opacity:1;fill-rule:nonzero;stroke:none" />
      <path
         id="path20"
         d="m 51.717227,-11.703047 c 0.02344,-0.07031 0.328125,-0.667969 0.761718,-1.054687 0.316407,-0.28125 0.726563,-0.46875 1.183594,-0.46875 0.480469,0 0.644531,0.351562 0.644531,0.832031 0,0.07031 0,0.304687 -0.140625,0.867187 -0.152343,0.621094 -0.152343,0.667969 -0.292968,1.230469 -0.09375,0.3632814 -0.328125,1.2539064 -0.351563,1.3828126 -0.04687,0.1757813 -0.117187,0.4921875 -0.117187,0.5390625 0,0.1640625 0.128906,0.2929688 0.304687,0.2929688 0.363281,0 0.421875,-0.2695313 0.527344,-0.703125 0.234375,-0.890625 0.539062,-2.1328129 0.726562,-2.8593749 0.02344,-0.09375 0.644532,-1.582031 1.957032,-1.582031 0.480468,0 0.644531,0.351562 0.644531,0.832031 0,0.667969 -0.46875,1.96875 -0.726563,2.6835936 -0.105468,0.2929688 -0.175781,0.4453125 -0.175781,0.6679688 0,0.5273437 0.375,0.9609375 0.949219,0.9609375 1.113281,0 1.535156,-1.7578125 1.535156,-1.828125 0,-0.058594 -0.05859,-0.1054689 -0.128906,-0.1054689 -0.105469,0 -0.117188,0.035156 -0.175781,0.2343751 -0.269532,0.9609375 -0.714844,1.4648438 -1.195313,1.4648438 -0.117187,0 -0.304687,-0.011719 -0.304687,-0.3984375 0,-0.3046875 0.140625,-0.6914063 0.1875,-0.8203125 0.210937,-0.5742189 0.75,-1.9921879 0.75,-2.6835939 0,-0.714844 -0.421875,-1.253906 -1.324219,-1.253906 -0.796875,0 -1.453125,0.457031 -1.921875,1.160156 -0.03516,-0.644531 -0.433594,-1.160156 -1.335938,-1.160156 -1.054687,0 -1.617187,0.75 -1.839843,1.054687 -0.03516,-0.679687 -0.527344,-1.054687 -1.042969,-1.054687 -0.351563,0 -0.621094,0.164062 -0.855469,0.621094 -0.210937,0.433593 -0.375,1.160156 -0.375,1.207031 0,0.04687 0.04687,0.105469 0.128906,0.105469 0.09375,0 0.105469,-0.01172 0.175782,-0.28125 0.175781,-0.703125 0.410156,-1.40625 0.890625,-1.40625 0.269531,0 0.363281,0.1875 0.363281,0.539062 0,0.269531 -0.117188,0.738281 -0.199219,1.101563 -0.105469,0.433593 -0.234375,0.867187 -0.339844,1.289062 -0.04687,0.234375 -0.175781,0.7734376 -0.234375,0.9843751 -0.08203,0.3164063 -0.210937,0.8789063 -0.210937,0.9375 0,0.1640625 0.128906,0.2929688 0.304687,0.2929688 0.140625,0 0.316407,-0.070312 0.410157,-0.2460938 0.02344,-0.058594 0.128906,-0.4804687 0.1875,-0.7148437 0.08203,-0.3632813 0.175781,-0.7265625 0.257812,-1.0781254 z m 0,0"
         style="fill:#000000;fill-opacity:1;fill-rule:nonzero;stroke:none" />
      <path
         id="path21"
         d="m -24.990781,18.677812 c 0.02344,-0.07031 0.328125,-0.667968 0.761719,-1.054687 0.316406,-0.28125 0.726562,-0.46875 1.183593,-0.46875 0.480469,0 0.644532,0.351562 0.644532,0.832031 0,0.07031 0,0.304688 -0.140625,0.867188 -0.152344,0.621093 -0.152344,0.667968 -0.292969,1.230468 -0.09375,0.363282 -0.328125,1.253907 -0.351563,1.382813 -0.04687,0.175781 -0.117187,0.492187 -0.117187,0.539062 0,0.164063 0.128906,0.292969 0.304687,0.292969 0.363282,0 0.421875,-0.269531 0.527344,-0.703125 0.234375,-0.890625 0.539063,-2.132812 0.726563,-2.859375 0.02344,-0.09375 0.644531,-1.582031 1.957031,-1.582031 0.480469,0 0.644531,0.351562 0.644531,0.832031 0,0.667969 -0.46875,1.96875 -0.726562,2.683594 -0.105469,0.292969 -0.175782,0.445312 -0.175782,0.667969 0,0.527343 0.375,0.960937 0.949219,0.960937 1.113281,0 1.535156,-1.757812 1.535156,-1.828125 0,-0.05859 -0.05859,-0.105469 -0.128906,-0.105469 -0.105469,0 -0.117187,0.03516 -0.175781,0.234375 -0.269531,0.960938 -0.714844,1.464844 -1.195313,1.464844 -0.117187,0 -0.304687,-0.01172 -0.304687,-0.398437 0,-0.304688 0.140625,-0.691407 0.1875,-0.820313 0.210937,-0.574219 0.75,-1.992187 0.75,-2.683594 0,-0.714843 -0.421875,-1.253906 -1.324219,-1.253906 -0.796875,0 -1.453125,0.457031 -1.921875,1.160156 -0.03516,-0.644531 -0.433594,-1.160156 -1.335937,-1.160156 -1.054688,0 -1.617188,0.75 -1.839844,1.054688 -0.03516,-0.679688 -0.527344,-1.054688 -1.042969,-1.054688 -0.351562,0 -0.621094,0.164063 -0.855469,0.621094 -0.210937,0.433594 -0.375,1.160156 -0.375,1.207031 0,0.04687 0.04687,0.105469 0.128907,0.105469 0.09375,0 0.105468,-0.01172 0.175781,-0.28125 0.175781,-0.703125 0.410156,-1.40625 0.890625,-1.40625 0.269531,0 0.363281,0.1875 0.363281,0.539062 0,0.269532 -0.117187,0.738282 -0.199219,1.101563 -0.105468,0.433594 -0.234375,0.867187 -0.339843,1.289062 -0.04687,0.234375 -0.175782,0.773438 -0.234375,0.984375 -0.08203,0.316407 -0.210938,0.878907 -0.210938,0.9375 0,0.164063 0.128906,0.292969 0.304688,0.292969 0.140625,0 0.316406,-0.07031 0.410156,-0.246094 0.02344,-0.05859 0.128906,-0.480468 0.1875,-0.714843 0.08203,-0.363282 0.175781,-0.726563 0.257812,-1.078125 z m 0,0"
         style="fill:#000000;fill-opacity:1;fill-rule:nonzero;stroke:none" />
      <path
         id="path22"
         d="m -103.86383,45.264727 c -0.41015,0.703125 -0.82031,0.9375 -1.39453,0.972656 -0.12891,0.01172 -0.22266,0.01172 -0.22266,0.234375 0,0.07031 0.0586,0.117187 0.14063,0.117187 0.21094,0 0.75,-0.02344 0.97266,-0.02344 0.33984,0 0.72656,0.02344 1.05468,0.02344 0.0703,0 0.22266,0 0.22266,-0.222656 0,-0.117187 -0.0937,-0.128906 -0.17578,-0.128906 -0.26953,-0.02344 -0.49219,-0.117188 -0.49219,-0.398438 0,-0.175781 0.0703,-0.304687 0.22266,-0.5625 l 0.90234,-1.511718 h 3.058594 c 0.01172,0.105468 0.01172,0.210937 0.02344,0.316406 0.03516,0.304687 0.175781,1.546875 0.175781,1.78125 0,0.351562 -0.609375,0.375 -0.796875,0.375 -0.14063,0 -0.26953,0 -0.26953,0.222656 0,0.128906 0.10547,0.128906 0.17578,0.128906 0.21094,0 0.445313,-0.02344 0.65625,-0.02344 h 0.679688 c 0.726562,0 1.253906,0.02344 1.265625,0.02344 0.08203,0 0.210937,0 0.210937,-0.222656 0,-0.128906 -0.105469,-0.128906 -0.28125,-0.128906 -0.65625,0 -0.667969,-0.105469 -0.714844,-0.457031 l -0.726562,-7.464844 c -0.02344,-0.234375 -0.07031,-0.257813 -0.199219,-0.257813 -0.117187,0 -0.1875,0.02344 -0.304687,0.199219 z m 1.44141,-1.839844 2.40234,-4.019531 0.410158,4.019531 z m 9.676756,-4.183594 c 0.117187,-0.445312 0.164062,-0.46875 0.621094,-0.46875 h 1.558593 c 1.347657,0 1.347657,1.148438 1.347657,1.253906 0,0.972657 -0.960938,2.203125 -2.542969,2.203125 h -1.722656 z m 2.027344,3.082031 c 1.300781,-0.246093 2.484375,-1.148437 2.484375,-2.25 0,-0.925781 -0.832032,-1.652343 -2.179688,-1.652343 h -3.832031 c -0.234375,0 -0.339844,0 -0.339844,0.234375 0,0.117187 0.105469,0.117187 0.292969,0.117187 0.726562,0 0.726562,0.09375 0.726562,0.222656 0,0.02344 0,0.09375 -0.04687,0.28125 l -1.617187,6.433594 c -0.105469,0.410156 -0.128906,0.527344 -0.960938,0.527344 -0.234375,0 -0.351562,0 -0.351562,0.222656 0,0.128906 0.07031,0.128906 0.304687,0.128906 h 4.101563 c 1.828125,0 3.246094,-1.382812 3.246094,-2.589843 0,-0.984375 -0.867188,-1.582032 -1.828125,-1.675782 z m -1.699219,3.914063 h -1.617188 c -0.164062,0 -0.1875,0 -0.257812,-0.01172 -0.128906,-0.01172 -0.152344,-0.03516 -0.152344,-0.128906 0,-0.08203 0.03516,-0.152344 0.05859,-0.257813 l 0.832031,-3.375 h 2.25 c 1.40625,0 1.40625,1.3125 1.40625,1.40625 0,1.148438 -1.042969,2.367188 -2.519531,2.367188 z m 13.722656,-7.957031 c 0,-0.105469 -0.08203,-0.105469 -0.105469,-0.105469 -0.02344,0 -0.07031,0 -0.175781,0.117187 l -0.820312,1.007813 c -0.421875,-0.714844 -1.078125,-1.125 -1.96875,-1.125 -2.589844,0 -5.261719,2.613281 -5.261719,5.425781 0,1.992188 1.394531,3.234375 3.140625,3.234375 0.960937,0 1.792969,-0.398437 2.484375,-0.984375 1.042969,-0.878906 1.359375,-2.039062 1.359375,-2.132812 0,-0.105469 -0.09375,-0.105469 -0.140625,-0.105469 -0.105469,0 -0.117188,0.07031 -0.140625,0.117187 -0.550781,1.863282 -2.15625,2.765625 -3.351563,2.765625 -1.277343,0 -2.367187,-0.820312 -2.367187,-2.507812 0,-0.386719 0.117187,-2.460938 1.464844,-4.03125 0.65625,-0.761719 1.78125,-1.441406 2.917968,-1.441406 1.3125,0 1.898438,1.089843 1.898438,2.308593 0,0.316407 -0.03516,0.574219 -0.03516,0.621094 0,0.117188 0.117187,0.117188 0.152343,0.117188 0.140625,0 0.152344,-0.01172 0.199219,-0.234375 z m 0,0"
         style="fill:#000000;fill-opacity:1;fill-rule:nonzero;stroke:none" />
      <path
         id="path23"
         d="m 36.4975,45.264727 c -0.410156,0.703125 -0.820312,0.9375 -1.394531,0.972656 -0.128906,0.01172 -0.222656,0.01172 -0.222656,0.234375 0,0.07031 0.05859,0.117187 0.140625,0.117187 0.210937,0 0.75,-0.02344 0.972656,-0.02344 0.339844,0 0.726562,0.02344 1.054687,0.02344 0.07031,0 0.222657,0 0.222657,-0.222656 0,-0.117187 -0.09375,-0.128906 -0.175782,-0.128906 -0.269531,-0.02344 -0.492187,-0.117188 -0.492187,-0.398438 0,-0.175781 0.07031,-0.304687 0.222656,-0.5625 l 0.902344,-1.511718 h 3.058594 c 0.01172,0.105468 0.01172,0.210937 0.02344,0.316406 0.03516,0.304687 0.175781,1.546875 0.175781,1.78125 0,0.351562 -0.609375,0.375 -0.796875,0.375 -0.140625,0 -0.269531,0 -0.269531,0.222656 0,0.128906 0.105469,0.128906 0.175781,0.128906 0.210938,0 0.445313,-0.02344 0.65625,-0.02344 h 0.679688 c 0.726562,0 1.253906,0.02344 1.265625,0.02344 0.08203,0 0.210937,0 0.210937,-0.222656 0,-0.128906 -0.105468,-0.128906 -0.28125,-0.128906 -0.65625,0 -0.667968,-0.105469 -0.714843,-0.457031 L 41.185,38.315508 c -0.02344,-0.234375 -0.07031,-0.257813 -0.199219,-0.257813 -0.117187,0 -0.1875,0.02344 -0.304687,0.199219 z m 1.441406,-1.839844 2.402344,-4.019531 0.410156,4.019531 z m 0,0"
         style="fill:#000000;fill-opacity:1;fill-rule:nonzero;stroke:none" />
      <path
         id="path24"
         d="m 47.135195,49.495195 c 0,-0.03516 0,-0.05859 -0.210937,-0.269531 -1.195313,-1.207031 -1.863281,-3.175781 -1.863281,-5.613281 0,-2.320313 0.5625,-4.3125 1.945312,-5.730469 0.128906,-0.105469 0.128906,-0.128906 0.128906,-0.164062 0,-0.07031 -0.07031,-0.09375 -0.117187,-0.09375 -0.152344,0 -1.136719,0.855468 -1.722656,2.027343 -0.609375,1.207032 -0.878907,2.496094 -0.878907,3.960938 0,1.066406 0.164063,2.484375 0.785157,3.761719 0.703125,1.441406 1.6875,2.214843 1.816406,2.214843 0.04687,0 0.117187,-0.02344 0.117187,-0.09375 z m 4.110352,-10.570312 c 0,-0.269531 0,-0.28125 -0.246094,-0.28125 -0.28125,0.316406 -0.878906,0.761719 -2.109375,0.761719 v 0.351562 c 0.269531,0 0.867188,0 1.523438,-0.316406 v 6.222656 c 0,0.433594 -0.03516,0.574219 -1.078125,0.574219 h -0.375 v 0.351562 c 0.316406,-0.02344 1.476562,-0.02344 1.875,-0.02344 0.398437,0 1.546875,0 1.863281,0.02344 v -0.351562 h -0.363281 c -1.054688,0 -1.089844,-0.140625 -1.089844,-0.574219 z m 0,0"
         style="fill:#000000;fill-opacity:1;fill-rule:nonzero;stroke:none" />
      <path
         id="path25"
         d="m 55.982852,46.63582 c 0,-0.691406 -0.222657,-1.207031 -0.714844,-1.207031 -0.386719,0 -0.574219,0.316406 -0.574219,0.574219 0,0.257812 0.175781,0.585937 0.585938,0.585937 0.152343,0 0.28125,-0.04687 0.386718,-0.152343 0.02344,-0.02344 0.03516,-0.02344 0.04687,-0.02344 0.03516,0 0.03516,0.164063 0.03516,0.222656 0,0.398438 -0.08203,1.171875 -0.773438,1.945313 -0.128906,0.152344 -0.128906,0.175781 -0.128906,0.199219 0,0.05859 0.05859,0.117187 0.117187,0.117187 0.09375,0 1.019532,-0.890625 1.019532,-2.261719 z m 0,0"
         style="fill:#000000;fill-opacity:1;fill-rule:nonzero;stroke:none" />
      <path
         id="path26"
         d="m 61.098086,42.299883 c -0.210938,0.01172 -0.257813,0.02344 -0.257813,0.128906 0,0.117188 0.05859,0.117188 0.28125,0.117188 h 0.550782 c 1.007812,0 1.464843,0.84375 1.464843,1.992187 0,1.558594 -0.808593,1.980469 -1.394531,1.980469 -0.574219,0 -1.558594,-0.28125 -1.898437,-1.066406 0.375,0.05859 0.726562,-0.152344 0.726562,-0.585938 0,-0.339844 -0.257812,-0.585937 -0.585937,-0.585937 -0.292969,0 -0.597657,0.164062 -0.597657,0.621093 0,1.066407 1.066407,1.933594 2.390625,1.933594 1.417969,0 2.472657,-1.078125 2.472657,-2.285156 0,-1.101563 -0.890625,-1.96875 -2.027344,-2.167969 1.03125,-0.304687 1.699219,-1.171875 1.699219,-2.109375 0,-0.9375 -0.972657,-1.628906 -2.132813,-1.628906 -1.195312,0 -2.085937,0.726562 -2.085937,1.59375 0,0.480469 0.375,0.574219 0.550781,0.574219 0.257812,0 0.539062,-0.175782 0.539062,-0.539063 0,-0.375 -0.28125,-0.539062 -0.550781,-0.539062 -0.07031,0 -0.09375,0 -0.128906,0.01172 0.457031,-0.820312 1.582031,-0.820312 1.640625,-0.820312 0.386719,0 1.171875,0.175781 1.171875,1.347656 0,0.234375 -0.03516,0.902344 -0.386719,1.417969 -0.351562,0.527344 -0.761719,0.5625 -1.089844,0.574219 z m 7.03125,1.3125 c 0,-0.914063 -0.128906,-2.390625 -0.796875,-3.773438 -0.703125,-1.441406 -1.675781,-2.214843 -1.816406,-2.214843 -0.04687,0 -0.105469,0.02344 -0.105469,0.09375 0,0.03516 0,0.05859 0.199219,0.269531 1.195312,1.207031 1.875,3.175781 1.875,5.613281 0,2.320313 -0.5625,4.3125 -1.957032,5.730469 -0.117187,0.105469 -0.117187,0.128906 -0.117187,0.164062 0,0.07031 0.05859,0.09375 0.105469,0.09375 0.164062,0 1.136718,-0.855468 1.722656,-2.027343 0.609375,-1.21875 0.890625,-2.519532 0.890625,-3.949219 z m 0,0"
         style="fill:#000000;fill-opacity:1;fill-rule:nonzero;stroke:none" />
      <path
         id="path27"
         d="m 200.87055,47.924883 c -0.31641,0.457031 -0.78516,0.867187 -1.3711,0.867187 -0.14062,0 -0.71484,-0.02344 -0.90234,-0.574218 0.0469,0.01172 0.10547,0.01172 0.12891,0.01172 0.35156,0 0.59765,-0.316406 0.59765,-0.585937 0,-0.28125 -0.23437,-0.375 -0.41015,-0.375 -0.1875,0 -0.60938,0.140625 -0.60938,0.726562 0,0.609375 0.51563,1.03125 1.19531,1.03125 1.19532,0 2.40235,-1.101562 2.74219,-2.425781 l 1.17188,-4.664062 c 0.0117,-0.05859 0.0351,-0.128907 0.0351,-0.199219 0,-0.175781 -0.15234,-0.304688 -0.32812,-0.304688 -0.10547,0 -0.36328,0.04687 -0.45703,0.410157 l -0.87891,3.515625 c -0.0586,0.210937 -0.0586,0.234375 -0.15234,0.375 -0.2461,0.328125 -0.64454,0.738281 -1.20704,0.738281 -0.67968,0 -0.73828,-0.65625 -0.73828,-0.984375 0,-0.679688 0.32813,-1.605469 0.64453,-2.460938 0.14063,-0.351562 0.21094,-0.515625 0.21094,-0.75 0,-0.503906 -0.36328,-0.960937 -0.94922,-0.960937 -1.10156,0 -1.53515,1.734375 -1.53515,1.828125 0,0.04687 0.0469,0.105469 0.1289,0.105469 0.10547,0 0.11719,-0.04687 0.16407,-0.210938 0.29296,-1.007812 0.73828,-1.476562 1.20703,-1.476562 0.10547,0 0.3164,0 0.3164,0.386718 0,0.316407 -0.14062,0.65625 -0.3164,1.113282 -0.58594,1.570312 -0.58594,1.957031 -0.58594,2.25 0,1.136718 0.80859,1.394531 1.40625,1.394531 0.35156,0 0.78516,-0.105469 1.19531,-0.550781 l 0.0117,0.01172 c -0.17578,0.703125 -0.29297,1.171875 -0.71484,1.757813 z m 0,0"
         style="fill:#000000;fill-opacity:1;fill-rule:nonzero;stroke:none" />
      <path
         id="path28"
         d="m 215.26117,42.721758 c 0.16406,0 0.375,0 0.375,-0.222656 0,-0.222657 -0.19922,-0.222657 -0.375,-0.222657 h -7.04297 c -0.17578,0 -0.38672,0 -0.38672,0.210938 0,0.234375 0.19922,0.234375 0.38672,0.234375 z m 0,2.214844 c 0.16406,0 0.375,0 0.375,-0.210938 0,-0.234375 -0.19922,-0.234375 -0.375,-0.234375 h -7.04297 c -0.17578,0 -0.38672,0 -0.38672,0.222656 0,0.222657 0.19922,0.222657 0.38672,0.222657 z m 10.03125,-5.765625 v -0.28125 h -2.88281 c -1.45313,0 -1.47656,-0.152344 -1.52344,-0.386719 h -0.25781 l -0.375,2.390625 h 0.26953 c 0.0352,-0.210938 0.14063,-0.949219 0.29297,-1.078125 0.0937,-0.07031 0.99609,-0.07031 1.16016,-0.07031 h 2.53125 l -1.26563,1.816407 c -0.31641,0.457031 -1.52344,2.425781 -1.52344,4.664062 0,0.140625 0,0.609375 0.48047,0.609375 0.50391,0 0.50391,-0.457031 0.50391,-0.621094 v -0.597656 c 0,-1.78125 0.29297,-3.164062 0.85547,-3.960937 z m 0,0"
         style="fill:#000000;fill-opacity:1;fill-rule:nonzero;stroke:none" />
      <path
         id="path29"
         d="m -50.851133,56.160234 c -0.375,0.07031 -0.515625,0.351563 -0.515625,0.585938 0,0.28125 0.222656,0.375 0.386719,0.375 0.363281,0 0.609375,-0.304688 0.609375,-0.632813 0,-0.492187 -0.574219,-0.726562 -1.078125,-0.726562 -0.726563,0 -1.125,0.714844 -1.242188,0.949219 -0.269531,-0.902344 -1.007812,-0.949219 -1.230468,-0.949219 -1.21875,0 -1.863282,1.570312 -1.863282,1.828125 0,0.04687 0.04687,0.105469 0.128907,0.105469 0.105468,0 0.128906,-0.07031 0.152343,-0.117188 0.398438,-1.324219 1.207032,-1.570312 1.546875,-1.570312 0.539063,0 0.644532,0.492187 0.644532,0.785156 0,0.257812 -0.07031,0.539062 -0.210938,1.113281 -0.1875,0.761719 -0.234375,0.9375 -0.410156,1.628906 -0.175781,0.726563 -0.527344,1.382813 -1.160156,1.382813 -0.05859,0 -0.351563,0 -0.609375,-0.152344 0.433593,-0.09375 0.527343,-0.445312 0.527343,-0.585937 0,-0.246094 -0.175781,-0.386719 -0.398437,-0.386719 -0.292969,0 -0.597656,0.246094 -0.597656,0.632812 0,0.503907 0.5625,0.726563 1.066406,0.726563 0.574219,0 0.984375,-0.457031 1.230469,-0.9375 0.199218,0.703125 0.796875,0.9375 1.230468,0.9375 1.230469,0 1.875,-1.558594 1.875,-1.828125 0,-0.05859 -0.04687,-0.105469 -0.128906,-0.105469 -0.105469,0 -0.117187,0.05859 -0.152344,0.152344 -0.316406,1.054687 -1.019531,1.546875 -1.546875,1.546875 -0.421875,0 -0.65625,-0.316406 -0.65625,-0.808594 0,-0.257812 0.05859,-0.445312 0.246094,-1.242187 0.140625,-0.550782 0.292969,-1.183594 0.421875,-1.617188 0.175781,-0.726562 0.585938,-1.242187 1.125,-1.242187 0.03516,0 0.363281,0 0.609375,0.152343 z m 0,0"
         style="fill:#000000;fill-opacity:1;fill-rule:nonzero;stroke:none" />
      <path
         id="path30"
         d="m -42.328672,58.269609 h 3.304688 c 0.164062,0 0.375,0 0.375,-0.210937 0,-0.222656 -0.199219,-0.222656 -0.375,-0.222656 h -3.304688 v -3.304688 c 0,-0.164062 0,-0.386719 -0.210937,-0.386719 -0.234375,0 -0.234375,0.210938 -0.234375,0.386719 v 3.304688 h -3.292969 c -0.175781,0 -0.386719,0 -0.386719,0.210937 0,0.222656 0.199219,0.222656 0.386719,0.222656 h 3.292969 v 3.304688 c 0,0.164062 0,0.386719 0.222656,0.386719 0.222656,0 0.222656,-0.210938 0.222656,-0.386719 z m 11.414063,-5.015625 c 0,-0.222656 0,-0.292968 -0.164063,-0.292968 -0.09375,0 -0.128906,0 -0.222656,0.152343 l -3.597656,5.578125 v 0.351563 h 3.140625 v 1.078125 c 0,0.445312 -0.02344,0.5625 -0.902344,0.5625 h -0.234375 v 0.351562 c 0.269531,-0.02344 1.21875,-0.02344 1.558594,-0.02344 0.328125,0 1.289062,0 1.558593,0.02344 v -0.351562 h -0.234375 c -0.867187,0 -0.902343,-0.117188 -0.902343,-0.5625 v -1.078125 h 1.207031 v -0.351563 h -1.207031 z m -0.785157,0.9375 v 4.5 h -2.90625 z m 0,0"
         style="fill:#000000;fill-opacity:1;fill-rule:nonzero;stroke:none" />
      <path
         id="path31"
         d="m -26.238828,62.371172 c -0.316406,0.457031 -0.785156,0.867187 -1.371094,0.867187 -0.140625,0 -0.714844,-0.02344 -0.902344,-0.574218 0.04687,0.01172 0.105469,0.01172 0.128907,0.01172 0.351562,0 0.597656,-0.316406 0.597656,-0.585937 0,-0.28125 -0.234375,-0.375 -0.410156,-0.375 -0.1875,0 -0.609375,0.140625 -0.609375,0.726562 0,0.609375 0.515625,1.03125 1.195312,1.03125 1.195313,0 2.402344,-1.101562 2.742188,-2.425781 l 1.171875,-4.664062 c 0.01172,-0.05859 0.03516,-0.128907 0.03516,-0.199219 0,-0.175781 -0.152344,-0.304688 -0.328125,-0.304688 -0.105469,0 -0.363281,0.04687 -0.457031,0.410157 l -0.878907,3.515625 c -0.05859,0.210937 -0.05859,0.234375 -0.152343,0.375 -0.246094,0.328125 -0.644532,0.738281 -1.207032,0.738281 -0.679687,0 -0.738281,-0.65625 -0.738281,-0.984375 0,-0.679688 0.328125,-1.605469 0.644531,-2.460938 0.140625,-0.351562 0.210938,-0.515625 0.210938,-0.75 0,-0.503906 -0.363281,-0.960937 -0.949219,-0.960937 -1.101562,0 -1.535156,1.734375 -1.535156,1.828125 0,0.04687 0.04687,0.105469 0.128906,0.105469 0.105469,0 0.117188,-0.04687 0.164063,-0.210938 0.292968,-1.007812 0.738281,-1.476562 1.207031,-1.476562 0.105469,0 0.316406,0 0.316406,0.386718 0,0.316407 -0.140625,0.65625 -0.316406,1.113282 -0.585938,1.570312 -0.585938,1.957031 -0.585938,2.25 0,1.136718 0.808594,1.394531 1.40625,1.394531 0.351563,0 0.785157,-0.105469 1.195313,-0.550781 l 0.01172,0.01172 c -0.175782,0.703125 -0.292969,1.171875 -0.714844,1.757813 z m 0,0"
         style="fill:#000000;fill-opacity:1;fill-rule:nonzero;stroke:none" />
      <path
         id="path32"
         d="m -12.583555,58.281328 c 0.175782,0 0.398438,0 0.398438,-0.234375 0,-0.234375 -0.222656,-0.234375 -0.398438,-0.234375 h -6.515625 c -0.164062,0 -0.386718,0 -0.386718,0.234375 0,0.234375 0.222656,0.234375 0.386718,0.234375 z m 0,0"
         style="fill:#000000;fill-opacity:1;fill-rule:nonzero;stroke:none" />
      <path
         id="path33"
         d="m -6.8882422,54.191484 c 0.5039063,0.164063 0.9257813,0.175782 1.0546875,0.175782 1.359375,0 2.2148438,-0.996094 2.2148438,-1.160157 0,-0.04687 -0.023437,-0.105468 -0.09375,-0.105468 -0.023437,0 -0.046875,0 -0.1523438,0.04687 -0.6679687,0.28125 -1.2421875,0.316406 -1.5585937,0.316406 -0.7851563,0 -1.3476563,-0.234375 -1.5820313,-0.328125 -0.082031,-0.03516 -0.1054687,-0.03516 -0.1171875,-0.03516 -0.09375,0 -0.09375,0.07031 -0.09375,0.257812 v 3.550781 c 0,0.210938 0,0.292969 0.140625,0.292969 0.058594,0 0.070312,-0.01172 0.1992188,-0.164062 0.328125,-0.492188 0.890625,-0.773438 1.4882812,-0.773438 0.6328125,0 0.9492188,0.585938 1.0429688,0.785156 0.1992187,0.46875 0.2109375,1.054688 0.2109375,1.511719 0,0.457031 0,1.136719 -0.328125,1.675781 -0.2695313,0.421875 -0.7382813,0.726563 -1.2539063,0.726563 -0.796875,0 -1.5703125,-0.539063 -1.78125,-1.40625 0.058594,0.02344 0.1289063,0.03516 0.1875,0.03516 0.1992188,0 0.5273438,-0.128906 0.5273438,-0.527344 0,-0.339843 -0.234375,-0.527343 -0.5273438,-0.527343 -0.2109375,0 -0.5273437,0.105468 -0.5273437,0.574218 0,1.007813 0.8085937,2.167969 2.1445312,2.167969 1.3476563,0 2.53125,-1.125 2.53125,-2.648437 0,-1.417969 -0.9609375,-2.601563 -2.2148437,-2.601563 -0.6796875,0 -1.2070313,0.292969 -1.5117188,0.632813 z m 7.76953126,-0.820312 c 0,-0.269531 0,-0.28125 -0.24609375,-0.28125 -0.28125,0.316406 -0.87890625,0.761719 -2.10937501,0.761719 v 0.351562 c 0.2695313,0 0.86718751,0 1.52343751,-0.316406 v 6.222656 c 0,0.433594 -0.03515625,0.574219 -1.07812501,0.574219 h -0.375 v 0.351562 c 0.3164063,-0.02344 1.47656251,-0.02344 1.87500001,-0.02344 0.3984375,0 1.54687499,0 1.86328129,0.02344 V 60.683672 H 1.9711328 c -1.05468749,0 -1.08984374,-0.140625 -1.08984374,-0.574219 z M 14.940859,57.168047 c 0.164063,0 0.375,0 0.375,-0.222656 0,-0.222657 -0.199218,-0.222657 -0.375,-0.222657 H 7.8978906 c -0.1757812,0 -0.3867187,0 -0.3867187,0.210938 0,0.234375 0.1992187,0.234375 0.3867187,0.234375 z m 0,2.214844 c 0.164063,0 0.375,0 0.375,-0.210938 0,-0.234375 -0.199218,-0.234375 -0.375,-0.234375 H 7.8978906 c -0.1757812,0 -0.3867187,0 -0.3867187,0.222656 0,0.222657 0.1992187,0.222657 0.3867187,0.222657 z m 9.966797,-2.167969 c 0,-0.996094 -0.05859,-1.96875 -0.492187,-2.871094 -0.492188,-0.996094 -1.347656,-1.253906 -1.933594,-1.253906 -0.691406,0 -1.546875,0.339844 -1.980469,1.335937 -0.339843,0.75 -0.457031,1.488282 -0.457031,2.789063 0,1.160156 0.08203,2.027344 0.515625,2.871094 0.457031,0.914062 1.289063,1.195312 1.910156,1.195312 1.042969,0 1.640625,-0.621094 1.980469,-1.3125 0.433594,-0.890625 0.457031,-2.0625 0.457031,-2.753906 z m -2.4375,3.832031 c -0.386718,0 -1.160156,-0.210937 -1.382812,-1.523437 -0.140625,-0.714844 -0.140625,-1.617188 -0.140625,-2.460938 0,-0.972656 0,-1.863281 0.199219,-2.566406 0.199218,-0.796875 0.808593,-1.171875 1.324218,-1.171875 0.457032,0 1.148438,0.28125 1.371094,1.300781 0.152344,0.679688 0.152344,1.628906 0.152344,2.4375 0,0.808594 0,1.710938 -0.128906,2.4375 -0.222657,1.324219 -0.972657,1.546875 -1.394532,1.546875 z m 0,0"
         style="fill:#000000;fill-opacity:1;fill-rule:nonzero;stroke:none" />
      <path
         id="path34"
         d="m -5.9741797,96.387773 c 0.023437,-0.07031 0.328125,-0.667968 0.7617188,-1.054687 0.3164062,-0.28125 0.7265625,-0.46875 1.1835937,-0.46875 0.4804688,0 0.6445313,0.351562 0.6445313,0.832031 0,0.07031 0,0.304688 -0.140625,0.867188 -0.1523438,0.621093 -0.1523438,0.667968 -0.2929688,1.230468 -0.09375,0.363282 -0.328125,1.253907 -0.3515625,1.382813 -0.046875,0.175781 -0.1171875,0.492187 -0.1171875,0.539062 0,0.164063 0.1289063,0.292972 0.3046875,0.292972 0.3632813,0 0.421875,-0.269534 0.5273438,-0.703128 0.234375,-0.890625 0.5390625,-2.132812 0.7265625,-2.859375 0.023437,-0.09375 0.6445312,-1.582031 1.95703121,-1.582031 0.48046875,0 0.64453125,0.351562 0.64453125,0.832031 0,0.667969 -0.46875,1.96875 -0.7265625,2.683594 -0.10546875,0.292969 -0.17578126,0.445312 -0.17578126,0.667969 0,0.527343 0.37500001,0.96094 0.94921876,0.96094 1.11328124,0 1.53515624,-1.757815 1.53515624,-1.828128 0,-0.05859 -0.058594,-0.105469 -0.1289062,-0.105469 -0.1054688,0 -0.1171875,0.03516 -0.1757813,0.234375 -0.26953124,0.960938 -0.71484374,1.464844 -1.19531249,1.464844 -0.1171875,0 -0.3046875,-0.01172 -0.3046875,-0.398437 0,-0.304688 0.140625,-0.691407 0.1875,-0.820313 0.2109375,-0.574219 0.75,-1.992187 0.75,-2.683594 0,-0.714843 -0.421875,-1.253906 -1.32421875,-1.253906 -0.79687496,0 -1.45312496,0.457031 -1.92187496,1.160156 -0.035156,-0.644531 -0.4335938,-1.160156 -1.3359375,-1.160156 -1.0546875,0 -1.6171875,0.75 -1.8398438,1.054688 -0.035156,-0.679688 -0.5273437,-1.054688 -1.0429687,-1.054688 -0.3515625,0 -0.6210938,0.164063 -0.8554688,0.621094 -0.2109375,0.433594 -0.375,1.160156 -0.375,1.207031 0,0.04687 0.046875,0.105469 0.1289063,0.105469 0.09375,0 0.1054687,-0.01172 0.1757812,-0.28125 0.1757813,-0.703125 0.4101563,-1.40625 0.890625,-1.40625 0.2695313,0 0.3632813,0.1875 0.3632813,0.539062 0,0.269532 -0.1171875,0.738282 -0.1992188,1.101563 -0.1054687,0.433594 -0.234375,0.867187 -0.3398437,1.289062 -0.046875,0.234375 -0.1757813,0.773438 -0.234375,0.984375 -0.082031,0.316407 -0.2109375,0.878907 -0.2109375,0.9375 0,0.164063 0.1289062,0.292972 0.3046875,0.292972 0.140625,0 0.3164062,-0.07032 0.4101562,-0.246097 0.023437,-0.05859 0.1289063,-0.480468 0.1875,-0.714843 0.082031,-0.363282 0.1757813,-0.726563 0.2578125,-1.078125 z m 0,0"
         style="fill:#000000;fill-opacity:1;fill-rule:nonzero;stroke:none" />
      <path
         id="path35"
         d="m 11.697695,97.137773 c 0.164063,0 0.398438,0 0.398438,-0.234375 0,-0.234375 -0.234375,-0.234375 -0.398438,-0.234375 H 6.6000391 c 0.1523437,-1.628906 1.5585937,-2.753906 3.1875,-2.753906 h 1.9101559 c 0.164063,0 0.398438,0 0.398438,-0.234375 0,-0.246094 -0.234375,-0.246094 -0.398438,-0.246094 H 9.7523828 c -1.9101562,0 -3.6328125,1.464844 -3.6328125,3.46875 0,1.980469 1.6992188,3.468752 3.6445313,3.468752 h 1.9335934 c 0.164063,0 0.398438,0 0.398438,-0.2461 0,-0.23437 -0.234375,-0.23437 -0.398438,-0.23437 H 9.7992578 c -1.6757812,0 -3.046875,-1.148438 -3.1992187,-2.753907 z m 0,0"
         style="fill:#000000;fill-opacity:1;fill-rule:nonzero;stroke:none" />
      <path
         id="path36"
         d="m 20.809023,92.544023 c 0.117188,-0.445312 0.164063,-0.46875 0.621094,-0.46875 h 0.867188 c 1.03125,0 1.792968,0.304688 1.792968,1.242188 0,0.609375 -0.316406,2.367187 -2.71875,2.367187 h -1.347656 z m 1.664063,3.28125 c 1.488281,-0.316406 2.648437,-1.277343 2.648437,-2.308593 0,-0.925782 -0.949218,-1.792969 -2.613281,-1.792969 h -3.234375 c -0.246094,0 -0.351562,0 -0.351562,0.234375 0,0.117187 0.08203,0.117187 0.316406,0.117187 0.714844,0 0.714844,0.09375 0.714844,0.222657 0,0.02344 0,0.09375 -0.04687,0.28125 l -1.617188,6.433593 c -0.105469,0.410157 -0.128906,0.527344 -0.949219,0.527344 -0.28125,0 -0.363281,0 -0.363281,0.234375 0,0.117188 0.128906,0.117188 0.164063,0.117188 0.222656,0 0.46875,-0.02344 0.691406,-0.02344 h 1.417969 c 0.210937,0 0.46875,0.02344 0.679687,0.02344 0.09375,0 0.222656,0 0.222656,-0.222657 0,-0.128906 -0.105468,-0.128906 -0.28125,-0.128906 -0.726562,0 -0.726562,-0.09375 -0.726562,-0.210937 0,-0.01172 0,-0.09375 0.02344,-0.1875 l 0.796875,-3.222657 h 1.429688 c 1.136719,0 1.359375,0.726563 1.359375,1.113282 0,0.1875 -0.128906,0.644531 -0.210938,0.960937 -0.128906,0.550781 -0.164062,0.679688 -0.164062,0.902344 0,0.855469 0.691406,1.242184 1.488281,1.242184 0.972656,0 1.394531,-1.18359 1.394531,-1.347653 0,-0.08203 -0.05859,-0.117187 -0.128906,-0.117187 -0.105469,0 -0.128906,0.07031 -0.152344,0.164062 -0.28125,0.855469 -0.773437,1.066406 -1.066406,1.066406 -0.304687,0 -0.492187,-0.128906 -0.492187,-0.667968 0,-0.292969 0.140625,-1.371094 0.152343,-1.441407 0.05859,-0.433593 0.05859,-0.480468 0.05859,-0.574218 0,-0.878907 -0.703125,-1.253907 -1.160156,-1.394532 z m 0,0"
         style="fill:#000000;fill-opacity:1;fill-rule:nonzero;stroke:none" />
      <path
         id="path37"
         d="m -35.440977,117.99422 -1.652343,0.1289 v 0.35157 c 0.808593,0 0.902343,0.082 0.902343,0.66797 v 6.26953 c 0,0.52734 -0.128906,0.52734 -0.902343,0.52734 v 0.35156 c 0.328125,-0.0234 0.914062,-0.0234 1.277343,-0.0234 0.351563,0 0.949219,0 1.289063,0.0234 v -0.35156 c -0.761719,0 -0.914063,0 -0.914063,-0.52734 z m 6.685547,5.74219 c 0,-1.54688 -1.171875,-2.77735 -2.554687,-2.77735 -1.429688,0 -2.566406,1.26563 -2.566406,2.77735 0,1.52343 1.195312,2.67187 2.554687,2.67187 1.40625,0 2.566406,-1.17187 2.566406,-2.67187 z m -2.554687,2.41406 c -0.445313,0 -0.984375,-0.19922 -1.324219,-0.78516 -0.328125,-0.52734 -0.339844,-1.24219 -0.339844,-1.73437 0,-0.45703 0,-1.1836 0.375,-1.72266 0.328125,-0.51562 0.855469,-0.71484 1.277344,-0.71484 0.46875,0 0.972656,0.22265 1.289063,0.6914 0.375,0.55078 0.375,1.30078 0.375,1.7461 0,0.41015 0,1.14843 -0.316407,1.71093 -0.328125,0.57422 -0.878906,0.8086 -1.335937,0.8086 z m 4.344726,-2.02735 c 0.5625,0.375 1.042969,0.375 1.171875,0.375 1.078125,0 1.875,-0.80859 1.875,-1.73437 0,-0.31641 -0.09375,-0.77344 -0.46875,-1.16016 0.457032,-0.48047 1.019532,-0.48047 1.089844,-0.48047 0.04687,0 0.105469,0 0.152344,0.0234 -0.117188,0.0469 -0.1875,0.17578 -0.1875,0.30469 0,0.16406 0.128906,0.30469 0.316406,0.30469 0.09375,0 0.316406,-0.0586 0.316406,-0.31641 0,-0.21094 -0.175781,-0.55078 -0.585937,-0.55078 -0.632813,0 -1.089844,0.38672 -1.265625,0.5625 -0.351563,-0.28125 -0.773438,-0.43359 -1.230469,-0.43359 -1.066406,0 -1.875,0.82031 -1.875,1.73437 0,0.67969 0.421875,1.125 0.539063,1.23047 -0.140625,0.17578 -0.351563,0.52734 -0.351563,0.99609 0,0.69141 0.410156,0.98438 0.503906,1.05469 -0.550781,0.15234 -1.089843,0.58594 -1.089843,1.20703 0,0.82031 1.113281,1.5 2.589843,1.5 1.417969,0 2.601563,-0.63281 2.601563,-1.52344 0,-0.30468 -0.08203,-1.00781 -0.796875,-1.38281 -0.609375,-0.30469 -1.207031,-0.30469 -2.238281,-0.30469 -0.726563,0 -0.808594,0 -1.03125,-0.23437 -0.117188,-0.11719 -0.222657,-0.33984 -0.222657,-0.59766 0,-0.19922 0.07031,-0.39843 0.1875,-0.57422 z m 1.183594,0.12891 c -1.042969,0 -1.042969,-1.20703 -1.042969,-1.48828 0,-0.21094 0,-0.70313 0.199219,-1.03125 0.222656,-0.33984 0.585938,-0.45703 0.832031,-0.45703 1.054688,0 1.054688,1.20703 1.054688,1.47656 0,0.21094 0,0.70313 -0.199219,1.03125 -0.234375,0.33984 -0.585937,0.46875 -0.84375,0.46875 z m 0.328125,4.24219 c -1.148437,0 -2.015625,-0.58594 -2.015625,-1.26563 0,-0.10547 0.02344,-0.5625 0.46875,-0.8789 0.269531,-0.16407 0.375,-0.16407 1.207031,-0.16407 0.996094,0 2.34375,0 2.34375,1.04297 0,0.70313 -0.902343,1.26563 -2.003906,1.26563 z m 0,0"
         style="fill:#000000;fill-opacity:1;fill-rule:nonzero;stroke:none" />
      <path
         id="path38"
         d="m -20.121641,127.48641 c 0.128907,-0.11719 0.457032,-0.375 0.585938,-0.49219 0.492187,-0.45703 0.960937,-0.89063 0.960937,-1.61719 0,-0.94922 -0.796875,-1.55859 -1.792968,-1.55859 -0.949219,0 -1.582032,0.72656 -1.582032,1.42968 0,0.39844 0.316407,0.44532 0.421875,0.44532 0.164063,0 0.410157,-0.11719 0.410157,-0.42188 0,-0.41015 -0.398438,-0.41015 -0.492188,-0.41015 0.234375,-0.58594 0.773438,-0.78516 1.160156,-0.78516 0.738282,0 1.125,0.63281 1.125,1.30078 0,0.83203 -0.585937,1.42969 -1.523437,2.40234 l -1.007813,1.03125 c -0.09375,0.0937 -0.09375,0.10547 -0.09375,0.30469 h 3.152344 l 0.222656,-1.42969 h -0.246093 c -0.02344,0.16407 -0.08203,0.5625 -0.175782,0.71485 -0.04687,0.0586 -0.65625,0.0586 -0.785156,0.0586 h -1.417969 z m 0,0"
         style="fill:#000000;fill-opacity:1;fill-rule:nonzero;stroke:none" />
      <path
         id="path39"
         d="m -13.74957,129.19734 c 0,-0.0351 0,-0.0586 -0.210938,-0.26953 -1.195312,-1.20703 -1.863281,-3.17578 -1.863281,-5.61328 0,-2.32031 0.5625,-4.3125 1.945312,-5.73047 0.128907,-0.10547 0.128907,-0.1289 0.128907,-0.16406 0,-0.0703 -0.07031,-0.0937 -0.117188,-0.0937 -0.152344,0 -1.136719,0.85547 -1.722656,2.02734 -0.609375,1.20703 -0.878906,2.4961 -0.878906,3.96094 0,1.06641 0.164062,2.48438 0.785156,3.76172 0.703125,1.44141 1.6875,2.21484 1.816406,2.21484 0.04687,0 0.117188,-0.0234 0.117188,-0.0937 z m 0,0"
         style="fill:#000000;fill-opacity:1;fill-rule:nonzero;stroke:none" />
      <path
         id="path40"
         d="m -7.4273047,121.41609 c -0.375,0.0703 -0.515625,0.35157 -0.515625,0.58594 0,0.28125 0.2226563,0.375 0.3867188,0.375 0.3632812,0 0.609375,-0.30469 0.609375,-0.63281 0,-0.49219 -0.5742188,-0.72656 -1.078125,-0.72656 -0.7265625,0 -1.125,0.71484 -1.2421875,0.94921 -0.2695313,-0.90234 -1.0078126,-0.94921 -1.2304686,-0.94921 -1.21875,0 -1.863281,1.57031 -1.863281,1.82812 0,0.0469 0.04687,0.10547 0.128906,0.10547 0.105469,0 0.128906,-0.0703 0.152344,-0.11719 0.398437,-1.32422 1.207031,-1.57031 1.546875,-1.57031 0.5390621,0 0.6445308,0.49219 0.6445308,0.78516 0,0.25781 -0.070312,0.53906 -0.2109378,1.11328 -0.1875,0.76172 -0.234375,0.9375 -0.410156,1.6289 -0.175781,0.72657 -0.527344,1.38282 -1.160156,1.38282 -0.05859,0 -0.351563,0 -0.609375,-0.15235 0.433594,-0.0937 0.527344,-0.44531 0.527344,-0.58594 0,-0.24609 -0.175782,-0.38671 -0.398438,-0.38671 -0.292969,0 -0.597656,0.24609 -0.597656,0.63281 0,0.5039 0.5625,0.72656 1.066406,0.72656 0.574219,0 0.984375,-0.45703 1.230469,-0.9375 0.199219,0.70313 0.7968748,0.9375 1.2304686,0.9375 1.2304687,0 1.875,-1.55859 1.875,-1.82812 0,-0.0586 -0.046875,-0.10547 -0.1289063,-0.10547 -0.1054687,0 -0.1171875,0.0586 -0.1523437,0.15234 -0.3164063,1.05469 -1.0195313,1.54688 -1.546875,1.54688 -0.421875,0 -0.65625,-0.31641 -0.65625,-0.8086 0,-0.25781 0.058594,-0.44531 0.2460937,-1.24219 0.140625,-0.55078 0.2929688,-1.18359 0.421875,-1.61718 0.1757813,-0.72657 0.5859375,-1.24219 1.125,-1.24219 0.035156,0 0.3632813,0 0.609375,0.15234 z m 0,0"
         style="fill:#000000;fill-opacity:1;fill-rule:nonzero;stroke:none" />
      <path
         id="path41"
         d="M 0.9896875,123.52547 H 4.294375 c 0.1640625,0 0.375,0 0.375,-0.21094 0,-0.22266 -0.1992187,-0.22266 -0.375,-0.22266 H 0.9896875 v -3.30468 c 0,-0.16407 0,-0.38672 -0.2109375,-0.38672 -0.234375,0 -0.234375,0.21094 -0.234375,0.38672 v 3.30468 h -3.2929687 c -0.1757813,0 -0.3867188,0 -0.3867188,0.21094 0,0.22266 0.1992188,0.22266 0.3867188,0.22266 H 0.544375 v 3.30469 c 0,0.16406 0,0.38671 0.22265625,0.38671 0.22265625,0 0.22265625,-0.21093 0.22265625,-0.38671 z m 9.1992185,-1.52344 c -0.2109372,0.0117 -0.2578122,0.0234 -0.2578122,0.12891 0,0.11718 0.058594,0.11718 0.2812502,0.11718 h 0.550781 c 1.007813,0 1.464844,0.84375 1.464844,1.99219 0,1.5586 -0.808594,1.98047 -1.394531,1.98047 -0.574219,0 -1.5585942,-0.28125 -1.898438,-1.06641 0.375,0.0586 0.7265625,-0.15234 0.7265625,-0.58593 0,-0.33985 -0.2578125,-0.58594 -0.5859375,-0.58594 -0.2929687,0 -0.5976562,0.16406 -0.5976562,0.62109 0,1.06641 1.0664062,1.9336 2.3906252,1.9336 1.417969,0 2.472656,-1.07813 2.472656,-2.28516 0,-1.10156 -0.890625,-1.96875 -2.027344,-2.16797 1.03125,-0.30469 1.699219,-1.17187 1.699219,-2.10937 0,-0.9375 -0.972656,-1.62891 -2.132812,-1.62891 -1.195313,0 -2.085938,0.72656 -2.085938,1.59375 0,0.48047 0.375,0.57422 0.5507813,0.57422 0.2578125,0 0.5390625,-0.17578 0.5390625,-0.53906 0,-0.375 -0.28125,-0.53907 -0.5507813,-0.53907 -0.070312,0 -0.09375,0 -0.1289062,0.0117 0.4570312,-0.82031 1.5820317,-0.82031 1.6406247,-0.82031 0.386719,0 1.171875,0.17578 1.171875,1.34766 0,0.23437 -0.03516,0.90234 -0.386718,1.41797 -0.351563,0.52734 -0.761719,0.5625 -1.089844,0.57421 z m 7.016602,1.3125 c 0,-0.91406 -0.128906,-2.39062 -0.796875,-3.77344 -0.703125,-1.4414 -1.675781,-2.21484 -1.816406,-2.21484 -0.04687,0 -0.105469,0.0234 -0.105469,0.0937 0,0.0352 0,0.0586 0.199219,0.26953 1.195312,1.20703 1.875,3.17578 1.875,5.61328 0,2.32031 -0.5625,4.3125 -1.957032,5.73047 -0.117187,0.10547 -0.117187,0.12891 -0.117187,0.16406 0,0.0703 0.05859,0.0937 0.105469,0.0937 0.164062,0 1.136718,-0.85547 1.722656,-2.02734 0.609375,-1.21875 0.890625,-2.51953 0.890625,-3.94922 z m 0,0"
         style="fill:#000000;fill-opacity:1;fill-rule:nonzero;stroke:none" />
      <path
         id="path42"
         d="m 28.941836,123.53719 c 0.175781,0 0.398437,0 0.398437,-0.23438 0,-0.23437 -0.222656,-0.23437 -0.398437,-0.23437 h -6.515625 c -0.164063,0 -0.386719,0 -0.386719,0.23437 0,0.23438 0.222656,0.23438 0.386719,0.23438 z m 0,0"
         style="fill:#000000;fill-opacity:1;fill-rule:nonzero;stroke:none" />
      <path
         id="path43"
         d="m 38.261172,124.28719 h -0.269531 c -0.03516,0.19922 -0.128907,0.85547 -0.246094,1.04297 -0.08203,0.11718 -0.761719,0.11718 -1.125,0.11718 h -2.214844 c 0.328125,-0.28125 1.054688,-1.04297 1.371094,-1.33593 1.816406,-1.66407 2.484375,-2.28516 2.484375,-3.46875 0,-1.38282 -1.089844,-2.29688 -2.472656,-2.29688 -1.394532,0 -2.203125,1.18359 -2.203125,2.20313 0,0.60937 0.527343,0.60937 0.5625,0.60937 0.246093,0 0.5625,-0.17578 0.5625,-0.5625 0,-0.32812 -0.234375,-0.55078 -0.5625,-0.55078 -0.105469,0 -0.128907,0 -0.164063,0.0117 0.222656,-0.82031 0.867188,-1.3711 1.640625,-1.3711 1.019531,0 1.640625,0.85547 1.640625,1.95704 0,1.00781 -0.585937,1.89843 -1.265625,2.66015 l -2.414062,2.70703 v 0.28125 h 4.359375 z m 4.631836,-6.29297 -1.652344,0.1289 v 0.35157 c 0.808594,0 0.902344,0.082 0.902344,0.66797 v 6.26953 c 0,0.52734 -0.128906,0.52734 -0.902344,0.52734 v 0.35156 c 0.328125,-0.0234 0.914063,-0.0234 1.277344,-0.0234 0.351562,0 0.949219,0 1.289062,0.0234 v -0.35156 c -0.761718,0 -0.914062,0 -0.914062,-0.52734 z m 6.685547,5.74219 c 0,-1.54688 -1.171875,-2.77735 -2.554688,-2.77735 -1.429687,0 -2.566406,1.26563 -2.566406,2.77735 0,1.52343 1.195312,2.67187 2.554687,2.67187 1.40625,0 2.566407,-1.17187 2.566407,-2.67187 z m -2.554688,2.41406 c -0.445312,0 -0.984375,-0.19922 -1.324219,-0.78516 -0.328125,-0.52734 -0.339843,-1.24219 -0.339843,-1.73437 0,-0.45703 0,-1.1836 0.375,-1.72266 0.328125,-0.51562 0.855468,-0.71484 1.277343,-0.71484 0.46875,0 0.972657,0.22265 1.289063,0.6914 0.375,0.55078 0.375,1.30078 0.375,1.7461 0,0.41015 0,1.14843 -0.316406,1.71093 -0.328125,0.57422 -0.878907,0.8086 -1.335938,0.8086 z m 4.347656,-2.02735 c 0.5625,0.375 1.042969,0.375 1.171875,0.375 1.078125,0 1.875,-0.80859 1.875,-1.73437 0,-0.31641 -0.09375,-0.77344 -0.46875,-1.16016 0.457032,-0.48047 1.019532,-0.48047 1.089844,-0.48047 0.04687,0 0.105469,0 0.152344,0.0234 -0.117188,0.0469 -0.1875,0.17578 -0.1875,0.30469 0,0.16406 0.128906,0.30469 0.316406,0.30469 0.09375,0 0.316406,-0.0586 0.316406,-0.31641 0,-0.21094 -0.175781,-0.55078 -0.585937,-0.55078 -0.632813,0 -1.089844,0.38672 -1.265625,0.5625 -0.351563,-0.28125 -0.773438,-0.43359 -1.230469,-0.43359 -1.066406,0 -1.875,0.82031 -1.875,1.73437 0,0.67969 0.421875,1.125 0.539063,1.23047 -0.140625,0.17578 -0.351563,0.52734 -0.351563,0.99609 0,0.69141 0.410156,0.98438 0.503906,1.05469 -0.550781,0.15234 -1.089843,0.58594 -1.089843,1.20703 0,0.82031 1.113281,1.5 2.589843,1.5 1.417969,0 2.601563,-0.63281 2.601563,-1.52344 0,-0.30468 -0.08203,-1.00781 -0.796875,-1.38281 -0.609375,-0.30469 -1.207031,-0.30469 -2.238281,-0.30469 -0.726563,0 -0.808594,0 -1.03125,-0.23437 -0.117188,-0.11719 -0.222657,-0.33984 -0.222657,-0.59766 0,-0.19922 0.07031,-0.39843 0.1875,-0.57422 z m 1.183594,0.12891 c -1.042969,0 -1.042969,-1.20703 -1.042969,-1.48828 0,-0.21094 0,-0.70313 0.199219,-1.03125 0.222656,-0.33984 0.585938,-0.45703 0.832031,-0.45703 1.054688,0 1.054688,1.20703 1.054688,1.47656 0,0.21094 0,0.70313 -0.199219,1.03125 -0.234375,0.33984 -0.585937,0.46875 -0.84375,0.46875 z m 0.328125,4.24219 c -1.148437,0 -2.015625,-0.58594 -2.015625,-1.26563 0,-0.10547 0.02344,-0.5625 0.46875,-0.8789 0.269531,-0.16407 0.375,-0.16407 1.207031,-0.16407 0.996094,0 2.34375,0 2.34375,1.04297 0,0.70313 -0.902343,1.26563 -2.003906,1.26563 z m 0,0"
         style="fill:#000000;fill-opacity:1;fill-rule:nonzero;stroke:none" />
      <path
         id="path44"
         d="m 59.105898,123.95906 c 0,-0.16406 0,-0.22265 -0.164062,-0.22265 -0.105469,0 -0.117188,0.0117 -0.199219,0.11718 l -2.542969,3.69141 v 0.25781 h 2.25 v 0.66797 c 0,0.29297 -0.02344,0.38672 -0.632812,0.38672 h -0.1875 v 0.25781 c 0.679687,-0.0234 0.691406,-0.0234 1.148437,-0.0234 0.457032,0 0.46875,0 1.148438,0.0234 v -0.25781 h -0.1875 c -0.609375,0 -0.632813,-0.0937 -0.632813,-0.38672 v -0.66797 h 0.84375 V 127.545 h -0.84375 z m -0.597656,0.64453 v 2.94141 h -2.027344 z m 0,0"
         style="fill:#000000;fill-opacity:1;fill-rule:nonzero;stroke:none" />
      <path
         id="path45"
         d="m 68.349063,121.41609 c -0.375,0.0703 -0.515625,0.35157 -0.515625,0.58594 0,0.28125 0.222656,0.375 0.386718,0.375 0.363282,0 0.609375,-0.30469 0.609375,-0.63281 0,-0.49219 -0.574218,-0.72656 -1.078125,-0.72656 -0.726562,0 -1.125,0.71484 -1.242187,0.94921 -0.269531,-0.90234 -1.007813,-0.94921 -1.230469,-0.94921 -1.21875,0 -1.863281,1.57031 -1.863281,1.82812 0,0.0469 0.04687,0.10547 0.128906,0.10547 0.105469,0 0.128906,-0.0703 0.152344,-0.11719 0.398437,-1.32422 1.207031,-1.57031 1.546875,-1.57031 0.539062,0 0.644531,0.49219 0.644531,0.78516 0,0.25781 -0.07031,0.53906 -0.210937,1.11328 -0.1875,0.76172 -0.234375,0.9375 -0.410157,1.6289 -0.175781,0.72657 -0.527343,1.38282 -1.160156,1.38282 -0.05859,0 -0.351562,0 -0.609375,-0.15235 0.433594,-0.0937 0.527344,-0.44531 0.527344,-0.58594 0,-0.24609 -0.175781,-0.38671 -0.398438,-0.38671 -0.292968,0 -0.597656,0.24609 -0.597656,0.63281 0,0.5039 0.5625,0.72656 1.066406,0.72656 0.574219,0 0.984375,-0.45703 1.230469,-0.9375 0.199219,0.70313 0.796875,0.9375 1.230469,0.9375 1.230469,0 1.875,-1.55859 1.875,-1.82812 0,-0.0586 -0.04687,-0.10547 -0.128906,-0.10547 -0.105469,0 -0.117188,0.0586 -0.152344,0.15234 -0.316406,1.05469 -1.019531,1.54688 -1.546875,1.54688 -0.421875,0 -0.65625,-0.31641 -0.65625,-0.8086 0,-0.25781 0.05859,-0.44531 0.246094,-1.24219 0.140625,-0.55078 0.292968,-1.18359 0.421875,-1.61718 0.175781,-0.72657 0.585937,-1.24219 1.125,-1.24219 0.03516,0 0.363281,0 0.609375,0.15234 z m 0,0"
         style="fill:#000000;fill-opacity:1;fill-rule:nonzero;stroke:none" />
      <path
         id="path46"
         d="m 80.735781,122.42391 c 0.164063,0 0.375,0 0.375,-0.22266 0,-0.22266 -0.199218,-0.22266 -0.375,-0.22266 h -7.042968 c -0.175782,0 -0.386719,0 -0.386719,0.21094 0,0.23438 0.199219,0.23438 0.386719,0.23438 z m 0,2.21484 c 0.164063,0 0.375,0 0.375,-0.21094 0,-0.23437 -0.199218,-0.23437 -0.375,-0.23437 h -7.042968 c -0.175782,0 -0.386719,0 -0.386719,0.22265 0,0.22266 0.199219,0.22266 0.386719,0.22266 z m 0,0"
         style="fill:#000000;fill-opacity:1;fill-rule:nonzero;stroke:none" />
      <path
         id="path47"
         d="m 87.550234,122.78719 c 0.02344,-0.0703 0.328125,-0.66797 0.761719,-1.05469 0.316406,-0.28125 0.726563,-0.46875 1.183594,-0.46875 0.480469,0 0.644531,0.35156 0.644531,0.83203 0,0.0703 0,0.30469 -0.140625,0.86719 -0.152344,0.62109 -0.152344,0.66797 -0.292969,1.23047 -0.09375,0.36328 -0.328125,1.2539 -0.351562,1.38281 -0.04687,0.17578 -0.117188,0.49219 -0.117188,0.53906 0,0.16406 0.128907,0.29297 0.304688,0.29297 0.363281,0 0.421875,-0.26953 0.527344,-0.70312 0.234375,-0.89063 0.539062,-2.13282 0.726562,-2.85938 0.02344,-0.0937 0.644531,-1.58203 1.957031,-1.58203 0.480469,0 0.644532,0.35156 0.644532,0.83203 0,0.66797 -0.46875,1.96875 -0.726563,2.68359 -0.105469,0.29297 -0.175781,0.44532 -0.175781,0.66797 0,0.52735 0.375,0.96094 0.949219,0.96094 1.113281,0 1.535156,-1.75781 1.535156,-1.82812 0,-0.0586 -0.05859,-0.10547 -0.128906,-0.10547 -0.105469,0 -0.117188,0.0352 -0.175782,0.23437 -0.269531,0.96094 -0.714843,1.46485 -1.195312,1.46485 -0.117188,0 -0.304688,-0.0117 -0.304688,-0.39844 0,-0.30469 0.140625,-0.69141 0.1875,-0.82031 0.210938,-0.57422 0.75,-1.99219 0.75,-2.6836 0,-0.71484 -0.421875,-1.2539 -1.324218,-1.2539 -0.796875,0 -1.453125,0.45703 -1.921875,1.16015 -0.03516,-0.64453 -0.433594,-1.16015 -1.335938,-1.16015 -1.054687,0 -1.617187,0.75 -1.839844,1.05468 -0.03516,-0.67968 -0.527343,-1.05468 -1.042968,-1.05468 -0.351563,0 -0.621094,0.16406 -0.855469,0.62109 -0.210938,0.43359 -0.375,1.16016 -0.375,1.20703 0,0.0469 0.04687,0.10547 0.128906,0.10547 0.09375,0 0.105469,-0.0117 0.175781,-0.28125 0.175782,-0.70313 0.410157,-1.40625 0.890625,-1.40625 0.269532,0 0.363282,0.1875 0.363282,0.53906 0,0.26953 -0.117188,0.73828 -0.199219,1.10156 -0.105469,0.4336 -0.234375,0.86719 -0.339844,1.28907 -0.04687,0.23437 -0.175781,0.77343 -0.234375,0.98437 -0.08203,0.31641 -0.210937,0.87891 -0.210937,0.9375 0,0.16406 0.128906,0.29297 0.304687,0.29297 0.140625,0 0.316406,-0.0703 0.410156,-0.24609 0.02344,-0.0586 0.128907,-0.48047 0.1875,-0.71485 0.08203,-0.36328 0.175782,-0.72656 0.257813,-1.07812 z m 0,0"
         style="fill:#000000;fill-opacity:1;fill-rule:nonzero;stroke:none" />
      <path
         id="path48"
         d="m 61.018984,144.18562 c 0.05859,-0.14062 0.05859,-0.21093 0.05859,-0.22265 0,-0.12891 -0.117187,-0.23438 -0.246094,-0.23438 -0.152343,0 -0.199218,0.10547 -0.246093,0.23438 l -2.109375,5.53125 c -0.05859,0.14062 -0.05859,0.19922 -0.05859,0.21094 0,0.0117 0,0.0703 0.05859,0.21093 l 2.097656,5.50782 c 0.05859,0.14062 0.09375,0.25781 0.257812,0.25781 0.128907,0 0.246094,-0.10547 0.246094,-0.23438 0,-0.0117 0,-0.082 -0.05859,-0.22265 l -2.109375,-5.51953 z m 0,0"
         style="fill:#000000;fill-opacity:1;fill-rule:nonzero;stroke:none" />
      <path
         id="path49"
         d="m 63.957461,148.40437 c -0.210938,0.0117 -0.257813,0.0234 -0.257813,0.12891 0,0.11719 0.05859,0.11719 0.28125,0.11719 h 0.550782 c 1.007812,0 1.464843,0.84375 1.464843,1.99219 0,1.55859 -0.808593,1.98046 -1.394531,1.98046 -0.574219,0 -1.558594,-0.28125 -1.898437,-1.0664 0.375,0.0586 0.726562,-0.15235 0.726562,-0.58594 0,-0.33984 -0.257812,-0.58594 -0.585937,-0.58594 -0.292969,0 -0.597657,0.16407 -0.597657,0.6211 0,1.0664 1.066407,1.93359 2.390625,1.93359 1.417969,0 2.472657,-1.07812 2.472657,-2.28516 0,-1.10156 -0.890625,-1.96875 -2.027344,-2.16796 1.03125,-0.30469 1.699219,-1.17188 1.699219,-2.10938 0,-0.9375 -0.972657,-1.62891 -2.132813,-1.62891 -1.195312,0 -2.085937,0.72657 -2.085937,1.59375 0,0.48047 0.375,0.57422 0.550781,0.57422 0.257812,0 0.539062,-0.17578 0.539062,-0.53906 0,-0.375 -0.28125,-0.53906 -0.550781,-0.53906 -0.07031,0 -0.09375,0 -0.128906,0.0117 0.457031,-0.82032 1.582031,-0.82032 1.640625,-0.82032 0.386719,0 1.171875,0.17579 1.171875,1.34766 0,0.23438 -0.03516,0.90234 -0.386719,1.41797 -0.351562,0.52734 -0.761719,0.5625 -1.089844,0.57422 z m 5.856445,-0.29296 c 0,-0.31641 -0.28125,-0.57422 -0.574218,-0.57422 -0.351563,0 -0.585938,0.28125 -0.585938,0.57422 0,0.36328 0.292969,0.58593 0.574219,0.58593 0.316406,0 0.585937,-0.24609 0.585937,-0.58593 z m -0.210937,4.46484 c 0,0.42187 0,1.26562 -0.726563,2.15625 -0.07031,0.10547 -0.07031,0.12891 -0.07031,0.15234 0,0.0586 0.05859,0.11719 0.117187,0.11719 0.08203,0 0.925782,-0.89062 0.925782,-2.28516 0,-0.44531 -0.03516,-1.18359 -0.621094,-1.18359 -0.351563,0 -0.574219,0.25781 -0.574219,0.57422 0,0.32812 0.222656,0.58594 0.585938,0.58594 0.222656,0 0.304687,-0.0703 0.363281,-0.11719 z m 7.555664,-7.66406 c 0,-0.22266 0,-0.29297 -0.164063,-0.29297 -0.09375,0 -0.128906,0 -0.222656,0.15234 l -3.597656,5.57813 v 0.35156 h 3.140625 v 1.07812 c 0,0.44532 -0.02344,0.5625 -0.902344,0.5625 h -0.234375 v 0.35157 c 0.269531,-0.0234 1.21875,-0.0234 1.558594,-0.0234 0.328125,0 1.289062,0 1.558594,0.0234 v -0.35157 h -0.234375 c -0.867188,0 -0.902344,-0.11718 -0.902344,-0.5625 v -1.07812 h 1.207031 v -0.35156 h -1.207031 z m -0.785156,0.9375 v 4.5 h -2.90625 z m 5.707031,3.86718 c 0,-0.91406 -0.128906,-2.39062 -0.796875,-3.77343 -0.703125,-1.44141 -1.675781,-2.21485 -1.816406,-2.21485 -0.04687,0 -0.105469,0.0234 -0.105469,0.0937 0,0.0352 0,0.0586 0.199219,0.26953 1.195312,1.20704 1.875,3.17579 1.875,5.61329 0,2.32031 -0.5625,4.3125 -1.957032,5.73046 -0.117187,0.10547 -0.117187,0.12891 -0.117187,0.16407 0,0.0703 0.05859,0.0937 0.105469,0.0937 0.164062,0 1.136718,-0.85547 1.722656,-2.02735 0.609375,-1.21875 0.890625,-2.51953 0.890625,-3.94922 z m 0,0"
         style="fill:#000000;fill-opacity:1;fill-rule:nonzero;stroke:none" />
      <path
         id="path50"
         d="m 50.46332,239.97176 c -0.375,0.0703 -0.515625,0.35156 -0.515625,0.58594 0,0.28125 0.222657,0.375 0.386719,0.375 0.363281,0 0.609375,-0.30469 0.609375,-0.63282 0,-0.49218 -0.574219,-0.72656 -1.078125,-0.72656 -0.726562,0 -1.125,0.71484 -1.242187,0.94922 -0.269532,-0.90234 -1.007813,-0.94922 -1.230469,-0.94922 -1.21875,0 -1.863281,1.57031 -1.863281,1.82813 0,0.0469 0.04687,0.10546 0.128906,0.10546 0.105469,0 0.128906,-0.0703 0.152344,-0.11718 0.398437,-1.32422 1.207031,-1.57032 1.546875,-1.57032 0.539062,0 0.644531,0.49219 0.644531,0.78516 0,0.25781 -0.07031,0.53906 -0.210938,1.11328 -0.1875,0.76172 -0.234375,0.9375 -0.410156,1.62891 -0.175781,0.72656 -0.527344,1.38281 -1.160156,1.38281 -0.05859,0 -0.351563,0 -0.609375,-0.15234 0.433594,-0.0937 0.527344,-0.44532 0.527344,-0.58594 0,-0.24609 -0.175782,-0.38672 -0.398438,-0.38672 -0.292969,0 -0.597656,0.24609 -0.597656,0.63281 0,0.50391 0.5625,0.72657 1.066406,0.72657 0.574219,0 0.984375,-0.45704 1.230469,-0.9375 0.199219,0.70312 0.796875,0.9375 1.230469,0.9375 1.230468,0 1.875,-1.5586 1.875,-1.82813 0,-0.0586 -0.04687,-0.10547 -0.128907,-0.10547 -0.105468,0 -0.117187,0.0586 -0.152343,0.15235 -0.316407,1.05468 -1.019532,1.54687 -1.546875,1.54687 -0.421875,0 -0.65625,-0.31641 -0.65625,-0.80859 0,-0.25782 0.05859,-0.44532 0.246093,-1.24219 0.140625,-0.55078 0.292969,-1.18359 0.421875,-1.61719 0.175782,-0.72656 0.585938,-1.24219 1.125,-1.24219 0.03516,0 0.363282,0 0.609375,0.15235 z m 0,0"
         style="fill:#000000;fill-opacity:1;fill-rule:nonzero;stroke:none" />
      <path
         id="path51"
         d="m 124.4643,254.41805 c -0.375,0.0703 -0.51563,0.35156 -0.51563,0.58593 0,0.28125 0.22266,0.375 0.38672,0.375 0.36328,0 0.60938,-0.30468 0.60938,-0.63281 0,-0.49219 -0.57422,-0.72656 -1.07813,-0.72656 -0.72656,0 -1.125,0.71484 -1.24219,0.94922 -0.26953,-0.90235 -1.00781,-0.94922 -1.23047,-0.94922 -1.21875,0 -1.86328,1.57031 -1.86328,1.82812 0,0.0469 0.0469,0.10547 0.12891,0.10547 0.10547,0 0.12891,-0.0703 0.15234,-0.11718 0.39844,-1.32422 1.20703,-1.57032 1.54688,-1.57032 0.53906,0 0.64453,0.49219 0.64453,0.78516 0,0.25781 -0.0703,0.53906 -0.21094,1.11328 -0.1875,0.76172 -0.23437,0.9375 -0.41015,1.62891 -0.17579,0.72656 -0.52735,1.38281 -1.16016,1.38281 -0.0586,0 -0.35156,0 -0.60938,-0.15234 0.4336,-0.0937 0.52735,-0.44532 0.52735,-0.58594 0,-0.2461 -0.17578,-0.38672 -0.39844,-0.38672 -0.29297,0 -0.59766,0.24609 -0.59766,0.63281 0,0.50391 0.5625,0.72656 1.06641,0.72656 0.57422,0 0.98438,-0.45703 1.23047,-0.9375 0.19922,0.70313 0.79687,0.9375 1.23047,0.9375 1.23047,0 1.875,-1.55859 1.875,-1.82812 0,-0.0586 -0.0469,-0.10547 -0.12891,-0.10547 -0.10547,0 -0.11719,0.0586 -0.15234,0.15234 -0.31641,1.05469 -1.01953,1.54688 -1.54688,1.54688 -0.42187,0 -0.65625,-0.31641 -0.65625,-0.80859 0,-0.25782 0.0586,-0.44532 0.2461,-1.24219 0.14062,-0.55078 0.29297,-1.1836 0.42187,-1.61719 0.17578,-0.72656 0.58594,-1.24219 1.125,-1.24219 0.0352,0 0.36328,0 0.60938,0.15235 z m 0,0"
         style="fill:#000000;fill-opacity:1;fill-rule:nonzero;stroke:none" />
    </g>
  </g>
</svg>
