<?xml version="1.0" encoding="UTF-8" standalone="no"?>
<!-- Created with Inkscape (http://www.inkscape.org/) -->

<svg
   version="1.1"
   id="svg1"
   width="794.55066"
   height="1123.6533"
   viewBox="0 0 794.55066 1123.6533"
   sodipodi:docname="LigaMatematycznaMatuskiego_Liceum_Zestaw2_2011_2012_page0.pdf"
   xmlns:inkscape="http://www.inkscape.org/namespaces/inkscape"
   xmlns:sodipodi="http://sodipodi.sourceforge.net/DTD/sodipodi-0.dtd"
   xmlns="http://www.w3.org/2000/svg"
   xmlns:svg="http://www.w3.org/2000/svg">
  <defs
     id="defs1" />
  <sodipodi:namedview
     id="namedview1"
     pagecolor="#ffffff"
     bordercolor="#000000"
     borderopacity="0.25"
     inkscape:showpageshadow="2"
     inkscape:pageopacity="0.0"
     inkscape:pagecheckerboard="0"
     inkscape:deskcolor="#d1d1d1">
    <inkscape:page
       x="0"
       y="0"
       inkscape:label="1"
       id="page1"
       width="794.55066"
       height="1123.6533"
       margin="0"
       bleed="0" />
  </sodipodi:namedview>
  <g
     id="g1"
     inkscape:groupmode="layer"
     inkscape:label="1">
    <g
       id="g2"
       aria-label="LIGAMATEMATYCZNA&#10;LISTOPAD2011&#10;SZKOAPONADGIMNAZJALNA&#10;ZADANIE1.&#10;Przek¡tnetrapezuABCD,gdzieABiCDs¡równolegªe,przecinaj¡si¦wpunkcieE.Pole&#10;trójk¡taABEjestrówneP,apoletrójk¡taDECjestrówneS.Obliczpoletrapezu.&#10;ZADANIE2.&#10;Oblicz&#10;√"
       transform="matrix(1.3333333,0,0,1.3333333,274.724,56.069333)">
      <path
         id="path2"
         d="m -47.497102,103.50952 c -0.410156,0.70313 -0.820312,0.9375 -1.394531,0.97266 -0.128906,0.0117 -0.222656,0.0117 -0.222656,0.23437 0,0.0703 0.05859,0.11719 0.140625,0.11719 0.210937,0 0.75,-0.0234 0.972656,-0.0234 0.339844,0 0.726563,0.0234 1.054688,0.0234 0.07031,0 0.222656,0 0.222656,-0.22265 0,-0.11719 -0.09375,-0.12891 -0.175781,-0.12891 -0.269532,-0.0234 -0.492188,-0.11719 -0.492188,-0.39844 0,-0.17578 0.07031,-0.30469 0.222656,-0.5625 l 0.902344,-1.51172 h 3.058594 c 0.01172,0.10547 0.01172,0.21094 0.02344,0.31641 0.03516,0.30469 0.175782,1.54687 0.175782,1.78125 0,0.35156 -0.609375,0.375 -0.796875,0.375 -0.140625,0 -0.269532,0 -0.269532,0.22266 0,0.1289 0.105469,0.1289 0.175782,0.1289 0.210937,0 0.445312,-0.0234 0.65625,-0.0234 h 0.679687 c 0.726563,0 1.253906,0.0234 1.265625,0.0234 0.08203,0 0.210938,0 0.210938,-0.22265 0,-0.12891 -0.105469,-0.12891 -0.28125,-0.12891 -0.65625,0 -0.667969,-0.10547 -0.714844,-0.45703 l -0.726563,-7.464845 c -0.02344,-0.234375 -0.07031,-0.257813 -0.199218,-0.257813 -0.117188,0 -0.1875,0.02344 -0.304688,0.199219 z m 1.441407,-1.83984 2.402343,-4.019532 0.410157,4.019532 z m 9.679687,-4.183594 c 0.117188,-0.445313 0.164063,-0.46875 0.621094,-0.46875 h 1.558594 c 1.347656,0 1.347656,1.148437 1.347656,1.253906 0,0.972656 -0.960938,2.203128 -2.542969,2.203128 h -1.722656 z m 2.027344,3.082034 c 1.300781,-0.2461 2.484375,-1.14844 2.484375,-2.250003 0,-0.925781 -0.832031,-1.652344 -2.179688,-1.652344 h -3.832031 c -0.234375,0 -0.339844,0 -0.339844,0.234375 0,0.117188 0.105469,0.117188 0.292969,0.117188 0.726563,0 0.726563,0.09375 0.726563,0.222656 0,0.02344 0,0.09375 -0.04687,0.28125 l -1.617188,6.433598 c -0.105469,0.41015 -0.128906,0.52734 -0.960937,0.52734 -0.234375,0 -0.351563,0 -0.351563,0.22266 0,0.1289 0.07031,0.1289 0.304688,0.1289 h 4.101562 c 1.828125,0 3.246094,-1.38281 3.246094,-2.58984 0,-0.98438 -0.867188,-1.58203 -1.828125,-1.67578 z m -1.699219,3.91406 h -1.617187 c -0.164063,0 -0.1875,0 -0.257813,-0.0117 -0.128906,-0.0117 -0.152344,-0.0352 -0.152344,-0.12891 0,-0.082 0.03516,-0.15234 0.05859,-0.25781 l 0.832031,-3.375 h 2.25 c 1.40625,0 1.40625,1.3125 1.40625,1.40625 0,1.14844 -1.042968,2.36719 -2.519531,2.36719 z m 13.719727,-7.957032 c 0,-0.105468 -0.08203,-0.105468 -0.105469,-0.105468 -0.02344,0 -0.07031,0 -0.175781,0.117187 l -0.820313,1.007813 c -0.421875,-0.714844 -1.078125,-1.125 -1.96875,-1.125 -2.589843,0 -5.261718,2.613281 -5.261718,5.42578 0,1.99219 1.394531,3.23438 3.140625,3.23438 0.960937,0 1.792968,-0.39844 2.484375,-0.98438 1.042968,-0.87891 1.359375,-2.03906 1.359375,-2.13281 0,-0.10547 -0.09375,-0.10547 -0.140625,-0.10547 -0.105469,0 -0.117188,0.0703 -0.140625,0.11719 -0.550782,1.86328 -2.15625,2.76562 -3.351563,2.76562 -1.277344,0 -2.367187,-0.82031 -2.367187,-2.50781 0,-0.38672 0.117187,-2.460938 1.464843,-4.03125 0.65625,-0.761719 1.78125,-1.441407 2.917969,-1.441407 1.3125,0 1.898438,1.089844 1.898438,2.308594 0,0.316406 -0.03516,0.574219 -0.03516,0.621094 0,0.117187 0.117188,0.117187 0.152344,0.117187 0.140625,0 0.152344,-0.01172 0.199219,-0.234375 z m 2.182617,7.429692 c -0.105469,0.41015 -0.128906,0.52734 -0.960938,0.52734 -0.234375,0 -0.351562,0 -0.351562,0.22266 0,0.1289 0.07031,0.1289 0.304687,0.1289 h 3.796875 c 2.414063,0 4.769532,-2.49609 4.769532,-5.167967 0,-1.722656 -1.03125,-3 -2.742188,-3 h -3.832031 c -0.234375,0 -0.339844,0 -0.339844,0.234375 0,0.117188 0.105469,0.117188 0.292969,0.117188 0.726562,0 0.726562,0.09375 0.726562,0.222656 0,0.02344 0,0.09375 -0.04687,0.28125 z m 2.519531,-6.468754 c 0.117188,-0.445313 0.164063,-0.46875 0.621094,-0.46875 h 1.324219 c 1.113281,0 2.144531,0.609375 2.144531,2.261719 0,0.597656 -0.234375,2.671875 -1.394531,3.984375 -0.339844,0.39844 -1.242188,1.21875 -2.625,1.21875 h -1.359375 c -0.164063,0 -0.1875,0 -0.257813,-0.0117 -0.128906,-0.0117 -0.140625,-0.0352 -0.140625,-0.12891 0,-0.082 0.02344,-0.15234 0.04687,-0.25781 z m 0,0"
         style="fill:#000000;fill-opacity:1;fill-rule:nonzero;stroke:none" />
      <path
         id="path3"
         d="m 28.976531,103.50952 c -0.410156,0.70313 -0.820312,0.9375 -1.394531,0.97266 -0.128906,0.0117 -0.222656,0.0117 -0.222656,0.23437 0,0.0703 0.05859,0.11719 0.140625,0.11719 0.210937,0 0.75,-0.0234 0.972656,-0.0234 0.339844,0 0.726563,0.0234 1.054688,0.0234 0.07031,0 0.222656,0 0.222656,-0.22265 0,-0.11719 -0.09375,-0.12891 -0.175781,-0.12891 -0.269532,-0.0234 -0.492188,-0.11719 -0.492188,-0.39844 0,-0.17578 0.07031,-0.30469 0.222656,-0.5625 L 30.207,102.00952 h 3.058594 c 0.01172,0.10547 0.01172,0.21094 0.02344,0.31641 0.03516,0.30469 0.175782,1.54687 0.175782,1.78125 0,0.35156 -0.609375,0.375 -0.796875,0.375 -0.140625,0 -0.269532,0 -0.269532,0.22266 0,0.1289 0.105469,0.1289 0.175782,0.1289 0.210937,0 0.445312,-0.0234 0.65625,-0.0234 h 0.679687 c 0.726563,0 1.253906,0.0234 1.265625,0.0234 0.08203,0 0.210938,0 0.210938,-0.22265 0,-0.12891 -0.105469,-0.12891 -0.28125,-0.12891 -0.65625,0 -0.667969,-0.10547 -0.714844,-0.45703 l -0.726563,-7.464845 c -0.02344,-0.234375 -0.07031,-0.257813 -0.199218,-0.257813 -0.117188,0 -0.1875,0.02344 -0.304688,0.199219 z m 1.441407,-1.83984 2.402343,-4.019532 0.410157,4.019532 z m 9.676757,-4.183594 c 0.117188,-0.445313 0.164063,-0.46875 0.621094,-0.46875 h 1.558594 c 1.347656,0 1.347656,1.148437 1.347656,1.253906 0,0.972656 -0.960937,2.203128 -2.542969,2.203128 h -1.722656 z m 2.027344,3.082034 c 1.300781,-0.2461 2.484375,-1.14844 2.484375,-2.250003 0,-0.925781 -0.832031,-1.652344 -2.179687,-1.652344 h -3.832032 c -0.234375,0 -0.339843,0 -0.339843,0.234375 0,0.117188 0.105468,0.117188 0.292968,0.117188 0.726563,0 0.726563,0.09375 0.726563,0.222656 0,0.02344 0,0.09375 -0.04687,0.28125 l -1.617188,6.433598 c -0.105468,0.41015 -0.128906,0.52734 -0.960937,0.52734 -0.234375,0 -0.351563,0 -0.351563,0.22266 0,0.1289 0.07031,0.1289 0.304688,0.1289 h 4.101562 c 1.828125,0 3.246094,-1.38281 3.246094,-2.58984 0,-0.98438 -0.867187,-1.58203 -1.828125,-1.67578 z m -1.699219,3.91406 h -1.617187 c -0.164063,0 -0.1875,0 -0.257813,-0.0117 -0.128906,-0.0117 -0.152343,-0.0352 -0.152343,-0.12891 0,-0.082 0.03516,-0.15234 0.05859,-0.25781 l 0.832032,-3.375 h 2.25 c 1.40625,0 1.40625,1.3125 1.40625,1.40625 0,1.14844 -1.042969,2.36719 -2.519532,2.36719 z m 0,0"
         style="fill:#000000;fill-opacity:1;fill-rule:nonzero;stroke:none" />
      <path
         id="path4"
         d="m 66.86032,96.525148 c 0,-0.105468 -0.08203,-0.105468 -0.105468,-0.105468 -0.02344,0 -0.07031,0 -0.175782,0.117187 l -0.820312,1.007813 c -0.421875,-0.714844 -1.078125,-1.125 -1.96875,-1.125 -2.589844,0 -5.261719,2.613281 -5.261719,5.42578 0,1.99219 1.394531,3.23438 3.140625,3.23438 0.960938,0 1.792969,-0.39844 2.484375,-0.98438 1.042969,-0.87891 1.359375,-2.03906 1.359375,-2.13281 0,-0.10547 -0.09375,-0.10547 -0.140625,-0.10547 -0.105469,0 -0.117187,0.0703 -0.140625,0.11719 -0.550781,1.86328 -2.15625,2.76562 -3.351562,2.76562 -1.277344,0 -2.367188,-0.82031 -2.367188,-2.50781 0,-0.38672 0.117188,-2.460938 1.464844,-4.03125 0.65625,-0.761719 1.78125,-1.441407 2.917969,-1.441407 1.3125,0 1.898437,1.089844 1.898437,2.308594 0,0.316406 -0.03516,0.574219 -0.03516,0.621094 0,0.117187 0.117187,0.117187 0.152344,0.117187 0.140625,0 0.152343,-0.01172 0.199218,-0.234375 z m 2.179688,7.429692 c -0.105469,0.41015 -0.128906,0.52734 -0.960938,0.52734 -0.234375,0 -0.351562,0 -0.351562,0.22266 0,0.1289 0.07031,0.1289 0.304687,0.1289 h 3.796875 c 2.414063,0 4.769532,-2.49609 4.769532,-5.167967 0,-1.722656 -1.03125,-3 -2.742188,-3 h -3.832031 c -0.234375,0 -0.339844,0 -0.339844,0.234375 0,0.117188 0.105469,0.117188 0.292969,0.117188 0.726562,0 0.726562,0.09375 0.726562,0.222656 0,0.02344 0,0.09375 -0.04687,0.28125 z m 2.519531,-6.468754 c 0.117188,-0.445313 0.164063,-0.46875 0.621094,-0.46875 h 1.324219 c 1.113281,0 2.144531,0.609375 2.144531,2.261719 0,0.597656 -0.234375,2.671875 -1.394531,3.984375 -0.339844,0.39844 -1.242188,1.21875 -2.625,1.21875 h -1.359375 c -0.164063,0 -0.1875,0 -0.257813,-0.0117 -0.128906,-0.0117 -0.140625,-0.0352 -0.140625,-0.12891 0,-0.082 0.02344,-0.15234 0.04687,-0.25781 z m 0,0"
         style="fill:#000000;fill-opacity:1;fill-rule:nonzero;stroke:none" />
      <path
         id="path5"
         d="m 299.73825,102.0564 c 0.0117,-0.0352 0.0469,-0.11719 0.0469,-0.16406 0,-0.0586 -0.0469,-0.11719 -0.11719,-0.11719 -0.0469,0 -0.0703,0.0117 -0.10547,0.0469 -0.0234,0.0117 -0.0234,0.0352 -0.14063,0.26953 -0.70312,1.67579 -1.21875,2.39063 -3.1289,2.39063 h -1.7461 c -0.16406,0 -0.1875,0 -0.25781,-0.0117 -0.1289,-0.0117 -0.14062,-0.0352 -0.14062,-0.12891 0,-0.082 0.0234,-0.15234 0.0469,-0.25781 l 0.82031,-3.30469 h 1.1836 c 0.9375,0 1.00781,0.21094 1.00781,0.5625 0,0.11719 0,0.23438 -0.082,0.58594 -0.0352,0.0469 -0.0469,0.0937 -0.0469,0.12891 0,0.082 0.0703,0.1289 0.14063,0.1289 0.10547,0 0.11719,-0.0937 0.16406,-0.25781 l 0.67969,-2.777342 c 0,-0.05859 -0.0469,-0.117187 -0.11719,-0.117187 -0.10547,0 -0.11719,0.04687 -0.16406,0.222656 -0.24609,0.914063 -0.48047,1.183593 -1.54688,1.183593 h -1.13671 l 0.73828,-2.941405 c 0.11718,-0.421875 0.14062,-0.457032 0.62109,-0.457032 h 1.71094 c 1.47656,0 1.76953,0.398438 1.76953,1.300782 0,0.01172 0,0.351562 -0.0469,0.738281 -0.0117,0.04687 -0.0234,0.128906 -0.0234,0.152344 0,0.09375 0.0586,0.128906 0.1289,0.128906 0.082,0 0.14063,-0.04687 0.16407,-0.269531 l 0.24609,-2.085938 c 0,-0.03516 0.0234,-0.152344 0.0234,-0.175781 0,-0.140625 -0.10547,-0.140625 -0.31641,-0.140625 h -5.83594 c -0.23437,0 -0.35156,0 -0.35156,0.222656 0,0.128906 0.082,0.128906 0.29297,0.128906 0.73828,0 0.73828,0.08203 0.73828,0.210938 0,0.05859 -0.0117,0.105469 -0.0469,0.246094 l -1.61719,6.457035 c -0.10547,0.41015 -0.12891,0.52734 -0.96094,0.52734 -0.23437,0 -0.35156,0 -0.35156,0.22266 0,0.1289 0.0703,0.1289 0.30469,0.1289 h 6 c 0.26953,0 0.28125,-0.0117 0.36328,-0.19922 z m 0,0"
         style="fill:#000000;fill-opacity:1;fill-rule:nonzero;stroke:none" />
      <path
         id="path6"
         d="m -101.32718,120.84448 c -0.41016,0.70313 -0.82031,0.9375 -1.39453,0.97266 -0.12891,0.0117 -0.22266,0.0117 -0.22266,0.23438 0,0.0703 0.0586,0.11718 0.14063,0.11718 0.21094,0 0.75,-0.0234 0.97265,-0.0234 0.33985,0 0.72657,0.0234 1.05469,0.0234 0.0703,0 0.22266,0 0.22266,-0.22265 0,-0.11719 -0.0937,-0.12891 -0.17578,-0.12891 -0.26953,-0.0234 -0.49219,-0.11719 -0.49219,-0.39844 0,-0.17578 0.0703,-0.30468 0.22266,-0.5625 l 0.90234,-1.51172 h 3.058593 c 0.01172,0.10547 0.01172,0.21094 0.02344,0.31641 0.03516,0.30469 0.175782,1.54688 0.175782,1.78125 0,0.35156 -0.609375,0.375 -0.796875,0.375 -0.140625,0 -0.269532,0 -0.269532,0.22266 0,0.1289 0.105469,0.1289 0.175782,0.1289 0.210937,0 0.445312,-0.0234 0.65625,-0.0234 h 0.679687 c 0.726563,0 1.253906,0.0234 1.265625,0.0234 0.08203,0 0.210938,0 0.210938,-0.22265 0,-0.12891 -0.105469,-0.12891 -0.28125,-0.12891 -0.65625,0 -0.667969,-0.10547 -0.714844,-0.45703 l -0.726563,-7.46484 c -0.02344,-0.23438 -0.07031,-0.25782 -0.199218,-0.25782 -0.117188,0 -0.1875,0.0234 -0.304688,0.19922 z m 1.441407,-1.83984 2.402343,-4.01953 0.410157,4.01953 z m 9.676757,-4.18359 c 0.117188,-0.44532 0.164063,-0.46875 0.621094,-0.46875 h 1.558594 c 1.347656,0 1.347656,1.14843 1.347656,1.2539 0,0.97266 -0.960937,2.20313 -2.542969,2.20313 h -1.722656 z m 2.027344,3.08203 c 1.300781,-0.2461 2.484375,-1.14844 2.484375,-2.25 0,-0.92578 -0.832031,-1.65235 -2.179687,-1.65235 h -3.832032 c -0.234375,0 -0.339843,0 -0.339843,0.23438 0,0.11719 0.105468,0.11719 0.292968,0.11719 0.726563,0 0.726563,0.0937 0.726563,0.22265 0,0.0234 0,0.0937 -0.04687,0.28125 l -1.617188,6.4336 c -0.105468,0.41015 -0.128906,0.52734 -0.960937,0.52734 -0.234375,0 -0.351563,0 -0.351563,0.22266 0,0.1289 0.07031,0.1289 0.304688,0.1289 h 4.101562 c 1.828125,0 3.246094,-1.38281 3.246094,-2.58984 0,-0.98438 -0.867187,-1.58203 -1.828125,-1.67578 z m -1.699219,3.91406 h -1.617187 c -0.164063,0 -0.1875,0 -0.257813,-0.0117 -0.128906,-0.0117 -0.152343,-0.0352 -0.152343,-0.1289 0,-0.082 0.03516,-0.15235 0.05859,-0.25782 l 0.832032,-3.375 h 2.25 c 1.40625,0 1.40625,1.3125 1.40625,1.40625 0,1.14844 -1.042969,2.36719 -2.519532,2.36719 z m 13.101563,-2.42578 c 0.01172,-0.0352 0.04687,-0.11719 0.04687,-0.16406 0,-0.0586 -0.04687,-0.11719 -0.117188,-0.11719 -0.04687,0 -0.07031,0.0117 -0.105468,0.0469 -0.02344,0.0117 -0.02344,0.0352 -0.140625,0.26954 -0.703125,1.67578 -1.21875,2.39062 -3.128907,2.39062 h -1.746093 c -0.164063,0 -0.1875,0 -0.257813,-0.0117 -0.128906,-0.0117 -0.140625,-0.0352 -0.140625,-0.1289 0,-0.082 0.02344,-0.15235 0.04687,-0.25782 l 0.820313,-3.30468 h 1.183593 c 0.9375,0 1.007813,0.21093 1.007813,0.5625 0,0.11718 0,0.23437 -0.08203,0.58593 -0.03516,0.0469 -0.04687,0.0937 -0.04687,0.12891 0,0.082 0.07031,0.12891 0.140625,0.12891 0.105468,0 0.117187,-0.0937 0.164062,-0.25782 l 0.679688,-2.77734 c 0,-0.0586 -0.04687,-0.11719 -0.117188,-0.11719 -0.105469,0 -0.117187,0.0469 -0.164062,0.22266 -0.246094,0.91406 -0.480469,1.18359 -1.546875,1.18359 h -1.136719 l 0.738281,-2.9414 c 0.117188,-0.42188 0.140625,-0.45704 0.621094,-0.45704 h 1.710937 c 1.476563,0 1.769532,0.39844 1.769532,1.30079 0,0.0117 0,0.35156 -0.04687,0.73828 -0.01172,0.0469 -0.02344,0.1289 -0.02344,0.15234 0,0.0937 0.05859,0.12891 0.128906,0.12891 0.08203,0 0.140625,-0.0469 0.164063,-0.26953 l 0.246094,-2.08594 c 0,-0.0352 0.02344,-0.15235 0.02344,-0.17578 0,-0.14063 -0.105469,-0.14063 -0.316406,-0.14063 h -5.835938 c -0.234375,0 -0.351562,0 -0.351562,0.22266 0,0.1289 0.08203,0.1289 0.292969,0.1289 0.738281,0 0.738281,0.082 0.738281,0.21094 0,0.0586 -0.01172,0.10547 -0.04687,0.2461 l -1.617188,6.45703 c -0.105468,0.41015 -0.128906,0.52734 -0.960937,0.52734 -0.234375,0 -0.351563,0 -0.351563,0.22266 0,0.1289 0.07031,0.1289 0.304688,0.1289 h 6 c 0.269531,0 0.28125,-0.0117 0.363281,-0.19922 z m 0,0"
         style="fill:#000000;fill-opacity:1;fill-rule:nonzero;stroke:none" />
      <path
         id="path7"
         d="m -12.293977,118.37183 h 2.003907 c 1.6523434,0 3.3046872,-1.21875 3.3046872,-2.58985 0,-0.92578 -0.796875,-1.78125 -2.296875,-1.78125 h -3.6914062 c -0.234375,0 -0.339844,0 -0.339844,0.23438 0,0.11719 0.105469,0.11719 0.292969,0.11719 0.726562,0 0.726562,0.0937 0.726562,0.22265 0,0.0234 0,0.0937 -0.04687,0.28125 l -1.617187,6.4336 c -0.105469,0.41015 -0.128906,0.52734 -0.960938,0.52734 -0.234375,0 -0.351562,0 -0.351562,0.22266 0,0.1289 0.105469,0.1289 0.175781,0.1289 0.234375,0 0.46875,-0.0234 0.691406,-0.0234 h 1.40625 c 0.222657,0 0.480469,0.0234 0.703125,0.0234 0.09375,0 0.222657,0 0.222657,-0.22265 0,-0.12891 -0.105469,-0.12891 -0.28125,-0.12891 -0.714844,0 -0.726563,-0.082 -0.726563,-0.19922 0,-0.0586 0.01172,-0.14062 0.02344,-0.19922 z m 0.855469,-3.55078 c 0.117188,-0.44532 0.164063,-0.46875 0.621094,-0.46875 h 1.1835937 c 0.9023437,0 1.640625,0.28125 1.640625,1.18359 0,0.30469 -0.1523438,1.32422 -0.703125,1.875 -0.1992188,0.21094 -0.7734375,0.66797 -1.8632817,0.66797 h -1.6875 z m 0,0"
         style="fill:#000000;fill-opacity:1;fill-rule:nonzero;stroke:none" />
      <path
         id="path8"
         d="m 82.009734,121.2898 c -0.105468,0.41015 -0.128906,0.52734 -0.960937,0.52734 -0.234375,0 -0.351563,0 -0.351563,0.22266 0,0.1289 0.07031,0.1289 0.304688,0.1289 h 3.796875 c 2.414062,0 4.769531,-2.49609 4.769531,-5.16797 0,-1.72265 -1.03125,-3 -2.742187,-3 h -3.832032 c -0.234375,0 -0.339843,0 -0.339843,0.23438 0,0.11719 0.105468,0.11719 0.292968,0.11719 0.726563,0 0.726563,0.0937 0.726563,0.22265 0,0.0234 0,0.0937 -0.04687,0.28125 z m 2.519532,-6.46875 c 0.117187,-0.44532 0.164062,-0.46875 0.621093,-0.46875 h 1.324219 c 1.113281,0 2.144531,0.60937 2.144531,2.26172 0,0.59765 -0.234375,2.67187 -1.394531,3.98437 -0.339844,0.39844 -1.242187,1.21875 -2.625,1.21875 h -1.359375 c -0.164062,0 -0.1875,0 -0.257812,-0.0117 -0.128907,-0.0117 -0.140625,-0.0352 -0.140625,-0.1289 0,-0.082 0.02344,-0.15235 0.04687,-0.25782 z m 13.957031,4.57031 c 0.01172,-0.0352 0.04687,-0.11719 0.04687,-0.16406 0,-0.0586 -0.04687,-0.11719 -0.117188,-0.11719 -0.04687,0 -0.07031,0.0117 -0.105468,0.0469 -0.02344,0.0117 -0.02344,0.0352 -0.140625,0.26954 -0.703125,1.67578 -1.21875,2.39062 -3.128907,2.39062 h -1.746093 c -0.164063,0 -0.1875,0 -0.257813,-0.0117 -0.128906,-0.0117 -0.140625,-0.0352 -0.140625,-0.1289 0,-0.082 0.02344,-0.15235 0.04687,-0.25782 l 0.820313,-3.30468 h 1.183593 c 0.9375,0 1.007813,0.21093 1.007813,0.5625 0,0.11718 0,0.23437 -0.08203,0.58593 -0.03516,0.0469 -0.04687,0.0937 -0.04687,0.12891 0,0.082 0.07031,0.12891 0.140625,0.12891 0.105468,0 0.117187,-0.0937 0.164062,-0.25782 l 0.679688,-2.77734 c 0,-0.0586 -0.04687,-0.11719 -0.117188,-0.11719 -0.105469,0 -0.117187,0.0469 -0.164062,0.22266 -0.246094,0.91406 -0.480469,1.18359 -1.546875,1.18359 h -1.136719 l 0.738281,-2.9414 c 0.117188,-0.42188 0.140625,-0.45704 0.621094,-0.45704 h 1.710937 c 1.476563,0 1.769532,0.39844 1.769532,1.30079 0,0.0117 0,0.35156 -0.04687,0.73828 -0.01172,0.0469 -0.02344,0.1289 -0.02344,0.15234 0,0.0937 0.05859,0.12891 0.128906,0.12891 0.08203,0 0.140625,-0.0469 0.164063,-0.26953 l 0.246094,-2.08594 c 0,-0.0352 0.02344,-0.15235 0.02344,-0.17578 0,-0.14063 -0.105469,-0.14063 -0.316406,-0.14063 h -5.835938 c -0.234375,0 -0.351562,0 -0.351562,0.22266 0,0.1289 0.08203,0.1289 0.292969,0.1289 0.738281,0 0.738281,0.082 0.738281,0.21094 0,0.0586 -0.01172,0.10547 -0.04687,0.2461 l -1.617188,6.45703 c -0.105468,0.41015 -0.128906,0.52734 -0.960937,0.52734 -0.234375,0 -0.351563,0 -0.351563,0.22266 0,0.1289 0.07031,0.1289 0.304688,0.1289 h 6 c 0.269531,0 0.28125,-0.0117 0.363281,-0.19922 z m 9.993163,-5.53125 c 0,-0.10547 -0.082,-0.10547 -0.10547,-0.10547 -0.0234,0 -0.0703,0 -0.17578,0.11719 l -0.82031,1.00781 c -0.42188,-0.71484 -1.07813,-1.125 -1.96875,-1.125 -2.58985,0 -5.26172,2.61328 -5.26172,5.42578 0,1.99219 1.39453,3.23438 3.14062,3.23438 0.96094,0 1.79297,-0.39844 2.48438,-0.98438 1.04297,-0.8789 1.35937,-2.03906 1.35937,-2.13281 0,-0.10547 -0.0937,-0.10547 -0.14062,-0.10547 -0.10547,0 -0.11719,0.0703 -0.14063,0.11719 -0.55078,1.86328 -2.15625,2.76562 -3.35156,2.76562 -1.27734,0 -2.36719,-0.82031 -2.36719,-2.50781 0,-0.38672 0.11719,-2.46094 1.46485,-4.03125 0.65625,-0.76172 1.78125,-1.44141 2.91797,-1.44141 1.3125,0 1.89843,1.08985 1.89843,2.3086 0,0.3164 -0.0352,0.57422 -0.0352,0.62109 0,0.11719 0.11719,0.11719 0.15234,0.11719 0.14063,0 0.15235,-0.0117 0.19922,-0.23438 z m 0,0"
         style="fill:#000000;fill-opacity:1;fill-rule:nonzero;stroke:none" />
      <path
         id="path9"
         d="m 176.25485,113.86011 c 0,-0.10547 -0.082,-0.10547 -0.10547,-0.10547 -0.0586,0 -0.0703,0.0117 -0.21093,0.1875 -0.0703,0.082 -0.5625,0.70313 -0.57422,0.71484 -0.38672,-0.77343 -1.1836,-0.90234 -1.6875,-0.90234 -1.51172,0 -2.88282,1.38281 -2.88282,2.73047 0,0.90234 0.52735,1.42969 1.11329,1.62891 0.14062,0.0469 0.84375,0.24609 1.19531,0.32812 0.60937,0.16406 0.77344,0.21094 1.01953,0.48047 0.0469,0.0586 0.29297,0.32812 0.29297,0.89062 0,1.11329 -1.03125,2.26172 -2.22656,2.26172 -0.98438,0 -2.07422,-0.42187 -2.07422,-1.75781 0,-0.22266 0.0586,-0.51562 0.0937,-0.63281 0,-0.0352 0.0117,-0.0937 0.0117,-0.11719 0,-0.0469 -0.0234,-0.11719 -0.12891,-0.11719 -0.10547,0 -0.11719,0.0234 -0.16406,0.23438 l -0.60938,2.44922 c 0,0.0117 -0.0469,0.16406 -0.0469,0.17578 0,0.10547 0.0937,0.10547 0.11718,0.10547 0.0469,0 0.0586,-0.0117 0.21094,-0.1875 l 0.53906,-0.71485 c 0.29297,0.4336 0.91407,0.90235 2.02735,0.90235 1.53515,0 2.95312,-1.48828 2.95312,-2.98828 0,-0.49219 -0.11718,-0.9375 -0.57422,-1.38282 -0.25781,-0.24609 -0.46875,-0.30468 -1.57031,-0.59765 -0.79687,-0.21094 -0.90234,-0.2461 -1.125,-0.44532 -0.19922,-0.19921 -0.35156,-0.48046 -0.35156,-0.89062 0,-1.00781 1.00781,-2.03906 2.14453,-2.03906 1.17188,0 1.72266,0.72656 1.72266,1.86328 0,0.30469 -0.0586,0.63281 -0.0586,0.67969 0,0.10546 0.0937,0.10546 0.12891,0.10546 0.11719,0 0.12891,-0.0352 0.17578,-0.23437 z m 0,0"
         style="fill:#000000;fill-opacity:1;fill-rule:nonzero;stroke:none" />
      <path
         id="path10"
         d="m -107.15433,171.3523 -2.10937,-4.65235 c -0.082,-0.1875 -0.14063,-0.1875 -0.17578,-0.1875 -0.0117,0 -0.0703,0 -0.19922,0.0937 l -1.13672,0.86719 c -0.16406,0.11719 -0.16406,0.15234 -0.16406,0.1875 0,0.0586 0.0469,0.12891 0.1289,0.12891 0.0703,0 0.26953,-0.16407 0.39844,-0.25782 0.0703,-0.0586 0.25781,-0.19921 0.38672,-0.29296 l 2.35547,5.17968 c 0.082,0.1875 0.14062,0.1875 0.24609,0.1875 0.1875,0 0.22266,-0.0703 0.30469,-0.23437 l 5.42578,-11.23828 c 0.082,-0.16407 0.082,-0.21094 0.082,-0.23438 0,-0.1289 -0.0937,-0.24609 -0.23437,-0.24609 -0.0937,0 -0.1875,0.0586 -0.28125,0.25781 z m 0,0"
         style="fill:#000000;fill-opacity:1;fill-rule:nonzero;stroke:none" />
    </g>
    <path
       id="path11"
       d="M 0,0 H 150.047"
       style="fill:none;stroke:#000000;stroke-width:0.478;stroke-linecap:butt;stroke-linejoin:miter;stroke-miterlimit:10;stroke-dasharray:none;stroke-opacity:1"
       transform="matrix(1.3333333,0,0,-1.3333333,138.932,270.59733)" />
    <g
       id="g11"
       aria-label="2010&#10;2&#10;+2010&#10;2&#10;·2011&#10;2&#10;+2011&#10;2&#10;−2010&#10;2&#10;.&#10;ZADANIE3.&#10;Znajd¹wszystkieró»nowarto±ciowefunkcjef:R→Rspeªniaj¡cerówno±¢&#10;f(f(x)+y)=f(x+y)+1&#10;dladowolnychliczbrzeczywistychx,y.&#10;ZADANIE4.&#10;Wyka»,»eliczbanaturalnaijejpi¡tapot¦gamaj¡t¦sam¡cyfr¦jedno±ci.&#10;ZADANIE5.&#10;Wklasiejest31uczniów,wpisanychdodziennikapodnumeramiod1do31.Przed6grudnia&#10;przygotowalilosyznumeramiod1do31,byustali¢,ktokomub¦dziekupowa¢prezentmiko-&#10;ªajkowy.Udowodnij,»eiloczynliczbb¦d¡cychsumaminumeruuczniawdziennikuinumeru&#10;zkarteczkiprzezniegowylosowanejjestliczb¡parzyst¡."
       transform="matrix(1.3333333,0,0,1.3333333,138.932,284.084)">
      <path
         id="path12"
         d="M 5.2629141,-2.0024531 H 4.9933828 c -0.035156,0.1992187 -0.1289062,0.8554687 -0.2460937,1.04296873 -0.082031,0.1171875 -0.7617188,0.1171875 -1.125,0.1171875 H 1.4074453 c 0.328125,-0.28125003 1.0546875,-1.04296873 1.3710938,-1.33593753 1.8164062,-1.6640625 2.484375,-2.2851562 2.484375,-3.46875 0,-1.3828125 -1.0898438,-2.296875 -2.4726563,-2.296875 -1.3945312,0 -2.20312499,1.1835938 -2.20312499,2.203125 0,0.609375 0.52734379,0.609375 0.56249999,0.609375 0.2460938,0 0.5625,-0.1757812 0.5625,-0.5625 0,-0.328125 -0.234375,-0.5507812 -0.5625,-0.5507812 -0.1054687,0 -0.1289062,0 -0.16406249,0.011719 0.22265629,-0.8203125 0.86718749,-1.3710937 1.64062499,-1.3710937 1.0195313,0 1.640625,0.8554687 1.640625,1.9570312 0,1.0078125 -0.5859375,1.8984375 -1.265625,2.6601563 l -2.41406249,2.70703123 v 0.28125 H 4.9465078 Z M 11.21018,-3.8188594 c 0,-0.9960937 -0.05859,-1.96875 -0.492188,-2.8710937 -0.492187,-0.9960938 -1.3476561,-1.2539063 -1.9335936,-1.2539063 -0.6914062,0 -1.546875,0.3398438 -1.9804687,1.3359375 -0.3398438,0.75 -0.4570313,1.4882813 -0.4570313,2.7890625 0,1.1601563 0.082031,2.0273438 0.515625,2.87109378 0.4570313,0.9140625 1.2890625,1.1953125 1.9101563,1.1953125 1.0429687,0 1.6406253,-0.62109375 1.9804683,-1.31249998 0.433594,-0.890625 0.457032,-2.0625 0.457032,-2.7539063 z M 8.7726797,0.01317188 c -0.3867188,0 -1.1601563,-0.2109375 -1.3828125,-1.52343748 -0.140625,-0.7148438 -0.140625,-1.6171875 -0.140625,-2.4609375 0,-0.9726563 0,-1.8632813 0.1992187,-2.5664063 0.1992188,-0.796875 0.8085938,-1.171875 1.3242188,-1.171875 0.4570312,0 1.1484375,0.28125 1.3710933,1.3007813 0.152344,0.6796875 0.152344,1.6289062 0.152344,2.4375 0,0.8085937 0,1.7109375 -0.128906,2.4375 C 9.9445547,-0.20948437 9.1945547,0.01317188 8.7726797,0.01317188 Z M 15.150609,-7.6626094 c 0,-0.2695312 0,-0.28125 -0.246093,-0.28125 -0.28125,0.3164063 -0.878907,0.7617188 -2.109375,0.7617188 v 0.3515625 c 0.269531,0 0.867187,0 1.523437,-0.3164063 v 6.22265628 c 0,0.43359375 -0.03516,0.57421875 -1.078125,0.57421875 h -0.375 v 0.3515625 c 0.316406,-0.0234375 1.476563,-0.0234375 1.875,-0.0234375 0.398438,0 1.546875,0 1.863281,0.0234375 v -0.3515625 h -0.363281 c -1.054687,0 -1.089844,-0.140625 -1.089844,-0.57421875 z m 7.763672,3.84375 c 0,-0.9960937 -0.05859,-1.96875 -0.492187,-2.8710937 -0.492188,-0.9960938 -1.347656,-1.2539063 -1.933594,-1.2539063 -0.691406,0 -1.546875,0.3398438 -1.980469,1.3359375 -0.339843,0.75 -0.457031,1.4882813 -0.457031,2.7890625 0,1.1601563 0.08203,2.0273438 0.515625,2.87109378 0.457031,0.9140625 1.289063,1.1953125 1.910156,1.1953125 1.042969,0 1.640625,-0.62109375 1.980469,-1.31249998 0.433594,-0.890625 0.457031,-2.0625 0.457031,-2.7539063 z m -2.4375,3.83203128 c -0.386718,0 -1.160156,-0.2109375 -1.382812,-1.52343748 -0.140625,-0.7148438 -0.140625,-1.6171875 -0.140625,-2.4609375 0,-0.9726563 0,-1.8632813 0.199219,-2.5664063 0.199218,-0.796875 0.808593,-1.171875 1.324218,-1.171875 0.457032,0 1.148438,0.28125 1.371094,1.3007813 0.152344,0.6796875 0.152344,1.6289062 0.152344,2.4375 0,0.8085937 0,1.7109375 -0.128906,2.4375 -0.222657,1.32421873 -0.972657,1.54687498 -1.394532,1.54687498 z m 0,0"
         style="fill:#000000;fill-opacity:1;fill-rule:nonzero;stroke:none" />
      <path
         id="path13"
         d="m 25.662328,-5.0815547 c 0.128906,-0.1171875 0.457031,-0.375 0.585938,-0.4921875 0.492187,-0.4570312 0.960937,-0.890625 0.960937,-1.6171875 0,-0.9492187 -0.796875,-1.5585937 -1.792969,-1.5585937 -0.949218,0 -1.582031,0.7265625 -1.582031,1.4296875 0,0.3984375 0.316406,0.4453125 0.421875,0.4453125 0.164063,0 0.410156,-0.1171875 0.410156,-0.421875 0,-0.4101563 -0.398437,-0.4101563 -0.492187,-0.4101563 0.234375,-0.5859375 0.773437,-0.7851562 1.160156,-0.7851562 0.738281,0 1.125,0.6328125 1.125,1.3007812 0,0.8320313 -0.585937,1.4296875 -1.523437,2.4023438 l -1.007813,1.03125 c -0.09375,0.09375 -0.09375,0.1054687 -0.09375,0.3046875 h 3.152344 l 0.222656,-1.4296875 h -0.246094 c -0.02344,0.1640625 -0.08203,0.5625 -0.175781,0.7148437 -0.04687,0.058594 -0.65625,0.058594 -0.785156,0.058594 h -1.417969 z m 0,0"
         style="fill:#000000;fill-opacity:1;fill-rule:nonzero;stroke:none" />
      <path
         id="path14"
         d="m 35.570531,-2.7641719 h 3.304688 c 0.164062,0 0.375,0 0.375,-0.2109375 0,-0.2226562 -0.199219,-0.2226562 -0.375,-0.2226562 h -3.304688 v -3.3046875 c 0,-0.1640625 0,-0.3867188 -0.210937,-0.3867188 -0.234375,0 -0.234375,0.2109375 -0.234375,0.3867188 v 3.3046875 H 31.83225 c -0.175781,0 -0.386719,0 -0.386719,0.2109375 0,0.2226562 0.199219,0.2226562 0.386719,0.2226562 h 3.292969 v 3.30468753 c 0,0.1640625 0,0.38671875 0.222656,0.38671875 0.222656,0 0.222656,-0.2109375 0.222656,-0.38671875 z m 12.251953,0.7617188 h -0.269531 c -0.03516,0.1992187 -0.128906,0.8554687 -0.246094,1.04296873 -0.08203,0.1171875 -0.761718,0.1171875 -1.125,0.1171875 h -2.214843 c 0.328125,-0.28125003 1.054687,-1.04296873 1.371093,-1.33593753 1.816407,-1.6640625 2.484375,-2.2851562 2.484375,-3.46875 0,-1.3828125 -1.089843,-2.296875 -2.472656,-2.296875 -1.394531,0 -2.203125,1.1835938 -2.203125,2.203125 0,0.609375 0.527344,0.609375 0.5625,0.609375 0.246094,0 0.5625,-0.1757812 0.5625,-0.5625 0,-0.328125 -0.234375,-0.5507812 -0.5625,-0.5507812 -0.105469,0 -0.128906,0 -0.164062,0.011719 0.222656,-0.8203125 0.867187,-1.3710937 1.640625,-1.3710937 1.019531,0 1.640625,0.8554687 1.640625,1.9570312 0,1.0078125 -0.585938,1.8984375 -1.265625,2.6601563 l -2.414063,2.70703123 v 0.28125 h 4.359375 z m 5.947266,-1.8164063 c 0,-0.9960937 -0.05859,-1.96875 -0.492187,-2.8710937 -0.492188,-0.9960938 -1.347657,-1.2539063 -1.933594,-1.2539063 -0.691406,0 -1.546875,0.3398438 -1.980469,1.3359375 -0.339844,0.75 -0.457031,1.4882813 -0.457031,2.7890625 0,1.1601563 0.08203,2.0273438 0.515625,2.87109378 0.457031,0.9140625 1.289062,1.1953125 1.910156,1.1953125 1.042969,0 1.640625,-0.62109375 1.980469,-1.31249998 0.433594,-0.890625 0.457031,-2.0625 0.457031,-2.7539063 z m -2.4375,3.83203128 c -0.386719,0 -1.160156,-0.2109375 -1.382812,-1.52343748 -0.140625,-0.7148438 -0.140625,-1.6171875 -0.140625,-2.4609375 0,-0.9726563 0,-1.8632813 0.199218,-2.5664063 0.199219,-0.796875 0.808594,-1.171875 1.324219,-1.171875 0.457031,0 1.148438,0.28125 1.371094,1.3007813 0.152344,0.6796875 0.152344,1.6289062 0.152344,2.4375 0,0.8085937 0,1.7109375 -0.128907,2.4375 -0.222656,1.32421873 -0.972656,1.54687498 -1.394531,1.54687498 z m 6.380859,-7.67578128 c 0,-0.2695312 0,-0.28125 -0.246093,-0.28125 -0.28125,0.3164063 -0.878907,0.7617188 -2.109375,0.7617188 v 0.3515625 c 0.269531,0 0.867187,0 1.523437,-0.3164063 v 6.22265628 c 0,0.43359375 -0.03516,0.57421875 -1.078125,0.57421875 h -0.375 v 0.3515625 c 0.316406,-0.0234375 1.476563,-0.0234375 1.875,-0.0234375 0.398438,0 1.546875,0 1.863281,0.0234375 v -0.3515625 h -0.363281 c -1.054687,0 -1.089844,-0.140625 -1.089844,-0.57421875 z m 7.763672,3.84375 c 0,-0.9960937 -0.05859,-1.96875 -0.492187,-2.8710937 -0.492188,-0.9960938 -1.347656,-1.2539063 -1.933594,-1.2539063 -0.691406,0 -1.546875,0.3398438 -1.980469,1.3359375 -0.339843,0.75 -0.457031,1.4882813 -0.457031,2.7890625 0,1.1601563 0.08203,2.0273438 0.515625,2.87109378 0.457031,0.9140625 1.289063,1.1953125 1.910156,1.1953125 1.042969,0 1.640625,-0.62109375 1.980469,-1.31249998 0.433594,-0.890625 0.457031,-2.0625 0.457031,-2.7539063 z m -2.4375,3.83203128 c -0.386718,0 -1.160156,-0.2109375 -1.382812,-1.52343748 -0.140625,-0.7148438 -0.140625,-1.6171875 -0.140625,-2.4609375 0,-0.9726563 0,-1.8632813 0.199219,-2.5664063 0.199218,-0.796875 0.808593,-1.171875 1.324218,-1.171875 0.457032,0 1.148438,0.28125 1.371094,1.3007813 0.152344,0.6796875 0.152344,1.6289062 0.152344,2.4375 0,0.8085937 0,1.7109375 -0.128906,2.4375 -0.222657,1.32421873 -0.972657,1.54687498 -1.394532,1.54687498 z m 0,0"
         style="fill:#000000;fill-opacity:1;fill-rule:nonzero;stroke:none" />
      <path
         id="path15"
         d="m 68.224828,-5.0815547 c 0.128906,-0.1171875 0.457031,-0.375 0.585938,-0.4921875 0.492187,-0.4570312 0.960937,-0.890625 0.960937,-1.6171875 0,-0.9492187 -0.796875,-1.5585937 -1.792969,-1.5585937 -0.949218,0 -1.582031,0.7265625 -1.582031,1.4296875 0,0.3984375 0.316406,0.4453125 0.421875,0.4453125 0.164063,0 0.410156,-0.1171875 0.410156,-0.421875 0,-0.4101563 -0.398437,-0.4101563 -0.492187,-0.4101563 0.234375,-0.5859375 0.773437,-0.7851562 1.160156,-0.7851562 0.738281,0 1.125,0.6328125 1.125,1.3007812 0,0.8320313 -0.585937,1.4296875 -1.523437,2.4023438 l -1.007813,1.03125 c -0.09375,0.09375 -0.09375,0.1054687 -0.09375,0.3046875 h 3.152344 l 0.222656,-1.4296875 h -0.246094 c -0.02344,0.1640625 -0.08203,0.5625 -0.175781,0.7148437 -0.04687,0.058594 -0.65625,0.058594 -0.785156,0.058594 h -1.417969 z m 0,0"
         style="fill:#000000;fill-opacity:1;fill-rule:nonzero;stroke:none" />
      <path
         id="path16"
         d="m 75.660375,-2.9868281 c 0,-0.3515625 -0.292969,-0.6328125 -0.632812,-0.6328125 -0.351563,0 -0.632813,0.28125 -0.632813,0.6328125 0,0.3515625 0.28125,0.6328125 0.632813,0.6328125 0.339843,0 0.632812,-0.28125 0.632812,-0.6328125 z m 0,0"
         style="fill:#000000;fill-opacity:1;fill-rule:nonzero;stroke:none" />
      <path
         id="path17"
         d="M 84.601781,-2.0024531 H 84.33225 c -0.03516,0.1992187 -0.128906,0.8554687 -0.246094,1.04296873 -0.08203,0.1171875 -0.761718,0.1171875 -1.125,0.1171875 H 80.746313 C 81.074438,-1.1235469 81.801,-1.8852656 82.117406,-2.1782344 c 1.816407,-1.6640625 2.484375,-2.2851562 2.484375,-3.46875 0,-1.3828125 -1.089843,-2.296875 -2.472656,-2.296875 -1.394531,0 -2.203125,1.1835938 -2.203125,2.203125 0,0.609375 0.527344,0.609375 0.5625,0.609375 0.246094,0 0.5625,-0.1757812 0.5625,-0.5625 0,-0.328125 -0.234375,-0.5507812 -0.5625,-0.5507812 -0.105469,0 -0.128906,0 -0.164062,0.011719 0.222656,-0.8203125 0.867187,-1.3710937 1.640625,-1.3710937 1.019531,0 1.640625,0.8554687 1.640625,1.9570312 0,1.0078125 -0.585938,1.8984375 -1.265625,2.6601563 L 79.926,-0.27979687 v 0.28125 h 4.359375 z m 5.947266,-1.8164063 c 0,-0.9960937 -0.05859,-1.96875 -0.492188,-2.8710937 -0.492187,-0.9960938 -1.347656,-1.2539063 -1.933593,-1.2539063 -0.691407,0 -1.546875,0.3398438 -1.980469,1.3359375 -0.339844,0.75 -0.457031,1.4882813 -0.457031,2.7890625 0,1.1601563 0.08203,2.0273438 0.515625,2.87109378 0.457031,0.9140625 1.289062,1.1953125 1.910156,1.1953125 1.042969,0 1.640625,-0.62109375 1.980469,-1.31249998 0.433593,-0.890625 0.457031,-2.0625 0.457031,-2.7539063 z m -2.4375,3.83203128 c -0.386719,0 -1.160156,-0.2109375 -1.382813,-1.52343748 -0.140625,-0.7148438 -0.140625,-1.6171875 -0.140625,-2.4609375 0,-0.9726563 0,-1.8632813 0.199219,-2.5664063 0.199219,-0.796875 0.808594,-1.171875 1.324219,-1.171875 0.457031,0 1.148437,0.28125 1.371094,1.3007813 0.152343,0.6796875 0.152343,1.6289062 0.152343,2.4375 0,0.8085937 0,1.7109375 -0.128906,2.4375 -0.222656,1.32421873 -0.972656,1.54687498 -1.394531,1.54687498 z m 6.380859,-7.67578128 c 0,-0.2695312 0,-0.28125 -0.246093,-0.28125 -0.28125,0.3164063 -0.878907,0.7617188 -2.109375,0.7617188 v 0.3515625 c 0.269531,0 0.867187,0 1.523437,-0.3164063 v 6.22265628 c 0,0.43359375 -0.03516,0.57421875 -1.078125,0.57421875 h -0.375 v 0.3515625 c 0.316406,-0.0234375 1.476563,-0.0234375 1.875,-0.0234375 0.398438,0 1.546875,0 1.863281,0.0234375 v -0.3515625 H 95.58225 c -1.054687,0 -1.089844,-0.140625 -1.089844,-0.57421875 z m 5.853514,0 c 0,-0.2695312 0,-0.28125 -0.24609,-0.28125 -0.281252,0.3164063 -0.878908,0.7617188 -2.109377,0.7617188 v 0.3515625 c 0.269531,0 0.867188,0 1.523438,-0.3164063 v 6.22265628 c 0,0.43359375 -0.03516,0.57421875 -1.078125,0.57421875 h -0.375 v 0.3515625 c 0.316406,-0.0234375 1.476562,-0.0234375 1.875,-0.0234375 0.398434,0 1.546874,0 1.863284,0.0234375 v -0.3515625 h -0.36328 c -1.05469,0 -1.08985,-0.140625 -1.08985,-0.57421875 z m 0,0"
         style="fill:#000000;fill-opacity:1;fill-rule:nonzero;stroke:none" />
      <path
         id="path18"
         d="m 105.00413,-5.0815547 c 0.1289,-0.1171875 0.45703,-0.375 0.58593,-0.4921875 0.49219,-0.4570312 0.96094,-0.890625 0.96094,-1.6171875 0,-0.9492187 -0.79687,-1.5585937 -1.79297,-1.5585937 -0.94922,0 -1.58203,0.7265625 -1.58203,1.4296875 0,0.3984375 0.31641,0.4453125 0.42188,0.4453125 0.16406,0 0.41015,-0.1171875 0.41015,-0.421875 0,-0.4101563 -0.39844,-0.4101563 -0.49219,-0.4101563 0.23438,-0.5859375 0.77344,-0.7851562 1.16016,-0.7851562 0.73828,0 1.125,0.6328125 1.125,1.3007812 0,0.8320313 -0.58594,1.4296875 -1.52344,2.4023438 l -1.00781,1.03125 c -0.0937,0.09375 -0.0937,0.1054687 -0.0937,0.3046875 h 3.15234 l 0.22266,-1.4296875 h -0.24609 c -0.0234,0.1640625 -0.082,0.5625 -0.17578,0.7148437 -0.0469,0.058594 -0.65625,0.058594 -0.78516,0.058594 H 103.926 Z m 0,0"
         style="fill:#000000;fill-opacity:1;fill-rule:nonzero;stroke:none" />
      <path
         id="path19"
         d="m 114.91233,-2.7641719 h 3.30469 c 0.16406,0 0.375,0 0.375,-0.2109375 0,-0.2226562 -0.19922,-0.2226562 -0.375,-0.2226562 h -3.30469 v -3.3046875 c 0,-0.1640625 0,-0.3867188 -0.21094,-0.3867188 -0.23437,0 -0.23437,0.2109375 -0.23437,0.3867188 v 3.3046875 h -3.29297 c -0.17578,0 -0.38672,0 -0.38672,0.2109375 0,0.2226562 0.19922,0.2226562 0.38672,0.2226562 h 3.29297 v 3.30468753 c 0,0.1640625 0,0.38671875 0.22265,0.38671875 0.22266,0 0.22266,-0.2109375 0.22266,-0.38671875 z m 12.25195,0.7617188 h -0.26953 c -0.0352,0.1992187 -0.12891,0.8554687 -0.24609,1.04296873 -0.082,0.1171875 -0.76172,0.1171875 -1.125,0.1171875 h -2.21485 c 0.32813,-0.28125003 1.05469,-1.04296873 1.3711,-1.33593753 1.8164,-1.6640625 2.48437,-2.2851562 2.48437,-3.46875 0,-1.3828125 -1.08984,-2.296875 -2.47265,-2.296875 -1.39454,0 -2.20313,1.1835938 -2.20313,2.203125 0,0.609375 0.52734,0.609375 0.5625,0.609375 0.24609,0 0.5625,-0.1757812 0.5625,-0.5625 0,-0.328125 -0.23437,-0.5507812 -0.5625,-0.5507812 -0.10547,0 -0.12891,0 -0.16406,0.011719 0.22265,-0.8203125 0.86719,-1.3710937 1.64062,-1.3710937 1.01953,0 1.64063,0.8554687 1.64063,1.9570312 0,1.0078125 -0.58594,1.8984375 -1.26563,2.6601563 l -2.41406,2.70703123 v 0.28125 h 4.35938 z m 5.94434,-1.8164063 c 0,-0.9960937 -0.0586,-1.96875 -0.49219,-2.8710937 -0.49219,-0.9960938 -1.34766,-1.2539063 -1.93359,-1.2539063 -0.69141,0 -1.54688,0.3398438 -1.98047,1.3359375 -0.33985,0.75 -0.45703,1.4882813 -0.45703,2.7890625 0,1.1601563 0.082,2.0273438 0.51562,2.87109378 0.45703,0.9140625 1.28906,1.1953125 1.91016,1.1953125 1.04297,0 1.64062,-0.62109375 1.98047,-1.31249998 0.43359,-0.890625 0.45703,-2.0625 0.45703,-2.7539063 z m -2.4375,3.83203128 c -0.38672,0 -1.16016,-0.2109375 -1.38282,-1.52343748 -0.14062,-0.7148438 -0.14062,-1.6171875 -0.14062,-2.4609375 0,-0.9726563 0,-1.8632813 0.19922,-2.5664063 0.19922,-0.796875 0.80859,-1.171875 1.32422,-1.171875 0.45703,0 1.14843,0.28125 1.37109,1.3007813 0.15234,0.6796875 0.15234,1.6289062 0.15234,2.4375 0,0.8085937 0,1.7109375 -0.1289,2.4375 -0.22266,1.32421873 -0.97266,1.54687498 -1.39453,1.54687498 z m 6.38086,-7.67578128 c 0,-0.2695312 0,-0.28125 -0.2461,-0.28125 -0.28125,0.3164063 -0.8789,0.7617188 -2.10937,0.7617188 v 0.3515625 c 0.26953,0 0.86719,0 1.52344,-0.3164063 v 6.22265628 c 0,0.43359375 -0.0352,0.57421875 -1.07813,0.57421875 h -0.375 v 0.3515625 c 0.31641,-0.0234375 1.47656,-0.0234375 1.875,-0.0234375 0.39844,0 1.54688,0 1.86328,0.0234375 v -0.3515625 h -0.36328 c -1.05469,0 -1.08984,-0.140625 -1.08984,-0.57421875 z m 5.85351,0 c 0,-0.2695312 0,-0.28125 -0.24609,-0.28125 -0.28125,0.3164063 -0.87891,0.7617188 -2.10938,0.7617188 v 0.3515625 c 0.26953,0 0.86719,0 1.52344,-0.3164063 v 6.22265628 c 0,0.43359375 -0.0352,0.57421875 -1.07812,0.57421875 h -0.375 v 0.3515625 c 0.3164,-0.0234375 1.47656,-0.0234375 1.875,-0.0234375 0.39843,0 1.54687,0 1.86328,0.0234375 v -0.3515625 h -0.36328 c -1.05469,0 -1.08985,-0.140625 -1.08985,-0.57421875 z m 0,0"
         style="fill:#000000;fill-opacity:1;fill-rule:nonzero;stroke:none" />
      <path
         id="path20"
         d="m 147.5637,-5.0815547 c 0.1289,-0.1171875 0.45703,-0.375 0.58593,-0.4921875 0.49219,-0.4570312 0.96094,-0.890625 0.96094,-1.6171875 0,-0.9492187 -0.79687,-1.5585937 -1.79297,-1.5585937 -0.94922,0 -1.58203,0.7265625 -1.58203,1.4296875 0,0.3984375 0.31641,0.4453125 0.42188,0.4453125 0.16406,0 0.41015,-0.1171875 0.41015,-0.421875 0,-0.4101563 -0.39844,-0.4101563 -0.49219,-0.4101563 0.23438,-0.5859375 0.77344,-0.7851562 1.16016,-0.7851562 0.73828,0 1.125,0.6328125 1.125,1.3007812 0,0.8320313 -0.58594,1.4296875 -1.52344,2.4023438 l -1.00781,1.03125 c -0.0937,0.09375 -0.0937,0.1054687 -0.0937,0.3046875 h 3.15234 l 0.22266,-1.4296875 h -0.24609 c -0.0234,0.1640625 -0.082,0.5625 -0.17578,0.7148437 -0.0469,0.058594 -0.65625,0.058594 -0.78516,0.058594 h -1.41797 z m 0,0"
         style="fill:#000000;fill-opacity:1;fill-rule:nonzero;stroke:none" />
      <path
         id="path21"
         d="m 160.5803,-2.7524531 c 0.21093,0 0.42187,0 0.42187,-0.234375 0,-0.234375 -0.21094,-0.234375 -0.42187,-0.234375 h -6.46875 c -0.19922,0 -0.41016,0 -0.41016,0.234375 0,0.234375 0.21094,0.234375 0.41016,0.234375 z m 0,0"
         style="fill:#000000;fill-opacity:1;fill-rule:nonzero;stroke:none" />
      <path
         id="path22"
         d="m 169.92307,-2.0024531 h -0.26953 c -0.0352,0.1992187 -0.12891,0.8554687 -0.24609,1.04296873 -0.082,0.1171875 -0.76172,0.1171875 -1.125,0.1171875 h -2.21485 c 0.32813,-0.28125003 1.05469,-1.04296873 1.3711,-1.33593753 1.8164,-1.6640625 2.48437,-2.2851562 2.48437,-3.46875 0,-1.3828125 -1.08984,-2.296875 -2.47266,-2.296875 -1.39453,0 -2.20312,1.1835938 -2.20312,2.203125 0,0.609375 0.52734,0.609375 0.5625,0.609375 0.24609,0 0.5625,-0.1757812 0.5625,-0.5625 0,-0.328125 -0.23438,-0.5507812 -0.5625,-0.5507812 -0.10547,0 -0.12891,0 -0.16406,0.011719 0.22265,-0.8203125 0.86718,-1.3710937 1.64062,-1.3710937 1.01953,0 1.64063,0.8554687 1.64063,1.9570312 0,1.0078125 -0.58594,1.8984375 -1.26563,2.6601563 l -2.41406,2.70703123 v 0.28125 h 4.35937 z m 5.94434,-1.8164063 c 0,-0.9960937 -0.0586,-1.96875 -0.49219,-2.8710937 -0.49219,-0.9960938 -1.34766,-1.2539063 -1.93359,-1.2539063 -0.69141,0 -1.54688,0.3398438 -1.98047,1.3359375 -0.33985,0.75 -0.45703,1.4882813 -0.45703,2.7890625 0,1.1601563 0.082,2.0273438 0.51562,2.87109378 0.45703,0.9140625 1.28906,1.1953125 1.91016,1.1953125 1.04297,0 1.64062,-0.62109375 1.98047,-1.31249998 0.43359,-0.890625 0.45703,-2.0625 0.45703,-2.7539063 z m -2.4375,3.83203128 c -0.38672,0 -1.16016,-0.2109375 -1.38282,-1.52343748 -0.14062,-0.7148438 -0.14062,-1.6171875 -0.14062,-2.4609375 0,-0.9726563 0,-1.8632813 0.19922,-2.5664063 0.19922,-0.796875 0.80859,-1.171875 1.32422,-1.171875 0.45703,0 1.14843,0.28125 1.37109,1.3007813 0.15234,0.6796875 0.15234,1.6289062 0.15234,2.4375 0,0.8085937 0,1.7109375 -0.1289,2.4375 -0.22266,1.32421873 -0.97266,1.54687498 -1.39453,1.54687498 z m 6.38086,-7.67578128 c 0,-0.2695312 0,-0.28125 -0.2461,-0.28125 -0.28125,0.3164063 -0.8789,0.7617188 -2.10937,0.7617188 v 0.3515625 c 0.26953,0 0.86718,0 1.52343,-0.3164063 v 6.22265628 c 0,0.43359375 -0.0352,0.57421875 -1.07812,0.57421875 h -0.375 v 0.3515625 c 0.31641,-0.0234375 1.47656,-0.0234375 1.875,-0.0234375 0.39844,0 1.54687,0 1.86328,0.0234375 v -0.3515625 h -0.36328 c -1.05469,0 -1.08984,-0.140625 -1.08984,-0.57421875 z m 7.76367,3.84375 c 0,-0.9960937 -0.0586,-1.96875 -0.49219,-2.8710937 -0.49219,-0.9960938 -1.34766,-1.2539063 -1.93359,-1.2539063 -0.69141,0 -1.54688,0.3398438 -1.98047,1.3359375 -0.33985,0.75 -0.45703,1.4882813 -0.45703,2.7890625 0,1.1601563 0.082,2.0273438 0.51562,2.87109378 0.45703,0.9140625 1.28906,1.1953125 1.91016,1.1953125 1.04297,0 1.64062,-0.62109375 1.98047,-1.31249998 0.43359,-0.890625 0.45703,-2.0625 0.45703,-2.7539063 z m -2.4375,3.83203128 c -0.38672,0 -1.16016,-0.2109375 -1.38281,-1.52343748 -0.14063,-0.7148438 -0.14063,-1.6171875 -0.14063,-2.4609375 0,-0.9726563 0,-1.8632813 0.19922,-2.5664063 0.19922,-0.796875 0.80859,-1.171875 1.32422,-1.171875 0.45703,0 1.14844,0.28125 1.37109,1.3007813 0.15235,0.6796875 0.15235,1.6289062 0.15235,2.4375 0,0.8085937 0,1.7109375 -0.12891,2.4375 -0.22266,1.32421873 -0.97266,1.54687498 -1.39453,1.54687498 z m 0,0"
         style="fill:#000000;fill-opacity:1;fill-rule:nonzero;stroke:none" />
      <path
         id="path23"
         d="m 190.31955,-5.9663203 c 0.12891,-0.1171875 0.45704,-0.375 0.58594,-0.4921875 0.49219,-0.4570313 0.96094,-0.890625 0.96094,-1.6171875 0,-0.9492188 -0.79688,-1.5585938 -1.79297,-1.5585938 -0.94922,0 -1.58203,0.7265625 -1.58203,1.4296875 0,0.3984375 0.31641,0.4453125 0.42187,0.4453125 0.16407,0 0.41016,-0.1171875 0.41016,-0.421875 0,-0.4101562 -0.39844,-0.4101562 -0.49219,-0.4101562 0.23438,-0.5859375 0.77344,-0.7851563 1.16016,-0.7851563 0.73828,0 1.125,0.6328125 1.125,1.3007813 0,0.8320312 -0.58594,1.4296875 -1.52344,2.4023437 l -1.00781,1.03125 c -0.0937,0.09375 -0.0937,0.1054688 -0.0937,0.3046875 h 3.15234 l 0.22266,-1.4296875 h -0.24609 c -0.0234,0.1640625 -0.082,0.5625 -0.17579,0.7148438 -0.0469,0.058594 -0.65625,0.058594 -0.78515,0.058594 h -1.41797 z m 0,0"
         style="fill:#000000;fill-opacity:1;fill-rule:nonzero;stroke:none" />
      <path
         id="path24"
         d="m 195.00705,-0.57276562 c 0,-0.3515625 -0.29296,-0.58593748 -0.57421,-0.58593748 -0.35157,0 -0.58594,0.29296873 -0.58594,0.57421873 0,0.3515625 0.28125,0.5859375 0.57422,0.5859375 0.33984,0 0.58593,-0.28125 0.58593,-0.57421875 z m 0,0"
         style="fill:#000000;fill-opacity:1;fill-rule:nonzero;stroke:none" />
      <path
         id="path25"
         d="m 183.14182,44.037586 c 0.23438,0 0.32813,0 0.32813,-0.222656 0,-0.128907 -0.0937,-0.128907 -0.30469,-0.128907 h -0.97266 c 0.23438,-1.230468 0.39844,-2.074218 0.49219,-2.460937 0.0703,-0.28125 0.32812,-0.5625 0.63281,-0.5625 0.25781,0 0.50391,0.105469 0.6211,0.222656 -0.46875,0.04687 -0.60938,0.386719 -0.60938,0.597656 0,0.234375 0.1875,0.375 0.41016,0.375 0.23437,0 0.59765,-0.199218 0.59765,-0.65625 0,-0.503906 -0.5039,-0.773437 -1.03125,-0.773437 -0.51562,0 -1.00781,0.386719 -1.2539,0.84375 -0.21094,0.421875 -0.32813,0.855469 -0.60938,2.414062 h -0.79687 c -0.23438,0 -0.35157,0 -0.35157,0.222657 0,0.128906 0.0703,0.128906 0.31641,0.128906 h 0.76172 c -0.21094,1.113281 -0.70313,3.808594 -0.98438,5.085937 -0.19921,1.042969 -0.375,1.921875 -0.97265,1.921875 -0.0352,0 -0.38672,0 -0.59766,-0.234375 0.60938,-0.04687 0.60938,-0.574218 0.60938,-0.585937 0,-0.234375 -0.1875,-0.375 -0.41016,-0.375 -0.23437,0 -0.59766,0.199219 -0.59766,0.65625 0,0.515625 0.52735,0.773437 0.9961,0.773437 1.21875,0 1.72265,-2.191406 1.85156,-2.789062 0.21094,-0.914063 0.79688,-4.089844 0.85547,-4.453125 z m 0,0"
         style="fill:#000000;fill-opacity:1;fill-rule:nonzero;stroke:none" />
      <path
         id="path26"
         d="m 188.38596,44.260242 c 0,-0.316406 -0.28125,-0.574219 -0.57422,-0.574219 -0.35156,0 -0.58594,0.28125 -0.58594,0.574219 0,0.363281 0.29297,0.585938 0.57422,0.585938 0.31641,0 0.58594,-0.246094 0.58594,-0.585938 z m 0,3.996094 c 0,-0.328125 -0.28125,-0.574219 -0.57422,-0.574219 -0.35156,0 -0.58594,0.28125 -0.58594,0.574219 0,0.363281 0.29297,0.585937 0.57422,0.585937 0.31641,0 0.58594,-0.246093 0.58594,-0.585937 z m 0,0"
         style="fill:#000000;fill-opacity:1;fill-rule:nonzero;stroke:none" />
      <path
         id="path27"
         d="m 196.62131,45.092273 h 0.4336 l 1.79297,2.765625 c 0.11718,0.199219 0.41015,0.65625 0.53906,0.84375 0.082,0.140625 0.11719,0.140625 0.39844,0.140625 h 1.64062 c 0.22266,0 0.39844,0 0.39844,-0.210937 0,-0.105469 -0.0703,-0.1875 -0.17578,-0.210938 -0.44532,-0.09375 -1.03125,-0.878906 -1.3125,-1.265625 -0.0937,-0.117187 -0.69141,-0.902343 -1.48828,-2.203125 1.0664,-0.1875 2.09765,-0.644531 2.09765,-2.0625 0,-1.664062 -1.75781,-2.238281 -3.17578,-2.238281 h -3.75 c -0.21094,0 -0.41016,0 -0.41016,0.222656 0,0.199219 0.23438,0.199219 0.32813,0.199219 0.67969,0 0.73828,0.08203 0.73828,0.679688 v 5.988281 c 0,0.597656 -0.0586,0.679687 -0.73828,0.679687 -0.0937,0 -0.32813,0 -0.32813,0.210938 0,0.210937 0.19922,0.210937 0.41016,0.210937 h 3.26953 c 0.22266,0 0.39844,0 0.39844,-0.210937 0,-0.210938 -0.19922,-0.210938 -0.32813,-0.210938 -0.6914,0 -0.73828,-0.09375 -0.73828,-0.679687 z m 2.3086,-0.585937 c 0.33984,-0.445313 0.375,-1.078125 0.375,-1.605469 0,-0.574219 -0.0703,-1.207031 -0.45703,-1.699219 0.49218,0.105469 1.67578,0.480469 1.67578,1.6875 0,0.773438 -0.36328,1.382813 -1.59375,1.617188 z m -2.3086,-2.789063 c 0,-0.246093 0,-0.644531 0.75,-0.644531 1.00782,0 1.51172,0.421875 1.51172,1.828125 0,1.546875 -0.36328,1.769531 -2.26172,1.769531 z m -1.61718,6.703125 c 0.0937,-0.210937 0.0937,-0.550781 0.0937,-0.65625 v -6.035156 c 0,-0.117187 0,-0.445312 -0.0937,-0.65625 h 1.35937 c -0.15234,0.1875 -0.15234,0.433594 -0.15234,0.609375 v 6.082031 c 0,0.117188 0,0.445313 0.0937,0.65625 z m 2.54296,-3.328125 c 0.082,-0.01172 0.12891,-0.02344 0.22266,-0.02344 0.1875,0 0.44531,-0.02344 0.62109,-0.04687 0.1875,0.28125 1.47657,2.414062 2.46094,3.398437 h -1.14844 z m 0,0"
         style="fill:#000000;fill-opacity:1;fill-rule:nonzero;stroke:none" />
      <path
         id="path28"
         d="m 215.34788,46.088367 c -0.65625,0.503906 -0.98438,0.996094 -1.07813,1.148438 -0.53906,0.832031 -0.63281,1.582031 -0.63281,1.59375 0,0.140625 0.14062,0.140625 0.23437,0.140625 0.21094,0 0.22266,-0.02344 0.26953,-0.234375 0.26954,-1.171875 0.97266,-2.179688 2.33204,-2.730469 0.14062,-0.04687 0.17578,-0.07031 0.17578,-0.152344 0,-0.08203 -0.0703,-0.117187 -0.0937,-0.128906 -0.52735,-0.210938 -1.98047,-0.808594 -2.42578,-2.8125 -0.0352,-0.140625 -0.0469,-0.175781 -0.25782,-0.175781 -0.0937,0 -0.23437,0 -0.23437,0.140625 0,0.02344 0.10547,0.773437 0.60937,1.582031 0.23438,0.351562 0.58594,0.773437 1.10157,1.160156 h -8.88282 c -0.22265,0 -0.43359,0 -0.43359,0.234375 0,0.234375 0.21094,0.234375 0.43359,0.234375 z m 0,0"
         style="fill:#000000;fill-opacity:1;fill-rule:nonzero;stroke:none" />
      <path
         id="path29"
         d="m 223.84983,45.092273 h 0.43359 l 1.79297,2.765625 c 0.11719,0.199219 0.41016,0.65625 0.53906,0.84375 0.082,0.140625 0.11719,0.140625 0.39844,0.140625 h 1.64063 c 0.22265,0 0.39843,0 0.39843,-0.210937 0,-0.105469 -0.0703,-0.1875 -0.17578,-0.210938 -0.44531,-0.09375 -1.03125,-0.878906 -1.3125,-1.265625 -0.0937,-0.117187 -0.6914,-0.902343 -1.48828,-2.203125 1.06641,-0.1875 2.09766,-0.644531 2.09766,-2.0625 0,-1.664062 -1.75782,-2.238281 -3.17578,-2.238281 h -3.75 c -0.21094,0 -0.41016,0 -0.41016,0.222656 0,0.199219 0.23437,0.199219 0.32812,0.199219 0.67969,0 0.73829,0.08203 0.73829,0.679688 v 5.988281 c 0,0.597656 -0.0586,0.679687 -0.73829,0.679687 -0.0937,0 -0.32812,0 -0.32812,0.210938 0,0.210937 0.19922,0.210937 0.41016,0.210937 h 3.26953 c 0.22265,0 0.39843,0 0.39843,-0.210937 0,-0.210938 -0.19921,-0.210938 -0.32812,-0.210938 -0.69141,0 -0.73828,-0.09375 -0.73828,-0.679687 z m 2.30859,-0.585937 c 0.33985,-0.445313 0.375,-1.078125 0.375,-1.605469 0,-0.574219 -0.0703,-1.207031 -0.45703,-1.699219 0.49219,0.105469 1.67578,0.480469 1.67578,1.6875 0,0.773438 -0.36328,1.382813 -1.59375,1.617188 z m -2.30859,-2.789063 c 0,-0.246093 0,-0.644531 0.75,-0.644531 1.00781,0 1.51172,0.421875 1.51172,1.828125 0,1.546875 -0.36328,1.769531 -2.26172,1.769531 z m -1.61719,6.703125 c 0.0937,-0.210937 0.0937,-0.550781 0.0937,-0.65625 v -6.035156 c 0,-0.117187 0,-0.445312 -0.0937,-0.65625 h 1.35938 c -0.15235,0.1875 -0.15235,0.433594 -0.15235,0.609375 v 6.082031 c 0,0.117188 0,0.445313 0.0937,0.65625 z m 2.54297,-3.328125 c 0.082,-0.01172 0.12891,-0.02344 0.22266,-0.02344 0.1875,0 0.44531,-0.02344 0.62109,-0.04687 0.1875,0.28125 1.47656,2.414062 2.46094,3.398437 h -1.14844 z m 0,0"
         style="fill:#000000;fill-opacity:1;fill-rule:nonzero;stroke:none" />
      <path
         id="path30"
         d="m 129.46702,73.328602 c 0.23437,0 0.32812,0 0.32812,-0.222657 0,-0.128906 -0.0937,-0.128906 -0.30469,-0.128906 h -0.97265 c 0.23437,-1.230469 0.39843,-2.074219 0.49218,-2.460937 0.0703,-0.28125 0.32813,-0.5625 0.63282,-0.5625 0.25781,0 0.5039,0.105468 0.62109,0.222656 -0.46875,0.04687 -0.60937,0.386719 -0.60937,0.597656 0,0.234375 0.1875,0.375 0.41015,0.375 0.23438,0 0.59766,-0.199219 0.59766,-0.65625 0,-0.503906 -0.50391,-0.773437 -1.03125,-0.773437 -0.51563,0 -1.00781,0.386718 -1.25391,0.84375 -0.21094,0.421875 -0.32812,0.855468 -0.60937,2.414062 h -0.79688 c -0.23437,0 -0.35156,0 -0.35156,0.222656 0,0.128907 0.0703,0.128907 0.31641,0.128907 h 0.76171 c -0.21093,1.113281 -0.70312,3.808593 -0.98437,5.085937 -0.19922,1.042969 -0.375,1.921875 -0.97266,1.921875 -0.0352,0 -0.38672,0 -0.59765,-0.234375 0.60937,-0.04687 0.60937,-0.574219 0.60937,-0.585937 0,-0.234375 -0.1875,-0.375 -0.41015,-0.375 -0.23438,0 -0.59766,0.199218 -0.59766,0.65625 0,0.515625 0.52734,0.773437 0.99609,0.773437 1.21875,0 1.72266,-2.191406 1.85157,-2.789062 0.21093,-0.914063 0.79687,-4.089844 0.85546,-4.453125 z m 0,0"
         style="fill:#000000;fill-opacity:1;fill-rule:nonzero;stroke:none" />
      <path
         id="path31"
         d="m 137.0637,81.039539 c 0,-0.03516 0,-0.05859 -0.21094,-0.269531 -1.19531,-1.207031 -1.86328,-3.175781 -1.86328,-5.613281 0,-2.320313 0.5625,-4.3125 1.94531,-5.730469 0.12891,-0.105469 0.12891,-0.128906 0.12891,-0.164063 0,-0.07031 -0.0703,-0.09375 -0.11719,-0.09375 -0.15235,0 -1.13672,0.855469 -1.72266,2.027344 -0.60937,1.207031 -0.8789,2.496094 -0.8789,3.960938 0,1.066406 0.16406,2.484375 0.78515,3.761718 0.70313,1.441407 1.6875,2.214844 1.81641,2.214844 0.0469,0 0.11719,-0.02344 0.11719,-0.09375 z m 0,0"
         style="fill:#000000;fill-opacity:1;fill-rule:nonzero;stroke:none" />
      <path
         id="path32"
         d="m 143.05784,73.328602 c 0.23437,0 0.32812,0 0.32812,-0.222657 0,-0.128906 -0.0937,-0.128906 -0.30469,-0.128906 h -0.97265 c 0.23437,-1.230469 0.39843,-2.074219 0.49218,-2.460937 0.0703,-0.28125 0.32813,-0.5625 0.63282,-0.5625 0.25781,0 0.5039,0.105468 0.62109,0.222656 -0.46875,0.04687 -0.60937,0.386719 -0.60937,0.597656 0,0.234375 0.1875,0.375 0.41015,0.375 0.23438,0 0.59766,-0.199219 0.59766,-0.65625 0,-0.503906 -0.50391,-0.773437 -1.03125,-0.773437 -0.51563,0 -1.00781,0.386718 -1.25391,0.84375 -0.21094,0.421875 -0.32812,0.855468 -0.60937,2.414062 h -0.79688 c -0.23437,0 -0.35156,0 -0.35156,0.222656 0,0.128907 0.0703,0.128907 0.31641,0.128907 h 0.76171 c -0.21093,1.113281 -0.70312,3.808593 -0.98437,5.085937 -0.19922,1.042969 -0.375,1.921875 -0.97266,1.921875 -0.0351,0 -0.38672,0 -0.59765,-0.234375 0.60937,-0.04687 0.60937,-0.574219 0.60937,-0.585937 0,-0.234375 -0.1875,-0.375 -0.41015,-0.375 -0.23438,0 -0.59766,0.199218 -0.59766,0.65625 0,0.515625 0.52734,0.773437 0.99609,0.773437 1.21875,0 1.72266,-2.191406 1.85157,-2.789062 0.21093,-0.914063 0.79687,-4.089844 0.85546,-4.453125 z m 0,0"
         style="fill:#000000;fill-opacity:1;fill-rule:nonzero;stroke:none" />
      <path
         id="path33"
         d="m 148.66233,81.039539 c 0,-0.03516 0,-0.05859 -0.21094,-0.269531 -1.19531,-1.207031 -1.86328,-3.175781 -1.86328,-5.613281 0,-2.320313 0.5625,-4.3125 1.94531,-5.730469 0.12891,-0.105469 0.12891,-0.128906 0.12891,-0.164063 0,-0.07031 -0.0703,-0.09375 -0.11719,-0.09375 -0.15234,0 -1.13672,0.855469 -1.72266,2.027344 -0.60937,1.207031 -0.8789,2.496094 -0.8789,3.960938 0,1.066406 0.16406,2.484375 0.78515,3.761718 0.70313,1.441407 1.6875,2.214844 1.81641,2.214844 0.0469,0 0.11719,-0.02344 0.11719,-0.09375 z m 0,0"
         style="fill:#000000;fill-opacity:1;fill-rule:nonzero;stroke:none" />
      <path
         id="path34"
         d="m 154.98459,73.258289 c -0.375,0.07031 -0.51562,0.351563 -0.51562,0.585938 0,0.28125 0.22266,0.375 0.38672,0.375 0.36328,0 0.60937,-0.304688 0.60937,-0.632813 0,-0.492187 -0.57422,-0.726562 -1.07812,-0.726562 -0.72656,0 -1.125,0.714843 -1.24219,0.949218 -0.26953,-0.902343 -1.00781,-0.949218 -1.23047,-0.949218 -1.21875,0 -1.86328,1.570312 -1.86328,1.828125 0,0.04687 0.0469,0.105468 0.12891,0.105468 0.10547,0 0.1289,-0.07031 0.15234,-0.117187 0.39844,-1.324219 1.20703,-1.570313 1.54688,-1.570313 0.53906,0 0.64453,0.492188 0.64453,0.785157 0,0.257812 -0.0703,0.539062 -0.21094,1.113281 l -0.41016,1.628906 c -0.17578,0.726563 -0.52734,1.382813 -1.16015,1.382813 -0.0586,0 -0.35157,0 -0.60938,-0.152344 0.4336,-0.09375 0.52735,-0.445313 0.52735,-0.585938 0,-0.246093 -0.17579,-0.386718 -0.39844,-0.386718 -0.29297,0 -0.59766,0.246093 -0.59766,0.632812 0,0.503906 0.5625,0.726563 1.06641,0.726563 0.57422,0 0.98437,-0.457032 1.23047,-0.9375 0.19922,0.703125 0.79687,0.9375 1.23047,0.9375 1.23046,0 1.875,-1.558594 1.875,-1.828125 0,-0.05859 -0.0469,-0.105469 -0.12891,-0.105469 -0.10547,0 -0.11719,0.05859 -0.15234,0.152344 -0.31641,1.054687 -1.01954,1.546875 -1.54688,1.546875 -0.42187,0 -0.65625,-0.316407 -0.65625,-0.808594 0,-0.257813 0.0586,-0.445313 0.24609,-1.242188 l 0.42188,-1.617187 c 0.17578,-0.726563 0.58594,-1.242188 1.125,-1.242188 0.0352,0 0.36328,0 0.60937,0.152344 z m 0,0"
         style="fill:#000000;fill-opacity:1;fill-rule:nonzero;stroke:none" />
      <path
         id="path35"
         d="m 159.34983,75.156727 c 0,-0.914063 -0.12891,-2.390625 -0.79688,-3.773438 -0.70312,-1.441406 -1.67578,-2.214844 -1.8164,-2.214844 -0.0469,0 -0.10547,0.02344 -0.10547,0.09375 0,0.03516 0,0.05859 0.19922,0.269532 1.19531,1.207031 1.875,3.175781 1.875,5.613281 0,2.320312 -0.5625,4.3125 -1.95703,5.730469 -0.11719,0.105468 -0.11719,0.128906 -0.11719,0.164062 0,0.07031 0.0586,0.09375 0.10547,0.09375 0.16406,0 1.13672,-0.855469 1.72265,-2.027344 0.60938,-1.21875 0.89063,-2.519531 0.89063,-3.949218 z m 8.60156,0.210937 h 3.30469 c 0.16406,0 0.375,0 0.375,-0.210937 0,-0.222657 -0.19922,-0.222657 -0.375,-0.222657 h -3.30469 v -3.304687 c 0,-0.164063 0,-0.386719 -0.21094,-0.386719 -0.23437,0 -0.23437,0.210938 -0.23437,0.386719 v 3.304687 h -3.29297 c -0.17578,0 -0.38672,0 -0.38672,0.210938 0,0.222656 0.19922,0.222656 0.38672,0.222656 h 3.29297 v 3.304688 c 0,0.164062 0,0.386718 0.22265,0.386718 0.22266,0 0.22266,-0.210937 0.22266,-0.386718 z m 0,0"
         style="fill:#000000;fill-opacity:1;fill-rule:nonzero;stroke:none" />
      <path
         id="path36"
         d="m 178.08811,79.469227 c -0.31641,0.457031 -0.78516,0.867187 -1.37109,0.867187 -0.14063,0 -0.71485,-0.02344 -0.90235,-0.574219 0.0469,0.01172 0.10547,0.01172 0.12891,0.01172 0.35156,0 0.59765,-0.316406 0.59765,-0.585937 0,-0.28125 -0.23437,-0.375 -0.41015,-0.375 -0.1875,0 -0.60938,0.140625 -0.60938,0.726562 0,0.609375 0.51563,1.03125 1.19532,1.03125 1.19531,0 2.40234,-1.101562 2.74218,-2.425781 l 1.17188,-4.664063 c 0.0117,-0.05859 0.0352,-0.128906 0.0352,-0.199218 0,-0.175782 -0.15234,-0.304688 -0.32812,-0.304688 -0.10547,0 -0.36328,0.04687 -0.45703,0.410156 l -0.87891,3.515625 c -0.0586,0.210938 -0.0586,0.234375 -0.15234,0.375 -0.2461,0.328125 -0.64453,0.738282 -1.20703,0.738282 -0.67969,0 -0.73828,-0.65625 -0.73828,-0.984375 0,-0.679688 0.32812,-1.605469 0.64453,-2.460938 0.14062,-0.351562 0.21093,-0.515625 0.21093,-0.75 0,-0.503906 -0.36328,-0.960937 -0.94921,-0.960937 -1.10157,0 -1.53516,1.734375 -1.53516,1.828125 0,0.04687 0.0469,0.105468 0.12891,0.105468 0.10546,0 0.11718,-0.04687 0.16406,-0.210937 0.29297,-1.007813 0.73828,-1.476563 1.20703,-1.476563 0.10547,0 0.31641,0 0.31641,0.386719 0,0.316406 -0.14063,0.65625 -0.31641,1.113281 -0.58594,1.570313 -0.58594,1.957032 -0.58594,2.25 0,1.136719 0.8086,1.394532 1.40625,1.394532 0.35156,0 0.78516,-0.105469 1.19531,-0.550782 l 0.0117,0.01172 c -0.17578,0.703125 -0.29297,1.171875 -0.71484,1.757813 z m 0,0"
         style="fill:#000000;fill-opacity:1;fill-rule:nonzero;stroke:none" />
      <path
         id="path37"
         d="m 184.45725,75.156727 c 0,-0.914063 -0.12891,-2.390625 -0.79687,-3.773438 -0.70313,-1.441406 -1.67579,-2.214844 -1.81641,-2.214844 -0.0469,0 -0.10547,0.02344 -0.10547,0.09375 0,0.03516 0,0.05859 0.19922,0.269532 1.19531,1.207031 1.875,3.175781 1.875,5.613281 0,2.320312 -0.5625,4.3125 -1.95703,5.730469 -0.11719,0.105468 -0.11719,0.128906 -0.11719,0.164062 0,0.07031 0.0586,0.09375 0.10547,0.09375 0.16406,0 1.13672,-0.855469 1.72266,-2.027344 0.60937,-1.21875 0.89062,-2.519531 0.89062,-3.949218 z m 12.57715,-0.890625 c 0.16406,0 0.375,0 0.375,-0.222657 0,-0.222656 -0.19922,-0.222656 -0.375,-0.222656 h -7.04297 c -0.17578,0 -0.38672,0 -0.38672,0.210938 0,0.234375 0.19922,0.234375 0.38672,0.234375 z m 0,2.214843 c 0.16406,0 0.375,0 0.375,-0.210937 0,-0.234375 -0.19922,-0.234375 -0.375,-0.234375 h -7.04297 c -0.17578,0 -0.38672,0 -0.38672,0.222656 0,0.222656 0.19922,0.222656 0.38672,0.222656 z m 0,0"
         style="fill:#000000;fill-opacity:1;fill-rule:nonzero;stroke:none" />
      <path
         id="path38"
         d="m 206.71409,73.328602 c 0.23437,0 0.32812,0 0.32812,-0.222657 0,-0.128906 -0.0937,-0.128906 -0.30469,-0.128906 h -0.97265 c 0.23437,-1.230469 0.39843,-2.074219 0.49218,-2.460937 0.0703,-0.28125 0.32813,-0.5625 0.63282,-0.5625 0.25781,0 0.5039,0.105468 0.62109,0.222656 -0.46875,0.04687 -0.60937,0.386719 -0.60937,0.597656 0,0.234375 0.1875,0.375 0.41015,0.375 0.23438,0 0.59766,-0.199219 0.59766,-0.65625 0,-0.503906 -0.50391,-0.773437 -1.03125,-0.773437 -0.51563,0 -1.00781,0.386718 -1.25391,0.84375 -0.21094,0.421875 -0.32812,0.855468 -0.60937,2.414062 h -0.79688 c -0.23437,0 -0.35156,0 -0.35156,0.222656 0,0.128907 0.0703,0.128907 0.31641,0.128907 h 0.76171 c -0.21093,1.113281 -0.70312,3.808593 -0.98437,5.085937 -0.19922,1.042969 -0.375,1.921875 -0.97266,1.921875 -0.0351,0 -0.38672,0 -0.59765,-0.234375 0.60937,-0.04687 0.60937,-0.574219 0.60937,-0.585937 0,-0.234375 -0.1875,-0.375 -0.41015,-0.375 -0.23438,0 -0.59766,0.199218 -0.59766,0.65625 0,0.515625 0.52734,0.773437 0.99609,0.773437 1.21875,0 1.72266,-2.191406 1.85157,-2.789062 0.21093,-0.914063 0.79687,-4.089844 0.85546,-4.453125 z m 0,0"
         style="fill:#000000;fill-opacity:1;fill-rule:nonzero;stroke:none" />
      <path
         id="path39"
         d="m 212.31858,81.039539 c 0,-0.03516 0,-0.05859 -0.21094,-0.269531 -1.19531,-1.207031 -1.86328,-3.175781 -1.86328,-5.613281 0,-2.320313 0.5625,-4.3125 1.94531,-5.730469 0.12891,-0.105469 0.12891,-0.128906 0.12891,-0.164063 0,-0.07031 -0.0703,-0.09375 -0.11719,-0.09375 -0.15234,0 -1.13672,0.855469 -1.72266,2.027344 -0.60937,1.207031 -0.8789,2.496094 -0.8789,3.960938 0,1.066406 0.16406,2.484375 0.78515,3.761718 0.70313,1.441407 1.6875,2.214844 1.81641,2.214844 0.0469,0 0.11719,-0.02344 0.11719,-0.09375 z m 0,0"
         style="fill:#000000;fill-opacity:1;fill-rule:nonzero;stroke:none" />
      <path
         id="path40"
         d="m 218.64084,73.258289 c -0.375,0.07031 -0.51562,0.351563 -0.51562,0.585938 0,0.28125 0.22266,0.375 0.38672,0.375 0.36328,0 0.60937,-0.304688 0.60937,-0.632813 0,-0.492187 -0.57422,-0.726562 -1.07812,-0.726562 -0.72656,0 -1.125,0.714843 -1.24219,0.949218 -0.26953,-0.902343 -1.00781,-0.949218 -1.23047,-0.949218 -1.21875,0 -1.86328,1.570312 -1.86328,1.828125 0,0.04687 0.0469,0.105468 0.12891,0.105468 0.10547,0 0.1289,-0.07031 0.15234,-0.117187 0.39844,-1.324219 1.20703,-1.570313 1.54688,-1.570313 0.53906,0 0.64453,0.492188 0.64453,0.785157 0,0.257812 -0.0703,0.539062 -0.21094,1.113281 l -0.41016,1.628906 c -0.17578,0.726563 -0.52734,1.382813 -1.16015,1.382813 -0.0586,0 -0.35157,0 -0.60938,-0.152344 0.4336,-0.09375 0.52735,-0.445313 0.52735,-0.585938 0,-0.246093 -0.17579,-0.386718 -0.39844,-0.386718 -0.29297,0 -0.59766,0.246093 -0.59766,0.632812 0,0.503906 0.5625,0.726563 1.06641,0.726563 0.57422,0 0.98437,-0.457032 1.23047,-0.9375 0.19922,0.703125 0.79687,0.9375 1.23047,0.9375 1.23046,0 1.875,-1.558594 1.875,-1.828125 0,-0.05859 -0.0469,-0.105469 -0.12891,-0.105469 -0.10547,0 -0.11719,0.05859 -0.15234,0.152344 -0.31641,1.054687 -1.01954,1.546875 -1.54688,1.546875 -0.42187,0 -0.65625,-0.316407 -0.65625,-0.808594 0,-0.257813 0.0586,-0.445313 0.24609,-1.242188 l 0.42188,-1.617187 c 0.17578,-0.726563 0.58594,-1.242188 1.125,-1.242188 0.0352,0 0.36328,0 0.60937,0.152344 z m 0,0"
         style="fill:#000000;fill-opacity:1;fill-rule:nonzero;stroke:none" />
      <path
         id="path41"
         d="m 227.06077,75.367664 h 3.30468 c 0.16407,0 0.375,0 0.375,-0.210937 0,-0.222657 -0.19922,-0.222657 -0.375,-0.222657 h -3.30468 v -3.304687 c 0,-0.164063 0,-0.386719 -0.21094,-0.386719 -0.23438,0 -0.23438,0.210938 -0.23438,0.386719 v 3.304687 h -3.29297 c -0.17578,0 -0.38671,0 -0.38671,0.210938 0,0.222656 0.19921,0.222656 0.38671,0.222656 h 3.29297 v 3.304688 c 0,0.164062 0,0.386718 0.22266,0.386718 0.22266,0 0.22266,-0.210937 0.22266,-0.386718 z m 0,0"
         style="fill:#000000;fill-opacity:1;fill-rule:nonzero;stroke:none" />
      <path
         id="path42"
         d="m 237.19163,79.469227 c -0.31641,0.457031 -0.78516,0.867187 -1.3711,0.867187 -0.14062,0 -0.71484,-0.02344 -0.90234,-0.574219 0.0469,0.01172 0.10547,0.01172 0.1289,0.01172 0.35157,0 0.59766,-0.316406 0.59766,-0.585937 0,-0.28125 -0.23437,-0.375 -0.41016,-0.375 -0.1875,0 -0.60937,0.140625 -0.60937,0.726562 0,0.609375 0.51562,1.03125 1.19531,1.03125 1.19531,0 2.40235,-1.101562 2.74219,-2.425781 l 1.17187,-4.664063 c 0.0117,-0.05859 0.0352,-0.128906 0.0352,-0.199218 0,-0.175782 -0.15234,-0.304688 -0.32812,-0.304688 -0.10547,0 -0.36329,0.04687 -0.45704,0.410156 l -0.8789,3.515625 c -0.0586,0.210938 -0.0586,0.234375 -0.15235,0.375 -0.24609,0.328125 -0.64453,0.738282 -1.20703,0.738282 -0.67968,0 -0.73828,-0.65625 -0.73828,-0.984375 0,-0.679688 0.32813,-1.605469 0.64453,-2.460938 0.14063,-0.351562 0.21094,-0.515625 0.21094,-0.75 0,-0.503906 -0.36328,-0.960937 -0.94922,-0.960937 -1.10156,0 -1.53515,1.734375 -1.53515,1.828125 0,0.04687 0.0469,0.105468 0.1289,0.105468 0.10547,0 0.11719,-0.04687 0.16406,-0.210937 0.29297,-1.007813 0.73829,-1.476563 1.20704,-1.476563 0.10546,0 0.3164,0 0.3164,0.386719 0,0.316406 -0.14062,0.65625 -0.3164,1.113281 -0.58594,1.570313 -0.58594,1.957032 -0.58594,2.25 0,1.136719 0.80859,1.394532 1.40625,1.394532 0.35156,0 0.78515,-0.105469 1.19531,-0.550782 l 0.0117,0.01172 c -0.17578,0.703125 -0.29297,1.171875 -0.71484,1.757813 z m 0,0"
         style="fill:#000000;fill-opacity:1;fill-rule:nonzero;stroke:none" />
      <path
         id="path43"
         d="m 243.5637,75.156727 c 0,-0.914063 -0.12891,-2.390625 -0.79688,-3.773438 -0.70312,-1.441406 -1.67578,-2.214844 -1.81641,-2.214844 -0.0469,0 -0.10546,0.02344 -0.10546,0.09375 0,0.03516 0,0.05859 0.19921,0.269532 1.19532,1.207031 1.875,3.175781 1.875,5.613281 0,2.320312 -0.5625,4.3125 -1.95703,5.730469 -0.11718,0.105468 -0.11718,0.128906 -0.11718,0.164062 0,0.07031 0.0586,0.09375 0.10546,0.09375 0.16407,0 1.13672,-0.855469 1.72266,-2.027344 0.60938,-1.21875 0.89063,-2.519531 0.89063,-3.949218 z m 8.60156,0.210937 h 3.30469 c 0.16406,0 0.375,0 0.375,-0.210937 0,-0.222657 -0.19922,-0.222657 -0.375,-0.222657 h -3.30469 v -3.304687 c 0,-0.164063 0,-0.386719 -0.21094,-0.386719 -0.23437,0 -0.23437,0.210938 -0.23437,0.386719 v 3.304687 h -3.29297 c -0.17578,0 -0.38672,0 -0.38672,0.210938 0,0.222656 0.19922,0.222656 0.38672,0.222656 h 3.29297 v 3.304688 c 0,0.164062 0,0.386718 0.22265,0.386718 0.22266,0 0.22266,-0.210937 0.22266,-0.386718 z m 10.43262,-4.898437 c 0,-0.269532 0,-0.28125 -0.2461,-0.28125 -0.28125,0.316406 -0.8789,0.761718 -2.10937,0.761718 v 0.351563 c 0.26953,0 0.86718,0 1.52343,-0.316406 v 6.222656 c 0,0.433594 -0.0352,0.574219 -1.07812,0.574219 h -0.375 v 0.351562 c 0.31641,-0.02344 1.47656,-0.02344 1.875,-0.02344 0.39844,0 1.54687,0 1.86328,0.02344 v -0.351562 h -0.36328 c -1.05469,0 -1.08984,-0.140625 -1.08984,-0.574219 z m 0,0"
         style="fill:#000000;fill-opacity:1;fill-rule:nonzero;stroke:none" />
      <path
         id="path44"
         d="m 136.52756,102.5493 c -0.375,0.0703 -0.51562,0.35157 -0.51562,0.58594 0,0.28125 0.22265,0.375 0.38672,0.375 0.36328,0 0.60937,-0.30469 0.60937,-0.63281 0,-0.49219 -0.57422,-0.72656 -1.07812,-0.72656 -0.72657,0 -1.125,0.71484 -1.24219,0.94922 -0.26953,-0.90235 -1.00781,-0.94922 -1.23047,-0.94922 -1.21875,0 -1.86328,1.57031 -1.86328,1.82812 0,0.0469 0.0469,0.10547 0.12891,0.10547 0.10546,0 0.1289,-0.0703 0.15234,-0.11719 0.39844,-1.32422 1.20703,-1.57031 1.54687,-1.57031 0.53907,0 0.64454,0.49219 0.64454,0.78516 0,0.25781 -0.0703,0.53906 -0.21094,1.11328 l -0.41016,1.6289 c -0.17578,0.72657 -0.52734,1.38282 -1.16015,1.38282 -0.0586,0 -0.35157,0 -0.60938,-0.15235 0.43359,-0.0937 0.52734,-0.44531 0.52734,-0.58593 0,-0.2461 -0.17578,-0.38672 -0.39843,-0.38672 -0.29297,0 -0.59766,0.24609 -0.59766,0.63281 0,0.50391 0.5625,0.72656 1.06641,0.72656 0.57422,0 0.98437,-0.45703 1.23047,-0.9375 0.19921,0.70313 0.79687,0.9375 1.23046,0.9375 1.23047,0 1.875,-1.55859 1.875,-1.82812 0,-0.0586 -0.0469,-0.10547 -0.1289,-0.10547 -0.10547,0 -0.11719,0.0586 -0.15235,0.15234 -0.3164,1.05469 -1.01953,1.54688 -1.54687,1.54688 -0.42188,0 -0.65625,-0.31641 -0.65625,-0.8086 0,-0.25781 0.0586,-0.44531 0.24609,-1.24218 l 0.42188,-1.61719 c 0.17578,-0.72656 0.58594,-1.24219 1.125,-1.24219 0.0351,0 0.36328,0 0.60937,0.15234 z m 0,0"
         style="fill:#000000;fill-opacity:1;fill-rule:nonzero;stroke:none" />
      <path
         id="path45"
         d="m 147.81272,108.76024 c -0.31641,0.45703 -0.78516,0.86719 -1.37109,0.86719 -0.14063,0 -0.71485,-0.0234 -0.90235,-0.57422 0.0469,0.0117 0.10547,0.0117 0.12891,0.0117 0.35156,0 0.59765,-0.31641 0.59765,-0.58594 0,-0.28125 -0.23437,-0.375 -0.41015,-0.375 -0.1875,0 -0.60938,0.14063 -0.60938,0.72656 0,0.60938 0.51563,1.03125 1.19532,1.03125 1.19531,0 2.40234,-1.10156 2.74218,-2.42578 l 1.17188,-4.66406 c 0.0117,-0.0586 0.0351,-0.12891 0.0351,-0.19922 0,-0.17578 -0.15234,-0.30469 -0.32812,-0.30469 -0.10547,0 -0.36328,0.0469 -0.45703,0.41016 l -0.87891,3.51563 c -0.0586,0.21093 -0.0586,0.23437 -0.15234,0.375 -0.2461,0.32812 -0.64453,0.73828 -1.20703,0.73828 -0.67969,0 -0.73828,-0.65625 -0.73828,-0.98438 0,-0.67969 0.32812,-1.60547 0.64453,-2.46094 0.14062,-0.35156 0.21093,-0.51562 0.21093,-0.75 0,-0.5039 -0.36328,-0.96093 -0.94921,-0.96093 -1.10157,0 -1.53516,1.73437 -1.53516,1.82812 0,0.0469 0.0469,0.10547 0.12891,0.10547 0.10546,0 0.11718,-0.0469 0.16406,-0.21094 0.29297,-1.00781 0.73828,-1.47656 1.20703,-1.47656 0.10547,0 0.31641,0 0.31641,0.38672 0,0.31641 -0.14063,0.65625 -0.31641,1.11328 -0.58594,1.57031 -0.58594,1.95703 -0.58594,2.25 0,1.13672 0.8086,1.39453 1.40625,1.39453 0.35156,0 0.78516,-0.10547 1.19531,-0.55078 l 0.0117,0.0117 c -0.17578,0.70312 -0.29297,1.17187 -0.71484,1.75781 z m 0,0"
         style="fill:#000000;fill-opacity:1;fill-rule:nonzero;stroke:none" />
      <path
         id="path46"
         d="m 26.02268,200.81981 c -0.210938,0.0117 -0.257813,0.0234 -0.257813,0.12891 0,0.11719 0.05859,0.11719 0.28125,0.11719 h 0.550781 c 1.007813,0 1.464844,0.84375 1.464844,1.99218 0,1.5586 -0.808594,1.98047 -1.394531,1.98047 -0.574219,0 -1.558594,-0.28125 -1.898438,-1.0664 0.375,0.0586 0.726563,-0.15235 0.726563,-0.58594 0,-0.33984 -0.257813,-0.58594 -0.585938,-0.58594 -0.292968,0 -0.597656,0.16406 -0.597656,0.6211 0,1.0664 1.066406,1.93359 2.390625,1.93359 1.417969,0 2.472656,-1.07813 2.472656,-2.28516 0,-1.10156 -0.890625,-1.96875 -2.027343,-2.16797 1.03125,-0.30468 1.699218,-1.17187 1.699218,-2.10937 0,-0.9375 -0.972656,-1.62891 -2.132812,-1.62891 -1.195313,0 -2.085938,0.72657 -2.085938,1.59375 0,0.48047 0.375,0.57422 0.550782,0.57422 0.257812,0 0.539062,-0.17578 0.539062,-0.53906 0,-0.375 -0.28125,-0.53906 -0.550781,-0.53906 -0.07031,0 -0.09375,0 -0.128906,0.0117 0.457031,-0.82032 1.582031,-0.82032 1.640625,-0.82032 0.386718,0 1.171875,0.17578 1.171875,1.34766 0,0.23437 -0.03516,0.90234 -0.386719,1.41797 -0.351563,0.52734 -0.761719,0.5625 -1.089844,0.57422 z m 7.095703,-3.375 c 0,-0.26953 0,-0.28125 -0.246094,-0.28125 -0.28125,0.31641 -0.878906,0.76172 -2.109375,0.76172 v 0.35156 c 0.269531,0 0.867188,0 1.523438,-0.3164 v 6.22265 c 0,0.4336 -0.03516,0.57422 -1.078125,0.57422 h -0.375 v 0.35157 c 0.316406,-0.0234 1.476562,-0.0234 1.875,-0.0234 0.398437,0 1.546875,0 1.863281,0.0234 v -0.35157 h -0.363281 c -1.054688,0 -1.089844,-0.14062 -1.089844,-0.57422 z m 0,0"
         style="fill:#000000;fill-opacity:1;fill-rule:nonzero;stroke:none" />
      <path
         id="path47"
         d="m 310.31077,197.44481 c 0,-0.26953 0,-0.28125 -0.2461,-0.28125 -0.28125,0.31641 -0.8789,0.76172 -2.10937,0.76172 v 0.35156 c 0.26953,0 0.86718,0 1.52343,-0.3164 v 6.22265 c 0,0.4336 -0.0351,0.57422 -1.07812,0.57422 h -0.375 v 0.35157 c 0.31641,-0.0234 1.47656,-0.0234 1.875,-0.0234 0.39844,0 1.54687,0 1.86328,0.0234 v -0.35157 h -0.36328 c -1.05469,0 -1.08984,-0.14062 -1.08984,-0.57422 z m 0,0"
         style="fill:#000000;fill-opacity:1;fill-rule:nonzero;stroke:none" />
      <path
         id="path48"
         d="m 335.18967,200.81981 c -0.21094,0.0117 -0.25781,0.0234 -0.25781,0.12891 0,0.11719 0.0586,0.11719 0.28125,0.11719 h 0.55078 c 1.00781,0 1.46484,0.84375 1.46484,1.99218 0,1.5586 -0.80859,1.98047 -1.39453,1.98047 -0.57422,0 -1.55859,-0.28125 -1.89843,-1.0664 0.375,0.0586 0.72656,-0.15235 0.72656,-0.58594 0,-0.33984 -0.25781,-0.58594 -0.58594,-0.58594 -0.29297,0 -0.59766,0.16406 -0.59766,0.6211 0,1.0664 1.06641,1.93359 2.39063,1.93359 1.41797,0 2.47266,-1.07813 2.47266,-2.28516 0,-1.10156 -0.89063,-1.96875 -2.02735,-2.16797 1.03125,-0.30468 1.69922,-1.17187 1.69922,-2.10937 0,-0.9375 -0.97266,-1.62891 -2.13281,-1.62891 -1.19531,0 -2.08594,0.72657 -2.08594,1.59375 0,0.48047 0.375,0.57422 0.55078,0.57422 0.25781,0 0.53906,-0.17578 0.53906,-0.53906 0,-0.375 -0.28125,-0.53906 -0.55078,-0.53906 -0.0703,0 -0.0937,0 -0.1289,0.0117 0.45703,-0.82032 1.58203,-0.82032 1.64062,-0.82032 0.38672,0 1.17188,0.17578 1.17188,1.34766 0,0.23437 -0.0352,0.90234 -0.38672,1.41797 -0.35156,0.52734 -0.76172,0.5625 -1.08985,0.57422 z m 7.09571,-3.375 c 0,-0.26953 0,-0.28125 -0.2461,-0.28125 -0.28125,0.31641 -0.8789,0.76172 -2.10937,0.76172 v 0.35156 c 0.26953,0 0.86718,0 1.52343,-0.3164 v 6.22265 c 0,0.4336 -0.0352,0.57422 -1.07812,0.57422 h -0.375 v 0.35157 c 0.31641,-0.0234 1.47656,-0.0234 1.875,-0.0234 0.39844,0 1.54687,0 1.86328,0.0234 v -0.35157 h -0.36328 c -1.05469,0 -1.08984,-0.14062 -1.08984,-0.57422 z m 0,0"
         style="fill:#000000;fill-opacity:1;fill-rule:nonzero;stroke:none" />
      <path
         id="path49"
         d="m 388.15842,200.94872 c 0,-3.02344 1.47656,-3.50391 2.1211,-3.50391 0.43359,0 0.85546,0.12891 1.08984,0.49219 -0.14063,0 -0.59766,0 -0.59766,0.49219 0,0.25781 0.17578,0.49219 0.49219,0.49219 0.29297,0 0.49219,-0.1875 0.49219,-0.52735 0,-0.62109 -0.44531,-1.23047 -1.48828,-1.23047 -1.51172,0 -3.08203,1.53516 -3.08203,4.17188 0,3.28125 1.42968,4.01953 2.44921,4.01953 1.30079,0 2.41407,-1.125 2.41407,-2.68359 0,-1.59375 -1.11328,-2.66016 -2.3086,-2.66016 -1.0664,0 -1.45312,0.92578 -1.58203,1.26562 z m 1.47656,4.08984 c -0.75,0 -1.11328,-0.66797 -1.21875,-0.92578 -0.10546,-0.30469 -0.22265,-0.89062 -0.22265,-1.73437 0,-0.9375 0.42187,-2.1211 1.5,-2.1211 0.65625,0 1.00781,0.44532 1.18359,0.84375 0.1875,0.44532 0.1875,1.04297 0.1875,1.5586 0,0.60937 0,1.14843 -0.22265,1.60547 -0.30469,0.57421 -0.72657,0.77343 -1.20704,0.77343 z m 0,0"
         style="fill:#000000;fill-opacity:1;fill-rule:nonzero;stroke:none" />
      <path
         id="path50"
         d="m 130.49534,214.77977 c 0,-0.26953 0,-0.28125 -0.2461,-0.28125 -0.28125,0.31641 -0.8789,0.76172 -2.10937,0.76172 v 0.35156 c 0.26953,0 0.86718,0 1.52343,-0.3164 v 6.22265 c 0,0.4336 -0.0351,0.57422 -1.07812,0.57422 h -0.375 v 0.35157 c 0.31641,-0.0234 1.47656,-0.0234 1.875,-0.0234 0.39844,0 1.54687,0 1.86328,0.0234 v -0.35157 h -0.36328 c -1.05469,0 -1.08984,-0.14062 -1.08984,-0.57422 z m 0,0"
         style="fill:#000000;fill-opacity:1;fill-rule:nonzero;stroke:none" />
      <path
         id="path51"
         d="m 155.42698,218.15477 c -0.21094,0.0117 -0.25782,0.0234 -0.25782,0.12891 0,0.11719 0.0586,0.11719 0.28125,0.11719 h 0.55079 c 1.00781,0 1.46484,0.84375 1.46484,1.99218 0,1.5586 -0.80859,1.98047 -1.39453,1.98047 -0.57422,0 -1.5586,-0.28125 -1.89844,-1.0664 0.375,0.0586 0.72656,-0.15235 0.72656,-0.58594 0,-0.33984 -0.25781,-0.58594 -0.58593,-0.58594 -0.29297,0 -0.59766,0.16406 -0.59766,0.6211 0,1.0664 1.06641,1.93359 2.39062,1.93359 1.41797,0 2.47266,-1.07813 2.47266,-2.28516 0,-1.10156 -0.89062,-1.96875 -2.02734,-2.16797 1.03125,-0.30468 1.69922,-1.17187 1.69922,-2.10937 0,-0.9375 -0.97266,-1.62891 -2.13282,-1.62891 -1.19531,0 -2.08593,0.72657 -2.08593,1.59375 0,0.48047 0.375,0.57422 0.55078,0.57422 0.25781,0 0.53906,-0.17578 0.53906,-0.53906 0,-0.375 -0.28125,-0.53906 -0.55078,-0.53906 -0.0703,0 -0.0937,0 -0.12891,0.0117 0.45703,-0.82032 1.58203,-0.82032 1.64063,-0.82032 0.38672,0 1.17187,0.17578 1.17187,1.34766 0,0.23437 -0.0351,0.90234 -0.38672,1.41797 -0.35156,0.52734 -0.76172,0.5625 -1.08984,0.57422 z m 7.0957,-3.375 c 0,-0.26953 0,-0.28125 -0.24609,-0.28125 -0.28125,0.31641 -0.87891,0.76172 -2.10938,0.76172 v 0.35156 c 0.26953,0 0.86719,0 1.52344,-0.3164 v 6.22265 c 0,0.4336 -0.0352,0.57422 -1.07813,0.57422 h -0.375 v 0.35157 c 0.31641,-0.0234 1.47657,-0.0234 1.875,-0.0234 0.39844,0 1.54688,0 1.86328,0.0234 v -0.35157 h -0.36328 c -1.05468,0 -1.08984,-0.14062 -1.08984,-0.57422 z m 0,0"
         style="fill:#000000;fill-opacity:1;fill-rule:nonzero;stroke:none" />
    </g>
  </g>
</svg>
