<?xml version="1.0" encoding="UTF-8" standalone="no"?>
<!-- Created with Inkscape (http://www.inkscape.org/) -->

<svg
   version="1.1"
   id="svg1"
   width="794.55066"
   height="1123.6533"
   viewBox="0 0 794.55066 1123.6533"
   sodipodi:docname="LigaMatematycznaMatuskiego_Gim_Zestaw3_2017_2018_page0.pdf"
   xmlns:inkscape="http://www.inkscape.org/namespaces/inkscape"
   xmlns:sodipodi="http://sodipodi.sourceforge.net/DTD/sodipodi-0.dtd"
   xmlns="http://www.w3.org/2000/svg"
   xmlns:svg="http://www.w3.org/2000/svg">
  <defs
     id="defs1" />
  <sodipodi:namedview
     id="namedview1"
     pagecolor="#ffffff"
     bordercolor="#000000"
     borderopacity="0.25"
     inkscape:showpageshadow="2"
     inkscape:pageopacity="0.0"
     inkscape:pagecheckerboard="0"
     inkscape:deskcolor="#d1d1d1">
    <inkscape:page
       x="0"
       y="0"
       inkscape:label="1"
       id="page1"
       width="794.55066"
       height="1123.6533"
       margin="0"
       bleed="0" />
  </sodipodi:namedview>
  <g
     id="g1"
     inkscape:groupmode="layer"
     inkscape:label="1">
    <g
       id="g2"
       aria-label="LIGAMATEMATYCZNA&#10;im.ZdzisªawaMatuskiego&#10;GRUDZIE2017&#10;GIMNAZJUM&#10;(klasaVIIszkoªypodstawowej,klasaIIiIIIgimnazjum)&#10;ZADANIE1.&#10;Wtrójk¡tprostok¡tnyoprzyprostok¡tnych5i12wpisanookr¡g.Oblicznajmniejsz¡zodle-&#10;gªo±ciwierzchoªkak¡taprostegoodpunktówtegookr¦gu.&#10;ZADANIE2.&#10;W2001rokuAdammiaªdwarazytylelat,ilewynosisumacyfrrokujegourodzenia.Ostatni¡&#10;cyfr¡rokuurodzeniaAdamajest7.Ilelatb¦dziemiaªAdamw2018roku?&#10;ZADANIE3.&#10;Wyka»,»edlaka»dejliczbynaturalnejnwarto±¢wyra»enia&#10;1"
       transform="matrix(1.3333333,0,0,1.3333333,274.724,56.069333)">
      <path
         id="path2"
         d="m 81.930633,116.52027 c 0.503906,0.16406 0.925781,0.17578 1.054687,0.17578 1.359375,0 2.214844,-0.9961 2.214844,-1.16016 0,-0.0469 -0.02344,-0.10547 -0.09375,-0.10547 -0.02344,0 -0.04687,0 -0.152344,0.0469 -0.667968,0.28125 -1.242187,0.3164 -1.558593,0.3164 -0.785157,0 -1.347657,-0.23437 -1.582032,-0.32812 -0.08203,-0.0352 -0.105468,-0.0352 -0.117187,-0.0352 -0.09375,0 -0.09375,0.0703 -0.09375,0.25781 v 3.55079 c 0,0.21093 0,0.29296 0.140625,0.29296 0.05859,0 0.07031,-0.0117 0.199219,-0.16406 0.328125,-0.49219 0.890625,-0.77344 1.488281,-0.77344 0.632812,0 0.949219,0.58594 1.042969,0.78516 0.199218,0.46875 0.210937,1.05469 0.210937,1.51172 0,0.45703 0,1.13672 -0.328125,1.67578 -0.269531,0.42188 -0.738281,0.72656 -1.253906,0.72656 -0.796875,0 -1.570313,-0.53906 -1.78125,-1.40625 0.05859,0.0234 0.128906,0.0352 0.1875,0.0352 0.199219,0 0.527344,-0.12891 0.527344,-0.52734 0,-0.33985 -0.234375,-0.52735 -0.527344,-0.52735 -0.210938,0 -0.527344,0.10547 -0.527344,0.57422 0,1.00781 0.808594,2.16797 2.144531,2.16797 1.347657,0 2.53125,-1.125 2.53125,-2.64844 0,-1.41797 -0.960937,-2.60156 -2.214843,-2.60156 -0.679688,0 -1.207032,0.29297 -1.511719,0.63281 z m 0,0"
         style="fill:#000000;fill-opacity:1;fill-rule:nonzero;stroke:none" />
      <path
         id="path3"
         d="m 101.5068,115.69995 c 0,-0.26953 0,-0.28125 -0.24609,-0.28125 -0.28125,0.31641 -0.87891,0.76172 -2.109374,0.76172 v 0.35156 c 0.269531,0 0.867184,0 1.523434,-0.3164 v 6.22265 c 0,0.4336 -0.0352,0.57422 -1.078122,0.57422 h -0.375 v 0.35157 c 0.316407,-0.0234 1.476562,-0.0234 1.875002,-0.0234 0.39844,0 1.54687,0 1.86328,0.0234 v -0.35157 h -0.36328 c -1.05469,0 -1.08985,-0.14062 -1.08985,-0.57422 z m 7.66993,5.66016 h -0.26953 c -0.0352,0.19922 -0.12891,0.85547 -0.2461,1.04297 -0.082,0.11719 -0.76172,0.11719 -1.125,0.11719 h -2.21484 c 0.32812,-0.28125 1.05469,-1.04297 1.37109,-1.33594 1.81641,-1.66406 2.48438,-2.28516 2.48438,-3.46875 0,-1.38281 -1.08985,-2.29688 -2.47266,-2.29688 -1.39453,0 -2.20312,1.1836 -2.20312,2.20313 0,0.60937 0.52734,0.60937 0.5625,0.60937 0.24609,0 0.5625,-0.17578 0.5625,-0.5625 0,-0.32812 -0.23438,-0.55078 -0.5625,-0.55078 -0.10547,0 -0.12891,0 -0.16407,0.0117 0.22266,-0.82031 0.86719,-1.37109 1.64063,-1.37109 1.01953,0 1.64062,0.85547 1.64062,1.95703 0,1.00781 -0.58593,1.89844 -1.26562,2.66015 l -2.41406,2.70704 v 0.28125 h 4.35937 z m 0,0"
         style="fill:#000000;fill-opacity:1;fill-rule:nonzero;stroke:none" />
      <path
         id="path4"
         d="m -127.38089,178.86988 h -0.26953 c -0.0352,0.19921 -0.12891,0.85546 -0.2461,1.04296 -0.082,0.11719 -0.76171,0.11719 -1.125,0.11719 h -2.21484 c 0.32813,-0.28125 1.05469,-1.04297 1.37109,-1.33594 1.81641,-1.66406 2.48438,-2.28515 2.48438,-3.46875 0,-1.38281 -1.08984,-2.29687 -2.47266,-2.29687 -1.39453,0 -2.20312,1.18359 -2.20312,2.20312 0,0.60938 0.52734,0.60938 0.5625,0.60938 0.24609,0 0.5625,-0.17578 0.5625,-0.5625 0,-0.32813 -0.23438,-0.55078 -0.5625,-0.55078 -0.10547,0 -0.12891,0 -0.16406,0.0117 0.22265,-0.82032 0.86718,-1.3711 1.64062,-1.3711 1.01953,0 1.64063,0.85547 1.64063,1.95703 0,1.00782 -0.58594,1.89844 -1.26563,2.66016 l -2.41406,2.70703 v 0.28125 h 4.35937 z m 5.94727,-1.81641 c 0,-0.99609 -0.0586,-1.96875 -0.49219,-2.87109 -0.49219,-0.9961 -1.34766,-1.25391 -1.9336,-1.25391 -0.6914,0 -1.54687,0.33984 -1.98046,1.33594 -0.33985,0.75 -0.45704,1.48828 -0.45704,2.78906 0,1.16016 0.082,2.02734 0.51563,2.87109 0.45703,0.91407 1.28906,1.19532 1.91016,1.19532 1.04296,0 1.64062,-0.6211 1.98046,-1.3125 0.4336,-0.89063 0.45704,-2.0625 0.45704,-2.75391 z m -2.4375,3.83203 c -0.38672,0 -1.16016,-0.21094 -1.38282,-1.52344 -0.14062,-0.71484 -0.14062,-1.61718 -0.14062,-2.46093 0,-0.97266 0,-1.86329 0.19922,-2.56641 0.19922,-0.79688 0.80859,-1.17188 1.32422,-1.17188 0.45703,0 1.14843,0.28125 1.37109,1.30079 0.15234,0.67968 0.15234,1.6289 0.15234,2.4375 0,0.80859 0,1.71093 -0.1289,2.4375 -0.22266,1.32421 -0.97266,1.54687 -1.39453,1.54687 z m 8.29101,-3.83203 c 0,-0.99609 -0.0586,-1.96875 -0.49219,-2.87109 -0.49218,-0.9961 -1.34765,-1.25391 -1.93359,-1.25391 -0.69141,0 -1.54688,0.33984 -1.98047,1.33594 -0.33984,0.75 -0.45703,1.48828 -0.45703,2.78906 0,1.16016 0.082,2.02734 0.51562,2.87109 0.45704,0.91407 1.28907,1.19532 1.91016,1.19532 1.04297,0 1.64063,-0.6211 1.98047,-1.3125 0.43359,-0.89063 0.45703,-2.0625 0.45703,-2.75391 z m -2.4375,3.83203 c -0.38672,0 -1.16016,-0.21094 -1.38281,-1.52344 -0.14063,-0.71484 -0.14063,-1.61718 -0.14063,-2.46093 0,-0.97266 0,-1.86329 0.19922,-2.56641 0.19922,-0.79688 0.8086,-1.17188 1.32422,-1.17188 0.45703,0 1.14844,0.28125 1.37109,1.30079 0.15235,0.67968 0.15235,1.6289 0.15235,2.4375 0,0.80859 0,1.71093 -0.12891,2.4375 -0.22265,1.32421 -0.97265,1.54687 -1.39453,1.54687 z m 6.38086,-7.67578 c 0,-0.26953 0,-0.28125 -0.24609,-0.28125 -0.28125,0.31641 -0.87891,0.76172 -2.10938,0.76172 v 0.35156 c 0.26953,0 0.86719,0 1.52344,-0.31641 v 6.22266 c 0,0.43359 -0.0352,0.57422 -1.07813,0.57422 h -0.375 v 0.35156 c 0.31641,-0.0234 1.47657,-0.0234 1.875,-0.0234 0.39844,0 1.54688,0 1.86329,0.0234 v -0.35156 h -0.36329 c -1.05468,0 -1.08984,-0.14063 -1.08984,-0.57422 z m 0,0"
         style="fill:#000000;fill-opacity:1;fill-rule:nonzero;stroke:none" />
      <path
         id="path5"
         d="m 29.500945,187.9021 v -0.28125 h -2.882812 c -1.453125,0 -1.476563,-0.15234 -1.523438,-0.38672 h -0.257812 l -0.375,2.39063 h 0.269531 c 0.03516,-0.21094 0.140625,-0.94922 0.292969,-1.07813 0.09375,-0.0703 0.996094,-0.0703 1.160156,-0.0703 h 2.53125 l -1.265625,1.81641 c -0.316406,0.45703 -1.523437,2.42578 -1.523437,4.66406 0,0.14062 0,0.60937 0.480468,0.60937 0.503907,0 0.503907,-0.45703 0.503907,-0.62109 v -0.59766 c 0,-1.78125 0.292968,-3.16406 0.855468,-3.96093 z m 0,0"
         style="fill:#000000;fill-opacity:1;fill-rule:nonzero;stroke:none" />
      <path
         id="path6"
         d="m 187.09763,193.31616 h -0.26954 c -0.0352,0.19922 -0.1289,0.85547 -0.24609,1.04297 -0.082,0.11719 -0.76172,0.11719 -1.125,0.11719 h -2.21484 c 0.32812,-0.28125 1.05468,-1.04297 1.37109,-1.33594 1.81641,-1.66406 2.48438,-2.28515 2.48438,-3.46875 0,-1.38281 -1.08985,-2.29687 -2.47266,-2.29687 -1.39453,0 -2.20313,1.18359 -2.20313,2.20312 0,0.60938 0.52735,0.60938 0.5625,0.60938 0.2461,0 0.5625,-0.17578 0.5625,-0.5625 0,-0.32813 -0.23437,-0.55078 -0.5625,-0.55078 -0.10546,0 -0.1289,0 -0.16406,0.0117 0.22266,-0.82032 0.86719,-1.3711 1.64063,-1.3711 1.01953,0 1.64062,0.85547 1.64062,1.95703 0,1.00782 -0.58594,1.89844 -1.26562,2.66016 l -2.41407,2.70703 v 0.28125 h 4.35938 z m 5.94726,-1.8164 c 0,-0.9961 -0.0586,-1.96875 -0.49219,-2.8711 -0.49218,-0.99609 -1.34765,-1.2539 -1.93359,-1.2539 -0.69141,0 -1.54688,0.33984 -1.98047,1.33594 -0.33984,0.75 -0.45703,1.48828 -0.45703,2.78906 0,1.16015 0.082,2.02734 0.51562,2.87109 0.45704,0.91406 1.28907,1.19531 1.91016,1.19531 1.04297,0 1.64063,-0.62109 1.98047,-1.3125 0.43359,-0.89062 0.45703,-2.0625 0.45703,-2.7539 z m -2.4375,3.83203 c -0.38672,0 -1.16016,-0.21094 -1.38281,-1.52344 -0.14063,-0.71484 -0.14063,-1.61719 -0.14063,-2.46094 0,-0.97265 0,-1.86328 0.19922,-2.5664 0.19922,-0.79688 0.8086,-1.17188 1.32422,-1.17188 0.45703,0 1.14844,0.28125 1.37109,1.30078 0.15235,0.67969 0.15235,1.62891 0.15235,2.4375 0,0.8086 0,1.71094 -0.12891,2.4375 -0.22265,1.32422 -0.97265,1.54688 -1.39453,1.54688 z m 6.38086,-7.67578 c 0,-0.26953 0,-0.28125 -0.24609,-0.28125 -0.28125,0.3164 -0.87891,0.76172 -2.10938,0.76172 v 0.35156 c 0.26953,0 0.86719,0 1.52344,-0.31641 v 6.22266 c 0,0.43359 -0.0352,0.57422 -1.07813,0.57422 h -0.375 v 0.35156 c 0.31641,-0.0234 1.47657,-0.0234 1.875,-0.0234 0.39844,0 1.54688,0 1.86329,0.0234 v -0.35156 h -0.36329 c -1.05468,0 -1.08984,-0.14063 -1.08984,-0.57422 z m 5.9707,3.35156 c 0.59766,-0.32812 1.46485,-0.87891 1.46485,-1.875 0,-1.04297 -0.9961,-1.75781 -2.09766,-1.75781 -1.18359,0 -2.12109,0.86719 -2.12109,1.95703 0,0.41016 0.1289,0.80859 0.45703,1.21875 0.1289,0.15234 0.14062,0.16406 0.98437,0.75 -1.16015,0.53906 -1.75781,1.34766 -1.75781,2.21484 0,1.26563 1.20703,2.05078 2.42578,2.05078 1.32422,0 2.4375,-0.97265 2.4375,-2.22656 0,-1.21875 -0.85547,-1.75781 -1.79297,-2.33203 z m -1.6289,-1.07812 c -0.15235,-0.10547 -0.63282,-0.42188 -0.63282,-1.00782 0,-0.77343 0.82032,-1.26562 1.61719,-1.26562 0.85547,0 1.62891,0.62109 1.62891,1.48828 0,0.72656 -0.52735,1.3125 -1.21875,1.6875 z m 0.5625,1.54687 1.45312,0.9375 c 0.30469,0.19922 0.85547,0.57422 0.85547,1.30078 0,0.91406 -0.91406,1.53516 -1.875,1.53516 -1.01953,0 -1.88672,-0.73828 -1.88672,-1.73438 0,-0.9375 0.67969,-1.6875 1.45313,-2.03906 z m 0,0"
         style="fill:#000000;fill-opacity:1;fill-rule:nonzero;stroke:none" />
      <path
         id="path7"
         d="m 54.171844,234.87964 c 0.02344,-0.0703 0.328125,-0.66797 0.761719,-1.05469 0.316406,-0.28125 0.726562,-0.46875 1.183593,-0.46875 0.480469,0 0.644532,0.35157 0.644532,0.83203 0,0.67969 -0.480469,2.03907 -0.726563,2.6836 -0.105469,0.29297 -0.164062,0.44531 -0.164062,0.66797 0,0.52734 0.375,0.96093 0.949218,0.96093 1.101563,0 1.523438,-1.75781 1.523438,-1.82812 0,-0.0586 -0.04687,-0.10547 -0.117188,-0.10547 -0.105468,0 -0.117187,0.0352 -0.175781,0.23438 -0.28125,0.98437 -0.738281,1.46484 -1.195312,1.46484 -0.128907,0 -0.316407,-0.0117 -0.316407,-0.39844 0,-0.29297 0.128907,-0.65625 0.199219,-0.82031 0.246094,-0.65625 0.75,-2.00391 0.75,-2.68359 0,-0.71485 -0.421875,-1.25391 -1.335937,-1.25391 -1.054688,0 -1.617188,0.75 -1.839844,1.05469 -0.03516,-0.67969 -0.527344,-1.05469 -1.042969,-1.05469 -0.386719,0 -0.644531,0.23437 -0.855469,0.63281 -0.210937,0.4336 -0.375,1.14844 -0.375,1.19531 0,0.0469 0.04687,0.10547 0.128907,0.10547 0.09375,0 0.105468,-0.0117 0.175781,-0.28125 0.1875,-0.72656 0.410156,-1.40625 0.890625,-1.40625 0.269531,0 0.363281,0.1875 0.363281,0.53907 0,0.26953 -0.117187,0.73828 -0.199219,1.10156 l -0.339843,1.28906 c -0.04687,0.23438 -0.175782,0.77344 -0.234375,0.98438 -0.08203,0.3164 -0.210938,0.8789 -0.210938,0.9375 0,0.16406 0.128906,0.29296 0.304688,0.29296 0.140625,0 0.316406,-0.0703 0.410156,-0.24609 0.02344,-0.0586 0.128906,-0.48047 0.1875,-0.71484 l 0.257812,-1.07813 z m 0,0"
         style="fill:#000000;fill-opacity:1;fill-rule:nonzero;stroke:none" />
      <path
         id="path8"
         d="m 31.89157,253.01148 c 0,-0.22266 -0.02344,-0.22266 -0.234375,-0.22266 -0.328125,0.31641 -0.75,0.50391 -1.511718,0.50391 v 0.26953 c 0.222656,0 0.644531,0 1.113281,-0.22266 v 4.08985 c 0,0.29296 -0.02344,0.39843 -0.785156,0.39843 h -0.28125 v 0.25782 c 0.328125,-0.0234 1.019531,-0.0234 1.371093,-0.0234 0.363282,0 1.054688,0 1.382813,0.0234 v -0.25782 h -0.28125 c -0.75,0 -0.773438,-0.10547 -0.773438,-0.39843 z m 0,0"
         style="fill:#000000;fill-opacity:1;fill-rule:nonzero;stroke:none" />
    </g>
    <path
       id="path9"
       d="M 0,0 H 4.234"
       style="fill:none;stroke:#000000;stroke-width:0.478;stroke-linecap:butt;stroke-linejoin:miter;stroke-miterlimit:10;stroke-dasharray:none;stroke-opacity:1"
       transform="matrix(1.3333333,0,0,-1.3333333,313.904,402.476)" />
    <g
       id="g9"
       aria-label="9&#10;(100&#10;n+1&#10;+4·10&#10;n+1&#10;+4)&#10;jestkwadratemliczbynaturalnej.&#10;ZADANIE4.&#10;Uzasadnij,»eje»elidolicznikaimianownikawªa±ciwegododatniegouªamkadodamy1,to&#10;otrzymamyuªamekwi¦kszyodwyj±ciowego.&#10;ZADANIE5.&#10;Natablicynapisanopi¦¢liczb,niekoniecznieró»nych.Dlaka»dejparytychliczbMikoªaj&#10;policzyªichsum¦izapisaªwyniki:&#10;1,2,3,5,5,6,7,8,9,10&#10;wymazuj¡cpocz¡tkoweliczby.Wyznaczwszystkiemo»liwewarto±ciiloczynuwymazanychliczb."
       transform="matrix(1.3333333,0,0,1.3333333,313.904,411.95733)">
      <path
         id="path10"
         d="m 3.1276641,-2.3556953 c 0,1.94531249 -0.9257813,2.28515624 -1.3945313,2.28515624 -0.1640625,0 -0.5742187,-0.0234375 -0.79687499,-0.26953125 0.35156249,-0.0351563 0.37499999,-0.29296875 0.37499999,-0.375 0,-0.24609375 -0.1757812,-0.37499999 -0.37499999,-0.37499999 -0.140625,0 -0.375,0.082031 -0.375,0.38671874 0,0.5390625 0.44531249,0.8671875 1.18359379,0.8671875 1.0898437,0 2.1210937,-1.078125 2.1210937,-2.78906254 0,-2.0742187 -0.9140625,-2.671875 -1.734375,-2.671875 -0.9375,0 -1.78124999,0.7265625 -1.78124999,1.7695313 0,1.03125 0.77343749,1.78125 1.67578129,1.78125 0.5625,0 0.9023437,-0.3632813 1.1015625,-0.7617188 z m -1.078125,0.3867187 c -0.3632813,0 -0.5976563,-0.1640625 -0.7734375,-0.4570312 -0.1757813,-0.3046875 -0.1757813,-0.6796875 -0.1757813,-1.0898438 0,-0.46875 0,-0.8085937 0.2109375,-1.125 0.1992188,-0.2929687 0.4570313,-0.4570312 0.8320313,-0.4570312 0.5273437,0 0.7617187,0.5273437 0.7851562,0.5742187 0.1757813,0.3867188 0.1757813,1.0078125 0.1757813,1.171875 0,0.6210938 -0.3398438,1.3828125 -1.0546875,1.3828125 z m 0,0"
         style="fill:#000000;fill-opacity:1;fill-rule:nonzero;stroke:none" />
      <path
         id="path11"
         d="m 11.313211,-1.2160469 c 0,-0.035156 0,-0.058594 -0.210938,-0.2695312 -1.1953121,-1.2070313 -1.8632808,-3.1757813 -1.8632808,-5.6132813 0,-2.3203125 0.5625,-4.3124996 1.9453128,-5.7304686 0.128906,-0.105469 0.128906,-0.128906 0.128906,-0.164063 0,-0.07031 -0.07031,-0.09375 -0.117188,-0.09375 -0.152343,0 -1.136718,0.855469 -1.7226558,2.027344 -0.609375,1.2070314 -0.8789063,2.4960939 -0.8789063,3.9609376 0,1.0664063 0.1640625,2.484375 0.7851563,3.7617188 0.7031248,1.4414062 1.6874998,2.2148437 1.8164058,2.2148437 0.04687,0 0.117188,-0.023437 0.117188,-0.09375 z m 4.107422,-10.5703121 c 0,-0.269532 0,-0.28125 -0.246094,-0.28125 -0.28125,0.316406 -0.878906,0.761718 -2.109375,0.761718 v 0.351563 c 0.269531,0 0.867188,0 1.523438,-0.316406 v 6.2226559 c 0,0.4335937 -0.03516,0.5742187 -1.078125,0.5742187 h -0.375 v 0.3515625 c 0.316406,-0.023437 1.476562,-0.023437 1.875,-0.023437 0.398437,0 1.546875,0 1.863281,0.023437 v -0.3515625 h -0.363281 c -1.054688,0 -1.089844,-0.140625 -1.089844,-0.5742187 z m 7.763672,3.8437496 c 0,-0.9960937 -0.05859,-1.96875 -0.492188,-2.8710936 -0.492187,-0.996094 -1.347656,-1.253906 -1.933594,-1.253906 -0.691406,0 -1.546875,0.339843 -1.980468,1.335937 -0.339844,0.7500001 -0.457032,1.4882814 -0.457032,2.7890626 0,1.1601563 0.08203,2.0273438 0.515625,2.8710938 0.457032,0.9140625 1.289063,1.1953125 1.910157,1.1953125 1.042968,0 1.640625,-0.6210938 1.980468,-1.3125 0.433594,-0.890625 0.457032,-2.0625 0.457032,-2.7539063 z m -2.4375,3.8320313 c -0.386719,0 -1.160157,-0.2109375 -1.382813,-1.5234375 -0.140625,-0.7148438 -0.140625,-1.6171875 -0.140625,-2.4609375 0,-0.9726563 0,-1.8632813 0.199219,-2.5664059 0.199219,-0.796875 0.808594,-1.171875 1.324219,-1.171875 0.457031,0 1.148437,0.28125 1.371093,1.300781 0.152344,0.6796874 0.152344,1.6289061 0.152344,2.4374999 0,0.8085937 0,1.7109375 -0.128906,2.4375 -0.222656,1.3242187 -0.972656,1.546875 -1.394531,1.546875 z m 8.291015,-3.8320313 c 0,-0.9960937 -0.05859,-1.96875 -0.492187,-2.8710936 -0.492188,-0.996094 -1.347656,-1.253906 -1.933594,-1.253906 -0.691406,0 -1.546875,0.339843 -1.980469,1.335937 -0.339843,0.7500001 -0.457031,1.4882814 -0.457031,2.7890626 0,1.1601563 0.08203,2.0273438 0.515625,2.8710938 0.457031,0.9140625 1.289063,1.1953125 1.910156,1.1953125 1.042969,0 1.640625,-0.6210938 1.980469,-1.3125 0.433594,-0.890625 0.457031,-2.0625 0.457031,-2.7539063 z m -2.4375,3.8320313 c -0.386718,0 -1.160156,-0.2109375 -1.382812,-1.5234375 -0.140625,-0.7148438 -0.140625,-1.6171875 -0.140625,-2.4609375 0,-0.9726563 0,-1.8632813 0.199219,-2.5664059 0.199218,-0.796875 0.808593,-1.171875 1.324218,-1.171875 0.457032,0 1.148438,0.28125 1.371094,1.300781 0.152344,0.6796874 0.152344,1.6289061 0.152344,2.4374999 0,0.8085937 0,1.7109375 -0.128906,2.4375 -0.222657,1.3242187 -0.972657,1.546875 -1.394532,1.546875 z m 0,0"
         style="fill:#000000;fill-opacity:1;fill-rule:nonzero;stroke:none" />
      <path
         id="path12"
         d="m 31.126688,-9.7736641 c 0.02344,-0.1171875 0.105468,-0.4218749 0.128906,-0.5390629 0.105469,-0.421875 0.105469,-0.433593 0.292969,-0.703125 0.257812,-0.386718 0.632812,-0.738281 1.171875,-0.738281 0.28125,0 0.457031,0.164063 0.457031,0.539063 0,0.445312 -0.339844,1.3476559 -0.492188,1.7460934 -0.105468,0.2578125 -0.105468,0.3046875 -0.105468,0.4101563 0,0.4570312 0.375,0.6796875 0.726562,0.6796875 0.773438,0 1.101563,-1.1132813 1.101563,-1.21875 0,-0.082031 -0.05859,-0.1054688 -0.117188,-0.1054688 -0.09375,0 -0.117187,0.058594 -0.140625,0.1289063 -0.1875,0.65625 -0.515625,0.9726562 -0.820312,0.9726562 -0.128907,0 -0.199219,-0.082031 -0.199219,-0.2695312 0,-0.1757813 0.07031,-0.3515625 0.152344,-0.5507813 0.117187,-0.3046875 0.46875,-1.2187504 0.46875,-1.6640624 0,-0.597656 -0.421875,-0.890625 -0.996094,-0.890625 -0.644531,0 -1.054688,0.386719 -1.289063,0.691406 -0.05859,-0.433594 -0.398437,-0.691406 -0.808593,-0.691406 -0.292969,0 -0.492188,0.1875 -0.609375,0.433594 -0.199219,0.375 -0.28125,0.773437 -0.28125,0.785156 0,0.07031 0.05859,0.105469 0.128906,0.105469 0.09375,0 0.105469,-0.03516 0.164062,-0.234375 0.09375,-0.398438 0.234375,-0.867188 0.574219,-0.867188 0.210938,0 0.257813,0.199219 0.257813,0.375 0,0.140625 -0.04687,0.292969 -0.105469,0.5625 -0.02344,0.05859 -0.140625,0.527344 -0.175781,0.644531 l -0.292969,1.1953129 c -0.02344,0.1171875 -0.07031,0.3164063 -0.07031,0.3515625 0,0.1757813 0.140625,0.2460938 0.246094,0.2460938 0.152344,0 0.269531,-0.09375 0.316406,-0.1992188 0.03516,-0.046875 0.09375,-0.3164062 0.128907,-0.4804687 z m 0,0"
         style="fill:#000000;fill-opacity:1;fill-rule:nonzero;stroke:none" />
      <path
         id="path13"
         d="m 38.140359,-10.265852 h 2.34375 c 0.117188,0 0.292969,0 0.292969,-0.1875 0,-0.1875 -0.175781,-0.1875 -0.292969,-0.1875 h -2.34375 v -2.34375 c 0,-0.117187 0,-0.292968 -0.175781,-0.292968 -0.1875,0 -0.1875,0.175781 -0.1875,0.292968 v 2.34375 h -2.34375 c -0.117187,0 -0.292969,0 -0.292969,0.1875 0,0.1875 0.175782,0.1875 0.292969,0.1875 h 2.34375 v 2.3437504 c 0,0.1171875 0,0.2929688 0.1875,0.2929688 0.175781,0 0.175781,-0.1757813 0.175781,-0.2929688 z m 5.625,-3.269531 c 0,-0.222656 -0.02344,-0.222656 -0.234375,-0.222656 -0.328125,0.316406 -0.75,0.503906 -1.511718,0.503906 v 0.269531 c 0.222656,0 0.644531,0 1.113281,-0.222656 v 4.0898439 c 0,0.2929688 -0.02344,0.3984375 -0.785156,0.3984375 h -0.28125 v 0.2578125 c 0.328125,-0.023437 1.019531,-0.023437 1.371093,-0.023437 0.363282,0 1.054688,0 1.382813,0.023437 v -0.2578125 h -0.28125 c -0.75,0 -0.773438,-0.1054687 -0.773438,-0.3984375 z m 0,0"
         style="fill:#000000;fill-opacity:1;fill-rule:nonzero;stroke:none" />
      <path
         id="path14"
         d="m 53.41868,-6.8879219 h 3.304687 c 0.164063,0 0.375,0 0.375,-0.2109375 0,-0.2226562 -0.199219,-0.2226562 -0.375,-0.2226562 H 53.41868 v -3.3046874 c 0,-0.164063 0,-0.386719 -0.210938,-0.386719 -0.234375,0 -0.234375,0.210938 -0.234375,0.386719 v 3.3046874 h -3.292969 c -0.175781,0 -0.386718,0 -0.386718,0.2109375 0,0.2226562 0.199218,0.2226562 0.386718,0.2226562 h 3.292969 v 3.3046875 c 0,0.1640625 0,0.3867188 0.222656,0.3867188 0.222657,0 0.222657,-0.2109375 0.222657,-0.3867188 z m 11.299804,-5.0156251 c 0,-0.222656 0,-0.292969 -0.164062,-0.292969 -0.09375,0 -0.128906,0 -0.222656,0.152344 l -3.597657,5.5781251 v 0.3515625 h 3.140625 v 1.078125 c 0,0.4453125 -0.02344,0.5625 -0.902343,0.5625 h -0.234375 v 0.3515625 c 0.269531,-0.023437 1.21875,-0.023437 1.558593,-0.023437 0.328125,0 1.289063,0 1.558594,0.023437 v -0.3515625 h -0.234375 c -0.867187,0 -0.902344,-0.1171875 -0.902344,-0.5625 v -1.078125 h 1.207032 v -0.3515625 h -1.207032 z m -0.785156,0.9375 v 4.5000001 h -2.90625 z m 0,0"
         style="fill:#000000;fill-opacity:1;fill-rule:nonzero;stroke:none" />
      <path
         id="path15"
         d="m 71.216531,-7.1105781 c 0,-0.3515625 -0.292968,-0.6328125 -0.632812,-0.6328125 -0.351563,0 -0.632813,0.28125 -0.632813,0.6328125 0,0.3515625 0.28125,0.6328125 0.632813,0.6328125 0.339844,0 0.632812,-0.28125 0.632812,-0.6328125 z m 0,0"
         style="fill:#000000;fill-opacity:1;fill-rule:nonzero;stroke:none" />
      <path
         id="path16"
         d="m 78.341531,-11.786359 c 0,-0.269532 0,-0.28125 -0.246093,-0.28125 -0.28125,0.316406 -0.878907,0.761718 -2.109375,0.761718 v 0.351563 c 0.269531,0 0.867187,0 1.523437,-0.316406 v 6.2226559 c 0,0.4335937 -0.03516,0.5742187 -1.078125,0.5742187 h -0.375 v 0.3515625 c 0.316406,-0.023437 1.476563,-0.023437 1.875,-0.023437 0.398438,0 1.546875,0 1.863281,0.023437 v -0.3515625 h -0.363281 c -1.054687,0 -1.089844,-0.140625 -1.089844,-0.5742187 z m 7.763672,3.8437496 c 0,-0.9960937 -0.05859,-1.96875 -0.492187,-2.8710936 -0.492188,-0.996094 -1.347657,-1.253906 -1.933594,-1.253906 -0.691406,0 -1.546875,0.339843 -1.980469,1.335937 -0.339844,0.7500001 -0.457031,1.4882814 -0.457031,2.7890626 0,1.1601563 0.08203,2.0273438 0.515625,2.8710938 0.457031,0.9140625 1.289062,1.1953125 1.910156,1.1953125 1.042969,0 1.640625,-0.6210938 1.980469,-1.3125 0.433594,-0.890625 0.457031,-2.0625 0.457031,-2.7539063 z m -2.4375,3.8320313 c -0.386719,0 -1.160156,-0.2109375 -1.382812,-1.5234375 -0.140625,-0.7148438 -0.140625,-1.6171875 -0.140625,-2.4609375 0,-0.9726563 0,-1.8632813 0.199218,-2.5664059 0.199219,-0.796875 0.808594,-1.171875 1.324219,-1.171875 0.457031,0 1.148438,0.28125 1.371094,1.300781 0.152344,0.6796874 0.152344,1.6289061 0.152344,2.4374999 0,0.8085937 0,1.7109375 -0.128907,2.4375 -0.222656,1.3242187 -0.972656,1.546875 -1.394531,1.546875 z m 0,0"
         style="fill:#000000;fill-opacity:1;fill-rule:nonzero;stroke:none" />
      <path
         id="path17"
         d="m 88.197,-9.7736641 c 0.02344,-0.1171875 0.105469,-0.4218749 0.128906,-0.5390629 0.105469,-0.421875 0.105469,-0.433593 0.292969,-0.703125 0.257813,-0.386718 0.632813,-0.738281 1.171875,-0.738281 0.28125,0 0.457031,0.164063 0.457031,0.539063 0,0.445312 -0.339843,1.3476559 -0.492187,1.7460934 -0.105469,0.2578125 -0.105469,0.3046875 -0.105469,0.4101563 0,0.4570312 0.375,0.6796875 0.726563,0.6796875 0.773437,0 1.101562,-1.1132813 1.101562,-1.21875 0,-0.082031 -0.05859,-0.1054688 -0.117187,-0.1054688 -0.09375,0 -0.117188,0.058594 -0.140625,0.1289063 -0.1875,0.65625 -0.515625,0.9726562 -0.820313,0.9726562 -0.128906,0 -0.199219,-0.082031 -0.199219,-0.2695312 0,-0.1757813 0.07031,-0.3515625 0.152344,-0.5507813 0.117188,-0.3046875 0.46875,-1.2187504 0.46875,-1.6640624 0,-0.597656 -0.421875,-0.890625 -0.996094,-0.890625 -0.644531,0 -1.054687,0.386719 -1.289062,0.691406 -0.05859,-0.433594 -0.398438,-0.691406 -0.808594,-0.691406 -0.292969,0 -0.492187,0.1875 -0.609375,0.433594 -0.199219,0.375 -0.28125,0.773437 -0.28125,0.785156 0,0.07031 0.05859,0.105469 0.128906,0.105469 0.09375,0 0.105469,-0.03516 0.164063,-0.234375 0.09375,-0.398438 0.234375,-0.867188 0.574219,-0.867188 0.210937,0 0.257812,0.199219 0.257812,0.375 0,0.140625 -0.04687,0.292969 -0.105469,0.5625 -0.02344,0.05859 -0.140625,0.527344 -0.175781,0.644531 l -0.292969,1.1953129 c -0.02344,0.1171875 -0.07031,0.3164063 -0.07031,0.3515625 0,0.1757813 0.140625,0.2460938 0.246094,0.2460938 0.152343,0 0.269531,-0.09375 0.316406,-0.1992188 0.03516,-0.046875 0.09375,-0.3164062 0.128906,-0.4804687 z m 0,0"
         style="fill:#000000;fill-opacity:1;fill-rule:nonzero;stroke:none" />
      <path
         id="path18"
         d="m 95.207742,-10.265852 h 2.34375 c 0.117188,0 0.292969,0 0.292969,-0.1875 0,-0.1875 -0.175781,-0.1875 -0.292969,-0.1875 h -2.34375 v -2.34375 c 0,-0.117187 0,-0.292968 -0.175781,-0.292968 -0.1875,0 -0.1875,0.175781 -0.1875,0.292968 v 2.34375 h -2.34375 c -0.117188,0 -0.292969,0 -0.292969,0.1875 0,0.1875 0.175781,0.1875 0.292969,0.1875 h 2.34375 v 2.3437504 c 0,0.1171875 0,0.2929688 0.1875,0.2929688 0.175781,0 0.175781,-0.1757813 0.175781,-0.2929688 z m 5.627928,-3.269531 c 0,-0.222656 -0.0234,-0.222656 -0.23437,-0.222656 -0.32813,0.316406 -0.750003,0.503906 -1.511722,0.503906 v 0.269531 c 0.222656,0 0.644531,0 1.113282,-0.222656 v 4.0898439 c 0,0.2929688 -0.0234,0.3984375 -0.785157,0.3984375 h -0.28125 v 0.2578125 c 0.328125,-0.023437 1.019527,-0.023437 1.371097,-0.023437 0.36328,0 1.05468,0 1.38281,0.023437 v -0.2578125 h -0.28125 c -0.75,0 -0.77344,-0.1054687 -0.77344,-0.3984375 z m 0,0"
         style="fill:#000000;fill-opacity:1;fill-rule:nonzero;stroke:none" />
      <path
         id="path19"
         d="m 110.48606,-6.8879219 h 3.30469 c 0.16406,0 0.375,0 0.375,-0.2109375 0,-0.2226562 -0.19922,-0.2226562 -0.375,-0.2226562 h -3.30469 v -3.3046874 c 0,-0.164063 0,-0.386719 -0.21093,-0.386719 -0.23438,0 -0.23438,0.210938 -0.23438,0.386719 v 3.3046874 h -3.29297 c -0.17578,0 -0.38672,0 -0.38672,0.2109375 0,0.2226562 0.19922,0.2226562 0.38672,0.2226562 h 3.29297 v 3.3046875 c 0,0.1640625 0,0.3867188 0.22266,0.3867188 0.22265,0 0.22265,-0.2109375 0.22265,-0.3867188 z m 11.30274,-5.0156251 c 0,-0.222656 0,-0.292969 -0.16407,-0.292969 -0.0937,0 -0.1289,0 -0.22265,0.152344 l -3.59766,5.5781251 v 0.3515625 h 3.14063 v 1.078125 c 0,0.4453125 -0.0234,0.5625 -0.90235,0.5625 h -0.23437 v 0.3515625 c 0.26953,-0.023437 1.21875,-0.023437 1.55859,-0.023437 0.32813,0 1.28906,0 1.5586,0.023437 v -0.3515625 h -0.23438 c -0.86719,0 -0.90234,-0.1171875 -0.90234,-0.5625 v -1.078125 h 1.20703 v -0.3515625 h -1.20703 z m -0.78516,0.9375 v 4.5000001 h -2.90625 z m 5.70117,3.8671876 c 0,-0.9140625 -0.1289,-2.390625 -0.79687,-3.7734376 -0.70313,-1.441406 -1.67578,-2.214844 -1.81641,-2.214844 -0.0469,0 -0.10547,0.02344 -0.10547,0.09375 0,0.03516 0,0.05859 0.19922,0.269532 1.19531,1.207031 1.875,3.1757809 1.875,5.6132809 0,2.3203125 -0.5625,4.3125 -1.95703,5.7304687 -0.11719,0.1054688 -0.11719,0.1289063 -0.11719,0.1640625 0,0.070312 0.0586,0.09375 0.10547,0.09375 0.16406,0 1.13672,-0.8554687 1.72266,-2.0273437 0.60937,-1.21875 0.89062,-2.5195313 0.89062,-3.9492188 z m 0,0"
         style="fill:#000000;fill-opacity:1;fill-rule:nonzero;stroke:none" />
      <path
         id="path20"
         d="m 282.18919,55.687273 c 0,-0.269531 0,-0.28125 -0.2461,-0.28125 -0.28125,0.316407 -0.8789,0.761719 -2.10937,0.761719 v 0.351563 c 0.26953,0 0.86719,0 1.52344,-0.316407 v 6.222657 c 0,0.433593 -0.0352,0.574218 -1.07813,0.574218 h -0.375 v 0.351563 c 0.31641,-0.02344 1.47656,-0.02344 1.875,-0.02344 0.39844,0 1.54688,0 1.86328,0.02344 v -0.351563 h -0.36328 c -1.05469,0 -1.08984,-0.140625 -1.08984,-0.574218 z m 0,0"
         style="fill:#000000;fill-opacity:1;fill-rule:nonzero;stroke:none" />
      <path
         id="path21"
         d="m 2.4128203,152.05055 c 0,-0.26953 0,-0.28125 -0.2460937,-0.28125 -0.28125,0.31641 -0.8789063,0.76172 -2.10937504,0.76172 v 0.35157 c 0.26953125,0 0.8671875,0 1.52343754,-0.31641 v 6.22266 c 0,0.43359 -0.035156,0.57421 -1.07812504,0.57421 h -0.375 v 0.35157 c 0.31640625,-0.0234 1.47656254,-0.0234 1.87500004,-0.0234 0.3984375,0 1.546875,0 1.8632812,0.0234 v -0.35157 H 3.5026641 c -1.0546875,0 -1.0898438,-0.14062 -1.0898438,-0.57421 z m 0,0"
         style="fill:#000000;fill-opacity:1;fill-rule:nonzero;stroke:none" />
      <path
         id="path22"
         d="m 17.234109,157.71071 h -0.269531 c -0.03516,0.19922 -0.128906,0.85547 -0.246094,1.04297 -0.08203,0.11719 -0.761718,0.11719 -1.125,0.11719 h -2.214843 c 0.328125,-0.28125 1.054687,-1.04297 1.371093,-1.33594 1.816407,-1.66406 2.484375,-2.28516 2.484375,-3.46875 0,-1.38281 -1.089843,-2.29688 -2.472656,-2.29688 -1.394531,0 -2.203125,1.1836 -2.203125,2.20313 0,0.60937 0.527344,0.60937 0.5625,0.60937 0.246094,0 0.5625,-0.17578 0.5625,-0.5625 0,-0.32812 -0.234375,-0.55078 -0.5625,-0.55078 -0.105469,0 -0.128906,0 -0.164062,0.0117 0.222656,-0.82031 0.867187,-1.37109 1.640625,-1.37109 1.019531,0 1.640625,0.85547 1.640625,1.95703 0,1.00781 -0.585938,1.89844 -1.265625,2.66016 l -2.414063,2.70703 v 0.28125 h 4.359375 z m 0,0"
         style="fill:#000000;fill-opacity:1;fill-rule:nonzero;stroke:none" />
      <path
         id="path23"
         d="m 27.180398,155.42555 c -0.210937,0.0117 -0.257812,0.0234 -0.257812,0.12891 0,0.11719 0.05859,0.11719 0.28125,0.11719 h 0.550781 c 1.007813,0 1.464844,0.84375 1.464844,1.99219 0,1.55859 -0.808594,1.98046 -1.394531,1.98046 -0.574219,0 -1.558594,-0.28125 -1.898438,-1.0664 0.375,0.0586 0.726563,-0.15235 0.726563,-0.58594 0,-0.33984 -0.257813,-0.58594 -0.585938,-0.58594 -0.292969,0 -0.597656,0.16407 -0.597656,0.6211 0,1.0664 1.066406,1.93359 2.390625,1.93359 1.417969,0 2.472656,-1.07812 2.472656,-2.28516 0,-1.10156 -0.890625,-1.96875 -2.027344,-2.16796 1.03125,-0.30469 1.699219,-1.17188 1.699219,-2.10938 0,-0.9375 -0.972656,-1.62891 -2.132812,-1.62891 -1.195313,0 -2.085938,0.72657 -2.085938,1.59375 0,0.48047 0.375,0.57422 0.550781,0.57422 0.257813,0 0.539063,-0.17578 0.539063,-0.53906 0,-0.375 -0.28125,-0.53906 -0.550781,-0.53906 -0.07031,0 -0.09375,0 -0.128907,0.0117 0.457032,-0.82032 1.582032,-0.82032 1.640625,-0.82032 0.386719,0 1.171875,0.17579 1.171875,1.34766 0,0.23438 -0.03516,0.90234 -0.386718,1.41797 -0.351563,0.52734 -0.761719,0.5625 -1.089844,0.57422 z m 0,0"
         style="fill:#000000;fill-opacity:1;fill-rule:nonzero;stroke:none" />
      <path
         id="path24"
         d="m 39.517313,152.87087 c 0.503906,0.16406 0.925781,0.17578 1.054687,0.17578 1.359375,0 2.214844,-0.9961 2.214844,-1.16016 0,-0.0469 -0.02344,-0.10547 -0.09375,-0.10547 -0.02344,0 -0.04687,0 -0.152344,0.0469 -0.667969,0.28125 -1.242187,0.3164 -1.558594,0.3164 -0.785156,0 -1.347656,-0.23437 -1.582031,-0.32812 -0.08203,-0.0352 -0.105469,-0.0352 -0.117187,-0.0352 -0.09375,0 -0.09375,0.0703 -0.09375,0.25782 v 3.55078 c 0,0.21093 0,0.29297 0.140625,0.29297 0.05859,0 0.07031,-0.0117 0.199218,-0.16407 0.328125,-0.49218 0.890625,-0.77343 1.488282,-0.77343 0.632812,0 0.949218,0.58593 1.042968,0.78515 0.199219,0.46875 0.210938,1.05469 0.210938,1.51172 0,0.45703 0,1.13672 -0.328125,1.67578 -0.269531,0.42188 -0.738281,0.72656 -1.253906,0.72656 -0.796875,0 -1.570313,-0.53906 -1.78125,-1.40625 0.05859,0.0234 0.128906,0.0352 0.1875,0.0352 0.199218,0 0.527343,-0.12891 0.527343,-0.52734 0,-0.33985 -0.234375,-0.52735 -0.527343,-0.52735 -0.210938,0 -0.527344,0.10547 -0.527344,0.57422 0,1.00781 0.808594,2.16797 2.144531,2.16797 1.347656,0 2.53125,-1.125 2.53125,-2.64844 0,-1.41797 -0.960937,-2.60156 -2.214844,-2.60156 -0.679687,0 -1.207031,0.29297 -1.511718,0.63281 z m 0,0"
         style="fill:#000000;fill-opacity:1;fill-rule:nonzero;stroke:none" />
      <path
         id="path25"
         d="m 52.522195,152.87087 c 0.503907,0.16406 0.925782,0.17578 1.054688,0.17578 1.359375,0 2.214844,-0.9961 2.214844,-1.16016 0,-0.0469 -0.02344,-0.10547 -0.09375,-0.10547 -0.02344,0 -0.04687,0 -0.152344,0.0469 -0.667969,0.28125 -1.242188,0.3164 -1.558594,0.3164 -0.785156,0 -1.347656,-0.23437 -1.582031,-0.32812 -0.08203,-0.0352 -0.105469,-0.0352 -0.117188,-0.0352 -0.09375,0 -0.09375,0.0703 -0.09375,0.25782 v 3.55078 c 0,0.21093 0,0.29297 0.140625,0.29297 0.05859,0 0.07031,-0.0117 0.199219,-0.16407 0.328125,-0.49218 0.890625,-0.77343 1.488281,-0.77343 0.632813,0 0.949219,0.58593 1.042969,0.78515 0.199219,0.46875 0.210938,1.05469 0.210938,1.51172 0,0.45703 0,1.13672 -0.328125,1.67578 -0.269532,0.42188 -0.738282,0.72656 -1.253907,0.72656 -0.796875,0 -1.570312,-0.53906 -1.78125,-1.40625 0.05859,0.0234 0.128907,0.0352 0.1875,0.0352 0.199219,0 0.527344,-0.12891 0.527344,-0.52734 0,-0.33985 -0.234375,-0.52735 -0.527344,-0.52735 -0.210937,0 -0.527343,0.10547 -0.527343,0.57422 0,1.00781 0.808593,2.16797 2.144531,2.16797 1.347656,0 2.53125,-1.125 2.53125,-2.64844 0,-1.41797 -0.960938,-2.60156 -2.214844,-2.60156 -0.679687,0 -1.207031,0.29297 -1.511719,0.63281 z m 0,0"
         style="fill:#000000;fill-opacity:1;fill-rule:nonzero;stroke:none" />
      <path
         id="path26"
         d="m 65.456766,155.55446 c 0,-3.02344 1.476562,-3.50391 2.121093,-3.50391 0.433594,0 0.855469,0.12891 1.089844,0.49219 -0.140625,0 -0.597656,0 -0.597656,0.49219 0,0.25781 0.175781,0.49219 0.492187,0.49219 0.292969,0 0.492188,-0.1875 0.492188,-0.52735 0,-0.62109 -0.445313,-1.23047 -1.488281,-1.23047 -1.511719,0 -3.082032,1.53516 -3.082032,4.17188 0,3.28125 1.429688,4.01953 2.449219,4.01953 1.300781,0 2.414063,-1.125 2.414063,-2.68359 0,-1.59375 -1.113282,-2.66016 -2.308594,-2.66016 -1.066406,0 -1.453125,0.92578 -1.582031,1.26563 z m 1.476562,4.08984 c -0.75,0 -1.113281,-0.66796 -1.21875,-0.92578 -0.105469,-0.30468 -0.222656,-0.89062 -0.222656,-1.73437 0,-0.9375 0.421875,-2.1211 1.5,-2.1211 0.65625,0 1.007812,0.44532 1.183594,0.84375 0.1875,0.44532 0.1875,1.04297 0.1875,1.5586 0,0.60937 0,1.14844 -0.222657,1.60547 -0.304687,0.57422 -0.726562,0.77343 -1.207031,0.77343 z m 0,0"
         style="fill:#000000;fill-opacity:1;fill-rule:nonzero;stroke:none" />
      <path
         id="path27"
         d="m 82.680398,152.29665 v -0.28125 h -2.882812 c -1.453125,0 -1.476563,-0.15235 -1.523438,-0.38672 h -0.257812 l -0.375,2.39062 h 0.269531 c 0.03516,-0.21093 0.140625,-0.94921 0.292969,-1.07812 0.09375,-0.0703 0.996094,-0.0703 1.160156,-0.0703 h 2.53125 l -1.265625,1.8164 c -0.316406,0.45703 -1.523437,2.42578 -1.523437,4.66407 0,0.14062 0,0.60937 0.480468,0.60937 0.503907,0 0.503907,-0.45703 0.503907,-0.62109 v -0.59766 c 0,-1.78125 0.292968,-3.16406 0.855468,-3.96094 z m 0,0"
         style="fill:#000000;fill-opacity:1;fill-rule:nonzero;stroke:none" />
      <path
         id="path28"
         d="m 93.564188,155.40212 c 0.597656,-0.32813 1.464843,-0.87891 1.464843,-1.875 0,-1.04297 -0.996093,-1.75782 -2.097656,-1.75782 -1.183594,0 -2.121094,0.86719 -2.121094,1.95704 0,0.41015 0.128907,0.80859 0.457032,1.21875 0.128906,0.15234 0.140625,0.16406 0.984375,0.75 -1.160157,0.53906 -1.757813,1.34765 -1.757813,2.21484 0,1.26562 1.207031,2.05078 2.425781,2.05078 1.324219,0 2.4375,-0.97266 2.4375,-2.22656 0,-1.21875 -0.855468,-1.75781 -1.792968,-2.33203 z m -1.628907,-1.07813 c -0.152343,-0.10547 -0.632812,-0.42187 -0.632812,-1.00781 0,-0.77344 0.820312,-1.26563 1.617187,-1.26563 0.855469,0 1.628907,0.6211 1.628907,1.48829 0,0.72656 -0.527344,1.3125 -1.21875,1.6875 z m 0.5625,1.54688 1.453125,0.9375 c 0.304688,0.19922 0.855469,0.57422 0.855469,1.30078 0,0.91406 -0.914062,1.53515 -1.875,1.53515 -1.019531,0 -1.886719,-0.73828 -1.886719,-1.73437 0,-0.9375 0.679688,-1.6875 1.453125,-2.03906 z m 0,0"
         style="fill:#000000;fill-opacity:1;fill-rule:nonzero;stroke:none" />
      <path
         id="path29"
         d="m 107.37766,156.23415 c 0,2.82422 -1.2539,3.41015 -1.96875,3.41015 -0.28125,0 -0.92578,-0.0351 -1.21875,-0.45703 h 0.0703 c 0.082,0.0234 0.51562,-0.0469 0.51562,-0.49218 0,-0.25782 -0.17578,-0.49219 -0.49219,-0.49219 -0.30468,0 -0.5039,0.21094 -0.5039,0.51562 0,0.75 0.59765,1.24219 1.64062,1.24219 1.5,0 2.94141,-1.58203 2.94141,-4.18359 0,-3.21094 -1.33594,-4.00782 -2.39063,-4.00782 -1.3125,0 -2.47265,1.10157 -2.47265,2.67188 0,1.58203 1.11328,2.66016 2.30859,2.66016 0.87891,0 1.33594,-0.64454 1.57031,-1.25391 z m -1.52343,0.62109 c -0.75,0 -1.07813,-0.60937 -1.1836,-0.83203 -0.19922,-0.45703 -0.19922,-1.03125 -0.19922,-1.57031 0,-0.66797 0,-1.24219 0.31641,-1.73438 0.21094,-0.3164 0.53906,-0.66797 1.18359,-0.66797 0.67969,0 1.03125,0.59766 1.14844,0.87891 0.23438,0.58594 0.23438,1.59375 0.23438,1.78125 0,0.99609 -0.44532,2.14453 -1.5,2.14453 z m 0,0"
         style="fill:#000000;fill-opacity:1;fill-rule:nonzero;stroke:none" />
      <path
         id="path30"
         d="m 119.4597,152.05055 c 0,-0.26953 0,-0.28125 -0.2461,-0.28125 -0.28125,0.31641 -0.8789,0.76172 -2.10937,0.76172 v 0.35157 c 0.26953,0 0.86718,0 1.52343,-0.31641 v 6.22266 c 0,0.43359 -0.0352,0.57421 -1.07812,0.57421 h -0.375 v 0.35157 c 0.31641,-0.0234 1.47656,-0.0234 1.875,-0.0234 0.39844,0 1.54687,0 1.86328,0.0234 v -0.35157 h -0.36328 c -1.05469,0 -1.08984,-0.14062 -1.08984,-0.57421 z m 7.76074,3.84375 c 0,-0.99609 -0.0586,-1.96875 -0.49219,-2.87109 -0.49219,-0.99609 -1.34766,-1.25391 -1.93359,-1.25391 -0.69141,0 -1.54688,0.33985 -1.98047,1.33594 -0.33985,0.75 -0.45703,1.48828 -0.45703,2.78906 0,1.16016 0.082,2.02735 0.51562,2.8711 0.45703,0.91406 1.28906,1.19531 1.91016,1.19531 1.04297,0 1.64062,-0.62109 1.98047,-1.3125 0.43359,-0.89062 0.45703,-2.0625 0.45703,-2.75391 z m -2.4375,3.83204 c -0.38672,0 -1.16016,-0.21094 -1.38281,-1.52344 -0.14063,-0.71485 -0.14063,-1.61719 -0.14063,-2.46094 0,-0.97266 0,-1.86328 0.19922,-2.56641 0.19922,-0.79687 0.80859,-1.17187 1.32422,-1.17187 0.45703,0 1.14844,0.28125 1.37109,1.30078 0.15235,0.67969 0.15235,1.62891 0.15235,2.4375 0,0.80859 0,1.71094 -0.12891,2.4375 -0.22266,1.32422 -0.97266,1.54688 -1.39453,1.54688 z m 0,0"
         style="fill:#000000;fill-opacity:1;fill-rule:nonzero;stroke:none" />
    </g>
  </g>
</svg>
