<?xml version="1.0" encoding="UTF-8" standalone="no"?>
<!-- Created with Inkscape (http://www.inkscape.org/) -->

<svg
   version="1.1"
   id="svg1"
   width="794.55066"
   height="1123.6533"
   viewBox="0 0 794.55066 1123.6533"
   sodipodi:docname="LigaMatematycznaMatuskiego_Gim_Zestaw1_2011_2012_page0.pdf"
   xmlns:inkscape="http://www.inkscape.org/namespaces/inkscape"
   xmlns:sodipodi="http://sodipodi.sourceforge.net/DTD/sodipodi-0.dtd"
   xmlns="http://www.w3.org/2000/svg"
   xmlns:svg="http://www.w3.org/2000/svg">
  <defs
     id="defs1" />
  <sodipodi:namedview
     id="namedview1"
     pagecolor="#ffffff"
     bordercolor="#000000"
     borderopacity="0.25"
     inkscape:showpageshadow="2"
     inkscape:pageopacity="0.0"
     inkscape:pagecheckerboard="0"
     inkscape:deskcolor="#d1d1d1">
    <inkscape:page
       x="0"
       y="0"
       inkscape:label="1"
       id="page1"
       width="794.55066"
       height="1123.6533"
       margin="0"
       bleed="0" />
  </sodipodi:namedview>
  <g
     id="g1"
     inkscape:groupmode="layer"
     inkscape:label="1">
    <g
       id="g2"
       aria-label="LIGAMATEMATYCZNA&#10;PADZIERNIK2011&#10;GIMNAZJUM&#10;ZADANIE1.&#10;PolaPniektórychgurpªaskichmo»emyobliczy¢zewzoruSimpsona&#10;P=&#10;d&#10;1&#10;+4d+d&#10;2"
       transform="matrix(1.3333333,0,0,1.3333333,274.724,56.069333)">
      <path
         id="path2"
         d="m -118.1846,107.51148 h 2.0039 c 1.65235,0 3.30469,-1.21875 3.30469,-2.58985 0,-0.92578 -0.79687,-1.78125 -2.29687,-1.78125 h -3.69141 c -0.23437,0 -0.33984,0 -0.33984,0.23438 0,0.11719 0.10547,0.11719 0.29297,0.11719 0.72656,0 0.72656,0.0937 0.72656,0.22265 0,0.0234 0,0.0937 -0.0469,0.28125 l -1.61718,6.4336 c -0.10547,0.41015 -0.12891,0.52734 -0.96094,0.52734 -0.23438,0 -0.35156,0 -0.35156,0.22266 0,0.1289 0.10546,0.1289 0.17578,0.1289 0.23437,0 0.46875,-0.0234 0.6914,-0.0234 h 1.40625 c 0.22266,0 0.48047,0.0234 0.70313,0.0234 0.0937,0 0.22265,0 0.22265,-0.22265 0,-0.12891 -0.10546,-0.12891 -0.28125,-0.12891 -0.71484,0 -0.72656,-0.082 -0.72656,-0.19922 0,-0.0586 0.0117,-0.14062 0.0234,-0.19922 z m 0.85547,-3.55078 c 0.11718,-0.44532 0.16406,-0.46875 0.62109,-0.46875 h 1.18359 c 0.90235,0 1.64063,0.28125 1.64063,1.18359 0,0.30469 -0.15234,1.32422 -0.70313,1.875 -0.19921,0.21094 -0.77343,0.66797 -1.86328,0.66797 h -1.6875 z m 0,0"
         style="fill:#000000;fill-opacity:1;fill-rule:nonzero;stroke:none" />
      <path
         id="path3"
         d="m 42.098602,138.24683 h 2.003906 c 1.652344,0 3.304687,-1.21875 3.304687,-2.58985 0,-0.92578 -0.796875,-1.78125 -2.296875,-1.78125 h -3.691406 c -0.234375,0 -0.339844,0 -0.339844,0.23438 0,0.11719 0.105469,0.11719 0.292969,0.11719 0.726563,0 0.726563,0.0937 0.726563,0.22265 0,0.0234 0,0.0937 -0.04687,0.28125 l -1.617188,6.4336 c -0.105469,0.41015 -0.128906,0.52734 -0.960937,0.52734 -0.234375,0 -0.351563,0 -0.351563,0.22266 0,0.1289 0.105469,0.1289 0.175781,0.1289 0.234375,0 0.46875,-0.0234 0.691407,-0.0234 h 1.40625 c 0.222656,0 0.480468,0.0234 0.703125,0.0234 0.09375,0 0.222656,0 0.222656,-0.22265 0,-0.12891 -0.105469,-0.12891 -0.28125,-0.12891 -0.714844,0 -0.726563,-0.082 -0.726563,-0.19922 0,-0.0586 0.01172,-0.14062 0.02344,-0.19922 z m 0.855468,-3.55078 c 0.117188,-0.44532 0.164063,-0.46875 0.621094,-0.46875 h 1.183594 c 0.902344,0 1.640625,0.28125 1.640625,1.18359 0,0.30469 -0.152344,1.32422 -0.703125,1.875 -0.199219,0.21094 -0.773438,0.66797 -1.863281,0.66797 h -1.6875 z m 0,0"
         style="fill:#000000;fill-opacity:1;fill-rule:nonzero;stroke:none" />
      <path
         id="path4"
         d="m 59.125945,138.17652 c 0.164063,0 0.375,0 0.375,-0.22266 0,-0.22266 -0.199218,-0.22266 -0.375,-0.22266 h -7.042968 c -0.175782,0 -0.386719,0 -0.386719,0.21094 0,0.23438 0.199219,0.23438 0.386719,0.23438 z m 0,2.21484 c 0.164063,0 0.375,0 0.375,-0.21094 0,-0.23437 -0.199218,-0.23437 -0.375,-0.23437 h -7.042968 c -0.175782,0 -0.386719,0 -0.386719,0.22265 0,0.22266 0.199219,0.22266 0.386719,0.22266 z m 0,0"
         style="fill:#000000;fill-opacity:1;fill-rule:nonzero;stroke:none" />
      <path
         id="path5"
         d="m 70.686492,125.96265 c 0.01172,-0.0469 0.03516,-0.12891 0.03516,-0.1875 0,-0.11719 -0.117187,-0.11719 -0.140625,-0.11719 -0.01172,0 -0.597656,0.0469 -0.65625,0.0586 -0.210937,0.0117 -0.386718,0.0352 -0.597656,0.0469 -0.304687,0.0234 -0.386719,0.0352 -0.386719,0.25781 0,0.11719 0.09375,0.11719 0.269532,0.11719 0.585937,0 0.597656,0.10547 0.597656,0.22266 0,0.0703 -0.02344,0.17578 -0.03516,0.21093 l -0.738282,2.89453 c -0.128906,-0.30468 -0.445312,-0.78515 -1.066406,-0.78515 -1.359375,0 -2.8125,1.74609 -2.8125,3.51562 0,1.1836 0.691406,1.875 1.5,1.875 0.65625,0 1.21875,-0.51562 1.558594,-0.90234 0.117187,0.70312 0.679687,0.90234 1.042969,0.90234 0.351562,0 0.644531,-0.21093 0.855468,-0.64453 0.1875,-0.41015 0.363282,-1.13672 0.363282,-1.18359 0,-0.0586 -0.04687,-0.10547 -0.117188,-0.10547 -0.117187,0 -0.128906,0.0586 -0.175781,0.23437 -0.175781,0.71485 -0.398438,1.46485 -0.890625,1.46485 -0.351563,0 -0.375,-0.31641 -0.375,-0.55078 0,-0.0469 0,-0.30469 0.08203,-0.63282 z m -2.414062,6.57422 c -0.05859,0.19922 -0.05859,0.22265 -0.222657,0.44531 -0.269531,0.33984 -0.796875,0.85547 -1.359375,0.85547 -0.480468,0 -0.761718,-0.44531 -0.761718,-1.14844 0,-0.65625 0.375,-1.99219 0.597656,-2.49609 0.410156,-0.84375 0.972656,-1.26563 1.441406,-1.26563 0.785156,0 0.9375,0.97266 0.9375,1.06641 0,0.0117 -0.03516,0.17578 -0.04687,0.19922 z m 0,0"
         style="fill:#000000;fill-opacity:1;fill-rule:nonzero;stroke:none" />
      <path
         id="path6"
         d="m 73.264617,130.67359 c 0,-0.22266 -0.02344,-0.22266 -0.234375,-0.22266 -0.328125,0.31641 -0.75,0.50391 -1.511719,0.50391 v 0.26953 c 0.222657,0 0.644532,0 1.113282,-0.22266 v 4.08984 c 0,0.29297 -0.02344,0.39844 -0.785157,0.39844 h -0.28125 v 0.25781 c 0.328125,-0.0234 1.019532,-0.0234 1.371094,-0.0234 0.363281,0 1.054688,0 1.382813,0.0234 v -0.25781 h -0.28125 c -0.75,0 -0.773438,-0.10547 -0.773438,-0.39844 z m 0,0"
         style="fill:#000000;fill-opacity:1;fill-rule:nonzero;stroke:none" />
      <path
         id="path7"
         d="m 82.915008,131.18921 h 3.304687 c 0.164063,0 0.375,0 0.375,-0.21094 0,-0.22265 -0.199218,-0.22265 -0.375,-0.22265 h -3.304687 v -3.30469 c 0,-0.16406 0,-0.38672 -0.210938,-0.38672 -0.234375,0 -0.234375,0.21094 -0.234375,0.38672 v 3.30469 h -3.292968 c -0.175782,0 -0.386719,0 -0.386719,0.21093 0,0.22266 0.199219,0.22266 0.386719,0.22266 h 3.292968 v 3.30469 c 0,0.16406 0,0.38672 0.222657,0.38672 0.222656,0 0.222656,-0.21094 0.222656,-0.38672 z m 11.302734,-5.01562 c 0,-0.22266 0,-0.29297 -0.164062,-0.29297 -0.09375,0 -0.128907,0 -0.222657,0.15234 l -3.597656,5.57813 v 0.35156 h 3.140625 v 1.07812 c 0,0.44532 -0.02344,0.5625 -0.902344,0.5625 h -0.234375 v 0.35157 c 0.269532,-0.0234 1.21875,-0.0234 1.558594,-0.0234 0.328125,0 1.289063,0 1.558594,0.0234 v -0.35157 h -0.234375 c -0.867188,0 -0.902344,-0.11718 -0.902344,-0.5625 v -1.07812 h 1.207031 v -0.35156 h -1.207031 z m -0.785156,0.9375 v 4.5 h -2.90625 z m 0,0"
         style="fill:#000000;fill-opacity:1;fill-rule:nonzero;stroke:none" />
      <path
         id="path8"
         d="m 101.77048,125.96265 c 0.0117,-0.0469 0.0351,-0.12891 0.0351,-0.1875 0,-0.11719 -0.11718,-0.11719 -0.14062,-0.11719 -0.0117,0 -0.59766,0.0469 -0.65625,0.0586 -0.21094,0.0117 -0.38672,0.0352 -0.59766,0.0469 -0.30469,0.0234 -0.38672,0.0352 -0.38672,0.25781 0,0.11719 0.0937,0.11719 0.26953,0.11719 0.58594,0 0.59766,0.10547 0.59766,0.22266 0,0.0703 -0.0234,0.17578 -0.0352,0.21093 l -0.73828,2.89453 c -0.128903,-0.30468 -0.44531,-0.78515 -1.066403,-0.78515 -1.359375,0 -2.8125,1.74609 -2.8125,3.51562 0,1.1836 0.691406,1.875 1.5,1.875 0.65625,0 1.21875,-0.51562 1.558593,-0.90234 0.117188,0.70312 0.679688,0.90234 1.04297,0.90234 0.35156,0 0.64453,-0.21093 0.85547,-0.64453 0.1875,-0.41015 0.36328,-1.13672 0.36328,-1.18359 0,-0.0586 -0.0469,-0.10547 -0.11719,-0.10547 -0.11719,0 -0.1289,0.0586 -0.17578,0.23437 -0.17578,0.71485 -0.39844,1.46485 -0.89062,1.46485 -0.35157,0 -0.375,-0.31641 -0.375,-0.55078 0,-0.0469 0,-0.30469 0.082,-0.63282 z m -2.414066,6.57422 c -0.05859,0.19922 -0.05859,0.22265 -0.222656,0.44531 -0.269531,0.33984 -0.796875,0.85547 -1.359375,0.85547 -0.480469,0 -0.761719,-0.44531 -0.761719,-1.14844 0,-0.65625 0.375,-1.99219 0.597656,-2.49609 0.410157,-0.84375 0.972657,-1.26563 1.441407,-1.26563 0.785156,0 0.9375,0.97266 0.9375,1.06641 0,0.0117 -0.03516,0.17578 -0.04687,0.19922 z m 0,0"
         style="fill:#000000;fill-opacity:1;fill-rule:nonzero;stroke:none" />
      <path
         id="path9"
         d="m 109.27048,131.18921 h 3.30468 c 0.16407,0 0.375,0 0.375,-0.21094 0,-0.22265 -0.19921,-0.22265 -0.375,-0.22265 h -3.30468 v -3.30469 c 0,-0.16406 0,-0.38672 -0.21094,-0.38672 -0.23438,0 -0.23438,0.21094 -0.23438,0.38672 v 3.30469 h -3.29296 c -0.17579,0 -0.38672,0 -0.38672,0.21093 0,0.22266 0.19922,0.22266 0.38672,0.22266 h 3.29296 v 3.30469 c 0,0.16406 0,0.38672 0.22266,0.38672 0.22266,0 0.22266,-0.21094 0.22266,-0.38672 z m 0,0"
         style="fill:#000000;fill-opacity:1;fill-rule:nonzero;stroke:none" />
      <path
         id="path10"
         d="m 122.27243,125.96265 c 0.0117,-0.0469 0.0352,-0.12891 0.0352,-0.1875 0,-0.11719 -0.11719,-0.11719 -0.14063,-0.11719 -0.0117,0 -0.59766,0.0469 -0.65625,0.0586 -0.21094,0.0117 -0.38672,0.0352 -0.59766,0.0469 -0.30468,0.0234 -0.38671,0.0352 -0.38671,0.25781 0,0.11719 0.0937,0.11719 0.26953,0.11719 0.58593,0 0.59765,0.10547 0.59765,0.22266 0,0.0703 -0.0234,0.17578 -0.0352,0.21093 l -0.73828,2.89453 c -0.12891,-0.30468 -0.44532,-0.78515 -1.06641,-0.78515 -1.35938,0 -2.8125,1.74609 -2.8125,3.51562 0,1.1836 0.69141,1.875 1.5,1.875 0.65625,0 1.21875,-0.51562 1.55859,-0.90234 0.11719,0.70312 0.67969,0.90234 1.04297,0.90234 0.35156,0 0.64453,-0.21093 0.85547,-0.64453 0.1875,-0.41015 0.36328,-1.13672 0.36328,-1.18359 0,-0.0586 -0.0469,-0.10547 -0.11719,-0.10547 -0.11718,0 -0.1289,0.0586 -0.17578,0.23437 -0.17578,0.71485 -0.39843,1.46485 -0.89062,1.46485 -0.35156,0 -0.375,-0.31641 -0.375,-0.55078 0,-0.0469 0,-0.30469 0.082,-0.63282 z m -2.41406,6.57422 c -0.0586,0.19922 -0.0586,0.22265 -0.22266,0.44531 -0.26953,0.33984 -0.79687,0.85547 -1.35937,0.85547 -0.48047,0 -0.76172,-0.44531 -0.76172,-1.14844 0,-0.65625 0.375,-1.99219 0.59765,-2.49609 0.41016,-0.84375 0.97266,-1.26563 1.44141,-1.26563 0.78516,0 0.9375,0.97266 0.9375,1.06641 0,0.0117 -0.0352,0.17578 -0.0469,0.19922 z m 0,0"
         style="fill:#000000;fill-opacity:1;fill-rule:nonzero;stroke:none" />
      <path
         id="path11"
         d="m 124.59274,134.1189 c 0.12891,-0.11719 0.45703,-0.375 0.58594,-0.49219 0.49219,-0.45703 0.96094,-0.89062 0.96094,-1.61719 0,-0.94922 -0.79688,-1.55859 -1.79297,-1.55859 -0.94922,0 -1.58203,0.72656 -1.58203,1.42969 0,0.39843 0.3164,0.44531 0.42187,0.44531 0.16406,0 0.41016,-0.11719 0.41016,-0.42188 0,-0.41015 -0.39844,-0.41015 -0.49219,-0.41015 0.23438,-0.58594 0.77344,-0.78516 1.16016,-0.78516 0.73828,0 1.125,0.63281 1.125,1.30078 0,0.83203 -0.58594,1.42969 -1.52344,2.40235 l -1.00781,1.03125 c -0.0937,0.0937 -0.0937,0.10547 -0.0937,0.30468 h 3.15234 l 0.22266,-1.42968 h -0.2461 c -0.0234,0.16406 -0.082,0.5625 -0.17578,0.71484 -0.0469,0.0586 -0.65625,0.0586 -0.78515,0.0586 h -1.41797 z m 0,0"
         style="fill:#000000;fill-opacity:1;fill-rule:nonzero;stroke:none" />
    </g>
    <path
       id="path12"
       d="M 0,0 H 62.402"
       style="fill:none;stroke:#000000;stroke-width:0.478;stroke-linecap:butt;stroke-linejoin:miter;stroke-miterlimit:10;stroke-dasharray:none;stroke-opacity:1"
       transform="matrix(1.3333333,0,0,-1.3333333,360.956,241.476)" />
    <g
       id="g12"
       aria-label="6&#10;·h,&#10;wktórymprzyj¦tonast¦puj¡ceoznaczenia:&#10;d&#10;1&#10;&#10;dªugo±¢dolnejpodstawy;&#10;ddªugo±¢±rodkowegoodcinka,równolegªegodopodstawydolnejwpoªowiewysoko±ci;&#10;d&#10;2&#10;&#10;dªugo±¢górnejpodstawy;&#10;hwysoko±¢gury.&#10;•Wykonajrysunek,wprowad¹oznaczeniaisprawd¹,czyzewzoruSimpsonamo»naotrzy-&#10;ma¢wzórnapoletrapezu.Odpowied¹uzasadnij.&#10;•Sprawd¹,czyzewzoruSimpsonamo»nawyprowadzi¢wzórnapolesze±ciok¡taforemnego&#10;obokudªugo±cia.&#10;ZADANIE2.&#10;Wka»dymkrokuwykonujemynaliczbiejedn¡zoperacji:&#10;(a)podwajamyliczb¦;&#10;(b)skre±lamyjejostatni¡cyfr¦.&#10;Czywtakisposóbposko«czonejilo±cioperacjimo»nazliczby458uzyska¢14?&#10;ZADANIE3.&#10;Znajd¹wszystkieliczbydwucyfrowenspeªniaj¡cewarunek&#10;n−p=3·f(n),&#10;gdziepoznaczaliczb¦dwucyfrow¡powstaª¡zprzestawieniacyfrliczbyn,af(n)sum¦cyfr&#10;liczbynoraziloczynujejcyfr.&#10;ZADANIE4.&#10;Wyka»,»eliczba(2&#10;√"
       transform="matrix(1.3333333,0,0,1.3333333,398.656,256.39467)">
      <path
         id="path13"
         d="m 1.4650313,-4.1602578 c 0,-3.0234375 1.4765625,-3.5039063 2.1210937,-3.5039063 0.4335938,0 0.8554688,0.1289063 1.0898438,0.4921875 -0.140625,0 -0.5976563,0 -0.5976563,0.4921875 0,0.2578125 0.1757813,0.4921875 0.4921875,0.4921875 0.2929688,0 0.4921875,-0.1875 0.4921875,-0.5273437 0,-0.6210938 -0.4453125,-1.2304688 -1.4882812,-1.2304688 -1.5117188,0 -3.0820313,1.5351563 -3.0820313,4.171875 0,3.28125004 1.4296875,4.01953129 2.4492188,4.01953129 1.3007812,0 2.4140625,-1.125 2.4140625,-2.68359379 0,-1.59375 -1.1132813,-2.6601562 -2.3085938,-2.6601562 -1.0664062,0 -1.453125,0.9257812 -1.5820312,1.265625 z m 1.4765625,4.08984374 c -0.75,0 -1.1132813,-0.66796875 -1.21875,-0.92578125 C 1.617375,-1.3008828 1.5001875,-1.8868203 1.5001875,-2.7305703 c 0,-0.9375 0.421875,-2.1210938 1.5,-2.1210938 0.65625,0 1.0078125,0.4453125 1.1835938,0.84375 0.1875,0.4453125 0.1875,1.0429688 0.1875,1.5585938 0,0.609375 0,1.1484375 -0.2226563,1.60546874 -0.3046875,0.57421875 -0.7265625,0.7734375 -1.2070312,0.7734375 z m 0,0"
         style="fill:#000000;fill-opacity:1;fill-rule:nonzero;stroke:none" />
      <path
         id="path14"
         d="m 40.274602,-11.188578 c 0,-0.351563 -0.292969,-0.632813 -0.632813,-0.632813 -0.351562,0 -0.632812,0.28125 -0.632812,0.632813 0,0.351562 0.28125,0.632812 0.632812,0.632812 0.339844,0 0.632813,-0.28125 0.632813,-0.632812 z m 0,0"
         style="fill:#000000;fill-opacity:1;fill-rule:nonzero;stroke:none" />
      <path
         id="path15"
         d="m 47.3205,-16.192484 c 0.01172,-0.04687 0.03516,-0.128907 0.03516,-0.1875 0,-0.117188 -0.128906,-0.117188 -0.152343,-0.117188 -0.01172,0 -0.597657,0.04687 -0.65625,0.05859 -0.199219,0.01172 -0.375,0.03516 -0.597657,0.04687 -0.292968,0.02344 -0.375,0.03516 -0.375,0.257812 0,0.117188 0.09375,0.117188 0.257813,0.117188 0.585937,0 0.597656,0.105469 0.597656,0.222656 0,0.07031 -0.02344,0.175781 -0.03516,0.210938 l -1.734375,6.9140621 c -0.04687,0.1875 -0.04687,0.2109375 -0.04687,0.28125 0,0.2578125 0.199219,0.3046875 0.328125,0.3046875 0.199219,0 0.351562,-0.1523437 0.410156,-0.28125 l 0.539063,-2.1679686 c 0.05859,-0.257813 0.128906,-0.515625 0.199218,-0.773438 0.128907,-0.503906 0.128907,-0.515625 0.351563,-0.867187 0.234375,-0.339844 0.761719,-1.054688 1.6875,-1.054688 0.480469,0 0.644531,0.351563 0.644531,0.832032 0,0.667968 -0.46875,1.96875 -0.726562,2.6835934 -0.105469,0.2929687 -0.164063,0.4453125 -0.164063,0.6679687 0,0.5273438 0.363281,0.9609375 0.9375,0.9609375 1.113281,0 1.535156,-1.7578125 1.535156,-1.828125 0,-0.058594 -0.04687,-0.1054686 -0.117187,-0.1054686 -0.117188,0 -0.128906,0.035156 -0.1875,0.2343749 -0.269531,0.9609375 -0.714844,1.4648437 -1.195313,1.4648437 -0.117187,0 -0.304687,-0.011719 -0.304687,-0.3984375 0,-0.3046875 0.140625,-0.6914062 0.1875,-0.8203125 0.210937,-0.5742186 0.75,-1.9921876 0.75,-2.6835936 0,-0.714844 -0.410156,-1.253906 -1.324219,-1.253906 -0.679687,0 -1.277344,0.328125 -1.769531,0.949218 z m 5.707031,8.0390621 c 0,-0.6914062 -0.222656,-1.2070312 -0.714843,-1.2070312 -0.386719,0 -0.574219,0.3164062 -0.574219,0.5742187 0,0.2578125 0.175781,0.5859375 0.585937,0.5859375 0.152344,0 0.28125,-0.046875 0.386719,-0.1523437 0.02344,-0.023437 0.03516,-0.023437 0.04687,-0.023437 0.03516,0 0.03516,0.1640625 0.03516,0.2226562 0,0.3984375 -0.08203,1.171875 -0.773437,1.9453125 -0.128906,0.1523438 -0.128906,0.1757813 -0.128906,0.1992188 0,0.058594 0.05859,0.1171875 0.117187,0.1171875 0.09375,0 1.019531,-0.890625 1.019531,-2.2617188 z m 0,0"
         style="fill:#000000;fill-opacity:1;fill-rule:nonzero;stroke:none" />
      <path
         id="path16"
         d="m -235.15411,33.322164 c 0.0117,-0.04687 0.0352,-0.128906 0.0352,-0.1875 0,-0.117187 -0.11719,-0.117187 -0.14063,-0.117187 -0.0117,0 -0.59765,0.04687 -0.65625,0.05859 -0.21094,0.01172 -0.38672,0.03516 -0.59765,0.04687 -0.30469,0.02344 -0.38672,0.03516 -0.38672,0.257813 0,0.117187 0.0937,0.117187 0.26953,0.117187 0.58594,0 0.59765,0.105469 0.59765,0.222657 0,0.07031 -0.0234,0.175781 -0.0352,0.210937 l -0.73828,2.894531 c -0.12891,-0.304687 -0.44532,-0.785156 -1.06641,-0.785156 -1.35937,0 -2.8125,1.746094 -2.8125,3.515625 0,1.183594 0.69141,1.875 1.5,1.875 0.65625,0 1.21875,-0.515625 1.55859,-0.902344 0.11719,0.703125 0.67969,0.902344 1.04297,0.902344 0.35157,0 0.64453,-0.210937 0.85547,-0.644531 0.1875,-0.410156 0.36328,-1.136719 0.36328,-1.183594 0,-0.05859 -0.0469,-0.105469 -0.11718,-0.105469 -0.11719,0 -0.12891,0.05859 -0.17579,0.234375 -0.17578,0.714844 -0.39843,1.464844 -0.89062,1.464844 -0.35156,0 -0.375,-0.316406 -0.375,-0.550781 0,-0.04687 0,-0.304688 0.082,-0.632813 z m -2.41406,6.574219 c -0.0586,0.199219 -0.0586,0.222656 -0.22266,0.445312 -0.26953,0.339844 -0.79687,0.855469 -1.35937,0.855469 -0.48047,0 -0.76172,-0.445312 -0.76172,-1.148437 0,-0.65625 0.375,-1.992188 0.59765,-2.496094 0.41016,-0.84375 0.97266,-1.265625 1.44141,-1.265625 0.78516,0 0.9375,0.972656 0.9375,1.066406 0,0.01172 -0.0352,0.175781 -0.0469,0.199219 z m 0,0"
         style="fill:#000000;fill-opacity:1;fill-rule:nonzero;stroke:none" />
      <path
         id="path17"
         d="m -232.57598,38.033102 c 0,-0.222657 -0.0234,-0.222657 -0.23438,-0.222657 -0.32812,0.316407 -0.75,0.503907 -1.51172,0.503907 v 0.269531 c 0.22266,0 0.64453,0 1.11328,-0.222656 v 4.089843 c 0,0.292969 -0.0234,0.398438 -0.78515,0.398438 h -0.28125 v 0.257812 c 0.32812,-0.02344 1.01953,-0.02344 1.37109,-0.02344 0.36328,0 1.05469,0 1.38281,0.02344 v -0.257812 h -0.28125 c -0.75,0 -0.77343,-0.105469 -0.77343,-0.398438 z m 0,0"
         style="fill:#000000;fill-opacity:1;fill-rule:nonzero;stroke:none" />
      <path
         id="path18"
         d="m -235.15411,52.101461 c 0.0117,-0.04687 0.0352,-0.128906 0.0352,-0.1875 0,-0.117188 -0.11719,-0.117188 -0.14063,-0.117188 -0.0117,0 -0.59765,0.04687 -0.65625,0.05859 -0.21094,0.01172 -0.38672,0.03516 -0.59765,0.04687 -0.30469,0.02344 -0.38672,0.03516 -0.38672,0.257813 0,0.117187 0.0937,0.117187 0.26953,0.117187 0.58594,0 0.59765,0.105469 0.59765,0.222656 0,0.07031 -0.0234,0.175782 -0.0352,0.210938 l -0.73828,2.894531 c -0.12891,-0.304687 -0.44532,-0.785156 -1.06641,-0.785156 -1.35937,0 -2.8125,1.746094 -2.8125,3.515625 0,1.183594 0.69141,1.875 1.5,1.875 0.65625,0 1.21875,-0.515625 1.55859,-0.902344 0.11719,0.703125 0.67969,0.902344 1.04297,0.902344 0.35157,0 0.64453,-0.210938 0.85547,-0.644531 0.1875,-0.410157 0.36328,-1.136719 0.36328,-1.183594 0,-0.05859 -0.0469,-0.105469 -0.11718,-0.105469 -0.11719,0 -0.12891,0.05859 -0.17579,0.234375 -0.17578,0.714844 -0.39843,1.464844 -0.89062,1.464844 -0.35156,0 -0.375,-0.316406 -0.375,-0.550781 0,-0.04687 0,-0.304688 0.082,-0.632813 z m -2.41406,6.574219 c -0.0586,0.199218 -0.0586,0.222656 -0.22266,0.445312 -0.26953,0.339844 -0.79687,0.855469 -1.35937,0.855469 -0.48047,0 -0.76172,-0.445313 -0.76172,-1.148438 0,-0.65625 0.375,-1.992187 0.59765,-2.496093 0.41016,-0.84375 0.97266,-1.265625 1.44141,-1.265625 0.78516,0 0.9375,0.972656 0.9375,1.066406 0,0.01172 -0.0352,0.175781 -0.0469,0.199219 z m 0,0"
         style="fill:#000000;fill-opacity:1;fill-rule:nonzero;stroke:none" />
      <path
         id="path19"
         d="m -235.15411,70.880758 c 0.0117,-0.04687 0.0352,-0.128906 0.0352,-0.1875 0,-0.117188 -0.11719,-0.117188 -0.14063,-0.117188 -0.0117,0 -0.59765,0.04687 -0.65625,0.05859 -0.21094,0.01172 -0.38672,0.03516 -0.59765,0.04687 -0.30469,0.02344 -0.38672,0.03516 -0.38672,0.257813 0,0.117187 0.0937,0.117187 0.26953,0.117187 0.58594,0 0.59765,0.105469 0.59765,0.222656 0,0.07031 -0.0234,0.175782 -0.0352,0.210938 l -0.73828,2.894531 c -0.12891,-0.304687 -0.44532,-0.785156 -1.06641,-0.785156 -1.35937,0 -2.8125,1.746094 -2.8125,3.515625 0,1.183594 0.69141,1.875 1.5,1.875 0.65625,0 1.21875,-0.515625 1.55859,-0.902344 0.11719,0.703125 0.67969,0.902344 1.04297,0.902344 0.35157,0 0.64453,-0.210938 0.85547,-0.644531 0.1875,-0.410157 0.36328,-1.136719 0.36328,-1.183594 0,-0.05859 -0.0469,-0.105469 -0.11718,-0.105469 -0.11719,0 -0.12891,0.05859 -0.17579,0.234375 -0.17578,0.714844 -0.39843,1.464844 -0.89062,1.464844 -0.35156,0 -0.375,-0.316406 -0.375,-0.550781 0,-0.04687 0,-0.304688 0.082,-0.632813 z m -2.41406,6.574219 c -0.0586,0.199218 -0.0586,0.222656 -0.22266,0.445312 -0.26953,0.339844 -0.79687,0.855469 -1.35937,0.855469 -0.48047,0 -0.76172,-0.445313 -0.76172,-1.148438 0,-0.65625 0.375,-1.992187 0.59765,-2.496093 0.41016,-0.84375 0.97266,-1.265625 1.44141,-1.265625 0.78516,0 0.9375,0.972656 0.9375,1.066406 0,0.01172 -0.0352,0.175781 -0.0469,0.199219 z m 0,0"
         style="fill:#000000;fill-opacity:1;fill-rule:nonzero;stroke:none" />
      <path
         id="path20"
         d="m -232.8338,79.037008 c 0.12891,-0.117188 0.45703,-0.375 0.58594,-0.492188 0.49219,-0.457031 0.96094,-0.890625 0.96094,-1.617187 0,-0.949219 -0.79688,-1.558594 -1.79297,-1.558594 -0.94922,0 -1.58203,0.726563 -1.58203,1.429688 0,0.398437 0.3164,0.445312 0.42187,0.445312 0.16407,0 0.41016,-0.117187 0.41016,-0.421875 0,-0.410156 -0.39844,-0.410156 -0.49219,-0.410156 0.23438,-0.585938 0.77344,-0.785156 1.16016,-0.785156 0.73828,0 1.125,0.632812 1.125,1.300781 0,0.832031 -0.58594,1.429687 -1.52344,2.402344 l -1.00781,1.03125 c -0.0937,0.09375 -0.0937,0.105468 -0.0937,0.304687 h 3.15234 l 0.22266,-1.429687 h -0.2461 c -0.0234,0.164062 -0.082,0.5625 -0.17578,0.714843 -0.0469,0.05859 -0.65625,0.05859 -0.78515,0.05859 h -1.41797 z m 0,0"
         style="fill:#000000;fill-opacity:1;fill-rule:nonzero;stroke:none" />
      <path
         id="path21"
         d="m -237.80255,89.660055 c 0.0117,-0.04687 0.0352,-0.128907 0.0352,-0.1875 0,-0.117188 -0.12891,-0.117188 -0.15234,-0.117188 -0.0117,0 -0.59766,0.04687 -0.65625,0.05859 -0.19922,0.01172 -0.375,0.03516 -0.59766,0.04687 -0.29297,0.02344 -0.375,0.03516 -0.375,0.257812 0,0.117188 0.0937,0.117188 0.25781,0.117188 0.58594,0 0.59766,0.105469 0.59766,0.222656 0,0.07031 -0.0234,0.175781 -0.0352,0.210938 l -1.73437,6.914062 c -0.0469,0.1875 -0.0469,0.210938 -0.0469,0.28125 0,0.257813 0.19922,0.304688 0.32813,0.304688 0.19922,0 0.35156,-0.152344 0.41015,-0.28125 l 0.53907,-2.167969 c 0.0586,-0.257813 0.1289,-0.515625 0.19921,-0.773438 0.12891,-0.503906 0.12891,-0.515625 0.35157,-0.867187 0.23437,-0.339844 0.76172,-1.054688 1.6875,-1.054688 0.48047,0 0.64453,0.351563 0.64453,0.832032 0,0.667968 -0.46875,1.96875 -0.72656,2.683593 -0.10547,0.292969 -0.16407,0.445313 -0.16407,0.667969 0,0.527344 0.36328,0.960938 0.9375,0.960938 1.11328,0 1.53516,-1.757813 1.53516,-1.828125 0,-0.05859 -0.0469,-0.105469 -0.11719,-0.105469 -0.11719,0 -0.1289,0.03516 -0.1875,0.234375 -0.26953,0.960937 -0.71484,1.464844 -1.19531,1.464844 -0.11719,0 -0.30469,-0.01172 -0.30469,-0.398438 0,-0.304687 0.14063,-0.691406 0.1875,-0.820312 0.21094,-0.574219 0.75,-1.992188 0.75,-2.683594 0,-0.714844 -0.41015,-1.253906 -1.32422,-1.253906 -0.67968,0 -1.27734,0.328125 -1.76953,0.949218 z m 0,0"
         style="fill:#000000;fill-opacity:1;fill-rule:nonzero;stroke:none" />
      <path
         id="path22"
         d="m -218.42266,123.40713 c 0,-1.27735 -1.06641,-2.32032 -2.32032,-2.32032 -1.28906,0 -2.33203,1.06641 -2.33203,2.32032 0,1.26562 1.04297,2.32031 2.33203,2.32031 1.25391,0 2.32032,-1.04297 2.32032,-2.32031 z m 0,0"
         style="fill:#000000;fill-opacity:1;fill-rule:nonzero;stroke:none" />
      <path
         id="path23"
         d="m -218.42266,170.92959 c 0,-1.27735 -1.06641,-2.32032 -2.32032,-2.32032 -1.28906,0 -2.33203,1.06641 -2.33203,2.32032 0,1.26562 1.04297,2.32031 2.33203,2.32031 1.25391,0 2.32032,-1.04297 2.32032,-2.32031 z m 0,0"
         style="fill:#000000;fill-opacity:1;fill-rule:nonzero;stroke:none" />
      <path
         id="path24"
         d="m -123.68243,191.2792 c -0.0586,0.19921 -0.0586,0.22265 -0.22266,0.44531 -0.26953,0.33984 -0.79687,0.85547 -1.35937,0.85547 -0.48047,0 -0.76172,-0.44532 -0.76172,-1.14844 0,-0.65625 0.375,-1.99219 0.59766,-2.49609 0.41015,-0.84375 0.97265,-1.26563 1.4414,-1.26563 0.78516,0 0.9375,0.97266 0.9375,1.06641 0,0.0117 -0.0352,0.17578 -0.0469,0.19922 z m 0.76172,-3.07032 c -0.12891,-0.30468 -0.44531,-0.78515 -1.06641,-0.78515 -1.35937,0 -2.8125,1.74609 -2.8125,3.51562 0,1.1836 0.69141,1.875 1.5,1.875 0.65625,0 1.21875,-0.51562 1.5586,-0.90234 0.11718,0.70312 0.67968,0.90234 1.04297,0.90234 0.35156,0 0.64453,-0.21094 0.85546,-0.64453 0.1875,-0.41016 0.36329,-1.13672 0.36329,-1.18359 0,-0.0586 -0.0469,-0.10547 -0.11719,-0.10547 -0.11719,0 -0.12891,0.0586 -0.17578,0.23437 -0.17578,0.71485 -0.39844,1.46485 -0.89063,1.46485 -0.35156,0 -0.375,-0.31641 -0.375,-0.55078 0,-0.28125 0.0352,-0.41016 0.14063,-0.87891 0.082,-0.29297 0.15234,-0.5625 0.24609,-0.90234 0.43359,-1.79297 0.55078,-2.22657 0.55078,-2.29688 0,-0.16406 -0.14062,-0.29297 -0.3164,-0.29297 -0.375,0 -0.48047,0.41016 -0.50391,0.55078 z m 0,0"
         style="fill:#000000;fill-opacity:1;fill-rule:nonzero;stroke:none" />
      <path
         id="path25"
         d="m 88.822453,332.83877 c 0,-0.22266 0,-0.29297 -0.164062,-0.29297 -0.09375,0 -0.128907,0 -0.222657,0.15234 l -3.597656,5.57813 v 0.35156 h 3.140625 v 1.07812 c 0,0.44532 -0.02344,0.5625 -0.902344,0.5625 h -0.234375 v 0.35157 c 0.269532,-0.0234 1.21875,-0.0234 1.558594,-0.0234 0.328125,0 1.289063,0 1.558594,0.0234 v -0.35157 h -0.234375 c -0.867188,0 -0.902344,-0.11718 -0.902344,-0.5625 v -1.07812 h 1.207031 v -0.35156 h -1.207031 z m -0.785156,0.9375 v 4.5 h -2.90625 z m 3.861328,0 c 0.503906,0.16406 0.925781,0.17578 1.054688,0.17578 1.359375,0 2.214843,-0.9961 2.214843,-1.16016 0,-0.0469 -0.02344,-0.10547 -0.09375,-0.10547 -0.02344,0 -0.04687,0 -0.152343,0.0469 -0.667969,0.28125 -1.242188,0.3164 -1.558594,0.3164 -0.785156,0 -1.347656,-0.23437 -1.582031,-0.32812 -0.08203,-0.0352 -0.105469,-0.0352 -0.117188,-0.0352 -0.09375,0 -0.09375,0.0703 -0.09375,0.25781 v 3.55079 c 0,0.21093 0,0.29296 0.140625,0.29296 0.05859,0 0.07031,-0.0117 0.199219,-0.16406 0.328125,-0.49219 0.890625,-0.77344 1.488281,-0.77344 0.632813,0 0.949219,0.58594 1.042969,0.78516 0.199219,0.46875 0.210937,1.05469 0.210937,1.51172 0,0.45703 0,1.13672 -0.328125,1.67578 -0.269531,0.42188 -0.738281,0.72656 -1.253906,0.72656 -0.796875,0 -1.570312,-0.53906 -1.78125,-1.40625 0.05859,0.0234 0.128906,0.0352 0.1875,0.0352 0.199219,0 0.527344,-0.12891 0.527344,-0.52734 0,-0.33985 -0.234375,-0.52735 -0.527344,-0.52735 -0.210937,0 -0.527344,0.10547 -0.527344,0.57422 0,1.00781 0.808594,2.16797 2.144532,2.16797 1.347656,0 2.53125,-1.125 2.53125,-2.64844 0,-1.41797 -0.960938,-2.60156 -2.214844,-2.60156 -0.679688,0 -1.207031,0.29297 -1.511719,0.63281 z m 7.880859,2.53125 c 0.597656,-0.32813 1.464846,-0.87891 1.464846,-1.875 0,-1.04297 -0.9961,-1.75782 -2.097658,-1.75782 -1.183594,0 -2.121094,0.86719 -2.121094,1.95703 0,0.41016 0.128906,0.8086 0.457031,1.21875 0.128907,0.15235 0.140625,0.16407 0.984375,0.75 -1.160156,0.53907 -1.757812,1.34766 -1.757812,2.21485 0,1.26562 1.207031,2.05078 2.425781,2.05078 1.324217,0 2.437497,-0.97266 2.437497,-2.22656 0,-1.21875 -0.85547,-1.75782 -1.792966,-2.33203 z m -1.628906,-1.07813 c -0.152344,-0.10547 -0.632812,-0.42187 -0.632812,-1.00781 0,-0.77344 0.820312,-1.26563 1.617187,-1.26563 0.855469,0 1.628907,0.6211 1.628907,1.48828 0,0.72657 -0.52734,1.3125 -1.218751,1.6875 z m 0.5625,1.54688 1.453122,0.9375 c 0.30469,0.19921 0.85547,0.57421 0.85547,1.30078 0,0.91406 -0.91406,1.53515 -1.874998,1.53515 -1.019531,0 -1.886719,-0.73828 -1.886719,-1.73437 0,-0.9375 0.679688,-1.6875 1.453125,-2.03906 z m 0,0"
         style="fill:#000000;fill-opacity:1;fill-rule:nonzero;stroke:none" />
      <path
         id="path26"
         d="m 152.39374,332.95595 c 0,-0.26953 0,-0.28125 -0.24609,-0.28125 -0.28125,0.31641 -0.87891,0.76172 -2.10938,0.76172 v 0.35156 c 0.26953,0 0.86719,0 1.52344,-0.3164 v 6.22265 c 0,0.4336 -0.0352,0.57422 -1.07812,0.57422 h -0.375 v 0.35157 c 0.3164,-0.0234 1.47656,-0.0234 1.875,-0.0234 0.39843,0 1.54687,0 1.86328,0.0234 v -0.35157 h -0.36328 c -1.05469,0 -1.08985,-0.14062 -1.08985,-0.57422 z m 6.71778,-0.11718 c 0,-0.22266 0,-0.29297 -0.16407,-0.29297 -0.0937,0 -0.1289,0 -0.22265,0.15234 l -3.59766,5.57813 v 0.35156 h 3.14063 v 1.07812 c 0,0.44532 -0.0234,0.5625 -0.90235,0.5625 h -0.23437 v 0.35157 c 0.26953,-0.0234 1.21875,-0.0234 1.55859,-0.0234 0.32813,0 1.28906,0 1.55859,0.0234 v -0.35157 h -0.23437 c -0.86719,0 -0.90234,-0.11718 -0.90234,-0.5625 v -1.07812 h 1.20703 v -0.35156 h -1.20703 z m -0.78516,0.9375 v 4.5 h -2.90625 z m 0,0"
         style="fill:#000000;fill-opacity:1;fill-rule:nonzero;stroke:none" />
      <path
         id="path27"
         d="m -50.346492,388.84853 c 0.02344,-0.0703 0.328125,-0.66797 0.761719,-1.05469 0.316406,-0.28125 0.726562,-0.46875 1.183593,-0.46875 0.480469,0 0.644532,0.35157 0.644532,0.83204 0,0.67968 -0.480469,2.03906 -0.726563,2.68359 -0.105469,0.29297 -0.164062,0.44531 -0.164062,0.66797 0,0.52734 0.375,0.96094 0.949218,0.96094 1.101563,0 1.523438,-1.75782 1.523438,-1.82813 0,-0.0586 -0.04687,-0.10547 -0.117188,-0.10547 -0.105468,0 -0.117187,0.0352 -0.175781,0.23438 -0.28125,0.98437 -0.738281,1.46484 -1.195312,1.46484 -0.128907,0 -0.316407,-0.0117 -0.316407,-0.39844 0,-0.29297 0.128907,-0.65625 0.199219,-0.82031 0.246094,-0.65625 0.75,-2.00391 0.75,-2.68359 0,-0.71485 -0.421875,-1.25391 -1.335937,-1.25391 -1.054688,0 -1.617188,0.75 -1.839844,1.05469 -0.03516,-0.67969 -0.527344,-1.05469 -1.042969,-1.05469 -0.386719,0 -0.644531,0.23438 -0.855469,0.63281 -0.210937,0.4336 -0.375,1.14844 -0.375,1.19532 0,0.0469 0.04687,0.10546 0.128907,0.10546 0.09375,0 0.105468,-0.0117 0.175781,-0.28125 0.1875,-0.72656 0.410156,-1.40625 0.890625,-1.40625 0.269531,0 0.363281,0.1875 0.363281,0.53907 0,0.26953 -0.117187,0.73828 -0.199219,1.10156 l -0.339843,1.28906 c -0.04687,0.23438 -0.175782,0.77344 -0.234375,0.98438 -0.08203,0.3164 -0.210938,0.8789 -0.210938,0.9375 0,0.16406 0.128906,0.29297 0.304688,0.29297 0.140625,0 0.316406,-0.0703 0.410156,-0.2461 0.02344,-0.0586 0.128906,-0.48047 0.1875,-0.71484 l 0.257812,-1.07813 z m 0,0"
         style="fill:#000000;fill-opacity:1;fill-rule:nonzero;stroke:none" />
      <path
         id="path28"
         d="m -39.808406,419.58095 c 0.02344,-0.0703 0.328125,-0.66797 0.761719,-1.05468 0.316406,-0.28125 0.726562,-0.46875 1.183593,-0.46875 0.480469,0 0.644532,0.35156 0.644532,0.83203 0,0.67968 -0.480469,2.03906 -0.726563,2.68359 -0.105469,0.29297 -0.164062,0.44531 -0.164062,0.66797 0,0.52734 0.375,0.96094 0.949218,0.96094 1.101563,0 1.523438,-1.75782 1.523438,-1.82813 0,-0.0586 -0.04687,-0.10547 -0.117188,-0.10547 -0.105468,0 -0.117187,0.0352 -0.175781,0.23438 -0.28125,0.98437 -0.738281,1.46484 -1.195312,1.46484 -0.128907,0 -0.316407,-0.0117 -0.316407,-0.39844 0,-0.29296 0.128907,-0.65625 0.199219,-0.82031 0.246094,-0.65625 0.75,-2.0039 0.75,-2.68359 0,-0.71485 -0.421875,-1.25391 -1.335937,-1.25391 -1.054688,0 -1.617188,0.75 -1.839844,1.05469 -0.03516,-0.67969 -0.527344,-1.05469 -1.042969,-1.05469 -0.386719,0 -0.644531,0.23438 -0.855469,0.63281 -0.210937,0.4336 -0.375,1.14844 -0.375,1.19532 0,0.0469 0.04687,0.10547 0.128907,0.10547 0.09375,0 0.105468,-0.0117 0.175781,-0.28125 0.1875,-0.72657 0.410156,-1.40625 0.890625,-1.40625 0.269531,0 0.363281,0.1875 0.363281,0.53906 0,0.26953 -0.117187,0.73828 -0.199219,1.10156 l -0.339843,1.28906 c -0.04687,0.23438 -0.175782,0.77344 -0.234375,0.98438 -0.08203,0.3164 -0.210938,0.8789 -0.210938,0.9375 0,0.16406 0.128906,0.29297 0.304688,0.29297 0.140625,0 0.316406,-0.0703 0.410156,-0.2461 0.02344,-0.0586 0.128906,-0.48047 0.1875,-0.71484 l 0.257812,-1.07813 z m 0,0"
         style="fill:#000000;fill-opacity:1;fill-rule:nonzero;stroke:none" />
      <path
         id="path29"
         d="m -24.749812,420.33095 c 0.210937,0 0.421875,0 0.421875,-0.23437 0,-0.23438 -0.210938,-0.23438 -0.421875,-0.23438 h -6.46875 c -0.199219,0 -0.410157,0 -0.410157,0.23438 0,0.23437 0.210938,0.23437 0.410157,0.23437 z m 0,0"
         style="fill:#000000;fill-opacity:1;fill-rule:nonzero;stroke:none" />
      <path
         id="path30"
         d="m -20.153133,424.6083 c -0.08203,0.35156 -0.128906,0.44531 -0.621094,0.44531 -0.140625,0 -0.269531,0 -0.269531,0.23437 0,0.0234 0.01172,0.11719 0.152344,0.11719 0.152344,0 0.316406,-0.0234 0.46875,-0.0234 h 0.515625 c 0.257812,0 0.867187,0.0234 1.113281,0.0234 0.07031,0 0.222656,0 0.222656,-0.21094 0,-0.14062 -0.09375,-0.14062 -0.292968,-0.14062 -0.550782,0 -0.585938,-0.082 -0.585938,-0.17578 0,-0.14063 0.539063,-2.20313 0.609375,-2.47266 0.128906,0.32813 0.457031,0.79688 1.078125,0.79688 1.347656,0 2.8125,-1.75782 2.8125,-3.51563 0,-1.10156 -0.621094,-1.875 -1.523437,-1.875 -0.761719,0 -1.40625,0.73828 -1.546875,0.91406 -0.09375,-0.59765 -0.550782,-0.91406 -1.03125,-0.91406 -0.351563,0 -0.621094,0.16406 -0.855469,0.6211 -0.210938,0.43359 -0.375,1.16015 -0.375,1.20703 0,0.0469 0.04687,0.10547 0.128906,0.10547 0.09375,0 0.105469,-0.0117 0.175781,-0.28125 0.175782,-0.70313 0.410157,-1.40625 0.890625,-1.40625 0.269532,0 0.363282,0.1875 0.363282,0.53906 0,0.29297 -0.03516,0.41015 -0.08203,0.63281 z m 2.0625,-5.25 c 0.08203,-0.33985 0.421875,-0.67969 0.609375,-0.85547 0.140625,-0.11719 0.527344,-0.44531 0.984375,-0.44531 0.527344,0 0.761719,0.51562 0.761719,1.13671 0,0.57422 -0.328125,1.9336 -0.632813,2.55469 -0.292968,0.64453 -0.84375,1.21875 -1.394531,1.21875 -0.808594,0 -0.949219,-1.03125 -0.949219,-1.07812 0,-0.0352 0.02344,-0.12891 0.03516,-0.1875 z m 0,0"
         style="fill:#000000;fill-opacity:1;fill-rule:nonzero;stroke:none" />
      <path
         id="path31"
         d="m -3.4011797,419.21767 c 0.1640625,0 0.375,0 0.375,-0.22265 0,-0.22266 -0.1992187,-0.22266 -0.375,-0.22266 h -7.0429683 c -0.175782,0 -0.386719,0 -0.386719,0.21094 0,0.23437 0.199219,0.23437 0.386719,0.23437 z m 0,2.21485 c 0.1640625,0 0.375,0 0.375,-0.21094 0,-0.23438 -0.1992187,-0.23438 -0.375,-0.23438 h -7.0429683 c -0.175782,0 -0.386719,0 -0.386719,0.22266 0,0.22266 0.199219,0.22266 0.386719,0.22266 z m 6.5595703,-2.63672 c -0.2109375,0.0117 -0.2578125,0.0234 -0.2578125,0.1289 0,0.11719 0.058594,0.11719 0.28125,0.11719 h 0.5507813 c 1.0078125,0 1.4648437,0.84375 1.4648437,1.99219 0,1.55859 -0.8085937,1.98047 -1.3945312,1.98047 -0.5742188,0 -1.5585938,-0.28125 -1.8984375,-1.06641 0.375,0.0586 0.7265625,-0.15234 0.7265625,-0.58594 0,-0.33984 -0.2578125,-0.58593 -0.5859375,-0.58593 -0.2929688,0 -0.5976563,0.16406 -0.5976563,0.62109 0,1.06641 1.0664063,1.93359 2.390625,1.93359 1.4179688,0 2.4726563,-1.07812 2.4726563,-2.28515 0,-1.10157 -0.890625,-1.96875 -2.0273438,-2.16797 1.03125,-0.30469 1.6992188,-1.17188 1.6992188,-2.10938 0,-0.9375 -0.9726563,-1.6289 -2.1328125,-1.6289 -1.1953125,0 -2.0859375,0.72656 -2.0859375,1.59375 0,0.48047 0.375,0.57422 0.5507812,0.57422 0.2578125,0 0.5390625,-0.17579 0.5390625,-0.53907 0,-0.375 -0.28125,-0.53906 -0.5507812,-0.53906 -0.070312,0 -0.09375,0 -0.1289063,0.0117 0.4570313,-0.82031 1.5820313,-0.82031 1.640625,-0.82031 0.3867188,0 1.171875,0.17578 1.171875,1.34765 0,0.23438 -0.035156,0.90235 -0.3867187,1.41797 -0.3515625,0.52735 -0.7617188,0.5625 -1.0898438,0.57422 z m 0,0"
         style="fill:#000000;fill-opacity:1;fill-rule:nonzero;stroke:none" />
      <path
         id="path32"
         d="m 11.757023,420.09658 c 0,-0.35156 -0.292968,-0.63281 -0.632812,-0.63281 -0.351563,0 -0.632813,0.28125 -0.632813,0.63281 0,0.35156 0.28125,0.63281 0.632813,0.63281 0.339844,0 0.632812,-0.28125 0.632812,-0.63281 z m 0,0"
         style="fill:#000000;fill-opacity:1;fill-rule:nonzero;stroke:none" />
      <path
         id="path33"
         d="m 20.771672,418.28017 c 0.234375,0 0.328125,0 0.328125,-0.22265 0,-0.12891 -0.09375,-0.12891 -0.304688,-0.12891 h -0.972656 c 0.234375,-1.23047 0.398438,-2.07422 0.492188,-2.46094 0.07031,-0.28125 0.328125,-0.5625 0.632812,-0.5625 0.257813,0 0.503906,0.10547 0.621094,0.22266 -0.46875,0.0469 -0.609375,0.38672 -0.609375,0.59765 0,0.23438 0.1875,0.375 0.410156,0.375 0.234375,0 0.597656,-0.19921 0.597656,-0.65625 0,-0.5039 -0.503906,-0.77343 -1.03125,-0.77343 -0.515625,0 -1.007812,0.38672 -1.253906,0.84375 -0.210937,0.42187 -0.328125,0.85547 -0.609375,2.41406 h -0.796875 c -0.234375,0 -0.351562,0 -0.351562,0.22266 0,0.1289 0.07031,0.1289 0.316406,0.1289 h 0.761719 c -0.210938,1.11328 -0.703125,3.8086 -0.984375,5.08594 -0.199219,1.04297 -0.375,1.92187 -0.972657,1.92187 -0.03516,0 -0.386718,0 -0.597656,-0.23437 0.609375,-0.0469 0.609375,-0.57422 0.609375,-0.58594 0,-0.23437 -0.1875,-0.375 -0.410156,-0.375 -0.234375,0 -0.597656,0.19922 -0.597656,0.65625 0,0.51563 0.527343,0.77344 0.996093,0.77344 1.21875,0 1.722657,-2.19141 1.851563,-2.78906 0.210937,-0.91407 0.796875,-4.08985 0.855469,-4.45313 z m 0,0"
         style="fill:#000000;fill-opacity:1;fill-rule:nonzero;stroke:none" />
      <path
         id="path34"
         d="m 26.376164,425.99111 c 0,-0.0352 0,-0.0586 -0.210937,-0.26953 -1.195313,-1.20703 -1.863282,-3.17578 -1.863282,-5.61328 0,-2.32032 0.5625,-4.3125 1.945313,-5.73047 0.128906,-0.10547 0.128906,-0.12891 0.128906,-0.16406 0,-0.0703 -0.07031,-0.0937 -0.117187,-0.0937 -0.152344,0 -1.136719,0.85546 -1.722657,2.02734 -0.609375,1.20703 -0.878906,2.49609 -0.878906,3.96094 0,1.0664 0.164063,2.48437 0.785156,3.76172 0.703125,1.4414 1.6875,2.21484 1.816407,2.21484 0.04687,0 0.117187,-0.0234 0.117187,-0.0937 z m 0,0"
         style="fill:#000000;fill-opacity:1;fill-rule:nonzero;stroke:none" />
      <path
         id="path35"
         d="m 29.499211,419.58095 c 0.02344,-0.0703 0.328125,-0.66797 0.761719,-1.05468 0.316406,-0.28125 0.726562,-0.46875 1.183593,-0.46875 0.480469,0 0.644532,0.35156 0.644532,0.83203 0,0.67968 -0.480469,2.03906 -0.726563,2.68359 -0.105469,0.29297 -0.164062,0.44531 -0.164062,0.66797 0,0.52734 0.375,0.96094 0.949218,0.96094 1.101563,0 1.523438,-1.75782 1.523438,-1.82813 0,-0.0586 -0.04687,-0.10547 -0.117188,-0.10547 -0.105468,0 -0.117187,0.0352 -0.175781,0.23438 -0.28125,0.98437 -0.738281,1.46484 -1.195312,1.46484 -0.128907,0 -0.316407,-0.0117 -0.316407,-0.39844 0,-0.29296 0.128907,-0.65625 0.199219,-0.82031 0.246094,-0.65625 0.75,-2.0039 0.75,-2.68359 0,-0.71485 -0.421875,-1.25391 -1.335937,-1.25391 -1.054688,0 -1.617188,0.75 -1.839844,1.05469 -0.03516,-0.67969 -0.527344,-1.05469 -1.042969,-1.05469 -0.386719,0 -0.644531,0.23438 -0.855469,0.63281 -0.210937,0.4336 -0.375,1.14844 -0.375,1.19532 0,0.0469 0.04687,0.10547 0.128907,0.10547 0.09375,0 0.105468,-0.0117 0.175781,-0.28125 0.1875,-0.72657 0.410156,-1.40625 0.890625,-1.40625 0.269531,0 0.363281,0.1875 0.363281,0.53906 0,0.26953 -0.117187,0.73828 -0.199219,1.10156 l -0.339843,1.28906 c -0.04687,0.23438 -0.175782,0.77344 -0.234375,0.98438 -0.08203,0.3164 -0.210938,0.8789 -0.210938,0.9375 0,0.16406 0.128906,0.29297 0.304688,0.29297 0.140625,0 0.316406,-0.0703 0.410156,-0.2461 0.02344,-0.0586 0.128906,-0.48047 0.1875,-0.71484 l 0.257812,-1.07813 z m 0,0"
         style="fill:#000000;fill-opacity:1;fill-rule:nonzero;stroke:none" />
      <path
         id="path36"
         d="m 37.400578,420.1083 c 0,-0.91407 -0.128906,-2.39063 -0.796875,-3.77344 -0.703125,-1.44141 -1.675781,-2.21484 -1.816406,-2.21484 -0.04687,0 -0.105469,0.0234 -0.105469,0.0937 0,0.0351 0,0.0586 0.199219,0.26953 1.195312,1.20703 1.875,3.17578 1.875,5.61328 0,2.32031 -0.5625,4.3125 -1.957031,5.73047 -0.117188,0.10547 -0.117188,0.1289 -0.117188,0.16406 0,0.0703 0.05859,0.0937 0.105469,0.0937 0.164062,0 1.136719,-0.85547 1.722656,-2.02734 0.609375,-1.21875 0.890625,-2.51954 0.890625,-3.94922 z m 0,0"
         style="fill:#000000;fill-opacity:1;fill-rule:nonzero;stroke:none" />
      <path
         id="path37"
         d="m 40.910344,423.13173 c 0,-0.6914 -0.222656,-1.20703 -0.714844,-1.20703 -0.386719,0 -0.574219,0.31641 -0.574219,0.57422 0,0.25781 0.175782,0.58594 0.585938,0.58594 0.152344,0 0.28125,-0.0469 0.386719,-0.15234 0.02344,-0.0234 0.03516,-0.0234 0.04687,-0.0234 0.03516,0 0.03516,0.16406 0.03516,0.22265 0,0.39844 -0.08203,1.17188 -0.773438,1.94532 -0.128906,0.15234 -0.128906,0.17578 -0.128906,0.19922 0,0.0586 0.05859,0.11718 0.117188,0.11718 0.09375,0 1.019531,-0.89062 1.019531,-2.26172 z m 0,0"
         style="fill:#000000;fill-opacity:1;fill-rule:nonzero;stroke:none" />
      <path
         id="path38"
         d="m -210.50958,455.34365 c -0.082,0.35156 -0.1289,0.44531 -0.62109,0.44531 -0.14063,0 -0.26953,0 -0.26953,0.23438 0,0.0234 0.0117,0.11718 0.15234,0.11718 0.15234,0 0.31641,-0.0234 0.46875,-0.0234 h 0.51563 c 0.25781,0 0.86718,0.0234 1.11328,0.0234 0.0703,0 0.22265,0 0.22265,-0.21093 0,-0.14063 -0.0937,-0.14063 -0.29297,-0.14063 -0.55078,0 -0.58593,-0.082 -0.58593,-0.17578 0,-0.14063 0.53906,-2.20313 0.60937,-2.47266 0.12891,0.32813 0.45703,0.79688 1.07813,0.79688 1.34765,0 2.8125,-1.75781 2.8125,-3.51563 0,-1.10156 -0.6211,-1.875 -1.52344,-1.875 -0.76172,0 -1.40625,0.73828 -1.54688,0.91407 -0.0937,-0.59766 -0.55078,-0.91407 -1.03125,-0.91407 -0.35156,0 -0.62109,0.16407 -0.85546,0.6211 -0.21094,0.43359 -0.375,1.16015 -0.375,1.20703 0,0.0469 0.0469,0.10547 0.1289,0.10547 0.0937,0 0.10547,-0.0117 0.17578,-0.28125 0.17578,-0.70313 0.41016,-1.40625 0.89063,-1.40625 0.26953,0 0.36328,0.1875 0.36328,0.53906 0,0.29297 -0.0352,0.41016 -0.082,0.63281 z m 2.0625,-5.25 c 0.082,-0.33985 0.42188,-0.67969 0.60938,-0.85547 0.14062,-0.11719 0.52734,-0.44531 0.98437,-0.44531 0.52735,0 0.76172,0.51562 0.76172,1.13672 0,0.57421 -0.32812,1.93359 -0.63281,2.55468 -0.29297,0.64453 -0.84375,1.21875 -1.39453,1.21875 -0.8086,0 -0.94922,-1.03125 -0.94922,-1.07812 0,-0.0352 0.0234,-0.12891 0.0352,-0.1875 z m 0,0"
         style="fill:#000000;fill-opacity:1;fill-rule:nonzero;stroke:none" />
      <path
         id="path39"
         d="m 131.8039,450.3163 c 0.0234,-0.0703 0.32812,-0.66796 0.76172,-1.05468 0.3164,-0.28125 0.72656,-0.46875 1.18359,-0.46875 0.48047,0 0.64453,0.35156 0.64453,0.83203 0,0.67969 -0.48047,2.03906 -0.72656,2.68359 -0.10547,0.29297 -0.16406,0.44531 -0.16406,0.66797 0,0.52734 0.375,0.96094 0.94922,0.96094 1.10156,0 1.52343,-1.75781 1.52343,-1.82813 0,-0.0586 -0.0469,-0.10547 -0.11718,-0.10547 -0.10547,0 -0.11719,0.0352 -0.17579,0.23438 -0.28125,0.98437 -0.73828,1.46484 -1.19531,1.46484 -0.1289,0 -0.3164,-0.0117 -0.3164,-0.39843 0,-0.29297 0.1289,-0.65625 0.19921,-0.82032 0.2461,-0.65625 0.75,-2.0039 0.75,-2.68359 0,-0.71484 -0.42187,-1.25391 -1.33593,-1.25391 -1.05469,0 -1.61719,0.75 -1.83985,1.05469 -0.0352,-0.67969 -0.52734,-1.05469 -1.04297,-1.05469 -0.38671,0 -0.64453,0.23438 -0.85546,0.63282 -0.21094,0.43359 -0.375,1.14843 -0.375,1.19531 0,0.0469 0.0469,0.10547 0.1289,0.10547 0.0937,0 0.10547,-0.0117 0.17578,-0.28125 0.1875,-0.72657 0.41016,-1.40625 0.89063,-1.40625 0.26953,0 0.36328,0.1875 0.36328,0.53906 0,0.26953 -0.11719,0.73828 -0.19922,1.10156 l -0.33984,1.28906 c -0.0469,0.23438 -0.17578,0.77344 -0.23438,0.98438 -0.082,0.31641 -0.21094,0.87891 -0.21094,0.9375 0,0.16406 0.12891,0.29297 0.30469,0.29297 0.14063,0 0.31641,-0.0703 0.41016,-0.2461 0.0234,-0.0586 0.1289,-0.48046 0.1875,-0.71484 l 0.25781,-1.07812 z m 0,0"
         style="fill:#000000;fill-opacity:1;fill-rule:nonzero;stroke:none" />
      <path
         id="path40"
         d="m 159.08808,449.01552 c 0.23437,0 0.32812,0 0.32812,-0.22265 0,-0.12891 -0.0937,-0.12891 -0.30468,-0.12891 h -0.97266 c 0.23437,-1.23047 0.39844,-2.07422 0.49219,-2.46094 0.0703,-0.28125 0.32812,-0.5625 0.63281,-0.5625 0.25781,0 0.50391,0.10547 0.62109,0.22266 -0.46875,0.0469 -0.60937,0.38672 -0.60937,0.59766 0,0.23437 0.1875,0.375 0.41015,0.375 0.23438,0 0.59766,-0.19922 0.59766,-0.65625 0,-0.50391 -0.50391,-0.77344 -1.03125,-0.77344 -0.51562,0 -1.00781,0.38672 -1.25391,0.84375 -0.21093,0.42187 -0.32812,0.85547 -0.60937,2.41406 h -0.79688 c -0.23437,0 -0.35156,0 -0.35156,0.22266 0,0.1289 0.0703,0.1289 0.31641,0.1289 h 0.76172 c -0.21094,1.11328 -0.70313,3.8086 -0.98438,5.08594 -0.19922,1.04297 -0.375,1.92188 -0.97265,1.92188 -0.0352,0 -0.38672,0 -0.59766,-0.23438 0.60937,-0.0469 0.60937,-0.57422 0.60937,-0.58594 0,-0.23437 -0.1875,-0.375 -0.41015,-0.375 -0.23438,0 -0.59766,0.19922 -0.59766,0.65625 0,0.51563 0.52735,0.77344 0.9961,0.77344 1.21875,0 1.72265,-2.19141 1.85156,-2.78906 0.21094,-0.91406 0.79687,-4.08985 0.85547,-4.45313 z m 0,0"
         style="fill:#000000;fill-opacity:1;fill-rule:nonzero;stroke:none" />
      <path
         id="path41"
         d="m 164.6955,456.72646 c 0,-0.0352 0,-0.0586 -0.21094,-0.26953 -1.19531,-1.20703 -1.86328,-3.17578 -1.86328,-5.61328 0,-2.32031 0.5625,-4.3125 1.94531,-5.73047 0.12891,-0.10547 0.12891,-0.12891 0.12891,-0.16406 0,-0.0703 -0.0703,-0.0937 -0.11719,-0.0937 -0.15234,0 -1.13672,0.85547 -1.72265,2.02734 -0.60938,1.20703 -0.87891,2.49609 -0.87891,3.96094 0,1.0664 0.16406,2.48437 0.78516,3.76172 0.70312,1.4414 1.6875,2.21484 1.8164,2.21484 0.0469,0 0.11719,-0.0234 0.11719,-0.0937 z m 0,0"
         style="fill:#000000;fill-opacity:1;fill-rule:nonzero;stroke:none" />
      <path
         id="path42"
         d="m 167.81562,450.3163 c 0.0234,-0.0703 0.32812,-0.66796 0.76172,-1.05468 0.3164,-0.28125 0.72656,-0.46875 1.18359,-0.46875 0.48047,0 0.64453,0.35156 0.64453,0.83203 0,0.67969 -0.48047,2.03906 -0.72656,2.68359 -0.10547,0.29297 -0.16406,0.44531 -0.16406,0.66797 0,0.52734 0.375,0.96094 0.94921,0.96094 1.10157,0 1.52344,-1.75781 1.52344,-1.82813 0,-0.0586 -0.0469,-0.10547 -0.11719,-0.10547 -0.10546,0 -0.11718,0.0352 -0.17578,0.23438 -0.28125,0.98437 -0.73828,1.46484 -1.19531,1.46484 -0.12891,0 -0.31641,-0.0117 -0.31641,-0.39843 0,-0.29297 0.12891,-0.65625 0.19922,-0.82032 0.2461,-0.65625 0.75,-2.0039 0.75,-2.68359 0,-0.71484 -0.42187,-1.25391 -1.33593,-1.25391 -1.05469,0 -1.61719,0.75 -1.83985,1.05469 -0.0352,-0.67969 -0.52734,-1.05469 -1.04297,-1.05469 -0.38672,0 -0.64453,0.23438 -0.85547,0.63282 -0.21093,0.43359 -0.375,1.14843 -0.375,1.19531 0,0.0469 0.0469,0.10547 0.12891,0.10547 0.0937,0 0.10547,-0.0117 0.17578,-0.28125 0.1875,-0.72657 0.41016,-1.40625 0.89063,-1.40625 0.26953,0 0.36328,0.1875 0.36328,0.53906 0,0.26953 -0.11719,0.73828 -0.19922,1.10156 l -0.33984,1.28906 c -0.0469,0.23438 -0.17579,0.77344 -0.23438,0.98438 -0.082,0.31641 -0.21094,0.87891 -0.21094,0.9375 0,0.16406 0.12891,0.29297 0.30469,0.29297 0.14063,0 0.31641,-0.0703 0.41016,-0.2461 0.0234,-0.0586 0.1289,-0.48046 0.1875,-0.71484 l 0.25781,-1.07812 z m 0,0"
         style="fill:#000000;fill-opacity:1;fill-rule:nonzero;stroke:none" />
      <path
         id="path43"
         d="m 175.71991,450.84365 c 0,-0.91406 -0.1289,-2.39063 -0.79687,-3.77344 -0.70313,-1.44141 -1.67578,-2.21484 -1.81641,-2.21484 -0.0469,0 -0.10547,0.0234 -0.10547,0.0937 0,0.0351 0,0.0586 0.19922,0.26953 1.19532,1.20703 1.875,3.17578 1.875,5.61328 0,2.32031 -0.5625,4.3125 -1.95703,5.73047 -0.11719,0.10547 -0.11719,0.1289 -0.11719,0.16406 0,0.0703 0.0586,0.0937 0.10547,0.0937 0.16407,0 1.13672,-0.85547 1.72266,-2.02734 0.60937,-1.21875 0.89062,-2.51953 0.89062,-3.94922 z m 0,0"
         style="fill:#000000;fill-opacity:1;fill-rule:nonzero;stroke:none" />
      <path
         id="path44"
         d="m -205.54376,469.0956 c 0.0234,-0.0703 0.32813,-0.66797 0.76172,-1.05469 0.31641,-0.28125 0.72656,-0.46875 1.18359,-0.46875 0.48047,0 0.64454,0.35157 0.64454,0.83204 0,0.67968 -0.48047,2.03906 -0.72657,2.68359 -0.10547,0.29297 -0.16406,0.44531 -0.16406,0.66797 0,0.52734 0.375,0.96094 0.94922,0.96094 1.10156,0 1.52344,-1.75782 1.52344,-1.82813 0,-0.0586 -0.0469,-0.10547 -0.11719,-0.10547 -0.10547,0 -0.11719,0.0352 -0.17578,0.23438 -0.28125,0.98437 -0.73828,1.46484 -1.19531,1.46484 -0.12891,0 -0.31641,-0.0117 -0.31641,-0.39844 0,-0.29297 0.12891,-0.65625 0.19922,-0.82031 0.24609,-0.65625 0.75,-2.00391 0.75,-2.68359 0,-0.71485 -0.42188,-1.25391 -1.33594,-1.25391 -1.05469,0 -1.61719,0.75 -1.83984,1.05469 -0.0352,-0.67969 -0.52735,-1.05469 -1.04297,-1.05469 -0.38672,0 -0.64453,0.23438 -0.85547,0.63281 -0.21094,0.4336 -0.375,1.14844 -0.375,1.19532 0,0.0469 0.0469,0.10546 0.12891,0.10546 0.0937,0 0.10546,-0.0117 0.17578,-0.28125 0.1875,-0.72656 0.41015,-1.40625 0.89062,-1.40625 0.26953,0 0.36328,0.1875 0.36328,0.53907 0,0.26953 -0.11718,0.73828 -0.19922,1.10156 l -0.33984,1.28906 c -0.0469,0.23438 -0.17578,0.77344 -0.23437,0.98438 -0.082,0.3164 -0.21094,0.8789 -0.21094,0.9375 0,0.16406 0.1289,0.29297 0.30469,0.29297 0.14062,0 0.3164,-0.0703 0.41015,-0.2461 0.0234,-0.0586 0.12891,-0.48047 0.1875,-0.71484 l 0.25781,-1.07813 z m 0,0"
         style="fill:#000000;fill-opacity:1;fill-rule:nonzero;stroke:none" />
      <path
         id="path45"
         d="m -148.8543,527.23818 c 0,-0.0352 0,-0.0586 -0.21094,-0.26953 -1.19531,-1.20703 -1.86328,-3.17578 -1.86328,-5.61328 0,-2.32032 0.5625,-4.3125 1.94531,-5.73047 0.12891,-0.10547 0.12891,-0.12891 0.12891,-0.16406 0,-0.0703 -0.0703,-0.0937 -0.11719,-0.0937 -0.15235,0 -1.13672,0.85546 -1.72266,2.02734 -0.60937,1.20703 -0.8789,2.49609 -0.8789,3.96094 0,1.0664 0.16406,2.48437 0.78515,3.76172 0.70313,1.4414 1.6875,2.21484 1.81641,2.21484 0.0469,0 0.11719,-0.0234 0.11719,-0.0937 z m 5.92382,-4.91016 h -0.26953 c -0.0352,0.19922 -0.1289,0.85547 -0.24609,1.04297 -0.082,0.11719 -0.76172,0.11719 -1.125,0.11719 h -2.21485 c 0.32813,-0.28125 1.05469,-1.04297 1.3711,-1.33594 1.8164,-1.66406 2.48437,-2.28515 2.48437,-3.46875 0,-1.38281 -1.08984,-2.29687 -2.47265,-2.29687 -1.39453,0 -2.20313,1.18359 -2.20313,2.20312 0,0.60938 0.52735,0.60938 0.5625,0.60938 0.2461,0 0.5625,-0.17578 0.5625,-0.5625 0,-0.32813 -0.23437,-0.55078 -0.5625,-0.55078 -0.10547,0 -0.1289,0 -0.16406,0.0117 0.22266,-0.82031 0.86719,-1.37109 1.64062,-1.37109 1.01954,0 1.64063,0.85547 1.64063,1.95703 0,1.00781 -0.58594,1.89844 -1.26563,2.66016 l -2.41406,2.70703 v 0.28125 h 4.35938 z m 0,0"
         style="fill:#000000;fill-opacity:1;fill-rule:nonzero;stroke:none" />
      <path
         id="path46"
         d="m -137.68634,524.66298 -2.10937,-4.65234 c -0.082,-0.1875 -0.14063,-0.1875 -0.17578,-0.1875 -0.0117,0 -0.0703,0 -0.19922,0.0937 l -1.13672,0.86719 c -0.16406,0.11719 -0.16406,0.15234 -0.16406,0.1875 0,0.0586 0.0469,0.1289 0.1289,0.1289 0.0703,0 0.26954,-0.16406 0.39844,-0.25781 0.0703,-0.0586 0.25781,-0.19922 0.38672,-0.29297 l 2.35547,5.17969 c 0.082,0.1875 0.14062,0.1875 0.24609,0.1875 0.1875,0 0.22266,-0.0703 0.30469,-0.23437 l 5.42578,-11.23829 c 0.082,-0.16406 0.082,-0.21093 0.082,-0.23437 0,-0.12891 -0.0937,-0.24609 -0.23437,-0.24609 -0.0937,0 -0.1875,0.0586 -0.28125,0.25781 z m 0,0"
         style="fill:#000000;fill-opacity:1;fill-rule:nonzero;stroke:none" />
    </g>
    <path
       id="path47"
       d="M 0,0 H 5.853"
       style="fill:none;stroke:#000000;stroke-width:0.478;stroke-linecap:butt;stroke-linejoin:miter;stroke-miterlimit:10;stroke-dasharray:none;stroke-opacity:1"
       transform="matrix(1.3333333,0,0,-1.3333333,222.15333,942)" />
    <g
       id="g47"
       aria-label="2+3)&#10;q"
       transform="matrix(1.3333333,0,0,1.3333333,222.15333,955.50533)">
      <path
         id="path48"
         d="M 5.2609766,-2.0049766 H 4.9914453 c -0.035156,0.1992188 -0.1289062,0.8554688 -0.2460937,1.04296879 -0.082031,0.1171875 -0.7617188,0.1171875 -1.125,0.1171875 H 1.4055078 c 0.328125,-0.28124999 1.0546875,-1.04296879 1.3710938,-1.33593749 1.8164062,-1.6640625 2.484375,-2.2851563 2.484375,-3.46875 0,-1.3828125 -1.0898438,-2.296875 -2.4726563,-2.296875 -1.3945312,0 -2.20312499,1.1835937 -2.20312499,2.203125 0,0.609375 0.52734379,0.609375 0.56249999,0.609375 0.2460938,0 0.5625,-0.1757813 0.5625,-0.5625 0,-0.328125 -0.234375,-0.5507813 -0.5625,-0.5507813 -0.1054687,0 -0.1289062,0 -0.16406249,0.011719 0.22265629,-0.8203125 0.86718749,-1.3710938 1.64062499,-1.3710938 1.0195313,0 1.640625,0.8554688 1.640625,1.9570313 0,1.0078125 -0.5859375,1.8984375 -1.265625,2.6601562 l -2.41406249,2.70703129 v 0.28125 H 4.9445703 Z m 8.0156254,-0.7617187 h 3.304687 c 0.164063,0 0.375,0 0.375,-0.2109375 0,-0.2226563 -0.199219,-0.2226563 -0.375,-0.2226563 h -3.304687 v -3.3046875 c 0,-0.1640625 0,-0.3867187 -0.210938,-0.3867187 -0.234375,0 -0.234375,0.2109375 -0.234375,0.3867187 v 3.3046875 H 9.5383203 c -0.1757812,0 -0.3867187,0 -0.3867187,0.2109375 0,0.2226563 0.1992187,0.2226563 0.3867187,0.2226563 h 3.2929687 v 3.30468749 c 0,0.1640625 0,0.38671875 0.222656,0.38671875 0.222657,0 0.222657,-0.2109375 0.222657,-0.38671875 z m 9.193359,-1.5234375 c -0.210938,0.011719 -0.257813,0.023437 -0.257813,0.1289062 0,0.1171875 0.05859,0.1171875 0.28125,0.1171875 h 0.550782 c 1.007812,0 1.464843,0.84375 1.464843,1.9921875 0,1.55859379 -0.808593,1.98046879 -1.394531,1.98046879 -0.574219,0 -1.558594,-0.28125 -1.898437,-1.06640629 0.375,0.058594 0.726562,-0.1523437 0.726562,-0.5859375 0,-0.3398437 -0.257812,-0.5859375 -0.585937,-0.5859375 -0.292969,0 -0.597657,0.1640625 -0.597657,0.6210938 0,1.06640624 1.066407,1.93359374 2.390625,1.93359374 1.417969,0 2.472657,-1.078125 2.472657,-2.28515624 0,-1.1015625 -0.890625,-1.96875 -2.027344,-2.1679688 1.03125,-0.3046875 1.699219,-1.171875 1.699219,-2.109375 0,-0.9375 -0.972657,-1.6289062 -2.132813,-1.6289062 -1.195312,0 -2.085937,0.7265625 -2.085937,1.59375 0,0.4804687 0.375,0.5742187 0.550781,0.5742187 0.257812,0 0.539062,-0.1757812 0.539062,-0.5390625 0,-0.375 -0.28125,-0.5390625 -0.550781,-0.5390625 -0.07031,0 -0.09375,0 -0.128906,0.011719 0.457031,-0.8203125 1.582031,-0.8203125 1.640625,-0.8203125 0.386719,0 1.171875,0.1757812 1.171875,1.3476562 0,0.234375 -0.03516,0.9023438 -0.386719,1.4179688 -0.351562,0.5273437 -0.761719,0.5625 -1.089844,0.5742187 z m 7.025391,1.3125 c 0,-0.9140625 -0.128907,-2.390625 -0.796875,-3.7734375 -0.703125,-1.4414063 -1.675782,-2.2148438 -1.816407,-2.2148438 -0.04687,0 -0.105468,0.023437 -0.105468,0.09375 0,0.035156 0,0.058594 0.199218,0.2695313 1.195313,1.2070312 1.875,3.1757812 1.875,5.6132812 0,2.32031254 -0.5625,4.3125 -1.957031,5.7304688 -0.117187,0.1054687 -0.117187,0.1289062 -0.117187,0.1640625 0,0.070312 0.05859,0.09375 0.105468,0.09375 0.164063,0 1.136719,-0.8554688 1.722657,-2.02734376 0.609375,-1.21875 0.890625,-2.51953124 0.890625,-3.94921874 z m 0,0"
         style="fill:#000000;fill-opacity:1;fill-rule:nonzero;stroke:none" />
      <path
         id="path49"
         d="m 36.218984,3.0165078 -2.566406,-8.9648437 -1.664062,1.9453125 0.199218,0.1875 0.808594,-0.9609375 2.742188,9.5859375 c 0.398437,0 0.410156,0 0.503906,-0.28125 l 6.5625,-20.7539066 c 0.05859,-0.175781 0.05859,-0.222656 0.05859,-0.234375 0,-0.140625 -0.09375,-0.246093 -0.234375,-0.246093 -0.175782,0 -0.222657,0.152343 -0.269532,0.316406 z m 0,0"
         style="fill:#000000;fill-opacity:1;fill-rule:nonzero;stroke:none" />
    </g>
    <path
       id="path50"
       d="M 0,0 H 86.259"
       style="fill:none;stroke:#000000;stroke-width:0.478;stroke-linecap:butt;stroke-linejoin:miter;stroke-miterlimit:10;stroke-dasharray:none;stroke-opacity:1"
       transform="matrix(1.3333333,0,0,-1.3333333,278.99467,933.552)" />
    <g
       id="g50"
       aria-label="5−12&#10;p"
       transform="matrix(1.3333333,0,0,1.3333333,278.99467,955.50533)">
      <path
         id="path51"
         d="m 1.5362266,-6.8448203 c 0.5039062,0.1640625 0.9257812,0.1757812 1.0546875,0.1757812 1.359375,0 2.2148437,-0.9960937 2.2148437,-1.1601562 0,-0.046875 -0.023437,-0.1054688 -0.09375,-0.1054688 -0.023437,0 -0.046875,0 -0.1523437,0.046875 -0.6679688,0.28125 -1.2421875,0.3164063 -1.5585938,0.3164063 -0.7851562,0 -1.3476562,-0.234375 -1.5820312,-0.328125 -0.082031,-0.035156 -0.1054688,-0.035156 -0.1171875,-0.035156 -0.09375,0 -0.09375,0.070312 -0.09375,0.2578125 V -4.12607 c 0,0.2109375 0,0.2929687 0.140625,0.2929687 0.058594,0 0.070312,-0.011719 0.1992187,-0.1640625 0.328125,-0.4921875 0.890625,-0.7734375 1.4882813,-0.7734375 0.6328125,0 0.9492187,0.5859375 1.0429687,0.7851563 0.1992188,0.46875 0.2109375,1.0546875 0.2109375,1.5117187 0,0.4570313 0,1.1367188 -0.328125,1.67578129 -0.2695312,0.421875 -0.7382812,0.7265625 -1.2539062,0.7265625 -0.796875,0 -1.5703125,-0.5390625 -1.78125004,-1.40624999 0.0585938,0.023437 0.12890624,0.035156 0.18750004,0.035156 0.1992187,0 0.5273437,-0.1289062 0.5273437,-0.5273437 0,-0.3398438 -0.234375,-0.5273438 -0.5273437,-0.5273438 -0.21093754,0 -0.52734379,0.1054688 -0.52734379,0.5742188 0,1.00781249 0.80859379,2.16796874 2.14453129,2.16796874 1.3476562,0 2.53125,-1.125 2.53125,-2.64843754 0,-1.4179687 -0.9609375,-2.6015625 -2.2148438,-2.6015625 -0.6796875,0 -1.2070312,0.2929688 -1.5117187,0.6328125 z m 0,0"
         style="fill:#000000;fill-opacity:1;fill-rule:nonzero;stroke:none" />
      <path
         id="path52"
         d="m 16.383883,-2.7549766 c 0.210937,0 0.421875,0 0.421875,-0.234375 0,-0.234375 -0.210938,-0.234375 -0.421875,-0.234375 H 9.9151328 c -0.1992187,0 -0.4101562,0 -0.4101562,0.234375 0,0.234375 0.2109375,0.234375 0.4101562,0.234375 z m 0,0"
         style="fill:#000000;fill-opacity:1;fill-rule:nonzero;stroke:none" />
      <path
         id="path53"
         d="m 23.91025,-7.6651328 c 0,-0.2695313 0,-0.28125 -0.246094,-0.28125 -0.28125,0.3164062 -0.878906,0.7617187 -2.109375,0.7617187 v 0.3515625 c 0.269532,0 0.867188,0 1.523438,-0.3164062 v 6.22265624 c 0,0.43359375 -0.03516,0.57421875 -1.078125,0.57421875 h -0.375 v 0.3515625 c 0.316406,-0.0234375 1.476562,-0.0234375 1.875,-0.0234375 0.398437,0 1.546875,0 1.863281,0.0234375 v -0.3515625 h -0.363281 c -1.054688,0 -1.089844,-0.140625 -1.089844,-0.57421875 z m 7.669922,5.6601562 h -0.269531 c -0.03516,0.1992188 -0.128907,0.8554688 -0.246094,1.04296879 -0.08203,0.1171875 -0.761719,0.1171875 -1.125,0.1171875 h -2.214844 c 0.328125,-0.28124999 1.054688,-1.04296879 1.371094,-1.33593749 1.816406,-1.6640625 2.484375,-2.2851563 2.484375,-3.46875 0,-1.3828125 -1.089844,-2.296875 -2.472656,-2.296875 -1.394532,0 -2.203125,1.1835937 -2.203125,2.203125 0,0.609375 0.527343,0.609375 0.5625,0.609375 0.246093,0 0.5625,-0.1757813 0.5625,-0.5625 0,-0.328125 -0.234375,-0.5507813 -0.5625,-0.5507813 -0.105469,0 -0.128907,0 -0.164063,0.011719 0.222656,-0.8203125 0.867188,-1.3710938 1.640625,-1.3710938 1.019531,0 1.640625,0.8554688 1.640625,1.9570313 0,1.0078125 -0.585937,1.8984375 -1.265625,2.6601562 l -2.414062,2.70703129 v 0.28125 h 4.359375 z m 0,0"
         style="fill:#000000;fill-opacity:1;fill-rule:nonzero;stroke:none" />
      <path
         id="path54"
         d="m 37.234469,1.9999063 c 0.375,0 0.386719,-0.011719 0.503906,-0.234375 l 6.539063,-13.6523433 c 0.08203,-0.152344 0.08203,-0.175782 0.08203,-0.210938 0,-0.140625 -0.09375,-0.246094 -0.234375,-0.246094 -0.152344,0 -0.199219,0.105469 -0.257813,0.246094 L 37.6915,0.75771875 35.148531,-5.1719687 l -1.664062,1.2773437 0.1875,0.1992188 0.84375,-0.6445313 z m 0,0"
         style="fill:#000000;fill-opacity:1;fill-rule:nonzero;stroke:none" />
    </g>
    <path
       id="path55"
       d="M 0,0 H 42.133"
       style="fill:none;stroke:#000000;stroke-width:0.478;stroke-linecap:butt;stroke-linejoin:miter;stroke-miterlimit:10;stroke-dasharray:none;stroke-opacity:1"
       transform="matrix(1.3333333,0,0,-1.3333333,337.82933,939.36933)" />
    <g
       id="g55"
       aria-label="3−2&#10;√"
       transform="matrix(1.3333333,0,0,1.3333333,337.82933,955.50533)">
      <path
         id="path56"
         d="m 2.2022187,-4.2901328 c -0.2109375,0.011719 -0.2578125,0.023437 -0.2578125,0.1289062 0,0.1171875 0.058594,0.1171875 0.28125,0.1171875 h 0.5507813 c 1.0078125,0 1.4648437,0.84375 1.4648437,1.9921875 0,1.55859379 -0.8085937,1.98046879 -1.3945312,1.98046879 -0.5742188,0 -1.5585938,-0.28125 -1.8984375,-1.06640629 0.375,0.058594 0.7265625,-0.1523437 0.7265625,-0.5859375 0,-0.3398437 -0.2578125,-0.5859375 -0.5859375,-0.5859375 -0.29296875,0 -0.59765625,0.1640625 -0.59765625,0.6210938 0,1.06640624 1.06640625,1.93359374 2.39062495,1.93359374 1.4179688,0 2.4726563,-1.078125 2.4726563,-2.28515624 0,-1.1015625 -0.890625,-1.96875 -2.0273438,-2.1679688 1.03125,-0.3046875 1.6992188,-1.171875 1.6992188,-2.109375 0,-0.9375 -0.9726563,-1.6289062 -2.1328125,-1.6289062 -1.1953125,0 -2.0859375,0.7265625 -2.0859375,1.59375 0,0.4804687 0.375,0.5742187 0.5507812,0.5742187 0.2578125,0 0.5390625,-0.1757812 0.5390625,-0.5390625 0,-0.375 -0.28125,-0.5390625 -0.5507812,-0.5390625 -0.070312,0 -0.09375,0 -0.1289063,0.011719 0.4570313,-0.8203125 1.5820313,-0.8203125 1.640625,-0.8203125 0.3867188,0 1.171875,0.1757812 1.171875,1.3476562 0,0.234375 -0.035156,0.9023438 -0.3867187,1.4179688 -0.3515625,0.5273437 -0.7617188,0.5625 -1.0898438,0.5742187 z m 0,0"
         style="fill:#000000;fill-opacity:1;fill-rule:nonzero;stroke:none" />
      <path
         id="path57"
         d="m 16.384836,-2.7549766 c 0.210937,0 0.421875,0 0.421875,-0.234375 0,-0.234375 -0.210938,-0.234375 -0.421875,-0.234375 H 9.9160859 c -0.1992187,0 -0.4101562,0 -0.4101562,0.234375 0,0.234375 0.2109375,0.234375 0.4101562,0.234375 z m 0,0"
         style="fill:#000000;fill-opacity:1;fill-rule:nonzero;stroke:none" />
      <path
         id="path58"
         d="m 25.727609,-2.0049766 h -0.269531 c -0.03516,0.1992188 -0.128906,0.8554688 -0.246094,1.04296879 -0.08203,0.1171875 -0.761718,0.1171875 -1.125,0.1171875 h -2.214843 c 0.328125,-0.28124999 1.054687,-1.04296879 1.371093,-1.33593749 1.816407,-1.6640625 2.484375,-2.2851563 2.484375,-3.46875 0,-1.3828125 -1.089843,-2.296875 -2.472656,-2.296875 -1.394531,0 -2.203125,1.1835937 -2.203125,2.203125 0,0.609375 0.527344,0.609375 0.5625,0.609375 0.246094,0 0.5625,-0.1757813 0.5625,-0.5625 0,-0.328125 -0.234375,-0.5507813 -0.5625,-0.5507813 -0.105469,0 -0.128906,0 -0.164062,0.011719 0.222656,-0.8203125 0.867187,-1.3710938 1.640625,-1.3710938 1.019531,0 1.640625,0.8554688 1.640625,1.9570313 0,1.0078125 -0.585938,1.8984375 -1.265625,2.6601562 l -2.414063,2.70703129 v 0.28125 h 4.359375 z m 0,0"
         style="fill:#000000;fill-opacity:1;fill-rule:nonzero;stroke:none" />
      <path
         id="path59"
         d="M 30.97175,0.32998438 28.862375,-4.3223594 c -0.08203,-0.1875 -0.140625,-0.1875 -0.175781,-0.1875 -0.01172,0 -0.07031,0 -0.199219,0.09375 l -1.136719,0.8671875 c -0.164062,0.1171875 -0.164062,0.1523438 -0.164062,0.1875 0,0.058594 0.04687,0.1289063 0.128906,0.1289063 0.07031,0 0.269531,-0.1640625 0.398437,-0.2578125 0.07031,-0.058594 0.257813,-0.1992188 0.386719,-0.2929688 l 2.355469,5.1796875 c 0.08203,0.1875 0.140625,0.1875 0.246094,0.1875 0.1875,0 0.222656,-0.070312 0.304687,-0.234375 l 5.425781,-11.2382812 c 0.08203,-0.1640624 0.08203,-0.2109374 0.08203,-0.2343754 0,-0.128906 -0.09375,-0.246093 -0.234375,-0.246093 -0.09375,0 -0.1875,0.05859 -0.28125,0.257812 z m 0,0"
         style="fill:#000000;fill-opacity:1;fill-rule:nonzero;stroke:none" />
    </g>
    <path
       id="path60"
       d="M 0,0 H 5.853"
       style="fill:none;stroke:#000000;stroke-width:0.478;stroke-linecap:butt;stroke-linejoin:miter;stroke-miterlimit:10;stroke-dasharray:none;stroke-opacity:1"
       transform="matrix(1.3333333,0,0,-1.3333333,386.204,942)" />
    <g
       id="g60"
       aria-label="2jestcaªkowita.&#10;ZADANIE5.&#10;Wliczbieczterystucyfrowej84198419...8419skre±lpewn¡ilo±¢cyfrzpocz¡tkuiko«catak,&#10;abysumapozostaªychcyfrbyªarówna1984."
       transform="matrix(1.3333333,0,0,1.3333333,386.204,955.50533)">
      <path
         id="path61"
         d="M 5.2610625,-2.0049766 H 4.9915312 c -0.035156,0.1992188 -0.1289062,0.8554688 -0.2460937,1.04296879 -0.082031,0.1171875 -0.7617188,0.1171875 -1.125,0.1171875 H 1.4055937 c 0.328125,-0.28124999 1.0546875,-1.04296879 1.3710938,-1.33593749 1.8164062,-1.6640625 2.484375,-2.2851563 2.484375,-3.46875 0,-1.3828125 -1.0898438,-2.296875 -2.4726563,-2.296875 -1.3945312,0 -2.20312495,1.1835937 -2.20312495,2.203125 0,0.609375 0.52734375,0.609375 0.56249995,0.609375 0.2460938,0 0.5625,-0.1757813 0.5625,-0.5625 0,-0.328125 -0.234375,-0.5507813 -0.5625,-0.5507813 -0.1054687,0 -0.1289062,0 -0.16406245,0.011719 0.22265625,-0.8203125 0.86718745,-1.3710938 1.64062495,-1.3710938 1.0195313,0 1.640625,0.8554688 1.640625,1.9570313 0,1.0078125 -0.5859375,1.8984375 -1.265625,2.6601562 l -2.41406245,2.70703129 v 0.28125 H 4.9446562 Z m 0,0"
         style="fill:#000000;fill-opacity:1;fill-rule:nonzero;stroke:none" />
      <path
         id="path62"
         d="m -82.239914,47.418852 c 0.597656,-0.328125 1.464844,-0.878907 1.464844,-1.875 0,-1.042969 -0.996094,-1.757813 -2.097657,-1.757813 -1.183593,0 -2.121093,0.867188 -2.121093,1.957031 0,0.410157 0.128906,0.808594 0.457031,1.21875 0.128906,0.152344 0.140625,0.164063 0.984375,0.75 -1.160156,0.539063 -1.757813,1.347657 -1.757813,2.214844 0,1.265625 1.207032,2.050781 2.425782,2.050781 1.324218,0 2.4375,-0.972656 2.4375,-2.226562 0,-1.21875 -0.855469,-1.757813 -1.792969,-2.332031 z m -1.628906,-1.078125 c -0.152344,-0.105469 -0.632813,-0.421875 -0.632813,-1.007813 0,-0.773437 0.820313,-1.265625 1.617188,-1.265625 0.855468,0 1.628906,0.621094 1.628906,1.488281 0,0.726563 -0.527344,1.3125 -1.21875,1.6875 z m 0.5625,1.546875 1.453125,0.9375 c 0.304687,0.199218 0.855468,0.574218 0.855468,1.300781 0,0.914062 -0.914062,1.535156 -1.875,1.535156 -1.019531,0 -1.886718,-0.738281 -1.886718,-1.734375 0,-0.9375 0.679687,-1.6875 1.453125,-2.039062 z m 7.669922,-3.9375 c 0,-0.222657 0,-0.292969 -0.164063,-0.292969 -0.09375,0 -0.128906,0 -0.222656,0.152344 l -3.597656,5.578125 v 0.351562 h 3.140625 v 1.078125 c 0,0.445313 -0.02344,0.5625 -0.902344,0.5625 h -0.234375 v 0.351563 c 0.269531,-0.02344 1.21875,-0.02344 1.558594,-0.02344 0.328125,0 1.289062,0 1.558593,0.02344 v -0.351563 h -0.234375 c -0.867187,0 -0.902343,-0.117187 -0.902343,-0.5625 v -1.078125 h 1.207031 v -0.351562 h -1.207031 z m -0.785157,0.9375 v 4.5 h -2.90625 z m 5.771485,-0.820313 c 0,-0.269531 0,-0.28125 -0.246094,-0.28125 -0.28125,0.316406 -0.878906,0.761719 -2.109375,0.761719 v 0.351562 c 0.269531,0 0.867187,0 1.523437,-0.316406 v 6.222656 c 0,0.433594 -0.03516,0.574219 -1.078125,0.574219 h -0.375 v 0.351563 c 0.316407,-0.02344 1.476563,-0.02344 1.875,-0.02344 0.398438,0 1.546875,0 1.863282,0.02344 v -0.351563 h -0.363282 c -1.054687,0 -1.089843,-0.140625 -1.089843,-0.574219 z m 6.779297,4.183594 c 0,2.824219 -1.253907,3.410156 -1.96875,3.410156 -0.28125,0 -0.925782,-0.03516 -1.21875,-0.457031 h 0.07031 c 0.08203,0.02344 0.515625,-0.04687 0.515625,-0.492188 0,-0.257812 -0.175781,-0.492187 -0.492187,-0.492187 -0.304688,0 -0.503907,0.210937 -0.503907,0.515625 0,0.75 0.597657,1.242187 1.640625,1.242187 1.5,0 2.941407,-1.582031 2.941407,-4.183593 0,-3.210938 -1.335938,-4.007813 -2.390625,-4.007813 -1.3125,0 -2.472657,1.101563 -2.472657,2.671875 0,1.582031 1.113282,2.660156 2.308594,2.660156 0.878906,0 1.335938,-0.644531 1.570313,-1.253906 z m -1.523438,0.621094 c -0.75,0 -1.078125,-0.609375 -1.183594,-0.832032 -0.199218,-0.457031 -0.199218,-1.03125 -0.199218,-1.570312 0,-0.667969 0,-1.242188 0.316406,-1.734375 0.210937,-0.316406 0.539062,-0.667969 1.183594,-0.667969 0.679687,0 1.03125,0.597656 1.148437,0.878906 0.234375,0.585938 0.234375,1.59375 0.234375,1.78125 0,0.996094 -0.445312,2.144532 -1.5,2.144532 z m 6.56543,-1.453125 c 0.597656,-0.328125 1.464843,-0.878907 1.464843,-1.875 0,-1.042969 -0.996093,-1.757813 -2.097656,-1.757813 -1.183594,0 -2.121094,0.867188 -2.121094,1.957031 0,0.410157 0.128907,0.808594 0.457032,1.21875 0.128906,0.152344 0.140625,0.164063 0.984375,0.75 -1.160157,0.539063 -1.757813,1.347657 -1.757813,2.214844 0,1.265625 1.207031,2.050781 2.425781,2.050781 1.324219,0 2.4375,-0.972656 2.4375,-2.226562 0,-1.21875 -0.855468,-1.757813 -1.792968,-2.332031 z m -1.628907,-1.078125 c -0.152343,-0.105469 -0.632812,-0.421875 -0.632812,-1.007813 0,-0.773437 0.820312,-1.265625 1.617187,-1.265625 0.855469,0 1.628907,0.621094 1.628907,1.488281 0,0.726563 -0.527344,1.3125 -1.21875,1.6875 z m 0.5625,1.546875 1.453125,0.9375 c 0.304688,0.199218 0.855469,0.574218 0.855469,1.300781 0,0.914062 -0.914062,1.535156 -1.875,1.535156 -1.019531,0 -1.886719,-0.738281 -1.886719,-1.734375 0,-0.9375 0.679688,-1.6875 1.453125,-2.039062 z m 7.669922,-3.9375 c 0,-0.222657 0,-0.292969 -0.164062,-0.292969 -0.09375,0 -0.128906,0 -0.222656,0.152344 l -3.597657,5.578125 v 0.351562 h 3.140625 v 1.078125 c 0,0.445313 -0.02344,0.5625 -0.902343,0.5625 h -0.234375 v 0.351563 c 0.269531,-0.02344 1.21875,-0.02344 1.558593,-0.02344 0.328125,0 1.289063,0 1.558594,0.02344 v -0.351563 h -0.234375 c -0.867187,0 -0.902344,-0.117187 -0.902344,-0.5625 v -1.078125 h 1.207032 v -0.351562 h -1.207032 z m -0.785156,0.9375 v 4.5 h -2.90625 z m 5.771484,-0.820313 c 0,-0.269531 0,-0.28125 -0.246093,-0.28125 -0.28125,0.316406 -0.878907,0.761719 -2.109375,0.761719 v 0.351562 c 0.269531,0 0.867187,0 1.523437,-0.316406 v 6.222656 c 0,0.433594 -0.03516,0.574219 -1.078125,0.574219 h -0.375 v 0.351563 c 0.316406,-0.02344 1.476563,-0.02344 1.875,-0.02344 0.398438,0 1.546875,0 1.863281,0.02344 v -0.351563 h -0.363281 c -1.054687,0 -1.089844,-0.140625 -1.089844,-0.574219 z m 6.779297,4.183594 c 0,2.824219 -1.253906,3.410156 -1.96875,3.410156 -0.28125,0 -0.925781,-0.03516 -1.21875,-0.457031 h 0.07031 c 0.08203,0.02344 0.515625,-0.04687 0.515625,-0.492188 0,-0.257812 -0.175781,-0.492187 -0.492188,-0.492187 -0.304687,0 -0.503906,0.210937 -0.503906,0.515625 0,0.75 0.597656,1.242187 1.640625,1.242187 1.5,0 2.941406,-1.582031 2.941406,-4.183593 0,-3.210938 -1.335937,-4.007813 -2.390625,-4.007813 -1.3125,0 -2.472656,1.101563 -2.472656,2.671875 0,1.582031 1.113281,2.660156 2.308594,2.660156 0.878906,0 1.335937,-0.644531 1.570312,-1.253906 z m -1.523437,0.621094 c -0.75,0 -1.078125,-0.609375 -1.183594,-0.832032 -0.199219,-0.457031 -0.199219,-1.03125 -0.199219,-1.570312 0,-0.667969 0,-1.242188 0.316407,-1.734375 0.210937,-0.316406 0.539062,-0.667969 1.183593,-0.667969 0.679688,0 1.03125,0.597656 1.148438,0.878906 0.234375,0.585938 0.234375,1.59375 0.234375,1.78125 0,0.996094 -0.445313,2.144532 -1.5,2.144532 z m 0,0"
         style="fill:#000000;fill-opacity:1;fill-rule:nonzero;stroke:none" />
      <path
         id="path63"
         d="m -34.784836,51.157133 c 0,-0.351563 -0.292969,-0.585938 -0.574219,-0.585938 -0.351562,0 -0.585937,0.292969 -0.585937,0.574219 0,0.351563 0.28125,0.585938 0.574219,0.585938 0.339843,0 0.585937,-0.28125 0.585937,-0.574219 z m 5.25,0 c 0,-0.351563 -0.292969,-0.585938 -0.574219,-0.585938 -0.351562,0 -0.585937,0.292969 -0.585937,0.574219 0,0.351563 0.28125,0.585938 0.574219,0.585938 0.339843,0 0.585937,-0.28125 0.585937,-0.574219 z m 5.235352,0 c 0,-0.351563 -0.292969,-0.585938 -0.574219,-0.585938 -0.351563,0 -0.585938,0.292969 -0.585938,0.574219 0,0.351563 0.28125,0.585938 0.574219,0.585938 0.339844,0 0.585938,-0.28125 0.585938,-0.574219 z m 0,0"
         style="fill:#000000;fill-opacity:1;fill-rule:nonzero;stroke:none" />
      <path
         id="path64"
         d="m -17.690109,47.418852 c 0.597656,-0.328125 1.464843,-0.878907 1.464843,-1.875 0,-1.042969 -0.996093,-1.757813 -2.097656,-1.757813 -1.183594,0 -2.121094,0.867188 -2.121094,1.957031 0,0.410157 0.128907,0.808594 0.457032,1.21875 0.128906,0.152344 0.140625,0.164063 0.984375,0.75 -1.160157,0.539063 -1.757813,1.347657 -1.757813,2.214844 0,1.265625 1.207031,2.050781 2.425781,2.050781 1.324219,0 2.4375,-0.972656 2.4375,-2.226562 0,-1.21875 -0.855468,-1.757813 -1.792968,-2.332031 z m -1.628907,-1.078125 c -0.152343,-0.105469 -0.632812,-0.421875 -0.632812,-1.007813 0,-0.773437 0.820312,-1.265625 1.617187,-1.265625 0.855469,0 1.628907,0.621094 1.628907,1.488281 0,0.726563 -0.527344,1.3125 -1.21875,1.6875 z m 0.5625,1.546875 1.453125,0.9375 c 0.304688,0.199218 0.855469,0.574218 0.855469,1.300781 0,0.914062 -0.914062,1.535156 -1.875,1.535156 -1.019531,0 -1.886719,-0.738281 -1.886719,-1.734375 0,-0.9375 0.679688,-1.6875 1.453125,-2.039062 z m 7.666993,-3.9375 c 0,-0.222657 0,-0.292969 -0.164063,-0.292969 -0.09375,0 -0.128906,0 -0.222656,0.152344 l -3.597656,5.578125 v 0.351562 h 3.140625 v 1.078125 c 0,0.445313 -0.02344,0.5625 -0.902344,0.5625 h -0.234375 v 0.351563 c 0.269531,-0.02344 1.21875,-0.02344 1.558594,-0.02344 0.328125,0 1.289062,0 1.5585933,0.02344 V 51.379789 H -10.18718 c -0.867187,0 -0.902343,-0.117187 -0.902343,-0.5625 v -1.078125 h 1.2070308 v -0.351562 h -1.2070308 z m -0.785157,0.9375 v 4.5 h -2.90625 z m 5.7714847,-0.820313 c 0,-0.269531 0,-0.28125 -0.2460938,-0.28125 -0.28125,0.316406 -0.8789062,0.761719 -2.109375,0.761719 v 0.351562 c 0.2695313,0 0.8671875,0 1.5234375,-0.316406 v 6.222656 c 0,0.433594 -0.035156,0.574219 -1.078125,0.574219 h -0.375 v 0.351563 c 0.3164063,-0.02344 1.4765625,-0.02344 1.875,-0.02344 0.3984375,0 1.546875,0 1.8632813,0.02344 v -0.351563 h -0.3632813 c -1.0546875,0 -1.0898437,-0.140625 -1.0898437,-0.574219 z m 6.77929686,4.183594 c 0,2.824219 -1.25390625,3.410156 -1.96874996,3.410156 -0.28125,0 -0.9257813,-0.03516 -1.21875,-0.457031 h 0.070312 c 0.082031,0.02344 0.515625,-0.04687 0.515625,-0.492188 0,-0.257812 -0.1757813,-0.492187 -0.4921875,-0.492187 -0.3046875,0 -0.5039063,0.210937 -0.5039063,0.515625 0,0.75 0.5976563,1.242187 1.640625,1.242187 1.50000001,0 2.9414063,-1.582031 2.9414063,-4.183593 0,-3.210938 -1.33593754,-4.007813 -2.39062504,-4.007813 -1.31249996,0 -2.47265626,1.101563 -2.47265626,2.671875 0,1.582031 1.1132813,2.660156 2.30859376,2.660156 0.87890625,0 1.3359375,-0.644531 1.5703125,-1.253906 z m -1.5234375,0.621094 c -0.74999996,0 -1.07812496,-0.609375 -1.18359376,-0.832032 -0.1992187,-0.457031 -0.1992187,-1.03125 -0.1992187,-1.570312 0,-0.667969 0,-1.242188 0.3164062,-1.734375 0.2109375,-0.316406 0.5390625,-0.667969 1.18359376,-0.667969 0.6796875,0 1.03125,0.597656 1.1484375,0.878906 0.234375,0.585938 0.234375,1.59375 0.234375,1.78125 0,0.996094 -0.4453125,2.144532 -1.5,2.144532 z m 0,0"
         style="fill:#000000;fill-opacity:1;fill-rule:nonzero;stroke:none" />
      <path
         id="path65"
         d="m -27.281906,62.846586 c 0,-0.269531 0,-0.28125 -0.246094,-0.28125 -0.28125,0.316406 -0.878906,0.761719 -2.109375,0.761719 v 0.351562 c 0.269531,0 0.867187,0 1.523437,-0.316406 v 6.222656 c 0,0.433594 -0.03516,0.574219 -1.078125,0.574219 h -0.375 v 0.351562 c 0.316407,-0.02344 1.476563,-0.02344 1.875,-0.02344 0.398438,0 1.546875,0 1.863282,0.02344 v -0.351562 h -0.363282 c -1.054687,0 -1.089843,-0.140625 -1.089843,-0.574219 z m 6.779297,4.183594 c 0,2.824218 -1.253907,3.410156 -1.96875,3.410156 -0.28125,0 -0.925782,-0.03516 -1.21875,-0.457031 h 0.07031 c 0.08203,0.02344 0.515625,-0.04687 0.515625,-0.492188 0,-0.257812 -0.175781,-0.492187 -0.492187,-0.492187 -0.304688,0 -0.503907,0.210937 -0.503907,0.515625 0,0.75 0.597657,1.242187 1.640625,1.242187 1.5,0 2.941407,-1.582031 2.941407,-4.183594 0,-3.210937 -1.335938,-4.007812 -2.390625,-4.007812 -1.3125,0 -2.472657,1.101562 -2.472657,2.671875 0,1.582031 1.113282,2.660156 2.308594,2.660156 0.878906,0 1.335938,-0.644531 1.570313,-1.253906 z m -1.523438,0.621093 c -0.75,0 -1.078125,-0.609375 -1.183594,-0.832031 -0.199218,-0.457031 -0.199218,-1.03125 -0.199218,-1.570312 0,-0.667969 0,-1.242188 0.316406,-1.734375 0.210937,-0.316407 0.539062,-0.667969 1.183594,-0.667969 0.679687,0 1.03125,0.597656 1.148437,0.878906 0.234375,0.585938 0.234375,1.59375 0.234375,1.78125 0,0.996094 -0.445312,2.144531 -1.5,2.144531 z m 6.568359,-1.453125 c 0.597657,-0.328125 1.464844,-0.878906 1.464844,-1.875 0,-1.042968 -0.996094,-1.757812 -2.097656,-1.757812 -1.183594,0 -2.121094,0.867187 -2.121094,1.957031 0,0.410156 0.128906,0.808594 0.457031,1.21875 0.128907,0.152344 0.140625,0.164063 0.984375,0.75 -1.160156,0.539063 -1.757812,1.347656 -1.757812,2.214844 0,1.265625 1.207031,2.050781 2.425781,2.050781 1.324219,0 2.4375,-0.972656 2.4375,-2.226562 0,-1.21875 -0.855469,-1.757813 -1.792969,-2.332032 z m -1.628906,-1.078125 c -0.152344,-0.105468 -0.632812,-0.421875 -0.632812,-1.007812 0,-0.773438 0.820312,-1.265625 1.617187,-1.265625 0.855469,0 1.628906,0.621094 1.628906,1.488281 0,0.726563 -0.527343,1.3125 -1.21875,1.6875 z m 0.5625,1.546875 1.453125,0.9375 c 0.304688,0.199219 0.855469,0.574219 0.855469,1.300782 0,0.914062 -0.914063,1.535156 -1.875,1.535156 -1.019531,0 -1.886719,-0.738281 -1.886719,-1.734375 0,-0.9375 0.679688,-1.6875 1.453125,-2.039063 z m 7.6699221,-3.9375 c 0,-0.222656 0,-0.292968 -0.1640625,-0.292968 -0.09375,0 -0.1289062,0 -0.2226562,0.152343 l -3.5976564,5.578125 v 0.351563 h 3.1406251 v 1.078125 c 0,0.445312 -0.023437,0.5625 -0.9023441,0.5625 h -0.234375 v 0.351562 c 0.269532,-0.02344 1.2187504,-0.02344 1.5585941,-0.02344 0.328125,0 1.2890625,0 1.5585938,0.02344 v -0.351562 h -0.234375 c -0.8671875,0 -0.9023438,-0.117188 -0.9023438,-0.5625 v -1.078125 h 1.2070313 v -0.351563 h -1.2070313 z m -0.7851562,0.9375 v 4.5 h -2.9062499 z m 0,0"
         style="fill:#000000;fill-opacity:1;fill-rule:nonzero;stroke:none" />
    </g>
  </g>
</svg>
