<?xml version="1.0" encoding="UTF-8" standalone="no"?>
<!-- Created with Inkscape (http://www.inkscape.org/) -->

<svg
   version="1.1"
   id="svg1"
   width="794.55066"
   height="1123.6533"
   viewBox="0 0 794.55066 1123.6533"
   sodipodi:docname="LigaMatematycznaMatuskiego_Gim_Zestaw1_2013_2014_page0.pdf"
   xmlns:inkscape="http://www.inkscape.org/namespaces/inkscape"
   xmlns:sodipodi="http://sodipodi.sourceforge.net/DTD/sodipodi-0.dtd"
   xmlns="http://www.w3.org/2000/svg"
   xmlns:svg="http://www.w3.org/2000/svg">
  <defs
     id="defs1" />
  <sodipodi:namedview
     id="namedview1"
     pagecolor="#ffffff"
     bordercolor="#000000"
     borderopacity="0.25"
     inkscape:showpageshadow="2"
     inkscape:pageopacity="0.0"
     inkscape:pagecheckerboard="0"
     inkscape:deskcolor="#d1d1d1">
    <inkscape:page
       x="0"
       y="0"
       inkscape:label="1"
       id="page1"
       width="794.55066"
       height="1123.6533"
       margin="0"
       bleed="0" />
  </sodipodi:namedview>
  <g
     id="g1"
     inkscape:groupmode="layer"
     inkscape:label="1">
    <g
       id="g2"
       aria-label="LIGAMATEMATYCZNA&#10;im.ZdzisªawaMatuskiego&#10;PADZIERNIK2013&#10;GIMNAZJUM&#10;ZADANIE1.&#10;Danyjestuªamek&#10;a"
       transform="matrix(1.3333333,0,0,1.3333333,274.724,56.069333)">
      <path
         id="path2"
         d="m -44.435578,108.57788 c -0.05859,0.19922 -0.05859,0.22266 -0.222656,0.44532 -0.269532,0.33984 -0.796875,0.85546 -1.359375,0.85546 -0.480469,0 -0.761719,-0.44531 -0.761719,-1.14843 0,-0.65625 0.375,-1.99219 0.597656,-2.4961 0.410156,-0.84375 0.972656,-1.26562 1.441406,-1.26562 0.785157,0 0.9375,0.97265 0.9375,1.0664 0,0.0117 -0.03516,0.17579 -0.04687,0.19922 z m 0.761719,-3.07031 c -0.128907,-0.30469 -0.445313,-0.78516 -1.066407,-0.78516 -1.359375,0 -2.8125,1.7461 -2.8125,3.51563 0,1.18359 0.691407,1.875 1.5,1.875 0.65625,0 1.21875,-0.51563 1.558594,-0.90234 0.117188,0.70312 0.679688,0.90234 1.042969,0.90234 0.351562,0 0.644531,-0.21094 0.855469,-0.64453 0.1875,-0.41016 0.363281,-1.13672 0.363281,-1.1836 0,-0.0586 -0.04687,-0.10546 -0.117188,-0.10546 -0.117187,0 -0.128906,0.0586 -0.175781,0.23437 -0.175781,0.71484 -0.398437,1.46484 -0.890625,1.46484 -0.351562,0 -0.375,-0.3164 -0.375,-0.55078 0,-0.28125 0.03516,-0.41015 0.140625,-0.8789 0.08203,-0.29297 0.152344,-0.5625 0.246094,-0.90235 0.433594,-1.79297 0.550781,-2.22656 0.550781,-2.29687 0,-0.16406 -0.140625,-0.29297 -0.316406,-0.29297 -0.375,0 -0.480469,0.41016 -0.503906,0.55078 z m 0,0"
         style="fill:#000000;fill-opacity:1;fill-rule:nonzero;stroke:none" />
    </g>
    <path
       id="path3"
       d="M 0,0 H 6.145"
       style="fill:none;stroke:#000000;stroke-width:0.478;stroke-linecap:butt;stroke-linejoin:miter;stroke-miterlimit:10;stroke-dasharray:none;stroke-opacity:1"
       transform="matrix(1.3333333,0,0,-1.3333333,210.67867,209.52933)" />
    <g
       id="g3"
       aria-label="b&#10;.Dolicznikategouªamkadodanoliczb¦1.Jak¡liczb¦nale»ydoda¢&#10;domianownika,abyotrzyma¢uªamekrównydanemu?&#10;ZADANIE2.&#10;Naprzyj¦cieprzybyªapewnaliczbago±ci.Ka»dyzka»dymwymieniªu±ciskdªoni,zwyj¡tkiem&#10;panaJana,którydwunastugo±ciomniechciaªpoda¢r¦ki.Wsumiewymieniono2004u±ciski&#10;dªoni.Ileosóbbyªonaprzyj¦ciu?&#10;ZADANIE3.&#10;WnaleLigiMatematycznejuczestniczyªostuuczniów.Uzasadnij,»ew±ródnichbyªopi¦tna-&#10;stu(lubwi¦cej)uczniów,którzyurodzilisi¦wtymsamymdniutygodnia.&#10;ZADANIE4.&#10;Dªugo±cibokówkwadratówABCDiKLMNs¡równe4cm.Kwadratytes¡takpoªo»one,&#10;»ewierzchoªekKnale»ydobokuAD,wierzchoªekLdobokuAB,aprzek¡tnekwadratu&#10;KLMNs¡prostopadªedoodpowiednichbokówkwadratuABCD.Obliczpoleguryb¦d¡cej&#10;cz¦±ci¡wspóln¡obukwadratów.Obliczodlegªo±¢wierzchoªkaCodprostejMN.&#10;ZADANIE5.&#10;NaMi¦dzynarodow¡Olimpiad¦Matematyczn¡przyjechaªo1000osób.Wsprawozdaniupo-&#10;dano,»ew±ródnich811wªadaj¦zykiemangielskim,752j¦zykiemrosyjskim,418j¦zykiem&#10;francuskim,356j¦zykiemrosyjskimifrancuskim,570j¦zykiemrosyjskimiangielskim,&#10;348j¦zykiemangielskimifrancuskim,297osóbmówiwszystkimitrzemaj¦zykami.Wyka»,&#10;»ewsprawozdaniupopeªnionobª¡d."
       transform="matrix(1.3333333,0,0,1.3333333,211.45733,224.44933)">
      <path
         id="path4"
         d="m 2.7653984,-7.9922734 c 0.011719,-0.046875 0.035156,-0.1289063 0.035156,-0.1875 0,-0.1171875 -0.1289063,-0.1171875 -0.1523438,-0.1171875 -0.011719,0 -0.4335937,0.035156 -0.65625,0.058594 -0.1992187,0.011719 -0.375,0.035156 -0.5976562,0.046875 -0.28125,0.023437 -0.3632813,0.035156 -0.3632813,0.2578125 0,0.1171875 0.1171875,0.1171875 0.234375,0.1171875 0.609375,0 0.609375,0.1054688 0.609375,0.2226563 0,0.082031 -0.09375,0.4335937 -0.140625,0.6445312 l -0.2929687,1.1484375 c -0.1171875,0.4804688 -0.79687501,3.1992188 -0.84375001,3.4101563 -0.0585938,0.2929687 -0.0585938,0.5039062 -0.0585938,0.65625 0,1.21874996 0.67968751,1.85156246 1.45312501,1.85156246 1.3945313,0 2.8242188,-1.78124996 2.8242188,-3.51562496 0,-1.1015625 -0.6210938,-1.875 -1.5117188,-1.875 -0.6328125,0 -1.1835937,0.515625 -1.4179687,0.75 z m -0.7617187,7.87499996 c -0.375,0 -0.796875,-0.29296875 -0.796875,-1.21874996 0,-0.3984375 0.035156,-0.6210938 0.2460937,-1.4648438 0.046875,-0.1523437 0.234375,-0.9140625 0.28125,-1.0664062 0.023437,-0.1054688 0.7265625,-1.1601563 1.5351563,-1.1601563 0.5273437,0 0.7734375,0.515625 0.7734375,1.1367188 0,0.5742187 -0.3398438,1.9335937 -0.6328125,2.5546875 -0.3046875,0.64453121 -0.8554688,1.21874996 -1.40625,1.21874996 z m 0,0"
         style="fill:#000000;fill-opacity:1;fill-rule:nonzero;stroke:none" />
      <path
         id="path5"
         d="m 234.41286,-15.864344 c 0,-0.269531 0,-0.28125 -0.24609,-0.28125 -0.28125,0.316407 -0.87891,0.761719 -2.10938,0.761719 v 0.351563 c 0.26953,0 0.86719,0 1.52344,-0.316407 v 6.2226565 c 0,0.4335938 -0.0352,0.5742188 -1.07813,0.5742188 h -0.375 v 0.3515625 c 0.31641,-0.023437 1.47657,-0.023437 1.875,-0.023437 0.39844,0 1.54688,0 1.86328,0.023437 v -0.3515625 h -0.36328 c -1.05468,0 -1.08984,-0.140625 -1.08984,-0.5742188 z m 0,0"
         style="fill:#000000;fill-opacity:1;fill-rule:nonzero;stroke:none" />
      <path
         id="path6"
         d="m 325.2068,69.070227 h -0.26953 c -0.0351,0.199218 -0.1289,0.855468 -0.24609,1.042968 -0.082,0.117188 -0.76172,0.117188 -1.125,0.117188 h -2.21484 c 0.32812,-0.28125 1.05468,-1.042969 1.37109,-1.335938 1.81641,-1.664062 2.48437,-2.285156 2.48437,-3.46875 0,-1.382812 -1.08984,-2.296875 -2.47265,-2.296875 -1.39453,0 -2.20313,1.183594 -2.20313,2.203125 0,0.609375 0.52735,0.609375 0.5625,0.609375 0.2461,0 0.5625,-0.175781 0.5625,-0.5625 0,-0.328125 -0.23437,-0.550781 -0.5625,-0.550781 -0.10547,0 -0.1289,0 -0.16406,0.01172 0.22266,-0.820313 0.86719,-1.371094 1.64063,-1.371094 1.01953,0 1.64062,0.855469 1.64062,1.957031 0,1.007813 -0.58594,1.898438 -1.26562,2.660157 l -2.41407,2.707031 v 0.28125 h 4.35938 z m 5.94727,-1.816407 c 0,-0.996093 -0.0586,-1.96875 -0.49219,-2.871093 -0.49218,-0.996094 -1.34765,-1.253907 -1.93359,-1.253907 -0.69141,0 -1.54688,0.339844 -1.98047,1.335938 -0.33984,0.75 -0.45703,1.488281 -0.45703,2.789062 0,1.160157 0.082,2.027344 0.51562,2.871094 0.45704,0.914063 1.28907,1.195313 1.91016,1.195313 1.04297,0 1.64063,-0.621094 1.98047,-1.3125 0.43359,-0.890625 0.45703,-2.0625 0.45703,-2.753907 z m -2.4375,3.832032 c -0.38672,0 -1.16016,-0.210938 -1.38281,-1.523438 -0.14063,-0.714844 -0.14063,-1.617187 -0.14063,-2.460937 0,-0.972657 0,-1.863282 0.19922,-2.566407 0.19922,-0.796875 0.8086,-1.171875 1.32422,-1.171875 0.45703,0 1.14844,0.28125 1.37109,1.300782 0.15235,0.679687 0.15235,1.628906 0.15235,2.4375 0,0.808593 0,1.710937 -0.12891,2.4375 -0.22265,1.324218 -0.97265,1.546875 -1.39453,1.546875 z m 8.29102,-3.832032 c 0,-0.996093 -0.0586,-1.96875 -0.49219,-2.871093 -0.49219,-0.996094 -1.34766,-1.253907 -1.9336,-1.253907 -0.6914,0 -1.54687,0.339844 -1.98046,1.335938 -0.33985,0.75 -0.45704,1.488281 -0.45704,2.789062 0,1.160157 0.082,2.027344 0.51563,2.871094 0.45703,0.914063 1.28906,1.195313 1.91016,1.195313 1.04296,0 1.64062,-0.621094 1.98046,-1.3125 0.4336,-0.890625 0.45704,-2.0625 0.45704,-2.753907 z m -2.4375,3.832032 c -0.38672,0 -1.16016,-0.210938 -1.38282,-1.523438 -0.14062,-0.714844 -0.14062,-1.617187 -0.14062,-2.460937 0,-0.972657 0,-1.863282 0.19922,-2.566407 0.19922,-0.796875 0.80859,-1.171875 1.32422,-1.171875 0.45703,0 1.14843,0.28125 1.37109,1.300782 0.15234,0.679687 0.15234,1.628906 0.15234,2.4375 0,0.808593 0,1.710937 -0.1289,2.4375 -0.22266,1.324218 -0.97266,1.546875 -1.39453,1.546875 z m 7.24804,-7.792969 c 0,-0.222656 0,-0.292969 -0.16406,-0.292969 -0.0937,0 -0.12891,0 -0.22266,0.152344 l -3.59765,5.578125 v 0.351562 h 3.14062 v 1.078125 c 0,0.445313 -0.0234,0.5625 -0.90234,0.5625 h -0.23438 v 0.351563 c 0.26954,-0.02344 1.21875,-0.02344 1.5586,-0.02344 0.32812,0 1.28906,0 1.55859,0.02344 V 70.72257 h -0.23437 c -0.86719,0 -0.90235,-0.117187 -0.90235,-0.5625 v -1.078125 h 1.20703 v -0.351562 h -1.20703 z m -0.78515,0.9375 v 4.5 h -2.90625 z m 0,0"
         style="fill:#000000;fill-opacity:1;fill-rule:nonzero;stroke:none" />
      <path
         id="path7"
         d="m 47.243914,193.43839 c -0.410156,0.70313 -0.820312,0.9375 -1.394531,0.97266 -0.128906,0.0117 -0.222656,0.0117 -0.222656,0.23437 0,0.0703 0.05859,0.11719 0.140625,0.11719 0.210937,0 0.75,-0.0234 0.972656,-0.0234 0.339844,0 0.726562,0.0234 1.054687,0.0234 0.07031,0 0.222657,0 0.222657,-0.22266 0,-0.11718 -0.09375,-0.1289 -0.175782,-0.1289 -0.269531,-0.0234 -0.492187,-0.11719 -0.492187,-0.39844 0,-0.17578 0.07031,-0.30469 0.222656,-0.5625 l 0.902344,-1.51172 h 3.058594 c 0.01172,0.10547 0.01172,0.21094 0.02344,0.31641 0.03516,0.30468 0.175781,1.54687 0.175781,1.78125 0,0.35156 -0.609375,0.375 -0.796875,0.375 -0.140625,0 -0.269531,0 -0.269531,0.22265 0,0.12891 0.105469,0.12891 0.175781,0.12891 0.210938,0 0.445313,-0.0234 0.65625,-0.0234 h 0.679688 c 0.726562,0 1.253906,0.0234 1.265625,0.0234 0.08203,0 0.210937,0 0.210937,-0.22266 0,-0.1289 -0.105468,-0.1289 -0.28125,-0.1289 -0.65625,0 -0.667968,-0.10547 -0.714843,-0.45703 l -0.726563,-7.46485 c -0.02344,-0.23437 -0.07031,-0.25781 -0.199219,-0.25781 -0.117187,0 -0.1875,0.0234 -0.304687,0.19922 z m 1.441406,-1.83984 2.402344,-4.01953 0.410156,4.01953 z m 9.679688,-4.1836 c 0.117187,-0.44531 0.164062,-0.46875 0.621094,-0.46875 h 1.558593 c 1.347657,0 1.347657,1.14844 1.347657,1.25391 0,0.97266 -0.960938,2.20312 -2.542969,2.20312 h -1.722656 z m 2.027344,3.08203 c 1.300781,-0.24609 2.484375,-1.14843 2.484375,-2.25 0,-0.92578 -0.832032,-1.65234 -2.179688,-1.65234 h -3.832031 c -0.234375,0 -0.339844,0 -0.339844,0.23438 0,0.11718 0.105469,0.11718 0.292969,0.11718 0.726562,0 0.726562,0.0937 0.726562,0.22266 0,0.0234 0,0.0937 -0.04687,0.28125 l -1.617187,6.43359 c -0.105469,0.41016 -0.128906,0.52735 -0.960938,0.52735 -0.234375,0 -0.351562,0 -0.351562,0.22265 0,0.12891 0.07031,0.12891 0.304687,0.12891 h 4.101563 c 1.828125,0 3.246094,-1.38281 3.246094,-2.58984 0,-0.98438 -0.867188,-1.58204 -1.828125,-1.67579 z m -1.699219,3.91407 h -1.617188 c -0.164062,0 -0.1875,0 -0.257812,-0.0117 -0.128906,-0.0117 -0.152344,-0.0352 -0.152344,-0.12891 0,-0.082 0.03516,-0.15234 0.05859,-0.25781 l 0.832031,-3.375 h 2.25 c 1.40625,0 1.40625,1.3125 1.40625,1.40625 0,1.14844 -1.042969,2.36719 -2.519531,2.36719 z m 13.719726,-7.95703 c 0,-0.10547 -0.08203,-0.10547 -0.105468,-0.10547 -0.02344,0 -0.07031,0 -0.175782,0.11718 l -0.820312,1.00782 c -0.421875,-0.71485 -1.078125,-1.125 -1.96875,-1.125 -2.589844,0 -5.261719,2.61328 -5.261719,5.42578 0,1.99219 1.394531,3.23437 3.140625,3.23437 0.960938,0 1.792969,-0.39843 2.484375,-0.98437 1.042969,-0.87891 1.359375,-2.03906 1.359375,-2.13281 0,-0.10547 -0.09375,-0.10547 -0.140625,-0.10547 -0.105469,0 -0.117187,0.0703 -0.140625,0.11718 -0.550781,1.86329 -2.15625,2.76563 -3.351562,2.76563 -1.277344,0 -2.367188,-0.82031 -2.367188,-2.50781 0,-0.38672 0.117188,-2.46094 1.464844,-4.03125 0.65625,-0.76172 1.78125,-1.44141 2.917969,-1.44141 1.3125,0 1.898437,1.08984 1.898437,2.30859 0,0.31641 -0.03516,0.57422 -0.03516,0.6211 0,0.11719 0.117187,0.11719 0.152344,0.11719 0.140625,0 0.152343,-0.0117 0.199218,-0.23438 z m 2.182618,7.42968 c -0.105469,0.41016 -0.128907,0.52735 -0.960938,0.52735 -0.234375,0 -0.351562,0 -0.351562,0.22265 0,0.12891 0.07031,0.12891 0.304687,0.12891 h 3.796875 c 2.414063,0 4.769531,-2.49609 4.769531,-5.16797 0,-1.72266 -1.03125,-3 -2.742187,-3 h -3.832031 c -0.234375,0 -0.339844,0 -0.339844,0.23438 0,0.11718 0.105469,0.11718 0.292969,0.11718 0.726562,0 0.726562,0.0937 0.726562,0.22266 0,0.0234 0,0.0937 -0.04687,0.28125 z m 2.519531,-6.46875 c 0.117187,-0.44531 0.164062,-0.46875 0.621094,-0.46875 h 1.324218 c 1.113282,0 2.144532,0.60938 2.144532,2.26172 0,0.59766 -0.234375,2.67188 -1.394532,3.98438 -0.339843,0.39843 -1.242187,1.21875 -2.625,1.21875 h -1.359375 c -0.164062,0 -0.1875,0 -0.257812,-0.0117 -0.128906,-0.0117 -0.140625,-0.0352 -0.140625,-0.12891 0,-0.082 0.02344,-0.15234 0.04687,-0.25781 z m 0,0"
         style="fill:#000000;fill-opacity:1;fill-rule:nonzero;stroke:none" />
      <path
         id="path8"
         d="m 101.15602,189.93448 c -0.0117,-0.0352 -0.0586,-0.1289 -0.0586,-0.16406 0,-0.0117 0.0117,-0.0234 0.21094,-0.1875 l 1.16015,-0.90234 c 1.60547,-1.24219 2.13282,-1.66406 2.95313,-1.73438 0.082,-0.0117 0.19922,-0.0117 0.19922,-0.21093 0,-0.082 -0.0352,-0.14063 -0.12891,-0.14063 -0.12891,0 -0.26953,0.0234 -0.39844,0.0234 h -0.45703 c -0.375,0 -0.76172,-0.0234 -1.125,-0.0234 -0.082,0 -0.22265,0 -0.22265,0.22266 0,0.11718 0.082,0.1289 0.15234,0.1289 0.12891,0.0117 0.28125,0.0586 0.28125,0.22266 0,0.24609 -0.35156,0.52734 -0.44531,0.59766 l -4.687503,3.64453 0.984375,-3.9375 c 0.117188,-0.41016 0.140625,-0.52735 0.984378,-0.52735 0.22265,0 0.33984,0 0.33984,-0.22265 0,-0.12891 -0.12891,-0.12891 -0.1875,-0.12891 -0.21094,0 -0.46875,0.0234 -0.69141,0.0234 h -1.406245 c -0.222657,0 -0.480469,-0.0234 -0.691407,-0.0234 -0.105468,0 -0.234375,0 -0.234375,0.23438 0,0.11718 0.105469,0.11718 0.292969,0.11718 0.726563,0 0.726563,0.0937 0.726563,0.22266 0,0.0234 0,0.0937 -0.04687,0.28125 l -1.617188,6.43359 c -0.105469,0.41016 -0.128906,0.52735 -0.960937,0.52735 -0.234375,0 -0.351563,0 -0.351563,0.22265 0,0.12891 0.105469,0.12891 0.175781,0.12891 0.234375,0 0.46875,-0.0234 0.691407,-0.0234 h 1.40625 c 0.222656,0 0.480468,0.0234 0.703125,0.0234 0.09375,0 0.222656,0 0.222656,-0.22266 0,-0.1289 -0.105469,-0.1289 -0.28125,-0.1289 -0.726563,0 -0.726563,-0.0937 -0.726563,-0.21094 0,-0.082 0.07031,-0.38672 0.117188,-0.57422 l 0.46875,-1.85156 1.816399,-1.41797 c 0.33985,0.76172 0.97266,2.28516 1.46485,3.45703 0.0352,0.082 0.0586,0.15234 0.0586,0.23438 0,0.35156 -0.48047,0.36328 -0.58594,0.36328 -0.10547,0 -0.22265,0 -0.22265,0.23437 0,0.11719 0.1289,0.11719 0.16406,0.11719 0.42187,0 0.86719,-0.0234 1.27734,-0.0234 h 0.57422 c 0.17578,0 0.38672,0.0234 0.5625,0.0234 0.0703,0 0.19922,0 0.19922,-0.22266 0,-0.1289 -0.10547,-0.1289 -0.22266,-0.1289 -0.44531,-0.0117 -0.59765,-0.10547 -0.77343,-0.52735 z m 9.22559,-2.41406 c 0.11719,-0.45703 0.15234,-0.57422 1.19531,-0.57422 0.32813,0 0.41016,0 0.41016,-0.22265 0,-0.12891 -0.12891,-0.12891 -0.17578,-0.12891 -0.2461,0 -0.51563,0.0234 -0.76172,0.0234 h -1.59375 c -0.23438,0 -0.49219,-0.0234 -0.71485,-0.0234 -0.10546,0 -0.23437,0 -0.23437,0.23438 0,0.11718 0.10547,0.11718 0.29297,0.11718 0.72656,0 0.72656,0.0937 0.72656,0.22266 0,0.0234 0,0.0937 -0.0469,0.28125 l -1.61719,6.43359 c -0.10547,0.41016 -0.12891,0.52735 -0.96094,0.52735 -0.23437,0 -0.35156,0 -0.35156,0.22265 0,0.12891 0.0703,0.12891 0.30469,0.12891 h 5.35546 c 0.26954,0 0.28125,-0.0117 0.36329,-0.22266 l 0.92578,-2.55468 c 0.0234,-0.0586 0.0469,-0.12891 0.0469,-0.16407 0,-0.0703 -0.0586,-0.11718 -0.1289,-0.11718 -0.0117,0 -0.0703,0 -0.0937,0.0469 -0.0234,0.0117 -0.0234,0.0352 -0.11719,0.25781 -0.38672,1.05469 -0.91406,2.40235 -2.94141,2.40235 h -1.14844 c -0.16406,0 -0.1875,0 -0.25781,-0.0117 -0.1289,-0.0117 -0.14062,-0.0352 -0.14062,-0.12891 0,-0.082 0.0234,-0.15234 0.0469,-0.25781 z m 14.43164,-0.0469 c 0.10547,-0.41016 0.12891,-0.52735 0.98438,-0.52735 0.22265,0 0.32812,0 0.32812,-0.22265 0,-0.12891 -0.082,-0.12891 -0.30469,-0.12891 h -1.4414 c -0.29297,0 -0.30469,0.0117 -0.4336,0.21094 l -4.37109,6.89062 -0.89063,-6.83203 c -0.0352,-0.26953 -0.0469,-0.26953 -0.36328,-0.26953 h -1.47656 c -0.23437,0 -0.33984,0 -0.33984,0.23438 0,0.11718 0.10547,0.11718 0.29297,0.11718 0.72656,0 0.72656,0.0937 0.72656,0.22266 0,0.0234 0,0.0937 -0.0469,0.28125 l -1.53515,6.09375 c -0.14063,0.57422 -0.41016,0.83203 -1.21875,0.86719 -0.0352,0 -0.17578,0.0117 -0.17578,0.22265 0,0.12891 0.10546,0.12891 0.15234,0.12891 0.24609,0 0.85547,-0.0234 1.08984,-0.0234 h 0.57422 c 0.16406,0 0.375,0.0234 0.53906,0.0234 0.082,0 0.21094,0 0.21094,-0.22266 0,-0.11718 -0.11719,-0.1289 -0.16406,-0.1289 -0.39844,-0.0117 -0.77344,-0.082 -0.77344,-0.50391 0,-0.12891 0,-0.14062 0.0469,-0.30469 l 1.65234,-6.58593 h 0.0117 l 0.98437,7.41796 c 0.0352,0.29297 0.0469,0.32813 0.15235,0.32813 0.14062,0 0.19922,-0.0937 0.25781,-0.19922 l 4.80469,-7.60547 h 0.0117 l -1.73438,6.92578 c -0.10547,0.41016 -0.1289,0.52735 -0.97265,0.52735 -0.22266,0 -0.33985,0 -0.33985,0.22265 0,0.12891 0.10547,0.12891 0.17578,0.12891 0.21094,0 0.44532,-0.0234 0.64453,-0.0234 h 1.41797 c 0.19922,0 0.44532,0.0234 0.65625,0.0234 0.0937,0 0.22266,0 0.22266,-0.22266 0,-0.1289 -0.10547,-0.1289 -0.28125,-0.1289 -0.73828,0 -0.73828,-0.0937 -0.73828,-0.21094 0,-0.0117 0,-0.0937 0.0234,-0.1875 z m 10.56445,0.375 c 0.12891,-0.50391 0.31641,-0.86719 1.23047,-0.90235 0.0352,0 0.17578,-0.0117 0.17578,-0.21093 0,-0.14063 -0.10547,-0.14063 -0.15234,-0.14063 -0.23438,0 -0.85547,0.0234 -1.08984,0.0234 h -0.57422 c -0.16407,0 -0.38672,-0.0234 -0.55078,-0.0234 -0.0703,0 -0.21094,0 -0.21094,0.23438 0,0.11718 0.0937,0.11718 0.17578,0.11718 0.71484,0.0234 0.76172,0.29297 0.76172,0.51563 0,0.10547 -0.0117,0.14062 -0.0469,0.30469 l -1.34765,5.39062 -2.55469,-6.35156 c -0.082,-0.19922 -0.0937,-0.21094 -0.36328,-0.21094 h -1.45313 c -0.24609,0 -0.35156,0 -0.35156,0.23438 0,0.11718 0.082,0.11718 0.31641,0.11718 0.0586,0 0.76172,0 0.76172,0.10547 0,0.0234 -0.0234,0.11719 -0.0352,0.15235 l -1.59375,6.33984 c -0.14063,0.58594 -0.42188,0.83203 -1.21875,0.86719 -0.0586,0 -0.17578,0.0117 -0.17578,0.23437 0,0.11719 0.11719,0.11719 0.15234,0.11719 0.2461,0 0.85547,-0.0234 1.08985,-0.0234 h 0.57421 c 0.16407,0 0.375,0.0234 0.53907,0.0234 0.082,0 0.21093,0 0.21093,-0.22266 0,-0.11718 -0.11718,-0.1289 -0.16406,-0.1289 -0.39844,-0.0117 -0.77344,-0.082 -0.77344,-0.50391 0,-0.10547 0.0234,-0.21094 0.0469,-0.30469 l 1.60547,-6.39843 c 0.082,0.1289 0.082,0.15234 0.1289,0.25781 l 2.83594,7.08984 c 0.0586,0.14063 0.0937,0.21094 0.19922,0.21094 0.11719,0 0.12891,-0.0352 0.17578,-0.23438 z m 0,0"
         style="fill:#000000;fill-opacity:1;fill-rule:nonzero;stroke:none" />
      <path
         id="path9"
         d="m 195.91091,186.98136 c 0,-0.22266 0,-0.29297 -0.16407,-0.29297 -0.0937,0 -0.1289,0 -0.22265,0.15234 l -3.59766,5.57813 v 0.35156 h 3.14063 v 1.07813 c 0,0.44531 -0.0234,0.5625 -0.90235,0.5625 h -0.23437 v 0.35156 c 0.26953,-0.0234 1.21875,-0.0234 1.55859,-0.0234 0.32813,0 1.28906,0 1.55859,0.0234 v -0.35156 h -0.23437 c -0.86719,0 -0.90234,-0.11719 -0.90234,-0.5625 v -1.07813 h 1.20703 v -0.35156 h -1.20703 z m -0.78516,0.9375 v 4.5 h -2.90625 z m 0,0"
         style="fill:#000000;fill-opacity:1;fill-rule:nonzero;stroke:none" />
      <path
         id="path10"
         d="m -15.360578,205.82511 c -0.01172,-0.0352 -0.05859,-0.12891 -0.05859,-0.16406 0,-0.0117 0.01172,-0.0234 0.210938,-0.1875 l 1.160156,-0.90235 c 1.605469,-1.24218 2.132812,-1.66406 2.953125,-1.73437 0.08203,-0.0117 0.199219,-0.0117 0.199219,-0.21094 0,-0.082 -0.03516,-0.14062 -0.128907,-0.14062 -0.128906,0 -0.269531,0.0234 -0.398437,0.0234 h -0.457031 c -0.375,0 -0.761719,-0.0234 -1.125,-0.0234 -0.08203,0 -0.222657,0 -0.222657,0.22265 0,0.11719 0.08203,0.12891 0.152344,0.12891 0.128906,0.0117 0.28125,0.0586 0.28125,0.22265 0,0.2461 -0.351562,0.52735 -0.445312,0.59766 l -4.6875,3.64453 0.984375,-3.9375 c 0.117187,-0.41015 0.140625,-0.52734 0.984375,-0.52734 0.222656,0 0.339843,0 0.339843,-0.22266 0,-0.1289 -0.128906,-0.1289 -0.1875,-0.1289 -0.210937,0 -0.46875,0.0234 -0.691406,0.0234 h -1.40625 c -0.222656,0 -0.480469,-0.0234 -0.691406,-0.0234 -0.105469,0 -0.234375,0 -0.234375,0.23437 0,0.11719 0.105469,0.11719 0.292969,0.11719 0.726562,0 0.726562,0.0937 0.726562,0.22265 0,0.0234 0,0.0937 -0.04687,0.28125 l -1.617187,6.4336 c -0.105469,0.41015 -0.128907,0.52734 -0.960938,0.52734 -0.234375,0 -0.351562,0 -0.351562,0.22266 0,0.1289 0.105468,0.1289 0.175781,0.1289 0.234375,0 0.46875,-0.0234 0.691406,-0.0234 h 1.40625 c 0.222656,0 0.480469,0.0234 0.703125,0.0234 0.09375,0 0.222656,0 0.222656,-0.22265 0,-0.12891 -0.105468,-0.12891 -0.28125,-0.12891 -0.726562,0 -0.726562,-0.0937 -0.726562,-0.21094 0,-0.082 0.07031,-0.38671 0.117187,-0.57421 l 0.46875,-1.85157 1.816407,-1.41797 c 0.339843,0.76172 0.972656,2.28516 1.464843,3.45704 0.03516,0.082 0.05859,0.15234 0.05859,0.23437 0,0.35156 -0.480469,0.36328 -0.585937,0.36328 -0.105469,0 -0.222657,0 -0.222657,0.23438 0,0.11718 0.128907,0.11718 0.164063,0.11718 0.421875,0 0.867187,-0.0234 1.277344,-0.0234 h 0.574218 c 0.175782,0 0.386719,0.0234 0.5625,0.0234 0.07031,0 0.199219,0 0.199219,-0.22265 0,-0.12891 -0.105469,-0.12891 -0.222656,-0.12891 -0.445313,-0.0117 -0.597656,-0.10547 -0.773438,-0.52734 z m 0,0"
         style="fill:#000000;fill-opacity:1;fill-rule:nonzero;stroke:none" />
      <path
         id="path11"
         d="m 81.055438,209.32902 c -0.410157,0.70312 -0.820313,0.9375 -1.394532,0.97265 -0.128906,0.0117 -0.222656,0.0117 -0.222656,0.23438 0,0.0703 0.05859,0.11718 0.140625,0.11718 0.210938,0 0.75,-0.0234 0.972656,-0.0234 0.339844,0 0.726563,0.0234 1.054688,0.0234 0.07031,0 0.222656,0 0.222656,-0.22265 0,-0.11719 -0.09375,-0.12891 -0.175781,-0.12891 -0.269531,-0.0234 -0.492188,-0.11719 -0.492188,-0.39844 0,-0.17578 0.07031,-0.30468 0.222657,-0.5625 l 0.902343,-1.51171 H 85.3445 c 0.01172,0.10546 0.01172,0.21093 0.02344,0.3164 0.03516,0.30469 0.175781,1.54688 0.175781,1.78125 0,0.35156 -0.609375,0.375 -0.796875,0.375 -0.140625,0 -0.269531,0 -0.269531,0.22266 0,0.1289 0.105468,0.1289 0.175781,0.1289 0.210937,0 0.445312,-0.0234 0.65625,-0.0234 h 0.679687 c 0.726563,0 1.253907,0.0234 1.265625,0.0234 0.08203,0 0.210938,0 0.210938,-0.22265 0,-0.12891 -0.105469,-0.12891 -0.28125,-0.12891 -0.65625,0 -0.667969,-0.10547 -0.714844,-0.45703 L 85.74294,202.3798 c -0.02344,-0.23438 -0.07031,-0.25782 -0.199219,-0.25782 -0.117188,0 -0.1875,0.0234 -0.304688,0.19922 z m 1.441406,-1.83985 2.402344,-4.01953 0.410156,4.01953 z m 7.180664,2.28516 c -0.105469,0.41015 -0.128906,0.52734 -0.960938,0.52734 -0.234375,0 -0.351562,0 -0.351562,0.22266 0,0.1289 0.07031,0.1289 0.304687,0.1289 h 3.796875 c 2.414063,0 4.769532,-2.49609 4.769532,-5.16796 0,-1.72266 -1.03125,-3 -2.742188,-3 h -3.832031 c -0.234375,0 -0.339844,0 -0.339844,0.23437 0,0.11719 0.105469,0.11719 0.292969,0.11719 0.726562,0 0.726562,0.0937 0.726562,0.22265 0,0.0234 0,0.0937 -0.04687,0.28125 z m 2.519531,-6.46875 c 0.117188,-0.44531 0.164063,-0.46875 0.621094,-0.46875 h 1.324219 c 1.113281,0 2.144531,0.60937 2.144531,2.26172 0,0.59765 -0.234375,2.67187 -1.394531,3.98437 -0.339844,0.39844 -1.242188,1.21875 -2.625,1.21875 h -1.359375 c -0.164063,0 -0.1875,0 -0.257813,-0.0117 -0.128906,-0.0117 -0.140625,-0.0352 -0.140625,-0.1289 0,-0.082 0.02344,-0.15235 0.04687,-0.25782 z m 0,0"
         style="fill:#000000;fill-opacity:1;fill-rule:nonzero;stroke:none" />
      <path
         id="path12"
         d="m 174.75856,203.41105 c 0.11719,-0.45703 0.15235,-0.57422 1.19531,-0.57422 0.32813,0 0.41016,0 0.41016,-0.22266 0,-0.1289 -0.12891,-0.1289 -0.17578,-0.1289 -0.24609,0 -0.51563,0.0234 -0.76172,0.0234 h -1.59375 c -0.23437,0 -0.49219,-0.0234 -0.71484,-0.0234 -0.10547,0 -0.23438,0 -0.23438,0.23437 0,0.11719 0.10547,0.11719 0.29297,0.11719 0.72656,0 0.72656,0.0937 0.72656,0.22265 0,0.0234 0,0.0937 -0.0469,0.28125 l -1.61719,6.4336 c -0.10547,0.41015 -0.12891,0.52734 -0.96094,0.52734 -0.23437,0 -0.35156,0 -0.35156,0.22266 0,0.1289 0.0703,0.1289 0.30469,0.1289 h 5.35547 c 0.26953,0 0.28125,-0.0117 0.36328,-0.22265 l 0.92578,-2.55469 c 0.0234,-0.0586 0.0469,-0.12891 0.0469,-0.16406 0,-0.0703 -0.0586,-0.11719 -0.1289,-0.11719 -0.0117,0 -0.0703,0 -0.0937,0.0469 -0.0234,0.0117 -0.0234,0.0351 -0.11719,0.25781 -0.38672,1.05469 -0.91406,2.40234 -2.94141,2.40234 h -1.14843 c -0.16407,0 -0.1875,0 -0.25782,-0.0117 -0.1289,-0.0117 -0.14062,-0.0352 -0.14062,-0.1289 0,-0.082 0.0234,-0.15235 0.0469,-0.25782 z m 0,0"
         style="fill:#000000;fill-opacity:1;fill-rule:nonzero;stroke:none" />
      <path
         id="path13"
         d="m 243.58278,209.32902 c -0.41016,0.70312 -0.82031,0.9375 -1.39453,0.97265 -0.12891,0.0117 -0.22266,0.0117 -0.22266,0.23438 0,0.0703 0.0586,0.11718 0.14063,0.11718 0.21094,0 0.75,-0.0234 0.97265,-0.0234 0.33985,0 0.72657,0.0234 1.05469,0.0234 0.0703,0 0.22266,0 0.22266,-0.22265 0,-0.11719 -0.0937,-0.12891 -0.17578,-0.12891 -0.26953,-0.0234 -0.49219,-0.11719 -0.49219,-0.39844 0,-0.17578 0.0703,-0.30468 0.22266,-0.5625 l 0.90234,-1.51171 h 3.05859 c 0.0117,0.10546 0.0117,0.21093 0.0234,0.3164 0.0352,0.30469 0.17578,1.54688 0.17578,1.78125 0,0.35156 -0.60937,0.375 -0.79687,0.375 -0.14063,0 -0.26953,0 -0.26953,0.22266 0,0.1289 0.10546,0.1289 0.17578,0.1289 0.21093,0 0.44531,-0.0234 0.65625,-0.0234 h 0.67968 c 0.72657,0 1.25391,0.0234 1.26563,0.0234 0.082,0 0.21094,0 0.21094,-0.22265 0,-0.12891 -0.10547,-0.12891 -0.28125,-0.12891 -0.65625,0 -0.66797,-0.10547 -0.71485,-0.45703 l -0.72656,-7.46484 c -0.0234,-0.23438 -0.0703,-0.25782 -0.19922,-0.25782 -0.11719,0 -0.1875,0.0234 -0.30469,0.19922 z m 1.44141,-1.83985 2.40234,-4.01953 0.41016,4.01953 z m 9.67676,-4.18359 c 0.11718,-0.44531 0.16406,-0.46875 0.62109,-0.46875 h 1.55859 c 1.34766,0 1.34766,1.14844 1.34766,1.2539 0,0.97266 -0.96094,2.20313 -2.54297,2.20313 h -1.72266 z m 2.02734,3.08203 c 1.30078,-0.24609 2.48437,-1.14844 2.48437,-2.25 0,-0.92578 -0.83203,-1.65234 -2.17968,-1.65234 h -3.83203 c -0.23438,0 -0.33985,0 -0.33985,0.23437 0,0.11719 0.10547,0.11719 0.29297,0.11719 0.72656,0 0.72656,0.0937 0.72656,0.22265 0,0.0234 0,0.0937 -0.0469,0.28125 l -1.61719,6.4336 c -0.10547,0.41015 -0.12891,0.52734 -0.96094,0.52734 -0.23437,0 -0.35156,0 -0.35156,0.22266 0,0.1289 0.0703,0.1289 0.30469,0.1289 h 4.10156 c 1.82813,0 3.24609,-1.38281 3.24609,-2.58984 0,-0.98437 -0.86718,-1.58203 -1.82812,-1.67578 z m -1.69922,3.91406 h -1.61719 c -0.16406,0 -0.1875,0 -0.25781,-0.0117 -0.12891,-0.0117 -0.15234,-0.0352 -0.15234,-0.1289 0,-0.082 0.0351,-0.15235 0.0586,-0.25782 l 0.83203,-3.375 h 2.25 c 1.40625,0 1.40625,1.3125 1.40625,1.40625 0,1.14844 -1.04297,2.36719 -2.51953,2.36719 z m 0,0"
         style="fill:#000000;fill-opacity:1;fill-rule:nonzero;stroke:none" />
      <path
         id="path14"
         d="m -94.790266,221.71573 c -0.01172,-0.0352 -0.05859,-0.1289 -0.05859,-0.16406 0,-0.0117 0.01172,-0.0234 0.210937,-0.1875 l 1.160156,-0.90234 c 1.605469,-1.24219 2.132813,-1.66406 2.953125,-1.73438 0.08203,-0.0117 0.199219,-0.0117 0.199219,-0.21093 0,-0.082 -0.03516,-0.14063 -0.128906,-0.14063 -0.128906,0 -0.269531,0.0234 -0.398438,0.0234 h -0.457031 c -0.375,0 -0.761719,-0.0234 -1.125,-0.0234 -0.08203,0 -0.222656,0 -0.222656,0.22266 0,0.11718 0.08203,0.1289 0.152344,0.1289 0.128906,0.0117 0.28125,0.0586 0.28125,0.22266 0,0.24609 -0.351563,0.52734 -0.445313,0.59766 l -4.6875,3.64453 0.984375,-3.9375 c 0.117188,-0.41016 0.140625,-0.52735 0.984375,-0.52735 0.222656,0 0.339844,0 0.339844,-0.22265 0,-0.12891 -0.128906,-0.12891 -0.1875,-0.12891 -0.210938,0 -0.46875,0.0234 -0.691406,0.0234 h -1.40625 c -0.222657,0 -0.480469,-0.0234 -0.691407,-0.0234 -0.105468,0 -0.234375,0 -0.234375,0.23438 0,0.11718 0.105469,0.11718 0.292969,0.11718 0.726563,0 0.726563,0.0937 0.726563,0.22266 0,0.0234 0,0.0937 -0.04687,0.28125 l -1.617188,6.43359 c -0.105469,0.41016 -0.128906,0.52735 -0.960937,0.52735 -0.234374,0 -0.351564,0 -0.351564,0.22265 0,0.12891 0.10547,0.12891 0.17578,0.12891 0.234377,0 0.468752,-0.0234 0.691409,-0.0234 h 1.40625 c 0.222656,0 0.480468,0.0234 0.703125,0.0234 0.09375,0 0.222656,0 0.222656,-0.22266 0,-0.1289 -0.105469,-0.1289 -0.28125,-0.1289 -0.726563,0 -0.726563,-0.0937 -0.726563,-0.21094 0,-0.082 0.07031,-0.38672 0.117188,-0.57422 l 0.46875,-1.85156 1.816406,-1.41797 c 0.339844,0.76172 0.972656,2.28516 1.464844,3.45703 0.03516,0.082 0.05859,0.15234 0.05859,0.23438 0,0.35156 -0.480469,0.36328 -0.585938,0.36328 -0.105469,0 -0.222656,0 -0.222656,0.23437 0,0.11719 0.128906,0.11719 0.164062,0.11719 0.421875,0 0.867188,-0.0234 1.277344,-0.0234 h 0.574219 c 0.175781,0 0.386719,0.0234 0.5625,0.0234 0.07031,0 0.199219,0 0.199219,-0.22266 0,-0.1289 -0.105469,-0.1289 -0.222657,-0.1289 -0.445312,-0.0117 -0.597656,-0.10547 -0.773437,-0.52735 z m 9.225586,-2.41406 c 0.117188,-0.45703 0.152344,-0.57422 1.195313,-0.57422 0.328125,0 0.410156,0 0.410156,-0.22265 0,-0.12891 -0.128906,-0.12891 -0.175781,-0.12891 -0.246094,0 -0.515625,0.0234 -0.761719,0.0234 h -1.59375 c -0.234375,0 -0.492187,-0.0234 -0.714844,-0.0234 -0.105468,0 -0.234375,0 -0.234375,0.23438 0,0.11718 0.105469,0.11718 0.292969,0.11718 0.726563,0 0.726563,0.0937 0.726563,0.22266 0,0.0234 0,0.0937 -0.04687,0.28125 l -1.617188,6.43359 c -0.105469,0.41016 -0.128906,0.52735 -0.960937,0.52735 -0.234375,0 -0.351563,0 -0.351563,0.22265 0,0.12891 0.07031,0.12891 0.304688,0.12891 h 5.355468 c 0.269532,0 0.28125,-0.0117 0.363282,-0.22266 l 0.925781,-2.55468 c 0.02344,-0.0586 0.04687,-0.12891 0.04687,-0.16407 0,-0.0703 -0.05859,-0.11718 -0.128906,-0.11718 -0.01172,0 -0.07031,0 -0.09375,0.0469 -0.02344,0.0117 -0.02344,0.0352 -0.117188,0.25781 -0.386719,1.05469 -0.914062,2.40235 -2.941406,2.40235 h -1.148438 c -0.164062,0 -0.1875,0 -0.257812,-0.0117 -0.128906,-0.0117 -0.140625,-0.0352 -0.140625,-0.12891 0,-0.082 0.02344,-0.15234 0.04687,-0.25781 z m 14.434571,-0.0469 c 0.105468,-0.41016 0.128906,-0.52735 0.984375,-0.52735 0.222656,0 0.328125,0 0.328125,-0.22265 0,-0.12891 -0.08203,-0.12891 -0.304688,-0.12891 h -1.441406 c -0.292969,0 -0.304688,0.0117 -0.433594,0.21094 l -4.371094,6.89062 -0.890625,-6.83203 c -0.03516,-0.26953 -0.04687,-0.26953 -0.363281,-0.26953 h -1.476562 c -0.234375,0 -0.339844,0 -0.339844,0.23438 0,0.11718 0.105469,0.11718 0.292969,0.11718 0.726562,0 0.726562,0.0937 0.726562,0.22266 0,0.0234 0,0.0937 -0.04687,0.28125 l -1.535156,6.09375 c -0.140625,0.57422 -0.410156,0.83203 -1.21875,0.86719 -0.03516,0 -0.175781,0.0117 -0.175781,0.22265 0,0.12891 0.105468,0.12891 0.152343,0.12891 0.246094,0 0.855469,-0.0234 1.089844,-0.0234 h 0.574219 c 0.164062,0 0.375,0.0234 0.539062,0.0234 0.08203,0 0.210938,0 0.210938,-0.22266 0,-0.11718 -0.117188,-0.1289 -0.164063,-0.1289 -0.398437,-0.0117 -0.773437,-0.082 -0.773437,-0.50391 0,-0.12891 0,-0.14062 0.04687,-0.30469 l 1.652344,-6.58593 h 0.01172 l 0.984375,7.41796 c 0.03516,0.29297 0.04687,0.32813 0.152344,0.32813 0.140625,0 0.199219,-0.0937 0.257813,-0.19922 l 4.804687,-7.60547 h 0.01172 l -1.734375,6.92578 c -0.105469,0.41016 -0.128906,0.52735 -0.972656,0.52735 -0.222657,0 -0.339844,0 -0.339844,0.22265 0,0.12891 0.105469,0.12891 0.175781,0.12891 0.210938,0 0.445313,-0.0234 0.644531,-0.0234 h 1.417969 c 0.199219,0 0.445313,0.0234 0.65625,0.0234 0.09375,0 0.222656,0 0.222656,-0.22266 0,-0.1289 -0.105468,-0.1289 -0.28125,-0.1289 -0.738281,0 -0.738281,-0.0937 -0.738281,-0.21094 0,-0.0117 0,-0.0937 0.02344,-0.1875 z m 10.564453,0.375 c 0.128906,-0.50391 0.316406,-0.86719 1.230469,-0.90235 0.03516,0 0.175781,-0.0117 0.175781,-0.21093 0,-0.14063 -0.105469,-0.14063 -0.152344,-0.14063 -0.234375,0 -0.855469,0.0234 -1.089844,0.0234 h -0.574218 c -0.164063,0 -0.386719,-0.0234 -0.550782,-0.0234 -0.07031,0 -0.210937,0 -0.210937,0.23438 0,0.11718 0.09375,0.11718 0.175781,0.11718 0.714844,0.0234 0.761719,0.29297 0.761719,0.51563 0,0.10547 -0.01172,0.14062 -0.04687,0.30469 l -1.347656,5.39062 -2.554688,-6.35156 c -0.08203,-0.19922 -0.09375,-0.21094 -0.363281,-0.21094 h -1.453125 c -0.246094,0 -0.351563,0 -0.351563,0.23438 0,0.11718 0.08203,0.11718 0.316407,0.11718 0.05859,0 0.761718,0 0.761718,0.10547 0,0.0234 -0.02344,0.11719 -0.03516,0.15235 l -1.59375,6.33984 c -0.140625,0.58594 -0.421875,0.83203 -1.21875,0.86719 -0.05859,0 -0.175781,0.0117 -0.175781,0.23437 0,0.11719 0.117187,0.11719 0.152344,0.11719 0.246093,0 0.855468,-0.0234 1.089843,-0.0234 h 0.574219 c 0.164063,0 0.375,0.0234 0.539063,0.0234 0.08203,0 0.210937,0 0.210937,-0.22266 0,-0.11718 -0.117187,-0.1289 -0.164062,-0.1289 -0.398438,-0.0117 -0.773438,-0.082 -0.773438,-0.50391 0,-0.10547 0.02344,-0.21094 0.04687,-0.30469 l 1.605469,-6.39843 c 0.08203,0.1289 0.08203,0.15234 0.128906,0.25781 l 2.835938,7.08984 c 0.05859,0.14063 0.09375,0.21094 0.199218,0.21094 0.117188,0 0.128907,-0.0352 0.175782,-0.23438 z m 0,0"
         style="fill:#000000;fill-opacity:1;fill-rule:nonzero;stroke:none" />
      <path
         id="path15"
         d="m 203.68337,225.21964 c -0.41016,0.70313 -0.82032,0.9375 -1.39453,0.97266 -0.12891,0.0117 -0.22266,0.0117 -0.22266,0.23437 0,0.0703 0.0586,0.11719 0.14062,0.11719 0.21094,0 0.75,-0.0234 0.97266,-0.0234 0.33984,0 0.72656,0.0234 1.05469,0.0234 0.0703,0 0.22265,0 0.22265,-0.22266 0,-0.11718 -0.0937,-0.1289 -0.17578,-0.1289 -0.26953,-0.0234 -0.49218,-0.11719 -0.49218,-0.39844 0,-0.17578 0.0703,-0.30469 0.22265,-0.5625 l 0.90235,-1.51172 h 3.05859 c 0.0117,0.10547 0.0117,0.21094 0.0234,0.31641 0.0352,0.30468 0.17578,1.54687 0.17578,1.78125 0,0.35156 -0.60938,0.375 -0.79688,0.375 -0.14062,0 -0.26953,0 -0.26953,0.22265 0,0.12891 0.10547,0.12891 0.17578,0.12891 0.21094,0 0.44532,-0.0234 0.65625,-0.0234 h 0.67969 c 0.72656,0 1.25391,0.0234 1.26563,0.0234 0.082,0 0.21093,0 0.21093,-0.22266 0,-0.1289 -0.10547,-0.1289 -0.28125,-0.1289 -0.65625,0 -0.66797,-0.10547 -0.71484,-0.45703 l -0.72656,-7.46485 c -0.0234,-0.23437 -0.0703,-0.25781 -0.19922,-0.25781 -0.11719,0 -0.1875,0.0234 -0.30469,0.19922 z m 1.4414,-1.83984 2.40235,-4.01953 0.41015,4.01953 z m 9.67676,-4.1836 c 0.11719,-0.44531 0.16406,-0.46875 0.62109,-0.46875 h 1.5586 c 1.34765,0 1.34765,1.14844 1.34765,1.25391 0,0.97266 -0.96093,2.20312 -2.54296,2.20312 h -1.72266 z m 2.02734,3.08203 c 1.30079,-0.24609 2.48438,-1.14843 2.48438,-2.25 0,-0.92578 -0.83203,-1.65234 -2.17969,-1.65234 h -3.83203 c -0.23437,0 -0.33984,0 -0.33984,0.23438 0,0.11718 0.10547,0.11718 0.29297,0.11718 0.72656,0 0.72656,0.0937 0.72656,0.22266 0,0.0234 0,0.0937 -0.0469,0.28125 l -1.61718,6.43359 c -0.10547,0.41016 -0.12891,0.52735 -0.96094,0.52735 -0.23438,0 -0.35156,0 -0.35156,0.22265 0,0.12891 0.0703,0.12891 0.30468,0.12891 h 4.10157 c 1.82812,0 3.24609,-1.38281 3.24609,-2.58984 0,-0.98438 -0.86719,-1.58204 -1.82813,-1.67579 z m -1.69921,3.91407 h -1.61719 c -0.16406,0 -0.1875,0 -0.25781,-0.0117 -0.12891,-0.0117 -0.15235,-0.0352 -0.15235,-0.12891 0,-0.082 0.0352,-0.15234 0.0586,-0.25781 l 0.83203,-3.375 h 2.25 c 1.40625,0 1.40625,1.3125 1.40625,1.40625 0,1.14844 -1.04297,2.36719 -2.51953,2.36719 z m 13.72265,-7.95703 c 0,-0.10547 -0.082,-0.10547 -0.10547,-0.10547 -0.0234,0 -0.0703,0 -0.17578,0.11718 l -0.82031,1.00782 c -0.42188,-0.71485 -1.07813,-1.125 -1.96875,-1.125 -2.58984,0 -5.26172,2.61328 -5.26172,5.42578 0,1.99219 1.39453,3.23437 3.14063,3.23437 0.96093,0 1.79296,-0.39843 2.48437,-0.98437 1.04297,-0.87891 1.35938,-2.03906 1.35938,-2.13281 0,-0.10547 -0.0937,-0.10547 -0.14063,-0.10547 -0.10547,0 -0.11719,0.0703 -0.14062,0.11718 -0.55079,1.86329 -2.15625,2.76563 -3.35157,2.76563 -1.27734,0 -2.36718,-0.82031 -2.36718,-2.50781 0,-0.38672 0.11718,-2.46094 1.46484,-4.03125 0.65625,-0.76172 1.78125,-1.44141 2.91797,-1.44141 1.3125,0 1.89844,1.08984 1.89844,2.30859 0,0.31641 -0.0352,0.57422 -0.0352,0.6211 0,0.11719 0.11719,0.11719 0.15234,0.11719 0.14063,0 0.15235,-0.0117 0.19922,-0.23438 z m 2.17969,7.42968 c -0.10547,0.41016 -0.12891,0.52735 -0.96094,0.52735 -0.23437,0 -0.35156,0 -0.35156,0.22265 0,0.12891 0.0703,0.12891 0.30469,0.12891 h 3.79687 c 2.41406,0 4.76953,-2.49609 4.76953,-5.16797 0,-1.72266 -1.03125,-3 -2.74218,-3 h -3.83204 c -0.23437,0 -0.33984,0 -0.33984,0.23438 0,0.11718 0.10547,0.11718 0.29297,0.11718 0.72656,0 0.72656,0.0937 0.72656,0.22266 0,0.0234 0,0.0937 -0.0469,0.28125 z m 2.51953,-6.46875 c 0.11719,-0.44531 0.16406,-0.46875 0.62109,-0.46875 h 1.32422 c 1.11328,0 2.14453,0.60938 2.14453,2.26172 0,0.59766 -0.23437,2.67188 -1.39453,3.98438 -0.33984,0.39843 -1.24218,1.21875 -2.625,1.21875 h -1.35937 c -0.16406,0 -0.1875,0 -0.25781,-0.0117 -0.12891,-0.0117 -0.14063,-0.0352 -0.14063,-0.12891 0,-0.082 0.0234,-0.15234 0.0469,-0.25781 z m 0,0"
         style="fill:#000000;fill-opacity:1;fill-rule:nonzero;stroke:none" />
      <path
         id="path16"
         d="m 228.63552,234.12589 c 0,-0.10547 -0.082,-0.10547 -0.10547,-0.10547 -0.0234,0 -0.0703,0 -0.17578,0.11719 l -0.82032,1.00781 c -0.42187,-0.71484 -1.07812,-1.125 -1.96875,-1.125 -2.58984,0 -5.26172,2.61328 -5.26172,5.42578 0,1.99219 1.39454,3.23438 3.14063,3.23438 0.96094,0 1.79297,-0.39844 2.48437,-0.98438 1.04297,-0.8789 1.35938,-2.03906 1.35938,-2.13281 0,-0.10547 -0.0937,-0.10547 -0.14063,-0.10547 -0.10546,0 -0.11718,0.0703 -0.14062,0.11719 -0.55078,1.86328 -2.15625,2.76562 -3.35156,2.76562 -1.27735,0 -2.36719,-0.82031 -2.36719,-2.50781 0,-0.38672 0.11719,-2.46094 1.46484,-4.03125 0.65625,-0.76172 1.78125,-1.4414 2.91797,-1.4414 1.3125,0 1.89844,1.08984 1.89844,2.30859 0,0.31641 -0.0352,0.57422 -0.0352,0.62109 0,0.11719 0.11719,0.11719 0.15235,0.11719 0.14062,0 0.15234,-0.0117 0.19922,-0.23437 z m 0,0"
         style="fill:#000000;fill-opacity:1;fill-rule:nonzero;stroke:none" />
      <path
         id="path17"
         d="m 299.02419,235.14542 c 0.10547,-0.41015 0.1289,-0.52734 0.98437,-0.52734 0.22266,0 0.32813,0 0.32813,-0.22266 0,-0.1289 -0.082,-0.1289 -0.30469,-0.1289 h -1.44141 c -0.29296,0 -0.30468,0.0117 -0.43359,0.21093 l -4.37109,6.89063 -0.89063,-6.83203 c -0.0351,-0.26953 -0.0469,-0.26953 -0.36328,-0.26953 h -1.47656 c -0.23438,0 -0.33985,0 -0.33985,0.23437 0,0.11719 0.10547,0.11719 0.29297,0.11719 0.72657,0 0.72657,0.0937 0.72657,0.22265 0,0.0234 0,0.0937 -0.0469,0.28125 l -1.53516,6.09375 c -0.14062,0.57422 -0.41015,0.83204 -1.21875,0.86719 -0.0352,0 -0.17578,0.0117 -0.17578,0.22266 0,0.1289 0.10547,0.1289 0.15235,0.1289 0.24609,0 0.85547,-0.0234 1.08984,-0.0234 h 0.57422 c 0.16406,0 0.375,0.0234 0.53906,0.0234 0.082,0 0.21094,0 0.21094,-0.22265 0,-0.11719 -0.11719,-0.12891 -0.16406,-0.12891 -0.39844,-0.0117 -0.77344,-0.082 -0.77344,-0.5039 0,-0.12891 0,-0.14063 0.0469,-0.30469 l 1.65235,-6.58594 h 0.0117 l 0.98437,7.41797 c 0.0352,0.29297 0.0469,0.32812 0.15235,0.32812 0.14062,0 0.19921,-0.0937 0.25781,-0.19921 l 4.80469,-7.60547 h 0.0117 l -1.73437,6.92578 c -0.10547,0.41015 -0.12891,0.52734 -0.97266,0.52734 -0.22265,0 -0.33984,0 -0.33984,0.22266 0,0.1289 0.10547,0.1289 0.17578,0.1289 0.21094,0 0.44531,-0.0234 0.64453,-0.0234 h 1.41797 c 0.19922,0 0.44531,0.0234 0.65625,0.0234 0.0937,0 0.22266,0 0.22266,-0.22265 0,-0.12891 -0.10547,-0.12891 -0.28125,-0.12891 -0.73828,0 -0.73828,-0.0937 -0.73828,-0.21094 0,-0.0117 0,-0.0937 0.0234,-0.1875 z m 10.56445,0.375 c 0.12891,-0.5039 0.31641,-0.86719 1.23047,-0.90234 0.0352,0 0.17578,-0.0117 0.17578,-0.21094 0,-0.14062 -0.10547,-0.14062 -0.15234,-0.14062 -0.23438,0 -0.85547,0.0234 -1.08985,0.0234 h -0.57422 c -0.16406,0 -0.38671,-0.0234 -0.55078,-0.0234 -0.0703,0 -0.21093,0 -0.21093,0.23437 0,0.11719 0.0937,0.11719 0.17578,0.11719 0.71484,0.0234 0.76172,0.29297 0.76172,0.51562 0,0.10547 -0.0117,0.14063 -0.0469,0.30469 l -1.34766,5.39063 -2.55468,-6.35157 c -0.082,-0.19922 -0.0937,-0.21093 -0.36328,-0.21093 h -1.45313 c -0.24609,0 -0.35156,0 -0.35156,0.23437 0,0.11719 0.082,0.11719 0.3164,0.11719 0.0586,0 0.76172,0 0.76172,0.10547 0,0.0234 -0.0234,0.11718 -0.0351,0.15234 l -1.59375,6.33984 c -0.14063,0.58594 -0.42188,0.83204 -1.21875,0.86719 -0.0586,0 -0.17578,0.0117 -0.17578,0.23438 0,0.11718 0.11718,0.11718 0.15234,0.11718 0.24609,0 0.85547,-0.0234 1.08984,-0.0234 h 0.57422 c 0.16406,0 0.375,0.0234 0.53906,0.0234 0.082,0 0.21094,0 0.21094,-0.22265 0,-0.11719 -0.11719,-0.12891 -0.16406,-0.12891 -0.39844,-0.0117 -0.77344,-0.082 -0.77344,-0.5039 0,-0.10547 0.0234,-0.21094 0.0469,-0.30469 l 1.60547,-6.39844 c 0.082,0.12891 0.082,0.15234 0.1289,0.25781 l 2.83594,7.08985 c 0.0586,0.14062 0.0937,0.21093 0.19922,0.21093 0.11719,0 0.1289,-0.0352 0.17578,-0.23437 z m 0,0"
         style="fill:#000000;fill-opacity:1;fill-rule:nonzero;stroke:none" />
      <path
         id="path18"
         d="m 214.23317,280.7255 c 0,-0.26953 0,-0.28125 -0.24609,-0.28125 -0.28125,0.31641 -0.87891,0.76172 -2.10938,0.76172 v 0.35156 c 0.26953,0 0.86719,0 1.52344,-0.3164 v 6.22265 c 0,0.4336 -0.0352,0.57422 -1.07812,0.57422 h -0.375 v 0.35156 c 0.3164,-0.0234 1.47656,-0.0234 1.875,-0.0234 0.39843,0 1.54687,0 1.86328,0.0234 V 288.038 h -0.36328 c -1.05469,0 -1.08985,-0.14062 -1.08985,-0.57422 z m 7.76367,3.84375 c 0,-0.99609 -0.0586,-1.96875 -0.49218,-2.87109 -0.49219,-0.9961 -1.34766,-1.25391 -1.9336,-1.25391 -0.6914,0 -1.54687,0.33984 -1.98047,1.33594 -0.33984,0.75 -0.45703,1.48828 -0.45703,2.78906 0,1.16016 0.082,2.02734 0.51563,2.87109 0.45703,0.91407 1.28906,1.19532 1.91015,1.19532 1.04297,0 1.64063,-0.6211 1.98047,-1.3125 0.4336,-0.89063 0.45703,-2.0625 0.45703,-2.75391 z m -2.4375,3.83203 c -0.38672,0 -1.16015,-0.21094 -1.38281,-1.52344 -0.14062,-0.71484 -0.14062,-1.61718 -0.14062,-2.46093 0,-0.97266 0,-1.86328 0.19921,-2.56641 0.19922,-0.79687 0.8086,-1.17187 1.32422,-1.17187 0.45703,0 1.14844,0.28125 1.3711,1.30078 0.15234,0.67968 0.15234,1.6289 0.15234,2.4375 0,0.80859 0,1.71093 -0.12891,2.4375 -0.22265,1.32422 -0.97265,1.54687 -1.39453,1.54687 z m 8.29102,-3.83203 c 0,-0.99609 -0.0586,-1.96875 -0.49219,-2.87109 -0.49219,-0.9961 -1.34765,-1.25391 -1.93359,-1.25391 -0.69141,0 -1.54688,0.33984 -1.98047,1.33594 -0.33984,0.75 -0.45703,1.48828 -0.45703,2.78906 0,1.16016 0.082,2.02734 0.51562,2.87109 0.45703,0.91407 1.28907,1.19532 1.91016,1.19532 1.04297,0 1.64062,-0.6211 1.98047,-1.3125 0.43359,-0.89063 0.45703,-2.0625 0.45703,-2.75391 z m -2.4375,3.83203 c -0.38672,0 -1.16016,-0.21094 -1.38281,-1.52344 -0.14063,-0.71484 -0.14063,-1.61718 -0.14063,-2.46093 0,-0.97266 0,-1.86328 0.19922,-2.56641 0.19922,-0.79687 0.80859,-1.17187 1.32422,-1.17187 0.45703,0 1.14844,0.28125 1.37109,1.30078 0.15235,0.67968 0.15235,1.6289 0.15235,2.4375 0,0.80859 0,1.71093 -0.12891,2.4375 -0.22266,1.32422 -0.97266,1.54687 -1.39453,1.54687 z m 8.29101,-3.83203 c 0,-0.99609 -0.0586,-1.96875 -0.49218,-2.87109 -0.49219,-0.9961 -1.34766,-1.25391 -1.9336,-1.25391 -0.6914,0 -1.54687,0.33984 -1.98047,1.33594 -0.33984,0.75 -0.45703,1.48828 -0.45703,2.78906 0,1.16016 0.082,2.02734 0.51563,2.87109 0.45703,0.91407 1.28906,1.19532 1.91015,1.19532 1.04297,0 1.64063,-0.6211 1.98047,-1.3125 0.4336,-0.89063 0.45703,-2.0625 0.45703,-2.75391 z m -2.4375,3.83203 c -0.38671,0 -1.16015,-0.21094 -1.38281,-1.52344 -0.14062,-0.71484 -0.14062,-1.61718 -0.14062,-2.46093 0,-0.97266 0,-1.86328 0.19922,-2.56641 0.19921,-0.79687 0.80859,-1.17187 1.32421,-1.17187 0.45704,0 1.14844,0.28125 1.3711,1.30078 0.15234,0.67968 0.15234,1.6289 0.15234,2.4375 0,0.80859 0,1.71093 -0.1289,2.4375 -0.22266,1.32422 -0.97266,1.54687 -1.39454,1.54687 z m 0,0"
         style="fill:#000000;fill-opacity:1;fill-rule:nonzero;stroke:none" />
      <path
         id="path19"
         d="m 8.2263359,299.96769 c 0.5976563,-0.32813 1.4648438,-0.87891 1.4648438,-1.875 0,-1.04297 -0.9960938,-1.75781 -2.0976563,-1.75781 -1.1835937,0 -2.1210937,0.86718 -2.1210937,1.95703 0,0.41015 0.1289062,0.80859 0.4570312,1.21875 0.1289063,0.15234 0.140625,0.16406 0.984375,0.75 -1.1601562,0.53906 -1.7578125,1.34765 -1.7578125,2.21484 0,1.26563 1.2070313,2.05078 2.4257813,2.05078 1.3242187,0 2.4375003,-0.97265 2.4375003,-2.22656 0,-1.21875 -0.8554691,-1.75781 -1.7929691,-2.33203 z m -1.6289062,-1.07813 c -0.1523438,-0.10547 -0.6328125,-0.42187 -0.6328125,-1.00781 0,-0.77344 0.8203125,-1.26562 1.6171875,-1.26562 0.8554687,0 1.6289062,0.62109 1.6289062,1.48828 0,0.72656 -0.5273437,1.3125 -1.21875,1.6875 z m 0.5625,1.54688 1.453125,0.9375 c 0.3046875,0.19922 0.8554687,0.57422 0.8554687,1.30078 0,0.91406 -0.9140625,1.53516 -1.875,1.53516 -1.0195312,0 -1.8867187,-0.73829 -1.8867187,-1.73438 0,-0.9375 0.6796875,-1.6875 1.453125,-2.03906 z m 6.8027343,-3.82031 c 0,-0.26954 0,-0.28125 -0.246094,-0.28125 -0.28125,0.3164 -0.878906,0.76171 -2.109375,0.76171 v 0.35157 c 0.269532,0 0.867188,0 1.523438,-0.31641 v 6.22266 c 0,0.43359 -0.03516,0.57422 -1.078125,0.57422 h -0.375 v 0.35156 c 0.316406,-0.0234 1.476562,-0.0234 1.875,-0.0234 0.398437,0 1.546875,0 1.863281,0.0234 v -0.35156 h -0.363281 c -1.054688,0 -1.089844,-0.14063 -1.089844,-0.57422 z m 5.853516,0 c 0,-0.26954 0,-0.28125 -0.246094,-0.28125 -0.28125,0.3164 -0.878906,0.76171 -2.109375,0.76171 v 0.35157 c 0.269531,0 0.867187,0 1.523437,-0.31641 v 6.22266 c 0,0.43359 -0.03516,0.57422 -1.078125,0.57422 h -0.375 v 0.35156 c 0.316407,-0.0234 1.476563,-0.0234 1.875,-0.0234 0.398438,0 1.546875,0 1.863282,0.0234 v -0.35156 h -0.363282 c -1.054687,0 -1.089843,-0.14063 -1.089843,-0.57422 z m 0,0"
         style="fill:#000000;fill-opacity:1;fill-rule:nonzero;stroke:none" />
      <path
         id="path20"
         d="m 175.63161,296.86222 v -0.28125 h -2.88281 c -1.45313,0 -1.47657,-0.15234 -1.52344,-0.38672 h -0.25781 l -0.375,2.39063 h 0.26953 c 0.0352,-0.21094 0.14062,-0.94922 0.29297,-1.07813 0.0937,-0.0703 0.99609,-0.0703 1.16015,-0.0703 h 2.53125 l -1.26562,1.8164 c -0.31641,0.45704 -1.52344,2.42579 -1.52344,4.66407 0,0.14062 0,0.60937 0.48047,0.60937 0.50391,0 0.50391,-0.45703 0.50391,-0.62109 v -0.59766 c 0,-1.78125 0.29296,-3.16406 0.85546,-3.96094 z m 1.70508,0.57422 c 0.5039,0.16406 0.92578,0.17578 1.05468,0.17578 1.35938,0 2.21485,-0.99609 2.21485,-1.16016 0,-0.0469 -0.0234,-0.10547 -0.0937,-0.10547 -0.0234,0 -0.0469,0 -0.15235,0.0469 -0.66796,0.28125 -1.24218,0.31641 -1.55859,0.31641 -0.78516,0 -1.34766,-0.23438 -1.58203,-0.32813 -0.082,-0.0352 -0.10547,-0.0352 -0.11719,-0.0352 -0.0937,0 -0.0937,0.0703 -0.0937,0.25782 v 3.55078 c 0,0.21094 0,0.29297 0.14063,0.29297 0.0586,0 0.0703,-0.0117 0.19922,-0.16407 0.32812,-0.49218 0.89062,-0.77343 1.48828,-0.77343 0.63281,0 0.94922,0.58593 1.04297,0.78515 0.19921,0.46875 0.21093,1.05469 0.21093,1.51172 0,0.45703 0,1.13672 -0.32812,1.67578 -0.26953,0.42188 -0.73828,0.72657 -1.25391,0.72657 -0.79687,0 -1.57031,-0.53907 -1.78125,-1.40625 0.0586,0.0234 0.12891,0.0351 0.1875,0.0351 0.19922,0 0.52735,-0.1289 0.52735,-0.52734 0,-0.33985 -0.23438,-0.52735 -0.52735,-0.52735 -0.21094,0 -0.52734,0.10547 -0.52734,0.57422 0,1.00782 0.80859,2.16797 2.14453,2.16797 1.34766,0 2.53125,-1.125 2.53125,-2.64844 0,-1.41796 -0.96094,-2.60156 -2.21484,-2.60156 -0.67969,0 -1.20704,0.29297 -1.51172,0.63281 z m 9.58008,4.83984 h -0.26954 c -0.0352,0.19922 -0.1289,0.85547 -0.24609,1.04297 -0.082,0.11719 -0.76172,0.11719 -1.125,0.11719 h -2.21484 c 0.32812,-0.28125 1.05468,-1.04297 1.37109,-1.33594 1.81641,-1.66406 2.48438,-2.28516 2.48438,-3.46875 0,-1.38281 -1.08985,-2.29687 -2.47266,-2.29687 -1.39453,0 -2.20313,1.18359 -2.20313,2.20312 0,0.60938 0.52735,0.60938 0.5625,0.60938 0.2461,0 0.5625,-0.17579 0.5625,-0.5625 0,-0.32813 -0.23437,-0.55079 -0.5625,-0.55079 -0.10546,0 -0.1289,0 -0.16406,0.0117 0.22266,-0.82031 0.86719,-1.37109 1.64063,-1.37109 1.01953,0 1.64062,0.85547 1.64062,1.95703 0,1.00781 -0.58594,1.89844 -1.26562,2.66016 l -2.41407,2.70703 v 0.28125 h 4.35938 z m 0,0"
         style="fill:#000000;fill-opacity:1;fill-rule:nonzero;stroke:none" />
      <path
         id="path21"
         d="m 309.66774,296.49894 c 0,-0.22266 0,-0.29297 -0.16406,-0.29297 -0.0937,0 -0.12891,0 -0.22266,0.15234 l -3.59765,5.57813 v 0.35156 h 3.14062 v 1.07813 c 0,0.44531 -0.0234,0.5625 -0.90234,0.5625 h -0.23438 v 0.35156 c 0.26953,-0.0234 1.21875,-0.0234 1.5586,-0.0234 0.32812,0 1.28906,0 1.55859,0.0234 v -0.35156 h -0.23437 c -0.86719,0 -0.90235,-0.11719 -0.90235,-0.5625 V 302.288 h 1.20703 v -0.35156 h -1.20703 z m -0.78515,0.9375 v 4.5 h -2.90625 z m 5.77148,-0.82031 c 0,-0.26954 0,-0.28125 -0.24609,-0.28125 -0.28125,0.3164 -0.87891,0.76171 -2.10938,0.76171 v 0.35157 c 0.26953,0 0.86719,0 1.52344,-0.31641 v 6.22266 c 0,0.43359 -0.0352,0.57422 -1.07813,0.57422 h -0.375 v 0.35156 c 0.31641,-0.0234 1.47657,-0.0234 1.875,-0.0234 0.39844,0 1.54688,0 1.86329,0.0234 v -0.35156 h -0.36329 c -1.05468,0 -1.08984,-0.14063 -1.08984,-0.57422 z m 5.9707,3.35156 c 0.59766,-0.32813 1.46485,-0.87891 1.46485,-1.875 0,-1.04297 -0.9961,-1.75781 -2.09766,-1.75781 -1.18359,0 -2.12109,0.86718 -2.12109,1.95703 0,0.41015 0.1289,0.80859 0.45703,1.21875 0.1289,0.15234 0.14062,0.16406 0.98437,0.75 -1.16015,0.53906 -1.75781,1.34765 -1.75781,2.21484 0,1.26563 1.20703,2.05078 2.42578,2.05078 1.32422,0 2.4375,-0.97265 2.4375,-2.22656 0,-1.21875 -0.85547,-1.75781 -1.79297,-2.33203 z m -1.6289,-1.07813 c -0.15235,-0.10547 -0.63282,-0.42187 -0.63282,-1.00781 0,-0.77344 0.82032,-1.26562 1.61719,-1.26562 0.85547,0 1.62891,0.62109 1.62891,1.48828 0,0.72656 -0.52735,1.3125 -1.21875,1.6875 z m 0.5625,1.54688 1.45312,0.9375 c 0.30469,0.19922 0.85547,0.57422 0.85547,1.30078 0,0.91406 -0.91406,1.53516 -1.875,1.53516 -1.01953,0 -1.88672,-0.73829 -1.88672,-1.73438 0,-0.9375 0.67969,-1.6875 1.45313,-2.03906 z m 0,0"
         style="fill:#000000;fill-opacity:1;fill-rule:nonzero;stroke:none" />
      <path
         id="path22"
         d="m -33.419172,315.88175 c -0.210937,0.0117 -0.257812,0.0234 -0.257812,0.12891 0,0.11718 0.05859,0.11718 0.28125,0.11718 h 0.550781 c 1.007812,0 1.464844,0.84375 1.464844,1.99219 0,1.5586 -0.808594,1.98047 -1.394532,1.98047 -0.574218,0 -1.558593,-0.28125 -1.898437,-1.06641 0.375,0.0586 0.726562,-0.15234 0.726562,-0.58593 0,-0.33985 -0.257812,-0.58594 -0.585937,-0.58594 -0.292969,0 -0.597656,0.16406 -0.597656,0.62109 0,1.06641 1.066406,1.9336 2.390625,1.9336 1.417968,0 2.472656,-1.07813 2.472656,-2.28516 0,-1.10156 -0.890625,-1.96875 -2.027344,-2.16797 1.03125,-0.30469 1.699219,-1.17187 1.699219,-2.10937 0,-0.9375 -0.972656,-1.62891 -2.132813,-1.62891 -1.195312,0 -2.085937,0.72656 -2.085937,1.59375 0,0.48047 0.375,0.57422 0.550781,0.57422 0.257813,0 0.539063,-0.17578 0.539063,-0.53906 0,-0.375 -0.28125,-0.53907 -0.550782,-0.53907 -0.07031,0 -0.09375,0 -0.128906,0.0117 0.457031,-0.82031 1.582031,-0.82031 1.640625,-0.82031 0.386719,0 1.171875,0.17578 1.171875,1.34766 0,0.23437 -0.03516,0.90234 -0.386719,1.41797 -0.351562,0.52734 -0.761718,0.5625 -1.089843,0.57421 z m 5.185547,-2.55469 c 0.503906,0.16407 0.925781,0.17578 1.054688,0.17578 1.359375,0 2.214843,-0.99609 2.214843,-1.16015 0,-0.0469 -0.02344,-0.10547 -0.09375,-0.10547 -0.02344,0 -0.04687,0 -0.152343,0.0469 -0.667969,0.28125 -1.242188,0.31641 -1.558594,0.31641 -0.785156,0 -1.347656,-0.23437 -1.582031,-0.32812 -0.08203,-0.0352 -0.105469,-0.0352 -0.117188,-0.0352 -0.09375,0 -0.09375,0.0703 -0.09375,0.25781 v 3.55078 c 0,0.21094 0,0.29297 0.140625,0.29297 0.05859,0 0.07031,-0.0117 0.199219,-0.16406 0.328125,-0.49219 0.890625,-0.77344 1.488281,-0.77344 0.632813,0 0.949219,0.58594 1.042969,0.78516 0.199219,0.46875 0.210937,1.05469 0.210937,1.51172 0,0.45703 0,1.13672 -0.328125,1.67578 -0.269531,0.42187 -0.738281,0.72656 -1.253906,0.72656 -0.796875,0 -1.570312,-0.53906 -1.78125,-1.40625 0.05859,0.0234 0.128906,0.0352 0.1875,0.0352 0.199219,0 0.527344,-0.12891 0.527344,-0.52735 0,-0.33984 -0.234375,-0.52734 -0.527344,-0.52734 -0.210937,0 -0.527344,0.10547 -0.527344,0.57422 0,1.00781 0.808594,2.16797 2.144532,2.16797 1.347656,0 2.53125,-1.125 2.53125,-2.64844 0,-1.41797 -0.960938,-2.60156 -2.214844,-2.60156 -0.679688,0 -1.207031,0.29297 -1.511719,0.63281 z m 5.783203,2.6836 c 0,-3.02344 1.476563,-3.50391 2.121094,-3.50391 0.433594,0 0.855469,0.12891 1.089844,0.49219 -0.140625,0 -0.597657,0 -0.597657,0.49219 0,0.25781 0.175782,0.49218 0.492188,0.49218 0.292969,0 0.492187,-0.1875 0.492187,-0.52734 0,-0.62109 -0.445312,-1.23047 -1.488281,-1.23047 -1.511719,0 -3.082031,1.53516 -3.082031,4.17188 0,3.28125 1.429687,4.01953 2.449219,4.01953 1.300781,0 2.414062,-1.125 2.414062,-2.6836 0,-1.59375 -1.113281,-2.66015 -2.308594,-2.66015 -1.066406,0 -1.453125,0.92578 -1.582031,1.26562 z m 1.476563,4.08984 c -0.75,0 -1.113282,-0.66797 -1.21875,-0.92578 -0.105469,-0.30469 -0.222657,-0.89063 -0.222657,-1.73438 0,-0.9375 0.421875,-2.12109 1.5,-2.12109 0.65625,0 1.007813,0.44531 1.183594,0.84375 0.1875,0.44531 0.1875,1.04297 0.1875,1.55859 0,0.60938 0,1.14844 -0.222656,1.60547 -0.304688,0.57422 -0.726563,0.77344 -1.207031,0.77344 z m 0,0"
         style="fill:#000000;fill-opacity:1;fill-rule:nonzero;stroke:none" />
      <path
         id="path23"
         d="m 178.38259,313.32706 c 0.5039,0.16407 0.92578,0.17578 1.05468,0.17578 1.35938,0 2.21485,-0.99609 2.21485,-1.16015 0,-0.0469 -0.0234,-0.10547 -0.0937,-0.10547 -0.0234,0 -0.0469,0 -0.15235,0.0469 -0.66797,0.28125 -1.24218,0.31641 -1.55859,0.31641 -0.78516,0 -1.34766,-0.23437 -1.58203,-0.32812 -0.082,-0.0352 -0.10547,-0.0352 -0.11719,-0.0352 -0.0937,0 -0.0937,0.0703 -0.0937,0.25781 v 3.55078 c 0,0.21094 0,0.29297 0.14063,0.29297 0.0586,0 0.0703,-0.0117 0.19921,-0.16406 0.32813,-0.49219 0.89063,-0.77344 1.48829,-0.77344 0.63281,0 0.94921,0.58594 1.04296,0.78516 0.19922,0.46875 0.21094,1.05469 0.21094,1.51172 0,0.45703 0,1.13672 -0.32812,1.67578 -0.26953,0.42187 -0.73828,0.72656 -1.25391,0.72656 -0.79687,0 -1.57031,-0.53906 -1.78125,-1.40625 0.0586,0.0234 0.12891,0.0352 0.1875,0.0352 0.19922,0 0.52734,-0.12891 0.52734,-0.52735 0,-0.33984 -0.23437,-0.52734 -0.52734,-0.52734 -0.21094,0 -0.52734,0.10547 -0.52734,0.57422 0,1.00781 0.80859,2.16797 2.14453,2.16797 1.34765,0 2.53125,-1.125 2.53125,-2.64844 0,-1.41797 -0.96094,-2.60156 -2.21485,-2.60156 -0.67968,0 -1.20703,0.29297 -1.51171,0.63281 z m 9.99902,-0.57422 v -0.28125 h -2.88281 c -1.45313,0 -1.47657,-0.15234 -1.52344,-0.38671 h -0.25781 l -0.375,2.39062 h 0.26953 c 0.0352,-0.21094 0.14062,-0.94922 0.29297,-1.07812 0.0937,-0.0703 0.99609,-0.0703 1.16015,-0.0703 h 2.53125 l -1.26562,1.81641 c -0.31641,0.45703 -1.52344,2.42578 -1.52344,4.66406 0,0.14063 0,0.60938 0.48047,0.60938 0.50391,0 0.50391,-0.45703 0.50391,-0.6211 v -0.59765 c 0,-1.78125 0.29296,-3.16407 0.85546,-3.96094 z m 5.52539,3.59766 c 0,-0.99609 -0.0586,-1.96875 -0.49219,-2.87109 -0.49219,-0.9961 -1.34765,-1.25391 -1.93359,-1.25391 -0.69141,0 -1.54688,0.33984 -1.98047,1.33594 -0.33984,0.75 -0.45703,1.48828 -0.45703,2.78906 0,1.16016 0.082,2.02734 0.51562,2.87109 0.45703,0.91407 1.28907,1.19532 1.91016,1.19532 1.04297,0 1.64062,-0.6211 1.98047,-1.3125 0.43359,-0.89063 0.45703,-2.0625 0.45703,-2.75391 z m -2.4375,3.83203 c -0.38672,0 -1.16016,-0.21094 -1.38281,-1.52344 -0.14063,-0.71484 -0.14063,-1.61718 -0.14063,-2.46093 0,-0.97266 0,-1.86328 0.19922,-2.56641 0.19922,-0.79687 0.80859,-1.17187 1.32422,-1.17187 0.45703,0 1.14844,0.28125 1.37109,1.30078 0.15235,0.67968 0.15235,1.6289 0.15235,2.4375 0,0.80859 0,1.71093 -0.12891,2.4375 -0.22266,1.32422 -0.97266,1.54687 -1.39453,1.54687 z m 0,0"
         style="fill:#000000;fill-opacity:1;fill-rule:nonzero;stroke:none" />
      <path
         id="path24"
         d="m -98.563703,331.77238 c -0.210938,0.0117 -0.257813,0.0234 -0.257813,0.1289 0,0.11719 0.05859,0.11719 0.28125,0.11719 h 0.550782 c 1.007812,0 1.464843,0.84375 1.464843,1.99219 0,1.55859 -0.808593,1.98047 -1.394531,1.98047 -0.574219,0 -1.558594,-0.28125 -1.898437,-1.06641 0.375,0.0586 0.726562,-0.15234 0.726562,-0.58594 0,-0.33984 -0.257812,-0.58594 -0.585937,-0.58594 -0.292969,0 -0.597656,0.16407 -0.597656,0.6211 0,1.0664 1.066406,1.93359 2.390624,1.93359 1.417969,0 2.472657,-1.07812 2.472657,-2.28515 0,-1.10157 -0.890625,-1.96875 -2.027344,-2.16797 1.03125,-0.30469 1.699219,-1.17188 1.699219,-2.10938 0,-0.9375 -0.972657,-1.6289 -2.132813,-1.6289 -1.195312,0 -2.085937,0.72656 -2.085937,1.59375 0,0.48046 0.375,0.57421 0.550781,0.57421 0.257812,0 0.539062,-0.17578 0.539062,-0.53906 0,-0.375 -0.28125,-0.53906 -0.550781,-0.53906 -0.07031,0 -0.09375,0 -0.128906,0.0117 0.457031,-0.82031 1.582031,-0.82031 1.640625,-0.82031 0.386719,0 1.171875,0.17578 1.171875,1.34765 0,0.23438 -0.03516,0.90235 -0.386719,1.41797 -0.351562,0.52734 -0.761719,0.5625 -1.089844,0.57422 z m 7.962891,-3.49219 c 0,-0.22266 0,-0.29297 -0.164063,-0.29297 -0.09375,0 -0.128906,0 -0.222656,0.15234 l -3.597656,5.57813 v 0.35156 h 3.140625 v 1.07813 c 0,0.44531 -0.02344,0.5625 -0.902344,0.5625 h -0.234375 v 0.35156 c 0.269531,-0.0234 1.21875,-0.0234 1.558594,-0.0234 0.328125,0 1.289062,0 1.558593,0.0234 v -0.35156 h -0.234375 c -0.867187,0 -0.902343,-0.11719 -0.902343,-0.5625 v -1.07813 h 1.207031 v -0.35156 h -1.207031 z m -0.785157,0.9375 v 4.5 h -2.90625 z m 5.888672,2.53125 c 0.597656,-0.32813 1.464844,-0.87891 1.464844,-1.875 0,-1.04297 -0.996094,-1.75781 -2.097656,-1.75781 -1.183594,0 -2.121094,0.86718 -2.121094,1.95703 0,0.41015 0.128906,0.80859 0.457031,1.21875 0.128906,0.15234 0.140625,0.16406 0.984375,0.75 -1.160156,0.53906 -1.757812,1.34765 -1.757812,2.21484 0,1.26563 1.207031,2.05078 2.425781,2.05078 1.324219,0 2.4375,-0.97265 2.4375,-2.22656 0,-1.21875 -0.855469,-1.75781 -1.792969,-2.33203 z m -1.628906,-1.07813 c -0.152344,-0.10547 -0.632813,-0.42187 -0.632813,-1.00781 0,-0.77344 0.820313,-1.26562 1.617188,-1.26562 0.855469,0 1.628906,0.62109 1.628906,1.48828 0,0.72656 -0.527344,1.3125 -1.21875,1.6875 z m 0.5625,1.54688 1.453125,0.9375 c 0.304687,0.19922 0.855469,0.57422 0.855469,1.30078 0,0.91406 -0.914063,1.53516 -1.875,1.53516 -1.019532,0 -1.886719,-0.73829 -1.886719,-1.73438 0,-0.9375 0.679687,-1.6875 1.453125,-2.03906 z m 0,0"
         style="fill:#000000;fill-opacity:1;fill-rule:nonzero;stroke:none" />
      <path
         id="path25"
         d="m 114.79079,334.05753 h -0.26953 c -0.0352,0.19922 -0.12891,0.85547 -0.2461,1.04297 -0.082,0.11719 -0.76171,0.11719 -1.125,0.11719 h -2.21484 c 0.32813,-0.28125 1.05469,-1.04297 1.37109,-1.33594 1.81641,-1.66406 2.48438,-2.28516 2.48438,-3.46875 0,-1.38281 -1.08984,-2.29687 -2.47266,-2.29687 -1.39453,0 -2.20312,1.18359 -2.20312,2.20312 0,0.60938 0.52734,0.60938 0.5625,0.60938 0.24609,0 0.5625,-0.17579 0.5625,-0.5625 0,-0.32813 -0.23438,-0.55079 -0.5625,-0.55079 -0.10547,0 -0.12891,0 -0.16406,0.0117 0.22265,-0.82031 0.86718,-1.37109 1.64062,-1.37109 1.01953,0 1.64063,0.85547 1.64063,1.95703 0,1.00781 -0.58594,1.89844 -1.26563,2.66016 l -2.41406,2.70703 v 0.28125 h 4.35937 z m 4.96289,-1.47656 c 0,2.82422 -1.25391,3.41016 -1.96875,3.41016 -0.28125,0 -0.92578,-0.0352 -1.21875,-0.45704 h 0.0703 c 0.082,0.0234 0.51563,-0.0469 0.51563,-0.49218 0,-0.25782 -0.17578,-0.49219 -0.49219,-0.49219 -0.30469,0 -0.50391,0.21094 -0.50391,0.51562 0,0.75 0.59766,1.24219 1.64063,1.24219 1.5,0 2.9414,-1.58203 2.9414,-4.18359 0,-3.21094 -1.33593,-4.00781 -2.39062,-4.00781 -1.3125,0 -2.47266,1.10156 -2.47266,2.67187 0,1.58203 1.11328,2.66016 2.3086,2.66016 0.8789,0 1.33593,-0.64453 1.57031,-1.25391 z m -1.52344,0.62109 c -0.75,0 -1.07812,-0.60937 -1.18359,-0.83203 -0.19922,-0.45703 -0.19922,-1.03125 -0.19922,-1.57031 0,-0.66797 0,-1.24219 0.31641,-1.73438 0.21093,-0.3164 0.53906,-0.66796 1.18359,-0.66796 0.67969,0 1.03125,0.59765 1.14844,0.8789 0.23437,0.58594 0.23437,1.59375 0.23437,1.78125 0,0.9961 -0.44531,2.14453 -1.5,2.14453 z m 8.68946,-4.55859 v -0.28125 h -2.88282 c -1.45312,0 -1.47656,-0.15234 -1.52343,-0.38672 h -0.25782 l -0.375,2.39063 h 0.26953 c 0.0352,-0.21094 0.14063,-0.94922 0.29297,-1.07813 0.0937,-0.0703 0.9961,-0.0703 1.16016,-0.0703 h 2.53125 l -1.26563,1.8164 c -0.3164,0.45704 -1.52343,2.42579 -1.52343,4.66407 0,0.14062 0,0.60937 0.48047,0.60937 0.5039,0 0.5039,-0.45703 0.5039,-0.62109 v -0.59766 c 0,-1.78125 0.29297,-3.16406 0.85547,-3.96094 z m 0,0"
         style="fill:#000000;fill-opacity:1;fill-rule:nonzero;stroke:none" />
    </g>
  </g>
</svg>
