<?xml version="1.0" encoding="UTF-8" standalone="no"?>
<!-- Created with Inkscape (http://www.inkscape.org/) -->

<svg
   version="1.1"
   id="svg1"
   width="794.55066"
   height="1123.6533"
   viewBox="0 0 794.55066 1123.6533"
   sodipodi:docname="LigaMatematycznaMatuskiego_SP_Zestaw3_2011_2012_page0.pdf"
   xmlns:inkscape="http://www.inkscape.org/namespaces/inkscape"
   xmlns:sodipodi="http://sodipodi.sourceforge.net/DTD/sodipodi-0.dtd"
   xmlns="http://www.w3.org/2000/svg"
   xmlns:svg="http://www.w3.org/2000/svg">
  <defs
     id="defs1" />
  <sodipodi:namedview
     id="namedview1"
     pagecolor="#ffffff"
     bordercolor="#000000"
     borderopacity="0.25"
     inkscape:showpageshadow="2"
     inkscape:pageopacity="0.0"
     inkscape:pagecheckerboard="0"
     inkscape:deskcolor="#d1d1d1">
    <inkscape:page
       x="0"
       y="0"
       inkscape:label="1"
       id="page1"
       width="794.55066"
       height="1123.6533"
       margin="0"
       bleed="0" />
  </sodipodi:namedview>
  <g
     id="g1"
     inkscape:groupmode="layer"
     inkscape:label="1">
    <g
       id="g2"
       aria-label="LIGAMATEMATYCZNA&#10;GRUDZIE2011&#10;SZKOAPODSTAWOWA&#10;ZADANIE1.&#10;Dziewi¦ciuMikoªajóww30minutrozdaje60prezentów.Ileprezentówrozda36Mikoªajów&#10;wci¡gutrzechgodzin?&#10;ZADANIE2.&#10;Ka»dyucze«pewnejklasyinteresujesi¦matematyk¡,histori¡lubgeogra¡.Tylkojednego&#10;uczniapasjonuj¡wszystkietedziedzinynauki.Matematyk¦igeogra¦zgª¦biatrojeuczniów.&#10;Tych,którzynielubi¡matematyki,aleposzerzaj¡swoj¡wiedz¦historyczn¡jestdziesi¦cioro.&#10;Geogra¡ihistori¡interesujesi¦pi¦cioro.Zapalonychmatematykówjest19.Historiaima-&#10;tematykatoulubioneprzedmiotyo±miorga.Ilujestmiªo±nikówgeograi,skorowszystkich&#10;uczniówjest36?&#10;ZADANIE3.&#10;Uªó»kwadratztrzechkwadratówoboku1,trzechkwadratówoboku2,dwóchkwadratów&#10;oboku3ijednegooboku4.&#10;ZADANIE4.&#10;Wtrzechjednakowychpuszkachznajdujesi¦mleko,cukierisól.Niestety,pomylononalepki&#10;i»adnanieopisujepoprawniezawarto±cipuszki.Potrz¡saj¡ctylkojedn¡znichustal,cozawiera&#10;ka»dapuszka.&#10;ZADANIE5.&#10;Ró»nicaliczbysze±ciocyfrowejiliczbypi¦ciocyfrowejjestrówna6.Wyznaczteliczby.Podaj&#10;wszystkierozwi¡zania."
       transform="matrix(1.3333333,0,0,1.3333333,274.724,56.069333)">
      <path
         id="path2"
         d="m -14.69925,100.54468 c -0.210937,0.0117 -0.257812,0.0234 -0.257812,0.12891 0,0.11718 0.05859,0.11718 0.28125,0.11718 h 0.550781 c 1.007812,0 1.464844,0.84375 1.464844,1.99219 0,1.55859 -0.808594,1.98047 -1.394532,1.98047 -0.574218,0 -1.558593,-0.28125 -1.898437,-1.06641 0.375,0.0586 0.726562,-0.15234 0.726562,-0.58593 0,-0.33985 -0.257812,-0.58594 -0.585937,-0.58594 -0.292969,0 -0.597656,0.16406 -0.597656,0.62109 0,1.06641 1.066406,1.9336 2.390625,1.9336 1.417968,0 2.472656,-1.07813 2.472656,-2.28516 0,-1.10156 -0.890625,-1.96875 -2.027344,-2.16797 1.03125,-0.30469 1.699219,-1.171874 1.699219,-2.109374 0,-0.9375 -0.972656,-1.628906 -2.132813,-1.628906 -1.195312,0 -2.085937,0.726562 -2.085937,1.59375 0,0.480468 0.375,0.574218 0.550781,0.574218 0.257813,0 0.539063,-0.175781 0.539063,-0.539062 0,-0.375 -0.28125,-0.539063 -0.550782,-0.539063 -0.07031,0 -0.09375,0 -0.128906,0.01172 0.457031,-0.820312 1.582031,-0.820312 1.640625,-0.820312 0.386719,0 1.171875,0.175781 1.171875,1.347656 0,0.234375 -0.03516,0.902344 -0.386719,1.417969 -0.351562,0.527344 -0.761718,0.562494 -1.089843,0.574214 z m 9.0058594,0.46875 c 0,-0.99609 -0.058594,-1.96875 -0.4921875,-2.871094 -0.4921875,-0.996094 -1.3476563,-1.253906 -1.9335938,-1.253906 -0.6914062,0 -1.546875,0.339843 -1.9804691,1.335937 -0.339843,0.75 -0.457031,1.488281 -0.457031,2.789063 0,1.16016 0.08203,2.02734 0.515625,2.87109 0.4570314,0.91407 1.2890626,1.19532 1.9101564,1.19532 1.0429687,0 1.640625,-0.6211 1.9804687,-1.3125 0.4335938,-0.89063 0.4570313,-2.0625 0.4570313,-2.75391 z m -2.4375,3.83203 c -0.3867188,0 -1.1601563,-0.21094 -1.3828125,-1.52344 -0.140625,-0.71484 -0.140625,-1.61718 -0.140625,-2.46093 0,-0.97266 0,-1.863285 0.1992187,-2.56641 0.1992188,-0.796875 0.8085938,-1.171875 1.3242188,-1.171875 0.4570312,0 1.1484375,0.28125 1.3710937,1.300781 0.1523438,0.679687 0.1523438,1.628904 0.1523438,2.437504 0,0.80859 0,1.71093 -0.1289063,2.4375 -0.2226562,1.32421 -0.9726562,1.54687 -1.3945312,1.54687 z m 0,0"
         style="fill:#000000;fill-opacity:1;fill-rule:nonzero;stroke:none" />
      <path
         id="path3"
         d="m 78.631805,100.67359 c 0,-3.023442 1.476562,-3.50391 2.121093,-3.50391 0.433594,0 0.855469,0.128906 1.089844,0.492187 -0.140625,0 -0.597656,0 -0.597656,0.492188 0,0.257812 0.175781,0.492187 0.492187,0.492187 0.292969,0 0.492188,-0.1875 0.492188,-0.527344 0,-0.621093 -0.445313,-1.230468 -1.488281,-1.230468 -1.511719,0 -3.082032,1.535156 -3.082032,4.17187 0,3.28125 1.429688,4.01954 2.449219,4.01954 1.300781,0 2.414063,-1.125 2.414063,-2.6836 0,-1.59375 -1.113282,-2.660154 -2.308594,-2.660154 -1.066406,0 -1.453125,0.925784 -1.582031,1.265624 z m 1.476562,4.08984 c -0.75,0 -1.113281,-0.66797 -1.21875,-0.92578 -0.105469,-0.30469 -0.222656,-0.89063 -0.222656,-1.73438 0,-0.9375 0.421875,-2.12109 1.5,-2.12109 0.65625,0 1.007812,0.44531 1.183594,0.84375 0.1875,0.44531 0.1875,1.04297 0.1875,1.55859 0,0.60938 0,1.14844 -0.222657,1.60547 -0.304687,0.57422 -0.726562,0.77344 -1.207031,0.77344 z m 8.267578,-3.75 c 0,-0.99609 -0.05859,-1.96875 -0.492187,-2.871094 -0.492188,-0.996094 -1.347656,-1.253906 -1.933594,-1.253906 -0.691406,0 -1.546875,0.339843 -1.980469,1.335937 -0.339843,0.75 -0.457031,1.488281 -0.457031,2.789063 0,1.16016 0.08203,2.02734 0.515625,2.87109 0.457031,0.91407 1.289063,1.19532 1.910156,1.19532 1.042969,0 1.640625,-0.6211 1.980469,-1.3125 0.433594,-0.89063 0.457031,-2.0625 0.457031,-2.75391 z m -2.4375,3.83203 c -0.386718,0 -1.160156,-0.21094 -1.382812,-1.52344 -0.140625,-0.71484 -0.140625,-1.61718 -0.140625,-2.46093 0,-0.97266 0,-1.863285 0.199219,-2.56641 0.199218,-0.796875 0.808593,-1.171875 1.324218,-1.171875 0.457032,0 1.148438,0.28125 1.371094,1.300781 0.152344,0.679687 0.152344,1.628904 0.152344,2.437504 0,0.80859 0,1.71093 -0.128906,2.4375 -0.222657,1.32421 -0.972657,1.54687 -1.394532,1.54687 z m 0,0"
         style="fill:#000000;fill-opacity:1;fill-rule:nonzero;stroke:none" />
      <path
         id="path4"
         d="m 265.58688,100.54468 c -0.21093,0.0117 -0.25781,0.0234 -0.25781,0.12891 0,0.11718 0.0586,0.11718 0.28125,0.11718 h 0.55078 c 1.00781,0 1.46485,0.84375 1.46485,1.99219 0,1.55859 -0.8086,1.98047 -1.39454,1.98047 -0.57421,0 -1.55859,-0.28125 -1.89843,-1.06641 0.375,0.0586 0.72656,-0.15234 0.72656,-0.58593 0,-0.33985 -0.25781,-0.58594 -0.58594,-0.58594 -0.29297,0 -0.59765,0.16406 -0.59765,0.62109 0,1.06641 1.0664,1.9336 2.39062,1.9336 1.41797,0 2.47266,-1.07813 2.47266,-2.28516 0,-1.10156 -0.89063,-1.96875 -2.02735,-2.16797 1.03125,-0.30469 1.69922,-1.171874 1.69922,-2.109374 0,-0.9375 -0.97265,-1.628906 -2.13281,-1.628906 -1.19531,0 -2.08594,0.726562 -2.08594,1.59375 0,0.480468 0.375,0.574218 0.55078,0.574218 0.25782,0 0.53907,-0.175781 0.53907,-0.539062 0,-0.375 -0.28125,-0.539063 -0.55079,-0.539063 -0.0703,0 -0.0937,0 -0.1289,0.01172 0.45703,-0.820312 1.58203,-0.820312 1.64062,-0.820312 0.38672,0 1.17188,0.175781 1.17188,1.347656 0,0.234375 -0.0352,0.902344 -0.38672,1.417969 -0.35156,0.527344 -0.76172,0.562494 -1.08984,0.574214 z m 5.11524,0.12891 c 0,-3.023442 1.47656,-3.50391 2.12109,-3.50391 0.43359,0 0.85547,0.128906 1.08984,0.492187 -0.14062,0 -0.59765,0 -0.59765,0.492188 0,0.257812 0.17578,0.492187 0.49219,0.492187 0.29296,0 0.49218,-0.1875 0.49218,-0.527344 0,-0.621093 -0.44531,-1.230468 -1.48828,-1.230468 -1.51172,0 -3.08203,1.535156 -3.08203,4.17187 0,3.28125 1.42969,4.01954 2.44922,4.01954 1.30078,0 2.41406,-1.125 2.41406,-2.6836 0,-1.59375 -1.11328,-2.660154 -2.30859,-2.660154 -1.06641,0 -1.45313,0.925784 -1.58203,1.265624 z m 1.47656,4.08984 c -0.75,0 -1.11328,-0.66797 -1.21875,-0.92578 -0.10547,-0.30469 -0.22266,-0.89063 -0.22266,-1.73438 0,-0.9375 0.42188,-2.12109 1.5,-2.12109 0.65625,0 1.00782,0.44531 1.1836,0.84375 0.1875,0.44531 0.1875,1.04297 0.1875,1.55859 0,0.60938 0,1.14844 -0.22266,1.60547 -0.30469,0.57422 -0.72656,0.77344 -1.20703,0.77344 z m 0,0"
         style="fill:#000000;fill-opacity:1;fill-rule:nonzero;stroke:none" />
      <path
         id="path5"
         d="m 242.14059,215.35327 c 0,-0.26953 0,-0.28125 -0.24609,-0.28125 -0.28125,0.31641 -0.87891,0.76172 -2.10937,0.76172 v 0.35156 c 0.26953,0 0.86718,0 1.52343,-0.3164 v 6.22265 c 0,0.4336 -0.0351,0.57422 -1.07812,0.57422 h -0.375 v 0.35157 c 0.3164,-0.0234 1.47656,-0.0234 1.875,-0.0234 0.39844,0 1.54687,0 1.86328,0.0234 v -0.35157 h -0.36328 c -1.05469,0 -1.08985,-0.14062 -1.08985,-0.57422 z m 6.7793,4.1836 c 0,2.82422 -1.25391,3.41015 -1.96875,3.41015 -0.28125,0 -0.92578,-0.0352 -1.21875,-0.45703 h 0.0703 c 0.082,0.0234 0.51563,-0.0469 0.51563,-0.49219 0,-0.25781 -0.17578,-0.49218 -0.49219,-0.49218 -0.30469,0 -0.50391,0.21093 -0.50391,0.51562 0,0.75 0.59766,1.24219 1.64063,1.24219 1.5,0 2.94141,-1.58203 2.94141,-4.18359 0,-3.21094 -1.33594,-4.00782 -2.39063,-4.00782 -1.3125,0 -2.47266,1.10157 -2.47266,2.67188 0,1.58203 1.11329,2.66015 2.3086,2.66015 0.8789,0 1.33594,-0.64453 1.57031,-1.2539 z m -1.52344,0.62109 c -0.75,0 -1.07812,-0.60937 -1.18359,-0.83203 -0.19922,-0.45703 -0.19922,-1.03125 -0.19922,-1.57031 0,-0.66797 0,-1.24219 0.31641,-1.73438 0.21093,-0.3164 0.53906,-0.66797 1.18359,-0.66797 0.67969,0 1.03125,0.59766 1.14844,0.87891 0.23437,0.58594 0.23437,1.59375 0.23437,1.78125 0,0.99609 -0.44531,2.14453 -1.5,2.14453 z m 0,0"
         style="fill:#000000;fill-opacity:1;fill-rule:nonzero;stroke:none" />
      <path
         id="path6"
         d="m -79.629914,253.3982 c -0.210938,0.0117 -0.257813,0.0234 -0.257813,0.1289 0,0.11719 0.05859,0.11719 0.28125,0.11719 h 0.550782 c 1.007812,0 1.464843,0.84375 1.464843,1.99219 0,1.55859 -0.808593,1.98047 -1.394531,1.98047 -0.574219,0 -1.558594,-0.28125 -1.898437,-1.06641 0.375,0.0586 0.726562,-0.15234 0.726562,-0.58594 0,-0.33984 -0.257812,-0.58594 -0.585937,-0.58594 -0.292969,0 -0.597657,0.16407 -0.597657,0.6211 0,1.0664 1.066407,1.93359 2.390625,1.93359 1.417969,0 2.472657,-1.07812 2.472657,-2.28515 0,-1.10157 -0.890625,-1.96875 -2.027344,-2.16797 1.03125,-0.30469 1.699219,-1.17188 1.699219,-2.10938 0,-0.9375 -0.972657,-1.6289 -2.132813,-1.6289 -1.195312,0 -2.085937,0.72656 -2.085937,1.59375 0,0.48046 0.375,0.57421 0.550781,0.57421 0.257812,0 0.539062,-0.17578 0.539062,-0.53906 0,-0.375 -0.28125,-0.53906 -0.550781,-0.53906 -0.07031,0 -0.09375,0 -0.128906,0.0117 0.457031,-0.82031 1.582031,-0.82031 1.640625,-0.82031 0.386719,0 1.171875,0.17578 1.171875,1.34765 0,0.23438 -0.03516,0.90235 -0.386719,1.41797 -0.351562,0.52734 -0.761719,0.5625 -1.089844,0.57422 z m 5.115234,0.1289 c 0,-3.02344 1.476563,-3.5039 2.121094,-3.5039 0.433594,0 0.855469,0.1289 1.089844,0.49218 -0.140625,0 -0.597656,0 -0.597656,0.49219 0,0.25781 0.175781,0.49219 0.492187,0.49219 0.292969,0 0.492188,-0.1875 0.492188,-0.52735 0,-0.62109 -0.445313,-1.23046 -1.488282,-1.23046 -1.511718,0 -3.082031,1.53515 -3.082031,4.17187 0,3.28125 1.429688,4.01953 2.449219,4.01953 1.300781,0 2.414062,-1.125 2.414062,-2.68359 0,-1.59375 -1.113281,-2.66016 -2.308593,-2.66016 -1.066407,0 -1.453125,0.92578 -1.582032,1.26563 z m 1.476563,4.08985 c -0.75,0 -1.113281,-0.66797 -1.21875,-0.92579 -0.105469,-0.30468 -0.222656,-0.89062 -0.222656,-1.73437 0,-0.9375 0.421875,-2.12109 1.5,-2.12109 0.65625,0 1.007812,0.44531 1.183593,0.84375 0.1875,0.44531 0.1875,1.04296 0.1875,1.55859 0,0.60937 0,1.14844 -0.222656,1.60547 -0.304687,0.57422 -0.726562,0.77344 -1.207031,0.77344 z m 0,0"
         style="fill:#000000;fill-opacity:1;fill-rule:nonzero;stroke:none" />
      <path
         id="path7"
         d="m 78.20407,298.86402 c 0,-0.26954 0,-0.28125 -0.246093,-0.28125 -0.28125,0.3164 -0.878907,0.76171 -2.109375,0.76171 v 0.35157 c 0.269531,0 0.867187,0 1.523437,-0.31641 v 6.22266 c 0,0.43359 -0.03516,0.57422 -1.078125,0.57422 h -0.375 v 0.35156 c 0.316406,-0.0234 1.476563,-0.0234 1.875,-0.0234 0.398438,0 1.546875,0 1.863281,0.0234 v -0.35156 h -0.363281 c -1.054687,0 -1.089844,-0.14063 -1.089844,-0.57422 z m 0,0"
         style="fill:#000000;fill-opacity:1;fill-rule:nonzero;stroke:none" />
      <path
         id="path8"
         d="m 231.87204,304.52417 h -0.26953 c -0.0352,0.19922 -0.12891,0.85547 -0.2461,1.04297 -0.082,0.11719 -0.76171,0.11719 -1.125,0.11719 h -2.21484 c 0.32813,-0.28125 1.05469,-1.04297 1.37109,-1.33594 1.81641,-1.66406 2.48438,-2.28516 2.48438,-3.46875 0,-1.38281 -1.08984,-2.29687 -2.47266,-2.29687 -1.39453,0 -2.20312,1.18359 -2.20312,2.20312 0,0.60938 0.52734,0.60938 0.5625,0.60938 0.24609,0 0.5625,-0.17579 0.5625,-0.5625 0,-0.32813 -0.23438,-0.55079 -0.5625,-0.55079 -0.10547,0 -0.12891,0 -0.16406,0.0117 0.22265,-0.82031 0.86718,-1.37109 1.64062,-1.37109 1.01953,0 1.64063,0.85547 1.64063,1.95703 0,1.00781 -0.58594,1.89844 -1.26563,2.66016 l -2.41406,2.70703 v 0.28125 h 4.35937 z m 0,0"
         style="fill:#000000;fill-opacity:1;fill-rule:nonzero;stroke:none" />
      <path
         id="path9"
         d="m -107.00198,319.57398 c -0.21094,0.0117 -0.25782,0.0234 -0.25782,0.1289 0,0.11719 0.0586,0.11719 0.28125,0.11719 h 0.55078 c 1.00782,0 1.46485,0.84375 1.46485,1.99219 0,1.55859 -0.8086,1.98047 -1.39453,1.98047 -0.57422,0 -1.5586,-0.28125 -1.89844,-1.06641 0.375,0.0586 0.72656,-0.15234 0.72656,-0.58594 0,-0.33984 -0.25781,-0.58593 -0.58594,-0.58593 -0.29296,0 -0.59765,0.16406 -0.59765,0.62109 0,1.06641 1.0664,1.93359 2.39062,1.93359 1.41797,0 2.47266,-1.07812 2.47266,-2.28515 0,-1.10157 -0.89063,-1.96875 -2.02734,-2.16797 1.03125,-0.30469 1.69921,-1.17188 1.69921,-2.10938 0,-0.9375 -0.97265,-1.6289 -2.13281,-1.6289 -1.19531,0 -2.08594,0.72656 -2.08594,1.59375 0,0.48047 0.375,0.57422 0.55079,0.57422 0.25781,0 0.53906,-0.17579 0.53906,-0.53907 0,-0.375 -0.28125,-0.53906 -0.55078,-0.53906 -0.0703,0 -0.0937,0 -0.12891,0.0117 0.45703,-0.82031 1.58203,-0.82031 1.64063,-0.82031 0.38671,0 1.17187,0.17578 1.17187,1.34765 0,0.23438 -0.0352,0.90235 -0.38672,1.41797 -0.35156,0.52735 -0.76172,0.5625 -1.08984,0.57422 z m 0,0"
         style="fill:#000000;fill-opacity:1;fill-rule:nonzero;stroke:none" />
      <path
         id="path10"
         d="m -6.3906562,316.08179 c 0,-0.22266 0,-0.29297 -0.1640625,-0.29297 -0.09375,0 -0.1289063,0 -0.2226563,0.15234 l -3.597656,5.57813 v 0.35156 h 3.1406248 v 1.07813 c 0,0.44531 -0.023437,0.5625 -0.9023438,0.5625 h -0.234375 v 0.35156 c 0.2695313,-0.0234 1.21875,-0.0234 1.5585938,-0.0234 0.328125,0 1.2890625,0 1.5585937,0.0234 v -0.35156 h -0.234375 c -0.8671875,0 -0.9023437,-0.11719 -0.9023437,-0.5625 v -1.07813 h 1.2070312 v -0.35156 h -1.2070312 z m -0.7851563,0.9375 v 4.5 h -2.9062495 z m 0,0"
         style="fill:#000000;fill-opacity:1;fill-rule:nonzero;stroke:none" />
      <path
         id="path11"
         d="m 187.10641,452.0603 c 0,-3.02343 1.47657,-3.5039 2.1211,-3.5039 0.43359,0 0.85547,0.1289 1.08984,0.49219 -0.14062,0 -0.59765,0 -0.59765,0.49218 0,0.25782 0.17578,0.49219 0.49218,0.49219 0.29297,0 0.49219,-0.1875 0.49219,-0.52734 0,-0.6211 -0.44531,-1.23047 -1.48828,-1.23047 -1.51172,0 -3.08203,1.53515 -3.08203,4.17187 0,3.28125 1.42969,4.01953 2.44922,4.01953 1.30078,0 2.41406,-1.125 2.41406,-2.68359 0,-1.59375 -1.11328,-2.66016 -2.30859,-2.66016 -1.06641,0 -1.45313,0.92579 -1.58204,1.26563 z m 1.47657,4.08985 c -0.75,0 -1.11328,-0.66797 -1.21875,-0.92578 -0.10547,-0.30469 -0.22266,-0.89063 -0.22266,-1.73438 0,-0.9375 0.42188,-2.12109 1.5,-2.12109 0.65625,0 1.00781,0.44531 1.18359,0.84375 0.1875,0.44531 0.1875,1.04297 0.1875,1.55859 0,0.60938 0,1.14844 -0.22265,1.60547 -0.30469,0.57422 -0.72656,0.77344 -1.20703,0.77344 z m 0,0"
         style="fill:#000000;fill-opacity:1;fill-rule:nonzero;stroke:none" />
    </g>
  </g>
</svg>
