<?xml version="1.0" encoding="UTF-8" standalone="no"?>
<!-- Created with Inkscape (http://www.inkscape.org/) -->

<svg
   version="1.1"
   id="svg1"
   width="793.76001"
   height="1122.5601"
   viewBox="0 0 793.76001 1122.5601"
   sodipodi:docname="F2_M_PR_M2023_page2.pdf"
   xmlns:inkscape="http://www.inkscape.org/namespaces/inkscape"
   xmlns:sodipodi="http://sodipodi.sourceforge.net/DTD/sodipodi-0.dtd"
   xmlns="http://www.w3.org/2000/svg"
   xmlns:svg="http://www.w3.org/2000/svg">
  <defs
     id="defs1">
    <clipPath
       clipPathUnits="userSpaceOnUse"
       id="clipPath2">
      <path
         d="M 8.871e-6,0 H 595.32001 V 841.92 H 8.871e-6 Z"
         transform="matrix(1,0,0,-1,-264.89001,46.824001)"
         clip-rule="evenodd"
         id="path2" />
    </clipPath>
    <clipPath
       clipPathUnits="userSpaceOnUse"
       id="clipPath3">
      <path
         d="M 8.871e-6,0 H 595.32001 V 841.92 H 8.871e-6 Z"
         transform="matrix(1,0,0,-1,-300.55001,46.824001)"
         clip-rule="evenodd"
         id="path3" />
    </clipPath>
    <clipPath
       clipPathUnits="userSpaceOnUse"
       id="clipPath4">
      <path
         d="M 8.871e-6,0 H 595.32001 V 841.92 H 8.871e-6 Z"
         transform="matrix(1,0,0,-1,-309.67001,46.824001)"
         clip-rule="evenodd"
         id="path4" />
    </clipPath>
    <clipPath
       clipPathUnits="userSpaceOnUse"
       id="clipPath5">
      <path
         d="M 8.871e-6,0 H 595.32001 V 841.92 H 8.871e-6 Z"
         transform="matrix(1,0,0,-1,-318.19001,46.824001)"
         clip-rule="evenodd"
         id="path5" />
    </clipPath>
    <clipPath
       clipPathUnits="userSpaceOnUse"
       id="clipPath6">
      <path
         d="M 8.871e-6,0 H 595.32001 V 841.92 H 8.871e-6 Z"
         transform="matrix(1,0,0,-1,-70.824002,36.984001)"
         clip-rule="evenodd"
         id="path6" />
    </clipPath>
    <clipPath
       clipPathUnits="userSpaceOnUse"
       id="clipPath7">
      <path
         d="M 8.871e-6,0 H 595.32001 V 841.92 H 8.871e-6 Z"
         transform="matrix(1,0,0,-1,-93.864002,36.984001)"
         clip-rule="evenodd"
         id="path7" />
    </clipPath>
    <clipPath
       clipPathUnits="userSpaceOnUse"
       id="clipPath8">
      <path
         d="M 8.871e-6,0 H 595.32001 V 841.92 H 8.871e-6 Z"
         transform="matrix(1,0,0,-1,-96.504002,36.984001)"
         clip-rule="evenodd"
         id="path8" />
    </clipPath>
    <clipPath
       clipPathUnits="userSpaceOnUse"
       id="clipPath33">
      <path
         d="M 8.871e-6,0 H 595.32001 V 841.92 H 8.871e-6 Z"
         transform="matrix(1,0,0,-1,-141.98001,439.63001)"
         clip-rule="evenodd"
         id="path33" />
    </clipPath>
    <clipPath
       clipPathUnits="userSpaceOnUse"
       id="clipPath34">
      <path
         d="M 8.871e-6,0 H 595.32001 V 841.92 H 8.871e-6 Z"
         transform="matrix(1,0,0,-1,-203.33001,416.83001)"
         clip-rule="evenodd"
         id="path34" />
    </clipPath>
  </defs>
  <sodipodi:namedview
     id="namedview1"
     pagecolor="#ffffff"
     bordercolor="#000000"
     borderopacity="0.25"
     inkscape:showpageshadow="2"
     inkscape:pageopacity="0.0"
     inkscape:pagecheckerboard="0"
     inkscape:deskcolor="#d1d1d1">
    <inkscape:page
       x="0"
       y="0"
       inkscape:label="1"
       id="page1"
       width="793.76001"
       height="1122.5601"
       margin="0"
       bleed="0" />
  </sodipodi:namedview>
  <g
     id="g1"
     inkscape:groupmode="layer"
     inkscape:label="1">
    <g
       id="g2">
      <text
         id="text2"
         xml:space="preserve"
         transform="matrix(1.3333333,0,0,1.3333333,353.18667,1060.128)"
         clip-path="url(#clipPath2)"><tspan
           style="font-variant:normal;font-weight:normal;font-size:11.04px;font-family:Arial;writing-mode:lr-tb;fill:#000000;fill-opacity:1;fill-rule:nonzero;stroke:none"
           x="0 7.31952 10.4328 14.14224 20.280479 26.385599 32.523842"
           y="0"
           sodipodi:role="line"
           id="tspan2">Strona </tspan></text>
      <text
         id="text3"
         xml:space="preserve"
         transform="matrix(1.3333333,0,0,1.3333333,400.73333,1060.128)"
         clip-path="url(#clipPath3)"><tspan
           style="font-variant:normal;font-weight:normal;font-size:11.04px;font-family:Arial;writing-mode:lr-tb;fill:#000000;fill-opacity:1;fill-rule:nonzero;stroke:none"
           x="0"
           y="0"
           id="tspan3">3</tspan></text>
      <text
         id="text4"
         xml:space="preserve"
         transform="matrix(1.3333333,0,0,1.3333333,412.89333,1060.128)"
         clip-path="url(#clipPath4)"><tspan
           style="font-variant:normal;font-weight:normal;font-size:11.04px;font-family:Arial;writing-mode:lr-tb;fill:#000000;fill-opacity:1;fill-rule:nonzero;stroke:none"
           x="0 5.4000001"
           y="0"
           sodipodi:role="line"
           id="tspan4">z </tspan></text>
      <text
         id="text5"
         xml:space="preserve"
         transform="matrix(1.3333333,0,0,1.3333333,424.25333,1060.128)"
         clip-path="url(#clipPath5)"><tspan
           style="font-variant:normal;font-weight:normal;font-size:11.04px;font-family:Arial;writing-mode:lr-tb;fill:#000000;fill-opacity:1;fill-rule:nonzero;stroke:none"
           x="0 6.1200399"
           y="0"
           sodipodi:role="line"
           id="tspan5">29</tspan></text>
      <text
         id="text6"
         xml:space="preserve"
         transform="matrix(1.3333333,0,0,1.3333333,94.432,1073.248)"
         clip-path="url(#clipPath6)"><tspan
           style="font-variant:normal;font-weight:700;font-size:8.04px;font-family:Arial;writing-mode:lr-tb;fill:#000000;fill-opacity:1;fill-rule:nonzero;stroke:none"
           x="0 5.28228 12.23688 17.639759"
           y="0"
           sodipodi:role="line"
           id="tspan6">EMAP</tspan></text>
      <text
         id="text7"
         xml:space="preserve"
         transform="matrix(1.3333333,0,0,1.3333333,125.152,1073.248)"
         clip-path="url(#clipPath7)"><tspan
           style="font-variant:normal;font-weight:700;font-size:8.04px;font-family:Arial;writing-mode:lr-tb;fill:#000000;fill-opacity:1;fill-rule:nonzero;stroke:none"
           x="0"
           y="0"
           id="tspan7">-</tspan></text>
      <text
         id="text8"
         xml:space="preserve"
         transform="matrix(1.3333333,0,0,1.3333333,128.672,1073.248)"
         clip-path="url(#clipPath8)"><tspan
           style="font-variant:normal;font-weight:700;font-size:8.04px;font-family:Arial;writing-mode:lr-tb;fill:#000000;fill-opacity:1;fill-rule:nonzero;stroke:none"
           x="0 5.75664 10.19472 14.6328 19.070881 23.508961"
           y="0"
           sodipodi:role="line"
           id="tspan8">R0_100</tspan></text>
    </g>
    <g
       id="g8" />
    <g
       id="g9" />
    <g
       id="g10" />
    <g
       id="g11" />
    <g
       id="g12" />
    <g
       id="g13" />
    <g
       id="g14" />
    <g
       id="g15" />
    <g
       id="g16" />
    <g
       id="g17" />
    <g
       id="g18" />
    <g
       id="g19" />
    <g
       id="g20" />
    <g
       id="g21" />
    <g
       id="g22" />
    <g
       id="g23" />
    <g
       id="g24" />
    <g
       id="g25" />
    <g
       id="g26" />
    <g
       id="g27" />
    <g
       id="g28" />
    <g
       id="g29" />
    <g
       id="g30" />
    <g
       id="g31" />
    <g
       id="g32" />
    <g
       id="g33">
      <text
         id="text33"
         xml:space="preserve"
         transform="matrix(1.3333333,0,0,1.3333333,189.30667,536.38667)"
         clip-path="url(#clipPath33)"><tspan
           style="font-variant:normal;font-weight:700;font-size:15.96px;font-family:Arial;writing-mode:lr-tb;fill:#000000;fill-opacity:1;fill-rule:nonzero;stroke:none"
           x="0 9.7515602 18.62532 28.31304 37.298519 47.050079 51.486961 60.360722 64.7976 73.76712 83.518677 91.49868 100.37244 114.56088 119.10948 128.86104 137.7348 146.81604 155.45039 159.88728 169.71864 178.59241 183.02928 191.90305 200.77679 205.11792 218.06148 226.58412 236.41548 242.62392 252.37547 261.24924 270.85715 283.689 292.56277 302.31433 311.18808"
           y="0"
           sodipodi:role="line"
           id="tspan33">Zadania egzaminacyjne są wydrukowane </tspan></text>
      <text
         id="text34"
         xml:space="preserve"
         transform="matrix(1.3333333,0,0,1.3333333,271.10667,566.78667)"
         clip-path="url(#clipPath34)"><tspan
           style="font-variant:normal;font-weight:700;font-size:15.96px;font-family:Arial;writing-mode:lr-tb;fill:#000000;fill-opacity:1;fill-rule:nonzero;stroke:none"
           x="0 9.7515602 18.62532 23.062201 32.765881 41.639641 50.625118 55.9398 64.81356 74.612999 84.556084 93.190437 102.17592 111.92748 116.44416 125.31792 130.6326 136.84103 146.59261 156.39204 165.26579 174.13956 183.89111"
           y="0"
           sodipodi:role="line"
           id="tspan34">na następnych stronach.</tspan></text>
    </g>
  </g>
</svg>
