<?xml version="1.0" encoding="UTF-8" standalone="no"?>
<!-- Created with Inkscape (http://www.inkscape.org/) -->

<svg
   version="1.1"
   id="svg1"
   width="794.55066"
   height="1123.6533"
   viewBox="0 0 794.55066 1123.6533"
   sodipodi:docname="LigaMatematycznaMatuskiego_Gim_Zestaw2_2016_2017_page0.pdf"
   xmlns:inkscape="http://www.inkscape.org/namespaces/inkscape"
   xmlns:sodipodi="http://sodipodi.sourceforge.net/DTD/sodipodi-0.dtd"
   xmlns="http://www.w3.org/2000/svg"
   xmlns:svg="http://www.w3.org/2000/svg">
  <defs
     id="defs1" />
  <sodipodi:namedview
     id="namedview1"
     pagecolor="#ffffff"
     bordercolor="#000000"
     borderopacity="0.25"
     inkscape:showpageshadow="2"
     inkscape:pageopacity="0.0"
     inkscape:pagecheckerboard="0"
     inkscape:deskcolor="#d1d1d1">
    <inkscape:page
       x="0"
       y="0"
       inkscape:label="1"
       id="page1"
       width="794.55066"
       height="1123.6533"
       margin="0"
       bleed="0" />
  </sodipodi:namedview>
  <g
     id="g1"
     inkscape:groupmode="layer"
     inkscape:label="1">
    <g
       id="g2"
       aria-label="LIGAMATEMATYCZNA&#10;im.ZdzisªawaMatuskiego&#10;LISTOPAD2016&#10;GIMNAZJUM&#10;ZADANIE1.&#10;Naprzyprostok¡tnychBCiCAtrójk¡taprostok¡tnegoABCzbudowanonazewn¡trzkwadraty&#10;ECBDorazCFGA.ProstaADprzecinabokBCwpunkcieP,prostaBGprzecinabokCA&#10;wpunkcieR.Udowodnij,»eodcinkiCPiCRmaj¡równedªugo±ci.&#10;ZADANIE2.&#10;Adammiaªpomno»y¢dwieliczbynaturalne.Jedenzczynnikówbyªliczb¡dwucyfrow¡,wktórej&#10;cyfrajedno±cibyªadwukrotniemniejszaodcyfrydziesi¡tek.Chªopiecpomyliªsi¦,przestawiª&#10;cyfrytejliczbyiotrzymaªiloczyno1539mniejszyodpoprawnego.Podajpoprawnywynik&#10;tegomno»eniailiczby,któremiaªpomno»y¢Adam.&#10;ZADANIE3.&#10;Nastolele»y2017monet.WjednymruchuBartekmo»ewzi¡¢dokªadnie3,36lub69monet.&#10;Czywykonuj¡cwieletakichruchówBartekmo»ewzi¡¢wszystkiemonetyzestoªu?&#10;ZADANIE4.&#10;Wyka»,»eliczba256&#10;4&#10;+8&#10;9&#10;jestpodzielnaprzez11.&#10;ZADANIE5.&#10;Ró»nicami¦dzyczwartymipot¦gamipewnychdwóchliczbnaturalnychjestrówna34481,aró»-&#10;nicami¦dzydrugimipot¦gamitychliczbwynosi41.Wyznaczró»nic¦tychliczb."
       transform="matrix(1.3333333,0,0,1.3333333,274.724,56.069333)">
      <path
         id="path2"
         d="m -29.453156,102.46655 c 0.117187,-0.44531 0.164062,-0.46875 0.621094,-0.46875 h 1.558593 c 1.347657,0 1.347657,1.14844 1.347657,1.25391 0,0.97266 -0.960938,2.20313 -2.542969,2.20313 h -1.722656 z m 2.027344,3.08204 c 1.300781,-0.2461 2.484375,-1.14844 2.484375,-2.25 0,-0.92579 -0.832032,-1.65235 -2.179688,-1.65235 h -3.832031 c -0.234375,0 -0.339844,0 -0.339844,0.23438 0,0.11718 0.105469,0.11718 0.292969,0.11718 0.726562,0 0.726562,0.0937 0.726562,0.22266 0,0.0234 0,0.0937 -0.04687,0.28125 l -1.617187,6.43359 c -0.105469,0.41016 -0.128906,0.52735 -0.960938,0.52735 -0.234375,0 -0.351562,0 -0.351562,0.22265 0,0.12891 0.07031,0.12891 0.304687,0.12891 h 4.101563 c 1.828125,0 3.246094,-1.38281 3.246094,-2.58984 0,-0.98438 -0.867188,-1.58203 -1.828125,-1.67578 z m -1.699219,3.91406 h -1.617188 c -0.164062,0 -0.1875,0 -0.257812,-0.0117 -0.128906,-0.0117 -0.152344,-0.0352 -0.152344,-0.12891 0,-0.082 0.03516,-0.15234 0.05859,-0.25781 l 0.832031,-3.375 h 2.25 c 1.40625,0 1.40625,1.3125 1.40625,1.40625 0,1.14844 -1.042969,2.36719 -2.519531,2.36719 z m 13.722656,-7.95703 c 0,-0.10547 -0.08203,-0.10547 -0.105469,-0.10547 -0.02344,0 -0.07031,0 -0.175781,0.11719 l -0.820312,1.00781 c -0.421875,-0.71485 -1.078125,-1.125 -1.96875,-1.125 -2.589844,0 -5.261719,2.61328 -5.261719,5.42578 0,1.99219 1.394531,3.23437 3.140625,3.23437 0.960937,0 1.792969,-0.39843 2.484375,-0.98437 1.042969,-0.87891 1.359375,-2.03906 1.359375,-2.13281 0,-0.10547 -0.09375,-0.10547 -0.140625,-0.10547 -0.105469,0 -0.117188,0.0703 -0.140625,0.11719 -0.550781,1.86328 -2.15625,2.76562 -3.351563,2.76562 -1.277343,0 -2.367187,-0.82031 -2.367187,-2.50781 0,-0.38672 0.117187,-2.46094 1.464844,-4.03125 0.65625,-0.76172 1.78125,-1.44141 2.917968,-1.44141 1.3125,0 1.898438,1.08985 1.898438,2.3086 0,0.3164 -0.03516,0.57421 -0.03516,0.62109 0,0.11719 0.117187,0.11719 0.152343,0.11719 0.140625,0 0.152344,-0.0117 0.199219,-0.23438 z m 0,0"
         style="fill:#000000;fill-opacity:1;fill-rule:nonzero;stroke:none" />
      <path
         id="path3"
         d="m 2.8407891,101.50562 c 0,-0.10547 -0.082031,-0.10547 -0.1054688,-0.10547 -0.023437,0 -0.070312,0 -0.1757812,0.11719 l -0.8203125,1.00781 c -0.421875,-0.71485 -1.07812504,-1.125 -1.96875004,-1.125 -2.58984376,0 -5.26171876,2.61328 -5.26171876,5.42578 0,1.99219 1.3945313,3.23437 3.140625,3.23437 0.9609375,0 1.79296876,-0.39843 2.48437501,-0.98437 1.04296879,-0.87891 1.35937499,-2.03906 1.35937499,-2.13281 0,-0.10547 -0.09375,-0.10547 -0.140625,-0.10547 -0.1054687,0 -0.1171875,0.0703 -0.140625,0.11719 -0.55078124,1.86328 -2.15624999,2.76562 -3.3515625,2.76562 -1.2773437,0 -2.3671875,-0.82031 -2.3671875,-2.50781 0,-0.38672 0.1171875,-2.46094 1.4648438,-4.03125 0.65625,-0.76172 1.78125,-1.44141 2.91796871,-1.44141 1.31249999,0 1.89843749,1.08985 1.89843749,2.3086 0,0.3164 -0.035156,0.57421 -0.035156,0.62109 0,0.11719 0.1171875,0.11719 0.1523437,0.11719 0.140625,0 0.1523438,-0.0117 0.1992188,-0.23438 z m 2.3320312,6.98437 c -0.4101562,0.70313 -0.8203125,0.9375 -1.3945312,0.97266 -0.1289063,0.0117 -0.2226563,0.0117 -0.2226563,0.23437 0,0.0703 0.058594,0.11719 0.140625,0.11719 0.2109375,0 0.75,-0.0234 0.9726563,-0.0234 0.3398437,0 0.7265625,0.0234 1.0546875,0.0234 0.070312,0 0.2226562,0 0.2226562,-0.22266 0,-0.11718 -0.09375,-0.1289 -0.1757812,-0.1289 -0.2695313,-0.0234 -0.4921875,-0.11719 -0.4921875,-0.39844 0,-0.17578 0.070312,-0.30469 0.2226562,-0.5625 l 0.9023438,-1.51172 h 3.0585937 c 0.011719,0.10547 0.011719,0.21094 0.023437,0.31641 0.035156,0.30469 0.1757813,1.54687 0.1757813,1.78125 0,0.35156 -0.609375,0.375 -0.796875,0.375 -0.140625,0 -0.2695313,0 -0.2695313,0.22265 0,0.12891 0.1054688,0.12891 0.1757813,0.12891 0.2109375,0 0.4453125,-0.0234 0.65625,-0.0234 h 0.6796879 c 0.726563,0 1.253906,0.0234 1.265625,0.0234 0.08203,0 0.210938,0 0.210938,-0.22266 0,-0.1289 -0.105469,-0.1289 -0.28125,-0.1289 -0.65625,0 -0.667969,-0.10547 -0.714844,-0.45703 l -0.7265632,-7.46485 c -0.023437,-0.23437 -0.070312,-0.25781 -0.1992187,-0.25781 -0.1171875,0 -0.1875,0.0234 -0.3046875,0.19922 z m 1.4414063,-1.83984 2.4023437,-4.01953 0.4101563,4.01953 z m 0,0"
         style="fill:#000000;fill-opacity:1;fill-rule:nonzero;stroke:none" />
      <path
         id="path4"
         d="m 134.79684,108.48999 c -0.41015,0.70313 -0.82031,0.9375 -1.39453,0.97266 -0.1289,0.0117 -0.22265,0.0117 -0.22265,0.23437 0,0.0703 0.0586,0.11719 0.14062,0.11719 0.21094,0 0.75,-0.0234 0.97266,-0.0234 0.33984,0 0.72656,0.0234 1.05469,0.0234 0.0703,0 0.22265,0 0.22265,-0.22266 0,-0.11718 -0.0937,-0.1289 -0.17578,-0.1289 -0.26953,-0.0234 -0.49219,-0.11719 -0.49219,-0.39844 0,-0.17578 0.0703,-0.30469 0.22266,-0.5625 l 0.90234,-1.51172 h 3.0586 c 0.0117,0.10547 0.0117,0.21094 0.0234,0.31641 0.0352,0.30469 0.17579,1.54687 0.17579,1.78125 0,0.35156 -0.60938,0.375 -0.79688,0.375 -0.14062,0 -0.26953,0 -0.26953,0.22265 0,0.12891 0.10547,0.12891 0.17578,0.12891 0.21094,0 0.44531,-0.0234 0.65625,-0.0234 h 0.67969 c 0.72656,0 1.2539,0.0234 1.26562,0.0234 0.082,0 0.21094,0 0.21094,-0.22266 0,-0.1289 -0.10547,-0.1289 -0.28125,-0.1289 -0.65625,0 -0.66797,-0.10547 -0.71484,-0.45703 l -0.72657,-7.46485 c -0.0234,-0.23437 -0.0703,-0.25781 -0.19921,-0.25781 -0.11719,0 -0.1875,0.0234 -0.30469,0.19922 z m 1.44141,-1.83984 2.40234,-4.01953 0.41016,4.01953 z m 9.67676,-4.1836 c 0.11719,-0.44531 0.16406,-0.46875 0.62109,-0.46875 h 1.5586 c 1.34765,0 1.34765,1.14844 1.34765,1.25391 0,0.97266 -0.96094,2.20313 -2.54297,2.20313 h -1.72265 z m 2.02734,3.08204 c 1.30078,-0.2461 2.48438,-1.14844 2.48438,-2.25 0,-0.92579 -0.83203,-1.65235 -2.17969,-1.65235 h -3.83203 c -0.23438,0 -0.33985,0 -0.33985,0.23438 0,0.11718 0.10547,0.11718 0.29297,0.11718 0.72657,0 0.72657,0.0937 0.72657,0.22266 0,0.0234 0,0.0937 -0.0469,0.28125 l -1.61719,6.43359 c -0.10547,0.41016 -0.1289,0.52735 -0.96093,0.52735 -0.23438,0 -0.35157,0 -0.35157,0.22265 0,0.12891 0.0703,0.12891 0.30469,0.12891 h 4.10156 c 1.82813,0 3.2461,-1.38281 3.2461,-2.58984 0,-0.98438 -0.86719,-1.58203 -1.82813,-1.67578 z m -1.69922,3.91406 h -1.61718 c -0.16407,0 -0.1875,0 -0.25782,-0.0117 -0.1289,-0.0117 -0.15234,-0.0352 -0.15234,-0.12891 0,-0.082 0.0352,-0.15234 0.0586,-0.25781 l 0.83203,-3.375 h 2.25 c 1.40625,0 1.40625,1.3125 1.40625,1.40625 0,1.14844 -1.04296,2.36719 -2.51953,2.36719 z m 13.72266,-7.95703 c 0,-0.10547 -0.082,-0.10547 -0.10547,-0.10547 -0.0234,0 -0.0703,0 -0.17578,0.11719 l -0.82031,1.00781 c -0.42188,-0.71485 -1.07813,-1.125 -1.96875,-1.125 -2.58985,0 -5.26172,2.61328 -5.26172,5.42578 0,1.99219 1.39453,3.23437 3.14062,3.23437 0.96094,0 1.79297,-0.39843 2.48438,-0.98437 1.04297,-0.87891 1.35937,-2.03906 1.35937,-2.13281 0,-0.10547 -0.0937,-0.10547 -0.14062,-0.10547 -0.10547,0 -0.11719,0.0703 -0.14063,0.11719 -0.55078,1.86328 -2.15625,2.76562 -3.35156,2.76562 -1.27734,0 -2.36719,-0.82031 -2.36719,-2.50781 0,-0.38672 0.11719,-2.46094 1.46485,-4.03125 0.65625,-0.76172 1.78125,-1.44141 2.91797,-1.44141 1.3125,0 1.89843,1.08985 1.89843,2.3086 0,0.3164 -0.0352,0.57421 -0.0352,0.62109 0,0.11719 0.11718,0.11719 0.15234,0.11719 0.14063,0 0.15234,-0.0117 0.19922,-0.23438 z m 0,0"
         style="fill:#000000;fill-opacity:1;fill-rule:nonzero;stroke:none" />
      <path
         id="path5"
         d="m -139.90823,121.48316 c 0.0117,-0.0352 0.0469,-0.11719 0.0469,-0.16407 0,-0.0586 -0.0469,-0.11718 -0.11719,-0.11718 -0.0469,0 -0.0703,0.0117 -0.10547,0.0469 -0.0234,0.0117 -0.0234,0.0352 -0.14062,0.26953 -0.70313,1.67578 -1.21875,2.39063 -3.12891,2.39063 h -1.74609 c -0.16406,0 -0.1875,0 -0.25781,-0.0117 -0.12891,-0.0117 -0.14063,-0.0352 -0.14063,-0.12891 0,-0.082 0.0234,-0.15234 0.0469,-0.25781 l 0.82031,-3.30469 h 1.18359 c 0.9375,0 1.00782,0.21094 1.00782,0.5625 0,0.11719 0,0.23438 -0.082,0.58594 -0.0351,0.0469 -0.0469,0.0937 -0.0469,0.12891 0,0.082 0.0703,0.1289 0.14062,0.1289 0.10547,0 0.11719,-0.0937 0.16407,-0.25781 l 0.67968,-2.77734 c 0,-0.0586 -0.0469,-0.11719 -0.11718,-0.11719 -0.10547,0 -0.11719,0.0469 -0.16407,0.22266 -0.24609,0.91406 -0.48046,1.18359 -1.54687,1.18359 h -1.13672 l 0.73828,-2.94141 c 0.11719,-0.42187 0.14063,-0.45703 0.6211,-0.45703 h 1.71093 c 1.47657,0 1.76953,0.39844 1.76953,1.30078 0,0.0117 0,0.35157 -0.0469,0.73828 -0.0117,0.0469 -0.0234,0.12891 -0.0234,0.15235 0,0.0937 0.0586,0.1289 0.12891,0.1289 0.082,0 0.14062,-0.0469 0.16406,-0.26953 l 0.24609,-2.08593 c 0,-0.0352 0.0234,-0.15235 0.0234,-0.17579 0,-0.14062 -0.10547,-0.14062 -0.3164,-0.14062 h -5.83594 c -0.23438,0 -0.35156,0 -0.35156,0.22266 0,0.1289 0.082,0.1289 0.29296,0.1289 0.73829,0 0.73829,0.082 0.73829,0.21094 0,0.0586 -0.0117,0.10547 -0.0469,0.24609 l -1.61719,6.45703 c -0.10547,0.41016 -0.1289,0.52735 -0.96093,0.52735 -0.23438,0 -0.35157,0 -0.35157,0.22265 0,0.12891 0.0703,0.12891 0.30469,0.12891 h 6 c 0.26953,0 0.28125,-0.0117 0.36328,-0.19922 z m 9.99316,-5.53125 c 0,-0.10547 -0.082,-0.10547 -0.10547,-0.10547 -0.0234,0 -0.0703,0 -0.17578,0.11719 l -0.82031,1.00781 c -0.42188,-0.71485 -1.07813,-1.125 -1.96875,-1.125 -2.58985,0 -5.26172,2.61328 -5.26172,5.42578 0,1.99219 1.39453,3.23437 3.14062,3.23437 0.96094,0 1.79297,-0.39843 2.48438,-0.98437 1.04297,-0.87891 1.35937,-2.03906 1.35937,-2.13281 0,-0.10547 -0.0937,-0.10547 -0.14062,-0.10547 -0.10547,0 -0.11719,0.0703 -0.14063,0.11719 -0.55078,1.86328 -2.15625,2.76562 -3.35156,2.76562 -1.27734,0 -2.36719,-0.82031 -2.36719,-2.50781 0,-0.38672 0.11719,-2.46094 1.46485,-4.03125 0.65625,-0.76172 1.78125,-1.44141 2.91797,-1.44141 1.3125,0 1.89843,1.08985 1.89843,2.3086 0,0.3164 -0.0351,0.57421 -0.0351,0.62109 0,0.11719 0.11718,0.11719 0.15234,0.11719 0.14063,0 0.15234,-0.0117 0.19922,-0.23438 z m 4.66406,0.96093 c 0.11719,-0.44531 0.16406,-0.46875 0.6211,-0.46875 h 1.55859 c 1.34766,0 1.34766,1.14844 1.34766,1.25391 0,0.97266 -0.96094,2.20313 -2.54297,2.20313 h -1.72266 z m 2.02735,3.08204 c 1.30078,-0.2461 2.48437,-1.14844 2.48437,-2.25 0,-0.92579 -0.83203,-1.65235 -2.17969,-1.65235 h -3.83203 c -0.23437,0 -0.33984,0 -0.33984,0.23438 0,0.11718 0.10547,0.11718 0.29297,0.11718 0.72656,0 0.72656,0.0937 0.72656,0.22266 0,0.0234 0,0.0937 -0.0469,0.28125 l -1.61718,6.43359 c -0.10547,0.41016 -0.12891,0.52735 -0.96094,0.52735 -0.23438,0 -0.35156,0 -0.35156,0.22265 0,0.12891 0.0703,0.12891 0.30468,0.12891 h 4.10157 c 1.82812,0 3.24609,-1.38281 3.24609,-2.58984 0,-0.98438 -0.86719,-1.58203 -1.82812,-1.67578 z m -1.69922,3.91406 h -1.61719 c -0.16406,0 -0.1875,0 -0.25781,-0.0117 -0.12891,-0.0117 -0.15235,-0.0352 -0.15235,-0.12891 0,-0.082 0.0352,-0.15234 0.0586,-0.25781 l 0.83203,-3.375 h 2.25 c 1.40625,0 1.40625,1.3125 1.40625,1.40625 0,1.14844 -1.04297,2.36719 -2.51953,2.36719 z m 6.67968,-0.52735 c -0.10546,0.41016 -0.1289,0.52735 -0.96093,0.52735 -0.23438,0 -0.35157,0 -0.35157,0.22265 0,0.12891 0.0703,0.12891 0.30469,0.12891 h 3.79688 c 2.41406,0 4.76953,-2.49609 4.76953,-5.16797 0,-1.72265 -1.03125,-3 -2.74219,-3 h -3.83203 c -0.23438,0 -0.33984,0 -0.33984,0.23438 0,0.11718 0.10546,0.11718 0.29296,0.11718 0.72657,0 0.72657,0.0937 0.72657,0.22266 0,0.0234 0,0.0937 -0.0469,0.28125 z m 2.51954,-6.46875 c 0.11718,-0.44531 0.16406,-0.46875 0.62109,-0.46875 h 1.32422 c 1.11328,0 2.14453,0.60938 2.14453,2.26172 0,0.59766 -0.23438,2.67188 -1.39453,3.98438 -0.33985,0.39844 -1.24219,1.21875 -2.625,1.21875 h -1.35938 c -0.16406,0 -0.1875,0 -0.25781,-0.0117 -0.12891,-0.0117 -0.14062,-0.0352 -0.14062,-0.12891 0,-0.082 0.0234,-0.15234 0.0469,-0.25781 z m 0,0"
         style="fill:#000000;fill-opacity:1;fill-rule:nonzero;stroke:none" />
      <path
         id="path6"
         d="m -71.763703,115.95191 c 0,-0.10547 -0.08203,-0.10547 -0.105469,-0.10547 -0.02344,0 -0.07031,0 -0.175781,0.11719 l -0.820313,1.00781 c -0.421875,-0.71485 -1.078125,-1.125 -1.96875,-1.125 -2.589843,0 -5.261718,2.61328 -5.261718,5.42578 0,1.99219 1.394531,3.23437 3.140625,3.23437 0.960937,0 1.792968,-0.39843 2.484375,-0.98437 1.042968,-0.87891 1.359375,-2.03906 1.359375,-2.13281 0,-0.10547 -0.09375,-0.10547 -0.140625,-0.10547 -0.105469,0 -0.117188,0.0703 -0.140625,0.11719 -0.550782,1.86328 -2.15625,2.76562 -3.351563,2.76562 -1.277344,0 -2.367187,-0.82031 -2.367187,-2.50781 0,-0.38672 0.117187,-2.46094 1.464843,-4.03125 0.65625,-0.76172 1.78125,-1.44141 2.917969,-1.44141 1.3125,0 1.898438,1.08985 1.898438,2.3086 0,0.3164 -0.03516,0.57421 -0.03516,0.62109 0,0.11719 0.117188,0.11719 0.152344,0.11719 0.140625,0 0.152344,-0.0117 0.199219,-0.23438 z m 3.855469,4.40625 h 1.148437 c 0.902344,0 0.984375,0.21093 0.984375,0.55078 0,0.16406 -0.03516,0.32812 -0.09375,0.58594 -0.02344,0.0469 -0.03516,0.11718 -0.03516,0.14062 0,0.082 0.04687,0.12891 0.140625,0.12891 0.09375,0 0.105469,-0.0469 0.152344,-0.2461 l 0.691406,-2.77734 c 0,-0.0469 -0.03516,-0.11719 -0.117188,-0.11719 -0.105468,0 -0.117187,0.0469 -0.175781,0.2461 -0.246094,0.89062 -0.480469,1.14843 -1.523437,1.14843 h -1.089844 l 0.773437,-3.09375 c 0.117188,-0.42187 0.140625,-0.45703 0.621094,-0.45703 h 1.605469 c 1.5,0 1.710937,0.44531 1.710937,1.28906 0,0.0703 0,0.33985 -0.03516,0.64454 -0.01172,0.0469 -0.03516,0.21093 -0.03516,0.25781 0,0.0937 0.05859,0.1289 0.128906,0.1289 0.08203,0 0.128906,-0.0469 0.152344,-0.26953 l 0.257812,-2.08593 c 0,-0.0352 0.02344,-0.15235 0.02344,-0.17579 0,-0.14062 -0.105469,-0.14062 -0.328125,-0.14062 h -5.660156 c -0.234375,0 -0.351563,0 -0.351563,0.22266 0,0.1289 0.08203,0.1289 0.292969,0.1289 0.738281,0 0.738281,0.082 0.738281,0.21094 0,0.0586 -0.01172,0.10547 -0.04687,0.24609 l -1.617187,6.45703 c -0.105469,0.41016 -0.128907,0.52735 -0.960938,0.52735 -0.234375,0 -0.351562,0 -0.351562,0.22265 0,0.12891 0.105468,0.12891 0.175781,0.12891 0.234375,0 0.46875,-0.0234 0.691406,-0.0234 h 1.558594 c 0.257812,0 0.550781,0.0234 0.808594,0.0234 0.117187,0 0.257812,0 0.257812,-0.21094 0,-0.14062 -0.07031,-0.14062 -0.339844,-0.14062 -0.9375,0 -0.960937,-0.082 -0.960937,-0.25781 0,-0.0586 0.02344,-0.15235 0.04687,-0.23438 z m 14.569336,-4.40625 c 0,-0.10547 -0.08203,-0.10547 -0.105469,-0.10547 -0.02344,0 -0.07031,0 -0.175781,0.11719 l -0.820313,0.99609 c -0.05859,-0.0937 -0.292969,-0.51563 -0.761719,-0.79688 -0.515625,-0.3164 -1.03125,-0.3164 -1.207031,-0.3164 -2.554687,0 -5.25,2.60156 -5.25,5.42578 0,1.96875 1.359375,3.23437 3.152344,3.23437 0.867187,0 1.957031,-0.28125 2.554687,-1.03125 0.128907,0.44532 0.386719,0.77344 0.46875,0.77344 0.05859,0 0.07031,-0.0352 0.08203,-0.0352 0.02344,-0.0234 0.117187,-0.44532 0.175781,-0.65625 l 0.1875,-0.76172 c 0.09375,-0.39844 0.140625,-0.5625 0.222656,-0.92578 0.128906,-0.45704 0.152344,-0.49219 0.808594,-0.50391 0.04687,0 0.1875,0 0.1875,-0.22266 0,-0.11718 -0.117188,-0.11718 -0.152344,-0.11718 -0.199219,0 -0.433594,0.0234 -0.644531,0.0234 h -0.644531 c -0.503907,0 -1.03125,-0.0234 -1.523438,-0.0234 -0.105469,0 -0.246094,0 -0.246094,0.21093 0,0.11719 0.09375,0.11719 0.09375,0.12891 h 0.292969 c 0.949219,0 0.949219,0.0937 0.949219,0.28125 0,0.0117 -0.222656,1.21875 -0.457031,1.57031 -0.457032,0.66797 -1.394532,0.94922 -2.097657,0.94922 -0.925781,0 -2.414062,-0.48047 -2.414062,-2.54297 0,-0.80859 0.28125,-2.63672 1.441406,-3.98437 0.75,-0.86719 1.863281,-1.45313 2.917969,-1.45313 1.40625,0 1.910156,1.21875 1.910156,2.3086 0,0.19921 -0.04687,0.45703 -0.04687,0.62109 0,0.11719 0.117188,0.11719 0.152344,0.11719 0.140625,0 0.152344,-0.0117 0.199219,-0.23438 z m 2.34375,6.98437 c -0.410157,0.70313 -0.820313,0.9375 -1.394532,0.97266 -0.128906,0.0117 -0.222656,0.0117 -0.222656,0.23437 0,0.0703 0.05859,0.11719 0.140625,0.11719 0.210938,0 0.75,-0.0234 0.972656,-0.0234 0.339844,0 0.726563,0.0234 1.054688,0.0234 0.07031,0 0.222656,0 0.222656,-0.22266 0,-0.11718 -0.09375,-0.1289 -0.175781,-0.1289 -0.269531,-0.0234 -0.492188,-0.11719 -0.492188,-0.39844 0,-0.17578 0.07031,-0.30469 0.222657,-0.5625 l 0.902343,-1.51172 h 3.058594 c 0.01172,0.10547 0.01172,0.21094 0.02344,0.31641 0.03516,0.30469 0.175781,1.54687 0.175781,1.78125 0,0.35156 -0.609375,0.375 -0.796875,0.375 -0.140625,0 -0.269531,0 -0.269531,0.22265 0,0.12891 0.105468,0.12891 0.175781,0.12891 0.210937,0 0.445312,-0.0234 0.65625,-0.0234 h 0.679687 c 0.726563,0 1.253907,0.0234 1.265625,0.0234 0.08203,0 0.210938,0 0.210938,-0.22266 0,-0.1289 -0.105469,-0.1289 -0.28125,-0.1289 -0.65625,0 -0.667969,-0.10547 -0.714844,-0.45703 l -0.726562,-7.46485 c -0.02344,-0.23437 -0.07031,-0.25781 -0.199219,-0.25781 -0.117188,0 -0.1875,0.0234 -0.304688,0.19922 z m 1.441406,-1.83984 2.402344,-4.01953 0.410156,4.01953 z m 0,0"
         style="fill:#000000;fill-opacity:1;fill-rule:nonzero;stroke:none" />
      <path
         id="path7"
         d="m 3.7636406,122.93628 c -0.4101562,0.70313 -0.8203125,0.9375 -1.3945312,0.97266 -0.1289063,0.0117 -0.2226563,0.0117 -0.2226563,0.23437 0,0.0703 0.058594,0.11719 0.140625,0.11719 0.2109375,0 0.75,-0.0234 0.9726563,-0.0234 0.3398437,0 0.7265625,0.0234 1.0546875,0.0234 0.070312,0 0.2226562,0 0.2226562,-0.22266 0,-0.11718 -0.09375,-0.1289 -0.1757812,-0.1289 -0.2695313,-0.0234 -0.4921875,-0.11719 -0.4921875,-0.39844 0,-0.17578 0.070312,-0.30469 0.2226562,-0.5625 l 0.9023438,-1.51172 h 3.0585937 c 0.011719,0.10547 0.011719,0.21094 0.023437,0.31641 0.035156,0.30469 0.1757813,1.54687 0.1757813,1.78125 0,0.35156 -0.609375,0.375 -0.796875,0.375 -0.140625,0 -0.2695313,0 -0.2695313,0.22265 0,0.12891 0.1054688,0.12891 0.1757813,0.12891 0.2109375,0 0.4453125,-0.0234 0.65625,-0.0234 h 0.6796875 c 0.7265625,0 1.2539062,0.0234 1.265625,0.0234 0.082032,0 0.2109381,0 0.2109381,-0.22266 0,-0.1289 -0.105469,-0.1289 -0.2812506,-0.1289 -0.65625,0 -0.6679688,-0.10547 -0.7148438,-0.45703 l -0.7265625,-7.46485 c -0.023437,-0.23437 -0.070312,-0.25781 -0.1992187,-0.25781 -0.1171875,0 -0.1875,0.0234 -0.3046875,0.19922 z m 1.4414063,-1.83984 2.4023437,-4.01953 0.4101563,4.01953 z m 7.1806641,2.28515 c -0.105469,0.41016 -0.128906,0.52735 -0.960938,0.52735 -0.234375,0 -0.351562,0 -0.351562,0.22265 0,0.12891 0.07031,0.12891 0.304687,0.12891 h 3.796875 c 2.414063,0 4.769532,-2.49609 4.769532,-5.16797 0,-1.72265 -1.03125,-3 -2.742188,-3 h -3.832031 c -0.234375,0 -0.339844,0 -0.339844,0.23438 0,0.11718 0.105469,0.11718 0.292969,0.11718 0.726562,0 0.726562,0.0937 0.726562,0.22266 0,0.0234 0,0.0937 -0.04687,0.28125 z m 2.519531,-6.46875 c 0.117188,-0.44531 0.164063,-0.46875 0.621094,-0.46875 h 1.324219 c 1.113281,0 2.144531,0.60938 2.144531,2.26172 0,0.59766 -0.234375,2.67188 -1.394531,3.98438 -0.339844,0.39844 -1.242188,1.21875 -2.625,1.21875 H 13.61618 c -0.164063,0 -0.1875,0 -0.257813,-0.0117 -0.128906,-0.0117 -0.140625,-0.0352 -0.140625,-0.12891 0,-0.082 0.02344,-0.15234 0.04687,-0.25781 z m 0,0"
         style="fill:#000000;fill-opacity:1;fill-rule:nonzero;stroke:none" />
      <path
         id="path8"
         d="m 97.932586,116.91284 c 0.117187,-0.44531 0.164062,-0.46875 0.621094,-0.46875 h 1.55859 c 1.34766,0 1.34766,1.14844 1.34766,1.25391 0,0.97266 -0.96094,2.20313 -2.542969,2.20313 h -1.722656 z m 2.027344,3.08204 c 1.30078,-0.2461 2.48437,-1.14844 2.48437,-2.25 0,-0.92579 -0.83203,-1.65235 -2.17968,-1.65235 h -3.832034 c -0.234375,0 -0.339844,0 -0.339844,0.23438 0,0.11718 0.105469,0.11718 0.292969,0.11718 0.726562,0 0.726562,0.0937 0.726562,0.22266 0,0.0234 0,0.0937 -0.04687,0.28125 l -1.617187,6.43359 c -0.105469,0.41016 -0.128906,0.52735 -0.960938,0.52735 -0.234375,0 -0.351562,0 -0.351562,0.22265 0,0.12891 0.07031,0.12891 0.304687,0.12891 h 4.101563 c 1.828124,0 3.246084,-1.38281 3.246084,-2.58984 0,-0.98438 -0.86718,-1.58203 -1.828115,-1.67578 z m -1.699219,3.91406 h -1.617188 c -0.164062,0 -0.1875,0 -0.257812,-0.0117 -0.128906,-0.0117 -0.152344,-0.0352 -0.152344,-0.12891 0,-0.082 0.03516,-0.15234 0.05859,-0.25781 l 0.832031,-3.375 h 2.25 c 1.406252,0 1.406252,1.3125 1.406252,1.40625 0,1.14844 -1.042971,2.36719 -2.519533,2.36719 z m 13.722659,-7.95703 c 0,-0.10547 -0.082,-0.10547 -0.10547,-0.10547 -0.0234,0 -0.0703,0 -0.17578,0.11719 l -0.82032,1.00781 c -0.42187,-0.71485 -1.07812,-1.125 -1.96875,-1.125 -2.58984,0 -5.26171,2.61328 -5.26171,5.42578 0,1.99219 1.39453,3.23437 3.14062,3.23437 0.96094,0 1.79297,-0.39843 2.48438,-0.98437 1.04296,-0.87891 1.35937,-2.03906 1.35937,-2.13281 0,-0.10547 -0.0937,-0.10547 -0.14062,-0.10547 -0.10547,0 -0.11719,0.0703 -0.14063,0.11719 -0.55078,1.86328 -2.15625,2.76562 -3.35156,2.76562 -1.27735,0 -2.36719,-0.82031 -2.36719,-2.50781 0,-0.38672 0.11719,-2.46094 1.46484,-4.03125 0.65625,-0.76172 1.78125,-1.44141 2.91797,-1.44141 1.3125,0 1.89844,1.08985 1.89844,2.3086 0,0.3164 -0.0352,0.57421 -0.0352,0.62109 0,0.11719 0.11719,0.11719 0.15235,0.11719 0.14062,0 0.15234,-0.0117 0.19922,-0.23438 z m 0,0"
         style="fill:#000000;fill-opacity:1;fill-rule:nonzero;stroke:none" />
      <path
         id="path9"
         d="m 175.18259,120.46363 h 2.0039 c 1.65235,0 3.30469,-1.21875 3.30469,-2.58985 0,-0.92578 -0.79688,-1.78125 -2.29688,-1.78125 h -3.6914 c -0.23438,0 -0.33985,0 -0.33985,0.23438 0,0.11718 0.10547,0.11718 0.29297,0.11718 0.72657,0 0.72657,0.0937 0.72657,0.22266 0,0.0234 0,0.0937 -0.0469,0.28125 l -1.61719,6.43359 c -0.10547,0.41016 -0.1289,0.52735 -0.96093,0.52735 -0.23438,0 -0.35157,0 -0.35157,0.22265 0,0.12891 0.10547,0.12891 0.17578,0.12891 0.23438,0 0.46875,-0.0234 0.69141,-0.0234 h 1.40625 c 0.22266,0 0.48047,0.0234 0.70313,0.0234 0.0937,0 0.22265,0 0.22265,-0.22266 0,-0.1289 -0.10547,-0.1289 -0.28125,-0.1289 -0.71484,0 -0.72656,-0.082 -0.72656,-0.19922 0,-0.0586 0.0117,-0.14063 0.0234,-0.19922 z m 0.85546,-3.55079 c 0.11719,-0.44531 0.16407,-0.46875 0.6211,-0.46875 h 1.18359 c 0.90235,0 1.64063,0.28125 1.64063,1.1836 0,0.30469 -0.15235,1.32422 -0.70313,1.875 -0.19922,0.21094 -0.77344,0.66797 -1.86328,0.66797 h -1.6875 z m 0,0"
         style="fill:#000000;fill-opacity:1;fill-rule:nonzero;stroke:none" />
      <path
         id="path10"
         d="m 228.30075,116.91284 c 0.11719,-0.44531 0.16406,-0.46875 0.62109,-0.46875 h 1.5586 c 1.34765,0 1.34765,1.14844 1.34765,1.25391 0,0.97266 -0.96093,2.20313 -2.54296,2.20313 h -1.72266 z m 2.02734,3.08204 c 1.30079,-0.2461 2.48438,-1.14844 2.48438,-2.25 0,-0.92579 -0.83203,-1.65235 -2.17969,-1.65235 h -3.83203 c -0.23437,0 -0.33984,0 -0.33984,0.23438 0,0.11718 0.10547,0.11718 0.29297,0.11718 0.72656,0 0.72656,0.0937 0.72656,0.22266 0,0.0234 0,0.0937 -0.0469,0.28125 l -1.61718,6.43359 c -0.10547,0.41016 -0.12891,0.52735 -0.96094,0.52735 -0.23438,0 -0.35156,0 -0.35156,0.22265 0,0.12891 0.0703,0.12891 0.30468,0.12891 h 4.10157 c 1.82812,0 3.24609,-1.38281 3.24609,-2.58984 0,-0.98438 -0.86719,-1.58203 -1.82813,-1.67578 z m -1.69921,3.91406 h -1.61719 c -0.16406,0 -0.1875,0 -0.25781,-0.0117 -0.12891,-0.0117 -0.15235,-0.0352 -0.15235,-0.12891 0,-0.082 0.0352,-0.15234 0.0586,-0.25781 l 0.83203,-3.375 h 2.25 c 1.40625,0 1.40625,1.3125 1.40625,1.40625 0,1.14844 -1.04297,2.36719 -2.51953,2.36719 z m 13.71093,-7.95703 c 0,-0.10547 -0.082,-0.10547 -0.10547,-0.10547 -0.0234,0 -0.0703,0 -0.17578,0.11719 l -0.82031,0.99609 c -0.0586,-0.0937 -0.29297,-0.51563 -0.76172,-0.79688 -0.51562,-0.3164 -1.03125,-0.3164 -1.20703,-0.3164 -2.55469,0 -5.25,2.60156 -5.25,5.42578 0,1.96875 1.35938,3.23437 3.15234,3.23437 0.86719,0 1.95704,-0.28125 2.55469,-1.03125 0.12891,0.44532 0.38672,0.77344 0.46875,0.77344 0.0586,0 0.0703,-0.0352 0.082,-0.0352 0.0234,-0.0234 0.11719,-0.44532 0.17578,-0.65625 l 0.1875,-0.76172 c 0.0937,-0.39844 0.14063,-0.5625 0.22266,-0.92578 0.12891,-0.45704 0.15234,-0.49219 0.80859,-0.50391 0.0469,0 0.1875,0 0.1875,-0.22266 0,-0.11718 -0.11718,-0.11718 -0.15234,-0.11718 -0.19922,0 -0.43359,0.0234 -0.64453,0.0234 h -0.64453 c -0.50391,0 -1.03125,-0.0234 -1.52344,-0.0234 -0.10547,0 -0.24609,0 -0.24609,0.21093 0,0.11719 0.0937,0.11719 0.0937,0.12891 h 0.29297 c 0.94921,0 0.94921,0.0937 0.94921,0.28125 0,0.0117 -0.22265,1.21875 -0.45703,1.57031 -0.45703,0.66797 -1.39453,0.94922 -2.09765,0.94922 -0.92578,0 -2.41407,-0.48047 -2.41407,-2.54297 0,-0.80859 0.28125,-2.63672 1.44141,-3.98437 0.75,-0.86719 1.86328,-1.45313 2.91797,-1.45313 1.40625,0 1.91016,1.21875 1.91016,2.3086 0,0.19921 -0.0469,0.45703 -0.0469,0.62109 0,0.11719 0.11719,0.11719 0.15234,0.11719 0.14063,0 0.15235,-0.0117 0.19922,-0.23438 z m 0,0"
         style="fill:#000000;fill-opacity:1;fill-rule:nonzero;stroke:none" />
      <path
         id="path11"
         d="m 324.59372,115.95191 c 0,-0.10547 -0.082,-0.10547 -0.10547,-0.10547 -0.0234,0 -0.0703,0 -0.17578,0.11719 l -0.82031,1.00781 c -0.42188,-0.71485 -1.07813,-1.125 -1.96875,-1.125 -2.58985,0 -5.26172,2.61328 -5.26172,5.42578 0,1.99219 1.39453,3.23437 3.14062,3.23437 0.96094,0 1.79297,-0.39843 2.48438,-0.98437 1.04297,-0.87891 1.35937,-2.03906 1.35937,-2.13281 0,-0.10547 -0.0937,-0.10547 -0.14062,-0.10547 -0.10547,0 -0.11719,0.0703 -0.14063,0.11719 -0.55078,1.86328 -2.15625,2.76562 -3.35156,2.76562 -1.27734,0 -2.36719,-0.82031 -2.36719,-2.50781 0,-0.38672 0.11719,-2.46094 1.46485,-4.03125 0.65625,-0.76172 1.78125,-1.44141 2.91797,-1.44141 1.3125,0 1.89843,1.08985 1.89843,2.3086 0,0.3164 -0.0351,0.57421 -0.0351,0.62109 0,0.11719 0.11718,0.11719 0.15234,0.11719 0.14063,0 0.15234,-0.0117 0.19922,-0.23438 z m 2.33496,6.98437 c -0.41016,0.70313 -0.82031,0.9375 -1.39453,0.97266 -0.12891,0.0117 -0.22266,0.0117 -0.22266,0.23437 0,0.0703 0.0586,0.11719 0.14063,0.11719 0.21093,0 0.75,-0.0234 0.97265,-0.0234 0.33985,0 0.72657,0.0234 1.05469,0.0234 0.0703,0 0.22266,0 0.22266,-0.22266 0,-0.11718 -0.0937,-0.1289 -0.17578,-0.1289 -0.26954,-0.0234 -0.49219,-0.11719 -0.49219,-0.39844 0,-0.17578 0.0703,-0.30469 0.22265,-0.5625 l 0.90235,-1.51172 h 3.05859 c 0.0117,0.10547 0.0117,0.21094 0.0234,0.31641 0.0352,0.30469 0.17578,1.54687 0.17578,1.78125 0,0.35156 -0.60937,0.375 -0.79687,0.375 -0.14063,0 -0.26954,0 -0.26954,0.22265 0,0.12891 0.10547,0.12891 0.17579,0.12891 0.21093,0 0.44531,-0.0234 0.65625,-0.0234 h 0.67968 c 0.72657,0 1.25391,0.0234 1.26563,0.0234 0.082,0 0.21094,0 0.21094,-0.22266 0,-0.1289 -0.10547,-0.1289 -0.28125,-0.1289 -0.65625,0 -0.66797,-0.10547 -0.71485,-0.45703 l -0.72656,-7.46485 c -0.0234,-0.23437 -0.0703,-0.25781 -0.19922,-0.25781 -0.11719,0 -0.1875,0.0234 -0.30469,0.19922 z m 1.44141,-1.83984 2.40234,-4.01953 0.41016,4.01953 z m 0,0"
         style="fill:#000000;fill-opacity:1;fill-rule:nonzero;stroke:none" />
      <path
         id="path12"
         d="m -88.556672,131.35913 c 0.117188,-0.44531 0.164063,-0.46875 0.621094,-0.46875 h 0.867187 c 1.03125,0 1.792969,0.30469 1.792969,1.24219 0,0.60938 -0.316406,2.36719 -2.71875,2.36719 h -1.347656 z m 1.664063,3.28125 c 1.488281,-0.3164 2.648437,-1.27734 2.648437,-2.30859 0,-0.92578 -0.949219,-1.79297 -2.613281,-1.79297 h -3.234375 c -0.246094,0 -0.351563,0 -0.351563,0.23438 0,0.11718 0.08203,0.11718 0.316407,0.11718 0.714843,0 0.714843,0.0937 0.714843,0.22266 0,0.0234 0,0.0937 -0.04687,0.28125 l -1.617187,6.43359 c -0.105469,0.41016 -0.128906,0.52735 -0.949219,0.52735 -0.28125,0 -0.363281,0 -0.363281,0.23437 0,0.11719 0.128906,0.11719 0.164062,0.11719 0.222657,0 0.46875,-0.0234 0.691407,-0.0234 h 1.417968 c 0.210938,0 0.46875,0.0234 0.679688,0.0234 0.09375,0 0.222656,0 0.222656,-0.22266 0,-0.1289 -0.105469,-0.1289 -0.28125,-0.1289 -0.726562,0 -0.726562,-0.0937 -0.726562,-0.21094 0,-0.0117 0,-0.0937 0.02344,-0.1875 l 0.796875,-3.22266 h 1.429688 c 1.136718,0 1.359375,0.72657 1.359375,1.11328 0,0.1875 -0.128907,0.64454 -0.210938,0.96094 -0.128906,0.55078 -0.164062,0.67969 -0.164062,0.90235 0,0.85546 0.691406,1.24218 1.488281,1.24218 0.972656,0 1.394531,-1.18359 1.394531,-1.34765 0,-0.082 -0.05859,-0.11719 -0.128906,-0.11719 -0.105469,0 -0.128906,0.0703 -0.152344,0.16406 -0.28125,0.85547 -0.773437,1.06641 -1.066406,1.06641 -0.304688,0 -0.492188,-0.12891 -0.492188,-0.66797 0,-0.29297 0.140625,-1.37109 0.152344,-1.44141 0.05859,-0.43359 0.05859,-0.48047 0.05859,-0.57422 0,-0.8789 -0.703125,-1.2539 -1.160156,-1.39453 z m 0,0"
         style="fill:#000000;fill-opacity:1;fill-rule:nonzero;stroke:none" />
      <path
         id="path13"
         d="m 50.793914,130.3982 c 0,-0.10547 -0.08203,-0.10547 -0.105469,-0.10547 -0.02344,0 -0.07031,0 -0.175781,0.11718 l -0.820312,1.00782 c -0.421875,-0.71485 -1.078125,-1.125 -1.96875,-1.125 -2.589844,0 -5.261719,2.61328 -5.261719,5.42578 0,1.99219 1.394531,3.23437 3.140625,3.23437 0.960937,0 1.792969,-0.39843 2.484375,-0.98437 1.042969,-0.87891 1.359375,-2.03906 1.359375,-2.13281 0,-0.10547 -0.09375,-0.10547 -0.140625,-0.10547 -0.105469,0 -0.117188,0.0703 -0.140625,0.11718 -0.550781,1.86329 -2.15625,2.76563 -3.351563,2.76563 -1.277343,0 -2.367187,-0.82031 -2.367187,-2.50781 0,-0.38672 0.117187,-2.46094 1.464844,-4.03125 0.65625,-0.76172 1.78125,-1.44141 2.917968,-1.44141 1.3125,0 1.898438,1.08984 1.898438,2.30859 0,0.31641 -0.03516,0.57422 -0.03516,0.6211 0,0.11719 0.117187,0.11719 0.152343,0.11719 0.140625,0 0.152344,-0.0117 0.199219,-0.23438 z m 3.84375,4.51171 h 2.003906 c 1.652344,0 3.304688,-1.21875 3.304688,-2.58984 0,-0.92578 -0.796875,-1.78125 -2.296875,-1.78125 h -3.691406 c -0.234375,0 -0.339844,0 -0.339844,0.23438 0,0.11718 0.105469,0.11718 0.292969,0.11718 0.726562,0 0.726562,0.0937 0.726562,0.22266 0,0.0234 0,0.0937 -0.04687,0.28125 l -1.617187,6.43359 c -0.105469,0.41016 -0.128907,0.52735 -0.960938,0.52735 -0.234375,0 -0.351562,0 -0.351562,0.22265 0,0.12891 0.105468,0.12891 0.175781,0.12891 0.234375,0 0.46875,-0.0234 0.691406,-0.0234 h 1.40625 c 0.222656,0 0.480469,0.0234 0.703125,0.0234 0.09375,0 0.222656,0 0.222656,-0.22266 0,-0.1289 -0.105468,-0.1289 -0.28125,-0.1289 -0.714843,0 -0.726562,-0.082 -0.726562,-0.19922 0,-0.0586 0.01172,-0.14063 0.02344,-0.19922 z m 0.855469,-3.55078 c 0.117187,-0.44531 0.164062,-0.46875 0.621094,-0.46875 h 1.183593 c 0.902344,0 1.640625,0.28125 1.640625,1.1836 0,0.30468 -0.152343,1.32422 -0.703125,1.875 -0.199218,0.21093 -0.773437,0.66797 -1.863281,0.66797 h -1.6875 z m 0,0"
         style="fill:#000000;fill-opacity:1;fill-rule:nonzero;stroke:none" />
      <path
         id="path14"
         d="m 80.251922,130.3982 c 0,-0.10547 -0.08203,-0.10547 -0.105469,-0.10547 -0.02344,0 -0.07031,0 -0.175781,0.11718 l -0.820313,1.00782 c -0.421875,-0.71485 -1.078125,-1.125 -1.96875,-1.125 -2.589843,0 -5.261718,2.61328 -5.261718,5.42578 0,1.99219 1.394531,3.23437 3.140625,3.23437 0.960937,0 1.792968,-0.39843 2.484375,-0.98437 1.042968,-0.87891 1.359375,-2.03906 1.359375,-2.13281 0,-0.10547 -0.09375,-0.10547 -0.140625,-0.10547 -0.105469,0 -0.117188,0.0703 -0.140625,0.11718 -0.550782,1.86329 -2.15625,2.76563 -3.351563,2.76563 -1.277344,0 -2.367187,-0.82031 -2.367187,-2.50781 0,-0.38672 0.117187,-2.46094 1.464843,-4.03125 0.65625,-0.76172 1.78125,-1.44141 2.917969,-1.44141 1.3125,0 1.898438,1.08984 1.898438,2.30859 0,0.31641 -0.03516,0.57422 -0.03516,0.6211 0,0.11719 0.117188,0.11719 0.152344,0.11719 0.140625,0 0.152344,-0.0117 0.199219,-0.23438 z m 4.699219,0.96093 c 0.117187,-0.44531 0.164062,-0.46875 0.621093,-0.46875 h 0.867188 c 1.03125,0 1.792969,0.30469 1.792969,1.24219 0,0.60938 -0.316407,2.36719 -2.71875,2.36719 h -1.347657 z m 1.664062,3.28125 c 1.488281,-0.3164 2.648438,-1.27734 2.648438,-2.30859 0,-0.92578 -0.949219,-1.79297 -2.613282,-1.79297 h -3.234375 c -0.246093,0 -0.351562,0 -0.351562,0.23438 0,0.11718 0.08203,0.11718 0.316406,0.11718 0.714844,0 0.714844,0.0937 0.714844,0.22266 0,0.0234 0,0.0937 -0.04687,0.28125 l -1.617188,6.43359 c -0.105468,0.41016 -0.128906,0.52735 -0.949218,0.52735 -0.28125,0 -0.363282,0 -0.363282,0.23437 0,0.11719 0.128907,0.11719 0.164063,0.11719 0.222656,0 0.46875,-0.0234 0.691406,-0.0234 h 1.417969 c 0.210937,0 0.46875,0.0234 0.679687,0.0234 0.09375,0 0.222657,0 0.222657,-0.22266 0,-0.1289 -0.105469,-0.1289 -0.28125,-0.1289 -0.726563,0 -0.726563,-0.0937 -0.726563,-0.21094 0,-0.0117 0,-0.0937 0.02344,-0.1875 l 0.796875,-3.22266 h 1.429687 c 1.136719,0 1.359375,0.72657 1.359375,1.11328 0,0.1875 -0.128906,0.64454 -0.210937,0.96094 -0.128907,0.55078 -0.164063,0.67969 -0.164063,0.90235 0,0.85546 0.691406,1.24218 1.488281,1.24218 0.972657,0 1.394532,-1.18359 1.394532,-1.34765 0,-0.082 -0.05859,-0.11719 -0.128907,-0.11719 -0.105468,0 -0.128906,0.0703 -0.152343,0.16406 -0.28125,0.85547 -0.773438,1.06641 -1.066407,1.06641 -0.304687,0 -0.492187,-0.12891 -0.492187,-0.66797 0,-0.29297 0.140625,-1.37109 0.152344,-1.44141 0.05859,-0.43359 0.05859,-0.48047 0.05859,-0.57422 0,-0.8789 -0.703125,-1.2539 -1.160156,-1.39453 z m 0,0"
         style="fill:#000000;fill-opacity:1;fill-rule:nonzero;stroke:none" />
      <path
         id="path15"
         d="m 48.596648,202.99878 c 0,-0.26953 0,-0.28125 -0.246093,-0.28125 -0.28125,0.31641 -0.878907,0.76172 -2.109375,0.76172 v 0.35156 c 0.269531,0 0.867187,0 1.523437,-0.3164 v 6.22265 c 0,0.4336 -0.03516,0.57422 -1.078125,0.57422 h -0.375 v 0.35156 c 0.316406,-0.0234 1.476563,-0.0234 1.875,-0.0234 0.398438,0 1.546875,0 1.863281,0.0234 v -0.35156 h -0.363281 c -1.054687,0 -1.089844,-0.14062 -1.089844,-0.57422 z m 3.94043,0.82031 c 0.503906,0.16407 0.925781,0.17579 1.054688,0.17579 1.359375,0 2.214843,-0.9961 2.214843,-1.16016 0,-0.0469 -0.02344,-0.10547 -0.09375,-0.10547 -0.02344,0 -0.04687,0 -0.152343,0.0469 -0.667969,0.28125 -1.242188,0.3164 -1.558594,0.3164 -0.785156,0 -1.347656,-0.23437 -1.582031,-0.32812 -0.08203,-0.0352 -0.105469,-0.0352 -0.117188,-0.0352 -0.09375,0 -0.09375,0.0703 -0.09375,0.25781 v 3.55078 c 0,0.21094 0,0.29297 0.140625,0.29297 0.05859,0 0.07031,-0.0117 0.199219,-0.16406 0.328125,-0.49219 0.890625,-0.77344 1.488281,-0.77344 0.632813,0 0.949219,0.58594 1.042969,0.78516 0.199219,0.46875 0.210937,1.05469 0.210937,1.51172 0,0.45703 0,1.13672 -0.328125,1.67578 -0.269531,0.42187 -0.738281,0.72656 -1.253906,0.72656 -0.796875,0 -1.570312,-0.53906 -1.78125,-1.40625 0.05859,0.0234 0.128906,0.0352 0.1875,0.0352 0.199219,0 0.527344,-0.12891 0.527344,-0.52735 0,-0.33984 -0.234375,-0.52734 -0.527344,-0.52734 -0.210937,0 -0.527344,0.10547 -0.527344,0.57422 0,1.00781 0.808594,2.16797 2.144532,2.16797 1.347656,0 2.53125,-1.125 2.53125,-2.64844 0,-1.41797 -0.960938,-2.60156 -2.214844,-2.60156 -0.679688,0 -1.207031,0.29297 -1.511719,0.63281 z m 6.521485,2.55469 c -0.210938,0.0117 -0.257813,0.0234 -0.257813,0.12891 0,0.11719 0.05859,0.11719 0.28125,0.11719 h 0.550781 c 1.007813,0 1.464844,0.84375 1.464844,1.99218 0,1.5586 -0.808594,1.98047 -1.394531,1.98047 -0.574219,0 -1.558594,-0.28125 -1.898438,-1.0664 0.375,0.0586 0.726563,-0.15235 0.726563,-0.58594 0,-0.33985 -0.257813,-0.58594 -0.585938,-0.58594 -0.292968,0 -0.597656,0.16406 -0.597656,0.62109 0,1.06641 1.066406,1.9336 2.390625,1.9336 1.417969,0 2.472656,-1.07813 2.472656,-2.28516 0,-1.10156 -0.890625,-1.96875 -2.027343,-2.16797 1.03125,-0.30468 1.699218,-1.17187 1.699218,-2.10937 0,-0.9375 -0.972656,-1.62891 -2.132812,-1.62891 -1.195313,0 -2.085938,0.72656 -2.085938,1.59375 0,0.48047 0.375,0.57422 0.550782,0.57422 0.257812,0 0.539062,-0.17578 0.539062,-0.53906 0,-0.375 -0.28125,-0.53906 -0.550781,-0.53906 -0.07031,0 -0.09375,0 -0.128906,0.0117 0.457031,-0.82031 1.582031,-0.82031 1.640625,-0.82031 0.386718,0 1.171875,0.17578 1.171875,1.34766 0,0.23437 -0.03516,0.90234 -0.386719,1.41797 -0.351563,0.52734 -0.761719,0.5625 -1.089844,0.57422 z m 8.021484,0.8086 c 0,2.82421 -1.253906,3.41015 -1.96875,3.41015 -0.28125,0 -0.925781,-0.0352 -1.21875,-0.45703 h 0.07031 c 0.08203,0.0234 0.515625,-0.0469 0.515625,-0.49219 0,-0.25781 -0.175781,-0.49218 -0.492187,-0.49218 -0.304688,0 -0.503906,0.21093 -0.503906,0.51562 0,0.75 0.597656,1.24219 1.640625,1.24219 1.5,0 2.941406,-1.58203 2.941406,-4.1836 0,-3.21093 -1.335938,-4.00781 -2.390625,-4.00781 -1.3125,0 -2.472656,1.10156 -2.472656,2.67188 0,1.58203 1.113281,2.66015 2.308593,2.66015 0.878907,0 1.335938,-0.64453 1.570313,-1.2539 z m -1.523438,0.62109 c -0.75,0 -1.078125,-0.60938 -1.183593,-0.83203 -0.199219,-0.45703 -0.199219,-1.03125 -0.199219,-1.57031 0,-0.66797 0,-1.24219 0.316406,-1.73438 0.210938,-0.31641 0.539063,-0.66797 1.183594,-0.66797 0.679687,0 1.03125,0.59766 1.148437,0.87891 0.234375,0.58594 0.234375,1.59375 0.234375,1.78125 0,0.99609 -0.445312,2.14453 -1.5,2.14453 z m 0,0"
         style="fill:#000000;fill-opacity:1;fill-rule:nonzero;stroke:none" />
      <path
         id="path16"
         d="m -73.082062,266.1687 h -0.269532 c -0.03516,0.19922 -0.128906,0.85547 -0.246093,1.04297 -0.08203,0.11719 -0.761719,0.11719 -1.125,0.11719 h -2.214844 c 0.328125,-0.28125 1.054687,-1.04297 1.371094,-1.33594 1.816406,-1.66406 2.484375,-2.28515 2.484375,-3.46875 0,-1.38281 -1.089844,-2.29687 -2.472657,-2.29687 -1.394531,0 -2.203125,1.18359 -2.203125,2.20312 0,0.60938 0.527344,0.60938 0.5625,0.60938 0.246094,0 0.5625,-0.17578 0.5625,-0.5625 0,-0.32813 -0.234375,-0.55078 -0.5625,-0.55078 -0.105468,0 -0.128906,0 -0.164062,0.0117 0.222656,-0.82031 0.867187,-1.37109 1.640625,-1.37109 1.019531,0 1.640625,0.85547 1.640625,1.95703 0,1.00781 -0.585938,1.89844 -1.265625,2.66016 l -2.414063,2.70703 v 0.28125 h 4.359375 z m 5.947265,-1.8164 c 0,-0.9961 -0.05859,-1.96875 -0.492187,-2.8711 -0.492188,-0.99609 -1.347657,-1.2539 -1.933594,-1.2539 -0.691406,0 -1.546875,0.33984 -1.980469,1.33593 -0.339844,0.75 -0.457031,1.48829 -0.457031,2.78907 0,1.16015 0.08203,2.02734 0.515625,2.87109 0.457031,0.91406 1.289062,1.19531 1.910156,1.19531 1.042969,0 1.640625,-0.62109 1.980469,-1.3125 0.433594,-0.89062 0.457031,-2.0625 0.457031,-2.7539 z m -2.4375,3.83203 c -0.386719,0 -1.160156,-0.21094 -1.382812,-1.52344 -0.140625,-0.71484 -0.140625,-1.61719 -0.140625,-2.46094 0,-0.97265 0,-1.86328 0.199218,-2.5664 0.199219,-0.79688 0.808594,-1.17188 1.324219,-1.17188 0.457031,0 1.148438,0.28125 1.371094,1.30078 0.152344,0.67969 0.152344,1.62891 0.152344,2.4375 0,0.8086 0,1.71094 -0.128907,2.4375 -0.222656,1.32422 -0.972656,1.54688 -1.394531,1.54688 z m 6.38086,-7.67578 c 0,-0.26953 0,-0.28125 -0.246094,-0.28125 -0.28125,0.3164 -0.878906,0.76172 -2.109375,0.76172 v 0.35156 c 0.269531,0 0.867187,0 1.523437,-0.31641 v 6.22266 c 0,0.43359 -0.03516,0.57422 -1.078125,0.57422 h -0.375 v 0.35156 c 0.316407,-0.0234 1.476563,-0.0234 1.875,-0.0234 0.398438,0 1.546875,0 1.863282,0.0234 v -0.35156 h -0.363282 c -1.054687,0 -1.089843,-0.14063 -1.089843,-0.57422 z m 8.091796,0.24609 v -0.28125 h -2.882812 c -1.453125,0 -1.476563,-0.15234 -1.523438,-0.38672 h -0.257812 l -0.375,2.39063 h 0.269531 c 0.03516,-0.21094 0.140625,-0.94922 0.292969,-1.07813 0.09375,-0.0703 0.996094,-0.0703 1.160156,-0.0703 h 2.53125 l -1.265625,1.81641 c -0.316406,0.45703 -1.523437,2.42578 -1.523437,4.66406 0,0.14062 0,0.60937 0.480468,0.60937 0.503907,0 0.503907,-0.45703 0.503907,-0.62109 v -0.59766 c 0,-1.78125 0.292968,-3.16406 0.855468,-3.96093 z m 0,0"
         style="fill:#000000;fill-opacity:1;fill-rule:nonzero;stroke:none" />
      <path
         id="path17"
         d="m 236.04977,263.88355 c -0.21093,0.0117 -0.25781,0.0234 -0.25781,0.1289 0,0.11719 0.0586,0.11719 0.28125,0.11719 h 0.55078 c 1.00781,0 1.46485,0.84375 1.46485,1.99219 0,1.55859 -0.8086,1.98047 -1.39454,1.98047 -0.57421,0 -1.55859,-0.28125 -1.89843,-1.06641 0.375,0.0586 0.72656,-0.15234 0.72656,-0.58594 0,-0.33984 -0.25781,-0.58593 -0.58594,-0.58593 -0.29297,0 -0.59765,0.16406 -0.59765,0.62109 0,1.06641 1.0664,1.93359 2.39062,1.93359 1.41797,0 2.47266,-1.07812 2.47266,-2.28515 0,-1.10157 -0.89063,-1.96875 -2.02735,-2.16797 1.03125,-0.30469 1.69922,-1.17188 1.69922,-2.10938 0,-0.9375 -0.97265,-1.6289 -2.13281,-1.6289 -1.19531,0 -2.08594,0.72656 -2.08594,1.59375 0,0.48047 0.375,0.57422 0.55078,0.57422 0.25782,0 0.53907,-0.17579 0.53907,-0.53907 0,-0.375 -0.28125,-0.53906 -0.55079,-0.53906 -0.0703,0 -0.0937,0 -0.1289,0.0117 0.45703,-0.82031 1.58203,-0.82031 1.64062,-0.82031 0.38672,0 1.17188,0.17578 1.17188,1.34765 0,0.23438 -0.0352,0.90235 -0.38672,1.41797 -0.35156,0.52735 -0.76172,0.5625 -1.08984,0.57422 z m 0,0"
         style="fill:#000000;fill-opacity:1;fill-rule:nonzero;stroke:none" />
      <path
         id="path18"
         d="m 249.15427,263.88355 c -0.21094,0.0117 -0.25782,0.0234 -0.25782,0.1289 0,0.11719 0.0586,0.11719 0.28125,0.11719 h 0.55078 c 1.00782,0 1.46485,0.84375 1.46485,1.99219 0,1.55859 -0.8086,1.98047 -1.39453,1.98047 -0.57422,0 -1.5586,-0.28125 -1.89844,-1.06641 0.375,0.0586 0.72656,-0.15234 0.72656,-0.58594 0,-0.33984 -0.25781,-0.58593 -0.58594,-0.58593 -0.29296,0 -0.59765,0.16406 -0.59765,0.62109 0,1.06641 1.0664,1.93359 2.39062,1.93359 1.41797,0 2.47266,-1.07812 2.47266,-2.28515 0,-1.10157 -0.89063,-1.96875 -2.02734,-2.16797 1.03125,-0.30469 1.69921,-1.17188 1.69921,-2.10938 0,-0.9375 -0.97265,-1.6289 -2.13281,-1.6289 -1.19531,0 -2.08594,0.72656 -2.08594,1.59375 0,0.48047 0.375,0.57422 0.55079,0.57422 0.25781,0 0.53906,-0.17579 0.53906,-0.53907 0,-0.375 -0.28125,-0.53906 -0.55078,-0.53906 -0.0703,0 -0.0937,0 -0.12891,0.0117 0.45703,-0.82031 1.58203,-0.82031 1.64063,-0.82031 0.38671,0 1.17187,0.17578 1.17187,1.34765 0,0.23438 -0.0352,0.90235 -0.38672,1.41797 -0.35156,0.52735 -0.76172,0.5625 -1.08984,0.57422 z m 5.11523,0.1289 c 0,-3.02343 1.47656,-3.5039 2.12109,-3.5039 0.4336,0 0.85547,0.1289 1.08985,0.49218 -0.14063,0 -0.59766,0 -0.59766,0.49219 0,0.25781 0.17578,0.49219 0.49219,0.49219 0.29297,0 0.49219,-0.1875 0.49219,-0.52734 0,-0.6211 -0.44532,-1.23047 -1.48828,-1.23047 -1.51172,0 -3.08204,1.53515 -3.08204,4.17187 0,3.28125 1.42969,4.01953 2.44922,4.01953 1.30078,0 2.41407,-1.125 2.41407,-2.68359 0,-1.59375 -1.11329,-2.66016 -2.3086,-2.66016 -1.0664,0 -1.45312,0.92578 -1.58203,1.26563 z m 1.47656,4.08985 c -0.75,0 -1.11328,-0.66797 -1.21875,-0.92578 -0.10547,-0.30469 -0.22265,-0.89063 -0.22265,-1.73438 0,-0.9375 0.42187,-2.12109 1.5,-2.12109 0.65625,0 1.00781,0.44531 1.18359,0.84375 0.1875,0.44531 0.1875,1.04297 0.1875,1.55859 0,0.60938 0,1.14844 -0.22266,1.60547 -0.30468,0.57422 -0.72656,0.77344 -1.20703,0.77344 z m 0,0"
         style="fill:#000000;fill-opacity:1;fill-rule:nonzero;stroke:none" />
      <path
         id="path19"
         d="m 284.33981,264.01245 c 0,-3.02343 1.47657,-3.5039 2.1211,-3.5039 0.43359,0 0.85547,0.1289 1.08984,0.49218 -0.14062,0 -0.59766,0 -0.59766,0.49219 0,0.25781 0.17579,0.49219 0.49219,0.49219 0.29297,0 0.49219,-0.1875 0.49219,-0.52734 0,-0.6211 -0.44531,-1.23047 -1.48828,-1.23047 -1.51172,0 -3.08203,1.53515 -3.08203,4.17187 0,3.28125 1.42968,4.01953 2.44922,4.01953 1.30078,0 2.41406,-1.125 2.41406,-2.68359 0,-1.59375 -1.11328,-2.66016 -2.3086,-2.66016 -1.0664,0 -1.45312,0.92578 -1.58203,1.26563 z m 1.47657,4.08985 c -0.75,0 -1.11329,-0.66797 -1.21875,-0.92578 -0.10547,-0.30469 -0.22266,-0.89063 -0.22266,-1.73438 0,-0.9375 0.42187,-2.12109 1.5,-2.12109 0.65625,0 1.00781,0.44531 1.18359,0.84375 0.1875,0.44531 0.1875,1.04297 0.1875,1.55859 0,0.60938 0,1.14844 -0.22265,1.60547 -0.30469,0.57422 -0.72657,0.77344 -1.20703,0.77344 z m 7.2832,-3.41016 c 0,2.82422 -1.25391,3.41016 -1.96875,3.41016 -0.28125,0 -0.92578,-0.0352 -1.21875,-0.45703 h 0.0703 c 0.082,0.0234 0.51563,-0.0469 0.51563,-0.49219 0,-0.25781 -0.17579,-0.49219 -0.49219,-0.49219 -0.30469,0 -0.50391,0.21094 -0.50391,0.51563 0,0.75 0.59766,1.24218 1.64063,1.24218 1.5,0 2.9414,-1.58203 2.9414,-4.18359 0,-3.21094 -1.33593,-4.00781 -2.39062,-4.00781 -1.3125,0 -2.47266,1.10156 -2.47266,2.67187 0,1.58203 1.11328,2.66016 2.3086,2.66016 0.8789,0 1.33593,-0.64453 1.57031,-1.25391 z m -1.52344,0.62109 c -0.75,0 -1.07812,-0.60937 -1.18359,-0.83203 -0.19922,-0.45703 -0.19922,-1.03125 -0.19922,-1.57031 0,-0.66797 0,-1.24219 0.3164,-1.73437 0.21094,-0.31641 0.53907,-0.66797 1.1836,-0.66797 0.67969,0 1.03125,0.59765 1.14844,0.8789 0.23437,0.58594 0.23437,1.59375 0.23437,1.78125 0,0.9961 -0.44531,2.14453 -1.5,2.14453 z m 0,0"
         style="fill:#000000;fill-opacity:1;fill-rule:nonzero;stroke:none" />
      <path
         id="path20"
         d="m -54.534211,323.6814 h -0.269531 c -0.03516,0.19922 -0.128906,0.85547 -0.246094,1.04297 -0.08203,0.11718 -0.761719,0.11718 -1.125,0.11718 h -2.214844 c 0.328125,-0.28125 1.054688,-1.04296 1.371094,-1.33593 1.816406,-1.66407 2.484375,-2.28516 2.484375,-3.46875 0,-1.38282 -1.089844,-2.29688 -2.472656,-2.29688 -1.394531,0 -2.203125,1.1836 -2.203125,2.20313 0,0.60937 0.527344,0.60937 0.5625,0.60937 0.246094,0 0.5625,-0.17578 0.5625,-0.5625 0,-0.32812 -0.234375,-0.55078 -0.5625,-0.55078 -0.105469,0 -0.128906,0 -0.164063,0.0117 0.222657,-0.82031 0.867188,-1.37109 1.640625,-1.37109 1.019532,0 1.640625,0.85546 1.640625,1.95703 0,1.00781 -0.585937,1.89843 -1.265625,2.66015 l -2.414062,2.70703 v 0.28125 h 4.359375 z m 2.126953,-4.83985 c 0.503906,0.16407 0.925781,0.17579 1.054688,0.17579 1.359375,0 2.214843,-0.9961 2.214843,-1.16016 0,-0.0469 -0.02344,-0.10547 -0.09375,-0.10547 -0.02344,0 -0.04687,0 -0.152343,0.0469 -0.667969,0.28125 -1.242188,0.3164 -1.558594,0.3164 -0.785156,0 -1.347656,-0.23437 -1.582031,-0.32812 -0.08203,-0.0352 -0.105469,-0.0352 -0.117188,-0.0352 -0.09375,0 -0.09375,0.0703 -0.09375,0.25781 v 3.55078 c 0,0.21094 0,0.29297 0.140625,0.29297 0.05859,0 0.07031,-0.0117 0.199219,-0.16406 0.328125,-0.49219 0.890625,-0.77344 1.488281,-0.77344 0.632813,0 0.949219,0.58594 1.042969,0.78516 0.199219,0.46875 0.210937,1.05469 0.210937,1.51172 0,0.45703 0,1.13672 -0.328125,1.67578 -0.269531,0.42187 -0.738281,0.72656 -1.253906,0.72656 -0.796875,0 -1.570312,-0.53906 -1.78125,-1.40625 0.05859,0.0234 0.128906,0.0352 0.1875,0.0352 0.199219,0 0.527344,-0.12891 0.527344,-0.52735 0,-0.33984 -0.234375,-0.52734 -0.527344,-0.52734 -0.210937,0 -0.527344,0.10547 -0.527344,0.57422 0,1.00781 0.808594,2.16797 2.144532,2.16797 1.347656,0 2.53125,-1.125 2.53125,-2.64844 0,-1.41797 -0.960938,-2.60156 -2.214844,-2.60156 -0.679688,0 -1.207031,0.29297 -1.511719,0.63281 z m 5.783203,2.6836 c 0,-3.02344 1.476563,-3.50391 2.121094,-3.50391 0.433594,0 0.855469,0.12891 1.089844,0.49219 -0.140625,0 -0.597656,0 -0.597656,0.49219 0,0.25781 0.175781,0.49218 0.492187,0.49218 0.292969,0 0.492188,-0.1875 0.492188,-0.52734 0,-0.62109 -0.445313,-1.23047 -1.488282,-1.23047 -1.511718,0 -3.082031,1.53516 -3.082031,4.17188 0,3.28125 1.429688,4.01953 2.449219,4.01953 1.300781,0 2.414062,-1.125 2.414062,-2.6836 0,-1.59375 -1.113281,-2.66015 -2.308593,-2.66015 -1.066407,0 -1.453125,0.92578 -1.582032,1.26562 z m 1.476563,4.08984 c -0.75,0 -1.113281,-0.66797 -1.21875,-0.92578 -0.105469,-0.30469 -0.222656,-0.89062 -0.222656,-1.73437 0,-0.9375 0.421875,-2.1211 1.5,-2.1211 0.65625,0 1.007812,0.44531 1.183593,0.84375 0.1875,0.44531 0.1875,1.04297 0.1875,1.5586 0,0.60937 0,1.14843 -0.222656,1.60546 -0.304687,0.57422 -0.726562,0.77344 -1.207031,0.77344 z m 0,0"
         style="fill:#000000;fill-opacity:1;fill-rule:nonzero;stroke:none" />
      <path
         id="path21"
         d="m -39.097687,316.19019 c 0,-0.16406 0,-0.22266 -0.164063,-0.22266 -0.105469,0 -0.117187,0.0117 -0.199219,0.11719 l -2.542968,3.69141 v 0.25781 h 2.25 v 0.66797 c 0,0.29297 -0.02344,0.38672 -0.632813,0.38672 h -0.1875 v 0.25781 c 0.679688,-0.0234 0.691406,-0.0234 1.148438,-0.0234 0.457031,0 0.46875,0 1.148437,0.0234 v -0.25781 h -0.1875 c -0.609375,0 -0.632812,-0.0937 -0.632812,-0.38672 v -0.66797 h 0.84375 v -0.25781 h -0.84375 z m -0.597657,0.64453 v 2.94141 h -2.027343 z m 0,0"
         style="fill:#000000;fill-opacity:1;fill-rule:nonzero;stroke:none" />
      <path
         id="path22"
         d="m -30.07718,322.91968 h 3.304688 c 0.164062,0 0.375,0 0.375,-0.21094 0,-0.22265 -0.199219,-0.22265 -0.375,-0.22265 h -3.304688 v -3.30469 c 0,-0.16406 0,-0.38672 -0.210937,-0.38672 -0.234375,0 -0.234375,0.21094 -0.234375,0.38672 v 3.30469 h -3.292969 c -0.175781,0 -0.386719,0 -0.386719,0.21093 0,0.22266 0.199219,0.22266 0.386719,0.22266 h 3.292969 v 3.30469 c 0,0.16406 0,0.38672 0.222656,0.38672 0.222656,0 0.222656,-0.21094 0.222656,-0.38672 z m 10.549805,-1.54688 c 0.597656,-0.32812 1.464844,-0.8789 1.464844,-1.875 0,-1.04296 -0.996094,-1.75781 -2.097656,-1.75781 -1.183594,0 -2.121094,0.86719 -2.121094,1.95703 0,0.41016 0.128906,0.8086 0.457031,1.21875 0.128906,0.15235 0.140625,0.16407 0.984375,0.75 -1.160156,0.53907 -1.757812,1.34766 -1.757812,2.21485 0,1.26562 1.207031,2.05078 2.425781,2.05078 1.324219,0 2.4375,-0.97266 2.4375,-2.22656 0,-1.21875 -0.855469,-1.75782 -1.792969,-2.33204 z m -1.628906,-1.07812 c -0.152344,-0.10547 -0.632813,-0.42188 -0.632813,-1.00781 0,-0.77344 0.820313,-1.26563 1.617188,-1.26563 0.855469,0 1.628906,0.6211 1.628906,1.48828 0,0.72657 -0.527344,1.3125 -1.21875,1.6875 z m 0.5625,1.54687 1.453125,0.9375 c 0.304687,0.19922 0.855469,0.57422 0.855469,1.30079 0,0.91406 -0.914063,1.53515 -1.875,1.53515 -1.019532,0 -1.886719,-0.73828 -1.886719,-1.73437 0,-0.9375 0.679687,-1.6875 1.453125,-2.03907 z m 0,0"
         style="fill:#000000;fill-opacity:1;fill-rule:nonzero;stroke:none" />
      <path
         id="path23"
         d="m -14.104523,318.99097 c 0,1.94531 -0.925782,2.28516 -1.394532,2.28516 -0.164062,0 -0.574218,-0.0234 -0.796875,-0.26954 0.351563,-0.0352 0.375,-0.29296 0.375,-0.375 0,-0.24609 -0.175781,-0.375 -0.375,-0.375 -0.140625,0 -0.375,0.082 -0.375,0.38672 0,0.53907 0.445313,0.86719 1.183594,0.86719 1.089844,0 2.121094,-1.07812 2.121094,-2.78906 0,-2.07422 -0.914063,-2.67188 -1.734375,-2.67188 -0.9375,0 -1.78125,0.72657 -1.78125,1.76953 0,1.03125 0.773437,1.78125 1.675781,1.78125 0.5625,0 0.902344,-0.36328 1.101563,-0.76171 z m -1.078125,0.38672 c -0.363282,0 -0.597657,-0.16406 -0.773438,-0.45703 -0.175781,-0.30469 -0.175781,-0.67969 -0.175781,-1.08985 0,-0.46875 0,-0.80859 0.210937,-1.125 0.199219,-0.29297 0.457032,-0.45703 0.832032,-0.45703 0.527343,0 0.761718,0.52735 0.785156,0.57422 0.175781,0.38672 0.175781,1.00781 0.175781,1.17188 0,0.62109 -0.339844,1.38281 -1.054687,1.38281 z m 0,0"
         style="fill:#000000;fill-opacity:1;fill-rule:nonzero;stroke:none" />
      <path
         id="path24"
         d="m 99.913055,318.02124 c 0,-0.26953 0,-0.28125 -0.246094,-0.28125 -0.28125,0.31641 -0.878906,0.76172 -2.109375,0.76172 v 0.35156 c 0.269531,0 0.867187,0 1.523437,-0.3164 v 6.22265 c 0,0.4336 -0.03516,0.57422 -1.078125,0.57422 h -0.375 v 0.35156 c 0.316407,-0.0234 1.476563,-0.0234 1.875,-0.0234 0.398438,0 1.546872,0 1.863282,0.0234 v -0.35156 h -0.36328 c -1.054689,0 -1.089845,-0.14062 -1.089845,-0.57422 z m 5.853515,0 c 0,-0.26953 0,-0.28125 -0.24609,-0.28125 -0.28125,0.31641 -0.87891,0.76172 -2.10938,0.76172 v 0.35156 c 0.26953,0 0.86719,0 1.52344,-0.3164 v 6.22265 c 0,0.4336 -0.0352,0.57422 -1.07813,0.57422 h -0.375 v 0.35156 c 0.31641,-0.0234 1.47657,-0.0234 1.875,-0.0234 0.39844,0 1.54688,0 1.86329,0.0234 v -0.35156 h -0.36329 c -1.05468,0 -1.08984,-0.14062 -1.08984,-0.57422 z m 0,0"
         style="fill:#000000;fill-opacity:1;fill-rule:nonzero;stroke:none" />
      <path
         id="path25"
         d="m 271.46091,364.45972 c -0.21094,0.0117 -0.25782,0.0234 -0.25782,0.12891 0,0.11718 0.0586,0.11718 0.28125,0.11718 h 0.55079 c 1.00781,0 1.46484,0.84375 1.46484,1.99219 0,1.55859 -0.80859,1.98047 -1.39453,1.98047 -0.57422,0 -1.5586,-0.28125 -1.89844,-1.06641 0.375,0.0586 0.72656,-0.15234 0.72656,-0.58593 0,-0.33985 -0.25781,-0.58594 -0.58593,-0.58594 -0.29297,0 -0.59766,0.16406 -0.59766,0.62109 0,1.06641 1.06641,1.9336 2.39062,1.9336 1.41797,0 2.47266,-1.07813 2.47266,-2.28516 0,-1.10156 -0.89062,-1.96875 -2.02734,-2.16797 1.03125,-0.30469 1.69922,-1.17187 1.69922,-2.10937 0,-0.9375 -0.97266,-1.62891 -2.13282,-1.62891 -1.19531,0 -2.08593,0.72656 -2.08593,1.59375 0,0.48047 0.375,0.57422 0.55078,0.57422 0.25781,0 0.53906,-0.17578 0.53906,-0.53906 0,-0.375 -0.28125,-0.53907 -0.55078,-0.53907 -0.0703,0 -0.0937,0 -0.12891,0.0117 0.45703,-0.82031 1.58203,-0.82031 1.64063,-0.82031 0.38672,0 1.17187,0.17578 1.17187,1.34766 0,0.23437 -0.0352,0.90234 -0.38672,1.41796 -0.35156,0.52735 -0.76172,0.5625 -1.08984,0.57422 z m 7.96289,-3.49219 c 0,-0.22265 0,-0.29297 -0.16407,-0.29297 -0.0937,0 -0.1289,0 -0.22265,0.15235 l -3.59766,5.57812 v 0.35156 h 3.14063 v 1.07813 c 0,0.44531 -0.0234,0.5625 -0.90235,0.5625 h -0.23437 v 0.35156 c 0.26953,-0.0234 1.21875,-0.0234 1.55859,-0.0234 0.32813,0 1.28906,0 1.5586,0.0234 v -0.35156 h -0.23438 c -0.86719,0 -0.90234,-0.11719 -0.90234,-0.5625 v -1.07813 h 1.20703 v -0.35156 h -1.20703 z m -0.78516,0.9375 v 4.5 h -2.90625 z m 6.63867,-0.9375 c 0,-0.22265 0,-0.29297 -0.16406,-0.29297 -0.0937,0 -0.12891,0 -0.22266,0.15235 l -3.59765,5.57812 v 0.35156 h 3.14062 v 1.07813 c 0,0.44531 -0.0234,0.5625 -0.90234,0.5625 h -0.23438 v 0.35156 c 0.26954,-0.0234 1.21875,-0.0234 1.5586,-0.0234 0.32812,0 1.28906,0 1.55859,0.0234 v -0.35156 h -0.23437 c -0.86719,0 -0.90235,-0.11719 -0.90235,-0.5625 v -1.07813 h 1.20703 v -0.35156 h -1.20703 z m -0.78515,0.9375 v 4.5 h -2.90625 z m 5.88867,2.53125 c 0.59765,-0.32812 1.46484,-0.8789 1.46484,-1.875 0,-1.04297 -0.99609,-1.75781 -2.09765,-1.75781 -1.1836,0 -2.1211,0.86719 -2.1211,1.95703 0,0.41016 0.12891,0.80859 0.45703,1.21875 0.12891,0.15234 0.14063,0.16406 0.98438,0.75 -1.16016,0.53906 -1.75781,1.34766 -1.75781,2.21484 0,1.26563 1.20703,2.05079 2.42578,2.05079 1.32422,0 2.4375,-0.97266 2.4375,-2.22657 0,-1.21875 -0.85547,-1.75781 -1.79297,-2.33203 z m -1.62891,-1.07812 c -0.15234,-0.10547 -0.63281,-0.42188 -0.63281,-1.00782 0,-0.77343 0.82031,-1.26562 1.61719,-1.26562 0.85547,0 1.6289,0.62109 1.6289,1.48828 0,0.72656 -0.52734,1.3125 -1.21875,1.6875 z m 0.5625,1.54687 1.45313,0.9375 c 0.30468,0.19922 0.85547,0.57422 0.85547,1.30078 0,0.91407 -0.91407,1.53516 -1.875,1.53516 -1.01954,0 -1.88672,-0.73828 -1.88672,-1.73438 0,-0.9375 0.67968,-1.6875 1.45312,-2.03906 z m 6.80274,-3.82031 c 0,-0.26953 0,-0.28125 -0.2461,-0.28125 -0.28125,0.31641 -0.8789,0.76172 -2.10937,0.76172 v 0.35156 c 0.26953,0 0.86719,0 1.52344,-0.31641 v 6.22266 c 0,0.43359 -0.0352,0.57422 -1.07813,0.57422 h -0.375 v 0.35156 c 0.31641,-0.0234 1.47656,-0.0234 1.875,-0.0234 0.39844,0 1.54688,0 1.86328,0.0234 v -0.35156 H 297.207 c -1.05469,0 -1.08984,-0.14063 -1.08984,-0.57422 z m 0,0"
         style="fill:#000000;fill-opacity:1;fill-rule:nonzero;stroke:none" />
      <path
         id="path26"
         d="m 107.1318,375.41382 c 0,-0.22266 0,-0.29297 -0.16406,-0.29297 -0.0937,0 -0.1289,0 -0.22265,0.15235 l -3.59766,5.57812 v 0.35156 h 3.14062 v 1.07813 c 0,0.44531 -0.0234,0.5625 -0.90234,0.5625 h -0.23437 v 0.35156 c 0.26953,-0.0234 1.21875,-0.0234 1.55859,-0.0234 0.32812,0 1.28906,0 1.55859,0.0234 v -0.35156 h -0.23437 c -0.86719,0 -0.90235,-0.11719 -0.90235,-0.5625 v -1.07813 h 1.20704 v -0.35156 h -1.20704 z m -0.78515,0.9375 v 4.5 h -2.90625 z m 5.76855,-0.82031 c 0,-0.26953 0,-0.28125 -0.24609,-0.28125 -0.28125,0.3164 -0.87891,0.76172 -2.10938,0.76172 v 0.35156 c 0.26954,0 0.86719,0 1.52344,-0.31641 v 6.22266 c 0,0.43359 -0.0352,0.57422 -1.07812,0.57422 h -0.375 v 0.35156 c 0.3164,-0.0234 1.47656,-0.0234 1.875,-0.0234 0.39843,0 1.54687,0 1.86328,0.0234 v -0.35156 h -0.36328 c -1.05469,0 -1.08985,-0.14063 -1.08985,-0.57422 z m 0,0"
         style="fill:#000000;fill-opacity:1;fill-rule:nonzero;stroke:none" />
    </g>
  </g>
</svg>
