<?xml version="1.0" encoding="UTF-8" standalone="no"?>
<!-- Created with Inkscape (http://www.inkscape.org/) -->

<svg
   version="1.1"
   id="svg1"
   width="793.62665"
   height="1122.6667"
   viewBox="0 0 793.62665 1122.6667"
   sodipodi:docname="F1_M_PR_L2006_page15.pdf"
   xmlns:inkscape="http://www.inkscape.org/namespaces/inkscape"
   xmlns:sodipodi="http://sodipodi.sourceforge.net/DTD/sodipodi-0.dtd"
   xmlns="http://www.w3.org/2000/svg"
   xmlns:svg="http://www.w3.org/2000/svg">
  <defs
     id="defs1" />
  <sodipodi:namedview
     id="namedview1"
     pagecolor="#ffffff"
     bordercolor="#000000"
     borderopacity="0.25"
     inkscape:showpageshadow="2"
     inkscape:pageopacity="0.0"
     inkscape:pagecheckerboard="0"
     inkscape:deskcolor="#d1d1d1">
    <inkscape:page
       x="0"
       y="0"
       inkscape:label="1"
       id="page1"
       width="793.62665"
       height="1122.6667"
       margin="0"
       bleed="0" />
  </sodipodi:namedview>
  <g
     id="g1"
     inkscape:groupmode="layer"
     inkscape:label="1">
    <text
       id="text1"
       xml:space="preserve"
       transform="matrix(1.3333333,0,0,1.3333333,75.6,59.6796)"><tspan
         style="font-style:italic;font-variant:normal;font-weight:700;font-stretch:normal;font-size:10.02px;font-family:'Times New Roman';writing-mode:lr-tb;fill:#000000;fill-opacity:1;fill-rule:nonzero;stroke:none"
         x="0 5.04006 10.08012"
         y="0"
         sodipodi:role="line"
         id="tspan1">16 </tspan><tspan
         style="font-style:italic;font-variant:normal;font-weight:normal;font-stretch:normal;font-size:10.02px;font-family:'Times New Roman';writing-mode:lr-tb;fill:#000000;fill-opacity:1;fill-rule:nonzero;stroke:none"
         x="159.7198 165.85605 169.76785 174.79189 179.81592 184.83994 189.30286 191.82288 196.28578 201.30981 205.22162 210.24565 217.49413 220.25563 225.27966 227.79968 235.04816 240.07219 242.83369 247.87376 251.78557 256.8096 259.57111 264.61118 269.07407 271.59412 275.50592 278.02594 285.27441 290.29843 293.05994 297.50183 304.75027 309.77432 312.53583 316.99872 321.46164 324.22314"
         y="-0.12024"
         sodipodi:role="line"
         id="tspan2">Próbny egzamin maturalny z matematyki </tspan><tspan
         style="font-style:italic;font-variant:normal;font-weight:normal;font-stretch:normal;font-size:10.02px;font-family:'Times New Roman';writing-mode:lr-tb;fill:#000000;fill-opacity:1;fill-rule:nonzero;stroke:none"
         x="201.96011 208.09335 213.11438 217.02318 219.81976 224.84079 232.08624 234.60628 238.51508 243.5361 247.4449 251.3537 255.26251 259.72241 263.6312 267.54001 272.56104 277.58206"
         y="11.339634"
         sodipodi:role="line"
         id="tspan3">Poziom rozszerzony</tspan></text>
    <path
       id="path3"
       d="m 52.86,782.78 h 460.56 v 0.72003 H 52.86 Z"
       style="fill:#000000;fill-opacity:1;fill-rule:nonzero;stroke:none"
       transform="matrix(1.3333333,0,0,-1.3333333,0,1122.6667)" />
    <text
       id="text3"
       xml:space="preserve"
       transform="matrix(1.3333333,0,0,1.3333333,315.04,117.1996)"><tspan
         style="font-variant:normal;font-weight:700;font-stretch:normal;font-size:16.02px;font-family:'Times New Roman';writing-mode:lr-tb;fill:#000000;fill-opacity:1;fill-rule:nonzero;stroke:none"
         x="0 10.68534 22.25178 33.818218 45.384659 56.951099 69.414658 79.202881 85.434662 94.341782"
         y="0"
         sodipodi:role="line"
         id="tspan4">BRUDNOPIS </tspan></text>
  </g>
</svg>
