<?xml version="1.0" encoding="UTF-8" standalone="no"?>
<!-- Created with Inkscape (http://www.inkscape.org/) -->

<svg
   version="1.1"
   id="svg1"
   width="794.55066"
   height="1123.6533"
   viewBox="0 0 794.55066 1123.6533"
   sodipodi:docname="LigaMatematycznaMatuskiego_SP_Zestaw5_2013_2014_page0.pdf"
   xmlns:inkscape="http://www.inkscape.org/namespaces/inkscape"
   xmlns:sodipodi="http://sodipodi.sourceforge.net/DTD/sodipodi-0.dtd"
   xmlns="http://www.w3.org/2000/svg"
   xmlns:svg="http://www.w3.org/2000/svg">
  <defs
     id="defs1" />
  <sodipodi:namedview
     id="namedview1"
     pagecolor="#ffffff"
     bordercolor="#000000"
     borderopacity="0.25"
     inkscape:showpageshadow="2"
     inkscape:pageopacity="0.0"
     inkscape:pagecheckerboard="0"
     inkscape:deskcolor="#d1d1d1">
    <inkscape:page
       x="0"
       y="0"
       inkscape:label="1"
       id="page1"
       width="794.55066"
       height="1123.6533"
       margin="0"
       bleed="0" />
  </sodipodi:namedview>
  <g
     id="g1"
     inkscape:groupmode="layer"
     inkscape:label="1">
    <g
       id="g2"
       aria-label="LIGAMATEMATYCZNA&#10;im.ZdzisªawaMatuskiego&#10;FINA&#10;15kwietnia2014&#10;SZKOAPODSTAWOWA&#10;ZADANIE1.&#10;Znajd¹najmniejsz¡liczb¦naturaln¡wi¦ksz¡od2014imaj¡c¡tak¡sam¡sum¦cyfrjak2014.&#10;ZADANIE2.&#10;Sze±¢dziewczynekwa»¡cych18kg,19kg,20kg,23kg,38kgoraz42kgmapodzieli¢si¦na&#10;dwiegrupywtakisposób,abyª¡cznawagadziewczynekwka»dejgrupiebyªatakasama.Naile&#10;sposobówmo»nadokona¢takiegopodziaªu?&#10;ZADANIE3.&#10;WrodzinieWojtkas¡czteryosoby.Sumaichlatjestrówna100.Wojtekjestoczterylata&#10;starszyodAsi,atatajestosze±¢latstarszyodmamy.Asiapoprosiªazªot¡rybk¦,abycof-&#10;n¦ªaczasocaªkowit¡liczb¦latdotakiegomomentu,wktórymAsiabyªasze±¢razymªodsza&#10;odmamy.Zªotarybkazastanowiªasi¦icofn¦ªaczasopi¦¢lat.Ilelatmaj¡czªonkowierodziny&#10;pocofni¦ciuczasu?&#10;ZADANIE4.&#10;Obwódkwadratujestrówny32cm.rodkidwóchkolejnychbokówtegokwadratupoª¡czono&#10;zesob¡izwierzchoªkiemnienale»¡cymdotychboków.Obliczpoleotrzymanegowtensposób&#10;trójk¡ta.&#10;ZADANIE5.&#10;Adam,Bartek,CzarekiDareklubi¡miªosp¦dza¢czaswolny.Ka»dywybieraswojeulubione&#10;miejsceidocieratamwinnysposób.Odkryj,ktodok¡dwychodziijaksi¦tamdostaje,je»eli:&#10;•Barteknigdyniechodzidokinaizawszeje¹dzipoci¡giem;&#10;•Adamnieopuszcza»adnegokoncertuwlharmonii,aleniemaroweru;&#10;•Czarekjestbywalcemmuzeów.Udajesi¦tamnapiechot¦;&#10;•Jedenzkolegówsp¦dzawieczorywteatrze,ainnywsz¦dzieje¹dzisamochodem."
       transform="matrix(1.3333333,0,0,1.3333333,274.724,56.069333)">
      <path
         id="path2"
         d="m 106.1943,135.8064 h -0.26953 c -0.0352,0.19922 -0.1289,0.85547 -0.24609,1.04297 -0.082,0.11718 -0.76172,0.11718 -1.125,0.11718 h -2.21484 c 0.32812,-0.28125 1.05468,-1.04296 1.37109,-1.33593 1.81641,-1.66407 2.48437,-2.28516 2.48437,-3.46875 0,-1.38282 -1.08984,-2.29688 -2.47265,-2.29688 -1.39453,0 -2.20313,1.1836 -2.20313,2.20313 0,0.60937 0.52735,0.60937 0.5625,0.60937 0.2461,0 0.5625,-0.17578 0.5625,-0.5625 0,-0.32812 -0.23437,-0.55078 -0.5625,-0.55078 -0.10547,0 -0.1289,0 -0.16406,0.0117 0.22266,-0.82031 0.86719,-1.37109 1.64063,-1.37109 1.01953,0 1.64062,0.85546 1.64062,1.95703 0,1.00781 -0.58594,1.89843 -1.26562,2.66015 l -2.41407,2.70703 v 0.28125 h 4.35938 z m 5.94727,-1.81641 c 0,-0.99609 -0.0586,-1.96875 -0.49219,-2.87109 -0.49218,-0.9961 -1.34765,-1.25391 -1.93359,-1.25391 -0.69141,0 -1.54688,0.33985 -1.98047,1.33594 -0.33984,0.75 -0.45703,1.48828 -0.45703,2.78906 0,1.16016 0.082,2.02735 0.51562,2.8711 0.45704,0.91406 1.28907,1.19531 1.91016,1.19531 1.04297,0 1.64063,-0.6211 1.98047,-1.3125 0.43359,-0.89063 0.45703,-2.0625 0.45703,-2.75391 z m -2.4375,3.83203 c -0.38672,0 -1.16016,-0.21093 -1.38281,-1.52343 -0.14063,-0.71485 -0.14063,-1.61719 -0.14063,-2.46094 0,-0.97266 0,-1.86328 0.19922,-2.56641 0.19922,-0.79687 0.8086,-1.17187 1.32422,-1.17187 0.45703,0 1.14844,0.28125 1.37109,1.30078 0.15235,0.67969 0.15235,1.6289 0.15235,2.4375 0,0.80859 0,1.71094 -0.12891,2.4375 -0.22265,1.32422 -0.97265,1.54687 -1.39453,1.54687 z m 6.38086,-7.67578 c 0,-0.26953 0,-0.28125 -0.24609,-0.28125 -0.28125,0.31641 -0.87891,0.76172 -2.10938,0.76172 v 0.35156 c 0.26953,0 0.86719,0 1.52344,-0.3164 v 6.22265 c 0,0.4336 -0.0352,0.57422 -1.07813,0.57422 h -0.375 v 0.35156 c 0.31641,-0.0234 1.47657,-0.0234 1.875,-0.0234 0.39844,0 1.54688,0 1.86328,0.0234 v -0.35156 h -0.36328 c -1.05468,0 -1.08984,-0.14062 -1.08984,-0.57422 z m 6.7207,-0.11719 c 0,-0.22265 0,-0.29296 -0.16406,-0.29296 -0.0937,0 -0.12891,0 -0.22266,0.15234 l -3.59765,5.57812 v 0.35157 h 3.14062 v 1.07812 c 0,0.44531 -0.0234,0.5625 -0.90234,0.5625 h -0.23438 v 0.35156 c 0.26954,-0.0234 1.21875,-0.0234 1.5586,-0.0234 0.32812,0 1.28906,0 1.55859,0.0234 v -0.35156 h -0.23437 c -0.86719,0 -0.90235,-0.11719 -0.90235,-0.5625 v -1.07812 h 1.20703 v -0.35157 h -1.20703 z m -0.78515,0.9375 v 4.5 h -2.90625 z m 0,0"
         style="fill:#000000;fill-opacity:1;fill-rule:nonzero;stroke:none" />
      <path
         id="path3"
         d="m 309.83688,135.8064 h -0.26953 c -0.0351,0.19922 -0.1289,0.85547 -0.24609,1.04297 -0.082,0.11718 -0.76172,0.11718 -1.125,0.11718 h -2.21485 c 0.32813,-0.28125 1.05469,-1.04296 1.3711,-1.33593 1.8164,-1.66407 2.48437,-2.28516 2.48437,-3.46875 0,-1.38282 -1.08984,-2.29688 -2.47265,-2.29688 -1.39453,0 -2.20313,1.1836 -2.20313,2.20313 0,0.60937 0.52735,0.60937 0.5625,0.60937 0.2461,0 0.5625,-0.17578 0.5625,-0.5625 0,-0.32812 -0.23437,-0.55078 -0.5625,-0.55078 -0.10547,0 -0.1289,0 -0.16406,0.0117 0.22266,-0.82031 0.86719,-1.37109 1.64062,-1.37109 1.01954,0 1.64063,0.85546 1.64063,1.95703 0,1.00781 -0.58594,1.89843 -1.26563,2.66015 l -2.41406,2.70703 v 0.28125 h 4.35938 z m 5.94727,-1.81641 c 0,-0.99609 -0.0586,-1.96875 -0.49219,-2.87109 -0.49219,-0.9961 -1.34766,-1.25391 -1.93359,-1.25391 -0.69141,0 -1.54688,0.33985 -1.98047,1.33594 -0.33985,0.75 -0.45703,1.48828 -0.45703,2.78906 0,1.16016 0.082,2.02735 0.51562,2.8711 0.45703,0.91406 1.28906,1.19531 1.91016,1.19531 1.04297,0 1.64062,-0.6211 1.98047,-1.3125 0.43359,-0.89063 0.45703,-2.0625 0.45703,-2.75391 z m -2.4375,3.83203 c -0.38672,0 -1.16016,-0.21093 -1.38281,-1.52343 -0.14063,-0.71485 -0.14063,-1.61719 -0.14063,-2.46094 0,-0.97266 0,-1.86328 0.19922,-2.56641 0.19922,-0.79687 0.80859,-1.17187 1.32422,-1.17187 0.45703,0 1.14844,0.28125 1.37109,1.30078 0.15235,0.67969 0.15235,1.6289 0.15235,2.4375 0,0.80859 0,1.71094 -0.12891,2.4375 -0.22266,1.32422 -0.97266,1.54687 -1.39453,1.54687 z m 6.37793,-7.67578 c 0,-0.26953 0,-0.28125 -0.2461,-0.28125 -0.28125,0.31641 -0.8789,0.76172 -2.10937,0.76172 v 0.35156 c 0.26953,0 0.86719,0 1.52344,-0.3164 v 6.22265 c 0,0.4336 -0.0352,0.57422 -1.07813,0.57422 h -0.375 v 0.35156 c 0.31641,-0.0234 1.47656,-0.0234 1.875,-0.0234 0.39844,0 1.54688,0 1.86328,0.0234 v -0.35156 h -0.36328 c -1.05469,0 -1.08984,-0.14062 -1.08984,-0.57422 z m 6.7207,-0.11719 c 0,-0.22265 0,-0.29296 -0.16406,-0.29296 -0.0937,0 -0.12891,0 -0.22266,0.15234 l -3.59765,5.57812 v 0.35157 h 3.14062 v 1.07812 c 0,0.44531 -0.0234,0.5625 -0.90234,0.5625 h -0.23438 v 0.35156 c 0.26953,-0.0234 1.21875,-0.0234 1.5586,-0.0234 0.32812,0 1.28906,0 1.55859,0.0234 v -0.35156 h -0.23437 c -0.86719,0 -0.90235,-0.11719 -0.90235,-0.5625 v -1.07812 h 1.20703 v -0.35157 h -1.20703 z m -0.78515,0.9375 v 4.5 h -2.90625 z m 0,0"
         style="fill:#000000;fill-opacity:1;fill-rule:nonzero;stroke:none" />
      <path
         id="path4"
         d="m 5.3486016,176.10132 c 0,-0.26953 0,-0.28125 -0.2460938,-0.28125 -0.28125,0.31641 -0.8789062,0.76172 -2.109375,0.76172 v 0.35156 c 0.2695313,0 0.8671875,0 1.5234375,-0.3164 v 6.22265 c 0,0.4336 -0.035156,0.57422 -1.078125,0.57422 h -0.375 v 0.35156 c 0.3164063,-0.0234 1.4765625,-0.0234 1.875,-0.0234 0.3984375,0 1.546875,0 1.8632813,0.0234 v -0.35156 H 6.4384453 c -1.0546875,0 -1.0898437,-0.14062 -1.0898437,-0.57422 z m 5.9707034,3.35156 c 0.597656,-0.32812 1.464843,-0.8789 1.464843,-1.875 0,-1.04297 -0.996093,-1.75781 -2.097656,-1.75781 -1.1835936,0 -2.1210936,0.86719 -2.1210936,1.95703 0,0.41016 0.1289063,0.8086 0.4570313,1.21875 0.1289062,0.15235 0.140625,0.16406 0.9843753,0.75 -1.1601566,0.53906 -1.7578128,1.34766 -1.7578128,2.21485 0,1.26562 1.2070312,2.05078 2.4257808,2.05078 1.324219,0 2.4375,-0.97266 2.4375,-2.22657 0,-1.21875 -0.855468,-1.75781 -1.792968,-2.33203 z m -1.6289066,-1.07812 c -0.1523437,-0.10547 -0.6328125,-0.42188 -0.6328125,-1.00781 0,-0.77344 0.8203125,-1.26563 1.6171871,-1.26563 0.855469,0 1.628907,0.62109 1.628907,1.48828 0,0.72656 -0.527344,1.3125 -1.21875,1.6875 z m 0.5624996,1.54687 1.453125,0.9375 c 0.304688,0.19922 0.855469,0.57422 0.855469,1.30078 0,0.91407 -0.914062,1.53516 -1.875,1.53516 -1.0195311,0 -1.8867186,-0.73828 -1.8867186,-1.73437 0,-0.9375 0.6796875,-1.6875 1.4531246,-2.03907 z m 0,0"
         style="fill:#000000;fill-opacity:1;fill-rule:nonzero;stroke:none" />
      <path
         id="path5"
         d="m 41.011688,176.10132 c 0,-0.26953 0,-0.28125 -0.246094,-0.28125 -0.28125,0.31641 -0.878906,0.76172 -2.109375,0.76172 v 0.35156 c 0.269531,0 0.867187,0 1.523437,-0.3164 v 6.22265 c 0,0.4336 -0.03516,0.57422 -1.078125,0.57422 h -0.375 v 0.35156 c 0.316407,-0.0234 1.476563,-0.0234 1.875,-0.0234 0.398438,0 1.546875,0 1.863282,0.0234 v -0.35156 h -0.363282 c -1.054687,0 -1.089843,-0.14062 -1.089843,-0.57422 z m 6.776367,4.18359 c 0,2.82422 -1.253907,3.41016 -1.96875,3.41016 -0.28125,0 -0.925782,-0.0352 -1.21875,-0.45703 h 0.07031 c 0.08203,0.0234 0.515625,-0.0469 0.515625,-0.49219 0,-0.25781 -0.175781,-0.49219 -0.492187,-0.49219 -0.304688,0 -0.503907,0.21094 -0.503907,0.51563 0,0.75 0.597657,1.24219 1.640625,1.24219 1.5,0 2.941407,-1.58203 2.941407,-4.1836 0,-3.21093 -1.335938,-4.00781 -2.390625,-4.00781 -1.3125,0 -2.472657,1.10156 -2.472657,2.67188 0,1.58203 1.113282,2.66015 2.308594,2.66015 0.878906,0 1.335938,-0.64453 1.570313,-1.2539 z m -1.523438,0.6211 c -0.75,0 -1.078125,-0.60938 -1.183594,-0.83203 -0.199218,-0.45703 -0.199218,-1.03125 -0.199218,-1.57032 0,-0.66796 0,-1.24218 0.316406,-1.73437 0.210937,-0.31641 0.539062,-0.66797 1.183594,-0.66797 0.679687,0 1.03125,0.59766 1.148437,0.87891 0.234375,0.58593 0.234375,1.59375 0.234375,1.78125 0,0.99609 -0.445312,2.14453 -1.5,2.14453 z m 0,0"
         style="fill:#000000;fill-opacity:1;fill-rule:nonzero;stroke:none" />
      <path
         id="path6"
         d="m 78.48532,181.76148 h -0.269531 c -0.03516,0.19922 -0.128906,0.85547 -0.246094,1.04297 -0.08203,0.11718 -0.761718,0.11718 -1.125,0.11718 h -2.214843 c 0.328125,-0.28125 1.054687,-1.04297 1.371093,-1.33593 1.816407,-1.66407 2.484375,-2.28516 2.484375,-3.46875 0,-1.38282 -1.089843,-2.29688 -2.472656,-2.29688 -1.394531,0 -2.203125,1.18359 -2.203125,2.20313 0,0.60937 0.527344,0.60937 0.5625,0.60937 0.246094,0 0.5625,-0.17578 0.5625,-0.5625 0,-0.32812 -0.234375,-0.55078 -0.5625,-0.55078 -0.105469,0 -0.128906,0 -0.164062,0.0117 0.222656,-0.82031 0.867187,-1.3711 1.640625,-1.3711 1.019531,0 1.640625,0.85547 1.640625,1.95704 0,1.00781 -0.585938,1.89843 -1.265625,2.66015 l -2.414063,2.70703 v 0.28125 h 4.359375 z m 5.947266,-1.81641 c 0,-0.99609 -0.05859,-1.96875 -0.492188,-2.87109 -0.492187,-0.9961 -1.347656,-1.25391 -1.933593,-1.25391 -0.691407,0 -1.546875,0.33984 -1.980469,1.33594 -0.339844,0.75 -0.457031,1.48828 -0.457031,2.78906 0,1.16016 0.08203,2.02734 0.515625,2.87109 0.457031,0.91407 1.289062,1.19532 1.910156,1.19532 1.042969,0 1.640625,-0.6211 1.980469,-1.3125 0.433593,-0.89063 0.457031,-2.0625 0.457031,-2.75391 z m -2.4375,3.83203 c -0.386719,0 -1.160156,-0.21094 -1.382813,-1.52344 -0.140625,-0.71484 -0.140625,-1.61718 -0.140625,-2.46093 0,-0.97266 0,-1.86328 0.199219,-2.56641 0.199219,-0.79687 0.808594,-1.17187 1.324219,-1.17187 0.457031,0 1.148437,0.28125 1.371094,1.30078 0.152343,0.67968 0.152343,1.6289 0.152343,2.4375 0,0.80859 0,1.71093 -0.128906,2.4375 -0.222656,1.32422 -0.972656,1.54687 -1.394531,1.54687 z m 0,0"
         style="fill:#000000;fill-opacity:1;fill-rule:nonzero;stroke:none" />
      <path
         id="path7"
         d="m 114.14841,181.76148 h -0.26953 c -0.0352,0.19922 -0.12891,0.85547 -0.2461,1.04297 -0.082,0.11718 -0.76172,0.11718 -1.125,0.11718 h -2.21484 c 0.32812,-0.28125 1.05469,-1.04297 1.37109,-1.33593 1.81641,-1.66407 2.48438,-2.28516 2.48438,-3.46875 0,-1.38282 -1.08985,-2.29688 -2.47266,-2.29688 -1.39453,0 -2.20312,1.18359 -2.20312,2.20313 0,0.60937 0.52734,0.60937 0.5625,0.60937 0.24609,0 0.5625,-0.17578 0.5625,-0.5625 0,-0.32812 -0.23438,-0.55078 -0.5625,-0.55078 -0.10547,0 -0.12891,0 -0.16407,0.0117 0.22266,-0.82031 0.86719,-1.3711 1.64063,-1.3711 1.01953,0 1.64062,0.85547 1.64062,1.95704 0,1.00781 -0.58593,1.89843 -1.26562,2.66015 l -2.41406,2.70703 v 0.28125 h 4.35937 z m 2.79492,-2.28516 c -0.21094,0.0117 -0.25781,0.0234 -0.25781,0.12891 0,0.11718 0.0586,0.11718 0.28125,0.11718 h 0.55078 c 1.00781,0 1.46484,0.84375 1.46484,1.99219 0,1.5586 -0.80859,1.98047 -1.39453,1.98047 -0.57422,0 -1.55859,-0.28125 -1.89844,-1.06641 0.375,0.0586 0.72656,-0.15234 0.72656,-0.58593 0,-0.33985 -0.25781,-0.58594 -0.58593,-0.58594 -0.29297,0 -0.59766,0.16406 -0.59766,0.62109 0,1.06641 1.06641,1.9336 2.39063,1.9336 1.41796,0 2.47265,-1.07813 2.47265,-2.28516 0,-1.10156 -0.89062,-1.96875 -2.02734,-2.16797 1.03125,-0.30469 1.69922,-1.17187 1.69922,-2.10937 0,-0.9375 -0.97266,-1.62891 -2.13282,-1.62891 -1.19531,0 -2.08593,0.72656 -2.08593,1.59375 0,0.48047 0.375,0.57422 0.55078,0.57422 0.25781,0 0.53906,-0.17578 0.53906,-0.53906 0,-0.375 -0.28125,-0.53907 -0.55078,-0.53907 -0.0703,0 -0.0937,0 -0.12891,0.0117 0.45703,-0.82031 1.58203,-0.82031 1.64063,-0.82031 0.38672,0 1.17187,0.17578 1.17187,1.34766 0,0.23437 -0.0352,0.90234 -0.38672,1.41797 -0.35156,0.52734 -0.76171,0.5625 -1.08984,0.57421 z m 0,0"
         style="fill:#000000;fill-opacity:1;fill-rule:nonzero;stroke:none" />
      <path
         id="path8"
         d="m 146.74997,179.47632 c -0.21094,0.0117 -0.25781,0.0234 -0.25781,0.12891 0,0.11718 0.0586,0.11718 0.28125,0.11718 h 0.55078 c 1.00781,0 1.46484,0.84375 1.46484,1.99219 0,1.5586 -0.80859,1.98047 -1.39453,1.98047 -0.57422,0 -1.55859,-0.28125 -1.89844,-1.06641 0.375,0.0586 0.72657,-0.15234 0.72657,-0.58593 0,-0.33985 -0.25782,-0.58594 -0.58594,-0.58594 -0.29297,0 -0.59766,0.16406 -0.59766,0.62109 0,1.06641 1.06641,1.9336 2.39063,1.9336 1.41797,0 2.47265,-1.07813 2.47265,-2.28516 0,-1.10156 -0.89062,-1.96875 -2.02734,-2.16797 1.03125,-0.30469 1.69922,-1.17187 1.69922,-2.10937 0,-0.9375 -0.97266,-1.62891 -2.13281,-1.62891 -1.19532,0 -2.08594,0.72656 -2.08594,1.59375 0,0.48047 0.375,0.57422 0.55078,0.57422 0.25781,0 0.53906,-0.17578 0.53906,-0.53906 0,-0.375 -0.28125,-0.53907 -0.55078,-0.53907 -0.0703,0 -0.0937,0 -0.12891,0.0117 0.45704,-0.82031 1.58204,-0.82031 1.64063,-0.82031 0.38672,0 1.17187,0.17578 1.17187,1.34766 0,0.23437 -0.0352,0.90234 -0.38671,1.41797 -0.35157,0.52734 -0.76172,0.5625 -1.08985,0.57421 z m 7.21289,-0.0234 c 0.59766,-0.32812 1.46484,-0.8789 1.46484,-1.875 0,-1.04297 -0.99609,-1.75781 -2.09765,-1.75781 -1.1836,0 -2.1211,0.86719 -2.1211,1.95703 0,0.41016 0.12891,0.8086 0.45703,1.21875 0.12891,0.15235 0.14063,0.16406 0.98438,0.75 -1.16016,0.53906 -1.75781,1.34766 -1.75781,2.21485 0,1.26562 1.20703,2.05078 2.42578,2.05078 1.32422,0 2.4375,-0.97266 2.4375,-2.22657 0,-1.21875 -0.85547,-1.75781 -1.79297,-2.33203 z m -1.62891,-1.07812 c -0.15234,-0.10547 -0.63281,-0.42188 -0.63281,-1.00781 0,-0.77344 0.82031,-1.26563 1.61719,-1.26563 0.85547,0 1.6289,0.62109 1.6289,1.48828 0,0.72656 -0.52734,1.3125 -1.21875,1.6875 z m 0.5625,1.54687 1.45313,0.9375 c 0.30469,0.19922 0.85547,0.57422 0.85547,1.30078 0,0.91407 -0.91407,1.53516 -1.875,1.53516 -1.01953,0 -1.88672,-0.73828 -1.88672,-1.73437 0,-0.9375 0.67969,-1.6875 1.45312,-2.03907 z m 0,0"
         style="fill:#000000;fill-opacity:1;fill-rule:nonzero;stroke:none" />
      <path
         id="path9"
         d="m 206.91696,175.98413 c 0,-0.22265 0,-0.29297 -0.16406,-0.29297 -0.0937,0 -0.12891,0 -0.22266,0.15235 l -3.59765,5.57812 v 0.35157 h 3.14062 v 1.07812 c 0,0.44531 -0.0234,0.5625 -0.90234,0.5625 h -0.23438 v 0.35156 c 0.26953,-0.0234 1.21875,-0.0234 1.5586,-0.0234 0.32812,0 1.28906,0 1.55859,0.0234 v -0.35156 h -0.23438 c -0.86718,0 -0.90234,-0.11719 -0.90234,-0.5625 v -1.07812 h 1.20703 v -0.35157 h -1.20703 z m -0.78516,0.9375 v 4.5 h -2.90625 z m 7.5879,4.83985 h -0.26954 c -0.0352,0.19922 -0.1289,0.85547 -0.24609,1.04297 -0.082,0.11718 -0.76172,0.11718 -1.125,0.11718 h -2.21484 c 0.32812,-0.28125 1.05468,-1.04297 1.37109,-1.33593 1.81641,-1.66407 2.48438,-2.28516 2.48438,-3.46875 0,-1.38282 -1.08985,-2.29688 -2.47266,-2.29688 -1.39453,0 -2.20313,1.18359 -2.20313,2.20313 0,0.60937 0.52735,0.60937 0.5625,0.60937 0.2461,0 0.5625,-0.17578 0.5625,-0.5625 0,-0.32812 -0.23437,-0.55078 -0.5625,-0.55078 -0.10546,0 -0.1289,0 -0.16406,0.0117 0.22266,-0.82031 0.86719,-1.3711 1.64063,-1.3711 1.01953,0 1.64062,0.85547 1.64062,1.95704 0,1.00781 -0.58594,1.89843 -1.26562,2.66015 l -2.41407,2.70703 v 0.28125 h 4.35938 z m 0,0"
         style="fill:#000000;fill-opacity:1;fill-rule:nonzero;stroke:none" />
      <path
         id="path10"
         d="m 178.2822,253.83472 c 0,-0.26953 0,-0.28125 -0.2461,-0.28125 -0.28125,0.31641 -0.8789,0.76172 -2.10937,0.76172 v 0.35156 c 0.26953,0 0.86718,0 1.52343,-0.31641 v 6.22266 c 0,0.43359 -0.0352,0.57422 -1.07812,0.57422 h -0.375 v 0.35156 c 0.31641,-0.0234 1.47656,-0.0234 1.875,-0.0234 0.39844,0 1.54687,0 1.86328,0.0234 v -0.35156 h -0.36328 c -1.05469,0 -1.08984,-0.14063 -1.08984,-0.57422 z m 7.76367,3.84375 c 0,-0.99609 -0.0586,-1.96875 -0.49219,-2.87109 -0.49219,-0.9961 -1.34766,-1.25391 -1.93359,-1.25391 -0.69141,0 -1.54688,0.33984 -1.98047,1.33594 -0.33985,0.75 -0.45703,1.48828 -0.45703,2.78906 0,1.16016 0.082,2.02734 0.51562,2.87109 0.45703,0.91407 1.28906,1.19532 1.91016,1.19532 1.04297,0 1.64062,-0.6211 1.98047,-1.3125 0.43359,-0.89063 0.45703,-2.0625 0.45703,-2.75391 z m -2.4375,3.83203 c -0.38672,0 -1.16016,-0.21094 -1.38282,-1.52344 -0.14062,-0.71484 -0.14062,-1.61718 -0.14062,-2.46093 0,-0.97266 0,-1.86329 0.19922,-2.56641 0.19922,-0.79688 0.80859,-1.17188 1.32422,-1.17188 0.45703,0 1.14843,0.28125 1.37109,1.30079 0.15234,0.67968 0.15234,1.6289 0.15234,2.4375 0,0.80859 0,1.71093 -0.1289,2.4375 -0.22266,1.32421 -0.97266,1.54687 -1.39453,1.54687 z m 8.29101,-3.83203 c 0,-0.99609 -0.0586,-1.96875 -0.49218,-2.87109 -0.49219,-0.9961 -1.34766,-1.25391 -1.9336,-1.25391 -0.6914,0 -1.54687,0.33984 -1.98047,1.33594 -0.33984,0.75 -0.45703,1.48828 -0.45703,2.78906 0,1.16016 0.082,2.02734 0.51563,2.87109 0.45703,0.91407 1.28906,1.19532 1.91015,1.19532 1.04297,0 1.64063,-0.6211 1.98047,-1.3125 0.4336,-0.89063 0.45703,-2.0625 0.45703,-2.75391 z m -2.4375,3.83203 c -0.38672,0 -1.16015,-0.21094 -1.38281,-1.52344 -0.14062,-0.71484 -0.14062,-1.61718 -0.14062,-2.46093 0,-0.97266 0,-1.86329 0.19921,-2.56641 0.19922,-0.79688 0.8086,-1.17188 1.32422,-1.17188 0.45703,0 1.14844,0.28125 1.3711,1.30079 0.15234,0.67968 0.15234,1.6289 0.15234,2.4375 0,0.80859 0,1.71093 -0.12891,2.4375 -0.22265,1.32421 -0.97265,1.54687 -1.39453,1.54687 z m 0,0"
         style="fill:#000000;fill-opacity:1;fill-rule:nonzero;stroke:none" />
      <path
         id="path11"
         d="m 4.0126641,366.7273 c -0.2109375,0.0117 -0.2578125,0.0234 -0.2578125,0.1289 0,0.11719 0.058594,0.11719 0.28125,0.11719 h 0.5507812 c 1.0078125,0 1.4648438,0.84375 1.4648438,1.99219 0,1.55859 -0.8085938,1.98047 -1.3945313,1.98047 -0.5742187,0 -1.5585937,-0.28125 -1.8984375,-1.06641 0.375,0.0586 0.7265625,-0.15234 0.7265625,-0.58594 0,-0.33984 -0.2578125,-0.58593 -0.5859375,-0.58593 -0.2929687,0 -0.5976562,0.16406 -0.5976562,0.62109 0,1.06641 1.0664062,1.93359 2.390625,1.93359 1.4179687,0 2.4726562,-1.07812 2.4726562,-2.28515 0,-1.10157 -0.890625,-1.96875 -2.0273437,-2.16797 1.03125,-0.30469 1.6992187,-1.17188 1.6992187,-2.10938 0,-0.9375 -0.9726562,-1.6289 -2.1328125,-1.6289 -1.1953125,0 -2.0859375,0.72656 -2.0859375,1.59375 0,0.48047 0.375,0.57422 0.5507813,0.57422 0.2578125,0 0.5390625,-0.17579 0.5390625,-0.53907 0,-0.375 -0.28125,-0.53906 -0.5507813,-0.53906 -0.070312,0 -0.09375,0 -0.1289062,0.0117 0.4570312,-0.82031 1.5820312,-0.82031 1.640625,-0.82031 0.3867187,0 1.171875,0.17578 1.171875,1.34765 0,0.23438 -0.035156,0.90235 -0.3867188,1.41797 -0.3515625,0.52735 -0.7617187,0.5625 -1.0898437,0.57422 z m 8.9121089,2.28515 h -0.269531 c -0.03516,0.19922 -0.128906,0.85547 -0.246094,1.04297 -0.08203,0.11719 -0.761718,0.11719 -1.125,0.11719 H 9.0693047 c 0.328125,-0.28125 1.0546873,-1.04297 1.3710933,-1.33594 1.816407,-1.66406 2.484375,-2.28515 2.484375,-3.46875 0,-1.38281 -1.089843,-2.29687 -2.472656,-2.29687 -1.3945311,0 -2.2031248,1.18359 -2.2031248,2.20312 0,0.60938 0.5273437,0.60938 0.5625,0.60938 0.2460937,0 0.5625,-0.17578 0.5625,-0.5625 0,-0.32813 -0.234375,-0.55078 -0.5625,-0.55078 -0.1054688,0 -0.1289063,0 -0.1640625,0.0117 0.2226562,-0.82031 0.8671875,-1.37109 1.6406253,-1.37109 1.019531,0 1.640625,0.85547 1.640625,1.95703 0,1.00781 -0.585938,1.89844 -1.265625,2.66016 l -2.4140628,2.70703 v 0.28125 h 4.3593748 z m 0,0"
         style="fill:#000000;fill-opacity:1;fill-rule:nonzero;stroke:none" />
      <path
         id="path12"
         d="m -125.47366,487.50659 c 0,-1.27734 -1.06641,-2.32031 -2.32032,-2.32031 -1.28906,0 -2.33203,1.06641 -2.33203,2.32031 0,1.26563 1.04297,2.32032 2.33203,2.32032 1.25391,0 2.32032,-1.04297 2.32032,-2.32032 z m 0,0"
         style="fill:#000000;fill-opacity:1;fill-rule:nonzero;stroke:none" />
      <path
         id="path13"
         d="m -125.47366,513.36109 c 0,-1.27735 -1.06641,-2.32032 -2.32032,-2.32032 -1.28906,0 -2.33203,1.06641 -2.33203,2.32032 0,1.26562 1.04297,2.32031 2.33203,2.32031 1.25391,0 2.32032,-1.04297 2.32032,-2.32031 z m 0,0"
         style="fill:#000000;fill-opacity:1;fill-rule:nonzero;stroke:none" />
      <path
         id="path14"
         d="m -125.47366,539.21265 c 0,-1.27735 -1.06641,-2.32031 -2.32032,-2.32031 -1.28906,0 -2.33203,1.0664 -2.33203,2.32031 0,1.26562 1.04297,2.32031 2.33203,2.32031 1.25391,0 2.32032,-1.04297 2.32032,-2.32031 z m 0,0"
         style="fill:#000000;fill-opacity:1;fill-rule:nonzero;stroke:none" />
      <path
         id="path15"
         d="m -125.47366,565.06714 c 0,-1.27734 -1.06641,-2.32031 -2.32032,-2.32031 -1.28906,0 -2.33203,1.0664 -2.33203,2.32031 0,1.26563 1.04297,2.32031 2.33203,2.32031 1.25391,0 2.32032,-1.04297 2.32032,-2.32031 z m 0,0"
         style="fill:#000000;fill-opacity:1;fill-rule:nonzero;stroke:none" />
    </g>
  </g>
</svg>
