<?xml version="1.0" encoding="UTF-8" standalone="no"?>
<!-- Created with Inkscape (http://www.inkscape.org/) -->

<svg
   version="1.1"
   id="svg1"
   width="794.55066"
   height="1123.6533"
   viewBox="0 0 794.55066 1123.6533"
   sodipodi:docname="LigaMatematycznaMatuskiego_Liceum_Zestaw2_2021_2022_page0.pdf"
   xmlns:inkscape="http://www.inkscape.org/namespaces/inkscape"
   xmlns:sodipodi="http://sodipodi.sourceforge.net/DTD/sodipodi-0.dtd"
   xmlns="http://www.w3.org/2000/svg"
   xmlns:svg="http://www.w3.org/2000/svg">
  <defs
     id="defs1" />
  <sodipodi:namedview
     id="namedview1"
     pagecolor="#ffffff"
     bordercolor="#000000"
     borderopacity="0.25"
     inkscape:showpageshadow="2"
     inkscape:pageopacity="0.0"
     inkscape:pagecheckerboard="0"
     inkscape:deskcolor="#d1d1d1">
    <inkscape:page
       x="0"
       y="0"
       inkscape:label="1"
       id="page1"
       width="794.55066"
       height="1123.6533"
       margin="0"
       bleed="0" />
  </sodipodi:namedview>
  <g
     id="g1"
     inkscape:groupmode="layer"
     inkscape:label="1">
    <g
       id="g2"
       aria-label="LIGAMATEMATYCZNA&#10;im.ZdzisªawaMatuskiego&#10;LISTOPAD2021&#10;SZKOAPONADPODSTAWOWA&#10;ZADANIE1.&#10;Wka»dymwierzchoªkudziesi¦ciok¡tanapisanojedn¡zliczb:1,2,3,4,5.Ka»dybokdziesi¦-&#10;ciok¡tamadªugo±¢równ¡sumieliczbnapisanychnako«cachtegoboku.Uzasadnij,»eprzy-&#10;najmniejdwabokimaj¡równedªugo±ci.&#10;ZADANIE2.&#10;Wyznaczdªugo±cibokówtrójk¡taprostok¡tnego,je»elis¡oneliczbaminaturalnymi,aliczby&#10;oznaczaj¡cepoleiobwódspeªniaj¡warunek:polejestrównepodwojonemuobwodowi.&#10;ZADANIE3.&#10;PunktyMiNs¡±rodkamibokówBCiCDrównolegªobokuABCD.NiechKiLb¦d¡punk-&#10;tamiprzeci¦ciaprzek¡tnejBDodpowiednioprzezprosteAMiAN.Wyka»,»epunktyKiL&#10;dziel¡przek¡tn¡BDnatrzyrównecz¦±ci.Jak¡cz¦±ci¡polarównolegªobokuABCDjestpole&#10;pi¦ciok¡taLKMCN?&#10;ZADANIE4.&#10;Czyistniej¡takieliczbycaªkowitea,b,c,d,e,f,»ea−b,b−c,c−d,d−e,e−f,f−a&#10;wypisanewpewnymporz¡dkus¡kolejnymiliczbamicaªkowitymi?Odpowied¹uzasadnij.&#10;ZADANIE5.&#10;Wzbiorzeliczbrzeczywistychrozwi¡»ukªadrówna«&#10;&#10;&#10;&#10;x&#10;2&#10;+x+y=y&#10;3&#10;y&#10;2&#10;+y+x=x&#10;3&#10;."
       transform="matrix(1.3333333,0,0,1.3333333,274.724,56.069333)">
      <path
         id="path2"
         d="m 173.71774,102.15015 c 0,-0.26953 0,-0.28125 -0.24609,-0.28125 -0.28125,0.3164 -0.87891,0.76172 -2.10938,0.76172 v 0.35156 c 0.26953,0 0.86719,0 1.52344,-0.31641 v 6.22266 c 0,0.43359 -0.0352,0.57422 -1.07812,0.57422 h -0.375 v 0.35156 c 0.3164,-0.0234 1.47656,-0.0234 1.875,-0.0234 0.39843,0 1.54687,0 1.86328,0.0234 v -0.35156 h -0.36328 c -1.05469,0 -1.08985,-0.14063 -1.08985,-0.57422 z m 0,0"
         style="fill:#000000;fill-opacity:1;fill-rule:nonzero;stroke:none" />
      <path
         id="path3"
         d="m 188.79098,107.8103 h -0.26953 c -0.0351,0.19922 -0.1289,0.85547 -0.24609,1.04297 -0.082,0.11719 -0.76172,0.11719 -1.125,0.11719 h -2.21484 c 0.32812,-0.28125 1.05468,-1.04297 1.37109,-1.33594 1.81641,-1.66406 2.48437,-2.28515 2.48437,-3.46875 0,-1.38281 -1.08984,-2.29687 -2.47265,-2.29687 -1.39453,0 -2.20313,1.18359 -2.20313,2.20312 0,0.60938 0.52735,0.60938 0.5625,0.60938 0.2461,0 0.5625,-0.17578 0.5625,-0.5625 0,-0.32813 -0.23437,-0.55078 -0.5625,-0.55078 -0.10547,0 -0.1289,0 -0.16406,0.0117 0.22266,-0.82032 0.86719,-1.3711 1.64063,-1.3711 1.01953,0 1.64062,0.85547 1.64062,1.95703 0,1.00782 -0.58594,1.89844 -1.26562,2.66016 l -2.41407,2.70703 v 0.28125 h 4.35938 z m 0,0"
         style="fill:#000000;fill-opacity:1;fill-rule:nonzero;stroke:none" />
      <path
         id="path4"
         d="m 198.98923,105.52515 c -0.21094,0.0117 -0.25782,0.0234 -0.25782,0.1289 0,0.11719 0.0586,0.11719 0.28125,0.11719 h 0.55079 c 1.00781,0 1.46484,0.84375 1.46484,1.99219 0,1.55859 -0.80859,1.98047 -1.39453,1.98047 -0.57422,0 -1.5586,-0.28125 -1.89844,-1.06641 0.375,0.0586 0.72656,-0.15234 0.72656,-0.58594 0,-0.33984 -0.25781,-0.58593 -0.58593,-0.58593 -0.29297,0 -0.59766,0.16406 -0.59766,0.62109 0,1.06641 1.06641,1.93359 2.39062,1.93359 1.41797,0 2.47266,-1.07812 2.47266,-2.28515 0,-1.10156 -0.89062,-1.96875 -2.02734,-2.16797 1.03125,-0.30469 1.69922,-1.17188 1.69922,-2.10938 0,-0.9375 -0.97266,-1.6289 -2.13282,-1.6289 -1.19531,0 -2.08593,0.72656 -2.08593,1.59375 0,0.48047 0.375,0.57422 0.55078,0.57422 0.25781,0 0.53906,-0.17578 0.53906,-0.53907 0,-0.375 -0.28125,-0.53906 -0.55078,-0.53906 -0.0703,0 -0.0937,0 -0.12891,0.0117 0.45703,-0.82031 1.58203,-0.82031 1.64063,-0.82031 0.38672,0 1.17187,0.17578 1.17187,1.34765 0,0.23438 -0.0352,0.90235 -0.38672,1.41797 -0.35156,0.52735 -0.76172,0.5625 -1.08984,0.57422 z m 0,0"
         style="fill:#000000;fill-opacity:1;fill-rule:nonzero;stroke:none" />
      <path
         id="path5"
         d="m 214.35544,102.03296 c 0,-0.22266 0,-0.29297 -0.16406,-0.29297 -0.0937,0 -0.12891,0 -0.22266,0.15235 l -3.59766,5.57812 v 0.35156 h 3.14063 v 1.07813 c 0,0.44531 -0.0234,0.5625 -0.90235,0.5625 h -0.23437 v 0.35156 c 0.26953,-0.0234 1.21875,-0.0234 1.55859,-0.0234 0.32813,0 1.28907,0 1.5586,0.0234 v -0.35156 h -0.23438 c -0.86719,0 -0.90234,-0.11719 -0.90234,-0.5625 v -1.07813 h 1.20703 v -0.35156 h -1.20703 z m -0.78516,0.9375 v 4.5 h -2.90625 z m 0,0"
         style="fill:#000000;fill-opacity:1;fill-rule:nonzero;stroke:none" />
      <path
         id="path6"
         d="m 224.83493,102.97046 c 0.50391,0.16406 0.92578,0.17578 1.05469,0.17578 1.35937,0 2.21484,-0.99609 2.21484,-1.16015 0,-0.0469 -0.0234,-0.10547 -0.0937,-0.10547 -0.0234,0 -0.0469,0 -0.15234,0.0469 -0.66797,0.28125 -1.24219,0.31641 -1.5586,0.31641 -0.78515,0 -1.34765,-0.23438 -1.58203,-0.32813 -0.082,-0.0352 -0.10547,-0.0352 -0.11719,-0.0352 -0.0937,0 -0.0937,0.0703 -0.0937,0.25781 v 3.55078 c 0,0.21094 0,0.29297 0.14063,0.29297 0.0586,0 0.0703,-0.0117 0.19922,-0.16406 0.32812,-0.49219 0.89062,-0.77344 1.48828,-0.77344 0.63281,0 0.94922,0.58594 1.04297,0.78516 0.19922,0.46875 0.21094,1.05468 0.21094,1.51171 0,0.45704 0,1.13672 -0.32813,1.67579 -0.26953,0.42187 -0.73828,0.72656 -1.25391,0.72656 -0.79687,0 -1.57031,-0.53906 -1.78125,-1.40625 0.0586,0.0234 0.12891,0.0352 0.1875,0.0352 0.19922,0 0.52735,-0.1289 0.52735,-0.52734 0,-0.33984 -0.23438,-0.52734 -0.52735,-0.52734 -0.21093,0 -0.52734,0.10547 -0.52734,0.57422 0,1.00781 0.80859,2.16796 2.14453,2.16796 1.34766,0 2.53125,-1.125 2.53125,-2.64843 0,-1.41797 -0.96094,-2.60157 -2.21484,-2.60157 -0.67969,0 -1.20703,0.29297 -1.51172,0.63282 z m 0,0"
         style="fill:#000000;fill-opacity:1;fill-rule:nonzero;stroke:none" />
      <path
         id="path7"
         d="m -95.962922,231.9939 c 0.105469,-0.41016 0.128906,-0.52735 0.984375,-0.52735 0.222656,0 0.328125,0 0.328125,-0.22265 0,-0.12891 -0.08203,-0.12891 -0.304687,-0.12891 h -1.441407 c -0.292968,0 -0.304687,0.0117 -0.433593,0.21094 l -4.371091,6.89062 -0.89063,-6.83203 c -0.0352,-0.26953 -0.0469,-0.26953 -0.36328,-0.26953 h -1.47656 c -0.23438,0 -0.33985,0 -0.33985,0.23438 0,0.11718 0.10547,0.11718 0.29297,0.11718 0.72657,0 0.72657,0.0937 0.72657,0.22266 0,0.0234 0,0.0937 -0.0469,0.28125 l -1.53516,6.09375 c -0.14062,0.57422 -0.41015,0.83203 -1.21875,0.86719 -0.0352,0 -0.17578,0.0117 -0.17578,0.22265 0,0.12891 0.10547,0.12891 0.15235,0.12891 0.24609,0 0.85547,-0.0234 1.08984,-0.0234 h 0.57422 c 0.16406,0 0.375,0.0234 0.53906,0.0234 0.082,0 0.21094,0 0.21094,-0.22266 0,-0.11718 -0.11719,-0.1289 -0.16406,-0.1289 -0.39844,-0.0117 -0.77344,-0.082 -0.77344,-0.50391 0,-0.1289 0,-0.14062 0.0469,-0.30469 l 1.65235,-6.58593 h 0.0117 l 0.98437,7.41797 c 0.0352,0.29296 0.0469,0.32812 0.15235,0.32812 0.14062,0 0.19921,-0.0937 0.25781,-0.19922 l 4.804686,-7.60547 h 0.01172 l -1.734375,6.92578 c -0.105468,0.41016 -0.128906,0.52735 -0.972656,0.52735 -0.222656,0 -0.339844,0 -0.339844,0.22265 0,0.12891 0.105469,0.12891 0.175782,0.12891 0.210937,0 0.445312,-0.0234 0.644531,-0.0234 h 1.417969 c 0.199218,0 0.445312,0.0234 0.65625,0.0234 0.09375,0 0.222656,0 0.222656,-0.22266 0,-0.1289 -0.105469,-0.1289 -0.28125,-0.1289 -0.738281,0 -0.738281,-0.0937 -0.738281,-0.21094 0,-0.0117 0,-0.0937 0.02344,-0.1875 z m 0,0"
         style="fill:#000000;fill-opacity:1;fill-rule:nonzero;stroke:none" />
      <path
         id="path8"
         d="m -78.285187,232.3689 c 0.128906,-0.50391 0.316406,-0.86719 1.230468,-0.90235 0.03516,0 0.175782,-0.0117 0.175782,-0.21093 0,-0.14063 -0.105469,-0.14063 -0.152344,-0.14063 -0.234375,0 -0.855469,0.0234 -1.089844,0.0234 h -0.574219 c -0.164062,0 -0.386718,-0.0234 -0.550781,-0.0234 -0.07031,0 -0.210937,0 -0.210937,0.23438 0,0.11718 0.09375,0.11718 0.175781,0.11718 0.714844,0.0234 0.761719,0.29297 0.761719,0.51563 0,0.10547 -0.01172,0.14062 -0.04687,0.30469 l -1.347657,5.39062 -2.554687,-6.35156 c -0.08203,-0.19922 -0.09375,-0.21094 -0.363281,-0.21094 h -1.453125 c -0.246094,0 -0.351563,0 -0.351563,0.23438 0,0.11718 0.08203,0.11718 0.316406,0.11718 0.05859,0 0.761719,0 0.761719,0.10547 0,0.0234 -0.02344,0.11719 -0.03516,0.15235 l -1.59375,6.33984 c -0.140625,0.58594 -0.421875,0.83203 -1.21875,0.86719 -0.05859,0 -0.175781,0.0117 -0.175781,0.23437 0,0.11719 0.117187,0.11719 0.152343,0.11719 0.246094,0 0.855469,-0.0234 1.089844,-0.0234 h 0.574219 c 0.164062,0 0.375,0.0234 0.539062,0.0234 0.08203,0 0.210938,0 0.210938,-0.22266 0,-0.11718 -0.117188,-0.1289 -0.164063,-0.1289 -0.398437,-0.0117 -0.773437,-0.082 -0.773437,-0.50391 0,-0.10547 0.02344,-0.21094 0.04687,-0.30469 l 1.605469,-6.39843 c 0.08203,0.1289 0.08203,0.15234 0.128906,0.25781 l 2.835937,7.08984 c 0.05859,0.14063 0.09375,0.21094 0.199219,0.21094 0.117188,0 0.128906,-0.0352 0.175781,-0.23437 z m 0,0"
         style="fill:#000000;fill-opacity:1;fill-rule:nonzero;stroke:none" />
      <path
         id="path9"
         d="m 32.489227,231.9353 c 0.117187,-0.44531 0.164062,-0.46875 0.621093,-0.46875 h 1.558594 c 1.347656,0 1.347656,1.14844 1.347656,1.25391 0,0.97266 -0.960937,2.20313 -2.542968,2.20313 h -1.722657 z m 2.027343,3.08204 c 1.300782,-0.2461 2.484375,-1.14844 2.484375,-2.25 0,-0.92579 -0.832031,-1.65235 -2.179687,-1.65235 h -3.832031 c -0.234375,0 -0.339844,0 -0.339844,0.23438 0,0.11718 0.105469,0.11718 0.292969,0.11718 0.726562,0 0.726562,0.0937 0.726562,0.22266 0,0.0234 0,0.0937 -0.04687,0.28125 l -1.617187,6.43359 c -0.105469,0.41016 -0.128907,0.52735 -0.960938,0.52735 -0.234375,0 -0.351562,0 -0.351562,0.22265 0,0.12891 0.07031,0.12891 0.304687,0.12891 h 4.101563 c 1.828125,0 3.246093,-1.38281 3.246093,-2.58984 0,-0.98438 -0.867187,-1.58203 -1.828125,-1.67578 z m -1.699218,3.91406 h -1.617188 c -0.164062,0 -0.1875,0 -0.257812,-0.0117 -0.128907,-0.0117 -0.152344,-0.0352 -0.152344,-0.12891 0,-0.082 0.03516,-0.15234 0.05859,-0.25781 l 0.832031,-3.375 h 2.25 c 1.40625,0 1.40625,1.3125 1.40625,1.40625 0,1.14844 -1.042969,2.36719 -2.519531,2.36719 z m 13.722656,-7.95703 c 0,-0.10547 -0.08203,-0.10547 -0.105469,-0.10547 -0.02344,0 -0.07031,0 -0.175781,0.11719 l -0.820313,1.00781 c -0.421875,-0.71485 -1.078125,-1.125 -1.96875,-1.125 -2.589843,0 -5.261718,2.61328 -5.261718,5.42578 0,1.99219 1.394531,3.23437 3.140625,3.23437 0.960937,0 1.792968,-0.39843 2.484375,-0.98437 1.042968,-0.87891 1.359375,-2.03906 1.359375,-2.13281 0,-0.10547 -0.09375,-0.10547 -0.140625,-0.10547 -0.105469,0 -0.117188,0.0703 -0.140625,0.11719 -0.550782,1.86328 -2.15625,2.76562 -3.351563,2.76562 -1.277344,0 -2.367187,-0.82031 -2.367187,-2.50781 0,-0.38672 0.117187,-2.46094 1.464843,-4.03125 0.65625,-0.76172 1.78125,-1.44141 2.917969,-1.44141 1.3125,0 1.898438,1.08985 1.898438,2.3086 0,0.3164 -0.03516,0.57421 -0.03516,0.62109 0,0.11719 0.117188,0.11719 0.152344,0.11719 0.140625,0 0.152344,-0.0117 0.199219,-0.23438 z m 0,0"
         style="fill:#000000;fill-opacity:1;fill-rule:nonzero;stroke:none" />
      <path
         id="path10"
         d="m 66.743133,230.97437 c 0,-0.10547 -0.08203,-0.10547 -0.105469,-0.10547 -0.02344,0 -0.07031,0 -0.175781,0.11719 l -0.820313,1.00781 c -0.421875,-0.71485 -1.078125,-1.125 -1.96875,-1.125 -2.589843,0 -5.261718,2.61328 -5.261718,5.42578 0,1.99219 1.394531,3.23437 3.140625,3.23437 0.960937,0 1.792968,-0.39843 2.484375,-0.98437 1.042968,-0.87891 1.359375,-2.03906 1.359375,-2.13281 0,-0.10547 -0.09375,-0.10547 -0.140625,-0.10547 -0.105469,0 -0.117188,0.0703 -0.140625,0.11719 -0.550782,1.86328 -2.15625,2.76562 -3.351563,2.76562 -1.277344,0 -2.367187,-0.82031 -2.367187,-2.50781 0,-0.38672 0.117187,-2.46094 1.464843,-4.03125 0.65625,-0.76172 1.78125,-1.44141 2.917969,-1.44141 1.3125,0 1.898438,1.08985 1.898438,2.3086 0,0.3164 -0.03516,0.57421 -0.03516,0.62109 0,0.11719 0.117188,0.11719 0.152344,0.11719 0.140625,0 0.152344,-0.0117 0.199219,-0.23438 z m 2.179687,7.42968 c -0.105468,0.41016 -0.128906,0.52735 -0.960937,0.52735 -0.234375,0 -0.351563,0 -0.351563,0.22265 0,0.12891 0.07031,0.12891 0.304688,0.12891 h 3.796875 c 2.414062,0 4.769531,-2.49609 4.769531,-5.16797 0,-1.72265 -1.03125,-3 -2.742187,-3 h -3.832032 c -0.234375,0 -0.339843,0 -0.339843,0.23438 0,0.11718 0.105468,0.11718 0.292968,0.11718 0.726563,0 0.726563,0.0937 0.726563,0.22266 0,0.0234 0,0.0937 -0.04687,0.28125 z m 2.519532,-6.46875 c 0.117187,-0.44531 0.164062,-0.46875 0.621093,-0.46875 h 1.324219 c 1.113281,0 2.144531,0.60938 2.144531,2.26172 0,0.59766 -0.234375,2.67188 -1.394531,3.98438 -0.339844,0.39844 -1.242187,1.21875 -2.625,1.21875 h -1.359375 c -0.164062,0 -0.1875,0 -0.257812,-0.0117 -0.128907,-0.0117 -0.140625,-0.0352 -0.140625,-0.12891 0,-0.082 0.02344,-0.15234 0.04687,-0.25781 z m 0,0"
         style="fill:#000000;fill-opacity:1;fill-rule:nonzero;stroke:none" />
      <path
         id="path11"
         d="m 167.1611,237.95874 c -0.41015,0.70313 -0.82031,0.9375 -1.39453,0.97266 -0.12891,0.0117 -0.22266,0.0117 -0.22266,0.23437 0,0.0703 0.0586,0.11719 0.14063,0.11719 0.21094,0 0.75,-0.0234 0.97266,-0.0234 0.33984,0 0.72656,0.0234 1.05468,0.0234 0.0703,0 0.22266,0 0.22266,-0.22266 0,-0.11718 -0.0937,-0.1289 -0.17578,-0.1289 -0.26953,-0.0234 -0.49219,-0.11719 -0.49219,-0.39844 0,-0.17578 0.0703,-0.30469 0.22266,-0.5625 l 0.90234,-1.51172 h 3.05859 c 0.0117,0.10547 0.0117,0.21094 0.0234,0.31641 0.0352,0.30469 0.17578,1.54687 0.17578,1.78125 0,0.35156 -0.60937,0.375 -0.79687,0.375 -0.14063,0 -0.26953,0 -0.26953,0.22265 0,0.12891 0.10547,0.12891 0.17578,0.12891 0.21094,0 0.44531,-0.0234 0.65625,-0.0234 h 0.67969 c 0.72656,0 1.2539,0.0234 1.26562,0.0234 0.082,0 0.21094,0 0.21094,-0.22266 0,-0.1289 -0.10547,-0.1289 -0.28125,-0.1289 -0.65625,0 -0.66797,-0.10547 -0.71485,-0.45703 l -0.72656,-7.46485 c -0.0234,-0.23437 -0.0703,-0.25781 -0.19922,-0.25781 -0.11718,0 -0.1875,0.0234 -0.30468,0.19922 z m 1.44141,-1.83984 2.40234,-4.01953 0.41016,4.01953 z m 9.67676,-4.1836 c 0.11718,-0.44531 0.16406,-0.46875 0.62109,-0.46875 h 1.55859 c 1.34766,0 1.34766,1.14844 1.34766,1.25391 0,0.97266 -0.96094,2.20313 -2.54297,2.20313 h -1.72266 z m 2.02734,3.08204 c 1.30078,-0.2461 2.48437,-1.14844 2.48437,-2.25 0,-0.92579 -0.83203,-1.65235 -2.17968,-1.65235 h -3.83203 c -0.23438,0 -0.33985,0 -0.33985,0.23438 0,0.11718 0.10547,0.11718 0.29297,0.11718 0.72656,0 0.72656,0.0937 0.72656,0.22266 0,0.0234 0,0.0937 -0.0469,0.28125 l -1.61719,6.43359 c -0.10547,0.41016 -0.12891,0.52735 -0.96094,0.52735 -0.23437,0 -0.35156,0 -0.35156,0.22265 0,0.12891 0.0703,0.12891 0.30469,0.12891 h 4.10156 c 1.82813,0 3.24609,-1.38281 3.24609,-2.58984 0,-0.98438 -0.86718,-1.58203 -1.82812,-1.67578 z m -1.69922,3.91406 h -1.61719 c -0.16406,0 -0.1875,0 -0.25781,-0.0117 -0.12891,-0.0117 -0.15234,-0.0352 -0.15234,-0.12891 0,-0.082 0.0351,-0.15234 0.0586,-0.25781 l 0.83203,-3.375 h 2.25 c 1.40625,0 1.40625,1.3125 1.40625,1.40625 0,1.14844 -1.04297,2.36719 -2.51953,2.36719 z m 13.72266,-7.95703 c 0,-0.10547 -0.082,-0.10547 -0.10547,-0.10547 -0.0234,0 -0.0703,0 -0.17578,0.11719 l -0.82032,1.00781 c -0.42187,-0.71485 -1.07812,-1.125 -1.96875,-1.125 -2.58984,0 -5.26171,2.61328 -5.26171,5.42578 0,1.99219 1.39453,3.23437 3.14062,3.23437 0.96094,0 1.79297,-0.39843 2.48438,-0.98437 1.04296,-0.87891 1.35937,-2.03906 1.35937,-2.13281 0,-0.10547 -0.0937,-0.10547 -0.14062,-0.10547 -0.10547,0 -0.11719,0.0703 -0.14063,0.11719 -0.55078,1.86328 -2.15625,2.76562 -3.35156,2.76562 -1.27735,0 -2.36719,-0.82031 -2.36719,-2.50781 0,-0.38672 0.11719,-2.46094 1.46484,-4.03125 0.65625,-0.76172 1.78125,-1.44141 2.91797,-1.44141 1.3125,0 1.89844,1.08985 1.89844,2.3086 0,0.3164 -0.0352,0.57421 -0.0352,0.62109 0,0.11719 0.11719,0.11719 0.15235,0.11719 0.14062,0 0.15234,-0.0117 0.19922,-0.23438 z m 2.17968,7.42968 c -0.10546,0.41016 -0.1289,0.52735 -0.96093,0.52735 -0.23438,0 -0.35157,0 -0.35157,0.22265 0,0.12891 0.0703,0.12891 0.30469,0.12891 h 3.79688 c 2.41406,0 4.76953,-2.49609 4.76953,-5.16797 0,-1.72265 -1.03125,-3 -2.74219,-3 h -3.83203 c -0.23438,0 -0.33984,0 -0.33984,0.23438 0,0.11718 0.10546,0.11718 0.29296,0.11718 0.72657,0 0.72657,0.0937 0.72657,0.22266 0,0.0234 0,0.0937 -0.0469,0.28125 z m 2.51954,-6.46875 c 0.11718,-0.44531 0.16406,-0.46875 0.62109,-0.46875 h 1.32422 c 1.11328,0 2.14453,0.60938 2.14453,2.26172 0,0.59766 -0.23438,2.67188 -1.39453,3.98438 -0.33985,0.39844 -1.24219,1.21875 -2.625,1.21875 h -1.35938 c -0.16406,0 -0.1875,0 -0.25781,-0.0117 -0.12891,-0.0117 -0.14062,-0.0352 -0.14062,-0.12891 0,-0.082 0.0234,-0.15234 0.0469,-0.25781 z m 0,0"
         style="fill:#000000;fill-opacity:1;fill-rule:nonzero;stroke:none" />
      <path
         id="path12"
         d="m 248.22555,234.45484 c -0.0117,-0.0352 -0.0586,-0.12891 -0.0586,-0.16407 0,-0.0117 0.0117,-0.0234 0.21094,-0.1875 0.38672,-0.30468 0.78515,-0.60937 1.16015,-0.90234 1.60547,-1.24219 2.13282,-1.66406 2.95313,-1.73438 0.082,-0.0117 0.19922,-0.0117 0.19922,-0.21093 0,-0.082 -0.0352,-0.14063 -0.12891,-0.14063 -0.1289,0 -0.26953,0.0234 -0.39844,0.0234 h -0.45703 c -0.375,0 -0.76172,-0.0234 -1.125,-0.0234 -0.082,0 -0.22265,0 -0.22265,0.22266 0,0.11719 0.082,0.1289 0.15234,0.1289 0.12891,0.0117 0.28125,0.0586 0.28125,0.22266 0,0.24609 -0.35156,0.52734 -0.44531,0.59766 l -4.6875,3.64453 0.98437,-3.9375 c 0.11719,-0.41016 0.14063,-0.52735 0.98438,-0.52735 0.22265,0 0.33984,0 0.33984,-0.22265 0,-0.12891 -0.1289,-0.12891 -0.1875,-0.12891 -0.21094,0 -0.46875,0.0234 -0.6914,0.0234 h -1.40625 c -0.22266,0 -0.48047,-0.0234 -0.69141,-0.0234 -0.10547,0 -0.23438,0 -0.23438,0.23438 0,0.11718 0.10547,0.11718 0.29297,0.11718 0.72657,0 0.72657,0.0937 0.72657,0.22266 0,0.0234 0,0.0937 -0.0469,0.28125 l -1.61719,6.43359 c -0.10547,0.41016 -0.1289,0.52735 -0.96093,0.52735 -0.23438,0 -0.35157,0 -0.35157,0.22265 0,0.12891 0.10547,0.12891 0.17578,0.12891 0.23438,0 0.46875,-0.0234 0.69141,-0.0234 h 1.40625 c 0.22266,0 0.48047,0.0234 0.70313,0.0234 0.0937,0 0.22265,0 0.22265,-0.22266 0,-0.1289 -0.10547,-0.1289 -0.28125,-0.1289 -0.72656,0 -0.72656,-0.0937 -0.72656,-0.21094 0,-0.082 0.0703,-0.38672 0.11719,-0.57422 l 0.46875,-1.85156 1.8164,-1.41797 c 0.33985,0.76172 0.97266,2.28516 1.46485,3.45703 0.0351,0.082 0.0586,0.15235 0.0586,0.23438 0,0.35156 -0.48047,0.36328 -0.58594,0.36328 -0.10547,0 -0.22265,0 -0.22265,0.23437 0,0.11719 0.1289,0.11719 0.16406,0.11719 0.42187,0 0.86719,-0.0234 1.27734,-0.0234 h 0.57422 c 0.17578,0 0.38672,0.0234 0.5625,0.0234 0.0703,0 0.19922,0 0.19922,-0.22266 0,-0.1289 -0.10547,-0.1289 -0.22266,-0.1289 -0.44531,-0.0117 -0.59765,-0.10547 -0.77343,-0.52735 z m 0,0"
         style="fill:#000000;fill-opacity:1;fill-rule:nonzero;stroke:none" />
      <path
         id="path13"
         d="m 268.41403,232.04077 c 0.11719,-0.45703 0.15235,-0.57422 1.19531,-0.57422 0.32813,0 0.41016,0 0.41016,-0.22265 0,-0.12891 -0.12891,-0.12891 -0.17578,-0.12891 -0.24609,0 -0.51563,0.0234 -0.76172,0.0234 h -1.59375 c -0.23437,0 -0.49219,-0.0234 -0.71484,-0.0234 -0.10547,0 -0.23438,0 -0.23438,0.23438 0,0.11718 0.10547,0.11718 0.29297,0.11718 0.72656,0 0.72656,0.0937 0.72656,0.22266 0,0.0234 0,0.0937 -0.0469,0.28125 l -1.61719,6.43359 c -0.10547,0.41016 -0.12891,0.52735 -0.96094,0.52735 -0.23437,0 -0.35156,0 -0.35156,0.22265 0,0.12891 0.0703,0.12891 0.30469,0.12891 h 5.35547 c 0.26953,0 0.28125,-0.0117 0.36328,-0.22266 l 0.92578,-2.55468 c 0.0234,-0.0586 0.0469,-0.12891 0.0469,-0.16407 0,-0.0703 -0.0586,-0.11718 -0.1289,-0.11718 -0.0117,0 -0.0703,0 -0.0937,0.0469 -0.0234,0.0117 -0.0234,0.0352 -0.11719,0.25781 -0.38672,1.05469 -0.91406,2.40235 -2.94141,2.40235 h -1.14843 c -0.16407,0 -0.1875,0 -0.25782,-0.0117 -0.1289,-0.0117 -0.14062,-0.0352 -0.14062,-0.12891 0,-0.082 0.0234,-0.15234 0.0469,-0.25781 z m 0,0"
         style="fill:#000000;fill-opacity:1;fill-rule:nonzero;stroke:none" />
      <path
         id="path14"
         d="m -5.9482734,246.37866 c 0.1171875,-0.44531 0.1640625,-0.46875 0.6210937,-0.46875 h 1.5585938 c 1.3476562,0 1.3476562,1.14844 1.3476562,1.25391 0,0.97266 -0.9609375,2.20313 -2.5429687,2.20313 h -1.7226563 z m 2.0273437,3.08204 c 1.3007813,-0.2461 2.484375,-1.14844 2.484375,-2.25 0,-0.92579 -0.8320312,-1.65235 -2.1796875,-1.65235 h -3.8320312 c -0.234375,0 -0.3398438,0 -0.3398438,0.23438 0,0.11718 0.1054688,0.11718 0.2929688,0.11718 0.7265625,0 0.7265625,0.0937 0.7265625,0.22266 0,0.0234 0,0.0937 -0.046875,0.28125 l -1.6171875,6.43359 c -0.1054688,0.41016 -0.1289063,0.52735 -0.9609375,0.52735 -0.234375,0 -0.3515625,0 -0.3515625,0.22265 0,0.12891 0.070312,0.12891 0.3046875,0.12891 h 4.1015625 c 1.828125,0 3.2460937,-1.38281 3.2460937,-2.58984 0,-0.98438 -0.8671875,-1.58203 -1.828125,-1.67578 z m -1.6992187,3.91406 h -1.6171875 c -0.1640625,0 -0.1875,0 -0.2578125,-0.0117 -0.1289063,-0.0117 -0.1523438,-0.0352 -0.1523438,-0.12891 0,-0.082 0.035156,-0.15234 0.058594,-0.25781 l 0.8320312,-3.375 h 2.25 c 1.40625,0 1.40625,1.3125 1.40625,1.40625 0,1.14844 -1.0429687,2.36719 -2.5195312,2.36719 z m 6.6679687,-0.52735 c -0.10546874,0.41016 -0.12890624,0.52735 -0.96093749,0.52735 -0.234375,0 -0.3515625,0 -0.3515625,0.22265 0,0.12891 0.0703125,0.12891 0.3046875,0.12891 H 3.8368828 c 2.4140625,0 4.7695313,-2.49609 4.7695313,-5.16797 0,-1.72265 -1.03125,-3 -2.7421875,-3 H 2.0321953 c -0.234375,0 -0.3398437,0 -0.3398437,0.23438 0,0.11718 0.1054687,0.11718 0.2929687,0.11718 0.7265625,0 0.7265625,0.0937 0.7265625,0.22266 0,0.0234 0,0.0937 -0.046875,0.28125 z m 2.5195313,-6.46875 c 0.1171875,-0.44531 0.1640625,-0.46875 0.6210937,-0.46875 h 1.3242188 c 1.1132812,0 2.1445312,0.60938 2.1445312,2.26172 0,0.59766 -0.234375,2.67188 -1.3945312,3.98438 -0.3398438,0.39844 -1.2421875,1.21875 -2.625,1.21875 h -1.359375 c -0.1640625,0 -0.1875,0 -0.2578125,-0.0117 -0.1289063,-0.0117 -0.140625,-0.0352 -0.140625,-0.12891 0,-0.082 0.023437,-0.15234 0.046875,-0.25781 z m 0,0"
         style="fill:#000000;fill-opacity:1;fill-rule:nonzero;stroke:none" />
      <path
         id="path15"
         d="m 149.77341,252.4021 c -0.41016,0.70313 -0.82032,0.9375 -1.39453,0.97266 -0.12891,0.0117 -0.22266,0.0117 -0.22266,0.23437 0,0.0703 0.0586,0.11719 0.14062,0.11719 0.21094,0 0.75,-0.0234 0.97266,-0.0234 0.33984,0 0.72656,0.0234 1.05469,0.0234 0.0703,0 0.22265,0 0.22265,-0.22266 0,-0.11718 -0.0937,-0.1289 -0.17578,-0.1289 -0.26953,-0.0234 -0.49218,-0.11719 -0.49218,-0.39844 0,-0.17578 0.0703,-0.30469 0.22265,-0.5625 l 0.90235,-1.51172 h 3.05859 c 0.0117,0.10547 0.0117,0.21094 0.0234,0.31641 0.0351,0.30469 0.17578,1.54687 0.17578,1.78125 0,0.35156 -0.60938,0.375 -0.79688,0.375 -0.14062,0 -0.26953,0 -0.26953,0.22265 0,0.12891 0.10547,0.12891 0.17578,0.12891 0.21094,0 0.44532,-0.0234 0.65625,-0.0234 h 0.67969 c 0.72656,0 1.25391,0.0234 1.26563,0.0234 0.082,0 0.21093,0 0.21093,-0.22266 0,-0.1289 -0.10547,-0.1289 -0.28125,-0.1289 -0.65625,0 -0.66797,-0.10547 -0.71484,-0.45703 l -0.72656,-7.46485 c -0.0234,-0.23437 -0.0703,-0.25781 -0.19922,-0.25781 -0.11719,0 -0.1875,0.0234 -0.30469,0.19922 z m 1.4414,-1.83984 2.40235,-4.01953 0.41015,4.01953 z m 16.16016,-4.125 c 0.10547,-0.41016 0.12891,-0.52735 0.98437,-0.52735 0.22266,0 0.32813,0 0.32813,-0.22265 0,-0.12891 -0.082,-0.12891 -0.30469,-0.12891 h -1.4414 c -0.29297,0 -0.30469,0.0117 -0.4336,0.21094 l -4.37109,6.89062 -0.89063,-6.83203 c -0.0351,-0.26953 -0.0469,-0.26953 -0.36328,-0.26953 h -1.47656 c -0.23438,0 -0.33984,0 -0.33984,0.23438 0,0.11718 0.10546,0.11718 0.29296,0.11718 0.72657,0 0.72657,0.0937 0.72657,0.22266 0,0.0234 0,0.0937 -0.0469,0.28125 l -1.53515,6.09375 c -0.14063,0.57422 -0.41016,0.83203 -1.21875,0.86719 -0.0352,0 -0.17579,0.0117 -0.17579,0.22265 0,0.12891 0.10547,0.12891 0.15235,0.12891 0.24609,0 0.85547,-0.0234 1.08984,-0.0234 h 0.57422 c 0.16406,0 0.375,0.0234 0.53906,0.0234 0.082,0 0.21094,0 0.21094,-0.22266 0,-0.11718 -0.11719,-0.1289 -0.16406,-0.1289 -0.39844,-0.0117 -0.77344,-0.082 -0.77344,-0.50391 0,-0.1289 0,-0.14062 0.0469,-0.30469 l 1.65234,-6.58593 h 0.0117 l 0.98437,7.41797 c 0.0352,0.29296 0.0469,0.32812 0.15235,0.32812 0.14062,0 0.19922,-0.0937 0.25781,-0.19922 l 4.80469,-7.60547 h 0.0117 l -1.73438,6.92578 c -0.10547,0.41016 -0.12891,0.52735 -0.97266,0.52735 -0.22265,0 -0.33984,0 -0.33984,0.22265 0,0.12891 0.10547,0.12891 0.17578,0.12891 0.21094,0 0.44531,-0.0234 0.64453,-0.0234 h 1.41797 c 0.19922,0 0.44531,0.0234 0.65625,0.0234 0.0937,0 0.22266,0 0.22266,-0.22266 0,-0.1289 -0.10547,-0.1289 -0.28125,-0.1289 -0.73828,0 -0.73828,-0.0937 -0.73828,-0.21094 0,-0.0117 0,-0.0937 0.0234,-0.1875 z m 0,0"
         style="fill:#000000;fill-opacity:1;fill-rule:nonzero;stroke:none" />
      <path
         id="path16"
         d="m 182.65036,252.4021 c -0.41016,0.70313 -0.82031,0.9375 -1.39453,0.97266 -0.12891,0.0117 -0.22266,0.0117 -0.22266,0.23437 0,0.0703 0.0586,0.11719 0.14063,0.11719 0.21093,0 0.75,-0.0234 0.97265,-0.0234 0.33985,0 0.72657,0.0234 1.05469,0.0234 0.0703,0 0.22266,0 0.22266,-0.22266 0,-0.11718 -0.0937,-0.1289 -0.17578,-0.1289 -0.26954,-0.0234 -0.49219,-0.11719 -0.49219,-0.39844 0,-0.17578 0.0703,-0.30469 0.22265,-0.5625 l 0.90235,-1.51172 h 3.05859 c 0.0117,0.10547 0.0117,0.21094 0.0234,0.31641 0.0352,0.30469 0.17578,1.54687 0.17578,1.78125 0,0.35156 -0.60937,0.375 -0.79687,0.375 -0.14063,0 -0.26954,0 -0.26954,0.22265 0,0.12891 0.10547,0.12891 0.17579,0.12891 0.21093,0 0.44531,-0.0234 0.65625,-0.0234 h 0.67968 c 0.72657,0 1.25391,0.0234 1.26563,0.0234 0.082,0 0.21094,0 0.21094,-0.22266 0,-0.1289 -0.10547,-0.1289 -0.28125,-0.1289 -0.65625,0 -0.66797,-0.10547 -0.71485,-0.45703 l -0.72656,-7.46485 c -0.0234,-0.23437 -0.0703,-0.25781 -0.19922,-0.25781 -0.11719,0 -0.1875,0.0234 -0.30469,0.19922 z m 1.44141,-1.83984 2.40234,-4.01953 0.41016,4.01953 z m 14.15332,-3.75 c 0.1289,-0.50391 0.3164,-0.86719 1.23046,-0.90235 0.0352,0 0.17579,-0.0117 0.17579,-0.21093 0,-0.14063 -0.10547,-0.14063 -0.15235,-0.14063 -0.23437,0 -0.85547,0.0234 -1.08984,0.0234 h -0.57422 c -0.16406,0 -0.38672,-0.0234 -0.55078,-0.0234 -0.0703,0 -0.21094,0 -0.21094,0.23438 0,0.11718 0.0937,0.11718 0.17578,0.11718 0.71485,0.0234 0.76172,0.29297 0.76172,0.51563 0,0.10547 -0.0117,0.14062 -0.0469,0.30469 l -1.34766,5.39062 -2.55469,-6.35156 c -0.082,-0.19922 -0.0937,-0.21094 -0.36328,-0.21094 h -1.45312 c -0.2461,0 -0.35157,0 -0.35157,0.23438 0,0.11718 0.082,0.11718 0.31641,0.11718 0.0586,0 0.76172,0 0.76172,0.10547 0,0.0234 -0.0234,0.11719 -0.0352,0.15235 l -1.59375,6.33984 c -0.14062,0.58594 -0.42187,0.83203 -1.21875,0.86719 -0.0586,0 -0.17578,0.0117 -0.17578,0.23437 0,0.11719 0.11719,0.11719 0.15234,0.11719 0.2461,0 0.85547,-0.0234 1.08985,-0.0234 h 0.57422 c 0.16406,0 0.375,0.0234 0.53906,0.0234 0.082,0 0.21094,0 0.21094,-0.22266 0,-0.11718 -0.11719,-0.1289 -0.16407,-0.1289 -0.39843,-0.0117 -0.77343,-0.082 -0.77343,-0.50391 0,-0.10547 0.0234,-0.21094 0.0469,-0.30469 l 1.60547,-6.39843 c 0.082,0.1289 0.082,0.15234 0.12891,0.25781 l 2.83593,7.08984 c 0.0586,0.14063 0.0937,0.21094 0.19922,0.21094 0.11719,0 0.12891,-0.0352 0.17578,-0.23437 z m 0,0"
         style="fill:#000000;fill-opacity:1;fill-rule:nonzero;stroke:none" />
      <path
         id="path17"
         d="m 309.34177,248.8982 c -0.0117,-0.0352 -0.0586,-0.12891 -0.0586,-0.16407 0,-0.0117 0.0117,-0.0234 0.21094,-0.1875 0.38672,-0.30468 0.78516,-0.60937 1.16016,-0.90234 1.60546,-1.24219 2.13281,-1.66406 2.95312,-1.73438 0.082,-0.0117 0.19922,-0.0117 0.19922,-0.21093 0,-0.082 -0.0352,-0.14063 -0.12891,-0.14063 -0.1289,0 -0.26953,0.0234 -0.39843,0.0234 h -0.45704 c -0.375,0 -0.76171,-0.0234 -1.125,-0.0234 -0.082,0 -0.22265,0 -0.22265,0.22266 0,0.11719 0.082,0.1289 0.15234,0.1289 0.12891,0.0117 0.28125,0.0586 0.28125,0.22266 0,0.24609 -0.35156,0.52734 -0.44531,0.59766 l -4.6875,3.64453 0.98437,-3.9375 c 0.11719,-0.41016 0.14063,-0.52735 0.98438,-0.52735 0.22266,0 0.33984,0 0.33984,-0.22265 0,-0.12891 -0.1289,-0.12891 -0.1875,-0.12891 -0.21093,0 -0.46875,0.0234 -0.6914,0.0234 h -1.40625 c -0.22266,0 -0.48047,-0.0234 -0.69141,-0.0234 -0.10547,0 -0.23437,0 -0.23437,0.23438 0,0.11718 0.10546,0.11718 0.29296,0.11718 0.72657,0 0.72657,0.0937 0.72657,0.22266 0,0.0234 0,0.0937 -0.0469,0.28125 l -1.61719,6.43359 c -0.10546,0.41016 -0.1289,0.52735 -0.96093,0.52735 -0.23438,0 -0.35157,0 -0.35157,0.22265 0,0.12891 0.10547,0.12891 0.17579,0.12891 0.23437,0 0.46875,-0.0234 0.6914,-0.0234 h 1.40625 c 0.22266,0 0.48047,0.0234 0.70313,0.0234 0.0937,0 0.22265,0 0.22265,-0.22266 0,-0.1289 -0.10547,-0.1289 -0.28125,-0.1289 -0.72656,0 -0.72656,-0.0937 -0.72656,-0.21094 0,-0.082 0.0703,-0.38672 0.11719,-0.57422 l 0.46875,-1.85156 1.8164,-1.41797 c 0.33985,0.76172 0.97266,2.28516 1.46485,3.45703 0.0351,0.082 0.0586,0.15235 0.0586,0.23438 0,0.35156 -0.48047,0.36328 -0.58594,0.36328 -0.10546,0 -0.22265,0 -0.22265,0.23437 0,0.11719 0.1289,0.11719 0.16406,0.11719 0.42188,0 0.86719,-0.0234 1.27734,-0.0234 h 0.57422 c 0.17578,0 0.38672,0.0234 0.5625,0.0234 0.0703,0 0.19922,0 0.19922,-0.22266 0,-0.1289 -0.10547,-0.1289 -0.22265,-0.1289 -0.44532,-0.0117 -0.59766,-0.10547 -0.77344,-0.52735 z m 0,0"
         style="fill:#000000;fill-opacity:1;fill-rule:nonzero;stroke:none" />
      <path
         id="path18"
         d="m 330.09274,246.48413 c 0.11719,-0.45703 0.15235,-0.57422 1.19531,-0.57422 0.32813,0 0.41016,0 0.41016,-0.22265 0,-0.12891 -0.12891,-0.12891 -0.17578,-0.12891 -0.24609,0 -0.51563,0.0234 -0.76172,0.0234 h -1.59375 c -0.23437,0 -0.49219,-0.0234 -0.71484,-0.0234 -0.10547,0 -0.23438,0 -0.23438,0.23438 0,0.11718 0.10547,0.11718 0.29297,0.11718 0.72656,0 0.72656,0.0937 0.72656,0.22266 0,0.0234 0,0.0937 -0.0469,0.28125 l -1.61719,6.43359 c -0.10547,0.41016 -0.12891,0.52735 -0.96094,0.52735 -0.23437,0 -0.35156,0 -0.35156,0.22265 0,0.12891 0.0703,0.12891 0.30469,0.12891 h 5.35547 c 0.26953,0 0.28125,-0.0117 0.36328,-0.22266 l 0.92578,-2.55468 c 0.0234,-0.0586 0.0469,-0.12891 0.0469,-0.16407 0,-0.0703 -0.0586,-0.11718 -0.1289,-0.11718 -0.0117,0 -0.0703,0 -0.0937,0.0469 -0.0234,0.0117 -0.0234,0.0352 -0.11719,0.25781 -0.38672,1.05469 -0.91406,2.40235 -2.94141,2.40235 h -1.14843 c -0.16407,0 -0.1875,0 -0.25782,-0.0117 -0.1289,-0.0117 -0.14062,-0.0352 -0.14062,-0.12891 0,-0.082 0.0234,-0.15234 0.0469,-0.25781 z m 0,0"
         style="fill:#000000;fill-opacity:1;fill-rule:nonzero;stroke:none" />
      <path
         id="path19"
         d="m -56.869172,260.82495 c 0.117188,-0.44531 0.164063,-0.46875 0.621094,-0.46875 h 1.558594 c 1.347656,0 1.347656,1.14844 1.347656,1.25391 0,0.97266 -0.960938,2.20312 -2.542969,2.20312 h -1.722656 z m 2.027344,3.08203 c 1.300781,-0.24609 2.484375,-1.14843 2.484375,-2.25 0,-0.92578 -0.832031,-1.65234 -2.179688,-1.65234 h -3.832031 c -0.234375,0 -0.339844,0 -0.339844,0.23438 0,0.11718 0.105469,0.11718 0.292969,0.11718 0.726563,0 0.726563,0.0937 0.726563,0.22266 0,0.0234 0,0.0937 -0.04687,0.28125 l -1.617188,6.43359 c -0.105469,0.41016 -0.128906,0.52735 -0.960937,0.52735 -0.234375,0 -0.351563,0 -0.351563,0.22265 0,0.12891 0.07031,0.12891 0.304688,0.12891 h 4.101562 c 1.828125,0 3.246094,-1.38281 3.246094,-2.58984 0,-0.98438 -0.867188,-1.58204 -1.828125,-1.67579 z m -1.699219,3.91407 h -1.617187 c -0.164063,0 -0.1875,0 -0.257813,-0.0117 -0.128906,-0.0117 -0.152344,-0.0352 -0.152344,-0.12891 0,-0.082 0.03516,-0.15234 0.05859,-0.25781 l 0.832031,-3.375 h 2.25 c 1.40625,0 1.40625,1.3125 1.40625,1.40625 0,1.14844 -1.042968,2.36719 -2.519531,2.36719 z m 6.665039,-0.52735 c -0.105469,0.41016 -0.128906,0.52735 -0.960937,0.52735 -0.234375,0 -0.351563,0 -0.351563,0.22265 0,0.12891 0.07031,0.12891 0.304688,0.12891 h 3.796875 c 2.414062,0 4.769531,-2.49609 4.769531,-5.16797 0,-1.72266 -1.03125,-3 -2.742188,-3 h -3.832031 c -0.234375,0 -0.339844,0 -0.339844,0.23438 0,0.11718 0.105469,0.11718 0.292969,0.11718 0.726563,0 0.726563,0.0937 0.726563,0.22266 0,0.0234 0,0.0937 -0.04687,0.28125 z m 2.519531,-6.46875 c 0.117188,-0.44531 0.164063,-0.46875 0.621094,-0.46875 h 1.324219 c 1.113281,0 2.144531,0.60938 2.144531,2.26172 0,0.59766 -0.234375,2.67188 -1.394531,3.98438 -0.339844,0.39843 -1.242188,1.21875 -2.625,1.21875 h -1.359375 c -0.164063,0 -0.1875,0 -0.257813,-0.0117 -0.128906,-0.0117 -0.140625,-0.0352 -0.140625,-0.12891 0,-0.082 0.02344,-0.15234 0.04687,-0.25781 z m 0,0"
         style="fill:#000000;fill-opacity:1;fill-rule:nonzero;stroke:none" />
      <path
         id="path20"
         d="m 251.09665,266.84839 c -0.41016,0.70313 -0.82031,0.9375 -1.39453,0.97266 -0.12891,0.0117 -0.22266,0.0117 -0.22266,0.23437 0,0.0703 0.0586,0.11719 0.14063,0.11719 0.21093,0 0.75,-0.0234 0.97265,-0.0234 0.33985,0 0.72656,0.0234 1.05469,0.0234 0.0703,0 0.22266,0 0.22266,-0.22266 0,-0.11718 -0.0937,-0.1289 -0.17579,-0.1289 -0.26953,-0.0234 -0.49218,-0.11719 -0.49218,-0.39844 0,-0.17578 0.0703,-0.30469 0.22265,-0.5625 l 0.90235,-1.51172 h 3.05859 c 0.0117,0.10547 0.0117,0.21094 0.0234,0.31641 0.0351,0.30468 0.17578,1.54687 0.17578,1.78125 0,0.35156 -0.60938,0.375 -0.79688,0.375 -0.14062,0 -0.26953,0 -0.26953,0.22265 0,0.12891 0.10547,0.12891 0.17578,0.12891 0.21094,0 0.44532,-0.0234 0.65625,-0.0234 h 0.67969 c 0.72656,0 1.25391,0.0234 1.26563,0.0234 0.082,0 0.21093,0 0.21093,-0.22266 0,-0.1289 -0.10546,-0.1289 -0.28125,-0.1289 -0.65625,0 -0.66796,-0.10547 -0.71484,-0.45703 l -0.72656,-7.46485 c -0.0234,-0.23437 -0.0703,-0.25781 -0.19922,-0.25781 -0.11719,0 -0.1875,0.0234 -0.30469,0.19922 z m 1.4414,-1.83984 2.40235,-4.01953 0.41015,4.01953 z m 9.67676,-4.1836 c 0.11719,-0.44531 0.16407,-0.46875 0.6211,-0.46875 h 1.55859 c 1.34766,0 1.34766,1.14844 1.34766,1.25391 0,0.97266 -0.96094,2.20312 -2.54297,2.20312 h -1.72266 z m 2.02735,3.08203 c 1.30078,-0.24609 2.48437,-1.14843 2.48437,-2.25 0,-0.92578 -0.83203,-1.65234 -2.17969,-1.65234 h -3.83203 c -0.23437,0 -0.33984,0 -0.33984,0.23438 0,0.11718 0.10547,0.11718 0.29297,0.11718 0.72656,0 0.72656,0.0937 0.72656,0.22266 0,0.0234 0,0.0937 -0.0469,0.28125 l -1.61719,6.43359 c -0.10547,0.41016 -0.12891,0.52735 -0.96094,0.52735 -0.23437,0 -0.35156,0 -0.35156,0.22265 0,0.12891 0.0703,0.12891 0.30469,0.12891 h 4.10156 c 1.82812,0 3.24609,-1.38281 3.24609,-2.58984 0,-0.98438 -0.86719,-1.58204 -1.82812,-1.67579 z m -1.69922,3.91407 h -1.61719 c -0.16406,0 -0.1875,0 -0.25781,-0.0117 -0.12891,-0.0117 -0.15235,-0.0352 -0.15235,-0.12891 0,-0.082 0.0352,-0.15234 0.0586,-0.25781 l 0.83203,-3.375 h 2.25 c 1.40625,0 1.40625,1.3125 1.40625,1.40625 0,1.14844 -1.04297,2.36719 -2.51953,2.36719 z m 13.72265,-7.95703 c 0,-0.10547 -0.082,-0.10547 -0.10546,-0.10547 -0.0234,0 -0.0703,0 -0.17579,0.11718 l -0.82031,1.00782 c -0.42187,-0.71485 -1.07812,-1.125 -1.96875,-1.125 -2.58984,0 -5.26172,2.61328 -5.26172,5.42578 0,1.99219 1.39453,3.23437 3.14063,3.23437 0.96094,0 1.79297,-0.39843 2.48437,-0.98437 1.04297,-0.87891 1.35938,-2.03906 1.35938,-2.13281 0,-0.10547 -0.0937,-0.10547 -0.14063,-0.10547 -0.10547,0 -0.11718,0.0703 -0.14062,0.11718 -0.55078,1.86329 -2.15625,2.76563 -3.35156,2.76563 -1.27735,0 -2.36719,-0.82031 -2.36719,-2.50781 0,-0.38672 0.11719,-2.46094 1.46484,-4.03125 0.65625,-0.76172 1.78125,-1.44141 2.91797,-1.44141 1.3125,0 1.89844,1.08984 1.89844,2.30859 0,0.31641 -0.0352,0.57422 -0.0352,0.6211 0,0.11719 0.11719,0.11719 0.15235,0.11719 0.14062,0 0.15234,-0.0117 0.19921,-0.23438 z m 2.17969,7.42968 c -0.10547,0.41016 -0.1289,0.52735 -0.96094,0.52735 -0.23437,0 -0.35156,0 -0.35156,0.22265 0,0.12891 0.0703,0.12891 0.30469,0.12891 h 3.79687 c 2.41407,0 4.76954,-2.49609 4.76954,-5.16797 0,-1.72266 -1.03125,-3 -2.74219,-3 h -3.83203 c -0.23438,0 -0.33985,0 -0.33985,0.23438 0,0.11718 0.10547,0.11718 0.29297,0.11718 0.72656,0 0.72656,0.0937 0.72656,0.22266 0,0.0234 0,0.0937 -0.0469,0.28125 z m 2.51953,-6.46875 c 0.11719,-0.44531 0.16407,-0.46875 0.6211,-0.46875 h 1.32422 c 1.11328,0 2.14453,0.60938 2.14453,2.26172 0,0.59766 -0.23438,2.67188 -1.39453,3.98438 -0.33985,0.39843 -1.24219,1.21875 -2.625,1.21875 h -1.35938 c -0.16406,0 -0.1875,0 -0.25781,-0.0117 -0.12891,-0.0117 -0.14063,-0.0352 -0.14063,-0.12891 0,-0.082 0.0234,-0.15234 0.0469,-0.25781 z m 0,0"
         style="fill:#000000;fill-opacity:1;fill-rule:nonzero;stroke:none" />
      <path
         id="path21"
         d="m -88.893586,275.37671 c 0.117188,-0.45703 0.152344,-0.57422 1.195313,-0.57422 0.328125,0 0.410156,0 0.410156,-0.22265 0,-0.12891 -0.128906,-0.12891 -0.175781,-0.12891 -0.246094,0 -0.515625,0.0234 -0.761719,0.0234 h -1.59375 c -0.234375,0 -0.492188,-0.0234 -0.714844,-0.0234 -0.105469,0 -0.234375,0 -0.234375,0.23437 0,0.11719 0.105469,0.11719 0.292969,0.11719 0.726562,0 0.726562,0.0937 0.726562,0.22266 0,0.0234 0,0.0937 -0.04687,0.28125 l -1.617187,6.43359 c -0.105469,0.41016 -0.128906,0.52735 -0.960938,0.52735 -0.234375,0 -0.351562,0 -0.351562,0.22265 0,0.12891 0.07031,0.12891 0.304687,0.12891 h 5.355469 c 0.269531,0 0.28125,-0.0117 0.363281,-0.22266 l 0.925782,-2.55469 c 0.02344,-0.0586 0.04687,-0.1289 0.04687,-0.16406 0,-0.0703 -0.05859,-0.11719 -0.128907,-0.11719 -0.01172,0 -0.07031,0 -0.09375,0.0469 -0.02344,0.0117 -0.02344,0.0352 -0.117187,0.25781 -0.386719,1.05469 -0.914063,2.40235 -2.941406,2.40235 h -1.148438 c -0.164062,0 -0.1875,0 -0.257812,-0.0117 -0.128907,-0.0117 -0.140625,-0.0352 -0.140625,-0.12891 0,-0.082 0.02344,-0.15234 0.04687,-0.25781 z m 9.55957,2.41406 c -0.01172,-0.0351 -0.05859,-0.1289 -0.05859,-0.16406 0,-0.0117 0.01172,-0.0234 0.210937,-0.1875 0.386719,-0.30469 0.785156,-0.60937 1.160156,-0.90234 1.605469,-1.24219 2.132813,-1.66407 2.953125,-1.73438 0.08203,-0.0117 0.199219,-0.0117 0.199219,-0.21094 0,-0.082 -0.03516,-0.14062 -0.128906,-0.14062 -0.128906,0 -0.269531,0.0234 -0.398438,0.0234 h -0.457031 c -0.375,0 -0.761719,-0.0234 -1.125,-0.0234 -0.08203,0 -0.222656,0 -0.222656,0.22266 0,0.11718 0.08203,0.1289 0.152344,0.1289 0.128906,0.0117 0.28125,0.0586 0.28125,0.22266 0,0.24609 -0.351563,0.52734 -0.445313,0.59765 l -4.6875,3.64454 0.984375,-3.9375 c 0.117188,-0.41016 0.140625,-0.52735 0.984375,-0.52735 0.222656,0 0.339844,0 0.339844,-0.22265 0,-0.12891 -0.128906,-0.12891 -0.1875,-0.12891 -0.210938,0 -0.46875,0.0234 -0.691406,0.0234 h -1.40625 c -0.222657,0 -0.480469,-0.0234 -0.691407,-0.0234 -0.105468,0 -0.234375,0 -0.234375,0.23437 0,0.11719 0.105469,0.11719 0.292969,0.11719 0.726563,0 0.726563,0.0937 0.726563,0.22266 0,0.0234 0,0.0937 -0.04687,0.28125 l -1.617188,6.43359 c -0.105469,0.41016 -0.128906,0.52735 -0.960937,0.52735 -0.234375,0 -0.351563,0 -0.351563,0.22265 0,0.12891 0.105469,0.12891 0.175781,0.12891 0.234375,0 0.46875,-0.0234 0.691407,-0.0234 h 1.40625 c 0.222656,0 0.480468,0.0234 0.703125,0.0234 0.09375,0 0.222656,0 0.222656,-0.22266 0,-0.1289 -0.105469,-0.1289 -0.28125,-0.1289 -0.726563,0 -0.726563,-0.0937 -0.726563,-0.21094 0,-0.082 0.07031,-0.38672 0.117188,-0.57422 l 0.46875,-1.85156 1.816406,-1.41797 c 0.339844,0.76172 0.972656,2.28515 1.464844,3.45703 0.03516,0.082 0.05859,0.15234 0.05859,0.23437 0,0.35157 -0.480469,0.36329 -0.585938,0.36329 -0.105469,0 -0.222656,0 -0.222656,0.23437 0,0.11719 0.128906,0.11719 0.164062,0.11719 0.421875,0 0.867188,-0.0234 1.277344,-0.0234 h 0.574219 c 0.175781,0 0.386719,0.0234 0.5625,0.0234 0.07031,0 0.199219,0 0.199219,-0.22266 0,-0.1289 -0.105469,-0.1289 -0.222657,-0.1289 -0.445312,-0.0117 -0.597656,-0.10547 -0.773437,-0.52735 z m 15.694336,-2.46093 c 0.105469,-0.41016 0.128907,-0.52735 0.984375,-0.52735 0.222657,0 0.328125,0 0.328125,-0.22265 0,-0.12891 -0.08203,-0.12891 -0.304687,-0.12891 h -1.441406 c -0.292969,0 -0.304688,0.0117 -0.433594,0.21094 l -4.371094,6.89062 -0.890625,-6.83203 c -0.03516,-0.26953 -0.04687,-0.26953 -0.363281,-0.26953 h -1.476563 c -0.234375,0 -0.339843,0 -0.339843,0.23437 0,0.11719 0.105468,0.11719 0.292968,0.11719 0.726563,0 0.726563,0.0937 0.726563,0.22266 0,0.0234 0,0.0937 -0.04687,0.28125 l -1.535156,6.09375 c -0.140625,0.57422 -0.410157,0.83203 -1.21875,0.86719 -0.03516,0 -0.175782,0.0117 -0.175782,0.22265 0,0.12891 0.105469,0.12891 0.152344,0.12891 0.246094,0 0.855469,-0.0234 1.089844,-0.0234 h 0.574219 c 0.164062,0 0.375,0.0234 0.539062,0.0234 0.08203,0 0.210938,0 0.210938,-0.22266 0,-0.11719 -0.117188,-0.1289 -0.164063,-0.1289 -0.398437,-0.0117 -0.773437,-0.082 -0.773437,-0.50391 0,-0.12891 0,-0.14063 0.04687,-0.30469 l 1.652343,-6.58594 h 0.01172 l 0.984375,7.41797 c 0.03516,0.29297 0.04687,0.32813 0.152344,0.32813 0.140625,0 0.199219,-0.0937 0.257812,-0.19922 l 4.804688,-7.60547 h 0.01172 l -1.734375,6.92578 c -0.105469,0.41016 -0.128907,0.52735 -0.972657,0.52735 -0.222656,0 -0.339843,0 -0.339843,0.22265 0,0.12891 0.105468,0.12891 0.175781,0.12891 0.210937,0 0.445312,-0.0234 0.644531,-0.0234 h 1.417969 c 0.199219,0 0.445312,0.0234 0.65625,0.0234 0.09375,0 0.222656,0 0.222656,-0.22266 0,-0.1289 -0.105469,-0.1289 -0.28125,-0.1289 -0.738281,0 -0.738281,-0.0937 -0.738281,-0.21094 0,-0.0117 0,-0.0937 0.02344,-0.1875 z m 10.646485,-1.01954 c 0,-0.10546 -0.08203,-0.10546 -0.105469,-0.10546 -0.02344,0 -0.07031,0 -0.175781,0.11718 l -0.820313,1.00782 c -0.421875,-0.71485 -1.078125,-1.125 -1.96875,-1.125 -2.589844,0 -5.261719,2.61328 -5.261719,5.42578 0,1.99218 1.394532,3.23437 3.140625,3.23437 0.960938,0 1.792969,-0.39844 2.484375,-0.98437 1.042969,-0.87891 1.359375,-2.03907 1.359375,-2.13282 0,-0.10546 -0.09375,-0.10546 -0.140625,-0.10546 -0.105468,0 -0.117187,0.0703 -0.140625,0.11718 -0.550781,1.86328 -2.15625,2.76563 -3.351562,2.76563 -1.277344,0 -2.367188,-0.82031 -2.367188,-2.50781 0,-0.38672 0.117188,-2.46094 1.464844,-4.03125 0.65625,-0.76172 1.78125,-1.44141 2.917969,-1.44141 1.3125,0 1.898437,1.08984 1.898437,2.30859 0,0.31641 -0.03516,0.57422 -0.03516,0.6211 0,0.11718 0.117188,0.11718 0.152344,0.11718 0.140625,0 0.152344,-0.0117 0.199219,-0.23437 z m 9.152343,1.39454 c 0.128907,-0.50391 0.316407,-0.86719 1.230469,-0.90235 0.03516,0 0.175781,-0.0117 0.175781,-0.21094 0,-0.14062 -0.105468,-0.14062 -0.152343,-0.14062 -0.234375,0 -0.855469,0.0234 -1.089844,0.0234 h -0.574219 c -0.164062,0 -0.386719,-0.0234 -0.550781,-0.0234 -0.07031,0 -0.210938,0 -0.210938,0.23437 0,0.11719 0.09375,0.11719 0.175782,0.11719 0.714843,0.0234 0.761718,0.29297 0.761718,0.51563 0,0.10547 -0.01172,0.14062 -0.04687,0.30468 l -1.347656,5.39063 -2.554687,-6.35156 c -0.08203,-0.19922 -0.09375,-0.21094 -0.363282,-0.21094 h -1.453125 c -0.246093,0 -0.351562,0 -0.351562,0.23437 0,0.11719 0.08203,0.11719 0.316406,0.11719 0.05859,0 0.761719,0 0.761719,0.10547 0,0.0234 -0.02344,0.11719 -0.03516,0.15234 l -1.59375,6.33985 c -0.140625,0.58594 -0.421875,0.83203 -1.21875,0.86719 -0.05859,0 -0.175782,0.0117 -0.175782,0.23437 0,0.11719 0.117188,0.11719 0.152344,0.11719 0.246094,0 0.855469,-0.0234 1.089844,-0.0234 h 0.574219 c 0.164062,0 0.375,0.0234 0.539062,0.0234 0.08203,0 0.210938,0 0.210938,-0.22266 0,-0.11719 -0.117188,-0.1289 -0.164063,-0.1289 -0.398437,-0.0117 -0.773437,-0.082 -0.773437,-0.50391 0,-0.10547 0.02344,-0.21094 0.04687,-0.30469 l 1.605468,-6.39844 c 0.08203,0.12891 0.08203,0.15235 0.128907,0.25782 l 2.835937,7.08984 c 0.05859,0.14063 0.09375,0.21094 0.199219,0.21094 0.117187,0 0.128906,-0.0352 0.175781,-0.23438 z m 0,0"
         style="fill:#000000;fill-opacity:1;fill-rule:nonzero;stroke:none" />
      <path
         id="path22"
         d="m 37.373016,324.26734 c -0.05859,0.19921 -0.05859,0.22265 -0.222657,0.44531 -0.269531,0.33984 -0.796875,0.85547 -1.359375,0.85547 -0.480468,0 -0.761718,-0.44532 -0.761718,-1.14844 0,-0.65625 0.375,-1.99219 0.597656,-2.49609 0.410156,-0.84375 0.972656,-1.26563 1.441406,-1.26563 0.785156,0 0.9375,0.97266 0.9375,1.06641 0,0.0117 -0.03516,0.17578 -0.04687,0.19922 z m 0.761718,-3.07032 c -0.128906,-0.30468 -0.445312,-0.78515 -1.066406,-0.78515 -1.359375,0 -2.8125,1.74609 -2.8125,3.51562 0,1.1836 0.691406,1.875 1.5,1.875 0.65625,0 1.21875,-0.51562 1.558594,-0.90234 0.117187,0.70312 0.679687,0.90234 1.042969,0.90234 0.351562,0 0.644531,-0.21094 0.855468,-0.64453 0.1875,-0.41016 0.363282,-1.13672 0.363282,-1.18359 0,-0.0586 -0.04687,-0.10547 -0.117188,-0.10547 -0.117187,0 -0.128906,0.0586 -0.175781,0.23437 -0.175781,0.71485 -0.398438,1.46485 -0.890625,1.46485 -0.351563,0 -0.375,-0.31641 -0.375,-0.55078 0,-0.28125 0.03516,-0.41016 0.140625,-0.87891 0.08203,-0.29297 0.152344,-0.5625 0.246094,-0.90234 0.433593,-1.79297 0.550781,-2.22657 0.550781,-2.29688 0,-0.16406 -0.140625,-0.29297 -0.316406,-0.29297 -0.375,0 -0.480469,0.41016 -0.503907,0.55078 z m 0,0"
         style="fill:#000000;fill-opacity:1;fill-rule:nonzero;stroke:none" />
      <path
         id="path23"
         d="m 50.585906,317.69312 c 0.01172,-0.0469 0.03516,-0.12891 0.03516,-0.1875 0,-0.11719 -0.128907,-0.11719 -0.152344,-0.11719 -0.01172,0 -0.433594,0.0352 -0.65625,0.0586 -0.199219,0.0117 -0.375,0.0352 -0.597656,0.0469 -0.28125,0.0234 -0.363282,0.0351 -0.363282,0.25781 0,0.11719 0.117188,0.11719 0.234375,0.11719 0.609375,0 0.609375,0.10547 0.609375,0.22265 0,0.082 -0.09375,0.4336 -0.140625,0.64454 l -0.292968,1.14843 c -0.117188,0.48047 -0.796875,3.19922 -0.84375,3.41016 -0.05859,0.29297 -0.05859,0.50391 -0.05859,0.65625 0,1.21875 0.679687,1.85156 1.453125,1.85156 1.394531,0 2.824219,-1.78125 2.824219,-3.51562 0,-1.10157 -0.621094,-1.875 -1.511719,-1.875 -0.632813,0 -1.183594,0.51562 -1.417969,0.75 z m -0.761718,7.875 c -0.375,0 -0.796875,-0.29297 -0.796875,-1.21875 0,-0.39844 0.03516,-0.6211 0.246093,-1.46485 0.04687,-0.15234 0.234375,-0.91406 0.28125,-1.0664 0.02344,-0.10547 0.726563,-1.16016 1.535157,-1.16016 0.527343,0 0.773437,0.51563 0.773437,1.13672 0,0.57422 -0.339844,1.93359 -0.632812,2.55469 -0.304688,0.64453 -0.855469,1.21875 -1.40625,1.21875 z m 0,0"
         style="fill:#000000;fill-opacity:1;fill-rule:nonzero;stroke:none" />
      <path
         id="path24"
         d="m 65.374969,321.1853 c -0.234375,0 -0.339844,0 -0.503906,0.15235 -0.07031,0.0586 -0.199219,0.23437 -0.199219,0.42187 0,0.2461 0.175781,0.38672 0.398437,0.38672 0.292969,0 0.609375,-0.23437 0.609375,-0.71484 0,-0.57422 -0.550781,-1.01953 -1.371093,-1.01953 -1.570313,0 -3.128907,1.71093 -3.128907,3.41015 0,1.04297 0.644532,1.98047 1.863282,1.98047 1.628906,0 2.648437,-1.26562 2.648437,-1.41797 0,-0.0703 -0.07031,-0.1289 -0.117187,-0.1289 -0.03516,0 -0.04687,0.0117 -0.152344,0.11718 -0.761719,1.00782 -1.898438,1.19532 -2.355469,1.19532 -0.820312,0 -1.089844,-0.71485 -1.089844,-1.3125 0,-0.42188 0.199219,-1.58203 0.632813,-2.39063 0.316406,-0.5625 0.960937,-1.20703 1.710937,-1.20703 0.152344,0 0.808594,0.0234 1.054688,0.52734 z m 0,0"
         style="fill:#000000;fill-opacity:1;fill-rule:nonzero;stroke:none" />
      <path
         id="path25"
         d="m 79.648406,317.69312 c 0.01172,-0.0469 0.03516,-0.12891 0.03516,-0.1875 0,-0.11719 -0.117188,-0.11719 -0.140625,-0.11719 -0.01172,0 -0.597657,0.0469 -0.65625,0.0586 -0.210938,0.0117 -0.386719,0.0352 -0.597657,0.0469 -0.304687,0.0234 -0.386718,0.0351 -0.386718,0.25781 0,0.11719 0.09375,0.11719 0.269531,0.11719 0.585937,0 0.597656,0.10547 0.597656,0.22265 0,0.0703 -0.02344,0.17579 -0.03516,0.21094 l -0.738281,2.89453 c -0.128907,-0.30468 -0.445313,-0.78515 -1.066407,-0.78515 -1.359375,0 -2.8125,1.74609 -2.8125,3.51562 0,1.1836 0.691407,1.875 1.5,1.875 0.65625,0 1.21875,-0.51562 1.558594,-0.90234 0.117188,0.70312 0.679688,0.90234 1.042969,0.90234 0.351562,0 0.644531,-0.21094 0.855469,-0.64453 0.1875,-0.41016 0.363281,-1.13672 0.363281,-1.18359 0,-0.0586 -0.04687,-0.10547 -0.117188,-0.10547 -0.117187,0 -0.128906,0.0586 -0.175781,0.23437 -0.175781,0.71485 -0.398437,1.46485 -0.890625,1.46485 -0.351562,0 -0.375,-0.31641 -0.375,-0.55078 0,-0.0469 0,-0.30469 0.08203,-0.63282 z m -2.414062,6.57422 c -0.05859,0.19921 -0.05859,0.22265 -0.222656,0.44531 -0.269532,0.33984 -0.796875,0.85547 -1.359375,0.85547 -0.480469,0 -0.761719,-0.44532 -0.761719,-1.14844 0,-0.65625 0.375,-1.99219 0.597656,-2.49609 0.410156,-0.84375 0.972656,-1.26563 1.441406,-1.26563 0.785157,0 0.9375,0.97266 0.9375,1.06641 0,0.0117 -0.03516,0.17578 -0.04687,0.19922 z m 0,0"
         style="fill:#000000;fill-opacity:1;fill-rule:nonzero;stroke:none" />
      <path
         id="path26"
         d="m 89.767547,322.90796 c 0.316406,0 1.125,-0.0234 1.699219,-0.23437 0.914062,-0.35157 0.996093,-1.04297 0.996093,-1.25391 0,-0.52734 -0.457031,-1.00781 -1.242187,-1.00781 -1.253906,0 -3.058594,1.13672 -3.058594,3.26953 0,1.2539 0.714844,2.12109 1.804688,2.12109 1.628906,0 2.648437,-1.26562 2.648437,-1.41797 0,-0.0703 -0.07031,-0.1289 -0.117187,-0.1289 -0.03516,0 -0.04687,0.0117 -0.152344,0.11718 -0.761719,1.00782 -1.898438,1.19532 -2.355469,1.19532 -0.679687,0 -1.042969,-0.53907 -1.042969,-1.42969 0,-0.16406 0,-0.45703 0.1875,-1.23047 z m -0.574219,-0.23437 c 0.503906,-1.83985 1.640625,-2.01563 2.027344,-2.01563 0.527344,0 0.890625,0.30469 0.890625,0.76172 0,1.25391 -1.921875,1.25391 -2.425781,1.25391 z m 0,0"
         style="fill:#000000;fill-opacity:1;fill-rule:nonzero;stroke:none" />
      <path
         id="path27"
         d="m 106.27927,320.88062 c 0.23437,0 0.32812,0 0.32812,-0.22266 0,-0.12891 -0.0937,-0.12891 -0.30469,-0.12891 h -0.97265 c 0.23437,-1.23046 0.39843,-2.07421 0.49218,-2.46093 0.0703,-0.28125 0.32813,-0.5625 0.63282,-0.5625 0.25781,0 0.5039,0.10547 0.62109,0.22265 -0.46875,0.0469 -0.60937,0.38672 -0.60937,0.59766 0,0.23437 0.1875,0.375 0.41015,0.375 0.23438,0 0.59766,-0.19922 0.59766,-0.65625 0,-0.50391 -0.50391,-0.77344 -1.03125,-0.77344 -0.51563,0 -1.00781,0.38672 -1.25391,0.84375 -0.21094,0.42188 -0.32812,0.85547 -0.60937,2.41406 h -0.79688 c -0.23437,0 -0.35156,0 -0.35156,0.22266 0,0.12891 0.0703,0.12891 0.31641,0.12891 h 0.76171 c -0.21093,1.11328 -0.70312,3.80859 -0.98437,5.08593 -0.19922,1.04297 -0.375,1.92188 -0.97266,1.92188 -0.0352,0 -0.38672,0 -0.59765,-0.23438 0.60937,-0.0469 0.60937,-0.57421 0.60937,-0.58593 0,-0.23438 -0.1875,-0.375 -0.41015,-0.375 -0.23438,0 -0.59766,0.19922 -0.59766,0.65625 0,0.51562 0.52734,0.77343 0.99609,0.77343 1.21875,0 1.72266,-2.1914 1.85157,-2.78906 0.21093,-0.91406 0.79687,-4.08984 0.85546,-4.45312 z m 0,0"
         style="fill:#000000;fill-opacity:1;fill-rule:nonzero;stroke:none" />
      <path
         id="path28"
         d="m 134.54489,324.26734 c -0.0586,0.19921 -0.0586,0.22265 -0.22266,0.44531 -0.26953,0.33984 -0.79687,0.85547 -1.35937,0.85547 -0.48047,0 -0.76172,-0.44532 -0.76172,-1.14844 0,-0.65625 0.375,-1.99219 0.59766,-2.49609 0.41015,-0.84375 0.97265,-1.26563 1.4414,-1.26563 0.78516,0 0.9375,0.97266 0.9375,1.06641 0,0.0117 -0.0351,0.17578 -0.0469,0.19922 z m 0.76172,-3.07032 c -0.12891,-0.30468 -0.44531,-0.78515 -1.06641,-0.78515 -1.35937,0 -2.8125,1.74609 -2.8125,3.51562 0,1.1836 0.69141,1.875 1.5,1.875 0.65625,0 1.21875,-0.51562 1.5586,-0.90234 0.11718,0.70312 0.67968,0.90234 1.04297,0.90234 0.35156,0 0.64453,-0.21094 0.85546,-0.64453 0.1875,-0.41016 0.36329,-1.13672 0.36329,-1.18359 0,-0.0586 -0.0469,-0.10547 -0.11719,-0.10547 -0.11719,0 -0.12891,0.0586 -0.17578,0.23437 -0.17578,0.71485 -0.39844,1.46485 -0.89063,1.46485 -0.35156,0 -0.375,-0.31641 -0.375,-0.55078 0,-0.28125 0.0352,-0.41016 0.14063,-0.87891 0.082,-0.29297 0.15234,-0.5625 0.24609,-0.90234 0.43359,-1.79297 0.55078,-2.22657 0.55078,-2.29688 0,-0.16406 -0.14062,-0.29297 -0.3164,-0.29297 -0.375,0 -0.48047,0.41016 -0.50391,0.55078 z m 0,0"
         style="fill:#000000;fill-opacity:1;fill-rule:nonzero;stroke:none" />
      <path
         id="path29"
         d="m 148.15915,322.9314 c 0.17578,0 0.39844,0 0.39844,-0.23438 0,-0.23437 -0.22266,-0.23437 -0.39844,-0.23437 h -6.51563 c -0.16406,0 -0.38672,0 -0.38672,0.23437 0,0.23438 0.22266,0.23438 0.38672,0.23438 z m 0,0"
         style="fill:#000000;fill-opacity:1;fill-rule:nonzero;stroke:none" />
      <path
         id="path30"
         d="m 155.48923,317.69312 c 0.0117,-0.0469 0.0352,-0.12891 0.0352,-0.1875 0,-0.11719 -0.1289,-0.11719 -0.15234,-0.11719 -0.0117,0 -0.43359,0.0352 -0.65625,0.0586 -0.19922,0.0117 -0.375,0.0352 -0.59766,0.0469 -0.28125,0.0234 -0.36328,0.0351 -0.36328,0.25781 0,0.11719 0.11719,0.11719 0.23438,0.11719 0.60937,0 0.60937,0.10547 0.60937,0.22265 0,0.082 -0.0937,0.4336 -0.14062,0.64454 l -0.29297,1.14843 c -0.11719,0.48047 -0.79688,3.19922 -0.84375,3.41016 -0.0586,0.29297 -0.0586,0.50391 -0.0586,0.65625 0,1.21875 0.67969,1.85156 1.45313,1.85156 1.39453,0 2.82422,-1.78125 2.82422,-3.51562 0,-1.10157 -0.6211,-1.875 -1.51172,-1.875 -0.63281,0 -1.18359,0.51562 -1.41797,0.75 z m -0.76172,7.875 c -0.375,0 -0.79688,-0.29297 -0.79688,-1.21875 0,-0.39844 0.0352,-0.6211 0.2461,-1.46485 0.0469,-0.15234 0.23437,-0.91406 0.28125,-1.0664 0.0234,-0.10547 0.72656,-1.16016 1.53515,-1.16016 0.52735,0 0.77344,0.51563 0.77344,1.13672 0,0.57422 -0.33984,1.93359 -0.63281,2.55469 -0.30469,0.64453 -0.85547,1.21875 -1.40625,1.21875 z m 0,0"
         style="fill:#000000;fill-opacity:1;fill-rule:nonzero;stroke:none" />
      <path
         id="path31"
         d="m 168.36813,317.69312 c 0.0117,-0.0469 0.0352,-0.12891 0.0352,-0.1875 0,-0.11719 -0.12891,-0.11719 -0.15234,-0.11719 -0.0117,0 -0.4336,0.0352 -0.65625,0.0586 -0.19922,0.0117 -0.375,0.0352 -0.59766,0.0469 -0.28125,0.0234 -0.36328,0.0351 -0.36328,0.25781 0,0.11719 0.11719,0.11719 0.23437,0.11719 0.60938,0 0.60938,0.10547 0.60938,0.22265 0,0.082 -0.0937,0.4336 -0.14063,0.64454 l -0.29297,1.14843 c -0.11718,0.48047 -0.79687,3.19922 -0.84375,3.41016 -0.0586,0.29297 -0.0586,0.50391 -0.0586,0.65625 0,1.21875 0.67969,1.85156 1.45313,1.85156 1.39453,0 2.82421,-1.78125 2.82421,-3.51562 0,-1.10157 -0.62109,-1.875 -1.51171,-1.875 -0.63282,0 -1.1836,0.51562 -1.41797,0.75 z m -0.76172,7.875 c -0.375,0 -0.79687,-0.29297 -0.79687,-1.21875 0,-0.39844 0.0352,-0.6211 0.24609,-1.46485 0.0469,-0.15234 0.23438,-0.91406 0.28125,-1.0664 0.0234,-0.10547 0.72657,-1.16016 1.53516,-1.16016 0.52734,0 0.77344,0.51563 0.77344,1.13672 0,0.57422 -0.33985,1.93359 -0.63282,2.55469 -0.30468,0.64453 -0.85546,1.21875 -1.40625,1.21875 z m 0,0"
         style="fill:#000000;fill-opacity:1;fill-rule:nonzero;stroke:none" />
      <path
         id="path32"
         d="m 181.64548,322.9314 c 0.17578,0 0.39843,0 0.39843,-0.23438 0,-0.23437 -0.22265,-0.23437 -0.39843,-0.23437 h -6.51563 c -0.16406,0 -0.38672,0 -0.38672,0.23437 0,0.23438 0.22266,0.23438 0.38672,0.23438 z m 0,0"
         style="fill:#000000;fill-opacity:1;fill-rule:nonzero;stroke:none" />
      <path
         id="path33"
         d="m 190.88864,321.1853 c -0.23437,0 -0.33984,0 -0.50391,0.15235 -0.0703,0.0586 -0.19921,0.23437 -0.19921,0.42187 0,0.2461 0.17578,0.38672 0.39843,0.38672 0.29297,0 0.60938,-0.23437 0.60938,-0.71484 0,-0.57422 -0.55078,-1.01953 -1.3711,-1.01953 -1.57031,0 -3.1289,1.71093 -3.1289,3.41015 0,1.04297 0.64453,1.98047 1.86328,1.98047 1.62891,0 2.64844,-1.26562 2.64844,-1.41797 0,-0.0703 -0.0703,-0.1289 -0.11719,-0.1289 -0.0352,0 -0.0469,0.0117 -0.15234,0.11718 -0.76172,1.00782 -1.89844,1.19532 -2.35547,1.19532 -0.82032,0 -1.08985,-0.71485 -1.08985,-1.3125 0,-0.42188 0.19922,-1.58203 0.63282,-2.39063 0.3164,-0.5625 0.96093,-1.20703 1.71093,-1.20703 0.15235,0 0.8086,0.0234 1.05469,0.52734 z m 0,0"
         style="fill:#000000;fill-opacity:1;fill-rule:nonzero;stroke:none" />
      <path
         id="path34"
         d="m 203.82614,321.1853 c -0.23437,0 -0.33984,0 -0.50391,0.15235 -0.0703,0.0586 -0.19921,0.23437 -0.19921,0.42187 0,0.2461 0.17578,0.38672 0.39843,0.38672 0.29297,0 0.60938,-0.23437 0.60938,-0.71484 0,-0.57422 -0.55078,-1.01953 -1.3711,-1.01953 -1.57031,0 -3.1289,1.71093 -3.1289,3.41015 0,1.04297 0.64453,1.98047 1.86328,1.98047 1.62891,0 2.64844,-1.26562 2.64844,-1.41797 0,-0.0703 -0.0703,-0.1289 -0.11719,-0.1289 -0.0352,0 -0.0469,0.0117 -0.15234,0.11718 -0.76172,1.00782 -1.89844,1.19532 -2.35547,1.19532 -0.82032,0 -1.08985,-0.71485 -1.08985,-1.3125 0,-0.42188 0.19922,-1.58203 0.63282,-2.39063 0.3164,-0.5625 0.96093,-1.20703 1.71093,-1.20703 0.15235,0 0.8086,0.0234 1.05469,0.52734 z m 0,0"
         style="fill:#000000;fill-opacity:1;fill-rule:nonzero;stroke:none" />
      <path
         id="path35"
         d="m 215.25485,322.9314 c 0.17578,0 0.39844,0 0.39844,-0.23438 0,-0.23437 -0.22266,-0.23437 -0.39844,-0.23437 h -6.51562 c -0.16407,0 -0.38672,0 -0.38672,0.23437 0,0.23438 0.22265,0.23438 0.38672,0.23438 z m 0,0"
         style="fill:#000000;fill-opacity:1;fill-rule:nonzero;stroke:none" />
      <path
         id="path36"
         d="m 225.83395,317.69312 c 0.0117,-0.0469 0.0352,-0.12891 0.0352,-0.1875 0,-0.11719 -0.11719,-0.11719 -0.14063,-0.11719 -0.0117,0 -0.59765,0.0469 -0.65625,0.0586 -0.21093,0.0117 -0.38671,0.0352 -0.59765,0.0469 -0.30469,0.0234 -0.38672,0.0351 -0.38672,0.25781 0,0.11719 0.0937,0.11719 0.26953,0.11719 0.58594,0 0.59766,0.10547 0.59766,0.22265 0,0.0703 -0.0234,0.17579 -0.0352,0.21094 l -0.73828,2.89453 c -0.12891,-0.30468 -0.44531,-0.78515 -1.06641,-0.78515 -1.35937,0 -2.8125,1.74609 -2.8125,3.51562 0,1.1836 0.69141,1.875 1.5,1.875 0.65625,0 1.21875,-0.51562 1.5586,-0.90234 0.11718,0.70312 0.67968,0.90234 1.04297,0.90234 0.35156,0 0.64453,-0.21094 0.85546,-0.64453 0.1875,-0.41016 0.36329,-1.13672 0.36329,-1.18359 0,-0.0586 -0.0469,-0.10547 -0.11719,-0.10547 -0.11719,0 -0.12891,0.0586 -0.17578,0.23437 -0.17578,0.71485 -0.39844,1.46485 -0.89063,1.46485 -0.35156,0 -0.375,-0.31641 -0.375,-0.55078 0,-0.0469 0,-0.30469 0.082,-0.63282 z m -2.41406,6.57422 c -0.0586,0.19921 -0.0586,0.22265 -0.22266,0.44531 -0.26953,0.33984 -0.79687,0.85547 -1.35937,0.85547 -0.48047,0 -0.76172,-0.44532 -0.76172,-1.14844 0,-0.65625 0.375,-1.99219 0.59766,-2.49609 0.41015,-0.84375 0.97265,-1.26563 1.4414,-1.26563 0.78516,0 0.9375,0.97266 0.9375,1.06641 0,0.0117 -0.0351,0.17578 -0.0469,0.19922 z m 0,0"
         style="fill:#000000;fill-opacity:1;fill-rule:nonzero;stroke:none" />
      <path
         id="path37"
         d="m 239.81735,317.69312 c 0.0117,-0.0469 0.0352,-0.12891 0.0352,-0.1875 0,-0.11719 -0.11719,-0.11719 -0.14063,-0.11719 -0.0117,0 -0.59765,0.0469 -0.65625,0.0586 -0.21093,0.0117 -0.38672,0.0352 -0.59765,0.0469 -0.30469,0.0234 -0.38672,0.0351 -0.38672,0.25781 0,0.11719 0.0937,0.11719 0.26953,0.11719 0.58594,0 0.59766,0.10547 0.59766,0.22265 0,0.0703 -0.0234,0.17579 -0.0352,0.21094 l -0.73828,2.89453 c -0.12891,-0.30468 -0.44531,-0.78515 -1.06641,-0.78515 -1.35937,0 -2.8125,1.74609 -2.8125,3.51562 0,1.1836 0.69141,1.875 1.5,1.875 0.65625,0 1.21875,-0.51562 1.5586,-0.90234 0.11718,0.70312 0.67968,0.90234 1.04296,0.90234 0.35157,0 0.64454,-0.21094 0.85547,-0.64453 0.1875,-0.41016 0.36328,-1.13672 0.36328,-1.18359 0,-0.0586 -0.0469,-0.10547 -0.11718,-0.10547 -0.11719,0 -0.12891,0.0586 -0.17578,0.23437 -0.17579,0.71485 -0.39844,1.46485 -0.89063,1.46485 -0.35156,0 -0.375,-0.31641 -0.375,-0.55078 0,-0.0469 0,-0.30469 0.082,-0.63282 z m -2.41406,6.57422 c -0.0586,0.19921 -0.0586,0.22265 -0.22266,0.44531 -0.26953,0.33984 -0.79687,0.85547 -1.35937,0.85547 -0.48047,0 -0.76172,-0.44532 -0.76172,-1.14844 0,-0.65625 0.375,-1.99219 0.59766,-2.49609 0.41015,-0.84375 0.97265,-1.26563 1.4414,-1.26563 0.78516,0 0.9375,0.97266 0.9375,1.06641 0,0.0117 -0.0352,0.17578 -0.0469,0.19922 z m 0,0"
         style="fill:#000000;fill-opacity:1;fill-rule:nonzero;stroke:none" />
      <path
         id="path38"
         d="m 250.95309,322.9314 c 0.17579,0 0.39844,0 0.39844,-0.23438 0,-0.23437 -0.22265,-0.23437 -0.39844,-0.23437 h -6.51562 c -0.16406,0 -0.38672,0 -0.38672,0.23437 0,0.23438 0.22266,0.23438 0.38672,0.23438 z m 0,0"
         style="fill:#000000;fill-opacity:1;fill-rule:nonzero;stroke:none" />
      <path
         id="path39"
         d="m 257.66208,322.90796 c 0.3164,0 1.125,-0.0234 1.69922,-0.23437 0.91406,-0.35157 0.99609,-1.04297 0.99609,-1.25391 0,-0.52734 -0.45703,-1.00781 -1.24219,-1.00781 -1.2539,0 -3.05859,1.13672 -3.05859,3.26953 0,1.2539 0.71484,2.12109 1.80469,2.12109 1.6289,0 2.64843,-1.26562 2.64843,-1.41797 0,-0.0703 -0.0703,-0.1289 -0.11718,-0.1289 -0.0352,0 -0.0469,0.0117 -0.15235,0.11718 -0.76172,1.00782 -1.89843,1.19532 -2.35547,1.19532 -0.67968,0 -1.04296,-0.53907 -1.04296,-1.42969 0,-0.16406 0,-0.45703 0.1875,-1.23047 z m -0.57422,-0.23437 c 0.50391,-1.83985 1.64062,-2.01563 2.02734,-2.01563 0.52735,0 0.89063,0.30469 0.89063,0.76172 0,1.25391 -1.92188,1.25391 -2.42578,1.25391 z m 0,0"
         style="fill:#000000;fill-opacity:1;fill-rule:nonzero;stroke:none" />
      <path
         id="path40"
         d="m 270.98923,322.90796 c 0.3164,0 1.125,-0.0234 1.69922,-0.23437 0.91406,-0.35157 0.99609,-1.04297 0.99609,-1.25391 0,-0.52734 -0.45703,-1.00781 -1.24219,-1.00781 -1.2539,0 -3.05859,1.13672 -3.05859,3.26953 0,1.2539 0.71484,2.12109 1.80469,2.12109 1.6289,0 2.64843,-1.26562 2.64843,-1.41797 0,-0.0703 -0.0703,-0.1289 -0.11718,-0.1289 -0.0352,0 -0.0469,0.0117 -0.15235,0.11718 -0.76172,1.00782 -1.89844,1.19532 -2.35547,1.19532 -0.67968,0 -1.04297,-0.53907 -1.04297,-1.42969 0,-0.16406 0,-0.45703 0.1875,-1.23047 z m -0.57422,-0.23437 c 0.5039,-1.83985 1.64062,-2.01563 2.02734,-2.01563 0.52735,0 0.89063,0.30469 0.89063,0.76172 0,1.25391 -1.92188,1.25391 -2.42578,1.25391 z m 0,0"
         style="fill:#000000;fill-opacity:1;fill-rule:nonzero;stroke:none" />
      <path
         id="path41"
         d="m 285.33591,322.9314 c 0.17578,0 0.39843,0 0.39843,-0.23438 0,-0.23437 -0.22265,-0.23437 -0.39843,-0.23437 h -6.51563 c -0.16406,0 -0.38672,0 -0.38672,0.23437 0,0.23438 0.22266,0.23438 0.38672,0.23438 z m 0,0"
         style="fill:#000000;fill-opacity:1;fill-rule:nonzero;stroke:none" />
      <path
         id="path42"
         d="m 295.23532,320.88062 c 0.23438,0 0.32813,0 0.32813,-0.22266 0,-0.12891 -0.0937,-0.12891 -0.30469,-0.12891 h -0.97266 c 0.23438,-1.23046 0.39844,-2.07421 0.49219,-2.46093 0.0703,-0.28125 0.32812,-0.5625 0.63281,-0.5625 0.25781,0 0.50391,0.10547 0.6211,0.22265 -0.46875,0.0469 -0.60938,0.38672 -0.60938,0.59766 0,0.23437 0.1875,0.375 0.41016,0.375 0.23437,0 0.59765,-0.19922 0.59765,-0.65625 0,-0.50391 -0.5039,-0.77344 -1.03125,-0.77344 -0.51562,0 -1.00781,0.38672 -1.2539,0.84375 -0.21094,0.42188 -0.32813,0.85547 -0.60938,2.41406 h -0.79687 c -0.23438,0 -0.35157,0 -0.35157,0.22266 0,0.12891 0.0703,0.12891 0.31641,0.12891 h 0.76172 c -0.21094,1.11328 -0.70313,3.80859 -0.98438,5.08593 -0.19921,1.04297 -0.375,1.92188 -0.97265,1.92188 -0.0352,0 -0.38672,0 -0.59766,-0.23438 0.60938,-0.0469 0.60938,-0.57421 0.60938,-0.58593 0,-0.23438 -0.1875,-0.375 -0.41016,-0.375 -0.23437,0 -0.59766,0.19922 -0.59766,0.65625 0,0.51562 0.52735,0.77343 0.9961,0.77343 1.21875,0 1.72265,-2.1914 1.85156,-2.78906 0.21094,-0.91406 0.79688,-4.08984 0.85547,-4.45312 z m 0,0"
         style="fill:#000000;fill-opacity:1;fill-rule:nonzero;stroke:none" />
      <path
         id="path43"
         d="m 310.18259,320.88062 c 0.23437,0 0.32812,0 0.32812,-0.22266 0,-0.12891 -0.0937,-0.12891 -0.30469,-0.12891 h -0.97265 c 0.23437,-1.23046 0.39843,-2.07421 0.49218,-2.46093 0.0703,-0.28125 0.32813,-0.5625 0.63282,-0.5625 0.25781,0 0.5039,0.10547 0.62109,0.22265 -0.46875,0.0469 -0.60937,0.38672 -0.60937,0.59766 0,0.23437 0.1875,0.375 0.41015,0.375 0.23438,0 0.59766,-0.19922 0.59766,-0.65625 0,-0.50391 -0.50391,-0.77344 -1.03125,-0.77344 -0.51563,0 -1.00781,0.38672 -1.25391,0.84375 -0.21094,0.42188 -0.32812,0.85547 -0.60937,2.41406 h -0.79688 c -0.23437,0 -0.35156,0 -0.35156,0.22266 0,0.12891 0.0703,0.12891 0.31641,0.12891 h 0.76171 c -0.21093,1.11328 -0.70312,3.80859 -0.98437,5.08593 -0.19922,1.04297 -0.375,1.92188 -0.97266,1.92188 -0.0352,0 -0.38672,0 -0.59765,-0.23438 0.60937,-0.0469 0.60937,-0.57421 0.60937,-0.58593 0,-0.23438 -0.1875,-0.375 -0.41015,-0.375 -0.23438,0 -0.59766,0.19922 -0.59766,0.65625 0,0.51562 0.52734,0.77343 0.99609,0.77343 1.21875,0 1.72266,-2.1914 1.85157,-2.78906 0.21093,-0.91406 0.79687,-4.08984 0.85546,-4.45312 z m 0,0"
         style="fill:#000000;fill-opacity:1;fill-rule:nonzero;stroke:none" />
      <path
         id="path44"
         d="m 322.96188,322.9314 c 0.17578,0 0.39844,0 0.39844,-0.23438 0,-0.23437 -0.22266,-0.23437 -0.39844,-0.23437 h -6.51562 c -0.16406,0 -0.38672,0 -0.38672,0.23437 0,0.23438 0.22266,0.23438 0.38672,0.23438 z m 0,0"
         style="fill:#000000;fill-opacity:1;fill-rule:nonzero;stroke:none" />
      <path
         id="path45"
         d="m 331.12692,324.26734 c -0.0586,0.19921 -0.0586,0.22265 -0.22265,0.44531 -0.26954,0.33984 -0.79688,0.85547 -1.35938,0.85547 -0.48047,0 -0.76172,-0.44532 -0.76172,-1.14844 0,-0.65625 0.375,-1.99219 0.59766,-2.49609 0.41015,-0.84375 0.97265,-1.26563 1.4414,-1.26563 0.78516,0 0.9375,0.97266 0.9375,1.06641 0,0.0117 -0.0351,0.17578 -0.0469,0.19922 z m 0.76172,-3.07032 c -0.12891,-0.30468 -0.44531,-0.78515 -1.06641,-0.78515 -1.35937,0 -2.8125,1.74609 -2.8125,3.51562 0,1.1836 0.69141,1.875 1.5,1.875 0.65625,0 1.21875,-0.51562 1.5586,-0.90234 0.11719,0.70312 0.67969,0.90234 1.04297,0.90234 0.35156,0 0.64453,-0.21094 0.85547,-0.64453 0.1875,-0.41016 0.36328,-1.13672 0.36328,-1.18359 0,-0.0586 -0.0469,-0.10547 -0.11719,-0.10547 -0.11719,0 -0.12891,0.0586 -0.17578,0.23437 -0.17578,0.71485 -0.39844,1.46485 -0.89063,1.46485 -0.35156,0 -0.375,-0.31641 -0.375,-0.55078 0,-0.28125 0.0352,-0.41016 0.14063,-0.87891 0.082,-0.29297 0.15234,-0.5625 0.24609,-0.90234 0.4336,-1.79297 0.55078,-2.22657 0.55078,-2.29688 0,-0.16406 -0.14062,-0.29297 -0.3164,-0.29297 -0.375,0 -0.48047,0.41016 -0.50391,0.55078 z m 0,0"
         style="fill:#000000;fill-opacity:1;fill-rule:nonzero;stroke:none" />
      <path
         id="path46"
         d="m 45.429656,402.98218 c 0,-0.82031 0.222657,-2.71875 1.992188,-3.97266 0.128906,-0.10547 0.140625,-0.10547 0.140625,-0.29297 0,-0.22265 -0.01172,-0.23437 -0.257813,-0.23437 h -0.152343 c -2.144532,1.14844 -2.917969,3.03516 -2.917969,4.5 v 4.28906 c 0,0.25781 0.01172,0.26953 0.28125,0.26953 h 0.644531 c 0.269531,0 0.269531,-0.0117 0.269531,-0.26953 z m 0,18.01465 c 0,-1.20703 -0.503906,-3.23438 -2.730468,-4.59375 2.25,-1.35938 2.730468,-3.42188 2.730468,-4.59375 v -4.20703 c 0,-0.25782 0,-0.26953 -0.269531,-0.26953 h -0.644531 c -0.269531,0 -0.28125,0.0117 -0.28125,0.26953 v 4.21875 c 0,0.83203 -0.175781,2.90625 -2.003906,4.30078 -0.117188,0.0937 -0.117188,0.10547 -0.117188,0.28125 0,0.17578 0,0.1875 0.117188,0.28125 0.257812,0.19922 0.9375,0.72656 1.417968,1.73437 0.386719,0.79688 0.585938,1.67578 0.585938,2.56641 v 4.21875 c 0,0.25781 0.01172,0.26953 0.28125,0.26953 h 0.644531 c 0.269531,0 0.269531,-0.0117 0.269531,-0.26953 z m 0,4.53808 c 0,-0.25781 0,-0.26953 -0.269531,-0.26953 h -0.644531 c -0.269531,0 -0.28125,0.0117 -0.28125,0.26953 v 4.28907 c 0,1.47656 0.773437,3.35156 2.917969,4.5 h 0.152343 c 0.246094,0 0.257813,-0.0117 0.257813,-0.23438 0,-0.1875 -0.01172,-0.1875 -0.04687,-0.22265 -0.304688,-0.22266 -1.019531,-0.73829 -1.488281,-1.65235 -0.398438,-0.76172 -0.597657,-1.52344 -0.597657,-2.39062 z m 0,0"
         style="fill:#000000;fill-opacity:1;fill-rule:nonzero;stroke:none" />
      <path
         id="path47"
         d="m 54.927703,406.32788 c -0.375,0.0703 -0.515625,0.35157 -0.515625,0.58594 0,0.28125 0.222656,0.375 0.386719,0.375 0.363281,0 0.609375,-0.30469 0.609375,-0.63281 0,-0.49219 -0.574219,-0.72656 -1.078125,-0.72656 -0.726563,0 -1.125,0.71484 -1.242188,0.94921 -0.269531,-0.90234 -1.007812,-0.94921 -1.230468,-0.94921 -1.21875,0 -1.863282,1.57031 -1.863282,1.82812 0,0.0469 0.04687,0.10547 0.128907,0.10547 0.105468,0 0.128906,-0.0703 0.152343,-0.11719 0.398438,-1.32422 1.207032,-1.57031 1.546875,-1.57031 0.539063,0 0.644532,0.49219 0.644532,0.78516 0,0.25781 -0.07031,0.53906 -0.210938,1.11328 -0.1875,0.76172 -0.234375,0.9375 -0.410156,1.6289 -0.175781,0.72657 -0.527344,1.38282 -1.160156,1.38282 -0.05859,0 -0.351563,0 -0.609375,-0.15235 0.433593,-0.0937 0.527343,-0.44531 0.527343,-0.58594 0,-0.24609 -0.175781,-0.38671 -0.398437,-0.38671 -0.292969,0 -0.597656,0.24609 -0.597656,0.63281 0,0.5039 0.5625,0.72656 1.066406,0.72656 0.574219,0 0.984375,-0.45703 1.230469,-0.9375 0.199218,0.70313 0.796875,0.9375 1.230468,0.9375 1.230469,0 1.875,-1.55859 1.875,-1.82812 0,-0.0586 -0.04687,-0.10547 -0.128906,-0.10547 -0.105469,0 -0.117187,0.0586 -0.152344,0.15234 -0.316406,1.05469 -1.019531,1.54688 -1.546875,1.54688 -0.421875,0 -0.65625,-0.31641 -0.65625,-0.8086 0,-0.25781 0.05859,-0.44531 0.246094,-1.24219 0.140625,-0.55078 0.292969,-1.18359 0.421875,-1.61718 0.175781,-0.72657 0.585938,-1.24219 1.125,-1.24219 0.03516,0 0.363281,0 0.609375,0.15234 z m 0,0"
         style="fill:#000000;fill-opacity:1;fill-rule:nonzero;stroke:none" />
      <path
         id="path48"
         d="m 58.170867,405.23511 c 0.128906,-0.11719 0.457031,-0.375 0.585938,-0.49219 0.492187,-0.45703 0.960937,-0.89062 0.960937,-1.61719 0,-0.94921 -0.796875,-1.55859 -1.792969,-1.55859 -0.949218,0 -1.582031,0.72656 -1.582031,1.42969 0,0.39844 0.316406,0.44531 0.421875,0.44531 0.164063,0 0.410156,-0.11719 0.410156,-0.42187 0,-0.41016 -0.398437,-0.41016 -0.492187,-0.41016 0.234375,-0.58594 0.773437,-0.78516 1.160156,-0.78516 0.738281,0 1.125,0.63282 1.125,1.30078 0,0.83204 -0.585937,1.42969 -1.523437,2.40235 l -1.007813,1.03125 c -0.09375,0.0937 -0.09375,0.10547 -0.09375,0.30469 h 3.152344 l 0.222656,-1.42969 h -0.246094 c -0.02344,0.16406 -0.08203,0.5625 -0.175781,0.71484 -0.04687,0.0586 -0.65625,0.0586 -0.785156,0.0586 h -1.417969 z m 0,0"
         style="fill:#000000;fill-opacity:1;fill-rule:nonzero;stroke:none" />
      <path
         id="path49"
         d="m 68.07907,408.43726 h 3.304688 c 0.164062,0 0.375,0 0.375,-0.21094 0,-0.22266 -0.199219,-0.22266 -0.375,-0.22266 H 68.07907 v -3.30468 c 0,-0.16407 0,-0.38672 -0.210937,-0.38672 -0.234375,0 -0.234375,0.21094 -0.234375,0.38672 v 3.30468 h -3.292969 c -0.175781,0 -0.386719,0 -0.386719,0.21094 0,0.22266 0.199219,0.22266 0.386719,0.22266 h 3.292969 v 3.30469 c 0,0.16406 0,0.38671 0.222656,0.38671 0.222656,0 0.222656,-0.21093 0.222656,-0.38671 z m 0,0"
         style="fill:#000000;fill-opacity:1;fill-rule:nonzero;stroke:none" />
      <path
         id="path50"
         d="m 80.732391,406.32788 c -0.375,0.0703 -0.515625,0.35157 -0.515625,0.58594 0,0.28125 0.222656,0.375 0.386718,0.375 0.363282,0 0.609375,-0.30469 0.609375,-0.63281 0,-0.49219 -0.574218,-0.72656 -1.078125,-0.72656 -0.726562,0 -1.125,0.71484 -1.242187,0.94921 -0.269531,-0.90234 -1.007813,-0.94921 -1.230469,-0.94921 -1.21875,0 -1.863281,1.57031 -1.863281,1.82812 0,0.0469 0.04687,0.10547 0.128906,0.10547 0.105469,0 0.128906,-0.0703 0.152344,-0.11719 0.398437,-1.32422 1.207031,-1.57031 1.546875,-1.57031 0.539062,0 0.644531,0.49219 0.644531,0.78516 0,0.25781 -0.07031,0.53906 -0.210937,1.11328 -0.1875,0.76172 -0.234375,0.9375 -0.410157,1.6289 -0.175781,0.72657 -0.527343,1.38282 -1.160156,1.38282 -0.05859,0 -0.351562,0 -0.609375,-0.15235 0.433594,-0.0937 0.527344,-0.44531 0.527344,-0.58594 0,-0.24609 -0.175781,-0.38671 -0.398438,-0.38671 -0.292968,0 -0.597656,0.24609 -0.597656,0.63281 0,0.5039 0.5625,0.72656 1.066406,0.72656 0.574219,0 0.984375,-0.45703 1.230469,-0.9375 0.199219,0.70313 0.796875,0.9375 1.230469,0.9375 1.230469,0 1.875,-1.55859 1.875,-1.82812 0,-0.0586 -0.04687,-0.10547 -0.128906,-0.10547 -0.105469,0 -0.117188,0.0586 -0.152344,0.15234 -0.316406,1.05469 -1.019531,1.54688 -1.546875,1.54688 -0.421875,0 -0.65625,-0.31641 -0.65625,-0.8086 0,-0.25781 0.05859,-0.44531 0.246094,-1.24219 0.140625,-0.55078 0.292968,-1.18359 0.421875,-1.61718 0.175781,-0.72657 0.585937,-1.24219 1.125,-1.24219 0.03516,0 0.363281,0 0.609375,0.15234 z m 0,0"
         style="fill:#000000;fill-opacity:1;fill-rule:nonzero;stroke:none" />
      <path
         id="path51"
         d="m 89.149383,408.43726 h 3.304687 c 0.164063,0 0.375,0 0.375,-0.21094 0,-0.22266 -0.199218,-0.22266 -0.375,-0.22266 h -3.304687 v -3.30468 c 0,-0.16407 0,-0.38672 -0.210938,-0.38672 -0.234375,0 -0.234375,0.21094 -0.234375,0.38672 v 3.30468 h -3.292968 c -0.175782,0 -0.386719,0 -0.386719,0.21094 0,0.22266 0.199219,0.22266 0.386719,0.22266 h 3.292968 v 3.30469 c 0,0.16406 0,0.38671 0.222657,0.38671 0.222656,0 0.222656,-0.21093 0.222656,-0.38671 z m 0,0"
         style="fill:#000000;fill-opacity:1;fill-rule:nonzero;stroke:none" />
      <path
         id="path52"
         d="m 99.280242,412.53882 c -0.316406,0.45703 -0.785156,0.86719 -1.371094,0.86719 -0.140625,0 -0.714843,-0.0234 -0.902343,-0.57422 0.04687,0.0117 0.105468,0.0117 0.128906,0.0117 0.351562,0 0.597656,-0.31641 0.597656,-0.58594 0,-0.28125 -0.234375,-0.375 -0.410156,-0.375 -0.1875,0 -0.609375,0.14063 -0.609375,0.72656 0,0.60938 0.515625,1.03125 1.195312,1.03125 1.195313,0 2.402342,-1.10156 2.742192,-2.42578 l 1.17187,-4.66406 c 0.0117,-0.0586 0.0352,-0.12891 0.0352,-0.19922 0,-0.17578 -0.15235,-0.30469 -0.32813,-0.30469 -0.10547,0 -0.36328,0.0469 -0.45703,0.41016 l -0.87891,3.51562 c -0.0586,0.21094 -0.0586,0.23438 -0.15234,0.375 -0.246093,0.32813 -0.64453,0.73829 -1.20703,0.73829 -0.679688,0 -0.738282,-0.65625 -0.738282,-0.98438 0,-0.67969 0.328125,-1.60547 0.644532,-2.46094 0.140625,-0.35156 0.210937,-0.51562 0.210937,-0.75 0,-0.5039 -0.363281,-0.96093 -0.949219,-0.96093 -1.101562,0 -1.535156,1.73437 -1.535156,1.82812 0,0.0469 0.04687,0.10547 0.128906,0.10547 0.105469,0 0.117188,-0.0469 0.164063,-0.21094 0.292969,-1.00781 0.738281,-1.47656 1.207031,-1.47656 0.105469,0 0.316406,0 0.316406,0.38672 0,0.3164 -0.140625,0.65625 -0.316406,1.11328 -0.585937,1.57031 -0.585937,1.95703 -0.585937,2.25 0,1.13672 0.808593,1.39453 1.40625,1.39453 0.351562,0 0.785156,-0.10547 1.195312,-0.55078 l 0.01172,0.0117 c -0.175781,0.70312 -0.292969,1.17187 -0.714844,1.75781 z m 0,0"
         style="fill:#000000;fill-opacity:1;fill-rule:nonzero;stroke:none" />
      <path
         id="path53"
         d="m 113.6738,407.3357 c 0.16406,0 0.375,0 0.375,-0.22266 0,-0.22266 -0.19922,-0.22266 -0.375,-0.22266 h -7.04297 c -0.17578,0 -0.38672,0 -0.38672,0.21094 0,0.23438 0.19922,0.23438 0.38672,0.23438 z m 0,2.21484 c 0.16406,0 0.375,0 0.375,-0.21094 0,-0.23437 -0.19922,-0.23437 -0.375,-0.23437 h -7.04297 c -0.17578,0 -0.38672,0 -0.38672,0.22265 0,0.22266 0.19922,0.22266 0.38672,0.22266 z m 0,0"
         style="fill:#000000;fill-opacity:1;fill-rule:nonzero;stroke:none" />
      <path
         id="path54"
         d="m 121.16501,412.53882 c -0.31641,0.45703 -0.78516,0.86719 -1.3711,0.86719 -0.14062,0 -0.71484,-0.0234 -0.90234,-0.57422 0.0469,0.0117 0.10547,0.0117 0.12891,0.0117 0.35156,0 0.59765,-0.31641 0.59765,-0.58594 0,-0.28125 -0.23437,-0.375 -0.41015,-0.375 -0.1875,0 -0.60938,0.14063 -0.60938,0.72656 0,0.60938 0.51563,1.03125 1.19531,1.03125 1.19532,0 2.40235,-1.10156 2.74219,-2.42578 l 1.17188,-4.66406 c 0.0117,-0.0586 0.0351,-0.12891 0.0351,-0.19922 0,-0.17578 -0.15234,-0.30469 -0.32812,-0.30469 -0.10547,0 -0.36328,0.0469 -0.45703,0.41016 l -0.87891,3.51562 c -0.0586,0.21094 -0.0586,0.23438 -0.15234,0.375 -0.2461,0.32813 -0.64453,0.73829 -1.20703,0.73829 -0.67969,0 -0.73829,-0.65625 -0.73829,-0.98438 0,-0.67969 0.32813,-1.60547 0.64454,-2.46094 0.14062,-0.35156 0.21093,-0.51562 0.21093,-0.75 0,-0.5039 -0.36328,-0.96093 -0.94922,-0.96093 -1.10156,0 -1.53515,1.73437 -1.53515,1.82812 0,0.0469 0.0469,0.10547 0.1289,0.10547 0.10547,0 0.11719,-0.0469 0.16407,-0.21094 0.29297,-1.00781 0.73828,-1.47656 1.20703,-1.47656 0.10547,0 0.3164,0 0.3164,0.38672 0,0.3164 -0.14062,0.65625 -0.3164,1.11328 -0.58594,1.57031 -0.58594,1.95703 -0.58594,2.25 0,1.13672 0.80859,1.39453 1.40625,1.39453 0.35156,0 0.78516,-0.10547 1.19531,-0.55078 l 0.0117,0.0117 c -0.17578,0.70312 -0.29297,1.17187 -0.71484,1.75781 z m 0,0"
         style="fill:#000000;fill-opacity:1;fill-rule:nonzero;stroke:none" />
      <path
         id="path55"
         d="m 126.1777,404.20386 c 0.63282,0 1.03125,0.45703 1.03125,1.30078 0,0.99609 -0.57422,1.28906 -0.99609,1.28906 -0.43359,0 -1.03125,-0.16406 -1.3125,-0.58593 0.29297,0 0.49219,-0.17579 0.49219,-0.44532 0,-0.25781 -0.1875,-0.43359 -0.44532,-0.43359 -0.21093,0 -0.43359,0.12891 -0.43359,0.45703 0,0.75 0.80859,1.24219 1.72266,1.24219 1.05468,0 1.79297,-0.72656 1.79297,-1.52344 0,-0.66797 -0.51563,-1.26562 -1.33594,-1.44141 0.63281,-0.22265 1.10156,-0.77343 1.10156,-1.40625 0,-0.63281 -0.71484,-1.08984 -1.54687,-1.08984 -0.85547,0 -1.5,0.45703 -1.5,1.06641 0,0.29297 0.19921,0.42187 0.41015,0.42187 0.2461,0 0.41016,-0.17578 0.41016,-0.41015 0,-0.29297 -0.25781,-0.39844 -0.4336,-0.41016 0.33985,-0.43359 0.94922,-0.46875 1.08985,-0.46875 0.21094,0 0.80859,0.0703 0.80859,0.89062 0,0.5625 -0.22265,0.89063 -0.33984,1.01954 -0.23438,0.24609 -0.42188,0.25781 -0.90235,0.29296 -0.15234,0.0117 -0.22265,0.0234 -0.22265,0.11719 0,0.11719 0.0703,0.11719 0.21094,0.11719 z m 0,0"
         style="fill:#000000;fill-opacity:1;fill-rule:nonzero;stroke:none" />
      <path
         id="path56"
         d="m 52.408172,429.87378 c -0.316406,0.45703 -0.785156,0.86719 -1.371094,0.86719 -0.140625,0 -0.714844,-0.0234 -0.902344,-0.57422 0.04687,0.0117 0.105469,0.0117 0.128907,0.0117 0.351562,0 0.597656,-0.31641 0.597656,-0.58594 0,-0.28125 -0.234375,-0.375 -0.410156,-0.375 -0.1875,0 -0.609375,0.14063 -0.609375,0.72656 0,0.60938 0.515625,1.03125 1.195312,1.03125 1.195313,0 2.402344,-1.10156 2.742188,-2.42578 l 1.171875,-4.66406 c 0.01172,-0.0586 0.03516,-0.12891 0.03516,-0.19922 0,-0.17578 -0.152344,-0.30469 -0.328125,-0.30469 -0.105469,0 -0.363281,0.0469 -0.457031,0.41016 l -0.878907,3.51563 c -0.05859,0.21093 -0.05859,0.23437 -0.152343,0.375 -0.246094,0.32812 -0.644532,0.73828 -1.207032,0.73828 -0.679687,0 -0.738281,-0.65625 -0.738281,-0.98438 0,-0.67969 0.328125,-1.60547 0.644531,-2.46094 0.140625,-0.35156 0.210938,-0.51562 0.210938,-0.75 0,-0.5039 -0.363281,-0.96093 -0.949219,-0.96093 -1.101562,0 -1.535156,1.73437 -1.535156,1.82812 0,0.0469 0.04687,0.10547 0.128906,0.10547 0.105469,0 0.117188,-0.0469 0.164063,-0.21094 0.292968,-1.00781 0.738281,-1.47656 1.207031,-1.47656 0.105469,0 0.316406,0 0.316406,0.38672 0,0.31641 -0.140625,0.65625 -0.316406,1.11328 -0.585938,1.57031 -0.585938,1.95703 -0.585938,2.25 0,1.13672 0.808594,1.39453 1.40625,1.39453 0.351563,0 0.785157,-0.10547 1.195313,-0.55078 l 0.01172,0.0117 c -0.175782,0.70312 -0.292969,1.17187 -0.714844,1.75781 z m 0,0"
         style="fill:#000000;fill-opacity:1;fill-rule:nonzero;stroke:none" />
      <path
         id="path57"
         d="m 57.655242,422.57007 c 0.128906,-0.11719 0.457031,-0.375 0.585938,-0.49219 0.492187,-0.45703 0.960937,-0.89062 0.960937,-1.61718 0,-0.94922 -0.796875,-1.5586 -1.792969,-1.5586 -0.949218,0 -1.582031,0.72656 -1.582031,1.42969 0,0.39844 0.316406,0.44531 0.421875,0.44531 0.164063,0 0.410156,-0.11719 0.410156,-0.42187 0,-0.41016 -0.398437,-0.41016 -0.492187,-0.41016 0.234375,-0.58594 0.773437,-0.78516 1.160156,-0.78516 0.738281,0 1.125,0.63282 1.125,1.30079 0,0.83203 -0.585937,1.42968 -1.523437,2.40234 l -1.007813,1.03125 c -0.09375,0.0937 -0.09375,0.10547 -0.09375,0.30469 h 3.152344 l 0.222656,-1.42969 h -0.246094 c -0.02344,0.16406 -0.08203,0.5625 -0.175781,0.71484 -0.04687,0.0586 -0.65625,0.0586 -0.785156,0.0586 h -1.417969 z m 0,0"
         style="fill:#000000;fill-opacity:1;fill-rule:nonzero;stroke:none" />
      <path
         id="path58"
         d="m 67.563445,425.77222 h 3.304688 c 0.164062,0 0.375,0 0.375,-0.21094 0,-0.22265 -0.199219,-0.22265 -0.375,-0.22265 h -3.304688 v -3.30469 c 0,-0.16406 0,-0.38672 -0.210937,-0.38672 -0.234375,0 -0.234375,0.21094 -0.234375,0.38672 v 3.30469 h -3.292969 c -0.175781,0 -0.386719,0 -0.386719,0.21093 0,0.22266 0.199219,0.22266 0.386719,0.22266 h 3.292969 v 3.30469 c 0,0.16406 0,0.38672 0.222656,0.38672 0.222656,0 0.222656,-0.21094 0.222656,-0.38672 z m 0,0"
         style="fill:#000000;fill-opacity:1;fill-rule:nonzero;stroke:none" />
      <path
         id="path59"
         d="m 77.697234,429.87378 c -0.316406,0.45703 -0.785156,0.86719 -1.371093,0.86719 -0.140625,0 -0.714844,-0.0234 -0.902344,-0.57422 0.04687,0.0117 0.105469,0.0117 0.128906,0.0117 0.351563,0 0.597656,-0.31641 0.597656,-0.58594 0,-0.28125 -0.234375,-0.375 -0.410156,-0.375 -0.1875,0 -0.609375,0.14063 -0.609375,0.72656 0,0.60938 0.515625,1.03125 1.195313,1.03125 1.195312,0 2.402343,-1.10156 2.742187,-2.42578 l 1.171875,-4.66406 c 0.01172,-0.0586 0.03516,-0.12891 0.03516,-0.19922 0,-0.17578 -0.152343,-0.30469 -0.328125,-0.30469 -0.105468,0 -0.363281,0.0469 -0.457031,0.41016 l -0.878906,3.51563 c -0.05859,0.21093 -0.05859,0.23437 -0.152344,0.375 -0.246094,0.32812 -0.644531,0.73828 -1.207031,0.73828 -0.679688,0 -0.738281,-0.65625 -0.738281,-0.98438 0,-0.67969 0.328125,-1.60547 0.644531,-2.46094 0.140625,-0.35156 0.210937,-0.51562 0.210937,-0.75 0,-0.5039 -0.363281,-0.96093 -0.949218,-0.96093 -1.101563,0 -1.535157,1.73437 -1.535157,1.82812 0,0.0469 0.04687,0.10547 0.128907,0.10547 0.105468,0 0.117187,-0.0469 0.164062,-0.21094 0.292969,-1.00781 0.738281,-1.47656 1.207031,-1.47656 0.105469,0 0.316407,0 0.316407,0.38672 0,0.31641 -0.140625,0.65625 -0.316407,1.11328 -0.585937,1.57031 -0.585937,1.95703 -0.585937,2.25 0,1.13672 0.808594,1.39453 1.40625,1.39453 0.351562,0 0.785156,-0.10547 1.195312,-0.55078 l 0.01172,0.0117 c -0.175781,0.70312 -0.292969,1.17187 -0.714844,1.75781 z m 0,0"
         style="fill:#000000;fill-opacity:1;fill-rule:nonzero;stroke:none" />
      <path
         id="path60"
         d="m 88.118133,425.77222 h 3.304687 c 0.164063,0 0.375,0 0.375,-0.21094 0,-0.22265 -0.199218,-0.22265 -0.375,-0.22265 h -3.304687 v -3.30469 c 0,-0.16406 0,-0.38672 -0.210938,-0.38672 -0.234375,0 -0.234375,0.21094 -0.234375,0.38672 v 3.30469 h -3.292968 c -0.175782,0 -0.386719,0 -0.386719,0.21093 0,0.22266 0.199219,0.22266 0.386719,0.22266 h 3.292968 v 3.30469 c 0,0.16406 0,0.38672 0.222657,0.38672 0.222656,0 0.222656,-0.21094 0.222656,-0.38672 z m 0,0"
         style="fill:#000000;fill-opacity:1;fill-rule:nonzero;stroke:none" />
      <path
         id="path61"
         d="m 100.77145,423.66284 c -0.375,0.0703 -0.51562,0.35157 -0.51562,0.58594 0,0.28125 0.22265,0.375 0.38672,0.375 0.36328,0 0.60937,-0.30469 0.60937,-0.63281 0,-0.49219 -0.57422,-0.72656 -1.07812,-0.72656 -0.726566,0 -1.125003,0.71484 -1.242191,0.94922 -0.269531,-0.90235 -1.007812,-0.94922 -1.230468,-0.94922 -1.21875,0 -1.863282,1.57031 -1.863282,1.82812 0,0.0469 0.04687,0.10547 0.128907,0.10547 0.105468,0 0.128906,-0.0703 0.152343,-0.11719 0.398438,-1.32422 1.207032,-1.57031 1.546875,-1.57031 0.539063,0 0.644532,0.49219 0.644532,0.78516 0,0.25781 -0.07031,0.53906 -0.210938,1.11328 -0.1875,0.76172 -0.234375,0.9375 -0.410156,1.6289 -0.175781,0.72657 -0.527344,1.38282 -1.160156,1.38282 -0.05859,0 -0.351563,0 -0.609375,-0.15235 0.433593,-0.0937 0.527343,-0.44531 0.527343,-0.58593 0,-0.2461 -0.175781,-0.38672 -0.398437,-0.38672 -0.292969,0 -0.597656,0.24609 -0.597656,0.63281 0,0.50391 0.5625,0.72656 1.066406,0.72656 0.574219,0 0.984375,-0.45703 1.230469,-0.9375 0.199218,0.70313 0.796875,0.9375 1.230468,0.9375 1.230466,0 1.874996,-1.55859 1.874996,-1.82812 0,-0.0586 -0.0469,-0.10547 -0.1289,-0.10547 -0.10547,0 -0.11719,0.0586 -0.15235,0.15234 -0.3164,1.05469 -1.019527,1.54688 -1.546871,1.54688 -0.421875,0 -0.65625,-0.31641 -0.65625,-0.8086 0,-0.25781 0.05859,-0.44531 0.246094,-1.24218 0.140625,-0.55079 0.292969,-1.1836 0.421875,-1.61719 0.175781,-0.72656 0.585938,-1.24219 1.125002,-1.24219 0.0352,0 0.36328,0 0.60937,0.15234 z m 0,0"
         style="fill:#000000;fill-opacity:1;fill-rule:nonzero;stroke:none" />
      <path
         id="path62"
         d="m 113.15817,424.67066 c 0.16406,0 0.375,0 0.375,-0.22266 0,-0.22266 -0.19922,-0.22266 -0.375,-0.22266 h -7.04297 c -0.17578,0 -0.38672,0 -0.38672,0.21094 0,0.23438 0.19922,0.23438 0.38672,0.23438 z m 0,2.21484 c 0.16406,0 0.375,0 0.375,-0.21094 0,-0.23437 -0.19922,-0.23437 -0.375,-0.23437 h -7.04297 c -0.17578,0 -0.38672,0 -0.38672,0.22265 0,0.22266 0.19922,0.22266 0.38672,0.22266 z m 0,0"
         style="fill:#000000;fill-opacity:1;fill-rule:nonzero;stroke:none" />
      <path
         id="path63"
         d="m 123.16891,423.66284 c -0.375,0.0703 -0.51562,0.35157 -0.51562,0.58594 0,0.28125 0.22266,0.375 0.38672,0.375 0.36328,0 0.60937,-0.30469 0.60937,-0.63281 0,-0.49219 -0.57422,-0.72656 -1.07812,-0.72656 -0.72656,0 -1.125,0.71484 -1.24219,0.94922 -0.26953,-0.90235 -1.00781,-0.94922 -1.23047,-0.94922 -1.21875,0 -1.86328,1.57031 -1.86328,1.82812 0,0.0469 0.0469,0.10547 0.12891,0.10547 0.10547,0 0.1289,-0.0703 0.15234,-0.11719 0.39844,-1.32422 1.20703,-1.57031 1.54688,-1.57031 0.53906,0 0.64453,0.49219 0.64453,0.78516 0,0.25781 -0.0703,0.53906 -0.21094,1.11328 -0.1875,0.76172 -0.23438,0.9375 -0.41016,1.6289 -0.17578,0.72657 -0.52734,1.38282 -1.16015,1.38282 -0.0586,0 -0.35157,0 -0.60938,-0.15235 0.4336,-0.0937 0.52735,-0.44531 0.52735,-0.58593 0,-0.2461 -0.17579,-0.38672 -0.39844,-0.38672 -0.29297,0 -0.59766,0.24609 -0.59766,0.63281 0,0.50391 0.5625,0.72656 1.06641,0.72656 0.57422,0 0.98437,-0.45703 1.23047,-0.9375 0.19922,0.70313 0.79687,0.9375 1.23047,0.9375 1.23046,0 1.875,-1.55859 1.875,-1.82812 0,-0.0586 -0.0469,-0.10547 -0.12891,-0.10547 -0.10547,0 -0.11719,0.0586 -0.15234,0.15234 -0.31641,1.05469 -1.01954,1.54688 -1.54688,1.54688 -0.42187,0 -0.65625,-0.31641 -0.65625,-0.8086 0,-0.25781 0.0586,-0.44531 0.24609,-1.24218 0.14063,-0.55079 0.29297,-1.1836 0.42188,-1.61719 0.17578,-0.72656 0.58594,-1.24219 1.125,-1.24219 0.0352,0 0.36328,0 0.60937,0.15234 z m 0,0"
         style="fill:#000000;fill-opacity:1;fill-rule:nonzero;stroke:none" />
      <path
         id="path64"
         d="m 126.1777,421.53882 c 0.63282,0 1.03125,0.45703 1.03125,1.30078 0,0.9961 -0.57422,1.28906 -0.99609,1.28906 -0.43359,0 -1.03125,-0.16406 -1.3125,-0.58593 0.29297,0 0.49219,-0.17578 0.49219,-0.44532 0,-0.25781 -0.1875,-0.43359 -0.44532,-0.43359 -0.21093,0 -0.43359,0.12891 -0.43359,0.45703 0,0.75 0.80859,1.24219 1.72266,1.24219 1.05468,0 1.79297,-0.72656 1.79297,-1.52344 0,-0.66797 -0.51563,-1.26562 -1.33594,-1.4414 0.63281,-0.22266 1.10156,-0.77344 1.10156,-1.40625 0,-0.63282 -0.71484,-1.08985 -1.54687,-1.08985 -0.85547,0 -1.5,0.45703 -1.5,1.06641 0,0.29297 0.19921,0.42187 0.41015,0.42187 0.2461,0 0.41016,-0.17578 0.41016,-0.41015 0,-0.29297 -0.25781,-0.39844 -0.4336,-0.41016 0.33985,-0.43359 0.94922,-0.46875 1.08985,-0.46875 0.21094,0 0.80859,0.0703 0.80859,0.89063 0,0.5625 -0.22265,0.89062 -0.33984,1.01953 -0.23438,0.24609 -0.42188,0.25781 -0.90235,0.29297 -0.15234,0.0117 -0.22265,0.0234 -0.22265,0.11718 0,0.11719 0.0703,0.11719 0.21094,0.11719 z m 0,0"
         style="fill:#000000;fill-opacity:1;fill-rule:nonzero;stroke:none" />
      <path
         id="path65"
         d="m 131.09665,427.96363 c 0,-0.35157 -0.29297,-0.58594 -0.57422,-0.58594 -0.35156,0 -0.58594,0.29297 -0.58594,0.57422 0,0.35156 0.28125,0.58593 0.57422,0.58593 0.33984,0 0.58594,-0.28125 0.58594,-0.57421 z m 0,0"
         style="fill:#000000;fill-opacity:1;fill-rule:nonzero;stroke:none" />
    </g>
  </g>
</svg>
