<?xml version="1.0" encoding="UTF-8" standalone="no"?>
<!-- Created with Inkscape (http://www.inkscape.org/) -->

<svg
   version="1.1"
   id="svg1"
   width="794.55066"
   height="1123.6533"
   viewBox="0 0 794.55066 1123.6533"
   sodipodi:docname="LigaMatematycznaMatuskiego_Liceum_Zestaw2_2012_2013_page0.pdf"
   xmlns:inkscape="http://www.inkscape.org/namespaces/inkscape"
   xmlns:sodipodi="http://sodipodi.sourceforge.net/DTD/sodipodi-0.dtd"
   xmlns="http://www.w3.org/2000/svg"
   xmlns:svg="http://www.w3.org/2000/svg">
  <defs
     id="defs1" />
  <sodipodi:namedview
     id="namedview1"
     pagecolor="#ffffff"
     bordercolor="#000000"
     borderopacity="0.25"
     inkscape:showpageshadow="2"
     inkscape:pageopacity="0.0"
     inkscape:pagecheckerboard="0"
     inkscape:deskcolor="#d1d1d1">
    <inkscape:page
       x="0"
       y="0"
       inkscape:label="1"
       id="page1"
       width="794.55066"
       height="1123.6533"
       margin="0"
       bleed="0" />
  </sodipodi:namedview>
  <g
     id="g1"
     inkscape:groupmode="layer"
     inkscape:label="1">
    <g
       id="g2"
       aria-label="LIGAMATEMATYCZNA&#10;im.ZdzisªawaMatuskiego&#10;LISTOPAD2012&#10;SZKOAPONADGIMNAZJALNA&#10;ZADANIE1.&#10;Wyka»,»etrójk¡tprostok¡tnyobokachb¦d¡cychliczbamicaªkowitymimaobwód,któryjest&#10;liczb¡parzyst¡.&#10;ZADANIE2.&#10;Wyznaczwszystkiefunkcjef:R→Rspeªniaj¡cewarunek&#10;f(x+y)−f(x−y)=f(x)f(y)&#10;dlaka»dychliczbrzeczywistychx,y.&#10;ZADANIE3.&#10;Wprostok¡cieobokach10i20wybrano401punktów.Wyka»,»eistniejekwadratoboku1,&#10;doktóregonale»¡conajmniejtrzyspo±róddanychpunktów.&#10;ZADANIE4.&#10;Kwadratopolu144cm&#10;2&#10;mawspóln¡przek¡tn¡zprostok¡tem.Cz¦±¢wspólnakwadratuipro-&#10;stok¡tamapole96cm&#10;2&#10;.Obliczpoleprostok¡ta.&#10;ZADANIE5.&#10;Sumadzielnikówpewnejliczbynaturalnejn,bezliczby1ibezdzielnikab¦d¡cegoliczb¡n,jest&#10;równa41.Znajd¹liczb¦nwiedz¡c,»erozkªadasi¦natrzyczynnikipierwsze,ajednymznich&#10;jestliczba5."
       transform="matrix(1.3333333,0,0,1.3333333,274.724,56.069333)">
      <path
         id="path2"
         d="m -1.3428047,175.12573 c 0.234375,0 0.328125,0 0.328125,-0.22265 0,-0.12891 -0.09375,-0.12891 -0.3046875,-0.12891 h -0.9726562 c 0.234375,-1.23047 0.3984375,-2.07422 0.4921875,-2.46094 0.070312,-0.28125 0.328125,-0.5625 0.6328125,-0.5625 0.25781246,0 0.50390621,0.10547 0.62109371,0.22266 -0.46875001,0.0469 -0.60937501,0.38672 -0.60937501,0.59766 0,0.23437 0.18750001,0.375 0.41015626,0.375 0.234375,0 0.59765625,-0.19922 0.59765625,-0.65625 0,-0.50391 -0.50390625,-0.77344 -1.03125001,-0.77344 -0.515625,0 -1.0078125,0.38672 -1.2539062,0.84375 -0.2109375,0.42187 -0.328125,0.85547 -0.609375,2.41406 h -0.796875 c -0.234375,0 -0.3515625,0 -0.3515625,0.22266 0,0.1289 0.070312,0.1289 0.3164062,0.1289 h 0.7617188 c -0.2109375,1.11329 -0.703125,3.8086 -0.984375,5.08594 -0.1992188,1.04297 -0.375,1.92188 -0.9726563,1.92188 -0.035156,0 -0.3867187,0 -0.5976562,-0.23438 0.609375,-0.0469 0.609375,-0.57422 0.609375,-0.58594 0,-0.23437 -0.1875,-0.375 -0.4101563,-0.375 -0.234375,0 -0.5976562,0.19922 -0.5976562,0.65625 0,0.51563 0.5273437,0.77344 0.9960937,0.77344 1.21875,0 1.7226563,-2.1914 1.8515625,-2.78906 0.2109375,-0.91406 0.796875,-4.08984 0.8554688,-4.45313 z m 0,0"
         style="fill:#000000;fill-opacity:1;fill-rule:nonzero;stroke:none" />
      <path
         id="path3"
         d="m 3.9013359,175.34839 c 0,-0.31641 -0.28125,-0.57422 -0.5742187,-0.57422 -0.3515625,0 -0.5859375,0.28125 -0.5859375,0.57422 0,0.36328 0.2929687,0.58594 0.5742187,0.58594 0.3164063,0 0.5859375,-0.2461 0.5859375,-0.58594 z m 0,3.99609 c 0,-0.32812 -0.28125,-0.57421 -0.5742187,-0.57421 -0.3515625,0 -0.5859375,0.28125 -0.5859375,0.57421 0,0.36329 0.2929687,0.58594 0.5742187,0.58594 0.3164063,0 0.5859375,-0.24609 0.5859375,-0.58594 z m 0,0"
         style="fill:#000000;fill-opacity:1;fill-rule:nonzero;stroke:none" />
      <path
         id="path4"
         d="m 12.133758,176.18042 h 0.433594 l 1.792968,2.76563 c 0.117188,0.19922 0.410157,0.65625 0.539063,0.84375 0.08203,0.14062 0.117187,0.14062 0.398437,0.14062 h 1.640625 c 0.222657,0 0.398438,0 0.398438,-0.21094 0,-0.10546 -0.07031,-0.1875 -0.175781,-0.21093 -0.445313,-0.0937 -1.03125,-0.87891 -1.3125,-1.26563 -0.09375,-0.11719 -0.691407,-0.90234 -1.488282,-2.20312 1.066407,-0.1875 2.097657,-0.64453 2.097657,-2.0625 0,-1.66407 -1.757813,-2.23828 -3.175782,-2.23828 H 9.5321953 c -0.2109375,0 -0.4101562,0 -0.4101562,0.22265 0,0.19922 0.234375,0.19922 0.328125,0.19922 0.6796879,0 0.7382809,0.082 0.7382809,0.67969 v 5.98828 c 0,0.59766 -0.05859,0.67969 -0.7382809,0.67969 -0.09375,0 -0.328125,0 -0.328125,0.21093 0,0.21094 0.1992187,0.21094 0.4101562,0.21094 h 3.2695317 c 0.222656,0 0.398437,0 0.398437,-0.21094 0,-0.21093 -0.199219,-0.21093 -0.328125,-0.21093 -0.691406,0 -0.738281,-0.0937 -0.738281,-0.67969 z m 2.308594,-0.58594 c 0.339843,-0.44531 0.375,-1.07812 0.375,-1.60546 0,-0.57422 -0.07031,-1.20704 -0.457032,-1.69922 0.492188,0.10547 1.675782,0.48047 1.675782,1.6875 0,0.77343 -0.363282,1.38281 -1.59375,1.61718 z m -2.308594,-2.78906 c 0,-0.24609 0,-0.64453 0.75,-0.64453 1.007812,0 1.511719,0.42188 1.511719,1.82813 0,1.54687 -0.363282,1.76953 -2.261719,1.76953 z m -1.617188,6.70313 c 0.09375,-0.21094 0.09375,-0.55078 0.09375,-0.65625 v -6.03516 c 0,-0.11719 0,-0.44531 -0.09375,-0.65625 h 1.359375 c -0.152343,0.1875 -0.152343,0.43359 -0.152343,0.60938 v 6.08203 c 0,0.11718 0,0.44531 0.09375,0.65625 z m 2.542969,-3.32813 c 0.08203,-0.0117 0.128906,-0.0234 0.222656,-0.0234 0.1875,0 0.445313,-0.0234 0.621094,-0.0469 0.1875,0.28125 1.476563,2.41406 2.460938,3.39844 h -1.148438 z m 0,0"
         style="fill:#000000;fill-opacity:1;fill-rule:nonzero;stroke:none" />
      <path
         id="path5"
         d="m 30.86325,177.17652 c -0.65625,0.5039 -0.984375,0.99609 -1.078125,1.14843 -0.539062,0.83203 -0.632812,1.58203 -0.632812,1.59375 0,0.14063 0.140625,0.14063 0.234375,0.14063 0.210937,0 0.222656,-0.0234 0.269531,-0.23438 0.269531,-1.17187 0.972656,-2.17968 2.332031,-2.73047 0.140625,-0.0469 0.175781,-0.0703 0.175781,-0.15234 0,-0.082 -0.07031,-0.11719 -0.09375,-0.12891 -0.527343,-0.21093 -1.980468,-0.80859 -2.425781,-2.8125 -0.03516,-0.14062 -0.04687,-0.17578 -0.257812,-0.17578 -0.09375,0 -0.234375,0 -0.234375,0.14063 0,0.0234 0.105468,0.77344 0.609375,1.58203 0.234375,0.35156 0.585937,0.77344 1.101562,1.16016 h -8.882812 c -0.222657,0 -0.433594,0 -0.433594,0.23437 0,0.23438 0.210937,0.23438 0.433594,0.23438 z m 0,0"
         style="fill:#000000;fill-opacity:1;fill-rule:nonzero;stroke:none" />
      <path
         id="path6"
         d="m 39.365203,176.18042 h 0.433594 l 1.792969,2.76563 c 0.117187,0.19922 0.410156,0.65625 0.539062,0.84375 0.08203,0.14062 0.117188,0.14062 0.398438,0.14062 h 1.640625 c 0.222656,0 0.398437,0 0.398437,-0.21094 0,-0.10546 -0.07031,-0.1875 -0.175781,-0.21093 -0.445313,-0.0937 -1.03125,-0.87891 -1.3125,-1.26563 -0.09375,-0.11719 -0.691406,-0.90234 -1.488281,-2.20312 1.066406,-0.1875 2.097656,-0.64453 2.097656,-2.0625 0,-1.66407 -1.757813,-2.23828 -3.175781,-2.23828 h -3.75 c -0.210938,0 -0.410157,0 -0.410157,0.22265 0,0.19922 0.234375,0.19922 0.328125,0.19922 0.679688,0 0.738282,0.082 0.738282,0.67969 v 5.98828 c 0,0.59766 -0.05859,0.67969 -0.738282,0.67969 -0.09375,0 -0.328125,0 -0.328125,0.21093 0,0.21094 0.199219,0.21094 0.410157,0.21094 h 3.269531 c 0.222656,0 0.398437,0 0.398437,-0.21094 0,-0.21093 -0.199218,-0.21093 -0.328125,-0.21093 -0.691406,0 -0.738281,-0.0937 -0.738281,-0.67969 z m 2.308594,-0.58594 c 0.339844,-0.44531 0.375,-1.07812 0.375,-1.60546 0,-0.57422 -0.07031,-1.20704 -0.457031,-1.69922 0.492187,0.10547 1.675781,0.48047 1.675781,1.6875 0,0.77343 -0.363281,1.38281 -1.59375,1.61718 z m -2.308594,-2.78906 c 0,-0.24609 0,-0.64453 0.75,-0.64453 1.007813,0 1.511719,0.42188 1.511719,1.82813 0,1.54687 -0.363281,1.76953 -2.261719,1.76953 z m -1.617187,6.70313 c 0.09375,-0.21094 0.09375,-0.55078 0.09375,-0.65625 v -6.03516 c 0,-0.11719 0,-0.44531 -0.09375,-0.65625 h 1.359375 c -0.152344,0.1875 -0.152344,0.43359 -0.152344,0.60938 v 6.08203 c 0,0.11718 0,0.44531 0.09375,0.65625 z m 2.542968,-3.32813 c 0.08203,-0.0117 0.128907,-0.0234 0.222657,-0.0234 0.1875,0 0.445312,-0.0234 0.621093,-0.0469 0.1875,0.28125 1.476563,2.41406 2.460938,3.39844 h -1.148438 z m 0,0"
         style="fill:#000000;fill-opacity:1;fill-rule:nonzero;stroke:none" />
      <path
         id="path7"
         d="m 16.879852,202.96948 c 0.234375,0 0.328125,0 0.328125,-0.22265 0,-0.12891 -0.09375,-0.12891 -0.304688,-0.12891 h -0.972656 c 0.234375,-1.23047 0.398437,-2.07422 0.492187,-2.46094 0.07031,-0.28125 0.328125,-0.5625 0.632813,-0.5625 0.257812,0 0.503906,0.10547 0.621094,0.22266 -0.46875,0.0469 -0.609375,0.38672 -0.609375,0.59766 0,0.23437 0.1875,0.375 0.410156,0.375 0.234375,0 0.597656,-0.19922 0.597656,-0.65625 0,-0.50391 -0.503906,-0.77344 -1.03125,-0.77344 -0.515625,0 -1.007812,0.38672 -1.253906,0.84375 -0.210938,0.42187 -0.328125,0.85547 -0.609375,2.41406 h -0.796875 c -0.234375,0 -0.351563,0 -0.351563,0.22266 0,0.1289 0.07031,0.1289 0.316407,0.1289 h 0.761718 c -0.210937,1.11329 -0.703125,3.8086 -0.984375,5.08594 -0.199218,1.04297 -0.375,1.92188 -0.972656,1.92188 -0.03516,0 -0.386719,0 -0.597656,-0.23438 0.609375,-0.0469 0.609375,-0.57422 0.609375,-0.58594 0,-0.23437 -0.1875,-0.375 -0.410156,-0.375 -0.234375,0 -0.597657,0.19922 -0.597657,0.65625 0,0.51563 0.527344,0.77344 0.996094,0.77344 1.21875,0 1.722656,-2.1914 1.851563,-2.78906 0.210937,-0.91406 0.796875,-4.08984 0.855468,-4.45313 z m 0,0"
         style="fill:#000000;fill-opacity:1;fill-rule:nonzero;stroke:none" />
      <path
         id="path8"
         d="m 22.487273,210.68042 c 0,-0.0351 0,-0.0586 -0.210937,-0.26953 -1.195313,-1.20703 -1.863281,-3.17578 -1.863281,-5.61328 0,-2.32031 0.5625,-4.3125 1.945312,-5.73047 0.128906,-0.10547 0.128906,-0.12891 0.128906,-0.16406 0,-0.0703 -0.07031,-0.0937 -0.117187,-0.0937 -0.152344,0 -1.136719,0.85547 -1.722656,2.02734 -0.609375,1.20703 -0.878907,2.4961 -0.878907,3.96094 0,1.06641 0.164063,2.48437 0.785157,3.76172 0.703125,1.4414 1.6875,2.21484 1.816406,2.21484 0.04687,0 0.117187,-0.0234 0.117187,-0.0937 z m 0,0"
         style="fill:#000000;fill-opacity:1;fill-rule:nonzero;stroke:none" />
      <path
         id="path9"
         d="m 28.809539,202.89917 c -0.375,0.0703 -0.515625,0.35156 -0.515625,0.58594 0,0.28125 0.222656,0.375 0.386719,0.375 0.363281,0 0.609375,-0.30469 0.609375,-0.63281 0,-0.49219 -0.574219,-0.72657 -1.078125,-0.72657 -0.726563,0 -1.125,0.71485 -1.242188,0.94922 -0.269531,-0.90234 -1.007812,-0.94922 -1.230468,-0.94922 -1.21875,0 -1.863282,1.57032 -1.863282,1.82813 0,0.0469 0.04687,0.10547 0.128907,0.10547 0.105468,0 0.128906,-0.0703 0.152343,-0.11719 0.398438,-1.32422 1.207032,-1.57031 1.546875,-1.57031 0.539063,0 0.644532,0.49219 0.644532,0.78515 0,0.25782 -0.07031,0.53907 -0.210938,1.11329 l -0.410156,1.6289 c -0.175781,0.72656 -0.527344,1.38281 -1.160156,1.38281 -0.05859,0 -0.351563,0 -0.609375,-0.15234 0.433593,-0.0937 0.527343,-0.44531 0.527343,-0.58594 0,-0.24609 -0.175781,-0.38672 -0.398437,-0.38672 -0.292969,0 -0.597656,0.2461 -0.597656,0.63282 0,0.5039 0.5625,0.72656 1.066406,0.72656 0.574219,0 0.984375,-0.45703 1.230469,-0.9375 0.199218,0.70312 0.796875,0.9375 1.230468,0.9375 1.230469,0 1.875,-1.55859 1.875,-1.82813 0,-0.0586 -0.04687,-0.10546 -0.128906,-0.10546 -0.105469,0 -0.117187,0.0586 -0.152344,0.15234 -0.316406,1.05469 -1.019531,1.54687 -1.546875,1.54687 -0.421875,0 -0.65625,-0.3164 -0.65625,-0.80859 0,-0.25781 0.05859,-0.44531 0.246094,-1.24219 l 0.421875,-1.61718 c 0.175781,-0.72657 0.585938,-1.24219 1.125,-1.24219 0.03516,0 0.363281,0 0.609375,0.15234 z m 0,0"
         style="fill:#000000;fill-opacity:1;fill-rule:nonzero;stroke:none" />
      <path
         id="path10"
         d="m 37.226531,205.00855 h 3.304688 c 0.164062,0 0.375,0 0.375,-0.21094 0,-0.22266 -0.199219,-0.22266 -0.375,-0.22266 h -3.304688 v -3.30468 c 0,-0.16407 0,-0.38672 -0.210937,-0.38672 -0.234375,0 -0.234375,0.21093 -0.234375,0.38672 v 3.30468 H 33.48825 c -0.175781,0 -0.386719,0 -0.386719,0.21094 0,0.22266 0.199219,0.22266 0.386719,0.22266 h 3.292969 v 3.30468 c 0,0.16407 0,0.38672 0.222656,0.38672 0.222656,0 0.222656,-0.21093 0.222656,-0.38672 z m 0,0"
         style="fill:#000000;fill-opacity:1;fill-rule:nonzero;stroke:none" />
      <path
         id="path11"
         d="m 47.357391,209.11011 c -0.316407,0.45703 -0.785157,0.86719 -1.371094,0.86719 -0.140625,0 -0.714844,-0.0234 -0.902344,-0.57422 0.04687,0.0117 0.105469,0.0117 0.128906,0.0117 0.351563,0 0.597657,-0.31641 0.597657,-0.58594 0,-0.28125 -0.234375,-0.375 -0.410157,-0.375 -0.1875,0 -0.609375,0.14062 -0.609375,0.72656 0,0.60938 0.515625,1.03125 1.195313,1.03125 1.195312,0 2.402344,-1.10156 2.742187,-2.42578 l 1.171875,-4.66406 c 0.01172,-0.0586 0.03516,-0.12891 0.03516,-0.19922 0,-0.17578 -0.152344,-0.30469 -0.328125,-0.30469 -0.105469,0 -0.363282,0.0469 -0.457032,0.41016 l -0.878906,3.51562 c -0.05859,0.21094 -0.05859,0.23438 -0.152344,0.375 -0.246093,0.32813 -0.644531,0.73828 -1.207031,0.73828 -0.679687,0 -0.738281,-0.65625 -0.738281,-0.98437 0,-0.67969 0.328125,-1.60547 0.644531,-2.46094 0.140625,-0.35156 0.210938,-0.51562 0.210938,-0.75 0,-0.5039 -0.363282,-0.96094 -0.949219,-0.96094 -1.101563,0 -1.535156,1.73438 -1.535156,1.82813 0,0.0469 0.04687,0.10547 0.128906,0.10547 0.105469,0 0.117187,-0.0469 0.164062,-0.21094 0.292969,-1.00781 0.738282,-1.47656 1.207032,-1.47656 0.105468,0 0.316406,0 0.316406,0.38672 0,0.3164 -0.140625,0.65625 -0.316406,1.11328 -0.585938,1.57031 -0.585938,1.95703 -0.585938,2.25 0,1.13672 0.808594,1.39453 1.40625,1.39453 0.351563,0 0.785156,-0.10547 1.195313,-0.55078 l 0.01172,0.0117 c -0.175781,0.70312 -0.292968,1.17187 -0.714843,1.75781 z m 0,0"
         style="fill:#000000;fill-opacity:1;fill-rule:nonzero;stroke:none" />
      <path
         id="path12"
         d="m 53.729461,204.79761 c 0,-0.91406 -0.128906,-2.39063 -0.796875,-3.77344 -0.703125,-1.4414 -1.675781,-2.21484 -1.816406,-2.21484 -0.04687,0 -0.105469,0.0234 -0.105469,0.0937 0,0.0352 0,0.0586 0.199219,0.26953 1.195312,1.20703 1.875,3.17578 1.875,5.61328 0,2.32031 -0.5625,4.3125 -1.957032,5.73047 -0.117187,0.10547 -0.117187,0.12891 -0.117187,0.16406 0,0.0703 0.05859,0.0937 0.105469,0.0937 0.164062,0 1.136718,-0.85547 1.722656,-2.02734 0.609375,-1.21875 0.890625,-2.51953 0.890625,-3.94922 z m 0,0"
         style="fill:#000000;fill-opacity:1;fill-rule:nonzero;stroke:none" />
      <path
         id="path13"
         d="m 65.439422,205.02027 c 0.210937,0 0.421875,0 0.421875,-0.23438 0,-0.23437 -0.210938,-0.23437 -0.421875,-0.23437 h -6.46875 c -0.199219,0 -0.410156,0 -0.410156,0.23437 0,0.23438 0.210937,0.23438 0.410156,0.23438 z m 0,0"
         style="fill:#000000;fill-opacity:1;fill-rule:nonzero;stroke:none" />
      <path
         id="path14"
         d="m 74.849578,202.96948 c 0.234375,0 0.328125,0 0.328125,-0.22265 0,-0.12891 -0.09375,-0.12891 -0.304687,-0.12891 h -0.972657 c 0.234375,-1.23047 0.398438,-2.07422 0.492188,-2.46094 0.07031,-0.28125 0.328125,-0.5625 0.632812,-0.5625 0.257813,0 0.503907,0.10547 0.621094,0.22266 -0.46875,0.0469 -0.609375,0.38672 -0.609375,0.59766 0,0.23437 0.1875,0.375 0.410156,0.375 0.234375,0 0.597657,-0.19922 0.597657,-0.65625 0,-0.50391 -0.503907,-0.77344 -1.03125,-0.77344 -0.515625,0 -1.007813,0.38672 -1.253907,0.84375 -0.210937,0.42187 -0.328125,0.85547 -0.609375,2.41406 h -0.796875 c -0.234375,0 -0.351562,0 -0.351562,0.22266 0,0.1289 0.07031,0.1289 0.316406,0.1289 h 0.761719 c -0.210938,1.11329 -0.703125,3.8086 -0.984375,5.08594 -0.199219,1.04297 -0.375,1.92188 -0.972656,1.92188 -0.03516,0 -0.386719,0 -0.597657,-0.23438 0.609375,-0.0469 0.609375,-0.57422 0.609375,-0.58594 0,-0.23437 -0.1875,-0.375 -0.410156,-0.375 -0.234375,0 -0.597656,0.19922 -0.597656,0.65625 0,0.51563 0.527344,0.77344 0.996094,0.77344 1.21875,0 1.722656,-2.1914 1.851562,-2.78906 0.210938,-0.91406 0.796875,-4.08984 0.855469,-4.45313 z m 0,0"
         style="fill:#000000;fill-opacity:1;fill-rule:nonzero;stroke:none" />
      <path
         id="path15"
         d="m 80.457,210.68042 c 0,-0.0351 0,-0.0586 -0.210937,-0.26953 -1.195313,-1.20703 -1.863282,-3.17578 -1.863282,-5.61328 0,-2.32031 0.5625,-4.3125 1.945313,-5.73047 0.128906,-0.10547 0.128906,-0.12891 0.128906,-0.16406 0,-0.0703 -0.07031,-0.0937 -0.117187,-0.0937 -0.152344,0 -1.136719,0.85547 -1.722657,2.02734 -0.609375,1.20703 -0.878906,2.4961 -0.878906,3.96094 0,1.06641 0.164063,2.48437 0.785156,3.76172 0.703125,1.4414 1.6875,2.21484 1.816407,2.21484 0.04687,0 0.117187,-0.0234 0.117187,-0.0937 z m 0,0"
         style="fill:#000000;fill-opacity:1;fill-rule:nonzero;stroke:none" />
      <path
         id="path16"
         d="m 86.779266,202.89917 c -0.375,0.0703 -0.515625,0.35156 -0.515625,0.58594 0,0.28125 0.222656,0.375 0.386718,0.375 0.363282,0 0.609375,-0.30469 0.609375,-0.63281 0,-0.49219 -0.574218,-0.72657 -1.078125,-0.72657 -0.726562,0 -1.125,0.71485 -1.242187,0.94922 -0.269531,-0.90234 -1.007813,-0.94922 -1.230469,-0.94922 -1.21875,0 -1.863281,1.57032 -1.863281,1.82813 0,0.0469 0.04687,0.10547 0.128906,0.10547 0.105469,0 0.128906,-0.0703 0.152344,-0.11719 0.398437,-1.32422 1.207031,-1.57031 1.546875,-1.57031 0.539062,0 0.644531,0.49219 0.644531,0.78515 0,0.25782 -0.07031,0.53907 -0.210937,1.11329 l -0.410157,1.6289 c -0.175781,0.72656 -0.527343,1.38281 -1.160156,1.38281 -0.05859,0 -0.351562,0 -0.609375,-0.15234 0.433594,-0.0937 0.527344,-0.44531 0.527344,-0.58594 0,-0.24609 -0.175781,-0.38672 -0.398438,-0.38672 -0.292968,0 -0.597656,0.2461 -0.597656,0.63282 0,0.5039 0.5625,0.72656 1.066406,0.72656 0.574219,0 0.984375,-0.45703 1.230469,-0.9375 0.199219,0.70312 0.796875,0.9375 1.230469,0.9375 1.230469,0 1.875,-1.55859 1.875,-1.82813 0,-0.0586 -0.04687,-0.10546 -0.128906,-0.10546 -0.105469,0 -0.117188,0.0586 -0.152344,0.15234 -0.316406,1.05469 -1.019531,1.54687 -1.546875,1.54687 -0.421875,0 -0.65625,-0.3164 -0.65625,-0.80859 0,-0.25781 0.05859,-0.44531 0.246094,-1.24219 l 0.421875,-1.61718 c 0.175781,-0.72657 0.585937,-1.24219 1.125,-1.24219 0.03516,0 0.363281,0 0.609375,0.15234 z m 0,0"
         style="fill:#000000;fill-opacity:1;fill-rule:nonzero;stroke:none" />
      <path
         id="path17"
         d="m 98.301727,205.02027 c 0.210937,0 0.421875,0 0.421875,-0.23438 0,-0.23437 -0.210938,-0.23437 -0.421875,-0.23437 h -6.46875 c -0.199219,0 -0.410157,0 -0.410157,0.23437 0,0.23438 0.210938,0.23438 0.410157,0.23438 z m 0,0"
         style="fill:#000000;fill-opacity:1;fill-rule:nonzero;stroke:none" />
      <path
         id="path18"
         d="m 105.52341,209.11011 c -0.31641,0.45703 -0.78516,0.86719 -1.3711,0.86719 -0.14062,0 -0.71484,-0.0234 -0.90234,-0.57422 0.0469,0.0117 0.10547,0.0117 0.12891,0.0117 0.35156,0 0.59765,-0.31641 0.59765,-0.58594 0,-0.28125 -0.23437,-0.375 -0.41015,-0.375 -0.1875,0 -0.60938,0.14062 -0.60938,0.72656 0,0.60938 0.51563,1.03125 1.19531,1.03125 1.19532,0 2.40235,-1.10156 2.74219,-2.42578 l 1.17188,-4.66406 c 0.0117,-0.0586 0.0352,-0.12891 0.0352,-0.19922 0,-0.17578 -0.15234,-0.30469 -0.32812,-0.30469 -0.10547,0 -0.36328,0.0469 -0.45703,0.41016 l -0.87891,3.51562 c -0.0586,0.21094 -0.0586,0.23438 -0.15234,0.375 -0.2461,0.32813 -0.64454,0.73828 -1.20704,0.73828 -0.67968,0 -0.73828,-0.65625 -0.73828,-0.98437 0,-0.67969 0.32813,-1.60547 0.64453,-2.46094 0.14063,-0.35156 0.21094,-0.51562 0.21094,-0.75 0,-0.5039 -0.36328,-0.96094 -0.94922,-0.96094 -1.10156,0 -1.53515,1.73438 -1.53515,1.82813 0,0.0469 0.0469,0.10547 0.1289,0.10547 0.10547,0 0.11719,-0.0469 0.16407,-0.21094 0.29296,-1.00781 0.73828,-1.47656 1.20703,-1.47656 0.10547,0 0.3164,0 0.3164,0.38672 0,0.3164 -0.14062,0.65625 -0.3164,1.11328 -0.58594,1.57031 -0.58594,1.95703 -0.58594,2.25 0,1.13672 0.80859,1.39453 1.40625,1.39453 0.35156,0 0.78516,-0.10547 1.19531,-0.55078 l 0.0117,0.0117 c -0.17578,0.70312 -0.29297,1.17187 -0.71484,1.75781 z m 0,0"
         style="fill:#000000;fill-opacity:1;fill-rule:nonzero;stroke:none" />
      <path
         id="path19"
         d="m 111.89255,204.79761 c 0,-0.91406 -0.12891,-2.39063 -0.79688,-3.77344 -0.70312,-1.4414 -1.67578,-2.21484 -1.8164,-2.21484 -0.0469,0 -0.10547,0.0234 -0.10547,0.0937 0,0.0352 0,0.0586 0.19922,0.26953 1.19531,1.20703 1.875,3.17578 1.875,5.61328 0,2.32031 -0.5625,4.3125 -1.95704,5.73047 -0.11718,0.10547 -0.11718,0.12891 -0.11718,0.16406 0,0.0703 0.0586,0.0937 0.10547,0.0937 0.16406,0 1.13671,-0.85547 1.72265,-2.02734 0.60938,-1.21875 0.89063,-2.51953 0.89063,-3.94922 z m 12.57715,-0.89063 c 0.16406,0 0.375,0 0.375,-0.22265 0,-0.22266 -0.19922,-0.22266 -0.375,-0.22266 h -7.04297 c -0.17578,0 -0.38672,0 -0.38672,0.21094 0,0.23437 0.19922,0.23437 0.38672,0.23437 z m 0,2.21485 c 0.16406,0 0.375,0 0.375,-0.21094 0,-0.23437 -0.19922,-0.23437 -0.375,-0.23437 h -7.04297 c -0.17578,0 -0.38672,0 -0.38672,0.22265 0,0.22266 0.19922,0.22266 0.38672,0.22266 z m 0,0"
         style="fill:#000000;fill-opacity:1;fill-rule:nonzero;stroke:none" />
      <path
         id="path20"
         d="m 134.14938,202.96948 c 0.23438,0 0.32813,0 0.32813,-0.22265 0,-0.12891 -0.0937,-0.12891 -0.30469,-0.12891 h -0.97266 c 0.23438,-1.23047 0.39844,-2.07422 0.49219,-2.46094 0.0703,-0.28125 0.32813,-0.5625 0.63281,-0.5625 0.25782,0 0.50391,0.10547 0.6211,0.22266 -0.46875,0.0469 -0.60938,0.38672 -0.60938,0.59766 0,0.23437 0.1875,0.375 0.41016,0.375 0.23437,0 0.59766,-0.19922 0.59766,-0.65625 0,-0.50391 -0.50391,-0.77344 -1.03125,-0.77344 -0.51563,0 -1.00782,0.38672 -1.25391,0.84375 -0.21094,0.42187 -0.32813,0.85547 -0.60938,2.41406 h -0.79687 c -0.23438,0 -0.35156,0 -0.35156,0.22266 0,0.1289 0.0703,0.1289 0.3164,0.1289 h 0.76172 c -0.21094,1.11329 -0.70312,3.8086 -0.98437,5.08594 -0.19922,1.04297 -0.375,1.92188 -0.97266,1.92188 -0.0352,0 -0.38672,0 -0.59766,-0.23438 0.60938,-0.0469 0.60938,-0.57422 0.60938,-0.58594 0,-0.23437 -0.1875,-0.375 -0.41016,-0.375 -0.23437,0 -0.59765,0.19922 -0.59765,0.65625 0,0.51563 0.52734,0.77344 0.99609,0.77344 1.21875,0 1.72266,-2.1914 1.85156,-2.78906 0.21094,-0.91406 0.79688,-4.08984 0.85547,-4.45313 z m 0,0"
         style="fill:#000000;fill-opacity:1;fill-rule:nonzero;stroke:none" />
      <path
         id="path21"
         d="m 139.75388,210.68042 c 0,-0.0351 0,-0.0586 -0.21094,-0.26953 -1.19531,-1.20703 -1.86328,-3.17578 -1.86328,-5.61328 0,-2.32031 0.5625,-4.3125 1.94531,-5.73047 0.12891,-0.10547 0.12891,-0.12891 0.12891,-0.16406 0,-0.0703 -0.0703,-0.0937 -0.11719,-0.0937 -0.15235,0 -1.13672,0.85547 -1.72266,2.02734 -0.60937,1.20703 -0.8789,2.4961 -0.8789,3.96094 0,1.06641 0.16406,2.48437 0.78515,3.76172 0.70313,1.4414 1.6875,2.21484 1.81641,2.21484 0.0469,0 0.11719,-0.0234 0.11719,-0.0937 z m 0,0"
         style="fill:#000000;fill-opacity:1;fill-rule:nonzero;stroke:none" />
      <path
         id="path22"
         d="m 146.07614,202.89917 c -0.375,0.0703 -0.51562,0.35156 -0.51562,0.58594 0,0.28125 0.22265,0.375 0.38671,0.375 0.36329,0 0.60938,-0.30469 0.60938,-0.63281 0,-0.49219 -0.57422,-0.72657 -1.07813,-0.72657 -0.72656,0 -1.125,0.71485 -1.24218,0.94922 -0.26953,-0.90234 -1.00782,-0.94922 -1.23047,-0.94922 -1.21875,0 -1.86328,1.57032 -1.86328,1.82813 0,0.0469 0.0469,0.10547 0.1289,0.10547 0.10547,0 0.12891,-0.0703 0.15235,-0.11719 0.39843,-1.32422 1.20703,-1.57031 1.54687,-1.57031 0.53906,0 0.64453,0.49219 0.64453,0.78515 0,0.25782 -0.0703,0.53907 -0.21093,1.11329 l -0.41016,1.6289 c -0.17578,0.72656 -0.52734,1.38281 -1.16016,1.38281 -0.0586,0 -0.35156,0 -0.60937,-0.15234 0.43359,-0.0937 0.52734,-0.44531 0.52734,-0.58594 0,-0.24609 -0.17578,-0.38672 -0.39844,-0.38672 -0.29296,0 -0.59765,0.2461 -0.59765,0.63282 0,0.5039 0.5625,0.72656 1.0664,0.72656 0.57422,0 0.98438,-0.45703 1.23047,-0.9375 0.19922,0.70312 0.79688,0.9375 1.23047,0.9375 1.23047,0 1.875,-1.55859 1.875,-1.82813 0,-0.0586 -0.0469,-0.10546 -0.1289,-0.10546 -0.10547,0 -0.11719,0.0586 -0.15235,0.15234 -0.3164,1.05469 -1.01953,1.54687 -1.54687,1.54687 -0.42188,0 -0.65625,-0.3164 -0.65625,-0.80859 0,-0.25781 0.0586,-0.44531 0.24609,-1.24219 l 0.42188,-1.61718 c 0.17578,-0.72657 0.58593,-1.24219 1.125,-1.24219 0.0352,0 0.36328,0 0.60937,0.15234 z m 0,0"
         style="fill:#000000;fill-opacity:1;fill-rule:nonzero;stroke:none" />
      <path
         id="path23"
         d="m 150.4443,204.79761 c 0,-0.91406 -0.1289,-2.39063 -0.79687,-3.77344 -0.70313,-1.4414 -1.67578,-2.21484 -1.81641,-2.21484 -0.0469,0 -0.10547,0.0234 -0.10547,0.0937 0,0.0352 0,0.0586 0.19922,0.26953 1.19532,1.20703 1.875,3.17578 1.875,5.61328 0,2.32031 -0.5625,4.3125 -1.95703,5.73047 -0.11719,0.10547 -0.11719,0.12891 -0.11719,0.16406 0,0.0703 0.0586,0.0937 0.10547,0.0937 0.16407,0 1.13672,-0.85547 1.72266,-2.02734 0.60937,-1.21875 0.89062,-2.51953 0.89062,-3.94922 z m 0,0"
         style="fill:#000000;fill-opacity:1;fill-rule:nonzero;stroke:none" />
      <path
         id="path24"
         d="m 156.95114,202.96948 c 0.23438,0 0.32813,0 0.32813,-0.22265 0,-0.12891 -0.0937,-0.12891 -0.30469,-0.12891 h -0.97266 c 0.23438,-1.23047 0.39844,-2.07422 0.49219,-2.46094 0.0703,-0.28125 0.32812,-0.5625 0.63281,-0.5625 0.25781,0 0.50391,0.10547 0.6211,0.22266 -0.46875,0.0469 -0.60938,0.38672 -0.60938,0.59766 0,0.23437 0.1875,0.375 0.41016,0.375 0.23437,0 0.59765,-0.19922 0.59765,-0.65625 0,-0.50391 -0.5039,-0.77344 -1.03125,-0.77344 -0.51562,0 -1.00781,0.38672 -1.2539,0.84375 -0.21094,0.42187 -0.32813,0.85547 -0.60938,2.41406 h -0.79687 c -0.23438,0 -0.35157,0 -0.35157,0.22266 0,0.1289 0.0703,0.1289 0.31641,0.1289 h 0.76172 c -0.21094,1.11329 -0.70313,3.8086 -0.98438,5.08594 -0.19921,1.04297 -0.375,1.92188 -0.97265,1.92188 -0.0352,0 -0.38672,0 -0.59766,-0.23438 0.60938,-0.0469 0.60938,-0.57422 0.60938,-0.58594 0,-0.23437 -0.1875,-0.375 -0.41016,-0.375 -0.23437,0 -0.59766,0.19922 -0.59766,0.65625 0,0.51563 0.52735,0.77344 0.9961,0.77344 1.21875,0 1.72265,-2.1914 1.85156,-2.78906 0.21094,-0.91406 0.79688,-4.08984 0.85547,-4.45313 z m 0,0"
         style="fill:#000000;fill-opacity:1;fill-rule:nonzero;stroke:none" />
      <path
         id="path25"
         d="m 162.55856,210.68042 c 0,-0.0351 0,-0.0586 -0.21093,-0.26953 -1.19532,-1.20703 -1.86329,-3.17578 -1.86329,-5.61328 0,-2.32031 0.5625,-4.3125 1.94532,-5.73047 0.1289,-0.10547 0.1289,-0.12891 0.1289,-0.16406 0,-0.0703 -0.0703,-0.0937 -0.11718,-0.0937 -0.15235,0 -1.13672,0.85547 -1.72266,2.02734 -0.60938,1.20703 -0.87891,2.4961 -0.87891,3.96094 0,1.06641 0.16407,2.48437 0.78516,3.76172 0.70312,1.4414 1.6875,2.21484 1.81641,2.21484 0.0469,0 0.11718,-0.0234 0.11718,-0.0937 z m 0,0"
         style="fill:#000000;fill-opacity:1;fill-rule:nonzero;stroke:none" />
      <path
         id="path26"
         d="m 166.35837,209.11011 c -0.31641,0.45703 -0.78516,0.86719 -1.3711,0.86719 -0.14062,0 -0.71484,-0.0234 -0.90234,-0.57422 0.0469,0.0117 0.10547,0.0117 0.12891,0.0117 0.35156,0 0.59765,-0.31641 0.59765,-0.58594 0,-0.28125 -0.23437,-0.375 -0.41015,-0.375 -0.1875,0 -0.60938,0.14062 -0.60938,0.72656 0,0.60938 0.51563,1.03125 1.19531,1.03125 1.19532,0 2.40235,-1.10156 2.74219,-2.42578 l 1.17188,-4.66406 c 0.0117,-0.0586 0.0351,-0.12891 0.0351,-0.19922 0,-0.17578 -0.15234,-0.30469 -0.32812,-0.30469 -0.10547,0 -0.36328,0.0469 -0.45703,0.41016 l -0.87891,3.51562 c -0.0586,0.21094 -0.0586,0.23438 -0.15234,0.375 -0.2461,0.32813 -0.64454,0.73828 -1.20704,0.73828 -0.67968,0 -0.73828,-0.65625 -0.73828,-0.98437 0,-0.67969 0.32813,-1.60547 0.64453,-2.46094 0.14063,-0.35156 0.21094,-0.51562 0.21094,-0.75 0,-0.5039 -0.36328,-0.96094 -0.94922,-0.96094 -1.10156,0 -1.53515,1.73438 -1.53515,1.82813 0,0.0469 0.0469,0.10547 0.1289,0.10547 0.10547,0 0.11719,-0.0469 0.16407,-0.21094 0.29296,-1.00781 0.73828,-1.47656 1.20703,-1.47656 0.10547,0 0.3164,0 0.3164,0.38672 0,0.3164 -0.14062,0.65625 -0.3164,1.11328 -0.58594,1.57031 -0.58594,1.95703 -0.58594,2.25 0,1.13672 0.80859,1.39453 1.40625,1.39453 0.35156,0 0.78516,-0.10547 1.19531,-0.55078 l 0.0117,0.0117 c -0.17578,0.70312 -0.29297,1.17187 -0.71484,1.75781 z m 0,0"
         style="fill:#000000;fill-opacity:1;fill-rule:nonzero;stroke:none" />
      <path
         id="path27"
         d="m 172.73044,204.79761 c 0,-0.91406 -0.12891,-2.39063 -0.79688,-3.77344 -0.70312,-1.4414 -1.67578,-2.21484 -1.8164,-2.21484 -0.0469,0 -0.10547,0.0234 -0.10547,0.0937 0,0.0352 0,0.0586 0.19922,0.26953 1.19531,1.20703 1.875,3.17578 1.875,5.61328 0,2.32031 -0.5625,4.3125 -1.95703,5.73047 -0.11719,0.10547 -0.11719,0.12891 -0.11719,0.16406 0,0.0703 0.0586,0.0937 0.10547,0.0937 0.16406,0 1.13672,-0.85547 1.72265,-2.02734 0.60938,-1.21875 0.89063,-2.51953 0.89063,-3.94922 z m 0,0"
         style="fill:#000000;fill-opacity:1;fill-rule:nonzero;stroke:none" />
      <path
         id="path28"
         d="m 22.32907,230.74585 c -0.375,0.0703 -0.515625,0.35156 -0.515625,0.58594 0,0.28125 0.222657,0.375 0.386719,0.375 0.363281,0 0.609375,-0.30469 0.609375,-0.63281 0,-0.49219 -0.574219,-0.72657 -1.078125,-0.72657 -0.726562,0 -1.125,0.71485 -1.242187,0.94922 -0.269532,-0.90234 -1.007813,-0.94922 -1.230469,-0.94922 -1.21875,0 -1.863281,1.57032 -1.863281,1.82813 0,0.0469 0.04687,0.10547 0.128906,0.10547 0.105469,0 0.128906,-0.0703 0.152344,-0.11719 0.398437,-1.32422 1.207031,-1.57031 1.546875,-1.57031 0.539062,0 0.644531,0.49219 0.644531,0.78515 0,0.25782 -0.07031,0.53907 -0.210938,1.11329 l -0.410156,1.6289 c -0.175781,0.72656 -0.527344,1.38281 -1.160156,1.38281 -0.05859,0 -0.351563,0 -0.609375,-0.15234 0.433594,-0.0937 0.527344,-0.44531 0.527344,-0.58594 0,-0.24609 -0.175782,-0.38672 -0.398438,-0.38672 -0.292969,0 -0.597656,0.2461 -0.597656,0.63282 0,0.5039 0.5625,0.72656 1.066406,0.72656 0.574219,0 0.984375,-0.45703 1.230469,-0.9375 0.199219,0.70312 0.796875,0.9375 1.230469,0.9375 1.230468,0 1.875,-1.55859 1.875,-1.82813 0,-0.0586 -0.04687,-0.10546 -0.128907,-0.10546 -0.105468,0 -0.117187,0.0586 -0.152343,0.15234 -0.316407,1.05469 -1.019532,1.54687 -1.546875,1.54687 -0.421875,0 -0.65625,-0.3164 -0.65625,-0.80859 0,-0.25781 0.05859,-0.44531 0.246093,-1.24219 l 0.421875,-1.61718 c 0.175782,-0.72657 0.585938,-1.24219 1.125,-1.24219 0.03516,0 0.363282,0 0.609375,0.15234 z m 0,0"
         style="fill:#000000;fill-opacity:1;fill-rule:nonzero;stroke:none" />
      <path
         id="path29"
         d="m 33.614227,236.95679 c -0.316407,0.45703 -0.785157,0.86719 -1.371094,0.86719 -0.140625,0 -0.714844,-0.0234 -0.902344,-0.57422 0.04687,0.0117 0.105469,0.0117 0.128906,0.0117 0.351563,0 0.597657,-0.31641 0.597657,-0.58594 0,-0.28125 -0.234375,-0.375 -0.410157,-0.375 -0.1875,0 -0.609375,0.14062 -0.609375,0.72656 0,0.60938 0.515625,1.03125 1.195313,1.03125 1.195312,0 2.402344,-1.10156 2.742187,-2.42578 l 1.171875,-4.66406 c 0.01172,-0.0586 0.03516,-0.12891 0.03516,-0.19922 0,-0.17578 -0.152344,-0.30469 -0.328125,-0.30469 -0.105469,0 -0.363282,0.0469 -0.457032,0.41016 l -0.878906,3.51562 c -0.05859,0.21094 -0.05859,0.23438 -0.152344,0.375 -0.246093,0.32813 -0.644531,0.73828 -1.207031,0.73828 -0.679687,0 -0.738281,-0.65625 -0.738281,-0.98437 0,-0.67969 0.328125,-1.60547 0.644531,-2.46094 0.140625,-0.35156 0.210938,-0.51562 0.210938,-0.75 0,-0.5039 -0.363282,-0.96094 -0.949219,-0.96094 -1.101563,0 -1.535156,1.73438 -1.535156,1.82813 0,0.0469 0.04687,0.10547 0.128906,0.10547 0.105469,0 0.117187,-0.0469 0.164062,-0.21094 0.292969,-1.00781 0.738282,-1.47656 1.207032,-1.47656 0.105468,0 0.316406,0 0.316406,0.38672 0,0.3164 -0.140625,0.65625 -0.316406,1.11328 -0.585938,1.57031 -0.585938,1.95703 -0.585938,2.25 0,1.13672 0.808594,1.39453 1.40625,1.39453 0.351563,0 0.785156,-0.10547 1.195313,-0.55078 l 0.01172,0.0117 c -0.175781,0.70312 -0.292968,1.17187 -0.714843,1.75781 z m 0,0"
         style="fill:#000000;fill-opacity:1;fill-rule:nonzero;stroke:none" />
      <path
         id="path30"
         d="m -17.409211,273.90894 c 0,-0.26953 0,-0.28125 -0.246094,-0.28125 -0.28125,0.3164 -0.878906,0.76172 -2.109375,0.76172 v 0.35156 c 0.269532,0 0.867188,0 1.523438,-0.31641 v 6.22266 c 0,0.43359 -0.03516,0.57422 -1.078125,0.57422 h -0.375 v 0.35156 c 0.316406,-0.0234 1.476562,-0.0234 1.875,-0.0234 0.398437,0 1.546875,0 1.863281,0.0234 v -0.35156 h -0.363281 c -1.054688,0 -1.089844,-0.14063 -1.089844,-0.57422 z m 7.7636719,3.84375 c 0,-0.9961 -0.058594,-1.96875 -0.4921879,-2.8711 -0.492187,-0.99609 -1.347656,-1.2539 -1.933593,-1.2539 -0.691407,0 -1.546875,0.33984 -1.980469,1.33594 -0.339844,0.75 -0.457031,1.48828 -0.457031,2.78906 0,1.16015 0.08203,2.02734 0.515625,2.87109 0.457031,0.91406 1.289062,1.19531 1.910156,1.19531 1.042969,0 1.640625,-0.62109 1.980469,-1.3125 0.4335934,-0.89062 0.4570309,-2.0625 0.4570309,-2.7539 z m -2.4374999,3.83203 c -0.386719,0 -1.160156,-0.21094 -1.382813,-1.52344 -0.140625,-0.71484 -0.140625,-1.61719 -0.140625,-2.46094 0,-0.97265 0,-1.86328 0.199219,-2.5664 0.199219,-0.79688 0.808594,-1.17188 1.324219,-1.17188 0.457031,0 1.148437,0.28125 1.371094,1.30078 0.152343,0.67969 0.152343,1.62891 0.152343,2.4375 0,0.8086 0,1.71094 -0.128906,2.4375 -0.222656,1.32422 -0.972656,1.54688 -1.394531,1.54688 z m 0,0"
         style="fill:#000000;fill-opacity:1;fill-rule:nonzero;stroke:none" />
      <path
         id="path31"
         d="M 7.9120781,279.56909 H 7.6425469 c -0.035156,0.19922 -0.1289063,0.85547 -0.2460938,1.04297 -0.082031,0.11719 -0.7617187,0.11719 -1.125,0.11719 H 4.0566094 c 0.328125,-0.28125 1.0546875,-1.04297 1.3710937,-1.33594 1.8164063,-1.66406 2.484375,-2.28515 2.484375,-3.46875 0,-1.38281 -1.0898437,-2.29687 -2.4726562,-2.29687 -1.3945313,0 -2.203125,1.18359 -2.203125,2.20312 0,0.60938 0.5273437,0.60938 0.5625,0.60938 0.2460937,0 0.5625,-0.17578 0.5625,-0.5625 0,-0.32813 -0.234375,-0.55078 -0.5625,-0.55078 -0.1054688,0 -0.1289063,0 -0.1640625,0.0117 0.2226562,-0.82032 0.8671875,-1.3711 1.640625,-1.3711 1.0195312,0 1.640625,0.85547 1.640625,1.95703 0,1.00782 -0.5859375,1.89844 -1.265625,2.66016 l -2.4140625,2.70703 v 0.28125 h 4.359375 z m 5.9443359,-1.8164 c 0,-0.9961 -0.05859,-1.96875 -0.492187,-2.8711 -0.492188,-0.99609 -1.347657,-1.2539 -1.933594,-1.2539 -0.691406,0 -1.5468752,0.33984 -1.9804689,1.33594 -0.3398438,0.75 -0.4570313,1.48828 -0.4570313,2.78906 0,1.16015 0.082031,2.02734 0.515625,2.87109 0.4570313,0.91406 1.2890622,1.19531 1.9101562,1.19531 1.042969,0 1.640625,-0.62109 1.980469,-1.3125 0.433594,-0.89062 0.457031,-2.0625 0.457031,-2.7539 z m -2.4375,3.83203 c -0.386719,0 -1.160156,-0.21094 -1.382812,-1.52344 -0.1406254,-0.71484 -0.1406254,-1.61719 -0.1406254,-2.46094 0,-0.97265 0,-1.86328 0.1992184,-2.5664 0.199219,-0.79688 0.808594,-1.17188 1.324219,-1.17188 0.457031,0 1.148438,0.28125 1.371094,1.30078 0.152344,0.67969 0.152344,1.62891 0.152344,2.4375 0,0.8086 0,1.71094 -0.128907,2.4375 -0.222656,1.32422 -0.972656,1.54688 -1.394531,1.54688 z m 0,0"
         style="fill:#000000;fill-opacity:1;fill-rule:nonzero;stroke:none" />
      <path
         id="path32"
         d="m 71.102508,273.79175 c 0,-0.22266 0,-0.29297 -0.164063,-0.29297 -0.09375,0 -0.128906,0 -0.222656,0.15235 l -3.597656,5.57812 v 0.35156 h 3.140625 v 1.07813 c 0,0.44531 -0.02344,0.5625 -0.902344,0.5625 h -0.234375 v 0.35156 c 0.269531,-0.0234 1.21875,-0.0234 1.558594,-0.0234 0.328125,0 1.289062,0 1.558594,0.0234 v -0.35156 h -0.234375 c -0.867188,0 -0.902344,-0.11719 -0.902344,-0.5625 v -1.07813 h 1.207031 v -0.35156 h -1.207031 z m -0.785156,0.9375 v 4.5 h -2.90625 z m 7.68164,3.02344 c 0,-0.9961 -0.05859,-1.96875 -0.492187,-2.8711 -0.492188,-0.99609 -1.347657,-1.2539 -1.933594,-1.2539 -0.691406,0 -1.546875,0.33984 -1.980469,1.33594 -0.339844,0.75 -0.457031,1.48828 -0.457031,2.78906 0,1.16015 0.08203,2.02734 0.515625,2.87109 0.457031,0.91406 1.289062,1.19531 1.910156,1.19531 1.042969,0 1.640625,-0.62109 1.980469,-1.3125 0.433594,-0.89062 0.457031,-2.0625 0.457031,-2.7539 z m -2.4375,3.83203 c -0.386719,0 -1.160156,-0.21094 -1.382812,-1.52344 -0.140625,-0.71484 -0.140625,-1.61719 -0.140625,-2.46094 0,-0.97265 0,-1.86328 0.199218,-2.5664 0.199219,-0.79688 0.808594,-1.17188 1.324219,-1.17188 0.457031,0 1.148438,0.28125 1.371094,1.30078 0.152344,0.67969 0.152344,1.62891 0.152344,2.4375 0,0.8086 0,1.71094 -0.128907,2.4375 -0.222656,1.32422 -0.972656,1.54688 -1.394531,1.54688 z m 6.38086,-7.67578 c 0,-0.26953 0,-0.28125 -0.246094,-0.28125 -0.28125,0.3164 -0.878906,0.76172 -2.109375,0.76172 v 0.35156 c 0.269531,0 0.867187,0 1.523437,-0.31641 v 6.22266 c 0,0.43359 -0.03516,0.57422 -1.078125,0.57422 h -0.375 v 0.35156 c 0.316407,-0.0234 1.476563,-0.0234 1.875,-0.0234 0.398438,0 1.546875,0 1.863282,0.0234 v -0.35156 h -0.363282 c -1.054687,0 -1.089843,-0.14063 -1.089843,-0.57422 z m 0,0"
         style="fill:#000000;fill-opacity:1;fill-rule:nonzero;stroke:none" />
      <path
         id="path33"
         d="m 328.01559,273.90894 c 0,-0.26953 0,-0.28125 -0.24609,-0.28125 -0.28125,0.3164 -0.87891,0.76172 -2.10937,0.76172 v 0.35156 c 0.26953,0 0.86718,0 1.52343,-0.31641 v 6.22266 c 0,0.43359 -0.0351,0.57422 -1.07812,0.57422 h -0.375 v 0.35156 c 0.3164,-0.0234 1.47656,-0.0234 1.875,-0.0234 0.39844,0 1.54687,0 1.86328,0.0234 v -0.35156 h -0.36328 c -1.05469,0 -1.08985,-0.14063 -1.08985,-0.57422 z m 0,0"
         style="fill:#000000;fill-opacity:1;fill-rule:nonzero;stroke:none" />
      <path
         id="path34"
         d="m -61.457062,335.75464 c 0,-0.26953 0,-0.28125 -0.246094,-0.28125 -0.28125,0.31641 -0.878906,0.76172 -2.109375,0.76172 v 0.35156 c 0.269531,0 0.867187,0 1.523437,-0.3164 v 6.22265 c 0,0.4336 -0.03516,0.57422 -1.078125,0.57422 h -0.375 v 0.35156 c 0.316407,-0.0234 1.476563,-0.0234 1.875,-0.0234 0.398438,0 1.546875,0 1.863282,0.0234 v -0.35156 h -0.363282 c -1.054687,0 -1.089843,-0.14062 -1.089843,-0.57422 z m 6.720703,-0.11719 c 0,-0.22265 0,-0.29297 -0.164063,-0.29297 -0.09375,0 -0.128906,0 -0.222656,0.15235 l -3.597656,5.57812 v 0.35157 h 3.140625 v 1.07812 c 0,0.44531 -0.02344,0.5625 -0.902344,0.5625 h -0.234375 v 0.35156 c 0.269531,-0.0234 1.21875,-0.0234 1.558594,-0.0234 0.328125,0 1.289062,0 1.558593,0.0234 v -0.35156 h -0.234375 c -0.867187,0 -0.902343,-0.11719 -0.902343,-0.5625 v -1.07812 h 1.207031 v -0.35157 h -1.207031 z m -0.785157,0.9375 v 4.5 h -2.90625 z m 6.638672,-0.9375 c 0,-0.22265 0,-0.29297 -0.164062,-0.29297 -0.09375,0 -0.128906,0 -0.222656,0.15235 l -3.597657,5.57812 v 0.35157 h 3.140625 v 1.07812 c 0,0.44531 -0.02344,0.5625 -0.902343,0.5625 h -0.234375 v 0.35156 c 0.269531,-0.0234 1.21875,-0.0234 1.558593,-0.0234 0.328125,0 1.289063,0 1.558594,0.0234 v -0.35156 H -47.9805 c -0.867187,0 -0.902344,-0.11719 -0.902344,-0.5625 v -1.07812 h 1.207032 v -0.35157 h -1.207032 z m -0.785156,0.9375 v 4.5 h -2.90625 z m 0,0"
         style="fill:#000000;fill-opacity:1;fill-rule:nonzero;stroke:none" />
      <path
         id="path35"
         d="m -26.532258,337.45093 c 0.128906,-0.11719 0.457031,-0.375 0.585938,-0.49219 0.492187,-0.45703 0.960937,-0.89062 0.960937,-1.61719 0,-0.94921 -0.796875,-1.55859 -1.792969,-1.55859 -0.949218,0 -1.582031,0.72656 -1.582031,1.42969 0,0.39844 0.316406,0.44531 0.421875,0.44531 0.164063,0 0.410156,-0.11719 0.410156,-0.42187 0,-0.41016 -0.398437,-0.41016 -0.492187,-0.41016 0.234375,-0.58594 0.773437,-0.78516 1.160156,-0.78516 0.738281,0 1.125,0.63282 1.125,1.30078 0,0.83204 -0.585937,1.42969 -1.523437,2.40235 l -1.007813,1.03125 c -0.09375,0.0937 -0.09375,0.10547 -0.09375,0.30469 h 3.152344 l 0.222656,-1.42969 h -0.246094 c -0.02344,0.16406 -0.08203,0.5625 -0.175781,0.71484 -0.04687,0.0586 -0.65625,0.0586 -0.785156,0.0586 h -1.417969 z m 0,0"
         style="fill:#000000;fill-opacity:1;fill-rule:nonzero;stroke:none" />
      <path
         id="path36"
         d="m -58.606477,355.82886 c 0,2.82422 -1.253906,3.41016 -1.96875,3.41016 -0.28125,0 -0.925781,-0.0352 -1.21875,-0.45704 h 0.07031 c 0.08203,0.0234 0.515625,-0.0469 0.515625,-0.49218 0,-0.25782 -0.175781,-0.49219 -0.492188,-0.49219 -0.304687,0 -0.503906,0.21094 -0.503906,0.51562 0,0.75 0.597656,1.24219 1.640625,1.24219 1.5,0 2.941406,-1.58203 2.941406,-4.18359 0,-3.21094 -1.335937,-4.00781 -2.390625,-4.00781 -1.3125,0 -2.472656,1.10156 -2.472656,2.67187 0,1.58203 1.113281,2.66016 2.308594,2.66016 0.878906,0 1.335937,-0.64453 1.570312,-1.25391 z m -1.523437,0.62109 c -0.75,0 -1.078125,-0.60937 -1.183594,-0.83203 -0.199219,-0.45703 -0.199219,-1.03125 -0.199219,-1.57031 0,-0.66797 0,-1.24219 0.316407,-1.73438 0.210937,-0.3164 0.539062,-0.66796 1.183593,-0.66796 0.679688,0 1.03125,0.59765 1.148438,0.8789 0.234375,0.58594 0.234375,1.59375 0.234375,1.78125 0,0.9961 -0.445313,2.14453 -1.5,2.14453 z m 4.470703,-1.30078 c 0,-3.02344 1.476563,-3.5039 2.121094,-3.5039 0.433594,0 0.855469,0.1289 1.089844,0.49218 -0.140625,0 -0.597657,0 -0.597657,0.49219 0,0.25781 0.175782,0.49219 0.492188,0.49219 0.292969,0 0.492187,-0.1875 0.492187,-0.52735 0,-0.62109 -0.445312,-1.23046 -1.488281,-1.23046 -1.511719,0 -3.082031,1.53515 -3.082031,4.17187 0,3.28125 1.429687,4.01953 2.449219,4.01953 1.300781,0 2.414062,-1.125 2.414062,-2.68359 0,-1.59375 -1.113281,-2.66016 -2.308594,-2.66016 -1.066406,0 -1.453125,0.92578 -1.582031,1.26563 z m 1.476563,4.08985 c -0.75,0 -1.113282,-0.66797 -1.21875,-0.92579 -0.105469,-0.30468 -0.222657,-0.89062 -0.222657,-1.73437 0,-0.9375 0.421875,-2.12109 1.5,-2.12109 0.65625,0 1.007813,0.44531 1.183594,0.84375 0.1875,0.44531 0.1875,1.04296 0.1875,1.55859 0,0.60937 0,1.14844 -0.222656,1.60547 -0.304688,0.57422 -0.726563,0.77344 -1.207031,0.77344 z m 0,0"
         style="fill:#000000;fill-opacity:1;fill-rule:nonzero;stroke:none" />
      <path
         id="path37"
         d="m -30.16507,353.34155 c 0.128906,-0.11718 0.457031,-0.375 0.585937,-0.49218 0.492188,-0.45703 0.960938,-0.89063 0.960938,-1.61719 0,-0.94922 -0.796875,-1.55859 -1.792969,-1.55859 -0.949219,0 -1.582031,0.72656 -1.582031,1.42968 0,0.39844 0.316406,0.44532 0.421875,0.44532 0.164062,0 0.410156,-0.11719 0.410156,-0.42188 0,-0.41016 -0.398438,-0.41016 -0.492188,-0.41016 0.234375,-0.58593 0.773438,-0.78515 1.160157,-0.78515 0.738281,0 1.125,0.63281 1.125,1.30078 0,0.83203 -0.585938,1.42969 -1.523438,2.40234 l -1.007812,1.03125 c -0.09375,0.0937 -0.09375,0.10547 -0.09375,0.30469 h 3.152343 l 0.222657,-1.42969 h -0.246094 c -0.02344,0.16407 -0.08203,0.5625 -0.175781,0.71485 -0.04687,0.0586 -0.65625,0.0586 -0.785157,0.0586 h -1.417968 z m 0,0"
         style="fill:#000000;fill-opacity:1;fill-rule:nonzero;stroke:none" />
      <path
         id="path38"
         d="m 70.270477,401.7605 c 0.02344,-0.0703 0.328125,-0.66797 0.761718,-1.05469 0.316407,-0.28125 0.726563,-0.46875 1.183594,-0.46875 0.480469,0 0.644531,0.35157 0.644531,0.83203 0,0.67969 -0.480468,2.03907 -0.726562,2.6836 -0.105469,0.29297 -0.164063,0.44531 -0.164063,0.66797 0,0.52734 0.375,0.96093 0.949219,0.96093 1.101563,0 1.523438,-1.75781 1.523438,-1.82812 0,-0.0586 -0.04687,-0.10547 -0.117188,-0.10547 -0.105469,0 -0.117187,0.0352 -0.175781,0.23438 -0.28125,0.98437 -0.738281,1.46484 -1.195313,1.46484 -0.128906,0 -0.316406,-0.0117 -0.316406,-0.39844 0,-0.29297 0.128906,-0.65625 0.199219,-0.82031 0.246094,-0.65625 0.75,-2.00391 0.75,-2.68359 0,-0.71485 -0.421875,-1.25391 -1.335938,-1.25391 -1.054687,0 -1.617187,0.75 -1.839843,1.05469 -0.03516,-0.67969 -0.527344,-1.05469 -1.042969,-1.05469 -0.386719,0 -0.644531,0.23437 -0.855469,0.63281 -0.210937,0.4336 -0.375,1.14844 -0.375,1.19531 0,0.0469 0.04687,0.10547 0.128906,0.10547 0.09375,0 0.105469,-0.0117 0.175782,-0.28125 0.1875,-0.72656 0.410156,-1.40625 0.890625,-1.40625 0.269531,0 0.363281,0.1875 0.363281,0.53907 0,0.26953 -0.117188,0.73828 -0.199219,1.10156 l -0.339844,1.28906 c -0.04687,0.23438 -0.175781,0.77344 -0.234375,0.98438 -0.08203,0.3164 -0.210937,0.8789 -0.210937,0.9375 0,0.16406 0.128906,0.29296 0.304687,0.29296 0.140625,0 0.316407,-0.0703 0.410157,-0.24609 0.02344,-0.0586 0.128906,-0.48047 0.1875,-0.71484 l 0.257812,-1.07813 z m 0,0"
         style="fill:#000000;fill-opacity:1;fill-rule:nonzero;stroke:none" />
      <path
         id="path39"
         d="m 138.32126,397.60034 c 0,-0.26953 0,-0.28125 -0.2461,-0.28125 -0.28125,0.31641 -0.8789,0.76172 -2.10937,0.76172 v 0.35157 c 0.26953,0 0.86719,0 1.52344,-0.31641 v 6.22266 c 0,0.43359 -0.0352,0.57421 -1.07813,0.57421 h -0.375 v 0.35157 c 0.31641,-0.0234 1.47656,-0.0234 1.875,-0.0234 0.39844,0 1.54688,0 1.86328,0.0234 v -0.35157 h -0.36328 c -1.05469,0 -1.08984,-0.14062 -1.08984,-0.57421 z m 0,0"
         style="fill:#000000;fill-opacity:1;fill-rule:nonzero;stroke:none" />
      <path
         id="path40"
         d="m 304.4404,401.7605 c 0.0234,-0.0703 0.32812,-0.66797 0.76172,-1.05469 0.3164,-0.28125 0.72656,-0.46875 1.18359,-0.46875 0.48047,0 0.64453,0.35157 0.64453,0.83203 0,0.67969 -0.48047,2.03907 -0.72656,2.6836 -0.10547,0.29297 -0.16406,0.44531 -0.16406,0.66797 0,0.52734 0.375,0.96093 0.94922,0.96093 1.10156,0 1.52343,-1.75781 1.52343,-1.82812 0,-0.0586 -0.0469,-0.10547 -0.11718,-0.10547 -0.10547,0 -0.11719,0.0352 -0.17579,0.23438 -0.28125,0.98437 -0.73828,1.46484 -1.19531,1.46484 -0.1289,0 -0.3164,-0.0117 -0.3164,-0.39844 0,-0.29297 0.1289,-0.65625 0.19921,-0.82031 0.2461,-0.65625 0.75,-2.00391 0.75,-2.68359 0,-0.71485 -0.42187,-1.25391 -1.33593,-1.25391 -1.05469,0 -1.61719,0.75 -1.83985,1.05469 -0.0352,-0.67969 -0.52734,-1.05469 -1.04297,-1.05469 -0.38671,0 -0.64453,0.23437 -0.85546,0.63281 -0.21094,0.4336 -0.375,1.14844 -0.375,1.19531 0,0.0469 0.0469,0.10547 0.1289,0.10547 0.0937,0 0.10547,-0.0117 0.17578,-0.28125 0.1875,-0.72656 0.41016,-1.40625 0.89063,-1.40625 0.26953,0 0.36328,0.1875 0.36328,0.53907 0,0.26953 -0.11719,0.73828 -0.19922,1.10156 l -0.33984,1.28906 c -0.0469,0.23438 -0.17578,0.77344 -0.23438,0.98438 -0.082,0.3164 -0.21094,0.8789 -0.21094,0.9375 0,0.16406 0.12891,0.29296 0.30469,0.29296 0.14063,0 0.31641,-0.0703 0.41016,-0.24609 0.0234,-0.0586 0.1289,-0.48047 0.1875,-0.71484 l 0.25781,-1.07813 z m 0,0"
         style="fill:#000000;fill-opacity:1;fill-rule:nonzero;stroke:none" />
      <path
         id="path41"
         d="m -109.1348,413.37378 c 0,-0.22265 0,-0.29297 -0.16406,-0.29297 -0.0937,0 -0.12891,0 -0.22266,0.15235 l -3.59765,5.57812 v 0.35156 h 3.14062 v 1.07813 c 0,0.44531 -0.0234,0.5625 -0.90234,0.5625 h -0.23438 v 0.35156 c 0.26954,-0.0234 1.21875,-0.0234 1.5586,-0.0234 0.32812,0 1.28906,0 1.55859,0.0234 v -0.35156 h -0.23437 c -0.86719,0 -0.90235,-0.11719 -0.90235,-0.5625 v -1.07813 h 1.20703 v -0.35156 h -1.20703 z m -0.78515,0.9375 v 4.5 h -2.90625 z m 5.77148,-0.82031 c 0,-0.26953 0,-0.28125 -0.24609,-0.28125 -0.28125,0.31641 -0.87891,0.76172 -2.10938,0.76172 v 0.35156 c 0.26953,0 0.86719,0 1.52344,-0.31641 v 6.22266 c 0,0.43359 -0.0352,0.57422 -1.07812,0.57422 h -0.375 v 0.35156 c 0.3164,-0.0234 1.47656,-0.0234 1.875,-0.0234 0.39843,0 1.54687,0 1.86328,0.0234 v -0.35156 h -0.36328 c -1.05469,0 -1.08985,-0.14063 -1.08985,-0.57422 z m 0,0"
         style="fill:#000000;fill-opacity:1;fill-rule:nonzero;stroke:none" />
      <path
         id="path42"
         d="m -18.692414,417.65113 c 0.02344,-0.0703 0.328125,-0.66797 0.761719,-1.05469 0.316406,-0.28125 0.726562,-0.46875 1.183593,-0.46875 0.480469,0 0.644532,0.35156 0.644532,0.83203 0,0.67969 -0.480469,2.03906 -0.726563,2.68359 -0.105469,0.29297 -0.164062,0.44532 -0.164062,0.66797 0,0.52735 0.375,0.96094 0.949218,0.96094 1.101563,0 1.523438,-1.75781 1.523438,-1.82813 0,-0.0586 -0.04687,-0.10546 -0.117188,-0.10546 -0.105468,0 -0.117187,0.0351 -0.175781,0.23437 -0.28125,0.98438 -0.738281,1.46484 -1.195312,1.46484 -0.128907,0 -0.316407,-0.0117 -0.316407,-0.39843 0,-0.29297 0.128907,-0.65625 0.199219,-0.82032 0.246094,-0.65625 0.75,-2.0039 0.75,-2.68359 0,-0.71484 -0.421875,-1.25391 -1.335937,-1.25391 -1.054688,0 -1.617188,0.75 -1.839844,1.05469 -0.03516,-0.67969 -0.527344,-1.05469 -1.042969,-1.05469 -0.386719,0 -0.644531,0.23438 -0.855469,0.63282 -0.210937,0.43359 -0.375,1.14843 -0.375,1.19531 0,0.0469 0.04687,0.10547 0.128907,0.10547 0.09375,0 0.105468,-0.0117 0.175781,-0.28125 0.1875,-0.72656 0.410156,-1.40625 0.890625,-1.40625 0.269531,0 0.363281,0.1875 0.363281,0.53906 0,0.26953 -0.117187,0.73828 -0.199219,1.10156 l -0.339843,1.28907 c -0.04687,0.23437 -0.175782,0.77343 -0.234375,0.98437 -0.08203,0.31641 -0.210938,0.87891 -0.210938,0.9375 0,0.16406 0.128906,0.29297 0.304688,0.29297 0.140625,0 0.316406,-0.0703 0.410156,-0.24609 0.02344,-0.0586 0.128906,-0.48047 0.1875,-0.71485 l 0.257812,-1.07812 z m 0,0"
         style="fill:#000000;fill-opacity:1;fill-rule:nonzero;stroke:none" />
      <path
         id="path43"
         d="m -91.676789,430.20191 c 0.503906,0.16406 0.925781,0.17578 1.054687,0.17578 1.359375,0 2.214844,-0.9961 2.214844,-1.16016 0,-0.0469 -0.02344,-0.10547 -0.09375,-0.10547 -0.02344,0 -0.04687,0 -0.152344,0.0469 -0.667968,0.28125 -1.242187,0.3164 -1.558593,0.3164 -0.785157,0 -1.347657,-0.23437 -1.582032,-0.32812 -0.08203,-0.0352 -0.105468,-0.0352 -0.117187,-0.0352 -0.09375,0 -0.09375,0.0703 -0.09375,0.25782 v 3.55078 c 0,0.21093 0,0.29297 0.140625,0.29297 0.05859,0 0.07031,-0.0117 0.199219,-0.16407 0.328125,-0.49218 0.890625,-0.77343 1.488281,-0.77343 0.632812,0 0.949219,0.58593 1.042969,0.78515 0.199218,0.46875 0.210937,1.05469 0.210937,1.51172 0,0.45703 0,1.13672 -0.328125,1.67578 -0.269531,0.42188 -0.738281,0.72656 -1.253906,0.72656 -0.796875,0 -1.570313,-0.53906 -1.78125,-1.40625 0.05859,0.0234 0.128906,0.0352 0.1875,0.0352 0.199219,0 0.527344,-0.12891 0.527344,-0.52734 0,-0.33985 -0.234375,-0.52735 -0.527344,-0.52735 -0.210938,0 -0.527344,0.10547 -0.527344,0.57422 0,1.00781 0.808594,2.16797 2.144531,2.16797 1.347657,0 2.53125,-1.125 2.53125,-2.64844 0,-1.41797 -0.960937,-2.60156 -2.214843,-2.60156 -0.679688,0 -1.207032,0.29297 -1.511719,0.63281 z m 0,0"
         style="fill:#000000;fill-opacity:1;fill-rule:nonzero;stroke:none" />
    </g>
  </g>
</svg>
