<?xml version="1.0" encoding="UTF-8" standalone="no"?>
<!-- Created with Inkscape (http://www.inkscape.org/) -->

<svg
   version="1.1"
   id="svg1"
   width="794.55066"
   height="1123.6533"
   viewBox="0 0 794.55066 1123.6533"
   sodipodi:docname="LigaMatematycznaMatuskiego_Klasa7i8_Zestaw3_2021_2022_page0.pdf"
   xmlns:inkscape="http://www.inkscape.org/namespaces/inkscape"
   xmlns:sodipodi="http://sodipodi.sourceforge.net/DTD/sodipodi-0.dtd"
   xmlns="http://www.w3.org/2000/svg"
   xmlns:svg="http://www.w3.org/2000/svg">
  <defs
     id="defs1" />
  <sodipodi:namedview
     id="namedview1"
     pagecolor="#ffffff"
     bordercolor="#000000"
     borderopacity="0.25"
     inkscape:showpageshadow="2"
     inkscape:pageopacity="0.0"
     inkscape:pagecheckerboard="0"
     inkscape:deskcolor="#d1d1d1">
    <inkscape:page
       x="0"
       y="0"
       inkscape:label="1"
       id="page1"
       width="794.55066"
       height="1123.6533"
       margin="0"
       bleed="0" />
  </sodipodi:namedview>
  <g
     id="g1"
     inkscape:groupmode="layer"
     inkscape:label="1">
    <g
       id="g2"
       aria-label="LIGAMATEMATYCZNA&#10;im.ZdzisªawaMatuskiego&#10;GRUDZIE2021&#10;SZKOAPODSTAWOWA&#10;klasyVII-VIII&#10;ZADANIE1.&#10;Sumadwóchliczbjestrówna57460.Je±lidomniejszejliczbydopiszemyzprawejstrony92,to&#10;otrzymamyrówneliczby.Znajd¹je.&#10;ZADANIE2.&#10;Barteknapisaª15liczbnaturalnychiobliczyªichsum¦otrzymuj¡cwynik2022.Basiadopisaªa&#10;znakminusprzedkilkomaztychliczbiobliczyªasum¦wszystkichswoichliczb.Czymogªa&#10;uzyska¢wynik1111?&#10;ZADANIE3.&#10;Pewnaliczbamaczterydzielniki,zktórychdwas¡liczbamipierwszymi.Mikoªajwypisaªje&#10;wkolejno±ciodnajmniejszegodonajwi¦kszego.Drugidzielnikjesto10wi¦kszyodpierwszego,&#10;aczwartyo130wi¦kszyodtrzeciego.Któraliczbamatakiedzielniki?&#10;ZADANIE4.&#10;Aniadzieliªakolejneliczbyparzyste(zaczynaj¡cod0)przezpewn¡liczb¦naturaln¡iwypisy-&#10;waªaresztyzichdzielenia.Pocz¡tekzapisubyªnast¦puj¡cy:0,2,4,6,1,3,5,0,2,4,....Bartek&#10;te»wypisywaªresztyzdzieleniaprzezt¦sam¡liczb¦coAnia.Dzieliªjednakkolejneliczby&#10;nieparzystezaczynaj¡cod1.Zako«czyªprac¦,gdyporaztrzeciuzyskaª0.Ileliczbwypisaª&#10;Bartek?&#10;ZADANIE5.&#10;Rozetnijkwadratnasiedemkwadratów.Znajd¹stosunekobwodównajwi¦kszegoinajmniej-&#10;szegozotrzymanychkwadratów."
       transform="matrix(1.3333333,0,0,1.3333333,274.724,56.069333)">
      <path
         id="path2"
         d="m 5.2870781,116.52027 c 0.5039063,0.16406 0.9257813,0.17578 1.0546875,0.17578 1.359375,0 2.2148438,-0.9961 2.2148438,-1.16016 0,-0.0469 -0.023437,-0.10547 -0.09375,-0.10547 -0.023437,0 -0.046875,0 -0.1523438,0.0469 -0.6679687,0.28125 -1.2421875,0.3164 -1.5585937,0.3164 -0.7851563,0 -1.3476563,-0.23437 -1.5820313,-0.32812 -0.082031,-0.0352 -0.1054687,-0.0352 -0.1171875,-0.0352 -0.09375,0 -0.09375,0.0703 -0.09375,0.25781 v 3.55079 c 0,0.21093 0,0.29296 0.140625,0.29296 0.058594,0 0.070312,-0.0117 0.1992188,-0.16406 0.328125,-0.49219 0.890625,-0.77344 1.4882812,-0.77344 0.6328125,0 0.9492188,0.58594 1.0429688,0.78516 0.1992187,0.46875 0.2109375,1.05469 0.2109375,1.51172 0,0.45703 0,1.13672 -0.328125,1.67578 -0.2695313,0.42188 -0.7382813,0.72656 -1.2539063,0.72656 -0.796875,0 -1.5703125,-0.53906 -1.78125,-1.40625 0.058594,0.0234 0.1289063,0.0352 0.1875,0.0352 0.1992188,0 0.5273438,-0.12891 0.5273438,-0.52734 0,-0.33985 -0.234375,-0.52735 -0.5273438,-0.52735 -0.2109375,0 -0.5273437,0.10547 -0.5273437,0.57422 0,1.00781 0.8085937,2.16797 2.1445312,2.16797 1.3476563,0 2.53125,-1.125 2.53125,-2.64844 0,-1.41797 -0.9609375,-2.60156 -2.2148437,-2.60156 -0.6796875,0 -1.2070313,0.29297 -1.5117188,0.63281 z m 10.0019529,-0.57422 v -0.28125 h -2.882812 c -1.453125,0 -1.476563,-0.15235 -1.523438,-0.38672 h -0.257812 l -0.375,2.39062 H 10.5195 c 0.03516,-0.21093 0.140625,-0.94922 0.292969,-1.07812 0.09375,-0.0703 0.996094,-0.0703 1.160156,-0.0703 h 2.53125 l -1.265625,1.8164 c -0.316406,0.45703 -1.523437,2.42578 -1.523437,4.66406 0,0.14063 0,0.60938 0.480468,0.60938 0.503907,0 0.503907,-0.45703 0.503907,-0.62109 v -0.59766 c 0,-1.78125 0.292968,-3.16406 0.855468,-3.96094 z m 4.482422,-0.36328 c 0,-0.22266 0,-0.29297 -0.164062,-0.29297 -0.09375,0 -0.128907,0 -0.222657,0.15234 l -3.597656,5.57813 v 0.35156 h 3.140625 v 1.07812 c 0,0.44532 -0.02344,0.5625 -0.902344,0.5625 h -0.234375 v 0.35157 c 0.269532,-0.0234 1.21875,-0.0234 1.558594,-0.0234 0.328125,0 1.289063,0 1.558594,0.0234 v -0.35157 h -0.234375 c -0.867188,0 -0.902344,-0.11718 -0.902344,-0.5625 v -1.07812 h 1.207031 v -0.35156 h -1.207031 z m -0.785156,0.9375 v 4.5 h -2.90625 z m 3.791016,2.68359 c 0,-3.02344 1.476562,-3.50391 2.121093,-3.50391 0.433594,0 0.855469,0.12891 1.089844,0.49219 -0.140625,0 -0.597656,0 -0.597656,0.49219 0,0.25781 0.175781,0.49219 0.492187,0.49219 0.292969,0 0.492188,-0.1875 0.492188,-0.52735 0,-0.62109 -0.445313,-1.23047 -1.488281,-1.23047 -1.511719,0 -3.082032,1.53516 -3.082032,4.17188 0,3.28125 1.429688,4.01953 2.449219,4.01953 1.300781,0 2.414063,-1.125 2.414063,-2.68359 0,-1.59375 -1.113282,-2.66016 -2.308594,-2.66016 -1.066406,0 -1.453125,0.92578 -1.582031,1.26562 z m 1.476562,4.08984 c -0.75,0 -1.113281,-0.66797 -1.21875,-0.92578 -0.105469,-0.30469 -0.222656,-0.89062 -0.222656,-1.73437 0,-0.9375 0.421875,-2.1211 1.5,-2.1211 0.65625,0 1.007812,0.44532 1.183594,0.84375 0.1875,0.44532 0.1875,1.04297 0.1875,1.5586 0,0.60937 0,1.14843 -0.222657,1.60547 -0.304687,0.57421 -0.726562,0.77343 -1.207031,0.77343 z m 8.267578,-3.75 c 0,-0.99609 -0.05859,-1.96875 -0.492187,-2.87109 -0.492188,-0.99609 -1.347657,-1.25391 -1.933594,-1.25391 -0.691406,0 -1.546875,0.33985 -1.980469,1.33594 -0.339844,0.75 -0.457031,1.48828 -0.457031,2.78906 0,1.16016 0.08203,2.02735 0.515625,2.8711 0.457031,0.91406 1.289062,1.19531 1.910156,1.19531 1.042969,0 1.640625,-0.62109 1.980469,-1.3125 0.433594,-0.89063 0.457031,-2.0625 0.457031,-2.75391 z m -2.4375,3.83203 c -0.386719,0 -1.160156,-0.21093 -1.382812,-1.52343 -0.140625,-0.71485 -0.140625,-1.61719 -0.140625,-2.46094 0,-0.97266 0,-1.86328 0.199218,-2.56641 0.199219,-0.79687 0.808594,-1.17187 1.324219,-1.17187 0.457031,0 1.148438,0.28125 1.371094,1.30078 0.152344,0.67969 0.152344,1.62891 0.152344,2.4375 0,0.80859 0,1.71094 -0.128907,2.4375 -0.222656,1.32422 -0.972656,1.54687 -1.394531,1.54687 z m 0,0"
         style="fill:#000000;fill-opacity:1;fill-rule:nonzero;stroke:none" />
      <path
         id="path3"
         d="m 308.89645,119.88355 c 0,2.82422 -1.2539,3.41015 -1.96875,3.41015 -0.28125,0 -0.92578,-0.0352 -1.21875,-0.45703 h 0.0703 c 0.082,0.0234 0.51562,-0.0469 0.51562,-0.49219 0,-0.25781 -0.17578,-0.49218 -0.49219,-0.49218 -0.30468,0 -0.5039,0.21093 -0.5039,0.51562 0,0.75 0.59765,1.24219 1.64062,1.24219 1.5,0 2.94141,-1.58203 2.94141,-4.18359 0,-3.21094 -1.33594,-4.00782 -2.39063,-4.00782 -1.3125,0 -2.47265,1.10157 -2.47265,2.67188 0,1.58203 1.11328,2.66015 2.30859,2.66015 0.87891,0 1.33594,-0.64453 1.57031,-1.2539 z m -1.52343,0.62109 c -0.75,0 -1.07813,-0.60937 -1.1836,-0.83203 -0.19922,-0.45703 -0.19922,-1.03125 -0.19922,-1.57031 0,-0.66797 0,-1.24219 0.31641,-1.73438 0.21094,-0.3164 0.53906,-0.66797 1.18359,-0.66797 0.67969,0 1.03125,0.59766 1.14844,0.87891 0.23438,0.58594 0.23438,1.59375 0.23438,1.78125 0,0.99609 -0.44532,2.14453 -1.5,2.14453 z m 8.26757,0.85547 h -0.26953 c -0.0351,0.19922 -0.1289,0.85547 -0.24609,1.04297 -0.082,0.11719 -0.76172,0.11719 -1.125,0.11719 h -2.21484 c 0.32812,-0.28125 1.05468,-1.04297 1.37109,-1.33594 1.81641,-1.66406 2.48437,-2.28516 2.48437,-3.46875 0,-1.38281 -1.08984,-2.29688 -2.47265,-2.29688 -1.39453,0 -2.20313,1.1836 -2.20313,2.20313 0,0.60937 0.52735,0.60937 0.5625,0.60937 0.2461,0 0.5625,-0.17578 0.5625,-0.5625 0,-0.32812 -0.23437,-0.55078 -0.5625,-0.55078 -0.10547,0 -0.1289,0 -0.16406,0.0117 0.22266,-0.82031 0.86719,-1.37109 1.64063,-1.37109 1.01953,0 1.64062,0.85547 1.64062,1.95703 0,1.00781 -0.58594,1.89844 -1.26562,2.66015 l -2.41407,2.70704 v 0.28125 h 4.35938 z m 0,0"
         style="fill:#000000;fill-opacity:1;fill-rule:nonzero;stroke:none" />
      <path
         id="path4"
         d="m -66.381867,173.20972 c 0,-0.26953 0,-0.28125 -0.246094,-0.28125 -0.28125,0.31641 -0.878906,0.76172 -2.109375,0.76172 v 0.35156 c 0.269531,0 0.867188,0 1.523438,-0.31641 v 6.22266 c 0,0.43359 -0.03516,0.57422 -1.078125,0.57422 h -0.375 v 0.35156 c 0.316406,-0.0234 1.476562,-0.0234 1.875,-0.0234 0.398437,0 1.546875,0 1.863281,0.0234 v -0.35156 h -0.363281 c -1.054688,0 -1.089844,-0.14063 -1.089844,-0.57422 z m 3.943359,0.82031 c 0.503906,0.16406 0.925781,0.17578 1.054688,0.17578 1.359375,0 2.214843,-0.99609 2.214843,-1.16015 0,-0.0469 -0.02344,-0.10547 -0.09375,-0.10547 -0.02344,0 -0.04687,0 -0.152343,0.0469 -0.667969,0.28125 -1.242188,0.31641 -1.558594,0.31641 -0.785156,0 -1.347656,-0.23438 -1.582031,-0.32813 -0.08203,-0.0351 -0.105469,-0.0351 -0.117188,-0.0351 -0.09375,0 -0.09375,0.0703 -0.09375,0.25781 v 3.55078 c 0,0.21094 0,0.29297 0.140625,0.29297 0.05859,0 0.07031,-0.0117 0.199219,-0.16406 0.328125,-0.49219 0.890625,-0.77344 1.488281,-0.77344 0.632813,0 0.949219,0.58594 1.042969,0.78516 0.199219,0.46875 0.210937,1.05468 0.210937,1.51172 0,0.45703 0,1.13671 -0.328125,1.67578 -0.269531,0.42187 -0.738281,0.72656 -1.253906,0.72656 -0.796875,0 -1.570312,-0.53906 -1.78125,-1.40625 0.05859,0.0234 0.128906,0.0352 0.1875,0.0352 0.199219,0 0.527344,-0.12891 0.527344,-0.52735 0,-0.33984 -0.234375,-0.52734 -0.527344,-0.52734 -0.210937,0 -0.527344,0.10547 -0.527344,0.57422 0,1.00781 0.808594,2.16797 2.144532,2.16797 1.347656,0 2.53125,-1.125 2.53125,-2.64844 0,-1.41797 -0.960938,-2.60156 -2.214844,-2.60156 -0.679688,0 -1.207031,0.29296 -1.511719,0.63281 z m 0,0"
         style="fill:#000000;fill-opacity:1;fill-rule:nonzero;stroke:none" />
      <path
         id="path5"
         d="m 234.79294,178.86988 h -0.26953 c -0.0352,0.19921 -0.12891,0.85546 -0.2461,1.04296 -0.082,0.11719 -0.76172,0.11719 -1.125,0.11719 h -2.21484 c 0.32812,-0.28125 1.05469,-1.04297 1.37109,-1.33594 1.81641,-1.66406 2.48438,-2.28515 2.48438,-3.46875 0,-1.38281 -1.08985,-2.29687 -2.47266,-2.29687 -1.39453,0 -2.20312,1.18359 -2.20312,2.20312 0,0.60938 0.52734,0.60938 0.5625,0.60938 0.24609,0 0.5625,-0.17578 0.5625,-0.5625 0,-0.32813 -0.23438,-0.55078 -0.5625,-0.55078 -0.10547,0 -0.12891,0 -0.16407,0.0117 0.22266,-0.82032 0.86719,-1.3711 1.64063,-1.3711 1.01953,0 1.64062,0.85547 1.64062,1.95703 0,1.00782 -0.58593,1.89844 -1.26562,2.66016 l -2.41406,2.70703 v 0.28125 h 4.35937 z m 5.94726,-1.81641 c 0,-0.99609 -0.0586,-1.96875 -0.49218,-2.87109 -0.49219,-0.9961 -1.34766,-1.25391 -1.9336,-1.25391 -0.6914,0 -1.54687,0.33984 -1.98047,1.33594 -0.33984,0.75 -0.45703,1.48828 -0.45703,2.78906 0,1.16016 0.082,2.02734 0.51563,2.87109 0.45703,0.91407 1.28906,1.19532 1.91015,1.19532 1.04297,0 1.64063,-0.6211 1.98047,-1.3125 0.4336,-0.89063 0.45703,-2.0625 0.45703,-2.75391 z m -2.4375,3.83203 c -0.38672,0 -1.16015,-0.21094 -1.38281,-1.52344 -0.14062,-0.71484 -0.14062,-1.61718 -0.14062,-2.46093 0,-0.97266 0,-1.86329 0.19921,-2.56641 0.19922,-0.79688 0.8086,-1.17188 1.32422,-1.17188 0.45703,0 1.14844,0.28125 1.3711,1.30079 0.15234,0.67968 0.15234,1.6289 0.15234,2.4375 0,0.80859 0,1.71093 -0.12891,2.4375 -0.22265,1.32421 -0.97265,1.54687 -1.39453,1.54687 z m 8.19727,-2.01562 h -0.26953 c -0.0352,0.19921 -0.12891,0.85546 -0.2461,1.04296 -0.082,0.11719 -0.76171,0.11719 -1.125,0.11719 h -2.21484 c 0.32813,-0.28125 1.05469,-1.04297 1.37109,-1.33594 1.81641,-1.66406 2.48438,-2.28515 2.48438,-3.46875 0,-1.38281 -1.08984,-2.29687 -2.47266,-2.29687 -1.39453,0 -2.20312,1.18359 -2.20312,2.20312 0,0.60938 0.52734,0.60938 0.5625,0.60938 0.24609,0 0.5625,-0.17578 0.5625,-0.5625 0,-0.32813 -0.23438,-0.55078 -0.5625,-0.55078 -0.10547,0 -0.12891,0 -0.16406,0.0117 0.22265,-0.82032 0.86718,-1.3711 1.64062,-1.3711 1.01953,0 1.64063,0.85547 1.64063,1.95703 0,1.00782 -0.58594,1.89844 -1.26563,2.66016 l -2.41406,2.70703 v 0.28125 h 4.35937 z m 5.85351,0 h -0.26953 c -0.0351,0.19921 -0.1289,0.85546 -0.24609,1.04296 -0.082,0.11719 -0.76172,0.11719 -1.125,0.11719 h -2.21484 c 0.32812,-0.28125 1.05468,-1.04297 1.37109,-1.33594 1.81641,-1.66406 2.48437,-2.28515 2.48437,-3.46875 0,-1.38281 -1.08984,-2.29687 -2.47265,-2.29687 -1.39453,0 -2.20313,1.18359 -2.20313,2.20312 0,0.60938 0.52735,0.60938 0.5625,0.60938 0.2461,0 0.5625,-0.17578 0.5625,-0.5625 0,-0.32813 -0.23437,-0.55078 -0.5625,-0.55078 -0.10547,0 -0.1289,0 -0.16406,0.0117 0.22266,-0.82032 0.86719,-1.3711 1.64063,-1.3711 1.01953,0 1.64062,0.85547 1.64062,1.95703 0,1.00782 -0.58594,1.89844 -1.26562,2.66016 l -2.41407,2.70703 v 0.28125 h 4.35938 z m 0,0"
         style="fill:#000000;fill-opacity:1;fill-rule:nonzero;stroke:none" />
      <path
         id="path6"
         d="m -67.334016,202.1023 c 0,-0.26953 0,-0.28125 -0.246093,-0.28125 -0.28125,0.3164 -0.878907,0.76172 -2.109375,0.76172 v 0.35156 c 0.269531,0 0.867187,0 1.523437,-0.31641 v 6.22266 c 0,0.43359 -0.03516,0.57422 -1.078125,0.57422 h -0.375 v 0.35156 c 0.316406,-0.0234 1.476563,-0.0234 1.875,-0.0234 0.398438,0 1.546875,0 1.863281,0.0234 v -0.35156 h -0.363281 c -1.054687,0 -1.089844,-0.14063 -1.089844,-0.57422 z m 5.853516,0 c 0,-0.26953 0,-0.28125 -0.246094,-0.28125 -0.28125,0.3164 -0.878906,0.76172 -2.109375,0.76172 v 0.35156 c 0.269532,0 0.867188,0 1.523438,-0.31641 v 6.22266 c 0,0.43359 -0.03516,0.57422 -1.078125,0.57422 h -0.375 v 0.35156 c 0.316406,-0.0234 1.476562,-0.0234 1.875,-0.0234 0.398437,0 1.546875,0 1.863281,0.0234 v -0.35156 h -0.363281 c -1.054688,0 -1.089844,-0.14063 -1.089844,-0.57422 z m 5.853516,0 c 0,-0.26953 0,-0.28125 -0.246094,-0.28125 -0.28125,0.3164 -0.878906,0.76172 -2.109375,0.76172 v 0.35156 c 0.269531,0 0.867187,0 1.523437,-0.31641 v 6.22266 c 0,0.43359 -0.03516,0.57422 -1.078125,0.57422 h -0.375 v 0.35156 c 0.316407,-0.0234 1.476563,-0.0234 1.875,-0.0234 0.398438,0 1.546875,0 1.863282,0.0234 v -0.35156 h -0.363282 c -1.054687,0 -1.089843,-0.14063 -1.089843,-0.57422 z m 5.853515,0 c 0,-0.26953 0,-0.28125 -0.246093,-0.28125 -0.28125,0.3164 -0.878907,0.76172 -2.109375,0.76172 v 0.35156 c 0.269531,0 0.867187,0 1.523437,-0.31641 v 6.22266 c 0,0.43359 -0.03516,0.57422 -1.078125,0.57422 h -0.375 v 0.35156 c 0.316406,-0.0234 1.476563,-0.0234 1.875,-0.0234 0.398438,0 1.546875,0 1.863281,0.0234 v -0.35156 h -0.363281 c -1.054687,0 -1.089844,-0.14063 -1.089844,-0.57422 z m 0,0"
         style="fill:#000000;fill-opacity:1;fill-rule:nonzero;stroke:none" />
      <path
         id="path7"
         d="m 205.47848,259.61206 c 0,-0.26953 0,-0.28125 -0.24609,-0.28125 -0.28125,0.31641 -0.87891,0.76172 -2.10937,0.76172 v 0.35156 c 0.26953,0 0.86718,0 1.52343,-0.3164 v 6.22265 c 0,0.4336 -0.0351,0.57422 -1.07812,0.57422 h -0.375 v 0.35157 c 0.3164,-0.0234 1.47656,-0.0234 1.875,-0.0234 0.39844,0 1.54687,0 1.86328,0.0234 v -0.35157 h -0.36328 c -1.05469,0 -1.08985,-0.14062 -1.08985,-0.57422 z m 7.76368,3.84375 c 0,-0.99609 -0.0586,-1.96875 -0.49219,-2.87109 -0.49219,-0.99609 -1.34766,-1.25391 -1.93359,-1.25391 -0.69141,0 -1.54688,0.33985 -1.98047,1.33594 -0.33985,0.75 -0.45703,1.48828 -0.45703,2.78906 0,1.16016 0.082,2.02735 0.51562,2.8711 0.45703,0.91406 1.28906,1.19531 1.91016,1.19531 1.04297,0 1.64062,-0.62109 1.98047,-1.3125 0.43359,-0.89063 0.45703,-2.0625 0.45703,-2.75391 z m -2.4375,3.83203 c -0.38672,0 -1.16016,-0.21093 -1.38282,-1.52343 -0.14062,-0.71485 -0.14062,-1.61719 -0.14062,-2.46094 0,-0.97266 0,-1.86328 0.19922,-2.56641 0.19922,-0.79687 0.80859,-1.17187 1.32422,-1.17187 0.45703,0 1.14843,0.28125 1.37109,1.30078 0.15234,0.67969 0.15234,1.62891 0.15234,2.4375 0,0.80859 0,1.71094 -0.1289,2.4375 -0.22266,1.32422 -0.97266,1.54687 -1.39453,1.54687 z m 0,0"
         style="fill:#000000;fill-opacity:1;fill-rule:nonzero;stroke:none" />
      <path
         id="path8"
         d="m -82.029328,274.05835 c 0,-0.26953 0,-0.28125 -0.246094,-0.28125 -0.28125,0.31641 -0.878906,0.76172 -2.109375,0.76172 v 0.35156 c 0.269531,0 0.867188,0 1.523438,-0.3164 v 6.22265 c 0,0.4336 -0.03516,0.57422 -1.078125,0.57422 h -0.375 v 0.35156 c 0.316406,-0.0234 1.476562,-0.0234 1.875,-0.0234 0.398437,0 1.546875,0 1.863281,0.0234 v -0.35156 h -0.363281 c -1.054688,0 -1.089844,-0.14062 -1.089844,-0.57422 z m 4.611328,3.375 c -0.210937,0.0117 -0.257812,0.0234 -0.257812,0.12891 0,0.11719 0.05859,0.11719 0.28125,0.11719 h 0.550781 c 1.007812,0 1.464844,0.84375 1.464844,1.99218 0,1.5586 -0.808594,1.98047 -1.394532,1.98047 -0.574218,0 -1.558593,-0.28125 -1.898437,-1.0664 0.375,0.0586 0.726562,-0.15235 0.726562,-0.58594 0,-0.33985 -0.257812,-0.58594 -0.585937,-0.58594 -0.292969,0 -0.597656,0.16406 -0.597656,0.62109 0,1.06641 1.066406,1.9336 2.390625,1.9336 1.417968,0 2.472656,-1.07813 2.472656,-2.28516 0,-1.10156 -0.890625,-1.96875 -2.027344,-2.16797 1.03125,-0.30468 1.699219,-1.17187 1.699219,-2.10937 0,-0.9375 -0.972656,-1.62891 -2.132813,-1.62891 -1.195312,0 -2.085937,0.72656 -2.085937,1.59375 0,0.48047 0.375,0.57422 0.550781,0.57422 0.257813,0 0.539063,-0.17578 0.539063,-0.53906 0,-0.375 -0.28125,-0.53906 -0.550782,-0.53906 -0.07031,0 -0.09375,0 -0.128906,0.0117 0.457031,-0.82031 1.582031,-0.82031 1.640625,-0.82031 0.386719,0 1.171875,0.17578 1.171875,1.34766 0,0.23437 -0.03516,0.90234 -0.386719,1.41797 -0.351562,0.52734 -0.761718,0.5625 -1.089843,0.57422 z m 9.005859,0.46875 c 0,-0.99609 -0.05859,-1.96875 -0.492187,-2.87109 -0.492188,-0.9961 -1.347656,-1.25391 -1.933594,-1.25391 -0.691406,0 -1.546875,0.33985 -1.980469,1.33594 -0.339843,0.75 -0.457031,1.48828 -0.457031,2.78906 0,1.16016 0.08203,2.02735 0.515625,2.8711 0.457031,0.91406 1.289063,1.19531 1.910156,1.19531 1.042969,0 1.640625,-0.6211 1.980469,-1.3125 0.433594,-0.89063 0.457031,-2.0625 0.457031,-2.75391 z m -2.4375,3.83203 c -0.386718,0 -1.160156,-0.21093 -1.382812,-1.52343 -0.140625,-0.71485 -0.140625,-1.61719 -0.140625,-2.46094 0,-0.97266 0,-1.86328 0.199219,-2.56641 0.199218,-0.79687 0.808593,-1.17187 1.324218,-1.17187 0.457032,0 1.148438,0.28125 1.371094,1.30078 0.152344,0.67969 0.152344,1.6289 0.152344,2.4375 0,0.80859 0,1.71094 -0.128906,2.4375 -0.222657,1.32422 -0.972657,1.54687 -1.394532,1.54687 z m 0,0"
         style="fill:#000000;fill-opacity:1;fill-rule:nonzero;stroke:none" />
      <path
         id="path9"
         d="m 125.07907,320.96558 c 0,-0.9961 -0.0586,-1.96875 -0.49219,-2.8711 -0.49218,-0.99609 -1.34765,-1.2539 -1.93359,-1.2539 -0.69141,0 -1.54688,0.33984 -1.98047,1.33594 -0.33984,0.75 -0.45703,1.48828 -0.45703,2.78906 0,1.16015 0.082,2.02734 0.51562,2.87109 0.45704,0.91406 1.28907,1.19531 1.91016,1.19531 1.04297,0 1.64063,-0.62109 1.98047,-1.3125 0.43359,-0.89062 0.45703,-2.0625 0.45703,-2.7539 z m -2.4375,3.83203 c -0.38672,0 -1.16016,-0.21094 -1.38281,-1.52344 -0.14063,-0.71484 -0.14063,-1.61719 -0.14063,-2.46094 0,-0.97265 0,-1.86328 0.19922,-2.5664 0.19922,-0.79688 0.8086,-1.17188 1.32422,-1.17188 0.45703,0 1.14844,0.28125 1.37109,1.30078 0.15235,0.67969 0.15235,1.62891 0.15235,2.4375 0,0.8086 0,1.71094 -0.12891,2.4375 -0.22265,1.32422 -0.97265,1.54688 -1.39453,1.54688 z m 0,0"
         style="fill:#000000;fill-opacity:1;fill-rule:nonzero;stroke:none" />
      <path
         id="path10"
         d="m 172.41989,335.41187 c 0,-0.9961 -0.0586,-1.96875 -0.49219,-2.8711 -0.49218,-0.99609 -1.34765,-1.2539 -1.93359,-1.2539 -0.69141,0 -1.54688,0.33984 -1.98047,1.33593 -0.33984,0.75 -0.45703,1.48829 -0.45703,2.78907 0,1.16015 0.082,2.02734 0.51562,2.87109 0.45704,0.91406 1.28907,1.19531 1.91016,1.19531 1.04297,0 1.64063,-0.62109 1.98047,-1.3125 0.43359,-0.89062 0.45703,-2.0625 0.45703,-2.7539 z m -2.4375,3.83203 c -0.38672,0 -1.16016,-0.21094 -1.38281,-1.52344 -0.14063,-0.71484 -0.14063,-1.61719 -0.14063,-2.46094 0,-0.97265 0,-1.86328 0.19922,-2.5664 0.19922,-0.79688 0.8086,-1.17188 1.32422,-1.17188 0.45703,0 1.14844,0.28125 1.37109,1.30078 0.15235,0.67969 0.15235,1.62891 0.15235,2.4375 0,0.8086 0,1.71094 -0.12891,2.4375 -0.22265,1.32422 -0.97265,1.54688 -1.39453,1.54688 z m 0,0"
         style="fill:#000000;fill-opacity:1;fill-rule:nonzero;stroke:none" />
      <path
         id="path11"
         d="m 175.24704,339.27905 c 0,-0.6914 -0.22266,-1.20703 -0.71484,-1.20703 -0.38672,0 -0.57422,0.31641 -0.57422,0.57422 0,0.25781 0.17578,0.58594 0.58593,0.58594 0.15235,0 0.28125,-0.0469 0.38672,-0.15234 0.0234,-0.0234 0.0352,-0.0234 0.0469,-0.0234 0.0352,0 0.0352,0.16406 0.0352,0.22265 0,0.39844 -0.082,1.17188 -0.77343,1.94532 -0.12891,0.15234 -0.12891,0.17578 -0.12891,0.19922 0,0.0586 0.0586,0.11718 0.11719,0.11718 0.0937,0 1.01953,-0.89062 1.01953,-2.26172 z m 0,0"
         style="fill:#000000;fill-opacity:1;fill-rule:nonzero;stroke:none" />
      <path
         id="path12"
         d="m 183.42087,337.22827 h -0.26953 c -0.0352,0.19922 -0.12891,0.85547 -0.2461,1.04297 -0.082,0.11719 -0.76172,0.11719 -1.125,0.11719 h -2.21484 c 0.32812,-0.28125 1.05469,-1.04297 1.37109,-1.33594 1.81641,-1.66406 2.48438,-2.28515 2.48438,-3.46875 0,-1.38281 -1.08985,-2.29687 -2.47266,-2.29687 -1.39453,0 -2.20312,1.18359 -2.20312,2.20312 0,0.60938 0.52734,0.60938 0.5625,0.60938 0.24609,0 0.5625,-0.17578 0.5625,-0.5625 0,-0.32813 -0.23438,-0.55078 -0.5625,-0.55078 -0.10547,0 -0.12891,0 -0.16407,0.0117 0.22266,-0.82031 0.86719,-1.37109 1.64063,-1.37109 1.01953,0 1.64062,0.85547 1.64062,1.95703 0,1.00781 -0.58593,1.89844 -1.26562,2.66016 l -2.41406,2.70703 v 0.28125 h 4.35937 z m 0,0"
         style="fill:#000000;fill-opacity:1;fill-rule:nonzero;stroke:none" />
      <path
         id="path13"
         d="m 186.3447,339.27905 c 0,-0.6914 -0.22266,-1.20703 -0.71485,-1.20703 -0.38672,0 -0.57422,0.31641 -0.57422,0.57422 0,0.25781 0.17578,0.58594 0.58594,0.58594 0.15234,0 0.28125,-0.0469 0.38672,-0.15234 0.0234,-0.0234 0.0352,-0.0234 0.0469,-0.0234 0.0352,0 0.0352,0.16406 0.0352,0.22265 0,0.39844 -0.082,1.17188 -0.77344,1.94532 -0.1289,0.15234 -0.1289,0.17578 -0.1289,0.19922 0,0.0586 0.0586,0.11718 0.11718,0.11718 0.0937,0 1.01954,-0.89062 1.01954,-2.26172 z m 0,0"
         style="fill:#000000;fill-opacity:1;fill-rule:nonzero;stroke:none" />
      <path
         id="path14"
         d="m 193.5693,331.45093 c 0,-0.22266 0,-0.29297 -0.16406,-0.29297 -0.0937,0 -0.1289,0 -0.22265,0.15234 l -3.59766,5.57813 v 0.35156 h 3.14062 v 1.07813 c 0,0.44531 -0.0234,0.5625 -0.90234,0.5625 h -0.23437 v 0.35156 c 0.26953,-0.0234 1.21875,-0.0234 1.55859,-0.0234 0.32812,0 1.28906,0 1.55859,0.0234 v -0.35156 h -0.23437 c -0.86719,0 -0.90235,-0.11719 -0.90235,-0.5625 v -1.07813 h 1.20704 v -0.35156 h -1.20704 z m -0.78515,0.9375 v 4.5 h -2.90625 z m 0,0"
         style="fill:#000000;fill-opacity:1;fill-rule:nonzero;stroke:none" />
      <path
         id="path15"
         d="m 197.44235,339.27905 c 0,-0.6914 -0.22265,-1.20703 -0.71484,-1.20703 -0.38672,0 -0.57422,0.31641 -0.57422,0.57422 0,0.25781 0.17578,0.58594 0.58594,0.58594 0.15234,0 0.28125,-0.0469 0.38672,-0.15234 0.0234,-0.0234 0.0352,-0.0234 0.0469,-0.0234 0.0352,0 0.0352,0.16406 0.0352,0.22265 0,0.39844 -0.082,1.17188 -0.77344,1.94532 -0.12891,0.15234 -0.12891,0.17578 -0.12891,0.19922 0,0.0586 0.0586,0.11718 0.11719,0.11718 0.0937,0 1.01953,-0.89062 1.01953,-2.26172 z m 0,0"
         style="fill:#000000;fill-opacity:1;fill-rule:nonzero;stroke:none" />
      <path
         id="path16"
         d="m 201.8193,335.07202 c 0,-3.02343 1.47657,-3.5039 2.1211,-3.5039 0.43359,0 0.85547,0.1289 1.08984,0.49218 -0.14062,0 -0.59765,0 -0.59765,0.49219 0,0.25781 0.17578,0.49219 0.49218,0.49219 0.29297,0 0.49219,-0.1875 0.49219,-0.52734 0,-0.6211 -0.44531,-1.23047 -1.48828,-1.23047 -1.51172,0 -3.08203,1.53515 -3.08203,4.17187 0,3.28125 1.42969,4.01953 2.44922,4.01953 1.30078,0 2.41406,-1.125 2.41406,-2.68359 0,-1.59375 -1.11328,-2.66016 -2.30859,-2.66016 -1.06641,0 -1.45313,0.92578 -1.58204,1.26563 z m 1.47657,4.08985 c -0.75,0 -1.11328,-0.66797 -1.21875,-0.92578 -0.10547,-0.30469 -0.22266,-0.89063 -0.22266,-1.73438 0,-0.9375 0.42188,-2.12109 1.5,-2.12109 0.65625,0 1.00781,0.44531 1.18359,0.84375 0.1875,0.44531 0.1875,1.04297 0.1875,1.55859 0,0.60938 0,1.14844 -0.22265,1.60547 -0.30469,0.57422 -0.72656,0.77344 -1.20703,0.77344 z m 0,0"
         style="fill:#000000;fill-opacity:1;fill-rule:nonzero;stroke:none" />
      <path
         id="path17"
         d="m 208.54001,339.27905 c 0,-0.6914 -0.22266,-1.20703 -0.71485,-1.20703 -0.38671,0 -0.57421,0.31641 -0.57421,0.57422 0,0.25781 0.17578,0.58594 0.58593,0.58594 0.15235,0 0.28125,-0.0469 0.38672,-0.15234 0.0234,-0.0234 0.0352,-0.0234 0.0469,-0.0234 0.0352,0 0.0352,0.16406 0.0352,0.22265 0,0.39844 -0.082,1.17188 -0.77343,1.94532 -0.12891,0.15234 -0.12891,0.17578 -0.12891,0.19922 0,0.0586 0.0586,0.11718 0.11719,0.11718 0.0937,0 1.01953,-0.89062 1.01953,-2.26172 z m 0,0"
         style="fill:#000000;fill-opacity:1;fill-rule:nonzero;stroke:none" />
      <path
         id="path18"
         d="m 214.89743,331.56812 c 0,-0.26953 0,-0.28125 -0.24609,-0.28125 -0.28125,0.3164 -0.87891,0.76172 -2.10938,0.76172 v 0.35156 c 0.26953,0 0.86719,0 1.52344,-0.31641 v 6.22266 c 0,0.43359 -0.0352,0.57422 -1.07813,0.57422 h -0.375 v 0.35156 c 0.31641,-0.0234 1.47657,-0.0234 1.875,-0.0234 0.39844,0 1.54688,0 1.86328,0.0234 v -0.35156 h -0.36328 c -1.05468,0 -1.08984,-0.14063 -1.08984,-0.57422 z m 0,0"
         style="fill:#000000;fill-opacity:1;fill-rule:nonzero;stroke:none" />
      <path
         id="path19"
         d="m 219.63473,339.27905 c 0,-0.6914 -0.22265,-1.20703 -0.71484,-1.20703 -0.38672,0 -0.57422,0.31641 -0.57422,0.57422 0,0.25781 0.17578,0.58594 0.58594,0.58594 0.15234,0 0.28125,-0.0469 0.38672,-0.15234 0.0234,-0.0234 0.0351,-0.0234 0.0469,-0.0234 0.0352,0 0.0352,0.16406 0.0352,0.22265 0,0.39844 -0.082,1.17188 -0.77344,1.94532 -0.1289,0.15234 -0.1289,0.17578 -0.1289,0.19922 0,0.0586 0.0586,0.11718 0.11718,0.11718 0.0937,0 1.01953,-0.89062 1.01953,-2.26172 z m 0,0"
         style="fill:#000000;fill-opacity:1;fill-rule:nonzero;stroke:none" />
      <path
         id="path20"
         d="m 224.74997,334.94312 c -0.21094,0.0117 -0.25781,0.0234 -0.25781,0.1289 0,0.11719 0.0586,0.11719 0.28125,0.11719 h 0.55078 c 1.00781,0 1.46484,0.84375 1.46484,1.99219 0,1.55859 -0.80859,1.98047 -1.39453,1.98047 -0.57422,0 -1.55859,-0.28125 -1.89844,-1.06641 0.375,0.0586 0.72657,-0.15234 0.72657,-0.58594 0,-0.33984 -0.25782,-0.58593 -0.58594,-0.58593 -0.29297,0 -0.59766,0.16406 -0.59766,0.62109 0,1.06641 1.06641,1.93359 2.39063,1.93359 1.41797,0 2.47265,-1.07812 2.47265,-2.28515 0,-1.10157 -0.89062,-1.96875 -2.02734,-2.16797 1.03125,-0.30469 1.69922,-1.17188 1.69922,-2.10938 0,-0.9375 -0.97266,-1.6289 -2.13281,-1.6289 -1.19532,0 -2.08594,0.72656 -2.08594,1.59375 0,0.48047 0.375,0.57422 0.55078,0.57422 0.25781,0 0.53906,-0.17579 0.53906,-0.53907 0,-0.375 -0.28125,-0.53906 -0.55078,-0.53906 -0.0703,0 -0.0937,0 -0.12891,0.0117 0.45704,-0.82031 1.58204,-0.82031 1.64063,-0.82031 0.38672,0 1.17187,0.17578 1.17187,1.34765 0,0.23438 -0.0352,0.90235 -0.38671,1.41797 -0.35157,0.52735 -0.76172,0.5625 -1.08985,0.57422 z m 0,0"
         style="fill:#000000;fill-opacity:1;fill-rule:nonzero;stroke:none" />
      <path
         id="path21"
         d="m 230.73239,339.27905 c 0,-0.6914 -0.22266,-1.20703 -0.71484,-1.20703 -0.38672,0 -0.57422,0.31641 -0.57422,0.57422 0,0.25781 0.17578,0.58594 0.58594,0.58594 0.15234,0 0.28125,-0.0469 0.38671,-0.15234 0.0234,-0.0234 0.0352,-0.0234 0.0469,-0.0234 0.0352,0 0.0352,0.16406 0.0352,0.22265 0,0.39844 -0.082,1.17188 -0.77344,1.94532 -0.12891,0.15234 -0.12891,0.17578 -0.12891,0.19922 0,0.0586 0.0586,0.11718 0.11719,0.11718 0.0937,0 1.01953,-0.89062 1.01953,-2.26172 z m 0,0"
         style="fill:#000000;fill-opacity:1;fill-rule:nonzero;stroke:none" />
      <path
         id="path22"
         d="m 235.18259,332.38843 c 0.5039,0.16406 0.92578,0.17578 1.05468,0.17578 1.35938,0 2.21485,-0.99609 2.21485,-1.16016 0,-0.0469 -0.0234,-0.10546 -0.0937,-0.10546 -0.0234,0 -0.0469,0 -0.15235,0.0469 -0.66797,0.28125 -1.24218,0.31641 -1.55859,0.31641 -0.78516,0 -1.34766,-0.23438 -1.58203,-0.32813 -0.082,-0.0351 -0.10547,-0.0351 -0.11719,-0.0351 -0.0937,0 -0.0937,0.0703 -0.0937,0.25781 v 3.55078 c 0,0.21094 0,0.29297 0.14063,0.29297 0.0586,0 0.0703,-0.0117 0.19921,-0.16406 0.32813,-0.49219 0.89063,-0.77344 1.48829,-0.77344 0.63281,0 0.94921,0.58594 1.04296,0.78515 0.19922,0.46875 0.21094,1.05469 0.21094,1.51172 0,0.45703 0,1.13672 -0.32812,1.67578 -0.26953,0.42188 -0.73828,0.72657 -1.25391,0.72657 -0.79687,0 -1.57031,-0.53907 -1.78125,-1.40625 0.0586,0.0234 0.12891,0.0351 0.1875,0.0351 0.19922,0 0.52734,-0.1289 0.52734,-0.52734 0,-0.33984 -0.23437,-0.52734 -0.52734,-0.52734 -0.21094,0 -0.52734,0.10546 -0.52734,0.57421 0,1.00782 0.80859,2.16797 2.14453,2.16797 1.34765,0 2.53125,-1.125 2.53125,-2.64843 0,-1.41797 -0.96094,-2.60157 -2.21485,-2.60157 -0.67968,0 -1.20703,0.29297 -1.51171,0.63282 z m 0,0"
         style="fill:#000000;fill-opacity:1;fill-rule:nonzero;stroke:none" />
      <path
         id="path23"
         d="m 241.83005,339.27905 c 0,-0.6914 -0.22266,-1.20703 -0.71485,-1.20703 -0.38672,0 -0.57422,0.31641 -0.57422,0.57422 0,0.25781 0.17579,0.58594 0.58594,0.58594 0.15235,0 0.28125,-0.0469 0.38672,-0.15234 0.0234,-0.0234 0.0352,-0.0234 0.0469,-0.0234 0.0352,0 0.0352,0.16406 0.0352,0.22265 0,0.39844 -0.082,1.17188 -0.77344,1.94532 -0.1289,0.15234 -0.1289,0.17578 -0.1289,0.19922 0,0.0586 0.0586,0.11718 0.11719,0.11718 0.0937,0 1.01953,-0.89062 1.01953,-2.26172 z m 0,0"
         style="fill:#000000;fill-opacity:1;fill-rule:nonzero;stroke:none" />
      <path
         id="path24"
         d="m 250.09763,335.41187 c 0,-0.9961 -0.0586,-1.96875 -0.49219,-2.8711 -0.49219,-0.99609 -1.34766,-1.2539 -1.9336,-1.2539 -0.6914,0 -1.54687,0.33984 -1.98046,1.33593 -0.33985,0.75 -0.45704,1.48829 -0.45704,2.78907 0,1.16015 0.082,2.02734 0.51563,2.87109 0.45703,0.91406 1.28906,1.19531 1.91016,1.19531 1.04296,0 1.64062,-0.62109 1.98046,-1.3125 0.4336,-0.89062 0.45704,-2.0625 0.45704,-2.7539 z m -2.4375,3.83203 c -0.38672,0 -1.16016,-0.21094 -1.38282,-1.52344 -0.14062,-0.71484 -0.14062,-1.61719 -0.14062,-2.46094 0,-0.97265 0,-1.86328 0.19922,-2.5664 0.19922,-0.79688 0.80859,-1.17188 1.32422,-1.17188 0.45703,0 1.14843,0.28125 1.37109,1.30078 0.15234,0.67969 0.15234,1.62891 0.15234,2.4375 0,0.8086 0,1.71094 -0.1289,2.4375 -0.22266,1.32422 -0.97266,1.54688 -1.39453,1.54688 z m 0,0"
         style="fill:#000000;fill-opacity:1;fill-rule:nonzero;stroke:none" />
      <path
         id="path25"
         d="m 252.9277,339.27905 c 0,-0.6914 -0.22265,-1.20703 -0.71484,-1.20703 -0.38672,0 -0.57422,0.31641 -0.57422,0.57422 0,0.25781 0.17578,0.58594 0.58594,0.58594 0.15234,0 0.28125,-0.0469 0.38672,-0.15234 0.0234,-0.0234 0.0351,-0.0234 0.0469,-0.0234 0.0352,0 0.0352,0.16406 0.0352,0.22265 0,0.39844 -0.082,1.17188 -0.77344,1.94532 -0.12891,0.15234 -0.12891,0.17578 -0.12891,0.19922 0,0.0586 0.0586,0.11718 0.11719,0.11718 0.0937,0 1.01953,-0.89062 1.01953,-2.26172 z m 0,0"
         style="fill:#000000;fill-opacity:1;fill-rule:nonzero;stroke:none" />
      <path
         id="path26"
         d="M 261.10153,337.22827 H 260.832 c -0.0352,0.19922 -0.12891,0.85547 -0.24609,1.04297 -0.082,0.11719 -0.76172,0.11719 -1.125,0.11719 h -2.21485 c 0.32813,-0.28125 1.05469,-1.04297 1.3711,-1.33594 1.8164,-1.66406 2.48437,-2.28515 2.48437,-3.46875 0,-1.38281 -1.08984,-2.29687 -2.47265,-2.29687 -1.39454,0 -2.20313,1.18359 -2.20313,2.20312 0,0.60938 0.52734,0.60938 0.5625,0.60938 0.24609,0 0.5625,-0.17578 0.5625,-0.5625 0,-0.32813 -0.23437,-0.55078 -0.5625,-0.55078 -0.10547,0 -0.12891,0 -0.16406,0.0117 0.22265,-0.82031 0.86719,-1.37109 1.64062,-1.37109 1.01953,0 1.64063,0.85547 1.64063,1.95703 0,1.00781 -0.58594,1.89844 -1.26563,2.66016 l -2.41406,2.70703 v 0.28125 h 4.35938 z m 0,0"
         style="fill:#000000;fill-opacity:1;fill-rule:nonzero;stroke:none" />
      <path
         id="path27"
         d="m 264.02536,339.27905 c 0,-0.6914 -0.22266,-1.20703 -0.71484,-1.20703 -0.38672,0 -0.57422,0.31641 -0.57422,0.57422 0,0.25781 0.17578,0.58594 0.58593,0.58594 0.15235,0 0.28125,-0.0469 0.38672,-0.15234 0.0234,-0.0234 0.0352,-0.0234 0.0469,-0.0234 0.0351,0 0.0351,0.16406 0.0351,0.22265 0,0.39844 -0.082,1.17188 -0.77343,1.94532 -0.12891,0.15234 -0.12891,0.17578 -0.12891,0.19922 0,0.0586 0.0586,0.11718 0.11719,0.11718 0.0937,0 1.01953,-0.89062 1.01953,-2.26172 z m 0,0"
         style="fill:#000000;fill-opacity:1;fill-rule:nonzero;stroke:none" />
      <path
         id="path28"
         d="m 271.24997,331.45093 c 0,-0.22266 0,-0.29297 -0.16406,-0.29297 -0.0937,0 -0.12891,0 -0.22266,0.15234 l -3.59766,5.57813 v 0.35156 h 3.14063 v 1.07813 c 0,0.44531 -0.0234,0.5625 -0.90234,0.5625 h -0.23438 v 0.35156 c 0.26953,-0.0234 1.21875,-0.0234 1.55859,-0.0234 0.32813,0 1.28907,0 1.5586,0.0234 v -0.35156 h -0.23438 c -0.86718,0 -0.90234,-0.11719 -0.90234,-0.5625 v -1.07813 h 1.20703 v -0.35156 h -1.20703 z m -0.78516,0.9375 v 4.5 h -2.90625 z m 0,0"
         style="fill:#000000;fill-opacity:1;fill-rule:nonzero;stroke:none" />
      <path
         id="path29"
         d="m 275.12302,339.27905 c 0,-0.6914 -0.22266,-1.20703 -0.71485,-1.20703 -0.38672,0 -0.57422,0.31641 -0.57422,0.57422 0,0.25781 0.17578,0.58594 0.58594,0.58594 0.15234,0 0.28125,-0.0469 0.38672,-0.15234 0.0234,-0.0234 0.0352,-0.0234 0.0469,-0.0234 0.0352,0 0.0352,0.16406 0.0352,0.22265 0,0.39844 -0.082,1.17188 -0.77344,1.94532 -0.1289,0.15234 -0.1289,0.17578 -0.1289,0.19922 0,0.0586 0.0586,0.11718 0.11718,0.11718 0.0937,0 1.01954,-0.89062 1.01954,-2.26172 z m 5.11816,-0.62109 c 0,-0.35156 -0.29297,-0.58594 -0.57422,-0.58594 -0.35156,0 -0.58594,0.29297 -0.58594,0.57422 0,0.35156 0.28125,0.58594 0.57422,0.58594 0.33985,0 0.58594,-0.28125 0.58594,-0.57422 z m 5.23535,0 c 0,-0.35156 -0.29297,-0.58594 -0.57422,-0.58594 -0.35156,0 -0.58593,0.29297 -0.58593,0.57422 0,0.35156 0.28125,0.58594 0.57421,0.58594 0.33985,0 0.58594,-0.28125 0.58594,-0.57422 z m 5.25,0 c 0,-0.35156 -0.29297,-0.58594 -0.57422,-0.58594 -0.35156,0 -0.58593,0.29297 -0.58593,0.57422 0,0.35156 0.28125,0.58594 0.57421,0.58594 0.33985,0 0.58594,-0.28125 0.58594,-0.57422 z m 0,0"
         style="fill:#000000;fill-opacity:1;fill-rule:nonzero;stroke:none" />
      <path
         id="path30"
         d="m -4.5625312,360.4607 c 0,-0.26954 0,-0.28125 -0.2460938,-0.28125 -0.28125,0.3164 -0.8789062,0.76171 -2.109375,0.76171 v 0.35157 c 0.2695313,0 0.8671875,0 1.5234375,-0.31641 v 6.22266 c 0,0.43359 -0.035156,0.57422 -1.078125,0.57422 h -0.375 v 0.35156 c 0.3164063,-0.0234 1.4765625,-0.0234 1.875,-0.0234 0.3984375,0 1.546875,0 1.8632813,0.0234 v -0.35156 h -0.3632813 c -1.0546875,0 -1.0898437,-0.14063 -1.0898437,-0.57422 z m 0,0"
         style="fill:#000000;fill-opacity:1;fill-rule:nonzero;stroke:none" />
      <path
         id="path31"
         d="m 240.40329,364.30445 c 0,-0.9961 -0.0586,-1.96875 -0.49219,-2.8711 -0.49219,-0.99609 -1.34765,-1.2539 -1.93359,-1.2539 -0.69141,0 -1.54688,0.33984 -1.98047,1.33593 -0.33984,0.75 -0.45703,1.48828 -0.45703,2.78907 0,1.16015 0.082,2.02734 0.51562,2.87109 0.45703,0.91406 1.28907,1.19531 1.91016,1.19531 1.04297,0 1.64062,-0.62109 1.98047,-1.3125 0.43359,-0.89062 0.45703,-2.0625 0.45703,-2.7539 z m -2.4375,3.83203 c -0.38672,0 -1.16016,-0.21094 -1.38281,-1.52344 -0.14063,-0.71484 -0.14063,-1.61719 -0.14063,-2.46094 0,-0.97265 0,-1.86328 0.19922,-2.5664 0.19922,-0.79688 0.80859,-1.17188 1.32422,-1.17188 0.45703,0 1.14844,0.28125 1.37109,1.30078 0.15235,0.67969 0.15235,1.62891 0.15235,2.4375 0,0.8086 0,1.71094 -0.12891,2.4375 -0.22266,1.32422 -0.97266,1.54688 -1.39453,1.54688 z m 0,0"
         style="fill:#000000;fill-opacity:1;fill-rule:nonzero;stroke:none" />
    </g>
  </g>
</svg>
