<?xml version="1.0" encoding="UTF-8" standalone="no"?>
<!-- Created with Inkscape (http://www.inkscape.org/) -->

<svg
   version="1.1"
   id="svg1"
   width="794.55066"
   height="1123.6533"
   viewBox="0 0 794.55066 1123.6533"
   sodipodi:docname="LigaMatematycznaMatuskiego_Liceum_Zestaw1_2018_2019_page0.pdf"
   xmlns:inkscape="http://www.inkscape.org/namespaces/inkscape"
   xmlns:sodipodi="http://sodipodi.sourceforge.net/DTD/sodipodi-0.dtd"
   xmlns="http://www.w3.org/2000/svg"
   xmlns:svg="http://www.w3.org/2000/svg">
  <defs
     id="defs1" />
  <sodipodi:namedview
     id="namedview1"
     pagecolor="#ffffff"
     bordercolor="#000000"
     borderopacity="0.25"
     inkscape:showpageshadow="2"
     inkscape:pageopacity="0.0"
     inkscape:pagecheckerboard="0"
     inkscape:deskcolor="#d1d1d1">
    <inkscape:page
       x="0"
       y="0"
       inkscape:label="1"
       id="page1"
       width="794.55066"
       height="1123.6533"
       margin="0"
       bleed="0" />
  </sodipodi:namedview>
  <g
     id="g1"
     inkscape:groupmode="layer"
     inkscape:label="1">
    <g
       id="g2"
       aria-label="LIGAMATEMATYCZNA&#10;im.ZdzisªawaMatuskiego&#10;PADZIERNIK2018&#10;SZKOAPONADPODSTAWOWA&#10;ZADANIE1.&#10;DanyjestodcinekABodªugo±ci4.PunktyAiBs¡±rodkamiokr¦gówopromieniu4.Znajd¹&#10;promie«okr¦gustycznegodoprostejAB,stycznegozewn¦trzniedookr¦guo±rodkuAoraz&#10;stycznegowewn¦trzniedookr¦guo±rodkuB.&#10;ZADANIE2.&#10;Czyistniejetakaliczbapierwszap,»ep+16jestkwadratemliczbypierwszej?Odpowied¹&#10;uzasadnij.&#10;ZADANIE3.&#10;Funkcjarzeczywistaf:R→Rspeªniarównanief(x)+xf(1−x)=xdlaka»dejliczby&#10;rzeczywistejx.Wyznaczf(−2).&#10;ZADANIE4.&#10;Wysoko±cipewnegotrójk¡tamaj¡dªugo±ci156,65,60.Obliczpoletegotrójk¡ta.&#10;ZADANIE5.&#10;Wyznaczliczb¦czwórek(a,b,c,d)liczbcaªkowitychdodatnichspeªniaj¡cychwarunek&#10;ab+bc+cd+da=2018+a+b+c+d."
       transform="matrix(1.3333333,0,0,1.3333333,274.724,56.069333)">
      <path
         id="path2"
         d="m -51.381867,108.48999 c -0.410156,0.70313 -0.820313,0.9375 -1.394531,0.97266 -0.128907,0.0117 -0.222657,0.0117 -0.222657,0.23437 0,0.0703 0.05859,0.11719 0.140625,0.11719 0.210938,0 0.75,-0.0234 0.972657,-0.0234 0.339843,0 0.726562,0.0234 1.054687,0.0234 0.07031,0 0.222656,0 0.222656,-0.22266 0,-0.11718 -0.09375,-0.1289 -0.175781,-0.1289 -0.269531,-0.0234 -0.492187,-0.11719 -0.492187,-0.39844 0,-0.17578 0.07031,-0.30469 0.222656,-0.5625 l 0.902344,-1.51172 h 3.058593 c 0.01172,0.10547 0.01172,0.21094 0.02344,0.31641 0.03516,0.30469 0.175781,1.54687 0.175781,1.78125 0,0.35156 -0.609375,0.375 -0.796875,0.375 -0.140625,0 -0.269531,0 -0.269531,0.22265 0,0.12891 0.105469,0.12891 0.175781,0.12891 0.210938,0 0.445313,-0.0234 0.65625,-0.0234 h 0.679688 c 0.726562,0 1.253906,0.0234 1.265625,0.0234 0.08203,0 0.210937,0 0.210937,-0.22266 0,-0.1289 -0.105469,-0.1289 -0.28125,-0.1289 -0.65625,0 -0.667969,-0.10547 -0.714844,-0.45703 l -0.726562,-7.46485 c -0.02344,-0.23437 -0.07031,-0.25781 -0.199219,-0.25781 -0.117187,0 -0.1875,0.0234 -0.304687,0.19922 z m 1.441406,-1.83984 2.402344,-4.01953 0.410156,4.01953 z m 9.676758,-4.1836 c 0.117187,-0.44531 0.164062,-0.46875 0.621094,-0.46875 h 1.558593 c 1.347657,0 1.347657,1.14844 1.347657,1.25391 0,0.97266 -0.960938,2.20313 -2.542969,2.20313 h -1.722656 z m 2.027344,3.08204 c 1.300781,-0.2461 2.484375,-1.14844 2.484375,-2.25 0,-0.92579 -0.832032,-1.65235 -2.179688,-1.65235 h -3.832031 c -0.234375,0 -0.339844,0 -0.339844,0.23438 0,0.11718 0.105469,0.11718 0.292969,0.11718 0.726562,0 0.726562,0.0937 0.726562,0.22266 0,0.0234 0,0.0937 -0.04687,0.28125 l -1.617187,6.43359 c -0.105469,0.41016 -0.128906,0.52735 -0.960938,0.52735 -0.234375,0 -0.351562,0 -0.351562,0.22265 0,0.12891 0.07031,0.12891 0.304687,0.12891 h 4.101563 c 1.828125,0 3.246094,-1.38281 3.246094,-2.58984 0,-0.98438 -0.867188,-1.58203 -1.828125,-1.67578 z m -1.699219,3.91406 h -1.617188 c -0.164062,0 -0.1875,0 -0.257812,-0.0117 -0.128906,-0.0117 -0.152344,-0.0352 -0.152344,-0.12891 0,-0.082 0.03516,-0.15234 0.05859,-0.25781 l 0.832031,-3.375 h 2.25 c 1.40625,0 1.40625,1.3125 1.40625,1.40625 0,1.14844 -1.042969,2.36719 -2.519531,2.36719 z m 0,0"
         style="fill:#000000;fill-opacity:1;fill-rule:nonzero;stroke:none" />
      <path
         id="path3"
         d="m 27.444305,102.03296 c 0,-0.22266 0,-0.29297 -0.164063,-0.29297 -0.09375,0 -0.128906,0 -0.222656,0.15235 l -3.597656,5.57812 v 0.35156 h 3.140625 v 1.07813 c 0,0.44531 -0.02344,0.5625 -0.902344,0.5625 h -0.234375 v 0.35156 c 0.269531,-0.0234 1.21875,-0.0234 1.558594,-0.0234 0.328125,0 1.289062,0 1.558593,0.0234 v -0.35156 h -0.234375 c -0.867187,0 -0.902343,-0.11719 -0.902343,-0.5625 v -1.07813 h 1.207031 v -0.35156 h -1.207031 z m -0.785157,0.9375 v 4.5 h -2.90625 z m 0,0"
         style="fill:#000000;fill-opacity:1;fill-rule:nonzero;stroke:none" />
      <path
         id="path4"
         d="m 80.468719,108.48999 c -0.410156,0.70313 -0.820313,0.9375 -1.394531,0.97266 -0.128907,0.0117 -0.222657,0.0117 -0.222657,0.23437 0,0.0703 0.05859,0.11719 0.140625,0.11719 0.210938,0 0.75,-0.0234 0.972657,-0.0234 0.339843,0 0.726562,0.0234 1.054687,0.0234 0.07031,0 0.222656,0 0.222656,-0.22266 0,-0.11718 -0.09375,-0.1289 -0.175781,-0.1289 -0.269531,-0.0234 -0.492187,-0.11719 -0.492187,-0.39844 0,-0.17578 0.07031,-0.30469 0.222656,-0.5625 l 0.902344,-1.51172 h 3.058593 c 0.01172,0.10547 0.01172,0.21094 0.02344,0.31641 0.03516,0.30469 0.175781,1.54687 0.175781,1.78125 0,0.35156 -0.609375,0.375 -0.796875,0.375 -0.140625,0 -0.269531,0 -0.269531,0.22265 0,0.12891 0.105469,0.12891 0.175781,0.12891 0.210938,0 0.445313,-0.0234 0.65625,-0.0234 h 0.679688 c 0.726562,0 1.253906,0.0234 1.265625,0.0234 0.08203,0 0.210937,0 0.210937,-0.22266 0,-0.1289 -0.105469,-0.1289 -0.28125,-0.1289 -0.65625,0 -0.667969,-0.10547 -0.714844,-0.45703 l -0.726562,-7.46485 c -0.02344,-0.23437 -0.07031,-0.25781 -0.199219,-0.25781 -0.117187,0 -0.1875,0.0234 -0.304687,0.19922 z m 1.441406,-1.83984 2.402344,-4.01953 0.410156,4.01953 z m 0,0"
         style="fill:#000000;fill-opacity:1;fill-rule:nonzero;stroke:none" />
      <path
         id="path5"
         d="m 101.97848,102.46655 c 0.11719,-0.44531 0.16407,-0.46875 0.6211,-0.46875 h 1.55859 c 1.34766,0 1.34766,1.14844 1.34766,1.25391 0,0.97266 -0.96094,2.20313 -2.54297,2.20313 h -1.72266 z m 2.02735,3.08204 c 1.30078,-0.2461 2.48437,-1.14844 2.48437,-2.25 0,-0.92579 -0.83203,-1.65235 -2.17968,-1.65235 h -3.83204 c -0.23437,0 -0.33984,0 -0.33984,0.23438 0,0.11718 0.10547,0.11718 0.29297,0.11718 0.72656,0 0.72656,0.0937 0.72656,0.22266 0,0.0234 0,0.0937 -0.0469,0.28125 l -1.617191,6.43359 c -0.105468,0.41016 -0.128906,0.52735 -0.960937,0.52735 -0.234375,0 -0.351563,0 -0.351563,0.22265 0,0.12891 0.07031,0.12891 0.304688,0.12891 h 4.101563 c 1.82812,0 3.24609,-1.38281 3.24609,-2.58984 0,-0.98438 -0.86718,-1.58203 -1.82812,-1.67578 z m -1.69922,3.91406 h -1.61719 c -0.16406,0 -0.1875,0 -0.25781,-0.0117 -0.12891,-0.0117 -0.15234,-0.0352 -0.15234,-0.12891 0,-0.082 0.0352,-0.15234 0.0586,-0.25781 l 0.83203,-3.375 h 2.25 c 1.40625,0 1.40625,1.3125 1.40625,1.40625 0,1.14844 -1.04297,2.36719 -2.51953,2.36719 z m 0,0"
         style="fill:#000000;fill-opacity:1;fill-rule:nonzero;stroke:none" />
      <path
         id="path6"
         d="m 288.35641,102.03296 c 0,-0.22266 0,-0.29297 -0.16406,-0.29297 -0.0937,0 -0.1289,0 -0.22265,0.15235 l -3.59766,5.57812 v 0.35156 h 3.14062 v 1.07813 c 0,0.44531 -0.0234,0.5625 -0.90234,0.5625 h -0.23437 v 0.35156 c 0.26953,-0.0234 1.21875,-0.0234 1.55859,-0.0234 0.32812,0 1.28906,0 1.55859,0.0234 v -0.35156 h -0.23437 c -0.86719,0 -0.90235,-0.11719 -0.90235,-0.5625 v -1.07813 h 1.20704 v -0.35156 h -1.20704 z m -0.78515,0.9375 v 4.5 h -2.90625 z m 0,0"
         style="fill:#000000;fill-opacity:1;fill-rule:nonzero;stroke:none" />
      <path
         id="path7"
         d="m 49.674773,122.93628 c -0.410156,0.70313 -0.820312,0.9375 -1.394531,0.97266 -0.128906,0.0117 -0.222656,0.0117 -0.222656,0.23437 0,0.0703 0.05859,0.11719 0.140625,0.11719 0.210937,0 0.75,-0.0234 0.972656,-0.0234 0.339844,0 0.726563,0.0234 1.054688,0.0234 0.07031,0 0.222656,0 0.222656,-0.22266 0,-0.11718 -0.09375,-0.1289 -0.175781,-0.1289 -0.269532,-0.0234 -0.492188,-0.11719 -0.492188,-0.39844 0,-0.17578 0.07031,-0.30469 0.222656,-0.5625 l 0.902344,-1.51172 h 3.058594 c 0.01172,0.10547 0.01172,0.21094 0.02344,0.31641 0.03516,0.30469 0.175782,1.54687 0.175782,1.78125 0,0.35156 -0.609375,0.375 -0.796875,0.375 -0.140625,0 -0.269532,0 -0.269532,0.22265 0,0.12891 0.105469,0.12891 0.175782,0.12891 0.210937,0 0.445312,-0.0234 0.65625,-0.0234 h 0.679687 c 0.726563,0 1.253906,0.0234 1.265625,0.0234 0.08203,0 0.210938,0 0.210938,-0.22266 0,-0.1289 -0.105469,-0.1289 -0.28125,-0.1289 -0.65625,0 -0.667969,-0.10547 -0.714844,-0.45703 l -0.726563,-7.46485 c -0.02344,-0.23437 -0.07031,-0.25781 -0.199218,-0.25781 -0.117188,0 -0.1875,0.0234 -0.304688,0.19922 z m 1.441407,-1.83984 2.402343,-4.01953 0.410157,4.01953 z m 9.676758,-4.1836 c 0.117187,-0.44531 0.164062,-0.46875 0.621093,-0.46875 h 1.558594 c 1.347656,0 1.347656,1.14844 1.347656,1.25391 0,0.97266 -0.960937,2.20313 -2.542968,2.20313 h -1.722657 z m 2.027343,3.08204 c 1.300782,-0.2461 2.484375,-1.14844 2.484375,-2.25 0,-0.92579 -0.832031,-1.65235 -2.179687,-1.65235 h -3.832031 c -0.234375,0 -0.339844,0 -0.339844,0.23438 0,0.11718 0.105469,0.11718 0.292969,0.11718 0.726562,0 0.726562,0.0937 0.726562,0.22266 0,0.0234 0,0.0937 -0.04687,0.28125 l -1.617187,6.43359 c -0.105469,0.41016 -0.128907,0.52735 -0.960938,0.52735 -0.234375,0 -0.351562,0 -0.351562,0.22265 0,0.12891 0.07031,0.12891 0.304687,0.12891 h 4.101563 c 1.828125,0 3.246093,-1.38281 3.246093,-2.58984 0,-0.98438 -0.867187,-1.58203 -1.828125,-1.67578 z m -1.699218,3.91406 h -1.617188 c -0.164062,0 -0.1875,0 -0.257812,-0.0117 -0.128907,-0.0117 -0.152344,-0.0352 -0.152344,-0.12891 0,-0.082 0.03516,-0.15234 0.05859,-0.25781 l 0.832031,-3.375 h 2.25 c 1.40625,0 1.40625,1.3125 1.40625,1.40625 0,1.14844 -1.042969,2.36719 -2.519531,2.36719 z m 0,0"
         style="fill:#000000;fill-opacity:1;fill-rule:nonzero;stroke:none" />
      <path
         id="path8"
         d="m 300.65231,122.93628 c -0.41015,0.70313 -0.82031,0.9375 -1.39453,0.97266 -0.1289,0.0117 -0.22265,0.0117 -0.22265,0.23437 0,0.0703 0.0586,0.11719 0.14062,0.11719 0.21094,0 0.75,-0.0234 0.97266,-0.0234 0.33984,0 0.72656,0.0234 1.05468,0.0234 0.0703,0 0.22266,0 0.22266,-0.22266 0,-0.11718 -0.0937,-0.1289 -0.17578,-0.1289 -0.26953,-0.0234 -0.49219,-0.11719 -0.49219,-0.39844 0,-0.17578 0.0703,-0.30469 0.22266,-0.5625 l 0.90234,-1.51172 h 3.0586 c 0.0117,0.10547 0.0117,0.21094 0.0234,0.31641 0.0352,0.30469 0.17578,1.54687 0.17578,1.78125 0,0.35156 -0.60937,0.375 -0.79687,0.375 -0.14063,0 -0.26953,0 -0.26953,0.22265 0,0.12891 0.10547,0.12891 0.17578,0.12891 0.21094,0 0.44531,-0.0234 0.65625,-0.0234 h 0.67969 c 0.72656,0 1.2539,0.0234 1.26562,0.0234 0.082,0 0.21094,0 0.21094,-0.22266 0,-0.1289 -0.10547,-0.1289 -0.28125,-0.1289 -0.65625,0 -0.66797,-0.10547 -0.71484,-0.45703 l -0.72657,-7.46485 c -0.0234,-0.23437 -0.0703,-0.25781 -0.19922,-0.25781 -0.11718,0 -0.1875,0.0234 -0.30468,0.19922 z m 1.44141,-1.83984 2.40234,-4.01953 0.41016,4.01953 z m 0,0"
         style="fill:#000000;fill-opacity:1;fill-rule:nonzero;stroke:none" />
      <path
         id="path9"
         d="m 77.996063,131.35913 c 0.117187,-0.44531 0.164062,-0.46875 0.621093,-0.46875 h 1.558594 c 1.347656,0 1.347656,1.14844 1.347656,1.25391 0,0.97266 -0.960937,2.20312 -2.542968,2.20312 h -1.722657 z m 2.027343,3.08203 c 1.300782,-0.24609 2.484375,-1.14843 2.484375,-2.25 0,-0.92578 -0.832031,-1.65234 -2.179687,-1.65234 h -3.832031 c -0.234375,0 -0.339844,0 -0.339844,0.23438 0,0.11718 0.105469,0.11718 0.292969,0.11718 0.726562,0 0.726562,0.0937 0.726562,0.22266 0,0.0234 0,0.0937 -0.04687,0.28125 l -1.617187,6.43359 c -0.105469,0.41016 -0.128907,0.52735 -0.960938,0.52735 -0.234375,0 -0.351562,0 -0.351562,0.22265 0,0.12891 0.07031,0.12891 0.304687,0.12891 h 4.101563 c 1.828125,0 3.246093,-1.38281 3.246093,-2.58984 0,-0.98438 -0.867187,-1.58204 -1.828125,-1.67579 z m -1.699218,3.91407 H 76.707 c -0.164062,0 -0.1875,0 -0.257812,-0.0117 -0.128907,-0.0117 -0.152344,-0.0352 -0.152344,-0.12891 0,-0.082 0.03516,-0.15234 0.05859,-0.25781 l 0.832031,-3.375 h 2.25 c 1.40625,0 1.40625,1.3125 1.40625,1.40625 0,1.14844 -1.042969,2.36719 -2.519531,2.36719 z m 0,0"
         style="fill:#000000;fill-opacity:1;fill-rule:nonzero;stroke:none" />
      <path
         id="path10"
         d="m 28.595672,183.2937 c -0.08203,0.35157 -0.128906,0.44532 -0.621094,0.44532 -0.140625,0 -0.269531,0 -0.269531,0.23437 0,0.0234 0.01172,0.11719 0.152344,0.11719 0.152343,0 0.316406,-0.0234 0.46875,-0.0234 h 0.515625 c 0.257812,0 0.867187,0.0234 1.113281,0.0234 0.07031,0 0.222656,0 0.222656,-0.21094 0,-0.14062 -0.09375,-0.14062 -0.292969,-0.14062 -0.550781,0 -0.585937,-0.082 -0.585937,-0.17579 0,-0.14062 0.539062,-2.20312 0.609375,-2.47265 0.128906,0.32812 0.457031,0.79687 1.078125,0.79687 1.347656,0 2.8125,-1.75781 2.8125,-3.51562 0,-1.10156 -0.621094,-1.875 -1.523438,-1.875 -0.761718,0 -1.40625,0.73828 -1.546875,0.91406 -0.09375,-0.59766 -0.550781,-0.91406 -1.03125,-0.91406 -0.351562,0 -0.621093,0.16406 -0.855468,0.62109 -0.210938,0.4336 -0.375,1.16016 -0.375,1.20703 0,0.0469 0.04687,0.10547 0.128906,0.10547 0.09375,0 0.105469,-0.0117 0.175781,-0.28125 0.175781,-0.70312 0.410156,-1.40625 0.890625,-1.40625 0.269531,0 0.363281,0.1875 0.363281,0.53906 0,0.29297 -0.03516,0.41016 -0.08203,0.63282 z m 2.0625,-5.25 c 0.08203,-0.33984 0.421875,-0.67968 0.609375,-0.85547 0.140625,-0.11718 0.527344,-0.44531 0.984375,-0.44531 0.527344,0 0.761719,0.51563 0.761719,1.13672 0,0.57422 -0.328125,1.93359 -0.632813,2.55469 -0.292969,0.64453 -0.84375,1.21875 -1.394531,1.21875 -0.808594,0 -0.949219,-1.03125 -0.949219,-1.07813 0,-0.0351 0.02344,-0.1289 0.03516,-0.1875 z m 0,0"
         style="fill:#000000;fill-opacity:1;fill-rule:nonzero;stroke:none" />
      <path
         id="path11"
         d="m 58.692352,183.2937 c -0.08203,0.35157 -0.128907,0.44532 -0.621094,0.44532 -0.140625,0 -0.269531,0 -0.269531,0.23437 0,0.0234 0.01172,0.11719 0.152343,0.11719 0.152344,0 0.316407,-0.0234 0.46875,-0.0234 h 0.515625 c 0.257813,0 0.867188,0.0234 1.113282,0.0234 0.07031,0 0.222656,0 0.222656,-0.21094 0,-0.14062 -0.09375,-0.14062 -0.292969,-0.14062 -0.550781,0 -0.585937,-0.082 -0.585937,-0.17579 0,-0.14062 0.539062,-2.20312 0.609375,-2.47265 0.128906,0.32812 0.457031,0.79687 1.078125,0.79687 1.347656,0 2.8125,-1.75781 2.8125,-3.51562 0,-1.10156 -0.621094,-1.875 -1.523438,-1.875 -0.761719,0 -1.40625,0.73828 -1.546875,0.91406 -0.09375,-0.59766 -0.550781,-0.91406 -1.03125,-0.91406 -0.351562,0 -0.621094,0.16406 -0.855469,0.62109 -0.210937,0.4336 -0.375,1.16016 -0.375,1.20703 0,0.0469 0.04687,0.10547 0.128907,0.10547 0.09375,0 0.105468,-0.0117 0.175781,-0.28125 0.175781,-0.70312 0.410156,-1.40625 0.890625,-1.40625 0.269531,0 0.363281,0.1875 0.363281,0.53906 0,0.29297 -0.03516,0.41016 -0.08203,0.63282 z m 2.0625,-5.25 c 0.08203,-0.33984 0.421875,-0.67968 0.609375,-0.85547 0.140625,-0.11718 0.527343,-0.44531 0.984375,-0.44531 0.527343,0 0.761718,0.51563 0.761718,1.13672 0,0.57422 -0.328125,1.93359 -0.632812,2.55469 -0.292969,0.64453 -0.84375,1.21875 -1.394531,1.21875 -0.808594,0 -0.949219,-1.03125 -0.949219,-1.07813 0,-0.0351 0.02344,-0.1289 0.03516,-0.1875 z m 0,0"
         style="fill:#000000;fill-opacity:1;fill-rule:nonzero;stroke:none" />
      <path
         id="path12"
         d="m 72.315398,179.00464 h 3.304688 c 0.164062,0 0.375,0 0.375,-0.21094 0,-0.22265 -0.199219,-0.22265 -0.375,-0.22265 h -3.304688 v -3.30469 c 0,-0.16406 0,-0.38672 -0.210937,-0.38672 -0.234375,0 -0.234375,0.21094 -0.234375,0.38672 v 3.30469 h -3.292969 c -0.175781,0 -0.386719,0 -0.386719,0.21093 0,0.22266 0.199219,0.22266 0.386719,0.22266 h 3.292969 v 3.30469 c 0,0.16406 0,0.38672 0.222656,0.38672 0.222656,0 0.222656,-0.21094 0.222656,-0.38672 z m 11.270508,-4.89844 c 0,-0.26953 0,-0.28125 -0.246093,-0.28125 -0.28125,0.31641 -0.878907,0.76172 -2.109375,0.76172 v 0.35156 c 0.269531,0 0.867187,0 1.523437,-0.3164 v 6.22265 c 0,0.4336 -0.03516,0.57422 -1.078125,0.57422 h -0.375 v 0.35157 c 0.316406,-0.0234 1.476563,-0.0234 1.875,-0.0234 0.398438,0 1.546875,0 1.863281,0.0234 V 181.4187 H 84.67575 c -1.054687,0 -1.089844,-0.14062 -1.089844,-0.57422 z m 3.873047,3.50391 c 0,-3.02344 1.476563,-3.50391 2.121094,-3.50391 0.433594,0 0.855469,0.12891 1.089844,0.49219 -0.140625,0 -0.597657,0 -0.597657,0.49219 0,0.25781 0.175782,0.49219 0.492188,0.49219 0.292969,0 0.492187,-0.1875 0.492187,-0.52735 0,-0.62109 -0.445312,-1.23047 -1.488281,-1.23047 -1.511719,0 -3.082031,1.53516 -3.082031,4.17188 0,3.28125 1.429687,4.01953 2.449219,4.01953 1.300781,0 2.414062,-1.125 2.414062,-2.68359 0,-1.59375 -1.113281,-2.66016 -2.308594,-2.66016 -1.066406,0 -1.453125,0.92578 -1.582031,1.26562 z m 1.476563,4.08984 c -0.75,0 -1.113282,-0.66797 -1.21875,-0.92578 -0.105469,-0.30469 -0.222657,-0.89062 -0.222657,-1.73437 0,-0.9375 0.421875,-2.1211 1.5,-2.1211 0.65625,0 1.007813,0.44532 1.183594,0.84375 0.1875,0.44532 0.1875,1.04297 0.1875,1.5586 0,0.60937 0,1.14843 -0.222656,1.60547 -0.304688,0.57421 -0.726563,0.77343 -1.207031,0.77343 z m 0,0"
         style="fill:#000000;fill-opacity:1;fill-rule:nonzero;stroke:none" />
      <path
         id="path13"
         d="m -33.042023,234.47827 c 0.234375,0 0.328125,0 0.328125,-0.22265 0,-0.12891 -0.09375,-0.12891 -0.304688,-0.12891 h -0.972656 c 0.234375,-1.23047 0.398437,-2.07422 0.492187,-2.46094 0.07031,-0.28125 0.328125,-0.5625 0.632813,-0.5625 0.257812,0 0.503906,0.10547 0.621094,0.22266 -0.46875,0.0469 -0.609375,0.38672 -0.609375,0.59766 0,0.23437 0.1875,0.375 0.410156,0.375 0.234375,0 0.597656,-0.19922 0.597656,-0.65625 0,-0.50391 -0.503906,-0.77344 -1.03125,-0.77344 -0.515625,0 -1.007812,0.38672 -1.253906,0.84375 -0.210938,0.42187 -0.328125,0.85547 -0.609375,2.41406 h -0.796875 c -0.234375,0 -0.351563,0 -0.351563,0.22266 0,0.1289 0.07031,0.1289 0.316407,0.1289 h 0.761718 c -0.210937,1.11328 -0.703125,3.8086 -0.984375,5.08594 -0.199218,1.04297 -0.375,1.92188 -0.972656,1.92188 -0.03516,0 -0.386719,0 -0.597656,-0.23438 0.609375,-0.0469 0.609375,-0.57422 0.609375,-0.58594 0,-0.23437 -0.1875,-0.375 -0.410156,-0.375 -0.234375,0 -0.597657,0.19922 -0.597657,0.65625 0,0.51563 0.527344,0.77344 0.996094,0.77344 1.21875,0 1.722656,-2.19141 1.851563,-2.78906 0.210937,-0.91406 0.796875,-4.08985 0.855468,-4.45313 z m 0,0"
         style="fill:#000000;fill-opacity:1;fill-rule:nonzero;stroke:none" />
      <path
         id="path14"
         d="m -27.794953,234.70093 c 0,-0.31641 -0.28125,-0.57422 -0.574219,-0.57422 -0.351562,0 -0.585937,0.28125 -0.585937,0.57422 0,0.36328 0.292968,0.58594 0.574218,0.58594 0.316407,0 0.585938,-0.2461 0.585938,-0.58594 z m 0,3.99609 c 0,-0.32812 -0.28125,-0.57422 -0.574219,-0.57422 -0.351562,0 -0.585937,0.28125 -0.585937,0.57422 0,0.36328 0.292968,0.58594 0.574218,0.58594 0.316407,0 0.585938,-0.24609 0.585938,-0.58594 z m 0,0"
         style="fill:#000000;fill-opacity:1;fill-rule:nonzero;stroke:none" />
      <path
         id="path15"
         d="m -18.941437,235.53296 h 0.433593 l 1.792969,2.76563 c 0.117188,0.19921 0.410156,0.65625 0.539063,0.84375 0.08203,0.14062 0.117187,0.14062 0.398437,0.14062 h 1.640625 c 0.222656,0 0.398438,0 0.398438,-0.21094 0,-0.10547 -0.07031,-0.1875 -0.175782,-0.21093 -0.445312,-0.0937 -1.03125,-0.87891 -1.3125,-1.26563 -0.09375,-0.11719 -0.691406,-0.90234 -1.488281,-2.20312 1.066406,-0.1875 2.097656,-0.64454 2.097656,-2.0625 0,-1.66407 -1.757812,-2.23829 -3.175781,-2.23829 h -3.75 c -0.210937,0 -0.410156,0 -0.410156,0.22266 0,0.19922 0.234375,0.19922 0.328125,0.19922 0.679687,0 0.738281,0.082 0.738281,0.67969 v 5.98828 c 0,0.59765 -0.05859,0.67969 -0.738281,0.67969 -0.09375,0 -0.328125,0 -0.328125,0.21093 0,0.21094 0.199219,0.21094 0.410156,0.21094 h 3.269531 c 0.222657,0 0.398438,0 0.398438,-0.21094 0,-0.21093 -0.199219,-0.21093 -0.328125,-0.21093 -0.691406,0 -0.738281,-0.0937 -0.738281,-0.67969 z m 2.308593,-0.58594 c 0.339844,-0.44531 0.375,-1.07812 0.375,-1.60547 0,-0.57421 -0.07031,-1.20703 -0.457031,-1.69921 0.492188,0.10546 1.675781,0.48046 1.675781,1.6875 0,0.77343 -0.363281,1.38281 -1.59375,1.61718 z m -2.308593,-2.78906 c 0,-0.24609 0,-0.64453 0.75,-0.64453 1.007812,0 1.511718,0.42187 1.511718,1.82812 0,1.54688 -0.363281,1.76954 -2.261718,1.76954 z m -1.617188,6.70313 c 0.09375,-0.21094 0.09375,-0.55079 0.09375,-0.65625 v -6.03516 c 0,-0.11719 0,-0.44531 -0.09375,-0.65625 h 1.359375 c -0.152344,0.1875 -0.152344,0.43359 -0.152344,0.60937 v 6.08204 c 0,0.11718 0,0.44531 0.09375,0.65625 z m 2.542969,-3.32813 c 0.08203,-0.0117 0.128906,-0.0234 0.222656,-0.0234 0.1875,0 0.445313,-0.0234 0.621094,-0.0469 0.1875,0.28125 1.476562,2.41406 2.460937,3.39844 h -1.148437 z m 0,0"
         style="fill:#000000;fill-opacity:1;fill-rule:nonzero;stroke:none" />
      <path
         id="path16"
         d="m 2.8847344,236.52905 c -0.65625,0.50391 -0.984375,0.9961 -1.078125,1.14844 -0.5390625,0.83203 -0.6328125,1.58203 -0.6328125,1.59375 0,0.14063 0.140625,0.14063 0.234375,0.14063 0.2109375,0 0.2226562,-0.0234 0.2695312,-0.23438 0.2695313,-1.17187 0.9726563,-2.17969 2.3320313,-2.73047 0.140625,-0.0469 0.1757812,-0.0703 0.1757812,-0.15234 0,-0.082 -0.070312,-0.11719 -0.09375,-0.12891 -0.5273437,-0.21093 -1.9804687,-0.80859 -2.4257812,-2.8125 -0.035156,-0.14062 -0.046875,-0.17578 -0.2578125,-0.17578 -0.09375,0 -0.234375,0 -0.234375,0.14063 0,0.0234 0.1054687,0.77343 0.609375,1.58203 0.234375,0.35156 0.5859375,0.77344 1.1015625,1.16015 h -8.8828125 c -0.2226563,0 -0.4335938,0 -0.4335938,0.23438 0,0.23437 0.2109375,0.23437 0.4335938,0.23437 z m 0,0"
         style="fill:#000000;fill-opacity:1;fill-rule:nonzero;stroke:none" />
      <path
         id="path17"
         d="m 14.483367,235.53296 h 0.433594 l 1.792969,2.76563 c 0.117187,0.19921 0.410156,0.65625 0.539062,0.84375 0.08203,0.14062 0.117188,0.14062 0.398438,0.14062 h 1.640625 c 0.222656,0 0.398437,0 0.398437,-0.21094 0,-0.10547 -0.07031,-0.1875 -0.175781,-0.21093 -0.445313,-0.0937 -1.03125,-0.87891 -1.3125,-1.26563 -0.09375,-0.11719 -0.691406,-0.90234 -1.488281,-2.20312 1.066406,-0.1875 2.097656,-0.64454 2.097656,-2.0625 0,-1.66407 -1.757813,-2.23829 -3.175781,-2.23829 h -3.75 c -0.210938,0 -0.410157,0 -0.410157,0.22266 0,0.19922 0.234375,0.19922 0.328125,0.19922 0.679688,0 0.738282,0.082 0.738282,0.67969 v 5.98828 c 0,0.59765 -0.05859,0.67969 -0.738282,0.67969 -0.09375,0 -0.328125,0 -0.328125,0.21093 0,0.21094 0.199219,0.21094 0.410157,0.21094 h 3.269531 c 0.222656,0 0.398437,0 0.398437,-0.21094 0,-0.21093 -0.199218,-0.21093 -0.328125,-0.21093 -0.691406,0 -0.738281,-0.0937 -0.738281,-0.67969 z m 2.308594,-0.58594 c 0.339844,-0.44531 0.375,-1.07812 0.375,-1.60547 0,-0.57421 -0.07031,-1.20703 -0.457031,-1.69921 0.492187,0.10546 1.675781,0.48046 1.675781,1.6875 0,0.77343 -0.363281,1.38281 -1.59375,1.61718 z m -2.308594,-2.78906 c 0,-0.24609 0,-0.64453 0.75,-0.64453 1.007813,0 1.511719,0.42187 1.511719,1.82812 0,1.54688 -0.363281,1.76954 -2.261719,1.76954 z m -1.617187,6.70313 c 0.09375,-0.21094 0.09375,-0.55079 0.09375,-0.65625 v -6.03516 c 0,-0.11719 0,-0.44531 -0.09375,-0.65625 h 1.359375 c -0.152344,0.1875 -0.152344,0.43359 -0.152344,0.60937 v 6.08204 c 0,0.11718 0,0.44531 0.09375,0.65625 z m 2.542968,-3.32813 c 0.08203,-0.0117 0.128907,-0.0234 0.222657,-0.0234 0.1875,0 0.445312,-0.0234 0.621093,-0.0469 0.1875,0.28125 1.476563,2.41406 2.460938,3.39844 h -1.148438 z m 0,0"
         style="fill:#000000;fill-opacity:1;fill-rule:nonzero;stroke:none" />
      <path
         id="path18"
         d="m 124.43161,234.47827 c 0.23437,0 0.32812,0 0.32812,-0.22265 0,-0.12891 -0.0937,-0.12891 -0.30468,-0.12891 h -0.97266 c 0.23438,-1.23047 0.39844,-2.07422 0.49219,-2.46094 0.0703,-0.28125 0.32812,-0.5625 0.63281,-0.5625 0.25781,0 0.50391,0.10547 0.62109,0.22266 -0.46875,0.0469 -0.60937,0.38672 -0.60937,0.59766 0,0.23437 0.1875,0.375 0.41016,0.375 0.23437,0 0.59765,-0.19922 0.59765,-0.65625 0,-0.50391 -0.5039,-0.77344 -1.03125,-0.77344 -0.51562,0 -1.00781,0.38672 -1.2539,0.84375 -0.21094,0.42187 -0.32813,0.85547 -0.60938,2.41406 h -0.79687 c -0.23438,0 -0.35157,0 -0.35157,0.22266 0,0.1289 0.0703,0.1289 0.31641,0.1289 h 0.76172 c -0.21094,1.11328 -0.70313,3.8086 -0.98438,5.08594 -0.19922,1.04297 -0.375,1.92188 -0.97265,1.92188 -0.0352,0 -0.38672,0 -0.59766,-0.23438 0.60938,-0.0469 0.60938,-0.57422 0.60938,-0.58594 0,-0.23437 -0.1875,-0.375 -0.41016,-0.375 -0.23438,0 -0.59766,0.19922 -0.59766,0.65625 0,0.51563 0.52735,0.77344 0.9961,0.77344 1.21875,0 1.72265,-2.19141 1.85156,-2.78906 0.21094,-0.91406 0.79687,-4.08985 0.85547,-4.45313 z m 0,0"
         style="fill:#000000;fill-opacity:1;fill-rule:nonzero;stroke:none" />
      <path
         id="path19"
         d="m 130.03903,242.18921 c 0,-0.0352 0,-0.0586 -0.21094,-0.26953 -1.19531,-1.20703 -1.86328,-3.17578 -1.86328,-5.61328 0,-2.32031 0.5625,-4.3125 1.94532,-5.73047 0.1289,-0.10547 0.1289,-0.12891 0.1289,-0.16406 0,-0.0703 -0.0703,-0.0937 -0.11719,-0.0937 -0.15234,0 -1.13671,0.85547 -1.72265,2.02734 -0.60938,1.20703 -0.87891,2.49609 -0.87891,3.96094 0,1.0664 0.16406,2.48437 0.78516,3.76172 0.70312,1.4414 1.6875,2.21484 1.8164,2.21484 0.0469,0 0.11719,-0.0234 0.11719,-0.0937 z m 0,0"
         style="fill:#000000;fill-opacity:1;fill-rule:nonzero;stroke:none" />
      <path
         id="path20"
         d="m 136.35837,234.40796 c -0.375,0.0703 -0.51563,0.35156 -0.51563,0.58594 0,0.28125 0.22266,0.375 0.38672,0.375 0.36328,0 0.60938,-0.30469 0.60938,-0.63281 0,-0.49219 -0.57422,-0.72657 -1.07813,-0.72657 -0.72656,0 -1.125,0.71485 -1.24219,0.94922 -0.26953,-0.90234 -1.00781,-0.94922 -1.23047,-0.94922 -1.21875,0 -1.86328,1.57032 -1.86328,1.82813 0,0.0469 0.0469,0.10547 0.12891,0.10547 0.10547,0 0.12891,-0.0703 0.15234,-0.11719 0.39844,-1.32422 1.20703,-1.57031 1.54688,-1.57031 0.53906,0 0.64453,0.49218 0.64453,0.78515 0,0.25782 -0.0703,0.53907 -0.21094,1.11328 l -0.41015,1.62891 c -0.17579,0.72656 -0.52735,1.38281 -1.16016,1.38281 -0.0586,0 -0.35156,0 -0.60938,-0.15234 0.4336,-0.0937 0.52735,-0.44531 0.52735,-0.58594 0,-0.24609 -0.17578,-0.38672 -0.39844,-0.38672 -0.29297,0 -0.59766,0.2461 -0.59766,0.63282 0,0.5039 0.5625,0.72656 1.06641,0.72656 0.57422,0 0.98438,-0.45703 1.23047,-0.9375 0.19922,0.70312 0.79687,0.9375 1.23047,0.9375 1.23047,0 1.875,-1.5586 1.875,-1.82813 0,-0.0586 -0.0469,-0.10547 -0.12891,-0.10547 -0.10547,0 -0.11719,0.0586 -0.15234,0.15235 -0.31641,1.05469 -1.01953,1.54687 -1.54688,1.54687 -0.42187,0 -0.65625,-0.3164 -0.65625,-0.80859 0,-0.25781 0.0586,-0.44531 0.2461,-1.24219 l 0.42187,-1.61719 c 0.17578,-0.72656 0.58594,-1.24218 1.125,-1.24218 0.0352,0 0.36328,0 0.60938,0.15234 z m 0,0"
         style="fill:#000000;fill-opacity:1;fill-rule:nonzero;stroke:none" />
      <path
         id="path21"
         d="m 140.72653,236.3064 c 0,-0.91406 -0.1289,-2.39063 -0.79687,-3.77344 -0.70313,-1.44141 -1.67578,-2.21484 -1.81641,-2.21484 -0.0469,0 -0.10547,0.0234 -0.10547,0.0937 0,0.0352 0,0.0586 0.19922,0.26953 1.19531,1.20703 1.875,3.17578 1.875,5.61328 0,2.32031 -0.5625,4.3125 -1.95703,5.73047 -0.11719,0.10547 -0.11719,0.1289 -0.11719,0.16406 0,0.0703 0.0586,0.0937 0.10547,0.0937 0.16406,0 1.13672,-0.85547 1.72266,-2.02734 0.60937,-1.21875 0.89062,-2.51953 0.89062,-3.94922 z m 9.84375,0.21094 h 3.30469 c 0.16406,0 0.375,0 0.375,-0.21094 0,-0.22266 -0.19922,-0.22266 -0.375,-0.22266 h -3.30469 v -3.30469 c 0,-0.16406 0,-0.38671 -0.21094,-0.38671 -0.23437,0 -0.23437,0.21093 -0.23437,0.38671 v 3.30469 H 146.832 c -0.17578,0 -0.38672,0 -0.38672,0.21094 0,0.22266 0.19922,0.22266 0.38672,0.22266 h 3.29297 v 3.30468 c 0,0.16407 0,0.38672 0.22266,0.38672 0.22265,0 0.22265,-0.21094 0.22265,-0.38672 z m 0,0"
         style="fill:#000000;fill-opacity:1;fill-rule:nonzero;stroke:none" />
      <path
         id="path22"
         d="m 164.45993,234.40796 c -0.375,0.0703 -0.51563,0.35156 -0.51563,0.58594 0,0.28125 0.22266,0.375 0.38672,0.375 0.36328,0 0.60938,-0.30469 0.60938,-0.63281 0,-0.49219 -0.57422,-0.72657 -1.07813,-0.72657 -0.72656,0 -1.125,0.71485 -1.24218,0.94922 -0.26954,-0.90234 -1.00782,-0.94922 -1.23047,-0.94922 -1.21875,0 -1.86328,1.57032 -1.86328,1.82813 0,0.0469 0.0469,0.10547 0.1289,0.10547 0.10547,0 0.12891,-0.0703 0.15235,-0.11719 0.39843,-1.32422 1.20703,-1.57031 1.54687,-1.57031 0.53906,0 0.64453,0.49218 0.64453,0.78515 0,0.25782 -0.0703,0.53907 -0.21094,1.11328 l -0.41015,1.62891 c -0.17578,0.72656 -0.52735,1.38281 -1.16016,1.38281 -0.0586,0 -0.35156,0 -0.60937,-0.15234 0.43359,-0.0937 0.52734,-0.44531 0.52734,-0.58594 0,-0.24609 -0.17578,-0.38672 -0.39844,-0.38672 -0.29297,0 -0.59765,0.2461 -0.59765,0.63282 0,0.5039 0.5625,0.72656 1.0664,0.72656 0.57422,0 0.98438,-0.45703 1.23047,-0.9375 0.19922,0.70312 0.79688,0.9375 1.23047,0.9375 1.23047,0 1.875,-1.5586 1.875,-1.82813 0,-0.0586 -0.0469,-0.10547 -0.12891,-0.10547 -0.10546,0 -0.11718,0.0586 -0.15234,0.15235 -0.31641,1.05469 -1.01953,1.54687 -1.54687,1.54687 -0.42188,0 -0.65625,-0.3164 -0.65625,-0.80859 0,-0.25781 0.0586,-0.44531 0.24609,-1.24219 l 0.42187,-1.61719 c 0.17579,-0.72656 0.58594,-1.24218 1.125,-1.24218 0.0352,0 0.36329,0 0.60938,0.15234 z m 6.32227,0.0703 c 0.23437,0 0.32812,0 0.32812,-0.22265 0,-0.12891 -0.0937,-0.12891 -0.30469,-0.12891 h -0.97265 c 0.23437,-1.23047 0.39843,-2.07422 0.49218,-2.46094 0.0703,-0.28125 0.32813,-0.5625 0.63282,-0.5625 0.25781,0 0.5039,0.10547 0.62109,0.22266 -0.46875,0.0469 -0.60937,0.38672 -0.60937,0.59766 0,0.23437 0.1875,0.375 0.41015,0.375 0.23438,0 0.59766,-0.19922 0.59766,-0.65625 0,-0.50391 -0.50391,-0.77344 -1.03125,-0.77344 -0.51563,0 -1.00781,0.38672 -1.25391,0.84375 -0.21094,0.42187 -0.32812,0.85547 -0.60937,2.41406 h -0.79688 c -0.23437,0 -0.35156,0 -0.35156,0.22266 0,0.1289 0.0703,0.1289 0.31641,0.1289 h 0.76171 c -0.21093,1.11328 -0.70312,3.8086 -0.98437,5.08594 -0.19922,1.04297 -0.375,1.92188 -0.97266,1.92188 -0.0352,0 -0.38672,0 -0.59765,-0.23438 0.60937,-0.0469 0.60937,-0.57422 0.60937,-0.58594 0,-0.23437 -0.1875,-0.375 -0.41015,-0.375 -0.23438,0 -0.59766,0.19922 -0.59766,0.65625 0,0.51563 0.52734,0.77344 0.99609,0.77344 1.21875,0 1.72266,-2.19141 1.85157,-2.78906 0.21093,-0.91406 0.79687,-4.08985 0.85546,-4.45313 z m 0,0"
         style="fill:#000000;fill-opacity:1;fill-rule:nonzero;stroke:none" />
      <path
         id="path23"
         d="m 176.38962,242.18921 c 0,-0.0352 0,-0.0586 -0.21094,-0.26953 -1.19531,-1.20703 -1.86328,-3.17578 -1.86328,-5.61328 0,-2.32031 0.5625,-4.3125 1.94531,-5.73047 0.12891,-0.10547 0.12891,-0.12891 0.12891,-0.16406 0,-0.0703 -0.0703,-0.0937 -0.11719,-0.0937 -0.15234,0 -1.13672,0.85547 -1.72266,2.02734 -0.60937,1.20703 -0.8789,2.49609 -0.8789,3.96094 0,1.0664 0.16406,2.48437 0.78515,3.76172 0.70313,1.4414 1.6875,2.21484 1.81641,2.21484 0.0469,0 0.11719,-0.0234 0.11719,-0.0937 z m 4.10742,-10.57031 c 0,-0.26953 0,-0.28125 -0.24609,-0.28125 -0.28125,0.3164 -0.87891,0.76172 -2.10938,0.76172 v 0.35156 c 0.26953,0 0.86719,0 1.52344,-0.31641 v 6.22266 c 0,0.43359 -0.0352,0.57422 -1.07813,0.57422 h -0.375 v 0.35156 c 0.31641,-0.0234 1.47657,-0.0234 1.875,-0.0234 0.39844,0 1.54688,0 1.86328,0.0234 v -0.35156 h -0.36328 c -1.05468,0 -1.08984,-0.14063 -1.08984,-0.57422 z m 0,0"
         style="fill:#000000;fill-opacity:1;fill-rule:nonzero;stroke:none" />
      <path
         id="path24"
         d="m 194.6738,236.52905 c 0.21093,0 0.42187,0 0.42187,-0.23437 0,-0.23438 -0.21094,-0.23438 -0.42187,-0.23438 h -6.46875 c -0.19922,0 -0.41016,0 -0.41016,0.23438 0,0.23437 0.21094,0.23437 0.41016,0.23437 z m 0,0"
         style="fill:#000000;fill-opacity:1;fill-rule:nonzero;stroke:none" />
      <path
         id="path25"
         d="m 205.65427,234.40796 c -0.375,0.0703 -0.51563,0.35156 -0.51563,0.58594 0,0.28125 0.22266,0.375 0.38672,0.375 0.36328,0 0.60937,-0.30469 0.60937,-0.63281 0,-0.49219 -0.57421,-0.72657 -1.07812,-0.72657 -0.72656,0 -1.125,0.71485 -1.24219,0.94922 -0.26953,-0.90234 -1.00781,-0.94922 -1.23047,-0.94922 -1.21875,0 -1.86328,1.57032 -1.86328,1.82813 0,0.0469 0.0469,0.10547 0.12891,0.10547 0.10547,0 0.1289,-0.0703 0.15234,-0.11719 0.39844,-1.32422 1.20703,-1.57031 1.54688,-1.57031 0.53906,0 0.64453,0.49218 0.64453,0.78515 0,0.25782 -0.0703,0.53907 -0.21094,1.11328 l -0.41016,1.62891 c -0.17578,0.72656 -0.52734,1.38281 -1.16015,1.38281 -0.0586,0 -0.35156,0 -0.60938,-0.15234 0.4336,-0.0937 0.52735,-0.44531 0.52735,-0.58594 0,-0.24609 -0.17578,-0.38672 -0.39844,-0.38672 -0.29297,0 -0.59766,0.2461 -0.59766,0.63282 0,0.5039 0.5625,0.72656 1.06641,0.72656 0.57422,0 0.98437,-0.45703 1.23047,-0.9375 0.19922,0.70312 0.79687,0.9375 1.23047,0.9375 1.23047,0 1.875,-1.5586 1.875,-1.82813 0,-0.0586 -0.0469,-0.10547 -0.12891,-0.10547 -0.10547,0 -0.11719,0.0586 -0.15234,0.15235 -0.31641,1.05469 -1.01953,1.54687 -1.54688,1.54687 -0.42187,0 -0.65625,-0.3164 -0.65625,-0.80859 0,-0.25781 0.0586,-0.44531 0.2461,-1.24219 l 0.42187,-1.61719 c 0.17578,-0.72656 0.58594,-1.24218 1.125,-1.24218 0.0352,0 0.36328,0 0.60938,0.15234 z m 0,0"
         style="fill:#000000;fill-opacity:1;fill-rule:nonzero;stroke:none" />
      <path
         id="path26"
         d="m 210.0195,236.3064 c 0,-0.91406 -0.12891,-2.39063 -0.79687,-3.77344 -0.70313,-1.44141 -1.67579,-2.21484 -1.81641,-2.21484 -0.0469,0 -0.10547,0.0234 -0.10547,0.0937 0,0.0352 0,0.0586 0.19922,0.26953 1.19531,1.20703 1.875,3.17578 1.875,5.61328 0,2.32031 -0.5625,4.3125 -1.95703,5.73047 -0.11719,0.10547 -0.11719,0.1289 -0.11719,0.16406 0,0.0703 0.0586,0.0937 0.10547,0.0937 0.16406,0 1.13672,-0.85547 1.72266,-2.02734 0.60937,-1.21875 0.89062,-2.51953 0.89062,-3.94922 z m 15.6709,-0.89063 c 0.16406,0 0.375,0 0.375,-0.22265 0,-0.22266 -0.19922,-0.22266 -0.375,-0.22266 h -7.04297 c -0.17578,0 -0.38672,0 -0.38672,0.21094 0,0.23437 0.19922,0.23437 0.38672,0.23437 z m 0,2.21485 c 0.16406,0 0.375,0 0.375,-0.21094 0,-0.23438 -0.19922,-0.23438 -0.375,-0.23438 h -7.04297 c -0.17578,0 -0.38672,0 -0.38672,0.22266 0,0.22266 0.19922,0.22266 0.38672,0.22266 z m 0,0"
         style="fill:#000000;fill-opacity:1;fill-rule:nonzero;stroke:none" />
      <path
         id="path27"
         d="m 238.79782,234.40796 c -0.375,0.0703 -0.51562,0.35156 -0.51562,0.58594 0,0.28125 0.22265,0.375 0.38671,0.375 0.36329,0 0.60938,-0.30469 0.60938,-0.63281 0,-0.49219 -0.57422,-0.72657 -1.07813,-0.72657 -0.72656,0 -1.125,0.71485 -1.24218,0.94922 -0.26953,-0.90234 -1.00782,-0.94922 -1.23047,-0.94922 -1.21875,0 -1.86328,1.57032 -1.86328,1.82813 0,0.0469 0.0469,0.10547 0.1289,0.10547 0.10547,0 0.12891,-0.0703 0.15235,-0.11719 0.39843,-1.32422 1.20703,-1.57031 1.54687,-1.57031 0.53906,0 0.64453,0.49218 0.64453,0.78515 0,0.25782 -0.0703,0.53907 -0.21093,1.11328 l -0.41016,1.62891 c -0.17578,0.72656 -0.52734,1.38281 -1.16016,1.38281 -0.0586,0 -0.35156,0 -0.60937,-0.15234 0.43359,-0.0937 0.52734,-0.44531 0.52734,-0.58594 0,-0.24609 -0.17578,-0.38672 -0.39844,-0.38672 -0.29296,0 -0.59765,0.2461 -0.59765,0.63282 0,0.5039 0.5625,0.72656 1.0664,0.72656 0.57422,0 0.98438,-0.45703 1.23047,-0.9375 0.19922,0.70312 0.79688,0.9375 1.23047,0.9375 1.23047,0 1.875,-1.5586 1.875,-1.82813 0,-0.0586 -0.0469,-0.10547 -0.1289,-0.10547 -0.10547,0 -0.11719,0.0586 -0.15235,0.15235 -0.3164,1.05469 -1.01953,1.54687 -1.54687,1.54687 -0.42188,0 -0.65625,-0.3164 -0.65625,-0.80859 0,-0.25781 0.0586,-0.44531 0.24609,-1.24219 l 0.42188,-1.61719 c 0.17578,-0.72656 0.58593,-1.24218 1.125,-1.24218 0.0352,0 0.36328,0 0.60937,0.15234 z m 0,0"
         style="fill:#000000;fill-opacity:1;fill-rule:nonzero;stroke:none" />
      <path
         id="path28"
         d="m -77.473664,248.85132 c -0.375,0.0703 -0.515625,0.35156 -0.515625,0.58594 0,0.28125 0.222656,0.375 0.386719,0.375 0.363281,0 0.609375,-0.30469 0.609375,-0.63281 0,-0.49219 -0.574219,-0.72657 -1.078125,-0.72657 -0.726563,0 -1.125,0.71485 -1.242188,0.94922 -0.269531,-0.90234 -1.007812,-0.94922 -1.230469,-0.94922 -1.21875,0 -1.863281,1.57032 -1.863281,1.82813 0,0.0469 0.04687,0.10547 0.128906,0.10547 0.105469,0 0.128907,-0.0703 0.152344,-0.11719 0.398438,-1.32422 1.207031,-1.57031 1.546875,-1.57031 0.539063,0 0.644531,0.49218 0.644531,0.78515 0,0.25782 -0.07031,0.53907 -0.210937,1.11328 l -0.410156,1.62891 c -0.175782,0.72656 -0.527344,1.38281 -1.160157,1.38281 -0.05859,0 -0.351562,0 -0.609375,-0.15234 0.433594,-0.0937 0.527344,-0.44531 0.527344,-0.58594 0,-0.24609 -0.175781,-0.38672 -0.398437,-0.38672 -0.292969,0 -0.597657,0.2461 -0.597657,0.63282 0,0.5039 0.5625,0.72656 1.066407,0.72656 0.574218,0 0.984375,-0.45703 1.230468,-0.9375 0.199219,0.70312 0.796875,0.9375 1.230469,0.9375 1.230469,0 1.875,-1.5586 1.875,-1.82813 0,-0.0586 -0.04687,-0.10547 -0.128906,-0.10547 -0.105469,0 -0.117188,0.0586 -0.152344,0.15235 -0.316406,1.05469 -1.019531,1.54687 -1.546875,1.54687 -0.421875,0 -0.65625,-0.3164 -0.65625,-0.80859 0,-0.25781 0.05859,-0.44531 0.246094,-1.24219 l 0.421875,-1.61719 c 0.175781,-0.72656 0.585937,-1.24218 1.125,-1.24218 0.03516,0 0.363281,0 0.609375,0.15234 z m 0,0"
         style="fill:#000000;fill-opacity:1;fill-rule:nonzero;stroke:none" />
      <path
         id="path29"
         d="m -13.612336,248.92163 c 0.234375,0 0.328125,0 0.328125,-0.22265 0,-0.12891 -0.09375,-0.12891 -0.304687,-0.12891 h -0.972657 c 0.234375,-1.23047 0.398438,-2.07422 0.492188,-2.46094 0.07031,-0.28125 0.328125,-0.5625 0.632812,-0.5625 0.257813,0 0.503907,0.10547 0.621094,0.22266 -0.46875,0.0469 -0.609375,0.38672 -0.609375,0.59766 0,0.23437 0.1875,0.375 0.410156,0.375 0.234375,0 0.597657,-0.19922 0.597657,-0.65625 0,-0.50391 -0.503907,-0.77344 -1.03125,-0.77344 -0.515625,0 -1.007813,0.38672 -1.253907,0.84375 -0.210937,0.42187 -0.328125,0.85547 -0.609375,2.41406 h -0.796875 c -0.234375,0 -0.351562,0 -0.351562,0.22266 0,0.1289 0.07031,0.1289 0.316406,0.1289 h 0.761719 c -0.210938,1.11328 -0.703125,3.8086 -0.984375,5.08594 -0.199219,1.04297 -0.375,1.92188 -0.972656,1.92188 -0.03516,0 -0.386719,0 -0.597657,-0.23438 0.609375,-0.0469 0.609375,-0.57422 0.609375,-0.58594 0,-0.23437 -0.1875,-0.375 -0.410156,-0.375 -0.234375,0 -0.597656,0.19922 -0.597656,0.65625 0,0.51563 0.527344,0.77344 0.996094,0.77344 1.21875,0 1.722656,-2.19141 1.851562,-2.78906 0.210938,-0.91406 0.796875,-4.08985 0.855469,-4.45313 z m 0,0"
         style="fill:#000000;fill-opacity:1;fill-rule:nonzero;stroke:none" />
      <path
         id="path30"
         d="m -8.0078437,256.63257 c 0,-0.0352 0,-0.0586 -0.2109375,-0.26953 -1.1953125,-1.20703 -1.8632808,-3.17578 -1.8632808,-5.61328 0,-2.32031 0.5624995,-4.3125 1.945312,-5.73047 0.1289063,-0.10547 0.1289063,-0.12891 0.1289063,-0.16406 0,-0.0703 -0.070312,-0.0937 -0.1171875,-0.0937 -0.1523438,0 -1.1367188,0.85547 -1.7226563,2.02734 -0.6093745,1.20703 -0.8789065,2.49609 -0.8789065,3.96094 0,1.0664 0.164063,2.48437 0.7851565,3.76172 0.703125,1.4414 1.6875,2.21484 1.8164063,2.21484 0.046875,0 0.1171875,-0.0234 0.1171875,-0.0937 z m 0,0"
         style="fill:#000000;fill-opacity:1;fill-rule:nonzero;stroke:none" />
      <path
         id="path31"
         d="m 0.52926563,250.97241 c 0.2109375,0 0.421875,0 0.421875,-0.23437 0,-0.23438 -0.2109375,-0.23438 -0.421875,-0.23438 H -5.9394844 c -0.1992187,0 -0.4101562,0 -0.4101562,0.23438 0,0.23437 0.2109375,0.23437 0.4101562,0.23437 z m 0,0"
         style="fill:#000000;fill-opacity:1;fill-rule:nonzero;stroke:none" />
      <path
         id="path32"
         d="M 7.2148125,251.72241 H 6.9452813 c -0.035156,0.19922 -0.1289063,0.85547 -0.2460938,1.04297 -0.082031,0.11719 -0.7617187,0.11719 -1.125,0.11719 H 3.3593438 c 0.328125,-0.28125 1.0546875,-1.04297 1.3710937,-1.33594 1.8164063,-1.66406 2.484375,-2.28515 2.484375,-3.46875 0,-1.38281 -1.0898437,-2.29687 -2.4726562,-2.29687 -1.3945313,0 -2.203125,1.18359 -2.203125,2.20312 0,0.60938 0.5273437,0.60938 0.5625,0.60938 0.2460937,0 0.5625,-0.17578 0.5625,-0.5625 0,-0.32813 -0.234375,-0.55078 -0.5625,-0.55078 -0.1054688,0 -0.1289063,0 -0.1640625,0.0117 0.2226562,-0.82032 0.8671875,-1.3711 1.640625,-1.3711 1.0195312,0 1.640625,0.85547 1.640625,1.95703 0,1.00782 -0.5859375,1.89844 -1.265625,2.66016 l -2.4140625,2.70703 v 0.28125 h 4.359375 z m 3.9667965,-0.97265 c 0,-0.91406 -0.128906,-2.39063 -0.796875,-3.77344 -0.7031246,-1.44141 -1.6757809,-2.21484 -1.8164059,-2.21484 -0.046875,0 -0.1054687,0.0234 -0.1054687,0.0937 0,0.0351 0,0.0586 0.1992187,0.26953 1.1953125,1.20703 1.8749999,3.17578 1.8749999,5.61328 0,2.32031 -0.5624999,4.3125 -1.9570311,5.73047 -0.1171875,0.10547 -0.1171875,0.1289 -0.1171875,0.16406 0,0.0703 0.058594,0.0937 0.1054687,0.0937 0.1640625,0 1.1367188,-0.85547 1.7226559,-2.02734 0.609375,-1.21875 0.890625,-2.51953 0.890625,-3.94922 z m 0,0"
         style="fill:#000000;fill-opacity:1;fill-rule:nonzero;stroke:none" />
      <path
         id="path33"
         d="m 79.440398,289.12866 c 0,-0.26953 0,-0.28125 -0.246093,-0.28125 -0.28125,0.31641 -0.878907,0.76172 -2.109375,0.76172 v 0.35157 c 0.269531,0 0.867187,0 1.523437,-0.31641 v 6.22266 c 0,0.43359 -0.03516,0.57421 -1.078125,0.57421 h -0.375 v 0.35157 c 0.316406,-0.0234 1.476563,-0.0234 1.875,-0.0234 0.398438,0 1.546875,0 1.863281,0.0234 v -0.35157 h -0.363281 c -1.054687,0 -1.089844,-0.14062 -1.089844,-0.57421 z m 3.94336,0.82032 c 0.503906,0.16406 0.925781,0.17578 1.054687,0.17578 1.359375,0 2.214844,-0.9961 2.214844,-1.16016 0,-0.0469 -0.02344,-0.10547 -0.09375,-0.10547 -0.02344,0 -0.04687,0 -0.152344,0.0469 -0.667968,0.28125 -1.242187,0.3164 -1.558593,0.3164 -0.785157,0 -1.347657,-0.23437 -1.582032,-0.32812 -0.08203,-0.0352 -0.105468,-0.0352 -0.117187,-0.0352 -0.09375,0 -0.09375,0.0703 -0.09375,0.25782 v 3.55078 c 0,0.21093 0,0.29297 0.140625,0.29297 0.05859,0 0.07031,-0.0117 0.199219,-0.16407 0.328125,-0.49218 0.890625,-0.77343 1.488281,-0.77343 0.632812,0 0.949219,0.58593 1.042969,0.78515 0.199218,0.46875 0.210937,1.05469 0.210937,1.51172 0,0.45703 0,1.13672 -0.328125,1.67578 -0.269531,0.42188 -0.738281,0.72656 -1.253906,0.72656 -0.796875,0 -1.570313,-0.53906 -1.78125,-1.40625 0.05859,0.0234 0.128906,0.0352 0.1875,0.0352 0.199219,0 0.527344,-0.12891 0.527344,-0.52734 0,-0.33985 -0.234375,-0.52735 -0.527344,-0.52735 -0.210938,0 -0.527344,0.10547 -0.527344,0.57422 0,1.00781 0.808594,2.16797 2.144531,2.16797 1.347657,0 2.53125,-1.125 2.53125,-2.64844 0,-1.41797 -0.960937,-2.60156 -2.214843,-2.60156 -0.679688,0 -1.207032,0.29297 -1.511719,0.63281 z m 5.780273,2.68359 c 0,-3.02344 1.476563,-3.50391 2.121094,-3.50391 0.433594,0 0.855469,0.12891 1.089844,0.49219 -0.140625,0 -0.597656,0 -0.597656,0.49219 0,0.25781 0.175781,0.49219 0.492187,0.49219 0.292969,0 0.492188,-0.1875 0.492188,-0.52735 0,-0.62109 -0.445313,-1.23047 -1.488282,-1.23047 -1.511718,0 -3.082031,1.53516 -3.082031,4.17188 0,3.28125 1.429688,4.01953 2.449219,4.01953 1.300781,0 2.414062,-1.125 2.414062,-2.68359 0,-1.59375 -1.113281,-2.66016 -2.308593,-2.66016 -1.066407,0 -1.453125,0.92578 -1.582032,1.26563 z m 1.476563,4.08984 c -0.75,0 -1.113281,-0.66796 -1.21875,-0.92578 -0.105469,-0.30468 -0.222656,-0.89062 -0.222656,-1.73437 0,-0.9375 0.421875,-2.1211 1.5,-2.1211 0.65625,0 1.007812,0.44532 1.183593,0.84375 0.1875,0.44532 0.1875,1.04297 0.1875,1.5586 0,0.60937 0,1.14844 -0.222656,1.60547 -0.304687,0.57422 -0.726562,0.77343 -1.207031,0.77343 z m 0,0"
         style="fill:#000000;fill-opacity:1;fill-rule:nonzero;stroke:none" />
      <path
         id="path34"
         d="m 102.16891,292.63257 c 0,-3.02344 1.47657,-3.50391 2.1211,-3.50391 0.43359,0 0.85547,0.12891 1.08984,0.49219 -0.14062,0 -0.59765,0 -0.59765,0.49219 0,0.25781 0.17578,0.49219 0.49218,0.49219 0.29297,0 0.49219,-0.1875 0.49219,-0.52735 0,-0.62109 -0.44531,-1.23047 -1.48828,-1.23047 -1.51172,0 -3.08203,1.53516 -3.08203,4.17188 0,3.28125 1.42969,4.01953 2.44922,4.01953 1.30078,0 2.41406,-1.125 2.41406,-2.68359 0,-1.59375 -1.11328,-2.66016 -2.30859,-2.66016 -1.06641,0 -1.45313,0.92578 -1.58204,1.26563 z m 1.47657,4.08984 c -0.75,0 -1.11328,-0.66796 -1.21875,-0.92578 -0.10547,-0.30468 -0.22266,-0.89062 -0.22266,-1.73437 0,-0.9375 0.42188,-2.1211 1.5,-2.1211 0.65625,0 1.00781,0.44532 1.18359,0.84375 0.1875,0.44532 0.1875,1.04297 0.1875,1.5586 0,0.60937 0,1.14844 -0.22265,1.60547 -0.30469,0.57422 -0.72656,0.77343 -1.20703,0.77343 z m 4.44726,-6.77343 c 0.50391,0.16406 0.92578,0.17578 1.05469,0.17578 1.35937,0 2.21484,-0.9961 2.21484,-1.16016 0,-0.0469 -0.0234,-0.10547 -0.0937,-0.10547 -0.0234,0 -0.0469,0 -0.15234,0.0469 -0.66797,0.28125 -1.24219,0.3164 -1.55859,0.3164 -0.78516,0 -1.34766,-0.23437 -1.58204,-0.32812 -0.082,-0.0352 -0.10546,-0.0352 -0.11718,-0.0352 -0.0937,0 -0.0937,0.0703 -0.0937,0.25782 v 3.55078 c 0,0.21093 0,0.29297 0.14062,0.29297 0.0586,0 0.0703,-0.0117 0.19922,-0.16407 0.32813,-0.49218 0.89063,-0.77343 1.48828,-0.77343 0.63281,0 0.94922,0.58593 1.04297,0.78515 0.19922,0.46875 0.21094,1.05469 0.21094,1.51172 0,0.45703 0,1.13672 -0.32813,1.67578 -0.26953,0.42188 -0.73828,0.72656 -1.2539,0.72656 -0.79688,0 -1.57032,-0.53906 -1.78125,-1.40625 0.0586,0.0234 0.1289,0.0352 0.1875,0.0352 0.19922,0 0.52734,-0.12891 0.52734,-0.52734 0,-0.33985 -0.23437,-0.52735 -0.52734,-0.52735 -0.21094,0 -0.52735,0.10547 -0.52735,0.57422 0,1.00781 0.8086,2.16797 2.14453,2.16797 1.34766,0 2.53125,-1.125 2.53125,-2.64844 0,-1.41797 -0.96093,-2.60156 -2.21484,-2.60156 -0.67969,0 -1.20703,0.29297 -1.51172,0.63281 z m 0,0"
         style="fill:#000000;fill-opacity:1;fill-rule:nonzero;stroke:none" />
      <path
         id="path35"
         d="m 121.02731,292.63257 c 0,-3.02344 1.47657,-3.50391 2.1211,-3.50391 0.43359,0 0.85547,0.12891 1.08984,0.49219 -0.14062,0 -0.59766,0 -0.59766,0.49219 0,0.25781 0.17579,0.49219 0.49219,0.49219 0.29297,0 0.49219,-0.1875 0.49219,-0.52735 0,-0.62109 -0.44531,-1.23047 -1.48828,-1.23047 -1.51172,0 -3.08203,1.53516 -3.08203,4.17188 0,3.28125 1.42968,4.01953 2.44922,4.01953 1.30078,0 2.41406,-1.125 2.41406,-2.68359 0,-1.59375 -1.11328,-2.66016 -2.3086,-2.66016 -1.0664,0 -1.45312,0.92578 -1.58203,1.26563 z m 1.47657,4.08984 c -0.75,0 -1.11329,-0.66796 -1.21875,-0.92578 -0.10547,-0.30468 -0.22266,-0.89062 -0.22266,-1.73437 0,-0.9375 0.42187,-2.1211 1.5,-2.1211 0.65625,0 1.00781,0.44532 1.18359,0.84375 0.1875,0.44532 0.1875,1.04297 0.1875,1.5586 0,0.60937 0,1.14844 -0.22265,1.60547 -0.30469,0.57422 -0.72657,0.77343 -1.20703,0.77343 z m 8.26757,-3.75 c 0,-0.99609 -0.0586,-1.96875 -0.49218,-2.87109 -0.49219,-0.99609 -1.34766,-1.25391 -1.9336,-1.25391 -0.6914,0 -1.54687,0.33985 -1.98047,1.33594 -0.33984,0.75 -0.45703,1.48828 -0.45703,2.78906 0,1.16016 0.082,2.02735 0.51563,2.8711 0.45703,0.91406 1.28906,1.19531 1.91015,1.19531 1.04297,0 1.64063,-0.62109 1.98047,-1.3125 0.4336,-0.89062 0.45703,-2.0625 0.45703,-2.75391 z m -2.4375,3.83204 c -0.38672,0 -1.16015,-0.21094 -1.38281,-1.52344 -0.14062,-0.71485 -0.14062,-1.61719 -0.14062,-2.46094 0,-0.97266 0,-1.86328 0.19921,-2.56641 0.19922,-0.79687 0.8086,-1.17187 1.32422,-1.17187 0.45703,0 1.14844,0.28125 1.3711,1.30078 0.15234,0.67969 0.15234,1.62891 0.15234,2.4375 0,0.80859 0,1.71094 -0.12891,2.4375 -0.22265,1.32422 -0.97265,1.54688 -1.39453,1.54688 z m 0,0"
         style="fill:#000000;fill-opacity:1;fill-rule:nonzero;stroke:none" />
      <path
         id="path36"
         d="m -18.194367,342.76245 c 0,-0.0351 0,-0.0586 -0.210938,-0.26953 -1.195312,-1.20703 -1.863281,-3.17578 -1.863281,-5.61328 0,-2.32031 0.5625,-4.3125 1.945313,-5.73047 0.128906,-0.10547 0.128906,-0.1289 0.128906,-0.16406 0,-0.0703 -0.07031,-0.0937 -0.117188,-0.0937 -0.152343,0 -1.136718,0.85547 -1.722656,2.02734 -0.609375,1.20703 -0.878906,2.4961 -0.878906,3.96094 0,1.06641 0.164062,2.48438 0.785156,3.76172 0.703125,1.44141 1.6875,2.21484 1.816406,2.21484 0.04687,0 0.117188,-0.0234 0.117188,-0.0937 z m 0,0"
         style="fill:#000000;fill-opacity:1;fill-rule:nonzero;stroke:none" />
      <path
         id="path37"
         d="m -13.934602,338.43823 c -0.05859,0.19922 -0.05859,0.22266 -0.222656,0.44532 -0.269531,0.33984 -0.796875,0.85547 -1.359375,0.85547 -0.480469,0 -0.761719,-0.44532 -0.761719,-1.14844 0,-0.65625 0.375,-1.99219 0.597657,-2.4961 0.410156,-0.84375 0.972656,-1.26562 1.441406,-1.26562 0.785156,0 0.9375,0.97266 0.9375,1.06641 0,0.0117 -0.03516,0.17578 -0.04687,0.19921 z m 0.761719,-3.07031 c -0.128906,-0.30469 -0.445312,-0.78515 -1.066406,-0.78515 -1.359375,0 -2.8125,1.74609 -2.8125,3.51562 0,1.18359 0.691406,1.875 1.5,1.875 0.65625,0 1.21875,-0.51562 1.558594,-0.90234 0.117187,0.70312 0.679687,0.90234 1.042968,0.90234 0.351563,0 0.644532,-0.21094 0.855469,-0.64453 0.1875,-0.41016 0.363281,-1.13672 0.363281,-1.18359 0,-0.0586 -0.04687,-0.10547 -0.117187,-0.10547 -0.117188,0 -0.128906,0.0586 -0.175781,0.23437 -0.175782,0.71485 -0.398438,1.46485 -0.890625,1.46485 -0.351563,0 -0.375,-0.31641 -0.375,-0.55079 0,-0.28125 0.03516,-0.41015 0.140625,-0.8789 0.08203,-0.29297 0.152343,-0.5625 0.246093,-0.90235 0.433594,-1.79296 0.550782,-2.22656 0.550782,-2.29687 0,-0.16406 -0.140625,-0.29297 -0.316407,-0.29297 -0.375,0 -0.480468,0.41016 -0.503906,0.55078 z m 4.1162111,4.53516 c 0,-0.69141 -0.2226562,-1.20703 -0.7148437,-1.20703 -0.3867184,0 -0.5742184,0.3164 -0.5742184,0.57422 0,0.25781 0.175781,0.58593 0.5859371,0.58593 0.1523438,0 0.28125,-0.0469 0.3867188,-0.15234 0.023437,-0.0234 0.035156,-0.0234 0.046875,-0.0234 0.035156,0 0.035156,0.16406 0.035156,0.22266 0,0.39844 -0.082031,1.17187 -0.7734369,1.94531 -0.128907,0.15234 -0.128907,0.17578 -0.128907,0.19922 0,0.0586 0.05859,0.11719 0.117188,0.11719 0.09375,0 1.0195309,-0.89063 1.0195309,-2.26172 z m 5.6835938,-8.03906 c 0.011719,-0.0469 0.035156,-0.12891 0.035156,-0.1875 0,-0.11719 -0.1289062,-0.11719 -0.1523437,-0.11719 -0.011719,0 -0.4335938,0.0351 -0.65625,0.0586 -0.1992188,0.0117 -0.375,0.0352 -0.5976563,0.0469 -0.28125,0.0234 -0.3632812,0.0351 -0.3632812,0.25781 0,0.11719 0.1171875,0.11719 0.234375,0.11719 0.609375,0 0.609375,0.10547 0.609375,0.22265 0,0.082 -0.09375,0.4336 -0.140625,0.64453 l -0.2929688,1.14844 c -0.1171875,0.48047 -0.796875,3.19922 -0.84375,3.41016 -0.058594,0.29297 -0.058594,0.5039 -0.058594,0.65625 0,1.21875 0.6796875,1.85156 1.453125,1.85156 1.3945312,0 2.8242187,-1.78125 2.8242187,-3.51562 0,-1.10157 -0.6210937,-1.875 -1.5117187,-1.875 -0.6328125,0 -1.1835938,0.51562 -1.4179688,0.75 z m -0.7617188,7.875 c -0.375,0 -0.796875,-0.29297 -0.796875,-1.21875 0,-0.39844 0.035156,-0.6211 0.2460938,-1.46485 0.046875,-0.15234 0.234375,-0.91406 0.28125,-1.0664 0.023437,-0.10547 0.7265625,-1.16016 1.5351562,-1.16016 0.5273438,0 0.7734375,0.51562 0.7734375,1.13672 0,0.57422 -0.3398437,1.93359 -0.6328125,2.55469 -0.3046875,0.64453 -0.8554687,1.21875 -1.40625,1.21875 z m 5.3027344,0.16406 c 0,-0.69141 -0.22265625,-1.20703 -0.71484375,-1.20703 -0.38671875,0 -0.57421875,0.3164 -0.57421875,0.57422 0,0.25781 0.17578125,0.58593 0.5859375,0.58593 0.15234375,0 0.28125,-0.0469 0.38671875,-0.15234 0.0234375,-0.0234 0.0351563,-0.0234 0.046875,-0.0234 0.0351563,0 0.0351563,0.16406 0.0351563,0.22266 0,0.39844 -0.0820313,1.17187 -0.7734375,1.94531 -0.12890625,0.15234 -0.12890625,0.17578 -0.12890625,0.19922 0,0.0586 0.05859375,0.11719 0.1171875,0.11719 0.09375,0 1.0195312,-0.89063 1.0195312,-2.26172 z m 7.5820313,-4.54688 c -0.234375,0 -0.3398438,0 -0.5039063,0.15235 -0.070312,0.0586 -0.1992187,0.23437 -0.1992187,0.42187 0,0.2461 0.1757812,0.38672 0.3984375,0.38672 0.2929687,0 0.609375,-0.23437 0.609375,-0.71484 0,-0.57422 -0.5507813,-1.01953 -1.3710938,-1.01953 -1.5703125,0 -3.1289062,1.71093 -3.1289062,3.41015 0,1.04297 0.6445312,1.98047 1.8632812,1.98047 1.6289063,0 2.6484375,-1.26562 2.6484375,-1.41797 0,-0.0703 -0.070312,-0.1289 -0.1171875,-0.1289 -0.035156,0 -0.046875,0.0117 -0.1523437,0.11718 -0.7617188,1.00782 -1.8984375,1.19532 -2.3554688,1.19532 -0.8203125,0 -1.0898437,-0.71485 -1.0898437,-1.3125 0,-0.42188 0.1992187,-1.58204 0.6328125,-2.39063 0.3164062,-0.5625 0.9609375,-1.20703 1.7109375,-1.20703 0.1523437,0 0.8085937,0.0234 1.0546875,0.52734 z m 2.6923832,4.54688 c 0,-0.69141 -0.222657,-1.20703 -0.714844,-1.20703 -0.386719,0 -0.574219,0.3164 -0.574219,0.57422 0,0.25781 0.175781,0.58593 0.585938,0.58593 0.152343,0 0.28125,-0.0469 0.386718,-0.15234 0.02344,-0.0234 0.03516,-0.0234 0.04687,-0.0234 0.03516,0 0.03516,0.16406 0.03516,0.22266 0,0.39844 -0.08203,1.17187 -0.773438,1.94531 -0.128906,0.15234 -0.128906,0.17578 -0.128906,0.19922 0,0.0586 0.05859,0.11719 0.117187,0.11719 0.09375,0 1.019532,-0.89063 1.019532,-2.26172 z m 8.929687,-8.03906 c 0.01172,-0.0469 0.03516,-0.12891 0.03516,-0.1875 0,-0.11719 -0.117187,-0.11719 -0.140625,-0.11719 -0.01172,0 -0.597656,0.0469 -0.65625,0.0586 -0.210937,0.0117 -0.386718,0.0352 -0.597656,0.0469 -0.304687,0.0234 -0.386719,0.0351 -0.386719,0.25781 0,0.11719 0.09375,0.11719 0.269532,0.11719 0.585937,0 0.597656,0.10547 0.597656,0.22265 0,0.0703 -0.02344,0.17578 -0.03516,0.21094 l -0.738282,2.89453 c -0.128906,-0.30469 -0.445312,-0.78515 -1.066406,-0.78515 -1.359375,0 -2.8125,1.74609 -2.8125,3.51562 0,1.18359 0.691406,1.875 1.5,1.875 0.65625,0 1.21875,-0.51562 1.558594,-0.90234 0.117187,0.70312 0.679687,0.90234 1.042969,0.90234 0.351562,0 0.644531,-0.21094 0.855468,-0.64453 0.1875,-0.41016 0.363282,-1.13672 0.363282,-1.18359 0,-0.0586 -0.04687,-0.10547 -0.117188,-0.10547 -0.117187,0 -0.128906,0.0586 -0.175781,0.23437 -0.175781,0.71485 -0.398438,1.46485 -0.890625,1.46485 -0.351563,0 -0.375,-0.31641 -0.375,-0.55079 0,-0.0469 0,-0.30468 0.08203,-0.63281 z m -2.414062,6.57421 c -0.05859,0.19922 -0.05859,0.22266 -0.222657,0.44532 -0.269531,0.33984 -0.796875,0.85547 -1.359375,0.85547 -0.480468,0 -0.761718,-0.44532 -0.761718,-1.14844 0,-0.65625 0.375,-1.99219 0.597656,-2.4961 0.410156,-0.84375 0.972656,-1.26562 1.441406,-1.26562 0.785156,0 0.9375,0.97266 0.9375,1.06641 0,0.0117 -0.03516,0.17578 -0.04687,0.19921 z m 0,0"
         style="fill:#000000;fill-opacity:1;fill-rule:nonzero;stroke:none" />
      <path
         id="path38"
         d="m 23.817352,336.87964 c 0,-0.91406 -0.128907,-2.39062 -0.796875,-3.77344 -0.703125,-1.4414 -1.675782,-2.21484 -1.816407,-2.21484 -0.04687,0 -0.105468,0.0234 -0.105468,0.0937 0,0.0352 0,0.0586 0.199218,0.26953 1.195313,1.20703 1.875,3.17578 1.875,5.61328 0,2.32031 -0.5625,4.3125 -1.957031,5.73047 -0.117187,0.10547 -0.117187,0.12891 -0.117187,0.16406 0,0.0703 0.05859,0.0937 0.105468,0.0937 0.164063,0 1.136719,-0.85547 1.722657,-2.02734 0.609375,-1.21875 0.890625,-2.51953 0.890625,-3.94922 z m 0,0"
         style="fill:#000000;fill-opacity:1;fill-rule:nonzero;stroke:none" />
      <path
         id="path39"
         d="m -8.7051094,364.84058 c -0.058594,0.19922 -0.058594,0.22265 -0.2226562,0.44531 -0.2695313,0.33984 -0.796875,0.85547 -1.3593754,0.85547 -0.480468,0 -0.761718,-0.44531 -0.761718,-1.14844 0,-0.65625 0.375,-1.99219 0.597656,-2.49609 0.410156,-0.84375 0.9726561,-1.26563 1.4414061,-1.26563 0.7851563,0 0.9375,0.97266 0.9375,1.06641 0,0.0117 -0.035156,0.17578 -0.046875,0.19922 z m 0.7617188,-3.07031 c -0.1289063,-0.30469 -0.4453125,-0.78516 -1.0664063,-0.78516 -1.3593751,0 -2.8125001,1.74609 -2.8125001,3.51562 0,1.1836 0.691406,1.875 1.5,1.875 0.6562501,0 1.2187501,-0.51562 1.5585939,-0.90234 0.1171875,0.70313 0.6796875,0.90234 1.0429687,0.90234 0.3515625,0 0.6445313,-0.21093 0.8554688,-0.64453 0.1875,-0.41015 0.3632812,-1.13672 0.3632812,-1.18359 0,-0.0586 -0.046875,-0.10547 -0.1171875,-0.10547 -0.1171875,0 -0.1289062,0.0586 -0.1757812,0.23438 -0.1757813,0.71484 -0.3984375,1.46484 -0.890625,1.46484 -0.3515625,0 -0.375,-0.31641 -0.375,-0.55078 0,-0.28125 0.035156,-0.41016 0.140625,-0.87891 0.082031,-0.29297 0.1523437,-0.5625 0.2460937,-0.90234 0.4335938,-1.79297 0.5507813,-2.22656 0.5507813,-2.29688 0,-0.16406 -0.140625,-0.29297 -0.3164063,-0.29297 -0.375,0 -0.4804687,0.41016 -0.5039062,0.55079 z m 4.5498047,-3.50391 c 0.011719,-0.0469 0.035156,-0.12891 0.035156,-0.1875 0,-0.11719 -0.1289062,-0.11719 -0.1523437,-0.11719 -0.011719,0 -0.4335938,0.0352 -0.65625,0.0586 -0.1992188,0.0117 -0.375,0.0352 -0.5976563,0.0469 -0.28125,0.0234 -0.3632812,0.0352 -0.3632812,0.25781 0,0.11719 0.1171875,0.11719 0.234375,0.11719 0.609375,0 0.609375,0.10547 0.609375,0.22266 0,0.082 -0.09375,0.43359 -0.140625,0.64453 l -0.2929688,1.14844 c -0.1171875,0.48046 -0.796875,3.19921 -0.84375,3.41015 -0.058594,0.29297 -0.058594,0.50391 -0.058594,0.65625 0,1.21875 0.6796875,1.85156 1.453125,1.85156 1.3945312,0 2.8242187,-1.78125 2.8242187,-3.51562 0,-1.10156 -0.6210937,-1.875 -1.5117187,-1.875 -0.6328125,0 -1.1835938,0.51562 -1.4179688,0.75 z m -0.7617188,7.875 c -0.375,0 -0.796875,-0.29297 -0.796875,-1.21875 0,-0.39844 0.035156,-0.62109 0.2460938,-1.46484 0.046875,-0.15235 0.234375,-0.91407 0.28125,-1.06641 0.023437,-0.10547 0.7265625,-1.16016 1.5351562,-1.16016 0.5273438,0 0.7734375,0.51563 0.7734375,1.13672 0,0.57422 -0.3398437,1.9336 -0.6328125,2.55469 -0.3046875,0.64453 -0.8554687,1.21875 -1.40625,1.21875 z m 0,0"
         style="fill:#000000;fill-opacity:1;fill-rule:nonzero;stroke:none" />
      <path
         id="path40"
         d="m 6.2450859,363.49292 h 3.3046875 c 0.1640625,0 0.375,0 0.375,-0.21094 0,-0.22265 -0.1992187,-0.22265 -0.375,-0.22265 H 6.2450859 v -3.30469 c 0,-0.16406 0,-0.38672 -0.2109375,-0.38672 -0.234375,0 -0.234375,0.21094 -0.234375,0.38672 v 3.30469 H 2.5068047 c -0.1757813,0 -0.3867188,0 -0.3867188,0.21094 0,0.22265 0.1992188,0.22265 0.3867188,0.22265 h 3.2929687 v 3.30469 c 0,0.16406 0,0.38672 0.2226563,0.38672 0.2226562,0 0.2226562,-0.21094 0.2226562,-0.38672 z m 0,0"
         style="fill:#000000;fill-opacity:1;fill-rule:nonzero;stroke:none" />
      <path
         id="path41"
         d="m 16.003875,358.26636 c 0.01172,-0.0469 0.03516,-0.12891 0.03516,-0.1875 0,-0.11719 -0.128906,-0.11719 -0.152343,-0.11719 -0.01172,0 -0.433594,0.0352 -0.65625,0.0586 -0.199219,0.0117 -0.375,0.0352 -0.597657,0.0469 -0.28125,0.0234 -0.363281,0.0352 -0.363281,0.25781 0,0.11719 0.117188,0.11719 0.234375,0.11719 0.609375,0 0.609375,0.10547 0.609375,0.22266 0,0.082 -0.09375,0.43359 -0.140625,0.64453 l -0.292969,1.14844 c -0.117187,0.48046 -0.796875,3.19921 -0.84375,3.41015 -0.05859,0.29297 -0.05859,0.50391 -0.05859,0.65625 0,1.21875 0.679687,1.85156 1.453125,1.85156 1.394531,0 2.824218,-1.78125 2.824218,-3.51562 0,-1.10156 -0.621093,-1.875 -1.511718,-1.875 -0.632813,0 -1.183594,0.51562 -1.417969,0.75 z m -0.761719,7.875 c -0.375,0 -0.796875,-0.29297 -0.796875,-1.21875 0,-0.39844 0.03516,-0.62109 0.246094,-1.46484 0.04687,-0.15235 0.234375,-0.91407 0.28125,-1.06641 0.02344,-0.10547 0.726563,-1.16016 1.535156,-1.16016 0.527344,0 0.773438,0.51563 0.773438,1.13672 0,0.57422 -0.339844,1.9336 -0.632813,2.55469 -0.304687,0.64453 -0.855468,1.21875 -1.40625,1.21875 z m 7.646485,-4.38281 c -0.234375,0 -0.339844,0 -0.503907,0.15234 -0.07031,0.0586 -0.199218,0.23438 -0.199218,0.42188 0,0.24609 0.175781,0.38671 0.398437,0.38671 0.292969,0 0.609375,-0.23437 0.609375,-0.71484 0,-0.57422 -0.550781,-1.01953 -1.371094,-1.01953 -1.570312,0 -3.128906,1.71094 -3.128906,3.41016 0,1.04296 0.644531,1.98046 1.863281,1.98046 1.628907,0 2.648438,-1.26562 2.648438,-1.41796 0,-0.0703 -0.07031,-0.12891 -0.117188,-0.12891 -0.03516,0 -0.04687,0.0117 -0.152343,0.11719 -0.761719,1.00781 -1.898438,1.19531 -2.355469,1.19531 -0.820313,0 -1.089844,-0.71484 -1.089844,-1.3125 0,-0.42188 0.199219,-1.58203 0.632813,-2.39063 0.316406,-0.5625 0.960937,-1.20703 1.710937,-1.20703 0.152344,0 0.808594,0.0234 1.054688,0.52735 z m 0,0"
         style="fill:#000000;fill-opacity:1;fill-rule:nonzero;stroke:none" />
      <path
         id="path42"
         d="m 30.67868,363.49292 h 3.304687 c 0.164063,0 0.375,0 0.375,-0.21094 0,-0.22265 -0.199219,-0.22265 -0.375,-0.22265 H 30.67868 v -3.30469 c 0,-0.16406 0,-0.38672 -0.210938,-0.38672 -0.234375,0 -0.234375,0.21094 -0.234375,0.38672 v 3.30469 h -3.292969 c -0.175781,0 -0.386718,0 -0.386718,0.21094 0,0.22265 0.199218,0.22265 0.386718,0.22265 h 3.292969 v 3.30469 c 0,0.16406 0,0.38672 0.222656,0.38672 0.222657,0 0.222657,-0.21094 0.222657,-0.38672 z m 0,0"
         style="fill:#000000;fill-opacity:1;fill-rule:nonzero;stroke:none" />
      <path
         id="path43"
         d="m 42.344695,361.75855 c -0.234375,0 -0.339843,0 -0.503906,0.15234 -0.07031,0.0586 -0.199219,0.23438 -0.199219,0.42188 0,0.24609 0.175782,0.38671 0.398438,0.38671 0.292969,0 0.609375,-0.23437 0.609375,-0.71484 0,-0.57422 -0.550781,-1.01953 -1.371094,-1.01953 -1.570312,0 -3.128906,1.71094 -3.128906,3.41016 0,1.04296 0.644531,1.98046 1.863281,1.98046 1.628906,0 2.648438,-1.26562 2.648438,-1.41796 0,-0.0703 -0.07031,-0.12891 -0.117188,-0.12891 -0.03516,0 -0.04687,0.0117 -0.152344,0.11719 -0.761718,1.00781 -1.898437,1.19531 -2.355468,1.19531 -0.820313,0 -1.089844,-0.71484 -1.089844,-1.3125 0,-0.42188 0.199219,-1.58203 0.632812,-2.39063 0.316407,-0.5625 0.960938,-1.20703 1.710938,-1.20703 0.152344,0 0.808594,0.0234 1.054687,0.52735 z m 6.375,-3.49219 c 0.01172,-0.0469 0.03516,-0.12891 0.03516,-0.1875 0,-0.11719 -0.117188,-0.11719 -0.140625,-0.11719 -0.01172,0 -0.597657,0.0469 -0.65625,0.0586 -0.210938,0.0117 -0.386719,0.0352 -0.597657,0.0469 -0.304687,0.0234 -0.386718,0.0352 -0.386718,0.25781 0,0.11719 0.09375,0.11719 0.269531,0.11719 0.585937,0 0.597656,0.10547 0.597656,0.22266 0,0.0703 -0.02344,0.17578 -0.03516,0.21093 l -0.738281,2.89454 c -0.128907,-0.30469 -0.445313,-0.78516 -1.066407,-0.78516 -1.359375,0 -2.8125,1.74609 -2.8125,3.51562 0,1.1836 0.691407,1.875 1.5,1.875 0.65625,0 1.21875,-0.51562 1.558594,-0.90234 0.117188,0.70313 0.679688,0.90234 1.042969,0.90234 0.351562,0 0.644531,-0.21093 0.855469,-0.64453 0.1875,-0.41015 0.363281,-1.13672 0.363281,-1.18359 0,-0.0586 -0.04687,-0.10547 -0.117188,-0.10547 -0.117187,0 -0.128906,0.0586 -0.175781,0.23438 -0.175781,0.71484 -0.398437,1.46484 -0.890625,1.46484 -0.351562,0 -0.375,-0.31641 -0.375,-0.55078 0,-0.0469 0,-0.30469 0.08203,-0.63281 z m -2.414062,6.57422 c -0.05859,0.19922 -0.05859,0.22265 -0.222656,0.44531 -0.269532,0.33984 -0.796875,0.85547 -1.359375,0.85547 -0.480469,0 -0.761719,-0.44531 -0.761719,-1.14844 0,-0.65625 0.375,-1.99219 0.597656,-2.49609 0.410156,-0.84375 0.972656,-1.26563 1.441406,-1.26563 0.785157,0 0.9375,0.97266 0.9375,1.06641 0,0.0117 -0.03516,0.17578 -0.04687,0.19922 z m 0,0"
         style="fill:#000000;fill-opacity:1;fill-rule:nonzero;stroke:none" />
      <path
         id="path44"
         d="m 56.216766,363.49292 h 3.304687 c 0.164063,0 0.375,0 0.375,-0.21094 0,-0.22265 -0.199219,-0.22265 -0.375,-0.22265 h -3.304687 v -3.30469 c 0,-0.16406 0,-0.38672 -0.210938,-0.38672 -0.234375,0 -0.234375,0.21094 -0.234375,0.38672 v 3.30469 h -3.292969 c -0.175781,0 -0.386718,0 -0.386718,0.21094 0,0.22265 0.199218,0.22265 0.386718,0.22265 h 3.292969 v 3.30469 c 0,0.16406 0,0.38672 0.222656,0.38672 0.222657,0 0.222657,-0.21094 0.222657,-0.38672 z m 0,0"
         style="fill:#000000;fill-opacity:1;fill-rule:nonzero;stroke:none" />
      <path
         id="path45"
         d="m 69.218719,358.26636 c 0.01172,-0.0469 0.03516,-0.12891 0.03516,-0.1875 0,-0.11719 -0.117187,-0.11719 -0.140625,-0.11719 -0.01172,0 -0.597656,0.0469 -0.65625,0.0586 -0.210937,0.0117 -0.386719,0.0352 -0.597656,0.0469 -0.304688,0.0234 -0.386719,0.0352 -0.386719,0.25781 0,0.11719 0.09375,0.11719 0.269531,0.11719 0.585938,0 0.597657,0.10547 0.597657,0.22266 0,0.0703 -0.02344,0.17578 -0.03516,0.21093 l -0.738281,2.89454 c -0.128906,-0.30469 -0.445312,-0.78516 -1.066406,-0.78516 -1.359375,0 -2.8125,1.74609 -2.8125,3.51562 0,1.1836 0.691406,1.875 1.5,1.875 0.65625,0 1.21875,-0.51562 1.558594,-0.90234 0.117187,0.70313 0.679687,0.90234 1.042968,0.90234 0.351563,0 0.644532,-0.21093 0.855469,-0.64453 0.1875,-0.41015 0.363281,-1.13672 0.363281,-1.18359 0,-0.0586 -0.04687,-0.10547 -0.117187,-0.10547 -0.117188,0 -0.128906,0.0586 -0.175781,0.23438 -0.175782,0.71484 -0.398438,1.46484 -0.890625,1.46484 -0.351563,0 -0.375,-0.31641 -0.375,-0.55078 0,-0.0469 0,-0.30469 0.08203,-0.63281 z m -2.414063,6.57422 c -0.05859,0.19922 -0.05859,0.22265 -0.222656,0.44531 -0.269531,0.33984 -0.796875,0.85547 -1.359375,0.85547 -0.480469,0 -0.761719,-0.44531 -0.761719,-1.14844 0,-0.65625 0.375,-1.99219 0.597657,-2.49609 0.410156,-0.84375 0.972656,-1.26563 1.441406,-1.26563 0.785156,0 0.9375,0.97266 0.9375,1.06641 0,0.0117 -0.03516,0.17578 -0.04687,0.19922 z m 6.084961,0 c -0.05859,0.19922 -0.05859,0.22265 -0.222656,0.44531 -0.269531,0.33984 -0.796875,0.85547 -1.359375,0.85547 -0.480469,0 -0.761719,-0.44531 -0.761719,-1.14844 0,-0.65625 0.375,-1.99219 0.597656,-2.49609 0.410157,-0.84375 0.972657,-1.26563 1.441407,-1.26563 0.785156,0 0.9375,0.97266 0.9375,1.06641 0,0.0117 -0.03516,0.17578 -0.04687,0.19922 z m 0.761719,-3.07031 c -0.128906,-0.30469 -0.445313,-0.78516 -1.066406,-0.78516 -1.359375,0 -2.8125,1.74609 -2.8125,3.51562 0,1.1836 0.691406,1.875 1.5,1.875 0.65625,0 1.21875,-0.51562 1.558593,-0.90234 0.117188,0.70313 0.679688,0.90234 1.042969,0.90234 0.351563,0 0.644531,-0.21093 0.855469,-0.64453 0.1875,-0.41015 0.363281,-1.13672 0.363281,-1.18359 0,-0.0586 -0.04687,-0.10547 -0.117187,-0.10547 -0.117188,0 -0.128907,0.0586 -0.175782,0.23438 -0.175781,0.71484 -0.398437,1.46484 -0.890625,1.46484 -0.351562,0 -0.375,-0.31641 -0.375,-0.55078 0,-0.28125 0.03516,-0.41016 0.140625,-0.87891 0.08203,-0.29297 0.152344,-0.5625 0.246094,-0.90234 0.433594,-1.79297 0.550781,-2.22656 0.550781,-2.29688 0,-0.16406 -0.140625,-0.29297 -0.316406,-0.29297 -0.375,0 -0.480469,0.41016 -0.503906,0.55079 z m 0,0"
         style="fill:#000000;fill-opacity:1;fill-rule:nonzero;stroke:none" />
      <path
         id="path46"
         d="m 86.832,362.39136 c 0.164063,0 0.375,0 0.375,-0.22266 0,-0.22265 -0.199219,-0.22265 -0.375,-0.22265 h -7.042969 c -0.175781,0 -0.386718,0 -0.386718,0.21093 0,0.23438 0.199218,0.23438 0.386718,0.23438 z m 0,2.21484 c 0.164063,0 0.375,0 0.375,-0.21093 0,-0.23438 -0.199219,-0.23438 -0.375,-0.23438 h -7.042969 c -0.175781,0 -0.386718,0 -0.386718,0.22266 0,0.22265 0.199218,0.22265 0.386718,0.22265 z m 9.615234,-0.35156 h -0.269531 c -0.03516,0.19922 -0.128906,0.85547 -0.246094,1.04297 -0.08203,0.11719 -0.761718,0.11719 -1.125,0.11719 h -2.214843 c 0.328125,-0.28125 1.054687,-1.04297 1.371093,-1.33594 1.816407,-1.66406 2.484375,-2.28516 2.484375,-3.46875 0,-1.38281 -1.089843,-2.29688 -2.472656,-2.29688 -1.394531,0 -2.203125,1.1836 -2.203125,2.20313 0,0.60937 0.527344,0.60937 0.5625,0.60937 0.246094,0 0.5625,-0.17578 0.5625,-0.5625 0,-0.32812 -0.234375,-0.55078 -0.5625,-0.55078 -0.105469,0 -0.128906,0 -0.164062,0.0117 0.222656,-0.82031 0.867187,-1.37109 1.640625,-1.37109 1.019531,0 1.640625,0.85547 1.640625,1.95703 0,1.00781 -0.585938,1.89844 -1.265625,2.66016 l -2.414063,2.70703 v 0.28125 h 4.359375 z m 5.947266,-1.81641 c 0,-0.99609 -0.0586,-1.96875 -0.49219,-2.87109 -0.49218,-0.99609 -1.34765,-1.25391 -1.933591,-1.25391 -0.691406,0 -1.546875,0.33985 -1.980469,1.33594 -0.339844,0.75 -0.457031,1.48828 -0.457031,2.78906 0,1.16016 0.08203,2.02735 0.515625,2.8711 0.457031,0.91406 1.289062,1.19531 1.910156,1.19531 1.04297,0 1.64063,-0.62109 1.98047,-1.3125 0.43359,-0.89062 0.45703,-2.0625 0.45703,-2.75391 z m -2.4375,3.83204 c -0.386719,0 -1.160156,-0.21094 -1.382812,-1.52344 -0.140625,-0.71485 -0.140625,-1.61719 -0.140625,-2.46094 0,-0.97266 0,-1.86328 0.199218,-2.56641 0.199219,-0.79687 0.808594,-1.17187 1.324219,-1.17187 0.45703,0 1.14844,0.28125 1.37109,1.30078 0.15235,0.67969 0.15235,1.62891 0.15235,2.4375 0,0.80859 0,1.71094 -0.12891,2.4375 -0.22265,1.32422 -0.97265,1.54688 -1.39453,1.54688 z m 6.38086,-7.67579 c 0,-0.26953 0,-0.28125 -0.24609,-0.28125 -0.28125,0.31641 -0.87891,0.76172 -2.10938,0.76172 v 0.35157 c 0.26953,0 0.86719,0 1.52344,-0.31641 v 6.22266 c 0,0.43359 -0.0352,0.57421 -1.07813,0.57421 h -0.375 v 0.35157 c 0.31641,-0.0234 1.47657,-0.0234 1.875,-0.0234 0.39844,0 1.54688,0 1.86328,0.0234 v -0.35157 h -0.36328 c -1.05468,0 -1.08984,-0.14062 -1.08984,-0.57421 z m 5.9707,3.35157 c 0.59766,-0.32813 1.46485,-0.87891 1.46485,-1.875 0,-1.04297 -0.9961,-1.75782 -2.09766,-1.75782 -1.18359,0 -2.12109,0.86719 -2.12109,1.95704 0,0.41015 0.1289,0.80859 0.45703,1.21875 0.1289,0.15234 0.14062,0.16406 0.98437,0.75 -1.16015,0.53906 -1.75781,1.34765 -1.75781,2.21484 0,1.26562 1.20703,2.05078 2.42578,2.05078 1.32422,0 2.4375,-0.97266 2.4375,-2.22656 0,-1.21875 -0.85547,-1.75781 -1.79297,-2.33203 z m -1.6289,-1.07813 c -0.15235,-0.10547 -0.63282,-0.42187 -0.63282,-1.00781 0,-0.77344 0.82032,-1.26563 1.61719,-1.26563 0.85547,0 1.62891,0.6211 1.62891,1.48829 0,0.72656 -0.52735,1.3125 -1.21875,1.6875 z m 0.5625,1.54688 1.45312,0.9375 c 0.30469,0.19922 0.85547,0.57422 0.85547,1.30078 0,0.91406 -0.91406,1.53515 -1.875,1.53515 -1.01953,0 -1.88672,-0.73828 -1.88672,-1.73437 0,-0.9375 0.67969,-1.6875 1.45313,-2.03906 z m 10.78125,1.07812 h 3.30468 c 0.16407,0 0.375,0 0.375,-0.21094 0,-0.22265 -0.19921,-0.22265 -0.375,-0.22265 h -3.30468 v -3.30469 c 0,-0.16406 0,-0.38672 -0.21094,-0.38672 -0.23438,0 -0.23438,0.21094 -0.23438,0.38672 v 3.30469 h -3.29296 c -0.17579,0 -0.38672,0 -0.38672,0.21094 0,0.22265 0.19922,0.22265 0.38672,0.22265 h 3.29296 v 3.30469 c 0,0.16406 0,0.38672 0.22266,0.38672 0.22266,0 0.22266,-0.21094 0.22266,-0.38672 z m 0,0"
         style="fill:#000000;fill-opacity:1;fill-rule:nonzero;stroke:none" />
      <path
         id="path47"
         d="m 132.60837,364.84058 c -0.0586,0.19922 -0.0586,0.22265 -0.22266,0.44531 -0.26953,0.33984 -0.79687,0.85547 -1.35937,0.85547 -0.48047,0 -0.76172,-0.44531 -0.76172,-1.14844 0,-0.65625 0.375,-1.99219 0.59765,-2.49609 0.41016,-0.84375 0.97266,-1.26563 1.44141,-1.26563 0.78516,0 0.9375,0.97266 0.9375,1.06641 0,0.0117 -0.0352,0.17578 -0.0469,0.19922 z m 0.76172,-3.07031 c -0.12891,-0.30469 -0.44532,-0.78516 -1.06641,-0.78516 -1.35938,0 -2.8125,1.74609 -2.8125,3.51562 0,1.1836 0.69141,1.875 1.5,1.875 0.65625,0 1.21875,-0.51562 1.55859,-0.90234 0.11719,0.70313 0.67969,0.90234 1.04297,0.90234 0.35156,0 0.64453,-0.21093 0.85547,-0.64453 0.1875,-0.41015 0.36328,-1.13672 0.36328,-1.18359 0,-0.0586 -0.0469,-0.10547 -0.11719,-0.10547 -0.11718,0 -0.1289,0.0586 -0.17578,0.23438 -0.17578,0.71484 -0.39843,1.46484 -0.89062,1.46484 -0.35156,0 -0.375,-0.31641 -0.375,-0.55078 0,-0.28125 0.0351,-0.41016 0.14062,-0.87891 0.082,-0.29297 0.15235,-0.5625 0.2461,-0.90234 0.43359,-1.79297 0.55078,-2.22656 0.55078,-2.29688 0,-0.16406 -0.14063,-0.29297 -0.31641,-0.29297 -0.375,0 -0.48047,0.41016 -0.5039,0.55079 z m 0,0"
         style="fill:#000000;fill-opacity:1;fill-rule:nonzero;stroke:none" />
      <path
         id="path48"
         d="m 142.58395,363.49292 h 3.30469 c 0.16406,0 0.375,0 0.375,-0.21094 0,-0.22265 -0.19922,-0.22265 -0.375,-0.22265 h -3.30469 v -3.30469 c 0,-0.16406 0,-0.38672 -0.21093,-0.38672 -0.23438,0 -0.23438,0.21094 -0.23438,0.38672 v 3.30469 h -3.29297 c -0.17578,0 -0.38672,0 -0.38672,0.21094 0,0.22265 0.19922,0.22265 0.38672,0.22265 h 3.29297 v 3.30469 c 0,0.16406 0,0.38672 0.22266,0.38672 0.22265,0 0.22265,-0.21094 0.22265,-0.38672 z m 0,0"
         style="fill:#000000;fill-opacity:1;fill-rule:nonzero;stroke:none" />
      <path
         id="path49"
         d="m 152.33981,358.26636 c 0.0117,-0.0469 0.0352,-0.12891 0.0352,-0.1875 0,-0.11719 -0.12891,-0.11719 -0.15234,-0.11719 -0.0117,0 -0.4336,0.0352 -0.65625,0.0586 -0.19922,0.0117 -0.375,0.0352 -0.59766,0.0469 -0.28125,0.0234 -0.36328,0.0352 -0.36328,0.25781 0,0.11719 0.11719,0.11719 0.23437,0.11719 0.60938,0 0.60938,0.10547 0.60938,0.22266 0,0.082 -0.0937,0.43359 -0.14063,0.64453 l -0.29297,1.14844 c -0.11718,0.48046 -0.79687,3.19921 -0.84375,3.41015 -0.0586,0.29297 -0.0586,0.50391 -0.0586,0.65625 0,1.21875 0.67969,1.85156 1.45313,1.85156 1.39453,0 2.82421,-1.78125 2.82421,-3.51562 0,-1.10156 -0.62109,-1.875 -1.51171,-1.875 -0.63282,0 -1.1836,0.51562 -1.41797,0.75 z m -0.76172,7.875 c -0.375,0 -0.79687,-0.29297 -0.79687,-1.21875 0,-0.39844 0.0352,-0.62109 0.24609,-1.46484 0.0469,-0.15235 0.23438,-0.91407 0.28125,-1.06641 0.0234,-0.10547 0.72657,-1.16016 1.53516,-1.16016 0.52734,0 0.77344,0.51563 0.77344,1.13672 0,0.57422 -0.33985,1.9336 -0.63282,2.55469 -0.30468,0.64453 -0.85546,1.21875 -1.40625,1.21875 z m 0,0"
         style="fill:#000000;fill-opacity:1;fill-rule:nonzero;stroke:none" />
      <path
         id="path50"
         d="m 161.97848,363.49292 h 3.30469 c 0.16406,0 0.375,0 0.375,-0.21094 0,-0.22265 -0.19922,-0.22265 -0.375,-0.22265 h -3.30469 v -3.30469 c 0,-0.16406 0,-0.38672 -0.21093,-0.38672 -0.23438,0 -0.23438,0.21094 -0.23438,0.38672 v 3.30469 h -3.29297 c -0.17578,0 -0.38672,0 -0.38672,0.21094 0,0.22265 0.19922,0.22265 0.38672,0.22265 h 3.29297 v 3.30469 c 0,0.16406 0,0.38672 0.22266,0.38672 0.22265,0 0.22265,-0.21094 0.22265,-0.38672 z m 0,0"
         style="fill:#000000;fill-opacity:1;fill-rule:nonzero;stroke:none" />
      <path
         id="path51"
         d="m 173.6445,361.75855 c -0.23437,0 -0.33984,0 -0.50391,0.15234 -0.0703,0.0586 -0.19921,0.23438 -0.19921,0.42188 0,0.24609 0.17578,0.38671 0.39843,0.38671 0.29297,0 0.60938,-0.23437 0.60938,-0.71484 0,-0.57422 -0.55078,-1.01953 -1.3711,-1.01953 -1.57031,0 -3.1289,1.71094 -3.1289,3.41016 0,1.04296 0.64453,1.98046 1.86328,1.98046 1.62891,0 2.64844,-1.26562 2.64844,-1.41796 0,-0.0703 -0.0703,-0.12891 -0.11719,-0.12891 -0.0352,0 -0.0469,0.0117 -0.15234,0.11719 -0.76172,1.00781 -1.89844,1.19531 -2.35547,1.19531 -0.82032,0 -1.08985,-0.71484 -1.08985,-1.3125 0,-0.42188 0.19922,-1.58203 0.63282,-2.39063 0.3164,-0.5625 0.96093,-1.20703 1.71093,-1.20703 0.15235,0 0.8086,0.0234 1.05469,0.52735 z m 0,0"
         style="fill:#000000;fill-opacity:1;fill-rule:nonzero;stroke:none" />
      <path
         id="path52"
         d="m 181.43454,363.49292 h 3.30469 c 0.16406,0 0.375,0 0.375,-0.21094 0,-0.22265 -0.19922,-0.22265 -0.375,-0.22265 h -3.30469 v -3.30469 c 0,-0.16406 0,-0.38672 -0.21094,-0.38672 -0.23437,0 -0.23437,0.21094 -0.23437,0.38672 v 3.30469 h -3.29297 c -0.17578,0 -0.38672,0 -0.38672,0.21094 0,0.22265 0.19922,0.22265 0.38672,0.22265 h 3.29297 v 3.30469 c 0,0.16406 0,0.38672 0.22265,0.38672 0.22266,0 0.22266,-0.21094 0.22266,-0.38672 z m 0,0"
         style="fill:#000000;fill-opacity:1;fill-rule:nonzero;stroke:none" />
      <path
         id="path53"
         d="m 194.43649,358.26636 c 0.0117,-0.0469 0.0352,-0.12891 0.0352,-0.1875 0,-0.11719 -0.11719,-0.11719 -0.14063,-0.11719 -0.0117,0 -0.59765,0.0469 -0.65625,0.0586 -0.21093,0.0117 -0.38672,0.0352 -0.59765,0.0469 -0.30469,0.0234 -0.38672,0.0352 -0.38672,0.25781 0,0.11719 0.0937,0.11719 0.26953,0.11719 0.58594,0 0.59766,0.10547 0.59766,0.22266 0,0.0703 -0.0234,0.17578 -0.0352,0.21093 l -0.73828,2.89454 c -0.12891,-0.30469 -0.44531,-0.78516 -1.06641,-0.78516 -1.35937,0 -2.8125,1.74609 -2.8125,3.51562 0,1.1836 0.69141,1.875 1.5,1.875 0.65625,0 1.21875,-0.51562 1.5586,-0.90234 0.11718,0.70313 0.67968,0.90234 1.04296,0.90234 0.35157,0 0.64454,-0.21093 0.85547,-0.64453 0.1875,-0.41015 0.36328,-1.13672 0.36328,-1.18359 0,-0.0586 -0.0469,-0.10547 -0.11718,-0.10547 -0.11719,0 -0.12891,0.0586 -0.17578,0.23438 -0.17579,0.71484 -0.39844,1.46484 -0.89063,1.46484 -0.35156,0 -0.375,-0.31641 -0.375,-0.55078 0,-0.0469 0,-0.30469 0.082,-0.63281 z m -2.41406,6.57422 c -0.0586,0.19922 -0.0586,0.22265 -0.22266,0.44531 -0.26953,0.33984 -0.79687,0.85547 -1.35937,0.85547 -0.48047,0 -0.76172,-0.44531 -0.76172,-1.14844 0,-0.65625 0.375,-1.99219 0.59766,-2.49609 0.41015,-0.84375 0.97265,-1.26563 1.4414,-1.26563 0.78516,0 0.9375,0.97266 0.9375,1.06641 0,0.0117 -0.0351,0.17578 -0.0469,0.19922 z m 4.69043,0.84375 c 0,-0.35156 -0.29297,-0.58594 -0.57422,-0.58594 -0.35156,0 -0.58594,0.29297 -0.58594,0.57422 0,0.35156 0.28125,0.58594 0.57422,0.58594 0.33985,0 0.58594,-0.28125 0.58594,-0.57422 z m 0,0"
         style="fill:#000000;fill-opacity:1;fill-rule:nonzero;stroke:none" />
    </g>
  </g>
</svg>
