<?xml version="1.0" encoding="UTF-8" standalone="no"?>
<!-- Created with Inkscape (http://www.inkscape.org/) -->

<svg
   version="1.1"
   id="svg1"
   width="794.55066"
   height="1123.6533"
   viewBox="0 0 794.55066 1123.6533"
   sodipodi:docname="LigaMatematycznaMatuskiego_Klasa7i8_Zestaw5_2019_2020_page0.pdf"
   xmlns:inkscape="http://www.inkscape.org/namespaces/inkscape"
   xmlns:sodipodi="http://sodipodi.sourceforge.net/DTD/sodipodi-0.dtd"
   xmlns="http://www.w3.org/2000/svg"
   xmlns:svg="http://www.w3.org/2000/svg">
  <defs
     id="defs1" />
  <sodipodi:namedview
     id="namedview1"
     pagecolor="#ffffff"
     bordercolor="#000000"
     borderopacity="0.25"
     inkscape:showpageshadow="2"
     inkscape:pageopacity="0.0"
     inkscape:pagecheckerboard="0"
     inkscape:deskcolor="#d1d1d1">
    <inkscape:page
       x="0"
       y="0"
       inkscape:label="1"
       id="page1"
       width="794.55066"
       height="1123.6533"
       margin="0"
       bleed="0" />
  </sodipodi:namedview>
  <g
     id="g1"
     inkscape:groupmode="layer"
     inkscape:label="1">
    <g
       id="g2"
       aria-label="LIGAMATEMATYCZNA&#10;im.ZdzisªawaMatuskiego&#10;PÓFINA28lutego2020&#10;SZKOAPODSTAWOWA&#10;klasyVII-VIII&#10;ZADANIE1.&#10;Dwatysi¡cedwadzie±cialiczbzapisanojednazadrug¡.Drugaznichjestrówna15,aostatnia&#10;46.Wiadomo,»esumaka»dychtrzechkolejnychliczbjestrówna100.Wyznaczpozostaªe2018&#10;liczb.&#10;ZADANIE2.&#10;Kawaªekczworok¡tnegomateriaªuoobwodzie3mprzeci¦towzdªu»jednejprzek¡tnejipowstaªy&#10;dwiechustywksztaªcietrójk¡tówrównoramiennych,pierwszyoobwodzie1,8m,adrugi2,8m.&#10;Liniarozci¦ciastanowipodstaw¦pierwszegotrójk¡ta,adladrugiegotrójk¡tajestramieniem.&#10;Wyznaczwymiaryobuchust.&#10;ZADANIE3.&#10;Danes¡liczbyrzeczywistex,yspeªniaj¡cerównanie"
       transform="matrix(1.3333333,0,0,1.3333333,274.724,56.069333)">
      <path
         id="path2"
         d="m 267.71677,115.69995 c 0,-0.26953 0,-0.28125 -0.2461,-0.28125 -0.28125,0.31641 -0.8789,0.76172 -2.10937,0.76172 v 0.35156 c 0.26953,0 0.86718,0 1.52343,-0.3164 v 6.22265 c 0,0.4336 -0.0351,0.57422 -1.07812,0.57422 h -0.375 v 0.35157 c 0.31641,-0.0234 1.47656,-0.0234 1.875,-0.0234 0.39844,0 1.54687,0 1.86328,0.0234 v -0.35157 h -0.36328 c -1.05469,0 -1.08984,-0.14062 -1.08984,-0.57422 z m 3.94336,0.82032 c 0.5039,0.16406 0.92578,0.17578 1.05468,0.17578 1.35938,0 2.21485,-0.9961 2.21485,-1.16016 0,-0.0469 -0.0234,-0.10547 -0.0937,-0.10547 -0.0234,0 -0.0469,0 -0.15235,0.0469 -0.66797,0.28125 -1.24218,0.3164 -1.55859,0.3164 -0.78516,0 -1.34766,-0.23437 -1.58203,-0.32812 -0.082,-0.0352 -0.10547,-0.0352 -0.11719,-0.0352 -0.0937,0 -0.0937,0.0703 -0.0937,0.25781 v 3.55079 c 0,0.21093 0,0.29296 0.14063,0.29296 0.0586,0 0.0703,-0.0117 0.19921,-0.16406 0.32813,-0.49219 0.89063,-0.77344 1.48829,-0.77344 0.63281,0 0.94921,0.58594 1.04296,0.78516 0.19922,0.46875 0.21094,1.05469 0.21094,1.51172 0,0.45703 0,1.13672 -0.32812,1.67578 -0.26953,0.42188 -0.73828,0.72656 -1.25391,0.72656 -0.79687,0 -1.57031,-0.53906 -1.78125,-1.40625 0.0586,0.0234 0.12891,0.0352 0.1875,0.0352 0.19922,0 0.52734,-0.12891 0.52734,-0.52734 0,-0.33985 -0.23437,-0.52735 -0.52734,-0.52735 -0.21094,0 -0.52734,0.10547 -0.52734,0.57422 0,1.00781 0.80859,2.16797 2.14453,2.16797 1.34765,0 2.53125,-1.125 2.53125,-2.64844 0,-1.41797 -0.96094,-2.60156 -2.21485,-2.60156 -0.67968,0 -1.20703,0.29297 -1.51171,0.63281 z m 0,0"
         style="fill:#000000;fill-opacity:1;fill-rule:nonzero;stroke:none" />
      <path
         id="path3"
         d="m -143.90433,130.02905 c 0,-0.22265 0,-0.29296 -0.16406,-0.29296 -0.0937,0 -0.12891,0 -0.22266,0.15234 l -3.59765,5.57812 v 0.35157 h 3.14062 v 1.07812 c 0,0.44531 -0.0234,0.5625 -0.90234,0.5625 h -0.23438 v 0.35156 c 0.26953,-0.0234 1.21875,-0.0234 1.5586,-0.0234 0.32812,0 1.28906,0 1.55859,0.0234 v -0.35156 h -0.23437 c -0.86719,0 -0.90235,-0.11719 -0.90235,-0.5625 v -1.07812 h 1.20703 v -0.35157 h -1.20703 z m -0.78515,0.9375 v 4.5 h -2.90625 z m 3.79101,2.6836 c 0,-3.02344 1.47656,-3.50391 2.1211,-3.50391 0.43359,0 0.85546,0.12891 1.08984,0.49219 -0.14063,0 -0.59766,0 -0.59766,0.49219 0,0.25781 0.17578,0.49218 0.49219,0.49218 0.29297,0 0.49219,-0.1875 0.49219,-0.52734 0,-0.62109 -0.44531,-1.23047 -1.48828,-1.23047 -1.51172,0 -3.08203,1.53516 -3.08203,4.17188 0,3.28125 1.42968,4.01953 2.44921,4.01953 1.30079,0 2.41407,-1.125 2.41407,-2.6836 0,-1.59375 -1.11328,-2.66015 -2.3086,-2.66015 -1.0664,0 -1.45312,0.92578 -1.58203,1.26562 z m 1.47656,4.08984 c -0.75,0 -1.11328,-0.66797 -1.21875,-0.92578 -0.10546,-0.30469 -0.22265,-0.89062 -0.22265,-1.73437 0,-0.9375 0.42187,-2.1211 1.5,-2.1211 0.65625,0 1.00781,0.44531 1.18359,0.84375 0.1875,0.44531 0.1875,1.04297 0.1875,1.5586 0,0.60937 0,1.14843 -0.22265,1.60546 -0.30469,0.57422 -0.72657,0.77344 -1.20704,0.77344 z m 0,0"
         style="fill:#000000;fill-opacity:1;fill-rule:nonzero;stroke:none" />
      <path
         id="path4"
         d="m 187.70993,130.14624 c 0,-0.26953 0,-0.28125 -0.24609,-0.28125 -0.28125,0.31641 -0.87891,0.76172 -2.10938,0.76172 v 0.35156 c 0.26953,0 0.86719,0 1.52344,-0.3164 v 6.22265 c 0,0.4336 -0.0352,0.57422 -1.07813,0.57422 h -0.375 v 0.35156 c 0.31641,-0.0234 1.47657,-0.0234 1.875,-0.0234 0.39844,0 1.54688,0 1.86328,0.0234 v -0.35156 h -0.36328 c -1.05468,0 -1.08984,-0.14062 -1.08984,-0.57422 z m 7.76367,3.84375 c 0,-0.99609 -0.0586,-1.96875 -0.49219,-2.87109 -0.49218,-0.9961 -1.34765,-1.25391 -1.93359,-1.25391 -0.69141,0 -1.54687,0.33985 -1.98047,1.33594 -0.33984,0.75 -0.45703,1.48828 -0.45703,2.78906 0,1.16016 0.082,2.02735 0.51563,2.8711 0.45703,0.91406 1.28906,1.19531 1.91015,1.19531 1.04297,0 1.64063,-0.6211 1.98047,-1.3125 0.43359,-0.89063 0.45703,-2.0625 0.45703,-2.75391 z m -2.4375,3.83203 c -0.38672,0 -1.16015,-0.21093 -1.38281,-1.52343 -0.14063,-0.71485 -0.14063,-1.61719 -0.14063,-2.46094 0,-0.97266 0,-1.86328 0.19922,-2.56641 0.19922,-0.79687 0.8086,-1.17187 1.32422,-1.17187 0.45703,0 1.14844,0.28125 1.3711,1.30078 0.15234,0.67969 0.15234,1.6289 0.15234,2.4375 0,0.80859 0,1.71094 -0.12891,2.4375 -0.22265,1.32422 -0.97265,1.54687 -1.39453,1.54687 z m 8.29102,-3.83203 c 0,-0.99609 -0.0586,-1.96875 -0.49219,-2.87109 -0.49219,-0.9961 -1.34766,-1.25391 -1.93359,-1.25391 -0.69141,0 -1.54688,0.33985 -1.98047,1.33594 -0.33985,0.75 -0.45703,1.48828 -0.45703,2.78906 0,1.16016 0.082,2.02735 0.51562,2.8711 0.45703,0.91406 1.28906,1.19531 1.91016,1.19531 1.04297,0 1.64062,-0.6211 1.98047,-1.3125 0.43359,-0.89063 0.45703,-2.0625 0.45703,-2.75391 z m -2.4375,3.83203 c -0.38672,0 -1.16016,-0.21093 -1.38282,-1.52343 -0.14062,-0.71485 -0.14062,-1.61719 -0.14062,-2.46094 0,-0.97266 0,-1.86328 0.19922,-2.56641 0.19922,-0.79687 0.80859,-1.17187 1.32422,-1.17187 0.45703,0 1.14843,0.28125 1.37109,1.30078 0.15234,0.67969 0.15234,1.6289 0.15234,2.4375 0,0.80859 0,1.71094 -0.1289,2.4375 -0.22266,1.32422 -0.97266,1.54687 -1.39453,1.54687 z m 0,0"
         style="fill:#000000;fill-opacity:1;fill-rule:nonzero;stroke:none" />
      <path
         id="path5"
         d="m 315.52341,135.8064 h -0.26953 c -0.0352,0.19922 -0.12891,0.85547 -0.2461,1.04297 -0.082,0.11718 -0.76172,0.11718 -1.125,0.11718 h -2.21484 c 0.32812,-0.28125 1.05469,-1.04296 1.37109,-1.33593 1.81641,-1.66407 2.48438,-2.28516 2.48438,-3.46875 0,-1.38282 -1.08985,-2.29688 -2.47266,-2.29688 -1.39453,0 -2.20312,1.1836 -2.20312,2.20313 0,0.60937 0.52734,0.60937 0.5625,0.60937 0.24609,0 0.5625,-0.17578 0.5625,-0.5625 0,-0.32812 -0.23438,-0.55078 -0.5625,-0.55078 -0.10547,0 -0.12891,0 -0.16407,0.0117 0.22266,-0.82031 0.86719,-1.37109 1.64063,-1.37109 1.01953,0 1.64062,0.85546 1.64062,1.95703 0,1.00781 -0.58593,1.89843 -1.26562,2.66015 l -2.41406,2.70703 v 0.28125 h 4.35937 z m 5.94726,-1.81641 c 0,-0.99609 -0.0586,-1.96875 -0.49219,-2.87109 -0.49218,-0.9961 -1.34765,-1.25391 -1.93359,-1.25391 -0.69141,0 -1.54687,0.33985 -1.98047,1.33594 -0.33984,0.75 -0.45703,1.48828 -0.45703,2.78906 0,1.16016 0.082,2.02735 0.51563,2.8711 0.45703,0.91406 1.28906,1.19531 1.91015,1.19531 1.04297,0 1.64063,-0.6211 1.98047,-1.3125 0.43359,-0.89063 0.45703,-2.0625 0.45703,-2.75391 z m -2.4375,3.83203 c -0.38672,0 -1.16015,-0.21093 -1.38281,-1.52343 -0.14063,-0.71485 -0.14063,-1.61719 -0.14063,-2.46094 0,-0.97266 0,-1.86328 0.19922,-2.56641 0.19922,-0.79687 0.8086,-1.17187 1.32422,-1.17187 0.45703,0 1.14844,0.28125 1.3711,1.30078 0.15234,0.67969 0.15234,1.6289 0.15234,2.4375 0,0.80859 0,1.71094 -0.12891,2.4375 -0.22265,1.32422 -0.97265,1.54687 -1.39453,1.54687 z m 6.38086,-7.67578 c 0,-0.26953 0,-0.28125 -0.24609,-0.28125 -0.28125,0.31641 -0.87891,0.76172 -2.10938,0.76172 v 0.35156 c 0.26953,0 0.86719,0 1.52344,-0.3164 v 6.22265 c 0,0.4336 -0.0352,0.57422 -1.07812,0.57422 h -0.375 v 0.35156 c 0.3164,-0.0234 1.47656,-0.0234 1.875,-0.0234 0.39843,0 1.54687,0 1.86328,0.0234 v -0.35156 h -0.36328 c -1.05469,0 -1.08985,-0.14062 -1.08985,-0.57422 z m 5.9707,3.35156 c 0.59766,-0.32812 1.46485,-0.8789 1.46485,-1.875 0,-1.04296 -0.9961,-1.75781 -2.09766,-1.75781 -1.18359,0 -2.12109,0.86719 -2.12109,1.95703 0,0.41016 0.1289,0.8086 0.45703,1.21875 0.12891,0.15235 0.14062,0.16407 0.98437,0.75 -1.16015,0.53907 -1.75781,1.34766 -1.75781,2.21485 0,1.26562 1.20703,2.05078 2.42578,2.05078 1.32422,0 2.4375,-0.97266 2.4375,-2.22656 0,-1.21875 -0.85547,-1.75782 -1.79297,-2.33204 z m -1.6289,-1.07812 c -0.15235,-0.10547 -0.63281,-0.42188 -0.63281,-1.00781 0,-0.77344 0.82031,-1.26563 1.61718,-1.26563 0.85547,0 1.62891,0.6211 1.62891,1.48828 0,0.72657 -0.52734,1.3125 -1.21875,1.6875 z m 0.5625,1.54687 1.45312,0.9375 c 0.30469,0.19922 0.85547,0.57422 0.85547,1.30079 0,0.91406 -0.91406,1.53515 -1.875,1.53515 -1.01953,0 -1.88672,-0.73828 -1.88672,-1.73437 0,-0.9375 0.67969,-1.6875 1.45313,-2.03907 z m 0,0"
         style="fill:#000000;fill-opacity:1;fill-rule:nonzero;stroke:none" />
      <path
         id="path6"
         d="m 87.453094,191.03101 c -0.210938,0.0117 -0.257813,0.0234 -0.257813,0.1289 0,0.11719 0.05859,0.11719 0.28125,0.11719 h 0.550782 c 1.007812,0 1.464843,0.84375 1.464843,1.99219 0,1.55859 -0.808593,1.98047 -1.394531,1.98047 -0.574219,0 -1.558594,-0.28125 -1.898437,-1.06641 0.375,0.0586 0.726562,-0.15234 0.726562,-0.58594 0,-0.33984 -0.257812,-0.58593 -0.585937,-0.58593 -0.292969,0 -0.597657,0.16406 -0.597657,0.62109 0,1.06641 1.066407,1.93359 2.390625,1.93359 1.417969,0 2.472657,-1.07812 2.472657,-2.28515 0,-1.10156 -0.890625,-1.96875 -2.027344,-2.16797 1.03125,-0.30469 1.699219,-1.17188 1.699219,-2.10938 0,-0.9375 -0.972657,-1.6289 -2.132813,-1.6289 -1.195312,0 -2.085937,0.72656 -2.085937,1.59375 0,0.48047 0.375,0.57422 0.550781,0.57422 0.257812,0 0.539062,-0.17578 0.539062,-0.53907 0,-0.375 -0.28125,-0.53906 -0.550781,-0.53906 -0.07031,0 -0.09375,0 -0.128906,0.0117 0.457031,-0.82031 1.582031,-0.82031 1.640625,-0.82031 0.386719,0 1.171875,0.17578 1.171875,1.34765 0,0.23438 -0.03516,0.90235 -0.386719,1.41797 -0.351562,0.52735 -0.761719,0.5625 -1.089844,0.57422 z m 0,0"
         style="fill:#000000;fill-opacity:1;fill-rule:nonzero;stroke:none" />
      <path
         id="path7"
         d="m 229.40231,202.1023 c 0,-0.26953 0,-0.28125 -0.24609,-0.28125 -0.28125,0.3164 -0.87891,0.76172 -2.10938,0.76172 v 0.35156 c 0.26954,0 0.86719,0 1.52344,-0.31641 v 6.22266 c 0,0.43359 -0.0351,0.57422 -1.07812,0.57422 h -0.375 v 0.35156 c 0.3164,-0.0234 1.47656,-0.0234 1.875,-0.0234 0.39843,0 1.54687,0 1.86328,0.0234 v -0.35156 h -0.36328 c -1.05469,0 -1.08985,-0.14063 -1.08985,-0.57422 z m 0,0"
         style="fill:#000000;fill-opacity:1;fill-rule:nonzero;stroke:none" />
      <path
         id="path8"
         d="m 234.14255,209.81323 c 0,-0.6914 -0.22266,-1.20703 -0.71485,-1.20703 -0.38672,0 -0.57422,0.31641 -0.57422,0.57422 0,0.25781 0.17579,0.58594 0.58594,0.58594 0.15235,0 0.28125,-0.0469 0.38672,-0.15234 0.0234,-0.0234 0.0352,-0.0234 0.0469,-0.0234 0.0352,0 0.0352,0.16406 0.0352,0.22265 0,0.39844 -0.082,1.17188 -0.77344,1.94532 -0.1289,0.15234 -0.1289,0.17578 -0.1289,0.19922 0,0.0586 0.0586,0.11718 0.11719,0.11718 0.0937,0 1.01953,-0.89062 1.01953,-2.26172 z m 0,0"
         style="fill:#000000;fill-opacity:1;fill-rule:nonzero;stroke:none" />
      <path
         id="path9"
         d="m 240.61716,205.45386 c 0.59765,-0.32813 1.46484,-0.87891 1.46484,-1.875 0,-1.04297 -0.99609,-1.75781 -2.09766,-1.75781 -1.18359,0 -2.12109,0.86718 -2.12109,1.95703 0,0.41015 0.12891,0.80859 0.45703,1.21875 0.12891,0.15234 0.14063,0.16406 0.98438,0.75 -1.16016,0.53906 -1.75782,1.34765 -1.75782,2.21484 0,1.26563 1.20704,2.05078 2.42579,2.05078 1.32421,0 2.4375,-0.97265 2.4375,-2.22656 0,-1.21875 -0.85547,-1.75781 -1.79297,-2.33203 z m -1.62891,-1.07813 c -0.15234,-0.10546 -0.63281,-0.42187 -0.63281,-1.00781 0,-0.77344 0.82031,-1.26562 1.61719,-1.26562 0.85546,0 1.6289,0.62109 1.6289,1.48828 0,0.72656 -0.52734,1.3125 -1.21875,1.6875 z m 0.5625,1.54688 1.45313,0.9375 c 0.30468,0.19922 0.85546,0.57422 0.85546,1.30078 0,0.91406 -0.91406,1.53516 -1.875,1.53516 -1.01953,0 -1.88671,-0.73828 -1.88671,-1.73438 0,-0.9375 0.67968,-1.6875 1.45312,-2.03906 z m 0,0"
         style="fill:#000000;fill-opacity:1;fill-rule:nonzero;stroke:none" />
      <path
         id="path10"
         d="m 305.95798,207.76245 h -0.26953 c -0.0352,0.19922 -0.12891,0.85547 -0.2461,1.04297 -0.082,0.11719 -0.76172,0.11719 -1.125,0.11719 h -2.21484 c 0.32812,-0.28125 1.05469,-1.04297 1.37109,-1.33594 1.81641,-1.66406 2.48438,-2.28515 2.48438,-3.46875 0,-1.38281 -1.08985,-2.29687 -2.47266,-2.29687 -1.39453,0 -2.20312,1.18359 -2.20312,2.20312 0,0.60938 0.52734,0.60938 0.5625,0.60938 0.24609,0 0.5625,-0.17578 0.5625,-0.5625 0,-0.32813 -0.23438,-0.55078 -0.5625,-0.55078 -0.10547,0 -0.12891,0 -0.16407,0.0117 0.22266,-0.82031 0.86719,-1.37109 1.64063,-1.37109 1.01953,0 1.64062,0.85547 1.64062,1.95703 0,1.00781 -0.58593,1.89844 -1.26562,2.66016 l -2.41406,2.70703 v 0.28125 h 4.35937 z m 0,0"
         style="fill:#000000;fill-opacity:1;fill-rule:nonzero;stroke:none" />
      <path
         id="path11"
         d="m 308.87888,209.81323 c 0,-0.6914 -0.22266,-1.20703 -0.71485,-1.20703 -0.38672,0 -0.57422,0.31641 -0.57422,0.57422 0,0.25781 0.17578,0.58594 0.58594,0.58594 0.15234,0 0.28125,-0.0469 0.38672,-0.15234 0.0234,-0.0234 0.0352,-0.0234 0.0469,-0.0234 0.0352,0 0.0352,0.16406 0.0352,0.22265 0,0.39844 -0.082,1.17188 -0.77344,1.94532 -0.1289,0.15234 -0.1289,0.17578 -0.1289,0.19922 0,0.0586 0.0586,0.11718 0.11718,0.11718 0.0937,0 1.01954,-0.89062 1.01954,-2.26172 z m 0,0"
         style="fill:#000000;fill-opacity:1;fill-rule:nonzero;stroke:none" />
      <path
         id="path12"
         d="m 315.35348,205.45386 c 0.59766,-0.32813 1.46485,-0.87891 1.46485,-1.875 0,-1.04297 -0.9961,-1.75781 -2.09766,-1.75781 -1.18359,0 -2.12109,0.86718 -2.12109,1.95703 0,0.41015 0.1289,0.80859 0.45703,1.21875 0.12891,0.15234 0.14062,0.16406 0.98437,0.75 -1.16015,0.53906 -1.75781,1.34765 -1.75781,2.21484 0,1.26563 1.20703,2.05078 2.42578,2.05078 1.32422,0 2.4375,-0.97265 2.4375,-2.22656 0,-1.21875 -0.85547,-1.75781 -1.79297,-2.33203 z m -1.6289,-1.07813 c -0.15235,-0.10546 -0.63281,-0.42187 -0.63281,-1.00781 0,-0.77344 0.82031,-1.26562 1.61718,-1.26562 0.85547,0 1.62891,0.62109 1.62891,1.48828 0,0.72656 -0.52734,1.3125 -1.21875,1.6875 z m 0.5625,1.54688 1.45312,0.9375 c 0.30469,0.19922 0.85547,0.57422 0.85547,1.30078 0,0.91406 -0.91406,1.53516 -1.875,1.53516 -1.01953,0 -1.88672,-0.73828 -1.88672,-1.73438 0,-0.9375 0.67969,-1.6875 1.45313,-2.03906 z m 0,0"
         style="fill:#000000;fill-opacity:1;fill-rule:nonzero;stroke:none" />
      <path
         id="path13"
         d="m -3.1269844,276.84741 c -0.375,0.0703 -0.515625,0.35157 -0.515625,0.58594 0,0.28125 0.2226563,0.375 0.3867188,0.375 0.3632812,0 0.609375,-0.30469 0.609375,-0.63281 0,-0.49219 -0.5742188,-0.72656 -1.078125,-0.72656 -0.7265625,0 -1.125,0.71484 -1.2421875,0.94922 -0.2695313,-0.90235 -1.0078125,-0.94922 -1.2304688,-0.94922 -1.21875,0 -1.8632812,1.57031 -1.8632812,1.82812 0,0.0469 0.046875,0.10547 0.1289062,0.10547 0.1054688,0 0.1289063,-0.0703 0.1523438,-0.11719 0.3984375,-1.32422 1.2070312,-1.57031 1.546875,-1.57031 0.5390625,0 0.6445312,0.49219 0.6445312,0.78516 0,0.25781 -0.070312,0.53906 -0.2109375,1.11328 l -0.4101562,1.6289 c -0.1757813,0.72657 -0.5273438,1.38282 -1.1601563,1.38282 -0.058594,0 -0.3515625,0 -0.609375,-0.15235 0.4335938,-0.0937 0.5273438,-0.44531 0.5273438,-0.58593 0,-0.2461 -0.1757813,-0.38672 -0.3984375,-0.38672 -0.2929688,0 -0.5976563,0.24609 -0.5976563,0.63281 0,0.50391 0.5625,0.72656 1.0664063,0.72656 0.5742187,0 0.984375,-0.45703 1.2304687,-0.9375 0.1992188,0.70313 0.796875,0.9375 1.2304688,0.9375 1.2304687,0 1.875,-1.55859 1.875,-1.82812 0,-0.0586 -0.046875,-0.10547 -0.1289063,-0.10547 -0.1054687,0 -0.1171875,0.0586 -0.1523437,0.15234 -0.3164063,1.05469 -1.0195313,1.54688 -1.546875,1.54688 -0.421875,0 -0.65625,-0.31641 -0.65625,-0.8086 0,-0.25781 0.058594,-0.44531 0.2460937,-1.24218 l 0.421875,-1.61719 c 0.1757813,-0.72656 0.5859375,-1.24219 1.125,-1.24219 0.035156,0 0.3632813,0 0.609375,0.15234 z m 0,0"
         style="fill:#000000;fill-opacity:1;fill-rule:nonzero;stroke:none" />
      <path
         id="path14"
         d="m 8.1581719,283.05835 c -0.3164063,0.45703 -0.7851563,0.86719 -1.3710938,0.86719 -0.140625,0 -0.7148437,-0.0234 -0.9023437,-0.57422 0.046875,0.0117 0.1054687,0.0117 0.1289062,0.0117 0.3515625,0 0.5976563,-0.31641 0.5976563,-0.58594 0,-0.28125 -0.234375,-0.375 -0.4101563,-0.375 -0.1875,0 -0.609375,0.14063 -0.609375,0.72656 0,0.60938 0.515625,1.03125 1.1953125,1.03125 1.1953125,0 2.4023438,-1.10156 2.7421875,-2.42578 l 1.1718754,-4.66406 c 0.01172,-0.0586 0.03516,-0.12891 0.03516,-0.19922 0,-0.17578 -0.152344,-0.30469 -0.328125,-0.30469 -0.105469,0 -0.363281,0.0469 -0.4570314,0.41016 l -0.8789062,3.51563 c -0.058594,0.21093 -0.058594,0.23437 -0.1523438,0.375 -0.2460937,0.32812 -0.6445312,0.73828 -1.2070312,0.73828 -0.6796875,0 -0.7382813,-0.65625 -0.7382813,-0.98438 0,-0.67969 0.328125,-1.60547 0.6445313,-2.46094 0.140625,-0.35156 0.2109375,-0.51562 0.2109375,-0.75 0,-0.5039 -0.3632813,-0.96093 -0.9492188,-0.96093 -1.1015625,0 -1.5351562,1.73437 -1.5351562,1.82812 0,0.0469 0.046875,0.10547 0.1289062,0.10547 0.1054688,0 0.1171875,-0.0469 0.1640625,-0.21094 0.2929688,-1.00781 0.7382813,-1.47656 1.2070313,-1.47656 0.1054687,0 0.3164062,0 0.3164062,0.38672 0,0.31641 -0.140625,0.65625 -0.3164062,1.11328 -0.5859375,1.57031 -0.5859375,1.95703 -0.5859375,2.25 0,1.13672 0.8085937,1.39453 1.40625,1.39453 0.3515625,0 0.7851562,-0.10547 1.1953125,-0.55078 l 0.011719,0.0117 c -0.1757812,0.70312 -0.2929687,1.17187 -0.7148437,1.75781 z m 0,0"
         style="fill:#000000;fill-opacity:1;fill-rule:nonzero;stroke:none" />
    </g>
    <g
       id="g14"
       aria-label="(x−y)&#10;2&#10;+(x+y−4)&#10;2&#10;=0.&#10;Oblicziloczyntychliczb.&#10;ZADANIE4.&#10;Nastolele»y2020kapsli.WjednymruchuBartekmo»ezdj¡¢dokªadnie3,24lub51kapsli.&#10;Wolnomuwykona¢wieletakichruchów.Czywpewnejchwiliwszystkiekapslezostan¡zdj¦te&#10;zestoªu?&#10;ZADANIE5.&#10;Trzyliczbynaturalnedwucyfroweustawionewkolejno±cimalej¡cejstanowi¡szyfrdosejfu.&#10;Iloczynpewnychdwóchspo±ródnichjestrówny888,ailoczyninnychdwóchjestrówny999.&#10;Znajd¹szyfrdosejfu."
       transform="matrix(1.3333333,0,0,1.3333333,303.68667,464.244)">
      <path
         id="path15"
         d="m 3.89125,2.9048906 c 0,-0.035156 0,-0.058594 -0.2109375,-0.2695312 C 2.485,1.4283281 1.8170312,-0.54042188 1.8170312,-2.9779219 c 0,-2.3203125 0.5625,-4.3125 1.9453125,-5.7304687 C 3.89125,-8.8138594 3.89125,-8.8372969 3.89125,-8.8724531 c 0,-0.070312 -0.070312,-0.09375 -0.1171875,-0.09375 -0.1523438,0 -1.1367188,0.8554687 -1.7226563,2.0273437 C 1.4420312,-5.7318281 1.1725,-4.4427656 1.1725,-2.9779219 c 0,1.0664063 0.1640625,2.48437502 0.7851562,3.76171877 0.703125,1.44140623 1.6875,2.21484373 1.8164063,2.21484373 0.046875,0 0.1171875,-0.023437 0.1171875,-0.09375 z m 0,0"
         style="fill:#000000;fill-opacity:1;fill-rule:nonzero;stroke:none" />
      <path
         id="path16"
         d="m 10.213516,-4.8763594 c -0.3750004,0.070312 -0.5156254,0.3515625 -0.5156254,0.5859375 0,0.28125 0.2226563,0.375 0.3867184,0.375 0.363282,0 0.609375,-0.3046875 0.609375,-0.6328125 0,-0.4921875 -0.574218,-0.7265625 -1.0781246,-0.7265625 -0.7265625,0 -1.125,0.7148438 -1.2421875,0.9492188 -0.2695313,-0.9023438 -1.0078125,-0.9492188 -1.2304688,-0.9492188 -1.21875,0 -1.8632812,1.5703125 -1.8632812,1.828125 0,0.046875 0.046875,0.1054688 0.1289062,0.1054688 0.1054688,0 0.1289063,-0.070312 0.1523438,-0.1171875 0.3984375,-1.3242188 1.2070312,-1.5703125 1.546875,-1.5703125 0.5390625,0 0.6445312,0.4921875 0.6445312,0.7851562 0,0.2578125 -0.070312,0.5390625 -0.2109375,1.1132813 l -0.4101562,1.6289062 c -0.1757813,0.72656252 -0.5273438,1.38281252 -1.1601563,1.38281252 -0.058594,0 -0.3515625,0 -0.609375,-0.15234375 0.4335938,-0.09375 0.5273438,-0.4453125 0.5273438,-0.5859375 0,-0.24609377 -0.1757813,-0.38671877 -0.3984375,-0.38671877 -0.2929688,0 -0.5976563,0.24609377 -0.5976563,0.63281252 0,0.50390625 0.5625,0.7265625 1.0664063,0.7265625 0.5742187,0 0.984375,-0.45703125 1.2304687,-0.9375 0.1992188,0.703125 0.796875,0.9375 1.2304688,0.9375 1.2304687,0 1.8750001,-1.55859372 1.8750001,-1.82812502 0,-0.058594 -0.04687,-0.1054687 -0.128906,-0.1054687 -0.105469,0 -0.117188,0.058594 -0.152344,0.1523437 -0.3164064,1.05468752 -1.0195314,1.54687502 -1.5468751,1.54687502 -0.421875,0 -0.65625,-0.31640625 -0.65625,-0.80859375 0,-0.25781247 0.058594,-0.44531247 0.2460937,-1.24218747 l 0.421875,-1.6171875 c 0.1757813,-0.7265625 0.5859375,-1.2421875 1.125,-1.2421875 0.035156,0 0.3632813,0 0.6093754,0.1523437 z m 0,0"
         style="fill:#000000;fill-opacity:1;fill-rule:nonzero;stroke:none" />
      <path
         id="path17"
         d="m 21.735977,-2.7552656 c 0.210937,0 0.421875,0 0.421875,-0.234375 0,-0.234375 -0.210938,-0.234375 -0.421875,-0.234375 h -6.46875 c -0.199219,0 -0.410157,0 -0.410157,0.234375 0,0.234375 0.210938,0.234375 0.410157,0.234375 z m 0,0"
         style="fill:#000000;fill-opacity:1;fill-rule:nonzero;stroke:none" />
      <path
         id="path18"
         d="M 28.957656,1.3345781 C 28.64125,1.7916094 28.1725,2.2017656 27.586562,2.2017656 c -0.140625,0 -0.714843,-0.023437 -0.902343,-0.5742187 0.04687,0.011719 0.105468,0.011719 0.128906,0.011719 0.351562,0 0.597656,-0.3164062 0.597656,-0.5859375 0,-0.28124998 -0.234375,-0.37499998 -0.410156,-0.37499998 -0.1875,0 -0.609375,0.140625 -0.609375,0.72656248 0,0.609375 0.515625,1.03125 1.195312,1.03125 1.195313,0 2.402344,-1.1015625 2.742188,-2.42578123 l 1.171875,-4.66406247 c 0.01172,-0.058594 0.03516,-0.1289063 0.03516,-0.1992188 0,-0.1757812 -0.152344,-0.3046875 -0.328125,-0.3046875 -0.105469,0 -0.363281,0.046875 -0.457031,0.4101563 l -0.878906,3.515625 c -0.05859,0.2109375 -0.05859,0.23437497 -0.152344,0.37499997 -0.246094,0.328125 -0.644531,0.73828125 -1.207031,0.73828125 -0.679688,0 -0.738282,-0.65625 -0.738282,-0.98437502 0,-0.6796875 0.328125,-1.6054687 0.644532,-2.4609375 0.140625,-0.3515625 0.210937,-0.515625 0.210937,-0.75 0,-0.5039062 -0.363281,-0.9609375 -0.949219,-0.9609375 -1.101562,0 -1.535156,1.734375 -1.535156,1.828125 0,0.046875 0.04687,0.1054688 0.128906,0.1054688 0.105469,0 0.117188,-0.046875 0.164063,-0.2109375 0.292969,-1.0078125 0.738281,-1.4765625 1.207031,-1.4765625 0.105469,0 0.316406,0 0.316406,0.3867187 0,0.3164063 -0.140625,0.65625 -0.316406,1.1132813 -0.585937,1.5703125 -0.585937,1.9570312 -0.585937,2.25 0,1.13671872 0.808593,1.39453122 1.40625,1.39453122 0.351562,0 0.785156,-0.10546875 1.195312,-0.55078125 l 0.01172,0.0117188 c -0.175781,0.703125 -0.292969,1.171875 -0.714844,1.75781253 z m 0,0"
         style="fill:#000000;fill-opacity:1;fill-rule:nonzero;stroke:none" />
      <path
         id="path19"
         d="m 35.326797,-2.9779219 c 0,-0.9140625 -0.128906,-2.390625 -0.796875,-3.7734375 -0.703125,-1.4414062 -1.675781,-2.2148437 -1.816406,-2.2148437 -0.04687,0 -0.105469,0.023437 -0.105469,0.09375 0,0.035156 0,0.058594 0.199219,0.2695312 1.195312,1.2070313 1.875,3.1757813 1.875,5.6132813 0,2.32031247 -0.5625,4.3125 -1.957032,5.7304687 -0.117187,0.1054688 -0.117187,0.1289063 -0.117187,0.1640625 0,0.070312 0.05859,0.09375 0.105469,0.09375 0.164062,0 1.136718,-0.8554687 1.722656,-2.02734373 0.609375,-1.21875 0.890625,-2.51953127 0.890625,-3.94921877 z m 0,0"
         style="fill:#000000;fill-opacity:1;fill-rule:nonzero;stroke:none" />
      <path
         id="path20"
         d="m 38.754531,-5.9662031 c 0.128906,-0.1171875 0.457031,-0.375 0.585938,-0.4921875 0.492187,-0.4570313 0.960937,-0.890625 0.960937,-1.6171875 0,-0.9492188 -0.796875,-1.5585938 -1.792969,-1.5585938 -0.949218,0 -1.582031,0.7265625 -1.582031,1.4296875 0,0.3984375 0.316406,0.4453125 0.421875,0.4453125 0.164063,0 0.410156,-0.1171875 0.410156,-0.421875 0,-0.4101562 -0.398437,-0.4101562 -0.492187,-0.4101562 0.234375,-0.5859375 0.773437,-0.7851563 1.160156,-0.7851563 0.738281,0 1.125,0.6328125 1.125,1.3007813 0,0.8320312 -0.585937,1.4296875 -1.523437,2.4023437 l -1.007813,1.03125 c -0.09375,0.09375 -0.09375,0.1054688 -0.09375,0.3046875 h 3.152344 l 0.222656,-1.4296875 h -0.246094 c -0.02344,0.1640625 -0.08203,0.5625 -0.175781,0.7148438 -0.04687,0.058594 -0.65625,0.058594 -0.785156,0.058594 h -1.417969 z m 0,0"
         style="fill:#000000;fill-opacity:1;fill-rule:nonzero;stroke:none" />
      <path
         id="path21"
         d="m 48.662734,-2.7669844 h 3.304688 c 0.164062,0 0.375,0 0.375,-0.2109375 0,-0.2226562 -0.199219,-0.2226562 -0.375,-0.2226562 h -3.304688 v -3.3046875 c 0,-0.1640625 0,-0.3867188 -0.210937,-0.3867188 -0.234375,0 -0.234375,0.2109375 -0.234375,0.3867188 v 3.3046875 h -3.292969 c -0.175781,0 -0.386719,0 -0.386719,0.2109375 0,0.2226562 0.199219,0.2226562 0.386719,0.2226562 h 3.292969 v 3.30468752 c 0,0.1640625 0,0.38671875 0.222656,0.38671875 0.222656,0 0.222656,-0.2109375 0.222656,-0.38671875 z m 10.88086,5.671875 c 0,-0.035156 0,-0.058594 -0.210938,-0.2695312 -1.195312,-1.2070313 -1.863281,-3.17578128 -1.863281,-5.6132813 0,-2.3203125 0.5625,-4.3125 1.945312,-5.7304687 0.128907,-0.1054688 0.128907,-0.1289063 0.128907,-0.1640625 0,-0.070312 -0.07031,-0.09375 -0.117188,-0.09375 -0.152344,0 -1.136719,0.8554687 -1.722656,2.0273437 -0.609375,1.2070313 -0.878906,2.4960938 -0.878906,3.9609375 0,1.0664063 0.164062,2.48437502 0.785156,3.76171877 0.703125,1.44140623 1.6875,2.21484373 1.816406,2.21484373 0.04687,0 0.117188,-0.023437 0.117188,-0.09375 z m 0,0"
         style="fill:#000000;fill-opacity:1;fill-rule:nonzero;stroke:none" />
      <path
         id="path22"
         d="m 65.868789,-4.8763594 c -0.375,0.070312 -0.515625,0.3515625 -0.515625,0.5859375 0,0.28125 0.222656,0.375 0.386719,0.375 0.363281,0 0.609375,-0.3046875 0.609375,-0.6328125 0,-0.4921875 -0.574219,-0.7265625 -1.078125,-0.7265625 -0.726563,0 -1.125,0.7148438 -1.242188,0.9492188 -0.269531,-0.9023438 -1.007812,-0.9492188 -1.230468,-0.9492188 -1.21875,0 -1.863282,1.5703125 -1.863282,1.828125 0,0.046875 0.04687,0.1054688 0.128907,0.1054688 0.105468,0 0.128906,-0.070312 0.152343,-0.1171875 0.398438,-1.3242188 1.207032,-1.5703125 1.546875,-1.5703125 0.539063,0 0.644532,0.4921875 0.644532,0.7851562 0,0.2578125 -0.07031,0.5390625 -0.210938,1.1132813 l -0.410156,1.6289062 c -0.175781,0.72656252 -0.527344,1.38281252 -1.160156,1.38281252 -0.05859,0 -0.351563,0 -0.609375,-0.15234375 0.433593,-0.09375 0.527343,-0.4453125 0.527343,-0.5859375 0,-0.24609377 -0.175781,-0.38671877 -0.398437,-0.38671877 -0.292969,0 -0.597656,0.24609377 -0.597656,0.63281252 0,0.50390625 0.5625,0.7265625 1.066406,0.7265625 0.574219,0 0.984375,-0.45703125 1.230469,-0.9375 0.199218,0.703125 0.796875,0.9375 1.230468,0.9375 1.230469,0 1.875,-1.55859372 1.875,-1.82812502 0,-0.058594 -0.04687,-0.1054687 -0.128906,-0.1054687 -0.105469,0 -0.117187,0.058594 -0.152344,0.1523437 -0.316406,1.05468752 -1.019531,1.54687502 -1.546875,1.54687502 -0.421875,0 -0.65625,-0.31640625 -0.65625,-0.80859375 0,-0.25781247 0.05859,-0.44531247 0.246094,-1.24218747 l 0.421875,-1.6171875 c 0.175781,-0.7265625 0.585938,-1.2421875 1.125,-1.2421875 0.03516,0 0.363281,0 0.609375,0.1523437 z m 0,0"
         style="fill:#000000;fill-opacity:1;fill-rule:nonzero;stroke:none" />
      <path
         id="path23"
         d="m 74.285781,-2.7669844 h 3.304688 c 0.164062,0 0.375,0 0.375,-0.2109375 0,-0.2226562 -0.199219,-0.2226562 -0.375,-0.2226562 h -3.304688 v -3.3046875 c 0,-0.1640625 0,-0.3867188 -0.210937,-0.3867188 -0.234375,0 -0.234375,0.2109375 -0.234375,0.3867188 v 3.3046875 H 70.5475 c -0.175781,0 -0.386719,0 -0.386719,0.2109375 0,0.2226562 0.199219,0.2226562 0.386719,0.2226562 h 3.292969 v 3.30468752 c 0,0.1640625 0,0.38671875 0.222656,0.38671875 0.222656,0 0.222656,-0.2109375 0.222656,-0.38671875 z m 0,0"
         style="fill:#000000;fill-opacity:1;fill-rule:nonzero;stroke:none" />
      <path
         id="path24"
         d="m 84.41957,1.3345781 c -0.316406,0.4570313 -0.785156,0.8671875 -1.371093,0.8671875 -0.140625,0 -0.714844,-0.023437 -0.902344,-0.5742187 0.04687,0.011719 0.105469,0.011719 0.128906,0.011719 0.351563,0 0.597656,-0.3164062 0.597656,-0.5859375 0,-0.28124998 -0.234375,-0.37499998 -0.410156,-0.37499998 -0.1875,0 -0.609375,0.140625 -0.609375,0.72656248 0,0.609375 0.515625,1.03125 1.195313,1.03125 1.195312,0 2.402343,-1.1015625 2.742187,-2.42578123 l 1.171875,-4.66406247 c 0.01172,-0.058594 0.03516,-0.1289063 0.03516,-0.1992188 0,-0.1757812 -0.152343,-0.3046875 -0.328125,-0.3046875 -0.105468,0 -0.363281,0.046875 -0.457031,0.4101563 l -0.878906,3.515625 c -0.05859,0.2109375 -0.05859,0.23437497 -0.152344,0.37499997 -0.246094,0.328125 -0.644531,0.73828125 -1.207031,0.73828125 -0.679688,0 -0.738281,-0.65625 -0.738281,-0.98437502 0,-0.6796875 0.328125,-1.6054687 0.644531,-2.4609375 0.140625,-0.3515625 0.210937,-0.515625 0.210937,-0.75 0,-0.5039062 -0.363281,-0.9609375 -0.949218,-0.9609375 -1.101563,0 -1.535157,1.734375 -1.535157,1.828125 0,0.046875 0.04687,0.1054688 0.128907,0.1054688 0.105468,0 0.117187,-0.046875 0.164062,-0.2109375 0.292969,-1.0078125 0.738281,-1.4765625 1.207031,-1.4765625 0.105469,0 0.316407,0 0.316407,0.3867187 0,0.3164063 -0.140625,0.65625 -0.316407,1.1132813 -0.585937,1.5703125 -0.585937,1.9570312 -0.585937,2.25 0,1.13671872 0.808594,1.39453122 1.40625,1.39453122 0.351562,0 0.785156,-0.10546875 1.195312,-0.55078125 l 0.01172,0.0117188 c -0.175781,0.703125 -0.292969,1.171875 -0.714844,1.75781253 z m 0,0"
         style="fill:#000000;fill-opacity:1;fill-rule:nonzero;stroke:none" />
      <path
         id="path25"
         d="m 97.945937,-2.7552656 c 0.210938,0 0.421875,0 0.421875,-0.234375 0,-0.234375 -0.210937,-0.234375 -0.421875,-0.234375 h -6.46875 c -0.199218,0 -0.410156,0 -0.410156,0.234375 0,0.234375 0.210938,0.234375 0.410156,0.234375 z m 0,0"
         style="fill:#000000;fill-opacity:1;fill-rule:nonzero;stroke:none" />
      <path
         id="path26"
         d="m 106.33949,-7.7826094 c 0,-0.2226562 0,-0.2929687 -0.16406,-0.2929687 -0.0937,0 -0.12891,0 -0.22266,0.1523437 l -3.59765,5.578125 v 0.3515625 h 3.14062 v 1.07812502 c 0,0.4453125 -0.0234,0.5625 -0.90234,0.5625 h -0.23438 v 0.3515625 c 0.26953,-0.0234375 1.21875,-0.0234375 1.5586,-0.0234375 0.32812,0 1.28906,0 1.55859,0.0234375 v -0.3515625 h -0.23437 c -0.86719,0 -0.90235,-0.1171875 -0.90235,-0.5625 V -1.9935469 h 1.20703 v -0.3515625 h -1.20703 z m -0.78515,0.9375 v 4.5 h -2.90625 z m 5.70117,3.8671875 c 0,-0.9140625 -0.12891,-2.390625 -0.79688,-3.7734375 -0.70312,-1.4414062 -1.67578,-2.2148437 -1.8164,-2.2148437 -0.0469,0 -0.10547,0.023437 -0.10547,0.09375 0,0.035156 0,0.058594 0.19922,0.2695312 1.19531,1.2070313 1.875,3.1757813 1.875,5.6132813 0,2.32031247 -0.5625,4.3125 -1.95703,5.7304687 -0.11719,0.1054688 -0.11719,0.1289063 -0.11719,0.1640625 0,0.070312 0.0586,0.09375 0.10547,0.09375 0.16406,0 1.13672,-0.8554687 1.72265,-2.02734373 0.60938,-1.21875 0.89063,-2.51953127 0.89063,-3.94921877 z m 0,0"
         style="fill:#000000;fill-opacity:1;fill-rule:nonzero;stroke:none" />
      <path
         id="path27"
         d="m 114.68031,-5.9662031 c 0.12891,-0.1171875 0.45703,-0.375 0.58594,-0.4921875 0.49219,-0.4570313 0.96094,-0.890625 0.96094,-1.6171875 0,-0.9492188 -0.79688,-1.5585938 -1.79297,-1.5585938 -0.94922,0 -1.58203,0.7265625 -1.58203,1.4296875 0,0.3984375 0.3164,0.4453125 0.42187,0.4453125 0.16406,0 0.41016,-0.1171875 0.41016,-0.421875 0,-0.4101562 -0.39844,-0.4101562 -0.49219,-0.4101562 0.23438,-0.5859375 0.77344,-0.7851563 1.16016,-0.7851563 0.73828,0 1.125,0.6328125 1.125,1.3007813 0,0.8320312 -0.58594,1.4296875 -1.52344,2.4023437 l -1.00781,1.03125 c -0.0937,0.09375 -0.0937,0.1054688 -0.0937,0.3046875 h 3.15234 l 0.22266,-1.4296875 h -0.2461 c -0.0234,0.1640625 -0.082,0.5625 -0.17578,0.7148438 -0.0469,0.058594 -0.65625,0.058594 -0.78515,0.058594 h -1.41797 z m 0,0"
         style="fill:#000000;fill-opacity:1;fill-rule:nonzero;stroke:none" />
      <path
         id="path28"
         d="m 128.55824,-3.8685469 c 0.16406,0 0.375,0 0.375,-0.2226562 0,-0.2226563 -0.19922,-0.2226563 -0.375,-0.2226563 h -7.04297 c -0.17578,0 -0.38672,0 -0.38672,0.2109375 0,0.234375 0.19922,0.234375 0.38672,0.234375 z m 0,2.2148438 c 0.16406,0 0.375,0 0.375,-0.2109375 0,-0.234375 -0.19922,-0.234375 -0.375,-0.234375 h -7.04297 c -0.17578,0 -0.38672,0 -0.38672,0.2226562 0,0.2226563 0.19922,0.2226563 0.38672,0.2226563 z m 9.70899,-2.1679688 c 0,-0.9960937 -0.0586,-1.96875 -0.49219,-2.8710937 -0.49219,-0.9960938 -1.34766,-1.2539063 -1.93359,-1.2539063 -0.69141,0 -1.54688,0.3398438 -1.98047,1.3359375 -0.33985,0.75 -0.45703,1.4882813 -0.45703,2.7890625 0,1.1601563 0.082,2.0273438 0.51562,2.87109377 0.45703,0.9140625 1.28906,1.1953125 1.91016,1.1953125 1.04297,0 1.64062,-0.62109375 1.98047,-1.31249997 0.43359,-0.890625 0.45703,-2.0625 0.45703,-2.7539063 z m -2.4375,3.83203127 c -0.38672,0 -1.16016,-0.2109375 -1.38282,-1.52343747 -0.14062,-0.7148438 -0.14062,-1.6171875 -0.14062,-2.4609375 0,-0.9726563 0,-1.8632813 0.19922,-2.5664063 0.19922,-0.796875 0.80859,-1.171875 1.32422,-1.171875 0.45703,0 1.14843,0.28125 1.37109,1.3007813 0.15234,0.6796875 0.15234,1.6289062 0.15234,2.4375 0,0.8085937 0,1.7109375 -0.1289,2.4375 -0.22266,1.32421872 -0.97266,1.54687497 -1.39453,1.54687497 z m 0,0"
         style="fill:#000000;fill-opacity:1;fill-rule:nonzero;stroke:none" />
      <path
         id="path29"
         d="m -93.597031,65.468367 h -0.269532 c -0.03516,0.199219 -0.128906,0.855469 -0.246093,1.042969 -0.08203,0.117187 -0.761719,0.117187 -1.125,0.117187 H -97.4525 c 0.328125,-0.28125 1.054687,-1.042968 1.371094,-1.335937 1.816406,-1.664063 2.484375,-2.285156 2.484375,-3.46875 0,-1.382813 -1.089844,-2.296875 -2.472657,-2.296875 -1.394531,0 -2.203125,1.183594 -2.203125,2.203125 0,0.609375 0.527344,0.609375 0.5625,0.609375 0.246094,0 0.5625,-0.175781 0.5625,-0.5625 0,-0.328125 -0.234375,-0.550781 -0.5625,-0.550781 -0.105468,0 -0.128906,0 -0.164062,0.01172 0.222656,-0.820312 0.867187,-1.371093 1.640625,-1.371093 1.019531,0 1.640625,0.855468 1.640625,1.957031 0,1.007812 -0.585938,1.898437 -1.265625,2.660156 l -2.414063,2.707031 v 0.28125 h 4.359375 z m 5.947265,-1.816406 c 0,-0.996094 -0.05859,-1.96875 -0.492187,-2.871094 -0.492188,-0.996094 -1.347656,-1.253906 -1.933594,-1.253906 -0.691406,0 -1.546875,0.339844 -1.980469,1.335937 -0.339843,0.75 -0.457031,1.488282 -0.457031,2.789063 0,1.160156 0.08203,2.027344 0.515625,2.871094 0.457031,0.914062 1.289063,1.195312 1.910156,1.195312 1.042969,0 1.640625,-0.621094 1.980469,-1.3125 0.433594,-0.890625 0.457031,-2.0625 0.457031,-2.753906 z m -2.4375,3.832031 c -0.386718,0 -1.160156,-0.210937 -1.382812,-1.523437 -0.140625,-0.714844 -0.140625,-1.617188 -0.140625,-2.460938 0,-0.972656 0,-1.863281 0.199219,-2.566406 0.199218,-0.796875 0.808593,-1.171875 1.324218,-1.171875 0.457032,0 1.148438,0.28125 1.371094,1.300781 0.152344,0.679688 0.152344,1.628906 0.152344,2.4375 0,0.808594 0,1.710938 -0.128906,2.4375 -0.222657,1.324219 -0.972657,1.546875 -1.394532,1.546875 z M -81.89,65.468367 h -0.269531 c -0.03516,0.199219 -0.128907,0.855469 -0.246094,1.042969 -0.08203,0.117187 -0.761719,0.117187 -1.125,0.117187 h -2.214844 c 0.328125,-0.28125 1.054688,-1.042968 1.371094,-1.335937 1.816406,-1.664063 2.484375,-2.285156 2.484375,-3.46875 0,-1.382813 -1.089844,-2.296875 -2.472656,-2.296875 -1.394532,0 -2.203125,1.183594 -2.203125,2.203125 0,0.609375 0.527343,0.609375 0.5625,0.609375 0.246093,0 0.5625,-0.175781 0.5625,-0.5625 0,-0.328125 -0.234375,-0.550781 -0.5625,-0.550781 -0.105469,0 -0.128907,0 -0.164063,0.01172 0.222656,-0.820312 0.867188,-1.371093 1.640625,-1.371093 1.019531,0 1.640625,0.855468 1.640625,1.957031 0,1.007812 -0.585937,1.898437 -1.265625,2.660156 l -2.414062,2.707031 v 0.28125 h 4.359375 z m 5.947266,-1.816406 c 0,-0.996094 -0.05859,-1.96875 -0.492188,-2.871094 -0.492187,-0.996094 -1.347656,-1.253906 -1.933594,-1.253906 -0.691406,0 -1.546875,0.339844 -1.980468,1.335937 -0.339844,0.75 -0.457032,1.488282 -0.457032,2.789063 0,1.160156 0.08203,2.027344 0.515625,2.871094 0.457032,0.914062 1.289063,1.195312 1.910157,1.195312 1.042968,0 1.640625,-0.621094 1.980468,-1.3125 0.433594,-0.890625 0.457032,-2.0625 0.457032,-2.753906 z m -2.4375,3.832031 c -0.386719,0 -1.160157,-0.210937 -1.382813,-1.523437 -0.140625,-0.714844 -0.140625,-1.617188 -0.140625,-2.460938 0,-0.972656 0,-1.863281 0.199219,-2.566406 0.199219,-0.796875 0.808594,-1.171875 1.324219,-1.171875 0.457031,0 1.148437,0.28125 1.371093,1.300781 0.152344,0.679688 0.152344,1.628906 0.152344,2.4375 0,0.808594 0,1.710938 -0.128906,2.4375 -0.222656,1.324219 -0.972656,1.546875 -1.394531,1.546875 z m 0,0"
         style="fill:#000000;fill-opacity:1;fill-rule:nonzero;stroke:none" />
      <path
         id="path30"
         d="m 215.47914,63.183211 c -0.21094,0.01172 -0.25781,0.02344 -0.25781,0.128906 0,0.117188 0.0586,0.117188 0.28125,0.117188 h 0.55078 c 1.00781,0 1.46484,0.84375 1.46484,1.992187 0,1.558594 -0.80859,1.980469 -1.39453,1.980469 -0.57422,0 -1.55859,-0.28125 -1.89844,-1.066406 0.375,0.05859 0.72657,-0.152344 0.72657,-0.585938 0,-0.339844 -0.25782,-0.585937 -0.58594,-0.585937 -0.29297,0 -0.59766,0.164062 -0.59766,0.621093 0,1.066407 1.06641,1.933594 2.39063,1.933594 1.41797,0 2.47265,-1.078125 2.47265,-2.285156 0,-1.101563 -0.89062,-1.96875 -2.02734,-2.167969 1.03125,-0.304687 1.69922,-1.171875 1.69922,-2.109375 0,-0.9375 -0.97266,-1.628906 -2.13281,-1.628906 -1.19532,0 -2.08594,0.726562 -2.08594,1.59375 0,0.480469 0.375,0.574219 0.55078,0.574219 0.25781,0 0.53906,-0.175782 0.53906,-0.539063 0,-0.375 -0.28125,-0.539062 -0.55078,-0.539062 -0.0703,0 -0.0937,0 -0.1289,0.01172 0.45703,-0.820312 1.58203,-0.820312 1.64062,-0.820312 0.38672,0 1.17188,0.175781 1.17188,1.347656 0,0.234375 -0.0352,0.902344 -0.38672,1.417969 -0.35157,0.527344 -0.76172,0.5625 -1.08985,0.574219 z m 0,0"
         style="fill:#000000;fill-opacity:1;fill-rule:nonzero;stroke:none" />
      <path
         id="path31"
         d="m 232.14613,65.468367 h -0.26953 c -0.0351,0.199219 -0.1289,0.855469 -0.24609,1.042969 -0.082,0.117187 -0.76172,0.117187 -1.125,0.117187 h -2.21485 c 0.32813,-0.28125 1.05469,-1.042968 1.3711,-1.335937 1.8164,-1.664063 2.48437,-2.285156 2.48437,-3.46875 0,-1.382813 -1.08984,-2.296875 -2.47265,-2.296875 -1.39453,0 -2.20313,1.183594 -2.20313,2.203125 0,0.609375 0.52735,0.609375 0.5625,0.609375 0.2461,0 0.5625,-0.175781 0.5625,-0.5625 0,-0.328125 -0.23437,-0.550781 -0.5625,-0.550781 -0.10547,0 -0.1289,0 -0.16406,0.01172 0.22266,-0.820312 0.86719,-1.371093 1.64062,-1.371093 1.01954,0 1.64063,0.855468 1.64063,1.957031 0,1.007812 -0.58594,1.898437 -1.26563,2.660156 l -2.41406,2.707031 v 0.28125 h 4.35938 z m 4.9043,-5.777344 c 0,-0.222656 0,-0.292968 -0.16406,-0.292968 -0.0937,0 -0.12891,0 -0.22266,0.152343 l -3.59766,5.578125 v 0.351563 h 3.14063 v 1.078125 c 0,0.445312 -0.0234,0.5625 -0.90234,0.5625 h -0.23438 v 0.351562 c 0.26953,-0.02344 1.21875,-0.02344 1.55859,-0.02344 0.32813,0 1.28907,0 1.5586,0.02344 v -0.351562 h -0.23438 c -0.86718,0 -0.90234,-0.117188 -0.90234,-0.5625 v -1.078125 h 1.20703 v -0.351563 h -1.20703 z m -0.78516,0.9375 v 4.5 h -2.90625 z m 0,0"
         style="fill:#000000;fill-opacity:1;fill-rule:nonzero;stroke:none" />
      <path
         id="path32"
         d="m 265.14906,60.628523 c 0.50391,0.164063 0.92578,0.175782 1.05469,0.175782 1.35937,0 2.21484,-0.996094 2.21484,-1.160157 0,-0.04687 -0.0234,-0.105468 -0.0937,-0.105468 -0.0234,0 -0.0469,0 -0.15234,0.04687 -0.66797,0.28125 -1.24219,0.316406 -1.55859,0.316406 -0.78516,0 -1.34766,-0.234375 -1.58204,-0.328125 -0.082,-0.03516 -0.10546,-0.03516 -0.11718,-0.03516 -0.0937,0 -0.0937,0.07031 -0.0937,0.257812 v 3.550781 c 0,0.210938 0,0.292969 0.14062,0.292969 0.0586,0 0.0703,-0.01172 0.19922,-0.164062 0.32813,-0.492188 0.89063,-0.773438 1.48828,-0.773438 0.63281,0 0.94922,0.585938 1.04297,0.785156 0.19922,0.46875 0.21094,1.054688 0.21094,1.511719 0,0.457031 0,1.136719 -0.32813,1.675781 -0.26953,0.421875 -0.73828,0.726563 -1.2539,0.726563 -0.79688,0 -1.57032,-0.539063 -1.78125,-1.40625 0.0586,0.02344 0.1289,0.03516 0.1875,0.03516 0.19922,0 0.52734,-0.128906 0.52734,-0.527344 0,-0.339843 -0.23437,-0.527343 -0.52734,-0.527343 -0.21094,0 -0.52735,0.105468 -0.52735,0.574218 0,1.007813 0.8086,2.167969 2.14453,2.167969 1.34766,0 2.53125,-1.125 2.53125,-2.648437 0,-1.417969 -0.96093,-2.601563 -2.21484,-2.601563 -0.67969,0 -1.20703,0.292969 -1.51172,0.632813 z m 7.76367,-0.820312 c 0,-0.269531 0,-0.28125 -0.24609,-0.28125 -0.28125,0.316406 -0.87891,0.761719 -2.10937,0.761719 v 0.351562 c 0.26953,0 0.86718,0 1.52343,-0.316406 v 6.222656 c 0,0.433594 -0.0351,0.574219 -1.07812,0.574219 h -0.375 v 0.351562 c 0.3164,-0.02344 1.47656,-0.02344 1.875,-0.02344 0.39844,0 1.54687,0 1.86328,0.02344 v -0.351562 h -0.36328 c -1.05469,0 -1.08985,-0.140625 -1.08985,-0.574219 z m 0,0"
         style="fill:#000000;fill-opacity:1;fill-rule:nonzero;stroke:none" />
      <path
         id="path33"
         d="m 86.754531,149.56212 c 0.597656,-0.32813 1.464844,-0.87891 1.464844,-1.875 0,-1.04297 -0.996094,-1.75782 -2.097656,-1.75782 -1.183594,0 -2.121094,0.86719 -2.121094,1.95704 0,0.41015 0.128906,0.80859 0.457031,1.21875 0.128906,0.15234 0.140625,0.16406 0.984375,0.75 -1.160156,0.53906 -1.757812,1.34765 -1.757812,2.21484 0,1.26562 1.207031,2.05078 2.425781,2.05078 1.324219,0 2.4375,-0.97266 2.4375,-2.22656 0,-1.21875 -0.855469,-1.75781 -1.792969,-2.33203 z m -1.628906,-1.07813 c -0.152344,-0.10547 -0.632813,-0.42187 -0.632813,-1.00781 0,-0.77344 0.820313,-1.26563 1.617188,-1.26563 0.855469,0 1.628906,0.6211 1.628906,1.48829 0,0.72656 -0.527344,1.3125 -1.21875,1.6875 z m 0.5625,1.54688 1.453125,0.9375 c 0.304687,0.19922 0.855469,0.57422 0.855469,1.30078 0,0.91406 -0.914063,1.53515 -1.875,1.53515 -1.019532,0 -1.886719,-0.73828 -1.886719,-1.73437 0,-0.9375 0.679687,-1.6875 1.453125,-2.03906 z m 6.919922,-0.46875 c 0.597656,-0.32813 1.464844,-0.87891 1.464844,-1.875 0,-1.04297 -0.996094,-1.75782 -2.097657,-1.75782 -1.183593,0 -2.121093,0.86719 -2.121093,1.95704 0,0.41015 0.128906,0.80859 0.457031,1.21875 0.128906,0.15234 0.140625,0.16406 0.984375,0.75 -1.160156,0.53906 -1.757813,1.34765 -1.757813,2.21484 0,1.26562 1.207032,2.05078 2.425782,2.05078 1.324218,0 2.4375,-0.97266 2.4375,-2.22656 0,-1.21875 -0.855469,-1.75781 -1.792969,-2.33203 z m -1.628906,-1.07813 c -0.152344,-0.10547 -0.632813,-0.42187 -0.632813,-1.00781 0,-0.77344 0.820313,-1.26563 1.617188,-1.26563 0.855468,0 1.628906,0.6211 1.628906,1.48829 0,0.72656 -0.527344,1.3125 -1.21875,1.6875 z m 0.5625,1.54688 1.453125,0.9375 c 0.304687,0.19922 0.855468,0.57422 0.855468,1.30078 0,0.91406 -0.914062,1.53515 -1.875,1.53515 -1.019531,0 -1.886718,-0.73828 -1.886718,-1.73437 0,-0.9375 0.679687,-1.6875 1.453125,-2.03906 z m 6.919921,-0.46875 c 0.597657,-0.32813 1.464844,-0.87891 1.464844,-1.875 0,-1.04297 -0.996094,-1.75782 -2.097656,-1.75782 -1.183594,0 -2.121094,0.86719 -2.121094,1.95704 0,0.41015 0.128906,0.80859 0.457031,1.21875 0.128907,0.15234 0.140625,0.16406 0.984375,0.75 -1.160156,0.53906 -1.757812,1.34765 -1.757812,2.21484 0,1.26562 1.207031,2.05078 2.425781,2.05078 1.324219,0 2.437499,-0.97266 2.437499,-2.22656 0,-1.21875 -0.855468,-1.75781 -1.792968,-2.33203 z m -1.628906,-1.07813 c -0.152344,-0.10547 -0.632812,-0.42187 -0.632812,-1.00781 0,-0.77344 0.820312,-1.26563 1.617187,-1.26563 0.855469,0 1.628906,0.6211 1.628906,1.48829 0,0.72656 -0.527343,1.3125 -1.21875,1.6875 z m 0.5625,1.54688 1.453125,0.9375 c 0.304688,0.19922 0.855469,0.57422 0.855469,1.30078 0,0.91406 -0.914063,1.53515 -1.875,1.53515 -1.019531,0 -1.886719,-0.73828 -1.886719,-1.73437 0,-0.9375 0.679688,-1.6875 1.453125,-2.03906 z m 0,0"
         style="fill:#000000;fill-opacity:1;fill-rule:nonzero;stroke:none" />
      <path
         id="path34"
         d="m 295.51234,150.39415 c 0,2.82422 -1.2539,3.41015 -1.96875,3.41015 -0.28125,0 -0.92578,-0.0352 -1.21875,-0.45703 h 0.0703 c 0.082,0.0234 0.51562,-0.0469 0.51562,-0.49218 0,-0.25782 -0.17578,-0.49219 -0.49219,-0.49219 -0.30468,0 -0.5039,0.21094 -0.5039,0.51562 0,0.75 0.59765,1.24219 1.64062,1.24219 1.5,0 2.94141,-1.58203 2.94141,-4.18359 0,-3.21094 -1.33594,-4.00782 -2.39063,-4.00782 -1.3125,0 -2.47265,1.10157 -2.47265,2.67188 0,1.58203 1.11328,2.66016 2.30859,2.66016 0.87891,0 1.33594,-0.64454 1.57031,-1.25391 z m -1.52343,0.62109 c -0.75,0 -1.07813,-0.60937 -1.1836,-0.83203 -0.19922,-0.45703 -0.19922,-1.03125 -0.19922,-1.57031 0,-0.66797 0,-1.24219 0.31641,-1.73438 0.21094,-0.3164 0.53906,-0.66797 1.18359,-0.66797 0.67969,0 1.03125,0.59766 1.14844,0.87891 0.23438,0.58594 0.23438,1.59375 0.23438,1.78125 0,0.99609 -0.44532,2.14453 -1.5,2.14453 z m 7.37695,-0.62109 c 0,2.82422 -1.25391,3.41015 -1.96875,3.41015 -0.28125,0 -0.92578,-0.0352 -1.21875,-0.45703 h 0.0703 c 0.082,0.0234 0.51563,-0.0469 0.51563,-0.49218 0,-0.25782 -0.17578,-0.49219 -0.49219,-0.49219 -0.30469,0 -0.50391,0.21094 -0.50391,0.51562 0,0.75 0.59766,1.24219 1.64063,1.24219 1.5,0 2.9414,-1.58203 2.9414,-4.18359 0,-3.21094 -1.33593,-4.00782 -2.39062,-4.00782 -1.3125,0 -2.47266,1.10157 -2.47266,2.67188 0,1.58203 1.11328,2.66016 2.3086,2.66016 0.8789,0 1.33593,-0.64454 1.57031,-1.25391 z m -1.52344,0.62109 c -0.75,0 -1.07812,-0.60937 -1.18359,-0.83203 -0.19922,-0.45703 -0.19922,-1.03125 -0.19922,-1.57031 0,-0.66797 0,-1.24219 0.31641,-1.73438 0.21093,-0.3164 0.53906,-0.66797 1.18359,-0.66797 0.67969,0 1.03125,0.59766 1.14844,0.87891 0.23437,0.58594 0.23437,1.59375 0.23437,1.78125 0,0.99609 -0.44531,2.14453 -1.5,2.14453 z m 7.37695,-0.62109 c 0,2.82422 -1.2539,3.41015 -1.96875,3.41015 -0.28125,0 -0.92578,-0.0352 -1.21875,-0.45703 h 0.0703 c 0.082,0.0234 0.51562,-0.0469 0.51562,-0.49218 0,-0.25782 -0.17578,-0.49219 -0.49219,-0.49219 -0.30468,0 -0.5039,0.21094 -0.5039,0.51562 0,0.75 0.59765,1.24219 1.64062,1.24219 1.5,0 2.94141,-1.58203 2.94141,-4.18359 0,-3.21094 -1.33594,-4.00782 -2.39063,-4.00782 -1.3125,0 -2.47265,1.10157 -2.47265,2.67188 0,1.58203 1.11328,2.66016 2.30859,2.66016 0.87891,0 1.33594,-0.64454 1.57031,-1.25391 z m -1.52343,0.62109 c -0.75,0 -1.07813,-0.60937 -1.1836,-0.83203 -0.19922,-0.45703 -0.19922,-1.03125 -0.19922,-1.57031 0,-0.66797 0,-1.24219 0.31641,-1.73438 0.21094,-0.3164 0.53906,-0.66797 1.18359,-0.66797 0.67969,0 1.03125,0.59766 1.14844,0.87891 0.23438,0.58594 0.23438,1.59375 0.23438,1.78125 0,0.99609 -0.44532,2.14453 -1.5,2.14453 z m 0,0"
         style="fill:#000000;fill-opacity:1;fill-rule:nonzero;stroke:none" />
    </g>
  </g>
</svg>
