<?xml version="1.0" encoding="UTF-8" standalone="no"?>
<!-- Created with Inkscape (http://www.inkscape.org/) -->

<svg
   version="1.1"
   id="svg1"
   width="794.55066"
   height="1123.6533"
   viewBox="0 0 794.55066 1123.6533"
   sodipodi:docname="LigaMatematycznaMatuskiego_Liceum_Zestaw1_2019_2020_page0.pdf"
   xmlns:inkscape="http://www.inkscape.org/namespaces/inkscape"
   xmlns:sodipodi="http://sodipodi.sourceforge.net/DTD/sodipodi-0.dtd"
   xmlns="http://www.w3.org/2000/svg"
   xmlns:svg="http://www.w3.org/2000/svg">
  <defs
     id="defs1" />
  <sodipodi:namedview
     id="namedview1"
     pagecolor="#ffffff"
     bordercolor="#000000"
     borderopacity="0.25"
     inkscape:showpageshadow="2"
     inkscape:pageopacity="0.0"
     inkscape:pagecheckerboard="0"
     inkscape:deskcolor="#d1d1d1">
    <inkscape:page
       x="0"
       y="0"
       inkscape:label="1"
       id="page1"
       width="794.55066"
       height="1123.6533"
       margin="0"
       bleed="0" />
  </sodipodi:namedview>
  <g
     id="g1"
     inkscape:groupmode="layer"
     inkscape:label="1">
    <g
       id="g2"
       aria-label="LIGAMATEMATYCZNA&#10;im.ZdzisªawaMatuskiego&#10;PADZIERNIK2019&#10;SZKOAPONADPODSTAWOWA&#10;ZADANIE1.&#10;Którazliczbjestwi¦ksza7&#10;31&#10;czy19&#10;21&#10;?&#10;ZADANIE2.&#10;Niechnb¦dziedowoln¡liczb¡caªkowit¡dodatni¡.Wewn¡trzprostok¡taobokachodªugo±ci1&#10;i2znajdujesi¦8n&#10;2&#10;+1punktów.Wyka»,»eistniejekoªoopromieniu&#10;1"
       transform="matrix(1.3333333,0,0,1.3333333,274.724,56.069333)">
      <path
         id="path2"
         d="m -7.8203437,102.39624 v -0.28125 h -2.8828123 c -1.453125,0 -1.476563,-0.15234 -1.523438,-0.38672 h -0.257812 l -0.375,2.39063 h 0.269531 c 0.03516,-0.21094 0.140625,-0.94922 0.292969,-1.07813 0.09375,-0.0703 0.996094,-0.0703 1.160156,-0.0703 h 2.53125 l -1.265625,1.81641 c -0.316406,0.45703 -1.523437,2.42578 -1.523437,4.66406 0,0.14062 0,0.60937 0.480468,0.60937 0.503907,0 0.503907,-0.45703 0.503907,-0.62109 v -0.59766 c 0,-1.78125 0.292968,-3.16406 0.8554683,-3.96093 z m 0,0"
         style="fill:#000000;fill-opacity:1;fill-rule:nonzero;stroke:none" />
      <path
         id="path3"
         d="m -5.6347969,102.81519 c 0.6328125,0 1.03125,0.45703 1.03125,1.30078 0,0.99609 -0.5742187,1.28906 -0.9960937,1.28906 -0.4335938,0 -1.03125,-0.16406 -1.3125,-0.58594 0.2929687,0 0.4921875,-0.17578 0.4921875,-0.44531 0,-0.25781 -0.1875,-0.43359 -0.4453125,-0.43359 -0.2109375,0 -0.4335938,0.1289 -0.4335938,0.45703 0,0.75 0.8085938,1.24219 1.7226563,1.24219 1.0546875,0 1.7929687,-0.72657 1.7929687,-1.52344 0,-0.66797 -0.515625,-1.26563 -1.3359375,-1.44141 0.6328125,-0.22265 1.1015625,-0.77343 1.1015625,-1.40625 0,-0.63281 -0.7148437,-1.08984 -1.546875,-1.08984 -0.8554687,0 -1.5,0.45703 -1.5,1.06641 0,0.29296 0.1992188,0.42187 0.4101563,0.42187 0.2460937,0 0.4101562,-0.17578 0.4101562,-0.41016 0,-0.29296 -0.2578125,-0.39843 -0.4335937,-0.41015 0.3398437,-0.4336 0.9492187,-0.46875 1.0898437,-0.46875 0.2109375,0 0.8085938,0.0703 0.8085938,0.89062 0,0.5625 -0.2226563,0.89063 -0.3398438,1.01953 -0.234375,0.2461 -0.421875,0.25782 -0.9023437,0.29297 -0.1523438,0.0117 -0.2226563,0.0234 -0.2226563,0.11719 0,0.11719 0.070312,0.11719 0.2109375,0.11719 z m 4.72851565,-2.41406 c 0,-0.22266 -0.0234375,-0.22266 -0.23437495,-0.22266 -0.328125,0.31641 -0.75,0.50391 -1.5117188,0.50391 v 0.26953 c 0.2226563,0 0.6445313,0 1.1132813,-0.22266 v 4.08984 c 0,0.29297 -0.023437,0.39844 -0.7851563,0.39844 H -2.6055 v 0.25781 c 0.328125,-0.0234 1.0195313,-0.0234 1.3710938,-0.0234 0.3632812,0 1.05468745,0 1.38281245,0.0234 v -0.25781 h -0.28125 c -0.75,0 -0.7734375,-0.10547 -0.7734375,-0.39844 z m 0,0"
         style="fill:#000000;fill-opacity:1;fill-rule:nonzero;stroke:none" />
      <path
         id="path4"
         d="m 29.143523,102.15015 c 0,-0.26953 0,-0.28125 -0.246093,-0.28125 -0.28125,0.3164 -0.878907,0.76172 -2.109375,0.76172 v 0.35156 c 0.269531,0 0.867187,0 1.523437,-0.31641 v 6.22266 c 0,0.43359 -0.03516,0.57422 -1.078125,0.57422 h -0.375 v 0.35156 c 0.316406,-0.0234 1.476563,-0.0234 1.875,-0.0234 0.398438,0 1.546875,0 1.863281,0.0234 v -0.35156 h -0.363281 c -1.054687,0 -1.089844,-0.14063 -1.089844,-0.57422 z m 6.779297,4.18359 c 0,2.82422 -1.253906,3.41016 -1.96875,3.41016 -0.28125,0 -0.925781,-0.0352 -1.21875,-0.45703 h 0.07031 c 0.08203,0.0234 0.515625,-0.0469 0.515625,-0.49219 0,-0.25781 -0.175781,-0.49219 -0.492188,-0.49219 -0.304687,0 -0.503906,0.21094 -0.503906,0.51563 0,0.75 0.597656,1.24218 1.640625,1.24218 1.5,0 2.941406,-1.58203 2.941406,-4.18359 0,-3.21094 -1.335937,-4.00781 -2.390625,-4.00781 -1.3125,0 -2.472656,1.10156 -2.472656,2.67187 0,1.58203 1.113281,2.66016 2.308594,2.66016 0.878906,0 1.335937,-0.64453 1.570312,-1.25391 z m -1.523437,0.6211 c -0.75,0 -1.078125,-0.60938 -1.183594,-0.83204 -0.199219,-0.45703 -0.199219,-1.03125 -0.199219,-1.57031 0,-0.66797 0,-1.24219 0.316407,-1.73437 0.210937,-0.31641 0.539062,-0.66797 1.183593,-0.66797 0.679688,0 1.03125,0.59765 1.148438,0.8789 0.234375,0.58594 0.234375,1.59375 0.234375,1.78125 0,0.9961 -0.445313,2.14454 -1.5,2.14454 z m 0,0"
         style="fill:#000000;fill-opacity:1;fill-rule:nonzero;stroke:none" />
      <path
         id="path5"
         d="m 39.655242,103.84644 c 0.128906,-0.11719 0.457031,-0.375 0.585938,-0.49219 0.492187,-0.45703 0.960937,-0.89062 0.960937,-1.61719 0,-0.94922 -0.796875,-1.55859 -1.792969,-1.55859 -0.949218,0 -1.582031,0.72656 -1.582031,1.42969 0,0.39843 0.316406,0.44531 0.421875,0.44531 0.164063,0 0.410156,-0.11719 0.410156,-0.42188 0,-0.41015 -0.398437,-0.41015 -0.492187,-0.41015 0.234375,-0.58594 0.773437,-0.78516 1.160156,-0.78516 0.738281,0 1.125,0.63281 1.125,1.30078 0,0.83203 -0.585937,1.42969 -1.523437,2.40235 l -1.007813,1.03125 c -0.09375,0.0937 -0.09375,0.10547 -0.09375,0.30468 h 3.152344 l 0.222656,-1.42968 h -0.246094 c -0.02344,0.16406 -0.08203,0.5625 -0.175781,0.71484 -0.04687,0.0586 -0.65625,0.0586 -0.785156,0.0586 h -1.417969 z m 4.491211,-3.44531 c 0,-0.22266 -0.02344,-0.22266 -0.234375,-0.22266 -0.328125,0.31641 -0.75,0.50391 -1.511719,0.50391 v 0.26953 c 0.222657,0 0.644532,0 1.113282,-0.22266 v 4.08984 c 0,0.29297 -0.02344,0.39844 -0.785157,0.39844 h -0.28125 v 0.25781 c 0.328125,-0.0234 1.019532,-0.0234 1.371094,-0.0234 0.363281,0 1.054688,0 1.382813,0.0234 v -0.25781 h -0.28125 c -0.75,0 -0.773438,-0.10547 -0.773438,-0.39844 z m 0,0"
         style="fill:#000000;fill-opacity:1;fill-rule:nonzero;stroke:none" />
      <path
         id="path6"
         d="m -113.69339,149.37378 c 0.0234,-0.0703 0.32812,-0.66797 0.76172,-1.05469 0.3164,-0.28125 0.72656,-0.46875 1.18359,-0.46875 0.48047,0 0.64453,0.35157 0.64453,0.83204 0,0.67968 -0.48047,2.03906 -0.72656,2.68359 -0.10547,0.29297 -0.16406,0.44531 -0.16406,0.66797 0,0.52734 0.375,0.96094 0.94922,0.96094 1.10156,0 1.52343,-1.75782 1.52343,-1.82813 0,-0.0586 -0.0469,-0.10547 -0.11718,-0.10547 -0.10547,0 -0.11719,0.0352 -0.17578,0.23438 -0.28125,0.98437 -0.73829,1.46484 -1.19532,1.46484 -0.1289,0 -0.3164,-0.0117 -0.3164,-0.39844 0,-0.29297 0.1289,-0.65625 0.19922,-0.82031 0.24609,-0.65625 0.75,-2.00391 0.75,-2.68359 0,-0.71485 -0.42188,-1.25391 -1.33594,-1.25391 -1.05469,0 -1.61719,0.75 -1.83985,1.05469 -0.0352,-0.67969 -0.52734,-1.05469 -1.04296,-1.05469 -0.38672,0 -0.64454,0.23438 -0.85547,0.63281 -0.21094,0.4336 -0.375,1.14844 -0.375,1.19532 0,0.0469 0.0469,0.10546 0.1289,0.10546 0.0937,0 0.10547,-0.0117 0.17578,-0.28125 0.1875,-0.72656 0.41016,-1.40625 0.89063,-1.40625 0.26953,0 0.36328,0.1875 0.36328,0.53907 0,0.26953 -0.11719,0.73828 -0.19922,1.10156 l -0.33984,1.28906 c -0.0469,0.23438 -0.17578,0.77344 -0.23438,0.98438 -0.082,0.3164 -0.21093,0.8789 -0.21093,0.9375 0,0.16406 0.1289,0.29297 0.30468,0.29297 0.14063,0 0.31641,-0.0703 0.41016,-0.2461 0.0234,-0.0586 0.12891,-0.48047 0.1875,-0.71484 l 0.25781,-1.07813 z m 0,0"
         style="fill:#000000;fill-opacity:1;fill-rule:nonzero;stroke:none" />
      <path
         id="path7"
         d="m 331.26755,145.21363 c 0,-0.26954 0,-0.28125 -0.2461,-0.28125 -0.28125,0.3164 -0.8789,0.76171 -2.10937,0.76171 v 0.35157 c 0.26953,0 0.86719,0 1.52344,-0.31641 v 6.22266 c 0,0.43359 -0.0352,0.57422 -1.07813,0.57422 h -0.375 v 0.35156 c 0.31641,-0.0234 1.47656,-0.0234 1.875,-0.0234 0.39844,0 1.54688,0 1.86328,0.0234 v -0.35156 h -0.36328 c -1.05469,0 -1.08984,-0.14063 -1.08984,-0.57422 z m 0,0"
         style="fill:#000000;fill-opacity:1;fill-rule:nonzero;stroke:none" />
      <path
         id="path8"
         d="m -136.5303,165.32007 h -0.26954 c -0.0352,0.19922 -0.1289,0.85547 -0.24609,1.04297 -0.082,0.11719 -0.76172,0.11719 -1.125,0.11719 h -2.21484 c 0.32812,-0.28125 1.05468,-1.04297 1.37109,-1.33594 1.81641,-1.66406 2.48438,-2.28516 2.48438,-3.46875 0,-1.38281 -1.08985,-2.29688 -2.47266,-2.29688 -1.39453,0 -2.20313,1.1836 -2.20313,2.20313 0,0.60937 0.52735,0.60937 0.5625,0.60937 0.2461,0 0.5625,-0.17578 0.5625,-0.5625 0,-0.32812 -0.23437,-0.55078 -0.5625,-0.55078 -0.10546,0 -0.1289,0 -0.16406,0.0117 0.22266,-0.82031 0.86719,-1.37109 1.64063,-1.37109 1.01953,0 1.64062,0.85547 1.64062,1.95703 0,1.00781 -0.58594,1.89844 -1.26562,2.66016 l -2.41407,2.70703 v 0.28125 h 4.35938 z m 0,0"
         style="fill:#000000;fill-opacity:1;fill-rule:nonzero;stroke:none" />
      <path
         id="path9"
         d="m -66.223664,163.01148 c 0.597656,-0.32813 1.464844,-0.87891 1.464844,-1.875 0,-1.04297 -0.996094,-1.75782 -2.097657,-1.75782 -1.183593,0 -2.121093,0.86719 -2.121093,1.95704 0,0.41015 0.128906,0.80859 0.457031,1.21875 0.128906,0.15234 0.140625,0.16406 0.984375,0.75 -1.160156,0.53906 -1.757813,1.34765 -1.757813,2.21484 0,1.26562 1.207032,2.05078 2.425782,2.05078 1.324218,0 2.4375,-0.97266 2.4375,-2.22656 0,-1.21875 -0.855469,-1.75781 -1.792969,-2.33203 z m -1.628906,-1.07813 c -0.152344,-0.10547 -0.632813,-0.42187 -0.632813,-1.00781 0,-0.77344 0.820313,-1.26563 1.617188,-1.26563 0.855468,0 1.628906,0.6211 1.628906,1.48829 0,0.72656 -0.527344,1.3125 -1.21875,1.6875 z m 0.5625,1.54688 1.453125,0.9375 c 0.304687,0.19922 0.855468,0.57422 0.855468,1.30078 0,0.91406 -0.914062,1.53515 -1.875,1.53515 -1.019531,0 -1.886718,-0.73828 -1.886718,-1.73437 0,-0.9375 0.679687,-1.6875 1.453125,-2.03906 z m 0,0"
         style="fill:#000000;fill-opacity:1;fill-rule:nonzero;stroke:none" />
      <path
         id="path10"
         d="m -61.471711,163.82007 c 0.02344,-0.0703 0.328125,-0.66797 0.761719,-1.05469 0.316406,-0.28125 0.726562,-0.46875 1.183594,-0.46875 0.480468,0 0.644531,0.35157 0.644531,0.83203 0,0.67969 -0.480469,2.03907 -0.726563,2.6836 -0.105468,0.29297 -0.164062,0.44531 -0.164062,0.66797 0,0.52734 0.375,0.96093 0.949219,0.96093 1.101562,0 1.523437,-1.75781 1.523437,-1.82812 0,-0.0586 -0.04687,-0.10547 -0.117187,-0.10547 -0.105469,0 -0.117188,0.0352 -0.175782,0.23438 -0.28125,0.98437 -0.738281,1.46484 -1.195312,1.46484 -0.128906,0 -0.316406,-0.0117 -0.316406,-0.39844 0,-0.29297 0.128906,-0.65625 0.199218,-0.82031 0.246094,-0.65625 0.75,-2.00391 0.75,-2.68359 0,-0.71485 -0.421875,-1.25391 -1.335937,-1.25391 -1.054688,0 -1.617188,0.75 -1.839844,1.05469 -0.03516,-0.67969 -0.527344,-1.05469 -1.042969,-1.05469 -0.386718,0 -0.644531,0.23437 -0.855468,0.63281 -0.210938,0.4336 -0.375,1.14844 -0.375,1.19531 0,0.0469 0.04687,0.10547 0.128906,0.10547 0.09375,0 0.105469,-0.0117 0.175781,-0.28125 0.1875,-0.72656 0.410156,-1.40625 0.890625,-1.40625 0.269531,0 0.363281,0.1875 0.363281,0.53907 0,0.26953 -0.117187,0.73828 -0.199218,1.10156 l -0.339844,1.28906 c -0.04687,0.23438 -0.175781,0.77344 -0.234375,0.98438 -0.08203,0.3164 -0.210938,0.8789 -0.210938,0.9375 0,0.16406 0.128907,0.29296 0.304688,0.29296 0.140625,0 0.316406,-0.0703 0.410156,-0.24609 0.02344,-0.0586 0.128906,-0.48047 0.1875,-0.71484 l 0.257813,-1.07813 z m 0,0"
         style="fill:#000000;fill-opacity:1;fill-rule:nonzero;stroke:none" />
      <path
         id="path11"
         d="m -54.695344,161.35913 c 0.128907,-0.11718 0.457032,-0.375 0.585938,-0.49218 0.492187,-0.45704 0.960937,-0.89063 0.960937,-1.61719 0,-0.94922 -0.796875,-1.5586 -1.792968,-1.5586 -0.949219,0 -1.582032,0.72657 -1.582032,1.42969 0,0.39844 0.316407,0.44531 0.421875,0.44531 0.164063,0 0.410157,-0.11718 0.410157,-0.42187 0,-0.41016 -0.398438,-0.41016 -0.492188,-0.41016 0.234375,-0.58593 0.773438,-0.78515 1.160156,-0.78515 0.738282,0 1.125,0.63281 1.125,1.30078 0,0.83203 -0.585937,1.42969 -1.523437,2.40234 l -1.007813,1.03125 c -0.09375,0.0937 -0.09375,0.10547 -0.09375,0.30469 h 3.152344 l 0.222656,-1.42969 h -0.246093 c -0.02344,0.16406 -0.08203,0.5625 -0.175782,0.71485 -0.04687,0.0586 -0.65625,0.0586 -0.785156,0.0586 h -1.417969 z m 0,0"
         style="fill:#000000;fill-opacity:1;fill-rule:nonzero;stroke:none" />
      <path
         id="path12"
         d="m -46.269562,164.55835 h 3.304687 c 0.164063,0 0.375,0 0.375,-0.21094 0,-0.22265 -0.199219,-0.22265 -0.375,-0.22265 h -3.304687 v -3.30469 c 0,-0.16406 0,-0.38672 -0.210938,-0.38672 -0.234375,0 -0.234375,0.21094 -0.234375,0.38672 v 3.30469 h -3.292969 c -0.175781,0 -0.386718,0 -0.386718,0.21094 0,0.22265 0.199218,0.22265 0.386718,0.22265 h 3.292969 v 3.30469 c 0,0.16406 0,0.38672 0.222656,0.38672 0.222657,0 0.222657,-0.21094 0.222657,-0.38672 z m 8.950195,-4.89844 c 0,-0.26953 0,-0.28125 -0.246094,-0.28125 -0.28125,0.31641 -0.878906,0.76172 -2.109375,0.76172 v 0.35157 c 0.269531,0 0.867188,0 1.523438,-0.31641 v 6.22266 c 0,0.43359 -0.03516,0.57421 -1.078125,0.57421 h -0.375 v 0.35157 c 0.316406,-0.0234 1.476562,-0.0234 1.875,-0.0234 0.398437,0 1.546875,0 1.863281,0.0234 v -0.35157 h -0.363281 c -1.054688,0 -1.089844,-0.14062 -1.089844,-0.57421 z m 0,0"
         style="fill:#000000;fill-opacity:1;fill-rule:nonzero;stroke:none" />
      <path
         id="path13"
         d="m 206.34567,157.54468 c 0,-0.22266 -0.0234,-0.22266 -0.23437,-0.22266 -0.32813,0.31641 -0.75,0.50391 -1.51172,0.50391 v 0.26953 c 0.22265,0 0.64453,0 1.11328,-0.22266 v 4.08985 c 0,0.29297 -0.0234,0.39844 -0.78516,0.39844 h -0.28125 v 0.25781 c 0.32813,-0.0234 1.01953,-0.0234 1.3711,-0.0234 0.36328,0 1.05468,0 1.38281,0.0234 v -0.25781 h -0.28125 c -0.75,0 -0.77344,-0.10547 -0.77344,-0.39844 z m 0,0"
         style="fill:#000000;fill-opacity:1;fill-rule:nonzero;stroke:none" />
    </g>
    <path
       id="path14"
       d="M 0,0 H 5.138"
       style="fill:none;stroke:#000000;stroke-width:0.478;stroke-linecap:butt;stroke-linejoin:miter;stroke-miterlimit:10;stroke-dasharray:none;stroke-opacity:1"
       transform="matrix(1.3333333,0,0,-1.3333333,545.904,275.184)" />
    <g
       id="g14"
       aria-label="n&#10;zawieraj¡ceconajmniej&#10;trzyspo±róddanychpunktów.&#10;ZADANIE3.&#10;PrzezpunktWle»¡cywewn¡trztrójk¡taABCpoprowadzonotrzyprosterównolegªedoboków&#10;trójk¡ta.Prostetepodzieliªytrójk¡tnasze±¢cz¦±ci,zktórychtrzys¡trójk¡tamiopolach1,&#10;4i9.Wyznaczpoletrójk¡taABC.&#10;ZADANIE4.&#10;Ilejestliczbtrzycyfrowych"
       transform="matrix(1.3333333,0,0,1.3333333,545.904,284.66667)">
      <path
         id="path15"
         d="m 1.5925078,-1.3115234 c 0.023437,-0.1171875 0.1054688,-0.421875 0.1289063,-0.5390625 0.1054687,-0.421875 0.1054687,-0.4335938 0.2929687,-0.703125 0.2578125,-0.3867188 0.6328125,-0.7382813 1.171875,-0.7382813 0.28125,0 0.4570313,0.1640625 0.4570313,0.5390625 0,0.4453125 -0.3398438,1.3476563 -0.4921875,1.7460938 -0.1054688,0.25781246 -0.1054688,0.30468746 -0.1054688,0.41015621 0,0.45703125 0.375,0.6796875 0.7265625,0.6796875 0.7734375,0 1.1015625,-1.11328121 1.1015625,-1.21875001 0,-0.082031 -0.058594,-0.1054687 -0.1171875,-0.1054687 -0.09375,0 -0.1171875,0.058594 -0.140625,0.1289062 -0.1875,0.65625001 -0.515625,0.97265626 -0.8203125,0.97265626 -0.1289062,0 -0.1992187,-0.0820313 -0.1992187,-0.26953125 0,-0.17578125 0.070312,-0.3515625 0.1523437,-0.55078125 0.1171875,-0.30468746 0.46875,-1.21874996 0.46875,-1.66406246 0,-0.5976563 -0.421875,-0.890625 -0.9960937,-0.890625 -0.6445313,0 -1.0546875,0.3867187 -1.2890625,0.6914062 -0.058594,-0.4335937 -0.3984375,-0.6914062 -0.8085938,-0.6914062 -0.29296874,0 -0.49218749,0.1875 -0.60937499,0.4335937 -0.19921875,0.375 -0.28125,0.7734375 -0.28125,0.7851563 0,0.070312 0.0585938,0.1054687 0.12890625,0.1054687 0.09375,0 0.10546875,-0.035156 0.1640625,-0.234375 0.09375,-0.3984375 0.234375,-0.8671875 0.57421874,-0.8671875 0.2109375,0 0.2578125,0.1992188 0.2578125,0.375 0,0.140625 -0.046875,0.2929688 -0.1054687,0.5625 -0.023437,0.058594 -0.140625,0.5273438 -0.1757813,0.6445313 l -0.29296874,1.19531246 c -0.0234375,0.1171875 -0.0703125,0.31640625 -0.0703125,0.3515625 0,0.17578125 0.140625,0.24609375 0.24609375,0.24609375 0.15234379,0 0.26953129,-0.09375 0.31640629,-0.19921875 0.035156,-0.046875 0.09375,-0.31640625 0.1289062,-0.48046875 z m 0,0"
         style="fill:#000000;fill-opacity:1;fill-rule:nonzero;stroke:none" />
      <path
         id="path16"
         d="m -275.96023,46.556641 c 0.28125,-0.46875 0.53907,-0.914063 1.25391,-0.984375 0.10547,-0.01172 0.22266,-0.02344 0.22266,-0.210938 0,-0.140625 -0.11719,-0.140625 -0.15235,-0.140625 -0.0234,0 -0.10547,0.02344 -0.89062,0.02344 -0.36328,0 -0.72657,-0.02344 -1.07813,-0.02344 -0.0703,0 -0.21094,0 -0.21094,0.234375 0,0.105469 0.0937,0.117188 0.16407,0.117188 0.23437,0.01172 0.62109,0.08203 0.62109,0.457031 0,0.152344 -0.0469,0.234375 -0.16406,0.433594 l -3.26953,5.71875 -0.4336,-6.222657 c 0,-0.152343 0.14063,-0.375 0.8086,-0.386718 0.15234,0 0.26953,0 0.26953,-0.222657 0,-0.128906 -0.11719,-0.128906 -0.17578,-0.128906 -0.42188,0 -0.85547,0.02344 -1.28907,0.02344 h -0.62109 c -0.1875,0 -0.39844,-0.02344 -0.57422,-0.02344 -0.0703,0 -0.22265,0 -0.22265,0.234375 0,0.117188 0.0937,0.117188 0.29296,0.117188 0.55079,0 0.55079,0.01172 0.59766,0.738281 l 0.0352,0.433594 -3.09375,5.4375 -0.44532,-6.164063 c 0,-0.140625 0,-0.433594 0.8086,-0.445312 0.14062,0 0.26953,0 0.26953,-0.210938 0,-0.140625 -0.10547,-0.140625 -0.17578,-0.140625 -0.42188,0 -0.86719,0.02344 -1.30078,0.02344 h -0.6211 c -0.17578,0 -0.38672,-0.02344 -0.57422,-0.02344 -0.0703,0 -0.21093,0 -0.21093,0.234375 0,0.117188 0.0937,0.117188 0.26953,0.117188 0.55078,0 0.5625,0.07031 0.59765,0.457031 l 0.51563,7.335937 c 0.0117,0.199219 0.0234,0.269532 0.17578,0.269532 0.11719,0 0.14063,-0.04687 0.24609,-0.222657 l 3.5625,-6.222656 0.44532,6.175781 c 0.0117,0.199219 0.0234,0.269532 0.16406,0.269532 0.11719,0 0.15234,-0.05859 0.24609,-0.222657 z m 0,0"
         style="fill:#000000;fill-opacity:1;fill-rule:nonzero;stroke:none" />
      <path
         id="path17"
         d="m -138.76882,52.064453 c -0.41016,0.703125 -0.82031,0.9375 -1.39453,0.972656 -0.12891,0.01172 -0.22266,0.01172 -0.22266,0.234375 0,0.07031 0.0586,0.117188 0.14063,0.117188 0.21093,0 0.75,-0.02344 0.97265,-0.02344 0.33985,0 0.72657,0.02344 1.05469,0.02344 0.0703,0 0.22266,0 0.22266,-0.222656 0,-0.117188 -0.0937,-0.128907 -0.17578,-0.128907 -0.26954,-0.02344 -0.49219,-0.117187 -0.49219,-0.398437 0,-0.175781 0.0703,-0.304688 0.22265,-0.5625 l 0.90235,-1.511719 h 3.05859 c 0.0117,0.105469 0.0117,0.210938 0.0234,0.316406 0.0352,0.304688 0.17578,1.546875 0.17578,1.78125 0,0.351563 -0.60937,0.375 -0.79687,0.375 -0.14063,0 -0.26954,0 -0.26954,0.222657 0,0.128906 0.10547,0.128906 0.17579,0.128906 0.21093,0 0.44531,-0.02344 0.65625,-0.02344 h 0.67968 c 0.72657,0 1.25391,0.02344 1.26563,0.02344 0.082,0 0.21094,0 0.21094,-0.222656 0,-0.128907 -0.10547,-0.128907 -0.28125,-0.128907 -0.65625,0 -0.66797,-0.105468 -0.71485,-0.457031 l -0.72656,-7.464844 c -0.0234,-0.234375 -0.0703,-0.257812 -0.19922,-0.257812 -0.11719,0 -0.1875,0.02344 -0.30469,0.199219 z m 1.44141,-1.839844 2.40234,-4.019531 0.41016,4.019531 z m 9.67968,-4.183593 c 0.11719,-0.445313 0.16407,-0.46875 0.6211,-0.46875 h 1.55859 c 1.34766,0 1.34766,1.148437 1.34766,1.253906 0,0.972656 -0.96094,2.203125 -2.54297,2.203125 h -1.72266 z m 2.02735,3.082031 c 1.30078,-0.246094 2.48437,-1.148438 2.48437,-2.25 0,-0.925781 -0.83203,-1.652344 -2.17969,-1.652344 h -3.83203 c -0.23437,0 -0.33984,0 -0.33984,0.234375 0,0.117188 0.10547,0.117188 0.29297,0.117188 0.72656,0 0.72656,0.09375 0.72656,0.222656 0,0.02344 0,0.09375 -0.0469,0.28125 l -1.61719,6.433594 c -0.10547,0.410156 -0.12891,0.527343 -0.96094,0.527343 -0.23437,0 -0.35156,0 -0.35156,0.222657 0,0.128906 0.0703,0.128906 0.30469,0.128906 h 4.10156 c 1.82812,0 3.24609,-1.382813 3.24609,-2.589844 0,-0.984375 -0.86719,-1.582031 -1.82812,-1.675781 z m -1.69922,3.914062 h -1.61719 c -0.16406,0 -0.1875,0 -0.25781,-0.01172 -0.12891,-0.01172 -0.15235,-0.03516 -0.15235,-0.128907 0,-0.08203 0.0352,-0.152343 0.0586,-0.257812 l 0.83203,-3.375 h 2.25 c 1.40625,0 1.40625,1.3125 1.40625,1.40625 0,1.148437 -1.04297,2.367187 -2.51953,2.367187 z m 13.71973,-7.957031 c 0,-0.105469 -0.082,-0.105469 -0.10547,-0.105469 -0.0234,0 -0.0703,0 -0.17578,0.117188 l -0.82032,1.007812 c -0.42187,-0.714843 -1.07812,-1.125 -1.96875,-1.125 -2.58984,0 -5.26172,2.613282 -5.26172,5.425782 0,1.992187 1.39454,3.234375 3.14063,3.234375 0.96094,0 1.79297,-0.398438 2.48437,-0.984375 1.04297,-0.878907 1.35938,-2.039063 1.35938,-2.132813 0,-0.105469 -0.0937,-0.105469 -0.14063,-0.105469 -0.10546,0 -0.11718,0.07031 -0.14062,0.117188 -0.55078,1.863281 -2.15625,2.765625 -3.35156,2.765625 -1.27735,0 -2.36719,-0.820313 -2.36719,-2.507813 0,-0.386718 0.11719,-2.460937 1.46484,-4.03125 0.65625,-0.761718 1.78125,-1.441406 2.91797,-1.441406 1.3125,0 1.89844,1.089844 1.89844,2.308594 0,0.316406 -0.0352,0.574219 -0.0352,0.621094 0,0.117187 0.11719,0.117187 0.15235,0.117187 0.14062,0 0.15234,-0.01172 0.19922,-0.234375 z m 0,0"
         style="fill:#000000;fill-opacity:1;fill-rule:nonzero;stroke:none" />
      <path
         id="path18"
         d="m 124.63059,60.170898 c 0,-0.269531 0,-0.28125 -0.24609,-0.28125 -0.28125,0.316407 -0.87891,0.761719 -2.10937,0.761719 v 0.351563 c 0.26953,0 0.86718,0 1.52343,-0.316407 v 6.222657 c 0,0.433593 -0.0352,0.574218 -1.07812,0.574218 h -0.375 v 0.351563 c 0.3164,-0.02344 1.47656,-0.02344 1.875,-0.02344 0.39844,0 1.54687,0 1.86328,0.02344 v -0.351563 h -0.36328 c -1.05469,0 -1.08985,-0.140625 -1.08985,-0.574218 z m 0,0"
         style="fill:#000000;fill-opacity:1;fill-rule:nonzero;stroke:none" />
      <path
         id="path19"
         d="m -347.28933,74.5 c 0,-0.222656 0,-0.292969 -0.16406,-0.292969 -0.0937,0 -0.12891,0 -0.22266,0.152344 l -3.59765,5.578125 v 0.351563 h 3.14062 v 1.078125 c 0,0.445312 -0.0234,0.5625 -0.90234,0.5625 h -0.23438 v 0.351562 c 0.26953,-0.02344 1.21875,-0.02344 1.5586,-0.02344 0.32812,0 1.28906,0 1.55859,0.02344 v -0.351562 h -0.23437 c -0.86719,0 -0.90235,-0.117188 -0.90235,-0.5625 v -1.078125 h 1.20703 V 79.9375 h -1.20703 z m -0.78515,0.9375 v 4.5 h -2.90625 z m 0,0"
         style="fill:#000000;fill-opacity:1;fill-rule:nonzero;stroke:none" />
      <path
         id="path20"
         d="m -330.32351,78.800781 c 0,2.824219 -1.2539,3.410157 -1.96875,3.410157 -0.28125,0 -0.92578,-0.03516 -1.21875,-0.457032 h 0.0703 c 0.082,0.02344 0.51563,-0.04687 0.51563,-0.492187 0,-0.257813 -0.17578,-0.492188 -0.49219,-0.492188 -0.30469,0 -0.5039,0.210938 -0.5039,0.515625 0,0.75 0.59765,1.242188 1.64062,1.242188 1.5,0 2.94141,-1.582031 2.94141,-4.183594 0,-3.210937 -1.33594,-4.007812 -2.39063,-4.007812 -1.3125,0 -2.47265,1.101562 -2.47265,2.671875 0,1.582031 1.11328,2.660156 2.30859,2.660156 0.87891,0 1.33594,-0.644531 1.57031,-1.253906 z m -1.52344,0.621094 c -0.75,0 -1.07812,-0.609375 -1.18359,-0.832031 -0.19922,-0.457031 -0.19922,-1.03125 -0.19922,-1.570313 0,-0.667968 0,-1.242187 0.31641,-1.734375 0.21094,-0.316406 0.53906,-0.667968 1.18359,-0.667968 0.67969,0 1.03125,0.597656 1.14844,0.878906 0.23437,0.585937 0.23437,1.59375 0.23437,1.78125 0,0.996094 -0.44531,2.144531 -1.5,2.144531 z m 0,0"
         style="fill:#000000;fill-opacity:1;fill-rule:nonzero;stroke:none" />
      <path
         id="path21"
         d="m -199.38405,80.957031 c -0.41016,0.703125 -0.82032,0.9375 -1.39454,0.972657 -0.1289,0.01172 -0.22265,0.01172 -0.22265,0.234375 0,0.07031 0.0586,0.117187 0.14062,0.117187 0.21094,0 0.75,-0.02344 0.97266,-0.02344 0.33984,0 0.72656,0.02344 1.05469,0.02344 0.0703,0 0.22265,0 0.22265,-0.222656 0,-0.117188 -0.0937,-0.128906 -0.17578,-0.128906 -0.26953,-0.02344 -0.49219,-0.117188 -0.49219,-0.398438 0,-0.175781 0.0703,-0.304687 0.22266,-0.5625 l 0.90234,-1.511719 h 3.0586 c 0.0117,0.105469 0.0117,0.210938 0.0234,0.316407 0.0352,0.304687 0.17578,1.546875 0.17578,1.78125 0,0.351562 -0.60938,0.375 -0.79688,0.375 -0.14062,0 -0.26953,0 -0.26953,0.222656 0,0.128906 0.10547,0.128906 0.17578,0.128906 0.21094,0 0.44531,-0.02344 0.65625,-0.02344 h 0.67969 c 0.72656,0 1.25391,0.02344 1.26562,0.02344 0.082,0 0.21094,0 0.21094,-0.222656 0,-0.128906 -0.10547,-0.128906 -0.28125,-0.128906 -0.65625,0 -0.66797,-0.105469 -0.71484,-0.457032 l -0.72656,-7.464843 c -0.0234,-0.234375 -0.0703,-0.257813 -0.19922,-0.257813 -0.11719,0 -0.1875,0.02344 -0.30469,0.199219 z m 1.4414,-1.839843 2.40235,-4.019532 0.41015,4.019532 z m 9.67676,-4.183594 c 0.11719,-0.445313 0.16406,-0.46875 0.62109,-0.46875 h 1.5586 c 1.34765,0 1.34765,1.148437 1.34765,1.253906 0,0.972656 -0.96093,2.203125 -2.54297,2.203125 h -1.72265 z m 2.02734,3.082031 c 1.30078,-0.246094 2.48438,-1.148437 2.48438,-2.25 0,-0.925781 -0.83203,-1.652344 -2.17969,-1.652344 h -3.83203 c -0.23438,0 -0.33984,0 -0.33984,0.234375 0,0.117188 0.10546,0.117188 0.29296,0.117188 0.72657,0 0.72657,0.09375 0.72657,0.222656 0,0.02344 0,0.09375 -0.0469,0.28125 l -1.61719,6.433594 c -0.10546,0.410156 -0.1289,0.527344 -0.96093,0.527344 -0.23438,0 -0.35157,0 -0.35157,0.222656 0,0.128906 0.0703,0.128906 0.30469,0.128906 h 4.10156 c 1.82813,0 3.2461,-1.382812 3.2461,-2.589844 0,-0.984375 -0.86719,-1.582031 -1.82813,-1.675781 z m -1.69922,3.914063 h -1.61718 c -0.16407,0 -0.1875,0 -0.25782,-0.01172 -0.1289,-0.01172 -0.15234,-0.03516 -0.15234,-0.128906 0,-0.08203 0.0352,-0.152344 0.0586,-0.257813 l 0.83204,-3.375 h 2.25 c 1.40625,0 1.40625,1.3125 1.40625,1.40625 0,1.148438 -1.04297,2.367188 -2.51954,2.367188 z m 13.72266,-7.957032 c 0,-0.105468 -0.082,-0.105468 -0.10547,-0.105468 -0.0234,0 -0.0703,0 -0.17578,0.117187 l -0.82031,1.007813 c -0.42188,-0.714844 -1.07813,-1.125 -1.96875,-1.125 -2.58985,0 -5.26172,2.613281 -5.26172,5.425781 0,1.992187 1.39453,3.234375 3.14062,3.234375 0.96094,0 1.79297,-0.398438 2.48438,-0.984375 1.04297,-0.878906 1.35937,-2.039063 1.35937,-2.132813 0,-0.105468 -0.0937,-0.105468 -0.14062,-0.105468 -0.10547,0 -0.11719,0.07031 -0.14063,0.117187 -0.55078,1.863281 -2.15625,2.765625 -3.35156,2.765625 -1.27734,0 -2.36719,-0.820312 -2.36719,-2.507812 0,-0.386719 0.11719,-2.460938 1.46485,-4.03125 0.65625,-0.761719 1.78125,-1.441407 2.91797,-1.441407 1.3125,0 1.89843,1.089844 1.89843,2.308594 0,0.316406 -0.0351,0.574219 -0.0351,0.621094 0,0.117187 0.11719,0.117187 0.15234,0.117187 0.14063,0 0.15235,-0.01172 0.19922,-0.234375 z m 0,0"
         style="fill:#000000;fill-opacity:1;fill-rule:nonzero;stroke:none" />
    </g>
    <path
       id="path22"
       d="M 0,0 H 18.759"
       style="fill:none;stroke:#000000;stroke-width:0.478;stroke-linecap:butt;stroke-linejoin:miter;stroke-miterlimit:10;stroke-dasharray:none;stroke-opacity:1"
       transform="matrix(1.3333333,0,0,-1.3333333,264.92533,442.69733)" />
    <g
       id="g22"
       aria-label="xyzpodzielnychprzez3itakich,»e("
       transform="matrix(1.3333333,0,0,1.3333333,264.92533,451.792)">
      <path
         id="path23"
         d="m 5.6604922,-4.8742734 c -0.375,0.070312 -0.515625,0.3515625 -0.515625,0.5859375 0,0.28125 0.2226562,0.375 0.3867187,0.375 0.3632813,0 0.609375,-0.3046875 0.609375,-0.6328125 0,-0.4921875 -0.5742187,-0.7265625 -1.078125,-0.7265625 -0.7265625,0 -1.125,0.7148437 -1.2421875,0.9492187 -0.2695312,-0.9023437 -1.0078125,-0.9492187 -1.2304687,-0.9492187 -1.21875,0 -1.86328126,1.5703125 -1.86328126,1.828125 0,0.046875 0.046875,0.1054687 0.12890625,0.1054687 0.10546875,0 0.12890625,-0.070312 0.15234371,-0.1171875 0.3984375,-1.3242187 1.2070313,-1.5703125 1.546875,-1.5703125 0.5390625,0 0.6445313,0.4921875 0.6445313,0.7851563 0,0.2578125 -0.070312,0.5390625 -0.2109375,1.1132812 l -0.4101563,1.6289063 c -0.1757812,0.72656246 -0.5273437,1.38281246 -1.1601562,1.38281246 -0.058594,0 -0.3515625,0 -0.60937501,-0.15234375 0.43359371,-0.09375 0.52734371,-0.4453125 0.52734371,-0.5859375 0,-0.24609371 -0.1757812,-0.38671871 -0.39843746,-0.38671871 -0.29296875,0 -0.59765625,0.24609371 -0.59765625,0.63281246 0,0.50390625 0.5625,0.7265625 1.06640621,0.7265625 0.5742188,0 0.984375,-0.45703125 1.2304688,-0.9375 0.1992187,0.703125 0.796875,0.9375 1.2304687,0.9375 1.2304688,0 1.875,-1.55859376 1.875,-1.82812496 0,-0.058594 -0.046875,-0.1054688 -0.1289062,-0.1054688 -0.1054688,0 -0.1171875,0.058594 -0.1523438,0.1523438 -0.3164062,1.05468746 -1.0195312,1.54687496 -1.546875,1.54687496 -0.421875,0 -0.65625,-0.31640625 -0.65625,-0.80859375 0,-0.25781251 0.058594,-0.44531251 0.2460938,-1.24218751 l 0.421875,-1.6171875 c 0.1757812,-0.7265625 0.5859375,-1.2421875 1.125,-1.2421875 0.035156,0 0.3632812,0 0.609375,0.1523438 z M 9.7913516,1.3366641 C 9.4749453,1.7936953 9.0061953,2.2038516 8.4202578,2.2038516 c -0.140625,0 -0.7148437,-0.023437 -0.9023437,-0.5742188 0.046875,0.011719 0.1054687,0.011719 0.1289062,0.011719 0.3515625,0 0.5976563,-0.3164063 0.5976563,-0.5859375 0,-0.28125004 -0.234375,-0.37500004 -0.4101563,-0.37500004 -0.1875,0 -0.609375,0.140625 -0.609375,0.72656254 0,0.609375 0.515625,1.03125 1.1953125,1.03125 1.1953125,0 2.4023442,-1.1015625 2.7421872,-2.42578129 L 12.33432,-4.6516172 c 0.01172,-0.058594 0.03516,-0.1289062 0.03516,-0.1992187 0,-0.1757813 -0.152344,-0.3046875 -0.328125,-0.3046875 -0.105469,0 -0.363282,0.046875 -0.457032,0.4101562 l -0.878906,3.515625 c -0.05859,0.2109375 -0.05859,0.23437501 -0.152344,0.37500001 -0.246093,0.328125 -0.6445309,0.73828125 -1.2070309,0.73828125 -0.6796875,0 -0.7382813,-0.65625 -0.7382813,-0.98437496 0,-0.6796875 0.328125,-1.6054688 0.6445313,-2.4609375 0.140625,-0.3515625 0.2109375,-0.515625 0.2109375,-0.75 0,-0.5039063 -0.3632813,-0.9609375 -0.9492188,-0.9609375 -1.1015625,0 -1.5351562,1.734375 -1.5351562,1.828125 0,0.046875 0.046875,0.1054687 0.1289062,0.1054687 0.1054688,0 0.1171875,-0.046875 0.1640625,-0.2109375 0.2929688,-1.0078125 0.7382813,-1.4765625 1.2070313,-1.4765625 0.1054687,0 0.3164062,0 0.3164062,0.3867188 0,0.3164062 -0.140625,0.65625 -0.3164062,1.1132812 -0.5859375,1.5703125 -0.5859375,1.9570313 -0.5859375,2.25 0,1.13671876 0.8085937,1.39453126 1.40625,1.39453126 0.3515625,0 0.7851559,-0.10546875 1.1953129,-0.55078125 l 0.01172,0.0117188 c -0.175781,0.703125 -0.292968,1.171875 -0.7148434,1.75781249 z m 4.5205074,-2.30859379 c 0.503907,-0.58593751 0.925782,-0.94921871 1.523438,-1.48828121 0.714844,-0.6210938 1.03125,-0.9257813 1.195312,-1.1015625 0.84375,-0.8203125 1.253907,-1.5234375 1.253907,-1.6171875 0,-0.09375 -0.09375,-0.09375 -0.117188,-0.09375 -0.08203,0 -0.105469,0.046875 -0.164062,0.1289062 -0.304688,0.515625 -0.585938,0.7734375 -0.902344,0.7734375 -0.246094,0 -0.375,-0.1171875 -0.609375,-0.3984375 -0.246094,-0.2929687 -0.457031,-0.5039062 -0.796875,-0.5039062 -0.878906,0 -1.394531,1.0898437 -1.394531,1.3359375 0,0.035156 0.01172,0.1171875 0.117187,0.1171875 0.09375,0 0.105469,-0.046875 0.140625,-0.140625 0.199219,-0.46875 0.773438,-0.5625 1.007813,-0.5625 0.246093,0 0.480468,0.09375 0.738281,0.1992187 0.457031,0.1875 0.644531,0.1875 0.761719,0.1875 0.08203,0 0.128906,0 0.1875,-0.011719 -0.386719,0.46875 -1.03125,1.0429687 -1.570313,1.5351562 l -1.207031,1.1015625 c -0.726563,0.75000001 -1.171875,1.45312501 -1.171875,1.53515626 0,0.0703125 0.05859,0.09375 0.128906,0.09375 0.07031,0 0.08203,-0.0117188 0.164063,-0.15234375 0.199218,-0.3046875 0.574218,-0.73828125 1.019531,-0.73828125 0.246094,0 0.375,0.0820313 0.609375,0.375 0.222656,0.26953125 0.433594,0.515625 0.808594,0.515625 1.171875,0 1.851562,-1.51171876 1.851562,-1.79296876 0,-0.046875 -0.01172,-0.1171875 -0.140625,-0.1171875 -0.09375,0 -0.105469,0.046875 -0.140625,0.1640625 -0.257812,0.70312501 -0.972656,0.99609376 -1.429687,0.99609376 -0.257813,0 -0.492188,-0.0820313 -0.75,-0.1875 C 14.956391,-1.018805 14.815766,-1.018805 14.663422,-1.018805 c -0.117188,0 -0.246094,0 -0.351563,0.0468753 z m 0,0"
         style="fill:#000000;fill-opacity:1;fill-rule:nonzero;stroke:none" />
      <path
         id="path24"
         d="m 119.25327,-4.2883359 c -0.21094,0.011719 -0.25782,0.023437 -0.25782,0.1289062 0,0.1171875 0.0586,0.1171875 0.28125,0.1171875 h 0.55078 c 1.00782,0 1.46485,0.84375 1.46485,1.9921875 0,1.55859376 -0.8086,1.98046876 -1.39453,1.98046876 -0.57422,0 -1.5586,-0.28125 -1.89844,-1.06640626 0.375,0.058594 0.72656,-0.1523437 0.72656,-0.5859375 0,-0.3398437 -0.25781,-0.5859375 -0.58594,-0.5859375 -0.29296,0 -0.59765,0.1640625 -0.59765,0.6210938 0,1.06640621 1.0664,1.93359371 2.39062,1.93359371 1.41797,0 2.47266,-1.078125 2.47266,-2.28515621 0,-1.1015625 -0.89063,-1.96875 -2.02734,-2.1679688 1.03125,-0.3046875 1.69921,-1.171875 1.69921,-2.109375 0,-0.9375 -0.97265,-1.6289062 -2.13281,-1.6289062 -1.19531,0 -2.08594,0.7265625 -2.08594,1.59375 0,0.4804687 0.375,0.5742187 0.55079,0.5742187 0.25781,0 0.53906,-0.1757812 0.53906,-0.5390625 0,-0.375 -0.28125,-0.5390625 -0.55078,-0.5390625 -0.0703,0 -0.0937,0 -0.12891,0.011719 0.45703,-0.8203125 1.58203,-0.8203125 1.64063,-0.8203125 0.38671,0 1.17187,0.1757812 1.17187,1.3476562 0,0.234375 -0.0352,0.9023438 -0.38672,1.4179688 -0.35156,0.5273437 -0.76172,0.5625 -1.08984,0.5742187 z m 0,0"
         style="fill:#000000;fill-opacity:1;fill-rule:nonzero;stroke:none" />
      <path
         id="path25"
         d="m 190.24252,2.9069766 c 0,-0.035156 0,-0.058594 -0.21093,-0.2695313 -1.19532,-1.2070312 -1.86329,-3.17578124 -1.86329,-5.6132812 0,-2.3203125 0.5625,-4.3125 1.94532,-5.7304688 0.1289,-0.1054687 0.1289,-0.1289062 0.1289,-0.1640625 0,-0.070312 -0.0703,-0.09375 -0.11718,-0.09375 -0.15235,0 -1.13672,0.8554688 -1.72266,2.0273438 -0.60938,1.2070312 -0.87891,2.4960937 -0.87891,3.9609375 0,1.0664062 0.16407,2.48437496 0.78516,3.76171871 0.70312,1.44140629 1.6875,2.21484379 1.81641,2.21484379 0.0469,0 0.11718,-0.023437 0.11718,-0.09375 z m 0,0"
         style="fill:#000000;fill-opacity:1;fill-rule:nonzero;stroke:none" />
    </g>
    <path
       id="path26"
       d="M 0,0 H 12.789"
       style="fill:none;stroke:#000000;stroke-width:0.478;stroke-linecap:butt;stroke-linejoin:miter;stroke-miterlimit:10;stroke-dasharray:none;stroke-opacity:1"
       transform="matrix(1.3333333,0,0,-1.3333333,519.464,442.69733)" />
    <g
       id="g26"
       aria-label="xy)&#10;2&#10;+("
       transform="matrix(1.3333333,0,0,1.3333333,519.464,451.792)">
      <path
         id="path27"
         d="m 5.6607891,-4.8742734 c -0.375,0.070312 -0.515625,0.3515625 -0.515625,0.5859375 0,0.28125 0.2226562,0.375 0.3867187,0.375 0.3632813,0 0.609375,-0.3046875 0.609375,-0.6328125 0,-0.4921875 -0.5742187,-0.7265625 -1.078125,-0.7265625 -0.7265625,0 -1.125,0.7148437 -1.2421875,0.9492187 -0.2695312,-0.9023437 -1.0078125,-0.9492187 -1.2304687,-0.9492187 -1.21875,0 -1.86328129,1.5703125 -1.86328129,1.828125 0,0.046875 0.046875,0.1054687 0.12890625,0.1054687 0.10546875,0 0.12890625,-0.070312 0.15234374,-0.1171875 0.3984375,-1.3242187 1.2070313,-1.5703125 1.546875,-1.5703125 0.5390625,0 0.6445313,0.4921875 0.6445313,0.7851563 0,0.2578125 -0.070312,0.5390625 -0.2109375,1.1132812 l -0.4101563,1.6289063 c -0.1757812,0.72656246 -0.5273437,1.38281246 -1.1601562,1.38281246 -0.058594,0 -0.3515625,0 -0.60937504,-0.15234375 0.43359374,-0.09375 0.52734374,-0.4453125 0.52734374,-0.5859375 0,-0.24609371 -0.1757812,-0.38671871 -0.39843749,-0.38671871 -0.29296875,0 -0.59765625,0.24609371 -0.59765625,0.63281246 0,0.50390625 0.5625,0.7265625 1.06640624,0.7265625 0.5742188,0 0.984375,-0.45703125 1.2304688,-0.9375 0.1992187,0.703125 0.796875,0.9375 1.2304687,0.9375 1.2304688,0 1.875,-1.55859376 1.875,-1.82812496 0,-0.058594 -0.046875,-0.1054688 -0.1289062,-0.1054688 -0.1054688,0 -0.1171875,0.058594 -0.1523438,0.1523438 -0.3164062,1.05468746 -1.0195312,1.54687496 -1.546875,1.54687496 -0.421875,0 -0.65625,-0.31640625 -0.65625,-0.80859375 0,-0.25781251 0.058594,-0.44531251 0.2460938,-1.24218751 l 0.421875,-1.6171875 c 0.1757812,-0.7265625 0.5859375,-1.2421875 1.125,-1.2421875 0.035156,0 0.3632812,0 0.609375,0.1523438 z M 9.7916484,1.3366641 C 9.4752422,1.7936953 9.0064922,2.2038516 8.4205547,2.2038516 c -0.140625,0 -0.7148438,-0.023437 -0.9023438,-0.5742188 0.046875,0.011719 0.1054688,0.011719 0.1289063,0.011719 0.3515625,0 0.5976562,-0.3164063 0.5976562,-0.5859375 0,-0.28125004 -0.234375,-0.37500004 -0.4101562,-0.37500004 -0.1875,0 -0.609375,0.140625 -0.609375,0.72656254 0,0.609375 0.515625,1.03125 1.1953125,1.03125 1.1953125,0 2.4023433,-1.1015625 2.7421873,-2.42578129 L 12.334617,-4.651617 c 0.01172,-0.058594 0.03516,-0.1289062 0.03516,-0.1992187 0,-0.1757813 -0.152343,-0.3046875 -0.328125,-0.3046875 -0.105468,0 -0.363281,0.046875 -0.457031,0.4101562 l -0.878906,3.515625 c -0.05859,0.2109375 -0.05859,0.23437501 -0.152344,0.37500001 -0.246094,0.328125 -0.6445311,0.73828125 -1.2070311,0.73828125 -0.6796875,0 -0.7382812,-0.65625 -0.7382812,-0.98437496 0,-0.6796875 0.328125,-1.6054688 0.6445312,-2.4609375 0.140625,-0.3515625 0.2109375,-0.515625 0.2109375,-0.75 0,-0.5039063 -0.3632812,-0.9609375 -0.9492187,-0.9609375 -1.1015625,0 -1.5351563,1.734375 -1.5351563,1.828125 0,0.046875 0.046875,0.1054687 0.1289063,0.1054687 0.1054687,0 0.1171875,-0.046875 0.1640625,-0.2109375 0.2929687,-1.0078125 0.7382812,-1.4765625 1.2070312,-1.4765625 0.1054688,0 0.3164063,0 0.3164063,0.3867188 0,0.3164062 -0.140625,0.65625 -0.3164063,1.1132812 -0.5859375,1.5703125 -0.5859375,1.9570313 -0.5859375,2.25 0,1.13671876 0.8085938,1.39453126 1.40625,1.39453126 0.3515625,0 0.7851561,-0.10546875 1.1953121,-0.55078125 l 0.01172,0.0117188 c -0.175781,0.703125 -0.292969,1.171875 -0.7148436,1.75781249 z m 0,0"
         style="fill:#000000;fill-opacity:1;fill-rule:nonzero;stroke:none" />
      <path
         id="path28"
         d="m 16.163719,-2.9758359 c 0,-0.9140625 -0.128906,-2.390625 -0.796875,-3.7734375 -0.703125,-1.4414063 -1.675781,-2.2148438 -1.816406,-2.2148438 -0.04687,0 -0.105469,0.023437 -0.105469,0.09375 0,0.035156 0,0.058594 0.199219,0.2695313 1.195312,1.2070312 1.875,3.1757812 1.875,5.6132812 0,2.32031251 -0.5625,4.3125 -1.957032,5.7304688 -0.117187,0.1054687 -0.117187,0.1289062 -0.117187,0.1640625 0,0.070312 0.05859,0.09375 0.105469,0.09375 0.164062,0 1.136718,-0.8554688 1.722656,-2.02734379 0.609375,-1.21875 0.890625,-2.51953121 0.890625,-3.94921871 z m 0,0"
         style="fill:#000000;fill-opacity:1;fill-rule:nonzero;stroke:none" />
      <path
         id="path29"
         d="m 19.591453,-7.4406797 c 0.128906,-0.1171875 0.457031,-0.375 0.585938,-0.4921875 0.492187,-0.4570312 0.960937,-0.890625 0.960937,-1.6171875 0,-0.9492183 -0.796875,-1.5585933 -1.792969,-1.5585933 -0.949218,0 -1.582031,0.726562 -1.582031,1.4296871 0,0.3984375 0.316406,0.4453125 0.421875,0.4453125 0.164063,0 0.410156,-0.1171875 0.410156,-0.421875 0,-0.4101566 -0.398437,-0.4101566 -0.492187,-0.4101566 0.234375,-0.585937 0.773437,-0.785156 1.160156,-0.785156 0.738281,0 1.125,0.632813 1.125,1.3007813 0,0.8320313 -0.585937,1.4296875 -1.523437,2.4023438 l -1.007813,1.03125 c -0.09375,0.09375 -0.09375,0.1054687 -0.09375,0.3046875 h 3.152344 l 0.222656,-1.4296875 h -0.246094 c -0.02344,0.1640625 -0.08203,0.5625 -0.175781,0.7148437 -0.04687,0.058594 -0.65625,0.058594 -0.785156,0.058594 h -1.417969 z m 0,0"
         style="fill:#000000;fill-opacity:1;fill-rule:nonzero;stroke:none" />
      <path
         id="path30"
         d="m 29.353172,-2.7648984 h 3.304687 c 0.164063,0 0.375,0 0.375,-0.2109375 0,-0.2226563 -0.199218,-0.2226563 -0.375,-0.2226563 h -3.304687 v -3.3046875 c 0,-0.1640625 0,-0.3867187 -0.210938,-0.3867187 -0.234375,0 -0.234375,0.2109375 -0.234375,0.3867187 v 3.3046875 h -3.292968 c -0.175782,0 -0.386719,0 -0.386719,0.2109375 0,0.2226563 0.199219,0.2226563 0.386719,0.2226563 h 3.292968 v 3.30468746 c 0,0.1640625 0,0.38671875 0.222657,0.38671875 0.222656,0 0.222656,-0.2109375 0.222656,-0.38671875 z m 10.737305,5.671875 c 0,-0.035156 0,-0.058594 -0.210938,-0.2695313 -1.195312,-1.2070312 -1.863281,-3.17578124 -1.863281,-5.6132812 0,-2.3203125 0.5625,-4.3125 1.945312,-5.7304688 0.128907,-0.1054687 0.128907,-0.1289062 0.128907,-0.1640625 0,-0.070312 -0.07031,-0.09375 -0.117188,-0.09375 -0.152344,0 -1.136719,0.8554688 -1.722656,2.0273438 -0.609375,1.2070312 -0.878906,2.4960937 -0.878906,3.9609375 0,1.0664062 0.164062,2.48437496 0.785156,3.76171871 0.703125,1.44140629 1.6875,2.21484379 1.816406,2.21484379 0.04687,0 0.117188,-0.023437 0.117188,-0.09375 z m 0,0"
         style="fill:#000000;fill-opacity:1;fill-rule:nonzero;stroke:none" />
    </g>
    <path
       id="path31"
       d="M 0,0 H 12.107"
       style="fill:none;stroke:#000000;stroke-width:0.478;stroke-linecap:butt;stroke-linejoin:miter;stroke-miterlimit:10;stroke-dasharray:none;stroke-opacity:1"
       transform="matrix(1.3333333,0,0,-1.3333333,573.804,442.69733)" />
    <g
       id="g31"
       aria-label="yz)&#10;2&#10;=("
       transform="matrix(1.3333333,0,0,1.3333333,573.804,451.792)">
      <path
         id="path32"
         d="M 3.1411406,1.3366641 C 2.8247344,1.7936953 2.3559844,2.2038516 1.7700469,2.2038516 c -0.140625,0 -0.7148438,-0.023437 -0.90234377,-0.5742188 0.046875,0.011719 0.10546875,0.011719 0.12890625,0.011719 0.35156252,0 0.59765622,-0.3164063 0.59765622,-0.5859375 0,-0.28125004 -0.234375,-0.37500004 -0.4101562,-0.37500004 -0.18750002,0 -0.60937502,0.140625 -0.60937502,0.72656254 0,0.609375 0.51562502,1.03125 1.19531252,1.03125 1.1953125,0 2.4023437,-1.1015625 2.7421875,-2.42578129 L 5.6841094,-4.651617 c 0.011719,-0.058594 0.035156,-0.1289062 0.035156,-0.1992187 0,-0.1757813 -0.1523437,-0.3046875 -0.328125,-0.3046875 -0.1054687,0 -0.3632812,0.046875 -0.4570312,0.4101562 l -0.8789063,3.515625 c -0.058594,0.2109375 -0.058594,0.23437501 -0.1523437,0.37500001 -0.2460938,0.328125 -0.6445313,0.73828125 -1.2070313,0.73828125 -0.6796875,0 -0.7382812,-0.65625 -0.7382812,-0.98437496 0,-0.6796875 0.328125,-1.6054688 0.6445312,-2.4609375 0.140625,-0.3515625 0.2109375,-0.515625 0.2109375,-0.75 0,-0.5039063 -0.3632812,-0.9609375 -0.9492187,-0.9609375 -1.10156252,0 -1.53515627,1.734375 -1.53515627,1.828125 0,0.046875 0.046875,0.1054687 0.12890625,0.1054687 0.10546875,0 0.1171875,-0.046875 0.1640625,-0.2109375 C 0.91457793,-4.557867 1.3598904,-5.026617 1.8286404,-5.026617 c 0.1054688,0 0.3164063,0 0.3164063,0.3867188 0,0.3164062 -0.140625,0.65625 -0.3164063,1.1132812 -0.5859375,1.5703125 -0.5859375,1.9570313 -0.5859375,2.25 0,1.13671876 0.8085938,1.39453126 1.40625,1.39453126 0.3515625,0 0.7851563,-0.10546875 1.1953125,-0.55078125 l 0.011719,0.0117188 C 3.6802031,0.28197656 3.5630156,0.75072656 3.1411406,1.3366641 Z M 7.6616484,-0.97192969 C 8.1655547,-1.5578672 8.5874297,-1.9211484 9.1850859,-2.4602109 c 0.7148438,-0.6210938 1.0312501,-0.9257813 1.1953121,-1.1015625 0.84375,-0.8203125 1.253907,-1.5234375 1.253907,-1.6171875 0,-0.09375 -0.09375,-0.09375 -0.117188,-0.09375 -0.08203,0 -0.105469,0.046875 -0.164062,0.1289062 -0.304688,0.515625 -0.585938,0.7734375 -0.902344,0.7734375 -0.246094,0 -0.375,-0.1171875 -0.6093751,-0.3984375 -0.2460937,-0.2929687 -0.4570312,-0.5039062 -0.796875,-0.5039062 -0.8789062,0 -1.3945312,1.0898437 -1.3945312,1.3359375 0,0.035156 0.011719,0.1171875 0.1171875,0.1171875 0.09375,0 0.1054687,-0.046875 0.140625,-0.140625 0.1992187,-0.46875 0.7734375,-0.5625 1.0078125,-0.5625 0.2460937,0 0.4804687,0.09375 0.7382812,0.1992187 0.4570311,0.1875 0.6445311,0.1875 0.7617191,0.1875 0.08203,0 0.128906,0 0.1875,-0.011719 -0.386719,0.46875 -1.0312503,1.0429687 -1.5703128,1.5351562 l -1.2070313,1.1015625 c -0.7265625,0.75000001 -1.171875,1.45312501 -1.171875,1.53515626 0,0.0703125 0.058594,0.09375 0.1289063,0.09375 0.070312,0 0.082031,-0.0117188 0.1640625,-0.15234375 0.1992187,-0.3046875 0.5742187,-0.73828125 1.0195312,-0.73828125 0.2460938,0 0.375,0.0820313 0.609375,0.375 0.2226563,0.26953125 0.4335938,0.515625 0.8085938,0.515625 1.1718753,0 1.8515623,-1.51171876 1.8515623,-1.79296876 0,-0.046875 -0.01172,-0.1171875 -0.140625,-0.1171875 -0.09375,0 -0.105469,0.046875 -0.140625,0.1640625 -0.257812,0.70312501 -0.9726561,0.99609376 -1.4296873,0.99609376 -0.2578125,0 -0.4921875,-0.0820313 -0.75,-0.1875 C 8.3061797,-1.018805 8.1655547,-1.018805 8.0132109,-1.018805 c -0.1171875,0 -0.2460937,0 -0.3515625,0.0468753 z m 0,0"
         style="fill:#000000;fill-opacity:1;fill-rule:nonzero;stroke:none" />
      <path
         id="path33"
         d="m 15.480984,-2.9758359 c 0,-0.9140625 -0.128906,-2.390625 -0.796875,-3.7734375 -0.703125,-1.4414063 -1.675781,-2.2148438 -1.816406,-2.2148438 -0.04687,0 -0.105469,0.023437 -0.105469,0.09375 0,0.035156 0,0.058594 0.199219,0.2695313 1.195313,1.2070312 1.875,3.1757812 1.875,5.6132812 0,2.32031251 -0.5625,4.3125 -1.957031,5.7304688 -0.117188,0.1054687 -0.117188,0.1289062 -0.117188,0.1640625 0,0.070312 0.05859,0.09375 0.105469,0.09375 0.164063,0 1.136719,-0.8554688 1.722656,-2.02734379 0.609375,-1.21875 0.890625,-2.51953121 0.890625,-3.94921871 z m 0,0"
         style="fill:#000000;fill-opacity:1;fill-rule:nonzero;stroke:none" />
      <path
         id="path34"
         d="m 18.908719,-7.4406797 c 0.128906,-0.1171875 0.457031,-0.375 0.585937,-0.4921875 0.492188,-0.4570312 0.960938,-0.890625 0.960938,-1.6171875 0,-0.9492183 -0.796875,-1.5585933 -1.792969,-1.5585933 -0.949219,0 -1.582031,0.726562 -1.582031,1.4296871 0,0.3984375 0.316406,0.4453125 0.421875,0.4453125 0.164062,0 0.410156,-0.1171875 0.410156,-0.421875 0,-0.4101566 -0.398437,-0.4101566 -0.492187,-0.4101566 0.234375,-0.585937 0.773437,-0.785156 1.160156,-0.785156 0.738281,0 1.125,0.632813 1.125,1.3007813 0,0.8320313 -0.585938,1.4296875 -1.523438,2.4023438 l -1.007812,1.03125 c -0.09375,0.09375 -0.09375,0.1054687 -0.09375,0.3046875 h 3.152344 l 0.222656,-1.4296875 H 20.2095 c -0.02344,0.1640625 -0.08203,0.5625 -0.175781,0.7148437 -0.04687,0.058594 -0.65625,0.058594 -0.785156,0.058594 h -1.417969 z m 0,0"
         style="fill:#000000;fill-opacity:1;fill-rule:nonzero;stroke:none" />
      <path
         id="path35"
         d="m 32.786648,-3.8664609 c 0.164063,0 0.375,0 0.375,-0.2226563 0,-0.2226562 -0.199218,-0.2226562 -0.375,-0.2226562 H 25.74368 c -0.175782,0 -0.386719,0 -0.386719,0.2109375 0,0.234375 0.199219,0.234375 0.386719,0.234375 z m 0,2.2148437 c 0.164063,0 0.375,0 0.375,-0.2109375 0,-0.234375 -0.199218,-0.234375 -0.375,-0.234375 H 25.74368 c -0.175782,0 -0.386719,0 -0.386719,0.2226563 0,0.2226562 0.199219,0.2226562 0.386719,0.2226562 z m 8.244141,4.5585938 c 0,-0.035156 0,-0.058594 -0.210937,-0.2695313 -1.195313,-1.2070312 -1.863282,-3.17578124 -1.863282,-5.6132812 0,-2.3203125 0.5625,-4.3125 1.945313,-5.7304688 0.128906,-0.1054687 0.128906,-0.1289062 0.128906,-0.1640625 0,-0.070312 -0.07031,-0.09375 -0.117187,-0.09375 -0.152344,0 -1.136719,0.8554688 -1.722657,2.0273438 -0.609375,1.2070312 -0.878906,2.4960937 -0.878906,3.9609375 0,1.0664062 0.164063,2.48437496 0.785156,3.76171871 0.703125,1.44140629 1.6875,2.21484379 1.816407,2.21484379 0.04687,0 0.117187,-0.023437 0.117187,-0.09375 z m 0,0"
         style="fill:#000000;fill-opacity:1;fill-rule:nonzero;stroke:none" />
    </g>
    <path
       id="path36"
       d="M 0,0 H 12.789"
       style="fill:none;stroke:#000000;stroke-width:0.478;stroke-linecap:butt;stroke-linejoin:miter;stroke-miterlimit:10;stroke-dasharray:none;stroke-opacity:1"
       transform="matrix(1.3333333,0,0,-1.3333333,629.39067,442.69733)" />
    <g
       id="g36"
       aria-label="yx)&#10;2&#10;+("
       transform="matrix(1.3333333,0,0,1.3333333,629.39067,451.792)">
      <path
         id="path37"
         d="M 3.1405937,1.3366641 C 2.8241875,1.7936953 2.3554375,2.2038516 1.7695,2.2038516 c -0.140625,0 -0.7148438,-0.023437 -0.90234375,-0.5742188 0.046875,0.011719 0.10546875,0.011719 0.12890625,0.011719 0.3515625,0 0.5976562,-0.3164063 0.5976562,-0.5859375 0,-0.28125004 -0.234375,-0.37500004 -0.4101562,-0.37500004 -0.1875,0 -0.609375,0.140625 -0.609375,0.72656254 0,0.609375 0.515625,1.03125 1.1953125,1.03125 1.1953125,0 2.4023437,-1.1015625 2.7421875,-2.42578129 L 5.6835625,-4.651617 c 0.011719,-0.058594 0.035156,-0.1289062 0.035156,-0.1992187 0,-0.1757813 -0.1523437,-0.3046875 -0.328125,-0.3046875 -0.1054687,0 -0.3632812,0.046875 -0.4570312,0.4101562 L 4.054656,-1.229742 c -0.058594,0.2109375 -0.058594,0.23437501 -0.1523437,0.37500001 -0.2460938,0.328125 -0.6445313,0.73828125 -1.2070313,0.73828125 -0.6796875,0 -0.7382812,-0.65625 -0.7382812,-0.98437496 0,-0.6796875 0.328125,-1.6054688 0.6445312,-2.4609375 0.140625,-0.3515625 0.2109375,-0.515625 0.2109375,-0.75 0,-0.5039063 -0.3632812,-0.9609375 -0.9492187,-0.9609375 -1.1015625,0 -1.53515625,1.734375 -1.53515625,1.828125 0,0.046875 0.046875,0.1054687 0.12890625,0.1054687 0.10546875,0 0.1171875,-0.046875 0.1640625,-0.2109375 0.29296875,-1.0078125 0.7382812,-1.4765625 1.2070312,-1.4765625 0.1054688,0 0.3164063,0 0.3164063,0.3867188 0,0.3164062 -0.140625,0.65625 -0.3164063,1.1132812 -0.5859375,1.5703125 -0.5859375,1.9570313 -0.5859375,2.25 0,1.13671876 0.8085938,1.39453126 1.40625,1.39453126 0.3515625,0 0.7851563,-0.10546875 1.1953125,-0.55078125 l 0.011719,0.0117188 C 3.6796562,0.28197656 3.5624687,0.75072656 3.1405937,1.3366641 Z M 11.79782,-4.8742734 c -0.375,0.070312 -0.515625,0.3515625 -0.515625,0.5859375 0,0.28125 0.222657,0.375 0.386719,0.375 0.363281,0 0.609375,-0.3046875 0.609375,-0.6328125 0,-0.4921875 -0.574219,-0.7265625 -1.078125,-0.7265625 -0.726562,0 -1.125,0.7148437 -1.2421874,0.9492187 -0.2695313,-0.9023437 -1.0078125,-0.9492187 -1.2304688,-0.9492187 -1.21875,0 -1.8632812,1.5703125 -1.8632812,1.828125 0,0.046875 0.046875,0.1054687 0.1289062,0.1054687 0.1054688,0 0.1289063,-0.070312 0.1523438,-0.1171875 0.3984375,-1.3242187 1.2070312,-1.5703125 1.546875,-1.5703125 0.5390625,0 0.6445312,0.4921875 0.6445312,0.7851563 0,0.2578125 -0.070312,0.5390625 -0.2109375,1.1132812 l -0.4101562,1.6289063 c -0.1757813,0.72656246 -0.5273438,1.38281246 -1.1601563,1.38281246 -0.058594,0 -0.3515625,0 -0.609375,-0.15234375 0.4335938,-0.09375 0.5273438,-0.4453125 0.5273438,-0.5859375 0,-0.24609371 -0.1757813,-0.38671871 -0.3984375,-0.38671871 -0.2929688,0 -0.5976563,0.24609371 -0.5976563,0.63281246 0,0.50390625 0.5625,0.7265625 1.0664063,0.7265625 0.5742187,0 0.984375,-0.45703125 1.2304687,-0.9375 0.1992188,0.703125 0.796875,0.9375 1.2304692,0.9375 1.230468,0 1.875,-1.55859376 1.875,-1.82812496 0,-0.058594 -0.04687,-0.1054688 -0.128907,-0.1054688 -0.105468,0 -0.117187,0.058594 -0.152343,0.1523438 -0.316407,1.05468746 -1.019532,1.54687496 -1.546875,1.54687496 -0.4218754,0 -0.6562504,-0.31640625 -0.6562504,-0.80859375 0,-0.25781251 0.058594,-0.44531251 0.2460937,-1.24218751 l 0.4218747,-1.6171875 c 0.175782,-0.7265625 0.585938,-1.2421875 1.125,-1.2421875 0.03516,0 0.363282,0 0.609375,0.1523438 z m 0,0"
         style="fill:#000000;fill-opacity:1;fill-rule:nonzero;stroke:none" />
      <path
         id="path38"
         d="m 16.163055,-2.9758359 c 0,-0.9140625 -0.128907,-2.390625 -0.796875,-3.7734375 -0.703125,-1.4414063 -1.675782,-2.2148438 -1.816407,-2.2148438 -0.04687,0 -0.105468,0.023437 -0.105468,0.09375 0,0.035156 0,0.058594 0.199218,0.2695313 1.195313,1.2070312 1.875,3.1757812 1.875,5.6132812 0,2.32031251 -0.5625,4.3125 -1.957031,5.7304688 -0.117187,0.1054687 -0.117187,0.1289062 -0.117187,0.1640625 0,0.070312 0.05859,0.09375 0.105468,0.09375 0.164063,0 1.136719,-0.8554688 1.722657,-2.02734379 0.609375,-1.21875 0.890625,-2.51953121 0.890625,-3.94921871 z m 0,0"
         style="fill:#000000;fill-opacity:1;fill-rule:nonzero;stroke:none" />
      <path
         id="path39"
         d="m 19.590789,-7.4406797 c 0.128906,-0.1171875 0.457031,-0.375 0.585938,-0.4921875 0.492187,-0.4570312 0.960937,-0.890625 0.960937,-1.6171875 0,-0.9492183 -0.796875,-1.5585933 -1.792969,-1.5585933 -0.949218,0 -1.582031,0.726562 -1.582031,1.4296871 0,0.3984375 0.316406,0.4453125 0.421875,0.4453125 0.164063,0 0.410156,-0.1171875 0.410156,-0.421875 0,-0.4101566 -0.398437,-0.4101566 -0.492187,-0.4101566 0.234375,-0.585937 0.773437,-0.785156 1.160156,-0.785156 0.738281,0 1.125,0.632813 1.125,1.3007813 0,0.8320313 -0.585937,1.4296875 -1.523437,2.4023438 l -1.007813,1.03125 c -0.09375,0.09375 -0.09375,0.1054687 -0.09375,0.3046875 h 3.152344 l 0.222656,-1.4296875 H 20.89157 c -0.02344,0.1640625 -0.08203,0.5625 -0.175781,0.7148437 -0.04687,0.058594 -0.65625,0.058594 -0.785156,0.058594 h -1.417969 z m 0,0"
         style="fill:#000000;fill-opacity:1;fill-rule:nonzero;stroke:none" />
      <path
         id="path40"
         d="m 29.355437,-2.7648984 h 3.304688 c 0.164062,0 0.375,0 0.375,-0.2109375 0,-0.2226563 -0.199219,-0.2226563 -0.375,-0.2226563 h -3.304688 v -3.3046875 c 0,-0.1640625 0,-0.3867187 -0.210937,-0.3867187 -0.234375,0 -0.234375,0.2109375 -0.234375,0.3867187 v 3.3046875 h -3.292969 c -0.175781,0 -0.386719,0 -0.386719,0.2109375 0,0.2226563 0.199219,0.2226563 0.386719,0.2226563 h 3.292969 v 3.30468746 c 0,0.1640625 0,0.38671875 0.222656,0.38671875 0.222656,0 0.222656,-0.2109375 0.222656,-0.38671875 z m 10.737305,5.671875 c 0,-0.035156 0,-0.058594 -0.210937,-0.2695313 -1.195313,-1.2070312 -1.863282,-3.17578124 -1.863282,-5.6132812 0,-2.3203125 0.5625,-4.3125 1.945313,-5.7304688 0.128906,-0.1054687 0.128906,-0.1289062 0.128906,-0.1640625 0,-0.070312 -0.07031,-0.09375 -0.117187,-0.09375 -0.152344,0 -1.136719,0.8554688 -1.722657,2.0273438 -0.609375,1.2070312 -0.878906,2.4960937 -0.878906,3.9609375 0,1.0664062 0.164063,2.48437496 0.785156,3.76171871 0.703125,1.44140629 1.6875,2.21484379 1.816407,2.21484379 0.04687,0 0.117187,-0.023437 0.117187,-0.09375 z m 0,0"
         style="fill:#000000;fill-opacity:1;fill-rule:nonzero;stroke:none" />
    </g>
    <path
       id="path41"
       d="M 0,0 H 12.107"
       style="fill:none;stroke:#000000;stroke-width:0.478;stroke-linecap:butt;stroke-linejoin:miter;stroke-miterlimit:10;stroke-dasharray:none;stroke-opacity:1"
       transform="matrix(1.3333333,0,0,-1.3333333,683.73067,442.69733)" />
    <g
       id="g41"
       aria-label="zy)&#10;2&#10;?&#10;Symbol"
       transform="matrix(1.3333333,0,0,1.3333333,683.73067,451.792)">
      <path
         id="path42"
         d="M 1.5232891,-0.97192969 C 2.0271953,-1.5578672 2.4490703,-1.9211484 3.0467266,-2.4602109 c 0.7148437,-0.6210938 1.03125,-0.9257813 1.1953125,-1.1015625 0.84375,-0.8203125 1.2539062,-1.5234375 1.2539062,-1.6171875 0,-0.09375 -0.09375,-0.09375 -0.1171875,-0.09375 -0.082031,0 -0.1054687,0.046875 -0.1640625,0.1289062 -0.3046875,0.515625 -0.5859375,0.7734375 -0.9023437,0.7734375 -0.2460938,0 -0.375,-0.1171875 -0.609375,-0.3984375 -0.2460938,-0.2929687 -0.4570313,-0.5039062 -0.796875,-0.5039062 -0.8789063,0 -1.3945313,1.0898437 -1.3945313,1.3359375 0,0.035156 0.011719,0.1171875 0.1171875,0.1171875 0.09375,0 0.1054688,-0.046875 0.140625,-0.140625 0.1992188,-0.46875 0.7734375,-0.5625 1.0078125,-0.5625 0.2460938,0 0.4804688,0.09375 0.7382813,0.1992187 0.4570312,0.1875 0.6445312,0.1875 0.7617187,0.1875 0.082031,0 0.1289063,0 0.1875,-0.011719 -0.3867187,0.46875 -1.03125,1.0429687 -1.5703125,1.5351562 l -1.2070312,1.1015625 c -0.72656254,0.75000001 -1.17187504,1.45312501 -1.17187504,1.53515626 0,0.0703125 0.0585938,0.09375 0.12890625,0.09375 0.0703125,0 0.0820313,-0.0117188 0.1640625,-0.15234375 0.19921879,-0.3046875 0.57421879,-0.73828125 1.01953129,-0.73828125 0.2460937,0 0.375,0.0820313 0.609375,0.375 0.2226562,0.26953125 0.4335937,0.515625 0.8085937,0.515625 1.171875,0 1.8515625,-1.51171876 1.8515625,-1.79296876 0,-0.046875 -0.011719,-0.1171875 -0.140625,-0.1171875 -0.09375,0 -0.1054687,0.046875 -0.140625,0.1640625 -0.2578125,0.70312501 -0.9726562,0.99609376 -1.4296875,0.99609376 -0.2578125,0 -0.4921875,-0.0820313 -0.75,-0.1875 C 2.1678203,-1.018805 2.0271953,-1.018805 1.8748516,-1.018805 c -0.1171875,0 -0.2460938,0 -0.3515625,0.0468753 z m 7.59375,2.30859379 C 8.8006328,1.7936953 8.3318828,2.2038516 7.7459453,2.2038516 c -0.140625,0 -0.7148437,-0.023437 -0.9023437,-0.5742188 0.046875,0.011719 0.1054687,0.011719 0.1289062,0.011719 0.3515625,0 0.5976563,-0.3164063 0.5976563,-0.5859375 0,-0.28125004 -0.234375,-0.37500004 -0.4101563,-0.37500004 -0.1875,0 -0.609375,0.140625 -0.609375,0.72656254 0,0.609375 0.515625,1.03125 1.1953125,1.03125 1.1953125,0 2.4023437,-1.1015625 2.7421877,-2.42578129 L 11.660008,-4.651617 c 0.01172,-0.058594 0.03516,-0.1289062 0.03516,-0.1992187 0,-0.1757813 -0.152344,-0.3046875 -0.328125,-0.3046875 -0.105469,0 -0.363281,0.046875 -0.457031,0.4101562 l -0.878906,3.515625 c -0.058594,0.2109375 -0.058594,0.23437501 -0.1523442,0.37500001 -0.2460937,0.328125 -0.6445312,0.73828125 -1.2070312,0.73828125 -0.6796875,0 -0.7382813,-0.65625 -0.7382813,-0.98437496 0,-0.6796875 0.328125,-1.6054688 0.6445313,-2.4609375 0.140625,-0.3515625 0.2109375,-0.515625 0.2109375,-0.75 0,-0.5039063 -0.3632813,-0.9609375 -0.9492188,-0.9609375 -1.1015625,0 -1.5351562,1.734375 -1.5351562,1.828125 0,0.046875 0.046875,0.1054687 0.1289062,0.1054687 0.1054688,0 0.1171875,-0.046875 0.1640625,-0.2109375 0.2929688,-1.0078125 0.7382813,-1.4765625 1.2070313,-1.4765625 0.1054687,0 0.3164062,0 0.3164062,0.3867188 0,0.3164062 -0.140625,0.65625 -0.3164062,1.1132812 -0.5859375,1.5703125 -0.5859375,1.9570313 -0.5859375,2.25 0,1.13671876 0.8085937,1.39453126 1.40625,1.39453126 0.3515625,0 0.7851562,-0.10546875 1.1953125,-0.55078125 l 0.011719,0.0117188 c -0.1757812,0.703125 -0.2929687,1.171875 -0.7148437,1.75781249 z m 0,0"
         style="fill:#000000;fill-opacity:1;fill-rule:nonzero;stroke:none" />
      <path
         id="path43"
         d="m 15.48325,-2.9758359 c 0,-0.9140625 -0.128906,-2.390625 -0.796875,-3.7734375 -0.703125,-1.4414063 -1.675781,-2.2148438 -1.816406,-2.2148438 -0.04687,0 -0.105469,0.023437 -0.105469,0.09375 0,0.035156 0,0.058594 0.199219,0.2695313 1.195312,1.2070312 1.875,3.1757812 1.875,5.6132812 0,2.32031251 -0.5625,4.3125 -1.957032,5.7304688 C 12.7645,2.8483828 12.7645,2.8718203 12.7645,2.9069766 c 0,0.070312 0.05859,0.09375 0.105469,0.09375 0.164062,0 1.136718,-0.8554688 1.722656,-2.02734379 0.609375,-1.21875 0.890625,-2.51953121 0.890625,-3.94921871 z m 0,0"
         style="fill:#000000;fill-opacity:1;fill-rule:nonzero;stroke:none" />
      <path
         id="path44"
         d="m 18.910984,-7.4406797 c 0.128907,-0.1171875 0.457032,-0.375 0.585938,-0.4921875 0.492187,-0.4570312 0.960937,-0.890625 0.960937,-1.6171875 0,-0.9492183 -0.796875,-1.5585933 -1.792968,-1.5585933 -0.949219,0 -1.582032,0.726562 -1.582032,1.4296871 0,0.3984375 0.316407,0.4453125 0.421875,0.4453125 0.164063,0 0.410157,-0.1171875 0.410157,-0.421875 0,-0.4101566 -0.398438,-0.4101566 -0.492188,-0.4101566 0.234375,-0.585937 0.773438,-0.785156 1.160156,-0.785156 0.738282,0 1.125,0.632813 1.125,1.3007813 0,0.8320313 -0.585937,1.4296875 -1.523437,2.4023438 l -1.007813,1.03125 c -0.09375,0.09375 -0.09375,0.1054687 -0.09375,0.3046875 h 3.152344 l 0.222656,-1.4296875 h -0.246093 c -0.02344,0.1640625 -0.08203,0.5625 -0.175782,0.7148437 -0.04687,0.058594 -0.65625,0.058594 -0.785156,0.058594 h -1.417969 z m 0,0"
         style="fill:#000000;fill-opacity:1;fill-rule:nonzero;stroke:none" />
    </g>
    <path
       id="path45"
       d="M 0,0 H 18.759"
       style="fill:none;stroke:#000000;stroke-width:0.478;stroke-linecap:butt;stroke-linejoin:miter;stroke-miterlimit:10;stroke-dasharray:none;stroke-opacity:1"
       transform="matrix(1.3333333,0,0,-1.3333333,133.01733,461.95867)" />
    <g
       id="g45"
       aria-label="xyzoznaczaliczb¦trzycyfrow¡zapisan¡wdziesi¦tnymsystemiepozycyjnym.&#10;ZADANIE5.&#10;Wzbiorzeliczbrzeczywistychrozwi¡»ukªadrówna«&#10;&#10;&#10;&#10;&#10;&#10;x−y&#10;2&#10;+2y=2&#10;y−z&#10;2&#10;+2z=2&#10;z−x&#10;2&#10;+2x=2."
       transform="matrix(1.3333333,0,0,1.3333333,133.01733,471.05333)">
      <path
         id="path46"
         d="m 5.658875,-4.8739844 c -0.375,0.070312 -0.515625,0.3515625 -0.515625,0.5859375 0,0.28125 0.2226562,0.375 0.3867187,0.375 0.3632813,0 0.609375,-0.3046875 0.609375,-0.6328125 0,-0.4921875 -0.5742187,-0.7265625 -1.078125,-0.7265625 -0.7265625,0 -1.125,0.7148438 -1.2421875,0.9492188 C 3.5495,-5.2255469 2.8112187,-5.2724219 2.5885625,-5.2724219 c -1.21875,0 -1.86328125,1.5703125 -1.86328125,1.828125 0,0.046875 0.046875,0.1054688 0.12890625,0.1054688 0.10546875,0 0.12890625,-0.070312 0.1523437,-0.1171875 0.3984375,-1.3242188 1.2070313,-1.5703125 1.546875,-1.5703125 0.5390625,0 0.6445313,0.4921875 0.6445313,0.7851562 0,0.2578125 -0.070312,0.5390625 -0.2109375,1.1132813 L 2.5768437,-1.4989844 C 2.4010625,-0.77242187 2.0495,-0.11617187 1.4166875,-0.11617187 c -0.058594,0 -0.3515625,0 -0.609375,-0.15234375 0.4335937,-0.09375 0.5273437,-0.4453125 0.5273437,-0.5859375 0,-0.24609378 -0.1757812,-0.38671878 -0.39843745,-0.38671878 -0.29296875,0 -0.59765625,0.24609378 -0.59765625,0.63281253 0,0.50390625 0.5625,0.7265625 1.0664062,0.7265625 0.5742188,0 0.984375,-0.45703125 1.2304688,-0.9375 0.1992187,0.703125 0.796875,0.9375 1.2304687,0.9375 1.2304688,0 1.875,-1.55859373 1.875,-1.82812503 0,-0.058594 -0.046875,-0.1054687 -0.1289062,-0.1054687 -0.1054688,0 -0.1171875,0.058594 -0.1523438,0.1523437 -0.3164062,1.05468753 -1.0195312,1.54687503 -1.546875,1.54687503 -0.421875,0 -0.65625,-0.31640625 -0.65625,-0.80859375 0,-0.25781248 0.058594,-0.44531248 0.2460938,-1.24218748 L 3.9245,-3.7841406 c 0.1757812,-0.7265625 0.5859375,-1.2421875 1.125,-1.2421875 0.035156,0 0.3632812,0 0.609375,0.1523437 z M 9.7926641,1.3369531 C 9.4762578,1.7939844 9.0075078,2.2041406 8.4215703,2.2041406 c -0.140625,0 -0.7148437,-0.023437 -0.9023437,-0.5742187 0.046875,0.011719 0.1054687,0.011719 0.1289062,0.011719 0.3515625,0 0.5976563,-0.3164062 0.5976563,-0.5859375 0,-0.28124997 -0.234375,-0.37499997 -0.4101563,-0.37499997 -0.1875,0 -0.609375,0.140625 -0.609375,0.72656247 0,0.609375 0.515625,1.03125 1.1953125,1.03125 1.1953125,0 2.4023437,-1.1015625 2.7421877,-2.42578122 l 1.171875,-4.66406248 c 0.01172,-0.058594 0.03516,-0.1289063 0.03516,-0.1992188 0,-0.1757812 -0.152344,-0.3046875 -0.328125,-0.3046875 -0.105469,0 -0.363281,0.046875 -0.457031,0.4101563 l -0.878906,3.515625 c -0.05859,0.2109375 -0.05859,0.23437498 -0.152344,0.37499998 -0.246094,0.328125 -0.6445314,0.73828125 -1.2070314,0.73828125 -0.6796875,0 -0.7382813,-0.65625 -0.7382813,-0.98437503 0,-0.6796875 0.328125,-1.6054687 0.6445313,-2.4609375 0.140625,-0.3515625 0.2109375,-0.515625 0.2109375,-0.75 0,-0.5039062 -0.3632813,-0.9609375 -0.9492188,-0.9609375 -1.1015625,0 -1.5351562,1.734375 -1.5351562,1.828125 0,0.046875 0.046875,0.1054688 0.1289062,0.1054688 0.1054688,0 0.1171875,-0.046875 0.1640625,-0.2109375 0.2929688,-1.0078125 0.7382813,-1.4765625 1.2070313,-1.4765625 0.1054687,0 0.3164062,0 0.3164062,0.3867187 0,0.3164063 -0.140625,0.65625 -0.3164062,1.1132813 -0.5859375,1.5703125 -0.5859375,1.9570312 -0.5859375,2.25 0,1.13671873 0.8085937,1.39453123 1.40625,1.39453123 0.3515625,0 0.7851564,-0.10546875 1.1953124,-0.55078125 l 0.01172,0.0117188 c -0.175781,0.703125 -0.292969,1.171875 -0.7148439,1.75781252 z m 4.5205079,-2.30859372 c 0.503906,-0.58593748 0.925781,-0.94921878 1.523437,-1.48828128 0.714844,-0.6210937 1.03125,-0.9257812 1.195313,-1.1015625 0.84375,-0.8203125 1.253906,-1.5234375 1.253906,-1.6171875 0,-0.09375 -0.09375,-0.09375 -0.117187,-0.09375 -0.08203,0 -0.105469,0.046875 -0.164063,0.1289063 -0.304687,0.515625 -0.585937,0.7734375 -0.902344,0.7734375 -0.246093,0 -0.375,-0.1171875 -0.609375,-0.3984375 -0.246093,-0.2929688 -0.457031,-0.5039063 -0.796875,-0.5039063 -0.878906,0 -1.394531,1.0898438 -1.394531,1.3359375 0,0.035156 0.01172,0.1171875 0.117188,0.1171875 0.09375,0 0.105468,-0.046875 0.140625,-0.140625 0.199218,-0.46875 0.773437,-0.5625 1.007812,-0.5625 0.246094,0 0.480469,0.09375 0.738281,0.1992188 0.457032,0.1875 0.644532,0.1875 0.761719,0.1875 0.08203,0 0.128906,0 0.1875,-0.011719 -0.386719,0.46875 -1.03125,1.0429688 -1.570312,1.5351563 l -1.207032,1.1015625 c -0.726562,0.74999998 -1.171875,1.45312498 -1.171875,1.53515623 0,0.0703125 0.05859,0.09375 0.128907,0.09375 0.07031,0 0.08203,-0.0117188 0.164062,-0.15234375 0.199219,-0.3046875 0.574219,-0.73828125 1.019531,-0.73828125 0.246094,0 0.375,0.0820313 0.609375,0.375 0.222657,0.26953125 0.433594,0.515625 0.808594,0.515625 1.171875,0 1.851563,-1.51171873 1.851563,-1.79296873 0,-0.046875 -0.01172,-0.1171875 -0.140625,-0.1171875 -0.09375,0 -0.105469,0.046875 -0.140625,0.1640625 -0.257813,0.70312498 -0.972657,0.99609373 -1.429688,0.99609373 -0.257812,0 -0.492187,-0.0820313 -0.75,-0.1875 -0.46875,-0.19921873 -0.609375,-0.19921873 -0.761719,-0.19921873 -0.117187,0 -0.246093,0 -0.351562,0.0468752 z m 0,0"
         style="fill:#000000;fill-opacity:1;fill-rule:nonzero;stroke:none" />
      <path
         id="path47"
         d="m 151.39911,64.65043 c 0,-0.984375 0.26953,-3.257813 2.39062,-4.769532 0.15235,-0.117187 0.16407,-0.128906 0.16407,-0.339843 0,-0.28125 -0.0117,-0.292969 -0.30469,-0.292969 h -0.1875 c -2.57813,1.382812 -3.49219,3.644531 -3.49219,5.402344 v 5.144531 c 0,0.304687 0.0117,0.316406 0.32813,0.316406 h 0.77343 c 0.31641,0 0.32813,-0.01172 0.32813,-0.316406 z m 0,5.545898 c 0,-0.304687 -0.0117,-0.316406 -0.32813,-0.316406 h -0.77343 c -0.31641,0 -0.32813,0.01172 -0.32813,0.316406 v 3.1875 c 0,0.304688 0.0117,0.316406 0.32813,0.316406 h 0.77343 c 0.31641,0 0.32813,-0.01172 0.32813,-0.316406 z m -1.42969,24.703125 c 0,0.304688 0.0117,0.316406 0.32813,0.316406 h 0.77343 c 0.31641,0 0.32813,-0.01172 0.32813,-0.316406 v -5.050781 c 0,-1.441406 -0.60938,-3.878906 -3.28125,-5.507813 2.69531,-1.640625 3.28125,-4.101562 3.28125,-5.507812 v -5.050781 c 0,-0.304688 -0.0117,-0.316407 -0.32813,-0.316407 h -0.77343 c -0.31641,0 -0.32813,0.01172 -0.32813,0.316407 v 5.0625 c 0,0.996093 -0.22265,3.492187 -2.41406,5.15625 -0.14063,0.117187 -0.15234,0.128906 -0.15234,0.339843 0,0.210938 0.0117,0.222657 0.15234,0.339844 0.30469,0.234375 1.13672,0.867188 1.71094,2.074219 0.45703,0.960937 0.70312,2.015625 0.70312,3.082031 z m 1.42969,0.401367 c 0,-0.304687 -0.0117,-0.316406 -0.32813,-0.316406 h -0.77343 c -0.31641,0 -0.32813,0.01172 -0.32813,0.316406 v 3.1875 c 0,0.304688 0.0117,0.316407 0.32813,0.316407 h 0.77343 c 0.31641,0 0.32813,-0.01172 0.32813,-0.316407 z m 2.25,14.13281 c 0.29297,0 0.30469,-0.0117 0.30469,-0.28125 0,-0.22265 -0.0117,-0.23437 -0.0586,-0.26953 -0.36328,-0.26953 -1.23047,-0.8789 -1.79297,-1.98047 -0.46875,-0.91406 -0.70312,-1.82812 -0.70312,-2.87109 v -5.144532 c 0,-0.304688 -0.0117,-0.316406 -0.32813,-0.316406 h -0.77343 c -0.31641,0 -0.32813,0.01172 -0.32813,0.316406 v 5.144532 c 0,1.76953 0.91406,4.03125 3.49219,5.40234 z m 0,0"
         style="fill:#000000;fill-opacity:1;fill-rule:nonzero;stroke:none" />
      <path
         id="path48"
         d="m 161.6618,65.599648 c -0.375,0.07031 -0.51562,0.351563 -0.51562,0.585938 0,0.28125 0.22266,0.375 0.38672,0.375 0.36328,0 0.60937,-0.304688 0.60937,-0.632813 0,-0.492187 -0.57422,-0.726562 -1.07812,-0.726562 -0.72656,0 -1.125,0.714844 -1.24219,0.949219 -0.26953,-0.902344 -1.00781,-0.949219 -1.23047,-0.949219 -1.21875,0 -1.86328,1.570312 -1.86328,1.828125 0,0.04687 0.0469,0.105469 0.12891,0.105469 0.10547,0 0.1289,-0.07031 0.15234,-0.117188 0.39844,-1.324219 1.20703,-1.570312 1.54688,-1.570312 0.53906,0 0.64453,0.492187 0.64453,0.785156 0,0.257812 -0.0703,0.539062 -0.21094,1.113281 l -0.41016,1.628906 c -0.17578,0.726563 -0.52734,1.382813 -1.16015,1.382813 -0.0586,0 -0.35157,0 -0.60938,-0.152344 0.4336,-0.09375 0.52735,-0.445312 0.52735,-0.585937 0,-0.246094 -0.17579,-0.386719 -0.39844,-0.386719 -0.29297,0 -0.59766,0.246094 -0.59766,0.632812 0,0.503907 0.5625,0.726563 1.06641,0.726563 0.57422,0 0.98437,-0.457031 1.23047,-0.9375 0.19922,0.703125 0.79687,0.9375 1.23047,0.9375 1.23046,0 1.875,-1.558594 1.875,-1.828125 0,-0.05859 -0.0469,-0.105469 -0.12891,-0.105469 -0.10547,0 -0.11719,0.05859 -0.15234,0.152344 -0.31641,1.054687 -1.01954,1.546875 -1.54688,1.546875 -0.42187,0 -0.65625,-0.316406 -0.65625,-0.808594 0,-0.257812 0.0586,-0.445312 0.24609,-1.242187 l 0.42188,-1.617188 c 0.17578,-0.726562 0.58594,-1.242187 1.125,-1.242187 0.0352,0 0.36328,0 0.60937,0.152343 z m 0,0"
         style="fill:#000000;fill-opacity:1;fill-rule:nonzero;stroke:none" />
      <path
         id="path49"
         d="m 173.1872,67.720742 c 0.21093,0 0.42187,0 0.42187,-0.234375 0,-0.234375 -0.21094,-0.234375 -0.42187,-0.234375 h -6.46875 c -0.19922,0 -0.41016,0 -0.41016,0.234375 0,0.234375 0.21094,0.234375 0.41016,0.234375 z m 0,0"
         style="fill:#000000;fill-opacity:1;fill-rule:nonzero;stroke:none" />
      <path
         id="path50"
         d="m 180.40595,71.810586 c -0.31641,0.457031 -0.78516,0.867187 -1.3711,0.867187 -0.14062,0 -0.71484,-0.02344 -0.90234,-0.574218 0.0469,0.01172 0.10547,0.01172 0.1289,0.01172 0.35157,0 0.59766,-0.316406 0.59766,-0.585937 0,-0.28125 -0.23437,-0.375 -0.41016,-0.375 -0.1875,0 -0.60937,0.140625 -0.60937,0.726562 0,0.609375 0.51562,1.03125 1.19531,1.03125 1.19531,0 2.40235,-1.101562 2.74219,-2.425781 l 1.17187,-4.664062 c 0.0117,-0.05859 0.0352,-0.128907 0.0352,-0.199219 0,-0.175781 -0.15234,-0.304688 -0.32812,-0.304688 -0.10547,0 -0.36329,0.04687 -0.45704,0.410157 l -0.8789,3.515625 c -0.0586,0.210937 -0.0586,0.234375 -0.15235,0.375 -0.24609,0.328125 -0.64453,0.738281 -1.20703,0.738281 -0.67968,0 -0.73828,-0.65625 -0.73828,-0.984375 0,-0.679688 0.32813,-1.605469 0.64453,-2.460938 0.14063,-0.351562 0.21094,-0.515625 0.21094,-0.75 0,-0.503906 -0.36328,-0.960937 -0.94922,-0.960937 -1.10156,0 -1.53515,1.734375 -1.53515,1.828125 0,0.04687 0.0469,0.105469 0.1289,0.105469 0.10547,0 0.11719,-0.04687 0.16406,-0.210938 0.29297,-1.007812 0.73829,-1.476562 1.20704,-1.476562 0.10546,0 0.3164,0 0.3164,0.386718 0,0.316407 -0.14062,0.65625 -0.3164,1.113282 -0.58594,1.570312 -0.58594,1.957031 -0.58594,2.25 0,1.136718 0.80859,1.394531 1.40625,1.394531 0.35156,0 0.78515,-0.105469 1.19531,-0.550781 l 0.0117,0.01172 c -0.17578,0.703125 -0.29297,1.171875 -0.71484,1.757813 z m 0,0"
         style="fill:#000000;fill-opacity:1;fill-rule:nonzero;stroke:none" />
      <path
         id="path51"
         d="m 185.65302,64.506875 c 0.1289,-0.117187 0.45703,-0.375 0.58593,-0.492187 0.49219,-0.457032 0.96094,-0.890625 0.96094,-1.617188 0,-0.949219 -0.79687,-1.558594 -1.79297,-1.558594 -0.94922,0 -1.58203,0.726563 -1.58203,1.429688 0,0.398437 0.31641,0.445312 0.42188,0.445312 0.16406,0 0.41015,-0.117187 0.41015,-0.421875 0,-0.410156 -0.39844,-0.410156 -0.49219,-0.410156 0.23438,-0.585937 0.77344,-0.785156 1.16016,-0.785156 0.73828,0 1.125,0.632812 1.125,1.300781 0,0.832031 -0.58594,1.429688 -1.52344,2.402344 l -1.00781,1.03125 c -0.0937,0.09375 -0.0937,0.105469 -0.0937,0.304687 h 3.15234 l 0.22266,-1.429687 h -0.24609 c -0.0234,0.164062 -0.082,0.5625 -0.17578,0.714844 -0.0469,0.05859 -0.65625,0.05859 -0.78516,0.05859 h -1.41797 z m 0,0"
         style="fill:#000000;fill-opacity:1;fill-rule:nonzero;stroke:none" />
      <path
         id="path52"
         d="m 195.56122,67.709023 h 3.30469 c 0.16406,0 0.375,0 0.375,-0.210937 0,-0.222656 -0.19922,-0.222656 -0.375,-0.222656 h -3.30469 v -3.304688 c 0,-0.164062 0,-0.386719 -0.21094,-0.386719 -0.23437,0 -0.23437,0.210938 -0.23437,0.386719 v 3.304688 h -3.29297 c -0.17578,0 -0.38672,0 -0.38672,0.210937 0,0.222656 0.19922,0.222656 0.38672,0.222656 h 3.29297 v 3.304688 c 0,0.164062 0,0.386719 0.22265,0.386719 0.22266,0 0.22266,-0.210938 0.22266,-0.386719 z m 12.25195,0.761719 h -0.26953 c -0.0352,0.199219 -0.12891,0.855469 -0.24609,1.042969 -0.082,0.117187 -0.76172,0.117187 -1.125,0.117187 h -2.21485 c 0.32813,-0.28125 1.05469,-1.042968 1.3711,-1.335937 1.8164,-1.664063 2.48437,-2.285156 2.48437,-3.46875 0,-1.382813 -1.08984,-2.296875 -2.47265,-2.296875 -1.39454,0 -2.20313,1.183594 -2.20313,2.203125 0,0.609375 0.52734,0.609375 0.5625,0.609375 0.24609,0 0.5625,-0.175781 0.5625,-0.5625 0,-0.328125 -0.23437,-0.550781 -0.5625,-0.550781 -0.10547,0 -0.12891,0 -0.16406,0.01172 0.22265,-0.820312 0.86719,-1.371093 1.64062,-1.371093 1.01953,0 1.64063,0.855468 1.64063,1.957031 0,1.007812 -0.58594,1.898437 -1.26563,2.660156 l -2.41406,2.707031 v 0.28125 h 4.35938 z m 0,0"
         style="fill:#000000;fill-opacity:1;fill-rule:nonzero;stroke:none" />
      <path
         id="path53"
         d="m 211.54559,71.810586 c -0.3164,0.457031 -0.78515,0.867187 -1.37109,0.867187 -0.14063,0 -0.71484,-0.02344 -0.90234,-0.574218 0.0469,0.01172 0.10546,0.01172 0.1289,0.01172 0.35156,0 0.59766,-0.316406 0.59766,-0.585937 0,-0.28125 -0.23438,-0.375 -0.41016,-0.375 -0.1875,0 -0.60937,0.140625 -0.60937,0.726562 0,0.609375 0.51562,1.03125 1.19531,1.03125 1.19531,0 2.40234,-1.101562 2.74219,-2.425781 l 1.17187,-4.664062 c 0.0117,-0.05859 0.0352,-0.128907 0.0352,-0.199219 0,-0.175781 -0.15235,-0.304688 -0.32813,-0.304688 -0.10547,0 -0.36328,0.04687 -0.45703,0.410157 l -0.8789,3.515625 c -0.0586,0.210937 -0.0586,0.234375 -0.15235,0.375 -0.24609,0.328125 -0.64453,0.738281 -1.20703,0.738281 -0.67969,0 -0.73828,-0.65625 -0.73828,-0.984375 0,-0.679688 0.32812,-1.605469 0.64453,-2.460938 0.14063,-0.351562 0.21094,-0.515625 0.21094,-0.75 0,-0.503906 -0.36328,-0.960937 -0.94922,-0.960937 -1.10156,0 -1.53516,1.734375 -1.53516,1.828125 0,0.04687 0.0469,0.105469 0.12891,0.105469 0.10547,0 0.11719,-0.04687 0.16406,-0.210938 0.29297,-1.007812 0.73828,-1.476562 1.20703,-1.476562 0.10547,0 0.31641,0 0.31641,0.386718 0,0.316407 -0.14063,0.65625 -0.31641,1.113282 -0.58593,1.570312 -0.58593,1.957031 -0.58593,2.25 0,1.136718 0.80859,1.394531 1.40625,1.394531 0.35156,0 0.78515,-0.105469 1.19531,-0.550781 l 0.0117,0.01172 c -0.17578,0.703125 -0.29297,1.171875 -0.71485,1.757813 z m 0,0"
         style="fill:#000000;fill-opacity:1;fill-rule:nonzero;stroke:none" />
      <path
         id="path54"
         d="m 225.93915,66.607461 c 0.16406,0 0.375,0 0.375,-0.222656 0,-0.222657 -0.19922,-0.222657 -0.375,-0.222657 h -7.04297 c -0.17578,0 -0.38672,0 -0.38672,0.210938 0,0.234375 0.19922,0.234375 0.38672,0.234375 z m 0,2.214844 c 0.16406,0 0.375,0 0.375,-0.210938 0,-0.234375 -0.19922,-0.234375 -0.375,-0.234375 h -7.04297 c -0.17578,0 -0.38672,0 -0.38672,0.222656 0,0.222657 0.19922,0.222657 0.38672,0.222657 z m 9.61523,-0.351563 h -0.26953 c -0.0352,0.199219 -0.1289,0.855469 -0.24609,1.042969 -0.082,0.117187 -0.76172,0.117187 -1.125,0.117187 h -2.21485 c 0.32813,-0.28125 1.05469,-1.042968 1.3711,-1.335937 1.8164,-1.664063 2.48437,-2.285156 2.48437,-3.46875 0,-1.382813 -1.08984,-2.296875 -2.47265,-2.296875 -1.39453,0 -2.20313,1.183594 -2.20313,2.203125 0,0.609375 0.52735,0.609375 0.5625,0.609375 0.2461,0 0.5625,-0.175781 0.5625,-0.5625 0,-0.328125 -0.23437,-0.550781 -0.5625,-0.550781 -0.10547,0 -0.1289,0 -0.16406,0.01172 0.22266,-0.820312 0.86719,-1.371093 1.64062,-1.371093 1.01954,0 1.64063,0.855468 1.64063,1.957031 0,1.007812 -0.58594,1.898437 -1.26563,2.660156 L 230.8786,70.1934 v 0.28125 h 4.35938 z m 0,0"
         style="fill:#000000;fill-opacity:1;fill-rule:nonzero;stroke:none" />
      <path
         id="path55"
         d="m 159.14227,89.145547 c -0.3164,0.457031 -0.78515,0.867187 -1.37109,0.867187 -0.14063,0 -0.71484,-0.02344 -0.90234,-0.574218 0.0469,0.01172 0.10546,0.01172 0.1289,0.01172 0.35156,0 0.59766,-0.316406 0.59766,-0.585937 0,-0.28125 -0.23438,-0.375 -0.41016,-0.375 -0.1875,0 -0.60937,0.140625 -0.60937,0.726562 0,0.609375 0.51562,1.03125 1.19531,1.03125 1.19531,0 2.40234,-1.101562 2.74219,-2.425781 l 1.17187,-4.664062 c 0.0117,-0.05859 0.0352,-0.128907 0.0352,-0.199219 0,-0.175781 -0.15235,-0.304688 -0.32813,-0.304688 -0.10547,0 -0.36328,0.04687 -0.45703,0.410157 l -0.8789,3.515625 c -0.0586,0.210937 -0.0586,0.234375 -0.15235,0.375 -0.24609,0.328125 -0.64453,0.738281 -1.20703,0.738281 -0.67969,0 -0.73828,-0.65625 -0.73828,-0.984375 0,-0.679688 0.32812,-1.605469 0.64453,-2.460938 0.14063,-0.351562 0.21094,-0.515625 0.21094,-0.75 0,-0.503906 -0.36328,-0.960937 -0.94922,-0.960937 -1.10156,0 -1.53516,1.734375 -1.53516,1.828125 0,0.04687 0.0469,0.105469 0.12891,0.105469 0.10547,0 0.11719,-0.04687 0.16406,-0.210938 0.29297,-1.007812 0.73828,-1.476562 1.20703,-1.476562 0.10547,0 0.31641,0 0.31641,0.386718 0,0.316407 -0.14063,0.65625 -0.31641,1.113282 -0.58593,1.570312 -0.58593,1.957031 -0.58593,2.25 0,1.136718 0.80859,1.394531 1.40625,1.394531 0.35156,0 0.78515,-0.105469 1.19531,-0.550781 l 0.0117,0.01172 c -0.17578,0.703125 -0.29297,1.171875 -0.71485,1.757813 z m 0,0"
         style="fill:#000000;fill-opacity:1;fill-rule:nonzero;stroke:none" />
      <path
         id="path56"
         d="m 172.67157,85.055703 c 0.21094,0 0.42188,0 0.42188,-0.234375 0,-0.234375 -0.21094,-0.234375 -0.42188,-0.234375 h -6.46875 c -0.19922,0 -0.41016,0 -0.41016,0.234375 0,0.234375 0.21094,0.234375 0.41016,0.234375 z m 0,0"
         style="fill:#000000;fill-opacity:1;fill-rule:nonzero;stroke:none" />
      <path
         id="path57"
         d="m 178.27313,86.836953 c 0.50391,-0.585937 0.92578,-0.949219 1.52344,-1.488281 0.71484,-0.621094 1.03125,-0.925781 1.19531,-1.101563 0.84375,-0.820312 1.25391,-1.523437 1.25391,-1.617187 0,-0.09375 -0.0937,-0.09375 -0.11719,-0.09375 -0.082,0 -0.10547,0.04687 -0.16406,0.128906 -0.30469,0.515625 -0.58594,0.773438 -0.90234,0.773438 -0.2461,0 -0.375,-0.117188 -0.60938,-0.398438 -0.24609,-0.292969 -0.45703,-0.503906 -0.79687,-0.503906 -0.87891,0 -1.39454,1.089844 -1.39454,1.335937 0,0.03516 0.0117,0.117188 0.11719,0.117188 0.0937,0 0.10547,-0.04687 0.14063,-0.140625 0.19922,-0.46875 0.77343,-0.5625 1.00781,-0.5625 0.24609,0 0.48047,0.09375 0.73828,0.199219 0.45703,0.1875 0.64453,0.1875 0.76172,0.1875 0.082,0 0.12891,0 0.1875,-0.01172 -0.38672,0.46875 -1.03125,1.042969 -1.57031,1.535156 l -1.20703,1.101563 c -0.72657,0.75 -1.17188,1.453125 -1.17188,1.535156 0,0.07031 0.0586,0.09375 0.12891,0.09375 0.0703,0 0.082,-0.01172 0.16406,-0.152344 0.19922,-0.304687 0.57422,-0.738281 1.01953,-0.738281 0.24609,0 0.375,0.08203 0.60938,0.375 0.22265,0.269531 0.43359,0.515625 0.80859,0.515625 1.17187,0 1.85156,-1.511719 1.85156,-1.792969 0,-0.04687 -0.0117,-0.117187 -0.14062,-0.117187 -0.0937,0 -0.10547,0.04687 -0.14063,0.164062 -0.25781,0.703125 -0.97265,0.996094 -1.42969,0.996094 -0.25781,0 -0.49218,-0.08203 -0.75,-0.1875 -0.46875,-0.199219 -0.60937,-0.199219 -0.76171,-0.199219 -0.11719,0 -0.2461,0 -0.35157,0.04687 z m 0,0"
         style="fill:#000000;fill-opacity:1;fill-rule:nonzero;stroke:none" />
      <path
         id="path58"
         d="m 184.9704,81.841836 c 0.1289,-0.117188 0.45703,-0.375 0.58594,-0.492188 0.49218,-0.457031 0.96093,-0.890625 0.96093,-1.617187 0,-0.949219 -0.79687,-1.558594 -1.79297,-1.558594 -0.94921,0 -1.58203,0.726563 -1.58203,1.429688 0,0.398437 0.31641,0.445312 0.42188,0.445312 0.16406,0 0.41015,-0.117187 0.41015,-0.421875 0,-0.410156 -0.39843,-0.410156 -0.49218,-0.410156 0.23437,-0.585938 0.77343,-0.785156 1.16015,-0.785156 0.73828,0 1.125,0.632812 1.125,1.300781 0,0.832031 -0.58593,1.429687 -1.52343,2.402344 l -1.00782,1.03125 c -0.0937,0.09375 -0.0937,0.105468 -0.0937,0.304687 h 3.15235 l 0.22265,-1.429687 h -0.24609 c -0.0234,0.164062 -0.082,0.5625 -0.17578,0.714843 -0.0469,0.05859 -0.65625,0.05859 -0.78516,0.05859 h -1.41797 z m 0,0"
         style="fill:#000000;fill-opacity:1;fill-rule:nonzero;stroke:none" />
      <path
         id="path59"
         d="m 194.8786,85.043984 h 3.30469 c 0.16406,0 0.375,0 0.375,-0.210937 0,-0.222656 -0.19922,-0.222656 -0.375,-0.222656 h -3.30469 v -3.304688 c 0,-0.164062 0,-0.386719 -0.21094,-0.386719 -0.23437,0 -0.23437,0.210938 -0.23437,0.386719 v 3.304688 h -3.29297 c -0.17578,0 -0.38672,0 -0.38672,0.210937 0,0.222656 0.19922,0.222656 0.38672,0.222656 h 3.29297 v 3.304688 c 0,0.164062 0,0.386719 0.22266,0.386719 0.22265,0 0.22265,-0.210938 0.22265,-0.386719 z m 12.25195,0.761719 h -0.26953 c -0.0351,0.199219 -0.1289,0.855469 -0.24609,1.042969 -0.082,0.117187 -0.76172,0.117187 -1.125,0.117187 h -2.21484 c 0.32812,-0.28125 1.05468,-1.042968 1.37109,-1.335937 1.81641,-1.664063 2.48437,-2.285156 2.48437,-3.46875 0,-1.382813 -1.08984,-2.296875 -2.47265,-2.296875 -1.39453,0 -2.20313,1.183594 -2.20313,2.203125 0,0.609375 0.52735,0.609375 0.5625,0.609375 0.2461,0 0.5625,-0.175781 0.5625,-0.5625 0,-0.328125 -0.23437,-0.550781 -0.5625,-0.550781 -0.10547,0 -0.1289,0 -0.16406,0.01172 0.22266,-0.820312 0.86719,-1.371093 1.64063,-1.371093 1.01953,0 1.64062,0.855468 1.64062,1.957031 0,1.007812 -0.58594,1.898437 -1.26562,2.660156 l -2.41407,2.707031 v 0.28125 h 4.35938 z m 0,0"
         style="fill:#000000;fill-opacity:1;fill-rule:nonzero;stroke:none" />
      <path
         id="path60"
         d="m 209.24872,86.836953 c 0.5039,-0.585937 0.92578,-0.949219 1.52344,-1.488281 0.71484,-0.621094 1.03125,-0.925781 1.19531,-1.101563 0.84375,-0.820312 1.2539,-1.523437 1.2539,-1.617187 0,-0.09375 -0.0937,-0.09375 -0.11718,-0.09375 -0.082,0 -0.10547,0.04687 -0.16407,0.128906 -0.30468,0.515625 -0.58593,0.773438 -0.90234,0.773438 -0.24609,0 -0.375,-0.117188 -0.60937,-0.398438 -0.2461,-0.292969 -0.45704,-0.503906 -0.79688,-0.503906 -0.87891,0 -1.39453,1.089844 -1.39453,1.335937 0,0.03516 0.0117,0.117188 0.11719,0.117188 0.0937,0 0.10547,-0.04687 0.14062,-0.140625 0.19922,-0.46875 0.77344,-0.5625 1.00781,-0.5625 0.2461,0 0.48047,0.09375 0.73829,0.199219 0.45703,0.1875 0.64453,0.1875 0.76171,0.1875 0.082,0 0.12891,0 0.1875,-0.01172 -0.38671,0.46875 -1.03125,1.042969 -1.57031,1.535156 l -1.20703,1.101563 c -0.72656,0.75 -1.17187,1.453125 -1.17187,1.535156 0,0.07031 0.0586,0.09375 0.1289,0.09375 0.0703,0 0.082,-0.01172 0.16406,-0.152344 0.19922,-0.304687 0.57422,-0.738281 1.01954,-0.738281 0.24609,0 0.375,0.08203 0.60937,0.375 0.22266,0.269531 0.43359,0.515625 0.80859,0.515625 1.17188,0 1.85157,-1.511719 1.85157,-1.792969 0,-0.04687 -0.0117,-0.117187 -0.14063,-0.117187 -0.0937,0 -0.10547,0.04687 -0.14062,0.164062 -0.25782,0.703125 -0.97266,0.996094 -1.42969,0.996094 -0.25781,0 -0.49219,-0.08203 -0.75,-0.1875 -0.46875,-0.199219 -0.60938,-0.199219 -0.76172,-0.199219 -0.11719,0 -0.24609,0 -0.35156,0.04687 z m 0,0"
         style="fill:#000000;fill-opacity:1;fill-rule:nonzero;stroke:none" />
      <path
         id="path61"
         d="m 225.08954,83.942422 c 0.16406,0 0.375,0 0.375,-0.222656 0,-0.222657 -0.19922,-0.222657 -0.375,-0.222657 h -7.04297 c -0.17578,0 -0.38672,0 -0.38672,0.210938 0,0.234375 0.19922,0.234375 0.38672,0.234375 z m 0,2.214844 c 0.16406,0 0.375,0 0.375,-0.210938 0,-0.234375 -0.19922,-0.234375 -0.375,-0.234375 h -7.04297 c -0.17578,0 -0.38672,0 -0.38672,0.222656 0,0.222657 0.19922,0.222657 0.38672,0.222657 z m 9.61816,-0.351563 h -0.26953 c -0.0352,0.199219 -0.1289,0.855469 -0.24609,1.042969 -0.082,0.117187 -0.76172,0.117187 -1.125,0.117187 h -2.21485 c 0.32813,-0.28125 1.05469,-1.042968 1.3711,-1.335937 1.8164,-1.664063 2.48437,-2.285156 2.48437,-3.46875 0,-1.382813 -1.08984,-2.296875 -2.47265,-2.296875 -1.39453,0 -2.20313,1.183594 -2.20313,2.203125 0,0.609375 0.52735,0.609375 0.5625,0.609375 0.2461,0 0.5625,-0.175781 0.5625,-0.5625 0,-0.328125 -0.23437,-0.550781 -0.5625,-0.550781 -0.10547,0 -0.1289,0 -0.16406,0.01172 0.22266,-0.820312 0.86719,-1.371093 1.64062,-1.371093 1.01954,0 1.64063,0.855468 1.64063,1.957031 0,1.007812 -0.58594,1.898437 -1.26563,2.660156 l -2.41406,2.707031 v 0.28125 h 4.35938 z m 0,0"
         style="fill:#000000;fill-opacity:1;fill-rule:nonzero;stroke:none" />
      <path
         id="path62"
         d="m 157.52509,104.17191 c 0.5039,-0.58593 0.92578,-0.94921 1.52343,-1.48828 0.71485,-0.62109 1.03125,-0.92578 1.19532,-1.10156 0.84375,-0.82031 1.2539,-1.52344 1.2539,-1.617187 0,-0.09375 -0.0937,-0.09375 -0.11719,-0.09375 -0.082,0 -0.10546,0.04687 -0.16406,0.128907 -0.30469,0.51562 -0.58594,0.77344 -0.90234,0.77344 -0.2461,0 -0.375,-0.11719 -0.60938,-0.39844 -0.24609,-0.29297 -0.45703,-0.503907 -0.79687,-0.503907 -0.87891,0 -1.39453,1.089847 -1.39453,1.335937 0,0.0352 0.0117,0.11719 0.11718,0.11719 0.0937,0 0.10547,-0.0469 0.14063,-0.14063 0.19922,-0.46875 0.77344,-0.5625 1.00781,-0.5625 0.2461,0 0.48047,0.0937 0.73828,0.19922 0.45703,0.1875 0.64453,0.1875 0.76172,0.1875 0.082,0 0.12891,0 0.1875,-0.0117 -0.38672,0.46875 -1.03125,1.04297 -1.57031,1.53516 l -1.20703,1.10156 c -0.72656,0.75 -1.17188,1.45313 -1.17188,1.53516 0,0.0703 0.0586,0.0937 0.12891,0.0937 0.0703,0 0.082,-0.0117 0.16406,-0.15235 0.19922,-0.30468 0.57422,-0.73828 1.01953,-0.73828 0.2461,0 0.375,0.082 0.60938,0.375 0.22265,0.26953 0.43359,0.51563 0.80859,0.51563 1.17188,0 1.85156,-1.51172 1.85156,-1.79297 0,-0.0469 -0.0117,-0.11719 -0.14062,-0.11719 -0.0937,0 -0.10547,0.0469 -0.14063,0.16406 -0.25781,0.70313 -0.97265,0.9961 -1.42968,0.9961 -0.25782,0 -0.49219,-0.082 -0.75,-0.1875 -0.46875,-0.19922 -0.60938,-0.19922 -0.76172,-0.19922 -0.11719,0 -0.2461,0 -0.35156,0.0469 z m 0,0"
         style="fill:#000000;fill-opacity:1;fill-rule:nonzero;stroke:none" />
      <path
         id="path63"
         d="m 172.50458,102.39066 c 0.21094,0 0.42187,0 0.42187,-0.23437 0,-0.23438 -0.21093,-0.23438 -0.42187,-0.23438 h -6.46875 c -0.19922,0 -0.41016,0 -0.41016,0.23438 0,0.23437 0.21094,0.23437 0.41016,0.23437 z m 0,0"
         style="fill:#000000;fill-opacity:1;fill-rule:nonzero;stroke:none" />
      <path
         id="path64"
         d="m 182.24579,100.26957 c -0.375,0.0703 -0.51563,0.35156 -0.51563,0.58594 0,0.28125 0.22266,0.375 0.38672,0.375 0.36328,0 0.60938,-0.30469 0.60938,-0.63281 0,-0.49219 -0.57422,-0.726567 -1.07813,-0.726567 -0.72656,0 -1.125,0.714847 -1.24218,0.949217 -0.26954,-0.902342 -1.00782,-0.949217 -1.23047,-0.949217 -1.21875,0 -1.86328,1.570317 -1.86328,1.828127 0,0.0469 0.0469,0.10547 0.1289,0.10547 0.10547,0 0.12891,-0.0703 0.15235,-0.11719 0.39843,-1.32422 1.20703,-1.57031 1.54687,-1.57031 0.53906,0 0.64453,0.49218 0.64453,0.78515 0,0.25782 -0.0703,0.53907 -0.21094,1.11328 l -0.41015,1.62891 c -0.17578,0.72656 -0.52735,1.38281 -1.16016,1.38281 -0.0586,0 -0.35156,0 -0.60937,-0.15234 0.43359,-0.0937 0.52734,-0.44531 0.52734,-0.58594 0,-0.24609 -0.17578,-0.38672 -0.39844,-0.38672 -0.29297,0 -0.59765,0.2461 -0.59765,0.63282 0,0.5039 0.5625,0.72656 1.0664,0.72656 0.57422,0 0.98438,-0.45703 1.23047,-0.9375 0.19922,0.70312 0.79688,0.9375 1.23047,0.9375 1.23047,0 1.875,-1.5586 1.875,-1.82813 0,-0.0586 -0.0469,-0.10547 -0.12891,-0.10547 -0.10546,0 -0.11718,0.0586 -0.15234,0.15235 -0.31641,1.05469 -1.01953,1.54687 -1.54687,1.54687 -0.42188,0 -0.65625,-0.3164 -0.65625,-0.80859 0,-0.25781 0.0586,-0.44531 0.24609,-1.24219 l 0.42187,-1.61719 c 0.17579,-0.72656 0.58594,-1.24218 1.125,-1.24218 0.0352,0 0.36329,0 0.60938,0.15234 z m 0,0"
         style="fill:#000000;fill-opacity:1;fill-rule:nonzero;stroke:none" />
      <path
         id="path65"
         d="m 185.48602,99.176797 c 0.12891,-0.117188 0.45703,-0.375 0.58594,-0.492188 0.49219,-0.457031 0.96094,-0.890625 0.96094,-1.617187 0,-0.949219 -0.79688,-1.558594 -1.79297,-1.558594 -0.94922,0 -1.58203,0.726563 -1.58203,1.429688 0,0.398437 0.3164,0.445312 0.42187,0.445312 0.16407,0 0.41016,-0.117187 0.41016,-0.421875 0,-0.410156 -0.39844,-0.410156 -0.49219,-0.410156 0.23438,-0.585938 0.77344,-0.785156 1.16016,-0.785156 0.73828,0 1.125,0.632812 1.125,1.300781 0,0.832031 -0.58594,1.429687 -1.52344,2.402344 l -1.00781,1.031254 c -0.0937,0.0937 -0.0937,0.10546 -0.0937,0.30468 h 3.15234 l 0.22266,-1.429684 h -0.2461 c -0.0234,0.164062 -0.082,0.5625 -0.17578,0.714844 -0.0469,0.0586 -0.65625,0.0586 -0.78515,0.0586 h -1.41797 z m 0,0"
         style="fill:#000000;fill-opacity:1;fill-rule:nonzero;stroke:none" />
      <path
         id="path66"
         d="m 195.39423,102.37895 h 3.30468 c 0.16407,0 0.375,0 0.375,-0.21094 0,-0.22266 -0.19921,-0.22266 -0.375,-0.22266 h -3.30468 v -3.304686 c 0,-0.164062 0,-0.386719 -0.21094,-0.386719 -0.23438,0 -0.23438,0.210938 -0.23438,0.386719 v 3.304686 h -3.29296 c -0.17579,0 -0.38672,0 -0.38672,0.21094 0,0.22266 0.19922,0.22266 0.38672,0.22266 h 3.29296 v 3.30468 c 0,0.16407 0,0.38672 0.22266,0.38672 0.22266,0 0.22266,-0.21094 0.22266,-0.38672 z m 12.25195,0.76171 h -0.26953 c -0.0352,0.19922 -0.12891,0.85547 -0.2461,1.04297 -0.082,0.11719 -0.76171,0.11719 -1.125,0.11719 h -2.21484 c 0.32813,-0.28125 1.05469,-1.04297 1.37109,-1.33594 1.81641,-1.66406 2.48438,-2.28515 2.48438,-3.468747 0,-1.382813 -1.08984,-2.296875 -2.47266,-2.296875 -1.39453,0 -2.20312,1.183594 -2.20312,2.203125 0,0.609377 0.52734,0.609377 0.5625,0.609377 0.24609,0 0.5625,-0.175783 0.5625,-0.562502 0,-0.328125 -0.23438,-0.550781 -0.5625,-0.550781 -0.10547,0 -0.12891,0 -0.16406,0.01172 0.22265,-0.820312 0.86718,-1.371093 1.64062,-1.371093 1.01953,0 1.64063,0.855468 1.64063,1.957031 0,1.007815 -0.58594,1.898435 -1.26563,2.660155 l -2.41406,2.70703 v 0.28125 h 4.35937 z m 0,0"
         style="fill:#000000;fill-opacity:1;fill-rule:nonzero;stroke:none" />
      <path
         id="path67"
         d="m 213.90106,100.26957 c -0.375,0.0703 -0.51562,0.35156 -0.51562,0.58594 0,0.28125 0.22265,0.375 0.38672,0.375 0.36328,0 0.60937,-0.30469 0.60937,-0.63281 0,-0.49219 -0.57422,-0.726567 -1.07812,-0.726567 -0.72657,0 -1.125,0.714847 -1.24219,0.949217 -0.26953,-0.902342 -1.00781,-0.949217 -1.23047,-0.949217 -1.21875,0 -1.86328,1.570317 -1.86328,1.828127 0,0.0469 0.0469,0.10547 0.1289,0.10547 0.10547,0 0.12891,-0.0703 0.15235,-0.11719 0.39844,-1.32422 1.20703,-1.57031 1.54687,-1.57031 0.53907,0 0.64453,0.49218 0.64453,0.78515 0,0.25782 -0.0703,0.53907 -0.21093,1.11328 l -0.41016,1.62891 c -0.17578,0.72656 -0.52734,1.38281 -1.16016,1.38281 -0.0586,0 -0.35156,0 -0.60937,-0.15234 0.43359,-0.0937 0.52734,-0.44531 0.52734,-0.58594 0,-0.24609 -0.17578,-0.38672 -0.39843,-0.38672 -0.29297,0 -0.59766,0.2461 -0.59766,0.63282 0,0.5039 0.5625,0.72656 1.06641,0.72656 0.57421,0 0.98437,-0.45703 1.23046,-0.9375 0.19922,0.70312 0.79688,0.9375 1.23047,0.9375 1.23047,0 1.875,-1.5586 1.875,-1.82813 0,-0.0586 -0.0469,-0.10547 -0.1289,-0.10547 -0.10547,0 -0.11719,0.0586 -0.15235,0.15235 -0.3164,1.05469 -1.01953,1.54687 -1.54687,1.54687 -0.42188,0 -0.65625,-0.3164 -0.65625,-0.80859 0,-0.25781 0.0586,-0.44531 0.24609,-1.24219 l 0.42188,-1.61719 c 0.17578,-0.72656 0.58593,-1.24218 1.125,-1.24218 0.0352,0 0.36328,0 0.60937,0.15234 z m 0,0"
         style="fill:#000000;fill-opacity:1;fill-rule:nonzero;stroke:none" />
      <path
         id="path68"
         d="m 226.28778,101.27738 c 0.16406,0 0.375,0 0.375,-0.22265 0,-0.22266 -0.19922,-0.22266 -0.375,-0.22266 h -7.04297 c -0.17578,0 -0.38672,0 -0.38672,0.21094 0,0.23437 0.19922,0.23437 0.38672,0.23437 z m 0,2.21485 c 0.16406,0 0.375,0 0.375,-0.21094 0,-0.23438 -0.19922,-0.23438 -0.375,-0.23438 h -7.04297 c -0.17578,0 -0.38672,0 -0.38672,0.22266 0,0.22266 0.19922,0.22266 0.38672,0.22266 z m 9.61524,-0.35157 h -0.26954 c -0.0351,0.19922 -0.1289,0.85547 -0.24609,1.04297 -0.082,0.11719 -0.76172,0.11719 -1.125,0.11719 h -2.21484 c 0.32812,-0.28125 1.05468,-1.04297 1.37109,-1.33594 1.81641,-1.66406 2.48438,-2.28515 2.48438,-3.468747 0,-1.382813 -1.08985,-2.296875 -2.47266,-2.296875 -1.39453,0 -2.20313,1.183594 -2.20313,2.203125 0,0.609377 0.52735,0.609377 0.5625,0.609377 0.2461,0 0.5625,-0.175783 0.5625,-0.562502 0,-0.328125 -0.23437,-0.550781 -0.5625,-0.550781 -0.10546,0 -0.1289,0 -0.16406,0.01172 0.22266,-0.820312 0.86719,-1.371093 1.64063,-1.371093 1.01953,0 1.64062,0.855468 1.64062,1.957031 0,1.007815 -0.58594,1.898435 -1.26562,2.660155 l -2.41407,2.70703 v 0.28125 h 4.35938 z m 0,0"
         style="fill:#000000;fill-opacity:1;fill-rule:nonzero;stroke:none" />
      <path
         id="path69"
         d="m 238.69501,104.57035 c 0,-0.35156 -0.29297,-0.58594 -0.57422,-0.58594 -0.35156,0 -0.58594,0.29297 -0.58594,0.57422 0,0.35157 0.28125,0.58594 0.57422,0.58594 0.33984,0 0.58594,-0.28125 0.58594,-0.57422 z m 0,0"
         style="fill:#000000;fill-opacity:1;fill-rule:nonzero;stroke:none" />
    </g>
  </g>
</svg>
