<?xml version="1.0" encoding="UTF-8" standalone="no"?>
<!-- Created with Inkscape (http://www.inkscape.org/) -->

<svg
   version="1.1"
   id="svg1"
   width="794.55066"
   height="1123.6533"
   viewBox="0 0 794.55066 1123.6533"
   sodipodi:docname="LigaMatematycznaMatuskiego_Klasa5i6_Zestaw1_2020_2021_page0.pdf"
   xmlns:inkscape="http://www.inkscape.org/namespaces/inkscape"
   xmlns:sodipodi="http://sodipodi.sourceforge.net/DTD/sodipodi-0.dtd"
   xmlns="http://www.w3.org/2000/svg"
   xmlns:svg="http://www.w3.org/2000/svg">
  <defs
     id="defs1" />
  <sodipodi:namedview
     id="namedview1"
     pagecolor="#ffffff"
     bordercolor="#000000"
     borderopacity="0.25"
     inkscape:showpageshadow="2"
     inkscape:pageopacity="0.0"
     inkscape:pagecheckerboard="0"
     inkscape:deskcolor="#d1d1d1">
    <inkscape:page
       x="0"
       y="0"
       inkscape:label="1"
       id="page1"
       width="794.55066"
       height="1123.6533"
       margin="0"
       bleed="0" />
  </sodipodi:namedview>
  <g
     id="g1"
     inkscape:groupmode="layer"
     inkscape:label="1">
    <g
       id="g2"
       aria-label="LIGAMATEMATYCZNA&#10;im.ZdzisªawaMatuskiego&#10;PADZIERNIK2020&#10;SZKOAPODSTAWOWA&#10;klasyIV-VI&#10;ZADANIE1.&#10;UczniowieklasyIVzjadaj¡worekpra»onejkukurydzywci¡gu6minut,uczniowieklasyVtaki&#10;worekzjadaj¡wci¡gu3minut.Wci¡guiluminutzostaniezjedzonytakiworekkukurydzy&#10;wspólnieprzezuczniówobuklas?&#10;ZADANIE2.&#10;Aniabardzolubijabªka,marchewkiiciastka.Ka»degodniazjadaalbo9marchewek,albo&#10;2jabªka,albo1jabªkoi4marchewki,albo1ciastko.Przez10kolejnychdniAniazjadªa30&#10;marcheweki9jabªek.Ileciastekzjadªadziewczynkawczasietych10dni?&#10;ZADANIE3.&#10;Znajd¹najmniejsz¡liczb¦naturaln¡podzieln¡przez15,któr¡zapisanozapomoc¡samychzer&#10;ijedynek.&#10;ZADANIE4.&#10;Spotkaªosi¦trzechartystów:AdamBiaªyaktor,BartekCzarnymuzykiCzarekRudy&#10;malarz.&#10;-Zauwa»cie,»ekolornaszychwªosówniepokrywasi¦znazwiskiem.-powiedziaªtenzczarnymi&#10;wªosami.&#10;-Maszracj¦.-odpowiedziaªAdam.&#10;Jakikolorwªosówmiaªka»dyznich?&#10;ZADANIE5.&#10;Wka»dymwierzchoªkukwadratuAdamwpisaªpewn¡liczb¦,anaka»dymbokukwadratu&#10;zapisaªsum¦liczbzobuko«ców.Liczbywpisanenabokachkwadratutoczteryznast¦puj¡cych:&#10;15,11,19,21,23.Którazliczbnieznalazªasi¦na»adnymboku?"
       transform="matrix(1.3333333,0,0,1.3333333,274.724,56.069333)">
      <path
         id="path2"
         d="m 174.57028,119.20386 c 0,-3.02344 1.47656,-3.50391 2.1211,-3.50391 0.43359,0 0.85546,0.12891 1.08984,0.49219 -0.14063,0 -0.59766,0 -0.59766,0.49219 0,0.25781 0.17578,0.49219 0.49219,0.49219 0.29297,0 0.49219,-0.1875 0.49219,-0.52735 0,-0.62109 -0.44531,-1.23047 -1.48828,-1.23047 -1.51172,0 -3.08203,1.53516 -3.08203,4.17188 0,3.28125 1.42968,4.01953 2.44921,4.01953 1.30079,0 2.41407,-1.125 2.41407,-2.68359 0,-1.59375 -1.11328,-2.66016 -2.3086,-2.66016 -1.0664,0 -1.45312,0.92578 -1.58203,1.26562 z m 1.47656,4.08984 c -0.75,0 -1.11328,-0.66797 -1.21875,-0.92578 -0.10546,-0.30469 -0.22265,-0.89062 -0.22265,-1.73437 0,-0.9375 0.42187,-2.1211 1.5,-2.1211 0.65625,0 1.00781,0.44532 1.18359,0.84375 0.1875,0.44532 0.1875,1.04297 0.1875,1.5586 0,0.60937 0,1.14843 -0.22265,1.60547 -0.30469,0.57421 -0.72657,0.77343 -1.20704,0.77343 z m 0,0"
         style="fill:#000000;fill-opacity:1;fill-rule:nonzero;stroke:none" />
      <path
         id="path3"
         d="m -24.663117,133.52124 c -0.210938,0.0117 -0.257813,0.0234 -0.257813,0.12891 0,0.11719 0.05859,0.11719 0.28125,0.11719 h 0.550782 c 1.007812,0 1.464843,0.84375 1.464843,1.99218 0,1.5586 -0.808593,1.98047 -1.394531,1.98047 -0.574219,0 -1.558594,-0.28125 -1.898437,-1.0664 0.375,0.0586 0.726562,-0.15235 0.726562,-0.58594 0,-0.33985 -0.257812,-0.58594 -0.585937,-0.58594 -0.292969,0 -0.597657,0.16406 -0.597657,0.62109 0,1.06641 1.066407,1.9336 2.390625,1.9336 1.417969,0 2.472657,-1.07813 2.472657,-2.28516 0,-1.10156 -0.890625,-1.96875 -2.027344,-2.16797 1.03125,-0.30468 1.699219,-1.17187 1.699219,-2.10937 0,-0.9375 -0.972657,-1.62891 -2.132813,-1.62891 -1.195312,0 -2.085937,0.72656 -2.085937,1.59375 0,0.48047 0.375,0.57422 0.550781,0.57422 0.257812,0 0.539062,-0.17578 0.539062,-0.53906 0,-0.375 -0.28125,-0.53906 -0.550781,-0.53906 -0.07031,0 -0.09375,0 -0.128906,0.0117 0.457031,-0.82031 1.582031,-0.82031 1.640625,-0.82031 0.386719,0 1.171875,0.17578 1.171875,1.34766 0,0.23437 -0.03516,0.90234 -0.386719,1.41797 -0.351562,0.52734 -0.761719,0.5625 -1.089844,0.57422 z m 0,0"
         style="fill:#000000;fill-opacity:1;fill-rule:nonzero;stroke:none" />
      <path
         id="path4"
         d="m 240.28317,191.8396 c 0,2.82422 -1.2539,3.41016 -1.96875,3.41016 -0.28125,0 -0.92578,-0.0352 -1.21875,-0.45703 h 0.0703 c 0.082,0.0234 0.51563,-0.0469 0.51563,-0.49219 0,-0.25781 -0.17578,-0.49219 -0.49219,-0.49219 -0.30469,0 -0.5039,0.21094 -0.5039,0.51563 0,0.75 0.59765,1.24218 1.64062,1.24218 1.5,0 2.94141,-1.58203 2.94141,-4.18359 0,-3.21094 -1.33594,-4.00781 -2.39063,-4.00781 -1.3125,0 -2.47265,1.10156 -2.47265,2.67187 0,1.58203 1.11328,2.66016 2.30859,2.66016 0.87891,0 1.33594,-0.64453 1.57031,-1.25391 z m -1.52344,0.6211 c -0.75,0 -1.07812,-0.60938 -1.18359,-0.83204 -0.19922,-0.45703 -0.19922,-1.03125 -0.19922,-1.57031 0,-0.66797 0,-1.24219 0.31641,-1.73437 0.21094,-0.31641 0.53906,-0.66797 1.18359,-0.66797 0.67969,0 1.03125,0.59765 1.14844,0.8789 0.23437,0.58594 0.23437,1.59375 0.23437,1.78125 0,0.9961 -0.44531,2.14454 -1.5,2.14454 z m 0,0"
         style="fill:#000000;fill-opacity:1;fill-rule:nonzero;stroke:none" />
      <path
         id="path5"
         d="m -142.95511,207.76245 h -0.26953 c -0.0352,0.19922 -0.12891,0.85547 -0.24609,1.04297 -0.082,0.11719 -0.76172,0.11719 -1.125,0.11719 h -2.21485 c 0.32813,-0.28125 1.05469,-1.04297 1.3711,-1.33594 1.8164,-1.66406 2.48437,-2.28515 2.48437,-3.46875 0,-1.38281 -1.08984,-2.29687 -2.47266,-2.29687 -1.39453,0 -2.20312,1.18359 -2.20312,2.20312 0,0.60938 0.52734,0.60938 0.5625,0.60938 0.24609,0 0.5625,-0.17578 0.5625,-0.5625 0,-0.32813 -0.23438,-0.55078 -0.5625,-0.55078 -0.10547,0 -0.12891,0 -0.16406,0.0117 0.22265,-0.82031 0.86718,-1.37109 1.64062,-1.37109 1.01953,0 1.64063,0.85547 1.64063,1.95703 0,1.00781 -0.58594,1.89844 -1.26563,2.66016 l -2.41406,2.70703 v 0.28125 h 4.35937 z m 0,0"
         style="fill:#000000;fill-opacity:1;fill-rule:nonzero;stroke:none" />
      <path
         id="path6"
         d="m -69.083039,202.1023 c 0,-0.26953 0,-0.28125 -0.246094,-0.28125 -0.28125,0.3164 -0.878906,0.76172 -2.109375,0.76172 v 0.35156 c 0.269531,0 0.867188,0 1.523438,-0.31641 v 6.22266 c 0,0.43359 -0.03516,0.57422 -1.078125,0.57422 h -0.375 v 0.35156 c 0.316406,-0.0234 1.476562,-0.0234 1.875,-0.0234 0.398437,0 1.546875,0 1.863281,0.0234 v -0.35156 h -0.363281 c -1.054688,0 -1.089844,-0.14063 -1.089844,-0.57422 z m 0,0"
         style="fill:#000000;fill-opacity:1;fill-rule:nonzero;stroke:none" />
      <path
         id="path7"
         d="m -14.125031,201.98511 c 0,-0.22266 0,-0.29297 -0.164063,-0.29297 -0.09375,0 -0.128906,0 -0.222656,0.15234 l -3.597656,5.57813 v 0.35156 h 3.140625 v 1.07813 c 0,0.44531 -0.02344,0.5625 -0.902344,0.5625 H -16.1055 v 0.35156 c 0.269531,-0.0234 1.21875,-0.0234 1.558594,-0.0234 0.328125,0 1.289062,0 1.558594,0.0234 v -0.35156 h -0.234375 c -0.867188,0 -0.902344,-0.11719 -0.902344,-0.5625 v -1.07813 H -12.918 v -0.35156 h -1.207031 z m -0.785156,0.9375 v 4.5 h -2.90625 z m 0,0"
         style="fill:#000000;fill-opacity:1;fill-rule:nonzero;stroke:none" />
      <path
         id="path8"
         d="m 84.069305,202.1023 c 0,-0.26953 0,-0.28125 -0.246094,-0.28125 -0.28125,0.3164 -0.878906,0.76172 -2.109375,0.76172 v 0.35156 c 0.269531,0 0.867187,0 1.523437,-0.31641 v 6.22266 c 0,0.43359 -0.03516,0.57422 -1.078125,0.57422 h -0.375 v 0.35156 c 0.316407,-0.0234 1.476563,-0.0234 1.875,-0.0234 0.398438,0 1.546875,0 1.863282,0.0234 v -0.35156 h -0.363282 c -1.054687,0 -1.089843,-0.14063 -1.089843,-0.57422 z m 0,0"
         style="fill:#000000;fill-opacity:1;fill-rule:nonzero;stroke:none" />
      <path
         id="path9"
         d="m 172.32907,202.1023 c 0,-0.26953 0,-0.28125 -0.24609,-0.28125 -0.28125,0.3164 -0.87891,0.76172 -2.10938,0.76172 v 0.35156 c 0.26953,0 0.86719,0 1.52344,-0.31641 v 6.22266 c 0,0.43359 -0.0352,0.57422 -1.07813,0.57422 h -0.375 v 0.35156 c 0.31641,-0.0234 1.47657,-0.0234 1.875,-0.0234 0.39844,0 1.54688,0 1.86329,0.0234 v -0.35156 h -0.36329 c -1.05468,0 -1.08984,-0.14063 -1.08984,-0.57422 z m 7.76367,3.84375 c 0,-0.9961 -0.0586,-1.96875 -0.49219,-2.8711 -0.49218,-0.99609 -1.34765,-1.2539 -1.93359,-1.2539 -0.69141,0 -1.54687,0.33984 -1.98047,1.33593 -0.33984,0.75 -0.45703,1.48829 -0.45703,2.78907 0,1.16015 0.082,2.02734 0.51563,2.87109 0.45703,0.91406 1.28906,1.19531 1.91015,1.19531 1.04297,0 1.64063,-0.62109 1.98047,-1.3125 0.43359,-0.89062 0.45703,-2.0625 0.45703,-2.7539 z m -2.4375,3.83203 c -0.38672,0 -1.16015,-0.21094 -1.38281,-1.52344 -0.14063,-0.71484 -0.14063,-1.61719 -0.14063,-2.46094 0,-0.97265 0,-1.86328 0.19922,-2.5664 0.19922,-0.79688 0.8086,-1.17188 1.32422,-1.17188 0.45703,0 1.14844,0.28125 1.3711,1.30078 0.15234,0.67969 0.15234,1.62891 0.15234,2.4375 0,0.8086 0,1.71094 -0.12891,2.4375 -0.22265,1.32422 -0.97265,1.54688 -1.39453,1.54688 z m 0,0"
         style="fill:#000000;fill-opacity:1;fill-rule:nonzero;stroke:none" />
      <path
         id="path10"
         d="m 324.17184,205.4773 c -0.21093,0.0117 -0.25781,0.0234 -0.25781,0.1289 0,0.11719 0.0586,0.11719 0.28125,0.11719 h 0.55078 c 1.00782,0 1.46485,0.84375 1.46485,1.99219 0,1.55859 -0.8086,1.98047 -1.39453,1.98047 -0.57422,0 -1.5586,-0.28125 -1.89844,-1.06641 0.375,0.0586 0.72656,-0.15234 0.72656,-0.58594 0,-0.33984 -0.25781,-0.58593 -0.58594,-0.58593 -0.29297,0 -0.59765,0.16406 -0.59765,0.62109 0,1.06641 1.0664,1.93359 2.39062,1.93359 1.41797,0 2.47266,-1.07812 2.47266,-2.28515 0,-1.10157 -0.89063,-1.96875 -2.02735,-2.16797 1.03125,-0.30469 1.69922,-1.17188 1.69922,-2.10938 0,-0.9375 -0.97265,-1.6289 -2.13281,-1.6289 -1.19531,0 -2.08594,0.72656 -2.08594,1.59375 0,0.48047 0.375,0.57422 0.55078,0.57422 0.25782,0 0.53907,-0.17579 0.53907,-0.53907 0,-0.375 -0.28125,-0.53906 -0.55078,-0.53906 -0.0703,0 -0.0937,0 -0.12891,0.0117 0.45703,-0.82031 1.58203,-0.82031 1.64062,-0.82031 0.38672,0 1.17188,0.17578 1.17188,1.34765 0,0.23438 -0.0352,0.90235 -0.38672,1.41797 -0.35156,0.52735 -0.76172,0.5625 -1.08984,0.57422 z m 9.00586,0.46875 c 0,-0.9961 -0.0586,-1.96875 -0.49218,-2.8711 -0.49219,-0.99609 -1.34766,-1.2539 -1.9336,-1.2539 -0.6914,0 -1.54687,0.33984 -1.98047,1.33593 -0.33984,0.75 -0.45703,1.48829 -0.45703,2.78907 0,1.16015 0.082,2.02734 0.51563,2.87109 0.45703,0.91406 1.28906,1.19531 1.91015,1.19531 1.04297,0 1.64063,-0.62109 1.98047,-1.3125 0.4336,-0.89062 0.45703,-2.0625 0.45703,-2.7539 z m -2.4375,3.83203 c -0.38672,0 -1.16015,-0.21094 -1.38281,-1.52344 -0.14062,-0.71484 -0.14062,-1.61719 -0.14062,-2.46094 0,-0.97265 0,-1.86328 0.19921,-2.5664 0.19922,-0.79688 0.8086,-1.17188 1.32422,-1.17188 0.45703,0 1.14844,0.28125 1.3711,1.30078 0.15234,0.67969 0.15234,1.62891 0.15234,2.4375 0,0.8086 0,1.71094 -0.12891,2.4375 -0.22265,1.32422 -0.97265,1.54688 -1.39453,1.54688 z m 0,0"
         style="fill:#000000;fill-opacity:1;fill-rule:nonzero;stroke:none" />
      <path
         id="path11"
         d="m -76.550812,220.73218 c 0,2.82422 -1.253907,3.41016 -1.96875,3.41016 -0.28125,0 -0.925782,-0.0352 -1.21875,-0.45704 h 0.07031 c 0.08203,0.0234 0.515625,-0.0469 0.515625,-0.49218 0,-0.25782 -0.175781,-0.49219 -0.492187,-0.49219 -0.304688,0 -0.503907,0.21094 -0.503907,0.51562 0,0.75 0.597657,1.24219 1.640625,1.24219 1.5,0 2.941407,-1.58203 2.941407,-4.18359 0,-3.21094 -1.335938,-4.00781 -2.390625,-4.00781 -1.3125,0 -2.472657,1.10156 -2.472657,2.67187 0,1.58203 1.113282,2.66016 2.308594,2.66016 0.878906,0 1.335938,-0.64453 1.570313,-1.25391 z m -1.523438,0.62109 c -0.75,0 -1.078125,-0.60937 -1.183594,-0.83203 -0.199218,-0.45703 -0.199218,-1.03125 -0.199218,-1.57031 0,-0.66797 0,-1.24219 0.316406,-1.73438 0.210937,-0.3164 0.539062,-0.66796 1.183594,-0.66796 0.679687,0 1.03125,0.59765 1.148437,0.8789 0.234375,0.58594 0.234375,1.59375 0.234375,1.78125 0,0.9961 -0.445312,2.14453 -1.5,2.14453 z m 0,0"
         style="fill:#000000;fill-opacity:1;fill-rule:nonzero;stroke:none" />
      <path
         id="path12"
         d="m 200.01755,216.54859 c 0,-0.26954 0,-0.28125 -0.2461,-0.28125 -0.28125,0.3164 -0.8789,0.76171 -2.10937,0.76171 v 0.35157 c 0.26953,0 0.86719,0 1.52344,-0.31641 v 6.22266 c 0,0.43359 -0.0352,0.57422 -1.07813,0.57422 h -0.375 v 0.35156 c 0.31641,-0.0234 1.47656,-0.0234 1.875,-0.0234 0.39844,0 1.54688,0 1.86328,0.0234 v -0.35156 h -0.36328 c -1.05469,0 -1.08984,-0.14063 -1.08984,-0.57422 z m 7.76074,3.84375 c 0,-0.9961 -0.0586,-1.96875 -0.49219,-2.8711 -0.49219,-0.99609 -1.34765,-1.2539 -1.93359,-1.2539 -0.69141,0 -1.54688,0.33984 -1.98047,1.33593 -0.33984,0.75 -0.45703,1.48828 -0.45703,2.78907 0,1.16015 0.082,2.02734 0.51562,2.87109 0.45703,0.91406 1.28907,1.19531 1.91016,1.19531 1.04297,0 1.64062,-0.62109 1.98047,-1.3125 0.43359,-0.89062 0.45703,-2.0625 0.45703,-2.7539 z m -2.4375,3.83203 c -0.38672,0 -1.16016,-0.21094 -1.38281,-1.52344 -0.14063,-0.71484 -0.14063,-1.61719 -0.14063,-2.46094 0,-0.97265 0,-1.86328 0.19922,-2.5664 0.19922,-0.79688 0.80859,-1.17188 1.32422,-1.17188 0.45703,0 1.14844,0.28125 1.37109,1.30078 0.15235,0.67969 0.15235,1.62891 0.15235,2.4375 0,0.8086 0,1.71094 -0.12891,2.4375 -0.22266,1.32422 -0.97266,1.54688 -1.39453,1.54688 z m 0,0"
         style="fill:#000000;fill-opacity:1;fill-rule:nonzero;stroke:none" />
      <path
         id="path13"
         d="m 126.66989,259.61206 c 0,-0.26953 0,-0.28125 -0.24609,-0.28125 -0.28125,0.31641 -0.87891,0.76172 -2.10938,0.76172 v 0.35156 c 0.26953,0 0.86719,0 1.52344,-0.3164 v 6.22265 c 0,0.4336 -0.0352,0.57422 -1.07813,0.57422 h -0.375 v 0.35157 c 0.31641,-0.0234 1.47657,-0.0234 1.875,-0.0234 0.39844,0 1.54688,0 1.86329,0.0234 v -0.35157 h -0.36329 c -1.05468,0 -1.08984,-0.14062 -1.08984,-0.57422 z m 3.94336,0.82032 c 0.50391,0.16406 0.92578,0.17578 1.05469,0.17578 1.35937,0 2.21484,-0.9961 2.21484,-1.16016 0,-0.0469 -0.0234,-0.10547 -0.0937,-0.10547 -0.0234,0 -0.0469,0 -0.15234,0.0469 -0.66797,0.28125 -1.24219,0.3164 -1.5586,0.3164 -0.78515,0 -1.34765,-0.23437 -1.58203,-0.32812 -0.082,-0.0352 -0.10547,-0.0352 -0.11718,-0.0352 -0.0937,0 -0.0937,0.0703 -0.0937,0.25781 v 3.55079 c 0,0.21093 0,0.29296 0.14062,0.29296 0.0586,0 0.0703,-0.0117 0.19922,-0.16406 0.32812,-0.49219 0.89062,-0.77344 1.48828,-0.77344 0.63281,0 0.94922,0.58594 1.04297,0.78516 0.19922,0.46875 0.21094,1.05469 0.21094,1.51172 0,0.45703 0,1.13672 -0.32813,1.67578 -0.26953,0.42188 -0.73828,0.72656 -1.2539,0.72656 -0.79688,0 -1.57032,-0.53906 -1.78125,-1.40625 0.0586,0.0234 0.1289,0.0352 0.1875,0.0352 0.19921,0 0.52734,-0.12891 0.52734,-0.52734 0,-0.33985 -0.23438,-0.52735 -0.52734,-0.52735 -0.21094,0 -0.52735,0.10547 -0.52735,0.57422 0,1.00781 0.8086,2.16797 2.14453,2.16797 1.34766,0 2.53125,-1.125 2.53125,-2.64844 0,-1.41797 -0.96093,-2.60156 -2.21484,-2.60156 -0.67969,0 -1.20703,0.29297 -1.51172,0.63281 z m 0,0"
         style="fill:#000000;fill-opacity:1;fill-rule:nonzero;stroke:none" />
      <path
         id="path14"
         d="m -144.77152,461.30933 c 0,-0.26953 0,-0.28125 -0.24609,-0.28125 -0.28125,0.3164 -0.87891,0.76172 -2.10937,0.76172 v 0.35156 c 0.26953,0 0.86718,0 1.52343,-0.31641 v 6.22266 c 0,0.43359 -0.0351,0.57422 -1.07812,0.57422 h -0.375 v 0.35156 c 0.3164,-0.0234 1.47656,-0.0234 1.875,-0.0234 0.39844,0 1.54687,0 1.86328,0.0234 v -0.35156 h -0.36328 c -1.05469,0 -1.08985,-0.14063 -1.08985,-0.57422 z m 3.94336,0.82031 c 0.50391,0.16406 0.92579,0.17578 1.05469,0.17578 1.35938,0 2.21485,-0.99609 2.21485,-1.16015 0,-0.0469 -0.0234,-0.10547 -0.0937,-0.10547 -0.0234,0 -0.0469,0 -0.15235,0.0469 -0.66797,0.28125 -1.24219,0.31641 -1.55859,0.31641 -0.78516,0 -1.34766,-0.23438 -1.58203,-0.32813 -0.082,-0.0351 -0.10547,-0.0351 -0.11719,-0.0351 -0.0937,0 -0.0937,0.0703 -0.0937,0.25781 v 3.55078 c 0,0.21094 0,0.29297 0.14062,0.29297 0.0586,0 0.0703,-0.0117 0.19922,-0.16406 0.32813,-0.49219 0.89063,-0.77344 1.48828,-0.77344 0.63282,0 0.94922,0.58594 1.04297,0.78516 0.19922,0.46875 0.21094,1.05468 0.21094,1.51171 0,0.45704 0,1.13672 -0.32812,1.67579 -0.26954,0.42187 -0.73829,0.72656 -1.25391,0.72656 -0.79688,0 -1.57031,-0.53906 -1.78125,-1.40625 0.0586,0.0234 0.12891,0.0351 0.1875,0.0351 0.19922,0 0.52734,-0.1289 0.52734,-0.52734 0,-0.33984 -0.23437,-0.52734 -0.52734,-0.52734 -0.21094,0 -0.52734,0.10547 -0.52734,0.57422 0,1.00781 0.80859,2.16796 2.14453,2.16796 1.34765,0 2.53125,-1.125 2.53125,-2.64843 0,-1.41797 -0.96094,-2.60157 -2.21485,-2.60157 -0.67968,0 -1.20703,0.29297 -1.51172,0.63282 z m 0,0"
         style="fill:#000000;fill-opacity:1;fill-rule:nonzero;stroke:none" />
      <path
         id="path15"
         d="m -134.17777,469.02027 c 0,-0.69141 -0.22265,-1.20704 -0.71484,-1.20704 -0.38672,0 -0.57422,0.31641 -0.57422,0.57422 0,0.25782 0.17578,0.58594 0.58594,0.58594 0.15234,0 0.28125,-0.0469 0.38672,-0.15234 0.0234,-0.0234 0.0351,-0.0234 0.0469,-0.0234 0.0352,0 0.0352,0.16406 0.0352,0.22266 0,0.39843 -0.082,1.17187 -0.77344,1.94531 -0.1289,0.15234 -0.1289,0.17578 -0.1289,0.19922 0,0.0586 0.0586,0.11718 0.11718,0.11718 0.0937,0 1.01953,-0.89062 1.01953,-2.26171 z m 0,0"
         style="fill:#000000;fill-opacity:1;fill-rule:nonzero;stroke:none" />
      <path
         id="path16"
         d="m -127.82034,461.30933 c 0,-0.26953 0,-0.28125 -0.2461,-0.28125 -0.28125,0.3164 -0.8789,0.76172 -2.10937,0.76172 v 0.35156 c 0.26953,0 0.86719,0 1.52344,-0.31641 v 6.22266 c 0,0.43359 -0.0352,0.57422 -1.07813,0.57422 h -0.375 v 0.35156 c 0.31641,-0.0234 1.47656,-0.0234 1.875,-0.0234 0.39844,0 1.54688,0 1.86328,0.0234 v -0.35156 h -0.36328 c -1.05469,0 -1.08984,-0.14063 -1.08984,-0.57422 z m 5.85351,0 c 0,-0.26953 0,-0.28125 -0.24609,-0.28125 -0.28125,0.3164 -0.87891,0.76172 -2.10938,0.76172 v 0.35156 c 0.26953,0 0.86719,0 1.52344,-0.31641 v 6.22266 c 0,0.43359 -0.0352,0.57422 -1.07812,0.57422 h -0.375 v 0.35156 c 0.3164,-0.0234 1.47656,-0.0234 1.875,-0.0234 0.39843,0 1.54687,0 1.86328,0.0234 v -0.35156 h -0.36328 c -1.05469,0 -1.08985,-0.14063 -1.08985,-0.57422 z m 0,0"
         style="fill:#000000;fill-opacity:1;fill-rule:nonzero;stroke:none" />
      <path
         id="path17"
         d="m -117.22659,469.02027 c 0,-0.69141 -0.22266,-1.20704 -0.71485,-1.20704 -0.38672,0 -0.57422,0.31641 -0.57422,0.57422 0,0.25782 0.17579,0.58594 0.58594,0.58594 0.15235,0 0.28125,-0.0469 0.38672,-0.15234 0.0234,-0.0234 0.0352,-0.0234 0.0469,-0.0234 0.0352,0 0.0352,0.16406 0.0352,0.22266 0,0.39843 -0.082,1.17187 -0.77344,1.94531 -0.1289,0.15234 -0.1289,0.17578 -0.1289,0.19922 0,0.0586 0.0586,0.11718 0.11719,0.11718 0.0937,0 1.01953,-0.89062 1.01953,-2.26171 z m 0,0"
         style="fill:#000000;fill-opacity:1;fill-rule:nonzero;stroke:none" />
      <path
         id="path18"
         d="m -110.8721,461.30933 c 0,-0.26953 0,-0.28125 -0.2461,-0.28125 -0.28125,0.3164 -0.8789,0.76172 -2.10937,0.76172 v 0.35156 c 0.26953,0 0.86719,0 1.52344,-0.31641 v 6.22266 c 0,0.43359 -0.0352,0.57422 -1.07813,0.57422 h -0.375 v 0.35156 c 0.31641,-0.0234 1.47656,-0.0234 1.875,-0.0234 0.39844,0 1.54688,0 1.86328,0.0234 v -0.35156 h -0.36328 c -1.05469,0 -1.08984,-0.14063 -1.08984,-0.57422 z m 6.7793,4.18359 c 0,2.82422 -1.25391,3.41016 -1.96875,3.41016 -0.28125,0 -0.92579,-0.0352 -1.21875,-0.45703 h 0.0703 c 0.082,0.0234 0.51562,-0.0469 0.51562,-0.49219 0,-0.25781 -0.17578,-0.49219 -0.49218,-0.49219 -0.30469,0 -0.50391,0.21094 -0.50391,0.51563 0,0.75 0.59766,1.24218 1.64062,1.24218 1.5,0 2.94141,-1.58203 2.94141,-4.18359 0,-3.21094 -1.33594,-4.00781 -2.39062,-4.00781 -1.3125,0 -2.47266,1.10156 -2.47266,2.67187 0,1.58203 1.11328,2.66016 2.30859,2.66016 0.87891,0 1.33594,-0.64453 1.57032,-1.25391 z m -1.52344,0.6211 c -0.75,0 -1.07813,-0.60938 -1.1836,-0.83204 -0.19921,-0.45703 -0.19921,-1.03125 -0.19921,-1.57031 0,-0.66797 0,-1.24219 0.3164,-1.73437 0.21094,-0.31641 0.53906,-0.66797 1.1836,-0.66797 0.67968,0 1.03125,0.59765 1.14843,0.8789 0.23438,0.58594 0.23438,1.59375 0.23438,1.78125 0,0.9961 -0.44531,2.14454 -1.5,2.14454 z m 0,0"
         style="fill:#000000;fill-opacity:1;fill-rule:nonzero;stroke:none" />
      <path
         id="path19"
         d="m -100.27835,469.02027 c 0,-0.69141 -0.22266,-1.20704 -0.71485,-1.20704 -0.38671,0 -0.57421,0.31641 -0.57421,0.57422 0,0.25782 0.17578,0.58594 0.58593,0.58594 0.15235,0 0.28125,-0.0469 0.38672,-0.15234 0.0234,-0.0234 0.0352,-0.0234 0.0469,-0.0234 0.0352,0 0.0352,0.16406 0.0352,0.22266 0,0.39843 -0.082,1.17187 -0.77343,1.94531 -0.12891,0.15234 -0.12891,0.17578 -0.12891,0.19922 0,0.0586 0.0586,0.11718 0.11719,0.11718 0.0937,0 1.01953,-0.89062 1.01953,-2.26171 z m 0,0"
         style="fill:#000000;fill-opacity:1;fill-rule:nonzero;stroke:none" />
      <path
         id="path20"
         d="m -92.104523,466.96948 h -0.269532 c -0.03516,0.19922 -0.128906,0.85547 -0.246093,1.04297 -0.08203,0.11719 -0.761719,0.11719 -1.125,0.11719 h -2.214844 c 0.328125,-0.28125 1.054687,-1.04297 1.371094,-1.33594 1.816406,-1.66406 2.484375,-2.28515 2.484375,-3.46875 0,-1.38281 -1.089844,-2.29687 -2.472657,-2.29687 -1.394531,0 -2.203125,1.18359 -2.203125,2.20312 0,0.60938 0.527344,0.60938 0.5625,0.60938 0.246094,0 0.5625,-0.17578 0.5625,-0.5625 0,-0.32813 -0.234375,-0.55078 -0.5625,-0.55078 -0.105468,0 -0.128906,0 -0.164062,0.0117 0.222656,-0.82032 0.867187,-1.3711 1.640625,-1.3711 1.019531,0 1.640625,0.85547 1.640625,1.95703 0,1.00782 -0.585938,1.89844 -1.265625,2.66016 l -2.414063,2.70703 v 0.28125 h 4.359375 z m 4.037109,-5.66015 c 0,-0.26953 0,-0.28125 -0.246094,-0.28125 -0.28125,0.3164 -0.878906,0.76172 -2.109375,0.76172 v 0.35156 c 0.269531,0 0.867188,0 1.523438,-0.31641 v 6.22266 c 0,0.43359 -0.03516,0.57422 -1.078125,0.57422 h -0.375 v 0.35156 c 0.316406,-0.0234 1.476562,-0.0234 1.875,-0.0234 0.398437,0 1.546875,0 1.863281,0.0234 v -0.35156 h -0.363281 c -1.054688,0 -1.089844,-0.14063 -1.089844,-0.57422 z m 0,0"
         style="fill:#000000;fill-opacity:1;fill-rule:nonzero;stroke:none" />
      <path
         id="path21"
         d="m -83.32718,469.02027 c 0,-0.69141 -0.222656,-1.20704 -0.714843,-1.20704 -0.386719,0 -0.574219,0.31641 -0.574219,0.57422 0,0.25782 0.175781,0.58594 0.585937,0.58594 0.152344,0 0.28125,-0.0469 0.386719,-0.15234 0.02344,-0.0234 0.03516,-0.0234 0.04687,-0.0234 0.03516,0 0.03516,0.16406 0.03516,0.22266 0,0.39843 -0.08203,1.17187 -0.773437,1.94531 -0.128906,0.15234 -0.128906,0.17578 -0.128906,0.19922 0,0.0586 0.05859,0.11718 0.117187,0.11718 0.09375,0 1.019531,-0.89062 1.019531,-2.26171 z m 0,0"
         style="fill:#000000;fill-opacity:1;fill-rule:nonzero;stroke:none" />
      <path
         id="path22"
         d="m -75.153352,466.96948 h -0.269531 c -0.03516,0.19922 -0.128906,0.85547 -0.246094,1.04297 -0.08203,0.11719 -0.761718,0.11719 -1.125,0.11719 h -2.214843 c 0.328125,-0.28125 1.054687,-1.04297 1.371093,-1.33594 1.816407,-1.66406 2.484375,-2.28515 2.484375,-3.46875 0,-1.38281 -1.089843,-2.29687 -2.472656,-2.29687 -1.394531,0 -2.203125,1.18359 -2.203125,2.20312 0,0.60938 0.527344,0.60938 0.5625,0.60938 0.246094,0 0.5625,-0.17578 0.5625,-0.5625 0,-0.32813 -0.234375,-0.55078 -0.5625,-0.55078 -0.105469,0 -0.128906,0 -0.164062,0.0117 0.222656,-0.82032 0.867187,-1.3711 1.640625,-1.3711 1.019531,0 1.640625,0.85547 1.640625,1.95703 0,1.00782 -0.585938,1.89844 -1.265625,2.66016 l -2.414063,2.70703 v 0.28125 h 4.359375 z m 2.794922,-2.28515 c -0.210937,0.0117 -0.257812,0.0234 -0.257812,0.1289 0,0.11719 0.05859,0.11719 0.28125,0.11719 h 0.550781 c 1.007813,0 1.464844,0.84375 1.464844,1.99219 0,1.55859 -0.808594,1.98047 -1.394531,1.98047 -0.574219,0 -1.558594,-0.28125 -1.898438,-1.06641 0.375,0.0586 0.726563,-0.15234 0.726563,-0.58594 0,-0.33984 -0.257813,-0.58593 -0.585938,-0.58593 -0.292969,0 -0.597656,0.16406 -0.597656,0.62109 0,1.06641 1.066406,1.93359 2.390625,1.93359 1.417969,0 2.472656,-1.07812 2.472656,-2.28515 0,-1.10156 -0.890625,-1.96875 -2.027344,-2.16797 1.03125,-0.30469 1.699219,-1.17188 1.699219,-2.10938 0,-0.9375 -0.972656,-1.6289 -2.132812,-1.6289 -1.195313,0 -2.085938,0.72656 -2.085938,1.59375 0,0.48047 0.375,0.57422 0.550781,0.57422 0.257813,0 0.539063,-0.17578 0.539063,-0.53907 0,-0.375 -0.28125,-0.53906 -0.550781,-0.53906 -0.07031,0 -0.09375,0 -0.128907,0.0117 0.457032,-0.82031 1.582032,-0.82031 1.640625,-0.82031 0.386719,0 1.171875,0.17578 1.171875,1.34765 0,0.23438 -0.03516,0.90235 -0.386718,1.41797 -0.351563,0.52735 -0.761719,0.5625 -1.089844,0.57422 z m 0,0"
         style="fill:#000000;fill-opacity:1;fill-rule:nonzero;stroke:none" />
    </g>
  </g>
</svg>
