<?xml version="1.0" encoding="UTF-8" standalone="no"?>
<!-- Created with Inkscape (http://www.inkscape.org/) -->

<svg
   version="1.1"
   id="svg1"
   width="794.55066"
   height="1123.6533"
   viewBox="0 0 794.55066 1123.6533"
   sodipodi:docname="LigaMatematycznaMatuskiego_Gim_Zestaw5_2012_2013_page0.pdf"
   xmlns:inkscape="http://www.inkscape.org/namespaces/inkscape"
   xmlns:sodipodi="http://sodipodi.sourceforge.net/DTD/sodipodi-0.dtd"
   xmlns="http://www.w3.org/2000/svg"
   xmlns:svg="http://www.w3.org/2000/svg">
  <defs
     id="defs1" />
  <sodipodi:namedview
     id="namedview1"
     pagecolor="#ffffff"
     bordercolor="#000000"
     borderopacity="0.25"
     inkscape:showpageshadow="2"
     inkscape:pageopacity="0.0"
     inkscape:pagecheckerboard="0"
     inkscape:deskcolor="#d1d1d1">
    <inkscape:page
       x="0"
       y="0"
       inkscape:label="1"
       id="page1"
       width="794.55066"
       height="1123.6533"
       margin="0"
       bleed="0" />
  </sodipodi:namedview>
  <g
     id="g1"
     inkscape:groupmode="layer"
     inkscape:label="1">
    <g
       id="g2"
       aria-label="LIGAMATEMATYCZNA&#10;im.ZdzisªawaMatuskiego&#10;FINA&#10;10kwietnia2013&#10;GIMNAZJUM&#10;ZADANIE1.&#10;Kostkadogrymana±ciankachliczbyoczek1,2,3,4,5,6.Wpewnejgrzezawyrzucenie&#10;parzystejliczbyoczekuzyskujesi¦25punktów,azawyrzucenienieparzystejliczbyoczektraci&#10;si¦15punktów.Wdziesi¦ciurzutacht¡kostk¡Kamiluzyskaª90punktów,Robert50punktów.&#10;Ilerazyparzyst¡liczb¦oczekwyrzuciªKamil,ailerazynieparzyst¡liczb¦oczekwyrzuciª&#10;Robert?&#10;ZADANIE2.&#10;Wyka»,»eliczba2n&#10;3&#10;−26njestpodzielnaprzez6dlaka»dejliczbynaturalnejn.&#10;ZADANIE3.&#10;NabokuCDkwadratuABCDwybranopunktEtaki,»eodcinekECjestdwarazydªu»szy&#10;odDE.NaodcinkuBEwybranopunktFtaki,»eodcinekFBjestdwarazydªu»szyodEF.&#10;Poletrójk¡taAFEjestrówne10.ObliczpolekwadratuABCD.&#10;ZADANIE4.&#10;Uzasadnij,»eje±liliczbya,b,cs¡dodatnieoraza&lt;b,to&#10;a+c"
       transform="matrix(1.3333333,0,0,1.3333333,274.724,56.069333)">
      <path
         id="path2"
         d="m 92.328094,130.14624 c 0,-0.26953 0,-0.28125 -0.246094,-0.28125 -0.28125,0.31641 -0.878906,0.76172 -2.109375,0.76172 v 0.35156 c 0.269531,0 0.867188,0 1.523438,-0.3164 v 6.22265 c 0,0.4336 -0.03516,0.57422 -1.078125,0.57422 h -0.375 v 0.35156 c 0.316406,-0.0234 1.476562,-0.0234 1.875,-0.0234 0.398437,0 1.546875,0 1.863281,0.0234 v -0.35156 h -0.363281 c -1.054688,0 -1.089844,-0.14062 -1.089844,-0.57422 z m 0,0"
         style="fill:#000000;fill-opacity:1;fill-rule:nonzero;stroke:none" />
      <path
         id="path3"
         d="m 108.46774,135.8064 h -0.26953 c -0.0352,0.19922 -0.12891,0.85547 -0.24609,1.04297 -0.082,0.11718 -0.76172,0.11718 -1.125,0.11718 h -2.21485 c 0.32813,-0.28125 1.05469,-1.04296 1.3711,-1.33593 1.8164,-1.66407 2.48437,-2.28516 2.48437,-3.46875 0,-1.38282 -1.08984,-2.29688 -2.47265,-2.29688 -1.39454,0 -2.20313,1.1836 -2.20313,2.20313 0,0.60937 0.52734,0.60937 0.5625,0.60937 0.24609,0 0.5625,-0.17578 0.5625,-0.5625 0,-0.32812 -0.23437,-0.55078 -0.5625,-0.55078 -0.10547,0 -0.12891,0 -0.16406,0.0117 0.22265,-0.82031 0.86719,-1.37109 1.64062,-1.37109 1.01953,0 1.64063,0.85546 1.64063,1.95703 0,1.00781 -0.58594,1.89843 -1.26563,2.66015 l -2.41406,2.70703 v 0.28125 h 4.35938 z m 0,0"
         style="fill:#000000;fill-opacity:1;fill-rule:nonzero;stroke:none" />
      <path
         id="path4"
         d="m 119.73239,133.52124 c -0.21094,0.0117 -0.25781,0.0234 -0.25781,0.12891 0,0.11719 0.0586,0.11719 0.28125,0.11719 h 0.55078 c 1.00781,0 1.46484,0.84375 1.46484,1.99218 0,1.5586 -0.80859,1.98047 -1.39453,1.98047 -0.57422,0 -1.55859,-0.28125 -1.89844,-1.0664 0.375,0.0586 0.72657,-0.15235 0.72657,-0.58594 0,-0.33985 -0.25782,-0.58594 -0.58594,-0.58594 -0.29297,0 -0.59766,0.16406 -0.59766,0.62109 0,1.06641 1.06641,1.9336 2.39063,1.9336 1.41797,0 2.47265,-1.07813 2.47265,-2.28516 0,-1.10156 -0.89062,-1.96875 -2.02734,-2.16797 1.03125,-0.30468 1.69922,-1.17187 1.69922,-2.10937 0,-0.9375 -0.97266,-1.62891 -2.13281,-1.62891 -1.19532,0 -2.08594,0.72656 -2.08594,1.59375 0,0.48047 0.375,0.57422 0.55078,0.57422 0.25781,0 0.53906,-0.17578 0.53906,-0.53906 0,-0.375 -0.28125,-0.53906 -0.55078,-0.53906 -0.0703,0 -0.0937,0 -0.1289,0.0117 0.45703,-0.82031 1.58203,-0.82031 1.64062,-0.82031 0.38672,0 1.17188,0.17578 1.17188,1.34766 0,0.23437 -0.0352,0.90234 -0.38672,1.41797 -0.35157,0.52734 -0.76172,0.5625 -1.08985,0.57422 z m 0,0"
         style="fill:#000000;fill-opacity:1;fill-rule:nonzero;stroke:none" />
      <path
         id="path5"
         d="m 136.16501,130.02905 c 0,-0.22265 0,-0.29296 -0.16406,-0.29296 -0.0937,0 -0.12891,0 -0.22266,0.15234 l -3.59766,5.57812 v 0.35157 h 3.14063 v 1.07812 c 0,0.44531 -0.0234,0.5625 -0.90235,0.5625 h -0.23437 v 0.35156 c 0.26953,-0.0234 1.21875,-0.0234 1.55859,-0.0234 0.32813,0 1.28907,0 1.5586,0.0234 v -0.35156 h -0.23438 c -0.86719,0 -0.90234,-0.11719 -0.90234,-0.5625 v -1.07812 h 1.20703 v -0.35157 h -1.20703 z m -0.78516,0.9375 v 4.5 h -2.90625 z m 0,0"
         style="fill:#000000;fill-opacity:1;fill-rule:nonzero;stroke:none" />
      <path
         id="path6"
         d="m 147.71091,130.96655 c 0.5039,0.16407 0.92578,0.17579 1.05468,0.17579 1.35938,0 2.21485,-0.9961 2.21485,-1.16016 0,-0.0469 -0.0234,-0.10547 -0.0937,-0.10547 -0.0234,0 -0.0469,0 -0.15235,0.0469 -0.66796,0.28125 -1.24218,0.3164 -1.55859,0.3164 -0.78516,0 -1.34766,-0.23437 -1.58203,-0.32812 -0.082,-0.0352 -0.10547,-0.0352 -0.11719,-0.0352 -0.0937,0 -0.0937,0.0703 -0.0937,0.25781 v 3.55078 c 0,0.21094 0,0.29297 0.14063,0.29297 0.0586,0 0.0703,-0.0117 0.19922,-0.16406 0.32812,-0.49219 0.89062,-0.77344 1.48828,-0.77344 0.63281,0 0.94922,0.58594 1.04297,0.78516 0.19921,0.46875 0.21093,1.05469 0.21093,1.51172 0,0.45703 0,1.13672 -0.32812,1.67578 -0.26953,0.42187 -0.73828,0.72656 -1.25391,0.72656 -0.79687,0 -1.57031,-0.53906 -1.78125,-1.40625 0.0586,0.0234 0.12891,0.0352 0.1875,0.0352 0.19922,0 0.52735,-0.12891 0.52735,-0.52735 0,-0.33984 -0.23438,-0.52734 -0.52735,-0.52734 -0.21094,0 -0.52734,0.10547 -0.52734,0.57422 0,1.00781 0.80859,2.16797 2.14453,2.16797 1.34766,0 2.53125,-1.125 2.53125,-2.64844 0,-1.41797 -0.96094,-2.60156 -2.21484,-2.60156 -0.67969,0 -1.20704,0.29297 -1.51172,0.63281 z m 0,0"
         style="fill:#000000;fill-opacity:1;fill-rule:nonzero;stroke:none" />
      <path
         id="path7"
         d="m 161.96384,133.65015 c 0,-3.02344 1.47656,-3.50391 2.12109,-3.50391 0.43359,0 0.85547,0.12891 1.08984,0.49219 -0.14062,0 -0.59765,0 -0.59765,0.49219 0,0.25781 0.17578,0.49218 0.49218,0.49218 0.29297,0 0.49219,-0.1875 0.49219,-0.52734 0,-0.62109 -0.44531,-1.23047 -1.48828,-1.23047 -1.51172,0 -3.08203,1.53516 -3.08203,4.17188 0,3.28125 1.42969,4.01953 2.44922,4.01953 1.30078,0 2.41406,-1.125 2.41406,-2.6836 0,-1.59375 -1.11328,-2.66015 -2.30859,-2.66015 -1.06641,0 -1.45313,0.92578 -1.58203,1.26562 z m 1.47656,4.08984 c -0.75,0 -1.11328,-0.66797 -1.21875,-0.92578 -0.10547,-0.30469 -0.22266,-0.89062 -0.22266,-1.73437 0,-0.9375 0.42188,-2.1211 1.5,-2.1211 0.65625,0 1.00781,0.44531 1.1836,0.84375 0.1875,0.44531 0.1875,1.04297 0.1875,1.5586 0,0.60937 0,1.14843 -0.22266,1.60546 -0.30469,0.57422 -0.72656,0.77344 -1.20703,0.77344 z m 0,0"
         style="fill:#000000;fill-opacity:1;fill-rule:nonzero;stroke:none" />
      <path
         id="path8"
         d="m 35.685516,151.69702 h -0.269532 c -0.03516,0.19922 -0.128906,0.85547 -0.246093,1.04297 -0.08203,0.11719 -0.761719,0.11719 -1.125,0.11719 h -2.214844 c 0.328125,-0.28125 1.054687,-1.04297 1.371094,-1.33594 1.816406,-1.66406 2.484375,-2.28515 2.484375,-3.46875 0,-1.38281 -1.089844,-2.29687 -2.472657,-2.29687 -1.394531,0 -2.203125,1.18359 -2.203125,2.20312 0,0.60938 0.527344,0.60938 0.5625,0.60938 0.246094,0 0.5625,-0.17578 0.5625,-0.5625 0,-0.32813 -0.234375,-0.55078 -0.5625,-0.55078 -0.105468,0 -0.128906,0 -0.164062,0.0117 0.222656,-0.82031 0.867187,-1.37109 1.640625,-1.37109 1.019531,0 1.640625,0.85547 1.640625,1.95703 0,1.00781 -0.585938,1.89844 -1.265625,2.66016 l -2.414063,2.70703 v 0.28125 h 4.359375 z m 2.126953,-4.83984 c 0.503906,0.16406 0.925781,0.17578 1.054687,0.17578 1.359375,0 2.214844,-0.99609 2.214844,-1.16016 0,-0.0469 -0.02344,-0.10546 -0.09375,-0.10546 -0.02344,0 -0.04687,0 -0.152344,0.0469 -0.667968,0.28125 -1.242187,0.31641 -1.558593,0.31641 -0.785157,0 -1.347657,-0.23438 -1.582032,-0.32813 -0.08203,-0.0352 -0.105468,-0.0352 -0.117187,-0.0352 -0.09375,0 -0.09375,0.0703 -0.09375,0.25781 v 3.55078 c 0,0.21094 0,0.29297 0.140625,0.29297 0.05859,0 0.07031,-0.0117 0.199219,-0.16406 0.328125,-0.49219 0.890625,-0.77344 1.488281,-0.77344 0.632812,0 0.949219,0.58594 1.042969,0.78515 0.199218,0.46875 0.210937,1.05469 0.210937,1.51172 0,0.45703 0,1.13672 -0.328125,1.67578 -0.269531,0.42188 -0.738281,0.72657 -1.253906,0.72657 -0.796875,0 -1.570313,-0.53907 -1.78125,-1.40625 0.05859,0.0234 0.128906,0.0352 0.1875,0.0352 0.199219,0 0.527344,-0.1289 0.527344,-0.52734 0,-0.33984 -0.234375,-0.52734 -0.527344,-0.52734 -0.210938,0 -0.527344,0.10546 -0.527344,0.57421 0,1.00782 0.808594,2.16797 2.144531,2.16797 1.347657,0 2.53125,-1.125 2.53125,-2.64843 0,-1.41797 -0.960937,-2.60157 -2.214843,-2.60157 -0.679688,0 -1.207032,0.29297 -1.511719,0.63282 z m 0,0"
         style="fill:#000000;fill-opacity:1;fill-rule:nonzero;stroke:none" />
      <path
         id="path9"
         d="m -128.57034,161.92749 c 0,-0.26953 0,-0.28125 -0.2461,-0.28125 -0.28125,0.31641 -0.8789,0.76172 -2.10937,0.76172 v 0.35156 c 0.26953,0 0.86719,0 1.52344,-0.3164 v 6.22265 c 0,0.4336 -0.0352,0.57422 -1.07813,0.57422 h -0.375 v 0.35156 c 0.31641,-0.0234 1.47656,-0.0234 1.875,-0.0234 0.39844,0 1.54688,0 1.86328,0.0234 v -0.35156 h -0.36328 c -1.05469,0 -1.08984,-0.14062 -1.08984,-0.57422 z m 3.94336,0.82031 c 0.5039,0.16407 0.92578,0.17579 1.05468,0.17579 1.35938,0 2.21485,-0.9961 2.21485,-1.16016 0,-0.0469 -0.0234,-0.10547 -0.0937,-0.10547 -0.0234,0 -0.0469,0 -0.15235,0.0469 -0.66797,0.28125 -1.24218,0.3164 -1.55859,0.3164 -0.78516,0 -1.34766,-0.23437 -1.58203,-0.32812 -0.082,-0.0352 -0.10547,-0.0352 -0.11719,-0.0352 -0.0937,0 -0.0937,0.0703 -0.0937,0.25781 v 3.55078 c 0,0.21094 0,0.29297 0.14063,0.29297 0.0586,0 0.0703,-0.0117 0.19921,-0.16406 0.32813,-0.49219 0.89063,-0.77344 1.48829,-0.77344 0.63281,0 0.94921,0.58594 1.04296,0.78516 0.19922,0.46875 0.21094,1.05469 0.21094,1.51172 0,0.45703 0,1.13672 -0.32812,1.67578 -0.26953,0.42187 -0.73828,0.72656 -1.25391,0.72656 -0.79687,0 -1.57031,-0.53906 -1.78125,-1.40625 0.0586,0.0234 0.12891,0.0352 0.1875,0.0352 0.19922,0 0.52734,-0.12891 0.52734,-0.52735 0,-0.33984 -0.23437,-0.52734 -0.52734,-0.52734 -0.21094,0 -0.52734,0.10547 -0.52734,0.57422 0,1.00781 0.80859,2.16797 2.14453,2.16797 1.34765,0 2.53125,-1.125 2.53125,-2.64844 0,-1.41797 -0.96094,-2.60156 -2.21485,-2.60156 -0.67968,0 -1.20703,0.29297 -1.51171,0.63281 z m 0,0"
         style="fill:#000000;fill-opacity:1;fill-rule:nonzero;stroke:none" />
      <path
         id="path10"
         d="m 171.42966,166.11109 c 0,2.82421 -1.25391,3.41015 -1.96875,3.41015 -0.28125,0 -0.92578,-0.0352 -1.21875,-0.45703 h 0.0703 c 0.082,0.0234 0.51562,-0.0469 0.51562,-0.49219 0,-0.25781 -0.17578,-0.49218 -0.49218,-0.49218 -0.30469,0 -0.50391,0.21093 -0.50391,0.51562 0,0.75 0.59766,1.24219 1.64063,1.24219 1.5,0 2.9414,-1.58203 2.9414,-4.1836 0,-3.21093 -1.33594,-4.00781 -2.39062,-4.00781 -1.3125,0 -2.47266,1.10156 -2.47266,2.67188 0,1.58203 1.11328,2.66015 2.30859,2.66015 0.87891,0 1.33594,-0.64453 1.57032,-1.2539 z m -1.52344,0.62109 c -0.75,0 -1.07813,-0.60938 -1.18359,-0.83203 -0.19922,-0.45703 -0.19922,-1.03125 -0.19922,-1.57031 0,-0.66797 0,-1.24219 0.3164,-1.73438 0.21094,-0.31641 0.53907,-0.66797 1.1836,-0.66797 0.67968,0 1.03125,0.59766 1.14843,0.87891 0.23438,0.58594 0.23438,1.59375 0.23438,1.78125 0,0.99609 -0.44531,2.14453 -1.5,2.14453 z m 8.36133,-0.96094 c 0,-0.99609 -0.0586,-1.96875 -0.49219,-2.87109 -0.49219,-0.9961 -1.34766,-1.25391 -1.93359,-1.25391 -0.69141,0 -1.54688,0.33985 -1.98047,1.33594 -0.33985,0.75 -0.45703,1.48828 -0.45703,2.78906 0,1.16016 0.082,2.02735 0.51562,2.8711 0.45703,0.91406 1.28906,1.19531 1.91016,1.19531 1.04297,0 1.64062,-0.6211 1.98047,-1.3125 0.43359,-0.89063 0.45703,-2.0625 0.45703,-2.75391 z m -2.4375,3.83203 c -0.38672,0 -1.16016,-0.21093 -1.38282,-1.52343 -0.14062,-0.71485 -0.14062,-1.61719 -0.14062,-2.46094 0,-0.97266 0,-1.86328 0.19922,-2.56641 0.19922,-0.79687 0.80859,-1.17187 1.32422,-1.17187 0.45703,0 1.14843,0.28125 1.37109,1.30078 0.15234,0.67969 0.15234,1.6289 0.15234,2.4375 0,0.80859 0,1.71094 -0.1289,2.4375 -0.22266,1.32422 -0.97266,1.54687 -1.39453,1.54687 z m 0,0"
         style="fill:#000000;fill-opacity:1;fill-rule:nonzero;stroke:none" />
      <path
         id="path11"
         d="m 272.90817,162.7478 c 0.50391,0.16407 0.92578,0.17579 1.05469,0.17579 1.35937,0 2.21484,-0.9961 2.21484,-1.16016 0,-0.0469 -0.0234,-0.10547 -0.0937,-0.10547 -0.0234,0 -0.0469,0 -0.15234,0.0469 -0.66797,0.28125 -1.24219,0.3164 -1.55859,0.3164 -0.78516,0 -1.34766,-0.23437 -1.58204,-0.32812 -0.082,-0.0352 -0.10546,-0.0352 -0.11718,-0.0352 -0.0937,0 -0.0937,0.0703 -0.0937,0.25781 v 3.55078 c 0,0.21094 0,0.29297 0.14062,0.29297 0.0586,0 0.0703,-0.0117 0.19922,-0.16406 0.32813,-0.49219 0.89063,-0.77344 1.48828,-0.77344 0.63281,0 0.94922,0.58594 1.04297,0.78516 0.19922,0.46875 0.21094,1.05469 0.21094,1.51172 0,0.45703 0,1.13672 -0.32813,1.67578 -0.26953,0.42187 -0.73828,0.72656 -1.2539,0.72656 -0.79688,0 -1.57032,-0.53906 -1.78125,-1.40625 0.0586,0.0234 0.1289,0.0352 0.1875,0.0352 0.19922,0 0.52734,-0.12891 0.52734,-0.52735 0,-0.33984 -0.23437,-0.52734 -0.52734,-0.52734 -0.21094,0 -0.52735,0.10547 -0.52735,0.57422 0,1.00781 0.8086,2.16797 2.14453,2.16797 1.34766,0 2.53125,-1.125 2.53125,-2.64844 0,-1.41797 -0.96093,-2.60156 -2.21484,-2.60156 -0.67969,0 -1.20703,0.29297 -1.51172,0.63281 z m 9.67383,3.02344 c 0,-0.99609 -0.0586,-1.96875 -0.49219,-2.87109 -0.49218,-0.9961 -1.34765,-1.25391 -1.93359,-1.25391 -0.69141,0 -1.54688,0.33985 -1.98047,1.33594 -0.33984,0.75 -0.45703,1.48828 -0.45703,2.78906 0,1.16016 0.082,2.02735 0.51562,2.8711 0.45704,0.91406 1.28907,1.19531 1.91016,1.19531 1.04297,0 1.64063,-0.6211 1.98047,-1.3125 0.43359,-0.89063 0.45703,-2.0625 0.45703,-2.75391 z m -2.4375,3.83203 c -0.38672,0 -1.16016,-0.21093 -1.38281,-1.52343 -0.14063,-0.71485 -0.14063,-1.61719 -0.14063,-2.46094 0,-0.97266 0,-1.86328 0.19922,-2.56641 0.19922,-0.79687 0.8086,-1.17187 1.32422,-1.17187 0.45703,0 1.14844,0.28125 1.37109,1.30078 0.15235,0.67969 0.15235,1.6289 0.15235,2.4375 0,0.80859 0,1.71094 -0.12891,2.4375 -0.22265,1.32422 -0.97265,1.54687 -1.39453,1.54687 z m 0,0"
         style="fill:#000000;fill-opacity:1;fill-rule:nonzero;stroke:none" />
      <path
         id="path12"
         d="m -54.534211,245.32105 h -0.269531 c -0.03516,0.19922 -0.128906,0.85547 -0.246094,1.04297 -0.08203,0.11718 -0.761719,0.11718 -1.125,0.11718 h -2.214844 c 0.328125,-0.28125 1.054688,-1.04297 1.371094,-1.33593 1.816406,-1.66407 2.484375,-2.28516 2.484375,-3.46875 0,-1.38282 -1.089844,-2.29688 -2.472656,-2.29688 -1.394531,0 -2.203125,1.18359 -2.203125,2.20313 0,0.60937 0.527344,0.60937 0.5625,0.60937 0.246094,0 0.5625,-0.17578 0.5625,-0.5625 0,-0.32812 -0.234375,-0.55078 -0.5625,-0.55078 -0.105469,0 -0.128906,0 -0.164063,0.0117 0.222657,-0.82031 0.867188,-1.3711 1.640625,-1.3711 1.019532,0 1.640625,0.85547 1.640625,1.95704 0,1.00781 -0.585937,1.89843 -1.265625,2.66015 l -2.414062,2.70703 v 0.28125 h 4.359375 z m 0,0"
         style="fill:#000000;fill-opacity:1;fill-rule:nonzero;stroke:none" />
      <path
         id="path13"
         d="m -51.481477,243.82105 c 0.02344,-0.0703 0.328125,-0.66797 0.761719,-1.05469 0.316406,-0.28125 0.726563,-0.46875 1.183594,-0.46875 0.480469,0 0.644531,0.35156 0.644531,0.83203 0,0.67969 -0.480469,2.03906 -0.726562,2.68359 -0.105469,0.29297 -0.164063,0.44532 -0.164063,0.66797 0,0.52735 0.375,0.96094 0.949219,0.96094 1.101562,0 1.523437,-1.75781 1.523437,-1.82812 0,-0.0586 -0.04687,-0.10547 -0.117187,-0.10547 -0.105469,0 -0.117188,0.0351 -0.175781,0.23437 -0.28125,0.98438 -0.738282,1.46485 -1.195313,1.46485 -0.128906,0 -0.316406,-0.0117 -0.316406,-0.39844 0,-0.29297 0.128906,-0.65625 0.199219,-0.82031 0.246093,-0.65625 0.75,-2.00391 0.75,-2.6836 0,-0.71484 -0.421875,-1.2539 -1.335938,-1.2539 -1.054687,0 -1.617187,0.75 -1.839844,1.05468 -0.03516,-0.67968 -0.527343,-1.05468 -1.042968,-1.05468 -0.386719,0 -0.644532,0.23437 -0.855469,0.63281 -0.210938,0.43359 -0.375,1.14844 -0.375,1.19531 0,0.0469 0.04687,0.10547 0.128906,0.10547 0.09375,0 0.105469,-0.0117 0.175781,-0.28125 0.1875,-0.72656 0.410157,-1.40625 0.890625,-1.40625 0.269532,0 0.363282,0.1875 0.363282,0.53906 0,0.26953 -0.117188,0.73828 -0.199219,1.10156 l -0.339844,1.28907 c -0.04687,0.23437 -0.175781,0.77343 -0.234375,0.98437 -0.08203,0.31641 -0.210937,0.87891 -0.210937,0.9375 0,0.16406 0.128906,0.29297 0.304687,0.29297 0.140625,0 0.316406,-0.0703 0.410156,-0.24609 0.02344,-0.0586 0.128907,-0.48047 0.1875,-0.71485 l 0.257813,-1.07812 z m 0,0"
         style="fill:#000000;fill-opacity:1;fill-rule:nonzero;stroke:none" />
      <path
         id="path14"
         d="m -44.939484,240.32886 c 0.632812,0 1.03125,0.45703 1.03125,1.30078 0,0.99609 -0.574219,1.28906 -0.996094,1.28906 -0.433594,0 -1.03125,-0.16406 -1.3125,-0.58593 0.292969,0 0.492187,-0.17579 0.492187,-0.44532 0,-0.25781 -0.1875,-0.43359 -0.445312,-0.43359 -0.210938,0 -0.433594,0.12891 -0.433594,0.45703 0,0.75 0.808594,1.24219 1.722656,1.24219 1.054688,0 1.792969,-0.72656 1.792969,-1.52344 0,-0.66797 -0.515625,-1.26562 -1.335937,-1.44141 0.632812,-0.22265 1.101562,-0.77343 1.101562,-1.40625 0,-0.63281 -0.714844,-1.08984 -1.546875,-1.08984 -0.855469,0 -1.5,0.45703 -1.5,1.06641 0,0.29297 0.199219,0.42187 0.410156,0.42187 0.246094,0 0.410157,-0.17578 0.410157,-0.41015 0,-0.29297 -0.257813,-0.39844 -0.433594,-0.41016 0.339844,-0.43359 0.949219,-0.46875 1.089844,-0.46875 0.210937,0 0.808593,0.0703 0.808593,0.89062 0,0.5625 -0.222656,0.89063 -0.339843,1.01954 -0.234375,0.24609 -0.421875,0.25781 -0.902344,0.29296 -0.152344,0.0117 -0.222656,0.0234 -0.222656,0.11719 0,0.11719 0.07031,0.11719 0.210937,0.11719 z m 0,0"
         style="fill:#000000;fill-opacity:1;fill-rule:nonzero;stroke:none" />
      <path
         id="path15"
         d="m -31.691437,244.57105 c 0.210937,0 0.421875,0 0.421875,-0.23438 0,-0.23437 -0.210938,-0.23437 -0.421875,-0.23437 h -6.46875 c -0.199219,0 -0.410157,0 -0.410157,0.23437 0,0.23438 0.210938,0.23438 0.410157,0.23438 z m 0,0"
         style="fill:#000000;fill-opacity:1;fill-rule:nonzero;stroke:none" />
      <path
         id="path16"
         d="m -22.348664,245.32105 h -0.269531 c -0.03516,0.19922 -0.128907,0.85547 -0.246094,1.04297 -0.08203,0.11718 -0.761719,0.11718 -1.125,0.11718 h -2.214844 c 0.328125,-0.28125 1.054688,-1.04297 1.371094,-1.33593 1.816406,-1.66407 2.484375,-2.28516 2.484375,-3.46875 0,-1.38282 -1.089844,-2.29688 -2.472656,-2.29688 -1.394532,0 -2.203125,1.18359 -2.203125,2.20313 0,0.60937 0.527343,0.60937 0.5625,0.60937 0.246093,0 0.5625,-0.17578 0.5625,-0.5625 0,-0.32812 -0.234375,-0.55078 -0.5625,-0.55078 -0.105469,0 -0.128907,0 -0.164063,0.0117 0.222656,-0.82031 0.867188,-1.3711 1.640625,-1.3711 1.019531,0 1.640625,0.85547 1.640625,1.95704 0,1.00781 -0.585937,1.89843 -1.265625,2.66015 l -2.414062,2.70703 v 0.28125 h 4.359375 z m 2.056641,-2.15625 c 0,-3.02344 1.476562,-3.50391 2.121093,-3.50391 0.433594,0 0.855469,0.12891 1.089844,0.49219 -0.140625,0 -0.597656,0 -0.597656,0.49219 0,0.25781 0.175781,0.49218 0.492187,0.49218 0.292969,0 0.492188,-0.1875 0.492188,-0.52734 0,-0.62109 -0.445313,-1.23047 -1.488281,-1.23047 -1.511719,0 -3.082032,1.53516 -3.082032,4.17188 0,3.28125 1.429688,4.01953 2.449219,4.01953 1.300781,0 2.414063,-1.125 2.414063,-2.6836 0,-1.59375 -1.113282,-2.66015 -2.308594,-2.66015 -1.066406,0 -1.453125,0.92578 -1.582031,1.26562 z m 1.476562,4.08984 c -0.75,0 -1.113281,-0.66797 -1.21875,-0.92578 -0.105469,-0.30469 -0.222656,-0.89063 -0.222656,-1.73438 0,-0.9375 0.421875,-2.12109 1.5,-2.12109 0.65625,0 1.007812,0.44531 1.183594,0.84375 0.1875,0.44531 0.1875,1.04297 0.1875,1.55859 0,0.60938 0,1.14844 -0.222657,1.60547 -0.304687,0.57422 -0.726562,0.77344 -1.207031,0.77344 z m 0,0"
         style="fill:#000000;fill-opacity:1;fill-rule:nonzero;stroke:none" />
      <path
         id="path17"
         d="m -13.445344,243.82105 c 0.02344,-0.0703 0.328125,-0.66797 0.761719,-1.05469 0.316406,-0.28125 0.726563,-0.46875 1.183594,-0.46875 0.480469,0 0.644531,0.35156 0.644531,0.83203 0,0.67969 -0.480469,2.03906 -0.726562,2.68359 -0.105469,0.29297 -0.164063,0.44532 -0.164063,0.66797 0,0.52735 0.375,0.96094 0.949219,0.96094 1.1015623,0 1.5234373,-1.75781 1.5234373,-1.82812 0,-0.0586 -0.046875,-0.10547 -0.1171875,-0.10547 -0.1054688,0 -0.1171875,0.0351 -0.1757813,0.23437 -0.28125,0.98438 -0.7382815,1.46485 -1.1953125,1.46485 -0.128906,0 -0.316406,-0.0117 -0.316406,-0.39844 0,-0.29297 0.128906,-0.65625 0.199219,-0.82031 0.246093,-0.65625 0.75,-2.00391 0.75,-2.6836 0,-0.71484 -0.421875,-1.2539 -1.335938,-1.2539 -1.054687,0 -1.617187,0.75 -1.839844,1.05468 -0.03516,-0.67968 -0.527343,-1.05468 -1.042968,-1.05468 -0.386719,0 -0.644532,0.23437 -0.855469,0.63281 -0.210938,0.43359 -0.375,1.14844 -0.375,1.19531 0,0.0469 0.04687,0.10547 0.128906,0.10547 0.09375,0 0.105469,-0.0117 0.175781,-0.28125 0.1875,-0.72656 0.410157,-1.40625 0.890625,-1.40625 0.269532,0 0.363282,0.1875 0.363282,0.53906 0,0.26953 -0.117188,0.73828 -0.199219,1.10156 l -0.339844,1.28907 c -0.04687,0.23437 -0.175781,0.77343 -0.234375,0.98437 -0.08203,0.31641 -0.210937,0.87891 -0.210937,0.9375 0,0.16406 0.128906,0.29297 0.304687,0.29297 0.140625,0 0.316406,-0.0703 0.410156,-0.24609 0.02344,-0.0586 0.128907,-0.48047 0.1875,-0.71485 l 0.257813,-1.07812 z m 0,0"
         style="fill:#000000;fill-opacity:1;fill-rule:nonzero;stroke:none" />
      <path
         id="path18"
         d="m 101.51559,243.1648 c 0,-3.02344 1.47657,-3.50391 2.1211,-3.50391 0.43359,0 0.85547,0.12891 1.08984,0.49219 -0.14062,0 -0.59765,0 -0.59765,0.49219 0,0.25781 0.17578,0.49218 0.49218,0.49218 0.29297,0 0.49219,-0.1875 0.49219,-0.52734 0,-0.62109 -0.44531,-1.23047 -1.48828,-1.23047 -1.51172,0 -3.08203,1.53516 -3.08203,4.17188 0,3.28125 1.42969,4.01953 2.44922,4.01953 1.30078,0 2.41406,-1.125 2.41406,-2.6836 0,-1.59375 -1.11328,-2.66015 -2.30859,-2.66015 -1.06641,0 -1.45313,0.92578 -1.58204,1.26562 z m 1.47657,4.08984 c -0.75,0 -1.11328,-0.66797 -1.21875,-0.92578 -0.10547,-0.30469 -0.22266,-0.89063 -0.22266,-1.73438 0,-0.9375 0.42188,-2.12109 1.5,-2.12109 0.65625,0 1.00781,0.44531 1.18359,0.84375 0.1875,0.44531 0.1875,1.04297 0.1875,1.55859 0,0.60938 0,1.14844 -0.22265,1.60547 -0.30469,0.57422 -0.72656,0.77344 -1.20703,0.77344 z m 0,0"
         style="fill:#000000;fill-opacity:1;fill-rule:nonzero;stroke:none" />
      <path
         id="path19"
         d="m 256.93259,243.82105 c 0.0234,-0.0703 0.32812,-0.66797 0.76171,-1.05469 0.31641,-0.28125 0.72657,-0.46875 1.1836,-0.46875 0.48047,0 0.64453,0.35156 0.64453,0.83203 0,0.67969 -0.48047,2.03906 -0.72656,2.68359 -0.10547,0.29297 -0.16407,0.44532 -0.16407,0.66797 0,0.52735 0.375,0.96094 0.94922,0.96094 1.10157,0 1.52344,-1.75781 1.52344,-1.82812 0,-0.0586 -0.0469,-0.10547 -0.11719,-0.10547 -0.10547,0 -0.11718,0.0351 -0.17578,0.23437 -0.28125,0.98438 -0.73828,1.46485 -1.19531,1.46485 -0.12891,0 -0.31641,-0.0117 -0.31641,-0.39844 0,-0.29297 0.12891,-0.65625 0.19922,-0.82031 0.2461,-0.65625 0.75,-2.00391 0.75,-2.6836 0,-0.71484 -0.42187,-1.2539 -1.33594,-1.2539 -1.05468,0 -1.61718,0.75 -1.83984,1.05468 -0.0352,-0.67968 -0.52734,-1.05468 -1.04297,-1.05468 -0.38672,0 -0.64453,0.23437 -0.85547,0.63281 -0.21093,0.43359 -0.375,1.14844 -0.375,1.19531 0,0.0469 0.0469,0.10547 0.12891,0.10547 0.0937,0 0.10547,-0.0117 0.17578,-0.28125 0.1875,-0.72656 0.41016,-1.40625 0.89063,-1.40625 0.26953,0 0.36328,0.1875 0.36328,0.53906 0,0.26953 -0.11719,0.73828 -0.19922,1.10156 l -0.33985,1.28907 c -0.0469,0.23437 -0.17578,0.77343 -0.23437,0.98437 -0.082,0.31641 -0.21094,0.87891 -0.21094,0.9375 0,0.16406 0.12891,0.29297 0.30469,0.29297 0.14062,0 0.31641,-0.0703 0.41016,-0.24609 0.0234,-0.0586 0.1289,-0.48047 0.1875,-0.71485 l 0.25781,-1.07812 z m 0,0"
         style="fill:#000000;fill-opacity:1;fill-rule:nonzero;stroke:none" />
      <path
         id="path20"
         d="m -90.777375,284.97144 c 0,-0.10547 -0.08203,-0.10547 -0.105469,-0.10547 -0.02344,0 -0.07031,0 -0.175781,0.11719 l -0.820312,1.00781 c -0.421875,-0.71484 -1.078125,-1.125 -1.96875,-1.125 -2.589844,0 -5.261719,2.61328 -5.261719,5.42578 0,1.99219 1.394531,3.23438 3.140625,3.23438 0.960937,0 1.792969,-0.39844 2.484375,-0.98438 1.042969,-0.87891 1.359375,-2.03906 1.359375,-2.13281 0,-0.10547 -0.09375,-0.10547 -0.140625,-0.10547 -0.105469,0 -0.117188,0.0703 -0.140625,0.11719 -0.550781,1.86328 -2.15625,2.76562 -3.351563,2.76562 -1.277343,0 -2.367187,-0.82031 -2.367187,-2.50781 0,-0.38672 0.117187,-2.46094 1.464844,-4.03125 0.65625,-0.76172 1.78125,-1.44141 2.917968,-1.44141 1.3125,0 1.898438,1.08985 1.898438,2.3086 0,0.3164 -0.03516,0.57422 -0.03516,0.62109 0,0.11719 0.117187,0.11719 0.152343,0.11719 0.140625,0 0.152344,-0.0117 0.199219,-0.23438 z m 2.179688,7.42969 c -0.105469,0.41015 -0.128907,0.52734 -0.960938,0.52734 -0.234375,0 -0.351562,0 -0.351562,0.22266 0,0.1289 0.07031,0.1289 0.304687,0.1289 h 3.796875 c 2.414063,0 4.769531,-2.49609 4.769531,-5.16797 0,-1.72265 -1.03125,-3 -2.742187,-3 h -3.832031 c -0.234375,0 -0.339844,0 -0.339844,0.23438 0,0.11719 0.105469,0.11719 0.292969,0.11719 0.726562,0 0.726562,0.0937 0.726562,0.22265 0,0.0234 0,0.0937 -0.04687,0.28125 z m 2.519531,-6.46875 c 0.117187,-0.44532 0.164062,-0.46875 0.621094,-0.46875 h 1.324218 c 1.113282,0 2.144532,0.60937 2.144532,2.26171 0,0.59766 -0.234375,2.67188 -1.394532,3.98438 -0.339843,0.39844 -1.242187,1.21875 -2.625,1.21875 h -1.359375 c -0.164062,0 -0.1875,0 -0.257812,-0.0117 -0.128906,-0.0117 -0.140625,-0.0352 -0.140625,-0.12891 0,-0.082 0.02344,-0.15234 0.04687,-0.25781 z m 0,0"
         style="fill:#000000;fill-opacity:1;fill-rule:nonzero;stroke:none" />
      <path
         id="path21"
         d="m -21.759797,291.95581 c -0.410156,0.70313 -0.820312,0.9375 -1.394531,0.97266 -0.128906,0.0117 -0.222656,0.0117 -0.222656,0.23437 0,0.0703 0.05859,0.11719 0.140625,0.11719 0.210937,0 0.75,-0.0234 0.972656,-0.0234 0.339844,0 0.726562,0.0234 1.054687,0.0234 0.07031,0 0.222657,0 0.222657,-0.22265 0,-0.11719 -0.09375,-0.12891 -0.175782,-0.12891 -0.269531,-0.0234 -0.492187,-0.11719 -0.492187,-0.39844 0,-0.17578 0.07031,-0.30469 0.222656,-0.5625 l 0.902344,-1.51172 h 3.058594 c 0.01172,0.10547 0.01172,0.21094 0.02344,0.31641 0.03516,0.30469 0.175781,1.54687 0.175781,1.78125 0,0.35156 -0.609375,0.375 -0.796875,0.375 -0.140625,0 -0.269531,0 -0.269531,0.22266 0,0.1289 0.105469,0.1289 0.175781,0.1289 0.210938,0 0.445313,-0.0234 0.65625,-0.0234 h 0.679688 c 0.726562,0 1.253906,0.0234 1.265625,0.0234 0.08203,0 0.210937,0 0.210937,-0.22265 0,-0.12891 -0.105468,-0.12891 -0.28125,-0.12891 -0.65625,0 -0.667968,-0.10547 -0.714843,-0.45703 l -0.726563,-7.46485 c -0.02344,-0.23437 -0.07031,-0.25781 -0.199219,-0.25781 -0.117187,0 -0.1875,0.0234 -0.304687,0.19922 z m 1.441406,-1.83984 2.402344,-4.01953 0.410156,4.01953 z m 9.676758,-4.18359 c 0.117188,-0.44532 0.164063,-0.46875 0.621094,-0.46875 h 1.5585937 c 1.3476562,0 1.3476562,1.14843 1.3476562,1.2539 0,0.97266 -0.9609375,2.20313 -2.5429687,2.20313 h -1.7226562 z m 2.0273439,3.08203 c 1.3007813,-0.2461 2.484375,-1.14844 2.484375,-2.25 0,-0.92578 -0.8320312,-1.65235 -2.1796875,-1.65235 h -3.8320314 c -0.234375,0 -0.339844,0 -0.339844,0.23438 0,0.11719 0.105469,0.11719 0.292969,0.11719 0.726563,0 0.726563,0.0937 0.726563,0.22265 0,0.0234 0,0.0937 -0.04687,0.28125 l -1.617188,6.4336 c -0.105469,0.41015 -0.128906,0.52734 -0.960937,0.52734 -0.234375,0 -0.351563,0 -0.351563,0.22266 0,0.1289 0.07031,0.1289 0.304688,0.1289 h 4.101562 c 1.8281252,0 3.2460939,-1.38281 3.2460939,-2.58984 0,-0.98438 -0.8671875,-1.58203 -1.828125,-1.67578 z m -1.6992189,3.91406 h -1.617187 c -0.164063,0 -0.1875,0 -0.257813,-0.0117 -0.128906,-0.0117 -0.152344,-0.0352 -0.152344,-0.12891 0,-0.082 0.03516,-0.15234 0.05859,-0.25781 l 0.832031,-3.375 h 2.2500004 c 1.40625,0 1.40625,1.3125 1.40625,1.40625 0,1.14844 -1.0429687,2.36719 -2.5195314,2.36719 z m 13.7226564,-7.95703 c 0,-0.10547 -0.082031,-0.10547 -0.1054687,-0.10547 -0.023437,0 -0.070312,0 -0.1757813,0.11719 l -0.8203125,1.00781 c -0.421875,-0.71484 -1.078125,-1.125 -1.96874996,-1.125 -2.58984374,0 -5.26171874,2.61328 -5.26171874,5.42578 0,1.99219 1.3945312,3.23438 3.140625,3.23438 0.96093749,0 1.79296874,-0.39844 2.48437499,-0.98438 1.04296871,-0.87891 1.35937501,-2.03906 1.35937501,-2.13281 0,-0.10547 -0.09375,-0.10547 -0.140625,-0.10547 -0.1054688,0 -0.1171875,0.0703 -0.140625,0.11719 -0.5507813,1.86328 -2.15625001,2.76562 -3.3515625,2.76562 -1.2773438,0 -2.3671875,-0.82031 -2.3671875,-2.50781 0,-0.38672 0.1171875,-2.46094 1.4648437,-4.03125 0.65625,-0.76172 1.78125004,-1.44141 2.91796879,-1.44141 1.31250001,0 1.89843751,1.08985 1.89843751,2.3086 0,0.3164 -0.035156,0.57422 -0.035156,0.62109 0,0.11719 0.1171875,0.11719 0.1523438,0.11719 0.140625,0 0.1523437,-0.0117 0.1992187,-0.23438 z m 2.1796875,7.42969 c -0.1054687,0.41015 -0.1289062,0.52734 -0.9609375,0.52734 -0.234375,0 -0.3515625,0 -0.3515625,0.22266 0,0.1289 0.070312,0.1289 0.3046875,0.1289 h 3.796875 c 2.4140626,0 4.7695316,-2.49609 4.7695316,-5.16797 0,-1.72265 -1.03125,-3 -2.742188,-3 H 6.5732109 c -0.234375,0 -0.3398437,0 -0.3398437,0.23438 0,0.11719 0.1054687,0.11719 0.2929687,0.11719 0.7265625,0 0.7265625,0.0937 0.7265625,0.22265 0,0.0234 0,0.0937 -0.046875,0.28125 z m 2.5195313,-6.46875 c 0.1171875,-0.44532 0.1640625,-0.46875 0.6210937,-0.46875 H 10.05368 c 1.113281,0 2.144531,0.60937 2.144531,2.26171 0,0.59766 -0.234375,2.67188 -1.394531,3.98438 -0.339844,0.39844 -1.2421878,1.21875 -2.6250003,1.21875 h -1.359375 c -0.1640625,0 -0.1875,0 -0.2578125,-0.0117 -0.1289063,-0.0117 -0.140625,-0.0352 -0.140625,-0.12891 0,-0.082 0.023437,-0.15234 0.046875,-0.25781 z m 0,0"
         style="fill:#000000;fill-opacity:1;fill-rule:nonzero;stroke:none" />
      <path
         id="path22"
         d="m 108.98044,290.50269 c 0.0117,-0.0352 0.0469,-0.11719 0.0469,-0.16406 0,-0.0586 -0.0469,-0.11719 -0.11718,-0.11719 -0.0469,0 -0.0703,0.0117 -0.10547,0.0469 -0.0234,0.0117 -0.0234,0.0352 -0.14063,0.26953 -0.70312,1.67579 -1.21875,2.39063 -3.1289,2.39063 h -1.7461 c -0.16406,0 -0.1875,0 -0.25781,-0.0117 -0.12891,-0.0117 -0.14063,-0.0352 -0.14063,-0.12891 0,-0.082 0.0234,-0.15234 0.0469,-0.25781 l 0.82031,-3.30469 h 1.1836 c 0.9375,0 1.00781,0.21094 1.00781,0.5625 0,0.11719 0,0.23438 -0.082,0.58594 -0.0352,0.0469 -0.0469,0.0937 -0.0469,0.12891 0,0.082 0.0703,0.1289 0.14063,0.1289 0.10547,0 0.11718,-0.0937 0.16406,-0.25781 l 0.67969,-2.77734 c 0,-0.0586 -0.0469,-0.11719 -0.11719,-0.11719 -0.10547,0 -0.11719,0.0469 -0.16406,0.22266 -0.2461,0.91406 -0.48047,1.18359 -1.54688,1.18359 h -1.13672 l 0.73828,-2.94141 c 0.11719,-0.42187 0.14063,-0.45703 0.6211,-0.45703 h 1.71094 c 1.47656,0 1.76953,0.39844 1.76953,1.30078 0,0.0117 0,0.35157 -0.0469,0.73829 -0.0117,0.0469 -0.0234,0.1289 -0.0234,0.15234 0,0.0937 0.0586,0.12891 0.12891,0.12891 0.082,0 0.14063,-0.0469 0.16406,-0.26954 l 0.2461,-2.08593 c 0,-0.0352 0.0234,-0.15235 0.0234,-0.17578 0,-0.14063 -0.10546,-0.14063 -0.3164,-0.14063 h -5.83594 c -0.23437,0 -0.35156,0 -0.35156,0.22266 0,0.1289 0.082,0.1289 0.29297,0.1289 0.73828,0 0.73828,0.082 0.73828,0.21094 0,0.0586 -0.0117,0.10547 -0.0469,0.24609 l -1.61718,6.45704 c -0.10547,0.41015 -0.12891,0.52734 -0.96094,0.52734 -0.23438,0 -0.35156,0 -0.35156,0.22266 0,0.1289 0.0703,0.1289 0.30468,0.1289 h 6 c 0.26953,0 0.28125,-0.0117 0.36328,-0.19922 z m 0,0"
         style="fill:#000000;fill-opacity:1;fill-rule:nonzero;stroke:none" />
      <path
         id="path23"
         d="m 207.9863,290.50269 c 0.0117,-0.0352 0.0469,-0.11719 0.0469,-0.16406 0,-0.0586 -0.0469,-0.11719 -0.11719,-0.11719 -0.0469,0 -0.0703,0.0117 -0.10546,0.0469 -0.0234,0.0117 -0.0234,0.0352 -0.14063,0.26953 -0.70312,1.67579 -1.21875,2.39063 -3.12891,2.39063 h -1.74609 c -0.16406,0 -0.1875,0 -0.25781,-0.0117 -0.12891,-0.0117 -0.14063,-0.0352 -0.14063,-0.12891 0,-0.082 0.0234,-0.15234 0.0469,-0.25781 l 0.82031,-3.30469 h 1.18359 c 0.9375,0 1.00782,0.21094 1.00782,0.5625 0,0.11719 0,0.23438 -0.082,0.58594 -0.0352,0.0469 -0.0469,0.0937 -0.0469,0.12891 0,0.082 0.0703,0.1289 0.14063,0.1289 0.10546,0 0.11718,-0.0937 0.16406,-0.25781 l 0.67969,-2.77734 c 0,-0.0586 -0.0469,-0.11719 -0.11719,-0.11719 -0.10547,0 -0.11719,0.0469 -0.16406,0.22266 -0.2461,0.91406 -0.48047,1.18359 -1.54688,1.18359 h -1.13672 l 0.73828,-2.94141 c 0.11719,-0.42187 0.14063,-0.45703 0.6211,-0.45703 h 1.71093 c 1.47657,0 1.76954,0.39844 1.76954,1.30078 0,0.0117 0,0.35157 -0.0469,0.73829 -0.0117,0.0469 -0.0234,0.1289 -0.0234,0.15234 0,0.0937 0.0586,0.12891 0.12891,0.12891 0.082,0 0.14062,-0.0469 0.16406,-0.26954 l 0.2461,-2.08593 c 0,-0.0352 0.0234,-0.15235 0.0234,-0.17578 0,-0.14063 -0.10547,-0.14063 -0.3164,-0.14063 h -5.83594 c -0.23438,0 -0.35156,0 -0.35156,0.22266 0,0.1289 0.082,0.1289 0.29297,0.1289 0.73828,0 0.73828,0.082 0.73828,0.21094 0,0.0586 -0.0117,0.10547 -0.0469,0.24609 l -1.61719,6.45704 c -0.10546,0.41015 -0.1289,0.52734 -0.96093,0.52734 -0.23438,0 -0.35157,0 -0.35157,0.22266 0,0.1289 0.0703,0.1289 0.30469,0.1289 h 6 c 0.26953,0 0.28125,-0.0117 0.36328,-0.19922 z m 9.99316,-5.53125 c 0,-0.10547 -0.082,-0.10547 -0.10547,-0.10547 -0.0234,0 -0.0703,0 -0.17578,0.11719 l -0.82031,1.00781 c -0.42188,-0.71484 -1.07813,-1.125 -1.96875,-1.125 -2.58985,0 -5.26172,2.61328 -5.26172,5.42578 0,1.99219 1.39453,3.23438 3.14062,3.23438 0.96094,0 1.79297,-0.39844 2.48438,-0.98438 1.04297,-0.87891 1.35937,-2.03906 1.35937,-2.13281 0,-0.10547 -0.0937,-0.10547 -0.14062,-0.10547 -0.10547,0 -0.11719,0.0703 -0.14063,0.11719 -0.55078,1.86328 -2.15625,2.76562 -3.35156,2.76562 -1.27734,0 -2.36719,-0.82031 -2.36719,-2.50781 0,-0.38672 0.11719,-2.46094 1.46485,-4.03125 0.65625,-0.76172 1.78125,-1.44141 2.91797,-1.44141 1.3125,0 1.89843,1.08985 1.89843,2.3086 0,0.3164 -0.0351,0.57422 -0.0351,0.62109 0,0.11719 0.11719,0.11719 0.15234,0.11719 0.14063,0 0.15235,-0.0117 0.19922,-0.23438 z m 0,0"
         style="fill:#000000;fill-opacity:1;fill-rule:nonzero;stroke:none" />
      <path
         id="path24"
         d="m -129.90042,308.29175 c -0.10547,0.41016 -0.12891,0.52734 -0.96094,0.52734 -0.23437,0 -0.35156,0 -0.35156,0.22266 0,0.12891 0.0703,0.12891 0.30469,0.12891 h 3.79687 c 2.41406,0 4.76953,-2.4961 4.76953,-5.16797 0,-1.72266 -1.03125,-3 -2.74219,-3 h -3.83203 c -0.23437,0 -0.33984,0 -0.33984,0.23437 0,0.11719 0.10547,0.11719 0.29297,0.11719 0.72656,0 0.72656,0.0937 0.72656,0.22266 0,0.0234 0,0.0937 -0.0469,0.28125 z m 2.51953,-6.46875 c 0.11719,-0.44531 0.16406,-0.46875 0.62109,-0.46875 h 1.32422 c 1.11328,0 2.14453,0.60938 2.14453,2.26172 0,0.59766 -0.23437,2.67187 -1.39453,3.98437 -0.33984,0.39844 -1.24219,1.21875 -2.625,1.21875 h -1.35937 c -0.16407,0 -0.1875,0 -0.25782,-0.0117 -0.1289,-0.0117 -0.14062,-0.0352 -0.14062,-0.12891 0,-0.082 0.0234,-0.15234 0.0469,-0.25781 z m 13.95703,4.57031 c 0.0117,-0.0351 0.0469,-0.11718 0.0469,-0.16406 0,-0.0586 -0.0469,-0.11719 -0.11719,-0.11719 -0.0469,0 -0.0703,0.0117 -0.10547,0.0469 -0.0234,0.0117 -0.0234,0.0352 -0.14063,0.26953 -0.70312,1.67578 -1.21875,2.39062 -3.1289,2.39062 h -1.7461 c -0.16406,0 -0.1875,0 -0.25781,-0.0117 -0.1289,-0.0117 -0.14062,-0.0352 -0.14062,-0.12891 0,-0.082 0.0234,-0.15234 0.0469,-0.25781 l 0.82031,-3.30469 h 1.1836 c 0.9375,0 1.00781,0.21094 1.00781,0.5625 0,0.11719 0,0.23437 -0.082,0.58594 -0.0352,0.0469 -0.0469,0.0937 -0.0469,0.1289 0,0.082 0.0703,0.12891 0.14063,0.12891 0.10547,0 0.11719,-0.0937 0.16406,-0.25781 l 0.67969,-2.77735 c 0,-0.0586 -0.0469,-0.11718 -0.11719,-0.11718 -0.10547,0 -0.11719,0.0469 -0.16406,0.22265 -0.24609,0.91406 -0.48047,1.1836 -1.54688,1.1836 h -1.13671 l 0.73828,-2.94141 c 0.11718,-0.42188 0.14062,-0.45703 0.62109,-0.45703 h 1.71094 c 1.47656,0 1.76953,0.39844 1.76953,1.30078 0,0.0117 0,0.35156 -0.0469,0.73828 -0.0117,0.0469 -0.0234,0.12891 -0.0234,0.15234 0,0.0937 0.0586,0.12891 0.1289,0.12891 0.082,0 0.14063,-0.0469 0.16407,-0.26953 l 0.24609,-2.08594 c 0,-0.0351 0.0234,-0.15234 0.0234,-0.17578 0,-0.14062 -0.10547,-0.14062 -0.31641,-0.14062 h -5.83594 c -0.23437,0 -0.35156,0 -0.35156,0.22265 0,0.12891 0.082,0.12891 0.29297,0.12891 0.73828,0 0.73828,0.082 0.73828,0.21094 0,0.0586 -0.0117,0.10546 -0.0469,0.24609 l -1.61719,6.45703 c -0.10547,0.41016 -0.12891,0.52734 -0.96094,0.52734 -0.23437,0 -0.35156,0 -0.35156,0.22266 0,0.12891 0.0703,0.12891 0.30469,0.12891 h 6 c 0.26953,0 0.28125,-0.0117 0.36328,-0.19922 z m 0,0"
         style="fill:#000000;fill-opacity:1;fill-rule:nonzero;stroke:none" />
      <path
         id="path25"
         d="m -37.123078,301.823 c 0.117187,-0.44531 0.164062,-0.46875 0.621094,-0.46875 h 1.558593 c 1.347657,0 1.347657,1.14844 1.347657,1.25391 0,0.97265 -0.960938,2.20312 -2.542969,2.20312 h -1.722656 z m 2.027344,3.08203 c 1.300781,-0.24609 2.484375,-1.14844 2.484375,-2.25 0,-0.92578 -0.832032,-1.65234 -2.179688,-1.65234 h -3.832031 c -0.234375,0 -0.339844,0 -0.339844,0.23437 0,0.11719 0.105469,0.11719 0.292969,0.11719 0.726562,0 0.726562,0.0937 0.726562,0.22266 0,0.0234 0,0.0937 -0.04687,0.28125 l -1.617187,6.43359 c -0.105469,0.41016 -0.128906,0.52734 -0.960938,0.52734 -0.234375,0 -0.351562,0 -0.351562,0.22266 0,0.12891 0.07031,0.12891 0.304687,0.12891 h 4.101563 c 1.828125,0 3.246094,-1.38282 3.246094,-2.58985 0,-0.98437 -0.867188,-1.58203 -1.828125,-1.67578 z m -1.699219,3.91406 h -1.617188 c -0.164062,0 -0.1875,0 -0.257812,-0.0117 -0.128906,-0.0117 -0.152344,-0.0352 -0.152344,-0.12891 0,-0.082 0.03516,-0.15234 0.05859,-0.25781 l 0.832031,-3.375 h 2.25 c 1.40625,0 1.40625,1.3125 1.40625,1.40625 0,1.14843 -1.042969,2.36718 -2.519531,2.36718 z m 13.098633,-2.42578 c 0.01172,-0.0351 0.04687,-0.11718 0.04687,-0.16406 0,-0.0586 -0.04687,-0.11719 -0.117188,-0.11719 -0.04687,0 -0.07031,0.0117 -0.105469,0.0469 -0.02344,0.0117 -0.02344,0.0352 -0.140625,0.26953 -0.703125,1.67578 -1.21875,2.39062 -3.128906,2.39062 h -1.746094 c -0.164062,0 -0.1875,0 -0.257812,-0.0117 -0.128906,-0.0117 -0.140625,-0.0352 -0.140625,-0.12891 0,-0.082 0.02344,-0.15234 0.04687,-0.25781 l 0.820312,-3.30469 h 1.183594 c 0.9375,0 1.007813,0.21094 1.007813,0.5625 0,0.11719 0,0.23437 -0.08203,0.58594 -0.03516,0.0469 -0.04687,0.0937 -0.04687,0.1289 0,0.082 0.07031,0.12891 0.140625,0.12891 0.105469,0 0.117188,-0.0937 0.164063,-0.25781 l 0.679687,-2.77735 c 0,-0.0586 -0.04687,-0.11718 -0.117187,-0.11718 -0.105469,0 -0.117188,0.0469 -0.164063,0.22265 -0.246093,0.91406 -0.480468,1.1836 -1.546875,1.1836 h -1.136718 l 0.738281,-2.94141 c 0.117187,-0.42188 0.140625,-0.45703 0.621094,-0.45703 h 1.710937 c 1.476563,0 1.769531,0.39844 1.769531,1.30078 0,0.0117 0,0.35156 -0.04687,0.73828 -0.01172,0.0469 -0.02344,0.12891 -0.02344,0.15234 0,0.0937 0.05859,0.12891 0.128906,0.12891 0.08203,0 0.140625,-0.0469 0.164063,-0.26953 l 0.246093,-2.08594 c 0,-0.0351 0.02344,-0.15234 0.02344,-0.17578 0,-0.14062 -0.105469,-0.14062 -0.316406,-0.14062 h -5.835938 c -0.234375,0 -0.351562,0 -0.351562,0.22265 0,0.12891 0.08203,0.12891 0.292968,0.12891 0.738282,0 0.738282,0.082 0.738282,0.21094 0,0.0586 -0.01172,0.10546 -0.04687,0.24609 l -1.617188,6.45703 c -0.105469,0.41016 -0.128906,0.52734 -0.960937,0.52734 -0.234375,0 -0.351563,0 -0.351563,0.22266 0,0.12891 0.07031,0.12891 0.304688,0.12891 h 6 c 0.269531,0 0.28125,-0.0117 0.363281,-0.19922 z m 0,0"
         style="fill:#000000;fill-opacity:1;fill-rule:nonzero;stroke:none" />
      <path
         id="path26"
         d="m 66.327117,305.26831 h 1.148438 c 0.902343,0 0.984375,0.21094 0.984375,0.55078 0,0.16407 -0.03516,0.32813 -0.09375,0.58594 -0.02344,0.0469 -0.03516,0.11719 -0.03516,0.14063 0,0.082 0.04687,0.1289 0.140625,0.1289 0.09375,0 0.105469,-0.0469 0.152344,-0.24609 l 0.691406,-2.77734 c 0,-0.0469 -0.03516,-0.11719 -0.117187,-0.11719 -0.105469,0 -0.117188,0.0469 -0.175781,0.24609 -0.246094,0.89063 -0.480469,1.14844 -1.523438,1.14844 h -1.089844 l 0.773438,-3.09375 c 0.117187,-0.42188 0.140625,-0.45703 0.621094,-0.45703 h 1.605468 c 1.5,0 1.710938,0.44531 1.710938,1.28906 0,0.0703 0,0.33984 -0.03516,0.64453 -0.01172,0.0469 -0.03516,0.21094 -0.03516,0.25781 0,0.0937 0.05859,0.12891 0.128907,0.12891 0.08203,0 0.128906,-0.0469 0.152343,-0.26953 l 0.257813,-2.08594 c 0,-0.0351 0.02344,-0.15234 0.02344,-0.17578 0,-0.14062 -0.105468,-0.14062 -0.328125,-0.14062 h -5.660156 c -0.234375,0 -0.351562,0 -0.351562,0.22265 0,0.12891 0.08203,0.12891 0.292968,0.12891 0.738282,0 0.738282,0.082 0.738282,0.21094 0,0.0586 -0.01172,0.10546 -0.04687,0.24609 l -1.617188,6.45703 c -0.105469,0.41016 -0.128906,0.52734 -0.960937,0.52734 -0.234375,0 -0.351563,0 -0.351563,0.22266 0,0.12891 0.105469,0.12891 0.175781,0.12891 0.234375,0 0.46875,-0.0234 0.691407,-0.0234 h 1.558593 c 0.257813,0 0.550782,0.0234 0.808594,0.0234 0.117188,0 0.257813,0 0.257813,-0.21094 0,-0.14063 -0.07031,-0.14063 -0.339844,-0.14063 -0.9375,0 -0.960938,-0.082 -0.960938,-0.25781 0,-0.0586 0.02344,-0.15234 0.04687,-0.23437 z m 0,0"
         style="fill:#000000;fill-opacity:1;fill-rule:nonzero;stroke:none" />
      <path
         id="path27"
         d="m 163.10641,305.26831 h 1.14844 c 0.90235,0 0.98438,0.21094 0.98438,0.55078 0,0.16407 -0.0352,0.32813 -0.0937,0.58594 -0.0234,0.0469 -0.0352,0.11719 -0.0352,0.14063 0,0.082 0.0469,0.1289 0.14063,0.1289 0.0937,0 0.10546,-0.0469 0.15234,-0.24609 l 0.69141,-2.77734 c 0,-0.0469 -0.0352,-0.11719 -0.11719,-0.11719 -0.10547,0 -0.11719,0.0469 -0.17578,0.24609 -0.2461,0.89063 -0.48047,1.14844 -1.52344,1.14844 h -1.08984 l 0.77343,-3.09375 c 0.11719,-0.42188 0.14063,-0.45703 0.6211,-0.45703 h 1.60547 c 1.5,0 1.71093,0.44531 1.71093,1.28906 0,0.0703 0,0.33984 -0.0352,0.64453 -0.0117,0.0469 -0.0352,0.21094 -0.0352,0.25781 0,0.0937 0.0586,0.12891 0.12891,0.12891 0.082,0 0.1289,-0.0469 0.15234,-0.26953 l 0.25781,-2.08594 c 0,-0.0351 0.0234,-0.15234 0.0234,-0.17578 0,-0.14062 -0.10547,-0.14062 -0.32812,-0.14062 h -5.66016 c -0.23438,0 -0.35156,0 -0.35156,0.22265 0,0.12891 0.082,0.12891 0.29297,0.12891 0.73828,0 0.73828,0.082 0.73828,0.21094 0,0.0586 -0.0117,0.10546 -0.0469,0.24609 l -1.61719,6.45703 c -0.10546,0.41016 -0.1289,0.52734 -0.96093,0.52734 -0.23438,0 -0.35157,0 -0.35157,0.22266 0,0.12891 0.10547,0.12891 0.17579,0.12891 0.23437,0 0.46875,-0.0234 0.6914,-0.0234 h 1.5586 c 0.25781,0 0.55078,0.0234 0.80859,0.0234 0.11719,0 0.25781,0 0.25781,-0.21094 0,-0.14063 -0.0703,-0.14063 -0.33984,-0.14063 -0.9375,0 -0.96094,-0.082 -0.96094,-0.25781 0,-0.0586 0.0234,-0.15234 0.0469,-0.23437 z m 10.02247,-3.44531 c 0.11718,-0.44531 0.16406,-0.46875 0.62109,-0.46875 h 1.55859 c 1.34766,0 1.34766,1.14844 1.34766,1.25391 0,0.97265 -0.96094,2.20312 -2.54297,2.20312 h -1.72266 z m 2.02734,3.08203 c 1.30078,-0.24609 2.48437,-1.14844 2.48437,-2.25 0,-0.92578 -0.83203,-1.65234 -2.17968,-1.65234 h -3.83203 c -0.23438,0 -0.33985,0 -0.33985,0.23437 0,0.11719 0.10547,0.11719 0.29297,0.11719 0.72656,0 0.72656,0.0937 0.72656,0.22266 0,0.0234 0,0.0937 -0.0469,0.28125 l -1.61719,6.43359 c -0.10547,0.41016 -0.12891,0.52734 -0.96094,0.52734 -0.23437,0 -0.35156,0 -0.35156,0.22266 0,0.12891 0.0703,0.12891 0.30469,0.12891 h 4.10156 c 1.82813,0 3.24609,-1.38282 3.24609,-2.58985 0,-0.98437 -0.86718,-1.58203 -1.82812,-1.67578 z m -1.69922,3.91406 h -1.61719 c -0.16406,0 -0.1875,0 -0.25781,-0.0117 -0.12891,-0.0117 -0.15234,-0.0352 -0.15234,-0.12891 0,-0.082 0.0351,-0.15234 0.0586,-0.25781 l 0.83203,-3.375 h 2.25 c 1.40625,0 1.40625,1.3125 1.40625,1.40625 0,1.14843 -1.04297,2.36718 -2.51953,2.36718 z m 0,0"
         style="fill:#000000;fill-opacity:1;fill-rule:nonzero;stroke:none" />
      <path
         id="path28"
         d="m 320.1611,306.39331 c 0.0117,-0.0351 0.0469,-0.11718 0.0469,-0.16406 0,-0.0586 -0.0469,-0.11719 -0.11719,-0.11719 -0.0469,0 -0.0703,0.0117 -0.10547,0.0469 -0.0234,0.0117 -0.0234,0.0352 -0.14062,0.26953 -0.70313,1.67578 -1.21875,2.39062 -3.12891,2.39062 h -1.74609 c -0.16407,0 -0.1875,0 -0.25782,-0.0117 -0.1289,-0.0117 -0.14062,-0.0352 -0.14062,-0.12891 0,-0.082 0.0234,-0.15234 0.0469,-0.25781 l 0.82032,-3.30469 h 1.18359 c 0.9375,0 1.00781,0.21094 1.00781,0.5625 0,0.11719 0,0.23437 -0.082,0.58594 -0.0352,0.0469 -0.0469,0.0937 -0.0469,0.1289 0,0.082 0.0703,0.12891 0.14062,0.12891 0.10547,0 0.11719,-0.0937 0.16406,-0.25781 l 0.67969,-2.77735 c 0,-0.0586 -0.0469,-0.11718 -0.11719,-0.11718 -0.10547,0 -0.11718,0.0469 -0.16406,0.22265 -0.24609,0.91406 -0.48047,1.1836 -1.54687,1.1836 h -1.13672 l 0.73828,-2.94141 c 0.11719,-0.42188 0.14062,-0.45703 0.62109,-0.45703 h 1.71094 c 1.47656,0 1.76953,0.39844 1.76953,1.30078 0,0.0117 0,0.35156 -0.0469,0.73828 -0.0117,0.0469 -0.0234,0.12891 -0.0234,0.15234 0,0.0937 0.0586,0.12891 0.1289,0.12891 0.082,0 0.14063,-0.0469 0.16407,-0.26953 l 0.24609,-2.08594 c 0,-0.0351 0.0234,-0.15234 0.0234,-0.17578 0,-0.14062 -0.10547,-0.14062 -0.31641,-0.14062 h -5.83594 c -0.23437,0 -0.35156,0 -0.35156,0.22265 0,0.12891 0.082,0.12891 0.29297,0.12891 0.73828,0 0.73828,0.082 0.73828,0.21094 0,0.0586 -0.0117,0.10546 -0.0469,0.24609 l -1.61719,6.45703 c -0.10547,0.41016 -0.12891,0.52734 -0.96094,0.52734 -0.23437,0 -0.35156,0 -0.35156,0.22266 0,0.12891 0.0703,0.12891 0.30469,0.12891 h 6 c 0.26953,0 0.28125,-0.0117 0.36328,-0.19922 z m 4.61426,-1.125 h 1.14844 c 0.90234,0 0.98437,0.21094 0.98437,0.55078 0,0.16407 -0.0351,0.32813 -0.0937,0.58594 -0.0234,0.0469 -0.0351,0.11719 -0.0351,0.14063 0,0.082 0.0469,0.1289 0.14062,0.1289 0.0937,0 0.10547,-0.0469 0.15234,-0.24609 l 0.69141,-2.77734 c 0,-0.0469 -0.0352,-0.11719 -0.11719,-0.11719 -0.10547,0 -0.11718,0.0469 -0.17578,0.24609 -0.24609,0.89063 -0.48047,1.14844 -1.52344,1.14844 h -1.08984 l 0.77344,-3.09375 c 0.11719,-0.42188 0.14062,-0.45703 0.62109,-0.45703 h 1.60547 c 1.5,0 1.71094,0.44531 1.71094,1.28906 0,0.0703 0,0.33984 -0.0352,0.64453 -0.0117,0.0469 -0.0351,0.21094 -0.0351,0.25781 0,0.0937 0.0586,0.12891 0.1289,0.12891 0.082,0 0.12891,-0.0469 0.15235,-0.26953 l 0.25781,-2.08594 c 0,-0.0351 0.0234,-0.15234 0.0234,-0.17578 0,-0.14062 -0.10547,-0.14062 -0.32813,-0.14062 h -5.66016 c -0.23437,0 -0.35156,0 -0.35156,0.22265 0,0.12891 0.082,0.12891 0.29297,0.12891 0.73828,0 0.73828,0.082 0.73828,0.21094 0,0.0586 -0.0117,0.10546 -0.0469,0.24609 l -1.61719,6.45703 c -0.10547,0.41016 -0.12891,0.52734 -0.96094,0.52734 -0.23437,0 -0.35156,0 -0.35156,0.22266 0,0.12891 0.10547,0.12891 0.17578,0.12891 0.23438,0 0.46875,-0.0234 0.69141,-0.0234 h 1.55859 c 0.25781,0 0.55078,0.0234 0.80859,0.0234 0.11719,0 0.25782,0 0.25782,-0.21094 0,-0.14063 -0.0703,-0.14063 -0.33985,-0.14063 -0.9375,0 -0.96093,-0.082 -0.96093,-0.25781 0,-0.0586 0.0234,-0.15234 0.0469,-0.23437 z m 0,0"
         style="fill:#000000;fill-opacity:1;fill-rule:nonzero;stroke:none" />
      <path
         id="path29"
         d="m -75.484406,323.73706 c -0.410156,0.70313 -0.820313,0.9375 -1.394531,0.97266 -0.128907,0.0117 -0.222657,0.0117 -0.222657,0.23437 0,0.0703 0.05859,0.11719 0.140625,0.11719 0.210938,0 0.75,-0.0234 0.972657,-0.0234 0.339843,0 0.726562,0.0234 1.054687,0.0234 0.07031,0 0.222656,0 0.222656,-0.22265 0,-0.11719 -0.09375,-0.12891 -0.175781,-0.12891 -0.269531,-0.0234 -0.492187,-0.11719 -0.492187,-0.39844 0,-0.17578 0.07031,-0.30469 0.222656,-0.5625 l 0.902344,-1.51172 h 3.058593 c 0.01172,0.10547 0.01172,0.21094 0.02344,0.31641 0.03516,0.30469 0.175781,1.54687 0.175781,1.78125 0,0.35156 -0.609375,0.375 -0.796875,0.375 -0.140625,0 -0.269531,0 -0.269531,0.22266 0,0.1289 0.105469,0.1289 0.175781,0.1289 0.210938,0 0.445313,-0.0234 0.65625,-0.0234 h 0.679688 c 0.726562,0 1.253906,0.0234 1.265625,0.0234 0.08203,0 0.210937,0 0.210937,-0.22265 0,-0.12891 -0.105469,-0.12891 -0.28125,-0.12891 -0.65625,0 -0.667969,-0.10547 -0.714844,-0.45703 l -0.726562,-7.46485 c -0.02344,-0.23437 -0.07031,-0.25781 -0.199219,-0.25781 -0.117187,0 -0.1875,0.0234 -0.304687,0.19922 z m 1.441406,-1.83984 2.402344,-4.01953 0.410156,4.01953 z m 8.856445,-0.73828 h 1.148438 c 0.902344,0 0.984375,0.21094 0.984375,0.55078 0,0.16406 -0.03516,0.32812 -0.09375,0.58594 -0.02344,0.0469 -0.03516,0.11718 -0.03516,0.14062 0,0.082 0.04687,0.12891 0.140625,0.12891 0.09375,0 0.105468,-0.0469 0.152343,-0.2461 l 0.691407,-2.77734 c 0,-0.0469 -0.03516,-0.11719 -0.117188,-0.11719 -0.105469,0 -0.117187,0.0469 -0.175781,0.2461 -0.246094,0.89062 -0.480469,1.14843 -1.523438,1.14843 h -1.089843 l 0.773437,-3.09375 c 0.117188,-0.42187 0.140625,-0.45703 0.621094,-0.45703 h 1.605469 c 1.5,0 1.710937,0.44532 1.710937,1.28907 0,0.0703 0,0.33984 -0.03516,0.64453 -0.01172,0.0469 -0.03516,0.21093 -0.03516,0.25781 0,0.0937 0.05859,0.12891 0.128906,0.12891 0.08203,0 0.128906,-0.0469 0.152344,-0.26954 l 0.257812,-2.08593 c 0,-0.0352 0.02344,-0.15235 0.02344,-0.17578 0,-0.14063 -0.105469,-0.14063 -0.328125,-0.14063 h -5.660157 c -0.234375,0 -0.351562,0 -0.351562,0.22266 0,0.1289 0.08203,0.1289 0.292969,0.1289 0.738281,0 0.738281,0.082 0.738281,0.21094 0,0.0586 -0.01172,0.10547 -0.04687,0.24609 l -1.617188,6.45704 c -0.105468,0.41015 -0.128906,0.52734 -0.960937,0.52734 -0.234375,0 -0.351563,0 -0.351563,0.22266 0,0.1289 0.105469,0.1289 0.175782,0.1289 0.234375,0 0.46875,-0.0234 0.691406,-0.0234 h 1.558594 c 0.257812,0 0.550781,0.0234 0.808593,0.0234 0.117188,0 0.257813,0 0.257813,-0.21094 0,-0.14062 -0.07031,-0.14062 -0.339844,-0.14062 -0.9375,0 -0.960937,-0.082 -0.960937,-0.25781 0,-0.0586 0.02344,-0.15235 0.04687,-0.23438 z m 13.962891,1.125 c 0.01172,-0.0352 0.04687,-0.11719 0.04687,-0.16406 0,-0.0586 -0.04687,-0.11719 -0.117188,-0.11719 -0.04687,0 -0.07031,0.0117 -0.105468,0.0469 -0.02344,0.0117 -0.02344,0.0352 -0.140625,0.26953 -0.703125,1.67579 -1.21875,2.39063 -3.128907,2.39063 h -1.746093 c -0.164063,0 -0.1875,0 -0.257813,-0.0117 -0.128906,-0.0117 -0.140625,-0.0352 -0.140625,-0.12891 0,-0.082 0.02344,-0.15234 0.04687,-0.25781 l 0.820313,-3.30469 h 1.183593 c 0.9375,0 1.007813,0.21094 1.007813,0.5625 0,0.11719 0,0.23438 -0.08203,0.58594 -0.03516,0.0469 -0.04687,0.0937 -0.04687,0.12891 0,0.082 0.07031,0.1289 0.140625,0.1289 0.105468,0 0.117187,-0.0937 0.164062,-0.25781 l 0.679688,-2.77734 c 0,-0.0586 -0.04687,-0.11719 -0.117188,-0.11719 -0.105469,0 -0.117187,0.0469 -0.164062,0.22266 -0.246094,0.91406 -0.480469,1.18359 -1.546875,1.18359 h -1.136719 l 0.738281,-2.94141 c 0.117188,-0.42187 0.140625,-0.45703 0.621094,-0.45703 h 1.710937 c 1.476563,0 1.769532,0.39844 1.769532,1.30078 0,0.0117 0,0.35157 -0.04687,0.73829 -0.01172,0.0469 -0.02344,0.1289 -0.02344,0.15234 0,0.0937 0.05859,0.12891 0.128906,0.12891 0.08203,0 0.140625,-0.0469 0.164063,-0.26954 l 0.246094,-2.08593 c 0,-0.0352 0.02344,-0.15235 0.02344,-0.17578 0,-0.14063 -0.105469,-0.14063 -0.316406,-0.14063 H -56.6846 c -0.234375,0 -0.351562,0 -0.351562,0.22266 0,0.1289 0.08203,0.1289 0.292969,0.1289 0.738281,0 0.738281,0.082 0.738281,0.21094 0,0.0586 -0.01172,0.10547 -0.04687,0.24609 l -1.617188,6.45704 c -0.105468,0.41015 -0.128906,0.52734 -0.960937,0.52734 -0.234375,0 -0.351563,0 -0.351563,0.22266 0,0.1289 0.07031,0.1289 0.304688,0.1289 h 6 c 0.269531,0 0.28125,-0.0117 0.363281,-0.19922 z m 0,0"
         style="fill:#000000;fill-opacity:1;fill-rule:nonzero;stroke:none" />
      <path
         id="path30"
         d="m 13.162078,317.39722 c 0,-0.26953 0,-0.28125 -0.246094,-0.28125 -0.28125,0.31641 -0.878906,0.76172 -2.109375,0.76172 v 0.35156 c 0.269532,0 0.867188,0 1.523438,-0.31641 v 6.22266 c 0,0.43359 -0.03516,0.57422 -1.078125,0.57422 h -0.375 v 0.35156 c 0.316406,-0.0234 1.476562,-0.0234 1.875,-0.0234 0.398437,0 1.546875,0 1.863281,0.0234 v -0.35156 h -0.363281 c -1.054688,0 -1.089844,-0.14063 -1.089844,-0.57422 z m 7.763672,3.84375 c 0,-0.99609 -0.05859,-1.96875 -0.492187,-2.87109 -0.492188,-0.9961 -1.347657,-1.25391 -1.933594,-1.25391 -0.691406,0 -1.546875,0.33984 -1.980469,1.33594 -0.339844,0.75 -0.457031,1.48828 -0.457031,2.78906 0,1.16016 0.08203,2.02734 0.515625,2.87109 0.457031,0.91407 1.289062,1.19532 1.910156,1.19532 1.042969,0 1.640625,-0.6211 1.980469,-1.3125 0.433594,-0.89063 0.457031,-2.0625 0.457031,-2.75391 z m -2.4375,3.83203 c -0.386719,0 -1.160156,-0.21094 -1.382812,-1.52344 -0.140625,-0.71484 -0.140625,-1.61718 -0.140625,-2.46093 0,-0.97266 0,-1.86329 0.199218,-2.56641 0.199219,-0.79688 0.808594,-1.17188 1.324219,-1.17188 0.457031,0 1.148438,0.28125 1.371094,1.30079 0.152344,0.67968 0.152344,1.6289 0.152344,2.4375 0,0.80859 0,1.71093 -0.128907,2.4375 -0.222656,1.32421 -0.972656,1.54687 -1.394531,1.54687 z m 0,0"
         style="fill:#000000;fill-opacity:1;fill-rule:nonzero;stroke:none" />
      <path
         id="path31"
         d="m 145.35837,323.73706 c -0.41016,0.70313 -0.82032,0.9375 -1.39453,0.97266 -0.12891,0.0117 -0.22266,0.0117 -0.22266,0.23437 0,0.0703 0.0586,0.11719 0.14062,0.11719 0.21094,0 0.75,-0.0234 0.97266,-0.0234 0.33984,0 0.72656,0.0234 1.05469,0.0234 0.0703,0 0.22265,0 0.22265,-0.22265 0,-0.11719 -0.0937,-0.12891 -0.17578,-0.12891 -0.26953,-0.0234 -0.49218,-0.11719 -0.49218,-0.39844 0,-0.17578 0.0703,-0.30469 0.22265,-0.5625 l 0.90235,-1.51172 h 3.05859 c 0.0117,0.10547 0.0117,0.21094 0.0234,0.31641 0.0351,0.30469 0.17578,1.54687 0.17578,1.78125 0,0.35156 -0.60938,0.375 -0.79688,0.375 -0.14062,0 -0.26953,0 -0.26953,0.22266 0,0.1289 0.10547,0.1289 0.17578,0.1289 0.21094,0 0.44532,-0.0234 0.65625,-0.0234 h 0.67969 c 0.72656,0 1.25391,0.0234 1.26563,0.0234 0.082,0 0.21093,0 0.21093,-0.22265 0,-0.12891 -0.10547,-0.12891 -0.28125,-0.12891 -0.65625,0 -0.66797,-0.10547 -0.71484,-0.45703 l -0.72656,-7.46485 c -0.0234,-0.23437 -0.0703,-0.25781 -0.19922,-0.25781 -0.11719,0 -0.1875,0.0234 -0.30469,0.19922 z m 1.4414,-1.83984 2.40235,-4.01953 0.41015,4.01953 z m 9.67676,-4.18359 c 0.11719,-0.44532 0.16406,-0.46875 0.6211,-0.46875 h 1.55859 c 1.34766,0 1.34766,1.14843 1.34766,1.2539 0,0.97266 -0.96094,2.20313 -2.54297,2.20313 h -1.72266 z m 2.02735,3.08203 c 1.30078,-0.2461 2.48437,-1.14844 2.48437,-2.25 0,-0.92578 -0.83203,-1.65235 -2.17969,-1.65235 h -3.83203 c -0.23437,0 -0.33984,0 -0.33984,0.23438 0,0.11719 0.10547,0.11719 0.29297,0.11719 0.72656,0 0.72656,0.0937 0.72656,0.22265 0,0.0234 0,0.0937 -0.0469,0.28125 l -1.61718,6.4336 c -0.10547,0.41015 -0.12891,0.52734 -0.96094,0.52734 -0.23438,0 -0.35156,0 -0.35156,0.22266 0,0.1289 0.0703,0.1289 0.30468,0.1289 h 4.10157 c 1.82812,0 3.24609,-1.38281 3.24609,-2.58984 0,-0.98438 -0.86719,-1.58203 -1.82812,-1.67578 z m -1.69922,3.91406 h -1.61719 c -0.16406,0 -0.1875,0 -0.25781,-0.0117 -0.12891,-0.0117 -0.15235,-0.0352 -0.15235,-0.12891 0,-0.082 0.0352,-0.15234 0.0586,-0.25781 l 0.83203,-3.375 h 2.25 c 1.40625,0 1.40625,1.3125 1.40625,1.40625 0,1.14844 -1.04297,2.36719 -2.51953,2.36719 z m 13.72265,-7.95703 c 0,-0.10547 -0.082,-0.10547 -0.10547,-0.10547 -0.0234,0 -0.0703,0 -0.17578,0.11719 l -0.82031,1.00781 c -0.42187,-0.71484 -1.07812,-1.125 -1.96875,-1.125 -2.58984,0 -5.26172,2.61328 -5.26172,5.42578 0,1.99219 1.39453,3.23438 3.14063,3.23438 0.96093,0 1.79297,-0.39844 2.48437,-0.98438 1.04297,-0.87891 1.35938,-2.03906 1.35938,-2.13281 0,-0.10547 -0.0937,-0.10547 -0.14063,-0.10547 -0.10547,0 -0.11719,0.0703 -0.14062,0.11719 -0.55078,1.86328 -2.15625,2.76562 -3.35157,2.76562 -1.27734,0 -2.36718,-0.82031 -2.36718,-2.50781 0,-0.38672 0.11718,-2.46094 1.46484,-4.03125 0.65625,-0.76172 1.78125,-1.44141 2.91797,-1.44141 1.3125,0 1.89844,1.08985 1.89844,2.3086 0,0.3164 -0.0352,0.57422 -0.0352,0.62109 0,0.11719 0.11719,0.11719 0.15234,0.11719 0.14063,0 0.15235,-0.0117 0.19922,-0.23438 z m 2.17969,7.42969 c -0.10547,0.41015 -0.12891,0.52734 -0.96094,0.52734 -0.23437,0 -0.35156,0 -0.35156,0.22266 0,0.1289 0.0703,0.1289 0.30469,0.1289 h 3.79687 c 2.41407,0 4.76953,-2.49609 4.76953,-5.16797 0,-1.72265 -1.03125,-3 -2.74218,-3 h -3.83203 c -0.23438,0 -0.33985,0 -0.33985,0.23438 0,0.11719 0.10547,0.11719 0.29297,0.11719 0.72656,0 0.72656,0.0937 0.72656,0.22265 0,0.0234 0,0.0937 -0.0469,0.28125 z m 2.51953,-6.46875 c 0.11719,-0.44532 0.16406,-0.46875 0.6211,-0.46875 h 1.32421 c 1.11329,0 2.14454,0.60937 2.14454,2.26171 0,0.59766 -0.23438,2.67188 -1.39454,3.98438 -0.33984,0.39844 -1.24218,1.21875 -2.625,1.21875 h -1.35937 c -0.16406,0 -0.1875,0 -0.25781,-0.0117 -0.12891,-0.0117 -0.14063,-0.0352 -0.14063,-0.12891 0,-0.082 0.0234,-0.15234 0.0469,-0.25781 z m 0,0"
         style="fill:#000000;fill-opacity:1;fill-rule:nonzero;stroke:none" />
      <path
         id="path32"
         d="m -16.082062,369.59839 c -0.05859,0.19922 -0.05859,0.22266 -0.222657,0.44531 -0.269531,0.33985 -0.796875,0.85547 -1.359375,0.85547 -0.480468,0 -0.761718,-0.44531 -0.761718,-1.14844 0,-0.65625 0.375,-1.99218 0.597656,-2.49609 0.410156,-0.84375 0.972656,-1.26562 1.441406,-1.26562 0.785156,0 0.9375,0.97265 0.9375,1.0664 0,0.0117 -0.03516,0.17578 -0.04687,0.19922 z m 0.761718,-3.07031 c -0.128906,-0.30469 -0.445312,-0.78516 -1.066406,-0.78516 -1.359375,0 -2.8125,1.7461 -2.8125,3.51563 0,1.18359 0.691406,1.875 1.5,1.875 0.65625,0 1.21875,-0.51563 1.558594,-0.90235 0.117187,0.70313 0.679687,0.90235 1.042969,0.90235 0.351562,0 0.644531,-0.21094 0.855468,-0.64453 0.1875,-0.41016 0.363282,-1.13672 0.363282,-1.1836 0,-0.0586 -0.04687,-0.10547 -0.117188,-0.10547 -0.117187,0 -0.128906,0.0586 -0.175781,0.23438 -0.175781,0.71484 -0.398438,1.46484 -0.890625,1.46484 -0.351563,0 -0.375,-0.3164 -0.375,-0.55078 0,-0.28125 0.03516,-0.41016 0.140625,-0.87891 0.08203,-0.29296 0.152344,-0.5625 0.246094,-0.90234 0.433593,-1.79297 0.550781,-2.22656 0.550781,-2.29687 0,-0.16407 -0.140625,-0.29297 -0.316406,-0.29297 -0.375,0 -0.480469,0.41015 -0.503907,0.55078 z m 0,0"
         style="fill:#000000;fill-opacity:1;fill-rule:nonzero;stroke:none" />
      <path
         id="path33"
         d="m -3.6162422,363.02417 c 0.011719,-0.0469 0.035156,-0.1289 0.035156,-0.1875 0,-0.11719 -0.1289063,-0.11719 -0.1523438,-0.11719 -0.011719,0 -0.4335937,0.0352 -0.65625,0.0586 -0.1992187,0.0117 -0.375,0.0351 -0.5976562,0.0469 -0.28125,0.0234 -0.3632813,0.0352 -0.3632813,0.25782 0,0.11718 0.1171875,0.11718 0.234375,0.11718 0.609375,0 0.609375,0.10547 0.609375,0.22266 0,0.082 -0.09375,0.43359 -0.140625,0.64453 l -0.2929687,1.14844 c -0.1171875,0.48047 -0.796875,3.19922 -0.84375,3.41015 -0.058594,0.29297 -0.058594,0.50391 -0.058594,0.65625 0,1.21875 0.6796875,1.85157 1.453125,1.85157 1.3945313,0 2.8242188,-1.78125 2.8242188,-3.51563 0,-1.10156 -0.6210938,-1.875 -1.5117188,-1.875 -0.6328125,0 -1.1835937,0.51563 -1.4179687,0.75 z m -0.7617187,7.875 c -0.375,0 -0.796875,-0.29297 -0.796875,-1.21875 0,-0.39844 0.035156,-0.62109 0.2460937,-1.46484 0.046875,-0.15235 0.234375,-0.91406 0.28125,-1.06641 0.023437,-0.10547 0.7265625,-1.16015 1.5351563,-1.16015 0.5273437,0 0.7734375,0.51562 0.7734375,1.13671 0,0.57422 -0.3398438,1.9336 -0.6328125,2.55469 -0.3046875,0.64453 -0.8554688,1.21875 -1.40625,1.21875 z m 0,0"
         style="fill:#000000;fill-opacity:1;fill-rule:nonzero;stroke:none" />
      <path
         id="path34"
         d="m 10.42282,366.51636 c -0.234375,0 -0.339843,0 -0.5039059,0.15234 -0.070312,0.0586 -0.1992188,0.23438 -0.1992188,0.42188 0,0.24609 0.1757813,0.38672 0.3984377,0.38672 0.292969,0 0.609375,-0.23438 0.609375,-0.71485 0,-0.57422 -0.550781,-1.01953 -1.3710939,-1.01953 -1.5703125,0 -3.1289063,1.71094 -3.1289063,3.41016 0,1.04297 0.6445313,1.98047 1.8632813,1.98047 1.6289062,0 2.6484379,-1.26563 2.6484379,-1.41797 0,-0.0703 -0.07031,-0.12891 -0.117188,-0.12891 -0.03516,0 -0.04687,0.0117 -0.152344,0.11719 -0.7617184,1.00781 -1.8984372,1.19531 -2.3554684,1.19531 -0.8203125,0 -1.0898438,-0.71484 -1.0898438,-1.3125 0,-0.42187 0.1992188,-1.58203 0.6328125,-2.39062 0.3164063,-0.5625 0.9609375,-1.20703 1.7109375,-1.20703 0.1523438,0 0.8085942,0.0234 1.0546872,0.52734 z m 0,0"
         style="fill:#000000;fill-opacity:1;fill-rule:nonzero;stroke:none" />
      <path
         id="path35"
         d="m 106.44626,369.59839 c -0.0586,0.19922 -0.0586,0.22266 -0.22266,0.44531 -0.26953,0.33985 -0.79687,0.85547 -1.35937,0.85547 -0.48047,0 -0.76172,-0.44531 -0.76172,-1.14844 0,-0.65625 0.375,-1.99218 0.59765,-2.49609 0.41016,-0.84375 0.97266,-1.26562 1.44141,-1.26562 0.78516,0 0.9375,0.97265 0.9375,1.0664 0,0.0117 -0.0352,0.17578 -0.0469,0.19922 z m 0.76172,-3.07031 c -0.12891,-0.30469 -0.44532,-0.78516 -1.06641,-0.78516 -1.35937,0 -2.8125,1.7461 -2.8125,3.51563 0,1.18359 0.69141,1.875 1.5,1.875 0.65625,0 1.21875,-0.51563 1.55859,-0.90235 0.11719,0.70313 0.67969,0.90235 1.04297,0.90235 0.35157,0 0.64453,-0.21094 0.85547,-0.64453 0.1875,-0.41016 0.36328,-1.13672 0.36328,-1.1836 0,-0.0586 -0.0469,-0.10547 -0.11718,-0.10547 -0.11719,0 -0.12891,0.0586 -0.17579,0.23438 -0.17578,0.71484 -0.39843,1.46484 -0.89062,1.46484 -0.35156,0 -0.375,-0.3164 -0.375,-0.55078 0,-0.28125 0.0352,-0.41016 0.14062,-0.87891 0.082,-0.29296 0.15235,-0.5625 0.2461,-0.90234 0.43359,-1.79297 0.55078,-2.22656 0.55078,-2.29687 0,-0.16407 -0.14063,-0.29297 -0.31641,-0.29297 -0.375,0 -0.48047,0.41015 -0.5039,0.55078 z m 12.98437,-1.33594 c 0.22266,-0.0937 0.2461,-0.17578 0.2461,-0.24609 0,-0.12891 -0.10547,-0.23438 -0.23438,-0.23438 -0.0234,0 -0.0352,0.0117 -0.19922,0.0937 l -6.46875,2.97656 c -0.21094,0.0937 -0.23437,0.17579 -0.23437,0.2461 0,0.082 0.0117,0.15234 0.23437,0.25781 l 6.46875,2.97656 c 0.15235,0.082 0.17578,0.0937 0.19922,0.0937 0.12891,0 0.23438,-0.10547 0.23438,-0.23437 0,-0.0703 -0.0234,-0.15235 -0.2461,-0.2461 l -6.15234,-2.83593 z m 7.30957,-2.16797 c 0.0117,-0.0469 0.0352,-0.1289 0.0352,-0.1875 0,-0.11719 -0.12891,-0.11719 -0.15235,-0.11719 -0.0117,0 -0.43359,0.0352 -0.65625,0.0586 -0.19921,0.0117 -0.375,0.0351 -0.59765,0.0469 -0.28125,0.0234 -0.36328,0.0352 -0.36328,0.25782 0,0.11718 0.11718,0.11718 0.23437,0.11718 0.60938,0 0.60938,0.10547 0.60938,0.22266 0,0.082 -0.0937,0.43359 -0.14063,0.64453 l -0.29297,1.14844 c -0.11718,0.48047 -0.79687,3.19922 -0.84375,3.41015 -0.0586,0.29297 -0.0586,0.50391 -0.0586,0.65625 0,1.21875 0.67969,1.85157 1.45312,1.85157 1.39454,0 2.82422,-1.78125 2.82422,-3.51563 0,-1.10156 -0.62109,-1.875 -1.51172,-1.875 -0.63281,0 -1.18359,0.51563 -1.41796,0.75 z m -0.76172,7.875 c -0.375,0 -0.79687,-0.29297 -0.79687,-1.21875 0,-0.39844 0.0352,-0.62109 0.24609,-1.46484 0.0469,-0.15235 0.23438,-0.91406 0.28125,-1.06641 0.0234,-0.10547 0.72656,-1.16015 1.53516,-1.16015 0.52734,0 0.77344,0.51562 0.77344,1.13671 0,0.57422 -0.33985,1.9336 -0.63282,2.55469 -0.30468,0.64453 -0.85547,1.21875 -1.40625,1.21875 z m 0,0"
         style="fill:#000000;fill-opacity:1;fill-rule:nonzero;stroke:none" />
      <path
         id="path36"
         d="m 69.757781,391.76441 c -0.05859,0.19922 -0.05859,0.22265 -0.222656,0.44531 -0.269531,0.33984 -0.796875,0.85547 -1.359375,0.85547 -0.480469,0 -0.761719,-0.44531 -0.761719,-1.14844 0,-0.65625 0.375,-1.99219 0.597657,-2.49609 0.410156,-0.84375 0.972656,-1.26563 1.441406,-1.26563 0.785156,0 0.9375,0.97266 0.9375,1.06641 0,0.0117 -0.03516,0.17578 -0.04687,0.19922 z m 0.761719,-3.07032 c -0.128906,-0.30468 -0.445312,-0.78515 -1.066406,-0.78515 -1.359375,0 -2.8125,1.74609 -2.8125,3.51562 0,1.1836 0.691406,1.875 1.5,1.875 0.65625,0 1.21875,-0.51562 1.558594,-0.90234 0.117187,0.70312 0.679687,0.90234 1.042968,0.90234 0.351563,0 0.644532,-0.21093 0.855469,-0.64453 0.1875,-0.41015 0.363281,-1.13672 0.363281,-1.18359 0,-0.0586 -0.04687,-0.10547 -0.117187,-0.10547 -0.117188,0 -0.128906,0.0586 -0.175781,0.23437 -0.175782,0.71485 -0.398438,1.46485 -0.890625,1.46485 -0.351563,0 -0.375,-0.31641 -0.375,-0.55078 0,-0.28125 0.03516,-0.41016 0.140625,-0.87891 0.08203,-0.29297 0.152343,-0.5625 0.246093,-0.90234 0.433594,-1.79297 0.550782,-2.22657 0.550782,-2.29688 0,-0.16406 -0.140625,-0.29297 -0.316407,-0.29297 -0.375,0 -0.480468,0.41016 -0.503906,0.55078 z m 0,0"
         style="fill:#000000;fill-opacity:1;fill-rule:nonzero;stroke:none" />
      <path
         id="path37"
         d="m 79.733367,390.41675 h 3.304688 c 0.164062,0 0.375,0 0.375,-0.21094 0,-0.22265 -0.199219,-0.22265 -0.375,-0.22265 h -3.304688 v -3.30469 c 0,-0.16406 0,-0.38672 -0.210937,-0.38672 -0.234375,0 -0.234375,0.21094 -0.234375,0.38672 v 3.30469 h -3.292969 c -0.175781,0 -0.386719,0 -0.386719,0.21093 0,0.22266 0.199219,0.22266 0.386719,0.22266 h 3.292969 v 3.30469 c 0,0.16406 0,0.38672 0.222656,0.38672 0.222656,0 0.222656,-0.21094 0.222656,-0.38672 z m 0,0"
         style="fill:#000000;fill-opacity:1;fill-rule:nonzero;stroke:none" />
      <path
         id="path38"
         d="m 91.399383,388.68238 c -0.234375,0 -0.339844,0 -0.503906,0.15234 -0.07031,0.0586 -0.199219,0.23437 -0.199219,0.42187 0,0.2461 0.175781,0.38672 0.398437,0.38672 0.292969,0 0.609375,-0.23437 0.609375,-0.71484 0,-0.57422 -0.550781,-1.01953 -1.371093,-1.01953 -1.570313,0 -3.128907,1.71094 -3.128907,3.41015 0,1.04297 0.644532,1.98047 1.863282,1.98047 1.628906,0 2.648437,-1.26562 2.648437,-1.41797 0,-0.0703 -0.07031,-0.1289 -0.117187,-0.1289 -0.03516,0 -0.04687,0.0117 -0.152344,0.11719 -0.761719,1.00781 -1.898438,1.19531 -2.355469,1.19531 -0.820312,0 -1.089844,-0.71485 -1.089844,-1.3125 0,-0.42188 0.199219,-1.58203 0.632813,-2.39063 0.316406,-0.5625 0.960937,-1.20703 1.710937,-1.20703 0.152344,0 0.808594,0.0234 1.054688,0.52735 z m 0,0"
         style="fill:#000000;fill-opacity:1;fill-rule:nonzero;stroke:none" />
    </g>
    <path
       id="path39"
       d="M 0,0 H 25.601"
       style="fill:none;stroke:#000000;stroke-width:0.478;stroke-linecap:butt;stroke-linejoin:miter;stroke-miterlimit:10;stroke-dasharray:none;stroke-opacity:1"
       transform="matrix(1.3333333,0,0,-1.3333333,362.93867,587.11067)" />
    <g
       id="g39"
       aria-label="b+c&#10;&gt;&#10;a"
       transform="matrix(1.3333333,0,0,1.3333333,363.71733,602.02933)">
      <path
         id="path40"
         d="m 2.7666875,-7.99075 c 0.011719,-0.046875 0.035156,-0.1289062 0.035156,-0.1875 0,-0.1171875 -0.1289063,-0.1171875 -0.1523438,-0.1171875 -0.011719,0 -0.4335937,0.035156 -0.65625,0.058594 -0.1992187,0.011719 -0.375,0.035156 -0.5976562,0.046875 -0.28125,0.023437 -0.3632813,0.035156 -0.3632813,0.2578125 0,0.1171875 0.1171875,0.1171875 0.234375,0.1171875 0.609375,0 0.609375,0.1054687 0.609375,0.2226562 0,0.082031 -0.09375,0.4335938 -0.140625,0.6445313 L 1.4424688,-5.7993437 C 1.3252813,-5.318875 0.64559375,-2.600125 0.59871875,-2.3891875 0.540125,-2.0962187 0.540125,-1.8852812 0.540125,-1.7329375 c 0,1.21875 0.6796875,1.8515625 1.453125,1.8515625 1.3945313,0 2.8242188,-1.78125 2.8242188,-3.515625 0,-1.1015625 -0.6210938,-1.875 -1.5117188,-1.875 -0.6328125,0 -1.1835937,0.515625 -1.4179687,0.75 z m -0.7617187,7.875 c -0.375,0 -0.796875,-0.29296875 -0.796875,-1.21875 0,-0.3984375 0.035156,-0.6210937 0.2460937,-1.4648437 0.046875,-0.1523438 0.234375,-0.9140625 0.28125,-1.0664063 0.023437,-0.1054687 0.7265625,-1.1601562 1.5351563,-1.1601562 0.5273437,0 0.7734375,0.515625 0.7734375,1.1367187 0,0.5742188 -0.3398438,1.9335938 -0.6328125,2.5546875 -0.3046875,0.64453125 -0.8554688,1.21875 -1.40625,1.21875 z m 0,0"
         style="fill:#000000;fill-opacity:1;fill-rule:nonzero;stroke:none" />
      <path
         id="path41"
         d="m 12.40243,-2.7641875 h 3.304687 c 0.164063,0 0.375,0 0.375,-0.2109375 0,-0.2226562 -0.199219,-0.2226562 -0.375,-0.2226562 H 12.40243 v -3.3046875 c 0,-0.1640625 0,-0.3867188 -0.210938,-0.3867188 -0.234375,0 -0.234375,0.2109375 -0.234375,0.3867188 v 3.3046875 H 8.6641484 c -0.1757812,0 -0.3867187,0 -0.3867187,0.2109375 0,0.2226562 0.1992187,0.2226562 0.3867187,0.2226562 H 11.957117 V 0.5405 c 0,0.1640625 0,0.38671875 0.222656,0.38671875 0.222657,0 0.222657,-0.2109375 0.222657,-0.38671875 z m 0,0"
         style="fill:#000000;fill-opacity:1;fill-rule:nonzero;stroke:none" />
      <path
         id="path42"
         d="m 24.071375,-4.4985625 c -0.234375,0 -0.339844,0 -0.503906,0.1523438 -0.07031,0.058594 -0.199219,0.234375 -0.199219,0.421875 0,0.2460937 0.175781,0.3867187 0.398438,0.3867187 0.292968,0 0.609375,-0.234375 0.609375,-0.7148437 0,-0.5742188 -0.550782,-1.0195313 -1.371094,-1.0195313 -1.570313,0 -3.128906,1.7109375 -3.128906,3.4101563 0,1.0429687 0.644531,1.9804687 1.863281,1.9804687 1.628906,0 2.648437,-1.265625 2.648437,-1.4179687 0,-0.070312 -0.07031,-0.1289063 -0.117187,-0.1289063 -0.03516,0 -0.04687,0.011719 -0.152344,0.1171875 -0.761719,1.0078125 -1.898437,1.1953125 -2.355469,1.1953125 -0.820312,0 -1.089843,-0.71484375 -1.089843,-1.3125 0,-0.421875 0.199218,-1.5820312 0.632812,-2.390625 0.316406,-0.5625 0.960938,-1.2070312 1.710938,-1.2070312 0.152343,0 0.808593,0.023437 1.054687,0.5273437 z m 13.335938,-6.4306645 c 0.234375,-0.105468 0.246093,-0.175781 0.246093,-0.257812 0,-0.07031 -0.02344,-0.152344 -0.246093,-0.246094 l -6.46875,-2.976562 c -0.152344,-0.08203 -0.175782,-0.09375 -0.199219,-0.09375 -0.140625,0 -0.222656,0.128906 -0.222656,0.222656 0,0.140625 0.09375,0.1875 0.246093,0.257812 l 6.140625,2.835938 -6.152343,2.8476562 c -0.234375,0.1054687 -0.234375,0.1875 -0.234375,0.2578125 0,0.09375 0.08203,0.2226562 0.222656,0.2226562 0.02344,0 0.03516,-0.011719 0.199219,-0.09375 z m 9.345703,-6.776367 c -0.05859,0.199219 -0.05859,0.222657 -0.222657,0.445313 -0.269531,0.339844 -0.796875,0.855469 -1.359375,0.855469 -0.480468,0 -0.761718,-0.445313 -0.761718,-1.148438 0,-0.65625 0.375,-1.992187 0.597656,-2.496094 0.410156,-0.84375 0.972656,-1.265625 1.441406,-1.265625 0.785156,0 0.9375,0.972657 0.9375,1.066407 0,0.01172 -0.03516,0.175781 -0.04687,0.199218 z m 0.761718,-3.070312 c -0.128906,-0.304688 -0.445312,-0.785156 -1.066406,-0.785156 -1.359375,0 -2.8125,1.746093 -2.8125,3.515625 0,1.183593 0.691406,1.875 1.5,1.875 0.65625,0 1.21875,-0.515625 1.558594,-0.902344 0.117187,0.703125 0.679687,0.902344 1.042969,0.902344 0.351562,0 0.644531,-0.210938 0.855468,-0.644532 0.1875,-0.410156 0.363282,-1.136718 0.363282,-1.183593 0,-0.05859 -0.04687,-0.105469 -0.117188,-0.105469 -0.117187,0 -0.128906,0.05859 -0.175781,0.234375 -0.175781,0.714844 -0.398438,1.464844 -0.890625,1.464844 -0.351563,0 -0.375,-0.316407 -0.375,-0.550782 0,-0.28125 0.03516,-0.410156 0.140625,-0.878906 0.08203,-0.292969 0.152344,-0.5625 0.246094,-0.902344 0.433593,-1.792968 0.550781,-2.226562 0.550781,-2.296875 0,-0.164062 -0.140625,-0.292968 -0.316406,-0.292968 -0.375,0 -0.480469,0.410156 -0.503907,0.550781 z m 0,0"
         style="fill:#000000;fill-opacity:1;fill-rule:nonzero;stroke:none" />
    </g>
    <path
       id="path43"
       d="M 0,0 H 6.145"
       style="fill:none;stroke:#000000;stroke-width:0.478;stroke-linecap:butt;stroke-linejoin:miter;stroke-miterlimit:10;stroke-dasharray:none;stroke-opacity:1"
       transform="matrix(1.3333333,0,0,-1.3333333,421.256,587.11067)" />
    <g
       id="g43"
       aria-label="b&#10;.&#10;ZADANIE5.&#10;Wypisanosiedemkolejnychliczbnaturalnych,przyczympierwszaznichjestparzysta.Suma&#10;pi¦ciupierwszychjestliczb¡trzycyfrow¡,natomiastsumapi¦ciuostatnichjestliczb¡czterocy-&#10;frow¡.Obliczsum¦tychsiedmiuliczb."
       transform="matrix(1.3333333,0,0,1.3333333,422.03467,602.02933)">
      <path
         id="path44"
         d="m 2.7659922,-7.99075 c 0.011719,-0.046875 0.035156,-0.1289062 0.035156,-0.1875 0,-0.1171875 -0.1289062,-0.1171875 -0.1523437,-0.1171875 -0.011719,0 -0.4335938,0.035156 -0.65625,0.058594 -0.1992188,0.011719 -0.375,0.035156 -0.5976563,0.046875 -0.28125,0.023437 -0.3632812,0.035156 -0.3632812,0.2578125 0,0.1171875 0.1171875,0.1171875 0.234375,0.1171875 0.609375,0 0.609375,0.1054687 0.609375,0.2226562 0,0.082031 -0.09375,0.4335938 -0.140625,0.6445313 l -0.2929688,1.1484375 c -0.1171875,0.4804687 -0.79687496,3.1992187 -0.84374996,3.4101562 -0.0585938,0.2929688 -0.0585938,0.5039063 -0.0585938,0.65625 0,1.21875 0.67968756,1.8515625 1.45312496,1.8515625 1.3945313,0 2.8242187,-1.78125 2.8242187,-3.515625 0,-1.1015625 -0.6210937,-1.875 -1.5117187,-1.875 -0.6328125,0 -1.1835938,0.515625 -1.4179688,0.75 z m -0.7617188,7.875 c -0.375,0 -0.796875,-0.29296875 -0.796875,-1.21875 0,-0.3984375 0.035156,-0.6210937 0.2460938,-1.4648437 0.046875,-0.1523438 0.234375,-0.9140625 0.28125,-1.0664063 0.023437,-0.1054687 0.7265625,-1.1601562 1.5351562,-1.1601562 0.5273438,0 0.7734375,0.515625 0.7734375,1.1367187 0,0.5742188 -0.3398437,1.9335938 -0.6328125,2.5546875 -0.3046875,0.64453125 -0.8554687,1.21875 -1.40625,1.21875 z m 6.9550782,-8.6572266 c 0,-0.3515625 -0.2929688,-0.5859375 -0.5742188,-0.5859375 -0.3515625,0 -0.5859375,0.2929688 -0.5859375,0.5742188 0,0.3515625 0.28125,0.5859375 0.5742188,0.5859375 0.3398437,0 0.5859375,-0.28125 0.5859375,-0.5742188 z m 0,0"
         style="fill:#000000;fill-opacity:1;fill-rule:nonzero;stroke:none" />
    </g>
  </g>
</svg>
