<?xml version="1.0" encoding="UTF-8" standalone="no"?>
<!-- Created with Inkscape (http://www.inkscape.org/) -->

<svg
   version="1.1"
   id="svg1"
   width="794.55066"
   height="1123.6533"
   viewBox="0 0 794.55066 1123.6533"
   sodipodi:docname="LigaMatematycznaMatuskiego_Gim_Zestaw1_2017_2018_page0.pdf"
   xmlns:inkscape="http://www.inkscape.org/namespaces/inkscape"
   xmlns:sodipodi="http://sodipodi.sourceforge.net/DTD/sodipodi-0.dtd"
   xmlns="http://www.w3.org/2000/svg"
   xmlns:svg="http://www.w3.org/2000/svg">
  <defs
     id="defs1" />
  <sodipodi:namedview
     id="namedview1"
     pagecolor="#ffffff"
     bordercolor="#000000"
     borderopacity="0.25"
     inkscape:showpageshadow="2"
     inkscape:pageopacity="0.0"
     inkscape:pagecheckerboard="0"
     inkscape:deskcolor="#d1d1d1">
    <inkscape:page
       x="0"
       y="0"
       inkscape:label="1"
       id="page1"
       width="794.55066"
       height="1123.6533"
       margin="0"
       bleed="0" />
  </sodipodi:namedview>
  <g
     id="g1"
     inkscape:groupmode="layer"
     inkscape:label="1">
    <g
       id="g2"
       aria-label="LIGAMATEMATYCZNA&#10;im.ZdzisªawaMatuskiego&#10;PADZIERNIK2017&#10;GIMNAZJUM&#10;ZADANIE1.&#10;Wiadomo,»e&#10;x−y+2017,y−z+2017,z−t+2017,t−w+2017,w−x+2017&#10;s¡kolejnymiliczbamicaªkowitymi.Znajd¹je.&#10;ZADANIE2.&#10;Trzyparymaª»e«skie:AniaiAdam,BeataiBartek,CelinaiCzarekmaj¡wsumie137lat.&#10;Ka»dyzpanówjesto5latstarszyodswojej»ony.SumaliczbylatBartkaiBeatywynosi&#10;47lat.Aniajestnajstarszaw±ródpa«imao4latawi¦cejni»najmªodszazkobiet.Ilelatma&#10;ka»daosoba?&#10;ZADANIE3.&#10;Wokr¡gopromieniurwpisanokwadratinatymokr¦guopisanotrójk¡trównoboczny.Suma&#10;dªugo±cibokukwadratuibokutrójk¡tarównobocznegojestrówna10.Wyznaczpromie«&#10;okr¦gu.&#10;ZADANIE4.&#10;Znajd¹dwieliczbynaturalne,którychsumajestrówna432iktórychnajwi¦kszywspólnydziel-&#10;nikto36.&#10;ZADANIE5.&#10;Wliczbietrzycyfrowejxskre±lonocyfr¦setekiotrzymanodwucyfrow¡liczb¦k.Gdywliczbie&#10;xskre±lonocyfr¦dziesi¡tek,tootrzymanoliczb¦dwucyfrow¡l,aposkre±leniuwliczbiex&#10;cyfryjedno±cipowstaªadwucyfrowaliczbam.Okazaªosi¦,»esumak+l+mjesttrzykrotnie&#10;mniejszaodliczbyx.Znajd¹x."
       transform="matrix(1.3333333,0,0,1.3333333,274.724,56.069333)">
      <path
         id="path2"
         d="m -78.695344,129.34937 c -0.375,0.0703 -0.515625,0.35156 -0.515625,0.58593 0,0.28125 0.222657,0.375 0.386719,0.375 0.363281,0 0.609375,-0.30468 0.609375,-0.63281 0,-0.49219 -0.574219,-0.72656 -1.078125,-0.72656 -0.726562,0 -1.125,0.71484 -1.242187,0.94922 -0.269532,-0.90235 -1.007813,-0.94922 -1.230469,-0.94922 -1.21875,0 -1.863281,1.57031 -1.863281,1.82812 0,0.0469 0.04687,0.10547 0.128906,0.10547 0.105469,0 0.128906,-0.0703 0.152344,-0.11718 0.398437,-1.32422 1.207031,-1.57032 1.546875,-1.57032 0.539062,0 0.644531,0.49219 0.644531,0.78516 0,0.25781 -0.07031,0.53906 -0.210938,1.11328 l -0.410156,1.62891 c -0.175781,0.72656 -0.527344,1.38281 -1.160156,1.38281 -0.05859,0 -0.351563,0 -0.609375,-0.15234 0.433594,-0.0937 0.527344,-0.44532 0.527344,-0.58594 0,-0.2461 -0.175782,-0.38672 -0.398438,-0.38672 -0.292969,0 -0.597656,0.24609 -0.597656,0.63281 0,0.50391 0.5625,0.72656 1.066406,0.72656 0.574219,0 0.984375,-0.45703 1.230469,-0.9375 0.199219,0.70313 0.796875,0.9375 1.230469,0.9375 1.230468,0 1.875,-1.55859 1.875,-1.82812 0,-0.0586 -0.04687,-0.10547 -0.128907,-0.10547 -0.105468,0 -0.117187,0.0586 -0.152343,0.15234 -0.316407,1.05469 -1.019532,1.54688 -1.546875,1.54688 -0.421875,0 -0.65625,-0.31641 -0.65625,-0.80859 0,-0.25782 0.05859,-0.44532 0.246093,-1.24219 l 0.421875,-1.61719 c 0.175782,-0.72656 0.585938,-1.24219 1.125,-1.24219 0.03516,0 0.363282,0 0.609375,0.15235 z m 0,0"
         style="fill:#000000;fill-opacity:1;fill-rule:nonzero;stroke:none" />
      <path
         id="path3"
         d="m -67.172883,131.47046 c 0.210938,0 0.421875,0 0.421875,-0.23437 0,-0.23438 -0.210937,-0.23438 -0.421875,-0.23438 h -6.46875 c -0.199219,0 -0.410156,0 -0.410156,0.23438 0,0.23437 0.210937,0.23437 0.410156,0.23437 z m 0,0"
         style="fill:#000000;fill-opacity:1;fill-rule:nonzero;stroke:none" />
      <path
         id="path4"
         d="m -59.951203,135.5603 c -0.316406,0.45704 -0.785156,0.86719 -1.371094,0.86719 -0.140625,0 -0.714844,-0.0234 -0.902344,-0.57422 0.04687,0.0117 0.105469,0.0117 0.128907,0.0117 0.351562,0 0.597656,-0.3164 0.597656,-0.58594 0,-0.28125 -0.234375,-0.375 -0.410156,-0.375 -0.1875,0 -0.609375,0.14063 -0.609375,0.72657 0,0.60937 0.515625,1.03125 1.195312,1.03125 1.195313,0 2.402344,-1.10157 2.742188,-2.42578 l 1.171875,-4.66407 c 0.01172,-0.0586 0.03516,-0.1289 0.03516,-0.19922 0,-0.17578 -0.152344,-0.30468 -0.328125,-0.30468 -0.105469,0 -0.363281,0.0469 -0.457031,0.41015 l -0.878907,3.51563 c -0.05859,0.21094 -0.05859,0.23437 -0.152343,0.375 -0.246094,0.32812 -0.644532,0.73828 -1.207032,0.73828 -0.679687,0 -0.738281,-0.65625 -0.738281,-0.98438 0,-0.67968 0.328125,-1.60546 0.644531,-2.46093 0.140625,-0.35157 0.210938,-0.51563 0.210938,-0.75 0,-0.50391 -0.363281,-0.96094 -0.949219,-0.96094 -1.101562,0 -1.535156,1.73437 -1.535156,1.82812 0,0.0469 0.04687,0.10547 0.128906,0.10547 0.105469,0 0.117188,-0.0469 0.164063,-0.21093 0.292968,-1.00782 0.738281,-1.47657 1.207031,-1.47657 0.105469,0 0.316406,0 0.316406,0.38672 0,0.31641 -0.140625,0.65625 -0.316406,1.11328 -0.585938,1.57032 -0.585938,1.95703 -0.585938,2.25 0,1.13672 0.808594,1.39453 1.40625,1.39453 0.351563,0 0.785157,-0.10546 1.195313,-0.55078 l 0.01172,0.0117 c -0.175782,0.70313 -0.292969,1.17188 -0.714844,1.75781 z m 0,0"
         style="fill:#000000;fill-opacity:1;fill-rule:nonzero;stroke:none" />
      <path
         id="path5"
         d="m -49.530305,131.45874 h 3.304688 c 0.164062,0 0.375,0 0.375,-0.21094 0,-0.22265 -0.199219,-0.22265 -0.375,-0.22265 h -3.304688 v -3.30469 c 0,-0.16406 0,-0.38672 -0.210937,-0.38672 -0.234375,0 -0.234375,0.21094 -0.234375,0.38672 v 3.30469 h -3.292969 c -0.175781,0 -0.386719,0 -0.386719,0.21094 0,0.22265 0.199219,0.22265 0.386719,0.22265 h 3.292969 v 3.30469 c 0,0.16406 0,0.38672 0.222656,0.38672 0.222656,0 0.222656,-0.21094 0.222656,-0.38672 z m 12.251953,0.76172 h -0.269531 c -0.03516,0.19922 -0.128906,0.85547 -0.246094,1.04297 -0.08203,0.11719 -0.761718,0.11719 -1.125,0.11719 h -2.214843 c 0.328125,-0.28125 1.054687,-1.04297 1.371093,-1.33594 1.816407,-1.66406 2.484375,-2.28516 2.484375,-3.46875 0,-1.38281 -1.089843,-2.29688 -2.472656,-2.29688 -1.394531,0 -2.203125,1.1836 -2.203125,2.20313 0,0.60937 0.527344,0.60937 0.5625,0.60937 0.246094,0 0.5625,-0.17578 0.5625,-0.5625 0,-0.32812 -0.234375,-0.55078 -0.5625,-0.55078 -0.105469,0 -0.128906,0 -0.164062,0.0117 0.222656,-0.82031 0.867187,-1.37109 1.640625,-1.37109 1.019531,0 1.640625,0.85547 1.640625,1.95703 0,1.00781 -0.585938,1.89844 -1.265625,2.66016 l -2.414063,2.70703 v 0.28125 h 4.359375 z m 5.947266,-1.81641 c 0,-0.99609 -0.05859,-1.96875 -0.492187,-2.87109 -0.492188,-0.99609 -1.347657,-1.25391 -1.933594,-1.25391 -0.691406,0 -1.546875,0.33985 -1.980469,1.33594 -0.339844,0.75 -0.457031,1.48828 -0.457031,2.78906 0,1.16016 0.08203,2.02735 0.515625,2.8711 0.457031,0.91406 1.289062,1.19531 1.910156,1.19531 1.042969,0 1.640625,-0.62109 1.980469,-1.3125 0.433594,-0.89062 0.457031,-2.0625 0.457031,-2.75391 z m -2.4375,3.83204 c -0.386719,0 -1.160156,-0.21094 -1.382812,-1.52344 -0.140625,-0.71485 -0.140625,-1.61719 -0.140625,-2.46094 0,-0.97266 0,-1.86328 0.199218,-2.56641 0.199219,-0.79687 0.808594,-1.17187 1.324219,-1.17187 0.457031,0 1.148438,0.28125 1.371094,1.30078 0.152344,0.67969 0.152344,1.62891 0.152344,2.4375 0,0.80859 0,1.71094 -0.128907,2.4375 -0.222656,1.32422 -0.972656,1.54688 -1.394531,1.54688 z m 6.380859,-7.67579 c 0,-0.26953 0,-0.28125 -0.246093,-0.28125 -0.28125,0.31641 -0.878907,0.76172 -2.109375,0.76172 v 0.35157 c 0.269531,0 0.867187,0 1.523437,-0.31641 v 6.22266 c 0,0.43359 -0.03516,0.57421 -1.078125,0.57421 h -0.375 v 0.35157 c 0.316406,-0.0234 1.476563,-0.0234 1.875,-0.0234 0.398438,0 1.546875,0 1.863281,0.0234 v -0.35157 h -0.363281 c -1.054687,0 -1.089844,-0.14062 -1.089844,-0.57421 z m 8.091797,0.2461 v -0.28125 h -2.882812 c -1.453125,0 -1.476563,-0.15235 -1.523438,-0.38672 h -0.257812 l -0.375,2.39062 h 0.269531 c 0.03516,-0.21093 0.140625,-0.94921 0.292969,-1.07812 0.09375,-0.0703 0.996094,-0.0703 1.160156,-0.0703 h 2.53125 l -1.265625,1.8164 c -0.316406,0.45703 -1.523437,2.42578 -1.523437,4.66407 0,0.14062 0,0.60937 0.480468,0.60937 0.503907,0 0.503907,-0.45703 0.503907,-0.62109 v -0.59766 c 0,-1.78125 0.292968,-3.16406 0.855468,-3.96094 z m 0,0"
         style="fill:#000000;fill-opacity:1;fill-rule:nonzero;stroke:none" />
      <path
         id="path6"
         d="m -8.8310859,135.5603 c -0.3164063,0.45704 -0.7851563,0.86719 -1.3710941,0.86719 -0.140625,0 -0.714843,-0.0234 -0.902343,-0.57422 0.04687,0.0117 0.105468,0.0117 0.128906,0.0117 0.351562,0 0.597656,-0.3164 0.597656,-0.58594 0,-0.28125 -0.234375,-0.375 -0.410156,-0.375 -0.1875,0 -0.609375,0.14063 -0.609375,0.72657 0,0.60937 0.515625,1.03125 1.195312,1.03125 1.1953128,0 2.4023441,-1.10157 2.7421878,-2.42578 l 1.171875,-4.66407 c 0.011719,-0.0586 0.035156,-0.1289 0.035156,-0.19922 0,-0.17578 -0.1523438,-0.30468 -0.328125,-0.30468 -0.1054688,0 -0.3632813,0.0469 -0.4570313,0.41015 l -0.8789062,3.51563 c -0.058594,0.21094 -0.058594,0.23437 -0.1523438,0.375 -0.2460937,0.32812 -0.6445312,0.73828 -1.2070312,0.73828 -0.6796875,0 -0.7382813,-0.65625 -0.7382813,-0.98438 0,-0.67968 0.328125,-1.60546 0.6445313,-2.46093 0.140625,-0.35157 0.2109375,-0.51563 0.2109375,-0.75 0,-0.50391 -0.3632813,-0.96094 -0.9492188,-0.96094 -1.101562,0 -1.535156,1.73437 -1.535156,1.82812 0,0.0469 0.04687,0.10547 0.128906,0.10547 0.105469,0 0.117188,-0.0469 0.164063,-0.21093 0.292969,-1.00782 0.738281,-1.47657 1.207031,-1.47657 0.105469,0 0.316406,0 0.316406,0.38672 0,0.31641 -0.140625,0.65625 -0.316406,1.11328 -0.585937,1.57032 -0.585937,1.95703 -0.585937,2.25 0,1.13672 0.808593,1.39453 1.4062493,1.39453 0.3515625,0 0.7851562,-0.10546 1.1953125,-0.55078 l 0.011719,0.0117 c -0.1757812,0.70313 -0.2929687,1.17188 -0.7148437,1.75781 z m 0,0"
         style="fill:#000000;fill-opacity:1;fill-rule:nonzero;stroke:none" />
      <path
         id="path7"
         d="m 4.6952813,131.47046 c 0.2109375,0 0.421875,0 0.421875,-0.23437 0,-0.23438 -0.2109375,-0.23438 -0.421875,-0.23438 h -6.46875 c -0.1992188,0 -0.4101563,0 -0.4101563,0.23438 0,0.23437 0.2109375,0.23437 0.4101563,0.23437 z m 0,0"
         style="fill:#000000;fill-opacity:1;fill-rule:nonzero;stroke:none" />
      <path
         id="path8"
         d="m 10.299773,133.25171 c 0.503907,-0.58594 0.925782,-0.94922 1.523438,-1.48828 0.714844,-0.62109 1.03125,-0.92578 1.195312,-1.10156 0.84375,-0.82032 1.253907,-1.52344 1.253907,-1.61719 0,-0.0937 -0.09375,-0.0937 -0.117188,-0.0937 -0.08203,0 -0.105469,0.0469 -0.164062,0.12891 -0.304688,0.51562 -0.585938,0.77343 -0.902344,0.77343 -0.246094,0 -0.375,-0.11718 -0.609375,-0.39843 -0.246094,-0.29297 -0.457031,-0.50391 -0.796875,-0.50391 -0.878906,0 -1.394531,1.08984 -1.394531,1.33594 0,0.0352 0.01172,0.11718 0.117187,0.11718 0.09375,0 0.105469,-0.0469 0.140625,-0.14062 0.199219,-0.46875 0.773438,-0.5625 1.007813,-0.5625 0.246093,0 0.480468,0.0937 0.738281,0.19922 0.457031,0.1875 0.644531,0.1875 0.761719,0.1875 0.08203,0 0.128906,0 0.1875,-0.0117 -0.386719,0.46875 -1.03125,1.04297 -1.570313,1.53516 l -1.207031,1.10156 c -0.7265626,0.75 -1.1718751,1.45312 -1.1718751,1.53515 0,0.0703 0.058594,0.0937 0.1289063,0.0937 0.070312,0 0.082031,-0.0117 0.1640625,-0.15234 0.1992187,-0.30469 0.5742183,-0.73828 1.0195313,-0.73828 0.246094,0 0.375,0.082 0.609375,0.375 0.222656,0.26953 0.433594,0.51562 0.808594,0.51562 1.171875,0 1.851562,-1.51171 1.851562,-1.79296 0,-0.0469 -0.01172,-0.11719 -0.140625,-0.11719 -0.09375,0 -0.105469,0.0469 -0.140625,0.16406 -0.257812,0.70313 -0.972656,0.99609 -1.429687,0.99609 -0.257813,0 -0.492188,-0.082 -0.75,-0.1875 -0.46875,-0.19921 -0.609375,-0.19921 -0.761719,-0.19921 -0.117188,0 -0.246094,0 -0.351563,0.0469 z m 0,0"
         style="fill:#000000;fill-opacity:1;fill-rule:nonzero;stroke:none" />
      <path
         id="path9"
         d="m 22.170867,131.45874 h 3.304688 c 0.164062,0 0.375,0 0.375,-0.21094 0,-0.22265 -0.199219,-0.22265 -0.375,-0.22265 h -3.304688 v -3.30469 c 0,-0.16406 0,-0.38672 -0.210937,-0.38672 -0.234375,0 -0.234375,0.21094 -0.234375,0.38672 v 3.30469 h -3.292969 c -0.175781,0 -0.386719,0 -0.386719,0.21094 0,0.22265 0.199219,0.22265 0.386719,0.22265 h 3.292969 v 3.30469 c 0,0.16406 0,0.38672 0.222656,0.38672 0.222656,0 0.222656,-0.21094 0.222656,-0.38672 z m 12.251953,0.76172 h -0.269531 c -0.03516,0.19922 -0.128906,0.85547 -0.246094,1.04297 -0.08203,0.11719 -0.761718,0.11719 -1.125,0.11719 h -2.214843 c 0.328125,-0.28125 1.054687,-1.04297 1.371093,-1.33594 1.816407,-1.66406 2.484375,-2.28516 2.484375,-3.46875 0,-1.38281 -1.089843,-2.29688 -2.472656,-2.29688 -1.394531,0 -2.203125,1.1836 -2.203125,2.20313 0,0.60937 0.527344,0.60937 0.5625,0.60937 0.246094,0 0.5625,-0.17578 0.5625,-0.5625 0,-0.32812 -0.234375,-0.55078 -0.5625,-0.55078 -0.105469,0 -0.128906,0 -0.164062,0.0117 0.222656,-0.82031 0.867187,-1.37109 1.640625,-1.37109 1.019531,0 1.640625,0.85547 1.640625,1.95703 0,1.00781 -0.585938,1.89844 -1.265625,2.66016 l -2.414063,2.70703 v 0.28125 h 4.359375 z m 5.947266,-1.81641 c 0,-0.99609 -0.05859,-1.96875 -0.492188,-2.87109 -0.492187,-0.99609 -1.347656,-1.25391 -1.933593,-1.25391 -0.691407,0 -1.546875,0.33985 -1.980469,1.33594 -0.339844,0.75 -0.457031,1.48828 -0.457031,2.78906 0,1.16016 0.08203,2.02735 0.515625,2.8711 0.457031,0.91406 1.289062,1.19531 1.910156,1.19531 1.042969,0 1.640625,-0.62109 1.980469,-1.3125 0.433593,-0.89062 0.457031,-2.0625 0.457031,-2.75391 z m -2.4375,3.83204 c -0.386719,0 -1.160156,-0.21094 -1.382813,-1.52344 -0.140625,-0.71485 -0.140625,-1.61719 -0.140625,-2.46094 0,-0.97266 0,-1.86328 0.199219,-2.56641 0.199219,-0.79687 0.808594,-1.17187 1.324219,-1.17187 0.457031,0 1.148437,0.28125 1.371094,1.30078 0.152343,0.67969 0.152343,1.62891 0.152343,2.4375 0,0.80859 0,1.71094 -0.128906,2.4375 -0.222656,1.32422 -0.972656,1.54688 -1.394531,1.54688 z m 6.380859,-7.67579 c 0,-0.26953 0,-0.28125 -0.246093,-0.28125 -0.28125,0.31641 -0.878907,0.76172 -2.109375,0.76172 v 0.35157 c 0.269531,0 0.867187,0 1.523437,-0.31641 v 6.22266 c 0,0.43359 -0.03516,0.57421 -1.078125,0.57421 h -0.375 v 0.35157 c 0.316406,-0.0234 1.476563,-0.0234 1.875,-0.0234 0.398438,0 1.546875,0 1.863281,0.0234 v -0.35157 h -0.363281 c -1.054687,0 -1.089844,-0.14062 -1.089844,-0.57421 z m 8.091797,0.2461 v -0.28125 H 49.52243 c -1.453125,0 -1.476563,-0.15235 -1.523438,-0.38672 H 47.74118 l -0.375,2.39062 h 0.269531 c 0.03516,-0.21093 0.140625,-0.94921 0.292969,-1.07812 0.09375,-0.0703 0.996093,-0.0703 1.160156,-0.0703 h 2.53125 l -1.265625,1.8164 c -0.316406,0.45703 -1.523438,2.42578 -1.523438,4.66407 0,0.14062 0,0.60937 0.480469,0.60937 0.503906,0 0.503906,-0.45703 0.503906,-0.62109 v -0.59766 c 0,-1.78125 0.292969,-3.16406 0.855469,-3.96094 z m 0,0"
         style="fill:#000000;fill-opacity:1;fill-rule:nonzero;stroke:none" />
      <path
         id="path10"
         d="m 61.252898,133.25171 c 0.503907,-0.58594 0.925782,-0.94922 1.523438,-1.48828 0.714844,-0.62109 1.03125,-0.92578 1.195312,-1.10156 0.84375,-0.82032 1.253907,-1.52344 1.253907,-1.61719 0,-0.0937 -0.09375,-0.0937 -0.117188,-0.0937 -0.08203,0 -0.105469,0.0469 -0.164062,0.12891 -0.304688,0.51562 -0.585938,0.77343 -0.902344,0.77343 -0.246094,0 -0.375,-0.11718 -0.609375,-0.39843 -0.246094,-0.29297 -0.457031,-0.50391 -0.796875,-0.50391 -0.878906,0 -1.394531,1.08984 -1.394531,1.33594 0,0.0352 0.01172,0.11718 0.117187,0.11718 0.09375,0 0.105469,-0.0469 0.140625,-0.14062 0.199219,-0.46875 0.773438,-0.5625 1.007813,-0.5625 0.246093,0 0.480468,0.0937 0.738281,0.19922 0.457031,0.1875 0.644531,0.1875 0.761719,0.1875 0.08203,0 0.128906,0 0.1875,-0.0117 -0.386719,0.46875 -1.03125,1.04297 -1.570313,1.53516 l -1.207031,1.10156 c -0.726563,0.75 -1.171875,1.45312 -1.171875,1.53515 0,0.0703 0.05859,0.0937 0.128906,0.0937 0.07031,0 0.08203,-0.0117 0.164063,-0.15234 0.199218,-0.30469 0.574218,-0.73828 1.019531,-0.73828 0.246094,0 0.375,0.082 0.609375,0.375 0.222656,0.26953 0.433594,0.51562 0.808594,0.51562 1.171875,0 1.851562,-1.51171 1.851562,-1.79296 0,-0.0469 -0.01172,-0.11719 -0.140625,-0.11719 -0.09375,0 -0.105469,0.0469 -0.140625,0.16406 -0.257812,0.70313 -0.972656,0.99609 -1.429687,0.99609 -0.257813,0 -0.492188,-0.082 -0.75,-0.1875 -0.46875,-0.19921 -0.609375,-0.19921 -0.761719,-0.19921 -0.117188,0 -0.246094,0 -0.351563,0.0469 z m 0,0"
         style="fill:#000000;fill-opacity:1;fill-rule:nonzero;stroke:none" />
      <path
         id="path11"
         d="m 76.229461,131.47046 c 0.210937,0 0.421875,0 0.421875,-0.23437 0,-0.23438 -0.210938,-0.23438 -0.421875,-0.23438 h -6.46875 c -0.199219,0 -0.410156,0 -0.410156,0.23438 0,0.23437 0.210937,0.23437 0.410156,0.23437 z m 0,0"
         style="fill:#000000;fill-opacity:1;fill-rule:nonzero;stroke:none" />
      <path
         id="path12"
         d="m 82.712859,129.41968 h 1.101563 c 0.222656,0 0.339844,0 0.339844,-0.21094 0,-0.14062 -0.07031,-0.14062 -0.304688,-0.14062 h -1.054687 l 0.445312,-1.7461 c 0.04687,-0.16406 0.04687,-0.1875 0.04687,-0.26953 0,-0.1875 -0.152344,-0.30469 -0.316406,-0.30469 -0.09375,0 -0.363281,0.0469 -0.457031,0.42188 l -0.46875,1.89844 h -1.125 c -0.234375,0 -0.351563,0 -0.351563,0.23437 0,0.11719 0.09375,0.11719 0.316406,0.11719 h 1.066407 l -0.796875,3.15234 c -0.09375,0.42188 -0.128907,0.53907 -0.128907,0.69141 0,0.5625 0.398438,1.07812 1.066407,1.07812 1.207031,0 1.851562,-1.74609 1.851562,-1.82812 0,-0.0703 -0.04687,-0.10547 -0.117187,-0.10547 -0.02344,0 -0.07031,0 -0.09375,0.0469 -0.01172,0.0117 -0.02344,0.0234 -0.105469,0.21093 -0.257813,0.59766 -0.808594,1.44141 -1.5,1.44141 -0.363281,0 -0.386719,-0.30469 -0.386719,-0.5625 0,-0.0117 0,-0.24609 0.03516,-0.38672 z m 0,0"
         style="fill:#000000;fill-opacity:1;fill-rule:nonzero;stroke:none" />
      <path
         id="path13"
         d="M 91.964813,131.45874 H 95.2695 c 0.164063,0 0.375,0 0.375,-0.21094 0,-0.22265 -0.199219,-0.22265 -0.375,-0.22265 h -3.304687 v -3.30469 c 0,-0.16406 0,-0.38672 -0.210938,-0.38672 -0.234375,0 -0.234375,0.21094 -0.234375,0.38672 v 3.30469 h -3.292969 c -0.175781,0 -0.386718,0 -0.386718,0.21094 0,0.22265 0.199218,0.22265 0.386718,0.22265 H 91.5195 v 3.30469 c 0,0.16406 0,0.38672 0.222656,0.38672 0.222657,0 0.222657,-0.21094 0.222657,-0.38672 z m 12.249027,0.76172 h -0.26954 c -0.0352,0.19922 -0.1289,0.85547 -0.24609,1.04297 -0.082,0.11719 -0.76172,0.11719 -1.125,0.11719 h -2.21484 c 0.32812,-0.28125 1.05468,-1.04297 1.37109,-1.33594 1.81641,-1.66406 2.48438,-2.28516 2.48438,-3.46875 0,-1.38281 -1.08985,-2.29688 -2.47266,-2.29688 -1.39453,0 -2.203125,1.1836 -2.203125,2.20313 0,0.60937 0.527345,0.60937 0.562495,0.60937 0.2461,0 0.5625,-0.17578 0.5625,-0.5625 0,-0.32812 -0.23437,-0.55078 -0.5625,-0.55078 -0.105464,0 -0.128902,0 -0.164058,0.0117 0.222658,-0.82031 0.867188,-1.37109 1.640628,-1.37109 1.01953,0 1.64062,0.85547 1.64062,1.95703 0,1.00781 -0.58594,1.89844 -1.26562,2.66016 l -2.414065,2.70703 v 0.28125 h 4.359375 z m 5.94726,-1.81641 c 0,-0.99609 -0.0586,-1.96875 -0.49219,-2.87109 -0.49218,-0.99609 -1.34765,-1.25391 -1.93359,-1.25391 -0.69141,0 -1.54687,0.33985 -1.98047,1.33594 -0.33984,0.75 -0.45703,1.48828 -0.45703,2.78906 0,1.16016 0.082,2.02735 0.51563,2.8711 0.45703,0.91406 1.28906,1.19531 1.91015,1.19531 1.04297,0 1.64063,-0.62109 1.98047,-1.3125 0.43359,-0.89062 0.45703,-2.0625 0.45703,-2.75391 z m -2.4375,3.83204 c -0.38672,0 -1.16015,-0.21094 -1.38281,-1.52344 -0.14063,-0.71485 -0.14063,-1.61719 -0.14063,-2.46094 0,-0.97266 0,-1.86328 0.19922,-2.56641 0.19922,-0.79687 0.8086,-1.17187 1.32422,-1.17187 0.45703,0 1.14844,0.28125 1.3711,1.30078 0.15234,0.67969 0.15234,1.62891 0.15234,2.4375 0,0.80859 0,1.71094 -0.12891,2.4375 -0.22265,1.32422 -0.97265,1.54688 -1.39453,1.54688 z m 6.38086,-7.67579 c 0,-0.26953 0,-0.28125 -0.24609,-0.28125 -0.28125,0.31641 -0.87891,0.76172 -2.10938,0.76172 v 0.35157 c 0.26953,0 0.86719,0 1.52344,-0.31641 v 6.22266 c 0,0.43359 -0.0352,0.57421 -1.07813,0.57421 h -0.375 v 0.35157 c 0.31641,-0.0234 1.47657,-0.0234 1.875,-0.0234 0.39844,0 1.54688,0 1.86329,0.0234 v -0.35157 h -0.36329 c -1.05468,0 -1.08984,-0.14062 -1.08984,-0.57421 z m 8.0918,0.2461 v -0.28125 h -2.88281 c -1.45313,0 -1.47657,-0.15235 -1.52344,-0.38672 h -0.25781 l -0.375,2.39062 h 0.26953 c 0.0351,-0.21093 0.14062,-0.94921 0.29297,-1.07812 0.0937,-0.0703 0.99609,-0.0703 1.16015,-0.0703 h 2.53125 l -1.26562,1.8164 c -0.31641,0.45703 -1.52344,2.42578 -1.52344,4.66407 0,0.14062 0,0.60937 0.48047,0.60937 0.5039,0 0.5039,-0.45703 0.5039,-0.62109 v -0.59766 c 0,-1.78125 0.29297,-3.16406 0.85547,-3.96094 z m 0,0"
         style="fill:#000000;fill-opacity:1;fill-rule:nonzero;stroke:none" />
      <path
         id="path14"
         d="m 131.91989,129.41968 h 1.10156 c 0.22266,0 0.33985,0 0.33985,-0.21094 0,-0.14062 -0.0703,-0.14062 -0.30469,-0.14062 h -1.05469 l 0.44531,-1.7461 c 0.0469,-0.16406 0.0469,-0.1875 0.0469,-0.26953 0,-0.1875 -0.15234,-0.30469 -0.31641,-0.30469 -0.0937,0 -0.36328,0.0469 -0.45703,0.42188 l -0.46875,1.89844 h -1.125 c -0.23437,0 -0.35156,0 -0.35156,0.23437 0,0.11719 0.0937,0.11719 0.31641,0.11719 h 1.0664 l -0.79687,3.15234 c -0.0937,0.42188 -0.12891,0.53907 -0.12891,0.69141 0,0.5625 0.39844,1.07812 1.06641,1.07812 1.20703,0 1.85156,-1.74609 1.85156,-1.82812 0,-0.0703 -0.0469,-0.10547 -0.11719,-0.10547 -0.0234,0 -0.0703,0 -0.0937,0.0469 -0.0117,0.0117 -0.0234,0.0234 -0.10547,0.21093 -0.25781,0.59766 -0.80859,1.44141 -1.5,1.44141 -0.36328,0 -0.38672,-0.30469 -0.38672,-0.5625 0,-0.0117 0,-0.24609 0.0352,-0.38672 z m 0,0"
         style="fill:#000000;fill-opacity:1;fill-rule:nonzero;stroke:none" />
      <path
         id="path15"
         d="m 144.27731,131.47046 c 0.21094,0 0.42188,0 0.42188,-0.23437 0,-0.23438 -0.21094,-0.23438 -0.42188,-0.23438 h -6.46875 c -0.19922,0 -0.41015,0 -0.41015,0.23438 0,0.23437 0.21093,0.23437 0.41015,0.23437 z m 0,0"
         style="fill:#000000;fill-opacity:1;fill-rule:nonzero;stroke:none" />
      <path
         id="path16"
         d="m 152.47165,133.4978 c 0.25781,0.71485 1.00781,0.84375 1.45312,0.84375 0.91407,0 1.45313,-0.78515 1.78125,-1.61718 0.28125,-0.69141 0.72657,-2.26172 0.72657,-2.96485 0,-0.73828 -0.375,-0.80859 -0.48047,-0.80859 -0.29297,0 -0.55078,0.29297 -0.55078,0.52734 0,0.14063 0.082,0.22266 0.14062,0.28125 0.10547,0.10547 0.42188,0.42188 0.42188,1.04297 0,0.41016 -0.33985,1.53516 -0.58594,2.09766 -0.33985,0.72656 -0.78516,1.20703 -1.40625,1.20703 -0.66797,0 -0.87891,-0.50391 -0.87891,-1.05469 0,-0.35156 0.10547,-0.76172 0.15235,-0.97265 l 0.5039,-2.00391 c 0.0586,-0.23438 0.16406,-0.65625 0.16406,-0.70313 0,-0.17578 -0.14062,-0.30468 -0.3164,-0.30468 -0.35156,0 -0.4336,0.30468 -0.50391,0.58593 -0.11719,0.46875 -0.62109,2.4961 -0.66797,2.75391 -0.0469,0.19922 -0.0469,0.33984 -0.0469,0.59766 0,0.28125 -0.38672,0.73828 -0.39844,0.76172 -0.12891,0.1289 -0.31641,0.33984 -0.69141,0.33984 -0.94921,0 -0.94921,-0.90234 -0.94921,-1.10156 0,-0.38672 0.082,-0.91407 0.62109,-2.33203 0.15234,-0.375 0.21094,-0.52735 0.21094,-0.76172 0,-0.50391 -0.36328,-0.96094 -0.94922,-0.96094 -1.10156,0 -1.53516,1.73437 -1.53516,1.82812 0,0.0469 0.0469,0.10547 0.12891,0.10547 0.10547,0 0.11719,-0.0469 0.16406,-0.21093 0.30469,-1.05469 0.76172,-1.47657 1.20703,-1.47657 0.11719,0 0.31641,0.0117 0.31641,0.38672 0,0.0586 0,0.31641 -0.21094,0.84375 -0.5625,1.48828 -0.67969,1.98047 -0.67969,2.4375 0,1.25391 1.03125,1.47656 1.64063,1.47656 0.19922,0 0.73828,0 1.21875,-0.84375 z m 0,0"
         style="fill:#000000;fill-opacity:1;fill-rule:nonzero;stroke:none" />
      <path
         id="path17"
         d="m 164.47458,131.45874 h 3.30469 c 0.16406,0 0.375,0 0.375,-0.21094 0,-0.22265 -0.19922,-0.22265 -0.375,-0.22265 h -3.30469 v -3.30469 c 0,-0.16406 0,-0.38672 -0.21094,-0.38672 -0.23437,0 -0.23437,0.21094 -0.23437,0.38672 v 3.30469 h -3.29297 c -0.17578,0 -0.38672,0 -0.38672,0.21094 0,0.22265 0.19922,0.22265 0.38672,0.22265 h 3.29297 v 3.30469 c 0,0.16406 0,0.38672 0.22265,0.38672 0.22266,0 0.22266,-0.21094 0.22266,-0.38672 z m 12.24902,0.76172 h -0.26953 c -0.0352,0.19922 -0.12891,0.85547 -0.24609,1.04297 -0.082,0.11719 -0.76172,0.11719 -1.125,0.11719 h -2.21485 c 0.32813,-0.28125 1.05469,-1.04297 1.3711,-1.33594 1.8164,-1.66406 2.48437,-2.28516 2.48437,-3.46875 0,-1.38281 -1.08984,-2.29688 -2.47265,-2.29688 -1.39454,0 -2.20313,1.1836 -2.20313,2.20313 0,0.60937 0.52734,0.60937 0.5625,0.60937 0.24609,0 0.5625,-0.17578 0.5625,-0.5625 0,-0.32812 -0.23437,-0.55078 -0.5625,-0.55078 -0.10547,0 -0.12891,0 -0.16406,0.0117 0.22265,-0.82031 0.86719,-1.37109 1.64062,-1.37109 1.01953,0 1.64063,0.85547 1.64063,1.95703 0,1.00781 -0.58594,1.89844 -1.26563,2.66016 l -2.41406,2.70703 v 0.28125 h 4.35938 z m 5.94727,-1.81641 c 0,-0.99609 -0.0586,-1.96875 -0.49219,-2.87109 -0.49219,-0.99609 -1.34766,-1.25391 -1.93359,-1.25391 -0.69141,0 -1.54688,0.33985 -1.98047,1.33594 -0.33985,0.75 -0.45703,1.48828 -0.45703,2.78906 0,1.16016 0.082,2.02735 0.51562,2.8711 0.45703,0.91406 1.28906,1.19531 1.91016,1.19531 1.04297,0 1.64062,-0.62109 1.98047,-1.3125 0.43359,-0.89062 0.45703,-2.0625 0.45703,-2.75391 z m -2.4375,3.83204 c -0.38672,0 -1.16016,-0.21094 -1.38282,-1.52344 -0.14062,-0.71485 -0.14062,-1.61719 -0.14062,-2.46094 0,-0.97266 0,-1.86328 0.19922,-2.56641 0.19922,-0.79687 0.80859,-1.17187 1.32422,-1.17187 0.45703,0 1.14843,0.28125 1.37109,1.30078 0.15234,0.67969 0.15234,1.62891 0.15234,2.4375 0,0.80859 0,1.71094 -0.1289,2.4375 -0.22266,1.32422 -0.97266,1.54688 -1.39453,1.54688 z m 6.38086,-7.67579 c 0,-0.26953 0,-0.28125 -0.2461,-0.28125 -0.28125,0.31641 -0.8789,0.76172 -2.10937,0.76172 v 0.35157 c 0.26953,0 0.86719,0 1.52344,-0.31641 v 6.22266 c 0,0.43359 -0.0352,0.57421 -1.07813,0.57421 h -0.375 v 0.35157 c 0.31641,-0.0234 1.47656,-0.0234 1.875,-0.0234 0.39844,0 1.54688,0 1.86328,0.0234 v -0.35157 h -0.36328 c -1.05469,0 -1.08984,-0.14062 -1.08984,-0.57421 z m 8.09179,0.2461 v -0.28125 h -2.88281 c -1.45312,0 -1.47656,-0.15235 -1.52344,-0.38672 h -0.25781 l -0.375,2.39062 h 0.26953 c 0.0352,-0.21093 0.14063,-0.94921 0.29297,-1.07812 0.0937,-0.0703 0.99609,-0.0703 1.16016,-0.0703 h 2.53125 l -1.26563,1.8164 c -0.3164,0.45703 -1.52344,2.42578 -1.52344,4.66407 0,0.14062 0,0.60937 0.48047,0.60937 0.50391,0 0.50391,-0.45703 0.50391,-0.62109 v -0.59766 c 0,-1.78125 0.29297,-3.16406 0.85547,-3.96094 z m 0,0"
         style="fill:#000000;fill-opacity:1;fill-rule:nonzero;stroke:none" />
      <path
         id="path18"
         d="m 206.14352,133.4978 c 0.25782,0.71485 1.00782,0.84375 1.45313,0.84375 0.91406,0 1.45312,-0.78515 1.78125,-1.61718 0.28125,-0.69141 0.72656,-2.26172 0.72656,-2.96485 0,-0.73828 -0.375,-0.80859 -0.48047,-0.80859 -0.29297,0 -0.55078,0.29297 -0.55078,0.52734 0,0.14063 0.082,0.22266 0.14063,0.28125 0.10546,0.10547 0.42187,0.42188 0.42187,1.04297 0,0.41016 -0.33984,1.53516 -0.58594,2.09766 -0.33984,0.72656 -0.78515,1.20703 -1.40625,1.20703 -0.66797,0 -0.8789,-0.50391 -0.8789,-1.05469 0,-0.35156 0.10547,-0.76172 0.15234,-0.97265 l 0.50391,-2.00391 c 0.0586,-0.23438 0.16406,-0.65625 0.16406,-0.70313 0,-0.17578 -0.14063,-0.30468 -0.31641,-0.30468 -0.35156,0 -0.43359,0.30468 -0.5039,0.58593 -0.11719,0.46875 -0.6211,2.4961 -0.66797,2.75391 -0.0469,0.19922 -0.0469,0.33984 -0.0469,0.59766 0,0.28125 -0.38672,0.73828 -0.39843,0.76172 -0.12891,0.1289 -0.31641,0.33984 -0.69141,0.33984 -0.94922,0 -0.94922,-0.90234 -0.94922,-1.10156 0,-0.38672 0.082,-0.91407 0.62109,-2.33203 0.15235,-0.375 0.21094,-0.52735 0.21094,-0.76172 0,-0.50391 -0.36328,-0.96094 -0.94922,-0.96094 -1.10156,0 -1.53515,1.73437 -1.53515,1.82812 0,0.0469 0.0469,0.10547 0.1289,0.10547 0.10547,0 0.11719,-0.0469 0.16407,-0.21093 0.30468,-1.05469 0.76171,-1.47657 1.20703,-1.47657 0.11718,0 0.3164,0.0117 0.3164,0.38672 0,0.0586 0,0.31641 -0.21093,0.84375 -0.5625,1.48828 -0.67969,1.98047 -0.67969,2.4375 0,1.25391 1.03125,1.47656 1.64062,1.47656 0.19922,0 0.73828,0 1.21875,-0.84375 z m 0,0"
         style="fill:#000000;fill-opacity:1;fill-rule:nonzero;stroke:none" />
      <path
         id="path19"
         d="m 221.25192,131.47046 c 0.21094,0 0.42188,0 0.42188,-0.23437 0,-0.23438 -0.21094,-0.23438 -0.42188,-0.23438 h -6.46875 c -0.19922,0 -0.41015,0 -0.41015,0.23438 0,0.23437 0.21093,0.23437 0.41015,0.23437 z m 0,0"
         style="fill:#000000;fill-opacity:1;fill-rule:nonzero;stroke:none" />
      <path
         id="path20"
         d="m 230.9902,129.34937 c -0.375,0.0703 -0.51562,0.35156 -0.51562,0.58593 0,0.28125 0.22265,0.375 0.38672,0.375 0.36328,0 0.60937,-0.30468 0.60937,-0.63281 0,-0.49219 -0.57422,-0.72656 -1.07812,-0.72656 -0.72657,0 -1.125,0.71484 -1.24219,0.94922 -0.26953,-0.90235 -1.00781,-0.94922 -1.23047,-0.94922 -1.21875,0 -1.86328,1.57031 -1.86328,1.82812 0,0.0469 0.0469,0.10547 0.12891,0.10547 0.10546,0 0.1289,-0.0703 0.15234,-0.11718 0.39844,-1.32422 1.20703,-1.57032 1.54687,-1.57032 0.53907,0 0.64454,0.49219 0.64454,0.78516 0,0.25781 -0.0703,0.53906 -0.21094,1.11328 l -0.41016,1.62891 c -0.17578,0.72656 -0.52734,1.38281 -1.16015,1.38281 -0.0586,0 -0.35157,0 -0.60938,-0.15234 0.43359,-0.0937 0.52734,-0.44532 0.52734,-0.58594 0,-0.2461 -0.17578,-0.38672 -0.39843,-0.38672 -0.29297,0 -0.59766,0.24609 -0.59766,0.63281 0,0.50391 0.5625,0.72656 1.06641,0.72656 0.57422,0 0.98437,-0.45703 1.23047,-0.9375 0.19921,0.70313 0.79687,0.9375 1.23046,0.9375 1.23047,0 1.875,-1.55859 1.875,-1.82812 0,-0.0586 -0.0469,-0.10547 -0.1289,-0.10547 -0.10547,0 -0.11719,0.0586 -0.15235,0.15234 -0.3164,1.05469 -1.01953,1.54688 -1.54687,1.54688 -0.42188,0 -0.65625,-0.31641 -0.65625,-0.80859 0,-0.25782 0.0586,-0.44532 0.24609,-1.24219 l 0.42188,-1.61719 c 0.17578,-0.72656 0.58594,-1.24219 1.125,-1.24219 0.0351,0 0.36328,0 0.60937,0.15235 z m 0,0"
         style="fill:#000000;fill-opacity:1;fill-rule:nonzero;stroke:none" />
      <path
         id="path21"
         d="m 239.41013,131.45874 h 3.30468 c 0.16407,0 0.375,0 0.375,-0.21094 0,-0.22265 -0.19922,-0.22265 -0.375,-0.22265 h -3.30468 v -3.30469 c 0,-0.16406 0,-0.38672 -0.21094,-0.38672 -0.23438,0 -0.23438,0.21094 -0.23438,0.38672 v 3.30469 h -3.29297 c -0.17578,0 -0.38671,0 -0.38671,0.21094 0,0.22265 0.19921,0.22265 0.38671,0.22265 h 3.29297 v 3.30469 c 0,0.16406 0,0.38672 0.22266,0.38672 0.22266,0 0.22266,-0.21094 0.22266,-0.38672 z m 12.25195,0.76172 h -0.26953 c -0.0352,0.19922 -0.12891,0.85547 -0.2461,1.04297 -0.082,0.11719 -0.76172,0.11719 -1.125,0.11719 h -2.21484 c 0.32812,-0.28125 1.05469,-1.04297 1.37109,-1.33594 1.81641,-1.66406 2.48438,-2.28516 2.48438,-3.46875 0,-1.38281 -1.08985,-2.29688 -2.47266,-2.29688 -1.39453,0 -2.20312,1.1836 -2.20312,2.20313 0,0.60937 0.52734,0.60937 0.5625,0.60937 0.24609,0 0.5625,-0.17578 0.5625,-0.5625 0,-0.32812 -0.23438,-0.55078 -0.5625,-0.55078 -0.10547,0 -0.12891,0 -0.16407,0.0117 0.22266,-0.82031 0.86719,-1.37109 1.64063,-1.37109 1.01953,0 1.64062,0.85547 1.64062,1.95703 0,1.00781 -0.58593,1.89844 -1.26562,2.66016 l -2.41406,2.70703 v 0.28125 h 4.35937 z m 5.94433,-1.81641 c 0,-0.99609 -0.0586,-1.96875 -0.49218,-2.87109 -0.49219,-0.99609 -1.34766,-1.25391 -1.9336,-1.25391 -0.6914,0 -1.54687,0.33985 -1.98047,1.33594 -0.33984,0.75 -0.45703,1.48828 -0.45703,2.78906 0,1.16016 0.082,2.02735 0.51563,2.8711 0.45703,0.91406 1.28906,1.19531 1.91015,1.19531 1.04297,0 1.64063,-0.62109 1.98047,-1.3125 0.4336,-0.89062 0.45703,-2.0625 0.45703,-2.75391 z m -2.4375,3.83204 c -0.38671,0 -1.16015,-0.21094 -1.38281,-1.52344 -0.14062,-0.71485 -0.14062,-1.61719 -0.14062,-2.46094 0,-0.97266 0,-1.86328 0.19922,-2.56641 0.19921,-0.79687 0.80859,-1.17187 1.32421,-1.17187 0.45704,0 1.14844,0.28125 1.3711,1.30078 0.15234,0.67969 0.15234,1.62891 0.15234,2.4375 0,0.80859 0,1.71094 -0.1289,2.4375 -0.22266,1.32422 -0.97266,1.54688 -1.39454,1.54688 z m 6.38086,-7.67579 c 0,-0.26953 0,-0.28125 -0.24609,-0.28125 -0.28125,0.31641 -0.87891,0.76172 -2.10938,0.76172 v 0.35157 c 0.26954,0 0.86719,0 1.52344,-0.31641 v 6.22266 c 0,0.43359 -0.0351,0.57421 -1.07812,0.57421 h -0.375 v 0.35157 c 0.3164,-0.0234 1.47656,-0.0234 1.875,-0.0234 0.39843,0 1.54687,0 1.86328,0.0234 v -0.35157 h -0.36328 c -1.05469,0 -1.08985,-0.14062 -1.08985,-0.57421 z m 8.0918,0.2461 v -0.28125 h -2.88281 c -1.45313,0 -1.47656,-0.15235 -1.52344,-0.38672 h -0.25781 l -0.375,2.39062 h 0.26953 c 0.0352,-0.21093 0.14062,-0.94921 0.29297,-1.07812 0.0937,-0.0703 0.99609,-0.0703 1.16015,-0.0703 h 2.53125 l -1.26562,1.8164 c -0.31641,0.45703 -1.52344,2.42578 -1.52344,4.66407 0,0.14062 0,0.60937 0.48047,0.60937 0.50391,0 0.50391,-0.45703 0.50391,-0.62109 v -0.59766 c 0,-1.78125 0.29297,-3.16406 0.85547,-3.96094 z m 0,0"
         style="fill:#000000;fill-opacity:1;fill-rule:nonzero;stroke:none" />
      <path
         id="path22"
         d="m 298.10641,194.03101 c 0,-0.26953 0,-0.28125 -0.24609,-0.28125 -0.28125,0.3164 -0.87891,0.76172 -2.10937,0.76172 v 0.35156 c 0.26953,0 0.86718,0 1.52343,-0.31641 v 6.22266 c 0,0.43359 -0.0351,0.57422 -1.07812,0.57422 h -0.375 v 0.35156 c 0.3164,-0.0234 1.47656,-0.0234 1.875,-0.0234 0.39844,0 1.54687,0 1.86328,0.0234 v -0.35156 h -0.36328 c -1.05469,0 -1.08985,-0.14063 -1.08985,-0.57422 z m 4.61133,3.375 c -0.21094,0.0117 -0.25781,0.0234 -0.25781,0.1289 0,0.11719 0.0586,0.11719 0.28125,0.11719 h 0.55078 c 1.00781,0 1.46484,0.84375 1.46484,1.99219 0,1.55859 -0.80859,1.98047 -1.39453,1.98047 -0.57422,0 -1.55859,-0.28125 -1.89843,-1.06641 0.375,0.0586 0.72656,-0.15234 0.72656,-0.58594 0,-0.33984 -0.25781,-0.58593 -0.58594,-0.58593 -0.29297,0 -0.59766,0.16406 -0.59766,0.62109 0,1.06641 1.06641,1.93359 2.39063,1.93359 1.41797,0 2.47266,-1.07812 2.47266,-2.28515 0,-1.10156 -0.89063,-1.96875 -2.02735,-2.16797 1.03125,-0.30469 1.69922,-1.17188 1.69922,-2.10938 0,-0.9375 -0.97266,-1.6289 -2.13281,-1.6289 -1.19531,0 -2.08594,0.72656 -2.08594,1.59375 0,0.48047 0.375,0.57422 0.55078,0.57422 0.25781,0 0.53906,-0.17578 0.53906,-0.53907 0,-0.375 -0.28125,-0.53906 -0.55078,-0.53906 -0.0703,0 -0.0937,0 -0.1289,0.0117 0.45703,-0.82031 1.58203,-0.82031 1.64062,-0.82031 0.38672,0 1.17188,0.17578 1.17188,1.34765 0,0.23438 -0.0352,0.90235 -0.38672,1.41797 -0.35156,0.52735 -0.76172,0.5625 -1.08985,0.57422 z m 9.33399,-3.12891 v -0.28125 h -2.88282 c -1.45312,0 -1.47656,-0.15234 -1.52343,-0.38672 h -0.25782 l -0.375,2.39063 h 0.26954 c 0.0351,-0.21094 0.14062,-0.94922 0.29296,-1.07813 0.0937,-0.0703 0.9961,-0.0703 1.16016,-0.0703 h 2.53125 l -1.26562,1.81641 c -0.31641,0.45703 -1.52344,2.42578 -1.52344,4.66406 0,0.14062 0,0.60937 0.48047,0.60937 0.5039,0 0.5039,-0.45703 0.5039,-0.62109 v -0.59766 c 0,-1.78125 0.29297,-3.16406 0.85547,-3.96093 z m 0,0"
         style="fill:#000000;fill-opacity:1;fill-rule:nonzero;stroke:none" />
      <path
         id="path23"
         d="m -27.094758,209.29761 c 0.503906,0.16406 0.925781,0.17578 1.054688,0.17578 1.359375,0 2.214843,-0.99609 2.214843,-1.16016 0,-0.0469 -0.02344,-0.10546 -0.09375,-0.10546 -0.02344,0 -0.04687,0 -0.152343,0.0469 -0.667969,0.28125 -1.242188,0.31641 -1.558594,0.31641 -0.785156,0 -1.347656,-0.23438 -1.582031,-0.32813 -0.08203,-0.0351 -0.105469,-0.0351 -0.117188,-0.0351 -0.09375,0 -0.09375,0.0703 -0.09375,0.25781 v 3.55078 c 0,0.21094 0,0.29297 0.140625,0.29297 0.05859,0 0.07031,-0.0117 0.199219,-0.16406 0.328125,-0.49219 0.890625,-0.77344 1.488281,-0.77344 0.632813,0 0.949219,0.58594 1.042969,0.78515 0.199219,0.46875 0.210937,1.05469 0.210937,1.51172 0,0.45703 0,1.13672 -0.328125,1.67578 -0.269531,0.42188 -0.738281,0.72657 -1.253906,0.72657 -0.796875,0 -1.570312,-0.53907 -1.78125,-1.40625 0.05859,0.0234 0.128906,0.0351 0.1875,0.0351 0.199219,0 0.527344,-0.1289 0.527344,-0.52734 0,-0.33984 -0.234375,-0.52734 -0.527344,-0.52734 -0.210937,0 -0.527344,0.10546 -0.527344,0.57421 0,1.00782 0.808594,2.16797 2.144532,2.16797 1.347656,0 2.53125,-1.125 2.53125,-2.64843 0,-1.41797 -0.960938,-2.60157 -2.214844,-2.60157 -0.679688,0 -1.207031,0.29297 -1.511719,0.63282 z m 0,0"
         style="fill:#000000;fill-opacity:1;fill-rule:nonzero;stroke:none" />
      <path
         id="path24"
         d="m -143.90433,222.8064 c 0,-0.22266 0,-0.29297 -0.16406,-0.29297 -0.0937,0 -0.12891,0 -0.22266,0.15234 l -3.59765,5.57813 v 0.35156 h 3.14062 v 1.07813 c 0,0.44531 -0.0234,0.5625 -0.90234,0.5625 h -0.23438 v 0.35156 c 0.26953,-0.0234 1.21875,-0.0234 1.5586,-0.0234 0.32812,0 1.28906,0 1.55859,0.0234 v -0.35156 h -0.23437 c -0.86719,0 -0.90235,-0.11719 -0.90235,-0.5625 v -1.07813 h 1.20703 v -0.35156 h -1.20703 z m -0.78515,0.9375 v 4.5 h -2.90625 z m 8.00976,-0.57422 v -0.28125 h -2.88281 c -1.45313,0 -1.47656,-0.15234 -1.52344,-0.38672 h -0.25781 l -0.375,2.39063 h 0.26953 c 0.0352,-0.21094 0.14063,-0.94922 0.29297,-1.07813 0.0937,-0.0703 0.99609,-0.0703 1.16016,-0.0703 h 2.53125 l -1.26563,1.8164 c -0.31641,0.45704 -1.52344,2.42579 -1.52344,4.66407 0,0.14062 0,0.60937 0.48047,0.60937 0.50391,0 0.50391,-0.45703 0.50391,-0.62109 V 229.615 c 0,-1.78125 0.29297,-3.16406 0.85547,-3.96094 z m 0,0"
         style="fill:#000000;fill-opacity:1;fill-rule:nonzero;stroke:none" />
      <path
         id="path25"
         d="m 91.51657,222.8064 c 0,-0.22266 0,-0.29297 -0.164062,-0.29297 -0.09375,0 -0.128906,0 -0.222656,0.15234 l -3.597657,5.57813 v 0.35156 h 3.140625 v 1.07813 c 0,0.44531 -0.02344,0.5625 -0.902343,0.5625 h -0.234375 v 0.35156 c 0.269531,-0.0234 1.21875,-0.0234 1.558593,-0.0234 0.328125,0 1.289063,0 1.558594,0.0234 v -0.35156 h -0.234375 c -0.867187,0 -0.902344,-0.11719 -0.902344,-0.5625 v -1.07813 h 1.207032 V 228.2439 H 91.51657 Z m -0.785156,0.9375 v 4.5 h -2.90625 z m 0,0"
         style="fill:#000000;fill-opacity:1;fill-rule:nonzero;stroke:none" />
      <path
         id="path26"
         d="m -30.431672,283.21363 c -0.375,0.0703 -0.5625,0.32812 -0.5625,0.59765 0,0.28125 0.222656,0.375 0.398438,0.375 0.328125,0 0.609375,-0.28125 0.609375,-0.64453 0,-0.375 -0.375,-0.71484 -0.972657,-0.71484 -0.480468,0 -1.03125,0.22265 -1.535156,0.94922 -0.08203,-0.63282 -0.5625,-0.94922 -1.03125,-0.94922 -0.46875,0 -0.714844,0.36328 -0.855469,0.62109 -0.199218,0.43359 -0.375,1.14844 -0.375,1.20703 0,0.0469 0.04687,0.10547 0.128907,0.10547 0.09375,0 0.105468,-0.0117 0.175781,-0.28125 0.175781,-0.71484 0.410156,-1.40625 0.890625,-1.40625 0.28125,0 0.363281,0.19922 0.363281,0.53906 0,0.26953 -0.117187,0.73828 -0.199219,1.10157 l -0.339843,1.28906 c -0.04687,0.23437 -0.175782,0.77344 -0.234375,0.98437 -0.08203,0.31641 -0.210938,0.87891 -0.210938,0.9375 0,0.16407 0.128906,0.29297 0.304688,0.29297 0.128906,0 0.363281,-0.082 0.433593,-0.3164 0.03516,-0.10547 0.480469,-1.91016 0.550782,-2.17969 0.05859,-0.25781 0.128906,-0.51563 0.1875,-0.77344 0.04687,-0.17578 0.09375,-0.36328 0.128906,-0.51562 0.03516,-0.10547 0.363281,-0.69141 0.65625,-0.96094 0.152344,-0.12891 0.457031,-0.39844 0.949219,-0.39844 0.1875,0 0.386718,0.0352 0.539062,0.14063 z m 0,0"
         style="fill:#000000;fill-opacity:1;fill-rule:nonzero;stroke:none" />
      <path
         id="path27"
         d="m 218.67966,294.87964 c 0,-0.26953 0,-0.28125 -0.2461,-0.28125 -0.28125,0.31641 -0.8789,0.76172 -2.10937,0.76172 v 0.35156 c 0.26953,0 0.86719,0 1.52344,-0.3164 v 6.22265 c 0,0.4336 -0.0352,0.57422 -1.07813,0.57422 h -0.375 v 0.35156 c 0.31641,-0.0234 1.47656,-0.0234 1.875,-0.0234 0.39844,0 1.54688,0 1.86328,0.0234 v -0.35156 h -0.36328 c -1.05469,0 -1.08984,-0.14062 -1.08984,-0.57422 z m 7.76367,3.84375 c 0,-0.99609 -0.0586,-1.96875 -0.49219,-2.87109 -0.49219,-0.9961 -1.34766,-1.25391 -1.93359,-1.25391 -0.69141,0 -1.54688,0.33984 -1.98047,1.33594 -0.33985,0.75 -0.45703,1.48828 -0.45703,2.78906 0,1.16016 0.082,2.02734 0.51562,2.87109 0.45703,0.91407 1.28906,1.19532 1.91016,1.19532 1.04297,0 1.64062,-0.6211 1.98047,-1.3125 0.43359,-0.89063 0.45703,-2.0625 0.45703,-2.75391 z m -2.4375,3.83203 c -0.38672,0 -1.16016,-0.21094 -1.38281,-1.52344 -0.14063,-0.71484 -0.14063,-1.61718 -0.14063,-2.46093 0,-0.97266 0,-1.86328 0.19922,-2.56641 0.19922,-0.79687 0.80859,-1.17187 1.32422,-1.17187 0.45703,0 1.14844,0.28125 1.37109,1.30078 0.15235,0.67968 0.15235,1.6289 0.15235,2.4375 0,0.80859 0,1.71093 -0.12891,2.4375 -0.22266,1.32422 -0.97266,1.54687 -1.39453,1.54687 z m 0,0"
         style="fill:#000000;fill-opacity:1;fill-rule:nonzero;stroke:none" />
      <path
         id="path28"
         d="m 137.39841,352.27515 c 0,-0.22266 0,-0.29297 -0.16407,-0.29297 -0.0937,0 -0.1289,0 -0.22265,0.15234 l -3.59766,5.57813 v 0.35156 h 3.14063 v 1.07813 c 0,0.44531 -0.0234,0.5625 -0.90235,0.5625 h -0.23437 v 0.35156 c 0.26953,-0.0234 1.21875,-0.0234 1.55859,-0.0234 0.32813,0 1.28906,0 1.5586,0.0234 v -0.35156 h -0.23438 c -0.86719,0 -0.90234,-0.11719 -0.90234,-0.5625 v -1.07813 h 1.20703 v -0.35156 h -1.20703 z m -0.78516,0.9375 v 4.5 H 133.707 Z m 4.5293,2.55469 c -0.21094,0.0117 -0.25782,0.0234 -0.25782,0.1289 0,0.11719 0.0586,0.11719 0.28125,0.11719 h 0.55079 c 1.00781,0 1.46484,0.84375 1.46484,1.99219 0,1.55859 -0.80859,1.98047 -1.39453,1.98047 -0.57422,0 -1.5586,-0.28125 -1.89844,-1.06641 0.375,0.0586 0.72656,-0.15234 0.72656,-0.58594 0,-0.33984 -0.25781,-0.58594 -0.58593,-0.58594 -0.29297,0 -0.59766,0.16407 -0.59766,0.6211 0,1.0664 1.06641,1.93359 2.39062,1.93359 1.41797,0 2.47266,-1.07812 2.47266,-2.28515 0,-1.10157 -0.89062,-1.96875 -2.02734,-2.16797 1.03125,-0.30469 1.69922,-1.17188 1.69922,-2.10938 0,-0.9375 -0.97266,-1.6289 -2.13282,-1.6289 -1.19531,0 -2.08593,0.72656 -2.08593,1.59375 0,0.48046 0.375,0.57421 0.55078,0.57421 0.25781,0 0.53906,-0.17578 0.53906,-0.53906 0,-0.375 -0.28125,-0.53906 -0.55078,-0.53906 -0.0703,0 -0.0937,0 -0.12891,0.0117 0.45703,-0.82031 1.58203,-0.82031 1.64063,-0.82031 0.38672,0 1.17187,0.17578 1.17187,1.34765 0,0.23438 -0.0352,0.90235 -0.38672,1.41797 -0.35156,0.52734 -0.76172,0.5625 -1.08984,0.57422 z m 8.91211,2.28515 h -0.26953 c -0.0352,0.19922 -0.12891,0.85547 -0.2461,1.04297 -0.082,0.11719 -0.76172,0.11719 -1.125,0.11719 h -2.21484 c 0.32812,-0.28125 1.05469,-1.04297 1.37109,-1.33594 1.81641,-1.66406 2.48438,-2.28516 2.48438,-3.46875 0,-1.38281 -1.08985,-2.29687 -2.47266,-2.29687 -1.39453,0 -2.20312,1.18359 -2.20312,2.20312 0,0.60938 0.52734,0.60938 0.5625,0.60938 0.24609,0 0.5625,-0.17579 0.5625,-0.5625 0,-0.32813 -0.23438,-0.55079 -0.5625,-0.55079 -0.10547,0 -0.12891,0 -0.16407,0.0117 0.22266,-0.82031 0.86719,-1.37109 1.64063,-1.37109 1.01953,0 1.64062,0.85547 1.64062,1.95703 0,1.00781 -0.58593,1.89844 -1.26562,2.66016 l -2.41406,2.70703 v 0.28125 h 4.35937 z m 0,0"
         style="fill:#000000;fill-opacity:1;fill-rule:nonzero;stroke:none" />
      <path
         id="path29"
         d="m -111.87991,370.2107 c -0.21094,0.0117 -0.25782,0.0234 -0.25782,0.1289 0,0.11719 0.0586,0.11719 0.28125,0.11719 h 0.55078 c 1.00782,0 1.46485,0.84375 1.46485,1.99219 0,1.55859 -0.8086,1.98047 -1.39453,1.98047 -0.57422,0 -1.5586,-0.28125 -1.89844,-1.06641 0.375,0.0586 0.72656,-0.15234 0.72656,-0.58594 0,-0.33984 -0.25781,-0.58594 -0.58594,-0.58594 -0.29296,0 -0.59765,0.16407 -0.59765,0.6211 0,1.0664 1.0664,1.93359 2.39062,1.93359 1.41797,0 2.47266,-1.07812 2.47266,-2.28515 0,-1.10157 -0.89063,-1.96875 -2.02734,-2.16797 1.03125,-0.30469 1.69921,-1.17188 1.69921,-2.10938 0,-0.9375 -0.97265,-1.6289 -2.13281,-1.6289 -1.19531,0 -2.08594,0.72656 -2.08594,1.59375 0,0.48046 0.375,0.57421 0.55079,0.57421 0.25781,0 0.53906,-0.17578 0.53906,-0.53906 0,-0.375 -0.28125,-0.53906 -0.55078,-0.53906 -0.0703,0 -0.0937,0 -0.12891,0.0117 0.45703,-0.82031 1.58203,-0.82031 1.64063,-0.82031 0.38671,0 1.17187,0.17578 1.17187,1.34765 0,0.23438 -0.0352,0.90235 -0.38672,1.41797 -0.35156,0.52734 -0.76172,0.5625 -1.08984,0.57422 z m 5.11523,0.1289 c 0,-3.02344 1.47656,-3.5039 2.12109,-3.5039 0.4336,0 0.85547,0.1289 1.08985,0.49218 -0.14063,0 -0.59766,0 -0.59766,0.49219 0,0.25781 0.17578,0.49219 0.49219,0.49219 0.29297,0 0.49219,-0.1875 0.49219,-0.52735 0,-0.62109 -0.44532,-1.23046 -1.48828,-1.23046 -1.51172,0 -3.08204,1.53515 -3.08204,4.17187 0,3.28125 1.42969,4.01953 2.44922,4.01953 1.30078,0 2.41407,-1.125 2.41407,-2.68359 0,-1.59375 -1.11329,-2.66016 -2.3086,-2.66016 -1.0664,0 -1.45312,0.92578 -1.58203,1.26563 z m 1.47656,4.08985 c -0.75,0 -1.11328,-0.66797 -1.21875,-0.92579 -0.10547,-0.30468 -0.22265,-0.89062 -0.22265,-1.73437 0,-0.9375 0.42187,-2.12109 1.5,-2.12109 0.65625,0 1.00781,0.44531 1.18359,0.84375 0.1875,0.44531 0.1875,1.04296 0.1875,1.55859 0,0.60937 0,1.14844 -0.22266,1.60547 -0.30468,0.57422 -0.72656,0.77344 -1.20703,0.77344 z m 0,0"
         style="fill:#000000;fill-opacity:1;fill-rule:nonzero;stroke:none" />
      <path
         id="path30"
         d="m -25.205109,412.69116 c -0.375,0.0703 -0.515625,0.35157 -0.515625,0.58594 0,0.28125 0.222656,0.375 0.386718,0.375 0.363282,0 0.609375,-0.30469 0.609375,-0.63281 0,-0.49219 -0.574218,-0.72656 -1.078125,-0.72656 -0.726562,0 -1.125,0.71484 -1.242187,0.94922 -0.269531,-0.90235 -1.007813,-0.94922 -1.230469,-0.94922 -1.21875,0 -1.863281,1.57031 -1.863281,1.82812 0,0.0469 0.04687,0.10547 0.128906,0.10547 0.105469,0 0.128906,-0.0703 0.152344,-0.11719 0.398437,-1.32422 1.207031,-1.57031 1.546875,-1.57031 0.539062,0 0.644531,0.49219 0.644531,0.78516 0,0.25781 -0.07031,0.53906 -0.210937,1.11328 l -0.410157,1.6289 c -0.175781,0.72657 -0.527343,1.38282 -1.160156,1.38282 -0.05859,0 -0.351562,0 -0.609375,-0.15235 0.433594,-0.0937 0.527344,-0.44531 0.527344,-0.58593 0,-0.2461 -0.175781,-0.38672 -0.398438,-0.38672 -0.292968,0 -0.597656,0.24609 -0.597656,0.63281 0,0.50391 0.5625,0.72656 1.066406,0.72656 0.574219,0 0.984375,-0.45703 1.230469,-0.9375 0.199219,0.70313 0.796875,0.9375 1.230469,0.9375 1.230469,0 1.875,-1.55859 1.875,-1.82812 0,-0.0586 -0.04687,-0.10547 -0.128906,-0.10547 -0.105469,0 -0.117188,0.0586 -0.152344,0.15234 -0.316406,1.05469 -1.019531,1.54688 -1.546875,1.54688 -0.421875,0 -0.65625,-0.31641 -0.65625,-0.8086 0,-0.25781 0.05859,-0.44531 0.246094,-1.24218 l 0.421875,-1.61719 c 0.175781,-0.72656 0.585937,-1.24219 1.125,-1.24219 0.03516,0 0.363281,0 0.609375,0.15234 z m 0,0"
         style="fill:#000000;fill-opacity:1;fill-rule:nonzero;stroke:none" />
      <path
         id="path31"
         d="m 252.62888,409.57398 c 0.0117,-0.0469 0.0351,-0.12891 0.0351,-0.1875 0,-0.11719 -0.1289,-0.11719 -0.15234,-0.11719 -0.0117,0 -0.4336,0.0352 -0.65625,0.0586 -0.19922,0.0117 -0.375,0.0352 -0.59766,0.0469 -0.28125,0.0234 -0.36328,0.0352 -0.36328,0.25781 0,0.11719 0.11719,0.11719 0.23438,0.11719 0.60937,0 0.60937,0.10547 0.60937,0.22265 0,0.0469 0,0.0703 -0.0586,0.29297 l -1.71094,6.83203 c -0.0469,0.1875 -0.0469,0.21094 -0.0469,0.28125 0,0.25782 0.19922,0.30469 0.32813,0.30469 0.32812,0 0.39844,-0.25781 0.49219,-0.63281 l 0.5625,-2.23828 c 0.86718,0.10547 1.38281,0.45703 1.38281,1.03125 0,0.0703 0,0.11719 -0.0352,0.30469 -0.0469,0.17578 -0.0469,0.3164 -0.0469,0.375 0,0.6914 0.44531,1.16015 1.05469,1.16015 0.55078,0 0.84375,-0.5039 0.9375,-0.66797 0.24609,-0.44531 0.41015,-1.11328 0.41015,-1.16015 0,-0.0586 -0.0469,-0.10547 -0.1289,-0.10547 -0.10547,0 -0.11719,0.0469 -0.16407,0.23437 -0.16406,0.6211 -0.42187,1.46485 -1.03125,1.46485 -0.23437,0 -0.38672,-0.11719 -0.38672,-0.57422 0,-0.23438 0.0469,-0.49219 0.0937,-0.66797 0.0469,-0.22266 0.0469,-0.23438 0.0469,-0.375 0,-0.70313 -0.63281,-1.10156 -1.73438,-1.24219 0.4336,-0.25781 0.86719,-0.72656 1.03125,-0.91406 0.67969,-0.76172 1.14844,-1.13672 1.69922,-1.13672 0.26953,0 0.33985,0.0703 0.42188,0.14063 -0.4336,0.0469 -0.60938,0.35156 -0.60938,0.59765 0,0.28125 0.23438,0.375 0.39844,0.375 0.32813,0 0.60938,-0.26953 0.60938,-0.65625 0,-0.33984 -0.26954,-0.70312 -0.8086,-0.70312 -0.65625,0 -1.19531,0.46875 -2.05078,1.42968 -0.11719,0.14063 -0.5625,0.59766 -0.99609,0.76172 z m 0,0"
         style="fill:#000000;fill-opacity:1;fill-rule:nonzero;stroke:none" />
      <path
         id="path32"
         d="m -142.55667,427.13745 c -0.375,0.0703 -0.51563,0.35157 -0.51563,0.58594 0,0.28125 0.22266,0.375 0.38672,0.375 0.36328,0 0.60938,-0.30469 0.60938,-0.63281 0,-0.49219 -0.57422,-0.72656 -1.07813,-0.72656 -0.72656,0 -1.125,0.71484 -1.24219,0.94921 -0.26953,-0.90234 -1.00781,-0.94921 -1.23046,-0.94921 -1.21875,0 -1.86329,1.57031 -1.86329,1.82812 0,0.0469 0.0469,0.10547 0.12891,0.10547 0.10547,0 0.12891,-0.0703 0.15234,-0.11719 0.39844,-1.32422 1.20704,-1.57031 1.54688,-1.57031 0.53906,0 0.64453,0.49219 0.64453,0.78516 0,0.25781 -0.0703,0.53906 -0.21094,1.11328 l -0.41015,1.6289 c -0.17578,0.72657 -0.52735,1.38282 -1.16016,1.38282 -0.0586,0 -0.35156,0 -0.60937,-0.15235 0.43359,-0.0937 0.52734,-0.44531 0.52734,-0.58594 0,-0.24609 -0.17578,-0.38671 -0.39844,-0.38671 -0.29297,0 -0.59765,0.24609 -0.59765,0.63281 0,0.5039 0.5625,0.72656 1.0664,0.72656 0.57422,0 0.98438,-0.45703 1.23047,-0.9375 0.19922,0.70313 0.79688,0.9375 1.23047,0.9375 1.23047,0 1.875,-1.55859 1.875,-1.82812 0,-0.0586 -0.0469,-0.10547 -0.12891,-0.10547 -0.10547,0 -0.11718,0.0586 -0.15234,0.15234 -0.31641,1.05469 -1.01953,1.54688 -1.54688,1.54688 -0.42187,0 -0.65625,-0.31641 -0.65625,-0.8086 0,-0.25781 0.0586,-0.44531 0.2461,-1.24219 l 0.42187,-1.61718 c 0.17578,-0.72657 0.58594,-1.24219 1.125,-1.24219 0.0352,0 0.36328,0 0.60938,0.15234 z m 0,0"
         style="fill:#000000;fill-opacity:1;fill-rule:nonzero;stroke:none" />
      <path
         id="path33"
         d="m 182.41013,424.02027 c 0.0117,-0.0469 0.0351,-0.12891 0.0351,-0.1875 0,-0.11719 -0.11719,-0.11719 -0.14062,-0.11719 -0.0117,0 -0.44532,0.0351 -0.65625,0.0586 -0.21094,0.0117 -0.38672,0.0352 -0.59766,0.0469 -0.29297,0.0234 -0.375,0.0351 -0.375,0.25781 0,0.11719 0.11719,0.11719 0.24609,0.11719 0.60938,0 0.60938,0.10547 0.60938,0.22265 0,0.0469 0,0.0703 -0.0586,0.29297 l -1.48829,5.92969 c -0.0352,0.12891 -0.0586,0.22266 -0.0586,0.41016 0,0.59765 0.44531,1.07812 1.05469,1.07812 0.38672,0 0.65625,-0.25781 0.84375,-0.63281 0.19922,-0.39844 0.375,-1.14844 0.375,-1.19531 0,-0.0586 -0.0469,-0.10547 -0.11719,-0.10547 -0.11719,0 -0.12891,0.0586 -0.17578,0.23437 -0.21094,0.83203 -0.42188,1.46485 -0.90234,1.46485 -0.36329,0 -0.36329,-0.38672 -0.36329,-0.55079 0,-0.0469 0,-0.30468 0.082,-0.63281 z m 0,0"
         style="fill:#000000;fill-opacity:1;fill-rule:nonzero;stroke:none" />
      <path
         id="path34"
         d="m 332.68259,427.13745 c -0.375,0.0703 -0.51563,0.35157 -0.51563,0.58594 0,0.28125 0.22266,0.375 0.38672,0.375 0.36328,0 0.60937,-0.30469 0.60937,-0.63281 0,-0.49219 -0.57421,-0.72656 -1.07812,-0.72656 -0.72656,0 -1.125,0.71484 -1.24219,0.94921 -0.26953,-0.90234 -1.00781,-0.94921 -1.23047,-0.94921 -1.21875,0 -1.86328,1.57031 -1.86328,1.82812 0,0.0469 0.0469,0.10547 0.12891,0.10547 0.10547,0 0.1289,-0.0703 0.15234,-0.11719 0.39844,-1.32422 1.20703,-1.57031 1.54688,-1.57031 0.53906,0 0.64453,0.49219 0.64453,0.78516 0,0.25781 -0.0703,0.53906 -0.21094,1.11328 l -0.41016,1.6289 c -0.17578,0.72657 -0.52734,1.38282 -1.16015,1.38282 -0.0586,0 -0.35156,0 -0.60938,-0.15235 0.4336,-0.0937 0.52735,-0.44531 0.52735,-0.58594 0,-0.24609 -0.17578,-0.38671 -0.39844,-0.38671 -0.29297,0 -0.59766,0.24609 -0.59766,0.63281 0,0.5039 0.5625,0.72656 1.06641,0.72656 0.57422,0 0.98437,-0.45703 1.23047,-0.9375 0.19922,0.70313 0.79687,0.9375 1.23047,0.9375 1.23047,0 1.875,-1.55859 1.875,-1.82812 0,-0.0586 -0.0469,-0.10547 -0.12891,-0.10547 -0.10547,0 -0.11719,0.0586 -0.15234,0.15234 -0.31641,1.05469 -1.01953,1.54688 -1.54688,1.54688 -0.42187,0 -0.65625,-0.31641 -0.65625,-0.8086 0,-0.25781 0.0586,-0.44531 0.2461,-1.24219 l 0.42187,-1.61718 c 0.17578,-0.72657 0.58594,-1.24219 1.125,-1.24219 0.0352,0 0.36328,0 0.60938,0.15234 z m 0,0"
         style="fill:#000000;fill-opacity:1;fill-rule:nonzero;stroke:none" />
      <path
         id="path35"
         d="m 75.461883,442.95191 c 0.02344,-0.0703 0.328125,-0.66797 0.761719,-1.05469 0.316406,-0.28125 0.726562,-0.46875 1.183593,-0.46875 0.480469,0 0.644532,0.35156 0.644532,0.83203 0,0.0703 0,0.30469 -0.140625,0.86719 l -0.292969,1.23047 c -0.09375,0.36328 -0.328125,1.2539 -0.351563,1.38281 -0.04687,0.17578 -0.117187,0.49219 -0.117187,0.53906 0,0.16406 0.128906,0.29297 0.304687,0.29297 0.363282,0 0.421875,-0.26953 0.527344,-0.70312 l 0.726563,-2.85938 c 0.02344,-0.0937 0.644531,-1.58203 1.957031,-1.58203 0.480469,0 0.644531,0.35156 0.644531,0.83203 0,0.66797 -0.46875,1.96875 -0.726562,2.68359 -0.105469,0.29297 -0.175782,0.44532 -0.175782,0.66797 0,0.52735 0.375,0.96094 0.949219,0.96094 1.113281,0 1.535156,-1.75781 1.535156,-1.82812 0,-0.0586 -0.05859,-0.10547 -0.128906,-0.10547 -0.105469,0 -0.117187,0.0351 -0.175781,0.23437 -0.269531,0.96094 -0.714844,1.46485 -1.195313,1.46485 -0.117187,0 -0.304687,-0.0117 -0.304687,-0.39844 0,-0.30469 0.140625,-0.69141 0.1875,-0.82031 0.210937,-0.57422 0.75,-1.99219 0.75,-2.6836 0,-0.71484 -0.421875,-1.2539 -1.324219,-1.2539 -0.796875,0 -1.453125,0.45703 -1.921875,1.16015 -0.03516,-0.64453 -0.433594,-1.16015 -1.335937,-1.16015 -1.054688,0 -1.617188,0.75 -1.839844,1.05468 -0.03516,-0.67968 -0.527344,-1.05468 -1.042969,-1.05468 -0.351562,0 -0.621094,0.16406 -0.855469,0.62109 -0.210937,0.43359 -0.375,1.16016 -0.375,1.20703 0,0.0469 0.04687,0.10547 0.128907,0.10547 0.09375,0 0.105468,-0.0117 0.175781,-0.28125 0.175781,-0.70313 0.410156,-1.40625 0.890625,-1.40625 0.269531,0 0.363281,0.1875 0.363281,0.53906 0,0.26953 -0.117187,0.73828 -0.199219,1.10156 l -0.339843,1.28907 c -0.04687,0.23437 -0.175782,0.77343 -0.234375,0.98437 -0.08203,0.31641 -0.210938,0.87891 -0.210938,0.9375 0,0.16406 0.128906,0.29297 0.304688,0.29297 0.140625,0 0.316406,-0.0703 0.410156,-0.24609 0.02344,-0.0586 0.128906,-0.48047 0.1875,-0.71485 l 0.257812,-1.07812 z m 0,0"
         style="fill:#000000;fill-opacity:1;fill-rule:nonzero;stroke:none" />
      <path
         id="path36"
         d="m 205.41989,438.46363 c 0.0117,-0.0469 0.0352,-0.12891 0.0352,-0.1875 0,-0.11719 -0.12891,-0.11719 -0.15235,-0.11719 -0.0117,0 -0.43359,0.0352 -0.65625,0.0586 -0.19922,0.0117 -0.375,0.0352 -0.59765,0.0469 -0.28125,0.0234 -0.36328,0.0351 -0.36328,0.25781 0,0.11719 0.11718,0.11719 0.23437,0.11719 0.60938,0 0.60938,0.10547 0.60938,0.22265 0,0.0469 0,0.0703 -0.0586,0.29297 l -1.71094,6.83203 c -0.0469,0.1875 -0.0469,0.21094 -0.0469,0.28125 0,0.25782 0.19922,0.30469 0.32812,0.30469 0.32813,0 0.39844,-0.25781 0.49219,-0.63281 l 0.5625,-2.23828 c 0.86719,0.10547 1.38281,0.45703 1.38281,1.03125 0,0.0703 0,0.11718 -0.0351,0.30468 -0.0469,0.17579 -0.0469,0.31641 -0.0469,0.375 0,0.69141 0.44532,1.16016 1.05469,1.16016 0.55078,0 0.84375,-0.50391 0.9375,-0.66797 0.24609,-0.44531 0.41016,-1.11328 0.41016,-1.16015 0,-0.0586 -0.0469,-0.10547 -0.12891,-0.10547 -0.10547,0 -0.11719,0.0469 -0.16406,0.23437 -0.16406,0.6211 -0.42188,1.46485 -1.03125,1.46485 -0.23438,0 -0.38672,-0.11719 -0.38672,-0.57422 0,-0.23438 0.0469,-0.49219 0.0937,-0.66797 0.0469,-0.22266 0.0469,-0.23438 0.0469,-0.375 0,-0.70313 -0.63281,-1.10156 -1.73437,-1.24219 0.43359,-0.25781 0.86719,-0.72656 1.03125,-0.91406 0.67969,-0.76172 1.14844,-1.13672 1.69922,-1.13672 0.26953,0 0.33984,0.0703 0.42187,0.14062 -0.43359,0.0469 -0.60937,0.35157 -0.60937,0.59766 0,0.28125 0.23437,0.375 0.39844,0.375 0.32812,0 0.60937,-0.26953 0.60937,-0.65625 0,-0.33984 -0.26953,-0.70312 -0.80859,-0.70312 -0.65625,0 -1.19532,0.46875 -2.05078,1.42968 -0.11719,0.14063 -0.5625,0.59766 -0.9961,0.76172 z m 0,0"
         style="fill:#000000;fill-opacity:1;fill-rule:nonzero;stroke:none" />
      <path
         id="path37"
         d="m 215.9697,443.69019 h 3.30468 c 0.16407,0 0.375,0 0.375,-0.21094 0,-0.22266 -0.19922,-0.22266 -0.375,-0.22266 h -3.30468 v -3.30468 c 0,-0.16407 0,-0.38672 -0.21094,-0.38672 -0.23438,0 -0.23438,0.21094 -0.23438,0.38672 v 3.30468 h -3.29297 c -0.17578,0 -0.38671,0 -0.38671,0.21094 0,0.22266 0.19921,0.22266 0.38671,0.22266 h 3.29297 v 3.30469 c 0,0.16406 0,0.38671 0.22266,0.38671 0.22266,0 0.22266,-0.21093 0.22266,-0.38671 z m 0,0"
         style="fill:#000000;fill-opacity:1;fill-rule:nonzero;stroke:none" />
      <path
         id="path38"
         d="m 225.99509,438.46363 c 0.0117,-0.0469 0.0351,-0.12891 0.0351,-0.1875 0,-0.11719 -0.11719,-0.11719 -0.14062,-0.11719 -0.0117,0 -0.44532,0.0352 -0.65625,0.0586 -0.21094,0.0117 -0.38672,0.0352 -0.59766,0.0469 -0.29297,0.0234 -0.375,0.0351 -0.375,0.25781 0,0.11719 0.11719,0.11719 0.24609,0.11719 0.60938,0 0.60938,0.10547 0.60938,0.22265 0,0.0469 0,0.0703 -0.0586,0.29297 l -1.48829,5.92969 c -0.0351,0.12891 -0.0586,0.22266 -0.0586,0.41016 0,0.59765 0.44531,1.07812 1.05469,1.07812 0.38672,0 0.65625,-0.25781 0.84375,-0.63281 0.19922,-0.39844 0.375,-1.14844 0.375,-1.19531 0,-0.0586 -0.0469,-0.10547 -0.11719,-0.10547 -0.11719,0 -0.12891,0.0586 -0.17578,0.23437 -0.21094,0.83203 -0.42188,1.46485 -0.90234,1.46485 -0.36329,0 -0.36329,-0.38672 -0.36329,-0.55079 0,-0.0469 0,-0.30468 0.082,-0.63281 z m 0,0"
         style="fill:#000000;fill-opacity:1;fill-rule:nonzero;stroke:none" />
      <path
         id="path39"
         d="m 234.13376,443.69019 h 3.30469 c 0.16406,0 0.375,0 0.375,-0.21094 0,-0.22266 -0.19922,-0.22266 -0.375,-0.22266 h -3.30469 v -3.30468 c 0,-0.16407 0,-0.38672 -0.21094,-0.38672 -0.23437,0 -0.23437,0.21094 -0.23437,0.38672 v 3.30468 h -3.29297 c -0.17578,0 -0.38672,0 -0.38672,0.21094 0,0.22266 0.19922,0.22266 0.38672,0.22266 h 3.29297 v 3.30469 c 0,0.16406 0,0.38671 0.22265,0.38671 0.22266,0 0.22266,-0.21093 0.22266,-0.38671 z m 0,0"
         style="fill:#000000;fill-opacity:1;fill-rule:nonzero;stroke:none" />
      <path
         id="path40"
         d="m 243.58493,442.95191 c 0.0234,-0.0703 0.32812,-0.66797 0.76172,-1.05469 0.3164,-0.28125 0.72656,-0.46875 1.18359,-0.46875 0.48047,0 0.64453,0.35156 0.64453,0.83203 0,0.0703 0,0.30469 -0.14062,0.86719 l -0.29297,1.23047 c -0.0937,0.36328 -0.32813,1.2539 -0.35156,1.38281 -0.0469,0.17578 -0.11719,0.49219 -0.11719,0.53906 0,0.16406 0.12891,0.29297 0.30469,0.29297 0.36328,0 0.42187,-0.26953 0.52734,-0.70312 l 0.72656,-2.85938 c 0.0234,-0.0937 0.64453,-1.58203 1.95703,-1.58203 0.48047,0 0.64454,0.35156 0.64454,0.83203 0,0.66797 -0.46875,1.96875 -0.72657,2.68359 -0.10547,0.29297 -0.17578,0.44532 -0.17578,0.66797 0,0.52735 0.375,0.96094 0.94922,0.96094 1.11328,0 1.53516,-1.75781 1.53516,-1.82812 0,-0.0586 -0.0586,-0.10547 -0.12891,-0.10547 -0.10547,0 -0.11719,0.0351 -0.17578,0.23437 -0.26953,0.96094 -0.71484,1.46485 -1.19531,1.46485 -0.11719,0 -0.30469,-0.0117 -0.30469,-0.39844 0,-0.30469 0.14062,-0.69141 0.1875,-0.82031 0.21094,-0.57422 0.75,-1.99219 0.75,-2.6836 0,-0.71484 -0.42188,-1.2539 -1.32422,-1.2539 -0.79687,0 -1.45312,0.45703 -1.92187,1.16015 -0.0352,-0.64453 -0.4336,-1.16015 -1.33594,-1.16015 -1.05469,0 -1.61719,0.75 -1.83985,1.05468 -0.0351,-0.67968 -0.52734,-1.05468 -1.04296,-1.05468 -0.35157,0 -0.6211,0.16406 -0.85547,0.62109 -0.21094,0.43359 -0.375,1.16016 -0.375,1.20703 0,0.0469 0.0469,0.10547 0.1289,0.10547 0.0937,0 0.10547,-0.0117 0.17578,-0.28125 0.17579,-0.70313 0.41016,-1.40625 0.89063,-1.40625 0.26953,0 0.36328,0.1875 0.36328,0.53906 0,0.26953 -0.11719,0.73828 -0.19922,1.10156 l -0.33984,1.28907 c -0.0469,0.23437 -0.17578,0.77343 -0.23438,0.98437 -0.082,0.31641 -0.21093,0.87891 -0.21093,0.9375 0,0.16406 0.1289,0.29297 0.30468,0.29297 0.14063,0 0.31641,-0.0703 0.41016,-0.24609 0.0234,-0.0586 0.12891,-0.48047 0.1875,-0.71485 l 0.25781,-1.07812 z m 0,0"
         style="fill:#000000;fill-opacity:1;fill-rule:nonzero;stroke:none" />
      <path
         id="path41"
         d="m -44.962922,456.0271 c -0.375,0.0703 -0.515625,0.35156 -0.515625,0.58594 0,0.28125 0.222656,0.375 0.386719,0.375 0.363281,0 0.609375,-0.30469 0.609375,-0.63281 0,-0.49219 -0.574219,-0.72657 -1.078125,-0.72657 -0.726563,0 -1.125,0.71485 -1.242188,0.94922 -0.269531,-0.90234 -1.007812,-0.94922 -1.230468,-0.94922 -1.21875,0 -1.863282,1.57032 -1.863282,1.82813 0,0.0469 0.04687,0.10547 0.128907,0.10547 0.105468,0 0.128906,-0.0703 0.152343,-0.11719 0.398438,-1.32422 1.207032,-1.57031 1.546875,-1.57031 0.539063,0 0.644532,0.49219 0.644532,0.78515 0,0.25782 -0.07031,0.53907 -0.210938,1.11329 l -0.410156,1.6289 c -0.175781,0.72656 -0.527344,1.38281 -1.160156,1.38281 -0.05859,0 -0.351563,0 -0.609375,-0.15234 0.433593,-0.0937 0.527343,-0.44531 0.527343,-0.58594 0,-0.24609 -0.175781,-0.38672 -0.398437,-0.38672 -0.292969,0 -0.597656,0.2461 -0.597656,0.63282 0,0.5039 0.5625,0.72656 1.066406,0.72656 0.574219,0 0.984375,-0.45703 1.230469,-0.9375 0.199218,0.70312 0.796875,0.9375 1.230468,0.9375 1.230469,0 1.875,-1.55859 1.875,-1.82813 0,-0.0586 -0.04687,-0.10546 -0.128906,-0.10546 -0.105469,0 -0.117187,0.0586 -0.152344,0.15234 -0.316406,1.05469 -1.019531,1.54687 -1.546875,1.54687 -0.421875,0 -0.65625,-0.3164 -0.65625,-0.80859 0,-0.25781 0.05859,-0.44531 0.246094,-1.24219 l 0.421875,-1.61718 c 0.175781,-0.72657 0.585938,-1.24219 1.125,-1.24219 0.03516,0 0.363281,0 0.609375,0.15234 z m 0,0"
         style="fill:#000000;fill-opacity:1;fill-rule:nonzero;stroke:none" />
      <path
         id="path42"
         d="m 9.4765313,456.0271 c -0.375,0.0703 -0.515625,0.35156 -0.515625,0.58594 0,0.28125 0.2226562,0.375 0.3867187,0.375 0.3632813,0 0.609375,-0.30469 0.609375,-0.63281 0,-0.49219 -0.5742187,-0.72657 -1.078125,-0.72657 -0.7265625,0 -1.125,0.71485 -1.2421875,0.94922 -0.2695312,-0.90234 -1.0078125,-0.94922 -1.2304687,-0.94922 -1.21875,0 -1.8632813,1.57032 -1.8632813,1.82813 0,0.0469 0.046875,0.10547 0.1289063,0.10547 0.1054687,0 0.1289062,-0.0703 0.1523437,-0.11719 0.3984375,-1.32422 1.2070313,-1.57031 1.546875,-1.57031 0.5390625,0 0.6445313,0.49219 0.6445313,0.78515 0,0.25782 -0.070312,0.53907 -0.2109375,1.11329 L 6.3945,459.4021 c -0.1757812,0.72656 -0.5273437,1.38281 -1.1601562,1.38281 -0.058594,0 -0.3515625,0 -0.609375,-0.15234 0.4335937,-0.0937 0.5273437,-0.44531 0.5273437,-0.58594 0,-0.24609 -0.1757812,-0.38672 -0.3984375,-0.38672 -0.2929687,0 -0.5976562,0.2461 -0.5976562,0.63282 0,0.5039 0.5625,0.72656 1.0664062,0.72656 0.5742188,0 0.984375,-0.45703 1.2304688,-0.9375 0.1992187,0.70312 0.796875,0.9375 1.2304687,0.9375 1.2304688,0 1.875,-1.55859 1.875,-1.82813 0,-0.0586 -0.046875,-0.10546 -0.1289062,-0.10546 -0.1054688,0 -0.1171875,0.0586 -0.1523438,0.15234 -0.3164062,1.05469 -1.0195312,1.54687 -1.546875,1.54687 -0.421875,0 -0.65625,-0.3164 -0.65625,-0.80859 0,-0.25781 0.058594,-0.44531 0.2460938,-1.24219 l 0.421875,-1.61718 c 0.1757812,-0.72657 0.5859375,-1.24219 1.125,-1.24219 0.035156,0 0.3632812,0 0.609375,0.15234 z m 0,0"
         style="fill:#000000;fill-opacity:1;fill-rule:nonzero;stroke:none" />
    </g>
  </g>
</svg>
