<?xml version="1.0" encoding="UTF-8" standalone="no"?>
<!-- Created with Inkscape (http://www.inkscape.org/) -->

<svg
   version="1.1"
   id="svg1"
   width="794.55066"
   height="1123.6533"
   viewBox="0 0 794.55066 1123.6533"
   sodipodi:docname="LigaMatematycznaMatuskiego_Klasa7i8_Zestaw2_2022_2023_page0.pdf"
   xmlns:inkscape="http://www.inkscape.org/namespaces/inkscape"
   xmlns:sodipodi="http://sodipodi.sourceforge.net/DTD/sodipodi-0.dtd"
   xmlns="http://www.w3.org/2000/svg"
   xmlns:svg="http://www.w3.org/2000/svg">
  <defs
     id="defs1" />
  <sodipodi:namedview
     id="namedview1"
     pagecolor="#ffffff"
     bordercolor="#000000"
     borderopacity="0.25"
     inkscape:showpageshadow="2"
     inkscape:pageopacity="0.0"
     inkscape:pagecheckerboard="0"
     inkscape:deskcolor="#d1d1d1">
    <inkscape:page
       x="0"
       y="0"
       inkscape:label="1"
       id="page1"
       width="794.55066"
       height="1123.6533"
       margin="0"
       bleed="0" />
  </sodipodi:namedview>
  <g
     id="g1"
     inkscape:groupmode="layer"
     inkscape:label="1">
    <g
       id="g2"
       aria-label="LIGAMATEMATYCZNA&#10;im.ZdzisªawaMatuskiego&#10;LISTOPAD2022&#10;SZKOAPODSTAWOWA&#10;klasyVII-VIII&#10;ZADANIE1.&#10;Aniapomno»yªapewn¡liczb¦naturaln¡przezka»d¡zjejcyfriotrzymaªa1995.Jakatoliczba?&#10;ZADANIE2.&#10;Wiadomo,»ex+y+z=0orazxyz=78.Oblicz(x+y)(y+z)(x+z).&#10;ZADANIE3.&#10;Wkratkachtablicyowymiarach9×17rozmieszczonoliczbynaturalnetak,»ewka»dym&#10;prostok¡cieowymiarach3×1sumaliczbjestnieparzysta.Czysumawszystkichliczbzapisanych&#10;natablicyjestparzysta?&#10;ZADANIE4.&#10;Wyka»,»eliczba3&#10;n+3&#10;+3&#10;n+4&#10;+3&#10;n+5&#10;+3&#10;n+6&#10;niejestpodzielnaprzez7,alejestpodzielnaprzez&#10;ka»d¡liczb¦naturaln¡mniejsz¡ni»11iró»n¡od7.&#10;ZADANIE5.&#10;Przek¡tnepewnegoczworok¡tas¡prostopadªeirozcinaj¡gonaczterytrójk¡ty.Poladwóch&#10;znichs¡równe9i16,apolapozostaªychdwóchs¡równe.Obliczpoleczworok¡ta."
       transform="matrix(1.3333333,0,0,1.3333333,274.724,56.069333)">
      <path
         id="path2"
         d="m 232.49313,115.69995 c 0,-0.26953 0,-0.28125 -0.24609,-0.28125 -0.28125,0.31641 -0.87891,0.76172 -2.10938,0.76172 v 0.35156 c 0.26954,0 0.86719,0 1.52344,-0.3164 v 6.22265 c 0,0.4336 -0.0352,0.57422 -1.07812,0.57422 h -0.375 v 0.35157 c 0.3164,-0.0234 1.47656,-0.0234 1.875,-0.0234 0.39843,0 1.54687,0 1.86328,0.0234 v -0.35157 h -0.36328 c -1.05469,0 -1.08985,-0.14062 -1.08985,-0.57422 z m 6.7793,4.1836 c 0,2.82422 -1.25391,3.41015 -1.96875,3.41015 -0.28125,0 -0.92578,-0.0352 -1.21875,-0.45703 h 0.0703 c 0.082,0.0234 0.51563,-0.0469 0.51563,-0.49219 0,-0.25781 -0.17578,-0.49218 -0.49219,-0.49218 -0.30469,0 -0.50391,0.21093 -0.50391,0.51562 0,0.75 0.59766,1.24219 1.64063,1.24219 1.5,0 2.9414,-1.58203 2.9414,-4.18359 0,-3.21094 -1.33593,-4.00782 -2.39062,-4.00782 -1.3125,0 -2.47266,1.10157 -2.47266,2.67188 0,1.58203 1.11328,2.66015 2.3086,2.66015 0.8789,0 1.33593,-0.64453 1.57031,-1.2539 z m -1.52344,0.62109 c -0.75,0 -1.07812,-0.60937 -1.18359,-0.83203 -0.19922,-0.45703 -0.19922,-1.03125 -0.19922,-1.57031 0,-0.66797 0,-1.24219 0.31641,-1.73438 0.21093,-0.3164 0.53906,-0.66797 1.18359,-0.66797 0.67969,0 1.03125,0.59766 1.14844,0.87891 0.23437,0.58594 0.23437,1.59375 0.23437,1.78125 0,0.99609 -0.44531,2.14453 -1.5,2.14453 z m 7.37696,-0.62109 c 0,2.82422 -1.25391,3.41015 -1.96875,3.41015 -0.28125,0 -0.92579,-0.0352 -1.21875,-0.45703 h 0.0703 c 0.082,0.0234 0.51562,-0.0469 0.51562,-0.49219 0,-0.25781 -0.17578,-0.49218 -0.49218,-0.49218 -0.30469,0 -0.50391,0.21093 -0.50391,0.51562 0,0.75 0.59766,1.24219 1.64062,1.24219 1.5,0 2.94141,-1.58203 2.94141,-4.18359 0,-3.21094 -1.33594,-4.00782 -2.39062,-4.00782 -1.3125,0 -2.47266,1.10157 -2.47266,2.67188 0,1.58203 1.11328,2.66015 2.30859,2.66015 0.87891,0 1.33594,-0.64453 1.57032,-1.2539 z m -1.52344,0.62109 c -0.75,0 -1.07813,-0.60937 -1.1836,-0.83203 -0.19921,-0.45703 -0.19921,-1.03125 -0.19921,-1.57031 0,-0.66797 0,-1.24219 0.3164,-1.73438 0.21094,-0.3164 0.53906,-0.66797 1.1836,-0.66797 0.67968,0 1.03125,0.59766 1.14843,0.87891 0.23438,0.58594 0.23438,1.59375 0.23438,1.78125 0,0.99609 -0.44531,2.14453 -1.5,2.14453 z m 4.54101,-3.98437 c 0.50391,0.16406 0.92578,0.17578 1.05469,0.17578 1.35938,0 2.21484,-0.9961 2.21484,-1.16016 0,-0.0469 -0.0234,-0.10547 -0.0937,-0.10547 -0.0234,0 -0.0469,0 -0.15234,0.0469 -0.66797,0.28125 -1.24219,0.3164 -1.55859,0.3164 -0.78516,0 -1.34766,-0.23437 -1.58203,-0.32812 -0.082,-0.0352 -0.10547,-0.0352 -0.11719,-0.0352 -0.0937,0 -0.0937,0.0703 -0.0937,0.25781 v 3.55079 c 0,0.21093 0,0.29296 0.14062,0.29296 0.0586,0 0.0703,-0.0117 0.19922,-0.16406 0.32813,-0.49219 0.89063,-0.77344 1.48828,-0.77344 0.63282,0 0.94922,0.58594 1.04297,0.78516 0.19922,0.46875 0.21094,1.05469 0.21094,1.51172 0,0.45703 0,1.13672 -0.32813,1.67578 -0.26953,0.42188 -0.73828,0.72656 -1.2539,0.72656 -0.79688,0 -1.57031,-0.53906 -1.78125,-1.40625 0.0586,0.0234 0.1289,0.0352 0.1875,0.0352 0.19922,0 0.52734,-0.12891 0.52734,-0.52734 0,-0.33985 -0.23437,-0.52735 -0.52734,-0.52735 -0.21094,0 -0.52735,0.10547 -0.52735,0.57422 0,1.00781 0.8086,2.16797 2.14454,2.16797 1.34765,0 2.53125,-1.125 2.53125,-2.64844 0,-1.41797 -0.96094,-2.60156 -2.21485,-2.60156 -0.67969,0 -1.20703,0.29297 -1.51172,0.63281 z m 0,0"
         style="fill:#000000;fill-opacity:1;fill-rule:nonzero;stroke:none" />
      <path
         id="path3"
         d="m -72.015656,175.99878 c -0.375,0.0703 -0.515625,0.35156 -0.515625,0.58594 0,0.28125 0.222656,0.375 0.386719,0.375 0.363281,0 0.609375,-0.30469 0.609375,-0.63281 0,-0.49219 -0.574219,-0.72657 -1.078125,-0.72657 -0.726563,0 -1.125,0.71485 -1.242188,0.94922 -0.269531,-0.90234 -1.007812,-0.94922 -1.230469,-0.94922 -1.21875,0 -1.863281,1.57032 -1.863281,1.82813 0,0.0469 0.04687,0.10547 0.128906,0.10547 0.105469,0 0.128907,-0.0703 0.152344,-0.11719 0.398438,-1.32422 1.207031,-1.57031 1.546875,-1.57031 0.539063,0 0.644531,0.49219 0.644531,0.78515 0,0.25782 -0.07031,0.53907 -0.210937,1.11329 -0.1875,0.76171 -0.234375,0.9375 -0.410156,1.6289 -0.175782,0.72656 -0.527344,1.38281 -1.160157,1.38281 -0.05859,0 -0.351562,0 -0.609375,-0.15234 0.433594,-0.0937 0.527344,-0.44531 0.527344,-0.58594 0,-0.24609 -0.175781,-0.38672 -0.398437,-0.38672 -0.292969,0 -0.597657,0.2461 -0.597657,0.63282 0,0.5039 0.5625,0.72656 1.066407,0.72656 0.574218,0 0.984375,-0.45703 1.230468,-0.9375 0.199219,0.70312 0.796875,0.9375 1.230469,0.9375 1.230469,0 1.875,-1.55859 1.875,-1.82813 0,-0.0586 -0.04687,-0.10546 -0.128906,-0.10546 -0.105469,0 -0.117188,0.0586 -0.152344,0.15234 -0.316406,1.05469 -1.019531,1.54687 -1.546875,1.54687 -0.421875,0 -0.65625,-0.3164 -0.65625,-0.80859 0,-0.25781 0.05859,-0.44531 0.246094,-1.24219 0.140625,-0.55078 0.292969,-1.18359 0.421875,-1.61718 0.175781,-0.72657 0.585937,-1.24219 1.125,-1.24219 0.03516,0 0.363281,0 0.609375,0.15234 z m 0,0"
         style="fill:#000000;fill-opacity:1;fill-rule:nonzero;stroke:none" />
      <path
         id="path4"
         d="m -63.598664,178.10816 h 3.304687 c 0.164063,0 0.375,0 0.375,-0.21094 0,-0.22266 -0.199218,-0.22266 -0.375,-0.22266 h -3.304687 v -3.30468 c 0,-0.16407 0,-0.38672 -0.210938,-0.38672 -0.234375,0 -0.234375,0.21093 -0.234375,0.38672 v 3.30468 h -3.292968 c -0.175782,0 -0.386719,0 -0.386719,0.21094 0,0.22266 0.199219,0.22266 0.386719,0.22266 h 3.292968 v 3.30468 c 0,0.16407 0,0.38672 0.222657,0.38672 0.222656,0 0.222656,-0.21093 0.222656,-0.38672 z m 0,0"
         style="fill:#000000;fill-opacity:1;fill-rule:nonzero;stroke:none" />
      <path
         id="path5"
         d="m -53.464875,182.20972 c -0.316406,0.45703 -0.785156,0.86719 -1.371094,0.86719 -0.140625,0 -0.714843,-0.0234 -0.902343,-0.57422 0.04687,0.0117 0.105468,0.0117 0.128906,0.0117 0.351562,0 0.597656,-0.31641 0.597656,-0.58594 0,-0.28125 -0.234375,-0.375 -0.410156,-0.375 -0.1875,0 -0.609375,0.14062 -0.609375,0.72656 0,0.60938 0.515625,1.03125 1.195312,1.03125 1.195313,0 2.402344,-1.10156 2.742188,-2.42578 l 1.171875,-4.66406 c 0.01172,-0.0586 0.03516,-0.12891 0.03516,-0.19922 0,-0.17578 -0.152344,-0.30469 -0.328125,-0.30469 -0.105469,0 -0.363281,0.0469 -0.457031,0.41016 l -0.878906,3.51562 c -0.05859,0.21094 -0.05859,0.23438 -0.152344,0.375 -0.246094,0.32813 -0.644531,0.73828 -1.207031,0.73828 -0.679688,0 -0.738282,-0.65625 -0.738282,-0.98437 0,-0.67969 0.328125,-1.60547 0.644532,-2.46094 0.140625,-0.35156 0.210937,-0.51562 0.210937,-0.75 0,-0.5039 -0.363281,-0.96094 -0.949219,-0.96094 -1.101562,0 -1.535156,1.73438 -1.535156,1.82813 0,0.0469 0.04687,0.10547 0.128906,0.10547 0.105469,0 0.117188,-0.0469 0.164063,-0.21094 0.292969,-1.00781 0.738281,-1.47656 1.207031,-1.47656 0.105469,0 0.316406,0 0.316406,0.38672 0,0.3164 -0.140625,0.65625 -0.316406,1.11328 -0.585937,1.57031 -0.585937,1.95703 -0.585937,2.25 0,1.13672 0.808593,1.39453 1.40625,1.39453 0.351562,0 0.785156,-0.10547 1.195312,-0.55078 l 0.01172,0.0117 c -0.175781,0.70312 -0.292969,1.17187 -0.714844,1.75781 z m 0,0"
         style="fill:#000000;fill-opacity:1;fill-rule:nonzero;stroke:none" />
      <path
         id="path6"
         d="m -43.043977,178.10816 h 3.304688 c 0.164062,0 0.375,0 0.375,-0.21094 0,-0.22266 -0.199219,-0.22266 -0.375,-0.22266 h -3.304688 v -3.30468 c 0,-0.16407 0,-0.38672 -0.210937,-0.38672 -0.234375,0 -0.234375,0.21093 -0.234375,0.38672 v 3.30468 h -3.292969 c -0.175781,0 -0.386719,0 -0.386719,0.21094 0,0.22266 0.199219,0.22266 0.386719,0.22266 h 3.292969 v 3.30468 c 0,0.16407 0,0.38672 0.222656,0.38672 0.222656,0 0.222656,-0.21093 0.222656,-0.38672 z m 0,0"
         style="fill:#000000;fill-opacity:1;fill-rule:nonzero;stroke:none" />
      <path
         id="path7"
         d="m -34.527375,179.90113 c 0.503906,-0.58594 0.925781,-0.94922 1.523438,-1.48829 0.714843,-0.62109 1.03125,-0.92578 1.195312,-1.10156 0.84375,-0.82031 1.253906,-1.52344 1.253906,-1.61719 0,-0.0937 -0.09375,-0.0937 -0.117187,-0.0937 -0.08203,0 -0.105469,0.0469 -0.164063,0.12891 -0.304687,0.51563 -0.585937,0.77344 -0.902343,0.77344 -0.246094,0 -0.375,-0.11719 -0.609375,-0.39844 -0.246094,-0.29297 -0.457032,-0.50391 -0.796875,-0.50391 -0.878907,0 -1.394532,1.08985 -1.394532,1.33594 0,0.0352 0.01172,0.11719 0.117188,0.11719 0.09375,0 0.105469,-0.0469 0.140625,-0.14063 0.199219,-0.46875 0.773437,-0.5625 1.007812,-0.5625 0.246094,0 0.480469,0.0937 0.738282,0.19922 0.457031,0.1875 0.644531,0.1875 0.761718,0.1875 0.08203,0 0.128907,0 0.1875,-0.0117 -0.386718,0.46875 -1.03125,1.04297 -1.570312,1.53516 -0.761719,0.66797 -0.972656,0.87891 -1.207031,1.10156 -0.726563,0.75 -1.171875,1.45313 -1.171875,1.53516 0,0.0703 0.05859,0.0937 0.128906,0.0937 0.07031,0 0.08203,-0.0117 0.164062,-0.15234 0.199219,-0.30469 0.574219,-0.73829 1.019532,-0.73829 0.246093,0 0.375,0.082 0.609375,0.375 0.222656,0.26954 0.433593,0.51563 0.808593,0.51563 1.171875,0 1.851563,-1.51172 1.851563,-1.79297 0,-0.0469 -0.01172,-0.11719 -0.140625,-0.11719 -0.09375,0 -0.105469,0.0469 -0.140625,0.16407 -0.257813,0.70312 -0.972656,0.99609 -1.429688,0.99609 -0.257812,0 -0.492187,-0.082 -0.75,-0.1875 -0.46875,-0.19922 -0.609375,-0.19922 -0.761718,-0.19922 -0.117188,0 -0.246094,0 -0.351563,0.0469 z m 0,0"
         style="fill:#000000;fill-opacity:1;fill-rule:nonzero;stroke:none" />
      <path
         id="path8"
         d="m -18.686555,177.00659 c 0.164063,0 0.375,0 0.375,-0.22265 0,-0.22266 -0.199218,-0.22266 -0.375,-0.22266 h -7.042968 c -0.175782,0 -0.386719,0 -0.386719,0.21094 0,0.23437 0.199219,0.23437 0.386719,0.23437 z m 0,2.21485 c 0.164063,0 0.375,0 0.375,-0.21094 0,-0.23437 -0.199218,-0.23437 -0.375,-0.23437 h -7.042968 c -0.175782,0 -0.386719,0 -0.386719,0.22265 0,0.22266 0.199219,0.22266 0.386719,0.22266 z m 9.7119144,-2.16797 c 0,-0.99609 -0.058594,-1.96875 -0.4921875,-2.87109 -0.4921875,-0.9961 -1.3476559,-1.25391 -1.9335939,-1.25391 -0.691406,0 -1.546875,0.33984 -1.980469,1.33594 -0.339843,0.75 -0.457031,1.48828 -0.457031,2.78906 0,1.16016 0.08203,2.02734 0.515625,2.87109 0.457031,0.91407 1.289063,1.19532 1.910156,1.19532 1.042969,0 1.6406254,-0.6211 1.9804691,-1.3125 0.4335938,-0.89063 0.4570313,-2.0625 0.4570313,-2.75391 z m -2.4375004,3.83203 c -0.386718,0 -1.160156,-0.21094 -1.382812,-1.52344 -0.140625,-0.71484 -0.140625,-1.61718 -0.140625,-2.46093 0,-0.97266 0,-1.86329 0.199219,-2.56641 0.199218,-0.79688 0.808593,-1.17188 1.324218,-1.17188 0.457032,0 1.148438,0.28125 1.371094,1.30079 0.1523439,0.67968 0.1523439,1.6289 0.1523439,2.4375 0,0.80859 0,1.71093 -0.1289059,2.4375 -0.222657,1.32421 -0.972657,1.54687 -1.394532,1.54687 z m 0,0"
         style="fill:#000000;fill-opacity:1;fill-rule:nonzero;stroke:none" />
      <path
         id="path9"
         d="m 26.436492,175.99878 c -0.375,0.0703 -0.515625,0.35156 -0.515625,0.58594 0,0.28125 0.222656,0.375 0.386719,0.375 0.363281,0 0.609375,-0.30469 0.609375,-0.63281 0,-0.49219 -0.574219,-0.72657 -1.078125,-0.72657 -0.726563,0 -1.125,0.71485 -1.242188,0.94922 -0.269531,-0.90234 -1.007812,-0.94922 -1.230468,-0.94922 -1.21875,0 -1.863282,1.57032 -1.863282,1.82813 0,0.0469 0.04687,0.10547 0.128907,0.10547 0.105468,0 0.128906,-0.0703 0.152343,-0.11719 0.398438,-1.32422 1.207032,-1.57031 1.546875,-1.57031 0.539063,0 0.644532,0.49219 0.644532,0.78515 0,0.25782 -0.07031,0.53907 -0.210938,1.11329 -0.1875,0.76171 -0.234375,0.9375 -0.410156,1.6289 -0.175781,0.72656 -0.527344,1.38281 -1.160156,1.38281 -0.05859,0 -0.351563,0 -0.609375,-0.15234 0.433593,-0.0937 0.527343,-0.44531 0.527343,-0.58594 0,-0.24609 -0.175781,-0.38672 -0.398437,-0.38672 -0.292969,0 -0.597656,0.2461 -0.597656,0.63282 0,0.5039 0.5625,0.72656 1.066406,0.72656 0.574219,0 0.984375,-0.45703 1.230469,-0.9375 0.199218,0.70312 0.796875,0.9375 1.230468,0.9375 1.230469,0 1.875,-1.55859 1.875,-1.82813 0,-0.0586 -0.04687,-0.10546 -0.128906,-0.10546 -0.105469,0 -0.117187,0.0586 -0.152344,0.15234 -0.316406,1.05469 -1.019531,1.54687 -1.546875,1.54687 -0.421875,0 -0.65625,-0.3164 -0.65625,-0.80859 0,-0.25781 0.05859,-0.44531 0.246094,-1.24219 0.140625,-0.55078 0.292969,-1.18359 0.421875,-1.61718 0.175781,-0.72657 0.585938,-1.24219 1.125,-1.24219 0.03516,0 0.363281,0 0.609375,0.15234 z m 4.133789,6.21094 c -0.316406,0.45703 -0.785156,0.86719 -1.371093,0.86719 -0.140625,0 -0.714844,-0.0234 -0.902344,-0.57422 0.04687,0.0117 0.105469,0.0117 0.128906,0.0117 0.351563,0 0.597656,-0.31641 0.597656,-0.58594 0,-0.28125 -0.234375,-0.375 -0.410156,-0.375 -0.1875,0 -0.609375,0.14062 -0.609375,0.72656 0,0.60938 0.515625,1.03125 1.195313,1.03125 1.195312,0 2.402343,-1.10156 2.742187,-2.42578 l 1.171875,-4.66406 c 0.01172,-0.0586 0.03516,-0.12891 0.03516,-0.19922 0,-0.17578 -0.152343,-0.30469 -0.328125,-0.30469 -0.105468,0 -0.363281,0.0469 -0.457031,0.41016 l -0.878906,3.51562 c -0.05859,0.21094 -0.05859,0.23438 -0.152344,0.375 -0.246094,0.32813 -0.644531,0.73828 -1.207031,0.73828 -0.679688,0 -0.738281,-0.65625 -0.738281,-0.98437 0,-0.67969 0.328125,-1.60547 0.644531,-2.46094 0.140625,-0.35156 0.210937,-0.51562 0.210937,-0.75 0,-0.5039 -0.363281,-0.96094 -0.949218,-0.96094 -1.101563,0 -1.535157,1.73438 -1.535157,1.82813 0,0.0469 0.04687,0.10547 0.128907,0.10547 0.105468,0 0.117187,-0.0469 0.164062,-0.21094 0.292969,-1.00781 0.738281,-1.47656 1.207031,-1.47656 0.105469,0 0.316407,0 0.316407,0.38672 0,0.3164 -0.140625,0.65625 -0.316407,1.11328 -0.585937,1.57031 -0.585937,1.95703 -0.585937,2.25 0,1.13672 0.808594,1.39453 1.40625,1.39453 0.351562,0 0.785156,-0.10547 1.195312,-0.55078 l 0.01172,0.0117 c -0.175781,0.70312 -0.292969,1.17187 -0.714844,1.75781 z m 4.520508,-2.30859 c 0.503906,-0.58594 0.925781,-0.94922 1.523438,-1.48829 0.714843,-0.62109 1.03125,-0.92578 1.195312,-1.10156 0.84375,-0.82031 1.253906,-1.52344 1.253906,-1.61719 0,-0.0937 -0.09375,-0.0937 -0.117187,-0.0937 -0.08203,0 -0.105469,0.0469 -0.164063,0.12891 -0.304687,0.51563 -0.585937,0.77344 -0.902343,0.77344 -0.246094,0 -0.375,-0.11719 -0.609375,-0.39844 -0.246094,-0.29297 -0.457032,-0.50391 -0.796875,-0.50391 -0.878907,0 -1.394532,1.08985 -1.394532,1.33594 0,0.0352 0.01172,0.11719 0.117188,0.11719 0.09375,0 0.105469,-0.0469 0.140625,-0.14063 0.199219,-0.46875 0.773437,-0.5625 1.007812,-0.5625 0.246094,0 0.480469,0.0937 0.738282,0.19922 0.457031,0.1875 0.644531,0.1875 0.761718,0.1875 0.08203,0 0.128907,0 0.1875,-0.0117 -0.386718,0.46875 -1.03125,1.04297 -1.570312,1.53516 -0.761719,0.66797 -0.972656,0.87891 -1.207031,1.10156 -0.726563,0.75 -1.171875,1.45313 -1.171875,1.53516 0,0.0703 0.05859,0.0937 0.128906,0.0937 0.07031,0 0.08203,-0.0117 0.164062,-0.15234 0.199219,-0.30469 0.574219,-0.73829 1.019532,-0.73829 0.246093,0 0.375,0.082 0.609375,0.375 0.222656,0.26954 0.433593,0.51563 0.808593,0.51563 1.171875,0 1.851563,-1.51172 1.851563,-1.79297 0,-0.0469 -0.01172,-0.11719 -0.140625,-0.11719 -0.09375,0 -0.105469,0.0469 -0.140625,0.16407 -0.257813,0.70312 -0.972656,0.99609 -1.429688,0.99609 -0.257812,0 -0.492187,-0.082 -0.75,-0.1875 -0.46875,-0.19922 -0.609375,-0.19922 -0.761718,-0.19922 -0.117188,0 -0.246094,0 -0.351563,0.0469 z m 0,0"
         style="fill:#000000;fill-opacity:1;fill-rule:nonzero;stroke:none" />
      <path
         id="path10"
         d="m 50.931609,177.00659 c 0.164063,0 0.375,0 0.375,-0.22265 0,-0.22266 -0.199218,-0.22266 -0.375,-0.22266 h -7.042968 c -0.175782,0 -0.386719,0 -0.386719,0.21094 0,0.23437 0.199219,0.23437 0.386719,0.23437 z m 0,2.21485 c 0.164063,0 0.375,0 0.375,-0.21094 0,-0.23437 -0.199218,-0.23437 -0.375,-0.23437 h -7.042968 c -0.175782,0 -0.386719,0 -0.386719,0.22265 0,0.22266 0.199219,0.22266 0.386719,0.22266 z m 10.03711,-5.76563 v -0.28125 h -2.882813 c -1.453125,0 -1.476562,-0.15234 -1.523437,-0.38672 h -0.257813 l -0.375,2.39063 h 0.269532 c 0.03516,-0.21094 0.140625,-0.94922 0.292968,-1.07813 0.09375,-0.0703 0.996094,-0.0703 1.160157,-0.0703 h 2.53125 l -1.265625,1.81641 c -0.316407,0.45703 -1.523438,2.42578 -1.523438,4.66406 0,0.14063 0,0.60938 0.480469,0.60938 0.503906,0 0.503906,-0.45704 0.503906,-0.6211 v -0.59765 c 0,-1.78125 0.292969,-3.16407 0.855469,-3.96094 z m 3.732422,3.10547 c 0.597656,-0.32812 1.464843,-0.8789 1.464843,-1.875 0,-1.04297 -0.996093,-1.75781 -2.097656,-1.75781 -1.183594,0 -2.121094,0.86719 -2.121094,1.95703 0,0.41016 0.128907,0.80859 0.457032,1.21875 0.128906,0.15234 0.140625,0.16406 0.984375,0.75 -1.160157,0.53906 -1.757813,1.34766 -1.757813,2.21484 0,1.26563 1.207031,2.05079 2.425781,2.05079 1.324219,0 2.4375,-0.97266 2.4375,-2.22657 0,-1.21875 -0.855468,-1.75781 -1.792968,-2.33203 z m -1.628907,-1.07812 c -0.152343,-0.10547 -0.632812,-0.42188 -0.632812,-1.00782 0,-0.77343 0.820312,-1.26562 1.617187,-1.26562 0.855469,0 1.628907,0.62109 1.628907,1.48828 0,0.72656 -0.527344,1.3125 -1.21875,1.6875 z m 0.5625,1.54687 c 0.328125,0.21094 1.125,0.72656 1.453125,0.9375 0.304688,0.19922 0.855469,0.57422 0.855469,1.30078 0,0.91407 -0.914062,1.53516 -1.875,1.53516 -1.019531,0 -1.886719,-0.73828 -1.886719,-1.73438 0,-0.9375 0.679688,-1.6875 1.453125,-2.03906 z m 0,0"
         style="fill:#000000;fill-opacity:1;fill-rule:nonzero;stroke:none" />
      <path
         id="path11"
         d="m 114.44138,183.78003 c 0,-0.0352 0,-0.0586 -0.21094,-0.26953 -1.19531,-1.20703 -1.86328,-3.17578 -1.86328,-5.61328 0,-2.32031 0.5625,-4.3125 1.94531,-5.73047 0.12891,-0.10547 0.12891,-0.12891 0.12891,-0.16406 0,-0.0703 -0.0703,-0.0937 -0.11719,-0.0937 -0.15235,0 -1.13672,0.85547 -1.72266,2.02734 -0.60937,1.20703 -0.8789,2.4961 -0.8789,3.96094 0,1.06641 0.16406,2.48437 0.78515,3.76172 0.70313,1.4414 1.6875,2.21484 1.81641,2.21484 0.0469,0 0.11719,-0.0234 0.11719,-0.0937 z m 0,0"
         style="fill:#000000;fill-opacity:1;fill-rule:nonzero;stroke:none" />
      <path
         id="path12"
         d="m 120.76364,175.99878 c -0.375,0.0703 -0.51562,0.35156 -0.51562,0.58594 0,0.28125 0.22265,0.375 0.38671,0.375 0.36329,0 0.60938,-0.30469 0.60938,-0.63281 0,-0.49219 -0.57422,-0.72657 -1.07813,-0.72657 -0.72656,0 -1.125,0.71485 -1.24218,0.94922 -0.26953,-0.90234 -1.00782,-0.94922 -1.23047,-0.94922 -1.21875,0 -1.86328,1.57032 -1.86328,1.82813 0,0.0469 0.0469,0.10547 0.1289,0.10547 0.10547,0 0.12891,-0.0703 0.15235,-0.11719 0.39843,-1.32422 1.20703,-1.57031 1.54687,-1.57031 0.53906,0 0.64453,0.49219 0.64453,0.78515 0,0.25782 -0.0703,0.53907 -0.21093,1.11329 -0.1875,0.76171 -0.23438,0.9375 -0.41016,1.6289 -0.17578,0.72656 -0.52734,1.38281 -1.16016,1.38281 -0.0586,0 -0.35156,0 -0.60937,-0.15234 0.43359,-0.0937 0.52734,-0.44531 0.52734,-0.58594 0,-0.24609 -0.17578,-0.38672 -0.39844,-0.38672 -0.29296,0 -0.59765,0.2461 -0.59765,0.63282 0,0.5039 0.5625,0.72656 1.0664,0.72656 0.57422,0 0.98438,-0.45703 1.23047,-0.9375 0.19922,0.70312 0.79688,0.9375 1.23047,0.9375 1.23047,0 1.875,-1.55859 1.875,-1.82813 0,-0.0586 -0.0469,-0.10546 -0.1289,-0.10546 -0.10547,0 -0.11719,0.0586 -0.15235,0.15234 -0.3164,1.05469 -1.01953,1.54687 -1.54687,1.54687 -0.42188,0 -0.65625,-0.3164 -0.65625,-0.80859 0,-0.25781 0.0586,-0.44531 0.24609,-1.24219 0.14063,-0.55078 0.29297,-1.18359 0.42188,-1.61718 0.17578,-0.72657 0.58593,-1.24219 1.125,-1.24219 0.0352,0 0.36328,0 0.60937,0.15234 z m 0,0"
         style="fill:#000000;fill-opacity:1;fill-rule:nonzero;stroke:none" />
      <path
         id="path13"
         d="m 129.18063,178.10816 h 3.30469 c 0.16406,0 0.375,0 0.375,-0.21094 0,-0.22266 -0.19922,-0.22266 -0.375,-0.22266 h -3.30469 v -3.30468 c 0,-0.16407 0,-0.38672 -0.21093,-0.38672 -0.23438,0 -0.23438,0.21093 -0.23438,0.38672 v 3.30468 h -3.29297 c -0.17578,0 -0.38672,0 -0.38672,0.21094 0,0.22266 0.19922,0.22266 0.38672,0.22266 h 3.29297 v 3.30468 c 0,0.16407 0,0.38672 0.22266,0.38672 0.22265,0 0.22265,-0.21093 0.22265,-0.38672 z m 0,0"
         style="fill:#000000;fill-opacity:1;fill-rule:nonzero;stroke:none" />
      <path
         id="path14"
         d="m 139.31442,182.20972 c -0.3164,0.45703 -0.78515,0.86719 -1.37109,0.86719 -0.14063,0 -0.71485,-0.0234 -0.90235,-0.57422 0.0469,0.0117 0.10547,0.0117 0.12891,0.0117 0.35156,0 0.59766,-0.31641 0.59766,-0.58594 0,-0.28125 -0.23438,-0.375 -0.41016,-0.375 -0.1875,0 -0.60937,0.14062 -0.60937,0.72656 0,0.60938 0.51562,1.03125 1.19531,1.03125 1.19531,0 2.40234,-1.10156 2.74219,-2.42578 l 1.17187,-4.66406 c 0.0117,-0.0586 0.0352,-0.12891 0.0352,-0.19922 0,-0.17578 -0.15235,-0.30469 -0.32813,-0.30469 -0.10547,0 -0.36328,0.0469 -0.45703,0.41016 l -0.87891,3.51562 c -0.0586,0.21094 -0.0586,0.23438 -0.15234,0.375 -0.24609,0.32813 -0.64453,0.73828 -1.20703,0.73828 -0.67969,0 -0.73828,-0.65625 -0.73828,-0.98437 0,-0.67969 0.32812,-1.60547 0.64453,-2.46094 0.14062,-0.35156 0.21094,-0.51562 0.21094,-0.75 0,-0.5039 -0.36328,-0.96094 -0.94922,-0.96094 -1.10156,0 -1.53516,1.73438 -1.53516,1.82813 0,0.0469 0.0469,0.10547 0.12891,0.10547 0.10547,0 0.11719,-0.0469 0.16406,-0.21094 0.29297,-1.00781 0.73828,-1.47656 1.20703,-1.47656 0.10547,0 0.31641,0 0.31641,0.38672 0,0.3164 -0.14063,0.65625 -0.31641,1.11328 -0.58594,1.57031 -0.58594,1.95703 -0.58594,2.25 0,1.13672 0.8086,1.39453 1.40625,1.39453 0.35157,0 0.78516,-0.10547 1.19532,-0.55078 l 0.0117,0.0117 c -0.17579,0.70312 -0.29297,1.17187 -0.71485,1.75781 z m 0,0"
         style="fill:#000000;fill-opacity:1;fill-rule:nonzero;stroke:none" />
      <path
         id="path15"
         d="m 145.68356,177.89722 c 0,-0.91406 -0.1289,-2.39063 -0.79687,-3.77344 -0.70313,-1.4414 -1.67578,-2.21484 -1.81641,-2.21484 -0.0469,0 -0.10547,0.0234 -0.10547,0.0937 0,0.0351 0,0.0586 0.19922,0.26953 1.19531,1.20703 1.875,3.17578 1.875,5.61328 0,2.32031 -0.5625,4.3125 -1.95703,5.73047 -0.11719,0.10547 -0.11719,0.12891 -0.11719,0.16406 0,0.0703 0.0586,0.0937 0.10547,0.0937 0.16406,0 1.13672,-0.85547 1.72266,-2.02734 0.60937,-1.21875 0.89062,-2.51953 0.89062,-3.94922 z m 5.06836,5.88281 c 0,-0.0352 0,-0.0586 -0.21094,-0.26953 -1.19531,-1.20703 -1.86328,-3.17578 -1.86328,-5.61328 0,-2.32031 0.5625,-4.3125 1.94532,-5.73047 0.1289,-0.10547 0.1289,-0.12891 0.1289,-0.16406 0,-0.0703 -0.0703,-0.0937 -0.11719,-0.0937 -0.15234,0 -1.13671,0.85547 -1.72265,2.02734 -0.60938,1.20703 -0.87891,2.4961 -0.87891,3.96094 0,1.06641 0.16406,2.48437 0.78516,3.76172 0.70312,1.4414 1.6875,2.21484 1.8164,2.21484 0.0469,0 0.11719,-0.0234 0.11719,-0.0937 z m 0,0"
         style="fill:#000000;fill-opacity:1;fill-rule:nonzero;stroke:none" />
      <path
         id="path16"
         d="m 154.55466,182.20972 c -0.31641,0.45703 -0.78516,0.86719 -1.3711,0.86719 -0.14062,0 -0.71484,-0.0234 -0.90234,-0.57422 0.0469,0.0117 0.10547,0.0117 0.12891,0.0117 0.35156,0 0.59765,-0.31641 0.59765,-0.58594 0,-0.28125 -0.23437,-0.375 -0.41015,-0.375 -0.1875,0 -0.60938,0.14062 -0.60938,0.72656 0,0.60938 0.51563,1.03125 1.19531,1.03125 1.19532,0 2.40235,-1.10156 2.74219,-2.42578 l 1.17188,-4.66406 c 0.0117,-0.0586 0.0351,-0.12891 0.0351,-0.19922 0,-0.17578 -0.15234,-0.30469 -0.32812,-0.30469 -0.10547,0 -0.36328,0.0469 -0.45703,0.41016 l -0.87891,3.51562 c -0.0586,0.21094 -0.0586,0.23438 -0.15234,0.375 -0.2461,0.32813 -0.64454,0.73828 -1.20704,0.73828 -0.67968,0 -0.73828,-0.65625 -0.73828,-0.98437 0,-0.67969 0.32813,-1.60547 0.64453,-2.46094 0.14063,-0.35156 0.21094,-0.51562 0.21094,-0.75 0,-0.5039 -0.36328,-0.96094 -0.94922,-0.96094 -1.10156,0 -1.53515,1.73438 -1.53515,1.82813 0,0.0469 0.0469,0.10547 0.1289,0.10547 0.10547,0 0.11719,-0.0469 0.16407,-0.21094 0.29296,-1.00781 0.73828,-1.47656 1.20703,-1.47656 0.10547,0 0.3164,0 0.3164,0.38672 0,0.3164 -0.14062,0.65625 -0.3164,1.11328 -0.58594,1.57031 -0.58594,1.95703 -0.58594,2.25 0,1.13672 0.80859,1.39453 1.40625,1.39453 0.35156,0 0.78516,-0.10547 1.19531,-0.55078 l 0.0117,0.0117 c -0.17578,0.70312 -0.29297,1.17187 -0.71484,1.75781 z m 0,0"
         style="fill:#000000;fill-opacity:1;fill-rule:nonzero;stroke:none" />
      <path
         id="path17"
         d="m 164.97555,178.10816 h 3.30469 c 0.16406,0 0.375,0 0.375,-0.21094 0,-0.22266 -0.19922,-0.22266 -0.375,-0.22266 h -3.30469 v -3.30468 c 0,-0.16407 0,-0.38672 -0.21093,-0.38672 -0.23438,0 -0.23438,0.21093 -0.23438,0.38672 v 3.30468 h -3.29297 c -0.17578,0 -0.38672,0 -0.38672,0.21094 0,0.22266 0.19922,0.22266 0.38672,0.22266 h 3.29297 v 3.30468 c 0,0.16407 0,0.38672 0.22266,0.38672 0.22265,0 0.22265,-0.21093 0.22265,-0.38672 z m 0,0"
         style="fill:#000000;fill-opacity:1;fill-rule:nonzero;stroke:none" />
      <path
         id="path18"
         d="m 173.49216,179.90113 c 0.5039,-0.58594 0.92578,-0.94922 1.52343,-1.48829 0.71485,-0.62109 1.03125,-0.92578 1.19532,-1.10156 0.84375,-0.82031 1.2539,-1.52344 1.2539,-1.61719 0,-0.0937 -0.0937,-0.0937 -0.11718,-0.0937 -0.082,0 -0.10547,0.0469 -0.16407,0.12891 -0.30468,0.51563 -0.58593,0.77344 -0.90234,0.77344 -0.24609,0 -0.375,-0.11719 -0.60938,-0.39844 -0.24609,-0.29297 -0.45703,-0.50391 -0.79687,-0.50391 -0.87891,0 -1.39453,1.08985 -1.39453,1.33594 0,0.0352 0.0117,0.11719 0.11719,0.11719 0.0937,0 0.10546,-0.0469 0.14062,-0.14063 0.19922,-0.46875 0.77344,-0.5625 1.00781,-0.5625 0.2461,0 0.48047,0.0937 0.73828,0.19922 0.45704,0.1875 0.64454,0.1875 0.76172,0.1875 0.082,0 0.12891,0 0.1875,-0.0117 -0.38672,0.46875 -1.03125,1.04297 -1.57031,1.53516 -0.76172,0.66797 -0.97266,0.87891 -1.20703,1.10156 -0.72656,0.75 -1.17188,1.45313 -1.17188,1.53516 0,0.0703 0.0586,0.0937 0.12891,0.0937 0.0703,0 0.082,-0.0117 0.16406,-0.15234 0.19922,-0.30469 0.57422,-0.73829 1.01953,-0.73829 0.2461,0 0.375,0.082 0.60938,0.375 0.22266,0.26954 0.43359,0.51563 0.80859,0.51563 1.17188,0 1.85157,-1.51172 1.85157,-1.79297 0,-0.0469 -0.0117,-0.11719 -0.14063,-0.11719 -0.0937,0 -0.10547,0.0469 -0.14062,0.16407 -0.25782,0.70312 -0.97266,0.99609 -1.42969,0.99609 -0.25781,0 -0.49219,-0.082 -0.75,-0.1875 -0.46875,-0.19922 -0.60938,-0.19922 -0.76172,-0.19922 -0.11719,0 -0.24609,0 -0.35156,0.0469 z m 0,0"
         style="fill:#000000;fill-opacity:1;fill-rule:nonzero;stroke:none" />
      <path
         id="path19"
         d="m 181.31442,177.89722 c 0,-0.91406 -0.1289,-2.39063 -0.79687,-3.77344 -0.70313,-1.4414 -1.67578,-2.21484 -1.81641,-2.21484 -0.0469,0 -0.10547,0.0234 -0.10547,0.0937 0,0.0351 0,0.0586 0.19922,0.26953 1.19531,1.20703 1.875,3.17578 1.875,5.61328 0,2.32031 -0.5625,4.3125 -1.95703,5.73047 -0.11719,0.10547 -0.11719,0.12891 -0.11719,0.16406 0,0.0703 0.0586,0.0937 0.10547,0.0937 0.16406,0 1.13672,-0.85547 1.72266,-2.02734 0.60937,-1.21875 0.89062,-2.51953 0.89062,-3.94922 z m 5.06836,5.88281 c 0,-0.0352 0,-0.0586 -0.21094,-0.26953 -1.19531,-1.20703 -1.86328,-3.17578 -1.86328,-5.61328 0,-2.32031 0.5625,-4.3125 1.94532,-5.73047 0.1289,-0.10547 0.1289,-0.12891 0.1289,-0.16406 0,-0.0703 -0.0703,-0.0937 -0.11719,-0.0937 -0.15234,0 -1.13671,0.85547 -1.72265,2.02734 -0.60938,1.20703 -0.87891,2.4961 -0.87891,3.96094 0,1.06641 0.16406,2.48437 0.78516,3.76172 0.70312,1.4414 1.6875,2.21484 1.8164,2.21484 0.0469,0 0.11719,-0.0234 0.11719,-0.0937 z m 0,0"
         style="fill:#000000;fill-opacity:1;fill-rule:nonzero;stroke:none" />
      <path
         id="path20"
         d="m 192.70505,175.99878 c -0.375,0.0703 -0.51563,0.35156 -0.51563,0.58594 0,0.28125 0.22266,0.375 0.38672,0.375 0.36328,0 0.60938,-0.30469 0.60938,-0.63281 0,-0.49219 -0.57422,-0.72657 -1.07813,-0.72657 -0.72656,0 -1.125,0.71485 -1.24219,0.94922 -0.26953,-0.90234 -1.00781,-0.94922 -1.23047,-0.94922 -1.21875,0 -1.86328,1.57032 -1.86328,1.82813 0,0.0469 0.0469,0.10547 0.12891,0.10547 0.10547,0 0.12891,-0.0703 0.15234,-0.11719 0.39844,-1.32422 1.20703,-1.57031 1.54688,-1.57031 0.53906,0 0.64453,0.49219 0.64453,0.78515 0,0.25782 -0.0703,0.53907 -0.21094,1.11329 -0.1875,0.76171 -0.23437,0.9375 -0.41015,1.6289 -0.17579,0.72656 -0.52735,1.38281 -1.16016,1.38281 -0.0586,0 -0.35156,0 -0.60938,-0.15234 0.4336,-0.0937 0.52735,-0.44531 0.52735,-0.58594 0,-0.24609 -0.17578,-0.38672 -0.39844,-0.38672 -0.29297,0 -0.59766,0.2461 -0.59766,0.63282 0,0.5039 0.5625,0.72656 1.06641,0.72656 0.57422,0 0.98438,-0.45703 1.23047,-0.9375 0.19922,0.70312 0.79687,0.9375 1.23047,0.9375 1.23047,0 1.875,-1.55859 1.875,-1.82813 0,-0.0586 -0.0469,-0.10546 -0.12891,-0.10546 -0.10547,0 -0.11719,0.0586 -0.15234,0.15234 -0.31641,1.05469 -1.01953,1.54687 -1.54688,1.54687 -0.42187,0 -0.65625,-0.3164 -0.65625,-0.80859 0,-0.25781 0.0586,-0.44531 0.2461,-1.24219 0.14062,-0.55078 0.29297,-1.18359 0.42187,-1.61718 0.17578,-0.72657 0.58594,-1.24219 1.125,-1.24219 0.0352,0 0.36328,0 0.60938,0.15234 z m 0,0"
         style="fill:#000000;fill-opacity:1;fill-rule:nonzero;stroke:none" />
      <path
         id="path21"
         d="m 201.12204,178.10816 h 3.30469 c 0.16406,0 0.375,0 0.375,-0.21094 0,-0.22266 -0.19922,-0.22266 -0.375,-0.22266 h -3.30469 v -3.30468 c 0,-0.16407 0,-0.38672 -0.21094,-0.38672 -0.23437,0 -0.23437,0.21093 -0.23437,0.38672 v 3.30468 h -3.29297 c -0.17578,0 -0.38672,0 -0.38672,0.21094 0,0.22266 0.19922,0.22266 0.38672,0.22266 h 3.29297 v 3.30468 c 0,0.16407 0,0.38672 0.22265,0.38672 0.22266,0 0.22266,-0.21093 0.22266,-0.38672 z m 0,0"
         style="fill:#000000;fill-opacity:1;fill-rule:nonzero;stroke:none" />
      <path
         id="path22"
         d="m 209.63864,179.90113 c 0.50391,-0.58594 0.92578,-0.94922 1.52344,-1.48829 0.71484,-0.62109 1.03125,-0.92578 1.19531,-1.10156 0.84375,-0.82031 1.25391,-1.52344 1.25391,-1.61719 0,-0.0937 -0.0937,-0.0937 -0.11719,-0.0937 -0.082,0 -0.10547,0.0469 -0.16406,0.12891 -0.30469,0.51563 -0.58594,0.77344 -0.90235,0.77344 -0.24609,0 -0.375,-0.11719 -0.60937,-0.39844 -0.2461,-0.29297 -0.45703,-0.50391 -0.79688,-0.50391 -0.8789,0 -1.39453,1.08985 -1.39453,1.33594 0,0.0352 0.0117,0.11719 0.11719,0.11719 0.0937,0 0.10547,-0.0469 0.14062,-0.14063 0.19922,-0.46875 0.77344,-0.5625 1.00782,-0.5625 0.24609,0 0.48047,0.0937 0.73828,0.19922 0.45703,0.1875 0.64453,0.1875 0.76172,0.1875 0.082,0 0.1289,0 0.1875,-0.0117 -0.38672,0.46875 -1.03125,1.04297 -1.57032,1.53516 -0.76171,0.66797 -0.97265,0.87891 -1.20703,1.10156 -0.72656,0.75 -1.17187,1.45313 -1.17187,1.53516 0,0.0703 0.0586,0.0937 0.1289,0.0937 0.0703,0 0.082,-0.0117 0.16407,-0.15234 0.19922,-0.30469 0.57422,-0.73829 1.01953,-0.73829 0.24609,0 0.375,0.082 0.60937,0.375 0.22266,0.26954 0.4336,0.51563 0.8086,0.51563 1.17187,0 1.85156,-1.51172 1.85156,-1.79297 0,-0.0469 -0.0117,-0.11719 -0.14063,-0.11719 -0.0937,0 -0.10546,0.0469 -0.14062,0.16407 -0.25781,0.70312 -0.97266,0.99609 -1.42969,0.99609 -0.25781,0 -0.49219,-0.082 -0.75,-0.1875 -0.46875,-0.19922 -0.60937,-0.19922 -0.76172,-0.19922 -0.11718,0 -0.24609,0 -0.35156,0.0469 z m 0,0"
         style="fill:#000000;fill-opacity:1;fill-rule:nonzero;stroke:none" />
      <path
         id="path23"
         d="m 217.46091,177.89722 c 0,-0.91406 -0.12891,-2.39063 -0.79688,-3.77344 -0.70312,-1.4414 -1.67578,-2.21484 -1.8164,-2.21484 -0.0469,0 -0.10547,0.0234 -0.10547,0.0937 0,0.0351 0,0.0586 0.19922,0.26953 1.19531,1.20703 1.875,3.17578 1.875,5.61328 0,2.32031 -0.5625,4.3125 -1.95704,5.73047 -0.11718,0.10547 -0.11718,0.12891 -0.11718,0.16406 0,0.0703 0.0586,0.0937 0.10547,0.0937 0.16406,0 1.13671,-0.85547 1.72265,-2.02734 0.60938,-1.21875 0.89063,-2.51953 0.89063,-3.94922 z m 0,0"
         style="fill:#000000;fill-opacity:1;fill-rule:nonzero;stroke:none" />
      <path
         id="path24"
         d="m 36.130828,220.45972 c 0,2.82422 -1.253906,3.41016 -1.96875,3.41016 -0.28125,0 -0.925781,-0.0352 -1.21875,-0.45704 h 0.07031 c 0.08203,0.0234 0.515625,-0.0469 0.515625,-0.49218 0,-0.25782 -0.175782,-0.49219 -0.492188,-0.49219 -0.304687,0 -0.503906,0.21094 -0.503906,0.51562 0,0.75 0.597656,1.24219 1.640625,1.24219 1.5,0 2.941406,-1.58203 2.941406,-4.18359 0,-3.21094 -1.335937,-4.00781 -2.390625,-4.00781 -1.3125,0 -2.472656,1.10156 -2.472656,2.67187 0,1.58203 1.113281,2.66016 2.308594,2.66016 0.878906,0 1.335937,-0.64453 1.570312,-1.25391 z m -1.523437,0.62109 c -0.75,0 -1.078125,-0.60937 -1.183594,-0.83203 -0.199219,-0.45703 -0.199219,-1.03125 -0.199219,-1.57031 0,-0.66797 0,-1.24219 0.316406,-1.73438 0.210938,-0.3164 0.539063,-0.66796 1.183594,-0.66796 0.679688,0 1.03125,0.59765 1.148438,0.8789 0.234375,0.58594 0.234375,1.59375 0.234375,1.78125 0,0.9961 -0.445313,2.14453 -1.5,2.14453 z m 0,0"
         style="fill:#000000;fill-opacity:1;fill-rule:nonzero;stroke:none" />
      <path
         id="path25"
         d="m 46.440398,220.95191 2.378907,-2.39063 c 0.140625,-0.1289 0.164062,-0.15234 0.164062,-0.24609 0,-0.14063 -0.117187,-0.2461 -0.246094,-0.2461 -0.09375,0 -0.140625,0.0469 -0.246093,0.15235 l -2.390625,2.39062 -2.402344,-2.39062 c -0.128906,-0.12891 -0.152344,-0.15235 -0.257813,-0.15235 -0.117187,0 -0.234375,0.10547 -0.234375,0.2461 0,0.0937 0.04687,0.14062 0.152344,0.24609 l 2.378906,2.39063 -2.378906,2.3789 c -0.117187,0.11719 -0.152344,0.1875 -0.152344,0.25782 0,0.14062 0.117188,0.24609 0.234375,0.24609 0.105469,0 0.128907,-0.0234 0.257813,-0.15234 l 2.390625,-2.39063 2.390625,2.39063 c 0.117187,0.11718 0.1875,0.15234 0.257812,0.15234 0.140625,0 0.246094,-0.10547 0.246094,-0.24609 0,-0.0937 -0.02344,-0.11719 -0.164062,-0.2461 z m 0,0"
         style="fill:#000000;fill-opacity:1;fill-rule:nonzero;stroke:none" />
      <path
         id="path26"
         d="m 58.030242,216.27613 c 0,-0.26954 0,-0.28125 -0.246094,-0.28125 -0.28125,0.3164 -0.878906,0.76171 -2.109375,0.76171 v 0.35157 c 0.269532,0 0.867188,0 1.523438,-0.31641 v 6.22266 c 0,0.43359 -0.03516,0.57422 -1.078125,0.57422 h -0.375 v 0.35156 c 0.316406,-0.0234 1.476562,-0.0234 1.875,-0.0234 0.398437,0 1.546875,0 1.863281,0.0234 v -0.35156 h -0.363281 c -1.054688,0 -1.089844,-0.14063 -1.089844,-0.57422 z m 8.091797,0.24609 v -0.28125 h -2.882812 c -1.453125,0 -1.476563,-0.15234 -1.523438,-0.38672 h -0.257812 l -0.375,2.39063 h 0.269531 c 0.03516,-0.21094 0.140625,-0.94922 0.292969,-1.07813 0.09375,-0.0703 0.996093,-0.0703 1.160156,-0.0703 h 2.53125 l -1.265625,1.8164 c -0.316406,0.45704 -1.523438,2.42579 -1.523438,4.66407 0,0.14062 0,0.60937 0.480469,0.60937 0.503906,0 0.503906,-0.45703 0.503906,-0.62109 v -0.59766 c 0,-1.78125 0.292969,-3.16406 0.855469,-3.96094 z m 0,0"
         style="fill:#000000;fill-opacity:1;fill-rule:nonzero;stroke:none" />
      <path
         id="path27"
         d="m -19.644562,234.09448 c -0.210938,0.0117 -0.257813,0.0234 -0.257813,0.12891 0,0.11719 0.05859,0.11719 0.28125,0.11719 h 0.550781 c 1.007813,0 1.464844,0.84375 1.464844,1.99219 0,1.55859 -0.808594,1.98046 -1.394531,1.98046 -0.574219,0 -1.558594,-0.28125 -1.898438,-1.0664 0.375,0.0586 0.726563,-0.15235 0.726563,-0.58594 0,-0.33984 -0.257813,-0.58594 -0.585938,-0.58594 -0.292968,0 -0.597656,0.16407 -0.597656,0.6211 0,1.0664 1.066406,1.93359 2.390625,1.93359 1.417969,0 2.472656,-1.07812 2.472656,-2.28516 0,-1.10156 -0.890625,-1.96875 -2.027343,-2.16796 1.03125,-0.30469 1.699218,-1.17188 1.699218,-2.10938 0,-0.9375 -0.972656,-1.62891 -2.132812,-1.62891 -1.195313,0 -2.085938,0.72657 -2.085938,1.59375 0,0.48047 0.375,0.57422 0.550782,0.57422 0.257812,0 0.539062,-0.17578 0.539062,-0.53906 0,-0.375 -0.28125,-0.53906 -0.550781,-0.53906 -0.07031,0 -0.09375,0 -0.128906,0.0117 0.457031,-0.82032 1.582031,-0.82032 1.640625,-0.82032 0.386718,0 1.171875,0.17579 1.171875,1.34766 0,0.23438 -0.03516,0.90234 -0.386719,1.41797 -0.351563,0.52734 -0.761719,0.5625 -1.089844,0.57422 z m 0,0"
         style="fill:#000000;fill-opacity:1;fill-rule:nonzero;stroke:none" />
      <path
         id="path28"
         d="m -10.668,235.39527 2.3789063,-2.39063 c 0.140625,-0.12891 0.1640625,-0.15234 0.1640625,-0.24609 0,-0.14063 -0.1171875,-0.2461 -0.2460938,-0.2461 -0.09375,0 -0.140625,0.0469 -0.2460937,0.15235 l -2.3906253,2.39062 -2.402343,-2.39062 c -0.128907,-0.12891 -0.152344,-0.15235 -0.257813,-0.15235 -0.117187,0 -0.234375,0.10547 -0.234375,0.2461 0,0.0937 0.04687,0.14062 0.152344,0.24609 l 2.378906,2.39063 -2.378906,2.3789 c -0.117188,0.11719 -0.152344,0.1875 -0.152344,0.25781 0,0.14063 0.117188,0.2461 0.234375,0.2461 0.105469,0 0.128906,-0.0234 0.257813,-0.15235 l 2.390625,-2.39062 2.3906245,2.39062 c 0.1171875,0.11719 0.1875,0.15235 0.2578125,0.15235 0.140625,0 0.2460938,-0.10547 0.2460938,-0.2461 0,-0.0937 -0.023437,-0.11718 -0.1640625,-0.24609 z m 0,0"
         style="fill:#000000;fill-opacity:1;fill-rule:nonzero;stroke:none" />
      <path
         id="path29"
         d="m -2.5820625,230.71948 c 0,-0.26953 0,-0.28125 -0.2460937,-0.28125 -0.28125,0.31641 -0.8789063,0.76172 -2.109375,0.76172 v 0.35157 c 0.2695312,0 0.8671875,0 1.5234375,-0.31641 v 6.22266 c 0,0.43359 -0.035156,0.57421 -1.078125,0.57421 h -0.375 v 0.35157 c 0.3164062,-0.0234 1.4765625,-0.0234 1.875,-0.0234 0.3984375,0 1.546875,0 1.8632812,0.0234 v -0.35157 h -0.3632812 c -1.0546875,0 -1.0898438,-0.14062 -1.0898438,-0.57421 z m 0,0"
         style="fill:#000000;fill-opacity:1;fill-rule:nonzero;stroke:none" />
      <path
         id="path30"
         d="m -57.44925,291.60718 c -0.210937,0.0117 -0.257812,0.0234 -0.257812,0.12891 0,0.11718 0.05859,0.11718 0.28125,0.11718 h 0.550781 c 1.007812,0 1.464844,0.84375 1.464844,1.99219 0,1.55859 -0.808594,1.98047 -1.394532,1.98047 -0.574218,0 -1.558593,-0.28125 -1.898437,-1.06641 0.375,0.0586 0.726562,-0.15234 0.726562,-0.58593 0,-0.33985 -0.257812,-0.58594 -0.585937,-0.58594 -0.292969,0 -0.597656,0.16406 -0.597656,0.62109 0,1.06641 1.066406,1.9336 2.390625,1.9336 1.417968,0 2.472656,-1.07813 2.472656,-2.28516 0,-1.10156 -0.890625,-1.96875 -2.027344,-2.16797 1.03125,-0.30469 1.699219,-1.17187 1.699219,-2.10937 0,-0.9375 -0.972656,-1.62891 -2.132813,-1.62891 -1.195312,0 -2.085937,0.72656 -2.085937,1.59375 0,0.48047 0.375,0.57422 0.550781,0.57422 0.257813,0 0.539063,-0.17578 0.539063,-0.53906 0,-0.375 -0.28125,-0.53907 -0.550782,-0.53907 -0.07031,0 -0.09375,0 -0.128906,0.0117 0.457031,-0.82031 1.582031,-0.82031 1.640625,-0.82031 0.386719,0 1.171875,0.17578 1.171875,1.34766 0,0.23437 -0.03516,0.90234 -0.386719,1.41796 -0.351562,0.52735 -0.761718,0.5625 -1.089843,0.57422 z m 0,0"
         style="fill:#000000;fill-opacity:1;fill-rule:nonzero;stroke:none" />
      <path
         id="path31"
         d="m -52.205109,290.24488 c 0.02344,-0.11719 0.105468,-0.42188 0.128906,-0.53907 0.105469,-0.42187 0.105469,-0.43359 0.292969,-0.70312 0.257812,-0.38672 0.632812,-0.73828 1.171875,-0.73828 0.28125,0 0.457031,0.16406 0.457031,0.53906 0,0.44531 -0.339844,1.34766 -0.492188,1.74609 -0.105468,0.25782 -0.105468,0.30469 -0.105468,0.41016 0,0.45703 0.375,0.67969 0.726562,0.67969 0.773438,0 1.101563,-1.11328 1.101563,-1.21875 0,-0.082 -0.05859,-0.10547 -0.117188,-0.10547 -0.09375,0 -0.117187,0.0586 -0.140625,0.1289 -0.1875,0.65625 -0.515625,0.97266 -0.820312,0.97266 -0.128907,0 -0.199219,-0.082 -0.199219,-0.26953 0,-0.17578 0.07031,-0.35156 0.152344,-0.55078 0.117187,-0.30469 0.46875,-1.21875 0.46875,-1.66406 0,-0.59766 -0.421875,-0.89063 -0.996094,-0.89063 -0.644531,0 -1.054688,0.38672 -1.289063,0.69141 -0.05859,-0.4336 -0.398437,-0.69141 -0.808593,-0.69141 -0.292969,0 -0.492188,0.1875 -0.609375,0.43359 -0.199219,0.375 -0.28125,0.77344 -0.28125,0.78516 0,0.0703 0.05859,0.10547 0.128906,0.10547 0.09375,0 0.105469,-0.0352 0.164062,-0.23438 0.09375,-0.39843 0.234375,-0.86718 0.574219,-0.86718 0.210938,0 0.257813,0.19922 0.257813,0.375 0,0.14062 -0.04687,0.29297 -0.105469,0.5625 -0.02344,0.0586 -0.140625,0.52734 -0.175781,0.64453 -0.117188,0.52734 -0.175782,0.72656 -0.292969,1.19531 -0.02344,0.11719 -0.07031,0.31641 -0.07031,0.35156 0,0.17578 0.140625,0.2461 0.246094,0.2461 0.152344,0 0.269531,-0.0937 0.316406,-0.19922 0.03516,-0.0469 0.09375,-0.31641 0.128907,-0.48047 z m 0,0"
         style="fill:#000000;fill-opacity:1;fill-rule:nonzero;stroke:none" />
      <path
         id="path32"
         d="m -45.191437,289.75269 h 2.34375 c 0.117187,0 0.292968,0 0.292968,-0.1875 0,-0.1875 -0.175781,-0.1875 -0.292968,-0.1875 h -2.34375 v -2.34375 c 0,-0.11719 0,-0.29297 -0.175782,-0.29297 -0.1875,0 -0.1875,0.17578 -0.1875,0.29297 v 2.34375 h -2.34375 c -0.117187,0 -0.292968,0 -0.292968,0.1875 0,0.1875 0.175781,0.1875 0.292968,0.1875 h 2.34375 v 2.34375 c 0,0.11719 0,0.29297 0.1875,0.29297 0.175782,0 0.175782,-0.17578 0.175782,-0.29297 z m 5.132812,-0.85547 c 0.632813,0 1.03125,0.45703 1.03125,1.30078 0,0.99609 -0.574219,1.28906 -0.996094,1.28906 -0.433593,0 -1.03125,-0.16406 -1.3125,-0.58593 0.292969,0 0.492188,-0.17579 0.492188,-0.44532 0,-0.25781 -0.1875,-0.43359 -0.445313,-0.43359 -0.210937,0 -0.433593,0.12891 -0.433593,0.45703 0,0.75 0.808593,1.24219 1.722656,1.24219 1.054687,0 1.792969,-0.72656 1.792969,-1.52344 0,-0.66797 -0.515625,-1.26562 -1.335938,-1.44141 0.632813,-0.22265 1.101563,-0.77343 1.101563,-1.40625 0,-0.63281 -0.714844,-1.08984 -1.546875,-1.08984 -0.855469,0 -1.5,0.45703 -1.5,1.06641 0,0.29297 0.199218,0.42187 0.410156,0.42187 0.246094,0 0.410156,-0.17578 0.410156,-0.41015 0,-0.29297 -0.257812,-0.39844 -0.433594,-0.41016 0.339844,-0.43359 0.949219,-0.46875 1.089844,-0.46875 0.210938,0 0.808594,0.0703 0.808594,0.89062 0,0.5625 -0.222656,0.89063 -0.339844,1.01954 -0.234375,0.24609 -0.421875,0.25781 -0.902344,0.29296 -0.152343,0.0117 -0.222656,0.0234 -0.222656,0.11719 0,0.11719 0.07031,0.11719 0.210938,0.11719 z m 0,0"
         style="fill:#000000;fill-opacity:1;fill-rule:nonzero;stroke:none" />
      <path
         id="path33"
         d="m -29.88382,293.13062 h 3.304687 c 0.164063,0 0.375,0 0.375,-0.21094 0,-0.22266 -0.199219,-0.22266 -0.375,-0.22266 h -3.304687 v -3.30468 c 0,-0.16407 0,-0.38672 -0.210938,-0.38672 -0.234375,0 -0.234375,0.21093 -0.234375,0.38672 v 3.30468 h -3.292969 c -0.175781,0 -0.386718,0 -0.386718,0.21094 0,0.22266 0.199218,0.22266 0.386718,0.22266 h 3.292969 v 3.30468 c 0,0.16407 0,0.38672 0.222656,0.38672 0.222657,0 0.222657,-0.21093 0.222657,-0.38672 z m 9.228515,-1.52344 c -0.210937,0.0117 -0.257812,0.0234 -0.257812,0.12891 0,0.11718 0.05859,0.11718 0.28125,0.11718 h 0.550781 c 1.007813,0 1.464844,0.84375 1.464844,1.99219 0,1.55859 -0.808594,1.98047 -1.394531,1.98047 -0.574219,0 -1.558594,-0.28125 -1.898438,-1.06641 0.375,0.0586 0.726563,-0.15234 0.726563,-0.58593 0,-0.33985 -0.257813,-0.58594 -0.585938,-0.58594 -0.292969,0 -0.597656,0.16406 -0.597656,0.62109 0,1.06641 1.066406,1.9336 2.390625,1.9336 1.417969,0 2.472656,-1.07813 2.472656,-2.28516 0,-1.10156 -0.890625,-1.96875 -2.027344,-2.16797 1.03125,-0.30469 1.699219,-1.17187 1.699219,-2.10937 0,-0.9375 -0.972656,-1.62891 -2.132812,-1.62891 -1.195313,0 -2.085938,0.72656 -2.085938,1.59375 0,0.48047 0.375,0.57422 0.550781,0.57422 0.257813,0 0.539063,-0.17578 0.539063,-0.53906 0,-0.375 -0.28125,-0.53907 -0.550781,-0.53907 -0.07031,0 -0.09375,0 -0.128907,0.0117 0.457032,-0.82031 1.582032,-0.82031 1.640625,-0.82031 0.386719,0 1.171875,0.17578 1.171875,1.34766 0,0.23437 -0.03516,0.90234 -0.386718,1.41796 -0.351563,0.52735 -0.761719,0.5625 -1.089844,0.57422 z m 0,0"
         style="fill:#000000;fill-opacity:1;fill-rule:nonzero;stroke:none" />
      <path
         id="path34"
         d="m -15.411164,290.24488 c 0.02344,-0.11719 0.105469,-0.42188 0.128906,-0.53907 0.105469,-0.42187 0.105469,-0.43359 0.292969,-0.70312 0.257812,-0.38672 0.632812,-0.73828 1.171875,-0.73828 0.28125,0 0.457031,0.16406 0.457031,0.53906 0,0.44531 -0.339844,1.34766 -0.492187,1.74609 -0.105469,0.25782 -0.105469,0.30469 -0.105469,0.41016 0,0.45703 0.375,0.67969 0.726562,0.67969 0.773438,0 1.101563,-1.11328 1.101563,-1.21875 0,-0.082 -0.05859,-0.10547 -0.117188,-0.10547 -0.09375,0 -0.117187,0.0586 -0.140625,0.1289 -0.1875,0.65625 -0.515625,0.97266 -0.820312,0.97266 -0.128906,0 -0.199219,-0.082 -0.199219,-0.26953 0,-0.17578 0.07031,-0.35156 0.152344,-0.55078 0.117187,-0.30469 0.46875,-1.21875 0.46875,-1.66406 0,-0.59766 -0.421875,-0.89063 -0.996094,-0.89063 -0.644531,0 -1.054687,0.38672 -1.289062,0.69141 -0.05859,-0.4336 -0.398438,-0.69141 -0.808594,-0.69141 -0.292969,0 -0.492188,0.1875 -0.609375,0.43359 -0.199219,0.375 -0.28125,0.77344 -0.28125,0.78516 0,0.0703 0.05859,0.10547 0.128906,0.10547 0.09375,0 0.105469,-0.0352 0.164063,-0.23438 0.09375,-0.39843 0.234375,-0.86718 0.574218,-0.86718 0.210938,0 0.257813,0.19922 0.257813,0.375 0,0.14062 -0.04687,0.29297 -0.105469,0.5625 -0.02344,0.0586 -0.140625,0.52734 -0.175781,0.64453 -0.117188,0.52734 -0.175781,0.72656 -0.292969,1.19531 -0.02344,0.11719 -0.07031,0.31641 -0.07031,0.35156 0,0.17578 0.140625,0.2461 0.246093,0.2461 0.152344,0 0.269532,-0.0937 0.316407,-0.19922 0.03516,-0.0469 0.09375,-0.31641 0.128906,-0.48047 z m 0,0"
         style="fill:#000000;fill-opacity:1;fill-rule:nonzero;stroke:none" />
      <path
         id="path35"
         d="m -8.3974922,289.75269 h 2.34375 c 0.1171875,0 0.2929688,0 0.2929688,-0.1875 0,-0.1875 -0.1757813,-0.1875 -0.2929688,-0.1875 h -2.34375 v -2.34375 c 0,-0.11719 0,-0.29297 -0.1757812,-0.29297 -0.1875,0 -0.1875,0.17578 -0.1875,0.29297 v 2.34375 h -2.3437496 c -0.117188,0 -0.292969,0 -0.292969,0.1875 0,0.1875 0.175781,0.1875 0.292969,0.1875 h 2.3437496 v 2.34375 c 0,0.11719 0,0.29297 0.1875,0.29297 0.1757812,0 0.1757812,-0.17578 0.1757812,-0.29297 z m 6.2578125,-3.35156 c 0,-0.16407 0,-0.22266 -0.1640625,-0.22266 -0.1054687,0 -0.1171875,0.0117 -0.1992187,0.11719 l -2.5429688,3.6914 v 0.25782 h 2.25 v 0.66796 c 0,0.29297 -0.023437,0.38672 -0.6328125,0.38672 h -0.1875 v 0.25782 c 0.6796875,-0.0234 0.6914063,-0.0234 1.1484375,-0.0234 0.4570313,0 0.46875,0 1.1484375,0.0234 v -0.25782 h -0.1875 c -0.609375,0 -0.6328125,-0.0937 -0.6328125,-0.38672 v -0.66796 h 0.84375 v -0.25782 h -0.84375 z m -0.5976562,0.64453 v 2.9414 h -2.0273438 z m 0,0"
         style="fill:#000000;fill-opacity:1;fill-rule:nonzero;stroke:none" />
      <path
         id="path36"
         d="m 6.910125,293.13062 h 3.304688 c 0.164062,0 0.375,0 0.375,-0.21094 0,-0.22266 -0.199219,-0.22266 -0.375,-0.22266 H 6.910125 v -3.30468 c 0,-0.16407 0,-0.38672 -0.2109375,-0.38672 -0.234375,0 -0.234375,0.21093 -0.234375,0.38672 v 3.30468 H 3.1718438 c -0.1757813,0 -0.3867188,0 -0.3867188,0.21094 0,0.22266 0.1992188,0.22266 0.3867188,0.22266 h 3.2929687 v 3.30468 c 0,0.16407 0,0.38672 0.2226563,0.38672 0.2226562,0 0.2226562,-0.21093 0.2226562,-0.38672 z m 9.228516,-1.52344 c -0.210938,0.0117 -0.257813,0.0234 -0.257813,0.12891 0,0.11718 0.05859,0.11718 0.28125,0.11718 h 0.550781 c 1.007813,0 1.464844,0.84375 1.464844,1.99219 0,1.55859 -0.808594,1.98047 -1.394531,1.98047 -0.574219,0 -1.558594,-0.28125 -1.898438,-1.06641 0.375,0.0586 0.726563,-0.15234 0.726563,-0.58593 0,-0.33985 -0.257813,-0.58594 -0.585938,-0.58594 -0.292968,0 -0.597656,0.16406 -0.597656,0.62109 0,1.06641 1.066406,1.9336 2.390625,1.9336 1.417969,0 2.472656,-1.07813 2.472656,-2.28516 0,-1.10156 -0.890625,-1.96875 -2.027343,-2.16797 1.03125,-0.30469 1.699218,-1.17187 1.699218,-2.10937 0,-0.9375 -0.972656,-1.62891 -2.132812,-1.62891 -1.195313,0 -2.085938,0.72656 -2.085938,1.59375 0,0.48047 0.375,0.57422 0.550782,0.57422 0.257812,0 0.539062,-0.17578 0.539062,-0.53906 0,-0.375 -0.28125,-0.53907 -0.550781,-0.53907 -0.07031,0 -0.09375,0 -0.128906,0.0117 0.457031,-0.82031 1.582031,-0.82031 1.640625,-0.82031 0.386718,0 1.171875,0.17578 1.171875,1.34766 0,0.23437 -0.03516,0.90234 -0.386719,1.41796 -0.351563,0.52735 -0.761719,0.5625 -1.089844,0.57422 z m 0,0"
         style="fill:#000000;fill-opacity:1;fill-rule:nonzero;stroke:none" />
      <path
         id="path37"
         d="m 21.382781,290.24488 c 0.02344,-0.11719 0.105469,-0.42188 0.128907,-0.53907 0.105468,-0.42187 0.105468,-0.43359 0.292968,-0.70312 0.257813,-0.38672 0.632813,-0.73828 1.171875,-0.73828 0.28125,0 0.457032,0.16406 0.457032,0.53906 0,0.44531 -0.339844,1.34766 -0.492188,1.74609 -0.105469,0.25782 -0.105469,0.30469 -0.105469,0.41016 0,0.45703 0.375,0.67969 0.726563,0.67969 0.773437,0 1.101562,-1.11328 1.101562,-1.21875 0,-0.082 -0.05859,-0.10547 -0.117187,-0.10547 -0.09375,0 -0.117188,0.0586 -0.140625,0.1289 -0.1875,0.65625 -0.515625,0.97266 -0.820313,0.97266 -0.128906,0 -0.199218,-0.082 -0.199218,-0.26953 0,-0.17578 0.07031,-0.35156 0.152343,-0.55078 0.117188,-0.30469 0.46875,-1.21875 0.46875,-1.66406 0,-0.59766 -0.421875,-0.89063 -0.996093,-0.89063 -0.644532,0 -1.054688,0.38672 -1.289063,0.69141 -0.05859,-0.4336 -0.398437,-0.69141 -0.808594,-0.69141 -0.292968,0 -0.492187,0.1875 -0.609375,0.43359 -0.199218,0.375 -0.28125,0.77344 -0.28125,0.78516 0,0.0703 0.05859,0.10547 0.128907,0.10547 0.09375,0 0.105468,-0.0352 0.164062,-0.23438 0.09375,-0.39843 0.234375,-0.86718 0.574219,-0.86718 0.210937,0 0.257812,0.19922 0.257812,0.375 0,0.14062 -0.04687,0.29297 -0.105468,0.5625 -0.02344,0.0586 -0.140625,0.52734 -0.175782,0.64453 -0.117187,0.52734 -0.175781,0.72656 -0.292968,1.19531 -0.02344,0.11719 -0.07031,0.31641 -0.07031,0.35156 0,0.17578 0.140625,0.2461 0.246094,0.2461 0.152344,0 0.269531,-0.0937 0.316406,-0.19922 0.03516,-0.0469 0.09375,-0.31641 0.128906,-0.48047 z m 0,0"
         style="fill:#000000;fill-opacity:1;fill-rule:nonzero;stroke:none" />
      <path
         id="path38"
         d="m 28.393523,289.75269 h 2.34375 c 0.117188,0 0.292969,0 0.292969,-0.1875 0,-0.1875 -0.175781,-0.1875 -0.292969,-0.1875 h -2.34375 v -2.34375 c 0,-0.11719 0,-0.29297 -0.175781,-0.29297 -0.1875,0 -0.1875,0.17578 -0.1875,0.29297 v 2.34375 h -2.34375 c -0.117187,0 -0.292969,0 -0.292969,0.1875 0,0.1875 0.175782,0.1875 0.292969,0.1875 h 2.34375 v 2.34375 c 0,0.11719 0,0.29297 0.1875,0.29297 0.175781,0 0.175781,-0.17578 0.175781,-0.29297 z m 4.233399,-2.67188 c 0.105469,0.0352 0.421875,0.10547 0.761719,0.10547 0.996093,0 1.59375,-0.6914 1.59375,-0.82031 0,-0.082 -0.04687,-0.10547 -0.09375,-0.10547 -0.01172,0 -0.02344,0 -0.105469,0.0352 -0.304688,0.11718 -0.667969,0.22265 -1.101563,0.22265 -0.46875,0 -0.855468,-0.1289 -1.113281,-0.22265 -0.07031,-0.0352 -0.09375,-0.0352 -0.09375,-0.0352 -0.105469,0 -0.105469,0.082 -0.105469,0.23438 v 2.33203 c 0,0.14062 0,0.23437 0.128907,0.23437 0.05859,0 0.08203,-0.0351 0.128906,-0.0937 0.09375,-0.11719 0.398437,-0.52734 1.066406,-0.52734 0.445313,0 0.667969,0.36328 0.738281,0.51562 0.128907,0.29297 0.152344,0.65625 0.152344,0.97266 0,0.29297 -0.01172,0.71484 -0.234375,1.06641 -0.152344,0.24609 -0.46875,0.49218 -0.890625,0.49218 -0.515625,0 -1.03125,-0.32812 -1.207031,-0.84375 0.02344,0 0.07031,0 0.07031,0 0.222657,0 0.398438,-0.14062 0.398438,-0.38672 0,-0.29296 -0.222656,-0.39843 -0.386719,-0.39843 -0.140625,0 -0.398437,0.082 -0.398437,0.42187 0,0.71485 0.621093,1.44141 1.535156,1.44141 0.996094,0 1.839844,-0.77344 1.839844,-1.75781 0,-0.92579 -0.667969,-1.7461 -1.605469,-1.7461 -0.398438,0 -0.773438,0.12891 -1.078125,0.39844 z m 0,0"
         style="fill:#000000;fill-opacity:1;fill-rule:nonzero;stroke:none" />
      <path
         id="path39"
         d="m 43.70407,293.13062 h 3.304688 c 0.164062,0 0.375,0 0.375,-0.21094 0,-0.22266 -0.199219,-0.22266 -0.375,-0.22266 H 43.70407 v -3.30468 c 0,-0.16407 0,-0.38672 -0.210937,-0.38672 -0.234375,0 -0.234375,0.21093 -0.234375,0.38672 v 3.30468 h -3.292969 c -0.175781,0 -0.386719,0 -0.386719,0.21094 0,0.22266 0.199219,0.22266 0.386719,0.22266 h 3.292969 v 3.30468 c 0,0.16407 0,0.38672 0.222656,0.38672 0.222656,0 0.222656,-0.21093 0.222656,-0.38672 z m 9.228516,-1.52344 c -0.210938,0.0117 -0.257813,0.0234 -0.257813,0.12891 0,0.11718 0.05859,0.11718 0.28125,0.11718 h 0.550782 c 1.007812,0 1.464843,0.84375 1.464843,1.99219 0,1.55859 -0.808593,1.98047 -1.394531,1.98047 -0.574219,0 -1.558594,-0.28125 -1.898437,-1.06641 0.375,0.0586 0.726562,-0.15234 0.726562,-0.58593 0,-0.33985 -0.257812,-0.58594 -0.585937,-0.58594 -0.292969,0 -0.597657,0.16406 -0.597657,0.62109 0,1.06641 1.066407,1.9336 2.390625,1.9336 1.417969,0 2.472657,-1.07813 2.472657,-2.28516 0,-1.10156 -0.890625,-1.96875 -2.027344,-2.16797 1.03125,-0.30469 1.699219,-1.17187 1.699219,-2.10937 0,-0.9375 -0.972657,-1.62891 -2.132813,-1.62891 -1.195312,0 -2.085937,0.72656 -2.085937,1.59375 0,0.48047 0.375,0.57422 0.550781,0.57422 0.257812,0 0.539062,-0.17578 0.539062,-0.53906 0,-0.375 -0.28125,-0.53907 -0.550781,-0.53907 -0.07031,0 -0.09375,0 -0.128906,0.0117 0.457031,-0.82031 1.582031,-0.82031 1.640625,-0.82031 0.386719,0 1.171875,0.17578 1.171875,1.34766 0,0.23437 -0.03516,0.90234 -0.386719,1.41796 -0.351562,0.52735 -0.761719,0.5625 -1.089844,0.57422 z m 0,0"
         style="fill:#000000;fill-opacity:1;fill-rule:nonzero;stroke:none" />
      <path
         id="path40"
         d="m 58.173797,290.24488 c 0.02344,-0.11719 0.105469,-0.42188 0.128906,-0.53907 0.105469,-0.42187 0.105469,-0.43359 0.292969,-0.70312 0.257812,-0.38672 0.632812,-0.73828 1.171875,-0.73828 0.28125,0 0.457031,0.16406 0.457031,0.53906 0,0.44531 -0.339844,1.34766 -0.492187,1.74609 -0.105469,0.25782 -0.105469,0.30469 -0.105469,0.41016 0,0.45703 0.375,0.67969 0.726562,0.67969 0.773438,0 1.101563,-1.11328 1.101563,-1.21875 0,-0.082 -0.05859,-0.10547 -0.117188,-0.10547 -0.09375,0 -0.117187,0.0586 -0.140625,0.1289 -0.1875,0.65625 -0.515625,0.97266 -0.820312,0.97266 -0.128906,0 -0.199219,-0.082 -0.199219,-0.26953 0,-0.17578 0.07031,-0.35156 0.152344,-0.55078 0.117187,-0.30469 0.46875,-1.21875 0.46875,-1.66406 0,-0.59766 -0.421875,-0.89063 -0.996094,-0.89063 -0.644531,0 -1.054687,0.38672 -1.289062,0.69141 -0.05859,-0.4336 -0.398438,-0.69141 -0.808594,-0.69141 -0.292969,0 -0.492188,0.1875 -0.609375,0.43359 -0.199219,0.375 -0.28125,0.77344 -0.28125,0.78516 0,0.0703 0.05859,0.10547 0.128906,0.10547 0.09375,0 0.105469,-0.0352 0.164063,-0.23438 0.09375,-0.39843 0.234375,-0.86718 0.574218,-0.86718 0.210938,0 0.257813,0.19922 0.257813,0.375 0,0.14062 -0.04687,0.29297 -0.105469,0.5625 -0.02344,0.0586 -0.140625,0.52734 -0.175781,0.64453 -0.117188,0.52734 -0.175781,0.72656 -0.292969,1.19531 -0.02344,0.11719 -0.07031,0.31641 -0.07031,0.35156 0,0.17578 0.140625,0.2461 0.246093,0.2461 0.152344,0 0.269532,-0.0937 0.316407,-0.19922 0.03516,-0.0469 0.09375,-0.31641 0.128906,-0.48047 z m 0,0"
         style="fill:#000000;fill-opacity:1;fill-rule:nonzero;stroke:none" />
      <path
         id="path41"
         d="m 65.187469,289.75269 h 2.34375 c 0.117187,0 0.292969,0 0.292969,-0.1875 0,-0.1875 -0.175782,-0.1875 -0.292969,-0.1875 h -2.34375 v -2.34375 c 0,-0.11719 0,-0.29297 -0.175781,-0.29297 -0.1875,0 -0.1875,0.17578 -0.1875,0.29297 v 2.34375 h -2.34375 c -0.117188,0 -0.292969,0 -0.292969,0.1875 0,0.1875 0.175781,0.1875 0.292969,0.1875 h 2.34375 v 2.34375 c 0,0.11719 0,0.29297 0.1875,0.29297 0.175781,0 0.175781,-0.17578 0.175781,-0.29297 z m 4.21875,-0.83203 c 0,-0.66797 0.05859,-1.24219 0.339844,-1.73438 0.234375,-0.39844 0.644531,-0.72656 1.148437,-0.72656 0.164063,0 0.527344,0.0352 0.714844,0.30469 -0.363281,0.0234 -0.398438,0.29297 -0.398438,0.375 0,0.24609 0.1875,0.375 0.375,0.375 0.140625,0 0.375,-0.082 0.375,-0.38672 0,-0.48047 -0.351562,-0.86719 -1.078125,-0.86719 -1.101562,0 -2.226562,1.05469 -2.226562,2.76563 0,2.16796 1.007812,2.69531 1.78125,2.69531 0.375,0 0.796875,-0.10547 1.148437,-0.44531 0.316407,-0.30469 0.585938,-0.64454 0.585938,-1.33594 0,-1.04297 -0.785156,-1.78125 -1.664063,-1.78125 -0.574218,0 -0.925781,0.375 -1.101562,0.76172 z m 1.03125,2.5664 c -0.421875,0 -0.691406,-0.29297 -0.808594,-0.51562 -0.1875,-0.36328 -0.199219,-0.90235 -0.199219,-1.20703 0,-0.78516 0.433594,-1.38282 1.042969,-1.38282 0.398438,0 0.632813,0.21094 0.785156,0.49219 0.175782,0.29297 0.175782,0.65625 0.175782,1.05469 0,0.41016 0,0.76172 -0.164063,1.04297 -0.210937,0.375 -0.492187,0.51562 -0.832031,0.51562 z m 0,0"
         style="fill:#000000;fill-opacity:1;fill-rule:nonzero;stroke:none" />
      <path
         id="path42"
         d="m 206.78805,288.47827 v -0.28125 h -2.88281 c -1.45312,0 -1.47656,-0.15234 -1.52344,-0.38672 h -0.25781 l -0.375,2.39063 h 0.26953 c 0.0352,-0.21094 0.14063,-0.94922 0.29297,-1.07813 0.0937,-0.0703 0.9961,-0.0703 1.16016,-0.0703 h 2.53125 l -1.26563,1.81641 c -0.3164,0.45703 -1.52343,2.42578 -1.52343,4.66406 0,0.14063 0,0.60938 0.48046,0.60938 0.50391,0 0.50391,-0.45704 0.50391,-0.6211 v -0.59765 c 0,-1.78125 0.29297,-3.16407 0.85547,-3.96094 z m 0,0"
         style="fill:#000000;fill-opacity:1;fill-rule:nonzero;stroke:none" />
      <path
         id="path43"
         d="m 40.920867,302.67847 c 0,-0.26953 0,-0.28125 -0.246094,-0.28125 -0.28125,0.31641 -0.878906,0.76172 -2.109375,0.76172 v 0.35156 c 0.269532,0 0.867188,0 1.523438,-0.31641 v 6.22266 c 0,0.43359 -0.03516,0.57422 -1.078125,0.57422 h -0.375 v 0.35156 c 0.316406,-0.0234 1.476562,-0.0234 1.875,-0.0234 0.398437,0 1.546875,0 1.863281,0.0234 v -0.35156 h -0.363281 c -1.054688,0 -1.089844,-0.14063 -1.089844,-0.57422 z m 5.853516,0 c 0,-0.26953 0,-0.28125 -0.246094,-0.28125 -0.28125,0.31641 -0.878906,0.76172 -2.109375,0.76172 v 0.35156 c 0.269531,0 0.867188,0 1.523438,-0.31641 v 6.22266 c 0,0.43359 -0.03516,0.57422 -1.078125,0.57422 h -0.375 v 0.35156 c 0.316406,-0.0234 1.476562,-0.0234 1.875,-0.0234 0.398437,0 1.546875,0 1.863281,0.0234 v -0.35156 h -0.363281 c -1.054688,0 -1.089844,-0.14063 -1.089844,-0.57422 z m 0,0"
         style="fill:#000000;fill-opacity:1;fill-rule:nonzero;stroke:none" />
      <path
         id="path44"
         d="m 114.35641,302.92456 v -0.28125 h -2.88281 c -1.45312,0 -1.47656,-0.15234 -1.52344,-0.38672 h -0.25781 l -0.375,2.39063 h 0.26953 c 0.0352,-0.21094 0.14063,-0.94922 0.29297,-1.07813 0.0937,-0.0703 0.9961,-0.0703 1.16016,-0.0703 h 2.53125 l -1.26563,1.81641 c -0.3164,0.45703 -1.52343,2.42578 -1.52343,4.66406 0,0.14063 0,0.60938 0.48046,0.60938 0.50391,0 0.50391,-0.45704 0.50391,-0.6211 v -0.59765 c 0,-1.78125 0.29297,-3.16407 0.85547,-3.96094 z m 0,0"
         style="fill:#000000;fill-opacity:1;fill-rule:nonzero;stroke:none" />
      <path
         id="path45"
         d="m -61.208039,364.37183 c 0,2.82422 -1.253906,3.41015 -1.96875,3.41015 -0.28125,0 -0.925781,-0.0351 -1.21875,-0.45703 h 0.07031 c 0.08203,0.0234 0.515625,-0.0469 0.515625,-0.49218 0,-0.25782 -0.175781,-0.49219 -0.492187,-0.49219 -0.304688,0 -0.503906,0.21094 -0.503906,0.51562 0,0.75 0.597656,1.24219 1.640625,1.24219 1.5,0 2.941406,-1.58203 2.941406,-4.18359 0,-3.21094 -1.335938,-4.00782 -2.390625,-4.00782 -1.3125,0 -2.472656,1.10157 -2.472656,2.67188 0,1.58203 1.113281,2.66016 2.308593,2.66016 0.878907,0 1.335938,-0.64454 1.570313,-1.25391 z m -1.523438,0.62109 c -0.75,0 -1.078125,-0.60937 -1.183593,-0.83203 -0.199219,-0.45703 -0.199219,-1.03125 -0.199219,-1.57031 0,-0.66797 0,-1.24219 0.316406,-1.73438 0.210938,-0.3164 0.539063,-0.66797 1.183594,-0.66797 0.679687,0 1.03125,0.59766 1.148437,0.87891 0.234375,0.58594 0.234375,1.59375 0.234375,1.78125 0,0.99609 -0.445312,2.14453 -1.5,2.14453 z m 0,0"
         style="fill:#000000;fill-opacity:1;fill-rule:nonzero;stroke:none" />
      <path
         id="path46"
         d="m -45.226594,360.18823 c 0,-0.26953 0,-0.28125 -0.246093,-0.28125 -0.28125,0.31641 -0.878907,0.76172 -2.109375,0.76172 v 0.35157 c 0.269531,0 0.867187,0 1.523437,-0.31641 v 6.22266 c 0,0.43359 -0.03516,0.57421 -1.078125,0.57421 h -0.375 v 0.35157 c 0.316406,-0.0234 1.476563,-0.0234 1.875,-0.0234 0.398438,0 1.546875,0 1.863281,0.0234 v -0.35157 h -0.363281 c -1.054687,0 -1.089844,-0.14062 -1.089844,-0.57421 z m 3.873047,3.50391 c 0,-3.02344 1.476563,-3.50391 2.121094,-3.50391 0.433594,0 0.855469,0.12891 1.089844,0.49219 -0.140625,0 -0.597657,0 -0.597657,0.49219 0,0.25781 0.175782,0.49219 0.492188,0.49219 0.292969,0 0.492187,-0.1875 0.492187,-0.52735 0,-0.62109 -0.445312,-1.23047 -1.488281,-1.23047 -1.511719,0 -3.082031,1.53516 -3.082031,4.17188 0,3.28125 1.429687,4.01953 2.449219,4.01953 1.300781,0 2.414062,-1.125 2.414062,-2.68359 0,-1.59375 -1.113281,-2.66016 -2.308594,-2.66016 -1.066406,0 -1.453125,0.92578 -1.582031,1.26563 z m 1.476563,4.08984 c -0.75,0 -1.113282,-0.66796 -1.21875,-0.92578 -0.105469,-0.30468 -0.222657,-0.89062 -0.222657,-1.73437 0,-0.9375 0.421875,-2.1211 1.5,-2.1211 0.65625,0 1.007813,0.44532 1.183594,0.84375 0.1875,0.44532 0.1875,1.04297 0.1875,1.5586 0,0.60937 0,1.14844 -0.222656,1.60547 -0.304688,0.57422 -0.726563,0.77343 -1.207031,0.77343 z m 0,0"
         style="fill:#000000;fill-opacity:1;fill-rule:nonzero;stroke:none" />
    </g>
  </g>
</svg>
