<?xml version="1.0" encoding="UTF-8" standalone="no"?>
<!-- Created with Inkscape (http://www.inkscape.org/) -->

<svg
   version="1.1"
   id="svg1"
   width="794.55066"
   height="1123.6533"
   viewBox="0 0 794.55066 1123.6533"
   sodipodi:docname="LigaMatematycznaMatuskiego_Gim_Zestaw3_2011_2012_page0.pdf"
   xmlns:inkscape="http://www.inkscape.org/namespaces/inkscape"
   xmlns:sodipodi="http://sodipodi.sourceforge.net/DTD/sodipodi-0.dtd"
   xmlns="http://www.w3.org/2000/svg"
   xmlns:svg="http://www.w3.org/2000/svg">
  <defs
     id="defs1" />
  <sodipodi:namedview
     id="namedview1"
     pagecolor="#ffffff"
     bordercolor="#000000"
     borderopacity="0.25"
     inkscape:showpageshadow="2"
     inkscape:pageopacity="0.0"
     inkscape:pagecheckerboard="0"
     inkscape:deskcolor="#d1d1d1">
    <inkscape:page
       x="0"
       y="0"
       inkscape:label="1"
       id="page1"
       width="794.55066"
       height="1123.6533"
       margin="0"
       bleed="0" />
  </sodipodi:namedview>
  <g
     id="g1"
     inkscape:groupmode="layer"
     inkscape:label="1">
    <g
       id="g2"
       aria-label="LIGAMATEMATYCZNA&#10;GRUDZIE2011&#10;GIMNAZJUM&#10;ZADANIE1.&#10;NaWigiliiubabcispotkaªasi¦licznarodzina.Przystolezasiadªo20osób.Babciaprzygoto-&#10;waªastociasteczek.Ka»dym¦»czyznazjadªsiedemciasteczek,ka»dakobieta-pi¦¢,aka»de&#10;zwnucz¡t-jedno.Oblicz,ilubyªodorosªych,ailedzieci.&#10;ZADANIE2.&#10;Wyka»,»e&#10;p"
       transform="matrix(1.3333333,0,0,1.3333333,274.724,56.069333)">
      <path
         id="path2"
         d="m 202.98532,102.82984 h -0.26953 c -0.0352,0.19921 -0.12891,0.85546 -0.24609,1.04296 -0.082,0.11719 -0.76172,0.11719 -1.125,0.11719 h -2.21485 c 0.32813,-0.28125 1.05469,-1.04297 1.3711,-1.33594 1.8164,-1.66406 2.48437,-2.28515 2.48437,-3.468745 0,-1.382813 -1.08984,-2.296875 -2.47266,-2.296875 -1.39453,0 -2.20312,1.183593 -2.20312,2.203125 0,0.609375 0.52734,0.609375 0.5625,0.609375 0.24609,0 0.5625,-0.175782 0.5625,-0.5625 0,-0.328125 -0.23438,-0.550782 -0.5625,-0.550782 -0.10547,0 -0.12891,0 -0.16406,0.01172 0.22265,-0.820312 0.86718,-1.371094 1.64062,-1.371094 1.01953,0 1.64063,0.855469 1.64063,1.957032 0,1.007814 -0.58594,1.898434 -1.26563,2.660154 l -2.41406,2.70703 v 0.28125 h 4.35937 z m 5.94727,-1.81641 c 0,-0.99609 -0.0586,-1.96875 -0.49219,-2.871094 -0.49219,-0.996094 -1.34766,-1.253906 -1.9336,-1.253906 -0.6914,0 -1.54687,0.339843 -1.98046,1.335937 -0.33985,0.75 -0.45704,1.488281 -0.45704,2.789063 0,1.16016 0.082,2.02734 0.51563,2.87109 0.45703,0.91407 1.28906,1.19532 1.91016,1.19532 1.04296,0 1.64062,-0.6211 1.98046,-1.3125 0.4336,-0.89063 0.45704,-2.0625 0.45704,-2.75391 z m -2.4375,3.83203 c -0.38672,0 -1.16016,-0.21094 -1.38282,-1.52344 -0.14062,-0.71484 -0.14062,-1.61718 -0.14062,-2.46093 0,-0.97266 0,-1.863285 0.19922,-2.56641 0.19922,-0.796875 0.80859,-1.171875 1.32422,-1.171875 0.45703,0 1.14843,0.28125 1.37109,1.300781 0.15234,0.679687 0.15234,1.628904 0.15234,2.437504 0,0.80859 0,1.71093 -0.1289,2.4375 -0.22266,1.32421 -0.97266,1.54687 -1.39453,1.54687 z m 0,0"
         style="fill:#000000;fill-opacity:1;fill-rule:nonzero;stroke:none" />
      <path
         id="path3"
         d="m -87.891633,190.34839 c 0.375,0 0.386719,-0.0117 0.503906,-0.23437 l 6.539063,-13.65235 c 0.08203,-0.15234 0.08203,-0.17578 0.08203,-0.21094 0,-0.14062 -0.09375,-0.24609 -0.234375,-0.24609 -0.152344,0 -0.199219,0.10547 -0.257812,0.24609 l -6.175782,12.85547 -2.542968,-5.92968 -1.664063,1.27734 0.1875,0.19922 0.84375,-0.64453 z m 0,0"
         style="fill:#000000;fill-opacity:1;fill-rule:nonzero;stroke:none" />
    </g>
    <path
       id="path4"
       d="M 0,0 H 47.793"
       style="fill:none;stroke:#000000;stroke-width:0.478;stroke-linecap:butt;stroke-linejoin:miter;stroke-miterlimit:10;stroke-dasharray:none;stroke-opacity:1"
       transform="matrix(1.3333333,0,0,-1.3333333,166.724,291.06267)" />
    <g
       id="g4"
       aria-label="18+8&#10;√"
       transform="matrix(1.3333333,0,0,1.3333333,166.724,307.19733)">
      <path
         id="path5"
         d="m 3.4443047,-7.6626484 c 0,-0.2695313 0,-0.28125 -0.2460938,-0.28125 -0.28125,0.3164062 -0.8789062,0.7617187 -2.109375,0.7617187 v 0.3515625 c 0.2695313,0 0.8671875,0 1.5234375,-0.3164062 v 6.22265621 c 0,0.43359375 -0.035156,0.57421875 -1.078125,0.57421875 h -0.375 v 0.3515625 c 0.3164063,-0.0234375 1.4765625,-0.0234375 1.875,-0.0234375 0.3984375,0 1.546875,0 1.8632813,0.0234375 v -0.3515625 H 4.5341484 c -1.0546875,0 -1.0898437,-0.140625 -1.0898437,-0.57421875 z m 5.9707031,3.3515625 c 0.5976562,-0.328125 1.4648442,-0.8789063 1.4648442,-1.875 0,-1.0429688 -0.9960942,-1.7578125 -2.0976567,-1.7578125 -1.1835937,0 -2.1210937,0.8671875 -2.1210937,1.9570312 0,0.4101563 0.1289062,0.8085938 0.4570312,1.21875 0.1289063,0.1523438 0.140625,0.1640625 0.984375,0.75 -1.1601562,0.5390625 -1.7578125,1.3476563 -1.7578125,2.2148438 0,1.26562496 1.2070313,2.05078121 2.4257813,2.05078121 1.3242184,0 2.4375004,-0.97265625 2.4375004,-2.22656251 0,-1.21875 -0.855469,-1.7578125 -1.7929692,-2.3320312 z m -1.6289062,-1.078125 c -0.1523438,-0.1054688 -0.6328125,-0.421875 -0.6328125,-1.0078125 0,-0.7734375 0.8203125,-1.265625 1.6171875,-1.265625 0.8554687,0 1.6289064,0.6210937 1.6289064,1.4882812 0,0.7265625 -0.5273439,1.3125 -1.2187502,1.6875 z m 0.5625,1.546875 1.453125,0.9375 c 0.3046874,0.1992187 0.8554684,0.5742187 0.8554684,1.3007812 0,0.91406251 -0.9140622,1.53515626 -1.8749997,1.53515626 -1.0195312,0 -1.8867187,-0.73828125 -1.8867187,-1.73437496 0,-0.9375 0.6796875,-1.6875 1.453125,-2.0390625 z m 10.7812504,1.078125 h 3.304687 c 0.164063,0 0.375,0 0.375,-0.2109375 0,-0.2226563 -0.199219,-0.2226563 -0.375,-0.2226563 h -3.304687 v -3.3046875 c 0,-0.1640625 0,-0.3867187 -0.210938,-0.3867187 -0.234375,0 -0.234375,0.2109375 -0.234375,0.3867187 v 3.3046875 H 15.39157 c -0.175781,0 -0.386718,0 -0.386718,0.2109375 0,0.2226563 0.199218,0.2226563 0.386718,0.2226563 h 3.292969 v 3.30468746 c 0,0.1640625 0,0.38671875 0.222656,0.38671875 0.222657,0 0.222657,-0.2109375 0.222657,-0.38671875 z m 10.552734,-1.546875 c 0.597656,-0.328125 1.464844,-0.8789063 1.464844,-1.875 0,-1.0429688 -0.996094,-1.7578125 -2.097657,-1.7578125 -1.183593,0 -2.121093,0.8671875 -2.121093,1.9570312 0,0.4101563 0.128906,0.8085938 0.457031,1.21875 0.128906,0.1523438 0.140625,0.1640625 0.984375,0.75 -1.160156,0.5390625 -1.757813,1.3476563 -1.757813,2.2148438 0,1.26562496 1.207032,2.05078121 2.425782,2.05078121 1.324218,0 2.4375,-0.97265625 2.4375,-2.22656251 0,-1.21875 -0.855469,-1.7578125 -1.792969,-2.3320312 z m -1.628906,-1.078125 c -0.152344,-0.1054688 -0.632813,-0.421875 -0.632813,-1.0078125 0,-0.7734375 0.820313,-1.265625 1.617188,-1.265625 0.855468,0 1.628906,0.6210937 1.628906,1.4882812 0,0.7265625 -0.527344,1.3125 -1.21875,1.6875 z m 0.5625,1.546875 1.453125,0.9375 c 0.304687,0.1992187 0.855468,0.5742187 0.855468,1.3007812 0,0.91406251 -0.914062,1.53515626 -1.875,1.53515626 -1.019531,0 -1.886718,-0.73828125 -1.886718,-1.73437496 0,-0.9375 0.679687,-1.6875 1.453125,-2.0390625 z m 0,0"
         style="fill:#000000;fill-opacity:1;fill-rule:nonzero;stroke:none" />
      <path
         id="path6"
         d="M 36.628875,0.32953906 34.5195,-4.3228047 c -0.08203,-0.1875 -0.140625,-0.1875 -0.175781,-0.1875 -0.01172,0 -0.07031,0 -0.199219,0.09375 l -1.136719,0.8671875 c -0.164062,0.1171875 -0.164062,0.1523438 -0.164062,0.1875 0,0.058594 0.04687,0.1289063 0.128906,0.1289063 0.07031,0 0.269531,-0.1640625 0.398438,-0.2578125 0.07031,-0.058594 0.257812,-0.1992188 0.386718,-0.2929688 l 2.355469,5.1796875 c 0.08203,0.1875 0.140625,0.1875 0.246094,0.1875 0.1875,0 0.222656,-0.070312 0.304687,-0.234375 l 5.425782,-11.2382812 c 0.08203,-0.1640621 0.08203,-0.2109371 0.08203,-0.2343751 0,-0.128906 -0.09375,-0.246094 -0.234375,-0.246094 -0.09375,0 -0.1875,0.05859 -0.28125,0.257813 z m 0,0"
         style="fill:#000000;fill-opacity:1;fill-rule:nonzero;stroke:none" />
    </g>
    <path
       id="path7"
       d="M 0,0 H 5.853"
       style="fill:none;stroke:#000000;stroke-width:0.478;stroke-linecap:butt;stroke-linejoin:miter;stroke-miterlimit:10;stroke-dasharray:none;stroke-opacity:1"
       transform="matrix(1.3333333,0,0,-1.3333333,222.644,293.692)" />
    <g
       id="g7"
       aria-label="2+&#10;p"
       transform="matrix(1.3333333,0,0,1.3333333,222.644,307.19733)">
      <path
         id="path8"
         d="M 5.2621172,-2.0024922 H 4.9925859 c -0.035156,0.1992188 -0.1289062,0.8554688 -0.2460937,1.04296876 -0.082031,0.1171875 -0.7617188,0.1171875 -1.125,0.1171875 H 1.4066484 c 0.328125,-0.28124996 1.0546875,-1.04296876 1.3710938,-1.33593746 1.8164062,-1.6640625 2.484375,-2.2851563 2.484375,-3.46875 0,-1.3828125 -1.0898438,-2.296875 -2.4726563,-2.296875 -1.3945312,0 -2.20312496,1.1835937 -2.20312496,2.203125 0,0.609375 0.52734376,0.609375 0.56249996,0.609375 0.2460938,0 0.5625,-0.1757813 0.5625,-0.5625 0,-0.328125 -0.234375,-0.5507813 -0.5625,-0.5507813 -0.1054687,0 -0.1289062,0 -0.16406246,0.011719 0.22265626,-0.8203125 0.86718746,-1.3710938 1.64062496,-1.3710938 1.0195313,0 1.640625,0.8554688 1.640625,1.9570313 0,1.0078125 -0.5859375,1.8984375 -1.265625,2.6601562 l -2.41406246,2.70703126 v 0.28125 H 4.9457109 Z m 8.0156248,-0.7617187 h 3.304688 c 0.164062,0 0.375,0 0.375,-0.2109375 0,-0.2226563 -0.199219,-0.2226563 -0.375,-0.2226563 h -3.304688 v -3.3046875 c 0,-0.1640625 0,-0.3867187 -0.210937,-0.3867187 -0.234375,0 -0.234375,0.2109375 -0.234375,0.3867187 v 3.3046875 H 9.5394609 c -0.1757812,0 -0.3867187,0 -0.3867187,0.2109375 0,0.2226563 0.1992187,0.2226563 0.3867187,0.2226563 H 12.83243 v 3.30468746 c 0,0.1640625 0,0.38671875 0.222656,0.38671875 0.222656,0 0.222656,-0.2109375 0.222656,-0.38671875 z m 0,0"
         style="fill:#000000;fill-opacity:1;fill-rule:nonzero;stroke:none" />
      <path
         id="path9"
         d="m 25.333406,2.0023906 c 0.375,0 0.386719,-0.011719 0.503906,-0.234375 l 6.539063,-13.6523436 c 0.08203,-0.152344 0.08203,-0.175781 0.08203,-0.210938 0,-0.140625 -0.09375,-0.246093 -0.234375,-0.246093 -0.152344,0 -0.199219,0.105468 -0.257812,0.246093 l -6.175782,12.85546912 -2.542968,-5.92968752 -1.664063,1.2773438 0.1875,0.1992187 0.84375,-0.6445312 z m 0,0"
         style="fill:#000000;fill-opacity:1;fill-rule:nonzero;stroke:none" />
    </g>
    <path
       id="path10"
       d="M 0,0 H 42.133"
       style="fill:none;stroke:#000000;stroke-width:0.478;stroke-linecap:butt;stroke-linejoin:miter;stroke-miterlimit:10;stroke-dasharray:none;stroke-opacity:1"
       transform="matrix(1.3333333,0,0,-1.3333333,265.612,291.06267)" />
    <g
       id="g10"
       aria-label="6−4&#10;√"
       transform="matrix(1.3333333,0,0,1.3333333,265.612,307.19733)">
      <path
         id="path11"
         d="m 1.4658047,-4.1587422 c 0,-3.0234375 1.4765625,-3.5039062 2.1210937,-3.5039062 0.4335938,0 0.8554688,0.1289062 1.0898438,0.4921875 -0.140625,0 -0.5976563,0 -0.5976563,0.4921875 0,0.2578125 0.1757813,0.4921875 0.4921875,0.4921875 0.2929688,0 0.4921875,-0.1875 0.4921875,-0.5273438 0,-0.6210937 -0.4453125,-1.2304687 -1.4882812,-1.2304687 -1.5117188,0 -3.08203126,1.5351562 -3.08203126,4.171875 0,3.28124996 1.42968746,4.01953121 2.44921876,4.01953121 1.3007812,0 2.4140625,-1.125 2.4140625,-2.68359371 0,-1.59375 -1.1132813,-2.6601563 -2.3085938,-2.6601563 -1.0664062,0 -1.453125,0.9257813 -1.5820312,1.265625 z m 1.4765625,4.08984376 c -0.75,0 -1.1132813,-0.66796875 -1.21875,-0.92578125 C 1.6181484,-1.2993672 1.5009609,-1.8853047 1.5009609,-2.7290547 c 0,-0.9375 0.421875,-2.1210937 1.5,-2.1210937 0.65625,0 1.0078125,0.4453125 1.1835938,0.84375 0.1875,0.4453125 0.1875,1.0429687 0.1875,1.5585937 0,0.609375 0,1.1484375 -0.2226563,1.60546876 -0.3046875,0.57421875 -0.7265625,0.7734375 -1.2070312,0.7734375 z m 0,0"
         style="fill:#000000;fill-opacity:1;fill-rule:nonzero;stroke:none" />
      <path
         id="path12"
         d="m 16.383773,-2.7524922 c 0.210938,0 0.421875,0 0.421875,-0.234375 0,-0.234375 -0.210937,-0.234375 -0.421875,-0.234375 H 9.9150234 c -0.1992187,0 -0.4101562,0 -0.4101562,0.234375 0,0.234375 0.2109375,0.234375 0.4101562,0.234375 z m 0,0"
         style="fill:#000000;fill-opacity:1;fill-rule:nonzero;stroke:none" />
      <path
         id="path13"
         d="m 24.777328,-7.7798359 c 0,-0.2226563 0,-0.2929688 -0.164062,-0.2929688 -0.09375,0 -0.128907,0 -0.222657,0.1523438 l -3.597656,5.578125 v 0.3515625 h 3.140625 v 1.07812496 c 0,0.4453125 -0.02344,0.5625 -0.902344,0.5625 h -0.234375 v 0.3515625 c 0.269532,-0.0234375 1.21875,-0.0234375 1.558594,-0.0234375 0.328125,0 1.289063,0 1.558594,0.0234375 v -0.3515625 h -0.234375 c -0.867188,0 -0.902344,-0.1171875 -0.902344,-0.5625 V -1.9907734 h 1.207031 v -0.3515625 h -1.207031 z m -0.785156,0.9375 v 4.5 h -2.90625 z m 0,0"
         style="fill:#000000;fill-opacity:1;fill-rule:nonzero;stroke:none" />
      <path
         id="path14"
         d="M 30.970688,0.32953906 28.861313,-4.3228047 c -0.08203,-0.1875 -0.140625,-0.1875 -0.175782,-0.1875 -0.01172,0 -0.07031,0 -0.199218,0.09375 l -1.136719,0.8671875 c -0.164063,0.1171875 -0.164063,0.1523438 -0.164063,0.1875 0,0.058594 0.04687,0.1289063 0.128907,0.1289063 0.07031,0 0.269531,-0.1640625 0.398437,-0.2578125 0.07031,-0.058594 0.257813,-0.1992188 0.386719,-0.2929688 l 2.355469,5.1796875 c 0.08203,0.1875 0.140625,0.1875 0.246093,0.1875 0.1875,0 0.222657,-0.070312 0.304688,-0.234375 l 5.425781,-11.2382812 c 0.08203,-0.1640621 0.08203,-0.2109371 0.08203,-0.2343751 0,-0.128906 -0.09375,-0.246094 -0.234375,-0.246094 -0.09375,0 -0.1875,0.05859 -0.28125,0.257813 z m 0,0"
         style="fill:#000000;fill-opacity:1;fill-rule:nonzero;stroke:none" />
    </g>
    <path
       id="path15"
       d="M 0,0 H 5.853"
       style="fill:none;stroke:#000000;stroke-width:0.478;stroke-linecap:butt;stroke-linejoin:miter;stroke-miterlimit:10;stroke-dasharray:none;stroke-opacity:1"
       transform="matrix(1.3333333,0,0,-1.3333333,313.98533,293.692)" />
    <g
       id="g15"
       aria-label="2jestliczb¡caªkowit¡.&#10;ZADANIE3.&#10;Wyka»,»eje±lidoiloczynudwóchkolejnychliczbnaturalnychdodamysum¦kwadratówtych&#10;liczbpowi¦kszon¡o5,tootrzymamyliczb¦podzieln¡przez6.&#10;ZADANIE4.&#10;Piszemyliczby1,1,2,3,5,8,...wtakisposób,»epocz¡wszyodtrzeciej,ka»danast¦pnaliczba&#10;jestsum¡dwóchpoprzednich.Jak¡liczb¡(parzyst¡czynieparzyst¡)jestliczbaznajduj¡casi¦&#10;na2011miejscu?&#10;ZADANIE5.&#10;Zdwóchjednakowychpªytekwksztaªcietrójk¡taprostok¡tnegooobwodzie40mo»nauªo»y¢&#10;trójk¡toobwodzie50albotrójk¡toobwodzie64,albodeltoid.Obliczdªugo±¢przek¡tnych&#10;tegodeltoidu."
       transform="matrix(1.3333333,0,0,1.3333333,313.98533,307.19733)">
      <path
         id="path16"
         d="M 5.261,-2.0024922 H 4.9914688 c -0.035156,0.1992188 -0.1289063,0.8554688 -0.2460938,1.04296876 -0.082031,0.1171875 -0.7617187,0.1171875 -1.125,0.1171875 H 1.4055313 C 1.7336563,-1.1235859 2.4602188,-1.8853047 2.776625,-2.1782734 4.5930313,-3.8423359 5.261,-4.4634297 5.261,-5.6470234 c 0,-1.3828125 -1.0898437,-2.296875 -2.4726562,-2.296875 -1.3945313,0 -2.20312505,1.1835937 -2.20312505,2.203125 0,0.609375 0.52734375,0.609375 0.56250005,0.609375 0.2460937,0 0.5625,-0.1757813 0.5625,-0.5625 0,-0.328125 -0.234375,-0.5507813 -0.5625,-0.5507813 -0.1054688,0 -0.1289063,0 -0.16406255,0.011719 0.22265625,-0.8203125 0.86718755,-1.3710938 1.64062505,-1.3710938 1.0195312,0 1.640625,0.8554688 1.640625,1.9570313 0,1.0078125 -0.5859375,1.8984375 -1.265625,2.6601562 l -2.41406255,2.70703126 v 0.28125 H 4.9445938 Z m 0,0"
         style="fill:#000000;fill-opacity:1;fill-rule:nonzero;stroke:none" />
      <path
         id="path17"
         d="m -71.70775,59.333445 c 0.503906,0.164063 0.925781,0.175782 1.054688,0.175782 1.359375,0 2.214843,-0.996094 2.214843,-1.160157 0,-0.04687 -0.02344,-0.105468 -0.09375,-0.105468 -0.02344,0 -0.04687,0 -0.152343,0.04687 -0.667969,0.28125 -1.242188,0.316406 -1.558594,0.316406 -0.785156,0 -1.347656,-0.234375 -1.582031,-0.328125 -0.08203,-0.03516 -0.105469,-0.03516 -0.117188,-0.03516 -0.09375,0 -0.09375,0.07031 -0.09375,0.257812 v 3.550781 c 0,0.210938 0,0.292969 0.140625,0.292969 0.05859,0 0.07031,-0.01172 0.199219,-0.164062 0.328125,-0.492188 0.890625,-0.773438 1.488281,-0.773438 0.632813,0 0.949219,0.585938 1.042969,0.785156 0.199219,0.46875 0.210937,1.054688 0.210937,1.511719 0,0.457031 0,1.136719 -0.328125,1.675781 -0.269531,0.421875 -0.738281,0.726563 -1.253906,0.726563 -0.796875,0 -1.570312,-0.539063 -1.78125,-1.40625 0.05859,0.02344 0.128906,0.03516 0.1875,0.03516 0.199219,0 0.527344,-0.128906 0.527344,-0.527344 0,-0.339843 -0.234375,-0.527343 -0.527344,-0.527343 -0.210937,0 -0.527344,0.105468 -0.527344,0.574218 0,1.007813 0.808594,2.167969 2.144532,2.167969 1.347656,0 2.53125,-1.125 2.53125,-2.648437 0,-1.417969 -0.960938,-2.601563 -2.214844,-2.601563 -0.679688,0 -1.207031,0.292969 -1.511719,0.632813 z m 0,0"
         style="fill:#000000;fill-opacity:1;fill-rule:nonzero;stroke:none" />
      <path
         id="path18"
         d="m 133.03053,62.017039 c 0,-3.023437 1.47656,-3.503906 2.1211,-3.503906 0.43359,0 0.85546,0.128906 1.08984,0.492187 -0.14063,0 -0.59766,0 -0.59766,0.492188 0,0.257812 0.17578,0.492187 0.49219,0.492187 0.29297,0 0.49219,-0.1875 0.49219,-0.527343 0,-0.621094 -0.44531,-1.230469 -1.48828,-1.230469 -1.51172,0 -3.08203,1.535156 -3.08203,4.171875 0,3.28125 1.42968,4.019531 2.44921,4.019531 1.30079,0 2.41407,-1.125 2.41407,-2.683594 0,-1.59375 -1.11328,-2.660156 -2.3086,-2.660156 -1.0664,0 -1.45312,0.925781 -1.58203,1.265625 z m 1.47656,4.089844 c -0.75,0 -1.11328,-0.667969 -1.21875,-0.925781 -0.10546,-0.304688 -0.22265,-0.890625 -0.22265,-1.734375 0,-0.9375 0.42187,-2.121094 1.5,-2.121094 0.65625,0 1.00781,0.445312 1.18359,0.84375 0.1875,0.445312 0.1875,1.042969 0.1875,1.558594 0,0.609375 0,1.148437 -0.22265,1.605468 -0.30469,0.574219 -0.72657,0.773438 -1.20704,0.773438 z m 0,0"
         style="fill:#000000;fill-opacity:1;fill-rule:nonzero;stroke:none" />
      <path
         id="path19"
         d="m -95.725328,107.35688 c 0,-0.26953 0,-0.28125 -0.246094,-0.28125 -0.28125,0.31641 -0.878906,0.76172 -2.109375,0.76172 v 0.35156 c 0.269531,0 0.867188,0 1.523438,-0.3164 v 6.22265 c 0,0.4336 -0.03516,0.57422 -1.078125,0.57422 h -0.375 v 0.35157 c 0.316406,-0.0234 1.476562,-0.0234 1.875,-0.0234 0.398437,0 1.546875,0 1.863281,0.0234 v -0.35157 h -0.363281 c -1.054688,0 -1.089844,-0.14062 -1.089844,-0.57422 z m 0,0"
         style="fill:#000000;fill-opacity:1;fill-rule:nonzero;stroke:none" />
      <path
         id="path20"
         d="m -90.985094,115.06782 c 0,-0.69141 -0.222656,-1.20703 -0.714843,-1.20703 -0.386719,0 -0.574219,0.31641 -0.574219,0.57422 0,0.25781 0.175781,0.58594 0.585937,0.58594 0.152344,0 0.28125,-0.0469 0.386719,-0.15235 0.02344,-0.0234 0.03516,-0.0234 0.04687,-0.0234 0.03516,0 0.03516,0.16407 0.03516,0.22266 0,0.39844 -0.08203,1.17188 -0.773437,1.94531 -0.128906,0.15235 -0.128906,0.17578 -0.128906,0.19922 0,0.0586 0.05859,0.11719 0.117187,0.11719 0.09375,0 1.019531,-0.89063 1.019531,-2.26172 z m 0,0"
         style="fill:#000000;fill-opacity:1;fill-rule:nonzero;stroke:none" />
      <path
         id="path21"
         d="m -84.627672,107.35688 c 0,-0.26953 0,-0.28125 -0.246094,-0.28125 -0.28125,0.31641 -0.878906,0.76172 -2.109375,0.76172 v 0.35156 c 0.269532,0 0.867188,0 1.523438,-0.3164 v 6.22265 c 0,0.4336 -0.03516,0.57422 -1.078125,0.57422 h -0.375 v 0.35157 c 0.316406,-0.0234 1.476562,-0.0234 1.875,-0.0234 0.398437,0 1.546875,0 1.863281,0.0234 v -0.35157 h -0.363281 c -1.054688,0 -1.089844,-0.14062 -1.089844,-0.57422 z m 0,0"
         style="fill:#000000;fill-opacity:1;fill-rule:nonzero;stroke:none" />
      <path
         id="path22"
         d="m -79.890367,115.06782 c 0,-0.69141 -0.222656,-1.20703 -0.714844,-1.20703 -0.386719,0 -0.574219,0.31641 -0.574219,0.57422 0,0.25781 0.175782,0.58594 0.585938,0.58594 0.152344,0 0.28125,-0.0469 0.386719,-0.15235 0.02344,-0.0234 0.03516,-0.0234 0.04687,-0.0234 0.03516,0 0.03516,0.16407 0.03516,0.22266 0,0.39844 -0.08203,1.17188 -0.773438,1.94531 -0.128906,0.15235 -0.128906,0.17578 -0.128906,0.19922 0,0.0586 0.05859,0.11719 0.117188,0.11719 0.09375,0 1.019531,-0.89063 1.019531,-2.26172 z m 0,0"
         style="fill:#000000;fill-opacity:1;fill-rule:nonzero;stroke:none" />
      <path
         id="path23"
         d="m -71.716539,113.01704 h -0.269531 c -0.03516,0.19922 -0.128907,0.85547 -0.246094,1.04297 -0.08203,0.11719 -0.761719,0.11719 -1.125,0.11719 h -2.214844 c 0.328125,-0.28125 1.054688,-1.04297 1.371094,-1.33594 1.816406,-1.66406 2.484375,-2.28516 2.484375,-3.46875 0,-1.38281 -1.089844,-2.29688 -2.472656,-2.29688 -1.394532,0 -2.203125,1.1836 -2.203125,2.20313 0,0.60937 0.527343,0.60937 0.5625,0.60937 0.246093,0 0.5625,-0.17578 0.5625,-0.5625 0,-0.32812 -0.234375,-0.55078 -0.5625,-0.55078 -0.105469,0 -0.128907,0 -0.164063,0.0117 0.222656,-0.82031 0.867188,-1.37109 1.640625,-1.37109 1.019531,0 1.640625,0.85547 1.640625,1.95703 0,1.00781 -0.585937,1.89844 -1.265625,2.66015 l -2.414062,2.70704 v 0.28125 h 4.359375 z m 0,0"
         style="fill:#000000;fill-opacity:1;fill-rule:nonzero;stroke:none" />
      <path
         id="path24"
         d="m -68.792711,115.06782 c 0,-0.69141 -0.222656,-1.20703 -0.714844,-1.20703 -0.386718,0 -0.574218,0.31641 -0.574218,0.57422 0,0.25781 0.175781,0.58594 0.585937,0.58594 0.152344,0 0.28125,-0.0469 0.386719,-0.15235 0.02344,-0.0234 0.03516,-0.0234 0.04687,-0.0234 0.03516,0 0.03516,0.16407 0.03516,0.22266 0,0.39844 -0.08203,1.17188 -0.773437,1.94531 -0.128907,0.15235 -0.128907,0.17578 -0.128907,0.19922 0,0.0586 0.05859,0.11719 0.117188,0.11719 0.09375,0 1.019531,-0.89063 1.019531,-2.26172 z m 0,0"
         style="fill:#000000;fill-opacity:1;fill-rule:nonzero;stroke:none" />
      <path
         id="path25"
         d="m -63.677477,110.73188 c -0.210937,0.0117 -0.257812,0.0234 -0.257812,0.12891 0,0.11719 0.05859,0.11719 0.28125,0.11719 h 0.550781 c 1.007813,0 1.464844,0.84375 1.464844,1.99218 0,1.5586 -0.808594,1.98047 -1.394531,1.98047 -0.574219,0 -1.558594,-0.28125 -1.898438,-1.0664 0.375,0.0586 0.726563,-0.15235 0.726563,-0.58594 0,-0.33984 -0.257813,-0.58594 -0.585938,-0.58594 -0.292969,0 -0.597656,0.16406 -0.597656,0.6211 0,1.0664 1.066406,1.93359 2.390625,1.93359 1.417969,0 2.472656,-1.07813 2.472656,-2.28516 0,-1.10156 -0.890625,-1.96875 -2.027344,-2.16797 1.03125,-0.30468 1.699219,-1.17187 1.699219,-2.10937 0,-0.9375 -0.972656,-1.62891 -2.132812,-1.62891 -1.195313,0 -2.085938,0.72657 -2.085938,1.59375 0,0.48047 0.375,0.57422 0.550781,0.57422 0.257813,0 0.539063,-0.17578 0.539063,-0.53906 0,-0.375 -0.28125,-0.53906 -0.550781,-0.53906 -0.07031,0 -0.09375,0 -0.128907,0.0117 0.457032,-0.82032 1.582032,-0.82032 1.640625,-0.82032 0.386719,0 1.171875,0.17578 1.171875,1.34766 0,0.23437 -0.03516,0.90234 -0.386718,1.41797 -0.351563,0.52734 -0.761719,0.5625 -1.089844,0.57422 z m 0,0"
         style="fill:#000000;fill-opacity:1;fill-rule:nonzero;stroke:none" />
      <path
         id="path26"
         d="m -57.695055,115.06782 c 0,-0.69141 -0.222656,-1.20703 -0.714843,-1.20703 -0.386719,0 -0.574219,0.31641 -0.574219,0.57422 0,0.25781 0.175781,0.58594 0.585937,0.58594 0.152344,0 0.28125,-0.0469 0.386719,-0.15235 0.02344,-0.0234 0.03516,-0.0234 0.04687,-0.0234 0.03516,0 0.03516,0.16407 0.03516,0.22266 0,0.39844 -0.08203,1.17188 -0.773437,1.94531 -0.128906,0.15235 -0.128906,0.17578 -0.128906,0.19922 0,0.0586 0.05859,0.11719 0.117187,0.11719 0.09375,0 1.019531,-0.89063 1.019531,-2.26172 z m 0,0"
         style="fill:#000000;fill-opacity:1;fill-rule:nonzero;stroke:none" />
      <path
         id="path27"
         d="m -53.247789,108.1772 c 0.503906,0.16406 0.925781,0.17578 1.054687,0.17578 1.359375,0 2.214844,-0.9961 2.214844,-1.16016 0,-0.0469 -0.02344,-0.10547 -0.09375,-0.10547 -0.02344,0 -0.04687,0 -0.152344,0.0469 -0.667968,0.28125 -1.242187,0.3164 -1.558593,0.3164 -0.785157,0 -1.347657,-0.23437 -1.582032,-0.32812 -0.08203,-0.0352 -0.105468,-0.0352 -0.117187,-0.0352 -0.09375,0 -0.09375,0.0703 -0.09375,0.25781 v 3.55079 c 0,0.21093 0,0.29296 0.140625,0.29296 0.05859,0 0.07031,-0.0117 0.199219,-0.16406 0.328125,-0.49219 0.890625,-0.77344 1.488281,-0.77344 0.632812,0 0.949219,0.58594 1.042969,0.78516 0.199218,0.46875 0.210937,1.05469 0.210937,1.51172 0,0.45703 0,1.13672 -0.328125,1.67578 -0.269531,0.42188 -0.738281,0.72656 -1.253906,0.72656 -0.796875,0 -1.570313,-0.53906 -1.78125,-1.40625 0.05859,0.0234 0.128906,0.0352 0.1875,0.0352 0.199219,0 0.527344,-0.12891 0.527344,-0.52734 0,-0.33985 -0.234375,-0.52735 -0.527344,-0.52735 -0.210938,0 -0.527344,0.10547 -0.527344,0.57422 0,1.00781 0.808594,2.16797 2.144531,2.16797 1.347657,0 2.53125,-1.125 2.53125,-2.64844 0,-1.41797 -0.960937,-2.60156 -2.214843,-2.60156 -0.679688,0 -1.207032,0.29297 -1.511719,0.63281 z m 0,0"
         style="fill:#000000;fill-opacity:1;fill-rule:nonzero;stroke:none" />
      <path
         id="path28"
         d="m -46.597398,115.06782 c 0,-0.69141 -0.222657,-1.20703 -0.714844,-1.20703 -0.386719,0 -0.574219,0.31641 -0.574219,0.57422 0,0.25781 0.175781,0.58594 0.585938,0.58594 0.152343,0 0.28125,-0.0469 0.386718,-0.15235 0.02344,-0.0234 0.03516,-0.0234 0.04687,-0.0234 0.03516,0 0.03516,0.16407 0.03516,0.22266 0,0.39844 -0.08203,1.17188 -0.773438,1.94531 -0.128906,0.15235 -0.128906,0.17578 -0.128906,0.19922 0,0.0586 0.05859,0.11719 0.117187,0.11719 0.09375,0 1.019532,-0.89063 1.019532,-2.26172 z m 0,0"
         style="fill:#000000;fill-opacity:1;fill-rule:nonzero;stroke:none" />
      <path
         id="path29"
         d="m -40.122789,110.70845 c 0.597656,-0.32813 1.464844,-0.87891 1.464844,-1.875 0,-1.04297 -0.996094,-1.75782 -2.097657,-1.75782 -1.183593,0 -2.121093,0.86719 -2.121093,1.95703 0,0.41016 0.128906,0.8086 0.457031,1.21875 0.128906,0.15235 0.140625,0.16407 0.984375,0.75 -1.160156,0.53907 -1.757813,1.34766 -1.757813,2.21485 0,1.26562 1.207032,2.05078 2.425782,2.05078 1.324218,0 2.4375,-0.97266 2.4375,-2.22656 0,-1.21875 -0.855469,-1.75782 -1.792969,-2.33203 z m -1.628906,-1.07813 c -0.152344,-0.10547 -0.632813,-0.42187 -0.632813,-1.00781 0,-0.77344 0.820313,-1.26563 1.617188,-1.26563 0.855468,0 1.628906,0.6211 1.628906,1.48828 0,0.72657 -0.527344,1.3125 -1.21875,1.6875 z m 0.5625,1.54688 1.453125,0.9375 c 0.304687,0.19921 0.855468,0.57421 0.855468,1.30078 0,0.91406 -0.914062,1.53515 -1.875,1.53515 -1.019531,0 -1.886718,-0.73828 -1.886718,-1.73437 0,-0.9375 0.679687,-1.6875 1.453125,-2.03906 z m 0,0"
         style="fill:#000000;fill-opacity:1;fill-rule:nonzero;stroke:none" />
      <path
         id="path30"
         d="m -35.499742,115.06782 c 0,-0.69141 -0.222656,-1.20703 -0.714844,-1.20703 -0.386719,0 -0.574219,0.31641 -0.574219,0.57422 0,0.25781 0.175782,0.58594 0.585938,0.58594 0.152344,0 0.28125,-0.0469 0.386719,-0.15235 0.02344,-0.0234 0.03516,-0.0234 0.04687,-0.0234 0.03516,0 0.03516,0.16407 0.03516,0.22266 0,0.39844 -0.08203,1.17188 -0.773438,1.94531 -0.128906,0.15235 -0.128906,0.17578 -0.128906,0.19922 0,0.0586 0.05859,0.11719 0.117188,0.11719 0.09375,0 1.019531,-0.89063 1.019531,-2.26172 z m 5.118164,-0.62109 c 0,-0.35157 -0.292969,-0.58594 -0.574219,-0.58594 -0.351562,0 -0.585937,0.29297 -0.585937,0.57422 0,0.35156 0.28125,0.58594 0.574218,0.58594 0.339844,0 0.585938,-0.28125 0.585938,-0.57422 z m 5.238281,0 c 0,-0.35157 -0.292969,-0.58594 -0.574219,-0.58594 -0.351562,0 -0.585937,0.29297 -0.585937,0.57422 0,0.35156 0.28125,0.58594 0.574219,0.58594 0.339843,0 0.585937,-0.28125 0.585937,-0.57422 z m 5.24707,0 c 0,-0.35157 -0.292968,-0.58594 -0.574218,-0.58594 -0.351563,0 -0.585938,0.29297 -0.585938,0.57422 0,0.35156 0.28125,0.58594 0.574219,0.58594 0.339844,0 0.585937,-0.28125 0.585937,-0.57422 z m 0,0"
         style="fill:#000000;fill-opacity:1;fill-rule:nonzero;stroke:none" />
      <path
         id="path31"
         d="m -156.1472,147.68696 h -0.26953 c -0.0352,0.19922 -0.12891,0.85547 -0.2461,1.04297 -0.082,0.11719 -0.76172,0.11719 -1.125,0.11719 h -2.21484 c 0.32812,-0.28125 1.05469,-1.04297 1.37109,-1.33594 1.81641,-1.66406 2.48438,-2.28516 2.48438,-3.46875 0,-1.38281 -1.08985,-2.29688 -2.47266,-2.29688 -1.39453,0 -2.20312,1.1836 -2.20312,2.20313 0,0.60937 0.52734,0.60937 0.5625,0.60937 0.24609,0 0.5625,-0.17578 0.5625,-0.5625 0,-0.32812 -0.23438,-0.55078 -0.5625,-0.55078 -0.10547,0 -0.12891,0 -0.16407,0.0117 0.22266,-0.82031 0.86719,-1.37109 1.64063,-1.37109 1.01953,0 1.64062,0.85547 1.64062,1.95703 0,1.00781 -0.58593,1.89844 -1.26562,2.66016 l -2.41406,2.70703 v 0.28125 h 4.35937 z m 5.94726,-1.81641 c 0,-0.99609 -0.0586,-1.96875 -0.49218,-2.87109 -0.49219,-0.99609 -1.34766,-1.25391 -1.9336,-1.25391 -0.6914,0 -1.54687,0.33985 -1.98047,1.33594 -0.33984,0.75 -0.45703,1.48828 -0.45703,2.78906 0,1.16016 0.082,2.02735 0.51563,2.8711 0.45703,0.91406 1.28906,1.19531 1.91015,1.19531 1.04297,0 1.64063,-0.62109 1.98047,-1.3125 0.4336,-0.89062 0.45703,-2.0625 0.45703,-2.75391 z m -2.4375,3.83204 c -0.38672,0 -1.16015,-0.21094 -1.38281,-1.52344 -0.14062,-0.71485 -0.14062,-1.61719 -0.14062,-2.46094 0,-0.97266 0,-1.86328 0.19921,-2.56641 0.19922,-0.79687 0.8086,-1.17187 1.32422,-1.17187 0.45703,0 1.14844,0.28125 1.3711,1.30078 0.15234,0.67969 0.15234,1.62891 0.15234,2.4375 0,0.80859 0,1.71094 -0.12891,2.4375 -0.22265,1.32422 -0.97265,1.54688 -1.39453,1.54688 z m 6.38086,-7.67579 c 0,-0.26953 0,-0.28125 -0.24609,-0.28125 -0.28125,0.31641 -0.87891,0.76172 -2.10938,0.76172 v 0.35157 c 0.26953,0 0.86719,0 1.52344,-0.31641 v 6.22266 c 0,0.43359 -0.0352,0.57421 -1.07812,0.57421 h -0.375 v 0.35157 c 0.3164,-0.0234 1.47656,-0.0234 1.875,-0.0234 0.39843,0 1.54687,0 1.86328,0.0234 v -0.35157 h -0.36328 c -1.05469,0 -1.08985,-0.14062 -1.08985,-0.57421 z m 5.85352,0 c 0,-0.26953 0,-0.28125 -0.2461,-0.28125 -0.28125,0.31641 -0.8789,0.76172 -2.10937,0.76172 v 0.35157 c 0.26953,0 0.86719,0 1.52344,-0.31641 v 6.22266 c 0,0.43359 -0.0352,0.57421 -1.07813,0.57421 h -0.375 v 0.35157 c 0.31641,-0.0234 1.47656,-0.0234 1.875,-0.0234 0.39844,0 1.54688,0 1.86328,0.0234 v -0.35157 h -0.36328 c -1.05469,0 -1.08984,-0.14062 -1.08984,-0.57421 z m 0,0"
         style="fill:#000000;fill-opacity:1;fill-rule:nonzero;stroke:none" />
      <path
         id="path32"
         d="m 222.42995,190.75337 c 0,-0.22266 0,-0.29297 -0.16407,-0.29297 -0.0937,0 -0.1289,0 -0.22265,0.15234 l -3.59766,5.57813 v 0.35156 h 3.14063 v 1.07812 c 0,0.44532 -0.0234,0.5625 -0.90235,0.5625 h -0.23437 v 0.35157 c 0.26953,-0.0234 1.21875,-0.0234 1.55859,-0.0234 0.32813,0 1.28906,0 1.55859,0.0234 v -0.35157 h -0.23437 c -0.86719,0 -0.90234,-0.11718 -0.90234,-0.5625 v -1.07812 h 1.20703 v -0.35156 h -1.20703 z m -0.78516,0.9375 v 4.5 h -2.90625 z m 7.68164,3.02343 c 0,-0.99609 -0.0586,-1.96875 -0.49219,-2.87109 -0.49219,-0.99609 -1.34765,-1.25391 -1.93359,-1.25391 -0.69141,0 -1.54688,0.33985 -1.98047,1.33594 -0.33984,0.75 -0.45703,1.48828 -0.45703,2.78906 0,1.16016 0.082,2.02735 0.51562,2.8711 0.45703,0.91406 1.28907,1.19531 1.91016,1.19531 1.04297,0 1.64062,-0.62109 1.98047,-1.3125 0.43359,-0.89062 0.45703,-2.0625 0.45703,-2.75391 z m -2.4375,3.83204 c -0.38672,0 -1.16016,-0.21094 -1.38281,-1.52344 -0.14063,-0.71485 -0.14063,-1.61719 -0.14063,-2.46094 0,-0.97266 0,-1.86328 0.19922,-2.56641 0.19922,-0.79687 0.80859,-1.17187 1.32422,-1.17187 0.45703,0 1.14844,0.28125 1.37109,1.30078 0.15235,0.67969 0.15235,1.62891 0.15235,2.4375 0,0.80859 0,1.71094 -0.12891,2.4375 -0.22266,1.32422 -0.97266,1.54688 -1.39453,1.54688 z m 0,0"
         style="fill:#000000;fill-opacity:1;fill-rule:nonzero;stroke:none" />
      <path
         id="path33"
         d="m -74.159898,209.02583 c 0.503906,0.16406 0.925781,0.17578 1.054687,0.17578 1.359375,0 2.214844,-0.99609 2.214844,-1.16016 0,-0.0469 -0.02344,-0.10547 -0.09375,-0.10547 -0.02344,0 -0.04687,0 -0.152344,0.0469 -0.667969,0.28125 -1.242187,0.31641 -1.558594,0.31641 -0.785156,0 -1.347656,-0.23438 -1.582031,-0.32813 -0.08203,-0.0352 -0.105469,-0.0352 -0.117187,-0.0352 -0.09375,0 -0.09375,0.0703 -0.09375,0.25782 v 3.55078 c 0,0.21094 0,0.29297 0.140625,0.29297 0.05859,0 0.07031,-0.0117 0.199218,-0.16407 0.328125,-0.49218 0.890625,-0.77343 1.488282,-0.77343 0.632812,0 0.949218,0.58593 1.042968,0.78515 0.199219,0.46875 0.210938,1.05469 0.210938,1.51172 0,0.45703 0,1.13672 -0.328125,1.67578 -0.269531,0.42188 -0.738281,0.72657 -1.253906,0.72657 -0.796875,0 -1.570313,-0.53907 -1.78125,-1.40625 0.05859,0.0234 0.128906,0.0351 0.1875,0.0351 0.199218,0 0.527343,-0.1289 0.527343,-0.52734 0,-0.33985 -0.234375,-0.52735 -0.527343,-0.52735 -0.210938,0 -0.527344,0.10547 -0.527344,0.57422 0,1.00782 0.808594,2.16797 2.144531,2.16797 1.347656,0 2.53125,-1.125 2.53125,-2.64844 0,-1.41796 -0.960937,-2.60156 -2.214844,-2.60156 -0.679687,0 -1.207031,0.29297 -1.511718,0.63281 z m 9.673828,3.02344 c 0,-0.9961 -0.05859,-1.96875 -0.492188,-2.8711 -0.492187,-0.99609 -1.347656,-1.2539 -1.933594,-1.2539 -0.691406,0 -1.546875,0.33984 -1.980468,1.33593 -0.339844,0.75 -0.457032,1.48828 -0.457032,2.78907 0,1.16015 0.08203,2.02734 0.515625,2.87109 0.457032,0.91406 1.289063,1.19531 1.910157,1.19531 1.042968,0 1.640625,-0.62109 1.980468,-1.3125 0.433594,-0.89062 0.457032,-2.0625 0.457032,-2.7539 z m -2.4375,3.83203 c -0.386719,0 -1.160157,-0.21094 -1.382813,-1.52344 -0.140625,-0.71484 -0.140625,-1.61719 -0.140625,-2.46094 0,-0.97265 0,-1.86328 0.199219,-2.5664 0.199219,-0.79688 0.808594,-1.17188 1.324219,-1.17188 0.457031,0 1.148437,0.28125 1.371093,1.30078 0.152344,0.67969 0.152344,1.62891 0.152344,2.4375 0,0.8086 0,1.71094 -0.128906,2.4375 -0.222656,1.32422 -0.972656,1.54688 -1.394531,1.54688 z m 0,0"
         style="fill:#000000;fill-opacity:1;fill-rule:nonzero;stroke:none" />
      <path
         id="path34"
         d="m 70.900648,211.70942 c 0,-3.02344 1.476563,-3.5039 2.121094,-3.5039 0.433594,0 0.855469,0.1289 1.089844,0.49218 -0.140625,0 -0.597656,0 -0.597656,0.49219 0,0.25781 0.175781,0.49219 0.492187,0.49219 0.292969,0 0.492188,-0.1875 0.492188,-0.52735 0,-0.62109 -0.445313,-1.23046 -1.488282,-1.23046 -1.511718,0 -3.082031,1.53515 -3.082031,4.17187 0,3.28125 1.429688,4.01953 2.449219,4.01953 1.300781,0 2.414062,-1.125 2.414062,-2.68359 0,-1.59375 -1.113281,-2.66016 -2.308593,-2.66016 -1.066407,0 -1.453125,0.92578 -1.582032,1.26563 z m 1.476563,4.08985 c -0.75,0 -1.113281,-0.66797 -1.21875,-0.92579 -0.105469,-0.30468 -0.222656,-0.89062 -0.222656,-1.73437 0,-0.9375 0.421875,-2.12109 1.5,-2.12109 0.65625,0 1.007812,0.44531 1.183593,0.84375 0.1875,0.44531 0.1875,1.04296 0.1875,1.55859 0,0.60937 0,1.14844 -0.222656,1.60547 -0.304687,0.57422 -0.726562,0.77344 -1.207031,0.77344 z m 7.224609,-7.71094 c 0,-0.22266 0,-0.29297 -0.164062,-0.29297 -0.09375,0 -0.128906,0 -0.222656,0.15234 l -3.597657,5.57813 v 0.35156 h 3.140625 v 1.07813 c 0,0.44531 -0.02344,0.5625 -0.902343,0.5625 h -0.234375 v 0.35156 c 0.269531,-0.0234 1.21875,-0.0234 1.558593,-0.0234 0.328125,0 1.289063,0 1.558594,0.0234 v -0.35156 h -0.234375 c -0.867187,0 -0.902344,-0.11719 -0.902344,-0.5625 v -1.07813 h 1.207032 v -0.35156 H 79.60182 Z m -0.785156,0.9375 v 4.5 h -2.90625 z m 0,0"
         style="fill:#000000;fill-opacity:1;fill-rule:nonzero;stroke:none" />
    </g>
  </g>
</svg>
