<?xml version="1.0" encoding="UTF-8" standalone="no"?>
<!-- Created with Inkscape (http://www.inkscape.org/) -->

<svg
   version="1.1"
   id="svg1"
   width="794.55066"
   height="1123.6533"
   viewBox="0 0 794.55066 1123.6533"
   sodipodi:docname="LigaMatematycznaMatuskiego_Gim_Zestaw4_2017_2018_page0.pdf"
   xmlns:inkscape="http://www.inkscape.org/namespaces/inkscape"
   xmlns:sodipodi="http://sodipodi.sourceforge.net/DTD/sodipodi-0.dtd"
   xmlns="http://www.w3.org/2000/svg"
   xmlns:svg="http://www.w3.org/2000/svg">
  <defs
     id="defs1" />
  <sodipodi:namedview
     id="namedview1"
     pagecolor="#ffffff"
     bordercolor="#000000"
     borderopacity="0.25"
     inkscape:showpageshadow="2"
     inkscape:pageopacity="0.0"
     inkscape:pagecheckerboard="0"
     inkscape:deskcolor="#d1d1d1">
    <inkscape:page
       x="0"
       y="0"
       inkscape:label="1"
       id="page1"
       width="794.55066"
       height="1123.6533"
       margin="0"
       bleed="0" />
  </sodipodi:namedview>
  <g
     id="g1"
     inkscape:groupmode="layer"
     inkscape:label="1">
    <g
       id="g2"
       aria-label="LIGAMATEMATYCZNA&#10;im.ZdzisªawaMatuskiego&#10;PÓFINA&#10;16lutego2017&#10;GIMNAZJUM&#10;ZADANIE1.&#10;WkwadracieABCDpunktEjest±rodkiembokuAD,Fjest±rodkiembokuDCorazGjest&#10;±rodkiemodcinkaEF.OdcinkiEForazBGpodzieliªykwadratnatrzycz¦±ci,zktórychjedna&#10;-czworok¡t-mapolerówne28.Obliczpolekwadratu.&#10;ZADANIE2.&#10;Je»elipewn¡liczb¦dwucyfrow¡pomno»ymyprzezsum¦jejcyfr,tootrzymamy90.Je»eli&#10;przestawimycyfrytejliczbyite»pomno»ymyprzezichsum¦,touzyskamy306.Znajd¹t¦liczb¦.&#10;ZADANIE3.&#10;Rozwi¡»ukªadrówna«&#10;&#10;&#10;&#10;a+b=1&#10;1"
       transform="matrix(1.3333333,0,0,1.3333333,274.724,56.069333)">
      <path
         id="path2"
         d="m -75.484406,126.42261 c -0.410156,0.70312 -0.820313,0.9375 -1.394531,0.97266 -0.128907,0.0117 -0.222657,0.0117 -0.222657,0.23437 0,0.0703 0.05859,0.11719 0.140625,0.11719 0.210938,0 0.75,-0.0234 0.972657,-0.0234 0.339843,0 0.726562,0.0234 1.054687,0.0234 0.07031,0 0.222656,0 0.222656,-0.22266 0,-0.11719 -0.09375,-0.1289 -0.175781,-0.1289 -0.269531,-0.0234 -0.492187,-0.11719 -0.492187,-0.39844 0,-0.17578 0.07031,-0.30469 0.222656,-0.5625 l 0.902344,-1.51172 h 3.058593 c 0.01172,0.10547 0.01172,0.21094 0.02344,0.31641 0.03516,0.30468 0.175781,1.54687 0.175781,1.78125 0,0.35156 -0.609375,0.375 -0.796875,0.375 -0.140625,0 -0.269531,0 -0.269531,0.22265 0,0.12891 0.105469,0.12891 0.175781,0.12891 0.210938,0 0.445313,-0.0234 0.65625,-0.0234 h 0.679688 c 0.726562,0 1.253906,0.0234 1.265625,0.0234 0.08203,0 0.210937,0 0.210937,-0.22266 0,-0.1289 -0.105469,-0.1289 -0.28125,-0.1289 -0.65625,0 -0.667969,-0.10547 -0.714844,-0.45704 l -0.726562,-7.46484 c -0.02344,-0.23437 -0.07031,-0.25781 -0.199219,-0.25781 -0.117187,0 -0.1875,0.0234 -0.304687,0.19922 z m 1.441406,-1.83984 2.402344,-4.01954 0.410156,4.01954 z m 9.676758,-4.1836 c 0.117187,-0.44531 0.164062,-0.46875 0.621094,-0.46875 h 1.558593 c 1.347657,0 1.347657,1.14844 1.347657,1.25391 0,0.97265 -0.960938,2.20312 -2.542969,2.20312 h -1.722656 z m 2.027344,3.08203 c 1.300781,-0.24609 2.484375,-1.14843 2.484375,-2.25 0,-0.92578 -0.832032,-1.65234 -2.179688,-1.65234 h -3.832031 c -0.234375,0 -0.339844,0 -0.339844,0.23437 0,0.11719 0.105469,0.11719 0.292969,0.11719 0.726562,0 0.726562,0.0937 0.726562,0.22266 0,0.0234 0,0.0937 -0.04687,0.28125 l -1.617187,6.43359 c -0.105469,0.41016 -0.128906,0.52735 -0.960938,0.52735 -0.234375,0 -0.351562,0 -0.351562,0.22265 0,0.12891 0.07031,0.12891 0.304687,0.12891 h 4.101563 c 1.828125,0 3.246094,-1.38281 3.246094,-2.58985 0,-0.98437 -0.867188,-1.58203 -1.828125,-1.67578 z m -1.699219,3.91407 h -1.617188 c -0.164062,0 -0.1875,0 -0.257812,-0.0117 -0.128906,-0.0117 -0.152344,-0.0352 -0.152344,-0.12891 0,-0.082 0.03516,-0.15234 0.05859,-0.25781 l 0.832031,-3.375 h 2.25 c 1.40625,0 1.40625,1.3125 1.40625,1.40625 0,1.14844 -1.042969,2.36719 -2.519531,2.36719 z m 13.722656,-7.95704 c 0,-0.10546 -0.08203,-0.10546 -0.105469,-0.10546 -0.02344,0 -0.07031,0 -0.175781,0.11718 l -0.820312,1.00782 c -0.421875,-0.71485 -1.078125,-1.125 -1.96875,-1.125 -2.589844,0 -5.261719,2.61328 -5.261719,5.42578 0,1.99218 1.394531,3.23437 3.140625,3.23437 0.960937,0 1.792969,-0.39844 2.484375,-0.98437 1.042969,-0.87891 1.359375,-2.03907 1.359375,-2.13282 0,-0.10546 -0.09375,-0.10546 -0.140625,-0.10546 -0.105469,0 -0.117188,0.0703 -0.140625,0.11718 -0.550781,1.86328 -2.15625,2.76563 -3.351563,2.76563 -1.277343,0 -2.367187,-0.82031 -2.367187,-2.50781 0,-0.38672 0.117187,-2.46094 1.464844,-4.03125 0.65625,-0.76172 1.78125,-1.44141 2.917968,-1.44141 1.3125,0 1.898438,1.08984 1.898438,2.30859 0,0.31641 -0.03516,0.57422 -0.03516,0.6211 0,0.11718 0.117187,0.11718 0.152343,0.11718 0.140625,0 0.152344,-0.0117 0.199219,-0.23437 z m 2.182617,7.42969 c -0.105468,0.41016 -0.128906,0.52735 -0.960937,0.52735 -0.234375,0 -0.351563,0 -0.351563,0.22265 0,0.12891 0.07031,0.12891 0.304688,0.12891 h 3.796875 c 2.414062,0 4.769531,-2.4961 4.769531,-5.16797 0,-1.72266 -1.03125,-3 -2.742187,-3 h -3.832032 c -0.234375,0 -0.339843,0 -0.339843,0.23437 0,0.11719 0.105468,0.11719 0.292968,0.11719 0.726563,0 0.726563,0.0937 0.726563,0.22266 0,0.0234 0,0.0937 -0.04687,0.28125 z m 2.519532,-6.46875 c 0.117187,-0.44531 0.164062,-0.46875 0.621093,-0.46875 H -43.668 c 1.113281,0 2.144531,0.60938 2.144531,2.26172 0,0.59766 -0.234375,2.67188 -1.394531,3.98438 -0.339844,0.39843 -1.242187,1.21875 -2.625,1.21875 h -1.359375 c -0.164062,0 -0.1875,0 -0.257812,-0.0117 -0.128907,-0.0117 -0.140625,-0.0352 -0.140625,-0.12891 0,-0.082 0.02344,-0.15234 0.04687,-0.25781 z m 0,0"
         style="fill:#000000;fill-opacity:1;fill-rule:nonzero;stroke:none" />
      <path
         id="path3"
         d="m 6.5468438,124.96948 c 0.011719,-0.0352 0.046875,-0.11718 0.046875,-0.16406 0,-0.0586 -0.046875,-0.11719 -0.1171875,-0.11719 -0.046875,0 -0.070312,0.0117 -0.1054688,0.0469 -0.023437,0.0117 -0.023437,0.0352 -0.140625,0.26953 -0.703125,1.67578 -1.21875,2.39063 -3.1289062,2.39063 H 1.3554375 c -0.1640625,0 -0.1875,0 -0.2578125,-0.0117 -0.12890625,-0.0117 -0.140625,-0.0352 -0.140625,-0.12891 0,-0.082 0.0234375,-0.15234 0.046875,-0.25781 l 0.8203125,-3.30469 h 1.1835938 c 0.9375,0 1.0078125,0.21094 1.0078125,0.5625 0,0.11719 0,0.23438 -0.082031,0.58594 -0.035156,0.0469 -0.046875,0.0937 -0.046875,0.1289 0,0.082 0.070312,0.12891 0.140625,0.12891 0.1054688,0 0.1171875,-0.0937 0.1640625,-0.25781 l 0.6796875,-2.77735 c 0,-0.0586 -0.046875,-0.11718 -0.1171875,-0.11718 -0.1054687,0 -0.1171875,0.0469 -0.1640625,0.22265 -0.2460937,0.91407 -0.4804687,1.1836 -1.546875,1.1836 H 1.9062188 L 2.6445,120.41089 c 0.1171875,-0.42187 0.140625,-0.45703 0.6210938,-0.45703 h 1.7109375 c 1.4765625,0 1.7695312,0.39844 1.7695312,1.30078 0,0.0117 0,0.35156 -0.046875,0.73828 -0.011719,0.0469 -0.023437,0.12891 -0.023437,0.15235 0,0.0937 0.058594,0.1289 0.1289063,0.1289 0.082031,0 0.140625,-0.0469 0.1640625,-0.26953 L 7.214813,119.9187 c 0,-0.0352 0.023437,-0.15234 0.023437,-0.17578 0,-0.14062 -0.1054687,-0.14062 -0.3164062,-0.14062 H 1.0859063 c -0.23437505,0 -0.35156255,0 -0.35156255,0.22265 0,0.12891 0.0820313,0.12891 0.29296875,0.12891 0.7382813,0 0.7382813,0.082 0.7382813,0.21094 0,0.0586 -0.011719,0.10547 -0.046875,0.24609 l -1.61718755,6.45703 c -0.10546875,0.41016 -0.12890625,0.52735 -0.9609375,0.52735 -0.23437495,0 -0.35156245,0 -0.35156245,0.22265 0,0.12891 0.070312,0.12891 0.30468745,0.12891 H 5.0937188 c 0.2695312,0 0.28125,-0.0117 0.3632812,-0.19922 z m 0,0"
         style="fill:#000000;fill-opacity:1;fill-rule:nonzero;stroke:none" />
      <path
         id="path4"
         d="m 115.09763,126.42261 c -0.41016,0.70312 -0.82032,0.9375 -1.39454,0.97266 -0.1289,0.0117 -0.22265,0.0117 -0.22265,0.23437 0,0.0703 0.0586,0.11719 0.14062,0.11719 0.21094,0 0.75,-0.0234 0.97266,-0.0234 0.33984,0 0.72656,0.0234 1.05469,0.0234 0.0703,0 0.22265,0 0.22265,-0.22266 0,-0.11719 -0.0937,-0.1289 -0.17578,-0.1289 -0.26953,-0.0234 -0.49219,-0.11719 -0.49219,-0.39844 0,-0.17578 0.0703,-0.30469 0.22266,-0.5625 l 0.90234,-1.51172 h 3.0586 c 0.0117,0.10547 0.0117,0.21094 0.0234,0.31641 0.0352,0.30468 0.17578,1.54687 0.17578,1.78125 0,0.35156 -0.60938,0.375 -0.79688,0.375 -0.14062,0 -0.26953,0 -0.26953,0.22265 0,0.12891 0.10547,0.12891 0.17578,0.12891 0.21094,0 0.44531,-0.0234 0.65625,-0.0234 h 0.67969 c 0.72656,0 1.25391,0.0234 1.26562,0.0234 0.082,0 0.21094,0 0.21094,-0.22266 0,-0.1289 -0.10547,-0.1289 -0.28125,-0.1289 -0.65625,0 -0.66797,-0.10547 -0.71484,-0.45704 l -0.72656,-7.46484 c -0.0234,-0.23437 -0.0703,-0.25781 -0.19922,-0.25781 -0.11719,0 -0.1875,0.0234 -0.30469,0.19922 z m 1.4414,-1.83984 2.40235,-4.01954 0.41015,4.01954 z m 7.18067,2.28515 c -0.10547,0.41016 -0.12891,0.52735 -0.96094,0.52735 -0.23438,0 -0.35156,0 -0.35156,0.22265 0,0.12891 0.0703,0.12891 0.30468,0.12891 h 3.79688 c 2.41406,0 4.76953,-2.4961 4.76953,-5.16797 0,-1.72266 -1.03125,-3 -2.74219,-3 h -3.83203 c -0.23437,0 -0.33984,0 -0.33984,0.23437 0,0.11719 0.10547,0.11719 0.29297,0.11719 0.72656,0 0.72656,0.0937 0.72656,0.22266 0,0.0234 0,0.0937 -0.0469,0.28125 z m 2.51953,-6.46875 c 0.11718,-0.44531 0.16406,-0.46875 0.62109,-0.46875 h 1.32422 c 1.11328,0 2.14453,0.60938 2.14453,2.26172 0,0.59766 -0.23437,2.67188 -1.39453,3.98438 -0.33984,0.39843 -1.24219,1.21875 -2.625,1.21875 h -1.35938 c -0.16406,0 -0.1875,0 -0.25781,-0.0117 -0.1289,-0.0117 -0.14062,-0.0352 -0.14062,-0.12891 0,-0.082 0.0234,-0.15234 0.0469,-0.25781 z m 0,0"
         style="fill:#000000;fill-opacity:1;fill-rule:nonzero;stroke:none" />
      <path
         id="path5"
         d="m 142.69235,123.84448 h 1.14844 c 0.90234,0 0.98437,0.21094 0.98437,0.55079 0,0.16406 -0.0352,0.32812 -0.0937,0.58593 -0.0234,0.0469 -0.0352,0.11719 -0.0352,0.14063 0,0.082 0.0469,0.1289 0.14062,0.1289 0.0937,0 0.10547,-0.0469 0.15235,-0.24609 l 0.6914,-2.77734 c 0,-0.0469 -0.0352,-0.11719 -0.11718,-0.11719 -0.10547,0 -0.11719,0.0469 -0.17579,0.24609 -0.24609,0.89063 -0.48046,1.14844 -1.52343,1.14844 h -1.08985 l 0.77344,-3.09375 c 0.11719,-0.42187 0.14063,-0.45703 0.62109,-0.45703 h 1.60547 c 1.5,0 1.71094,0.44531 1.71094,1.28906 0,0.0703 0,0.33985 -0.0352,0.64453 -0.0117,0.0469 -0.0352,0.21094 -0.0352,0.25782 0,0.0937 0.0586,0.1289 0.1289,0.1289 0.082,0 0.12891,-0.0469 0.15235,-0.26953 l 0.25781,-2.08594 c 0,-0.0352 0.0234,-0.15234 0.0234,-0.17578 0,-0.14062 -0.10547,-0.14062 -0.32813,-0.14062 h -5.66015 c -0.23438,0 -0.35157,0 -0.35157,0.22265 0,0.12891 0.082,0.12891 0.29297,0.12891 0.73828,0 0.73828,0.082 0.73828,0.21094 0,0.0586 -0.0117,0.10547 -0.0469,0.24609 l -1.61719,6.45703 c -0.10547,0.41016 -0.1289,0.52735 -0.96094,0.52735 -0.23437,0 -0.35156,0 -0.35156,0.22265 0,0.12891 0.10547,0.12891 0.17578,0.12891 0.23438,0 0.46875,-0.0234 0.69141,-0.0234 h 1.55859 c 0.25782,0 0.55078,0.0234 0.8086,0.0234 0.11718,0 0.25781,0 0.25781,-0.21094 0,-0.14062 -0.0703,-0.14062 -0.33984,-0.14062 -0.9375,0 -0.96094,-0.082 -0.96094,-0.25782 0,-0.0586 0.0234,-0.15234 0.0469,-0.23437 z m 0,0"
         style="fill:#000000;fill-opacity:1;fill-rule:nonzero;stroke:none" />
      <path
         id="path6"
         d="m 255.68454,126.86792 c -0.10547,0.41016 -0.12891,0.52735 -0.96094,0.52735 -0.23437,0 -0.35156,0 -0.35156,0.22265 0,0.12891 0.0703,0.12891 0.30469,0.12891 h 3.79687 c 2.41406,0 4.76953,-2.4961 4.76953,-5.16797 0,-1.72266 -1.03125,-3 -2.74218,-3 h -3.83204 c -0.23437,0 -0.33984,0 -0.33984,0.23437 0,0.11719 0.10547,0.11719 0.29297,0.11719 0.72656,0 0.72656,0.0937 0.72656,0.22266 0,0.0234 0,0.0937 -0.0469,0.28125 z m 2.51953,-6.46875 c 0.11719,-0.44531 0.16406,-0.46875 0.62109,-0.46875 h 1.32422 c 1.11328,0 2.14453,0.60938 2.14453,2.26172 0,0.59766 -0.23437,2.67188 -1.39453,3.98438 -0.33984,0.39843 -1.24218,1.21875 -2.625,1.21875 h -1.35937 c -0.16406,0 -0.1875,0 -0.25781,-0.0117 -0.12891,-0.0117 -0.14063,-0.0352 -0.14063,-0.12891 0,-0.082 0.0234,-0.15234 0.0469,-0.25781 z m 14.57813,-0.96094 c 0,-0.10546 -0.082,-0.10546 -0.10547,-0.10546 -0.0234,0 -0.0703,0 -0.17578,0.11718 l -0.82032,1.00782 c -0.42187,-0.71485 -1.07812,-1.125 -1.96875,-1.125 -2.58984,0 -5.26172,2.61328 -5.26172,5.42578 0,1.99218 1.39454,3.23437 3.14063,3.23437 0.96094,0 1.79297,-0.39844 2.48437,-0.98437 1.04297,-0.87891 1.35938,-2.03907 1.35938,-2.13282 0,-0.10546 -0.0937,-0.10546 -0.14063,-0.10546 -0.10546,0 -0.11718,0.0703 -0.14062,0.11718 -0.55078,1.86328 -2.15625,2.76563 -3.35156,2.76563 -1.27735,0 -2.36719,-0.82031 -2.36719,-2.50781 0,-0.38672 0.11719,-2.46094 1.46484,-4.03125 0.65625,-0.76172 1.78125,-1.44141 2.91797,-1.44141 1.3125,0 1.89844,1.08984 1.89844,2.30859 0,0.31641 -0.0352,0.57422 -0.0352,0.6211 0,0.11718 0.11719,0.11718 0.15235,0.11718 0.14062,0 0.15234,-0.0117 0.19922,-0.23437 z m 0,0"
         style="fill:#000000;fill-opacity:1;fill-rule:nonzero;stroke:none" />
      <path
         id="path7"
         d="m 311.4277,119.43823 c 0,-0.10546 -0.082,-0.10546 -0.10547,-0.10546 -0.0234,0 -0.0703,0 -0.17578,0.11718 l -0.82031,0.9961 c -0.0586,-0.0937 -0.29297,-0.51563 -0.76172,-0.79688 -0.51562,-0.3164 -1.03125,-0.3164 -1.20703,-0.3164 -2.55469,0 -5.25,2.60156 -5.25,5.42578 0,1.96875 1.35938,3.23437 3.15234,3.23437 0.86719,0 1.95704,-0.28125 2.55469,-1.03125 0.12891,0.44531 0.38672,0.77344 0.46875,0.77344 0.0586,0 0.0703,-0.0352 0.082,-0.0352 0.0234,-0.0234 0.11719,-0.44531 0.17578,-0.65625 l 0.1875,-0.76172 c 0.0937,-0.39843 0.14063,-0.5625 0.22266,-0.92578 0.12891,-0.45703 0.15234,-0.49218 0.80859,-0.5039 0.0469,0 0.1875,0 0.1875,-0.22266 0,-0.11719 -0.11718,-0.11719 -0.15234,-0.11719 -0.19922,0 -0.43359,0.0234 -0.64453,0.0234 h -0.64453 c -0.50391,0 -1.03125,-0.0234 -1.52344,-0.0234 -0.10547,0 -0.24609,0 -0.24609,0.21094 0,0.11719 0.0937,0.11719 0.0937,0.12891 h 0.29297 c 0.94921,0 0.94921,0.0937 0.94921,0.28125 0,0.0117 -0.22265,1.21875 -0.45703,1.57031 -0.45703,0.66797 -1.39453,0.94922 -2.09765,0.94922 -0.92578,0 -2.41407,-0.48047 -2.41407,-2.54297 0,-0.80859 0.28125,-2.63672 1.44141,-3.98438 0.75,-0.86718 1.86328,-1.45312 2.91797,-1.45312 1.40625,0 1.91016,1.21875 1.91016,2.30859 0,0.19922 -0.0469,0.45703 -0.0469,0.6211 0,0.11718 0.11719,0.11718 0.15234,0.11718 0.14063,0 0.15235,-0.0117 0.19922,-0.23437 z m 0,0"
         style="fill:#000000;fill-opacity:1;fill-rule:nonzero;stroke:none" />
      <path
         id="path8"
         d="m -48.006867,139.41577 c 0.01172,-0.0352 0.04687,-0.11718 0.04687,-0.16406 0,-0.0586 -0.04687,-0.11719 -0.117188,-0.11719 -0.04687,0 -0.07031,0.0117 -0.105468,0.0469 -0.02344,0.0117 -0.02344,0.0352 -0.140625,0.26953 -0.703125,1.67578 -1.21875,2.39062 -3.128907,2.39062 h -1.746093 c -0.164063,0 -0.1875,0 -0.257813,-0.0117 -0.128906,-0.0117 -0.140625,-0.0352 -0.140625,-0.12891 0,-0.082 0.02344,-0.15234 0.04687,-0.25781 l 0.820313,-3.30469 h 1.183593 c 0.9375,0 1.007813,0.21094 1.007813,0.5625 0,0.11719 0,0.23437 -0.08203,0.58594 -0.03516,0.0469 -0.04687,0.0937 -0.04687,0.1289 0,0.082 0.07031,0.12891 0.140625,0.12891 0.105468,0 0.117187,-0.0937 0.164062,-0.25781 l 0.679688,-2.77735 c 0,-0.0586 -0.04687,-0.11718 -0.117188,-0.11718 -0.105469,0 -0.117187,0.0469 -0.164062,0.22265 -0.246094,0.91406 -0.480469,1.1836 -1.546875,1.1836 h -1.136719 l 0.738281,-2.94141 c 0.117188,-0.42188 0.140625,-0.45703 0.621094,-0.45703 h 1.710937 c 1.476563,0 1.769532,0.39844 1.769532,1.30078 0,0.0117 0,0.35156 -0.04687,0.73828 -0.01172,0.0469 -0.02344,0.12891 -0.02344,0.15234 0,0.0937 0.05859,0.12891 0.128906,0.12891 0.08203,0 0.140625,-0.0469 0.164063,-0.26953 l 0.246094,-2.08594 c 0,-0.0352 0.02344,-0.15234 0.02344,-0.17578 0,-0.14062 -0.105469,-0.14062 -0.316406,-0.14062 h -5.835938 c -0.234375,0 -0.351562,0 -0.351562,0.22265 0,0.12891 0.08203,0.12891 0.292969,0.12891 0.738281,0 0.738281,0.082 0.738281,0.21094 0,0.0586 -0.01172,0.10546 -0.04687,0.24609 l -1.617188,6.45703 c -0.105468,0.41016 -0.128906,0.52734 -0.960937,0.52734 -0.234375,0 -0.351563,0 -0.351563,0.22266 0,0.12891 0.07031,0.12891 0.304688,0.12891 h 6 c 0.269531,0 0.28125,-0.0117 0.363281,-0.19922 z m 4.611328,-1.125 h 1.148437 c 0.902344,0 0.984375,0.21094 0.984375,0.55078 0,0.16407 -0.03516,0.32813 -0.09375,0.58594 -0.02344,0.0469 -0.03516,0.11719 -0.03516,0.14063 0,0.082 0.04687,0.1289 0.140625,0.1289 0.09375,0 0.105469,-0.0469 0.152344,-0.24609 l 0.691406,-2.77734 c 0,-0.0469 -0.03516,-0.11719 -0.117187,-0.11719 -0.105469,0 -0.117188,0.0469 -0.175782,0.24609 -0.246093,0.89063 -0.480468,1.14844 -1.523437,1.14844 h -1.089844 l 0.773438,-3.09375 c 0.117187,-0.42188 0.140625,-0.45703 0.621093,-0.45703 h 1.605469 c 1.5,0 1.710938,0.44531 1.710938,1.28906 0,0.0703 0,0.33984 -0.03516,0.64453 -0.01172,0.0469 -0.03516,0.21094 -0.03516,0.25781 0,0.0937 0.05859,0.12891 0.128906,0.12891 0.08203,0 0.128907,-0.0469 0.152344,-0.26953 l 0.257813,-2.08594 c 0,-0.0352 0.02344,-0.15234 0.02344,-0.17578 0,-0.14062 -0.105469,-0.14062 -0.328125,-0.14062 h -5.660156 c -0.234375,0 -0.351563,0 -0.351563,0.22265 0,0.12891 0.08203,0.12891 0.292969,0.12891 0.738281,0 0.738281,0.082 0.738281,0.21094 0,0.0586 -0.01172,0.10546 -0.04687,0.24609 l -1.617187,6.45703 c -0.105469,0.41016 -0.128906,0.52734 -0.960938,0.52734 -0.234375,0 -0.351562,0 -0.351562,0.22266 0,0.12891 0.105469,0.12891 0.175781,0.12891 0.234375,0 0.46875,-0.0234 0.691406,-0.0234 h 1.558594 c 0.257813,0 0.550781,0.0234 0.808594,0.0234 0.117187,0 0.257812,0 0.257812,-0.21094 0,-0.14063 -0.07031,-0.14063 -0.339843,-0.14063 -0.9375,0 -0.960938,-0.082 -0.960938,-0.25781 0,-0.0586 0.02344,-0.15234 0.04687,-0.23437 z m 0,0"
         style="fill:#000000;fill-opacity:1;fill-rule:nonzero;stroke:none" />
      <path
         id="path9"
         d="m 22.14157,139.41577 c 0.01172,-0.0352 0.04687,-0.11718 0.04687,-0.16406 0,-0.0586 -0.04687,-0.11719 -0.117187,-0.11719 -0.04687,0 -0.07031,0.0117 -0.105469,0.0469 -0.02344,0.0117 -0.02344,0.0352 -0.140625,0.26953 -0.703125,1.67578 -1.21875,2.39062 -3.128906,2.39062 h -1.746094 c -0.164062,0 -0.1875,0 -0.257812,-0.0117 -0.128907,-0.0117 -0.140625,-0.0352 -0.140625,-0.12891 0,-0.082 0.02344,-0.15234 0.04687,-0.25781 l 0.820312,-3.30469 h 1.183594 c 0.9375,0 1.007812,0.21094 1.007812,0.5625 0,0.11719 0,0.23437 -0.08203,0.58594 -0.03516,0.0469 -0.04687,0.0937 -0.04687,0.1289 0,0.082 0.07031,0.12891 0.140625,0.12891 0.105469,0 0.117188,-0.0937 0.164063,-0.25781 l 0.679687,-2.77735 c 0,-0.0586 -0.04687,-0.11718 -0.117187,-0.11718 -0.105469,0 -0.117188,0.0469 -0.164063,0.22265 -0.246094,0.91406 -0.480469,1.1836 -1.546875,1.1836 h -1.136719 l 0.738282,-2.94141 c 0.117187,-0.42188 0.140625,-0.45703 0.621093,-0.45703 h 1.710938 c 1.476562,0 1.769531,0.39844 1.769531,1.30078 0,0.0117 0,0.35156 -0.04687,0.73828 -0.01172,0.0469 -0.02344,0.12891 -0.02344,0.15234 0,0.0937 0.05859,0.12891 0.128906,0.12891 0.08203,0 0.140625,-0.0469 0.164062,-0.26953 l 0.246094,-2.08594 c 0,-0.0352 0.02344,-0.15234 0.02344,-0.17578 0,-0.14062 -0.105469,-0.14062 -0.316407,-0.14062 h -5.835937 c -0.234375,0 -0.351563,0 -0.351563,0.22265 0,0.12891 0.08203,0.12891 0.292969,0.12891 0.738281,0 0.738281,0.082 0.738281,0.21094 0,0.0586 -0.01172,0.10546 -0.04687,0.24609 l -1.617187,6.45703 c -0.105469,0.41016 -0.128906,0.52734 -0.960938,0.52734 -0.234375,0 -0.351562,0 -0.351562,0.22266 0,0.12891 0.07031,0.12891 0.304687,0.12891 h 6 c 0.269532,0 0.28125,-0.0117 0.363282,-0.19922 z m 4.611328,-1.125 h 1.148438 c 0.902344,0 0.984375,0.21094 0.984375,0.55078 0,0.16407 -0.03516,0.32813 -0.09375,0.58594 -0.02344,0.0469 -0.03516,0.11719 -0.03516,0.14063 0,0.082 0.04687,0.1289 0.140625,0.1289 0.09375,0 0.105468,-0.0469 0.152343,-0.24609 l 0.691407,-2.77734 c 0,-0.0469 -0.03516,-0.11719 -0.117188,-0.11719 -0.105469,0 -0.117187,0.0469 -0.175781,0.24609 -0.246094,0.89063 -0.480469,1.14844 -1.523438,1.14844 H 26.83493 l 0.773437,-3.09375 c 0.117188,-0.42188 0.140625,-0.45703 0.621094,-0.45703 h 1.605469 c 1.5,0 1.710937,0.44531 1.710937,1.28906 0,0.0703 0,0.33984 -0.03516,0.64453 -0.01172,0.0469 -0.03516,0.21094 -0.03516,0.25781 0,0.0937 0.05859,0.12891 0.128906,0.12891 0.08203,0 0.128906,-0.0469 0.152344,-0.26953 l 0.257812,-2.08594 c 0,-0.0352 0.02344,-0.15234 0.02344,-0.17578 0,-0.14062 -0.105469,-0.14062 -0.328125,-0.14062 h -5.660157 c -0.234375,0 -0.351562,0 -0.351562,0.22265 0,0.12891 0.08203,0.12891 0.292969,0.12891 0.738281,0 0.738281,0.082 0.738281,0.21094 0,0.0586 -0.01172,0.10546 -0.04687,0.24609 l -1.617188,6.45703 c -0.105468,0.41016 -0.128906,0.52734 -0.960937,0.52734 -0.234375,0 -0.351563,0 -0.351563,0.22266 0,0.12891 0.105469,0.12891 0.175782,0.12891 0.234375,0 0.46875,-0.0234 0.691406,-0.0234 h 1.558594 c 0.257812,0 0.550781,0.0234 0.808593,0.0234 0.117188,0 0.257813,0 0.257813,-0.21094 0,-0.14063 -0.07031,-0.14063 -0.339844,-0.14063 -0.9375,0 -0.960937,-0.082 -0.960937,-0.25781 0,-0.0586 0.02344,-0.15234 0.04687,-0.23437 z m 0,0"
         style="fill:#000000;fill-opacity:1;fill-rule:nonzero;stroke:none" />
      <path
         id="path10"
         d="m 64.89157,134.84546 c 0.117188,-0.44531 0.164063,-0.46875 0.621094,-0.46875 h 1.558594 c 1.347656,0 1.347656,1.14844 1.347656,1.25391 0,0.97265 -0.960937,2.20312 -2.542969,2.20312 h -1.722656 z m 2.027344,3.08203 c 1.300781,-0.24609 2.484375,-1.14844 2.484375,-2.25 0,-0.92578 -0.832031,-1.65234 -2.179687,-1.65234 H 63.39157 c -0.234375,0 -0.339843,0 -0.339843,0.23437 0,0.11719 0.105468,0.11719 0.292968,0.11719 0.726563,0 0.726563,0.0937 0.726563,0.22266 0,0.0234 0,0.0937 -0.04687,0.28125 l -1.617188,6.43359 c -0.105468,0.41016 -0.128906,0.52734 -0.960937,0.52734 -0.234375,0 -0.351563,0 -0.351563,0.22266 0,0.12891 0.07031,0.12891 0.304688,0.12891 h 4.101562 c 1.828125,0 3.246094,-1.38282 3.246094,-2.58985 0,-0.98437 -0.867187,-1.58203 -1.828125,-1.67578 z m -1.699219,3.91406 h -1.617187 c -0.164063,0 -0.1875,0 -0.257813,-0.0117 -0.128906,-0.0117 -0.152343,-0.0352 -0.152343,-0.12891 0,-0.082 0.03516,-0.15234 0.05859,-0.25781 l 0.832032,-3.375 h 2.25 c 1.40625,0 1.40625,1.3125 1.40625,1.40625 0,1.14843 -1.042969,2.36718 -2.519532,2.36718 z m 13.710938,-7.95703 c 0,-0.10547 -0.08203,-0.10547 -0.105469,-0.10547 -0.02344,0 -0.07031,0 -0.175781,0.11719 l -0.820313,0.9961 c -0.05859,-0.0937 -0.292968,-0.51563 -0.761718,-0.79688 -0.515625,-0.31641 -1.03125,-0.31641 -1.207032,-0.31641 -2.554687,0 -5.25,2.60157 -5.25,5.42579 0,1.96875 1.359375,3.23437 3.152344,3.23437 0.867188,0 1.957031,-0.28125 2.554688,-1.03125 0.128906,0.44531 0.386718,0.77344 0.46875,0.77344 0.05859,0 0.07031,-0.0352 0.08203,-0.0352 0.02344,-0.0234 0.117187,-0.44531 0.175781,-0.65625 l 0.1875,-0.76172 c 0.09375,-0.39843 0.140625,-0.5625 0.222656,-0.92578 0.128907,-0.45703 0.152344,-0.49219 0.808594,-0.5039 0.04687,0 0.1875,0 0.1875,-0.22266 0,-0.11719 -0.117187,-0.11719 -0.152344,-0.11719 -0.199218,0 -0.433593,0.0234 -0.644531,0.0234 h -0.644531 c -0.503906,0 -1.03125,-0.0234 -1.523438,-0.0234 -0.105468,0 -0.246093,0 -0.246093,0.21094 0,0.11719 0.09375,0.11719 0.09375,0.12891 h 0.292968 c 0.949219,0 0.949219,0.0937 0.949219,0.28125 0,0.0117 -0.222656,1.21875 -0.457031,1.57031 -0.457031,0.66797 -1.394531,0.94922 -2.097656,0.94922 -0.925782,0 -2.414063,-0.48047 -2.414063,-2.54297 0,-0.8086 0.28125,-2.63672 1.441406,-3.98438 0.75,-0.86718 1.863282,-1.45312 2.917969,-1.45312 1.40625,0 1.910156,1.21875 1.910156,2.30859 0,0.19922 -0.04687,0.45703 -0.04687,0.6211 0,0.11718 0.117188,0.11718 0.152344,0.11718 0.140625,0 0.152344,-0.0117 0.199219,-0.23437 z m 0,0"
         style="fill:#000000;fill-opacity:1;fill-rule:nonzero;stroke:none" />
      <path
         id="path11"
         d="M 5.9374688,154.6355 H 5.6679375 c -0.035156,0.19922 -0.1289062,0.85547 -0.2460937,1.04297 -0.082031,0.11719 -0.7617188,0.11719 -1.125,0.11719 H 2.082 c 0.328125,-0.28125 1.0546875,-1.04297 1.3710938,-1.33594 1.8164062,-1.66406 2.484375,-2.28516 2.484375,-3.46875 0,-1.38281 -1.0898438,-2.29688 -2.4726563,-2.29688 -1.3945312,0 -2.203125,1.1836 -2.203125,2.20313 0,0.60937 0.5273438,0.60937 0.5625,0.60937 0.2460938,0 0.5625,-0.17578 0.5625,-0.5625 0,-0.32812 -0.234375,-0.55078 -0.5625,-0.55078 -0.1054687,0 -0.1289062,0 -0.1640625,0.0117 0.2226563,-0.82031 0.8671875,-1.37109 1.640625,-1.37109 1.0195313,0 1.640625,0.85547 1.640625,1.95703 0,1.00781 -0.5859375,1.89844 -1.265625,2.66016 l -2.4140625,2.70703 v 0.28125 h 4.359375 z m 4.1542972,-2.30859 c 0.597656,-0.32813 1.464843,-0.87891 1.464843,-1.875 0,-1.04297 -0.996093,-1.75782 -2.0976559,-1.75782 -1.1835937,0 -2.1210937,0.86719 -2.1210937,1.95704 0,0.41015 0.1289062,0.80859 0.4570312,1.21875 0.1289063,0.15234 0.140625,0.16406 0.984375,0.75 -1.1601562,0.53906 -1.7578125,1.34765 -1.7578125,2.21484 0,1.26562 1.2070313,2.05078 2.4257813,2.05078 1.3242186,0 2.4374996,-0.97266 2.4374996,-2.22656 0,-1.21875 -0.855468,-1.75781 -1.792968,-2.33203 z m -1.6289066,-1.07813 c -0.1523438,-0.10547 -0.6328125,-0.42187 -0.6328125,-1.00781 0,-0.77344 0.8203125,-1.26563 1.6171875,-1.26563 0.8554686,0 1.6289066,0.6211 1.6289066,1.48829 0,0.72656 -0.527344,1.3125 -1.2187504,1.6875 z m 0.5625,1.54688 1.4531246,0.9375 c 0.304688,0.19922 0.855469,0.57422 0.855469,1.30078 0,0.91406 -0.914062,1.53515 -1.8749999,1.53515 -1.0195312,0 -1.8867187,-0.73828 -1.8867187,-1.73437 0,-0.9375 0.6796875,-1.6875 1.453125,-2.03906 z m 0,0"
         style="fill:#000000;fill-opacity:1;fill-rule:nonzero;stroke:none" />
      <path
         id="path12"
         d="m 284.96677,196.22241 c 0,2.82422 -1.25391,3.41016 -1.96875,3.41016 -0.28125,0 -0.92579,-0.0352 -1.21875,-0.45703 h 0.0703 c 0.082,0.0234 0.51562,-0.0469 0.51562,-0.49219 0,-0.25781 -0.17578,-0.49219 -0.49218,-0.49219 -0.30469,0 -0.50391,0.21094 -0.50391,0.51563 0,0.75 0.59766,1.24219 1.64062,1.24219 1.5,0 2.94141,-1.58203 2.94141,-4.1836 0,-3.21093 -1.33594,-4.00781 -2.39062,-4.00781 -1.3125,0 -2.47266,1.10156 -2.47266,2.67188 0,1.58203 1.11328,2.66015 2.30859,2.66015 0.87891,0 1.33594,-0.64453 1.57032,-1.2539 z m -1.52344,0.6211 c -0.75,0 -1.07813,-0.60938 -1.1836,-0.83203 -0.19921,-0.45703 -0.19921,-1.03125 -0.19921,-1.57032 0,-0.66796 0,-1.24218 0.3164,-1.73437 0.21094,-0.31641 0.53906,-0.66797 1.1836,-0.66797 0.67968,0 1.03125,0.59766 1.14843,0.87891 0.23438,0.58593 0.23438,1.59375 0.23438,1.78125 0,0.99609 -0.44531,2.14453 -1.5,2.14453 z m 8.36133,-0.96094 c 0,-0.99609 -0.0586,-1.96875 -0.49219,-2.87109 -0.49219,-0.9961 -1.34766,-1.25391 -1.93359,-1.25391 -0.69141,0 -1.54688,0.33984 -1.98047,1.33594 -0.33985,0.75 -0.45703,1.48828 -0.45703,2.78906 0,1.16016 0.082,2.02734 0.51562,2.87109 0.45703,0.91407 1.28906,1.19532 1.91016,1.19532 1.04297,0 1.64062,-0.6211 1.98047,-1.3125 0.43359,-0.89063 0.45703,-2.0625 0.45703,-2.75391 z m -2.4375,3.83203 c -0.38672,0 -1.16016,-0.21094 -1.38282,-1.52344 -0.14062,-0.71484 -0.14062,-1.61718 -0.14062,-2.46093 0,-0.97266 0,-1.86328 0.19922,-2.56641 0.19922,-0.79687 0.80859,-1.17187 1.32422,-1.17187 0.45703,0 1.14843,0.28125 1.37109,1.30078 0.15234,0.67968 0.15234,1.6289 0.15234,2.4375 0,0.80859 0,1.71093 -0.1289,2.4375 -0.22266,1.32422 -0.97266,1.54687 -1.39453,1.54687 z m 0,0"
         style="fill:#000000;fill-opacity:1;fill-rule:nonzero;stroke:none" />
      <path
         id="path13"
         d="m 227.71188,209.86011 c -0.21093,0.0117 -0.25781,0.0234 -0.25781,0.12891 0,0.11718 0.0586,0.11718 0.28125,0.11718 h 0.55078 c 1.00781,0 1.46485,0.84375 1.46485,1.99219 0,1.55859 -0.8086,1.98047 -1.39454,1.98047 -0.57421,0 -1.55859,-0.28125 -1.89843,-1.06641 0.375,0.0586 0.72656,-0.15234 0.72656,-0.58593 0,-0.33985 -0.25781,-0.58594 -0.58594,-0.58594 -0.29297,0 -0.59765,0.16406 -0.59765,0.62109 0,1.06641 1.0664,1.9336 2.39062,1.9336 1.41797,0 2.47266,-1.07813 2.47266,-2.28516 0,-1.10156 -0.89063,-1.96875 -2.02735,-2.16797 1.03125,-0.30469 1.69922,-1.17187 1.69922,-2.10937 0,-0.9375 -0.97265,-1.62891 -2.13281,-1.62891 -1.19531,0 -2.08594,0.72656 -2.08594,1.59375 0,0.48047 0.375,0.57422 0.55078,0.57422 0.25782,0 0.53907,-0.17578 0.53907,-0.53906 0,-0.375 -0.28125,-0.53907 -0.55079,-0.53907 -0.0703,0 -0.0937,0 -0.1289,0.0117 0.45703,-0.82031 1.58203,-0.82031 1.64062,-0.82031 0.38672,0 1.17188,0.17578 1.17188,1.34766 0,0.23437 -0.0352,0.90234 -0.38672,1.41796 -0.35156,0.52735 -0.76172,0.5625 -1.08984,0.57422 z m 9.00586,0.46875 c 0,-0.99609 -0.0586,-1.96875 -0.49219,-2.87109 -0.49218,-0.9961 -1.34765,-1.25391 -1.93359,-1.25391 -0.69141,0 -1.54687,0.33984 -1.98047,1.33594 -0.33984,0.75 -0.45703,1.48828 -0.45703,2.78906 0,1.16016 0.082,2.02734 0.51563,2.87109 0.45703,0.91407 1.28906,1.19532 1.91015,1.19532 1.04297,0 1.64063,-0.6211 1.98047,-1.3125 0.43359,-0.89063 0.45703,-2.0625 0.45703,-2.75391 z m -2.4375,3.83203 c -0.38672,0 -1.16015,-0.21094 -1.38281,-1.52344 -0.14063,-0.71484 -0.14063,-1.61718 -0.14063,-2.46093 0,-0.97266 0,-1.86329 0.19922,-2.56641 0.19922,-0.79688 0.8086,-1.17188 1.32422,-1.17188 0.45703,0 1.14844,0.28125 1.3711,1.30079 0.15234,0.67968 0.15234,1.6289 0.15234,2.4375 0,0.80859 0,1.71093 -0.12891,2.4375 -0.22265,1.32421 -0.97265,1.54687 -1.39453,1.54687 z m 4.40039,-4.17187 c 0,-3.02344 1.47657,-3.50391 2.1211,-3.50391 0.43359,0 0.85547,0.12891 1.08984,0.49219 -0.14062,0 -0.59766,0 -0.59766,0.49218 0,0.25782 0.17579,0.49219 0.49219,0.49219 0.29297,0 0.49219,-0.1875 0.49219,-0.52734 0,-0.6211 -0.44531,-1.23047 -1.48828,-1.23047 -1.51172,0 -3.08203,1.53516 -3.08203,4.17187 0,3.28125 1.42968,4.01954 2.44922,4.01954 1.30078,0 2.41406,-1.125 2.41406,-2.6836 0,-1.59375 -1.11328,-2.66015 -2.3086,-2.66015 -1.0664,0 -1.45312,0.92578 -1.58203,1.26562 z m 1.47657,4.08984 c -0.75,0 -1.11329,-0.66797 -1.21875,-0.92578 -0.10547,-0.30469 -0.22266,-0.89063 -0.22266,-1.73438 0,-0.9375 0.42187,-2.12109 1.5,-2.12109 0.65625,0 1.00781,0.44531 1.18359,0.84375 0.1875,0.44531 0.1875,1.04297 0.1875,1.55859 0,0.60938 0,1.14844 -0.22265,1.60547 -0.30469,0.57422 -0.72657,0.77344 -1.20703,0.77344 z m 0,0"
         style="fill:#000000;fill-opacity:1;fill-rule:nonzero;stroke:none" />
      <path
         id="path14"
         d="m 22.586883,267.34058 c 0,-0.98438 0.269531,-3.25781 2.390625,-4.76953 0.152344,-0.11719 0.164062,-0.12891 0.164062,-0.33985 0,-0.28125 -0.01172,-0.29297 -0.304687,-0.29297 h -0.1875 c -2.578125,1.38282 -3.492188,3.64454 -3.492188,5.40235 v 5.14453 c 0,0.30469 0.01172,0.31641 0.328125,0.31641 h 0.773438 c 0.316406,0 0.328125,-0.0117 0.328125,-0.31641 z m -1.429688,26.66308 c 0,0.30469 0.01172,0.31641 0.328125,0.31641 h 0.773438 c 0.316406,0 0.328125,-0.0117 0.328125,-0.31641 v -5.05078 c 0,-1.4414 -0.609375,-3.8789 -3.28125,-5.50781 2.695312,-1.64062 3.28125,-4.10156 3.28125,-5.50781 v -5.05078 c 0,-0.30469 -0.01172,-0.31641 -0.328125,-0.31641 H 21.48532 c -0.316406,0 -0.328125,0.0117 -0.328125,0.31641 v 5.0625 c 0,0.99609 -0.222656,3.49218 -2.414062,5.15625 -0.140625,0.11718 -0.152344,0.1289 -0.152344,0.33984 0,0.21094 0.01172,0.22266 0.152344,0.33984 0.304687,0.23438 1.136719,0.86719 1.710937,2.07422 0.457032,0.96094 0.703125,2.01563 0.703125,3.08203 z m 3.679688,10.94825 c 0.292969,0 0.304687,-0.0117 0.304687,-0.28125 0,-0.22266 -0.01172,-0.23438 -0.05859,-0.26953 -0.363282,-0.26954 -1.230469,-0.87891 -1.792969,-1.98047 -0.46875,-0.91407 -0.703125,-1.82813 -0.703125,-2.8711 v -5.14453 c 0,-0.30469 -0.01172,-0.3164 -0.328125,-0.3164 H 21.48532 c -0.316406,0 -0.328125,0.0117 -0.328125,0.3164 v 5.14453 c 0,1.76953 0.914063,4.03125 3.492188,5.40235 z m 0,0"
         style="fill:#000000;fill-opacity:1;fill-rule:nonzero;stroke:none" />
      <path
         id="path15"
         d="m 30.787078,271.25171 c -0.05859,0.19922 -0.05859,0.22266 -0.222656,0.44531 -0.269531,0.33985 -0.796875,0.85547 -1.359375,0.85547 -0.480469,0 -0.761719,-0.44531 -0.761719,-1.14844 0,-0.65625 0.375,-1.99218 0.597656,-2.49609 0.410157,-0.84375 0.972657,-1.26562 1.441407,-1.26562 0.785156,0 0.9375,0.97265 0.9375,1.0664 0,0.0117 -0.03516,0.17578 -0.04687,0.19922 z m 0.761719,-3.07031 c -0.128906,-0.30469 -0.445313,-0.78516 -1.066406,-0.78516 -1.359375,0 -2.8125,1.7461 -2.8125,3.51563 0,1.18359 0.691406,1.875 1.5,1.875 0.65625,0 1.21875,-0.51563 1.558593,-0.90235 0.117188,0.70313 0.679688,0.90235 1.042969,0.90235 0.351563,0 0.644531,-0.21094 0.855469,-0.64453 0.1875,-0.41016 0.363281,-1.13672 0.363281,-1.1836 0,-0.0586 -0.04687,-0.10547 -0.117187,-0.10547 -0.117188,0 -0.128907,0.0586 -0.175782,0.23438 -0.175781,0.71484 -0.398437,1.46484 -0.890625,1.46484 -0.351562,0 -0.375,-0.3164 -0.375,-0.55078 0,-0.28125 0.03516,-0.41016 0.140625,-0.87891 0.08203,-0.29296 0.152344,-0.5625 0.246094,-0.90234 0.433594,-1.79297 0.550781,-2.22656 0.550781,-2.29687 0,-0.16407 -0.140625,-0.29297 -0.316406,-0.29297 -0.375,0 -0.480469,0.41015 -0.503906,0.55078 z m 0,0"
         style="fill:#000000;fill-opacity:1;fill-rule:nonzero;stroke:none" />
      <path
         id="path16"
         d="m 40.759734,269.90405 h 3.304688 c 0.164062,0 0.375,0 0.375,-0.21093 0,-0.22266 -0.199219,-0.22266 -0.375,-0.22266 h -3.304688 v -3.30469 c 0,-0.16406 0,-0.38672 -0.210937,-0.38672 -0.234375,0 -0.234375,0.21094 -0.234375,0.38672 v 3.30469 h -3.292969 c -0.175781,0 -0.386719,0 -0.386719,0.21094 0,0.22265 0.199219,0.22265 0.386719,0.22265 h 3.292969 v 3.30469 c 0,0.16406 0,0.38672 0.222656,0.38672 0.222656,0 0.222656,-0.21094 0.222656,-0.38672 z m 0,0"
         style="fill:#000000;fill-opacity:1;fill-rule:nonzero;stroke:none" />
      <path
         id="path17"
         d="m 50.518523,264.67749 c 0.01172,-0.0469 0.03516,-0.1289 0.03516,-0.1875 0,-0.11719 -0.128907,-0.11719 -0.152344,-0.11719 -0.01172,0 -0.433594,0.0352 -0.65625,0.0586 -0.199219,0.0117 -0.375,0.0351 -0.597656,0.0469 -0.28125,0.0234 -0.363282,0.0352 -0.363282,0.25782 0,0.11718 0.117188,0.11718 0.234375,0.11718 0.609375,0 0.609375,0.10547 0.609375,0.22266 0,0.082 -0.09375,0.43359 -0.140625,0.64453 l -0.292968,1.14844 c -0.117188,0.48047 -0.796875,3.19922 -0.84375,3.41015 -0.05859,0.29297 -0.05859,0.50391 -0.05859,0.65625 0,1.21875 0.679687,1.85157 1.453125,1.85157 1.394531,0 2.824219,-1.78125 2.824219,-3.51563 0,-1.10156 -0.621094,-1.875 -1.511719,-1.875 -0.632813,0 -1.183594,0.51563 -1.417969,0.75 z m -0.761718,7.875 c -0.375,0 -0.796875,-0.29297 -0.796875,-1.21875 0,-0.39844 0.03516,-0.62109 0.246093,-1.46484 0.04687,-0.15235 0.234375,-0.91406 0.28125,-1.06641 0.02344,-0.10547 0.726563,-1.16015 1.535157,-1.16015 0.527343,0 0.773437,0.51562 0.773437,1.13671 0,0.57422 -0.339844,1.9336 -0.632812,2.55469 -0.304688,0.64453 -0.855469,1.21875 -1.40625,1.21875 z m 0,0"
         style="fill:#000000;fill-opacity:1;fill-rule:nonzero;stroke:none" />
      <path
         id="path18"
         d="m 64.123992,268.80249 c 0.164063,0 0.375,0 0.375,-0.22265 0,-0.22266 -0.199219,-0.22266 -0.375,-0.22266 h -7.042969 c -0.175781,0 -0.386718,0 -0.386718,0.21094 0,0.23437 0.199218,0.23437 0.386718,0.23437 z m 0,2.21485 c 0.164063,0 0.375,0 0.375,-0.21094 0,-0.23438 -0.199219,-0.23438 -0.375,-0.23438 h -7.042969 c -0.175781,0 -0.386718,0 -0.386718,0.22266 0,0.22266 0.199218,0.22266 0.386718,0.22266 z m 7.798828,-6.01172 c 0,-0.26953 0,-0.28125 -0.246093,-0.28125 -0.28125,0.3164 -0.878907,0.76172 -2.109375,0.76172 v 0.35156 c 0.269531,0 0.867187,0 1.523437,-0.31641 v 6.22266 c 0,0.43359 -0.03516,0.57422 -1.078125,0.57422 h -0.375 v 0.35156 c 0.316406,-0.0234 1.476563,-0.0234 1.875,-0.0234 0.398438,0 1.546875,0 1.863281,0.0234 v -0.35156 h -0.363281 c -1.054687,0 -1.089844,-0.14063 -1.089844,-0.57422 z m -32.039062,12.90527 c 0,-0.26953 0,-0.28125 -0.246094,-0.28125 -0.28125,0.31641 -0.878906,0.76172 -2.109375,0.76172 v 0.35156 c 0.269531,0 0.867188,0 1.523438,-0.3164 v 6.22265 c 0,0.4336 -0.03516,0.57422 -1.078125,0.57422 h -0.375 v 0.35156 c 0.316406,-0.0234 1.476562,-0.0234 1.875,-0.0234 0.398437,0 1.546875,0 1.863281,0.0234 v -0.35156 h -0.363281 c -1.054688,0 -1.089844,-0.14062 -1.089844,-0.57422 z m 0,0"
         style="fill:#000000;fill-opacity:1;fill-rule:nonzero;stroke:none" />
    </g>
    <path
       id="path19"
       d="M 0,0 H 21.961"
       style="fill:none;stroke:#000000;stroke-width:0.478;stroke-linecap:butt;stroke-linejoin:miter;stroke-miterlimit:10;stroke-dasharray:none;stroke-opacity:1"
       transform="matrix(1.3333333,0,0,-1.3333333,312.56933,443.63333)" />
    <g
       id="g19"
       aria-label="2&#10;√"
       transform="matrix(1.3333333,0,0,1.3333333,312.56933,458.62133)">
      <path
         id="path20"
         d="M 5.2624531,-2.0040859 H 4.9929219 c -0.035156,0.1992187 -0.1289063,0.8554687 -0.2460938,1.04296871 -0.082031,0.1171875 -0.7617187,0.1171875 -1.125,0.1171875 H 1.4069844 c 0.328125,-0.28125001 1.0546875,-1.04296871 1.3710937,-1.33593751 1.8164063,-1.6640625 2.484375,-2.2851562 2.484375,-3.46875 0,-1.3828125 -1.0898437,-2.296875 -2.4726562,-2.296875 -1.3945313,0 -2.20312503,1.1835938 -2.20312503,2.203125 0,0.609375 0.52734373,0.609375 0.56250003,0.609375 0.2460937,0 0.5625,-0.1757812 0.5625,-0.5625 0,-0.328125 -0.234375,-0.5507812 -0.5625,-0.5507812 -0.1054688,0 -0.1289063,0 -0.16406253,0.011719 0.22265623,-0.8203125 0.86718753,-1.3710937 1.64062503,-1.3710937 1.0195312,0 1.640625,0.8554687 1.640625,1.9570312 0,1.0078125 -0.5859375,1.8984375 -1.265625,2.6601563 L 0.58667187,-0.28142969 V -1.796875e-4 H 4.9460469 Z m 0,0"
         style="fill:#000000;fill-opacity:1;fill-rule:nonzero;stroke:none" />
      <path
         id="path21"
         d="M 10.506594,1.6082188 8.3972187,-3.044125 c -0.082031,-0.1875 -0.140625,-0.1875 -0.1757812,-0.1875 -0.011719,0 -0.070312,0 -0.1992188,0.09375 L 6.8855,-2.2706875 c -0.1640625,0.1171875 -0.1640625,0.1523438 -0.1640625,0.1875 0,0.058594 0.046875,0.1289063 0.1289062,0.1289063 0.070312,0 0.2695313,-0.1640625 0.3984375,-0.2578125 0.070312,-0.058594 0.2578125,-0.1992188 0.3867188,-0.2929688 L 9.9909687,2.674625 c 0.082031,0.1875 0.1406253,0.1875 0.2460933,0.1875 0.1875,0 0.222657,-0.070312 0.304688,-0.234375 l 5.425781,-11.2382812 c 0.08203,-0.1640625 0.08203,-0.2109375 0.08203,-0.234375 0,-0.1289063 -0.09375,-0.2460938 -0.234375,-0.2460938 -0.09375,0 -0.1875,0.058594 -0.28125,0.2578125 z m 0,0"
         style="fill:#000000;fill-opacity:1;fill-rule:nonzero;stroke:none" />
    </g>
    <path
       id="path22"
       d="M 0,0 H 6.145"
       style="fill:none;stroke:#000000;stroke-width:0.478;stroke-linecap:butt;stroke-linejoin:miter;stroke-miterlimit:10;stroke-dasharray:none;stroke-opacity:1"
       transform="matrix(1.3333333,0,0,-1.3333333,333.65733,446.82133)" />
    <g
       id="g22"
       aria-label="a&#10;+&#10;1"
       transform="matrix(1.3333333,0,0,1.3333333,333.65733,458.62133)">
      <path
         id="path23"
         d="m 3.5968438,-1.4181484 c -0.058594,0.1992187 -0.058594,0.2226562 -0.2226563,0.44531246 -0.2695312,0.33984375 -0.796875,0.85546875 -1.359375,0.85546875 -0.4804687,0 -0.7617187,-0.4453125 -0.7617187,-1.14843751 0,-0.65625 0.375,-1.9921875 0.5976562,-2.4960937 0.4101563,-0.84375 0.9726563,-1.265625 1.4414063,-1.265625 0.7851562,0 0.9375,0.9726562 0.9375,1.0664062 0,0.011719 -0.035156,0.1757813 -0.046875,0.1992188 z M 4.3585625,-4.4884609 C 4.2296563,-4.7931484 3.91325,-5.2736172 3.2921563,-5.2736172 c -1.359375,0 -2.81250005,1.7460938 -2.81250005,3.515625 0,1.18359376 0.69140625,1.87500001 1.50000005,1.87500001 0.65625,0 1.21875,-0.515625 1.5585937,-0.90234375 0.1171875,0.703125 0.6796875,0.90234375 1.0429688,0.90234375 0.3515625,0 0.6445312,-0.2109375 0.8554687,-0.64453125 0.1875,-0.41015625 0.3632813,-1.13671876 0.3632813,-1.18359376 0,-0.058594 -0.046875,-0.1054687 -0.1171875,-0.1054687 -0.1171875,0 -0.1289063,0.058594 -0.1757813,0.234375 -0.1757812,0.71484371 -0.3984375,1.46484371 -0.890625,1.46484371 -0.3515625,0 -0.375,-0.31640625 -0.375,-0.55078125 0,-0.28125 0.035156,-0.41015626 0.140625,-0.87890626 0.082031,-0.2929687 0.1523438,-0.5625 0.2460938,-0.9023437 0.4335937,-1.7929688 0.5507812,-2.2265625 0.5507812,-2.296875 0,-0.1640625 -0.140625,-0.2929688 -0.3164062,-0.2929688 -0.375,0 -0.4804688,0.4101563 -0.5039063,0.5507813 z m 0,0"
         style="fill:#000000;fill-opacity:1;fill-rule:nonzero;stroke:none" />
      <path
         id="path24"
         d="m 14.767742,-11.018734 h 3.304688 c 0.164062,0 0.375,0 0.375,-0.210938 0,-0.222656 -0.199219,-0.222656 -0.375,-0.222656 h -3.304688 v -3.304688 c 0,-0.164062 0,-0.386718 -0.210937,-0.386718 -0.234375,0 -0.234375,0.210937 -0.234375,0.386718 v 3.304688 h -3.292969 c -0.175781,0 -0.386719,0 -0.386719,0.210937 0,0.222657 0.199219,0.222657 0.386719,0.222657 h 3.292969 v 3.3046871 c 0,0.1640625 0,0.3867188 0.222656,0.3867188 0.222656,0 0.222656,-0.2109375 0.222656,-0.3867188 z m 19.101563,-12.984375 c 0,-0.269532 0,-0.28125 -0.246094,-0.28125 -0.28125,0.316406 -0.878906,0.761718 -2.109375,0.761718 v 0.351563 c 0.269531,0 0.867187,0 1.523437,-0.316406 v 6.222656 c 0,0.433594 -0.03516,0.574219 -1.078125,0.574219 h -0.375 v 0.351562 c 0.316407,-0.02344 1.476563,-0.02344 1.875,-0.02344 0.398438,0 1.546875,0 1.863282,0.02344 v -0.351562 h -0.363282 c -1.054687,0 -1.089843,-0.140625 -1.089843,-0.574219 z m 0,0"
         style="fill:#000000;fill-opacity:1;fill-rule:nonzero;stroke:none" />
    </g>
    <path
       id="path25"
       d="M 0,0 H 20.793"
       style="fill:none;stroke:#000000;stroke-width:0.478;stroke-linecap:butt;stroke-linejoin:miter;stroke-miterlimit:10;stroke-dasharray:none;stroke-opacity:1"
       transform="matrix(1.3333333,0,0,-1.3333333,364.26267,443.63333)" />
    <g
       id="g25"
       aria-label="2&#10;√"
       transform="matrix(1.3333333,0,0,1.3333333,364.26267,460.72533)">
      <path
         id="path26"
         d="M 5.2610078,-2.0029844 H 4.9914766 c -0.035156,0.1992188 -0.1289063,0.8554688 -0.2460938,1.04296878 -0.082031,0.1171875 -0.7617187,0.1171875 -1.125,0.1171875 H 1.4055391 c 0.328125,-0.28124998 1.0546875,-1.04296878 1.3710937,-1.33593748 1.8164063,-1.6640625 2.484375,-2.2851563 2.484375,-3.46875 0,-1.3828125 -1.0898437,-2.296875 -2.4726562,-2.296875 -1.3945313,0 -2.20312504,1.1835937 -2.20312504,2.203125 0,0.609375 0.52734374,0.609375 0.56250004,0.609375 0.2460937,0 0.5625,-0.1757813 0.5625,-0.5625 0,-0.328125 -0.234375,-0.5507813 -0.5625,-0.5507813 -0.1054688,0 -0.1289063,0 -0.16406254,0.011719 0.22265624,-0.8203125 0.86718754,-1.3710938 1.64062504,-1.3710938 1.0195312,0 1.640625,0.8554688 1.640625,1.9570313 0,1.0078125 -0.5859375,1.8984375 -1.265625,2.6601562 L 0.58522656,-0.28032812 V 9.21875e-4 H 4.9446016 Z m 0,0"
         style="fill:#000000;fill-opacity:1;fill-rule:nonzero;stroke:none" />
      <path
         id="path27"
         d="M 10.505148,0.03021875 8.3957734,-4.622125 c -0.082031,-0.1875 -0.140625,-0.1875 -0.1757812,-0.1875 -0.011719,0 -0.070312,0 -0.1992188,0.09375 l -1.1367187,0.8671875 c -0.1640625,0.1171875 -0.1640625,0.1523438 -0.1640625,0.1875 0,0.058594 0.046875,0.1289063 0.1289062,0.1289063 0.070312,0 0.2695313,-0.1640625 0.3984375,-0.2578125 0.070312,-0.058594 0.2578125,-0.1992188 0.3867188,-0.2929688 L 9.9895234,1.096625 c 0.082032,0.1875 0.1406246,0.1875 0.2460936,0.1875 0.1875,0 0.222656,-0.070312 0.304688,-0.234375 l 5.425781,-11.238281 c 0.08203,-0.164063 0.08203,-0.210938 0.08203,-0.234375 0,-0.128906 -0.09375,-0.246094 -0.234375,-0.246094 -0.09375,0 -0.1875,0.05859 -0.28125,0.257813 z m 0,0"
         style="fill:#000000;fill-opacity:1;fill-rule:nonzero;stroke:none" />
    </g>
    <path
       id="path28"
       d="M 0,0 H 4.977"
       style="fill:none;stroke:#000000;stroke-width:0.478;stroke-linecap:butt;stroke-linejoin:miter;stroke-miterlimit:10;stroke-dasharray:none;stroke-opacity:1"
       transform="matrix(1.3333333,0,0,-1.3333333,385.35067,446.82133)" />
    <g
       id="g28"
       aria-label="b&#10;=&#10;2"
       transform="matrix(1.3333333,0,0,1.3333333,385.35067,460.72533)">
      <path
         id="path29"
         d="m 2.7662969,-7.9912656 c 0.011719,-0.046875 0.035156,-0.1289063 0.035156,-0.1875 0,-0.1171875 -0.1289062,-0.1171875 -0.1523437,-0.1171875 -0.011719,0 -0.4335938,0.035156 -0.65625,0.058594 -0.1992188,0.011719 -0.375,0.035156 -0.5976563,0.046875 -0.28125,0.023437 -0.3632812,0.035156 -0.3632812,0.2578125 0,0.1171875 0.1171875,0.1171875 0.234375,0.1171875 0.609375,0 0.609375,0.1054688 0.609375,0.2226563 0,0.082031 -0.09375,0.4335937 -0.140625,0.6445312 l -0.2929688,1.1484375 c -0.1171875,0.4804688 -0.79687497,3.1992188 -0.84374997,3.4101563 -0.0585938,0.2929687 -0.0585938,0.5039062 -0.0585938,0.65625 0,1.21874998 0.67968757,1.85156248 1.45312507,1.85156248 1.3945312,0 2.8242187,-1.78124998 2.8242187,-3.51562498 0,-1.1015625 -0.6210938,-1.875 -1.5117187,-1.875 -0.6328125,0 -1.1835938,0.515625 -1.4179688,0.75 z m -0.7617188,7.87499998 c -0.375,0 -0.796875,-0.29296875 -0.796875,-1.21874998 0,-0.3984375 0.035156,-0.6210938 0.2460938,-1.4648438 0.046875,-0.1523437 0.234375,-0.9140625 0.28125,-1.0664062 0.023437,-0.1054688 0.7265625,-1.1601563 1.5351562,-1.1601563 0.5273438,0 0.7734375,0.515625 0.7734375,1.1367188 0,0.5742187 -0.3398437,1.9335937 -0.6328125,2.5546875 -0.3046875,0.64453123 -0.8554687,1.21874998 -1.40625,1.21874998 z m 0,0"
         style="fill:#000000;fill-opacity:1;fill-rule:nonzero;stroke:none" />
      <path
         id="path30"
         d="m 17.567078,-13.698297 c 0.164063,0 0.375,0 0.375,-0.222656 0,-0.222656 -0.199219,-0.222656 -0.375,-0.222656 h -7.042969 c -0.175781,0 -0.386718,0 -0.386718,0.210937 0,0.234375 0.199218,0.234375 0.386718,0.234375 z m 0,2.214844 c 0.164063,0 0.375,0 0.375,-0.210938 0,-0.234375 -0.199219,-0.234375 -0.375,-0.234375 h -7.042969 c -0.175781,0 -0.386718,0 -0.386718,0.222657 0,0.222656 0.199218,0.222656 0.386718,0.222656 z m 30.615235,-8.4375 h -0.269532 c -0.03516,0.199219 -0.128906,0.855469 -0.246093,1.042969 -0.08203,0.117187 -0.761719,0.117187 -1.125,0.117187 h -2.214844 c 0.328125,-0.28125 1.054687,-1.042969 1.371094,-1.335937 1.816406,-1.664063 2.484375,-2.285157 2.484375,-3.46875 0,-1.382813 -1.089844,-2.296875 -2.472657,-2.296875 -1.394531,0 -2.203125,1.183593 -2.203125,2.203125 0,0.609375 0.527344,0.609375 0.5625,0.609375 0.246094,0 0.5625,-0.175782 0.5625,-0.5625 0,-0.328125 -0.234375,-0.550782 -0.5625,-0.550782 -0.105468,0 -0.128906,0 -0.164062,0.01172 0.222656,-0.820312 0.867187,-1.371094 1.640625,-1.371094 1.019531,0 1.640625,0.855469 1.640625,1.957032 0,1.007812 -0.585938,1.898437 -1.265625,2.660156 l -2.414063,2.707031 v 0.28125 h 4.359375 z m 0,0"
         style="fill:#000000;fill-opacity:1;fill-rule:nonzero;stroke:none" />
    </g>
    <path
       id="path31"
       d="M 0,0 H 45.465"
       style="fill:none;stroke:#000000;stroke-width:0.478;stroke-linecap:butt;stroke-linejoin:miter;stroke-miterlimit:10;stroke-dasharray:none;stroke-opacity:1"
       transform="matrix(1.3333333,0,0,-1.3333333,416.16933,443.63333)" />
    <path
       id="path32"
       d="M 4.6513203,10.218391 2.5419453,5.5660469 c -0.082031,-0.1875 -0.140625,-0.1875 -0.1757812,-0.1875 -0.011719,0 -0.070312,0 -0.1992188,0.09375 L 1.0302266,6.3394844 c -0.16406254,0.1171875 -0.16406254,0.1523437 -0.16406254,0.1875 0,0.058594 0.046875,0.1289062 0.12890625,0.1289062 0.0703125,0 0.26953129,-0.1640625 0.39843749,-0.2578125 0.070312,-0.058594 0.2578125,-0.1992187 0.3867188,-0.2929687 l 2.3554687,5.1796876 c 0.082031,0.1875 0.140625,0.1875 0.2460938,0.1875 0.1875,0 0.2226562,-0.07031 0.3046875,-0.234375 L 10.112258,-3.59375e-4 c 0.08203,-0.164062495 0.08203,-0.210937495 0.08203,-0.234374995 0,-0.12890625 -0.09375,-0.24609375 -0.2343749,-0.24609375 -0.09375,0 -0.1875,0.0585938 -0.28125,0.2578125 z m 0,0"
       style="fill:#000000;fill-opacity:1;fill-rule:nonzero;stroke:none"
       aria-label="√"
       transform="matrix(1.3333333,0,0,1.3333333,416.16933,449.24267)" />
    <path
       id="path33"
       d="M 0,0 H 6.145"
       style="fill:none;stroke:#000000;stroke-width:0.478;stroke-linecap:butt;stroke-linejoin:miter;stroke-miterlimit:10;stroke-dasharray:none;stroke-opacity:1"
       transform="matrix(1.3333333,0,0,-1.3333333,429.45333,448.924)" />
    <g
       id="g33"
       aria-label="a+&#10;√"
       transform="matrix(1.3333333,0,0,1.3333333,429.45333,460.72533)">
      <path
         id="path34"
         d="m 3.5975,-1.4170469 c -0.058594,0.1992188 -0.058594,0.2226563 -0.2226562,0.44531253 -0.2695313,0.33984375 -0.796875,0.85546875 -1.359375,0.85546875 -0.4804688,0 -0.7617188,-0.4453125 -0.7617188,-1.14843748 0,-0.65625 0.375,-1.9921875 0.5976563,-2.4960938 0.4101562,-0.84375 0.9726562,-1.265625 1.4414062,-1.265625 0.7851563,0 0.9375,0.9726563 0.9375,1.0664063 0,0.011719 -0.035156,0.1757812 -0.046875,0.1992187 z M 4.3592188,-4.4873594 C 4.2303125,-4.7920469 3.9139063,-5.2725156 3.2928125,-5.2725156 c -1.359375,0 -2.8125,1.7460937 -2.8125,3.515625 0,1.18359373 0.6914063,1.87499998 1.5,1.87499998 0.65625,0 1.21875,-0.515625 1.5585938,-0.90234375 0.1171875,0.703125 0.6796875,0.90234375 1.0429687,0.90234375 0.3515625,0 0.6445313,-0.2109375 0.8554688,-0.64453125 0.1875,-0.41015625 0.3632812,-1.13671873 0.3632812,-1.18359373 0,-0.058594 -0.046875,-0.1054688 -0.1171875,-0.1054688 -0.1171875,0 -0.1289062,0.058594 -0.1757812,0.234375 -0.1757813,0.71484378 -0.3984375,1.46484378 -0.890625,1.46484378 -0.3515625,0 -0.375,-0.31640625 -0.375,-0.55078125 0,-0.28125 0.035156,-0.41015623 0.140625,-0.87890623 0.082031,-0.2929688 0.1523437,-0.5625 0.2460937,-0.9023438 0.4335938,-1.7929687 0.5507813,-2.2265625 0.5507813,-2.296875 0,-0.1640625 -0.140625,-0.2929687 -0.3164063,-0.2929687 -0.375,0 -0.4804687,0.4101562 -0.5039062,0.5507812 z m 0,0"
         style="fill:#000000;fill-opacity:1;fill-rule:nonzero;stroke:none" />
      <path
         id="path35"
         d="m 13.570156,-2.7647031 h 3.304688 c 0.164062,0 0.375,0 0.375,-0.2109375 0,-0.2226563 -0.199219,-0.2226563 -0.375,-0.2226563 h -3.304688 v -3.3046875 c 0,-0.1640625 0,-0.3867187 -0.210937,-0.3867187 -0.234375,0 -0.234375,0.2109375 -0.234375,0.3867187 v 3.3046875 H 9.831875 c -0.1757812,0 -0.3867187,0 -0.3867187,0.2109375 0,0.2226563 0.1992187,0.2226563 0.3867187,0.2226563 h 3.292969 v 3.30468748 c 0,0.1640625 0,0.38671875 0.222656,0.38671875 0.222656,0 0.222656,-0.2109375 0.222656,-0.38671875 z m 0,0"
         style="fill:#000000;fill-opacity:1;fill-rule:nonzero;stroke:none" />
      <path
         id="path36"
         d="M 25.215664,0.03021875 23.106289,-4.622125 c -0.08203,-0.1875 -0.140625,-0.1875 -0.175781,-0.1875 -0.01172,0 -0.07031,0 -0.199219,0.09375 l -1.136719,0.8671875 c -0.164062,0.1171875 -0.164062,0.1523438 -0.164062,0.1875 0,0.058594 0.04687,0.1289063 0.128906,0.1289063 0.07031,0 0.269531,-0.1640625 0.398438,-0.2578125 0.07031,-0.058594 0.257812,-0.1992188 0.386718,-0.2929688 l 2.355469,5.1796875 c 0.08203,0.1875 0.140625,0.1875 0.246094,0.1875 0.1875,0 0.222656,-0.070312 0.304687,-0.234375 l 5.425782,-11.238281 c 0.08203,-0.164063 0.08203,-0.210938 0.08203,-0.234375 0,-0.128906 -0.09375,-0.246094 -0.234375,-0.246094 -0.09375,0 -0.1875,0.05859 -0.28125,0.257813 z m 0,0"
         style="fill:#000000;fill-opacity:1;fill-rule:nonzero;stroke:none" />
    </g>
    <path
       id="path37"
       d="M 0,0 H 4.977"
       style="fill:none;stroke:#000000;stroke-width:0.478;stroke-linecap:butt;stroke-linejoin:miter;stroke-miterlimit:10;stroke-dasharray:none;stroke-opacity:1"
       transform="matrix(1.3333333,0,0,-1.3333333,470.15333,446.82133)" />
    <g
       id="g37"
       aria-label="b&#10;.&#10;ZADANIE4.&#10;Prostok¡towymiarachcaªkowitychzostaªrozci¦tynadwana±ciekwadratówobokachodªugo±ci&#10;2,2,3,3,5,5,7,7,8,8,9,9.Obliczobwódtegoprostok¡ta.&#10;ZADANIE5.&#10;Dozapisanialiczbytrzydziestocyfrowejwykorzystanodziesi¦¢cyfr0,dziesi¦¢cyfr1idzie-&#10;si¦¢cyfr2.Czymo»nawtejliczbiedokona¢takiegoprzestawieniacyfr,abyotrzyma¢liczb¦&#10;podzieln¡przez9?"
       transform="matrix(1.3333333,0,0,1.3333333,470.15333,460.72533)">
      <path
         id="path38"
         d="m 2.7648828,-7.9912656 c 0.011719,-0.046875 0.035156,-0.1289063 0.035156,-0.1875 0,-0.1171875 -0.1289063,-0.1171875 -0.1523438,-0.1171875 -0.011719,0 -0.4335937,0.035156 -0.65625,0.058594 -0.1992187,0.011719 -0.375,0.035156 -0.5976562,0.046875 -0.28125,0.023437 -0.3632813,0.035156 -0.3632813,0.2578125 0,0.1171875 0.1171875,0.1171875 0.234375,0.1171875 0.609375,0 0.609375,0.1054688 0.609375,0.2226563 0,0.082031 -0.09375,0.4335937 -0.140625,0.6445312 l -0.2929687,1.1484375 c -0.1171875,0.4804688 -0.79687504,3.1992188 -0.84375004,3.4101563 -0.0585938,0.2929687 -0.0585938,0.5039062 -0.0585938,0.65625 0,1.21874998 0.67968754,1.85156248 1.45312504,1.85156248 1.3945313,0 2.8242188,-1.78124998 2.8242188,-3.51562498 0,-1.1015625 -0.6210938,-1.875 -1.5117188,-1.875 -0.6328125,0 -1.1835937,0.515625 -1.4179687,0.75 z m -0.7617187,7.87499998 c -0.375,0 -0.796875,-0.29296875 -0.796875,-1.21874998 0,-0.3984375 0.035156,-0.6210938 0.2460937,-1.4648438 0.046875,-0.1523437 0.234375,-0.9140625 0.28125,-1.0664062 0.023437,-0.1054688 0.7265625,-1.1601563 1.5351563,-1.1601563 0.5273437,0 0.7734375,0.515625 0.7734375,1.1367188 0,0.5742187 -0.3398438,1.9335937 -0.6328125,2.5546875 -0.3046875,0.64453123 -0.8554688,1.21874998 -1.40625,1.21874998 z M 8.3752344,-10.405328 c 0,-0.351563 -0.2929688,-0.585938 -0.5742188,-0.585938 -0.3515625,0 -0.5859375,0.292969 -0.5859375,0.574219 0,0.351563 0.28125,0.5859376 0.5742188,0.5859376 0.3398437,0 0.5859375,-0.2812496 0.5859375,-0.5742186 z m 0,0"
         style="fill:#000000;fill-opacity:1;fill-rule:nonzero;stroke:none" />
      <path
         id="path39"
         d="m -289.52711,59.649359 h -0.26953 c -0.0352,0.199219 -0.12891,0.855469 -0.24609,1.042969 -0.082,0.117188 -0.76172,0.117188 -1.125,0.117188 h -2.21485 c 0.32813,-0.28125 1.05469,-1.042969 1.3711,-1.335938 1.8164,-1.664062 2.48437,-2.285156 2.48437,-3.46875 0,-1.382812 -1.08984,-2.296875 -2.47266,-2.296875 -1.39453,0 -2.20312,1.183594 -2.20312,2.203125 0,0.609375 0.52734,0.609375 0.5625,0.609375 0.24609,0 0.5625,-0.175781 0.5625,-0.5625 0,-0.328125 -0.23438,-0.550781 -0.5625,-0.550781 -0.10547,0 -0.12891,0 -0.16406,0.01172 0.22265,-0.820313 0.86718,-1.371094 1.64062,-1.371094 1.01953,0 1.64063,0.855469 1.64063,1.957031 0,1.007813 -0.58594,1.898438 -1.26563,2.660156 l -2.41406,2.707032 v 0.28125 h 4.35937 z m 0,0"
         style="fill:#000000;fill-opacity:1;fill-rule:nonzero;stroke:none" />
      <path
         id="path40"
         d="m -276.52223,59.649359 h -0.26953 c -0.0351,0.199219 -0.1289,0.855469 -0.24609,1.042969 -0.082,0.117188 -0.76172,0.117188 -1.125,0.117188 h -2.21485 c 0.32813,-0.28125 1.05469,-1.042969 1.3711,-1.335938 1.8164,-1.664062 2.48437,-2.285156 2.48437,-3.46875 0,-1.382812 -1.08984,-2.296875 -2.47265,-2.296875 -1.39453,0 -2.20313,1.183594 -2.20313,2.203125 0,0.609375 0.52735,0.609375 0.5625,0.609375 0.2461,0 0.5625,-0.175781 0.5625,-0.5625 0,-0.328125 -0.23437,-0.550781 -0.5625,-0.550781 -0.10547,0 -0.1289,0 -0.16406,0.01172 0.22266,-0.820313 0.86719,-1.371094 1.64062,-1.371094 1.01954,0 1.64063,0.855469 1.64063,1.957031 0,1.007813 -0.58594,1.898438 -1.26563,2.660156 l -2.41406,2.707032 v 0.28125 h 4.35938 z m 0,0"
         style="fill:#000000;fill-opacity:1;fill-rule:nonzero;stroke:none" />
      <path
         id="path41"
         d="m -266.57594,57.364203 c -0.21093,0.01172 -0.25781,0.02344 -0.25781,0.128906 0,0.117188 0.0586,0.117188 0.28125,0.117188 h 0.55078 c 1.00781,0 1.46485,0.84375 1.46485,1.992187 0,1.558594 -0.8086,1.980469 -1.39454,1.980469 -0.57421,0 -1.55859,-0.28125 -1.89843,-1.066406 0.375,0.05859 0.72656,-0.152344 0.72656,-0.585938 0,-0.339843 -0.25781,-0.585937 -0.58594,-0.585937 -0.29297,0 -0.59765,0.164062 -0.59765,0.621094 0,1.066406 1.0664,1.933593 2.39062,1.933593 1.41797,0 2.47266,-1.078125 2.47266,-2.285156 0,-1.101562 -0.89063,-1.96875 -2.02735,-2.167969 1.03125,-0.304687 1.69922,-1.171875 1.69922,-2.109375 0,-0.9375 -0.97265,-1.628906 -2.13281,-1.628906 -1.19531,0 -2.08594,0.726563 -2.08594,1.59375 0,0.480469 0.375,0.574219 0.55078,0.574219 0.25782,0 0.53907,-0.175781 0.53907,-0.539063 0,-0.375 -0.28125,-0.539062 -0.55079,-0.539062 -0.0703,0 -0.0937,0 -0.1289,0.01172 0.45703,-0.820313 1.58203,-0.820313 1.64062,-0.820313 0.38672,0 1.17188,0.175781 1.17188,1.347656 0,0.234375 -0.0352,0.902344 -0.38672,1.417969 -0.35156,0.527344 -0.76172,0.5625 -1.08984,0.574219 z m 0,0"
         style="fill:#000000;fill-opacity:1;fill-rule:nonzero;stroke:none" />
      <path
         id="path42"
         d="m -253.57105,57.364203 c -0.21094,0.01172 -0.25782,0.02344 -0.25782,0.128906 0,0.117188 0.0586,0.117188 0.28125,0.117188 h 0.55078 c 1.00782,0 1.46485,0.84375 1.46485,1.992187 0,1.558594 -0.8086,1.980469 -1.39453,1.980469 -0.57422,0 -1.5586,-0.28125 -1.89844,-1.066406 0.375,0.05859 0.72656,-0.152344 0.72656,-0.585938 0,-0.339843 -0.25781,-0.585937 -0.58594,-0.585937 -0.29296,0 -0.59765,0.164062 -0.59765,0.621094 0,1.066406 1.0664,1.933593 2.39062,1.933593 1.41797,0 2.47266,-1.078125 2.47266,-2.285156 0,-1.101562 -0.89063,-1.96875 -2.02734,-2.167969 1.03125,-0.304687 1.69921,-1.171875 1.69921,-2.109375 0,-0.9375 -0.97265,-1.628906 -2.13281,-1.628906 -1.19531,0 -2.08594,0.726563 -2.08594,1.59375 0,0.480469 0.375,0.574219 0.55079,0.574219 0.25781,0 0.53906,-0.175781 0.53906,-0.539063 0,-0.375 -0.28125,-0.539062 -0.55078,-0.539062 -0.0703,0 -0.0937,0 -0.12891,0.01172 0.45703,-0.820313 1.58203,-0.820313 1.64063,-0.820313 0.38671,0 1.17187,0.175781 1.17187,1.347656 0,0.234375 -0.0352,0.902344 -0.38672,1.417969 -0.35156,0.527344 -0.76172,0.5625 -1.08984,0.574219 z m 0,0"
         style="fill:#000000;fill-opacity:1;fill-rule:nonzero;stroke:none" />
      <path
         id="path43"
         d="m -241.23414,54.809516 c 0.50391,0.164062 0.92578,0.175781 1.05469,0.175781 1.35937,0 2.21484,-0.996094 2.21484,-1.160156 0,-0.04687 -0.0234,-0.105469 -0.0937,-0.105469 -0.0234,0 -0.0469,0 -0.15234,0.04687 -0.66797,0.28125 -1.24219,0.316406 -1.5586,0.316406 -0.78515,0 -1.34765,-0.234375 -1.58203,-0.328125 -0.082,-0.03516 -0.10547,-0.03516 -0.11719,-0.03516 -0.0937,0 -0.0937,0.07031 -0.0937,0.257812 v 3.550782 c 0,0.210937 0,0.292968 0.14063,0.292968 0.0586,0 0.0703,-0.01172 0.19922,-0.164062 0.32812,-0.492188 0.89062,-0.773438 1.48828,-0.773438 0.63281,0 0.94922,0.585938 1.04297,0.785157 0.19922,0.46875 0.21094,1.054687 0.21094,1.511718 0,0.457032 0,1.136719 -0.32813,1.675782 -0.26953,0.421875 -0.73828,0.726562 -1.25391,0.726562 -0.79687,0 -1.57031,-0.539062 -1.78125,-1.40625 0.0586,0.02344 0.12891,0.03516 0.1875,0.03516 0.19922,0 0.52735,-0.128906 0.52735,-0.527343 0,-0.339844 -0.23438,-0.527344 -0.52735,-0.527344 -0.21093,0 -0.52734,0.105469 -0.52734,0.574219 0,1.007812 0.80859,2.167968 2.14453,2.167968 1.34766,0 2.53125,-1.125 2.53125,-2.648437 0,-1.417969 -0.96094,-2.601563 -2.21484,-2.601563 -0.67969,0 -1.20703,0.292969 -1.51172,0.632813 z m 0,0"
         style="fill:#000000;fill-opacity:1;fill-rule:nonzero;stroke:none" />
      <path
         id="path44"
         d="m -228.22926,54.809516 c 0.50391,0.164062 0.92578,0.175781 1.05469,0.175781 1.35937,0 2.21484,-0.996094 2.21484,-1.160156 0,-0.04687 -0.0234,-0.105469 -0.0937,-0.105469 -0.0234,0 -0.0469,0 -0.15234,0.04687 -0.66797,0.28125 -1.24219,0.316406 -1.55859,0.316406 -0.78516,0 -1.34766,-0.234375 -1.58204,-0.328125 -0.082,-0.03516 -0.10546,-0.03516 -0.11718,-0.03516 -0.0937,0 -0.0937,0.07031 -0.0937,0.257812 v 3.550782 c 0,0.210937 0,0.292968 0.14062,0.292968 0.0586,0 0.0703,-0.01172 0.19922,-0.164062 0.32813,-0.492188 0.89063,-0.773438 1.48828,-0.773438 0.63281,0 0.94922,0.585938 1.04297,0.785157 0.19922,0.46875 0.21094,1.054687 0.21094,1.511718 0,0.457032 0,1.136719 -0.32813,1.675782 -0.26953,0.421875 -0.73828,0.726562 -1.2539,0.726562 -0.79688,0 -1.57032,-0.539062 -1.78125,-1.40625 0.0586,0.02344 0.1289,0.03516 0.1875,0.03516 0.19922,0 0.52734,-0.128906 0.52734,-0.527343 0,-0.339844 -0.23437,-0.527344 -0.52734,-0.527344 -0.21094,0 -0.52735,0.105469 -0.52735,0.574219 0,1.007812 0.8086,2.167968 2.14453,2.167968 1.34766,0 2.53125,-1.125 2.53125,-2.648437 0,-1.417969 -0.96093,-2.601563 -2.21484,-2.601563 -0.67969,0 -1.20703,0.292969 -1.51172,0.632813 z m 0,0"
         style="fill:#000000;fill-opacity:1;fill-rule:nonzero;stroke:none" />
      <path
         id="path45"
         d="m -211.07301,54.235297 v -0.28125 h -2.88281 c -1.45313,0 -1.47656,-0.152344 -1.52344,-0.386719 h -0.25781 l -0.375,2.390625 h 0.26953 c 0.0352,-0.210937 0.14063,-0.949219 0.29297,-1.078125 0.0937,-0.07031 0.99609,-0.07031 1.16016,-0.07031 h 2.53125 l -1.26563,1.816406 c -0.31641,0.457031 -1.52344,2.425781 -1.52344,4.664062 0,0.140625 0,0.609375 0.48047,0.609375 0.50391,0 0.50391,-0.457031 0.50391,-0.621093 v -0.597657 c 0,-1.78125 0.29297,-3.164062 0.85547,-3.960937 z m 0,0"
         style="fill:#000000;fill-opacity:1;fill-rule:nonzero;stroke:none" />
      <path
         id="path46"
         d="m -198.06812,54.235297 v -0.28125 h -2.88282 c -1.45312,0 -1.47656,-0.152344 -1.52343,-0.386719 h -0.25782 l -0.375,2.390625 h 0.26953 c 0.0352,-0.210937 0.14063,-0.949219 0.29297,-1.078125 0.0937,-0.07031 0.9961,-0.07031 1.16016,-0.07031 h 2.53125 l -1.26563,1.816406 c -0.3164,0.457031 -1.52343,2.425781 -1.52343,4.664062 0,0.140625 0,0.609375 0.48047,0.609375 0.5039,0 0.5039,-0.457031 0.5039,-0.621093 v -0.597657 c 0,-1.78125 0.29297,-3.164062 0.85547,-3.960937 z m 0,0"
         style="fill:#000000;fill-opacity:1;fill-rule:nonzero;stroke:none" />
      <path
         id="path47"
         d="m -187.18434,57.340766 c 0.59766,-0.328125 1.46485,-0.878907 1.46485,-1.875 0,-1.042969 -0.9961,-1.757813 -2.09766,-1.757813 -1.18359,0 -2.12109,0.867188 -2.12109,1.957031 0,0.410157 0.1289,0.808594 0.45703,1.21875 0.12891,0.152344 0.14062,0.164063 0.98437,0.75 -1.16015,0.539063 -1.75781,1.347657 -1.75781,2.214844 0,1.265625 1.20703,2.050781 2.42578,2.050781 1.32422,0 2.4375,-0.972656 2.4375,-2.226562 0,-1.21875 -0.85547,-1.757813 -1.79297,-2.332031 z m -1.6289,-1.078125 c -0.15235,-0.105469 -0.63281,-0.421875 -0.63281,-1.007813 0,-0.773437 0.82031,-1.265625 1.61718,-1.265625 0.85547,0 1.62891,0.621094 1.62891,1.488281 0,0.726563 -0.52734,1.3125 -1.21875,1.6875 z m 0.5625,1.546875 1.45312,0.9375 c 0.30469,0.199218 0.85547,0.574218 0.85547,1.300781 0,0.914062 -0.91406,1.535156 -1.875,1.535156 -1.01953,0 -1.88672,-0.738281 -1.88672,-1.734375 0,-0.9375 0.67969,-1.6875 1.45313,-2.039062 z m 0,0"
         style="fill:#000000;fill-opacity:1;fill-rule:nonzero;stroke:none" />
      <path
         id="path48"
         d="m -174.18238,57.340766 c 0.59765,-0.328125 1.46484,-0.878907 1.46484,-1.875 0,-1.042969 -0.99609,-1.757813 -2.09766,-1.757813 -1.18359,0 -2.12109,0.867188 -2.12109,1.957031 0,0.410157 0.12891,0.808594 0.45703,1.21875 0.12891,0.152344 0.14063,0.164063 0.98438,0.75 -1.16016,0.539063 -1.75782,1.347657 -1.75782,2.214844 0,1.265625 1.20704,2.050781 2.42579,2.050781 1.32421,0 2.4375,-0.972656 2.4375,-2.226562 0,-1.21875 -0.85547,-1.757813 -1.79297,-2.332031 z m -1.62891,-1.078125 c -0.15234,-0.105469 -0.63281,-0.421875 -0.63281,-1.007813 0,-0.773437 0.82031,-1.265625 1.61719,-1.265625 0.85546,0 1.6289,0.621094 1.6289,1.488281 0,0.726563 -0.52734,1.3125 -1.21875,1.6875 z m 0.5625,1.546875 1.45313,0.9375 c 0.30468,0.199218 0.85546,0.574218 0.85546,1.300781 0,0.914062 -0.91406,1.535156 -1.875,1.535156 -1.01953,0 -1.88671,-0.738281 -1.88671,-1.734375 0,-0.9375 0.67968,-1.6875 1.45312,-2.039062 z m 0,0"
         style="fill:#000000;fill-opacity:1;fill-rule:nonzero;stroke:none" />
      <path
         id="path49"
         d="m -160.36891,58.172797 c 0,2.824219 -1.2539,3.410156 -1.96875,3.410156 -0.28125,0 -0.92578,-0.03516 -1.21875,-0.457031 h 0.0703 c 0.082,0.02344 0.51562,-0.04687 0.51562,-0.492188 0,-0.257812 -0.17578,-0.492187 -0.49219,-0.492187 -0.30468,0 -0.5039,0.210937 -0.5039,0.515625 0,0.75 0.59765,1.242187 1.64062,1.242187 1.5,0 2.94141,-1.582031 2.94141,-4.183593 0,-3.210938 -1.33594,-4.007813 -2.39063,-4.007813 -1.3125,0 -2.47265,1.101563 -2.47265,2.671875 0,1.582031 1.11328,2.660156 2.30859,2.660156 0.87891,0 1.33594,-0.644531 1.57031,-1.253906 z m -1.52343,0.621094 c -0.75,0 -1.07813,-0.609375 -1.1836,-0.832032 -0.19922,-0.457031 -0.19922,-1.03125 -0.19922,-1.570312 0,-0.667969 0,-1.242188 0.31641,-1.734375 0.21094,-0.316406 0.53906,-0.667969 1.18359,-0.667969 0.67969,0 1.03125,0.597656 1.14844,0.878906 0.23438,0.585938 0.23438,1.59375 0.23438,1.78125 0,0.996094 -0.44532,2.144532 -1.5,2.144532 z m 0,0"
         style="fill:#000000;fill-opacity:1;fill-rule:nonzero;stroke:none" />
      <path
         id="path50"
         d="m -147.36402,58.172797 c 0,2.824219 -1.25391,3.410156 -1.96875,3.410156 -0.28125,0 -0.92578,-0.03516 -1.21875,-0.457031 h 0.0703 c 0.082,0.02344 0.51562,-0.04687 0.51562,-0.492188 0,-0.257812 -0.17578,-0.492187 -0.49218,-0.492187 -0.30469,0 -0.50391,0.210937 -0.50391,0.515625 0,0.75 0.59766,1.242187 1.64063,1.242187 1.5,0 2.9414,-1.582031 2.9414,-4.183593 0,-3.210938 -1.33594,-4.007813 -2.39062,-4.007813 -1.3125,0 -2.47266,1.101563 -2.47266,2.671875 0,1.582031 1.11328,2.660156 2.30859,2.660156 0.87891,0 1.33594,-0.644531 1.57032,-1.253906 z m -1.52344,0.621094 c -0.75,0 -1.07813,-0.609375 -1.18359,-0.832032 -0.19922,-0.457031 -0.19922,-1.03125 -0.19922,-1.570312 0,-0.667969 0,-1.242188 0.3164,-1.734375 0.21094,-0.316406 0.53907,-0.667969 1.1836,-0.667969 0.67968,0 1.03125,0.597656 1.14843,0.878906 0.23438,0.585938 0.23438,1.59375 0.23438,1.78125 0,0.996094 -0.44531,2.144532 -1.5,2.144532 z m 0,0"
         style="fill:#000000;fill-opacity:1;fill-rule:nonzero;stroke:none" />
      <path
         id="path51"
         d="m 64.839102,100.89643 c 0,-0.996094 -0.05859,-1.96875 -0.492188,-2.871094 -0.492187,-0.996094 -1.347656,-1.253906 -1.933594,-1.253906 -0.691406,0 -1.546875,0.339843 -1.980468,1.335937 -0.339844,0.75 -0.457032,1.488281 -0.457032,2.789063 0,1.16016 0.08203,2.02734 0.515625,2.87109 0.457032,0.91407 1.289063,1.19532 1.910157,1.19532 1.042968,0 1.640625,-0.6211 1.980468,-1.3125 0.433594,-0.89063 0.457032,-2.0625 0.457032,-2.75391 z m -2.4375,3.83203 c -0.386719,0 -1.160157,-0.21094 -1.382813,-1.52344 -0.140625,-0.71484 -0.140625,-1.61718 -0.140625,-2.46093 0,-0.97266 0,-1.863285 0.199219,-2.56641 0.199219,-0.796875 0.808594,-1.171875 1.324219,-1.171875 0.457031,0 1.148437,0.28125 1.371093,1.300781 0.152344,0.679687 0.152344,1.628906 0.152344,2.437504 0,0.80859 0,1.71093 -0.128906,2.4375 -0.222656,1.32421 -0.972656,1.54687 -1.394531,1.54687 z m 0,0"
         style="fill:#000000;fill-opacity:1;fill-rule:nonzero;stroke:none" />
      <path
         id="path52"
         d="m 146.56859,97.05268 c 0,-0.269532 0,-0.28125 -0.24609,-0.28125 -0.28125,0.316406 -0.87891,0.761718 -2.10938,0.761718 v 0.351563 c 0.26954,0 0.86719,0 1.52344,-0.316406 v 6.222655 c 0,0.43359 -0.0351,0.57422 -1.07812,0.57422 h -0.375 v 0.35156 c 0.3164,-0.0234 1.47656,-0.0234 1.875,-0.0234 0.39843,0 1.54687,0 1.86328,0.0234 v -0.35156 h -0.36328 c -1.05469,0 -1.08985,-0.14063 -1.08985,-0.57422 z m 0,0"
         style="fill:#000000;fill-opacity:1;fill-rule:nonzero;stroke:none" />
      <path
         id="path53"
         d="m -242.90992,117.15913 h -0.26953 c -0.0352,0.19921 -0.12891,0.85546 -0.2461,1.04296 -0.082,0.11719 -0.76172,0.11719 -1.125,0.11719 h -2.21484 c 0.32812,-0.28125 1.05469,-1.04297 1.37109,-1.33594 1.81641,-1.66406 2.48438,-2.28515 2.48438,-3.46875 0,-1.38281 -1.08985,-2.29687 -2.47266,-2.29687 -1.39453,0 -2.20312,1.18359 -2.20312,2.20312 0,0.60938 0.52734,0.60938 0.5625,0.60938 0.24609,0 0.5625,-0.17578 0.5625,-0.5625 0,-0.32813 -0.23438,-0.55078 -0.5625,-0.55078 -0.10547,0 -0.12891,0 -0.16407,0.0117 0.22266,-0.82032 0.86719,-1.3711 1.64063,-1.3711 1.01953,0 1.64062,0.85547 1.64062,1.95703 0,1.00782 -0.58593,1.89844 -1.26562,2.66016 l -2.41406,2.70703 v 0.28125 h 4.35937 z m 0,0"
         style="fill:#000000;fill-opacity:1;fill-rule:nonzero;stroke:none" />
      <path
         id="path54"
         d="m -207.1941,130.12885 c 0,2.82422 -1.25391,3.41016 -1.96875,3.41016 -0.28125,0 -0.92578,-0.0352 -1.21875,-0.45703 h 0.0703 c 0.082,0.0234 0.51563,-0.0469 0.51563,-0.49219 0,-0.25781 -0.17579,-0.49219 -0.49219,-0.49219 -0.30469,0 -0.50391,0.21094 -0.50391,0.51563 0,0.75 0.59766,1.24218 1.64063,1.24218 1.5,0 2.9414,-1.58203 2.9414,-4.18359 0,-3.21094 -1.33593,-4.00781 -2.39062,-4.00781 -1.3125,0 -2.47266,1.10156 -2.47266,2.67187 0,1.58203 1.11328,2.66016 2.3086,2.66016 0.8789,0 1.33593,-0.64453 1.57031,-1.25391 z m -1.52344,0.6211 c -0.75,0 -1.07812,-0.60938 -1.18359,-0.83204 -0.19922,-0.45703 -0.19922,-1.03125 -0.19922,-1.57031 0,-0.66797 0,-1.24219 0.3164,-1.73437 0.21094,-0.31641 0.53907,-0.66797 1.1836,-0.66797 0.67969,0 1.03125,0.59765 1.14844,0.8789 0.23437,0.58594 0.23437,1.59375 0.23437,1.78125 0,0.9961 -0.44531,2.14454 -1.5,2.14454 z m 0,0"
         style="fill:#000000;fill-opacity:1;fill-rule:nonzero;stroke:none" />
    </g>
  </g>
</svg>
