<?xml version="1.0" encoding="UTF-8" standalone="no"?>
<!-- Created with Inkscape (http://www.inkscape.org/) -->

<svg
   version="1.1"
   id="svg1"
   width="794.55066"
   height="1123.6533"
   viewBox="0 0 794.55066 1123.6533"
   sodipodi:docname="LigaMatematycznaMatuskiego_Liceum_Zestaw4_2015_2016_page0.pdf"
   xmlns:inkscape="http://www.inkscape.org/namespaces/inkscape"
   xmlns:sodipodi="http://sodipodi.sourceforge.net/DTD/sodipodi-0.dtd"
   xmlns="http://www.w3.org/2000/svg"
   xmlns:svg="http://www.w3.org/2000/svg">
  <defs
     id="defs1" />
  <sodipodi:namedview
     id="namedview1"
     pagecolor="#ffffff"
     bordercolor="#000000"
     borderopacity="0.25"
     inkscape:showpageshadow="2"
     inkscape:pageopacity="0.0"
     inkscape:pagecheckerboard="0"
     inkscape:deskcolor="#d1d1d1">
    <inkscape:page
       x="0"
       y="0"
       inkscape:label="1"
       id="page1"
       width="794.55066"
       height="1123.6533"
       margin="0"
       bleed="0" />
  </sodipodi:namedview>
  <g
     id="g1"
     inkscape:groupmode="layer"
     inkscape:label="1">
    <g
       id="g2"
       aria-label="LIGAMATEMATYCZNA&#10;im.ZdzisªawaMatuskiego&#10;STYCZE2016&#10;SZKOAPONADGIMNAZJALNA&#10;ZADANIE1.&#10;DanyjesttrapezABCDopodstawachABiCDoraztakipunktEle»¡cywewn¡trztrapezu,&#10;»ek¡ty^AEDi^BECs¡proste.PunktSjestpunktemprzeci¦ciaprzek¡tnychtrapezu.&#10;Wyka»,»eje»eliE6=S,toprostaESjestprostopadªadopodstawtrapezu.&#10;ZADANIE2.&#10;Wyka»,»e&#10;3&#10;r"
       transform="matrix(1.3333333,0,0,1.3333333,274.724,56.069333)">
      <path
         id="path2"
         d="m -57.173859,108.48999 c -0.410157,0.70313 -0.820313,0.9375 -1.394532,0.97266 -0.128906,0.0117 -0.222656,0.0117 -0.222656,0.23437 0,0.0703 0.05859,0.11719 0.140625,0.11719 0.210938,0 0.75,-0.0234 0.972656,-0.0234 0.339844,0 0.726563,0.0234 1.054688,0.0234 0.07031,0 0.222656,0 0.222656,-0.22266 0,-0.11718 -0.09375,-0.1289 -0.175781,-0.1289 -0.269531,-0.0234 -0.492188,-0.11719 -0.492188,-0.39844 0,-0.17578 0.07031,-0.30469 0.222657,-0.5625 l 0.902343,-1.51172 h 3.058594 c 0.01172,0.10547 0.01172,0.21094 0.02344,0.31641 0.03516,0.30469 0.175781,1.54687 0.175781,1.78125 0,0.35156 -0.609375,0.375 -0.796875,0.375 -0.140625,0 -0.269531,0 -0.269531,0.22265 0,0.12891 0.105468,0.12891 0.175781,0.12891 0.210937,0 0.445312,-0.0234 0.65625,-0.0234 h 0.679687 c 0.726563,0 1.253907,0.0234 1.265625,0.0234 0.08203,0 0.210938,0 0.210938,-0.22266 0,-0.1289 -0.105469,-0.1289 -0.28125,-0.1289 -0.65625,0 -0.667969,-0.10547 -0.714844,-0.45703 l -0.726562,-7.46485 c -0.02344,-0.23437 -0.07031,-0.25781 -0.199219,-0.25781 -0.117188,0 -0.1875,0.0234 -0.304688,0.19922 z m 1.441406,-1.83984 2.402344,-4.01953 0.410156,4.01953 z m 9.676758,-4.1836 c 0.117187,-0.44531 0.164062,-0.46875 0.621093,-0.46875 h 1.558594 c 1.347656,0 1.347656,1.14844 1.347656,1.25391 0,0.97266 -0.960937,2.20313 -2.542968,2.20313 h -1.722657 z m 2.027343,3.08204 c 1.300782,-0.2461 2.484375,-1.14844 2.484375,-2.25 0,-0.92579 -0.832031,-1.65235 -2.179687,-1.65235 h -3.832031 c -0.234375,0 -0.339844,0 -0.339844,0.23438 0,0.11718 0.105469,0.11718 0.292969,0.11718 0.726562,0 0.726562,0.0937 0.726562,0.22266 0,0.0234 0,0.0937 -0.04687,0.28125 l -1.617187,6.43359 c -0.105469,0.41016 -0.128907,0.52735 -0.960938,0.52735 -0.234375,0 -0.351562,0 -0.351562,0.22265 0,0.12891 0.07031,0.12891 0.304687,0.12891 h 4.101563 c 1.828125,0 3.246093,-1.38281 3.246093,-2.58984 0,-0.98438 -0.867187,-1.58203 -1.828125,-1.67578 z m -1.699218,3.91406 h -1.617188 c -0.164062,0 -0.1875,0 -0.257812,-0.0117 -0.128907,-0.0117 -0.152344,-0.0352 -0.152344,-0.12891 0,-0.082 0.03516,-0.15234 0.05859,-0.25781 l 0.832031,-3.375 h 2.25 c 1.40625,0 1.40625,1.3125 1.40625,1.40625 0,1.14844 -1.042969,2.36719 -2.519531,2.36719 z m 13.722656,-7.95703 c 0,-0.10547 -0.08203,-0.10547 -0.105469,-0.10547 -0.02344,0 -0.07031,0 -0.175781,0.11719 l -0.820313,1.00781 c -0.421875,-0.71485 -1.078125,-1.125 -1.96875,-1.125 -2.589843,0 -5.261718,2.61328 -5.261718,5.42578 0,1.99219 1.394531,3.23437 3.140625,3.23437 0.960937,0 1.792968,-0.39843 2.484375,-0.98437 1.042968,-0.87891 1.359375,-2.03906 1.359375,-2.13281 0,-0.10547 -0.09375,-0.10547 -0.140625,-0.10547 -0.105469,0 -0.117188,0.0703 -0.140625,0.11719 -0.550782,1.86328 -2.15625,2.76562 -3.351563,2.76562 -1.277344,0 -2.367187,-0.82031 -2.367187,-2.50781 0,-0.38672 0.117187,-2.46094 1.464843,-4.03125 0.65625,-0.76172 1.78125,-1.44141 2.917969,-1.44141 1.3125,0 1.898438,1.08985 1.898438,2.3086 0,0.3164 -0.03516,0.57421 -0.03516,0.62109 0,0.11719 0.117188,0.11719 0.152344,0.11719 0.140625,0 0.152344,-0.0117 0.199219,-0.23438 z m 2.179687,7.42968 c -0.105468,0.41016 -0.128906,0.52735 -0.960937,0.52735 -0.234375,0 -0.351563,0 -0.351563,0.22265 0,0.12891 0.07031,0.12891 0.304688,0.12891 h 3.796875 c 2.414062,0 4.769531,-2.49609 4.769531,-5.16797 0,-1.72265 -1.03125,-3 -2.742187,-3 h -3.832032 c -0.234375,0 -0.339843,0 -0.339843,0.23438 0,0.11718 0.105468,0.11718 0.292968,0.11718 0.726563,0 0.726563,0.0937 0.726563,0.22266 0,0.0234 0,0.0937 -0.04687,0.28125 z m 2.519532,-6.46875 c 0.117187,-0.44531 0.164062,-0.46875 0.621093,-0.46875 h 1.324219 c 1.113281,0 2.144531,0.60938 2.144531,2.26172 0,0.59766 -0.234375,2.67188 -1.394531,3.98438 -0.339844,0.39844 -1.242187,1.21875 -2.625,1.21875 h -1.359375 c -0.164062,0 -0.1875,0 -0.257812,-0.0117 -0.128907,-0.0117 -0.140625,-0.0352 -0.140625,-0.12891 0,-0.082 0.02344,-0.15234 0.04687,-0.25781 z m 0,0"
         style="fill:#000000;fill-opacity:1;fill-rule:nonzero;stroke:none" />
      <path
         id="path3"
         d="m 57.526336,108.48999 c -0.410156,0.70313 -0.820313,0.9375 -1.394531,0.97266 -0.128907,0.0117 -0.222657,0.0117 -0.222657,0.23437 0,0.0703 0.05859,0.11719 0.140625,0.11719 0.210938,0 0.75,-0.0234 0.972657,-0.0234 0.339843,0 0.726562,0.0234 1.054687,0.0234 0.07031,0 0.222656,0 0.222656,-0.22266 0,-0.11718 -0.09375,-0.1289 -0.175781,-0.1289 -0.269531,-0.0234 -0.492187,-0.11719 -0.492187,-0.39844 0,-0.17578 0.07031,-0.30469 0.222656,-0.5625 l 0.902344,-1.51172 h 3.058593 c 0.01172,0.10547 0.01172,0.21094 0.02344,0.31641 0.03516,0.30469 0.175781,1.54687 0.175781,1.78125 0,0.35156 -0.609375,0.375 -0.796875,0.375 -0.140625,0 -0.269531,0 -0.269531,0.22265 0,0.12891 0.105469,0.12891 0.175781,0.12891 0.210938,0 0.445313,-0.0234 0.65625,-0.0234 h 0.679688 c 0.726562,0 1.253906,0.0234 1.265625,0.0234 0.08203,0 0.210937,0 0.210937,-0.22266 0,-0.1289 -0.105469,-0.1289 -0.28125,-0.1289 -0.65625,0 -0.667969,-0.10547 -0.714844,-0.45703 l -0.726562,-7.46485 c -0.02344,-0.23437 -0.07031,-0.25781 -0.199219,-0.25781 -0.117187,0 -0.1875,0.0234 -0.304687,0.19922 z m 1.441406,-1.83984 2.402344,-4.01953 0.410156,4.01953 z m 9.676758,-4.1836 c 0.117188,-0.44531 0.164063,-0.46875 0.621094,-0.46875 h 1.558594 c 1.347656,0 1.347656,1.14844 1.347656,1.25391 0,0.97266 -0.960938,2.20313 -2.542969,2.20313 h -1.722656 z m 2.027344,3.08204 c 1.300781,-0.2461 2.484375,-1.14844 2.484375,-2.25 0,-0.92579 -0.832031,-1.65235 -2.179688,-1.65235 H 67.1445 c -0.234375,0 -0.339844,0 -0.339844,0.23438 0,0.11718 0.105469,0.11718 0.292969,0.11718 0.726563,0 0.726563,0.0937 0.726563,0.22266 0,0.0234 0,0.0937 -0.04687,0.28125 l -1.617188,6.43359 c -0.105469,0.41016 -0.128906,0.52735 -0.960937,0.52735 -0.234375,0 -0.351563,0 -0.351563,0.22265 0,0.12891 0.07031,0.12891 0.304688,0.12891 h 4.101562 c 1.828125,0 3.246094,-1.38281 3.246094,-2.58984 0,-0.98438 -0.867188,-1.58203 -1.828125,-1.67578 z m -1.699219,3.91406 h -1.617187 c -0.164063,0 -0.1875,0 -0.257813,-0.0117 -0.128906,-0.0117 -0.152344,-0.0352 -0.152344,-0.12891 0,-0.082 0.03516,-0.15234 0.05859,-0.25781 l 0.832031,-3.375 h 2.25 c 1.40625,0 1.40625,1.3125 1.40625,1.40625 0,1.14844 -1.042968,2.36719 -2.519531,2.36719 z m 0,0"
         style="fill:#000000;fill-opacity:1;fill-rule:nonzero;stroke:none" />
      <path
         id="path4"
         d="m 93.781219,101.50562 c 0,-0.10547 -0.08203,-0.10547 -0.105469,-0.10547 -0.02344,0 -0.07031,0 -0.175781,0.11719 l -0.820313,1.00781 c -0.421875,-0.71485 -1.078125,-1.125 -1.96875,-1.125 -2.589843,0 -5.261718,2.61328 -5.261718,5.42578 0,1.99219 1.394531,3.23437 3.140625,3.23437 0.960937,0 1.792968,-0.39843 2.484375,-0.98437 1.042968,-0.87891 1.359375,-2.03906 1.359375,-2.13281 0,-0.10547 -0.09375,-0.10547 -0.140625,-0.10547 -0.105469,0 -0.117188,0.0703 -0.140625,0.11719 -0.550782,1.86328 -2.15625,2.76562 -3.351563,2.76562 -1.277344,0 -2.367187,-0.82031 -2.367187,-2.50781 0,-0.38672 0.117187,-2.46094 1.464843,-4.03125 0.65625,-0.76172 1.78125,-1.44141 2.917969,-1.44141 1.3125,0 1.898438,1.08985 1.898438,2.3086 0,0.3164 -0.03516,0.57421 -0.03516,0.62109 0,0.11719 0.117188,0.11719 0.152344,0.11719 0.140625,0 0.152344,-0.0117 0.199219,-0.23438 z m 2.179687,7.42968 c -0.105468,0.41016 -0.128906,0.52735 -0.960937,0.52735 -0.234375,0 -0.351563,0 -0.351563,0.22265 0,0.12891 0.07031,0.12891 0.304688,0.12891 h 3.796875 c 2.414061,0 4.769531,-2.49609 4.769531,-5.16797 0,-1.72265 -1.03125,-3 -2.74219,-3 h -3.832029 c -0.234375,0 -0.339843,0 -0.339843,0.23438 0,0.11718 0.105468,0.11718 0.292968,0.11718 0.726563,0 0.726563,0.0937 0.726563,0.22266 0,0.0234 0,0.0937 -0.04687,0.28125 z m 2.519532,-6.46875 c 0.117187,-0.44531 0.164062,-0.46875 0.621093,-0.46875 h 1.324219 c 1.11328,0 2.14453,0.60938 2.14453,2.26172 0,0.59766 -0.23437,2.67188 -1.39453,3.98438 -0.33984,0.39844 -1.242187,1.21875 -2.625,1.21875 h -1.359375 c -0.164062,0 -0.1875,0 -0.257812,-0.0117 -0.128907,-0.0117 -0.140625,-0.0352 -0.140625,-0.12891 0,-0.082 0.02344,-0.15234 0.04687,-0.25781 z m 0,0"
         style="fill:#000000;fill-opacity:1;fill-rule:nonzero;stroke:none" />
      <path
         id="path5"
         d="m 199.61325,107.03687 c 0.0117,-0.0352 0.0469,-0.11719 0.0469,-0.16407 0,-0.0586 -0.0469,-0.11718 -0.11719,-0.11718 -0.0469,0 -0.0703,0.0117 -0.10547,0.0469 -0.0234,0.0117 -0.0234,0.0352 -0.14063,0.26953 -0.70312,1.67578 -1.21875,2.39063 -3.1289,2.39063 h -1.7461 c -0.16406,0 -0.1875,0 -0.25781,-0.0117 -0.1289,-0.0117 -0.14062,-0.0352 -0.14062,-0.12891 0,-0.082 0.0234,-0.15234 0.0469,-0.25781 l 0.82031,-3.30469 h 1.1836 c 0.9375,0 1.00781,0.21094 1.00781,0.5625 0,0.11719 0,0.23438 -0.082,0.58594 -0.0352,0.0469 -0.0469,0.0937 -0.0469,0.12891 0,0.082 0.0703,0.1289 0.14063,0.1289 0.10547,0 0.11719,-0.0937 0.16406,-0.25781 l 0.67969,-2.77734 c 0,-0.0586 -0.0469,-0.11719 -0.11719,-0.11719 -0.10547,0 -0.11719,0.0469 -0.16406,0.22266 -0.24609,0.91406 -0.48047,1.18359 -1.54688,1.18359 h -1.13671 l 0.73828,-2.94141 c 0.11718,-0.42187 0.14062,-0.45703 0.62109,-0.45703 h 1.71094 c 1.47656,0 1.76953,0.39844 1.76953,1.30078 0,0.0117 0,0.35157 -0.0469,0.73828 -0.0117,0.0469 -0.0234,0.12891 -0.0234,0.15235 0,0.0937 0.0586,0.1289 0.1289,0.1289 0.082,0 0.14063,-0.0469 0.16407,-0.26953 l 0.24609,-2.08593 c 0,-0.0352 0.0234,-0.15235 0.0234,-0.17579 0,-0.14062 -0.10547,-0.14062 -0.31641,-0.14062 h -5.83594 c -0.23437,0 -0.35156,0 -0.35156,0.22266 0,0.1289 0.082,0.1289 0.29297,0.1289 0.73828,0 0.73828,0.082 0.73828,0.21094 0,0.0586 -0.0117,0.10547 -0.0469,0.24609 l -1.61719,6.45703 c -0.10547,0.41016 -0.12891,0.52735 -0.96094,0.52735 -0.23437,0 -0.35156,0 -0.35156,0.22265 0,0.12891 0.0703,0.12891 0.30469,0.12891 h 6 c 0.26953,0 0.28125,-0.0117 0.36328,-0.19922 z m 0,0"
         style="fill:#000000;fill-opacity:1;fill-rule:nonzero;stroke:none" />
      <path
         id="path6"
         d="m -97.770539,118.19019 c 0.140625,-0.0703 0.246094,-0.12891 0.246094,-0.28125 0,-0.14063 -0.105469,-0.23438 -0.234375,-0.23438 -0.03516,0 -0.05859,0 -0.210938,0.082 l -6.597652,3.25782 c -0.12891,0.0586 -0.23438,0.11718 -0.23438,0.25781 0,0.14062 0.0937,0.1875 0.24609,0.25781 l 6.585942,3.25781 c 0.152344,0.082 0.175781,0.082 0.210938,0.082 0.128906,0 0.234375,-0.0937 0.234375,-0.23438 0,-0.15234 -0.08203,-0.19922 -0.269532,-0.28125 l -1.382812,-0.69141 c 0.328125,-0.75 0.492187,-1.57031 0.492187,-2.39062 0,-0.82031 -0.164062,-1.64063 -0.492187,-2.39063 z m -6.257811,3.08203 4.417967,-2.17969 c 0.328125,0.78516 0.457031,1.5 0.457031,2.17969 0,0.73828 -0.152343,1.44141 -0.457031,2.17969 z m 0,0"
         style="fill:#000000;fill-opacity:1;fill-rule:nonzero;stroke:none" />
      <path
         id="path7"
         d="m -94.808625,122.93628 c -0.410156,0.70313 -0.820312,0.9375 -1.394531,0.97266 -0.128906,0.0117 -0.222656,0.0117 -0.222656,0.23437 0,0.0703 0.05859,0.11719 0.140625,0.11719 0.210937,0 0.75,-0.0234 0.972656,-0.0234 0.339844,0 0.726562,0.0234 1.054687,0.0234 0.07031,0 0.222657,0 0.222657,-0.22266 0,-0.11718 -0.09375,-0.1289 -0.175782,-0.1289 -0.269531,-0.0234 -0.492187,-0.11719 -0.492187,-0.39844 0,-0.17578 0.07031,-0.30469 0.222656,-0.5625 l 0.902344,-1.51172 h 3.058594 c 0.01172,0.10547 0.01172,0.21094 0.02344,0.31641 0.03516,0.30469 0.175781,1.54687 0.175781,1.78125 0,0.35156 -0.609375,0.375 -0.796875,0.375 -0.140625,0 -0.269531,0 -0.269531,0.22265 0,0.12891 0.105469,0.12891 0.175781,0.12891 0.210938,0 0.445313,-0.0234 0.65625,-0.0234 h 0.679688 c 0.726562,0 1.253906,0.0234 1.265625,0.0234 0.08203,0 0.210937,0 0.210937,-0.22266 0,-0.1289 -0.105468,-0.1289 -0.28125,-0.1289 -0.65625,0 -0.667968,-0.10547 -0.714843,-0.45703 l -0.726563,-7.46485 c -0.02344,-0.23437 -0.07031,-0.25781 -0.199219,-0.25781 -0.117187,0 -0.1875,0.0234 -0.304687,0.19922 z m 1.441406,-1.83984 2.402344,-4.01953 0.410156,4.01953 z m 13.617188,0.38672 c 0.01172,-0.0352 0.04687,-0.11719 0.04687,-0.16407 0,-0.0586 -0.04687,-0.11718 -0.117188,-0.11718 -0.04687,0 -0.07031,0.0117 -0.105468,0.0469 -0.02344,0.0117 -0.02344,0.0352 -0.140625,0.26953 -0.703125,1.67578 -1.21875,2.39063 -3.128907,2.39063 h -1.746093 c -0.164063,0 -0.1875,0 -0.257813,-0.0117 -0.128906,-0.0117 -0.140625,-0.0352 -0.140625,-0.12891 0,-0.082 0.02344,-0.15234 0.04687,-0.25781 l 0.820313,-3.30469 h 1.183593 c 0.9375,0 1.007813,0.21094 1.007813,0.5625 0,0.11719 0,0.23438 -0.08203,0.58594 -0.03516,0.0469 -0.04687,0.0937 -0.04687,0.12891 0,0.082 0.07031,0.1289 0.140625,0.1289 0.105468,0 0.117187,-0.0937 0.164062,-0.25781 l 0.679688,-2.77734 c 0,-0.0586 -0.04687,-0.11719 -0.117188,-0.11719 -0.105469,0 -0.117187,0.0469 -0.164062,0.22266 -0.246094,0.91406 -0.480469,1.18359 -1.546875,1.18359 h -1.136719 l 0.738281,-2.94141 c 0.117188,-0.42187 0.140625,-0.45703 0.621094,-0.45703 h 1.710937 c 1.476563,0 1.769532,0.39844 1.769532,1.30078 0,0.0117 0,0.35157 -0.04687,0.73828 -0.01172,0.0469 -0.02344,0.12891 -0.02344,0.15235 0,0.0937 0.05859,0.1289 0.128906,0.1289 0.08203,0 0.140625,-0.0469 0.164063,-0.26953 l 0.246094,-2.08593 c 0,-0.0352 0.02344,-0.15235 0.02344,-0.17579 0,-0.14062 -0.105469,-0.14062 -0.316406,-0.14062 h -5.835938 c -0.234375,0 -0.351562,0 -0.351562,0.22266 0,0.1289 0.08203,0.1289 0.292969,0.1289 0.738281,0 0.738281,0.082 0.738281,0.21094 0,0.0586 -0.01172,0.10547 -0.04687,0.24609 l -1.617188,6.45703 c -0.105468,0.41016 -0.128906,0.52735 -0.960937,0.52735 -0.234375,0 -0.351563,0 -0.351563,0.22265 0,0.12891 0.07031,0.12891 0.304688,0.12891 h 6 c 0.269531,0 0.28125,-0.0117 0.363281,-0.19922 z m 2.935547,1.89843 c -0.105469,0.41016 -0.128907,0.52735 -0.960938,0.52735 -0.234375,0 -0.351562,0 -0.351562,0.22265 0,0.12891 0.07031,0.12891 0.304687,0.12891 h 3.796875 c 2.414063,0 4.769531,-2.49609 4.769531,-5.16797 0,-1.72265 -1.03125,-3 -2.742187,-3 h -3.832031 c -0.234375,0 -0.339844,0 -0.339844,0.23438 0,0.11718 0.105469,0.11718 0.292969,0.11718 0.726562,0 0.726562,0.0937 0.726562,0.22266 0,0.0234 0,0.0937 -0.04687,0.28125 z m 2.519531,-6.46875 c 0.117187,-0.44531 0.164062,-0.46875 0.621094,-0.46875 h 1.324218 c 1.113282,0 2.144532,0.60938 2.144532,2.26172 0,0.59766 -0.234375,2.67188 -1.394532,3.98438 -0.339843,0.39844 -1.242187,1.21875 -2.625,1.21875 h -1.359375 c -0.164062,0 -0.1875,0 -0.257812,-0.0117 -0.128906,-0.0117 -0.140625,-0.0352 -0.140625,-0.12891 0,-0.082 0.02344,-0.15234 0.04687,-0.25781 z m 0,0"
         style="fill:#000000;fill-opacity:1;fill-rule:nonzero;stroke:none" />
      <path
         id="path8"
         d="m -47.13675,118.19019 c 0.140625,-0.0703 0.246094,-0.12891 0.246094,-0.28125 0,-0.14063 -0.105469,-0.23438 -0.234375,-0.23438 -0.03516,0 -0.05859,0 -0.210938,0.082 l -6.597656,3.25782 c -0.128906,0.0586 -0.234375,0.11718 -0.234375,0.25781 0,0.14062 0.09375,0.1875 0.246094,0.25781 l 6.585937,3.25781 c 0.152344,0.082 0.175782,0.082 0.210938,0.082 0.128906,0 0.234375,-0.0937 0.234375,-0.23438 0,-0.15234 -0.08203,-0.19922 -0.269531,-0.28125 L -48.543,123.66284 c 0.328125,-0.75 0.492188,-1.57031 0.492188,-2.39062 0,-0.82031 -0.164063,-1.64063 -0.492188,-2.39063 z m -6.257812,3.08203 4.417968,-2.17969 c 0.328125,0.78516 0.457032,1.5 0.457032,2.17969 0,0.73828 -0.152344,1.44141 -0.457032,2.17969 z m 0,0"
         style="fill:#000000;fill-opacity:1;fill-rule:nonzero;stroke:none" />
      <path
         id="path9"
         d="m -41.828156,116.91284 c 0.117187,-0.44531 0.164062,-0.46875 0.621094,-0.46875 h 1.558593 c 1.347657,0 1.347657,1.14844 1.347657,1.25391 0,0.97266 -0.960938,2.20313 -2.542969,2.20313 h -1.722656 z m 2.027344,3.08204 c 1.300781,-0.2461 2.484375,-1.14844 2.484375,-2.25 0,-0.92579 -0.832032,-1.65235 -2.179688,-1.65235 h -3.832031 c -0.234375,0 -0.339844,0 -0.339844,0.23438 0,0.11718 0.105469,0.11718 0.292969,0.11718 0.726562,0 0.726562,0.0937 0.726562,0.22266 0,0.0234 0,0.0937 -0.04687,0.28125 l -1.617187,6.43359 c -0.105469,0.41016 -0.128906,0.52735 -0.960938,0.52735 -0.234375,0 -0.351562,0 -0.351562,0.22265 0,0.12891 0.07031,0.12891 0.304687,0.12891 h 4.101563 c 1.828125,0 3.246094,-1.38281 3.246094,-2.58984 0,-0.98438 -0.867188,-1.58203 -1.828125,-1.67578 z m -1.699219,3.91406 h -1.617188 c -0.164062,0 -0.1875,0 -0.257812,-0.0117 -0.128906,-0.0117 -0.152344,-0.0352 -0.152344,-0.12891 0,-0.082 0.03516,-0.15234 0.05859,-0.25781 l 0.832031,-3.375 h 2.25 c 1.40625,0 1.40625,1.3125 1.40625,1.40625 0,1.14844 -1.042969,2.36719 -2.519531,2.36719 z m 13.098633,-2.42578 c 0.01172,-0.0352 0.04687,-0.11719 0.04687,-0.16407 0,-0.0586 -0.04687,-0.11718 -0.117188,-0.11718 -0.04687,0 -0.07031,0.0117 -0.105469,0.0469 -0.02344,0.0117 -0.02344,0.0352 -0.140625,0.26953 -0.703125,1.67578 -1.21875,2.39063 -3.128906,2.39063 h -1.746094 c -0.164062,0 -0.1875,0 -0.257812,-0.0117 -0.128906,-0.0117 -0.140625,-0.0352 -0.140625,-0.12891 0,-0.082 0.02344,-0.15234 0.04687,-0.25781 l 0.820312,-3.30469 h 1.183594 c 0.9375,0 1.007813,0.21094 1.007813,0.5625 0,0.11719 0,0.23438 -0.08203,0.58594 -0.03516,0.0469 -0.04687,0.0937 -0.04687,0.12891 0,0.082 0.07031,0.1289 0.140625,0.1289 0.105469,0 0.117188,-0.0937 0.164063,-0.25781 l 0.679687,-2.77734 c 0,-0.0586 -0.04687,-0.11719 -0.117187,-0.11719 -0.105469,0 -0.117188,0.0469 -0.164063,0.22266 -0.246093,0.91406 -0.480468,1.18359 -1.546875,1.18359 h -1.136718 l 0.738281,-2.94141 c 0.117187,-0.42187 0.140625,-0.45703 0.621094,-0.45703 h 1.710937 c 1.476563,0 1.769531,0.39844 1.769531,1.30078 0,0.0117 0,0.35157 -0.04687,0.73828 -0.01172,0.0469 -0.02344,0.12891 -0.02344,0.15235 0,0.0937 0.05859,0.1289 0.128906,0.1289 0.08203,0 0.140625,-0.0469 0.164063,-0.26953 l 0.246093,-2.08593 c 0,-0.0352 0.02344,-0.15235 0.02344,-0.17579 0,-0.14062 -0.105469,-0.14062 -0.316406,-0.14062 h -5.835938 c -0.234375,0 -0.351562,0 -0.351562,0.22266 0,0.1289 0.08203,0.1289 0.292968,0.1289 0.738282,0 0.738282,0.082 0.738282,0.21094 0,0.0586 -0.01172,0.10547 -0.04687,0.24609 l -1.617188,6.45703 c -0.105469,0.41016 -0.128906,0.52735 -0.960937,0.52735 -0.234375,0 -0.351563,0 -0.351563,0.22265 0,0.12891 0.07031,0.12891 0.304688,0.12891 h 6 c 0.269531,0 0.28125,-0.0117 0.363281,-0.19922 z m 9.993164,-5.53125 c 0,-0.10547 -0.08203,-0.10547 -0.105469,-0.10547 -0.02344,0 -0.07031,0 -0.175781,0.11719 l -0.820313,1.00781 c -0.421875,-0.71485 -1.078125,-1.125 -1.96875,-1.125 -2.589844,0 -5.261719,2.61328 -5.261719,5.42578 0,1.99219 1.394532,3.23437 3.140625,3.23437 0.960938,0 1.792969,-0.39843 2.484375,-0.98437 1.042969,-0.87891 1.359375,-2.03906 1.359375,-2.13281 0,-0.10547 -0.09375,-0.10547 -0.140625,-0.10547 -0.105468,0 -0.117187,0.0703 -0.140625,0.11719 -0.550781,1.86328 -2.15625,2.76562 -3.351562,2.76562 -1.277344,0 -2.367188,-0.82031 -2.367188,-2.50781 0,-0.38672 0.117188,-2.46094 1.464844,-4.03125 0.65625,-0.76172 1.78125,-1.44141 2.917969,-1.44141 1.3125,0 1.898437,1.08985 1.898437,2.3086 0,0.3164 -0.03516,0.57421 -0.03516,0.62109 0,0.11719 0.117188,0.11719 0.152344,0.11719 0.140625,0 0.152344,-0.0117 0.199219,-0.23438 z m 0,0"
         style="fill:#000000;fill-opacity:1;fill-rule:nonzero;stroke:none" />
      <path
         id="path10"
         d="m 91.364227,115.95191 c 0,-0.10547 -0.08203,-0.10547 -0.105469,-0.10547 -0.05859,0 -0.07031,0.0117 -0.210938,0.1875 -0.07031,0.082 -0.5625,0.70312 -0.574218,0.71484 -0.386719,-0.77344 -1.183594,-0.90234 -1.6875,-0.90234 -1.511719,0 -2.882813,1.38281 -2.882813,2.73047 0,0.90234 0.527344,1.42968 1.113281,1.6289 0.140625,0.0469 0.84375,0.2461 1.195313,0.32813 0.609375,0.16406 0.773437,0.21094 1.019531,0.48047 0.04687,0.0586 0.292969,0.32812 0.292969,0.89062 0,1.11328 -1.03125,2.26172 -2.226563,2.26172 -0.984375,0 -2.074218,-0.42187 -2.074218,-1.75781 0,-0.22266 0.05859,-0.51563 0.09375,-0.63281 0,-0.0352 0.01172,-0.0937 0.01172,-0.11719 0,-0.0469 -0.02344,-0.11719 -0.128906,-0.11719 -0.105469,0 -0.117187,0.0234 -0.164062,0.23438 l -0.609375,2.44921 c 0,0.0117 -0.04687,0.16407 -0.04687,0.17579 0,0.10546 0.09375,0.10546 0.117187,0.10546 0.04687,0 0.05859,-0.0117 0.210938,-0.1875 l 0.539062,-0.71484 c 0.292969,0.43359 0.914063,0.90234 2.027344,0.90234 1.535156,0 2.953125,-1.48828 2.953125,-2.98828 0,-0.49218 -0.117188,-0.9375 -0.574219,-1.38281 -0.257812,-0.24609 -0.46875,-0.30469 -1.570312,-0.59766 -0.796875,-0.21093 -0.902344,-0.24609 -1.125,-0.44531 -0.199219,-0.19922 -0.351563,-0.48047 -0.351563,-0.89062 0,-1.00782 1.007813,-2.03907 2.144531,-2.03907 1.171875,0 1.722657,0.72657 1.722657,1.86329 0,0.30468 -0.05859,0.63281 -0.05859,0.67968 0,0.10547 0.09375,0.10547 0.128906,0.10547 0.117188,0 0.128906,-0.0352 0.175781,-0.23437 z m 0,0"
         style="fill:#000000;fill-opacity:1;fill-rule:nonzero;stroke:none" />
      <path
         id="path11"
         d="m -55.064484,135.92945 c 0.01172,-0.0352 0.04687,-0.11719 0.04687,-0.16407 0,-0.0586 -0.04687,-0.11718 -0.117188,-0.11718 -0.04687,0 -0.07031,0.0117 -0.105469,0.0469 -0.02344,0.0117 -0.02344,0.0352 -0.140625,0.26953 -0.703125,1.67578 -1.21875,2.39063 -3.128906,2.39063 h -1.746094 c -0.164062,0 -0.1875,0 -0.257812,-0.0117 -0.128906,-0.0117 -0.140625,-0.0352 -0.140625,-0.12891 0,-0.082 0.02344,-0.15234 0.04687,-0.25781 l 0.820312,-3.30469 h 1.183594 c 0.9375,0 1.007813,0.21094 1.007813,0.5625 0,0.11719 0,0.23438 -0.08203,0.58594 -0.03516,0.0469 -0.04687,0.0937 -0.04687,0.12891 0,0.082 0.07031,0.1289 0.140625,0.1289 0.105469,0 0.117188,-0.0937 0.164063,-0.25781 l 0.679687,-2.77734 c 0,-0.0586 -0.04687,-0.11719 -0.117187,-0.11719 -0.105469,0 -0.117188,0.0469 -0.164063,0.22265 -0.246093,0.91407 -0.480468,1.1836 -1.546875,1.1836 h -1.136718 l 0.738281,-2.94141 c 0.117187,-0.42187 0.140625,-0.45703 0.621094,-0.45703 h 1.710937 c 1.476563,0 1.769531,0.39844 1.769531,1.30078 0,0.0117 0,0.35156 -0.04687,0.73828 -0.01172,0.0469 -0.02344,0.12891 -0.02344,0.15235 0,0.0937 0.05859,0.1289 0.128906,0.1289 0.08203,0 0.140625,-0.0469 0.164063,-0.26953 l 0.246093,-2.08594 c 0,-0.0351 0.02344,-0.15234 0.02344,-0.17578 0,-0.14062 -0.105469,-0.14062 -0.316406,-0.14062 h -5.835938 c -0.234375,0 -0.351562,0 -0.351562,0.22265 0,0.12891 0.08203,0.12891 0.292968,0.12891 0.738282,0 0.738282,0.082 0.738282,0.21094 0,0.0586 -0.01172,0.10547 -0.04687,0.24609 l -1.617188,6.45703 c -0.105469,0.41016 -0.128906,0.52735 -0.960937,0.52735 -0.234375,0 -0.351563,0 -0.351563,0.22265 0,0.12891 0.07031,0.12891 0.304688,0.12891 h 6 c 0.269531,0 0.28125,-0.0117 0.363281,-0.19922 z m 0,0"
         style="fill:#000000;fill-opacity:1;fill-rule:nonzero;stroke:none" />
      <path
         id="path12"
         d="m -43.149445,130.60913 c 0.09375,-0.16406 0.09375,-0.1875 0.09375,-0.22265 0,-0.082 -0.07031,-0.23438 -0.246094,-0.23438 -0.140625,0 -0.175781,0.0703 -0.257813,0.23438 l -5.367187,10.4414 c -0.09375,0.16407 -0.09375,0.1875 -0.09375,0.22266 0,0.0937 0.08203,0.23437 0.234375,0.23437 0.140625,0 0.175781,-0.0703 0.269531,-0.23437 z m 0,0"
         style="fill:#000000;fill-opacity:1;fill-rule:nonzero;stroke:none" />
      <path
         id="path13"
         d="m -42.610383,134.8396 c 0.164063,0 0.375,0 0.375,-0.22265 0,-0.22266 -0.199219,-0.22266 -0.375,-0.22266 h -7.042969 c -0.175781,0 -0.386718,0 -0.386718,0.21094 0,0.23437 0.199218,0.23437 0.386718,0.23437 z m 0,2.21485 c 0.164063,0 0.375,0 0.375,-0.21094 0,-0.23438 -0.199219,-0.23438 -0.375,-0.23438 h -7.042969 c -0.175781,0 -0.386718,0 -0.386718,0.22266 0,0.22266 0.199218,0.22266 0.386718,0.22266 z m 0,0"
         style="fill:#000000;fill-opacity:1;fill-rule:nonzero;stroke:none" />
      <path
         id="path14"
         d="m -30.666047,130.3982 c 0,-0.10547 -0.08203,-0.10547 -0.105469,-0.10547 -0.05859,0 -0.07031,0.0117 -0.210937,0.1875 -0.07031,0.082 -0.5625,0.70312 -0.574219,0.71484 -0.386719,-0.77344 -1.183594,-0.90234 -1.6875,-0.90234 -1.511719,0 -2.882812,1.38281 -2.882812,2.73047 0,0.90234 0.527343,1.42968 1.113281,1.6289 0.140625,0.0469 0.84375,0.2461 1.195312,0.32813 0.609375,0.16406 0.773438,0.21093 1.019532,0.48047 0.04687,0.0586 0.292968,0.32812 0.292968,0.89062 0,1.11328 -1.03125,2.26172 -2.226562,2.26172 -0.984375,0 -2.074219,-0.42188 -2.074219,-1.75781 0,-0.22266 0.05859,-0.51563 0.09375,-0.63282 0,-0.0351 0.01172,-0.0937 0.01172,-0.11718 0,-0.0469 -0.02344,-0.11719 -0.128906,-0.11719 -0.105469,0 -0.117188,0.0234 -0.164063,0.23437 l -0.609375,2.44922 c 0,0.0117 -0.04687,0.16407 -0.04687,0.17578 0,0.10547 0.09375,0.10547 0.117188,0.10547 0.04687,0 0.05859,-0.0117 0.210937,-0.1875 l 0.539063,-0.71484 c 0.292968,0.43359 0.914062,0.90234 2.027343,0.90234 1.535157,0 2.953125,-1.48828 2.953125,-2.98828 0,-0.49219 -0.117187,-0.9375 -0.574218,-1.38281 -0.257813,-0.24609 -0.46875,-0.30469 -1.570313,-0.59766 -0.796875,-0.21093 -0.902344,-0.24609 -1.125,-0.44531 -0.199219,-0.19922 -0.351562,-0.48047 -0.351562,-0.89062 0,-1.00782 1.007812,-2.03907 2.144531,-2.03907 1.171875,0 1.722656,0.72657 1.722656,1.86328 0,0.30469 -0.05859,0.63282 -0.05859,0.67969 0,0.10547 0.09375,0.10547 0.128907,0.10547 0.117187,0 0.128906,-0.0352 0.175781,-0.23437 z m 0,0"
         style="fill:#000000;fill-opacity:1;fill-rule:nonzero;stroke:none" />
      <path
         id="path15"
         d="m 35.225555,135.92945 c 0.01172,-0.0352 0.04687,-0.11719 0.04687,-0.16407 0,-0.0586 -0.04687,-0.11718 -0.117188,-0.11718 -0.04687,0 -0.07031,0.0117 -0.105469,0.0469 -0.02344,0.0117 -0.02344,0.0352 -0.140625,0.26953 -0.703125,1.67578 -1.21875,2.39063 -3.128906,2.39063 h -1.746094 c -0.164062,0 -0.1875,0 -0.257812,-0.0117 -0.128906,-0.0117 -0.140625,-0.0352 -0.140625,-0.12891 0,-0.082 0.02344,-0.15234 0.04687,-0.25781 l 0.820312,-3.30469 h 1.183594 c 0.9375,0 1.007813,0.21094 1.007813,0.5625 0,0.11719 0,0.23438 -0.08203,0.58594 -0.03516,0.0469 -0.04687,0.0937 -0.04687,0.12891 0,0.082 0.07031,0.1289 0.140625,0.1289 0.105469,0 0.117188,-0.0937 0.164063,-0.25781 l 0.679687,-2.77734 c 0,-0.0586 -0.04687,-0.11719 -0.117187,-0.11719 -0.105469,0 -0.117188,0.0469 -0.164063,0.22265 -0.246093,0.91407 -0.480468,1.1836 -1.546875,1.1836 H 30.58493 l 0.738281,-2.94141 c 0.117187,-0.42187 0.140625,-0.45703 0.621094,-0.45703 h 1.710937 c 1.476563,0 1.769531,0.39844 1.769531,1.30078 0,0.0117 0,0.35156 -0.04687,0.73828 -0.01172,0.0469 -0.02344,0.12891 -0.02344,0.15235 0,0.0937 0.05859,0.1289 0.128906,0.1289 0.08203,0 0.140625,-0.0469 0.164063,-0.26953 l 0.246093,-2.08594 c 0,-0.0351 0.02344,-0.15234 0.02344,-0.17578 0,-0.14062 -0.105469,-0.14062 -0.316406,-0.14062 h -5.835938 c -0.234375,0 -0.351562,0 -0.351562,0.22265 0,0.12891 0.08203,0.12891 0.292968,0.12891 0.738282,0 0.738282,0.082 0.738282,0.21094 0,0.0586 -0.01172,0.10547 -0.04687,0.24609 l -1.617188,6.45703 c -0.105469,0.41016 -0.128906,0.52735 -0.960937,0.52735 -0.234375,0 -0.351563,0 -0.351563,0.22265 0,0.12891 0.07031,0.12891 0.304688,0.12891 h 6 c 0.269531,0 0.28125,-0.0117 0.363281,-0.19922 z m 8.654297,-5.53125 c 0,-0.10547 -0.08203,-0.10547 -0.105469,-0.10547 -0.05859,0 -0.07031,0.0117 -0.210938,0.1875 -0.07031,0.082 -0.5625,0.70312 -0.574218,0.71484 -0.386719,-0.77344 -1.183594,-0.90234 -1.6875,-0.90234 -1.511719,0 -2.882813,1.38281 -2.882813,2.73047 0,0.90234 0.527344,1.42968 1.113281,1.6289 0.140625,0.0469 0.84375,0.2461 1.195313,0.32813 0.609375,0.16406 0.773437,0.21093 1.019531,0.48047 0.04687,0.0586 0.292969,0.32812 0.292969,0.89062 0,1.11328 -1.03125,2.26172 -2.226563,2.26172 -0.984375,0 -2.074218,-0.42188 -2.074218,-1.75781 0,-0.22266 0.05859,-0.51563 0.09375,-0.63282 0,-0.0351 0.01172,-0.0937 0.01172,-0.11718 0,-0.0469 -0.02344,-0.11719 -0.128906,-0.11719 -0.105469,0 -0.117187,0.0234 -0.164062,0.23437 l -0.609375,2.44922 c 0,0.0117 -0.04687,0.16407 -0.04687,0.17578 0,0.10547 0.09375,0.10547 0.117187,0.10547 0.04687,0 0.05859,-0.0117 0.210938,-0.1875 l 0.539062,-0.71484 c 0.292969,0.43359 0.914063,0.90234 2.027344,0.90234 1.535156,0 2.953125,-1.48828 2.953125,-2.98828 0,-0.49219 -0.117188,-0.9375 -0.574219,-1.38281 -0.257812,-0.24609 -0.46875,-0.30469 -1.570312,-0.59766 -0.796875,-0.21093 -0.902344,-0.24609 -1.125,-0.44531 -0.199219,-0.19922 -0.351563,-0.48047 -0.351563,-0.89062 0,-1.00782 1.007813,-2.03907 2.144531,-2.03907 1.171875,0 1.722657,0.72657 1.722657,1.86328 0,0.30469 -0.05859,0.63282 -0.05859,0.67969 0,0.10547 0.09375,0.10547 0.128906,0.10547 0.117188,0 0.128906,-0.0352 0.175781,-0.23437 z m 0,0"
         style="fill:#000000;fill-opacity:1;fill-rule:nonzero;stroke:none" />
      <path
         id="path16"
         d="m 25.537078,196.20191 c 0.503906,0 0.84375,0.33984 0.84375,0.94922 0,0.65625 -0.386719,0.9375 -0.832031,0.9375 -0.152344,0 -0.773438,-0.0352 -1.042969,-0.375 0.234375,-0.0234 0.328125,-0.1875 0.328125,-0.33985 0,-0.21094 -0.140625,-0.33984 -0.339844,-0.33984 -0.164062,0 -0.339843,0.0937 -0.339843,0.35156 0,0.58594 0.65625,0.92578 1.417968,0.92578 0.878907,0 1.476563,-0.57422 1.476563,-1.16015 0,-0.4336 -0.339844,-0.90235 -1.042969,-1.07813 0.46875,-0.15234 0.855469,-0.53906 0.855469,-1.03125 0,-0.48047 -0.5625,-0.83203 -1.277344,-0.83203 -0.703125,0 -1.242187,0.31641 -1.242187,0.80859 0,0.25782 0.199218,0.32813 0.316406,0.32813 0.164062,0 0.328125,-0.10547 0.328125,-0.31641 0,-0.1875 -0.140625,-0.29297 -0.292969,-0.3164 0.269531,-0.30469 0.820313,-0.30469 0.867188,-0.30469 0.304687,0 0.691406,0.14062 0.691406,0.63281 0,0.32813 -0.1875,0.90234 -0.785156,0.9375 -0.105469,0.0117 -0.269532,0.0234 -0.316407,0.0234 -0.05859,0 -0.128906,0.0117 -0.128906,0.10547 0,0.0937 0.07031,0.0937 0.164063,0.0937 z m 0,0"
         style="fill:#000000;fill-opacity:1;fill-rule:nonzero;stroke:none" />
      <path
         id="path17"
         d="m 26.357391,211.88745 h -0.01172 l -2.578125,-11.97656 -1.570313,2.46094 c -0.08203,0.11719 -0.08203,0.14062 -0.08203,0.15234 0,0.0469 0.152344,0.17578 0.175781,0.1875 l 0.808594,-1.27734 2.753906,12.82031 c 0.398438,0 0.433594,0 0.503907,-0.30469 l 6.574218,-27.89062 c 0.02344,-0.082 0.04687,-0.1875 0.04687,-0.2461 0,-0.14062 -0.09375,-0.24609 -0.234375,-0.24609 -0.1875,0 -0.222656,0.15234 -0.257812,0.32813 z m 0,0"
         style="fill:#000000;fill-opacity:1;fill-rule:nonzero;stroke:none" />
    </g>
    <path
       id="path18"
       d="M 0,0 H 132.253"
       style="fill:none;stroke:#000000;stroke-width:0.478;stroke-linecap:butt;stroke-linejoin:miter;stroke-miterlimit:10;stroke-dasharray:none;stroke-opacity:1"
       transform="matrix(1.3333333,0,0,-1.3333333,318.38533,303.81467)" />
    <g
       id="g18"
       aria-label="120+&#10;3&#10;q"
       transform="matrix(1.3333333,0,0,1.3333333,318.38533,332.27467)">
      <path
         id="path19"
         d="m 3.4463516,-7.6649844 c 0,-0.2695312 0,-0.28125 -0.2460938,-0.28125 -0.28125,0.3164063 -0.8789062,0.7617188 -2.109375,0.7617188 v 0.3515625 c 0.2695313,0 0.8671875,0 1.5234375,-0.3164063 v 6.22265628 c 0,0.43359375 -0.035156,0.57421875 -1.078125,0.57421875 h -0.375 v 0.351562495 c 0.3164063,-0.023437495 1.4765625,-0.023437495 1.875,-0.023437495 0.3984375,0 1.546875,0 1.8632813,0.023437495 V -0.35248437 H 4.5361953 c -1.0546875,0 -1.0898437,-0.140625 -1.0898437,-0.57421875 z m 7.6699214,5.6601563 h -0.269531 c -0.03516,0.1992187 -0.128906,0.8554687 -0.246094,1.04296873 -0.08203,0.1171875 -0.7617183,0.1171875 -1.1249996,0.1171875 H 7.2608047 c 0.328125,-0.28125003 1.0546875,-1.04296873 1.3710937,-1.33593753 1.8164066,-1.6640625 2.4843746,-2.2851562 2.4843746,-3.46875 0,-1.3828125 -1.089843,-2.296875 -2.4726558,-2.296875 -1.3945313,0 -2.203125,1.1835938 -2.203125,2.203125 0,0.609375 0.5273437,0.609375 0.5625,0.609375 0.2460937,0 0.5625,-0.1757812 0.5625,-0.5625 0,-0.328125 -0.234375,-0.5507812 -0.5625,-0.5507812 -0.1054688,0 -0.1289063,0 -0.1640625,0.011719 0.2226562,-0.8203125 0.8671875,-1.3710937 1.640625,-1.3710937 1.0195312,0 1.6406253,0.8554687 1.6406253,1.9570312 0,1.0078125 -0.5859378,1.8984375 -1.2656253,2.6601563 l -2.4140625,2.70703123 v 0.281249995 h 4.3593748 z m 5.944336,-1.8164063 c 0,-0.9960937 -0.05859,-1.96875 -0.492187,-2.8710937 -0.492188,-0.9960938 -1.347656,-1.2539063 -1.933594,-1.2539063 -0.691406,0 -1.546875,0.3398438 -1.980469,1.3359375 -0.339843,0.75 -0.457031,1.4882813 -0.457031,2.7890625 0,1.1601563 0.08203,2.0273438 0.515625,2.87109378 0.457031,0.9140625 1.289063,1.1953125 1.910156,1.1953125 1.042969,0 1.640625,-0.62109375 1.980469,-1.31249998 0.433594,-0.890625 0.457031,-2.0625 0.457031,-2.7539063 z m -2.4375,3.83203128 c -0.386718,0 -1.160156,-0.2109375 -1.382812,-1.52343748 -0.140625,-0.7148438 -0.140625,-1.6171875 -0.140625,-2.4609375 0,-0.9726563 0,-1.8632813 0.199219,-2.5664063 0.199218,-0.796875 0.808593,-1.171875 1.324218,-1.171875 0.457032,0 1.148438,0.28125 1.371094,1.3007813 0.152344,0.6796875 0.152344,1.6289062 0.152344,2.4375 0,0.8085937 0,1.7109375 -0.128906,2.4375 -0.222657,1.32421873 -0.972657,1.54687498 -1.394532,1.54687498 z M 24.982484,-2.7665469 h 3.304688 c 0.164062,0 0.375,0 0.375,-0.2109375 0,-0.2226562 -0.199219,-0.2226562 -0.375,-0.2226562 h -3.304688 v -3.3046875 c 0,-0.1640625 0,-0.3867188 -0.210937,-0.3867188 -0.234375,0 -0.234375,0.2109375 -0.234375,0.3867188 v 3.3046875 h -3.292969 c -0.175781,0 -0.386719,0 -0.386719,0.2109375 0,0.2226562 0.199219,0.2226562 0.386719,0.2226562 h 3.292969 v 3.30468753 c 0,0.1640625 0,0.38671875 0.222656,0.38671875 0.222656,0 0.222656,-0.2109375 0.222656,-0.38671875 z m 0,0"
         style="fill:#000000;fill-opacity:1;fill-rule:nonzero;stroke:none" />
      <path
         id="path20"
         d="m 37.055727,-9.3202578 c 0.503906,0 0.84375,0.3398437 0.84375,0.9492187 0,0.65625 -0.386719,0.9375 -0.832032,0.9375 -0.152343,0 -0.773437,-0.035156 -1.042968,-0.375 0.234375,-0.023437 0.328125,-0.1875 0.328125,-0.3398437 0,-0.2109375 -0.140625,-0.3398438 -0.339844,-0.3398438 -0.164063,0 -0.339844,0.09375 -0.339844,0.3515625 0,0.5859375 0.65625,0.9257813 1.417969,0.9257813 0.878906,0 1.476562,-0.5742188 1.476562,-1.1601563 0,-0.4335937 -0.339843,-0.9023437 -1.042968,-1.078125 0.46875,-0.1523437 0.855468,-0.5390625 0.855468,-1.0312499 0,-0.480469 -0.5625,-0.832031 -1.277343,-0.832031 -0.703125,0 -1.242188,0.316406 -1.242188,0.808593 0,0.257813 0.199219,0.328125 0.316406,0.328125 0.164063,0 0.328125,-0.105468 0.328125,-0.316406 0,-0.1875 -0.140625,-0.292969 -0.292968,-0.316406 0.269531,-0.304688 0.820312,-0.304688 0.867187,-0.304688 0.304688,0 0.691406,0.140625 0.691406,0.632813 0,0.328125 -0.1875,0.9023437 -0.785156,0.9374999 -0.105469,0.011719 -0.269531,0.023437 -0.316406,0.023437 -0.05859,0 -0.128906,0.011719 -0.128906,0.1054688 0,0.09375 0.07031,0.09375 0.164062,0.09375 z m 0,0"
         style="fill:#000000;fill-opacity:1;fill-rule:nonzero;stroke:none" />
      <path
         id="path21"
         d="m 37.852602,3.0840391 -2.566407,-8.9648438 -1.664062,1.9453125 0.199219,0.1875 0.808593,-0.9609375 2.742188,9.5859375 c 0.398437,0 0.410156,0 0.503906,-0.28125 l 6.5625,-20.7539058 c 0.05859,-0.175782 0.05859,-0.222657 0.05859,-0.234375 0,-0.140625 -0.09375,-0.246094 -0.234375,-0.246094 -0.175781,0 -0.222656,0.152344 -0.269531,0.316406 z m 0,0"
         style="fill:#000000;fill-opacity:1;fill-rule:nonzero;stroke:none" />
    </g>
    <path
       id="path22"
       d="M 0,0 H 87.989"
       style="fill:none;stroke:#000000;stroke-width:0.478;stroke-linecap:butt;stroke-linejoin:miter;stroke-miterlimit:10;stroke-dasharray:none;stroke-opacity:1"
       transform="matrix(1.3333333,0,0,-1.3333333,377.404,310.41067)" />
    <g
       id="g22"
       aria-label="120+&#10;3&#10;√"
       transform="matrix(1.3333333,0,0,1.3333333,377.404,332.27467)">
      <path
         id="path23"
         d="m 3.4440703,-7.6649844 c 0,-0.2695312 0,-0.28125 -0.2460937,-0.28125 -0.28125,0.3164063 -0.8789063,0.7617188 -2.109375,0.7617188 v 0.3515625 c 0.2695312,0 0.8671875,0 1.5234375,-0.3164063 v 6.22265628 c 0,0.43359375 -0.035156,0.57421875 -1.078125,0.57421875 h -0.375 v 0.351562495 c 0.3164062,-0.023437495 1.4765625,-0.023437495 1.875,-0.023437495 0.3984375,0 1.546875,0 1.8632812,0.023437495 V -0.35248437 H 4.5339141 c -1.0546875,0 -1.0898438,-0.140625 -1.0898438,-0.57421875 z m 7.6699217,5.6601563 h -0.269531 c -0.03516,0.1992187 -0.128906,0.8554687 -0.246094,1.04296873 -0.08203,0.1171875 -0.7617186,0.1171875 -1.1249998,0.1171875 H 7.2585234 c 0.328125,-0.28125003 1.0546875,-1.04296873 1.3710938,-1.33593753 1.8164058,-1.6640625 2.4843748,-2.2851562 2.4843748,-3.46875 0,-1.3828125 -1.089844,-2.296875 -2.4726561,-2.296875 -1.3945312,0 -2.203125,1.1835938 -2.203125,2.203125 0,0.609375 0.5273438,0.609375 0.5625,0.609375 0.2460938,0 0.5625,-0.1757812 0.5625,-0.5625 0,-0.328125 -0.234375,-0.5507812 -0.5625,-0.5507812 -0.1054687,0 -0.1289062,0 -0.1640625,0.011719 0.2226563,-0.8203125 0.8671875,-1.3710937 1.640625,-1.3710937 1.0195313,0 1.6406246,0.8554687 1.6406246,1.9570312 0,1.0078125 -0.5859371,1.8984375 -1.2656246,2.6601563 l -2.4140625,2.70703123 v 0.281249995 h 4.3593751 z m 5.947266,-1.8164063 c 0,-0.9960937 -0.05859,-1.96875 -0.492188,-2.8710937 -0.492187,-0.9960938 -1.347656,-1.2539063 -1.933593,-1.2539063 -0.691407,0 -1.546875,0.3398438 -1.980469,1.3359375 -0.339844,0.75 -0.457031,1.4882813 -0.457031,2.7890625 0,1.1601563 0.08203,2.0273438 0.515625,2.87109378 0.457031,0.9140625 1.289062,1.1953125 1.910156,1.1953125 1.042969,0 1.640625,-0.62109375 1.980469,-1.31249998 0.433593,-0.890625 0.457031,-2.0625 0.457031,-2.7539063 z m -2.4375,3.83203128 c -0.386719,0 -1.160156,-0.2109375 -1.382813,-1.52343748 -0.140625,-0.7148438 -0.140625,-1.6171875 -0.140625,-2.4609375 0,-0.9726563 0,-1.8632813 0.199219,-2.5664063 0.199219,-0.796875 0.808594,-1.171875 1.324219,-1.171875 0.457031,0 1.148437,0.28125 1.371094,1.3007813 0.152343,0.6796875 0.152343,1.6289062 0.152343,2.4375 0,0.8085937 0,1.7109375 -0.128906,2.4375 -0.222656,1.32421873 -0.972656,1.54687498 -1.394531,1.54687498 z M 24.983133,-2.7665469 h 3.304687 c 0.164063,0 0.375,0 0.375,-0.2109375 0,-0.2226562 -0.199218,-0.2226562 -0.375,-0.2226562 h -3.304687 v -3.3046875 c 0,-0.1640625 0,-0.3867188 -0.210938,-0.3867188 -0.234375,0 -0.234375,0.2109375 -0.234375,0.3867188 v 3.3046875 h -3.292968 c -0.175782,0 -0.386719,0 -0.386719,0.2109375 0,0.2226562 0.199219,0.2226562 0.386719,0.2226562 h 3.292968 v 3.30468753 c 0,0.1640625 0,0.38671875 0.222657,0.38671875 0.222656,0 0.222656,-0.2109375 0.222656,-0.38671875 z m 0,0"
         style="fill:#000000;fill-opacity:1;fill-rule:nonzero;stroke:none" />
      <path
         id="path24"
         d="m 37.056375,-7.6884219 c 0.503906,0 0.84375,0.3398438 0.84375,0.9492188 0,0.65625 -0.386719,0.9375 -0.832031,0.9375 -0.152344,0 -0.773438,-0.035156 -1.042969,-0.375 0.234375,-0.023437 0.328125,-0.1875 0.328125,-0.3398438 0,-0.2109375 -0.140625,-0.3398437 -0.339844,-0.3398437 -0.164062,0 -0.339843,0.09375 -0.339843,0.3515625 0,0.5859375 0.65625,0.9257812 1.417968,0.9257812 0.878907,0 1.476563,-0.5742187 1.476563,-1.1601562 0,-0.4335938 -0.339844,-0.9023438 -1.042969,-1.078125 0.46875,-0.1523438 0.855469,-0.5390625 0.855469,-1.03125 0,-0.4804688 -0.5625,-0.8320313 -1.277344,-0.8320313 -0.703125,0 -1.242187,0.3164063 -1.242187,0.8085938 0,0.2578125 0.199218,0.328125 0.316406,0.328125 0.164062,0 0.328125,-0.1054688 0.328125,-0.3164063 0,-0.1875 -0.140625,-0.2929687 -0.292969,-0.3164062 0.269531,-0.3046875 0.820313,-0.3046875 0.867188,-0.3046875 0.304687,0 0.691406,0.140625 0.691406,0.6328125 0,0.328125 -0.1875,0.9023437 -0.785156,0.9375 -0.105469,0.011719 -0.269532,0.023437 -0.316407,0.023437 -0.05859,0 -0.128906,0.011719 -0.128906,0.1054687 0,0.09375 0.07031,0.09375 0.164063,0.09375 z m 0,0"
         style="fill:#000000;fill-opacity:1;fill-rule:nonzero;stroke:none" />
      <path
         id="path25"
         d="M 36.962625,0.20415625 34.85325,-4.4481875 c -0.08203,-0.1875 -0.140625,-0.1875 -0.175781,-0.1875 -0.01172,0 -0.07031,0 -0.199219,0.09375 L 33.341531,-3.67475 c -0.164062,0.1171875 -0.164062,0.1523438 -0.164062,0.1875 0,0.058594 0.04687,0.1289063 0.128906,0.1289063 0.07031,0 0.269531,-0.1640625 0.398438,-0.2578125 0.07031,-0.058594 0.257812,-0.1992188 0.386718,-0.2929688 L 36.447,1.2705625 c 0.08203,0.1875 0.140625,0.1875 0.246094,0.1875 0.1875,0 0.222656,-0.070312 0.304687,-0.234375 l 5.425782,-11.2382815 c 0.08203,-0.164062 0.08203,-0.210937 0.08203,-0.234375 0,-0.128906 -0.09375,-0.246093 -0.234375,-0.246093 -0.09375,0 -0.1875,0.05859 -0.28125,0.257812 z m 0,0"
         style="fill:#000000;fill-opacity:1;fill-rule:nonzero;stroke:none" />
    </g>
    <path
       id="path26"
       d="M 0,0 H 45.717"
       style="fill:none;stroke:#000000;stroke-width:0.478;stroke-linecap:butt;stroke-linejoin:miter;stroke-miterlimit:10;stroke-dasharray:none;stroke-opacity:1"
       transform="matrix(1.3333333,0,0,-1.3333333,433.76667,318.60133)" />
    <g
       id="g26"
       aria-label="120+...&#10;jestliczb¡naturaln¡.&#10;ZADANIE3.&#10;Rozstrzygnij,czyistniejeczworo±cian,wktórym±rodkiokr¦gówopisanychna±cianachle»¡&#10;najednejpªaszczy¹nie.&#10;ZADANIE4.&#10;Liczby1,2,3,4,...,32,33umieszczonowwierzchoªkach33-k¡taforemnego,anast¦pniena&#10;±rodkuka»degojegobokuzapisanosum¦liczbstoj¡cychnajegoko«cach.Czyistniejetakie&#10;rozstawienietychliczbwwierzchoªkachwielok¡ta,abywszystkieliczbyzapisanena±rodkach&#10;jegobokówbyªyliczbamipodzielnymiprzez4?&#10;ZADANIE5.&#10;Wyznaczwszystkiefunkcjef:R→Rspeªniaj¡cewarunek&#10;f(x+y)−f(x−y)=4xy&#10;dladowolnychliczbrzeczywistychx,y."
       transform="matrix(1.3333333,0,0,1.3333333,433.76667,332.27467)">
      <path
         id="path27"
         d="m 3.4445313,-7.6649844 c 0,-0.2695312 0,-0.28125 -0.2460938,-0.28125 -0.28125,0.3164063 -0.8789062,0.7617188 -2.109375,0.7617188 v 0.3515625 c 0.2695313,0 0.8671875,0 1.5234375,-0.3164063 v 6.22265628 c 0,0.43359375 -0.035156,0.57421875 -1.078125,0.57421875 h -0.375 v 0.351562495 c 0.3164063,-0.023437495 1.4765625,-0.023437495 1.875,-0.023437495 0.3984375,0 1.546875,0 1.8632813,0.023437495 V -0.35248437 H 4.534375 c -1.0546875,0 -1.0898437,-0.140625 -1.0898437,-0.57421875 z m 7.6699217,5.6601563 h -0.269531 c -0.03516,0.1992187 -0.128906,0.8554687 -0.246094,1.04296873 -0.08203,0.1171875 -0.7617186,0.1171875 -1.1249999,0.1171875 H 7.2589844 c 0.328125,-0.28125003 1.0546875,-1.04296873 1.3710937,-1.33593753 1.8164059,-1.6640625 2.4843749,-2.2851562 2.4843749,-3.46875 0,-1.3828125 -1.089844,-2.296875 -2.4726561,-2.296875 -1.3945313,0 -2.203125,1.1835938 -2.203125,2.203125 0,0.609375 0.5273437,0.609375 0.5625,0.609375 0.2460937,0 0.5625,-0.1757812 0.5625,-0.5625 0,-0.328125 -0.234375,-0.5507812 -0.5625,-0.5507812 -0.1054688,0 -0.1289063,0 -0.1640625,0.011719 0.2226562,-0.8203125 0.8671875,-1.3710937 1.640625,-1.3710937 1.0195312,0 1.6406246,0.8554687 1.6406246,1.9570312 0,1.0078125 -0.5859371,1.8984375 -1.2656246,2.6601563 l -2.4140625,2.70703123 v 0.281249995 h 4.3593751 z m 5.947266,-1.8164063 c 0,-0.9960937 -0.05859,-1.96875 -0.492188,-2.8710937 -0.492187,-0.9960938 -1.347656,-1.2539063 -1.933593,-1.2539063 -0.691407,0 -1.546875,0.3398438 -1.980469,1.3359375 -0.339844,0.75 -0.457031,1.4882813 -0.457031,2.7890625 0,1.1601563 0.08203,2.0273438 0.515625,2.87109378 0.457031,0.9140625 1.289062,1.1953125 1.910156,1.1953125 1.042969,0 1.640625,-0.62109375 1.980469,-1.31249998 0.433593,-0.890625 0.457031,-2.0625 0.457031,-2.7539063 z m -2.4375,3.83203128 c -0.386719,0 -1.160156,-0.2109375 -1.382813,-1.52343748 -0.140625,-0.7148438 -0.140625,-1.6171875 -0.140625,-2.4609375 0,-0.9726563 0,-1.8632813 0.199219,-2.5664063 0.199219,-0.796875 0.808594,-1.171875 1.324219,-1.171875 0.457031,0 1.148437,0.28125 1.371094,1.3007813 0.152343,0.6796875 0.152343,1.6289062 0.152343,2.4375 0,0.8085937 0,1.7109375 -0.128906,2.4375 -0.222656,1.32421873 -0.972656,1.54687498 -1.394531,1.54687498 z M 24.983594,-2.7665469 h 3.304687 c 0.164063,0 0.375,0 0.375,-0.2109375 0,-0.2226562 -0.199218,-0.2226562 -0.375,-0.2226562 h -3.304687 v -3.3046875 c 0,-0.1640625 0,-0.3867188 -0.210938,-0.3867188 -0.234375,0 -0.234375,0.2109375 -0.234375,0.3867188 v 3.3046875 h -3.292968 c -0.175782,0 -0.386719,0 -0.386719,0.2109375 0,0.2226562 0.199219,0.2226562 0.386719,0.2226562 h 3.292968 v 3.30468753 c 0,0.1640625 0,0.38671875 0.222657,0.38671875 0.222656,0 0.222656,-0.2109375 0.222656,-0.38671875 z m 0,0"
         style="fill:#000000;fill-opacity:1;fill-rule:nonzero;stroke:none" />
      <path
         id="path28"
         d="m 34.179883,-0.57514062 c 0,-0.3515625 -0.292969,-0.58593748 -0.574219,-0.58593748 -0.351562,0 -0.585937,0.29296873 -0.585937,0.57421873 0,0.3515625 0.28125,0.585937495 0.574218,0.585937495 0.339844,0 0.585938,-0.281249995 0.585938,-0.574218745 z m 5.25,0 c 0,-0.3515625 -0.292969,-0.58593748 -0.574219,-0.58593748 -0.351562,0 -0.585937,0.29296873 -0.585937,0.57421873 0,0.3515625 0.28125,0.585937495 0.574218,0.585937495 0.339844,0 0.585938,-0.281249995 0.585938,-0.574218745 z m 5.235351,0 c 0,-0.3515625 -0.292968,-0.58593748 -0.574218,-0.58593748 -0.351563,0 -0.585938,0.29296873 -0.585938,0.57421873 0,0.3515625 0.28125,0.585937495 0.574219,0.585937495 0.339844,0 0.585937,-0.281249995 0.585937,-0.574218745 z m 0,0"
         style="fill:#000000;fill-opacity:1;fill-rule:nonzero;stroke:none" />
      <path
         id="path29"
         d="m -224.89531,115.72466 c 0,-0.26953 0,-0.28125 -0.2461,-0.28125 -0.28125,0.31641 -0.8789,0.76172 -2.10937,0.76172 v 0.35157 c 0.26953,0 0.86719,0 1.52344,-0.31641 v 6.22266 c 0,0.43359 -0.0352,0.57421 -1.07813,0.57421 h -0.375 v 0.35157 c 0.31641,-0.0234 1.47656,-0.0234 1.875,-0.0234 0.39844,0 1.54688,0 1.86328,0.0234 v -0.35157 h -0.36328 c -1.05469,0 -1.08984,-0.14062 -1.08984,-0.57421 z m 0,0"
         style="fill:#000000;fill-opacity:1;fill-rule:nonzero;stroke:none" />
      <path
         id="path30"
         d="m -220.15508,123.4356 c 0,-0.6914 -0.22265,-1.20703 -0.71484,-1.20703 -0.38672,0 -0.57422,0.31641 -0.57422,0.57422 0,0.25781 0.17578,0.58594 0.58594,0.58594 0.15234,0 0.28125,-0.0469 0.38672,-0.15235 0.0234,-0.0234 0.0352,-0.0234 0.0469,-0.0234 0.0352,0 0.0352,0.16406 0.0352,0.22265 0,0.39844 -0.082,1.17188 -0.77344,1.94531 -0.12891,0.15235 -0.12891,0.17579 -0.12891,0.19922 0,0.0586 0.0586,0.11719 0.11719,0.11719 0.0937,0 1.01953,-0.89062 1.01953,-2.26172 z m 0,0"
         style="fill:#000000;fill-opacity:1;fill-rule:nonzero;stroke:none" />
      <path
         id="path31"
         d="m -211.98125,121.38482 h -0.26953 c -0.0352,0.19922 -0.12891,0.85547 -0.24609,1.04297 -0.082,0.11719 -0.76172,0.11719 -1.125,0.11719 h -2.21485 c 0.32813,-0.28125 1.05469,-1.04297 1.3711,-1.33594 1.8164,-1.66406 2.48437,-2.28516 2.48437,-3.46875 0,-1.38281 -1.08984,-2.29688 -2.47266,-2.29688 -1.39453,0 -2.20312,1.1836 -2.20312,2.20313 0,0.60937 0.52734,0.60937 0.5625,0.60937 0.24609,0 0.5625,-0.17578 0.5625,-0.5625 0,-0.32812 -0.23438,-0.55078 -0.5625,-0.55078 -0.10547,0 -0.12891,0 -0.16406,0.0117 0.22265,-0.82031 0.86718,-1.37109 1.64062,-1.37109 1.01953,0 1.64063,0.85547 1.64063,1.95703 0,1.00781 -0.58594,1.89844 -1.26563,2.66016 l -2.41406,2.70703 v 0.28125 h 4.35937 z m 0,0"
         style="fill:#000000;fill-opacity:1;fill-rule:nonzero;stroke:none" />
      <path
         id="path32"
         d="m -209.06035,123.4356 c 0,-0.6914 -0.22266,-1.20703 -0.71485,-1.20703 -0.38671,0 -0.57421,0.31641 -0.57421,0.57422 0,0.25781 0.17578,0.58594 0.58593,0.58594 0.15235,0 0.28125,-0.0469 0.38672,-0.15235 0.0234,-0.0234 0.0352,-0.0234 0.0469,-0.0234 0.0352,0 0.0352,0.16406 0.0352,0.22265 0,0.39844 -0.082,1.17188 -0.77343,1.94531 -0.12891,0.15235 -0.12891,0.17579 -0.12891,0.19922 0,0.0586 0.0586,0.11719 0.11719,0.11719 0.0937,0 1.01953,-0.89062 1.01953,-2.26172 z m 0,0"
         style="fill:#000000;fill-opacity:1;fill-rule:nonzero;stroke:none" />
      <path
         id="path33"
         d="m -203.94219,119.09966 c -0.21093,0.0117 -0.25781,0.0234 -0.25781,0.12891 0,0.11719 0.0586,0.11719 0.28125,0.11719 h 0.55078 c 1.00781,0 1.46485,0.84375 1.46485,1.99219 0,1.55859 -0.8086,1.98046 -1.39454,1.98046 -0.57421,0 -1.55859,-0.28125 -1.89843,-1.0664 0.375,0.0586 0.72656,-0.15235 0.72656,-0.58594 0,-0.33984 -0.25781,-0.58594 -0.58594,-0.58594 -0.29297,0 -0.59765,0.16407 -0.59765,0.6211 0,1.0664 1.0664,1.93359 2.39062,1.93359 1.41797,0 2.47266,-1.07812 2.47266,-2.28516 0,-1.10156 -0.89063,-1.96875 -2.02735,-2.16796 1.03125,-0.30469 1.69922,-1.17188 1.69922,-2.10938 0,-0.9375 -0.97265,-1.62891 -2.13281,-1.62891 -1.19531,0 -2.08594,0.72657 -2.08594,1.59375 0,0.48047 0.375,0.57422 0.55078,0.57422 0.25782,0 0.53907,-0.17578 0.53907,-0.53906 0,-0.375 -0.28125,-0.53906 -0.55079,-0.53906 -0.0703,0 -0.0937,0 -0.1289,0.0117 0.45703,-0.82032 1.58203,-0.82032 1.64062,-0.82032 0.38672,0 1.17188,0.17579 1.17188,1.34766 0,0.23438 -0.0352,0.90234 -0.38672,1.41797 -0.35156,0.52734 -0.76172,0.5625 -1.08984,0.57422 z m 0,0"
         style="fill:#000000;fill-opacity:1;fill-rule:nonzero;stroke:none" />
      <path
         id="path34"
         d="m -197.95977,123.4356 c 0,-0.6914 -0.22265,-1.20703 -0.71484,-1.20703 -0.38672,0 -0.57422,0.31641 -0.57422,0.57422 0,0.25781 0.17578,0.58594 0.58594,0.58594 0.15234,0 0.28125,-0.0469 0.38672,-0.15235 0.0234,-0.0234 0.0352,-0.0234 0.0469,-0.0234 0.0352,0 0.0352,0.16406 0.0352,0.22265 0,0.39844 -0.082,1.17188 -0.77344,1.94531 -0.1289,0.15235 -0.1289,0.17579 -0.1289,0.19922 0,0.0586 0.0586,0.11719 0.11718,0.11719 0.0937,0 1.01953,-0.89062 1.01953,-2.26172 z m 0,0"
         style="fill:#000000;fill-opacity:1;fill-rule:nonzero;stroke:none" />
      <path
         id="path35"
         d="m -190.73516,115.60748 c 0,-0.22266 0,-0.29297 -0.16406,-0.29297 -0.0937,0 -0.1289,0 -0.22265,0.15234 l -3.59766,5.57813 v 0.35156 h 3.14062 v 1.07812 c 0,0.44532 -0.0234,0.5625 -0.90234,0.5625 h -0.23437 v 0.35157 c 0.26953,-0.0234 1.21875,-0.0234 1.55859,-0.0234 0.32812,0 1.28906,0 1.55859,0.0234 v -0.35157 h -0.23437 c -0.86719,0 -0.90235,-0.11718 -0.90235,-0.5625 v -1.07812 h 1.20704 v -0.35156 h -1.20704 z m -0.78515,0.9375 v 4.5 h -2.90625 z m 0,0"
         style="fill:#000000;fill-opacity:1;fill-rule:nonzero;stroke:none" />
      <path
         id="path36"
         d="m -186.86504,123.4356 c 0,-0.6914 -0.22266,-1.20703 -0.71484,-1.20703 -0.38672,0 -0.57422,0.31641 -0.57422,0.57422 0,0.25781 0.17578,0.58594 0.58594,0.58594 0.15234,0 0.28125,-0.0469 0.38671,-0.15235 0.0234,-0.0234 0.0352,-0.0234 0.0469,-0.0234 0.0352,0 0.0352,0.16406 0.0352,0.22265 0,0.39844 -0.082,1.17188 -0.77344,1.94531 -0.12891,0.15235 -0.12891,0.17579 -0.12891,0.19922 0,0.0586 0.0586,0.11719 0.11719,0.11719 0.0937,0 1.01953,-0.89062 1.01953,-2.26172 z m 5.12109,-0.62109 c 0,-0.35156 -0.29296,-0.58594 -0.57421,-0.58594 -0.35157,0 -0.58594,0.29297 -0.58594,0.57422 0,0.35156 0.28125,0.58594 0.57422,0.58594 0.33984,0 0.58593,-0.28125 0.58593,-0.57422 z m 5.23536,0 c 0,-0.35156 -0.29297,-0.58594 -0.57422,-0.58594 -0.35156,0 -0.58594,0.29297 -0.58594,0.57422 0,0.35156 0.28125,0.58594 0.57422,0.58594 0.33984,0 0.58594,-0.28125 0.58594,-0.57422 z m 5.25,0 c 0,-0.35156 -0.29297,-0.58594 -0.57422,-0.58594 -0.35156,0 -0.58594,0.29297 -0.58594,0.57422 0,0.35156 0.28125,0.58594 0.57422,0.58594 0.33984,0 0.58594,-0.28125 0.58594,-0.57422 z m 5.37597,0.62109 c 0,-0.6914 -0.22265,-1.20703 -0.71484,-1.20703 -0.38672,0 -0.57422,0.31641 -0.57422,0.57422 0,0.25781 0.17578,0.58594 0.58594,0.58594 0.15234,0 0.28125,-0.0469 0.38672,-0.15235 0.0234,-0.0234 0.0351,-0.0234 0.0469,-0.0234 0.0352,0 0.0352,0.16406 0.0352,0.22265 0,0.39844 -0.082,1.17188 -0.77344,1.94531 -0.12891,0.15235 -0.12891,0.17579 -0.12891,0.19922 0,0.0586 0.0586,0.11719 0.11719,0.11719 0.0937,0 1.01953,-0.89062 1.01953,-2.26172 z m 0,0"
         style="fill:#000000;fill-opacity:1;fill-rule:nonzero;stroke:none" />
      <path
         id="path37"
         d="m -160.77324,119.09966 c -0.21094,0.0117 -0.25781,0.0234 -0.25781,0.12891 0,0.11719 0.0586,0.11719 0.28125,0.11719 h 0.55078 c 1.00781,0 1.46484,0.84375 1.46484,1.99219 0,1.55859 -0.80859,1.98046 -1.39453,1.98046 -0.57422,0 -1.55859,-0.28125 -1.89844,-1.0664 0.375,0.0586 0.72656,-0.15235 0.72656,-0.58594 0,-0.33984 -0.25781,-0.58594 -0.58593,-0.58594 -0.29297,0 -0.59766,0.16407 -0.59766,0.6211 0,1.0664 1.06641,1.93359 2.39063,1.93359 1.41796,0 2.47265,-1.07812 2.47265,-2.28516 0,-1.10156 -0.89062,-1.96875 -2.02734,-2.16796 1.03125,-0.30469 1.69922,-1.17188 1.69922,-2.10938 0,-0.9375 -0.97266,-1.62891 -2.13282,-1.62891 -1.19531,0 -2.08593,0.72657 -2.08593,1.59375 0,0.48047 0.375,0.57422 0.55078,0.57422 0.25781,0 0.53906,-0.17578 0.53906,-0.53906 0,-0.375 -0.28125,-0.53906 -0.55078,-0.53906 -0.0703,0 -0.0937,0 -0.12891,0.0117 0.45703,-0.82032 1.58203,-0.82032 1.64063,-0.82032 0.38672,0 1.17187,0.17579 1.17187,1.34766 0,0.23438 -0.0351,0.90234 -0.38672,1.41797 -0.35156,0.52734 -0.76171,0.5625 -1.08984,0.57422 z m 8.91211,2.28516 h -0.26953 c -0.0352,0.19922 -0.12891,0.85547 -0.2461,1.04297 -0.082,0.11719 -0.76172,0.11719 -1.125,0.11719 h -2.21484 c 0.32812,-0.28125 1.05469,-1.04297 1.37109,-1.33594 1.81641,-1.66406 2.48438,-2.28516 2.48438,-3.46875 0,-1.38281 -1.08985,-2.29688 -2.47266,-2.29688 -1.39453,0 -2.20312,1.1836 -2.20312,2.20313 0,0.60937 0.52734,0.60937 0.5625,0.60937 0.24609,0 0.5625,-0.17578 0.5625,-0.5625 0,-0.32812 -0.23438,-0.55078 -0.5625,-0.55078 -0.10547,0 -0.12891,0 -0.16407,0.0117 0.22266,-0.82031 0.86719,-1.37109 1.64063,-1.37109 1.01953,0 1.64062,0.85547 1.64062,1.95703 0,1.00781 -0.58593,1.89844 -1.26562,2.66016 l -2.41406,2.70703 v 0.28125 h 4.35937 z m 0,0"
         style="fill:#000000;fill-opacity:1;fill-rule:nonzero;stroke:none" />
      <path
         id="path38"
         d="m -148.9373,123.4356 c 0,-0.6914 -0.22266,-1.20703 -0.71485,-1.20703 -0.38672,0 -0.57422,0.31641 -0.57422,0.57422 0,0.25781 0.17578,0.58594 0.58594,0.58594 0.15234,0 0.28125,-0.0469 0.38672,-0.15235 0.0234,-0.0234 0.0352,-0.0234 0.0469,-0.0234 0.0352,0 0.0352,0.16406 0.0352,0.22265 0,0.39844 -0.082,1.17188 -0.77344,1.94531 -0.1289,0.15235 -0.1289,0.17579 -0.1289,0.19922 0,0.0586 0.0586,0.11719 0.11718,0.11719 0.0937,0 1.01954,-0.89062 1.01954,-2.26172 z m 0,0"
         style="fill:#000000;fill-opacity:1;fill-rule:nonzero;stroke:none" />
      <path
         id="path39"
         d="m -143.82207,119.09966 c -0.21094,0.0117 -0.25781,0.0234 -0.25781,0.12891 0,0.11719 0.0586,0.11719 0.28125,0.11719 h 0.55078 c 1.00781,0 1.46484,0.84375 1.46484,1.99219 0,1.55859 -0.80859,1.98046 -1.39453,1.98046 -0.57422,0 -1.55859,-0.28125 -1.89844,-1.0664 0.375,0.0586 0.72657,-0.15235 0.72657,-0.58594 0,-0.33984 -0.25782,-0.58594 -0.58594,-0.58594 -0.29297,0 -0.59766,0.16407 -0.59766,0.6211 0,1.0664 1.06641,1.93359 2.39063,1.93359 1.41797,0 2.47265,-1.07812 2.47265,-2.28516 0,-1.10156 -0.89062,-1.96875 -2.02734,-2.16796 1.03125,-0.30469 1.69922,-1.17188 1.69922,-2.10938 0,-0.9375 -0.97266,-1.62891 -2.13281,-1.62891 -1.19532,0 -2.08594,0.72657 -2.08594,1.59375 0,0.48047 0.375,0.57422 0.55078,0.57422 0.25781,0 0.53906,-0.17578 0.53906,-0.53906 0,-0.375 -0.28125,-0.53906 -0.55078,-0.53906 -0.0703,0 -0.0937,0 -0.12891,0.0117 0.45704,-0.82032 1.58204,-0.82032 1.64063,-0.82032 0.38672,0 1.17187,0.17579 1.17187,1.34766 0,0.23438 -0.0351,0.90234 -0.38671,1.41797 -0.35157,0.52734 -0.76172,0.5625 -1.08985,0.57422 z m 5.85352,0 c -0.21094,0.0117 -0.25782,0.0234 -0.25782,0.12891 0,0.11719 0.0586,0.11719 0.28125,0.11719 h 0.55078 c 1.00782,0 1.46485,0.84375 1.46485,1.99219 0,1.55859 -0.8086,1.98046 -1.39453,1.98046 -0.57422,0 -1.5586,-0.28125 -1.89844,-1.0664 0.375,0.0586 0.72656,-0.15235 0.72656,-0.58594 0,-0.33984 -0.25781,-0.58594 -0.58594,-0.58594 -0.29296,0 -0.59765,0.16407 -0.59765,0.6211 0,1.0664 1.0664,1.93359 2.39062,1.93359 1.41797,0 2.47266,-1.07812 2.47266,-2.28516 0,-1.10156 -0.89063,-1.96875 -2.02734,-2.16796 1.03125,-0.30469 1.69921,-1.17188 1.69921,-2.10938 0,-0.9375 -0.97265,-1.62891 -2.13281,-1.62891 -1.19531,0 -2.08594,0.72657 -2.08594,1.59375 0,0.48047 0.375,0.57422 0.55079,0.57422 0.25781,0 0.53906,-0.17578 0.53906,-0.53906 0,-0.375 -0.28125,-0.53906 -0.55078,-0.53906 -0.0703,0 -0.0937,0 -0.12891,0.0117 0.45703,-0.82032 1.58203,-0.82032 1.64063,-0.82032 0.38671,0 1.17187,0.17579 1.17187,1.34766 0,0.23438 -0.0352,0.90234 -0.38672,1.41797 -0.35156,0.52734 -0.76172,0.5625 -1.08984,0.57422 z m 0,0"
         style="fill:#000000;fill-opacity:1;fill-rule:nonzero;stroke:none" />
      <path
         id="path40"
         d="m 33.397656,119.09966 c -0.210937,0.0117 -0.257812,0.0234 -0.257812,0.12891 0,0.11719 0.05859,0.11719 0.28125,0.11719 h 0.550781 c 1.007813,0 1.464844,0.84375 1.464844,1.99219 0,1.55859 -0.808594,1.98046 -1.394531,1.98046 -0.574219,0 -1.558594,-0.28125 -1.898438,-1.0664 0.375,0.0586 0.726563,-0.15235 0.726563,-0.58594 0,-0.33984 -0.257813,-0.58594 -0.585938,-0.58594 -0.292969,0 -0.597656,0.16407 -0.597656,0.6211 0,1.0664 1.066406,1.93359 2.390625,1.93359 1.417969,0 2.472656,-1.07812 2.472656,-2.28516 0,-1.10156 -0.890625,-1.96875 -2.027344,-2.16796 1.03125,-0.30469 1.699219,-1.17188 1.699219,-2.10938 0,-0.9375 -0.972656,-1.62891 -2.132812,-1.62891 -1.195313,0 -2.085938,0.72657 -2.085938,1.59375 0,0.48047 0.375,0.57422 0.550781,0.57422 0.257813,0 0.539063,-0.17578 0.539063,-0.53906 0,-0.375 -0.28125,-0.53906 -0.550781,-0.53906 -0.07031,0 -0.09375,0 -0.128907,0.0117 0.457032,-0.82032 1.582032,-0.82032 1.640625,-0.82032 0.386719,0 1.171875,0.17579 1.171875,1.34766 0,0.23438 -0.03516,0.90234 -0.386718,1.41797 -0.351563,0.52734 -0.761719,0.5625 -1.089844,0.57422 z m 5.853516,0 c -0.210938,0.0117 -0.257813,0.0234 -0.257813,0.12891 0,0.11719 0.05859,0.11719 0.28125,0.11719 h 0.550782 c 1.007812,0 1.464843,0.84375 1.464843,1.99219 0,1.55859 -0.808593,1.98046 -1.394531,1.98046 -0.574219,0 -1.558594,-0.28125 -1.898437,-1.0664 0.375,0.0586 0.726562,-0.15235 0.726562,-0.58594 0,-0.33984 -0.257812,-0.58594 -0.585937,-0.58594 -0.292969,0 -0.597657,0.16407 -0.597657,0.6211 0,1.0664 1.066407,1.93359 2.390625,1.93359 1.417969,0 2.472657,-1.07812 2.472657,-2.28516 0,-1.10156 -0.890625,-1.96875 -2.027344,-2.16796 1.03125,-0.30469 1.699219,-1.17188 1.699219,-2.10938 0,-0.9375 -0.972657,-1.62891 -2.132813,-1.62891 -1.195312,0 -2.085937,0.72657 -2.085937,1.59375 0,0.48047 0.375,0.57422 0.550781,0.57422 0.257812,0 0.539062,-0.17578 0.539062,-0.53906 0,-0.375 -0.28125,-0.53906 -0.550781,-0.53906 -0.07031,0 -0.09375,0 -0.128906,0.0117 0.457031,-0.82032 1.582031,-0.82032 1.640625,-0.82032 0.386719,0 1.171875,0.17579 1.171875,1.34766 0,0.23438 -0.03516,0.90234 -0.386719,1.41797 -0.351562,0.52734 -0.761719,0.5625 -1.089844,0.57422 z m 0,0"
         style="fill:#000000;fill-opacity:1;fill-rule:nonzero;stroke:none" />
      <path
         id="path41"
         d="m -33.639453,158.94634 c 0,-0.22265 0,-0.29296 -0.164063,-0.29296 -0.09375,0 -0.128906,0 -0.222656,0.15234 l -3.597656,5.57812 v 0.35157 h 3.140625 v 1.07812 c 0,0.44531 -0.02344,0.5625 -0.902344,0.5625 h -0.234375 v 0.35156 c 0.269531,-0.0234 1.21875,-0.0234 1.558594,-0.0234 0.328125,0 1.289062,0 1.558594,0.0234 v -0.35156 h -0.234375 c -0.867188,0 -0.902344,-0.11719 -0.902344,-0.5625 v -1.07812 h 1.207031 v -0.35157 h -1.207031 z m -0.785156,0.9375 v 4.5 h -2.90625 z m 0,0"
         style="fill:#000000;fill-opacity:1;fill-rule:nonzero;stroke:none" />
      <path
         id="path42"
         d="m -120.6248,204.98638 c 0.23437,0 0.32812,0 0.32812,-0.22265 0,-0.12891 -0.0937,-0.12891 -0.30469,-0.12891 h -0.97265 c 0.23437,-1.23047 0.39843,-2.07422 0.49218,-2.46094 0.0703,-0.28125 0.32813,-0.5625 0.63282,-0.5625 0.25781,0 0.5039,0.10547 0.62109,0.22266 -0.46875,0.0469 -0.60937,0.38672 -0.60937,0.59766 0,0.23437 0.1875,0.375 0.41015,0.375 0.23438,0 0.59766,-0.19922 0.59766,-0.65625 0,-0.50391 -0.50391,-0.77344 -1.03125,-0.77344 -0.51563,0 -1.00781,0.38672 -1.25391,0.84375 -0.21094,0.42187 -0.32812,0.85547 -0.60937,2.41406 h -0.79688 c -0.23437,0 -0.35156,0 -0.35156,0.22266 0,0.1289 0.0703,0.1289 0.31641,0.1289 h 0.76171 c -0.21093,1.11328 -0.70312,3.8086 -0.98437,5.08594 -0.19922,1.04297 -0.375,1.92188 -0.97266,1.92188 -0.0352,0 -0.38672,0 -0.59765,-0.23438 0.60937,-0.0469 0.60937,-0.57422 0.60937,-0.58594 0,-0.23437 -0.1875,-0.375 -0.41015,-0.375 -0.23438,0 -0.59766,0.19922 -0.59766,0.65625 0,0.51563 0.52734,0.77344 0.99609,0.77344 1.21875,0 1.72266,-2.19141 1.85157,-2.78906 0.21093,-0.91406 0.79687,-4.08985 0.85546,-4.45313 z m 0,0"
         style="fill:#000000;fill-opacity:1;fill-rule:nonzero;stroke:none" />
      <path
         id="path43"
         d="m -115.38066,205.20904 c 0,-0.31641 -0.28125,-0.57422 -0.57422,-0.57422 -0.35157,0 -0.58594,0.28125 -0.58594,0.57422 0,0.36328 0.29297,0.58594 0.57422,0.58594 0.3164,0 0.58594,-0.2461 0.58594,-0.58594 z m 0,3.99609 c 0,-0.32812 -0.28125,-0.57422 -0.57422,-0.57422 -0.35157,0 -0.58594,0.28125 -0.58594,0.57422 0,0.36328 0.29297,0.58594 0.57422,0.58594 0.3164,0 0.58594,-0.24609 0.58594,-0.58594 z m 0,0"
         style="fill:#000000;fill-opacity:1;fill-rule:nonzero;stroke:none" />
      <path
         id="path44"
         d="m -107.14824,206.04107 h 0.43359 l 1.79297,2.76563 c 0.11719,0.19921 0.41016,0.65625 0.53906,0.84375 0.082,0.14062 0.11719,0.14062 0.39844,0.14062 h 1.64063 c 0.22265,0 0.39843,0 0.39843,-0.21094 0,-0.10547 -0.0703,-0.1875 -0.17578,-0.21093 -0.44531,-0.0937 -1.03125,-0.87891 -1.3125,-1.26563 -0.0937,-0.11719 -0.6914,-0.90234 -1.48828,-2.20312 1.06641,-0.1875 2.09766,-0.64454 2.09766,-2.0625 0,-1.66407 -1.75782,-2.23829 -3.17578,-2.23829 h -3.75 c -0.21094,0 -0.41016,0 -0.41016,0.22266 0,0.19922 0.23437,0.19922 0.32812,0.19922 0.67969,0 0.73829,0.082 0.73829,0.67969 v 5.98828 c 0,0.59765 -0.0586,0.67969 -0.73829,0.67969 -0.0937,0 -0.32812,0 -0.32812,0.21093 0,0.21094 0.19922,0.21094 0.41016,0.21094 h 3.26953 c 0.22265,0 0.39843,0 0.39843,-0.21094 0,-0.21093 -0.19921,-0.21093 -0.32812,-0.21093 -0.69141,0 -0.73828,-0.0937 -0.73828,-0.67969 z m 2.30859,-0.58594 c 0.33985,-0.44531 0.375,-1.07812 0.375,-1.60547 0,-0.57421 -0.0703,-1.20703 -0.45703,-1.69921 0.49219,0.10546 1.67578,0.48046 1.67578,1.6875 0,0.77343 -0.36328,1.38281 -1.59375,1.61718 z m -2.30859,-2.78906 c 0,-0.24609 0,-0.64453 0.75,-0.64453 1.00781,0 1.51172,0.42187 1.51172,1.82812 0,1.54688 -0.36328,1.76954 -2.26172,1.76954 z m -1.61719,6.70313 c 0.0937,-0.21094 0.0937,-0.55079 0.0937,-0.65625 v -6.03516 c 0,-0.11719 0,-0.44531 -0.0937,-0.65625 h 1.35938 c -0.15235,0.1875 -0.15235,0.43359 -0.15235,0.60937 v 6.08204 c 0,0.11718 0,0.44531 0.0937,0.65625 z m 2.54297,-3.32813 c 0.082,-0.0117 0.12891,-0.0234 0.22266,-0.0234 0.1875,0 0.44531,-0.0234 0.62109,-0.0469 0.1875,0.28125 1.47656,2.41406 2.46094,3.39844 h -1.14844 z m 0,0"
         style="fill:#000000;fill-opacity:1;fill-rule:nonzero;stroke:none" />
      <path
         id="path45"
         d="m -88.41875,207.03716 c -0.65625,0.50391 -0.984375,0.9961 -1.078125,1.14844 -0.539062,0.83203 -0.632812,1.58203 -0.632812,1.59375 0,0.14063 0.140625,0.14063 0.234375,0.14063 0.210937,0 0.222656,-0.0234 0.269531,-0.23438 0.269531,-1.17187 0.972656,-2.17969 2.332031,-2.73047 0.140625,-0.0469 0.175781,-0.0703 0.175781,-0.15234 0,-0.082 -0.07031,-0.11719 -0.09375,-0.12891 -0.527343,-0.21093 -1.980468,-0.80859 -2.425781,-2.8125 -0.03516,-0.14062 -0.04687,-0.17578 -0.257812,-0.17578 -0.09375,0 -0.234375,0 -0.234375,0.14063 0,0.0234 0.105468,0.77343 0.609375,1.58203 0.234375,0.35156 0.585937,0.77344 1.101562,1.16015 h -8.882812 c -0.222657,0 -0.433594,0 -0.433594,0.23438 0,0.23437 0.210937,0.23437 0.433594,0.23437 z m 0,0"
         style="fill:#000000;fill-opacity:1;fill-rule:nonzero;stroke:none" />
      <path
         id="path46"
         d="m -79.916797,206.04107 h 0.433594 l 1.792969,2.76563 c 0.117187,0.19921 0.410156,0.65625 0.539062,0.84375 0.08203,0.14062 0.117188,0.14062 0.398438,0.14062 h 1.640625 c 0.222656,0 0.398437,0 0.398437,-0.21094 0,-0.10547 -0.07031,-0.1875 -0.175781,-0.21093 -0.445313,-0.0937 -1.03125,-0.87891 -1.3125,-1.26563 -0.09375,-0.11719 -0.691406,-0.90234 -1.488281,-2.20312 1.066406,-0.1875 2.097656,-0.64454 2.097656,-2.0625 0,-1.66407 -1.757813,-2.23829 -3.175781,-2.23829 h -3.75 c -0.210938,0 -0.410157,0 -0.410157,0.22266 0,0.19922 0.234375,0.19922 0.328125,0.19922 0.679688,0 0.738282,0.082 0.738282,0.67969 v 5.98828 c 0,0.59765 -0.05859,0.67969 -0.738282,0.67969 -0.09375,0 -0.328125,0 -0.328125,0.21093 0,0.21094 0.199219,0.21094 0.410157,0.21094 h 3.269531 c 0.222656,0 0.398437,0 0.398437,-0.21094 0,-0.21093 -0.199218,-0.21093 -0.328125,-0.21093 -0.691406,0 -0.738281,-0.0937 -0.738281,-0.67969 z m 2.308594,-0.58594 c 0.339844,-0.44531 0.375,-1.07812 0.375,-1.60547 0,-0.57421 -0.07031,-1.20703 -0.457031,-1.69921 0.492187,0.10546 1.675781,0.48046 1.675781,1.6875 0,0.77343 -0.363281,1.38281 -1.59375,1.61718 z m -2.308594,-2.78906 c 0,-0.24609 0,-0.64453 0.75,-0.64453 1.007813,0 1.511719,0.42187 1.511719,1.82812 0,1.54688 -0.363281,1.76954 -2.261719,1.76954 z m -1.617187,6.70313 c 0.09375,-0.21094 0.09375,-0.55079 0.09375,-0.65625 v -6.03516 c 0,-0.11719 0,-0.44531 -0.09375,-0.65625 h 1.359375 c -0.152344,0.1875 -0.152344,0.43359 -0.152344,0.60937 v 6.08204 c 0,0.11718 0,0.44531 0.09375,0.65625 z m 2.542968,-3.32813 c 0.08203,-0.0117 0.128907,-0.0234 0.222657,-0.0234 0.1875,0 0.445312,-0.0234 0.621093,-0.0469 0.1875,0.28125 1.476563,2.41406 2.460938,3.39844 h -1.148438 z m 0,0"
         style="fill:#000000;fill-opacity:1;fill-rule:nonzero;stroke:none" />
      <path
         id="path47"
         d="m -89.174609,231.38873 c 0.234375,0 0.328125,0 0.328125,-0.22266 0,-0.12891 -0.09375,-0.12891 -0.304688,-0.12891 h -0.972656 c 0.234375,-1.23046 0.398437,-2.07421 0.492187,-2.46093 0.07031,-0.28125 0.328125,-0.5625 0.632813,-0.5625 0.257812,0 0.503906,0.10547 0.621094,0.22265 -0.46875,0.0469 -0.609375,0.38672 -0.609375,0.59766 0,0.23437 0.1875,0.375 0.410156,0.375 0.234375,0 0.597656,-0.19922 0.597656,-0.65625 0,-0.50391 -0.503906,-0.77344 -1.03125,-0.77344 -0.515625,0 -1.007812,0.38672 -1.253906,0.84375 -0.210938,0.42188 -0.328125,0.85547 -0.609375,2.41406 h -0.796875 c -0.234375,0 -0.351563,0 -0.351563,0.22266 0,0.12891 0.07031,0.12891 0.316407,0.12891 h 0.761718 c -0.210937,1.11328 -0.703125,3.80859 -0.984375,5.08593 -0.199218,1.04297 -0.375,1.92188 -0.972656,1.92188 -0.03516,0 -0.386719,0 -0.597656,-0.23438 0.609375,-0.0469 0.609375,-0.57421 0.609375,-0.58593 0,-0.23438 -0.1875,-0.375 -0.410156,-0.375 -0.234375,0 -0.597657,0.19922 -0.597657,0.65625 0,0.51562 0.527344,0.77343 0.996094,0.77343 1.21875,0 1.722656,-2.1914 1.851563,-2.78906 0.210937,-0.91406 0.796875,-4.08984 0.855468,-4.45312 z m 0,0"
         style="fill:#000000;fill-opacity:1;fill-rule:nonzero;stroke:none" />
      <path
         id="path48"
         d="m -83.570117,239.09966 c 0,-0.0351 0,-0.0586 -0.210938,-0.26953 -1.195312,-1.20703 -1.863281,-3.17578 -1.863281,-5.61328 0,-2.32031 0.5625,-4.3125 1.945313,-5.73047 0.128906,-0.10547 0.128906,-0.1289 0.128906,-0.16406 0,-0.0703 -0.07031,-0.0937 -0.117188,-0.0937 -0.152343,0 -1.136718,0.85547 -1.722656,2.02734 -0.609375,1.20704 -0.878906,2.4961 -0.878906,3.96094 0,1.06641 0.164062,2.48438 0.785156,3.76172 0.703125,1.44141 1.6875,2.21484 1.816406,2.21484 0.04687,0 0.117188,-0.0234 0.117188,-0.0937 z m 0,0"
         style="fill:#000000;fill-opacity:1;fill-rule:nonzero;stroke:none" />
      <path
         id="path49"
         d="m -77.247852,231.31841 c -0.375,0.0703 -0.515625,0.35157 -0.515625,0.58594 0,0.28125 0.222657,0.375 0.386719,0.375 0.363281,0 0.609375,-0.30469 0.609375,-0.63281 0,-0.49219 -0.574219,-0.72656 -1.078125,-0.72656 -0.726562,0 -1.125,0.71484 -1.242187,0.94922 -0.269532,-0.90235 -1.007813,-0.94922 -1.230469,-0.94922 -1.21875,0 -1.863281,1.57031 -1.863281,1.82812 0,0.0469 0.04687,0.10547 0.128906,0.10547 0.105469,0 0.128906,-0.0703 0.152344,-0.11719 0.398437,-1.32422 1.207031,-1.57031 1.546875,-1.57031 0.539062,0 0.644531,0.49219 0.644531,0.78516 0,0.25781 -0.07031,0.53906 -0.210938,1.11328 l -0.410156,1.6289 c -0.175781,0.72657 -0.527344,1.38282 -1.160156,1.38282 -0.05859,0 -0.351563,0 -0.609375,-0.15235 0.433594,-0.0937 0.527344,-0.44531 0.527344,-0.58593 0,-0.2461 -0.175782,-0.38672 -0.398438,-0.38672 -0.292969,0 -0.597656,0.24609 -0.597656,0.63281 0,0.50391 0.5625,0.72656 1.066406,0.72656 0.574219,0 0.984375,-0.45703 1.230469,-0.9375 0.199219,0.70313 0.796875,0.9375 1.230469,0.9375 1.230468,0 1.875,-1.55859 1.875,-1.82812 0,-0.0586 -0.04687,-0.10547 -0.128907,-0.10547 -0.105468,0 -0.117187,0.0586 -0.152343,0.15234 -0.316407,1.05469 -1.019532,1.54688 -1.546875,1.54688 -0.421875,0 -0.65625,-0.31641 -0.65625,-0.8086 0,-0.25781 0.05859,-0.44531 0.246093,-1.24218 l 0.421875,-1.61719 c 0.175782,-0.72656 0.585938,-1.24219 1.125,-1.24219 0.03516,0 0.363282,0 0.609375,0.15234 z m 0,0"
         style="fill:#000000;fill-opacity:1;fill-rule:nonzero;stroke:none" />
      <path
         id="path50"
         d="m -68.830859,233.42779 h 3.304687 c 0.164063,0 0.375,0 0.375,-0.21094 0,-0.22265 -0.199219,-0.22265 -0.375,-0.22265 h -3.304687 v -3.30469 c 0,-0.16406 0,-0.38672 -0.210938,-0.38672 -0.234375,0 -0.234375,0.21094 -0.234375,0.38672 v 3.30469 h -3.292969 c -0.175781,0 -0.386718,0 -0.386718,0.21093 0,0.22266 0.199218,0.22266 0.386718,0.22266 h 3.292969 v 3.30469 c 0,0.16406 0,0.38672 0.222656,0.38672 0.222657,0 0.222657,-0.21094 0.222657,-0.38672 z m 0,0"
         style="fill:#000000;fill-opacity:1;fill-rule:nonzero;stroke:none" />
      <path
         id="path51"
         d="m -58.69707,237.52935 c -0.316407,0.45703 -0.785157,0.86719 -1.371094,0.86719 -0.140625,0 -0.714844,-0.0234 -0.902344,-0.57422 0.04687,0.0117 0.105469,0.0117 0.128906,0.0117 0.351563,0 0.597657,-0.31641 0.597657,-0.58594 0,-0.28125 -0.234375,-0.375 -0.410157,-0.375 -0.1875,0 -0.609375,0.14063 -0.609375,0.72656 0,0.60938 0.515625,1.03125 1.195313,1.03125 1.195312,0 2.402344,-1.10156 2.742187,-2.42578 l 1.171875,-4.66406 c 0.01172,-0.0586 0.03516,-0.12891 0.03516,-0.19922 0,-0.17578 -0.152344,-0.30469 -0.328125,-0.30469 -0.105469,0 -0.363282,0.0469 -0.457032,0.41016 l -0.878906,3.51563 c -0.05859,0.21093 -0.05859,0.23437 -0.152344,0.375 -0.246093,0.32812 -0.644531,0.73828 -1.207031,0.73828 -0.679687,0 -0.738281,-0.65625 -0.738281,-0.98438 0,-0.67969 0.328125,-1.60547 0.644531,-2.46094 0.140625,-0.35156 0.210938,-0.51562 0.210938,-0.75 0,-0.5039 -0.363282,-0.96093 -0.949219,-0.96093 -1.101563,0 -1.535156,1.73437 -1.535156,1.82812 0,0.0469 0.04687,0.10547 0.128906,0.10547 0.105469,0 0.117187,-0.0469 0.164062,-0.21094 0.292969,-1.00781 0.738282,-1.47656 1.207032,-1.47656 0.105468,0 0.316406,0 0.316406,0.38672 0,0.31641 -0.140625,0.65625 -0.316406,1.11328 -0.585938,1.57031 -0.585938,1.95703 -0.585938,2.25 0,1.13672 0.808594,1.39453 1.40625,1.39453 0.351563,0 0.785156,-0.10547 1.195313,-0.55078 l 0.01172,0.0117 c -0.175781,0.70312 -0.292968,1.17187 -0.714843,1.75781 z m 0,0"
         style="fill:#000000;fill-opacity:1;fill-rule:nonzero;stroke:none" />
      <path
         id="path52"
         d="m -52.32793,233.21685 c 0,-0.91406 -0.128906,-2.39062 -0.796875,-3.77344 -0.703125,-1.4414 -1.675781,-2.21484 -1.816406,-2.21484 -0.04687,0 -0.105469,0.0234 -0.105469,0.0937 0,0.0352 0,0.0586 0.199219,0.26953 1.195313,1.20703 1.875,3.17578 1.875,5.61328 0,2.32032 -0.5625,4.3125 -1.957031,5.73047 -0.117188,0.10547 -0.117188,0.12891 -0.117188,0.16406 0,0.0703 0.05859,0.0937 0.105469,0.0937 0.164063,0 1.136719,-0.85546 1.722656,-2.02734 0.609375,-1.21875 0.890625,-2.51953 0.890625,-3.94922 z m 0,0"
         style="fill:#000000;fill-opacity:1;fill-rule:nonzero;stroke:none" />
      <path
         id="path53"
         d="m -40.617969,233.43951 c 0.210938,0 0.421875,0 0.421875,-0.23438 0,-0.23437 -0.210937,-0.23437 -0.421875,-0.23437 h -6.46875 c -0.199218,0 -0.410156,0 -0.410156,0.23437 0,0.23438 0.210938,0.23438 0.410156,0.23438 z m 0,0"
         style="fill:#000000;fill-opacity:1;fill-rule:nonzero;stroke:none" />
      <path
         id="path54"
         d="m -31.204883,231.38873 c 0.234375,0 0.328125,0 0.328125,-0.22266 0,-0.12891 -0.09375,-0.12891 -0.304687,-0.12891 h -0.972657 c 0.234375,-1.23046 0.398438,-2.07421 0.492188,-2.46093 0.07031,-0.28125 0.328125,-0.5625 0.632812,-0.5625 0.257813,0 0.503907,0.10547 0.621094,0.22265 -0.46875,0.0469 -0.609375,0.38672 -0.609375,0.59766 0,0.23437 0.1875,0.375 0.410156,0.375 0.234375,0 0.597657,-0.19922 0.597657,-0.65625 0,-0.50391 -0.503907,-0.77344 -1.03125,-0.77344 -0.515625,0 -1.007813,0.38672 -1.253907,0.84375 -0.210937,0.42188 -0.328125,0.85547 -0.609375,2.41406 h -0.796875 c -0.234375,0 -0.351562,0 -0.351562,0.22266 0,0.12891 0.07031,0.12891 0.316406,0.12891 h 0.761719 c -0.210938,1.11328 -0.703125,3.80859 -0.984375,5.08593 -0.199219,1.04297 -0.375,1.92188 -0.972656,1.92188 -0.03516,0 -0.386719,0 -0.597657,-0.23438 0.609375,-0.0469 0.609375,-0.57421 0.609375,-0.58593 0,-0.23438 -0.1875,-0.375 -0.410156,-0.375 -0.234375,0 -0.597656,0.19922 -0.597656,0.65625 0,0.51562 0.527344,0.77343 0.996094,0.77343 1.21875,0 1.722656,-2.1914 1.851562,-2.78906 0.210938,-0.91406 0.796875,-4.08984 0.855469,-4.45312 z m 0,0"
         style="fill:#000000;fill-opacity:1;fill-rule:nonzero;stroke:none" />
      <path
         id="path55"
         d="m -25.600391,239.09966 c 0,-0.0351 0,-0.0586 -0.210937,-0.26953 -1.195313,-1.20703 -1.863281,-3.17578 -1.863281,-5.61328 0,-2.32031 0.5625,-4.3125 1.945312,-5.73047 0.128906,-0.10547 0.128906,-0.1289 0.128906,-0.16406 0,-0.0703 -0.07031,-0.0937 -0.117187,-0.0937 -0.152344,0 -1.136719,0.85547 -1.722656,2.02734 -0.609375,1.20704 -0.878907,2.4961 -0.878907,3.96094 0,1.06641 0.164063,2.48438 0.785157,3.76172 0.703125,1.44141 1.6875,2.21484 1.816406,2.21484 0.04687,0 0.117187,-0.0234 0.117187,-0.0937 z m 0,0"
         style="fill:#000000;fill-opacity:1;fill-rule:nonzero;stroke:none" />
      <path
         id="path56"
         d="m -19.281055,231.31841 c -0.375,0.0703 -0.515625,0.35157 -0.515625,0.58594 0,0.28125 0.222657,0.375 0.386719,0.375 0.363281,0 0.609375,-0.30469 0.609375,-0.63281 0,-0.49219 -0.574219,-0.72656 -1.078125,-0.72656 -0.726562,0 -1.125,0.71484 -1.242187,0.94922 -0.269532,-0.90235 -1.007813,-0.94922 -1.230469,-0.94922 -1.21875,0 -1.863281,1.57031 -1.863281,1.82812 0,0.0469 0.04687,0.10547 0.128906,0.10547 0.105469,0 0.128906,-0.0703 0.152344,-0.11719 0.398437,-1.32422 1.207031,-1.57031 1.546875,-1.57031 0.539062,0 0.644531,0.49219 0.644531,0.78516 0,0.25781 -0.07031,0.53906 -0.210938,1.11328 l -0.410156,1.6289 c -0.175781,0.72657 -0.527344,1.38282 -1.160156,1.38282 -0.05859,0 -0.351563,0 -0.609375,-0.15235 0.433594,-0.0937 0.527344,-0.44531 0.527344,-0.58593 0,-0.2461 -0.175782,-0.38672 -0.398438,-0.38672 -0.292969,0 -0.597656,0.24609 -0.597656,0.63281 0,0.50391 0.5625,0.72656 1.066406,0.72656 0.574219,0 0.984375,-0.45703 1.230469,-0.9375 0.199219,0.70313 0.796875,0.9375 1.230469,0.9375 1.230468,0 1.875,-1.55859 1.875,-1.82812 0,-0.0586 -0.04687,-0.10547 -0.128907,-0.10547 -0.105468,0 -0.117187,0.0586 -0.152343,0.15234 -0.316407,1.05469 -1.019532,1.54688 -1.546875,1.54688 -0.421875,0 -0.65625,-0.31641 -0.65625,-0.8086 0,-0.25781 0.05859,-0.44531 0.246093,-1.24218 l 0.421875,-1.61719 c 0.175782,-0.72656 0.585938,-1.24219 1.125,-1.24219 0.03516,0 0.363282,0 0.609375,0.15234 z m 0,0"
         style="fill:#000000;fill-opacity:1;fill-rule:nonzero;stroke:none" />
      <path
         id="path57"
         d="m -7.7556641,233.43951 c 0.2109375,0 0.421875,0 0.421875,-0.23438 0,-0.23437 -0.2109375,-0.23437 -0.421875,-0.23437 h -6.4687499 c -0.199219,0 -0.410156,0 -0.410156,0.23437 0,0.23438 0.210937,0.23438 0.410156,0.23438 z m 0,0"
         style="fill:#000000;fill-opacity:1;fill-rule:nonzero;stroke:none" />
      <path
         id="path58"
         d="m -0.53398437,237.52935 c -0.31640625,0.45703 -0.78515623,0.86719 -1.37109373,0.86719 -0.140625,0 -0.7148438,-0.0234 -0.9023438,-0.57422 0.046875,0.0117 0.1054688,0.0117 0.1289063,0.0117 0.3515625,0 0.5976562,-0.31641 0.5976562,-0.58594 0,-0.28125 -0.234375,-0.375 -0.4101562,-0.375 -0.1875,0 -0.609375,0.14063 -0.609375,0.72656 0,0.60938 0.515625,1.03125 1.1953125,1.03125 1.19531248,0 2.40234373,-1.10156 2.74218748,-2.42578 l 1.17187502,-4.66406 c 0.011719,-0.0586 0.035156,-0.12891 0.035156,-0.19922 0,-0.17578 -0.1523437,-0.30469 -0.328125,-0.30469 -0.1054687,0 -0.3632812,0.0469 -0.4570312,0.41016 l -0.87890627,3.51563 c -0.0585938,0.21093 -0.0585938,0.23437 -0.15234375,0.375 -0.24609375,0.32812 -0.64453125,0.73828 -1.20703125,0.73828 -0.67968753,0 -0.73828123,-0.65625 -0.73828123,-0.98438 0,-0.67969 0.328125,-1.60547 0.6445312,-2.46094 0.14062503,-0.35156 0.21093753,-0.51562 0.21093753,-0.75 0,-0.5039 -0.36328123,-0.96093 -0.94921873,-0.96093 -1.1015625,0 -1.5351563,1.73437 -1.5351563,1.82812 0,0.0469 0.046875,0.10547 0.1289063,0.10547 0.1054687,0 0.1171875,-0.0469 0.1640625,-0.21094 0.2929687,-1.00781 0.7382812,-1.47656 1.2070312,-1.47656 0.1054688,0 0.3164063,0 0.3164063,0.38672 0,0.31641 -0.140625,0.65625 -0.3164063,1.11328 -0.5859375,1.57031 -0.5859375,1.95703 -0.5859375,2.25 0,1.13672 0.8085938,1.39453 1.40625,1.39453 0.35156253,0 0.78515628,-0.10547 1.19531253,-0.55078 l 0.0117188,0.0117 c -0.17578125,0.70312 -0.29296875,1.17187 -0.71484375,1.75781 z m 0,0"
         style="fill:#000000;fill-opacity:1;fill-rule:nonzero;stroke:none" />
      <path
         id="path59"
         d="m 5.8351563,233.21685 c 0,-0.91406 -0.1289063,-2.39062 -0.796875,-3.77344 -0.703125,-1.4414 -1.6757813,-2.21484 -1.8164063,-2.21484 -0.046875,0 -0.1054687,0.0234 -0.1054687,0.0937 0,0.0352 0,0.0586 0.1992187,0.26953 1.1953125,1.20703 1.875,3.17578 1.875,5.61328 0,2.32032 -0.5625,4.3125 -1.9570312,5.73047 -0.1171875,0.10547 -0.1171875,0.12891 -0.1171875,0.16406 0,0.0703 0.058594,0.0937 0.1054687,0.0937 0.1640625,0 1.1367188,-0.85546 1.7226563,-2.02734 0.609375,-1.21875 0.890625,-2.51953 0.890625,-3.94922 z m 12.5771487,-0.89062 c 0.164062,0 0.375,0 0.375,-0.22266 0,-0.22266 -0.199219,-0.22266 -0.375,-0.22266 h -7.042969 c -0.175781,0 -0.386719,0 -0.386719,0.21094 0,0.23438 0.199219,0.23438 0.386719,0.23438 z m 0,2.21484 c 0.164062,0 0.375,0 0.375,-0.21094 0,-0.23437 -0.199219,-0.23437 -0.375,-0.23437 h -7.042969 c -0.175781,0 -0.386719,0 -0.386719,0.22265 0,0.22266 0.199219,0.22266 0.386719,0.22266 z m 8.654297,-6.12891 c 0,-0.22265 0,-0.29296 -0.164063,-0.29296 -0.09375,0 -0.128906,0 -0.222656,0.15234 l -3.597656,5.57812 v 0.35157 h 3.140625 v 1.07812 c 0,0.44531 -0.02344,0.5625 -0.902344,0.5625 h -0.234375 v 0.35156 c 0.269531,-0.0234 1.21875,-0.0234 1.558594,-0.0234 0.328125,0 1.289062,0 1.558593,0.0234 v -0.35156 h -0.234375 c -0.867187,0 -0.902343,-0.11719 -0.902343,-0.5625 v -1.07812 h 1.207031 v -0.35157 h -1.207031 z m -0.785157,0.9375 v 4.5 h -2.90625 z m 0,0"
         style="fill:#000000;fill-opacity:1;fill-rule:nonzero;stroke:none" />
      <path
         id="path60"
         d="m 34.273633,231.31841 c -0.375,0.0703 -0.515625,0.35157 -0.515625,0.58594 0,0.28125 0.222656,0.375 0.386719,0.375 0.363281,0 0.609375,-0.30469 0.609375,-0.63281 0,-0.49219 -0.574219,-0.72656 -1.078125,-0.72656 -0.726563,0 -1.125,0.71484 -1.242188,0.94922 -0.269531,-0.90235 -1.007812,-0.94922 -1.230469,-0.94922 -1.21875,0 -1.863281,1.57031 -1.863281,1.82812 0,0.0469 0.04687,0.10547 0.128906,0.10547 0.105469,0 0.128907,-0.0703 0.152344,-0.11719 0.398438,-1.32422 1.207031,-1.57031 1.546875,-1.57031 0.539063,0 0.644531,0.49219 0.644531,0.78516 0,0.25781 -0.07031,0.53906 -0.210937,1.11328 l -0.410156,1.6289 c -0.175782,0.72657 -0.527344,1.38282 -1.160157,1.38282 -0.05859,0 -0.351562,0 -0.609375,-0.15235 0.433594,-0.0937 0.527344,-0.44531 0.527344,-0.58593 0,-0.2461 -0.175781,-0.38672 -0.398437,-0.38672 -0.292969,0 -0.597657,0.24609 -0.597657,0.63281 0,0.50391 0.5625,0.72656 1.066407,0.72656 0.574218,0 0.984375,-0.45703 1.230468,-0.9375 0.199219,0.70313 0.796875,0.9375 1.230469,0.9375 1.230469,0 1.875,-1.55859 1.875,-1.82812 0,-0.0586 -0.04687,-0.10547 -0.128906,-0.10547 -0.105469,0 -0.117188,0.0586 -0.152344,0.15234 -0.316406,1.05469 -1.019531,1.54688 -1.546875,1.54688 -0.421875,0 -0.65625,-0.31641 -0.65625,-0.8086 0,-0.25781 0.05859,-0.44531 0.246094,-1.24218 l 0.421875,-1.61719 c 0.175781,-0.72656 0.585937,-1.24219 1.125,-1.24219 0.03516,0 0.363281,0 0.609375,0.15234 z m 4.130859,6.21094 c -0.316406,0.45703 -0.785156,0.86719 -1.371094,0.86719 -0.140625,0 -0.714843,-0.0234 -0.902343,-0.57422 0.04687,0.0117 0.105468,0.0117 0.128906,0.0117 0.351562,0 0.597656,-0.31641 0.597656,-0.58594 0,-0.28125 -0.234375,-0.375 -0.410156,-0.375 -0.1875,0 -0.609375,0.14063 -0.609375,0.72656 0,0.60938 0.515625,1.03125 1.195312,1.03125 1.195313,0 2.402344,-1.10156 2.742188,-2.42578 l 1.171875,-4.66406 c 0.01172,-0.0586 0.03516,-0.12891 0.03516,-0.19922 0,-0.17578 -0.152344,-0.30469 -0.328125,-0.30469 -0.105469,0 -0.363281,0.0469 -0.457031,0.41016 l -0.878906,3.51563 c -0.05859,0.21093 -0.05859,0.23437 -0.152344,0.375 -0.246094,0.32812 -0.644531,0.73828 -1.207031,0.73828 -0.679688,0 -0.738282,-0.65625 -0.738282,-0.98438 0,-0.67969 0.328125,-1.60547 0.644532,-2.46094 0.140625,-0.35156 0.210937,-0.51562 0.210937,-0.75 0,-0.5039 -0.363281,-0.96093 -0.949219,-0.96093 -1.101562,0 -1.535156,1.73437 -1.535156,1.82812 0,0.0469 0.04687,0.10547 0.128906,0.10547 0.105469,0 0.117188,-0.0469 0.164063,-0.21094 0.292969,-1.00781 0.738281,-1.47656 1.207031,-1.47656 0.105469,0 0.316406,0 0.316406,0.38672 0,0.31641 -0.140625,0.65625 -0.316406,1.11328 -0.585937,1.57031 -0.585937,1.95703 -0.585937,2.25 0,1.13672 0.808593,1.39453 1.40625,1.39453 0.351562,0 0.785156,-0.10547 1.195312,-0.55078 l 0.01172,0.0117 c -0.175781,0.70312 -0.292969,1.17187 -0.714844,1.75781 z m 0,0"
         style="fill:#000000;fill-opacity:1;fill-rule:nonzero;stroke:none" />
      <path
         id="path61"
         d="m -84.598437,257.71783 c -0.375,0.0703 -0.515625,0.35156 -0.515625,0.58594 0,0.28125 0.222656,0.375 0.386718,0.375 0.363282,0 0.609375,-0.30469 0.609375,-0.63282 0,-0.49218 -0.574218,-0.72656 -1.078125,-0.72656 -0.726562,0 -1.125,0.71484 -1.242187,0.94922 -0.269531,-0.90234 -1.007813,-0.94922 -1.230469,-0.94922 -1.21875,0 -1.863281,1.57031 -1.863281,1.82813 0,0.0469 0.04687,0.10546 0.128906,0.10546 0.105469,0 0.128906,-0.0703 0.152344,-0.11718 0.398437,-1.32422 1.207031,-1.57032 1.546875,-1.57032 0.539062,0 0.644531,0.49219 0.644531,0.78516 0,0.25781 -0.07031,0.53906 -0.210937,1.11328 l -0.410157,1.62891 c -0.175781,0.72656 -0.527343,1.38281 -1.160156,1.38281 -0.05859,0 -0.351562,0 -0.609375,-0.15234 0.433594,-0.0937 0.527344,-0.44532 0.527344,-0.58594 0,-0.24609 -0.175781,-0.38672 -0.398438,-0.38672 -0.292968,0 -0.597656,0.24609 -0.597656,0.63281 0,0.50391 0.5625,0.72657 1.066406,0.72657 0.574219,0 0.984375,-0.45704 1.230469,-0.9375 0.199219,0.70312 0.796875,0.9375 1.230469,0.9375 1.230469,0 1.875,-1.5586 1.875,-1.82813 0,-0.0586 -0.04687,-0.10547 -0.128906,-0.10547 -0.105469,0 -0.117188,0.0586 -0.152344,0.15235 -0.316406,1.05468 -1.019531,1.54687 -1.546875,1.54687 -0.421875,0 -0.65625,-0.31641 -0.65625,-0.80859 0,-0.25782 0.05859,-0.44532 0.246094,-1.24219 l 0.421875,-1.61719 c 0.175781,-0.72656 0.585937,-1.24219 1.125,-1.24219 0.03516,0 0.363281,0 0.609375,0.15235 z m 0,0"
         style="fill:#000000;fill-opacity:1;fill-rule:nonzero;stroke:none" />
      <path
         id="path62"
         d="m -73.313281,263.92877 c -0.316406,0.45703 -0.785156,0.86718 -1.371094,0.86718 -0.140625,0 -0.714844,-0.0234 -0.902344,-0.57422 0.04687,0.0117 0.105469,0.0117 0.128907,0.0117 0.351562,0 0.597656,-0.3164 0.597656,-0.58593 0,-0.28125 -0.234375,-0.375 -0.410156,-0.375 -0.1875,0 -0.609375,0.14062 -0.609375,0.72656 0,0.60937 0.515625,1.03125 1.195312,1.03125 1.195313,0 2.402344,-1.10156 2.742188,-2.42578 l 1.171875,-4.66407 c 0.01172,-0.0586 0.03516,-0.1289 0.03516,-0.19921 0,-0.17579 -0.152344,-0.30469 -0.328125,-0.30469 -0.105469,0 -0.363281,0.0469 -0.457031,0.41015 l -0.878907,3.51563 c -0.05859,0.21094 -0.05859,0.23437 -0.152343,0.375 -0.246094,0.32812 -0.644532,0.73828 -1.207032,0.73828 -0.679687,0 -0.738281,-0.65625 -0.738281,-0.98437 0,-0.67969 0.328125,-1.60547 0.644531,-2.46094 0.140625,-0.35156 0.210938,-0.51563 0.210938,-0.75 0,-0.50391 -0.363281,-0.96094 -0.949219,-0.96094 -1.101562,0 -1.535156,1.73438 -1.535156,1.82813 0,0.0469 0.04687,0.10546 0.128906,0.10546 0.105469,0 0.117188,-0.0469 0.164063,-0.21093 0.292968,-1.00782 0.738281,-1.47657 1.207031,-1.47657 0.105469,0 0.316406,0 0.316406,0.38672 0,0.31641 -0.140625,0.65625 -0.316406,1.11328 -0.585938,1.57032 -0.585938,1.95704 -0.585938,2.25 0,1.13672 0.808594,1.39454 1.40625,1.39454 0.351563,0 0.785157,-0.10547 1.195313,-0.55079 l 0.01172,0.0117 c -0.175782,0.70313 -0.292969,1.17188 -0.714844,1.75782 z m 0,0"
         style="fill:#000000;fill-opacity:1;fill-rule:nonzero;stroke:none" />
    </g>
  </g>
</svg>
