<?xml version="1.0" encoding="UTF-8" standalone="no"?>
<!-- Created with Inkscape (http://www.inkscape.org/) -->

<svg
   version="1.1"
   id="svg1"
   width="794.55066"
   height="1123.6533"
   viewBox="0 0 794.55066 1123.6533"
   sodipodi:docname="LigaMatematycznaMatuskiego_Gim_Zestaw1_2014_2015_page0.pdf"
   xmlns:inkscape="http://www.inkscape.org/namespaces/inkscape"
   xmlns:sodipodi="http://sodipodi.sourceforge.net/DTD/sodipodi-0.dtd"
   xmlns="http://www.w3.org/2000/svg"
   xmlns:svg="http://www.w3.org/2000/svg">
  <defs
     id="defs1" />
  <sodipodi:namedview
     id="namedview1"
     pagecolor="#ffffff"
     bordercolor="#000000"
     borderopacity="0.25"
     inkscape:showpageshadow="2"
     inkscape:pageopacity="0.0"
     inkscape:pagecheckerboard="0"
     inkscape:deskcolor="#d1d1d1">
    <inkscape:page
       x="0"
       y="0"
       inkscape:label="1"
       id="page1"
       width="794.55066"
       height="1123.6533"
       margin="0"
       bleed="0" />
  </sodipodi:namedview>
  <g
     id="g1"
     inkscape:groupmode="layer"
     inkscape:label="1">
    <g
       id="g2"
       aria-label="LIGAMATEMATYCZNA&#10;im.ZdzisªawaMatuskiego&#10;PADZIERNIK2014&#10;GIMNAZJUM&#10;ZADANIE1.&#10;Piszemyliczb¦1,potem0.Trzeci¡liczb¡jestró»nicaliczbydrugiejipierwszej,czwart¡-&#10;ró»nicatrzeciejidrugiej,pi¡t¡-ró»nicaczwartejitrzeciej,itakdalej.Wyznaczliczb¦stoj¡c¡&#10;na2014miejscu.&#10;ZADANIE2.&#10;Wyznaczwszystkieparyliczbnaturalnycha,bspeªniaj¡cewaruneka&#10;2&#10;−4b&#10;2&#10;=45.&#10;ZADANIE3.&#10;Wprostok¡cieobokachdªugo±ci9cmi7cmumieszczonoprostok¡ttak,»ejednazjego&#10;przek¡tnychª¡czy±rodkikrótszychbokówwi¦kszegoprostok¡ta,adwapozostaªewierzchoªki&#10;mniejszegoprostok¡tale»¡nadªu»szychbokachwi¦kszegoprostok¡ta.Obliczobwódmniejszego&#10;prostok¡ta.&#10;ZADANIE4.&#10;Mi¦dzydwiemadodatnimiliczbamicaªkowitymiaibjestdziesi¦¢liczbcaªkowitychwi¦kszych&#10;odaimniejszychodb,za±mi¦dzya&#10;2&#10;ib&#10;2&#10;jesttysi¡cliczbcaªkowitychwi¦kszychoda&#10;2&#10;imniej-&#10;szychodb&#10;2&#10;.Wyznaczaib.&#10;ZADANIE5.&#10;DanyjestkwadratABCDoboku1.PunktMjest±rodkiembokuBC,Ljest±rodkiemboku&#10;CD.OdcinkiAMiBLpodzieliªykwadratnaczteryobszary.Obliczpoleka»degoznich."
       transform="matrix(1.3333333,0,0,1.3333333,274.724,56.069333)">
      <path
         id="path2"
         d="m -63.35257,110.42066 c 0,-0.26953 0,-0.28125 -0.246094,-0.28125 -0.28125,0.3164 -0.878906,0.76172 -2.109375,0.76172 v 0.35156 c 0.269531,0 0.867187,0 1.523437,-0.31641 v 6.22266 c 0,0.43359 -0.03516,0.57422 -1.078125,0.57422 h -0.375 v 0.35156 c 0.316407,-0.0234 1.476563,-0.0234 1.875,-0.0234 0.398438,0 1.546875,0 1.863282,0.0234 v -0.35156 h -0.363282 c -1.054687,0 -1.089843,-0.14063 -1.089843,-0.57422 z m 0,0"
         style="fill:#000000;fill-opacity:1;fill-rule:nonzero;stroke:none" />
      <path
         id="path3"
         d="m -9.1504219,114.26441 c 0,-0.9961 -0.058594,-1.96875 -0.4921875,-2.8711 -0.4921876,-0.99609 -1.3476566,-1.2539 -1.9335936,-1.2539 -0.691406,0 -1.546875,0.33984 -1.980469,1.33593 -0.339844,0.75 -0.457031,1.48829 -0.457031,2.78907 0,1.16015 0.08203,2.02734 0.515625,2.87109 0.457031,0.91406 1.289062,1.19531 1.910156,1.19531 1.042969,0 1.6406251,-0.62109 1.9804689,-1.3125 0.4335937,-0.89062 0.4570312,-2.0625 0.4570312,-2.7539 z m -2.4375001,3.83203 c -0.386719,0 -1.160156,-0.21094 -1.382812,-1.52344 -0.140625,-0.71484 -0.140625,-1.61719 -0.140625,-2.46094 0,-0.97265 0,-1.86328 0.199218,-2.5664 0.199219,-0.79688 0.808594,-1.17188 1.324219,-1.17188 0.457031,0 1.148438,0.28125 1.371094,1.30078 0.152344,0.67969 0.152344,1.62891 0.152344,2.4375 0,0.8086 0,1.71094 -0.128907,2.4375 -0.222656,1.32422 -0.972656,1.54688 -1.394531,1.54688 z m 0,0"
         style="fill:#000000;fill-opacity:1;fill-rule:nonzero;stroke:none" />
      <path
         id="path4"
         d="m -126.7012,147.86206 h -0.26953 c -0.0352,0.19922 -0.12891,0.85547 -0.2461,1.04297 -0.082,0.11719 -0.76172,0.11719 -1.125,0.11719 h -2.21484 c 0.32812,-0.28125 1.05469,-1.04297 1.37109,-1.33594 1.81641,-1.66406 2.48438,-2.28515 2.48438,-3.46875 0,-1.38281 -1.08985,-2.29687 -2.47266,-2.29687 -1.39453,0 -2.20312,1.18359 -2.20312,2.20312 0,0.60938 0.52734,0.60938 0.5625,0.60938 0.24609,0 0.5625,-0.17578 0.5625,-0.5625 0,-0.32813 -0.23438,-0.55078 -0.5625,-0.55078 -0.10547,0 -0.12891,0 -0.16407,0.0117 0.22266,-0.82031 0.86719,-1.37109 1.64063,-1.37109 1.01953,0 1.64062,0.85547 1.64062,1.95703 0,1.00781 -0.58593,1.89844 -1.26562,2.66016 l -2.41406,2.70703 v 0.28125 h 4.35937 z m 5.94726,-1.8164 c 0,-0.9961 -0.0586,-1.96875 -0.49218,-2.8711 -0.49219,-0.99609 -1.34766,-1.2539 -1.9336,-1.2539 -0.6914,0 -1.54687,0.33984 -1.98047,1.33593 -0.33984,0.75 -0.45703,1.48829 -0.45703,2.78907 0,1.16015 0.082,2.02734 0.51563,2.87109 0.45703,0.91406 1.28906,1.19531 1.91015,1.19531 1.04297,0 1.64063,-0.62109 1.98047,-1.3125 0.4336,-0.89062 0.45703,-2.0625 0.45703,-2.7539 z m -2.4375,3.83203 c -0.38672,0 -1.16015,-0.21094 -1.38281,-1.52344 -0.14062,-0.71484 -0.14062,-1.61719 -0.14062,-2.46094 0,-0.97265 0,-1.86328 0.19921,-2.5664 0.19922,-0.79688 0.8086,-1.17188 1.32422,-1.17188 0.45703,0 1.14844,0.28125 1.3711,1.30078 0.15234,0.67969 0.15234,1.62891 0.15234,2.4375 0,0.8086 0,1.71094 -0.12891,2.4375 -0.22265,1.32422 -0.97265,1.54688 -1.39453,1.54688 z m 6.38086,-7.67578 c 0,-0.26953 0,-0.28125 -0.24609,-0.28125 -0.28125,0.3164 -0.87891,0.76172 -2.10938,0.76172 v 0.35156 c 0.26953,0 0.86719,0 1.52344,-0.31641 v 6.22266 c 0,0.43359 -0.0352,0.57422 -1.07812,0.57422 h -0.375 v 0.35156 c 0.3164,-0.0234 1.47656,-0.0234 1.875,-0.0234 0.39843,0 1.54687,0 1.86328,0.0234 v -0.35156 h -0.36328 c -1.05469,0 -1.08985,-0.14063 -1.08985,-0.57422 z m 6.72071,-0.11719 c 0,-0.22266 0,-0.29297 -0.16407,-0.29297 -0.0937,0 -0.1289,0 -0.22265,0.15234 l -3.59766,5.57813 v 0.35156 h 3.14063 v 1.07813 c 0,0.44531 -0.0234,0.5625 -0.90235,0.5625 h -0.23437 v 0.35156 c 0.26953,-0.0234 1.21875,-0.0234 1.55859,-0.0234 0.32813,0 1.28906,0 1.55859,0.0234 v -0.35156 h -0.23437 c -0.86719,0 -0.90234,-0.11719 -0.90234,-0.5625 v -1.07813 h 1.20703 v -0.35156 h -1.20703 z m -0.78516,0.9375 v 4.5 h -2.90625 z m 0,0"
         style="fill:#000000;fill-opacity:1;fill-rule:nonzero;stroke:none" />
      <path
         id="path5"
         d="m 75.593719,194.40015 c -0.05859,0.19922 -0.05859,0.22265 -0.222656,0.44531 -0.269532,0.33984 -0.796875,0.85547 -1.359375,0.85547 -0.480469,0 -0.761719,-0.44531 -0.761719,-1.14844 0,-0.65625 0.375,-1.99219 0.597656,-2.49609 0.410156,-0.84375 0.972656,-1.26563 1.441406,-1.26563 0.785157,0 0.9375,0.97266 0.9375,1.06641 0,0.0117 -0.03516,0.17578 -0.04687,0.19922 z m 0.761719,-3.07031 c -0.128907,-0.30469 -0.445313,-0.78516 -1.066407,-0.78516 -1.359375,0 -2.8125,1.74609 -2.8125,3.51562 0,1.1836 0.691407,1.875 1.5,1.875 0.65625,0 1.21875,-0.51562 1.558594,-0.90234 0.117188,0.70313 0.679688,0.90234 1.042969,0.90234 0.351562,0 0.644531,-0.21093 0.855469,-0.64453 0.1875,-0.41015 0.363281,-1.13672 0.363281,-1.18359 0,-0.0586 -0.04687,-0.10547 -0.117188,-0.10547 -0.117187,0 -0.128906,0.0586 -0.175781,0.23438 -0.175781,0.71484 -0.398437,1.46484 -0.890625,1.46484 -0.351562,0 -0.375,-0.31641 -0.375,-0.55078 0,-0.28125 0.03516,-0.41016 0.140625,-0.87891 0.08203,-0.29297 0.152344,-0.5625 0.246094,-0.90234 0.433594,-1.79297 0.550781,-2.22656 0.550781,-2.29688 0,-0.16406 -0.140625,-0.29297 -0.316406,-0.29297 -0.375,0 -0.480469,0.41016 -0.503906,0.55079 z m 0,0"
         style="fill:#000000;fill-opacity:1;fill-rule:nonzero;stroke:none" />
      <path
         id="path6"
         d="m 88.056609,187.82593 c 0.01172,-0.0469 0.03516,-0.12891 0.03516,-0.1875 0,-0.11719 -0.128907,-0.11719 -0.152344,-0.11719 -0.01172,0 -0.433594,0.0352 -0.65625,0.0586 -0.199219,0.0117 -0.375,0.0352 -0.597656,0.0469 -0.28125,0.0234 -0.363282,0.0352 -0.363282,0.25781 0,0.11719 0.117188,0.11719 0.234375,0.11719 0.609375,0 0.609375,0.10547 0.609375,0.22266 0,0.082 -0.09375,0.43359 -0.140625,0.64453 l -0.292968,1.14844 c -0.117188,0.48046 -0.796875,3.19921 -0.84375,3.41015 -0.05859,0.29297 -0.05859,0.50391 -0.05859,0.65625 0,1.21875 0.679687,1.85156 1.453125,1.85156 1.394531,0 2.824219,-1.78125 2.824219,-3.51562 0,-1.10156 -0.621094,-1.875 -1.511719,-1.875 -0.632813,0 -1.183594,0.51562 -1.417969,0.75 z m -0.761718,7.875 c -0.375,0 -0.796875,-0.29297 -0.796875,-1.21875 0,-0.39844 0.03516,-0.62109 0.246093,-1.46484 0.04687,-0.15235 0.234375,-0.91407 0.28125,-1.06641 0.02344,-0.10547 0.726563,-1.16016 1.535157,-1.16016 0.527343,0 0.773437,0.51563 0.773437,1.13672 0,0.57422 -0.339844,1.9336 -0.632812,2.55469 -0.304688,0.64453 -0.855469,1.21875 -1.40625,1.21875 z m 0,0"
         style="fill:#000000;fill-opacity:1;fill-rule:nonzero;stroke:none" />
      <path
         id="path7"
         d="m 205.1445,194.40015 c -0.0586,0.19922 -0.0586,0.22265 -0.22266,0.44531 -0.26953,0.33984 -0.79687,0.85547 -1.35937,0.85547 -0.48047,0 -0.76172,-0.44531 -0.76172,-1.14844 0,-0.65625 0.375,-1.99219 0.59766,-2.49609 0.41015,-0.84375 0.97265,-1.26563 1.4414,-1.26563 0.78516,0 0.9375,0.97266 0.9375,1.06641 0,0.0117 -0.0351,0.17578 -0.0469,0.19922 z m 0.76172,-3.07031 c -0.12891,-0.30469 -0.44531,-0.78516 -1.06641,-0.78516 -1.35937,0 -2.8125,1.74609 -2.8125,3.51562 0,1.1836 0.69141,1.875 1.5,1.875 0.65625,0 1.21875,-0.51562 1.5586,-0.90234 0.11718,0.70313 0.67968,0.90234 1.04297,0.90234 0.35156,0 0.64453,-0.21093 0.85546,-0.64453 0.1875,-0.41015 0.36329,-1.13672 0.36329,-1.18359 0,-0.0586 -0.0469,-0.10547 -0.11719,-0.10547 -0.11719,0 -0.12891,0.0586 -0.17578,0.23438 -0.17578,0.71484 -0.39844,1.46484 -0.89063,1.46484 -0.35156,0 -0.375,-0.31641 -0.375,-0.55078 0,-0.28125 0.0352,-0.41016 0.14063,-0.87891 0.082,-0.29297 0.15234,-0.5625 0.24609,-0.90234 0.43359,-1.79297 0.55078,-2.22656 0.55078,-2.29688 0,-0.16406 -0.14062,-0.29297 -0.3164,-0.29297 -0.375,0 -0.48047,0.41016 -0.50391,0.55079 z m 0,0"
         style="fill:#000000;fill-opacity:1;fill-rule:nonzero;stroke:none" />
      <path
         id="path8"
         d="m 209.94333,189.85327 c 0.1289,-0.11718 0.45703,-0.375 0.58594,-0.49218 0.49218,-0.45704 0.96093,-0.89063 0.96093,-1.61719 0,-0.94922 -0.79687,-1.5586 -1.79297,-1.5586 -0.94921,0 -1.58203,0.72657 -1.58203,1.42969 0,0.39844 0.31641,0.44531 0.42188,0.44531 0.16406,0 0.41015,-0.11718 0.41015,-0.42187 0,-0.41016 -0.39843,-0.41016 -0.49218,-0.41016 0.23437,-0.58593 0.77343,-0.78515 1.16015,-0.78515 0.73828,0 1.125,0.63281 1.125,1.30078 0,0.83203 -0.58593,1.42969 -1.52343,2.40234 l -1.00782,1.03125 c -0.0937,0.0937 -0.0937,0.10547 -0.0937,0.30469 h 3.15235 l 0.22265,-1.42969 h -0.24609 c -0.0234,0.16406 -0.082,0.5625 -0.17578,0.71485 -0.0469,0.0586 -0.65625,0.0586 -0.78516,0.0586 h -1.41797 z m 0,0"
         style="fill:#000000;fill-opacity:1;fill-rule:nonzero;stroke:none" />
      <path
         id="path9"
         d="m 222.957,193.06421 c 0.21094,0 0.42188,0 0.42188,-0.23437 0,-0.23438 -0.21094,-0.23438 -0.42188,-0.23438 h -6.46875 c -0.19922,0 -0.41016,0 -0.41016,0.23438 0,0.23437 0.21094,0.23437 0.41016,0.23437 z m 0,0"
         style="fill:#000000;fill-opacity:1;fill-rule:nonzero;stroke:none" />
      <path
         id="path10"
         d="m 231.35055,188.03687 c 0,-0.22266 0,-0.29297 -0.16406,-0.29297 -0.0937,0 -0.1289,0 -0.22265,0.15234 l -3.59766,5.57813 v 0.35156 h 3.14062 v 1.07812 c 0,0.44532 -0.0234,0.5625 -0.90234,0.5625 h -0.23437 v 0.35157 c 0.26953,-0.0234 1.21875,-0.0234 1.55859,-0.0234 0.32812,0 1.28906,0 1.55859,0.0234 v -0.35157 h -0.23437 c -0.86719,0 -0.90235,-0.11718 -0.90235,-0.5625 v -1.07812 h 1.20704 v -0.35156 h -1.20704 z m -0.78515,0.9375 v 4.5 h -2.90625 z m 0,0"
         style="fill:#000000;fill-opacity:1;fill-rule:nonzero;stroke:none" />
      <path
         id="path11"
         d="m 235.65427,187.82593 c 0.0117,-0.0469 0.0352,-0.12891 0.0352,-0.1875 0,-0.11719 -0.1289,-0.11719 -0.15234,-0.11719 -0.0117,0 -0.4336,0.0352 -0.65625,0.0586 -0.19922,0.0117 -0.375,0.0352 -0.59766,0.0469 -0.28125,0.0234 -0.36328,0.0352 -0.36328,0.25781 0,0.11719 0.11719,0.11719 0.23438,0.11719 0.60937,0 0.60937,0.10547 0.60937,0.22266 0,0.082 -0.0937,0.43359 -0.14062,0.64453 l -0.29297,1.14844 c -0.11719,0.48046 -0.79688,3.19921 -0.84375,3.41015 -0.0586,0.29297 -0.0586,0.50391 -0.0586,0.65625 0,1.21875 0.67969,1.85156 1.45313,1.85156 1.39453,0 2.82422,-1.78125 2.82422,-3.51562 0,-1.10156 -0.6211,-1.875 -1.51172,-1.875 -0.63281,0 -1.1836,0.51562 -1.41797,0.75 z m -0.76172,7.875 c -0.375,0 -0.79688,-0.29297 -0.79688,-1.21875 0,-0.39844 0.0352,-0.62109 0.2461,-1.46484 0.0469,-0.15235 0.23437,-0.91407 0.28125,-1.06641 0.0234,-0.10547 0.72656,-1.16016 1.53515,-1.16016 0.52735,0 0.77344,0.51563 0.77344,1.13672 0,0.57422 -0.33984,1.9336 -0.63281,2.55469 -0.30469,0.64453 -0.85547,1.21875 -1.40625,1.21875 z m 0,0"
         style="fill:#000000;fill-opacity:1;fill-rule:nonzero;stroke:none" />
      <path
         id="path12"
         d="m 240.11618,189.85327 c 0.12891,-0.11718 0.45703,-0.375 0.58594,-0.49218 0.49218,-0.45704 0.96093,-0.89063 0.96093,-1.61719 0,-0.94922 -0.79687,-1.5586 -1.79296,-1.5586 -0.94922,0 -1.58204,0.72657 -1.58204,1.42969 0,0.39844 0.31641,0.44531 0.42188,0.44531 0.16406,0 0.41016,-0.11718 0.41016,-0.42187 0,-0.41016 -0.39844,-0.41016 -0.49219,-0.41016 0.23437,-0.58593 0.77344,-0.78515 1.16015,-0.78515 0.73829,0 1.125,0.63281 1.125,1.30078 0,0.83203 -0.58593,1.42969 -1.52343,2.40234 l -1.00782,1.03125 c -0.0937,0.0937 -0.0937,0.10547 -0.0937,0.30469 h 3.15235 l 0.22265,-1.42969 h -0.24609 c -0.0234,0.16406 -0.082,0.5625 -0.17578,0.71485 -0.0469,0.0586 -0.65625,0.0586 -0.78516,0.0586 h -1.41797 z m 0,0"
         style="fill:#000000;fill-opacity:1;fill-rule:nonzero;stroke:none" />
      <path
         id="path13"
         d="m 253.99411,191.95093 c 0.16406,0 0.375,0 0.375,-0.22266 0,-0.22265 -0.19922,-0.22265 -0.375,-0.22265 h -7.04297 c -0.17578,0 -0.38672,0 -0.38672,0.21093 0,0.23438 0.19922,0.23438 0.38672,0.23438 z m 0,2.21484 c 0.16406,0 0.375,0 0.375,-0.21093 0,-0.23438 -0.19922,-0.23438 -0.375,-0.23438 h -7.04297 c -0.17578,0 -0.38672,0 -0.38672,0.22266 0,0.22265 0.19922,0.22265 0.38672,0.22265 z m 8.66602,-6.1289 c 0,-0.22266 0,-0.29297 -0.16407,-0.29297 -0.0937,0 -0.1289,0 -0.22265,0.15234 l -3.59766,5.57813 v 0.35156 h 3.14063 v 1.07812 c 0,0.44532 -0.0234,0.5625 -0.90235,0.5625 h -0.23437 v 0.35157 c 0.26953,-0.0234 1.21875,-0.0234 1.55859,-0.0234 0.32813,0 1.28906,0 1.55859,0.0234 v -0.35157 h -0.23437 c -0.86719,0 -0.90234,-0.11718 -0.90234,-0.5625 v -1.07812 h 1.20703 v -0.35156 h -1.20703 z m -0.78516,0.9375 v 4.5 h -2.90625 z m 3.86133,0 c 0.5039,0.16406 0.92578,0.17578 1.05468,0.17578 1.35938,0 2.21485,-0.9961 2.21485,-1.16016 0,-0.0469 -0.0234,-0.10547 -0.0937,-0.10547 -0.0234,0 -0.0469,0 -0.15235,0.0469 -0.66796,0.28125 -1.24218,0.3164 -1.55859,0.3164 -0.78516,0 -1.34766,-0.23437 -1.58203,-0.32812 -0.082,-0.0352 -0.10547,-0.0352 -0.11719,-0.0352 -0.0937,0 -0.0937,0.0703 -0.0937,0.25782 v 3.55078 c 0,0.21093 0,0.29297 0.14063,0.29297 0.0586,0 0.0703,-0.0117 0.19922,-0.16407 0.32812,-0.49218 0.89062,-0.77343 1.48828,-0.77343 0.63281,0 0.94922,0.58593 1.04297,0.78515 0.19921,0.46875 0.21093,1.05469 0.21093,1.51172 0,0.45703 0,1.13672 -0.32812,1.67578 -0.26953,0.42188 -0.73828,0.72656 -1.25391,0.72656 -0.79687,0 -1.57031,-0.53906 -1.78125,-1.40625 0.0586,0.0234 0.12891,0.0352 0.1875,0.0352 0.19922,0 0.52735,-0.12891 0.52735,-0.52734 0,-0.33985 -0.23438,-0.52735 -0.52735,-0.52735 -0.21094,0 -0.52734,0.10547 -0.52734,0.57422 0,1.00781 0.80859,2.16797 2.14453,2.16797 1.34766,0 2.53125,-1.125 2.53125,-2.64844 0,-1.41797 -0.96094,-2.60156 -2.21484,-2.60156 -0.67969,0 -1.20704,0.29297 -1.51172,0.63281 z m 0,0"
         style="fill:#000000;fill-opacity:1;fill-rule:nonzero;stroke:none" />
      <path
         id="path14"
         d="m 36.280242,238.29273 c 0,2.82422 -1.253906,3.41015 -1.96875,3.41015 -0.28125,0 -0.925781,-0.0351 -1.21875,-0.45703 h 0.07031 c 0.08203,0.0234 0.515625,-0.0469 0.515625,-0.49219 0,-0.25781 -0.175782,-0.49218 -0.492188,-0.49218 -0.304687,0 -0.503906,0.21093 -0.503906,0.51562 0,0.75 0.597656,1.24219 1.640625,1.24219 1.5,0 2.941406,-1.58203 2.941406,-4.18359 0,-3.21094 -1.335937,-4.00782 -2.390625,-4.00782 -1.3125,0 -2.472656,1.10157 -2.472656,2.67188 0,1.58203 1.113281,2.66015 2.308594,2.66015 0.878906,0 1.335937,-0.64453 1.570312,-1.2539 z m -1.523437,0.62109 c -0.75,0 -1.078125,-0.60937 -1.183594,-0.83203 -0.199219,-0.45703 -0.199219,-1.03125 -0.199219,-1.57031 0,-0.66797 0,-1.24219 0.316406,-1.73438 0.210938,-0.3164 0.539063,-0.66797 1.183594,-0.66797 0.679688,0 1.03125,0.59766 1.148438,0.87891 0.234375,0.58594 0.234375,1.59375 0.234375,1.78125 0,0.99609 -0.445313,2.14453 -1.5,2.14453 z m 0,0"
         style="fill:#000000;fill-opacity:1;fill-rule:nonzero;stroke:none" />
      <path
         id="path15"
         d="m 78.540984,234.35523 v -0.28125 h -2.882812 c -1.453125,0 -1.476563,-0.15235 -1.523438,-0.38672 h -0.257812 l -0.375,2.39062 h 0.269531 c 0.03516,-0.21093 0.140625,-0.94922 0.292969,-1.07812 0.09375,-0.0703 0.996094,-0.0703 1.160156,-0.0703 h 2.53125 l -1.265625,1.8164 c -0.316406,0.45703 -1.523437,2.42578 -1.523437,4.66406 0,0.14063 0,0.60938 0.480468,0.60938 0.503907,0 0.503907,-0.45703 0.503907,-0.62109 v -0.59766 c 0,-1.78125 0.292968,-3.16406 0.855468,-3.96094 z m 0,0"
         style="fill:#000000;fill-opacity:1;fill-rule:nonzero;stroke:none" />
      <path
         id="path16"
         d="m 106.39645,333.98218 c -0.0586,0.19922 -0.0586,0.22266 -0.22265,0.44531 -0.26953,0.33985 -0.79688,0.85547 -1.35938,0.85547 -0.48047,0 -0.76172,-0.44531 -0.76172,-1.14844 0,-0.65625 0.375,-1.99218 0.59766,-2.49609 0.41016,-0.84375 0.97266,-1.26563 1.44141,-1.26563 0.78515,0 0.9375,0.97266 0.9375,1.06641 0,0.0117 -0.0352,0.17578 -0.0469,0.19922 z m 0.76172,-3.07031 c -0.1289,-0.30469 -0.44531,-0.78516 -1.0664,-0.78516 -1.35938,0 -2.8125,1.74609 -2.8125,3.51563 0,1.18359 0.6914,1.875 1.5,1.875 0.65625,0 1.21875,-0.51563 1.55859,-0.90235 0.11719,0.70313 0.67969,0.90235 1.04297,0.90235 0.35156,0 0.64453,-0.21094 0.85547,-0.64454 0.1875,-0.41015 0.36328,-1.13671 0.36328,-1.18359 0,-0.0586 -0.0469,-0.10547 -0.11719,-0.10547 -0.11719,0 -0.12891,0.0586 -0.17578,0.23438 -0.17578,0.71484 -0.39844,1.46484 -0.89063,1.46484 -0.35156,0 -0.375,-0.31641 -0.375,-0.55078 0,-0.28125 0.0352,-0.41016 0.14063,-0.87891 0.082,-0.29297 0.15234,-0.5625 0.24609,-0.90234 0.4336,-1.79297 0.55078,-2.22656 0.55078,-2.29688 0,-0.16406 -0.14062,-0.29296 -0.3164,-0.29296 -0.375,0 -0.48047,0.41015 -0.50391,0.55078 z m 0,0"
         style="fill:#000000;fill-opacity:1;fill-rule:nonzero;stroke:none" />
      <path
         id="path17"
         d="m 122.50973,327.40796 c 0.0117,-0.0469 0.0352,-0.12891 0.0352,-0.1875 0,-0.11719 -0.12891,-0.11719 -0.15234,-0.11719 -0.0117,0 -0.4336,0.0352 -0.65625,0.0586 -0.19922,0.0117 -0.375,0.0351 -0.59766,0.0469 -0.28125,0.0234 -0.36328,0.0352 -0.36328,0.25781 0,0.11719 0.11719,0.11719 0.23437,0.11719 0.60938,0 0.60938,0.10547 0.60938,0.22266 0,0.082 -0.0937,0.43359 -0.14063,0.64453 l -0.29296,1.14844 c -0.11719,0.48047 -0.79688,3.19922 -0.84375,3.41015 -0.0586,0.29297 -0.0586,0.50391 -0.0586,0.65625 0,1.21875 0.67969,1.85157 1.45313,1.85157 1.39453,0 2.82422,-1.78125 2.82422,-3.51563 0,-1.10156 -0.6211,-1.875 -1.51172,-1.875 -0.63282,0 -1.1836,0.51563 -1.41797,0.75 z m -0.76171,7.875 c -0.375,0 -0.79688,-0.29297 -0.79688,-1.21875 0,-0.39844 0.0352,-0.62109 0.24609,-1.46484 0.0469,-0.15235 0.23438,-0.91407 0.28125,-1.06641 0.0234,-0.10547 0.72657,-1.16016 1.53516,-1.16016 0.52734,0 0.77344,0.51563 0.77344,1.13672 0,0.57422 -0.33985,1.9336 -0.63281,2.55469 -0.30469,0.64453 -0.85547,1.21875 -1.40625,1.21875 z m 0,0"
         style="fill:#000000;fill-opacity:1;fill-rule:nonzero;stroke:none" />
      <path
         id="path18"
         d="m -128.37991,349.8728 c -0.0586,0.19922 -0.0586,0.22266 -0.22266,0.44532 -0.26953,0.33984 -0.79688,0.85547 -1.35938,0.85547 -0.48046,0 -0.76171,-0.44532 -0.76171,-1.14844 0,-0.65625 0.375,-1.99219 0.59765,-2.4961 0.41016,-0.84375 0.97266,-1.26562 1.44141,-1.26562 0.78515,0 0.9375,0.97266 0.9375,1.06641 0,0.0117 -0.0352,0.17578 -0.0469,0.19921 z m 0.76171,-3.07031 c -0.1289,-0.30469 -0.44531,-0.78515 -1.0664,-0.78515 -1.35938,0 -2.8125,1.74609 -2.8125,3.51562 0,1.18359 0.6914,1.875 1.5,1.875 0.65625,0 1.21875,-0.51562 1.55859,-0.90234 0.11719,0.70312 0.67969,0.90234 1.04297,0.90234 0.35156,0 0.64453,-0.21094 0.85547,-0.64453 0.1875,-0.41016 0.36328,-1.13672 0.36328,-1.18359 0,-0.0586 -0.0469,-0.10547 -0.11719,-0.10547 -0.11718,0 -0.1289,0.0586 -0.17578,0.23437 -0.17578,0.71485 -0.39844,1.46485 -0.89062,1.46485 -0.35157,0 -0.375,-0.31641 -0.375,-0.55079 0,-0.28125 0.0352,-0.41015 0.14062,-0.8789 0.082,-0.29297 0.15235,-0.5625 0.2461,-0.90235 0.43359,-1.79296 0.55078,-2.22656 0.55078,-2.29687 0,-0.16406 -0.14063,-0.29297 -0.31641,-0.29297 -0.375,0 -0.48047,0.41016 -0.50391,0.55078 z m 0,0"
         style="fill:#000000;fill-opacity:1;fill-rule:nonzero;stroke:none" />
      <path
         id="path19"
         d="m -37.246125,343.29859 c 0.01172,-0.0469 0.03516,-0.12891 0.03516,-0.1875 0,-0.11719 -0.128906,-0.11719 -0.152343,-0.11719 -0.01172,0 -0.433594,0.0351 -0.65625,0.0586 -0.199219,0.0117 -0.375,0.0352 -0.597657,0.0469 -0.28125,0.0234 -0.363281,0.0351 -0.363281,0.25781 0,0.11719 0.117188,0.11719 0.234375,0.11719 0.609375,0 0.609375,0.10547 0.609375,0.22265 0,0.082 -0.09375,0.4336 -0.140625,0.64453 l -0.292969,1.14844 c -0.117187,0.48047 -0.796875,3.19922 -0.84375,3.41016 -0.05859,0.29297 -0.05859,0.5039 -0.05859,0.65625 0,1.21875 0.679687,1.85156 1.453125,1.85156 1.394531,0 2.824218,-1.78125 2.824218,-3.51562 0,-1.10157 -0.621093,-1.875 -1.511718,-1.875 -0.632813,0 -1.183594,0.51562 -1.417969,0.75 z m -0.761719,7.875 c -0.375,0 -0.796875,-0.29297 -0.796875,-1.21875 0,-0.39844 0.03516,-0.6211 0.246094,-1.46485 0.04687,-0.15234 0.234375,-0.91406 0.28125,-1.0664 0.02344,-0.10547 0.726563,-1.16016 1.535156,-1.16016 0.527344,0 0.773438,0.51562 0.773438,1.13672 0,0.57422 -0.339844,1.93359 -0.632813,2.55469 -0.304687,0.64453 -0.855468,1.21875 -1.40625,1.21875 z m 0,0"
         style="fill:#000000;fill-opacity:1;fill-rule:nonzero;stroke:none" />
      <path
         id="path20"
         d="m 34.314422,349.8728 c -0.05859,0.19922 -0.05859,0.22266 -0.222656,0.44532 -0.269532,0.33984 -0.796875,0.85547 -1.359375,0.85547 -0.480469,0 -0.761719,-0.44532 -0.761719,-1.14844 0,-0.65625 0.375,-1.99219 0.597656,-2.4961 0.410156,-0.84375 0.972656,-1.26562 1.441406,-1.26562 0.785157,0 0.9375,0.97266 0.9375,1.06641 0,0.0117 -0.03516,0.17578 -0.04687,0.19921 z m 0.761719,-3.07031 c -0.128907,-0.30469 -0.445313,-0.78515 -1.066407,-0.78515 -1.359375,0 -2.8125,1.74609 -2.8125,3.51562 0,1.18359 0.691407,1.875 1.5,1.875 0.65625,0 1.21875,-0.51562 1.558594,-0.90234 0.117188,0.70312 0.679688,0.90234 1.042969,0.90234 0.351562,0 0.644531,-0.21094 0.855469,-0.64453 0.1875,-0.41016 0.363281,-1.13672 0.363281,-1.18359 0,-0.0586 -0.04687,-0.10547 -0.117188,-0.10547 -0.117187,0 -0.128906,0.0586 -0.175781,0.23437 -0.175781,0.71485 -0.398437,1.46485 -0.890625,1.46485 -0.351562,0 -0.375,-0.31641 -0.375,-0.55079 0,-0.28125 0.03516,-0.41015 0.140625,-0.8789 0.08203,-0.29297 0.152344,-0.5625 0.246094,-0.90235 0.433594,-1.79296 0.550781,-2.22656 0.550781,-2.29687 0,-0.16406 -0.140625,-0.29297 -0.316406,-0.29297 -0.375,0 -0.480469,0.41016 -0.503906,0.55078 z m 0,0"
         style="fill:#000000;fill-opacity:1;fill-rule:nonzero;stroke:none" />
      <path
         id="path21"
         d="m 39.11032,345.323 c 0.128907,-0.11719 0.457032,-0.375 0.585938,-0.49219 0.492187,-0.45703 0.960937,-0.89062 0.960937,-1.61718 0,-0.94922 -0.796875,-1.5586 -1.792968,-1.5586 -0.949219,0 -1.582032,0.72656 -1.582032,1.42969 0,0.39844 0.316407,0.44531 0.421875,0.44531 0.164063,0 0.410157,-0.11719 0.410157,-0.42187 0,-0.41016 -0.398438,-0.41016 -0.492188,-0.41016 0.234375,-0.58594 0.773438,-0.78516 1.160156,-0.78516 0.738282,0 1.125,0.63282 1.125,1.30079 0,0.83203 -0.585937,1.42968 -1.523437,2.40234 l -1.007813,1.03125 c -0.09375,0.0937 -0.09375,0.10547 -0.09375,0.30469 h 3.152344 l 0.222656,-1.42969 h -0.246093 c -0.02344,0.16406 -0.08203,0.5625 -0.175782,0.71484 -0.04687,0.0586 -0.65625,0.0586 -0.785156,0.0586 h -1.417969 z m 0,0"
         style="fill:#000000;fill-opacity:1;fill-rule:nonzero;stroke:none" />
      <path
         id="path22"
         d="m 54.728484,343.29859 c 0.01172,-0.0469 0.03516,-0.12891 0.03516,-0.1875 0,-0.11719 -0.128907,-0.11719 -0.152344,-0.11719 -0.01172,0 -0.433594,0.0351 -0.65625,0.0586 -0.199219,0.0117 -0.375,0.0352 -0.597656,0.0469 -0.28125,0.0234 -0.363282,0.0351 -0.363282,0.25781 0,0.11719 0.117188,0.11719 0.234375,0.11719 0.609375,0 0.609375,0.10547 0.609375,0.22265 0,0.082 -0.09375,0.4336 -0.140625,0.64453 l -0.292968,1.14844 c -0.117188,0.48047 -0.796875,3.19922 -0.84375,3.41016 -0.05859,0.29297 -0.05859,0.5039 -0.05859,0.65625 0,1.21875 0.679687,1.85156 1.453125,1.85156 1.394531,0 2.824219,-1.78125 2.824219,-3.51562 0,-1.10157 -0.621094,-1.875 -1.511719,-1.875 -0.632813,0 -1.183594,0.51562 -1.417969,0.75 z m -0.761718,7.875 c -0.375,0 -0.796875,-0.29297 -0.796875,-1.21875 0,-0.39844 0.03516,-0.6211 0.246093,-1.46485 0.04687,-0.15234 0.234375,-0.91406 0.28125,-1.0664 0.02344,-0.10547 0.726563,-1.16016 1.535157,-1.16016 0.527343,0 0.773437,0.51562 0.773437,1.13672 0,0.57422 -0.339844,1.93359 -0.632812,2.55469 -0.304688,0.64453 -0.855469,1.21875 -1.40625,1.21875 z m 0,0"
         style="fill:#000000;fill-opacity:1;fill-rule:nonzero;stroke:none" />
      <path
         id="path23"
         d="m 59.190398,345.323 c 0.128907,-0.11719 0.457032,-0.375 0.585938,-0.49219 0.492187,-0.45703 0.960937,-0.89062 0.960937,-1.61718 0,-0.94922 -0.796875,-1.5586 -1.792968,-1.5586 -0.949219,0 -1.582032,0.72656 -1.582032,1.42969 0,0.39844 0.316407,0.44531 0.421875,0.44531 0.164063,0 0.410157,-0.11719 0.410157,-0.42187 0,-0.41016 -0.398438,-0.41016 -0.492188,-0.41016 0.234375,-0.58594 0.773438,-0.78516 1.160156,-0.78516 0.738282,0 1.125,0.63282 1.125,1.30079 0,0.83203 -0.585937,1.42968 -1.523437,2.40234 l -1.007813,1.03125 c -0.09375,0.0937 -0.09375,0.10547 -0.09375,0.30469 h 3.152344 l 0.222656,-1.42969 H 60.49118 c -0.02344,0.16406 -0.08203,0.5625 -0.175782,0.71484 -0.04687,0.0586 -0.65625,0.0586 -0.785156,0.0586 h -1.417969 z m 0,0"
         style="fill:#000000;fill-opacity:1;fill-rule:nonzero;stroke:none" />
      <path
         id="path24"
         d="m 283.84177,349.8728 c -0.0586,0.19922 -0.0586,0.22266 -0.22266,0.44532 -0.26953,0.33984 -0.79688,0.85547 -1.35938,0.85547 -0.48046,0 -0.76171,-0.44532 -0.76171,-1.14844 0,-0.65625 0.375,-1.99219 0.59765,-2.4961 0.41016,-0.84375 0.97266,-1.26562 1.44141,-1.26562 0.78515,0 0.9375,0.97266 0.9375,1.06641 0,0.0117 -0.0352,0.17578 -0.0469,0.19921 z m 0.76171,-3.07031 c -0.1289,-0.30469 -0.44531,-0.78515 -1.0664,-0.78515 -1.35938,0 -2.8125,1.74609 -2.8125,3.51562 0,1.18359 0.6914,1.875 1.5,1.875 0.65625,0 1.21875,-0.51562 1.55859,-0.90234 0.11719,0.70312 0.67969,0.90234 1.04297,0.90234 0.35156,0 0.64453,-0.21094 0.85547,-0.64453 0.1875,-0.41016 0.36328,-1.13672 0.36328,-1.18359 0,-0.0586 -0.0469,-0.10547 -0.11719,-0.10547 -0.11718,0 -0.1289,0.0586 -0.17578,0.23437 -0.17578,0.71485 -0.39844,1.46485 -0.89062,1.46485 -0.35157,0 -0.375,-0.31641 -0.375,-0.55079 0,-0.28125 0.0351,-0.41015 0.14062,-0.8789 0.082,-0.29297 0.15235,-0.5625 0.2461,-0.90235 0.43359,-1.79296 0.55078,-2.22656 0.55078,-2.29687 0,-0.16406 -0.14063,-0.29297 -0.31641,-0.29297 -0.375,0 -0.48047,0.41016 -0.50391,0.55078 z m 0,0"
         style="fill:#000000;fill-opacity:1;fill-rule:nonzero;stroke:none" />
      <path
         id="path25"
         d="m 288.63766,345.323 c 0.12891,-0.11719 0.45704,-0.375 0.58594,-0.49219 0.49219,-0.45703 0.96094,-0.89062 0.96094,-1.61718 0,-0.94922 -0.79688,-1.5586 -1.79297,-1.5586 -0.94922,0 -1.58203,0.72656 -1.58203,1.42969 0,0.39844 0.31641,0.44531 0.42187,0.44531 0.16407,0 0.41016,-0.11719 0.41016,-0.42187 0,-0.41016 -0.39844,-0.41016 -0.49219,-0.41016 0.23438,-0.58594 0.77344,-0.78516 1.16016,-0.78516 0.73828,0 1.125,0.63282 1.125,1.30079 0,0.83203 -0.58594,1.42968 -1.52344,2.40234 l -1.00781,1.03125 c -0.0937,0.0937 -0.0937,0.10547 -0.0937,0.30469 h 3.15234 l 0.22266,-1.42969 h -0.24609 c -0.0234,0.16406 -0.082,0.5625 -0.17579,0.71484 -0.0469,0.0586 -0.65625,0.0586 -0.78515,0.0586 h -1.41797 z m 0,0"
         style="fill:#000000;fill-opacity:1;fill-rule:nonzero;stroke:none" />
      <path
         id="path26"
         d="m -97.597687,359.18921 c 0.01172,-0.0469 0.03516,-0.12891 0.03516,-0.1875 0,-0.11719 -0.128906,-0.11719 -0.152344,-0.11719 -0.01172,0 -0.433594,0.0352 -0.65625,0.0586 -0.199219,0.0117 -0.375,0.0351 -0.597656,0.0469 -0.28125,0.0234 -0.363281,0.0352 -0.363281,0.25781 0,0.11719 0.117187,0.11719 0.234375,0.11719 0.609375,0 0.609375,0.10547 0.609375,0.22266 0,0.082 -0.09375,0.43359 -0.140625,0.64453 l -0.292969,1.14844 c -0.117188,0.48047 -0.796875,3.19922 -0.84375,3.41015 -0.05859,0.29297 -0.05859,0.50391 -0.05859,0.65625 0,1.21875 0.679688,1.85157 1.453125,1.85157 1.394531,0 2.824219,-1.78125 2.824219,-3.51563 0,-1.10156 -0.621094,-1.875 -1.511719,-1.875 -0.632812,0 -1.183594,0.51563 -1.417969,0.75 z m -0.761719,7.875 c -0.375,0 -0.796875,-0.29297 -0.796875,-1.21875 0,-0.39844 0.03516,-0.62109 0.246094,-1.46484 0.04687,-0.15235 0.234375,-0.91407 0.28125,-1.06641 0.02344,-0.10547 0.726562,-1.16016 1.535156,-1.16016 0.527344,0 0.773437,0.51563 0.773437,1.13672 0,0.57422 -0.339843,1.9336 -0.632812,2.55469 -0.304688,0.64453 -0.855469,1.21875 -1.40625,1.21875 z m 0,0"
         style="fill:#000000;fill-opacity:1;fill-rule:nonzero;stroke:none" />
      <path
         id="path27"
         d="m -93.135773,361.21363 c 0.128906,-0.11719 0.457031,-0.375 0.585937,-0.49219 0.492188,-0.45703 0.960938,-0.89063 0.960938,-1.61719 0,-0.94922 -0.796875,-1.55859 -1.792969,-1.55859 -0.949219,0 -1.582031,0.72656 -1.582031,1.42968 0,0.39844 0.316406,0.44532 0.421875,0.44532 0.164062,0 0.410156,-0.11719 0.410156,-0.42188 0,-0.41015 -0.398438,-0.41015 -0.492188,-0.41015 0.234375,-0.58594 0.773438,-0.78516 1.160157,-0.78516 0.738281,0 1.125,0.63281 1.125,1.30078 0,0.83203 -0.585938,1.42969 -1.523438,2.40234 l -1.007812,1.03125 c -0.09375,0.0937 -0.09375,0.10547 -0.09375,0.30469 h 3.152343 l 0.222657,-1.42969 h -0.246094 c -0.02344,0.16407 -0.08203,0.5625 -0.175781,0.71485 -0.04687,0.0586 -0.65625,0.0586 -0.785157,0.0586 h -1.417968 z m 0,0"
         style="fill:#000000;fill-opacity:1;fill-rule:nonzero;stroke:none" />
      <path
         id="path28"
         d="m -29.520539,365.76343 c -0.05859,0.19922 -0.05859,0.22266 -0.222656,0.44531 -0.269532,0.33985 -0.796875,0.85547 -1.359375,0.85547 -0.480469,0 -0.761719,-0.44531 -0.761719,-1.14844 0,-0.65625 0.375,-1.99218 0.597656,-2.49609 0.410156,-0.84375 0.972656,-1.26563 1.441406,-1.26563 0.785157,0 0.9375,0.97266 0.9375,1.06641 0,0.0117 -0.03516,0.17578 -0.04687,0.19922 z m 0.761719,-3.07031 c -0.128907,-0.30469 -0.445313,-0.78516 -1.066407,-0.78516 -1.359375,0 -2.8125,1.74609 -2.8125,3.51563 0,1.18359 0.691407,1.875 1.5,1.875 0.65625,0 1.21875,-0.51563 1.558594,-0.90235 0.117188,0.70313 0.679688,0.90235 1.042969,0.90235 0.351562,0 0.644531,-0.21094 0.855469,-0.64454 0.1875,-0.41015 0.363281,-1.13671 0.363281,-1.18359 0,-0.0586 -0.04687,-0.10547 -0.117188,-0.10547 -0.117187,0 -0.128906,0.0586 -0.175781,0.23438 -0.175781,0.71484 -0.398437,1.46484 -0.890625,1.46484 -0.351562,0 -0.375,-0.31641 -0.375,-0.55078 0,-0.28125 0.03516,-0.41016 0.140625,-0.87891 0.08203,-0.29297 0.152344,-0.5625 0.246094,-0.90234 0.433594,-1.79297 0.550781,-2.22656 0.550781,-2.29688 0,-0.16406 -0.140625,-0.29296 -0.316406,-0.29296 -0.375,0 -0.480469,0.41015 -0.503906,0.55078 z m 0,0"
         style="fill:#000000;fill-opacity:1;fill-rule:nonzero;stroke:none" />
      <path
         id="path29"
         d="m -13.152375,359.18921 c 0.01172,-0.0469 0.03516,-0.12891 0.03516,-0.1875 0,-0.11719 -0.128906,-0.11719 -0.152343,-0.11719 -0.01172,0 -0.433594,0.0352 -0.65625,0.0586 -0.199219,0.0117 -0.375,0.0351 -0.597657,0.0469 -0.28125,0.0234 -0.363281,0.0352 -0.363281,0.25781 0,0.11719 0.117188,0.11719 0.234375,0.11719 0.609375,0 0.609375,0.10547 0.609375,0.22266 0,0.082 -0.09375,0.43359 -0.140625,0.64453 l -0.292969,1.14844 c -0.117187,0.48047 -0.796875,3.19922 -0.84375,3.41015 -0.05859,0.29297 -0.05859,0.50391 -0.05859,0.65625 0,1.21875 0.679687,1.85157 1.453125,1.85157 1.394531,0 2.824218,-1.78125 2.824218,-3.51563 0,-1.10156 -0.621093,-1.875 -1.511718,-1.875 -0.632813,0 -1.183594,0.51563 -1.417969,0.75 z m -0.761719,7.875 c -0.375,0 -0.796875,-0.29297 -0.796875,-1.21875 0,-0.39844 0.03516,-0.62109 0.246094,-1.46484 0.04687,-0.15235 0.234375,-0.91407 0.28125,-1.06641 0.02344,-0.10547 0.726563,-1.16016 1.535156,-1.16016 0.527344,0 0.773438,0.51563 0.773438,1.13672 0,0.57422 -0.339844,1.9336 -0.632813,2.55469 -0.304687,0.64453 -0.855468,1.21875 -1.40625,1.21875 z m 0,0"
         style="fill:#000000;fill-opacity:1;fill-rule:nonzero;stroke:none" />
      <path
         id="path30"
         d="m -47.731477,411.80933 c -0.410156,0.70312 -0.820312,0.9375 -1.394531,0.97265 -0.128906,0.0117 -0.222656,0.0117 -0.222656,0.23438 0,0.0703 0.05859,0.11719 0.140625,0.11719 0.210937,0 0.75,-0.0234 0.972656,-0.0234 0.339844,0 0.726563,0.0234 1.054688,0.0234 0.07031,0 0.222656,0 0.222656,-0.22266 0,-0.11719 -0.09375,-0.12891 -0.175781,-0.12891 -0.269532,-0.0234 -0.492188,-0.11718 -0.492188,-0.39843 0,-0.17578 0.07031,-0.30469 0.222656,-0.5625 l 0.902344,-1.51172 h 3.058594 c 0.01172,0.10547 0.01172,0.21094 0.02344,0.3164 0.03516,0.30469 0.175782,1.54688 0.175782,1.78125 0,0.35157 -0.609375,0.375 -0.796875,0.375 -0.140625,0 -0.269532,0 -0.269532,0.22266 0,0.12891 0.105469,0.12891 0.175782,0.12891 0.210937,0 0.445312,-0.0234 0.65625,-0.0234 h 0.679687 c 0.726563,0 1.253906,0.0234 1.265625,0.0234 0.08203,0 0.210938,0 0.210938,-0.22266 0,-0.12891 -0.105469,-0.12891 -0.28125,-0.12891 -0.65625,0 -0.667969,-0.10546 -0.714844,-0.45703 l -0.726563,-7.46484 c -0.02344,-0.23438 -0.07031,-0.25781 -0.199218,-0.25781 -0.117188,0 -0.1875,0.0234 -0.304688,0.19922 z m 1.441407,-1.83985 2.402343,-4.01953 0.410157,4.01953 z m 9.679687,-4.18359 c 0.117188,-0.44531 0.164063,-0.46875 0.621094,-0.46875 h 1.558594 c 1.347656,0 1.347656,1.14844 1.347656,1.25391 0,0.97265 -0.960938,2.20312 -2.542969,2.20312 h -1.722656 z m 2.027344,3.08203 c 1.300781,-0.24609 2.484375,-1.14844 2.484375,-2.25 0,-0.92578 -0.832031,-1.65234 -2.179688,-1.65234 h -3.832031 c -0.234375,0 -0.339844,0 -0.339844,0.23437 0,0.11719 0.105469,0.11719 0.292969,0.11719 0.726563,0 0.726563,0.0937 0.726563,0.22266 0,0.0234 0,0.0937 -0.04687,0.28125 l -1.617188,6.43359 c -0.105469,0.41016 -0.128906,0.52734 -0.960937,0.52734 -0.234375,0 -0.351563,0 -0.351563,0.22266 0,0.12891 0.07031,0.12891 0.304688,0.12891 h 4.101562 c 1.828125,0 3.246094,-1.38282 3.246094,-2.58985 0,-0.98437 -0.867188,-1.58203 -1.828125,-1.67578 z m -1.699219,3.91406 h -1.617187 c -0.164063,0 -0.1875,0 -0.257813,-0.0117 -0.128906,-0.0117 -0.152344,-0.0352 -0.152344,-0.12891 0,-0.082 0.03516,-0.15234 0.05859,-0.25781 l 0.832031,-3.375 h 2.25 c 1.40625,0 1.40625,1.3125 1.40625,1.40625 0,1.14843 -1.042968,2.36718 -2.519531,2.36718 z m 13.719727,-7.95703 c 0,-0.10547 -0.08203,-0.10547 -0.105469,-0.10547 -0.02344,0 -0.07031,0 -0.175781,0.11719 l -0.820313,1.00781 c -0.421875,-0.71484 -1.078125,-1.125 -1.96875,-1.125 -2.589843,0 -5.261718,2.61329 -5.261718,5.42579 0,1.99218 1.394531,3.23437 3.140625,3.23437 0.960937,0 1.792968,-0.39844 2.484375,-0.98437 1.042968,-0.87891 1.359375,-2.03907 1.359375,-2.13282 0,-0.10547 -0.09375,-0.10547 -0.140625,-0.10547 -0.105469,0 -0.117188,0.0703 -0.140625,0.11719 -0.550782,1.86328 -2.15625,2.76563 -3.351563,2.76563 -1.277344,0 -2.367187,-0.82032 -2.367187,-2.50782 0,-0.38671 0.117187,-2.46093 1.464843,-4.03125 0.65625,-0.76171 1.78125,-1.4414 2.917969,-1.4414 1.3125,0 1.898438,1.08984 1.898438,2.30859 0,0.31641 -0.03516,0.57422 -0.03516,0.6211 0,0.11718 0.117188,0.11718 0.152344,0.11718 0.140625,0 0.152344,-0.0117 0.199219,-0.23437 z m 2.182617,7.42969 c -0.105469,0.41016 -0.128906,0.52734 -0.960938,0.52734 -0.234375,0 -0.351562,0 -0.351562,0.22266 0,0.12891 0.07031,0.12891 0.304687,0.12891 h 3.796875 c 2.414063,0 4.769532,-2.4961 4.769532,-5.16797 0,-1.72266 -1.03125,-3 -2.742188,-3 h -3.832031 c -0.234375,0 -0.339844,0 -0.339844,0.23437 0,0.11719 0.105469,0.11719 0.292969,0.11719 0.726562,0 0.726562,0.0937 0.726562,0.22266 0,0.0234 0,0.0937 -0.04687,0.28125 z m 2.519531,-6.46875 c 0.117188,-0.44531 0.164063,-0.46875 0.621094,-0.46875 h 1.324219 c 1.113281,0 2.144531,0.60938 2.144531,2.26172 0,0.59766 -0.234375,2.67187 -1.394531,3.98437 -0.339844,0.39844 -1.242188,1.21875 -2.625,1.21875 h -1.359375 c -0.164063,0 -0.1875,0 -0.257813,-0.0117 -0.128906,-0.0117 -0.140625,-0.0352 -0.140625,-0.12891 0,-0.082 0.02344,-0.15234 0.04687,-0.25781 z m 0,0"
         style="fill:#000000;fill-opacity:1;fill-rule:nonzero;stroke:none" />
      <path
         id="path31"
         d="m 34.203094,405.46948 c 0,-0.26953 0,-0.28125 -0.246094,-0.28125 -0.28125,0.31641 -0.878906,0.76172 -2.109375,0.76172 v 0.35157 c 0.269531,0 0.867188,0 1.523438,-0.31641 v 6.22266 c 0,0.43359 -0.03516,0.57421 -1.078125,0.57421 h -0.375 v 0.35157 c 0.316406,-0.0234 1.476562,-0.0234 1.875,-0.0234 0.398437,0 1.546875,0 1.863281,0.0234 v -0.35157 h -0.363281 c -1.054688,0 -1.089844,-0.14062 -1.089844,-0.57421 z m 0,0"
         style="fill:#000000;fill-opacity:1;fill-rule:nonzero;stroke:none" />
      <path
         id="path32"
         d="m 91.586883,405.84448 c 0.105469,-0.41015 0.128906,-0.52734 0.984375,-0.52734 0.222656,0 0.328125,0 0.328125,-0.22266 0,-0.1289 -0.08203,-0.1289 -0.304688,-0.1289 h -1.441406 c -0.292969,0 -0.304687,0.0117 -0.433594,0.21094 l -4.371093,6.89062 -0.890625,-6.83203 c -0.03516,-0.26953 -0.04687,-0.26953 -0.363282,-0.26953 h -1.476562 c -0.234375,0 -0.339844,0 -0.339844,0.23437 0,0.11719 0.105469,0.11719 0.292969,0.11719 0.726562,0 0.726562,0.0937 0.726562,0.22266 0,0.0234 0,0.0937 -0.04687,0.28125 l -1.535156,6.09375 c -0.140625,0.57422 -0.410156,0.83203 -1.21875,0.86718 -0.03516,0 -0.175781,0.0117 -0.175781,0.22266 0,0.12891 0.105469,0.12891 0.152344,0.12891 0.246093,0 0.855468,-0.0234 1.089843,-0.0234 h 0.574219 c 0.164063,0 0.375,0.0234 0.539063,0.0234 0.08203,0 0.210937,0 0.210937,-0.22266 0,-0.11719 -0.117187,-0.12891 -0.164062,-0.12891 -0.398438,-0.0117 -0.773438,-0.082 -0.773438,-0.5039 0,-0.12891 0,-0.14063 0.04687,-0.30469 l 1.652344,-6.58594 h 0.01172 l 0.984375,7.41797 c 0.03516,0.29297 0.04687,0.32813 0.152343,0.32813 0.140625,0 0.199219,-0.0937 0.257813,-0.19922 l 4.804687,-7.60547 h 0.01172 l -1.734375,6.92578 c -0.105469,0.41016 -0.128906,0.52734 -0.972656,0.52734 -0.222656,0 -0.339844,0 -0.339844,0.22266 0,0.12891 0.105469,0.12891 0.175781,0.12891 0.210938,0 0.445313,-0.0234 0.644532,-0.0234 h 1.417968 c 0.199219,0 0.445313,0.0234 0.65625,0.0234 0.09375,0 0.222657,0 0.222657,-0.22266 0,-0.12891 -0.105469,-0.12891 -0.28125,-0.12891 -0.738282,0 -0.738282,-0.0937 -0.738282,-0.21093 0,-0.0117 0,-0.0937 0.02344,-0.1875 z m 0,0"
         style="fill:#000000;fill-opacity:1;fill-rule:nonzero;stroke:none" />
      <path
         id="path33"
         d="m 202.88571,405.78589 c 0.11719,-0.44531 0.16406,-0.46875 0.62109,-0.46875 h 1.5586 c 1.34765,0 1.34765,1.14844 1.34765,1.25391 0,0.97265 -0.96093,2.20312 -2.54296,2.20312 h -1.72266 z m 2.02734,3.08203 c 1.30079,-0.24609 2.48438,-1.14844 2.48438,-2.25 0,-0.92578 -0.83203,-1.65234 -2.17969,-1.65234 h -3.83203 c -0.23437,0 -0.33984,0 -0.33984,0.23437 0,0.11719 0.10547,0.11719 0.29297,0.11719 0.72656,0 0.72656,0.0937 0.72656,0.22266 0,0.0234 0,0.0937 -0.0469,0.28125 l -1.61718,6.43359 c -0.10547,0.41016 -0.12891,0.52734 -0.96094,0.52734 -0.23438,0 -0.35156,0 -0.35156,0.22266 0,0.12891 0.0703,0.12891 0.30468,0.12891 h 4.10157 c 1.82812,0 3.24609,-1.38282 3.24609,-2.58985 0,-0.98437 -0.86719,-1.58203 -1.82813,-1.67578 z m -1.69921,3.91406 h -1.61719 c -0.16406,0 -0.1875,0 -0.25781,-0.0117 -0.12891,-0.0117 -0.15235,-0.0352 -0.15235,-0.12891 0,-0.082 0.0352,-0.15234 0.0586,-0.25781 l 0.83203,-3.375 h 2.25 c 1.40625,0 1.40625,1.3125 1.40625,1.40625 0,1.14843 -1.04297,2.36718 -2.51953,2.36718 z m 13.72265,-7.95703 c 0,-0.10547 -0.082,-0.10547 -0.10547,-0.10547 -0.0234,0 -0.0703,0 -0.17578,0.11719 l -0.82031,1.00781 c -0.42188,-0.71484 -1.07813,-1.125 -1.96875,-1.125 -2.58984,0 -5.26172,2.61329 -5.26172,5.42579 0,1.99218 1.39453,3.23437 3.14063,3.23437 0.96093,0 1.79296,-0.39844 2.48437,-0.98437 1.04297,-0.87891 1.35938,-2.03907 1.35938,-2.13282 0,-0.10547 -0.0937,-0.10547 -0.14063,-0.10547 -0.10547,0 -0.11719,0.0703 -0.14062,0.11719 -0.55079,1.86328 -2.15625,2.76563 -3.35157,2.76563 -1.27734,0 -2.36718,-0.82032 -2.36718,-2.50782 0,-0.38671 0.11718,-2.46093 1.46484,-4.03125 0.65625,-0.76171 1.78125,-1.4414 2.91797,-1.4414 1.3125,0 1.89844,1.08984 1.89844,2.30859 0,0.31641 -0.0352,0.57422 -0.0352,0.6211 0,0.11718 0.11719,0.11718 0.15234,0.11718 0.14063,0 0.15235,-0.0117 0.19922,-0.23437 z m 0,0"
         style="fill:#000000;fill-opacity:1;fill-rule:nonzero;stroke:none" />
      <path
         id="path34"
         d="m 228.80466,405.89136 c 0.11718,-0.45703 0.15234,-0.57422 1.19531,-0.57422 0.32812,0 0.41016,0 0.41016,-0.22266 0,-0.1289 -0.12891,-0.1289 -0.17579,-0.1289 -0.24609,0 -0.51562,0.0234 -0.76171,0.0234 h -1.59375 c -0.23438,0 -0.49219,-0.0234 -0.71485,-0.0234 -0.10547,0 -0.23437,0 -0.23437,0.23437 0,0.11719 0.10547,0.11719 0.29297,0.11719 0.72656,0 0.72656,0.0937 0.72656,0.22266 0,0.0234 0,0.0937 -0.0469,0.28125 l -1.61718,6.43359 c -0.10547,0.41016 -0.12891,0.52734 -0.96094,0.52734 -0.23438,0 -0.35156,0 -0.35156,0.22266 0,0.12891 0.0703,0.12891 0.30468,0.12891 h 5.35547 c 0.26953,0 0.28125,-0.0117 0.36328,-0.22266 l 0.92578,-2.55469 c 0.0234,-0.0586 0.0469,-0.1289 0.0469,-0.16406 0,-0.0703 -0.0586,-0.11719 -0.12891,-0.11719 -0.0117,0 -0.0703,0 -0.0937,0.0469 -0.0234,0.0117 -0.0234,0.0351 -0.11718,0.25781 -0.38672,1.05469 -0.91407,2.40234 -2.94141,2.40234 h -1.14844 c -0.16406,0 -0.1875,0 -0.25781,-0.0117 -0.12891,-0.0117 -0.14063,-0.0352 -0.14063,-0.12891 0,-0.082 0.0234,-0.15234 0.0469,-0.25781 z m 0,0"
         style="fill:#000000;fill-opacity:1;fill-rule:nonzero;stroke:none" />
      <path
         id="path35"
         d="m -139.28714,420.71558 c 0,-0.10547 -0.082,-0.10547 -0.10547,-0.10547 -0.0234,0 -0.0703,0 -0.17578,0.11719 l -0.82031,1.00781 c -0.42188,-0.71484 -1.07813,-1.125 -1.96875,-1.125 -2.58985,0 -5.26172,2.61328 -5.26172,5.42578 0,1.99219 1.39453,3.23438 3.14062,3.23438 0.96094,0 1.79297,-0.39844 2.48438,-0.98438 1.04297,-0.87891 1.35937,-2.03906 1.35937,-2.13281 0,-0.10547 -0.0937,-0.10547 -0.14062,-0.10547 -0.10547,0 -0.11719,0.0703 -0.14063,0.11719 -0.55078,1.86328 -2.15625,2.76562 -3.35156,2.76562 -1.27734,0 -2.36719,-0.82031 -2.36719,-2.50781 0,-0.38672 0.11719,-2.46094 1.46485,-4.03125 0.65625,-0.76172 1.78125,-1.44141 2.91797,-1.44141 1.3125,0 1.89843,1.08985 1.89843,2.3086 0,0.3164 -0.0351,0.57422 -0.0351,0.62109 0,0.11719 0.11718,0.11719 0.15234,0.11719 0.14063,0 0.15234,-0.0117 0.19922,-0.23438 z m 2.18262,7.42969 c -0.10547,0.41015 -0.12891,0.52734 -0.96094,0.52734 -0.23438,0 -0.35156,0 -0.35156,0.22266 0,0.1289 0.0703,0.1289 0.30468,0.1289 h 3.79688 c 2.41406,0 4.76953,-2.49609 4.76953,-5.16797 0,-1.72265 -1.03125,-3 -2.74219,-3 h -3.83203 c -0.23437,0 -0.33984,0 -0.33984,0.23438 0,0.11719 0.10547,0.11719 0.29297,0.11719 0.72656,0 0.72656,0.0937 0.72656,0.22265 0,0.0234 0,0.0937 -0.0469,0.28125 z m 2.51953,-6.46875 c 0.11719,-0.44532 0.16406,-0.46875 0.62109,-0.46875 h 1.32422 c 1.11328,0 2.14453,0.60937 2.14453,2.26171 0,0.59766 -0.23437,2.67188 -1.39453,3.98438 -0.33984,0.39844 -1.24219,1.21875 -2.625,1.21875 h -1.35937 c -0.16407,0 -0.1875,0 -0.25782,-0.0117 -0.1289,-0.0117 -0.14062,-0.0352 -0.14062,-0.12891 0,-0.082 0.0234,-0.15234 0.0469,-0.25781 z m 0,0"
         style="fill:#000000;fill-opacity:1;fill-rule:nonzero;stroke:none" />
      <path
         id="path36"
         d="m -74.570344,427.69995 c -0.410156,0.70313 -0.820312,0.9375 -1.394531,0.97266 -0.128906,0.0117 -0.222656,0.0117 -0.222656,0.23437 0,0.0703 0.05859,0.11719 0.140625,0.11719 0.210937,0 0.75,-0.0234 0.972656,-0.0234 0.339844,0 0.726563,0.0234 1.054688,0.0234 0.07031,0 0.222656,0 0.222656,-0.22265 0,-0.11719 -0.09375,-0.12891 -0.175781,-0.12891 -0.269532,-0.0234 -0.492188,-0.11719 -0.492188,-0.39844 0,-0.17578 0.07031,-0.30469 0.222656,-0.5625 l 0.902344,-1.51172 h 3.058594 c 0.01172,0.10547 0.01172,0.21094 0.02344,0.31641 0.03516,0.30469 0.175782,1.54687 0.175782,1.78125 0,0.35156 -0.609375,0.375 -0.796875,0.375 -0.140625,0 -0.269532,0 -0.269532,0.22266 0,0.1289 0.105469,0.1289 0.175782,0.1289 0.210937,0 0.445312,-0.0234 0.65625,-0.0234 h 0.679687 c 0.726563,0 1.253906,0.0234 1.265625,0.0234 0.08203,0 0.210938,0 0.210938,-0.22265 0,-0.12891 -0.105469,-0.12891 -0.28125,-0.12891 -0.65625,0 -0.667969,-0.10547 -0.714844,-0.45703 l -0.726563,-7.46485 c -0.02344,-0.23437 -0.07031,-0.25781 -0.199218,-0.25781 -0.117188,0 -0.1875,0.0234 -0.304688,0.19922 z m 1.441407,-1.83984 2.402343,-4.01953 0.410157,4.01953 z m 16.157226,-4.125 c 0.105469,-0.41016 0.128906,-0.52734 0.984375,-0.52734 0.222656,0 0.328125,0 0.328125,-0.22266 0,-0.12891 -0.08203,-0.12891 -0.304687,-0.12891 h -1.441407 c -0.292968,0 -0.304687,0.0117 -0.433593,0.21094 l -4.371094,6.89063 -0.890625,-6.83204 c -0.03516,-0.26953 -0.04687,-0.26953 -0.363281,-0.26953 h -1.476563 c -0.234375,0 -0.339844,0 -0.339844,0.23438 0,0.11719 0.105469,0.11719 0.292969,0.11719 0.726563,0 0.726563,0.0937 0.726563,0.22265 0,0.0234 0,0.0937 -0.04687,0.28125 l -1.535157,6.09375 c -0.140625,0.57422 -0.410156,0.83203 -1.21875,0.86719 -0.03516,0 -0.175781,0.0117 -0.175781,0.22266 0,0.1289 0.105469,0.1289 0.152344,0.1289 0.246094,0 0.855469,-0.0234 1.089844,-0.0234 h 0.574218 c 0.164063,0 0.375,0.0234 0.539063,0.0234 0.08203,0 0.210937,0 0.210937,-0.22265 0,-0.11719 -0.117187,-0.12891 -0.164062,-0.12891 -0.398438,-0.0117 -0.773438,-0.082 -0.773438,-0.50391 0,-0.1289 0,-0.14062 0.04687,-0.30468 l 1.652344,-6.58594 h 0.01172 l 0.984375,7.41797 c 0.03516,0.29297 0.04687,0.32812 0.152344,0.32812 0.140625,0 0.199218,-0.0937 0.257812,-0.19922 l 4.804688,-7.60547 h 0.01172 l -1.734375,6.92579 c -0.105468,0.41015 -0.128906,0.52734 -0.972656,0.52734 -0.222656,0 -0.339844,0 -0.339844,0.22266 0,0.1289 0.105469,0.1289 0.175782,0.1289 0.210937,0 0.445312,-0.0234 0.644531,-0.0234 h 1.417969 c 0.199218,0 0.445312,0.0234 0.65625,0.0234 0.09375,0 0.222656,0 0.222656,-0.22265 0,-0.12891 -0.105469,-0.12891 -0.28125,-0.12891 -0.738281,0 -0.738281,-0.0937 -0.738281,-0.21094 0,-0.0117 0,-0.0937 0.02344,-0.1875 z m 0,0"
         style="fill:#000000;fill-opacity:1;fill-rule:nonzero;stroke:none" />
      <path
         id="path37"
         d="m -39.82718,421.67652 c 0.117188,-0.44532 0.164063,-0.46875 0.621094,-0.46875 h 1.558594 c 1.347656,0 1.347656,1.14843 1.347656,1.2539 0,0.97266 -0.960937,2.20313 -2.542969,2.20313 h -1.722656 z m 2.027344,3.08203 c 1.300781,-0.2461 2.484375,-1.14844 2.484375,-2.25 0,-0.92578 -0.832031,-1.65235 -2.179687,-1.65235 h -3.832032 c -0.234375,0 -0.339843,0 -0.339843,0.23438 0,0.11719 0.105468,0.11719 0.292968,0.11719 0.726563,0 0.726563,0.0937 0.726563,0.22265 0,0.0234 0,0.0937 -0.04687,0.28125 l -1.617188,6.4336 c -0.105468,0.41015 -0.128906,0.52734 -0.960937,0.52734 -0.234375,0 -0.351563,0 -0.351563,0.22266 0,0.1289 0.07031,0.1289 0.304688,0.1289 h 4.101562 c 1.828125,0 3.246094,-1.38281 3.246094,-2.58984 0,-0.98438 -0.867187,-1.58203 -1.828125,-1.67578 z m -1.699219,3.91406 h -1.617187 c -0.164063,0 -0.1875,0 -0.257813,-0.0117 -0.128906,-0.0117 -0.152343,-0.0352 -0.152343,-0.12891 0,-0.082 0.03516,-0.15234 0.05859,-0.25781 l 0.832032,-3.375 h 2.25 c 1.40625,0 1.40625,1.3125 1.40625,1.40625 0,1.14844 -1.042969,2.36719 -2.519532,2.36719 z m 9.175782,-6.89063 c 0.117187,-0.45703 0.152343,-0.57421 1.195312,-0.57421 0.328125,0 0.410156,0 0.410156,-0.22266 0,-0.12891 -0.128906,-0.12891 -0.175781,-0.12891 -0.246094,0 -0.515625,0.0234 -0.761719,0.0234 h -1.59375 c -0.234375,0 -0.492187,-0.0234 -0.714843,-0.0234 -0.105469,0 -0.234375,0 -0.234375,0.23438 0,0.11719 0.105468,0.11719 0.292968,0.11719 0.726563,0 0.726563,0.0937 0.726563,0.22265 0,0.0234 0,0.0937 -0.04687,0.28125 l -1.617188,6.4336 c -0.105468,0.41015 -0.128906,0.52734 -0.960937,0.52734 -0.234375,0 -0.351563,0 -0.351563,0.22266 0,0.1289 0.07031,0.1289 0.304688,0.1289 h 5.355469 c 0.269531,0 0.28125,-0.0117 0.363281,-0.22265 l 0.925781,-2.55469 c 0.02344,-0.0586 0.04687,-0.12891 0.04687,-0.16406 0,-0.0703 -0.05859,-0.11719 -0.128906,-0.11719 -0.01172,0 -0.07031,0 -0.09375,0.0469 -0.02344,0.0117 -0.02344,0.0352 -0.117188,0.25782 -0.386718,1.05468 -0.914062,2.40234 -2.941406,2.40234 h -1.148437 c -0.164063,0 -0.1875,0 -0.257813,-0.0117 -0.128906,-0.0117 -0.140625,-0.0352 -0.140625,-0.12891 0,-0.082 0.02344,-0.15234 0.04687,-0.25781 z m 0,0"
         style="fill:#000000;fill-opacity:1;fill-rule:nonzero;stroke:none" />
    </g>
  </g>
</svg>
