<?xml version="1.0" encoding="UTF-8" standalone="no"?>
<!-- Created with Inkscape (http://www.inkscape.org/) -->

<svg
   version="1.1"
   id="svg1"
   width="794.55066"
   height="1123.6533"
   viewBox="0 0 794.55066 1123.6533"
   sodipodi:docname="LigaMatematycznaMatuskiego_Klasa5i6_Zestaw3_2022_2023_page0.pdf"
   xmlns:inkscape="http://www.inkscape.org/namespaces/inkscape"
   xmlns:sodipodi="http://sodipodi.sourceforge.net/DTD/sodipodi-0.dtd"
   xmlns="http://www.w3.org/2000/svg"
   xmlns:svg="http://www.w3.org/2000/svg">
  <defs
     id="defs1" />
  <sodipodi:namedview
     id="namedview1"
     pagecolor="#ffffff"
     bordercolor="#000000"
     borderopacity="0.25"
     inkscape:showpageshadow="2"
     inkscape:pageopacity="0.0"
     inkscape:pagecheckerboard="0"
     inkscape:deskcolor="#d1d1d1">
    <inkscape:page
       x="0"
       y="0"
       inkscape:label="1"
       id="page1"
       width="794.55066"
       height="1123.6533"
       margin="0"
       bleed="0" />
  </sodipodi:namedview>
  <g
     id="g1"
     inkscape:groupmode="layer"
     inkscape:label="1">
    <g
       id="g2"
       aria-label="LIGAMATEMATYCZNA&#10;im.ZdzisªawaMatuskiego&#10;GRUDZIE2022&#10;SZKOAPODSTAWOWA&#10;klasyIV-VI&#10;ZADANIE1.&#10;Znajd¹takietrzycyfry,zktórychmo»nautworzy¢dwaró»netrzycyfrowesze±cianyliczbnatu-&#10;ralnych.Podajsum¦znalezionychcyfr.&#10;ZADANIE2.&#10;Ró»nicacyfrliczbydwucyfrowejjestrówna5.Ró»nicatejliczbyiliczbyutworzonejzniejprzez&#10;przestawieniecyfrjestrówna45.Znajd¹teliczby.&#10;ZADANIE3.&#10;Doprzygotowaniapaczek±wi¡tecznychMikoªaju»yª120mandaryneki180pierników.Wka»dej&#10;paczcejestjednakowaliczbamandarynekijednakowaliczbapierników.Ilemaksymalniepaczek&#10;udaªosi¦przygotowa¢?&#10;ZADANIE4.&#10;PanKowalskimapi¦ciusynów:Adama,Bartka,Czarka,DarkaiEdka.Przygotowaªdlanich&#10;podchoink¦pi¦¢prezentów:albumzezdj¦ciamiwozówpolicyjnych,piªk¦,wózstra»acki,klocki&#10;imisia.Ka»dyzchªopcówotrzymaªjedenprezent.Wiadomo,»e&#10;•najstarszysyndostaªalbum,anajmªodszymisia;&#10;•CzarekjeststarszyodBartka,alemªodszyodEdkainiedostaªklocków;&#10;•Adammaczterechstarszychbraci;&#10;•Bartekdostaªpiªk¦;&#10;•Darekniejestnajstarszy.&#10;Jakiprezentdostaªka»dyzchªopców?&#10;ZADANIE5.&#10;Mikoªajpoªo»yªdziewi¦¢orzechównaplanszy9×9wsposóbprzedstawionynarysunku.&#10;PochwiliAniaprzeªo»yªatrzyorzechynas¡siedniepola(toznaczynapolamaj¡cewspól-&#10;nywierzchoªeklubbok),asze±¢zostaªonaswoichmiejscach.Mimo»etrzyorzechyzmieniªy&#10;miejsce,tonadalwka»dymrz¦dziepoziomymipionowymznajdujesi¦jedenorzech.Poka»&#10;wjakisposóbAniaprzeªo»yªaorzechy."
       transform="matrix(1.3333333,0,0,1.3333333,274.724,56.069333)">
      <path
         id="path2"
         d="m 74.688445,174.03003 c 0.503907,0.16406 0.925782,0.17578 1.054688,0.17578 1.359375,0 2.214844,-0.99609 2.214844,-1.16015 0,-0.0469 -0.02344,-0.10547 -0.09375,-0.10547 -0.02344,0 -0.04687,0 -0.152344,0.0469 -0.667969,0.28125 -1.242188,0.31641 -1.558594,0.31641 -0.785156,0 -1.347656,-0.23438 -1.582031,-0.32813 -0.08203,-0.0351 -0.105469,-0.0351 -0.117188,-0.0351 -0.09375,0 -0.09375,0.0703 -0.09375,0.25781 v 3.55078 c 0,0.21094 0,0.29297 0.140625,0.29297 0.05859,0 0.07031,-0.0117 0.199219,-0.16406 0.328125,-0.49219 0.890625,-0.77344 1.488281,-0.77344 0.632813,0 0.949219,0.58594 1.042969,0.78516 0.199219,0.46875 0.210938,1.05468 0.210938,1.51172 0,0.45703 0,1.13671 -0.328125,1.67578 -0.269532,0.42187 -0.738282,0.72656 -1.253907,0.72656 -0.796875,0 -1.570312,-0.53906 -1.78125,-1.40625 0.05859,0.0234 0.128907,0.0352 0.1875,0.0352 0.199219,0 0.527344,-0.12891 0.527344,-0.52735 0,-0.33984 -0.234375,-0.52734 -0.527344,-0.52734 -0.210937,0 -0.527343,0.10547 -0.527343,0.57422 0,1.00781 0.808593,2.16797 2.144531,2.16797 1.347656,0 2.53125,-1.125 2.53125,-2.64844 0,-1.41797 -0.960938,-2.60156 -2.214844,-2.60156 -0.679687,0 -1.207031,0.29296 -1.511719,0.63281 z m 0,0"
         style="fill:#000000;fill-opacity:1;fill-rule:nonzero;stroke:none" />
      <path
         id="path3"
         d="m 8.0439141,187.53882 c 0,-0.22266 0,-0.29297 -0.1640625,-0.29297 -0.09375,0 -0.1289063,0 -0.2226563,0.15235 l -3.5976562,5.57812 v 0.35156 h 3.140625 v 1.07813 c 0,0.44531 -0.023437,0.5625 -0.9023438,0.5625 h -0.234375 v 0.35156 c 0.2695313,-0.0234 1.21875,-0.0234 1.5585938,-0.0234 0.328125,0 1.2890625,0 1.5585937,0.0234 v -0.35156 h -0.234375 c -0.8671875,0 -0.9023437,-0.11719 -0.9023437,-0.5625 v -1.07813 h 1.2070312 v -0.35156 H 8.0439141 Z m -0.7851563,0.9375 v 4.5 h -2.90625 z m 3.8613282,0 c 0.503906,0.16406 0.925781,0.17578 1.054687,0.17578 1.359375,0 2.214844,-0.99609 2.214844,-1.16015 0,-0.0469 -0.02344,-0.10547 -0.09375,-0.10547 -0.02344,0 -0.04687,0 -0.152344,0.0469 -0.667968,0.28125 -1.242187,0.31641 -1.558593,0.31641 -0.785157,0 -1.347657,-0.23438 -1.582032,-0.32813 -0.08203,-0.0351 -0.105468,-0.0351 -0.117187,-0.0351 -0.09375,0 -0.09375,0.0703 -0.09375,0.25781 v 3.55078 c 0,0.21094 0,0.29297 0.140625,0.29297 0.05859,0 0.07031,-0.0117 0.199219,-0.16406 0.328125,-0.49219 0.890625,-0.77344 1.488281,-0.77344 0.632812,0 0.949219,0.58594 1.042969,0.78516 0.199218,0.46875 0.210937,1.05468 0.210937,1.51171 0,0.45704 0,1.13672 -0.328125,1.67579 -0.269531,0.42187 -0.738281,0.72656 -1.253906,0.72656 -0.796875,0 -1.570313,-0.53906 -1.78125,-1.40625 0.05859,0.0234 0.128906,0.0351 0.1875,0.0351 0.199219,0 0.527344,-0.1289 0.527344,-0.52734 0,-0.33984 -0.234375,-0.52734 -0.527344,-0.52734 -0.210938,0 -0.527344,0.10547 -0.527344,0.57422 0,1.00781 0.808594,2.16796 2.144531,2.16796 1.347657,0 2.53125,-1.125 2.53125,-2.64843 0,-1.41797 -0.960937,-2.60157 -2.214843,-2.60157 -0.679688,0 -1.207032,0.29297 -1.511719,0.63282 z m 0,0"
         style="fill:#000000;fill-opacity:1;fill-rule:nonzero;stroke:none" />
      <path
         id="path4"
         d="m 122.4863,230.71948 c 0,-0.26953 0,-0.28125 -0.2461,-0.28125 -0.28125,0.31641 -0.8789,0.76172 -2.10937,0.76172 v 0.35157 c 0.26953,0 0.86719,0 1.52344,-0.31641 v 6.22266 c 0,0.43359 -0.0352,0.57421 -1.07813,0.57421 h -0.375 v 0.35157 c 0.31641,-0.0234 1.47656,-0.0234 1.875,-0.0234 0.39844,0 1.54688,0 1.86328,0.0234 v -0.35157 h -0.36328 c -1.05469,0 -1.08984,-0.14062 -1.08984,-0.57421 z m 7.66992,5.66016 h -0.26953 c -0.0352,0.19922 -0.12891,0.85547 -0.2461,1.04297 -0.082,0.11719 -0.76171,0.11719 -1.125,0.11719 h -2.21484 c 0.32813,-0.28125 1.05469,-1.04297 1.37109,-1.33594 1.81641,-1.66406 2.48438,-2.28516 2.48438,-3.46875 0,-1.38281 -1.08984,-2.29688 -2.47266,-2.29688 -1.39453,0 -2.20312,1.1836 -2.20312,2.20313 0,0.60937 0.52734,0.60937 0.5625,0.60937 0.24609,0 0.5625,-0.17578 0.5625,-0.5625 0,-0.32812 -0.23438,-0.55078 -0.5625,-0.55078 -0.10547,0 -0.12891,0 -0.16406,0.0117 0.22265,-0.82031 0.86718,-1.37109 1.64062,-1.37109 1.01953,0 1.64063,0.85547 1.64063,1.95703 0,1.00781 -0.58594,1.89844 -1.26563,2.66016 l -2.41406,2.70703 v 0.28125 h 4.35937 z m 5.94433,-1.81641 c 0,-0.99609 -0.0586,-1.96875 -0.49218,-2.87109 -0.49219,-0.99609 -1.34766,-1.25391 -1.9336,-1.25391 -0.6914,0 -1.54687,0.33985 -1.98047,1.33594 -0.33984,0.75 -0.45703,1.48828 -0.45703,2.78906 0,1.16016 0.082,2.02735 0.51563,2.8711 0.45703,0.91406 1.28906,1.19531 1.91015,1.19531 1.04297,0 1.64063,-0.62109 1.98047,-1.3125 0.4336,-0.89062 0.45703,-2.0625 0.45703,-2.75391 z m -2.4375,3.83204 c -0.38671,0 -1.16015,-0.21094 -1.38281,-1.52344 -0.14062,-0.71485 -0.14062,-1.61719 -0.14062,-2.46094 0,-0.97266 0,-1.86328 0.19922,-2.56641 0.19921,-0.79687 0.80859,-1.17187 1.32421,-1.17187 0.45704,0 1.14844,0.28125 1.3711,1.30078 0.15234,0.67969 0.15234,1.62891 0.15234,2.4375 0,0.80859 0,1.71094 -0.1289,2.4375 -0.22266,1.32422 -0.97266,1.54688 -1.39454,1.54688 z m 0,0"
         style="fill:#000000;fill-opacity:1;fill-rule:nonzero;stroke:none" />
      <path
         id="path5"
         d="m 214.85055,230.71948 c 0,-0.26953 0,-0.28125 -0.24609,-0.28125 -0.28125,0.31641 -0.87891,0.76172 -2.10937,0.76172 v 0.35157 c 0.26953,0 0.86718,0 1.52343,-0.31641 v 6.22266 c 0,0.43359 -0.0351,0.57421 -1.07812,0.57421 h -0.375 v 0.35157 c 0.3164,-0.0234 1.47656,-0.0234 1.875,-0.0234 0.39844,0 1.54687,0 1.86328,0.0234 v -0.35157 h -0.36328 c -1.05469,0 -1.08985,-0.14062 -1.08985,-0.57421 z m 5.97071,3.35157 c 0.59765,-0.32813 1.46484,-0.87891 1.46484,-1.875 0,-1.04297 -0.99609,-1.75782 -2.09765,-1.75782 -1.1836,0 -2.1211,0.86719 -2.1211,1.95704 0,0.41015 0.12891,0.80859 0.45703,1.21875 0.12891,0.15234 0.14063,0.16406 0.98438,0.75 -1.16016,0.53906 -1.75781,1.34765 -1.75781,2.21484 0,1.26562 1.20703,2.05078 2.42578,2.05078 1.32422,0 2.4375,-0.97266 2.4375,-2.22656 0,-1.21875 -0.85547,-1.75781 -1.79297,-2.33203 z m -1.62891,-1.07813 c -0.15234,-0.10547 -0.63281,-0.42187 -0.63281,-1.00781 0,-0.77344 0.82031,-1.26563 1.61719,-1.26563 0.85547,0 1.6289,0.6211 1.6289,1.48829 0,0.72656 -0.52734,1.3125 -1.21875,1.6875 z m 0.5625,1.54688 c 0.32813,0.21093 1.125,0.72656 1.45313,0.9375 0.30468,0.19922 0.85547,0.57422 0.85547,1.30078 0,0.91406 -0.91407,1.53515 -1.875,1.53515 -1.01954,0 -1.88672,-0.73828 -1.88672,-1.73437 0,-0.9375 0.67968,-1.6875 1.45312,-2.03906 z m 8.71289,0.0234 c 0,-0.99609 -0.0586,-1.96875 -0.49219,-2.87109 -0.49218,-0.99609 -1.34765,-1.25391 -1.93359,-1.25391 -0.69141,0 -1.54687,0.33985 -1.98047,1.33594 -0.33984,0.75 -0.45703,1.48828 -0.45703,2.78906 0,1.16016 0.082,2.02735 0.51563,2.8711 0.45703,0.91406 1.28906,1.19531 1.91015,1.19531 1.04297,0 1.64063,-0.62109 1.98047,-1.3125 0.43359,-0.89062 0.45703,-2.0625 0.45703,-2.75391 z m -2.4375,3.83204 c -0.38672,0 -1.16015,-0.21094 -1.38281,-1.52344 -0.14063,-0.71485 -0.14063,-1.61719 -0.14063,-2.46094 0,-0.97266 0,-1.86328 0.19922,-2.56641 0.19922,-0.79687 0.8086,-1.17187 1.32422,-1.17187 0.45703,0 1.14844,0.28125 1.3711,1.30078 0.15234,0.67969 0.15234,1.62891 0.15234,2.4375 0,0.80859 0,1.71094 -0.12891,2.4375 -0.22265,1.32422 -0.97265,1.54688 -1.39453,1.54688 z m 0,0"
         style="fill:#000000;fill-opacity:1;fill-rule:nonzero;stroke:none" />
      <path
         id="path6"
         d="m -125.47366,360.65405 c 0,-1.27734 -1.06641,-2.32031 -2.32032,-2.32031 -1.28906,0 -2.33203,1.06641 -2.33203,2.32031 0,1.26563 1.04297,2.32032 2.33203,2.32032 1.25391,0 2.32032,-1.04297 2.32032,-2.32032 z m 0,0"
         style="fill:#000000;fill-opacity:1;fill-rule:nonzero;stroke:none" />
      <path
         id="path7"
         d="m -125.47366,385.06128 c 0,-1.27734 -1.06641,-2.32031 -2.32032,-2.32031 -1.28906,0 -2.33203,1.06641 -2.33203,2.32031 0,1.26563 1.04297,2.32031 2.33203,2.32031 1.25391,0 2.32032,-1.04296 2.32032,-2.32031 z m 0,0"
         style="fill:#000000;fill-opacity:1;fill-rule:nonzero;stroke:none" />
      <path
         id="path8"
         d="m -125.47366,409.47144 c 0,-1.27735 -1.06641,-2.32031 -2.32032,-2.32031 -1.28906,0 -2.33203,1.0664 -2.33203,2.32031 0,1.26562 1.04297,2.32031 2.33203,2.32031 1.25391,0 2.32032,-1.04297 2.32032,-2.32031 z m 0,0"
         style="fill:#000000;fill-opacity:1;fill-rule:nonzero;stroke:none" />
      <path
         id="path9"
         d="m -125.47366,433.87866 c 0,-1.27734 -1.06641,-2.32031 -2.32032,-2.32031 -1.28906,0 -2.33203,1.06641 -2.33203,2.32031 0,1.26563 1.04297,2.32032 2.33203,2.32032 1.25391,0 2.32032,-1.04297 2.32032,-2.32032 z m 0,0"
         style="fill:#000000;fill-opacity:1;fill-rule:nonzero;stroke:none" />
      <path
         id="path10"
         d="m -125.47366,458.28882 c 0,-1.27734 -1.06641,-2.32031 -2.32032,-2.32031 -1.28906,0 -2.33203,1.0664 -2.33203,2.32031 0,1.26563 1.04297,2.32031 2.33203,2.32031 1.25391,0 2.32032,-1.04297 2.32032,-2.32031 z m 0,0"
         style="fill:#000000;fill-opacity:1;fill-rule:nonzero;stroke:none" />
      <path
         id="path11"
         d="m 107.7529,525.26734 c 0,2.82421 -1.25391,3.41015 -1.96875,3.41015 -0.28125,0 -0.92578,-0.0352 -1.21875,-0.45703 h 0.0703 c 0.082,0.0234 0.51563,-0.0469 0.51563,-0.49219 0,-0.25781 -0.17579,-0.49218 -0.49219,-0.49218 -0.30469,0 -0.50391,0.21093 -0.50391,0.51562 0,0.75 0.59766,1.24219 1.64063,1.24219 1.5,0 2.9414,-1.58203 2.9414,-4.1836 0,-3.21093 -1.33593,-4.00781 -2.39062,-4.00781 -1.3125,0 -2.47266,1.10156 -2.47266,2.67188 0,1.58203 1.11328,2.66015 2.3086,2.66015 0.8789,0 1.33593,-0.64453 1.57031,-1.2539 z m -1.52344,0.62109 c -0.75,0 -1.07812,-0.60938 -1.18359,-0.83203 -0.19922,-0.45703 -0.19922,-1.03125 -0.19922,-1.57031 0,-0.66797 0,-1.24219 0.3164,-1.73438 0.21094,-0.31641 0.53907,-0.66797 1.1836,-0.66797 0.67969,0 1.03125,0.59766 1.14844,0.87891 0.23437,0.58594 0.23437,1.59375 0.23437,1.78125 0,0.99609 -0.44531,2.14453 -1.5,2.14453 z m 0,0"
         style="fill:#000000;fill-opacity:1;fill-rule:nonzero;stroke:none" />
      <path
         id="path12"
         d="m 118.22653,525.75952 2.37891,-2.39062 c 0.14062,-0.12891 0.16406,-0.15235 0.16406,-0.2461 0,-0.14062 -0.11719,-0.24609 -0.24609,-0.24609 -0.0937,0 -0.14063,0.0469 -0.2461,0.15234 l -2.39062,2.39063 -2.40235,-2.39063 c -0.1289,-0.1289 -0.15234,-0.15234 -0.25781,-0.15234 -0.11719,0 -0.23437,0.10547 -0.23437,0.24609 0,0.0937 0.0469,0.14063 0.15234,0.2461 l 2.37891,2.39062 -2.37891,2.37891 c -0.11719,0.11719 -0.15234,0.1875 -0.15234,0.25781 0,0.14063 0.11718,0.2461 0.23437,0.2461 0.10547,0 0.12891,-0.0234 0.25781,-0.15235 l 2.39063,-2.39062 2.39062,2.39062 c 0.11719,0.11719 0.1875,0.15235 0.25782,0.15235 0.14062,0 0.24609,-0.10547 0.24609,-0.2461 0,-0.0937 -0.0234,-0.11719 -0.16406,-0.24609 z m 0,0"
         style="fill:#000000;fill-opacity:1;fill-rule:nonzero;stroke:none" />
      <path
         id="path13"
         d="m 130.90622,525.26734 c 0,2.82421 -1.25391,3.41015 -1.96875,3.41015 -0.28125,0 -0.92578,-0.0352 -1.21875,-0.45703 h 0.0703 c 0.082,0.0234 0.51563,-0.0469 0.51563,-0.49219 0,-0.25781 -0.17578,-0.49218 -0.49219,-0.49218 -0.30469,0 -0.50391,0.21093 -0.50391,0.51562 0,0.75 0.59766,1.24219 1.64063,1.24219 1.5,0 2.9414,-1.58203 2.9414,-4.1836 0,-3.21093 -1.33593,-4.00781 -2.39062,-4.00781 -1.3125,0 -2.47266,1.10156 -2.47266,2.67188 0,1.58203 1.11328,2.66015 2.3086,2.66015 0.8789,0 1.33593,-0.64453 1.57031,-1.2539 z m -1.52344,0.62109 c -0.75,0 -1.07812,-0.60938 -1.18359,-0.83203 -0.19922,-0.45703 -0.19922,-1.03125 -0.19922,-1.57031 0,-0.66797 0,-1.24219 0.31641,-1.73438 0.21093,-0.31641 0.53906,-0.66797 1.18359,-0.66797 0.67969,0 1.03125,0.59766 1.14844,0.87891 0.23437,0.58594 0.23437,1.59375 0.23437,1.78125 0,0.99609 -0.44531,2.14453 -1.5,2.14453 z m 0,0"
         style="fill:#000000;fill-opacity:1;fill-rule:nonzero;stroke:none" />
    </g>
    <path
       id="path14"
       d="M 0,0 H 161.395"
       style="fill:none;stroke:#000000;stroke-width:0.398;stroke-linecap:butt;stroke-linejoin:miter;stroke-miterlimit:10;stroke-dasharray:none;stroke-opacity:1"
       transform="matrix(1.3333333,0,0,-1.3333333,290.76533,871.412)" />
    <path
       id="path15"
       d="M 0,0 V 14.446"
       style="fill:none;stroke:#000000;stroke-width:0.398;stroke-linecap:butt;stroke-linejoin:miter;stroke-miterlimit:10;stroke-dasharray:none;stroke-opacity:1"
       transform="matrix(1.3333333,0,0,-1.3333333,290.76533,890.93867)" />
    <path
       id="path16"
       d="M 0,0 V 14.446"
       style="fill:none;stroke:#000000;stroke-width:0.398;stroke-linecap:butt;stroke-linejoin:miter;stroke-miterlimit:10;stroke-dasharray:none;stroke-opacity:1"
       transform="matrix(1.3333333,0,0,-1.3333333,314.676,890.93867)" />
    <path
       id="path17"
       d="M 0,0 V 14.446"
       style="fill:none;stroke:#000000;stroke-width:0.398;stroke-linecap:butt;stroke-linejoin:miter;stroke-miterlimit:10;stroke-dasharray:none;stroke-opacity:1"
       transform="matrix(1.3333333,0,0,-1.3333333,338.58667,890.93867)" />
    <path
       id="path18"
       d="M 0,0 V 14.446"
       style="fill:none;stroke:#000000;stroke-width:0.398;stroke-linecap:butt;stroke-linejoin:miter;stroke-miterlimit:10;stroke-dasharray:none;stroke-opacity:1"
       transform="matrix(1.3333333,0,0,-1.3333333,362.49733,890.93867)" />
    <path
       id="path19"
       d="M 0,0 V 14.446"
       style="fill:none;stroke:#000000;stroke-width:0.398;stroke-linecap:butt;stroke-linejoin:miter;stroke-miterlimit:10;stroke-dasharray:none;stroke-opacity:1"
       transform="matrix(1.3333333,0,0,-1.3333333,386.40667,890.93867)" />
    <path
       id="path20"
       d="m 5.2980547,-2.9881641 c 0,-1.2773437 -1.0546875,-2.3203125 -2.3085938,-2.3203125 -1.3007812,0 -2.32031246,1.0664063 -2.32031246,2.3203125 0,1.2773438 1.05468746,2.32031254 2.30859376,2.32031254 1.3007812,0 2.3203125,-1.06640624 2.3203125,-2.32031254 z m 0,0"
       style="fill:#000000;fill-opacity:1;fill-rule:nonzero;stroke:none"
       aria-label="•"
       transform="matrix(1.3333333,0,0,1.3333333,394.37733,885.16)" />
    <path
       id="path21"
       d="M 0,0 V 14.446"
       style="fill:none;stroke:#000000;stroke-width:0.398;stroke-linecap:butt;stroke-linejoin:miter;stroke-miterlimit:10;stroke-dasharray:none;stroke-opacity:1"
       transform="matrix(1.3333333,0,0,-1.3333333,410.31733,890.93867)" />
    <path
       id="path22"
       d="M 0,0 V 14.446"
       style="fill:none;stroke:#000000;stroke-width:0.398;stroke-linecap:butt;stroke-linejoin:miter;stroke-miterlimit:10;stroke-dasharray:none;stroke-opacity:1"
       transform="matrix(1.3333333,0,0,-1.3333333,434.228,890.93867)" />
    <path
       id="path23"
       d="M 0,0 V 14.446"
       style="fill:none;stroke:#000000;stroke-width:0.398;stroke-linecap:butt;stroke-linejoin:miter;stroke-miterlimit:10;stroke-dasharray:none;stroke-opacity:1"
       transform="matrix(1.3333333,0,0,-1.3333333,458.13867,890.93867)" />
    <path
       id="path24"
       d="M 0,0 V 14.446"
       style="fill:none;stroke:#000000;stroke-width:0.398;stroke-linecap:butt;stroke-linejoin:miter;stroke-miterlimit:10;stroke-dasharray:none;stroke-opacity:1"
       transform="matrix(1.3333333,0,0,-1.3333333,482.048,890.93867)" />
    <path
       id="path25"
       d="M 0,0 V 14.446"
       style="fill:none;stroke:#000000;stroke-width:0.398;stroke-linecap:butt;stroke-linejoin:miter;stroke-miterlimit:10;stroke-dasharray:none;stroke-opacity:1"
       transform="matrix(1.3333333,0,0,-1.3333333,505.95867,890.93867)" />
    <path
       id="path26"
       d="M 0,0 H 161.395"
       style="fill:none;stroke:#000000;stroke-width:0.398;stroke-linecap:butt;stroke-linejoin:miter;stroke-miterlimit:10;stroke-dasharray:none;stroke-opacity:1"
       transform="matrix(1.3333333,0,0,-1.3333333,290.76533,891.204)" />
    <path
       id="path27"
       d="M 0,0 V 14.446"
       style="fill:none;stroke:#000000;stroke-width:0.398;stroke-linecap:butt;stroke-linejoin:miter;stroke-miterlimit:10;stroke-dasharray:none;stroke-opacity:1"
       transform="matrix(1.3333333,0,0,-1.3333333,290.76533,910.732)" />
    <path
       id="path28"
       d="M 0,0 V 14.446"
       style="fill:none;stroke:#000000;stroke-width:0.398;stroke-linecap:butt;stroke-linejoin:miter;stroke-miterlimit:10;stroke-dasharray:none;stroke-opacity:1"
       transform="matrix(1.3333333,0,0,-1.3333333,314.676,910.732)" />
    <path
       id="path29"
       d="M 0,0 V 14.446"
       style="fill:none;stroke:#000000;stroke-width:0.398;stroke-linecap:butt;stroke-linejoin:miter;stroke-miterlimit:10;stroke-dasharray:none;stroke-opacity:1"
       transform="matrix(1.3333333,0,0,-1.3333333,338.58667,910.732)" />
    <path
       id="path30"
       d="m 5.2958906,-2.9884375 c 0,-1.2773437 -1.0546875,-2.3203125 -2.3085937,-2.3203125 -1.3007813,0 -2.32031252,1.0664063 -2.32031252,2.3203125 0,1.2773438 1.05468752,2.3203125 2.30859372,2.3203125 1.3007813,0 2.3203125,-1.0664062 2.3203125,-2.3203125 z m 0,0"
       style="fill:#000000;fill-opacity:1;fill-rule:nonzero;stroke:none"
       aria-label="•"
       transform="matrix(1.3333333,0,0,1.3333333,346.556,904.95333)" />
    <path
       id="path31"
       d="M 0,0 V 14.446"
       style="fill:none;stroke:#000000;stroke-width:0.398;stroke-linecap:butt;stroke-linejoin:miter;stroke-miterlimit:10;stroke-dasharray:none;stroke-opacity:1"
       transform="matrix(1.3333333,0,0,-1.3333333,362.49733,910.732)" />
    <path
       id="path32"
       d="M 0,0 V 14.446"
       style="fill:none;stroke:#000000;stroke-width:0.398;stroke-linecap:butt;stroke-linejoin:miter;stroke-miterlimit:10;stroke-dasharray:none;stroke-opacity:1"
       transform="matrix(1.3333333,0,0,-1.3333333,386.40667,910.732)" />
    <path
       id="path33"
       d="M 0,0 V 14.446"
       style="fill:none;stroke:#000000;stroke-width:0.398;stroke-linecap:butt;stroke-linejoin:miter;stroke-miterlimit:10;stroke-dasharray:none;stroke-opacity:1"
       transform="matrix(1.3333333,0,0,-1.3333333,410.31733,910.732)" />
    <path
       id="path34"
       d="M 0,0 V 14.446"
       style="fill:none;stroke:#000000;stroke-width:0.398;stroke-linecap:butt;stroke-linejoin:miter;stroke-miterlimit:10;stroke-dasharray:none;stroke-opacity:1"
       transform="matrix(1.3333333,0,0,-1.3333333,434.228,910.732)" />
    <path
       id="path35"
       d="M 0,0 V 14.446"
       style="fill:none;stroke:#000000;stroke-width:0.398;stroke-linecap:butt;stroke-linejoin:miter;stroke-miterlimit:10;stroke-dasharray:none;stroke-opacity:1"
       transform="matrix(1.3333333,0,0,-1.3333333,458.13867,910.732)" />
    <path
       id="path36"
       d="M 0,0 V 14.446"
       style="fill:none;stroke:#000000;stroke-width:0.398;stroke-linecap:butt;stroke-linejoin:miter;stroke-miterlimit:10;stroke-dasharray:none;stroke-opacity:1"
       transform="matrix(1.3333333,0,0,-1.3333333,482.048,910.732)" />
    <path
       id="path37"
       d="M 0,0 V 14.446"
       style="fill:none;stroke:#000000;stroke-width:0.398;stroke-linecap:butt;stroke-linejoin:miter;stroke-miterlimit:10;stroke-dasharray:none;stroke-opacity:1"
       transform="matrix(1.3333333,0,0,-1.3333333,505.95867,910.732)" />
    <path
       id="path38"
       d="M 0,0 H 161.395"
       style="fill:none;stroke:#000000;stroke-width:0.398;stroke-linecap:butt;stroke-linejoin:miter;stroke-miterlimit:10;stroke-dasharray:none;stroke-opacity:1"
       transform="matrix(1.3333333,0,0,-1.3333333,290.76533,910.99733)" />
    <path
       id="path39"
       d="M 0,0 V 14.446"
       style="fill:none;stroke:#000000;stroke-width:0.398;stroke-linecap:butt;stroke-linejoin:miter;stroke-miterlimit:10;stroke-dasharray:none;stroke-opacity:1"
       transform="matrix(1.3333333,0,0,-1.3333333,290.76533,930.524)" />
    <path
       id="path40"
       d="M 0,0 V 14.446"
       style="fill:none;stroke:#000000;stroke-width:0.398;stroke-linecap:butt;stroke-linejoin:miter;stroke-miterlimit:10;stroke-dasharray:none;stroke-opacity:1"
       transform="matrix(1.3333333,0,0,-1.3333333,314.676,930.524)" />
    <path
       id="path41"
       d="M 0,0 V 14.446"
       style="fill:none;stroke:#000000;stroke-width:0.398;stroke-linecap:butt;stroke-linejoin:miter;stroke-miterlimit:10;stroke-dasharray:none;stroke-opacity:1"
       transform="matrix(1.3333333,0,0,-1.3333333,338.58667,930.524)" />
    <path
       id="path42"
       d="M 0,0 V 14.446"
       style="fill:none;stroke:#000000;stroke-width:0.398;stroke-linecap:butt;stroke-linejoin:miter;stroke-miterlimit:10;stroke-dasharray:none;stroke-opacity:1"
       transform="matrix(1.3333333,0,0,-1.3333333,362.49733,930.524)" />
    <path
       id="path43"
       d="M 0,0 V 14.446"
       style="fill:none;stroke:#000000;stroke-width:0.398;stroke-linecap:butt;stroke-linejoin:miter;stroke-miterlimit:10;stroke-dasharray:none;stroke-opacity:1"
       transform="matrix(1.3333333,0,0,-1.3333333,386.40667,930.524)" />
    <path
       id="path44"
       d="M 0,0 V 14.446"
       style="fill:none;stroke:#000000;stroke-width:0.398;stroke-linecap:butt;stroke-linejoin:miter;stroke-miterlimit:10;stroke-dasharray:none;stroke-opacity:1"
       transform="matrix(1.3333333,0,0,-1.3333333,410.31733,930.524)" />
    <path
       id="path45"
       d="M 0,0 V 14.446"
       style="fill:none;stroke:#000000;stroke-width:0.398;stroke-linecap:butt;stroke-linejoin:miter;stroke-miterlimit:10;stroke-dasharray:none;stroke-opacity:1"
       transform="matrix(1.3333333,0,0,-1.3333333,434.228,930.524)" />
    <path
       id="path46"
       d="M 0,0 V 14.446"
       style="fill:none;stroke:#000000;stroke-width:0.398;stroke-linecap:butt;stroke-linejoin:miter;stroke-miterlimit:10;stroke-dasharray:none;stroke-opacity:1"
       transform="matrix(1.3333333,0,0,-1.3333333,458.13867,930.524)" />
    <path
       id="path47"
       d="m 5.2979063,-2.9877109 c 0,-1.2773438 -1.0546875,-2.3203125 -2.3085938,-2.3203125 -1.3007812,0 -2.3203125,1.0664062 -2.3203125,2.3203125 0,1.2773437 1.0546875,2.32031246 2.3085938,2.32031246 1.3007812,0 2.3203125,-1.06640626 2.3203125,-2.32031246 z m 0,0"
       style="fill:#000000;fill-opacity:1;fill-rule:nonzero;stroke:none"
       aria-label="•"
       transform="matrix(1.3333333,0,0,1.3333333,466.108,924.74533)" />
    <path
       id="path48"
       d="M 0,0 V 14.446"
       style="fill:none;stroke:#000000;stroke-width:0.398;stroke-linecap:butt;stroke-linejoin:miter;stroke-miterlimit:10;stroke-dasharray:none;stroke-opacity:1"
       transform="matrix(1.3333333,0,0,-1.3333333,482.048,930.524)" />
    <path
       id="path49"
       d="M 0,0 V 14.446"
       style="fill:none;stroke:#000000;stroke-width:0.398;stroke-linecap:butt;stroke-linejoin:miter;stroke-miterlimit:10;stroke-dasharray:none;stroke-opacity:1"
       transform="matrix(1.3333333,0,0,-1.3333333,505.95867,930.524)" />
    <path
       id="path50"
       d="M 0,0 H 161.395"
       style="fill:none;stroke:#000000;stroke-width:0.398;stroke-linecap:butt;stroke-linejoin:miter;stroke-miterlimit:10;stroke-dasharray:none;stroke-opacity:1"
       transform="matrix(1.3333333,0,0,-1.3333333,290.76533,930.78933)" />
    <path
       id="path51"
       d="M 0,0 V 14.446"
       style="fill:none;stroke:#000000;stroke-width:0.398;stroke-linecap:butt;stroke-linejoin:miter;stroke-miterlimit:10;stroke-dasharray:none;stroke-opacity:1"
       transform="matrix(1.3333333,0,0,-1.3333333,290.76533,950.316)" />
    <path
       id="path52"
       d="M 0,0 V 14.446"
       style="fill:none;stroke:#000000;stroke-width:0.398;stroke-linecap:butt;stroke-linejoin:miter;stroke-miterlimit:10;stroke-dasharray:none;stroke-opacity:1"
       transform="matrix(1.3333333,0,0,-1.3333333,314.676,950.316)" />
    <path
       id="path53"
       d="M 0,0 V 14.446"
       style="fill:none;stroke:#000000;stroke-width:0.398;stroke-linecap:butt;stroke-linejoin:miter;stroke-miterlimit:10;stroke-dasharray:none;stroke-opacity:1"
       transform="matrix(1.3333333,0,0,-1.3333333,338.58667,950.316)" />
    <path
       id="path54"
       d="M 0,0 V 14.446"
       style="fill:none;stroke:#000000;stroke-width:0.398;stroke-linecap:butt;stroke-linejoin:miter;stroke-miterlimit:10;stroke-dasharray:none;stroke-opacity:1"
       transform="matrix(1.3333333,0,0,-1.3333333,362.49733,950.316)" />
    <path
       id="path55"
       d="M 0,0 V 14.446"
       style="fill:none;stroke:#000000;stroke-width:0.398;stroke-linecap:butt;stroke-linejoin:miter;stroke-miterlimit:10;stroke-dasharray:none;stroke-opacity:1"
       transform="matrix(1.3333333,0,0,-1.3333333,386.40667,950.316)" />
    <path
       id="path56"
       d="M 0,0 V 14.446"
       style="fill:none;stroke:#000000;stroke-width:0.398;stroke-linecap:butt;stroke-linejoin:miter;stroke-miterlimit:10;stroke-dasharray:none;stroke-opacity:1"
       transform="matrix(1.3333333,0,0,-1.3333333,410.31733,950.316)" />
    <path
       id="path57"
       d="m 5.2976719,-2.9869844 c 0,-1.2773437 -1.0546875,-2.3203125 -2.3085938,-2.3203125 -1.3007812,0 -2.32031247,1.0664063 -2.32031247,2.3203125 0,1.2773438 1.05468747,2.32031253 2.30859377,2.32031253 1.3007812,0 2.3203125,-1.06640623 2.3203125,-2.32031253 z m 0,0"
       style="fill:#000000;fill-opacity:1;fill-rule:nonzero;stroke:none"
       aria-label="•"
       transform="matrix(1.3333333,0,0,1.3333333,418.288,944.53733)" />
    <path
       id="path58"
       d="M 0,0 V 14.446"
       style="fill:none;stroke:#000000;stroke-width:0.398;stroke-linecap:butt;stroke-linejoin:miter;stroke-miterlimit:10;stroke-dasharray:none;stroke-opacity:1"
       transform="matrix(1.3333333,0,0,-1.3333333,434.228,950.316)" />
    <path
       id="path59"
       d="M 0,0 V 14.446"
       style="fill:none;stroke:#000000;stroke-width:0.398;stroke-linecap:butt;stroke-linejoin:miter;stroke-miterlimit:10;stroke-dasharray:none;stroke-opacity:1"
       transform="matrix(1.3333333,0,0,-1.3333333,458.13867,950.316)" />
    <path
       id="path60"
       d="M 0,0 V 14.446"
       style="fill:none;stroke:#000000;stroke-width:0.398;stroke-linecap:butt;stroke-linejoin:miter;stroke-miterlimit:10;stroke-dasharray:none;stroke-opacity:1"
       transform="matrix(1.3333333,0,0,-1.3333333,482.048,950.316)" />
    <path
       id="path61"
       d="M 0,0 V 14.446"
       style="fill:none;stroke:#000000;stroke-width:0.398;stroke-linecap:butt;stroke-linejoin:miter;stroke-miterlimit:10;stroke-dasharray:none;stroke-opacity:1"
       transform="matrix(1.3333333,0,0,-1.3333333,505.95867,950.316)" />
    <path
       id="path62"
       d="M 0,0 H 161.395"
       style="fill:none;stroke:#000000;stroke-width:0.398;stroke-linecap:butt;stroke-linejoin:miter;stroke-miterlimit:10;stroke-dasharray:none;stroke-opacity:1"
       transform="matrix(1.3333333,0,0,-1.3333333,290.76533,950.58133)" />
    <path
       id="path63"
       d="M 0,0 V 14.446"
       style="fill:none;stroke:#000000;stroke-width:0.398;stroke-linecap:butt;stroke-linejoin:miter;stroke-miterlimit:10;stroke-dasharray:none;stroke-opacity:1"
       transform="matrix(1.3333333,0,0,-1.3333333,290.76533,970.108)" />
    <path
       id="path64"
       d="M 0,0 V 14.446"
       style="fill:none;stroke:#000000;stroke-width:0.398;stroke-linecap:butt;stroke-linejoin:miter;stroke-miterlimit:10;stroke-dasharray:none;stroke-opacity:1"
       transform="matrix(1.3333333,0,0,-1.3333333,314.676,970.108)" />
    <path
       id="path65"
       d="m 5.2982031,-2.9872578 c 0,-1.2773438 -1.0546875,-2.3203125 -2.3085937,-2.3203125 -1.3007813,0 -2.32031252,1.0664062 -2.32031252,2.3203125 0,1.2773437 1.05468752,2.32031249 2.30859372,2.32031249 1.3007813,0 2.3203125,-1.06640629 2.3203125,-2.32031249 z m 0,0"
       style="fill:#000000;fill-opacity:1;fill-rule:nonzero;stroke:none"
       aria-label="•"
       transform="matrix(1.3333333,0,0,1.3333333,322.64667,964.33067)" />
    <path
       id="path66"
       d="M 0,0 V 14.446"
       style="fill:none;stroke:#000000;stroke-width:0.398;stroke-linecap:butt;stroke-linejoin:miter;stroke-miterlimit:10;stroke-dasharray:none;stroke-opacity:1"
       transform="matrix(1.3333333,0,0,-1.3333333,338.58667,970.108)" />
    <path
       id="path67"
       d="M 0,0 V 14.446"
       style="fill:none;stroke:#000000;stroke-width:0.398;stroke-linecap:butt;stroke-linejoin:miter;stroke-miterlimit:10;stroke-dasharray:none;stroke-opacity:1"
       transform="matrix(1.3333333,0,0,-1.3333333,362.49733,970.108)" />
    <path
       id="path68"
       d="M 0,0 V 14.446"
       style="fill:none;stroke:#000000;stroke-width:0.398;stroke-linecap:butt;stroke-linejoin:miter;stroke-miterlimit:10;stroke-dasharray:none;stroke-opacity:1"
       transform="matrix(1.3333333,0,0,-1.3333333,386.40667,970.108)" />
    <path
       id="path69"
       d="M 0,0 V 14.446"
       style="fill:none;stroke:#000000;stroke-width:0.398;stroke-linecap:butt;stroke-linejoin:miter;stroke-miterlimit:10;stroke-dasharray:none;stroke-opacity:1"
       transform="matrix(1.3333333,0,0,-1.3333333,410.31733,970.108)" />
    <path
       id="path70"
       d="M 0,0 V 14.446"
       style="fill:none;stroke:#000000;stroke-width:0.398;stroke-linecap:butt;stroke-linejoin:miter;stroke-miterlimit:10;stroke-dasharray:none;stroke-opacity:1"
       transform="matrix(1.3333333,0,0,-1.3333333,434.228,970.108)" />
    <path
       id="path71"
       d="M 0,0 V 14.446"
       style="fill:none;stroke:#000000;stroke-width:0.398;stroke-linecap:butt;stroke-linejoin:miter;stroke-miterlimit:10;stroke-dasharray:none;stroke-opacity:1"
       transform="matrix(1.3333333,0,0,-1.3333333,458.13867,970.108)" />
    <path
       id="path72"
       d="M 0,0 V 14.446"
       style="fill:none;stroke:#000000;stroke-width:0.398;stroke-linecap:butt;stroke-linejoin:miter;stroke-miterlimit:10;stroke-dasharray:none;stroke-opacity:1"
       transform="matrix(1.3333333,0,0,-1.3333333,482.048,970.108)" />
    <path
       id="path73"
       d="M 0,0 V 14.446"
       style="fill:none;stroke:#000000;stroke-width:0.398;stroke-linecap:butt;stroke-linejoin:miter;stroke-miterlimit:10;stroke-dasharray:none;stroke-opacity:1"
       transform="matrix(1.3333333,0,0,-1.3333333,505.95867,970.108)" />
    <path
       id="path74"
       d="M 0,0 H 161.395"
       style="fill:none;stroke:#000000;stroke-width:0.398;stroke-linecap:butt;stroke-linejoin:miter;stroke-miterlimit:10;stroke-dasharray:none;stroke-opacity:1"
       transform="matrix(1.3333333,0,0,-1.3333333,290.76533,970.37467)" />
    <path
       id="path75"
       d="M 0,0 V 14.446"
       style="fill:none;stroke:#000000;stroke-width:0.398;stroke-linecap:butt;stroke-linejoin:miter;stroke-miterlimit:10;stroke-dasharray:none;stroke-opacity:1"
       transform="matrix(1.3333333,0,0,-1.3333333,290.76533,989.90133)" />
    <path
       id="path76"
       d="M 0,0 V 14.446"
       style="fill:none;stroke:#000000;stroke-width:0.398;stroke-linecap:butt;stroke-linejoin:miter;stroke-miterlimit:10;stroke-dasharray:none;stroke-opacity:1"
       transform="matrix(1.3333333,0,0,-1.3333333,314.676,989.90133)" />
    <path
       id="path77"
       d="M 0,0 V 14.446"
       style="fill:none;stroke:#000000;stroke-width:0.398;stroke-linecap:butt;stroke-linejoin:miter;stroke-miterlimit:10;stroke-dasharray:none;stroke-opacity:1"
       transform="matrix(1.3333333,0,0,-1.3333333,338.58667,989.90133)" />
    <path
       id="path78"
       d="M 0,0 V 14.446"
       style="fill:none;stroke:#000000;stroke-width:0.398;stroke-linecap:butt;stroke-linejoin:miter;stroke-miterlimit:10;stroke-dasharray:none;stroke-opacity:1"
       transform="matrix(1.3333333,0,0,-1.3333333,362.49733,989.90133)" />
    <path
       id="path79"
       d="M 0,0 V 14.446"
       style="fill:none;stroke:#000000;stroke-width:0.398;stroke-linecap:butt;stroke-linejoin:miter;stroke-miterlimit:10;stroke-dasharray:none;stroke-opacity:1"
       transform="matrix(1.3333333,0,0,-1.3333333,386.40667,989.90133)" />
    <path
       id="path80"
       d="M 0,0 V 14.446"
       style="fill:none;stroke:#000000;stroke-width:0.398;stroke-linecap:butt;stroke-linejoin:miter;stroke-miterlimit:10;stroke-dasharray:none;stroke-opacity:1"
       transform="matrix(1.3333333,0,0,-1.3333333,410.31733,989.90133)" />
    <path
       id="path81"
       d="M 0,0 V 14.446"
       style="fill:none;stroke:#000000;stroke-width:0.398;stroke-linecap:butt;stroke-linejoin:miter;stroke-miterlimit:10;stroke-dasharray:none;stroke-opacity:1"
       transform="matrix(1.3333333,0,0,-1.3333333,434.228,989.90133)" />
    <path
       id="path82"
       d="M 0,0 V 14.446"
       style="fill:none;stroke:#000000;stroke-width:0.398;stroke-linecap:butt;stroke-linejoin:miter;stroke-miterlimit:10;stroke-dasharray:none;stroke-opacity:1"
       transform="matrix(1.3333333,0,0,-1.3333333,458.13867,989.90133)" />
    <path
       id="path83"
       d="M 0,0 V 14.446"
       style="fill:none;stroke:#000000;stroke-width:0.398;stroke-linecap:butt;stroke-linejoin:miter;stroke-miterlimit:10;stroke-dasharray:none;stroke-opacity:1"
       transform="matrix(1.3333333,0,0,-1.3333333,482.048,989.90133)" />
    <path
       id="path84"
       d="m 5.2975234,-2.9894609 c 0,-1.2773438 -1.0546875,-2.3203125 -2.3085937,-2.3203125 -1.3007813,0 -2.32031251,1.0664062 -2.32031251,2.3203125 0,1.2773437 1.05468751,2.32031246 2.30859371,2.32031246 1.3007813,0 2.3203125,-1.06640626 2.3203125,-2.32031246 z m 0,0"
       style="fill:#000000;fill-opacity:1;fill-rule:nonzero;stroke:none"
       aria-label="•"
       transform="matrix(1.3333333,0,0,1.3333333,490.01867,984.12267)" />
    <path
       id="path85"
       d="M 0,0 V 14.446"
       style="fill:none;stroke:#000000;stroke-width:0.398;stroke-linecap:butt;stroke-linejoin:miter;stroke-miterlimit:10;stroke-dasharray:none;stroke-opacity:1"
       transform="matrix(1.3333333,0,0,-1.3333333,505.95867,989.90133)" />
    <path
       id="path86"
       d="M 0,0 H 161.395"
       style="fill:none;stroke:#000000;stroke-width:0.398;stroke-linecap:butt;stroke-linejoin:miter;stroke-miterlimit:10;stroke-dasharray:none;stroke-opacity:1"
       transform="matrix(1.3333333,0,0,-1.3333333,290.76533,990.16667)" />
    <path
       id="path87"
       d="M 0,0 V 14.446"
       style="fill:none;stroke:#000000;stroke-width:0.398;stroke-linecap:butt;stroke-linejoin:miter;stroke-miterlimit:10;stroke-dasharray:none;stroke-opacity:1"
       transform="matrix(1.3333333,0,0,-1.3333333,290.76533,1009.6933)" />
    <path
       id="path88"
       d="m 5.2956563,-2.9887344 c 0,-1.2773437 -1.0546875,-2.3203125 -2.3085938,-2.3203125 -1.3007812,0 -2.3203125,1.0664063 -2.3203125,2.3203125 0,1.2773438 1.0546875,2.32031253 2.3085938,2.32031253 1.3007812,0 2.3203125,-1.06640623 2.3203125,-2.32031253 z m 0,0"
       style="fill:#000000;fill-opacity:1;fill-rule:nonzero;stroke:none"
       aria-label="•"
       transform="matrix(1.3333333,0,0,1.3333333,298.736,1003.9147)" />
    <path
       id="path89"
       d="M 0,0 V 14.446"
       style="fill:none;stroke:#000000;stroke-width:0.398;stroke-linecap:butt;stroke-linejoin:miter;stroke-miterlimit:10;stroke-dasharray:none;stroke-opacity:1"
       transform="matrix(1.3333333,0,0,-1.3333333,314.676,1009.6933)" />
    <path
       id="path90"
       d="M 0,0 V 14.446"
       style="fill:none;stroke:#000000;stroke-width:0.398;stroke-linecap:butt;stroke-linejoin:miter;stroke-miterlimit:10;stroke-dasharray:none;stroke-opacity:1"
       transform="matrix(1.3333333,0,0,-1.3333333,338.58667,1009.6933)" />
    <path
       id="path91"
       d="M 0,0 V 14.446"
       style="fill:none;stroke:#000000;stroke-width:0.398;stroke-linecap:butt;stroke-linejoin:miter;stroke-miterlimit:10;stroke-dasharray:none;stroke-opacity:1"
       transform="matrix(1.3333333,0,0,-1.3333333,362.49733,1009.6933)" />
    <path
       id="path92"
       d="M 0,0 V 14.446"
       style="fill:none;stroke:#000000;stroke-width:0.398;stroke-linecap:butt;stroke-linejoin:miter;stroke-miterlimit:10;stroke-dasharray:none;stroke-opacity:1"
       transform="matrix(1.3333333,0,0,-1.3333333,386.40667,1009.6933)" />
    <path
       id="path93"
       d="M 0,0 V 14.446"
       style="fill:none;stroke:#000000;stroke-width:0.398;stroke-linecap:butt;stroke-linejoin:miter;stroke-miterlimit:10;stroke-dasharray:none;stroke-opacity:1"
       transform="matrix(1.3333333,0,0,-1.3333333,410.31733,1009.6933)" />
    <path
       id="path94"
       d="M 0,0 V 14.446"
       style="fill:none;stroke:#000000;stroke-width:0.398;stroke-linecap:butt;stroke-linejoin:miter;stroke-miterlimit:10;stroke-dasharray:none;stroke-opacity:1"
       transform="matrix(1.3333333,0,0,-1.3333333,434.228,1009.6933)" />
    <path
       id="path95"
       d="M 0,0 V 14.446"
       style="fill:none;stroke:#000000;stroke-width:0.398;stroke-linecap:butt;stroke-linejoin:miter;stroke-miterlimit:10;stroke-dasharray:none;stroke-opacity:1"
       transform="matrix(1.3333333,0,0,-1.3333333,458.13867,1009.6933)" />
    <path
       id="path96"
       d="M 0,0 V 14.446"
       style="fill:none;stroke:#000000;stroke-width:0.398;stroke-linecap:butt;stroke-linejoin:miter;stroke-miterlimit:10;stroke-dasharray:none;stroke-opacity:1"
       transform="matrix(1.3333333,0,0,-1.3333333,482.048,1009.6933)" />
    <path
       id="path97"
       d="M 0,0 V 14.446"
       style="fill:none;stroke:#000000;stroke-width:0.398;stroke-linecap:butt;stroke-linejoin:miter;stroke-miterlimit:10;stroke-dasharray:none;stroke-opacity:1"
       transform="matrix(1.3333333,0,0,-1.3333333,505.95867,1009.6933)" />
    <path
       id="path98"
       d="M 0,0 H 161.395"
       style="fill:none;stroke:#000000;stroke-width:0.398;stroke-linecap:butt;stroke-linejoin:miter;stroke-miterlimit:10;stroke-dasharray:none;stroke-opacity:1"
       transform="matrix(1.3333333,0,0,-1.3333333,290.76533,1009.9587)" />
    <path
       id="path99"
       d="M 0,0 V 14.446"
       style="fill:none;stroke:#000000;stroke-width:0.398;stroke-linecap:butt;stroke-linejoin:miter;stroke-miterlimit:10;stroke-dasharray:none;stroke-opacity:1"
       transform="matrix(1.3333333,0,0,-1.3333333,290.76533,1029.4853)" />
    <path
       id="path100"
       d="M 0,0 V 14.446"
       style="fill:none;stroke:#000000;stroke-width:0.398;stroke-linecap:butt;stroke-linejoin:miter;stroke-miterlimit:10;stroke-dasharray:none;stroke-opacity:1"
       transform="matrix(1.3333333,0,0,-1.3333333,314.676,1029.4853)" />
    <path
       id="path101"
       d="M 0,0 V 14.446"
       style="fill:none;stroke:#000000;stroke-width:0.398;stroke-linecap:butt;stroke-linejoin:miter;stroke-miterlimit:10;stroke-dasharray:none;stroke-opacity:1"
       transform="matrix(1.3333333,0,0,-1.3333333,338.58667,1029.4853)" />
    <path
       id="path102"
       d="M 0,0 V 14.446"
       style="fill:none;stroke:#000000;stroke-width:0.398;stroke-linecap:butt;stroke-linejoin:miter;stroke-miterlimit:10;stroke-dasharray:none;stroke-opacity:1"
       transform="matrix(1.3333333,0,0,-1.3333333,362.49733,1029.4853)" />
    <path
       id="path103"
       d="m 5.2955078,-2.9890078 c 0,-1.2773438 -1.0546875,-2.3203125 -2.3085937,-2.3203125 -1.3007813,0 -2.32031254,1.0664062 -2.32031254,2.3203125 0,1.2773437 1.05468754,2.32031249 2.30859374,2.32031249 1.3007813,0 2.3203125,-1.06640629 2.3203125,-2.32031249 z m 0,0"
       style="fill:#000000;fill-opacity:1;fill-rule:nonzero;stroke:none"
       aria-label="•"
       transform="matrix(1.3333333,0,0,1.3333333,370.46667,1023.708)" />
    <path
       id="path104"
       d="M 0,0 V 14.446"
       style="fill:none;stroke:#000000;stroke-width:0.398;stroke-linecap:butt;stroke-linejoin:miter;stroke-miterlimit:10;stroke-dasharray:none;stroke-opacity:1"
       transform="matrix(1.3333333,0,0,-1.3333333,386.40667,1029.4853)" />
    <path
       id="path105"
       d="M 0,0 V 14.446"
       style="fill:none;stroke:#000000;stroke-width:0.398;stroke-linecap:butt;stroke-linejoin:miter;stroke-miterlimit:10;stroke-dasharray:none;stroke-opacity:1"
       transform="matrix(1.3333333,0,0,-1.3333333,410.31733,1029.4853)" />
    <path
       id="path106"
       d="M 0,0 V 14.446"
       style="fill:none;stroke:#000000;stroke-width:0.398;stroke-linecap:butt;stroke-linejoin:miter;stroke-miterlimit:10;stroke-dasharray:none;stroke-opacity:1"
       transform="matrix(1.3333333,0,0,-1.3333333,434.228,1029.4853)" />
    <path
       id="path107"
       d="M 0,0 V 14.446"
       style="fill:none;stroke:#000000;stroke-width:0.398;stroke-linecap:butt;stroke-linejoin:miter;stroke-miterlimit:10;stroke-dasharray:none;stroke-opacity:1"
       transform="matrix(1.3333333,0,0,-1.3333333,458.13867,1029.4853)" />
    <path
       id="path108"
       d="M 0,0 V 14.446"
       style="fill:none;stroke:#000000;stroke-width:0.398;stroke-linecap:butt;stroke-linejoin:miter;stroke-miterlimit:10;stroke-dasharray:none;stroke-opacity:1"
       transform="matrix(1.3333333,0,0,-1.3333333,482.048,1029.4853)" />
    <path
       id="path109"
       d="M 0,0 V 14.446"
       style="fill:none;stroke:#000000;stroke-width:0.398;stroke-linecap:butt;stroke-linejoin:miter;stroke-miterlimit:10;stroke-dasharray:none;stroke-opacity:1"
       transform="matrix(1.3333333,0,0,-1.3333333,505.95867,1029.4853)" />
    <path
       id="path110"
       d="M 0,0 H 161.395"
       style="fill:none;stroke:#000000;stroke-width:0.398;stroke-linecap:butt;stroke-linejoin:miter;stroke-miterlimit:10;stroke-dasharray:none;stroke-opacity:1"
       transform="matrix(1.3333333,0,0,-1.3333333,290.76533,1029.752)" />
    <path
       id="path111"
       d="M 0,0 V 14.446"
       style="fill:none;stroke:#000000;stroke-width:0.398;stroke-linecap:butt;stroke-linejoin:miter;stroke-miterlimit:10;stroke-dasharray:none;stroke-opacity:1"
       transform="matrix(1.3333333,0,0,-1.3333333,290.76533,1049.2787)" />
    <path
       id="path112"
       d="M 0,0 V 14.446"
       style="fill:none;stroke:#000000;stroke-width:0.398;stroke-linecap:butt;stroke-linejoin:miter;stroke-miterlimit:10;stroke-dasharray:none;stroke-opacity:1"
       transform="matrix(1.3333333,0,0,-1.3333333,314.676,1049.2787)" />
    <path
       id="path113"
       d="M 0,0 V 14.446"
       style="fill:none;stroke:#000000;stroke-width:0.398;stroke-linecap:butt;stroke-linejoin:miter;stroke-miterlimit:10;stroke-dasharray:none;stroke-opacity:1"
       transform="matrix(1.3333333,0,0,-1.3333333,338.58667,1049.2787)" />
    <path
       id="path114"
       d="M 0,0 V 14.446"
       style="fill:none;stroke:#000000;stroke-width:0.398;stroke-linecap:butt;stroke-linejoin:miter;stroke-miterlimit:10;stroke-dasharray:none;stroke-opacity:1"
       transform="matrix(1.3333333,0,0,-1.3333333,362.49733,1049.2787)" />
    <path
       id="path115"
       d="M 0,0 V 14.446"
       style="fill:none;stroke:#000000;stroke-width:0.398;stroke-linecap:butt;stroke-linejoin:miter;stroke-miterlimit:10;stroke-dasharray:none;stroke-opacity:1"
       transform="matrix(1.3333333,0,0,-1.3333333,386.40667,1049.2787)" />
    <path
       id="path116"
       d="M 0,0 V 14.446"
       style="fill:none;stroke:#000000;stroke-width:0.398;stroke-linecap:butt;stroke-linejoin:miter;stroke-miterlimit:10;stroke-dasharray:none;stroke-opacity:1"
       transform="matrix(1.3333333,0,0,-1.3333333,410.31733,1049.2787)" />
    <path
       id="path117"
       d="M 0,0 V 14.446"
       style="fill:none;stroke:#000000;stroke-width:0.398;stroke-linecap:butt;stroke-linejoin:miter;stroke-miterlimit:10;stroke-dasharray:none;stroke-opacity:1"
       transform="matrix(1.3333333,0,0,-1.3333333,434.228,1049.2787)" />
    <path
       id="path118"
       d="m 5.2982891,-2.9882812 c 0,-1.2773438 -1.0546875,-2.3203125 -2.3085938,-2.3203125 -1.3007812,0 -2.32031249,1.0664062 -2.32031249,2.3203125 0,1.2773437 1.05468749,2.32031245 2.30859379,2.32031245 1.3007812,0 2.3203125,-1.06640625 2.3203125,-2.32031245 z m 0,0"
       style="fill:#000000;fill-opacity:1;fill-rule:nonzero;stroke:none"
       aria-label="•"
       transform="matrix(1.3333333,0,0,1.3333333,442.19733,1043.5)" />
    <path
       id="path119"
       d="M 0,0 V 14.446"
       style="fill:none;stroke:#000000;stroke-width:0.398;stroke-linecap:butt;stroke-linejoin:miter;stroke-miterlimit:10;stroke-dasharray:none;stroke-opacity:1"
       transform="matrix(1.3333333,0,0,-1.3333333,458.13867,1049.2787)" />
    <path
       id="path120"
       d="M 0,0 V 14.446"
       style="fill:none;stroke:#000000;stroke-width:0.398;stroke-linecap:butt;stroke-linejoin:miter;stroke-miterlimit:10;stroke-dasharray:none;stroke-opacity:1"
       transform="matrix(1.3333333,0,0,-1.3333333,482.048,1049.2787)" />
    <path
       id="path121"
       d="M 0,0 V 14.446"
       style="fill:none;stroke:#000000;stroke-width:0.398;stroke-linecap:butt;stroke-linejoin:miter;stroke-miterlimit:10;stroke-dasharray:none;stroke-opacity:1"
       transform="matrix(1.3333333,0,0,-1.3333333,505.95867,1049.2787)" />
    <path
       id="path122"
       d="M 0,0 H 161.395"
       style="fill:none;stroke:#000000;stroke-width:0.398;stroke-linecap:butt;stroke-linejoin:miter;stroke-miterlimit:10;stroke-dasharray:none;stroke-opacity:1"
       transform="matrix(1.3333333,0,0,-1.3333333,290.76533,1049.544)" />
  </g>
</svg>
