<?xml version="1.0" encoding="UTF-8" standalone="no"?>
<!-- Created with Inkscape (http://www.inkscape.org/) -->

<svg
   version="1.1"
   id="svg1"
   width="794.55066"
   height="1123.6533"
   viewBox="0 0 794.55066 1123.6533"
   sodipodi:docname="LigaMatematycznaMatuskiego_Klasa5i6_Zestaw3_2021_2022_page0.pdf"
   xmlns:inkscape="http://www.inkscape.org/namespaces/inkscape"
   xmlns:sodipodi="http://sodipodi.sourceforge.net/DTD/sodipodi-0.dtd"
   xmlns="http://www.w3.org/2000/svg"
   xmlns:svg="http://www.w3.org/2000/svg">
  <defs
     id="defs1" />
  <sodipodi:namedview
     id="namedview1"
     pagecolor="#ffffff"
     bordercolor="#000000"
     borderopacity="0.25"
     inkscape:showpageshadow="2"
     inkscape:pageopacity="0.0"
     inkscape:pagecheckerboard="0"
     inkscape:deskcolor="#d1d1d1">
    <inkscape:page
       x="0"
       y="0"
       inkscape:label="1"
       id="page1"
       width="794.55066"
       height="1123.6533"
       margin="0"
       bleed="0" />
  </sodipodi:namedview>
  <g
     id="g1"
     inkscape:groupmode="layer"
     inkscape:label="1">
    <g
       id="g2"
       aria-label="LIGAMATEMATYCZNA&#10;im.ZdzisªawaMatuskiego&#10;GRUDZIE2021&#10;SZKOAPODSTAWOWA&#10;klasyIV-VI&#10;ZADANIE1.&#10;NumermieszkaniaMikoªajajestliczb¡dwucyfrow¡podzieln¡przez13,apododaniudonumeru&#10;mieszkanialiczby1dostajemywielokrotno±¢liczby11.Wyznaczsum¦cyfrnumerumieszkania&#10;Mikoªaja.&#10;ZADANIE2.&#10;Obwódpi¦ciok¡tawypukªegoABCDEjestrówny82.Obwódczworok¡taABCDwynosi64,&#10;aobwódczworok¡taACDErównasi¦45.Obliczobwódtrójk¡taACD.&#10;ZADANIE3.&#10;Znajd¹cyfr¦dziesi¡teknajmniejszejliczbyzªo»onej,któraniejestpodzielnaprzez»adn¡zliczb&#10;pierwszych2,3,5,7.&#10;ZADANIE4.&#10;Wpracowniplastycznejjest19p¦dzli,13tubekzniebiesk¡farb¡,12tubekzczerwon¡farb¡&#10;i8z»óªt¡.Ka»dyucze«powiniendosta¢podwietubkifarbró»nychkolorówijedenp¦dzel.&#10;Dlailumªodychartystówmo»naprzygotowa¢takizestaw?&#10;ZADANIE5.&#10;Uzupeªnijdiagramliczbamiwtakisposób,abyka»depoles¡siadowaªozdwoma,wktórychs¡&#10;wpisaneliczbyosumierównej10.Dwiezliczbzostaªyju»wpisane.Obliczsum¦wszystkich&#10;liczbwdiagramie."
       transform="matrix(1.3333333,0,0,1.3333333,274.724,56.069333)">
      <path
         id="path2"
         d="m 196.82126,115.69995 c 0,-0.26953 0,-0.28125 -0.2461,-0.28125 -0.28125,0.31641 -0.8789,0.76172 -2.10937,0.76172 v 0.35156 c 0.26953,0 0.86719,0 1.52344,-0.3164 v 6.22265 c 0,0.4336 -0.0352,0.57422 -1.07813,0.57422 h -0.375 v 0.35157 c 0.31641,-0.0234 1.47656,-0.0234 1.875,-0.0234 0.39844,0 1.54688,0 1.86328,0.0234 v -0.35157 h -0.36328 c -1.05469,0 -1.08984,-0.14062 -1.08984,-0.57422 z m 4.61133,3.375 c -0.21094,0.0117 -0.25782,0.0234 -0.25782,0.12891 0,0.11719 0.0586,0.11719 0.28125,0.11719 h 0.55078 c 1.00782,0 1.46485,0.84375 1.46485,1.99218 0,1.5586 -0.8086,1.98047 -1.39453,1.98047 -0.57422,0 -1.5586,-0.28125 -1.89844,-1.0664 0.375,0.0586 0.72656,-0.15235 0.72656,-0.58594 0,-0.33984 -0.25781,-0.58594 -0.58594,-0.58594 -0.29296,0 -0.59765,0.16406 -0.59765,0.6211 0,1.0664 1.0664,1.93359 2.39062,1.93359 1.41797,0 2.47266,-1.07813 2.47266,-2.28516 0,-1.10156 -0.89063,-1.96875 -2.02734,-2.16797 1.03125,-0.30468 1.69921,-1.17187 1.69921,-2.10937 0,-0.9375 -0.97265,-1.62891 -2.13281,-1.62891 -1.19531,0 -2.08594,0.72657 -2.08594,1.59375 0,0.48047 0.375,0.57422 0.55079,0.57422 0.25781,0 0.53906,-0.17578 0.53906,-0.53906 0,-0.375 -0.28125,-0.53906 -0.55078,-0.53906 -0.0703,0 -0.0937,0 -0.12891,0.0117 0.45703,-0.82032 1.58203,-0.82032 1.64063,-0.82032 0.38671,0 1.17187,0.17578 1.17187,1.34766 0,0.23437 -0.0352,0.90234 -0.38672,1.41797 -0.35156,0.52734 -0.76172,0.5625 -1.08984,0.57422 z m 0,0"
         style="fill:#000000;fill-opacity:1;fill-rule:nonzero;stroke:none" />
      <path
         id="path3"
         d="m -52.981477,130.14624 c 0,-0.26953 0,-0.28125 -0.246093,-0.28125 -0.28125,0.31641 -0.878907,0.76172 -2.109375,0.76172 v 0.35156 c 0.269531,0 0.867187,0 1.523437,-0.3164 v 6.22265 c 0,0.4336 -0.03516,0.57422 -1.078125,0.57422 h -0.375 v 0.35156 c 0.316406,-0.0234 1.476563,-0.0234 1.875,-0.0234 0.398438,0 1.546875,0 1.863281,0.0234 v -0.35156 h -0.363281 c -1.054687,0 -1.089844,-0.14062 -1.089844,-0.57422 z m 0,0"
         style="fill:#000000;fill-opacity:1;fill-rule:nonzero;stroke:none" />
      <path
         id="path4"
         d="m 118.8945,130.14624 c 0,-0.26953 0,-0.28125 -0.24609,-0.28125 -0.28125,0.31641 -0.87891,0.76172 -2.10938,0.76172 v 0.35156 c 0.26953,0 0.86719,0 1.52344,-0.3164 v 6.22265 c 0,0.4336 -0.0352,0.57422 -1.07813,0.57422 h -0.375 v 0.35156 c 0.31641,-0.0234 1.47657,-0.0234 1.875,-0.0234 0.39844,0 1.54688,0 1.86329,0.0234 v -0.35156 h -0.36329 c -1.05468,0 -1.08984,-0.14062 -1.08984,-0.57422 z m 5.85352,0 c 0,-0.26953 0,-0.28125 -0.2461,-0.28125 -0.28125,0.31641 -0.8789,0.76172 -2.10937,0.76172 v 0.35156 c 0.26953,0 0.86718,0 1.52343,-0.3164 v 6.22265 c 0,0.4336 -0.0352,0.57422 -1.07812,0.57422 h -0.375 v 0.35156 c 0.31641,-0.0234 1.47656,-0.0234 1.875,-0.0234 0.39844,0 1.54687,0 1.86328,0.0234 v -0.35156 h -0.36328 c -1.05469,0 -1.08984,-0.14062 -1.08984,-0.57422 z m 0,0"
         style="fill:#000000;fill-opacity:1;fill-rule:nonzero;stroke:none" />
      <path
         id="path5"
         d="m 9.0575859,193.99585 c -0.4101562,0.70313 -0.8203125,0.9375 -1.3945312,0.97266 -0.1289063,0.0117 -0.2226563,0.0117 -0.2226563,0.23437 0,0.0703 0.058594,0.11719 0.140625,0.11719 0.2109375,0 0.75,-0.0234 0.9726563,-0.0234 0.3398437,0 0.7265625,0.0234 1.0546875,0.0234 0.070312,0 0.2226562,0 0.2226562,-0.22266 0,-0.11718 -0.09375,-0.1289 -0.1757812,-0.1289 -0.2695313,-0.0234 -0.4921875,-0.11719 -0.4921875,-0.39844 0,-0.17578 0.070312,-0.30469 0.2226562,-0.5625 l 0.9023441,-1.51172 h 3.058593 c 0.01172,0.10547 0.01172,0.21094 0.02344,0.31641 0.03516,0.30469 0.175781,1.54687 0.175781,1.78125 0,0.35156 -0.609375,0.375 -0.796875,0.375 -0.140625,0 -0.269531,0 -0.269531,0.22265 0,0.12891 0.105469,0.12891 0.175781,0.12891 0.210938,0 0.445313,-0.0234 0.65625,-0.0234 h 0.679688 c 0.726562,0 1.253906,0.0234 1.265625,0.0234 0.08203,0 0.210937,0 0.210937,-0.22266 0,-0.1289 -0.105469,-0.1289 -0.28125,-0.1289 -0.65625,0 -0.667969,-0.10547 -0.714844,-0.45703 l -0.726562,-7.46485 c -0.02344,-0.23437 -0.07031,-0.25781 -0.199219,-0.25781 -0.117187,0 -0.1875,0.0234 -0.304687,0.19922 z m 1.4414061,-1.83984 2.402344,-4.01953 0.410156,4.01953 z m 9.676758,-4.1836 c 0.117188,-0.44531 0.164063,-0.46875 0.621094,-0.46875 h 1.558594 c 1.347656,0 1.347656,1.14844 1.347656,1.25391 0,0.97266 -0.960938,2.20313 -2.542969,2.20313 h -1.722656 z m 2.027344,3.08204 c 1.300781,-0.2461 2.484375,-1.14844 2.484375,-2.25 0,-0.92579 -0.832031,-1.65235 -2.179688,-1.65235 H 18.67575 c -0.234375,0 -0.339844,0 -0.339844,0.23438 0,0.11718 0.105469,0.11718 0.292969,0.11718 0.726563,0 0.726563,0.0937 0.726563,0.22266 0,0.0234 0,0.0937 -0.04687,0.28125 l -1.617188,6.43359 c -0.105469,0.41016 -0.128906,0.52735 -0.960937,0.52735 -0.234375,0 -0.351563,0 -0.351563,0.22265 0,0.12891 0.07031,0.12891 0.304688,0.12891 h 4.101562 c 1.828125,0 3.246094,-1.38281 3.246094,-2.58984 0,-0.98438 -0.867188,-1.58203 -1.828125,-1.67578 z m -1.699219,3.91406 h -1.617187 c -0.164063,0 -0.1875,0 -0.257813,-0.0117 -0.128906,-0.0117 -0.152344,-0.0352 -0.152344,-0.12891 0,-0.082 0.03516,-0.15234 0.05859,-0.25781 l 0.832031,-3.375 h 2.25 c 1.40625,0 1.40625,1.3125 1.40625,1.40625 0,1.14844 -1.042968,2.36719 -2.519531,2.36719 z m 13.722656,-7.95703 c 0,-0.10547 -0.08203,-0.10547 -0.105468,-0.10547 -0.02344,0 -0.07031,0 -0.175782,0.11719 l -0.820312,1.00781 c -0.421875,-0.71485 -1.078125,-1.125 -1.96875,-1.125 -2.589844,0 -5.261719,2.61328 -5.261719,5.42578 0,1.99219 1.394531,3.23437 3.140625,3.23437 0.960938,0 1.792969,-0.39843 2.484375,-0.98437 1.042969,-0.87891 1.359375,-2.03906 1.359375,-2.13281 0,-0.10547 -0.09375,-0.10547 -0.140625,-0.10547 -0.105469,0 -0.117187,0.0703 -0.140625,0.11719 -0.550781,1.86328 -2.15625,2.76562 -3.351562,2.76562 -1.277344,0 -2.367188,-0.82031 -2.367188,-2.50781 0,-0.38672 0.117188,-2.46094 1.464844,-4.03125 0.65625,-0.76172 1.78125,-1.44141 2.917969,-1.44141 1.3125,0 1.898437,1.08985 1.898437,2.3086 0,0.3164 -0.03516,0.57421 -0.03516,0.62109 0,0.11719 0.117187,0.11719 0.152344,0.11719 0.140625,0 0.152343,-0.0117 0.199218,-0.23438 z m 2.182617,7.42968 c -0.105468,0.41016 -0.128906,0.52735 -0.960937,0.52735 -0.234375,0 -0.351563,0 -0.351563,0.22265 0,0.12891 0.07031,0.12891 0.304688,0.12891 h 3.796875 c 2.414062,0 4.769531,-2.49609 4.769531,-5.16797 0,-1.72265 -1.03125,-3 -2.742187,-3 h -3.832032 c -0.234375,0 -0.339843,0 -0.339843,0.23438 0,0.11718 0.105468,0.11718 0.292968,0.11718 0.726563,0 0.726563,0.0937 0.726563,0.22266 0,0.0234 0,0.0937 -0.04687,0.28125 z m 2.519532,-6.46875 c 0.117187,-0.44531 0.164062,-0.46875 0.621093,-0.46875 h 1.324219 c 1.113281,0 2.144531,0.60938 2.144531,2.26172 0,0.59766 -0.234375,2.67188 -1.394531,3.98438 -0.339844,0.39844 -1.242187,1.21875 -2.625,1.21875 h -1.359375 c -0.164062,0 -0.1875,0 -0.257812,-0.0117 -0.128907,-0.0117 -0.140625,-0.0352 -0.140625,-0.12891 0,-0.082 0.02344,-0.15234 0.04687,-0.25781 z m 13.954101,4.57032 c 0.01172,-0.0352 0.04687,-0.11719 0.04687,-0.16407 0,-0.0586 -0.04687,-0.11718 -0.117187,-0.11718 -0.04687,0 -0.07031,0.0117 -0.105469,0.0469 -0.02344,0.0117 -0.02344,0.0352 -0.140625,0.26953 -0.703125,1.67578 -1.21875,2.39063 -3.128906,2.39063 H 47.69137 c -0.164062,0 -0.1875,0 -0.257812,-0.0117 -0.128907,-0.0117 -0.140625,-0.0352 -0.140625,-0.12891 0,-0.082 0.02344,-0.15234 0.04687,-0.25781 l 0.820312,-3.30469 h 1.183594 c 0.9375,0 1.007812,0.21094 1.007812,0.5625 0,0.11719 0,0.23438 -0.08203,0.58594 -0.03516,0.0469 -0.04687,0.0937 -0.04687,0.12891 0,0.082 0.07031,0.1289 0.140625,0.1289 0.105469,0 0.117188,-0.0937 0.164063,-0.25781 L 51.207,189.63648 c 0,-0.0586 -0.04687,-0.11719 -0.117187,-0.11719 -0.105469,0 -0.117188,0.0469 -0.164063,0.22266 -0.246094,0.91406 -0.480469,1.18359 -1.546875,1.18359 h -1.136719 l 0.738282,-2.94141 c 0.117187,-0.42187 0.140625,-0.45703 0.621093,-0.45703 h 1.710938 c 1.476562,0 1.769531,0.39844 1.769531,1.30078 0,0.0117 0,0.35157 -0.04687,0.73828 -0.01172,0.0469 -0.02344,0.12891 -0.02344,0.15235 0,0.0937 0.05859,0.1289 0.128906,0.1289 0.08203,0 0.140625,-0.0469 0.164062,-0.26953 l 0.246094,-2.08593 c 0,-0.0352 0.02344,-0.15235 0.02344,-0.17579 0,-0.14062 -0.105469,-0.14062 -0.316407,-0.14062 h -5.835937 c -0.234375,0 -0.351563,0 -0.351563,0.22266 0,0.1289 0.08203,0.1289 0.292969,0.1289 0.738281,0 0.738281,0.082 0.738281,0.21094 0,0.0586 -0.01172,0.10547 -0.04687,0.24609 l -1.617187,6.45703 c -0.105469,0.41016 -0.128906,0.52735 -0.960938,0.52735 -0.234375,0 -0.351562,0 -0.351562,0.22265 0,0.12891 0.07031,0.12891 0.304687,0.12891 h 6 c 0.269532,0 0.28125,-0.0117 0.363282,-0.19922 z m 0,0"
         style="fill:#000000;fill-opacity:1;fill-rule:nonzero;stroke:none" />
      <path
         id="path6"
         d="m 119.81442,191.00757 c 0.59766,-0.32812 1.46485,-0.87891 1.46485,-1.875 0,-1.04297 -0.9961,-1.75781 -2.09766,-1.75781 -1.18359,0 -2.12109,0.86719 -2.12109,1.95703 0,0.41016 0.1289,0.80859 0.45703,1.21875 0.1289,0.15234 0.14062,0.16406 0.98437,0.75 -1.16015,0.53906 -1.75781,1.34766 -1.75781,2.21484 0,1.26563 1.20703,2.05078 2.42578,2.05078 1.32422,0 2.4375,-0.97265 2.4375,-2.22656 0,-1.21875 -0.85547,-1.75781 -1.79297,-2.33203 z m -1.6289,-1.07812 c -0.15235,-0.10547 -0.63282,-0.42188 -0.63282,-1.00782 0,-0.77343 0.82032,-1.26562 1.61719,-1.26562 0.85547,0 1.62891,0.62109 1.62891,1.48828 0,0.72656 -0.52735,1.3125 -1.21875,1.6875 z m 0.5625,1.54687 c 0.32812,0.21094 1.125,0.72656 1.45312,0.9375 0.30469,0.19922 0.85547,0.57422 0.85547,1.30078 0,0.91406 -0.91406,1.53516 -1.875,1.53516 -1.01953,0 -1.88672,-0.73828 -1.88672,-1.73438 0,-0.9375 0.67969,-1.6875 1.45313,-2.03906 z m 8.61914,1.83984 h -0.26953 c -0.0352,0.19922 -0.12891,0.85547 -0.2461,1.04297 -0.082,0.11719 -0.76172,0.11719 -1.125,0.11719 h -2.21484 c 0.32812,-0.28125 1.05469,-1.04297 1.37109,-1.33594 1.81641,-1.66406 2.48438,-2.28515 2.48438,-3.46875 0,-1.38281 -1.08985,-2.29687 -2.47266,-2.29687 -1.39453,0 -2.20312,1.18359 -2.20312,2.20312 0,0.60938 0.52734,0.60938 0.5625,0.60938 0.24609,0 0.5625,-0.17578 0.5625,-0.5625 0,-0.32813 -0.23438,-0.55078 -0.5625,-0.55078 -0.10547,0 -0.12891,0 -0.16407,0.0117 0.22266,-0.82032 0.86719,-1.3711 1.64063,-1.3711 1.01953,0 1.64062,0.85547 1.64062,1.95703 0,1.00782 -0.58593,1.89844 -1.26562,2.66016 l -2.41406,2.70703 v 0.28125 h 4.35937 z m 0,0"
         style="fill:#000000;fill-opacity:1;fill-rule:nonzero;stroke:none" />
      <path
         id="path7"
         d="m 239.36032,193.99585 c -0.41016,0.70313 -0.82031,0.9375 -1.39453,0.97266 -0.12891,0.0117 -0.22266,0.0117 -0.22266,0.23437 0,0.0703 0.0586,0.11719 0.14063,0.11719 0.21094,0 0.75,-0.0234 0.97265,-0.0234 0.33985,0 0.72657,0.0234 1.05469,0.0234 0.0703,0 0.22266,0 0.22266,-0.22266 0,-0.11718 -0.0937,-0.1289 -0.17578,-0.1289 -0.26953,-0.0234 -0.49219,-0.11719 -0.49219,-0.39844 0,-0.17578 0.0703,-0.30469 0.22266,-0.5625 l 0.90234,-1.51172 h 3.05859 c 0.0117,0.10547 0.0117,0.21094 0.0234,0.31641 0.0352,0.30469 0.17578,1.54687 0.17578,1.78125 0,0.35156 -0.60937,0.375 -0.79687,0.375 -0.14063,0 -0.26953,0 -0.26953,0.22265 0,0.12891 0.10546,0.12891 0.17578,0.12891 0.21093,0 0.44531,-0.0234 0.65625,-0.0234 h 0.67968 c 0.72657,0 1.25391,0.0234 1.26563,0.0234 0.082,0 0.21094,0 0.21094,-0.22266 0,-0.1289 -0.10547,-0.1289 -0.28125,-0.1289 -0.65625,0 -0.66797,-0.10547 -0.71485,-0.45703 l -0.72656,-7.46485 c -0.0234,-0.23437 -0.0703,-0.25781 -0.19922,-0.25781 -0.11719,0 -0.1875,0.0234 -0.30469,0.19922 z m 1.44141,-1.83984 2.40234,-4.01953 0.41016,4.01953 z m 9.67968,-4.1836 c 0.11719,-0.44531 0.16407,-0.46875 0.6211,-0.46875 h 1.55859 c 1.34766,0 1.34766,1.14844 1.34766,1.25391 0,0.97266 -0.96094,2.20313 -2.54297,2.20313 h -1.72266 z m 2.02735,3.08204 c 1.30078,-0.2461 2.48437,-1.14844 2.48437,-2.25 0,-0.92579 -0.83203,-1.65235 -2.17968,-1.65235 h -3.83204 c -0.23437,0 -0.33984,0 -0.33984,0.23438 0,0.11718 0.10547,0.11718 0.29297,0.11718 0.72656,0 0.72656,0.0937 0.72656,0.22266 0,0.0234 0,0.0937 -0.0469,0.28125 l -1.61719,6.43359 c -0.10547,0.41016 -0.12891,0.52735 -0.96094,0.52735 -0.23437,0 -0.35156,0 -0.35156,0.22265 0,0.12891 0.0703,0.12891 0.30469,0.12891 h 4.10156 c 1.82812,0 3.24609,-1.38281 3.24609,-2.58984 0,-0.98438 -0.86718,-1.58203 -1.82812,-1.67578 z m -1.69922,3.91406 h -1.61719 c -0.16406,0 -0.1875,0 -0.25781,-0.0117 -0.12891,-0.0117 -0.15234,-0.0352 -0.15234,-0.12891 0,-0.082 0.0352,-0.15234 0.0586,-0.25781 l 0.83203,-3.375 h 2.25 c 1.40625,0 1.40625,1.3125 1.40625,1.40625 0,1.14844 -1.04297,2.36719 -2.51953,2.36719 z m 13.71973,-7.95703 c 0,-0.10547 -0.082,-0.10547 -0.10547,-0.10547 -0.0234,0 -0.0703,0 -0.17578,0.11719 l -0.82032,1.00781 c -0.42187,-0.71485 -1.07812,-1.125 -1.96875,-1.125 -2.58984,0 -5.26172,2.61328 -5.26172,5.42578 0,1.99219 1.39454,3.23437 3.14063,3.23437 0.96094,0 1.79297,-0.39843 2.48437,-0.98437 1.04297,-0.87891 1.35938,-2.03906 1.35938,-2.13281 0,-0.10547 -0.0937,-0.10547 -0.14063,-0.10547 -0.10546,0 -0.11718,0.0703 -0.14062,0.11719 -0.55078,1.86328 -2.15625,2.76562 -3.35156,2.76562 -1.27735,0 -2.36719,-0.82031 -2.36719,-2.50781 0,-0.38672 0.11719,-2.46094 1.46484,-4.03125 0.65625,-0.76172 1.78125,-1.44141 2.91797,-1.44141 1.3125,0 1.89844,1.08985 1.89844,2.3086 0,0.3164 -0.0352,0.57421 -0.0352,0.62109 0,0.11719 0.11719,0.11719 0.15235,0.11719 0.14062,0 0.15234,-0.0117 0.19922,-0.23438 z m 2.18261,7.42968 c -0.10547,0.41016 -0.1289,0.52735 -0.96093,0.52735 -0.23438,0 -0.35157,0 -0.35157,0.22265 0,0.12891 0.0703,0.12891 0.30469,0.12891 h 3.79688 c 2.41406,0 4.76953,-2.49609 4.76953,-5.16797 0,-1.72265 -1.03125,-3 -2.74219,-3 h -3.83203 c -0.23438,0 -0.33985,0 -0.33985,0.23438 0,0.11718 0.10547,0.11718 0.29297,0.11718 0.72657,0 0.72657,0.0937 0.72657,0.22266 0,0.0234 0,0.0937 -0.0469,0.28125 z m 2.51953,-6.46875 c 0.11719,-0.44531 0.16407,-0.46875 0.6211,-0.46875 h 1.32422 c 1.11328,0 2.14453,0.60938 2.14453,2.26172 0,0.59766 -0.23438,2.67188 -1.39453,3.98438 -0.33985,0.39844 -1.24219,1.21875 -2.625,1.21875 h -1.35938 c -0.16406,0 -0.1875,0 -0.25781,-0.0117 -0.12891,-0.0117 -0.14063,-0.0352 -0.14063,-0.12891 0,-0.082 0.0234,-0.15234 0.0469,-0.25781 z m 0,0"
         style="fill:#000000;fill-opacity:1;fill-rule:nonzero;stroke:none" />
      <path
         id="path8"
         d="m 320.18161,191.15991 c 0,-3.02343 1.47656,-3.5039 2.12109,-3.5039 0.4336,0 0.85547,0.1289 1.08985,0.49219 -0.14063,0 -0.59766,0 -0.59766,0.49218 0,0.25782 0.17578,0.49219 0.49219,0.49219 0.29297,0 0.49219,-0.1875 0.49219,-0.52734 0,-0.6211 -0.44532,-1.23047 -1.48829,-1.23047 -1.51171,0 -3.08203,1.53515 -3.08203,4.17187 0,3.28125 1.42969,4.01953 2.44922,4.01953 1.30078,0 2.41406,-1.125 2.41406,-2.68359 0,-1.59375 -1.11328,-2.66016 -2.30859,-2.66016 -1.06641,0 -1.45312,0.92579 -1.58203,1.26563 z m 1.47656,4.08985 c -0.75,0 -1.11328,-0.66797 -1.21875,-0.92578 -0.10547,-0.30469 -0.22265,-0.89063 -0.22265,-1.73438 0,-0.9375 0.42187,-2.12109 1.5,-2.12109 0.65625,0 1.00781,0.44531 1.18359,0.84375 0.1875,0.44531 0.1875,1.04297 0.1875,1.55859 0,0.60938 0,1.14844 -0.22266,1.60547 -0.30468,0.57422 -0.72656,0.77344 -1.20703,0.77344 z m 7.22461,-7.71094 c 0,-0.22266 0,-0.29297 -0.16406,-0.29297 -0.0937,0 -0.12891,0 -0.22266,0.15235 l -3.59765,5.57812 v 0.35156 h 3.14062 v 1.07813 c 0,0.44531 -0.0234,0.5625 -0.90234,0.5625 h -0.23438 v 0.35156 c 0.26953,-0.0234 1.21875,-0.0234 1.5586,-0.0234 0.32812,0 1.28906,0 1.55859,0.0234 v -0.35156 h -0.23437 c -0.86719,0 -0.90235,-0.11719 -0.90235,-0.5625 v -1.07813 h 1.20703 v -0.35156 h -1.20703 z m -0.78515,0.9375 v 4.5 h -2.90625 z m 0,0"
         style="fill:#000000;fill-opacity:1;fill-rule:nonzero;stroke:none" />
      <path
         id="path9"
         d="m -39.235383,208.44214 c -0.410156,0.70313 -0.820312,0.9375 -1.394531,0.97266 -0.128906,0.0117 -0.222656,0.0117 -0.222656,0.23437 0,0.0703 0.05859,0.11719 0.140625,0.11719 0.210937,0 0.75,-0.0234 0.972656,-0.0234 0.339844,0 0.726562,0.0234 1.054687,0.0234 0.07031,0 0.222657,0 0.222657,-0.22266 0,-0.11718 -0.09375,-0.1289 -0.175782,-0.1289 -0.269531,-0.0234 -0.492187,-0.11719 -0.492187,-0.39844 0,-0.17578 0.07031,-0.30469 0.222656,-0.5625 l 0.902344,-1.51172 h 3.058594 c 0.01172,0.10547 0.01172,0.21094 0.02344,0.31641 0.03516,0.30468 0.175781,1.54687 0.175781,1.78125 0,0.35156 -0.609375,0.375 -0.796875,0.375 -0.140625,0 -0.269531,0 -0.269531,0.22265 0,0.12891 0.105469,0.12891 0.175781,0.12891 0.210938,0 0.445313,-0.0234 0.65625,-0.0234 h 0.679688 c 0.726562,0 1.253906,0.0234 1.265625,0.0234 0.08203,0 0.210937,0 0.210937,-0.22266 0,-0.1289 -0.105468,-0.1289 -0.28125,-0.1289 -0.65625,0 -0.667968,-0.10547 -0.714843,-0.45703 l -0.726563,-7.46485 c -0.02344,-0.23437 -0.07031,-0.25781 -0.199219,-0.25781 -0.117187,0 -0.1875,0.0234 -0.304687,0.19922 z m 1.441406,-1.83984 2.402344,-4.01953 0.410156,4.01953 z m 14.235352,-5.14453 c 0,-0.10547 -0.08203,-0.10547 -0.105469,-0.10547 -0.02344,0 -0.07031,0 -0.175781,0.11718 l -0.820312,1.00782 c -0.421875,-0.71485 -1.078125,-1.125 -1.96875,-1.125 -2.589844,0 -5.261719,2.61328 -5.261719,5.42578 0,1.99219 1.394531,3.23437 3.140625,3.23437 0.960937,0 1.792969,-0.39843 2.484375,-0.98437 1.042969,-0.87891 1.359375,-2.03906 1.359375,-2.13281 0,-0.10547 -0.09375,-0.10547 -0.140625,-0.10547 -0.105469,0 -0.117188,0.0703 -0.140625,0.11718 -0.550781,1.86329 -2.15625,2.76563 -3.351563,2.76563 -1.277343,0 -2.367187,-0.82031 -2.367187,-2.50781 0,-0.38672 0.117187,-2.46094 1.464844,-4.03125 0.65625,-0.76172 1.78125,-1.44141 2.917968,-1.44141 1.3125,0 1.898438,1.08984 1.898438,2.30859 0,0.31641 -0.03516,0.57422 -0.03516,0.6211 0,0.11719 0.117187,0.11719 0.152343,0.11719 0.140625,0 0.152344,-0.0117 0.199219,-0.23438 z m 2.182617,7.42968 c -0.105469,0.41016 -0.128906,0.52735 -0.960937,0.52735 -0.234375,0 -0.351563,0 -0.351563,0.22265 0,0.12891 0.07031,0.12891 0.304688,0.12891 h 3.796875 c 2.414062,0 4.769531,-2.49609 4.769531,-5.16797 0,-1.72266 -1.03125,-3 -2.742188,-3 h -3.832031 c -0.234375,0 -0.339844,0 -0.339844,0.23438 0,0.11718 0.105469,0.11718 0.292969,0.11718 0.726563,0 0.726563,0.0937 0.726563,0.22266 0,0.0234 0,0.0937 -0.04687,0.28125 z m 2.519531,-6.46875 c 0.117188,-0.44531 0.164063,-0.46875 0.621094,-0.46875 h 1.324219 c 1.113281,0 2.144531,0.60938 2.144531,2.26172 0,0.59766 -0.234375,2.67188 -1.394531,3.98438 -0.339844,0.39843 -1.242188,1.21875 -2.625,1.21875 h -1.359375 c -0.164063,0 -0.1875,0 -0.257813,-0.0117 -0.128906,-0.0117 -0.140625,-0.0352 -0.140625,-0.12891 0,-0.082 0.02344,-0.15234 0.04687,-0.25781 z m 13.9570317,4.57032 c 0.011719,-0.0352 0.046875,-0.11719 0.046875,-0.16407 0,-0.0586 -0.046875,-0.11718 -0.1171875,-0.11718 -0.046875,0 -0.070312,0.0117 -0.1054688,0.0469 -0.023437,0.0117 -0.023437,0.0352 -0.140625,0.26953 -0.703125,1.67578 -1.21875,2.39063 -3.1289062,2.39063 h -1.7460942 c -0.164062,0 -0.1875,0 -0.257812,-0.0117 -0.128906,-0.0117 -0.140625,-0.0352 -0.140625,-0.12891 0,-0.082 0.02344,-0.15234 0.04687,-0.25781 l 0.8203124,-3.30469 h 1.1835938 c 0.9375,0 1.0078125,0.21094 1.0078125,0.5625 0,0.11719 0,0.23438 -0.082031,0.58594 -0.035156,0.0469 -0.046875,0.0937 -0.046875,0.12891 0,0.082 0.070312,0.1289 0.140625,0.1289 0.1054688,0 0.1171875,-0.0937 0.1640625,-0.25781 l 0.6796875,-2.77734 c 0,-0.0586 -0.046875,-0.11719 -0.1171875,-0.11719 -0.1054687,0 -0.1171875,0.0469 -0.1640625,0.22265 -0.2460937,0.91407 -0.4804687,1.1836 -1.546875,1.1836 H -9.540075 l 0.7382812,-2.94141 c 0.1171875,-0.42187 0.140625,-0.45703 0.6210938,-0.45703 h 1.7109375 c 1.4765625,0 1.7695312,0.39844 1.7695312,1.30078 0,0.0117 0,0.35156 -0.046875,0.73828 -0.011719,0.0469 -0.023437,0.12891 -0.023437,0.15235 0,0.0937 0.058594,0.1289 0.1289063,0.1289 0.082031,0 0.140625,-0.0469 0.1640625,-0.26953 l 0.2460937,-2.08594 c 0,-0.0352 0.023437,-0.15234 0.023437,-0.17578 0,-0.14062 -0.1054687,-0.14062 -0.3164062,-0.14062 h -5.835938 c -0.234375,0 -0.351562,0 -0.351562,0.22265 0,0.12891 0.08203,0.12891 0.292968,0.12891 0.738282,0 0.738282,0.082 0.738282,0.21094 0,0.0586 -0.011719,0.10547 -0.046875,0.24609 l -1.617188,6.45703 c -0.105469,0.41016 -0.128906,0.52735 -0.960937,0.52735 -0.234375,0 -0.351563,0 -0.351563,0.22265 0,0.12891 0.07031,0.12891 0.304688,0.12891 h 6 c 0.2695312,0 0.28125,-0.0117 0.3632812,-0.19922 z m 0,0"
         style="fill:#000000;fill-opacity:1;fill-rule:nonzero;stroke:none" />
      <path
         id="path10"
         d="m 56.125945,201.98511 c 0,-0.22266 0,-0.29297 -0.164062,-0.29297 -0.09375,0 -0.128906,0 -0.222656,0.15234 l -3.597657,5.57813 v 0.35156 h 3.140625 v 1.07813 c 0,0.44531 -0.02344,0.5625 -0.902343,0.5625 h -0.234375 v 0.35156 c 0.269531,-0.0234 1.21875,-0.0234 1.558593,-0.0234 0.328125,0 1.289063,0 1.558594,0.0234 v -0.35156 h -0.234375 c -0.867187,0 -0.902344,-0.11719 -0.902344,-0.5625 v -1.07813 h 1.207032 v -0.35156 h -1.207032 z m -0.785156,0.9375 v 4.5 h -2.90625 z m 3.861328,0 c 0.503906,0.16406 0.925781,0.17578 1.054688,0.17578 1.359375,0 2.214843,-0.99609 2.214843,-1.16016 0,-0.0469 -0.02344,-0.10546 -0.09375,-0.10546 -0.02344,0 -0.04687,0 -0.152343,0.0469 -0.667969,0.28125 -1.242188,0.31641 -1.558594,0.31641 -0.785156,0 -1.347656,-0.23438 -1.582031,-0.32813 -0.08203,-0.0351 -0.105469,-0.0351 -0.117188,-0.0351 -0.09375,0 -0.09375,0.0703 -0.09375,0.25781 v 3.55078 c 0,0.21094 0,0.29297 0.140625,0.29297 0.05859,0 0.07031,-0.0117 0.199219,-0.16406 0.328125,-0.49219 0.890625,-0.77344 1.488281,-0.77344 0.632813,0 0.949219,0.58594 1.042969,0.78515 0.199219,0.46875 0.210937,1.05469 0.210937,1.51172 0,0.45703 0,1.13672 -0.328125,1.67578 -0.269531,0.42188 -0.738281,0.72657 -1.253906,0.72657 -0.796875,0 -1.570312,-0.53907 -1.78125,-1.40625 0.05859,0.0234 0.128906,0.0351 0.1875,0.0351 0.199219,0 0.527344,-0.1289 0.527344,-0.52734 0,-0.33984 -0.234375,-0.52734 -0.527344,-0.52734 -0.210937,0 -0.527344,0.10546 -0.527344,0.57421 0,1.00782 0.808594,2.16797 2.144532,2.16797 1.347656,0 2.53125,-1.125 2.53125,-2.64843 0,-1.41797 -0.960938,-2.60157 -2.214844,-2.60157 -0.679688,0 -1.207031,0.29297 -1.511719,0.63282 z m 0,0"
         style="fill:#000000;fill-opacity:1;fill-rule:nonzero;stroke:none" />
      <path
         id="path11"
         d="m 190.707,208.44214 c -0.41016,0.70313 -0.82031,0.9375 -1.39453,0.97266 -0.12891,0.0117 -0.22266,0.0117 -0.22266,0.23437 0,0.0703 0.0586,0.11719 0.14063,0.11719 0.21094,0 0.75,-0.0234 0.97265,-0.0234 0.33985,0 0.72657,0.0234 1.05469,0.0234 0.0703,0 0.22266,0 0.22266,-0.22266 0,-0.11718 -0.0937,-0.1289 -0.17578,-0.1289 -0.26953,-0.0234 -0.49219,-0.11719 -0.49219,-0.39844 0,-0.17578 0.0703,-0.30469 0.22266,-0.5625 l 0.90234,-1.51172 h 3.05859 c 0.0117,0.10547 0.0117,0.21094 0.0234,0.31641 0.0352,0.30468 0.17578,1.54687 0.17578,1.78125 0,0.35156 -0.60937,0.375 -0.79687,0.375 -0.14063,0 -0.26953,0 -0.26953,0.22265 0,0.12891 0.10546,0.12891 0.17578,0.12891 0.21093,0 0.44531,-0.0234 0.65625,-0.0234 h 0.67968 c 0.72657,0 1.25391,0.0234 1.26563,0.0234 0.082,0 0.21094,0 0.21094,-0.22266 0,-0.1289 -0.10547,-0.1289 -0.28125,-0.1289 -0.65625,0 -0.66797,-0.10547 -0.71485,-0.45703 l -0.72656,-7.46485 c -0.0234,-0.23437 -0.0703,-0.25781 -0.19922,-0.25781 -0.11719,0 -0.1875,0.0234 -0.30469,0.19922 z m 1.44141,-1.83984 2.40234,-4.01953 0.41016,4.01953 z m 14.23535,-5.14453 c 0,-0.10547 -0.082,-0.10547 -0.10547,-0.10547 -0.0234,0 -0.0703,0 -0.17578,0.11718 l -0.82031,1.00782 c -0.42188,-0.71485 -1.07813,-1.125 -1.96875,-1.125 -2.58985,0 -5.26172,2.61328 -5.26172,5.42578 0,1.99219 1.39453,3.23437 3.14062,3.23437 0.96094,0 1.79297,-0.39843 2.48438,-0.98437 1.04297,-0.87891 1.35937,-2.03906 1.35937,-2.13281 0,-0.10547 -0.0937,-0.10547 -0.14062,-0.10547 -0.10547,0 -0.11719,0.0703 -0.14063,0.11718 -0.55078,1.86329 -2.15625,2.76563 -3.35156,2.76563 -1.27734,0 -2.36719,-0.82031 -2.36719,-2.50781 0,-0.38672 0.11719,-2.46094 1.46485,-4.03125 0.65625,-0.76172 1.78125,-1.44141 2.91796,-1.44141 1.3125,0 1.89844,1.08984 1.89844,2.30859 0,0.31641 -0.0352,0.57422 -0.0352,0.6211 0,0.11719 0.11718,0.11719 0.15234,0.11719 0.14062,0 0.15234,-0.0117 0.19922,-0.23438 z m 2.17969,7.42968 c -0.10547,0.41016 -0.12891,0.52735 -0.96094,0.52735 -0.23438,0 -0.35156,0 -0.35156,0.22265 0,0.12891 0.0703,0.12891 0.30468,0.12891 h 3.79688 c 2.41406,0 4.76953,-2.49609 4.76953,-5.16797 0,-1.72266 -1.03125,-3 -2.74219,-3 h -3.83203 c -0.23437,0 -0.33984,0 -0.33984,0.23438 0,0.11718 0.10547,0.11718 0.29297,0.11718 0.72656,0 0.72656,0.0937 0.72656,0.22266 0,0.0234 0,0.0937 -0.0469,0.28125 z m 2.51953,-6.46875 c 0.11718,-0.44531 0.16406,-0.46875 0.62109,-0.46875 h 1.32422 c 1.11328,0 2.14453,0.60938 2.14453,2.26172 0,0.59766 -0.23437,2.67188 -1.39453,3.98438 -0.33984,0.39843 -1.24219,1.21875 -2.625,1.21875 h -1.35938 c -0.16406,0 -0.1875,0 -0.25781,-0.0117 -0.1289,-0.0117 -0.14062,-0.0352 -0.14062,-0.12891 0,-0.082 0.0234,-0.15234 0.0469,-0.25781 z m 0,0"
         style="fill:#000000;fill-opacity:1;fill-rule:nonzero;stroke:none" />
      <path
         id="path12"
         d="m -83.722687,265.27222 h -0.269532 c -0.03516,0.19922 -0.128906,0.85547 -0.246093,1.04297 -0.08203,0.11719 -0.761719,0.11719 -1.125,0.11719 h -2.214844 c 0.328125,-0.28125 1.054687,-1.04297 1.371094,-1.33594 1.816406,-1.66406 2.484375,-2.28516 2.484375,-3.46875 0,-1.38281 -1.089844,-2.29688 -2.472657,-2.29688 -1.394531,0 -2.203125,1.1836 -2.203125,2.20313 0,0.60937 0.527344,0.60937 0.5625,0.60937 0.246094,0 0.5625,-0.17578 0.5625,-0.5625 0,-0.32812 -0.234375,-0.55078 -0.5625,-0.55078 -0.105468,0 -0.128906,0 -0.164062,0.0117 0.222656,-0.82031 0.867187,-1.37109 1.640625,-1.37109 1.019531,0 1.640625,0.85547 1.640625,1.95703 0,1.00781 -0.585938,1.89844 -1.265625,2.66015 l -2.414063,2.70704 v 0.28125 h 4.359375 z m 0,0"
         style="fill:#000000;fill-opacity:1;fill-rule:nonzero;stroke:none" />
      <path
         id="path13"
         d="m -73.776398,262.98706 c -0.210938,0.0117 -0.257813,0.0234 -0.257813,0.12891 0,0.11719 0.05859,0.11719 0.28125,0.11719 h 0.550781 c 1.007813,0 1.464844,0.84375 1.464844,1.99218 0,1.5586 -0.808594,1.98047 -1.394531,1.98047 -0.574219,0 -1.558594,-0.28125 -1.898438,-1.0664 0.375,0.0586 0.726563,-0.15235 0.726563,-0.58594 0,-0.33984 -0.257813,-0.58594 -0.585938,-0.58594 -0.292968,0 -0.597656,0.16406 -0.597656,0.6211 0,1.0664 1.066406,1.93359 2.390625,1.93359 1.417969,0 2.472656,-1.07813 2.472656,-2.28516 0,-1.10156 -0.890625,-1.96875 -2.027343,-2.16797 1.03125,-0.30468 1.699218,-1.17187 1.699218,-2.10937 0,-0.9375 -0.972656,-1.62891 -2.132812,-1.62891 -1.195313,0 -2.085938,0.72657 -2.085938,1.59375 0,0.48047 0.375,0.57422 0.550782,0.57422 0.257812,0 0.539062,-0.17578 0.539062,-0.53906 0,-0.375 -0.28125,-0.53906 -0.550781,-0.53906 -0.07031,0 -0.09375,0 -0.128906,0.0117 0.457031,-0.82032 1.582031,-0.82032 1.640625,-0.82032 0.386718,0 1.171875,0.17578 1.171875,1.34766 0,0.23437 -0.03516,0.90234 -0.386719,1.41797 -0.351563,0.52734 -0.761719,0.5625 -1.089844,0.57422 z m 0,0"
         style="fill:#000000;fill-opacity:1;fill-rule:nonzero;stroke:none" />
      <path
         id="path14"
         d="m -61.439484,260.43238 c 0.503906,0.16406 0.925781,0.17578 1.054687,0.17578 1.359375,0 2.214844,-0.9961 2.214844,-1.16016 0,-0.0469 -0.02344,-0.10547 -0.09375,-0.10547 -0.02344,0 -0.04687,0 -0.152344,0.0469 -0.667969,0.28125 -1.242187,0.3164 -1.558594,0.3164 -0.785156,0 -1.347656,-0.23437 -1.582031,-0.32812 -0.08203,-0.0352 -0.105469,-0.0352 -0.117187,-0.0352 -0.09375,0 -0.09375,0.0703 -0.09375,0.25781 v 3.55079 c 0,0.21093 0,0.29296 0.140625,0.29296 0.05859,0 0.07031,-0.0117 0.199218,-0.16406 0.328125,-0.49219 0.890625,-0.77344 1.488282,-0.77344 0.632812,0 0.949218,0.58594 1.042968,0.78516 0.199219,0.46875 0.210938,1.05469 0.210938,1.51172 0,0.45703 0,1.13672 -0.328125,1.67578 -0.269531,0.42188 -0.738281,0.72656 -1.253906,0.72656 -0.796875,0 -1.570313,-0.53906 -1.78125,-1.40625 0.05859,0.0234 0.128906,0.0352 0.1875,0.0352 0.199218,0 0.527343,-0.12891 0.527343,-0.52734 0,-0.33985 -0.234375,-0.52735 -0.527343,-0.52735 -0.210938,0 -0.527344,0.10547 -0.527344,0.57422 0,1.00781 0.808594,2.16797 2.144531,2.16797 1.347656,0 2.53125,-1.125 2.53125,-2.64844 0,-1.41797 -0.960937,-2.60156 -2.214844,-2.60156 -0.679687,0 -1.207031,0.29297 -1.511718,0.63281 z m 0,0"
         style="fill:#000000;fill-opacity:1;fill-rule:nonzero;stroke:none" />
      <path
         id="path15"
         d="m -44.286164,259.85816 v -0.28125 h -2.882813 c -1.453125,0 -1.476562,-0.15235 -1.523437,-0.38672 h -0.257813 l -0.375,2.39062 h 0.269532 c 0.03516,-0.21093 0.140625,-0.94922 0.292968,-1.07812 0.09375,-0.0703 0.996094,-0.0703 1.160157,-0.0703 h 2.53125 l -1.265625,1.8164 c -0.316407,0.45703 -1.523438,2.42578 -1.523438,4.66406 0,0.14063 0,0.60938 0.480469,0.60938 0.503906,0 0.503906,-0.45703 0.503906,-0.62109 v -0.59766 c 0,-1.78125 0.292969,-3.16406 0.855469,-3.96094 z m 0,0"
         style="fill:#000000;fill-opacity:1;fill-rule:nonzero;stroke:none" />
      <path
         id="path16"
         d="m 4.3935234,302.67847 c 0,-0.26953 0,-0.28125 -0.2460937,-0.28125 -0.28125,0.31641 -0.8789063,0.76172 -2.109375,0.76172 v 0.35156 c 0.2695312,0 0.8671875,0 1.5234375,-0.31641 v 6.22266 c 0,0.43359 -0.035156,0.57422 -1.078125,0.57422 h -0.375 v 0.35156 c 0.3164062,-0.0234 1.4765625,-0.0234 1.875,-0.0234 0.3984375,0 1.546875,0 1.8632812,0.0234 v -0.35156 H 5.4833672 c -1.0546875,0 -1.0898438,-0.14063 -1.0898438,-0.57422 z m 6.7792966,4.18359 c 0,2.82422 -1.2539059,3.41016 -1.9687497,3.41016 -0.28125,0 -0.9257812,-0.0352 -1.21875,-0.45703 h 0.070312 c 0.082031,0.0234 0.515625,-0.0469 0.515625,-0.49219 0,-0.25781 -0.1757812,-0.49219 -0.4921875,-0.49219 -0.3046875,0 -0.5039062,0.21094 -0.5039062,0.51563 0,0.75 0.5976562,1.24219 1.640625,1.24219 1.5000004,0 2.9414054,-1.58204 2.9414054,-4.1836 0,-3.21094 -1.335936,-4.00781 -2.3906242,-4.00781 -1.3125,0 -2.4726562,1.10156 -2.4726562,2.67187 0,1.58204 1.1132812,2.66016 2.3085937,2.66016 0.8789057,0 1.3359367,-0.64453 1.5703117,-1.25391 z m -1.5234372,0.6211 c -0.75,0 -1.078125,-0.60938 -1.1835937,-0.83203 -0.1992188,-0.45704 -0.1992188,-1.03125 -0.1992188,-1.57032 0,-0.66797 0,-1.24218 0.3164063,-1.73437 0.2109375,-0.31641 0.5390625,-0.66797 1.1835937,-0.66797 0.6796877,0 1.0312497,0.59766 1.1484377,0.87891 0.234375,0.58593 0.234375,1.59375 0.234375,1.78125 0,0.99609 -0.445313,2.14453 -1.5000002,2.14453 z m 0,0"
         style="fill:#000000;fill-opacity:1;fill-rule:nonzero;stroke:none" />
      <path
         id="path17"
         d="m 58.112273,302.67847 c 0,-0.26953 0,-0.28125 -0.246093,-0.28125 -0.28125,0.31641 -0.878907,0.76172 -2.109375,0.76172 v 0.35156 c 0.269531,0 0.867187,0 1.523437,-0.31641 v 6.22266 c 0,0.43359 -0.03516,0.57422 -1.078125,0.57422 h -0.375 v 0.35156 c 0.316406,-0.0234 1.476563,-0.0234 1.875,-0.0234 0.398438,0 1.546875,0 1.863281,0.0234 v -0.35156 h -0.363281 c -1.054687,0 -1.089844,-0.14063 -1.089844,-0.57422 z m 4.611329,3.375 c -0.210938,0.0117 -0.257813,0.0234 -0.257813,0.12891 0,0.11718 0.05859,0.11718 0.28125,0.11718 h 0.550781 c 1.007813,0 1.464844,0.84375 1.464844,1.99219 0,1.55859 -0.808594,1.98047 -1.394531,1.98047 -0.574219,0 -1.558594,-0.28125 -1.898438,-1.06641 0.375,0.0586 0.726563,-0.15234 0.726563,-0.58593 0,-0.33985 -0.257813,-0.58594 -0.585938,-0.58594 -0.292968,0 -0.597656,0.16406 -0.597656,0.62109 0,1.06641 1.066406,1.9336 2.390625,1.9336 1.417969,0 2.472656,-1.07813 2.472656,-2.28516 0,-1.10156 -0.890625,-1.96875 -2.027343,-2.16797 1.03125,-0.30469 1.699218,-1.17187 1.699218,-2.10937 0,-0.9375 -0.972656,-1.62891 -2.132812,-1.62891 -1.195313,0 -2.085938,0.72656 -2.085938,1.59375 0,0.48047 0.375,0.57422 0.550782,0.57422 0.257812,0 0.539062,-0.17578 0.539062,-0.53906 0,-0.375 -0.28125,-0.53907 -0.550781,-0.53907 -0.07031,0 -0.09375,0 -0.128906,0.0117 0.457031,-0.82031 1.582031,-0.82031 1.640625,-0.82031 0.386718,0 1.171875,0.17578 1.171875,1.34766 0,0.23437 -0.03516,0.90234 -0.386719,1.41796 -0.351563,0.52735 -0.761719,0.5625 -1.089844,0.57422 z m 0,0"
         style="fill:#000000;fill-opacity:1;fill-rule:nonzero;stroke:none" />
      <path
         id="path18"
         d="m 201.07809,302.67847 c 0,-0.26953 0,-0.28125 -0.24609,-0.28125 -0.28125,0.31641 -0.87891,0.76172 -2.10937,0.76172 v 0.35156 c 0.26953,0 0.86718,0 1.52343,-0.31641 v 6.22266 c 0,0.43359 -0.0351,0.57422 -1.07812,0.57422 h -0.375 v 0.35156 c 0.3164,-0.0234 1.47656,-0.0234 1.875,-0.0234 0.39844,0 1.54687,0 1.86328,0.0234 v -0.35156 h -0.36328 c -1.05469,0 -1.08985,-0.14063 -1.08985,-0.57422 z m 7.66993,5.66016 h -0.26954 c -0.0351,0.19921 -0.1289,0.85546 -0.24609,1.04296 -0.082,0.11719 -0.76172,0.11719 -1.125,0.11719 h -2.21484 c 0.32812,-0.28125 1.05468,-1.04297 1.37109,-1.33594 1.81641,-1.66406 2.48438,-2.28515 2.48438,-3.46875 0,-1.38281 -1.08985,-2.29687 -2.47266,-2.29687 -1.39453,0 -2.20313,1.18359 -2.20313,2.20312 0,0.60938 0.52735,0.60938 0.5625,0.60938 0.2461,0 0.5625,-0.17578 0.5625,-0.5625 0,-0.32813 -0.23437,-0.55078 -0.5625,-0.55078 -0.10546,0 -0.1289,0 -0.16406,0.0117 0.22266,-0.82032 0.86719,-1.3711 1.64063,-1.3711 1.01953,0 1.64062,0.85547 1.64062,1.95703 0,1.00782 -0.58594,1.89844 -1.26562,2.66016 l -2.41407,2.70703 v 0.28125 h 4.35938 z m 0,0"
         style="fill:#000000;fill-opacity:1;fill-rule:nonzero;stroke:none" />
      <path
         id="path19"
         d="m -136.93167,320.47339 c 0.59765,-0.32812 1.46484,-0.87891 1.46484,-1.875 0,-1.04297 -0.99609,-1.75781 -2.09765,-1.75781 -1.1836,0 -2.1211,0.86719 -2.1211,1.95703 0,0.41016 0.12891,0.80859 0.45703,1.21875 0.12891,0.15234 0.14063,0.16406 0.98438,0.75 -1.16016,0.53906 -1.75781,1.34766 -1.75781,2.21484 0,1.26563 1.20703,2.05078 2.42578,2.05078 1.32422,0 2.4375,-0.97265 2.4375,-2.22656 0,-1.21875 -0.85547,-1.75781 -1.79297,-2.33203 z m -1.62891,-1.07812 c -0.15234,-0.10547 -0.63281,-0.42188 -0.63281,-1.00782 0,-0.77343 0.82031,-1.26562 1.61719,-1.26562 0.85547,0 1.6289,0.62109 1.6289,1.48828 0,0.72656 -0.52734,1.3125 -1.21875,1.6875 z m 0.5625,1.54687 c 0.32813,0.21094 1.125,0.72656 1.45313,0.9375 0.30468,0.19922 0.85547,0.57422 0.85547,1.30078 0,0.91406 -0.91407,1.53516 -1.875,1.53516 -1.01954,0 -1.88672,-0.73828 -1.88672,-1.73438 0,-0.9375 0.67968,-1.6875 1.45312,-2.03906 z m 0,0"
         style="fill:#000000;fill-opacity:1;fill-rule:nonzero;stroke:none" />
      <path
         id="path20"
         d="m 17.336883,389.08081 c 0,-0.26953 0,-0.28125 -0.246094,-0.28125 -0.28125,0.31641 -0.878906,0.76172 -2.109375,0.76172 v 0.35156 c 0.269531,0 0.867188,0 1.523438,-0.3164 v 6.22265 c 0,0.4336 -0.03516,0.57422 -1.078125,0.57422 h -0.375 v 0.35157 c 0.316406,-0.0234 1.476562,-0.0234 1.875,-0.0234 0.398437,0 1.546875,0 1.863281,0.0234 v -0.35157 h -0.363281 c -1.054688,0 -1.089844,-0.14062 -1.089844,-0.57422 z m 7.763672,3.84375 c 0,-0.99609 -0.05859,-1.96875 -0.492188,-2.87109 -0.492187,-0.99609 -1.347656,-1.25391 -1.933594,-1.25391 -0.691406,0 -1.546875,0.33985 -1.980468,1.33594 -0.339844,0.75 -0.457032,1.48828 -0.457032,2.78906 0,1.16016 0.08203,2.02735 0.515625,2.8711 0.457032,0.91406 1.289063,1.19531 1.910157,1.19531 1.042968,0 1.640625,-0.62109 1.980468,-1.3125 0.433594,-0.89063 0.457032,-2.0625 0.457032,-2.75391 z m -2.4375,3.83203 c -0.386719,0 -1.160157,-0.21093 -1.382813,-1.52343 -0.140625,-0.71485 -0.140625,-1.61719 -0.140625,-2.46094 0,-0.97266 0,-1.86328 0.199219,-2.56641 0.199219,-0.79687 0.808594,-1.17187 1.324219,-1.17187 0.457031,0 1.148437,0.28125 1.371093,1.30078 0.152344,0.67969 0.152344,1.62891 0.152344,2.4375 0,0.80859 0,1.71094 -0.128906,2.4375 -0.222656,1.32422 -0.972656,1.54687 -1.394531,1.54687 z m 0,0"
         style="fill:#000000;fill-opacity:1;fill-rule:nonzero;stroke:none" />
    </g>
    <path
       id="path21"
       d="M 0,0 H 160.261"
       style="fill:none;stroke:#000000;stroke-width:0.398;stroke-linecap:butt;stroke-linejoin:miter;stroke-miterlimit:10;stroke-dasharray:none;stroke-opacity:1"
       transform="matrix(1.3333333,0,0,-1.3333333,291.52133,622.29867)" />
    <path
       id="path22"
       d="M 0,0 V 14.446"
       style="fill:none;stroke:#000000;stroke-width:0.398;stroke-linecap:butt;stroke-linejoin:miter;stroke-miterlimit:10;stroke-dasharray:none;stroke-opacity:1"
       transform="matrix(1.3333333,0,0,-1.3333333,291.52133,641.82533)" />
    <path
       id="path23"
       d="M 0,0 V 14.446"
       style="fill:none;stroke:#000000;stroke-width:0.398;stroke-linecap:butt;stroke-linejoin:miter;stroke-miterlimit:10;stroke-dasharray:none;stroke-opacity:1"
       transform="matrix(1.3333333,0,0,-1.3333333,315.264,641.82533)" />
    <path
       id="path24"
       d="M 0,0 V 14.446"
       style="fill:none;stroke:#000000;stroke-width:0.398;stroke-linecap:butt;stroke-linejoin:miter;stroke-miterlimit:10;stroke-dasharray:none;stroke-opacity:1"
       transform="matrix(1.3333333,0,0,-1.3333333,339.00667,641.82533)" />
    <path
       id="path25"
       d="M 0,0 V 14.446"
       style="fill:none;stroke:#000000;stroke-width:0.398;stroke-linecap:butt;stroke-linejoin:miter;stroke-miterlimit:10;stroke-dasharray:none;stroke-opacity:1"
       transform="matrix(1.3333333,0,0,-1.3333333,362.748,641.82533)" />
    <path
       id="path26"
       d="M 0,0 V 14.446"
       style="fill:none;stroke:#000000;stroke-width:0.398;stroke-linecap:butt;stroke-linejoin:miter;stroke-miterlimit:10;stroke-dasharray:none;stroke-opacity:1"
       transform="matrix(1.3333333,0,0,-1.3333333,386.49067,641.82533)" />
    <path
       id="path27"
       d="M 0,0 V 14.446"
       style="fill:none;stroke:#000000;stroke-width:0.398;stroke-linecap:butt;stroke-linejoin:miter;stroke-miterlimit:10;stroke-dasharray:none;stroke-opacity:1"
       transform="matrix(1.3333333,0,0,-1.3333333,410.23333,641.82533)" />
    <path
       id="path28"
       d="M 0,0 V 14.446"
       style="fill:none;stroke:#000000;stroke-width:0.398;stroke-linecap:butt;stroke-linejoin:miter;stroke-miterlimit:10;stroke-dasharray:none;stroke-opacity:1"
       transform="matrix(1.3333333,0,0,-1.3333333,433.976,641.82533)" />
    <path
       id="path29"
       d="M 0,0 V 14.446"
       style="fill:none;stroke:#000000;stroke-width:0.398;stroke-linecap:butt;stroke-linejoin:miter;stroke-miterlimit:10;stroke-dasharray:none;stroke-opacity:1"
       transform="matrix(1.3333333,0,0,-1.3333333,457.71867,641.82533)" />
    <path
       id="path30"
       d="M 0,0 V 14.446"
       style="fill:none;stroke:#000000;stroke-width:0.398;stroke-linecap:butt;stroke-linejoin:miter;stroke-miterlimit:10;stroke-dasharray:none;stroke-opacity:1"
       transform="matrix(1.3333333,0,0,-1.3333333,481.46,641.82533)" />
    <path
       id="path31"
       d="M 0,0 V 14.446"
       style="fill:none;stroke:#000000;stroke-width:0.398;stroke-linecap:butt;stroke-linejoin:miter;stroke-miterlimit:10;stroke-dasharray:none;stroke-opacity:1"
       transform="matrix(1.3333333,0,0,-1.3333333,505.20267,641.82533)" />
    <path
       id="path32"
       d="M 0,0 H 160.261"
       style="fill:none;stroke:#000000;stroke-width:0.398;stroke-linecap:butt;stroke-linejoin:miter;stroke-miterlimit:10;stroke-dasharray:none;stroke-opacity:1"
       transform="matrix(1.3333333,0,0,-1.3333333,291.52133,642.09067)" />
    <path
       id="path33"
       d="M 0,0 V 14.446"
       style="fill:none;stroke:#000000;stroke-width:0.398;stroke-linecap:butt;stroke-linejoin:miter;stroke-miterlimit:10;stroke-dasharray:none;stroke-opacity:1"
       transform="matrix(1.3333333,0,0,-1.3333333,291.52133,661.61733)" />
    <path
       id="path34"
       d="M 0,0 V 14.446"
       style="fill:none;stroke:#000000;stroke-width:0.398;stroke-linecap:butt;stroke-linejoin:miter;stroke-miterlimit:10;stroke-dasharray:none;stroke-opacity:1"
       transform="matrix(1.3333333,0,0,-1.3333333,315.264,661.61733)" />
    <path
       id="path35"
       d="M 0,0 V 14.446"
       style="fill:none;stroke:#000000;stroke-width:0.398;stroke-linecap:butt;stroke-linejoin:miter;stroke-miterlimit:10;stroke-dasharray:none;stroke-opacity:1"
       transform="matrix(1.3333333,0,0,-1.3333333,315.264,661.61733)" />
    <path
       id="path36"
       d="M 0,0 V 14.446"
       style="fill:none;stroke:#000000;stroke-width:0.398;stroke-linecap:butt;stroke-linejoin:miter;stroke-miterlimit:10;stroke-dasharray:none;stroke-opacity:1"
       transform="matrix(1.3333333,0,0,-1.3333333,481.46,661.61733)" />
    <path
       id="path37"
       d="M 0,0 V 14.446"
       style="fill:none;stroke:#000000;stroke-width:0.398;stroke-linecap:butt;stroke-linejoin:miter;stroke-miterlimit:10;stroke-dasharray:none;stroke-opacity:1"
       transform="matrix(1.3333333,0,0,-1.3333333,505.20267,661.61733)" />
    <path
       id="path38"
       d="M 0,0 H 160.261"
       style="fill:none;stroke:#000000;stroke-width:0.398;stroke-linecap:butt;stroke-linejoin:miter;stroke-miterlimit:10;stroke-dasharray:none;stroke-opacity:1"
       transform="matrix(1.3333333,0,0,-1.3333333,291.52133,661.884)" />
    <path
       id="path39"
       d="M 0,0 V 14.446"
       style="fill:none;stroke:#000000;stroke-width:0.398;stroke-linecap:butt;stroke-linejoin:miter;stroke-miterlimit:10;stroke-dasharray:none;stroke-opacity:1"
       transform="matrix(1.3333333,0,0,-1.3333333,291.52133,681.41067)" />
    <path
       id="path40"
       d="M 0,0 V 14.446"
       style="fill:none;stroke:#000000;stroke-width:0.398;stroke-linecap:butt;stroke-linejoin:miter;stroke-miterlimit:10;stroke-dasharray:none;stroke-opacity:1"
       transform="matrix(1.3333333,0,0,-1.3333333,315.264,681.41067)" />
    <path
       id="path41"
       d="M 0,0 V 14.446"
       style="fill:none;stroke:#000000;stroke-width:0.398;stroke-linecap:butt;stroke-linejoin:miter;stroke-miterlimit:10;stroke-dasharray:none;stroke-opacity:1"
       transform="matrix(1.3333333,0,0,-1.3333333,339.00667,681.41067)" />
    <path
       id="path42"
       d="M 0,0 V 14.446"
       style="fill:none;stroke:#000000;stroke-width:0.398;stroke-linecap:butt;stroke-linejoin:miter;stroke-miterlimit:10;stroke-dasharray:none;stroke-opacity:1"
       transform="matrix(1.3333333,0,0,-1.3333333,362.748,681.41067)" />
    <path
       id="path43"
       d="M 0,0 V 14.446"
       style="fill:none;stroke:#000000;stroke-width:0.398;stroke-linecap:butt;stroke-linejoin:miter;stroke-miterlimit:10;stroke-dasharray:none;stroke-opacity:1"
       transform="matrix(1.3333333,0,0,-1.3333333,386.49067,681.41067)" />
    <path
       id="path44"
       d="M 0,0 V 14.446"
       style="fill:none;stroke:#000000;stroke-width:0.398;stroke-linecap:butt;stroke-linejoin:miter;stroke-miterlimit:10;stroke-dasharray:none;stroke-opacity:1"
       transform="matrix(1.3333333,0,0,-1.3333333,410.23333,681.41067)" />
    <path
       id="path45"
       d="M 0,0 V 14.446"
       style="fill:none;stroke:#000000;stroke-width:0.398;stroke-linecap:butt;stroke-linejoin:miter;stroke-miterlimit:10;stroke-dasharray:none;stroke-opacity:1"
       transform="matrix(1.3333333,0,0,-1.3333333,433.976,681.41067)" />
    <path
       id="path46"
       d="M 0,0 V 14.446"
       style="fill:none;stroke:#000000;stroke-width:0.398;stroke-linecap:butt;stroke-linejoin:miter;stroke-miterlimit:10;stroke-dasharray:none;stroke-opacity:1"
       transform="matrix(1.3333333,0,0,-1.3333333,457.71867,681.41067)" />
    <path
       id="path47"
       d="M 0,0 V 14.446"
       style="fill:none;stroke:#000000;stroke-width:0.398;stroke-linecap:butt;stroke-linejoin:miter;stroke-miterlimit:10;stroke-dasharray:none;stroke-opacity:1"
       transform="matrix(1.3333333,0,0,-1.3333333,481.46,681.41067)" />
    <path
       id="path48"
       d="M 0,0 V 14.446"
       style="fill:none;stroke:#000000;stroke-width:0.398;stroke-linecap:butt;stroke-linejoin:miter;stroke-miterlimit:10;stroke-dasharray:none;stroke-opacity:1"
       transform="matrix(1.3333333,0,0,-1.3333333,505.20267,681.41067)" />
    <path
       id="path49"
       d="M 0,0 H 160.261"
       style="fill:none;stroke:#000000;stroke-width:0.398;stroke-linecap:butt;stroke-linejoin:miter;stroke-miterlimit:10;stroke-dasharray:none;stroke-opacity:1"
       transform="matrix(1.3333333,0,0,-1.3333333,291.52133,681.676)" />
  </g>
</svg>
