<?xml version="1.0" encoding="UTF-8" standalone="no"?>
<!-- Created with Inkscape (http://www.inkscape.org/) -->

<svg
   version="1.1"
   id="svg1"
   width="793.62665"
   height="1122.6667"
   viewBox="0 0 793.62665 1122.6667"
   sodipodi:docname="F1_M_PR_M2011_page18.pdf"
   xmlns:inkscape="http://www.inkscape.org/namespaces/inkscape"
   xmlns:sodipodi="http://sodipodi.sourceforge.net/DTD/sodipodi-0.dtd"
   xmlns="http://www.w3.org/2000/svg"
   xmlns:svg="http://www.w3.org/2000/svg">
  <defs
     id="defs1" />
  <sodipodi:namedview
     id="namedview1"
     pagecolor="#ffffff"
     bordercolor="#000000"
     borderopacity="0.25"
     inkscape:showpageshadow="2"
     inkscape:pageopacity="0.0"
     inkscape:pagecheckerboard="0"
     inkscape:deskcolor="#d1d1d1">
    <inkscape:page
       x="0"
       y="0"
       inkscape:label="1"
       id="page1"
       width="793.62665"
       height="1122.6667"
       margin="0"
       bleed="0" />
  </sodipodi:namedview>
  <g
     id="g1"
     inkscape:groupmode="layer"
     inkscape:label="1">
    <text
       id="text1"
       xml:space="preserve"
       transform="matrix(1.3333333,0,0,1.3333333,326.72,60.2396)"><tspan
         style="font-style:italic;font-variant:normal;font-weight:normal;font-stretch:normal;font-size:10.02px;font-family:'Times New Roman';writing-mode:lr-tb;fill:#000000;fill-opacity:1;fill-rule:nonzero;stroke:none"
         x="0 6.131238 11.150256 14.988918 20.028978 27.272436 29.973827 34.992847 37.452755 44.696213 49.715233 52.416622 57.456684 61.295345 66.335403 69.129982 74.149002 78.606903 81.066811 84.97361 87.433517 94.676979 99.695992 102.49057 106.87231 114.11578 119.1348 121.83619 126.29408 130.75198 133.54655"
         y="0"
         sodipodi:role="line"
         id="tspan1">Egzamin maturalny z matematyki </tspan><tspan
         style="font-style:italic;font-variant:normal;font-weight:normal;font-stretch:normal;font-size:10.02px;font-family:'Times New Roman';writing-mode:lr-tb;fill:#000000;fill-opacity:1;fill-rule:nonzero;stroke:none"
         x="26.939772 33.061993 38.071991 41.969772 44.755333 49.765331 56.999771 59.519802 63.358463 68.398521 72.296303 76.134964 80.032745 84.481628 88.32029 92.21907 97.229073 102.23907 106.68795"
         y="11.580114"
         sodipodi:role="line"
         id="tspan2">Poziom rozszerzony </tspan></text>
    <path
       id="path2"
       d="m 83.58,781.52 h 456.54 v 0.48004 H 83.58 Z"
       style="fill:#000000;fill-opacity:1;fill-rule:nonzero;stroke:none"
       transform="matrix(1.3333333,0,0,-1.3333333,0,1122.6667)" />
    <text
       id="text2"
       xml:space="preserve"
       transform="matrix(1.3333333,0,0,1.3333333,704.8,60.4796)"><tspan
         style="font-style:italic;font-variant:normal;font-weight:700;font-stretch:normal;font-size:10.02px;font-family:'Times New Roman';writing-mode:lr-tb;fill:#000000;fill-opacity:1;fill-rule:nonzero;stroke:none"
         x="0 5.04006"
         y="0"
         sodipodi:role="line"
         id="tspan3">19</tspan></text>
    <text
       id="text3"
       xml:space="preserve"
       transform="matrix(1.3333333,0,0,1.3333333,352.96,114.3996)"><tspan
         style="font-variant:normal;font-weight:700;font-stretch:normal;font-size:16.02px;font-family:'Times New Roman';writing-mode:lr-tb;fill:#000000;fill-opacity:1;fill-rule:nonzero;stroke:none"
         x="0 10.67733 22.23576 33.794189 45.352619 56.911049 69.3666 79.146812 85.370583"
         y="0"
         sodipodi:role="line"
         id="tspan4">BRUDNOPIS</tspan><tspan
         style="font-variant:normal;font-weight:normal;font-stretch:normal;font-size:16.02px;font-family:'Times New Roman';writing-mode:lr-tb;fill:#000000;fill-opacity:1;fill-rule:nonzero;stroke:none"
         x="94.260078"
         y="0"
         id="tspan5"> </tspan></text>
  </g>
</svg>
