<?xml version="1.0" encoding="UTF-8" standalone="no"?>
<!-- Created with Inkscape (http://www.inkscape.org/) -->

<svg
   version="1.1"
   id="svg1"
   width="794.55066"
   height="1123.6533"
   viewBox="0 0 794.55066 1123.6533"
   sodipodi:docname="LigaMatematycznaMatuskiego_Liceum_Zestaw3_2018_2019_page0.pdf"
   xmlns:inkscape="http://www.inkscape.org/namespaces/inkscape"
   xmlns:sodipodi="http://sodipodi.sourceforge.net/DTD/sodipodi-0.dtd"
   xmlns="http://www.w3.org/2000/svg"
   xmlns:svg="http://www.w3.org/2000/svg">
  <defs
     id="defs1" />
  <sodipodi:namedview
     id="namedview1"
     pagecolor="#ffffff"
     bordercolor="#000000"
     borderopacity="0.25"
     inkscape:showpageshadow="2"
     inkscape:pageopacity="0.0"
     inkscape:pagecheckerboard="0"
     inkscape:deskcolor="#d1d1d1">
    <inkscape:page
       x="0"
       y="0"
       inkscape:label="1"
       id="page1"
       width="794.55066"
       height="1123.6533"
       margin="0"
       bleed="0" />
  </sodipodi:namedview>
  <g
     id="g1"
     inkscape:groupmode="layer"
     inkscape:label="1">
    <g
       id="g2"
       aria-label="LIGAMATEMATYCZNA&#10;im.ZdzisªawaMatuskiego&#10;GRUDZIE2018&#10;SZKOAPONADPODSTAWOWA&#10;ZADANIE1.&#10;DanyjesttrapezABCDopolu15ipodstawachABorazCD.Dwusiecznak¡taCBAjest&#10;prostopadªadoramieniaADiprzecinajewtakimpunkcieE,»e&#10;|AE|"
       transform="matrix(1.3333333,0,0,1.3333333,274.724,56.069333)">
      <path
         id="path2"
         d="m -54.522492,108.48999 c -0.410156,0.70313 -0.820313,0.9375 -1.394531,0.97266 -0.128907,0.0117 -0.222657,0.0117 -0.222657,0.23437 0,0.0703 0.05859,0.11719 0.140625,0.11719 0.210938,0 0.75,-0.0234 0.972657,-0.0234 0.339843,0 0.726562,0.0234 1.054687,0.0234 0.07031,0 0.222656,0 0.222656,-0.22266 0,-0.11718 -0.09375,-0.1289 -0.175781,-0.1289 -0.269531,-0.0234 -0.492187,-0.11719 -0.492187,-0.39844 0,-0.17578 0.07031,-0.30469 0.222656,-0.5625 l 0.902344,-1.51172 h 3.058593 c 0.01172,0.10547 0.01172,0.21094 0.02344,0.31641 0.03516,0.30469 0.175781,1.54687 0.175781,1.78125 0,0.35156 -0.609375,0.375 -0.796875,0.375 -0.140625,0 -0.269531,0 -0.269531,0.22265 0,0.12891 0.105469,0.12891 0.175781,0.12891 0.210938,0 0.445313,-0.0234 0.65625,-0.0234 h 0.679688 c 0.726562,0 1.253906,0.0234 1.265625,0.0234 0.08203,0 0.210937,0 0.210937,-0.22266 0,-0.1289 -0.105469,-0.1289 -0.28125,-0.1289 -0.65625,0 -0.667969,-0.10547 -0.714844,-0.45703 l -0.726562,-7.46485 c -0.02344,-0.23437 -0.07031,-0.25781 -0.199219,-0.25781 -0.117187,0 -0.1875,0.0234 -0.304687,0.19922 z m 1.441406,-1.83984 2.402344,-4.01953 0.410156,4.01953 z m 9.676758,-4.1836 c 0.117187,-0.44531 0.164062,-0.46875 0.621094,-0.46875 h 1.558593 c 1.347657,0 1.347657,1.14844 1.347657,1.25391 0,0.97266 -0.960938,2.20313 -2.542969,2.20313 h -1.722656 z m 2.027344,3.08204 c 1.300781,-0.2461 2.484375,-1.14844 2.484375,-2.25 0,-0.92579 -0.832032,-1.65235 -2.179688,-1.65235 h -3.832031 c -0.234375,0 -0.339844,0 -0.339844,0.23438 0,0.11718 0.105469,0.11718 0.292969,0.11718 0.726562,0 0.726562,0.0937 0.726562,0.22266 0,0.0234 0,0.0937 -0.04687,0.28125 l -1.617187,6.43359 c -0.105469,0.41016 -0.128906,0.52735 -0.960938,0.52735 -0.234375,0 -0.351562,0 -0.351562,0.22265 0,0.12891 0.07031,0.12891 0.304687,0.12891 h 4.101563 c 1.828125,0 3.246094,-1.38281 3.246094,-2.58984 0,-0.98438 -0.867188,-1.58203 -1.828125,-1.67578 z m -1.699219,3.91406 h -1.617188 c -0.164062,0 -0.1875,0 -0.257812,-0.0117 -0.128906,-0.0117 -0.152344,-0.0352 -0.152344,-0.12891 0,-0.082 0.03516,-0.15234 0.05859,-0.25781 l 0.832031,-3.375 h 2.25 c 1.40625,0 1.40625,1.3125 1.40625,1.40625 0,1.14844 -1.042969,2.36719 -2.519531,2.36719 z m 13.722656,-7.95703 c 0,-0.10547 -0.08203,-0.10547 -0.105469,-0.10547 -0.02344,0 -0.07031,0 -0.175781,0.11719 l -0.820312,1.00781 c -0.421875,-0.71485 -1.078125,-1.125 -1.96875,-1.125 -2.589844,0 -5.261719,2.61328 -5.261719,5.42578 0,1.99219 1.394531,3.23437 3.140625,3.23437 0.960937,0 1.792969,-0.39843 2.484375,-0.98437 1.042969,-0.87891 1.359375,-2.03906 1.359375,-2.13281 0,-0.10547 -0.09375,-0.10547 -0.140625,-0.10547 -0.105469,0 -0.117188,0.0703 -0.140625,0.11719 -0.550781,1.86328 -2.15625,2.76562 -3.351563,2.76562 -1.277343,0 -2.367187,-0.82031 -2.367187,-2.50781 0,-0.38672 0.117187,-2.46094 1.464844,-4.03125 0.65625,-0.76172 1.78125,-1.44141 2.917968,-1.44141 1.3125,0 1.898438,1.08985 1.898438,2.3086 0,0.3164 -0.03516,0.57421 -0.03516,0.62109 0,0.11719 0.117187,0.11719 0.152343,0.11719 0.140625,0 0.152344,-0.0117 0.199219,-0.23438 z m 2.179688,7.42968 c -0.105469,0.41016 -0.128907,0.52735 -0.960938,0.52735 -0.234375,0 -0.351562,0 -0.351562,0.22265 0,0.12891 0.07031,0.12891 0.304687,0.12891 h 3.796875 c 2.414063,0 4.769531,-2.49609 4.769531,-5.16797 0,-1.72265 -1.03125,-3 -2.742187,-3 h -3.832031 c -0.234375,0 -0.339844,0 -0.339844,0.23438 0,0.11718 0.105469,0.11718 0.292969,0.11718 0.726562,0 0.726562,0.0937 0.726562,0.22266 0,0.0234 0,0.0937 -0.04687,0.28125 z m 2.519531,-6.46875 c 0.117187,-0.44531 0.164062,-0.46875 0.621094,-0.46875 h 1.324218 c 1.113282,0 2.144532,0.60938 2.144532,2.26172 0,0.59766 -0.234375,2.67188 -1.394532,3.98438 -0.339843,0.39844 -1.242187,1.21875 -2.625,1.21875 h -1.359375 c -0.164062,0 -0.1875,0 -0.257812,-0.0117 -0.128906,-0.0117 -0.140625,-0.0352 -0.140625,-0.12891 0,-0.082 0.02344,-0.15234 0.04687,-0.25781 z m 0,0"
         style="fill:#000000;fill-opacity:1;fill-rule:nonzero;stroke:none" />
      <path
         id="path3"
         d="m 27.122039,102.15015 c 0,-0.26953 0,-0.28125 -0.246094,-0.28125 -0.28125,0.3164 -0.878906,0.76172 -2.109375,0.76172 v 0.35156 c 0.269532,0 0.867188,0 1.523438,-0.31641 v 6.22266 c 0,0.43359 -0.03516,0.57422 -1.078125,0.57422 h -0.375 v 0.35156 c 0.316406,-0.0234 1.476562,-0.0234 1.875,-0.0234 0.398437,0 1.546875,0 1.863281,0.0234 v -0.35156 h -0.363281 c -1.054688,0 -1.089844,-0.14063 -1.089844,-0.57422 z m 3.943359,0.82031 c 0.503907,0.16406 0.925782,0.17578 1.054688,0.17578 1.359375,0 2.214844,-0.99609 2.214844,-1.16015 0,-0.0469 -0.02344,-0.10547 -0.09375,-0.10547 -0.02344,0 -0.04687,0 -0.152344,0.0469 -0.667969,0.28125 -1.242188,0.31641 -1.558594,0.31641 -0.785156,0 -1.347656,-0.23438 -1.582031,-0.32813 -0.08203,-0.0352 -0.105469,-0.0352 -0.117188,-0.0352 -0.09375,0 -0.09375,0.0703 -0.09375,0.25781 v 3.55078 c 0,0.21094 0,0.29297 0.140625,0.29297 0.05859,0 0.07031,-0.0117 0.199219,-0.16406 0.328125,-0.49219 0.890625,-0.77344 1.488281,-0.77344 0.632813,0 0.949219,0.58594 1.042969,0.78516 0.199219,0.46875 0.210938,1.05468 0.210938,1.51171 0,0.45704 0,1.13672 -0.328125,1.67579 -0.269532,0.42187 -0.738282,0.72656 -1.253907,0.72656 -0.796875,0 -1.570312,-0.53906 -1.78125,-1.40625 0.05859,0.0234 0.128907,0.0352 0.1875,0.0352 0.199219,0 0.527344,-0.1289 0.527344,-0.52734 0,-0.33984 -0.234375,-0.52734 -0.527344,-0.52734 -0.210937,0 -0.527343,0.10547 -0.527343,0.57422 0,1.00781 0.808593,2.16796 2.144531,2.16796 1.347656,0 2.53125,-1.125 2.53125,-2.64843 0,-1.41797 -0.960938,-2.60157 -2.214844,-2.60157 -0.679687,0 -1.207031,0.29297 -1.511719,0.63282 z m 0,0"
         style="fill:#000000;fill-opacity:1;fill-rule:nonzero;stroke:none" />
      <path
         id="path4"
         d="m 114.6113,108.48999 c -0.41016,0.70313 -0.82032,0.9375 -1.39453,0.97266 -0.12891,0.0117 -0.22266,0.0117 -0.22266,0.23437 0,0.0703 0.0586,0.11719 0.14062,0.11719 0.21094,0 0.75,-0.0234 0.97266,-0.0234 0.33984,0 0.72656,0.0234 1.05469,0.0234 0.0703,0 0.22265,0 0.22265,-0.22266 0,-0.11718 -0.0937,-0.1289 -0.17578,-0.1289 -0.26953,-0.0234 -0.49218,-0.11719 -0.49218,-0.39844 0,-0.17578 0.0703,-0.30469 0.22265,-0.5625 l 0.90235,-1.51172 h 3.05859 c 0.0117,0.10547 0.0117,0.21094 0.0234,0.31641 0.0352,0.30469 0.17578,1.54687 0.17578,1.78125 0,0.35156 -0.60938,0.375 -0.79688,0.375 -0.14062,0 -0.26953,0 -0.26953,0.22265 0,0.12891 0.10547,0.12891 0.17578,0.12891 0.21094,0 0.44532,-0.0234 0.65625,-0.0234 h 0.67969 c 0.72656,0 1.25391,0.0234 1.26563,0.0234 0.082,0 0.21093,0 0.21093,-0.22266 0,-0.1289 -0.10547,-0.1289 -0.28125,-0.1289 -0.65625,0 -0.66797,-0.10547 -0.71484,-0.45703 l -0.72656,-7.46485 c -0.0234,-0.23437 -0.0703,-0.25781 -0.19922,-0.25781 -0.11719,0 -0.1875,0.0234 -0.30469,0.19922 z m 1.4414,-1.83984 2.40235,-4.01953 0.41015,4.01953 z m 9.67969,-4.1836 c 0.11719,-0.44531 0.16406,-0.46875 0.62109,-0.46875 h 1.5586 c 1.34765,0 1.34765,1.14844 1.34765,1.25391 0,0.97266 -0.96093,2.20313 -2.54296,2.20313 h -1.72266 z m 2.02734,3.08204 c 1.30079,-0.2461 2.48438,-1.14844 2.48438,-2.25 0,-0.92579 -0.83203,-1.65235 -2.17969,-1.65235 h -3.83203 c -0.23437,0 -0.33984,0 -0.33984,0.23438 0,0.11718 0.10547,0.11718 0.29297,0.11718 0.72656,0 0.72656,0.0937 0.72656,0.22266 0,0.0234 0,0.0937 -0.0469,0.28125 l -1.61718,6.43359 c -0.10547,0.41016 -0.12891,0.52735 -0.96094,0.52735 -0.23438,0 -0.35156,0 -0.35156,0.22265 0,0.12891 0.0703,0.12891 0.30468,0.12891 h 4.10157 c 1.82812,0 3.24609,-1.38281 3.24609,-2.58984 0,-0.98438 -0.86719,-1.58203 -1.82813,-1.67578 z m -1.69921,3.91406 h -1.61719 c -0.16406,0 -0.1875,0 -0.25781,-0.0117 -0.12891,-0.0117 -0.15235,-0.0352 -0.15235,-0.12891 0,-0.082 0.0352,-0.15234 0.0586,-0.25781 l 0.83203,-3.375 h 2.25 c 1.40625,0 1.40625,1.3125 1.40625,1.40625 0,1.14844 -1.04297,2.36719 -2.51953,2.36719 z m 0,0"
         style="fill:#000000;fill-opacity:1;fill-rule:nonzero;stroke:none" />
      <path
         id="path5"
         d="m 170.83786,101.50562 c 0,-0.10547 -0.082,-0.10547 -0.10547,-0.10547 -0.0234,0 -0.0703,0 -0.17578,0.11719 l -0.82031,1.00781 c -0.42188,-0.71485 -1.07813,-1.125 -1.96875,-1.125 -2.58985,0 -5.26172,2.61328 -5.26172,5.42578 0,1.99219 1.39453,3.23437 3.14062,3.23437 0.96094,0 1.79297,-0.39843 2.48438,-0.98437 1.04297,-0.87891 1.35937,-2.03906 1.35937,-2.13281 0,-0.10547 -0.0937,-0.10547 -0.14062,-0.10547 -0.10547,0 -0.11719,0.0703 -0.14063,0.11719 -0.55078,1.86328 -2.15625,2.76562 -3.35156,2.76562 -1.27734,0 -2.36719,-0.82031 -2.36719,-2.50781 0,-0.38672 0.11719,-2.46094 1.46485,-4.03125 0.65625,-0.76172 1.78125,-1.44141 2.91797,-1.44141 1.3125,0 1.89843,1.08985 1.89843,2.3086 0,0.3164 -0.0351,0.57421 -0.0351,0.62109 0,0.11719 0.11718,0.11719 0.15234,0.11719 0.14063,0 0.15234,-0.0117 0.19922,-0.23438 z m 2.18262,7.42968 c -0.10547,0.41016 -0.12891,0.52735 -0.96094,0.52735 -0.23438,0 -0.35156,0 -0.35156,0.22265 0,0.12891 0.0703,0.12891 0.30468,0.12891 h 3.79688 c 2.41406,0 4.76953,-2.49609 4.76953,-5.16797 0,-1.72265 -1.03125,-3 -2.74219,-3 h -3.83203 c -0.23437,0 -0.33984,0 -0.33984,0.23438 0,0.11718 0.10547,0.11718 0.29297,0.11718 0.72656,0 0.72656,0.0937 0.72656,0.22266 0,0.0234 0,0.0937 -0.0469,0.28125 z m 2.51953,-6.46875 c 0.11719,-0.44531 0.16406,-0.46875 0.62109,-0.46875 h 1.32422 c 1.11328,0 2.14453,0.60938 2.14453,2.26172 0,0.59766 -0.23437,2.67188 -1.39453,3.98438 -0.33984,0.39844 -1.24219,1.21875 -2.625,1.21875 h -1.35937 c -0.16407,0 -0.1875,0 -0.25782,-0.0117 -0.1289,-0.0117 -0.14062,-0.0352 -0.14062,-0.12891 0,-0.082 0.0234,-0.15234 0.0469,-0.25781 z m 0,0"
         style="fill:#000000;fill-opacity:1;fill-rule:nonzero;stroke:none" />
      <path
         id="path6"
         d="m 292.35544,101.50562 c 0,-0.10547 -0.082,-0.10547 -0.10547,-0.10547 -0.0234,0 -0.0703,0 -0.17578,0.11719 l -0.82031,1.00781 c -0.42188,-0.71485 -1.07813,-1.125 -1.96875,-1.125 -2.58985,0 -5.26172,2.61328 -5.26172,5.42578 0,1.99219 1.39453,3.23437 3.14062,3.23437 0.96094,0 1.79297,-0.39843 2.48438,-0.98437 1.04297,-0.87891 1.35937,-2.03906 1.35937,-2.13281 0,-0.10547 -0.0937,-0.10547 -0.14062,-0.10547 -0.10547,0 -0.11719,0.0703 -0.14063,0.11719 -0.55078,1.86328 -2.15625,2.76562 -3.35156,2.76562 -1.27734,0 -2.36719,-0.82031 -2.36719,-2.50781 0,-0.38672 0.11719,-2.46094 1.46485,-4.03125 0.65625,-0.76172 1.78125,-1.44141 2.91796,-1.44141 1.3125,0 1.89844,1.08985 1.89844,2.3086 0,0.3164 -0.0352,0.57421 -0.0352,0.62109 0,0.11719 0.11718,0.11719 0.15234,0.11719 0.14062,0 0.15234,-0.0117 0.19922,-0.23438 z m 4.67578,0.96093 c 0.11719,-0.44531 0.16406,-0.46875 0.62109,-0.46875 h 1.5586 c 1.34765,0 1.34765,1.14844 1.34765,1.25391 0,0.97266 -0.96093,2.20313 -2.54297,2.20313 h -1.72265 z m 2.02734,3.08204 c 1.30078,-0.2461 2.48438,-1.14844 2.48438,-2.25 0,-0.92579 -0.83203,-1.65235 -2.17969,-1.65235 h -3.83203 c -0.23438,0 -0.33984,0 -0.33984,0.23438 0,0.11718 0.10546,0.11718 0.29296,0.11718 0.72657,0 0.72657,0.0937 0.72657,0.22266 0,0.0234 0,0.0937 -0.0469,0.28125 l -1.61719,6.43359 c -0.10546,0.41016 -0.1289,0.52735 -0.96093,0.52735 -0.23438,0 -0.35157,0 -0.35157,0.22265 0,0.12891 0.0703,0.12891 0.30469,0.12891 h 4.10156 c 1.82813,0 3.2461,-1.38281 3.2461,-2.58984 0,-0.98438 -0.86719,-1.58203 -1.82813,-1.67578 z m -1.69922,3.91406 h -1.61718 c -0.16407,0 -0.1875,0 -0.25782,-0.0117 -0.1289,-0.0117 -0.15234,-0.0352 -0.15234,-0.12891 0,-0.082 0.0352,-0.15234 0.0586,-0.25781 l 0.83204,-3.375 h 2.25 c 1.40625,0 1.40625,1.3125 1.40625,1.40625 0,1.14844 -1.04297,2.36719 -2.51954,2.36719 z m 6.82032,-0.97266 c -0.41016,0.70313 -0.82032,0.9375 -1.39453,0.97266 -0.12891,0.0117 -0.22266,0.0117 -0.22266,0.23437 0,0.0703 0.0586,0.11719 0.14062,0.11719 0.21094,0 0.75,-0.0234 0.97266,-0.0234 0.33984,0 0.72656,0.0234 1.05469,0.0234 0.0703,0 0.22265,0 0.22265,-0.22266 0,-0.11718 -0.0937,-0.1289 -0.17578,-0.1289 -0.26953,-0.0234 -0.49218,-0.11719 -0.49218,-0.39844 0,-0.17578 0.0703,-0.30469 0.22265,-0.5625 l 0.90235,-1.51172 h 3.05859 c 0.0117,0.10547 0.0117,0.21094 0.0234,0.31641 0.0351,0.30469 0.17578,1.54687 0.17578,1.78125 0,0.35156 -0.60938,0.375 -0.79688,0.375 -0.14062,0 -0.26953,0 -0.26953,0.22265 0,0.12891 0.10547,0.12891 0.17578,0.12891 0.21094,0 0.44532,-0.0234 0.65625,-0.0234 h 0.67969 c 0.72656,0 1.25391,0.0234 1.26563,0.0234 0.082,0 0.21093,0 0.21093,-0.22266 0,-0.1289 -0.10547,-0.1289 -0.28125,-0.1289 -0.65625,0 -0.66797,-0.10547 -0.71484,-0.45703 l -0.72656,-7.46485 c -0.0234,-0.23437 -0.0703,-0.25781 -0.19922,-0.25781 -0.11719,0 -0.1875,0.0234 -0.30469,0.19922 z m 1.4414,-1.83984 2.40235,-4.01953 0.41015,4.01953 z m 0,0"
         style="fill:#000000;fill-opacity:1;fill-rule:nonzero;stroke:none" />
      <path
         id="path7"
         d="m -16.152375,122.93628 c -0.410156,0.70313 -0.820312,0.9375 -1.394531,0.97266 -0.128906,0.0117 -0.222656,0.0117 -0.222656,0.23437 0,0.0703 0.05859,0.11719 0.140625,0.11719 0.210937,0 0.75,-0.0234 0.972656,-0.0234 0.339844,0 0.726562,0.0234 1.054687,0.0234 0.07031,0 0.222657,0 0.222657,-0.22266 0,-0.11718 -0.09375,-0.1289 -0.175782,-0.1289 -0.269531,-0.0234 -0.492187,-0.11719 -0.492187,-0.39844 0,-0.17578 0.07031,-0.30469 0.222656,-0.5625 l 0.902344,-1.51172 h 3.058594 c 0.01172,0.10547 0.01172,0.21094 0.02344,0.31641 0.03516,0.30469 0.175781,1.54687 0.175781,1.78125 0,0.35156 -0.609375,0.375 -0.796875,0.375 -0.140625,0 -0.269531,0 -0.269531,0.22265 0,0.12891 0.105469,0.12891 0.175781,0.12891 0.210938,0 0.445313,-0.0234 0.65625,-0.0234 h 0.679688 c 0.726562,0 1.253906,0.0234 1.2656248,0.0234 0.082031,0 0.2109375,0 0.2109375,-0.22266 0,-0.1289 -0.1054688,-0.1289 -0.2812503,-0.1289 -0.65625,0 -0.667968,-0.10547 -0.714843,-0.45703 l -0.726563,-7.46485 c -0.02344,-0.23437 -0.07031,-0.25781 -0.199219,-0.25781 -0.117187,0 -0.1875,0.0234 -0.304687,0.19922 z m 1.441406,-1.83984 2.402344,-4.01953 0.410156,4.01953 z m 7.1806643,2.28515 c -0.1054687,0.41016 -0.1289062,0.52735 -0.9609375,0.52735 -0.234375,0 -0.3515625,0 -0.3515625,0.22265 0,0.12891 0.070312,0.12891 0.3046875,0.12891 h 3.796875 c 2.4140625,0 4.76953126,-2.49609 4.76953126,-5.16797 0,-1.72265 -1.03124996,-3 -2.74218746,-3 h -3.8320313 c -0.234375,0 -0.3398437,0 -0.3398437,0.23438 0,0.11718 0.1054687,0.11718 0.2929687,0.11718 0.7265625,0 0.7265625,0.0937 0.7265625,0.22266 0,0.0234 0,0.0937 -0.046875,0.28125 z m 2.5195313,-6.46875 c 0.1171875,-0.44531 0.1640625,-0.46875 0.6210937,-0.46875 h 1.3242188 c 1.1132812,0 2.14453121,0.60938 2.14453121,2.26172 0,0.59766 -0.23437501,2.67188 -1.39453121,3.98438 -0.3398438,0.39844 -1.2421875,1.21875 -2.625,1.21875 h -1.359375 c -0.1640625,0 -0.1875,0 -0.2578125,-0.0117 -0.1289063,-0.0117 -0.140625,-0.0352 -0.140625,-0.12891 0,-0.082 0.023437,-0.15234 0.046875,-0.25781 z m 0,0"
         style="fill:#000000;fill-opacity:1;fill-rule:nonzero;stroke:none" />
      <path
         id="path8"
         d="m 170.40134,121.48316 c 0.0117,-0.0352 0.0469,-0.11719 0.0469,-0.16407 0,-0.0586 -0.0469,-0.11718 -0.11719,-0.11718 -0.0469,0 -0.0703,0.0117 -0.10547,0.0469 -0.0234,0.0117 -0.0234,0.0352 -0.14062,0.26953 -0.70313,1.67578 -1.21875,2.39063 -3.12891,2.39063 h -1.74609 c -0.16406,0 -0.1875,0 -0.25781,-0.0117 -0.12891,-0.0117 -0.14063,-0.0352 -0.14063,-0.12891 0,-0.082 0.0234,-0.15234 0.0469,-0.25781 l 0.82031,-3.30469 h 1.18359 c 0.9375,0 1.00782,0.21094 1.00782,0.5625 0,0.11719 0,0.23438 -0.082,0.58594 -0.0351,0.0469 -0.0469,0.0937 -0.0469,0.12891 0,0.082 0.0703,0.1289 0.14062,0.1289 0.10547,0 0.11719,-0.0937 0.16407,-0.25781 l 0.67968,-2.77734 c 0,-0.0586 -0.0469,-0.11719 -0.11718,-0.11719 -0.10547,0 -0.11719,0.0469 -0.16407,0.22266 -0.24609,0.91406 -0.48046,1.18359 -1.54687,1.18359 h -1.13672 l 0.73828,-2.94141 c 0.11719,-0.42187 0.14063,-0.45703 0.6211,-0.45703 h 1.71093 c 1.47657,0 1.76953,0.39844 1.76953,1.30078 0,0.0117 0,0.35157 -0.0469,0.73828 -0.0117,0.0469 -0.0234,0.12891 -0.0234,0.15235 0,0.0937 0.0586,0.1289 0.12891,0.1289 0.082,0 0.14062,-0.0469 0.16406,-0.26953 l 0.24609,-2.08593 c 0,-0.0352 0.0234,-0.15235 0.0234,-0.17579 0,-0.14062 -0.10547,-0.14062 -0.3164,-0.14062 h -5.83594 c -0.23438,0 -0.35156,0 -0.35156,0.22266 0,0.1289 0.082,0.1289 0.29296,0.1289 0.73829,0 0.73829,0.082 0.73829,0.21094 0,0.0586 -0.0117,0.10547 -0.0469,0.24609 l -1.61719,6.45703 c -0.10547,0.41016 -0.1289,0.52735 -0.96093,0.52735 -0.23438,0 -0.35157,0 -0.35157,0.22265 0,0.12891 0.0703,0.12891 0.30469,0.12891 h 6 c 0.26953,0 0.28125,-0.0117 0.36328,-0.19922 z m 0,0"
         style="fill:#000000;fill-opacity:1;fill-rule:nonzero;stroke:none" />
      <path
         id="path9"
         d="m 196.79196,112.89038 c 0,-0.1289 0,-0.30468 -0.1875,-0.30468 -0.1875,0 -0.1875,0.17578 -0.1875,0.30468 v 7.35938 c 0,0.1289 0,0.30469 0.1875,0.30469 0.1875,0 0.1875,-0.17579 0.1875,-0.30469 z m 0,0"
         style="fill:#000000;fill-opacity:1;fill-rule:nonzero;stroke:none" />
      <path
         id="path10"
         d="m 199.26462,117.61304 c -0.36328,0.58594 -0.69141,0.66797 -0.98438,0.69141 -0.082,0 -0.17578,0.0117 -0.17578,0.14062 0,0.0352 0.0234,0.11719 0.11719,0.11719 0.0703,0 0.11719,-0.0234 0.67969,-0.0234 0.53906,0 0.71484,0.0234 0.76171,0.0234 0.0352,0 0.15235,0 0.15235,-0.15235 0,-0.10546 -0.0937,-0.10546 -0.14063,-0.10546 -0.16406,-0.0117 -0.32812,-0.082 -0.32812,-0.25782 0,-0.11718 0.0586,-0.22265 0.21094,-0.44531 l 0.53906,-0.87891 h 2.1914 l 0.16407,1.34766 c 0,0.10547 -0.14063,0.23438 -0.51563,0.23438 -0.1289,0 -0.22265,0 -0.22265,0.14062 0,0.0117 0,0.11719 0.1289,0.11719 0.082,0 0.38672,-0.0117 0.45703,-0.0234 h 0.50391 c 0.71484,0 0.84375,0.0234 0.91406,0.0234 0.0352,0 0.16406,0 0.16406,-0.15235 0,-0.10546 -0.10546,-0.10546 -0.23437,-0.10546 -0.44531,0 -0.44531,-0.082 -0.46875,-0.28125 l -0.63281,-4.92188 c -0.0234,-0.17578 -0.0352,-0.23437 -0.16407,-0.23437 -0.15234,0 -0.19921,0.082 -0.24609,0.16406 z m 0.99609,-1.16016 1.65234,-2.61328 0.33985,2.61328 z m 9.83496,0.25782 c 0.0234,-0.0234 0.0352,-0.082 0.0352,-0.10547 0,-0.0234 -0.0117,-0.11719 -0.11719,-0.11719 -0.0937,0 -0.0937,0.0234 -0.17578,0.19922 -0.51563,1.16015 -0.89063,1.61719 -2.17969,1.61719 h -1.45312 c -0.0703,-0.0234 -0.0937,-0.0234 -0.0937,-0.082 0,-0.0586 0.0117,-0.11718 0.0234,-0.17578 l 0.55079,-2.16797 h 0.85546 c 0.58594,0 0.70313,0.0937 0.70313,0.35157 0,0 0,0.1289 -0.0586,0.35156 -0.0117,0.0469 -0.0234,0.0937 -0.0234,0.11719 0,0.0117 0.0117,0.10547 0.11719,0.10547 0.0937,0 0.11718,-0.0469 0.15234,-0.17579 l 0.42187,-1.66406 c 0,-0.0234 0.0234,-0.15234 0.0234,-0.16406 0,-0.082 -0.0586,-0.11719 -0.11719,-0.11719 -0.10546,0 -0.10546,0.0586 -0.15234,0.1875 -0.15234,0.6211 -0.375,0.73828 -1.05469,0.73828 h -0.79687 l 0.48047,-1.89843 c 0.0703,-0.29297 0.0703,-0.30469 0.39843,-0.30469 h 1.24219 c 0.96094,0 1.26563,0.1875 1.26563,0.89062 0,0.16407 -0.0469,0.36328 -0.0469,0.51563 0,0.10547 0.0586,0.14062 0.12891,0.14062 0.10547,0 0.11719,-0.0703 0.1289,-0.21093 l 0.14063,-1.34766 c 0.0117,-0.0469 0.0117,-0.0937 0.0117,-0.14063 0,-0.10546 -0.0937,-0.10546 -0.23438,-0.10546 h -4.20703 c -0.15234,0 -0.24609,0 -0.24609,0.15234 0,0.10547 0.10547,0.10547 0.24609,0.10547 0.0234,0 0.16406,0 0.29297,0.0117 0.17578,0.0234 0.1875,0.0469 0.1875,0.11718 0,0.0352 -0.0117,0.082 -0.0234,0.12891 l -1.0664,4.26563 c -0.0703,0.30468 -0.0937,0.375 -0.67969,0.375 -0.15234,0 -0.24609,0 -0.24609,0.14062 0,0.11719 0.10546,0.11719 0.23437,0.11719 h 4.3125 c 0.19922,0 0.21094,0 0.26953,-0.14063 z m 0,0"
         style="fill:#000000;fill-opacity:1;fill-rule:nonzero;stroke:none" />
      <path
         id="path11"
         d="m 212.14059,112.89038 c 0,-0.1289 0,-0.30468 -0.1875,-0.30468 -0.1875,0 -0.1875,0.17578 -0.1875,0.30468 v 7.35938 c 0,0.1289 0,0.30469 0.1875,0.30469 0.1875,0 0.1875,-0.17579 0.1875,-0.30469 z m 0,0"
         style="fill:#000000;fill-opacity:1;fill-rule:nonzero;stroke:none" />
    </g>
    <path
       id="path12"
       d="M 0,0 H 18.54"
       style="fill:none;stroke:#000000;stroke-width:0.478;stroke-linecap:butt;stroke-linejoin:miter;stroke-miterlimit:10;stroke-dasharray:none;stroke-opacity:1"
       transform="matrix(1.3333333,0,0,-1.3333333,534.74267,217.764)" />
    <g
       id="g12"
       aria-label="|ED|&#10;=2.Obliczpolagur&#10;ABEiEBCD,naktórezostaªpodzielonytrapez.&#10;ZADANIE2.&#10;Wyka»,»eliczba&#10;&#10;n+4"
       transform="matrix(1.3333333,0,0,1.3333333,534.74267,227.24667)">
      <path
         id="path13"
         d="m 1.3590156,-5.6723047 c 0,-0.1289062 0,-0.3046875 -0.1875,-0.3046875 -0.18749998,0 -0.18749998,0.1757813 -0.18749998,0.3046875 v 7.359375 c 0,0.1289063 0,0.3046875 0.18749998,0.3046875 0.1875,0 0.1875,-0.1757812 0.1875,-0.3046875 z m 0,0"
         style="fill:#000000;fill-opacity:1;fill-rule:nonzero;stroke:none" />
      <path
         id="path14"
         d="m 8.3170234,-1.8519922 c 0.023437,-0.023437 0.035156,-0.082031 0.035156,-0.1054687 0,-0.023437 -0.011719,-0.1171875 -0.1171875,-0.1171875 -0.09375,0 -0.09375,0.023437 -0.1757813,0.1992187 -0.515625,1.16015626 -0.890625,1.61718751 -2.1796875,1.61718751 h -1.453125 c -0.070312,-0.0234375 -0.09375,-0.0234375 -0.09375,-0.0820313 0,-0.0585938 0.011719,-0.1171875 0.023437,-0.17578125 L 4.9068672,-2.6840234 h 0.8554687 c 0.5859375,0 0.703125,0.09375 0.703125,0.3515625 0,0 0,0.1289062 -0.058594,0.3515625 -0.011719,0.046875 -0.023437,0.09375 -0.023437,0.1171875 0,0.011719 0.011719,0.1054687 0.1171875,0.1054687 0.09375,0 0.1171875,-0.046875 0.1523437,-0.1757812 l 0.421875,-1.6640625 c 0,-0.023437 0.023437,-0.1523438 0.023437,-0.1640625 0,-0.082031 -0.058594,-0.1171875 -0.1171875,-0.1171875 -0.1054687,0 -0.1054687,0.058594 -0.1523437,0.1875 -0.1523438,0.6210937 -0.375,0.7382812 -1.0546875,0.7382812 h -0.796875 l 0.4804687,-1.8984375 c 0.070312,-0.2929687 0.070312,-0.3046875 0.3984375,-0.3046875 h 1.2421875 c 0.9609375,0 1.265625,0.1875 1.265625,0.890625 0,0.1640625 -0.046875,0.3632813 -0.046875,0.515625 0,0.1054688 0.058594,0.140625 0.1289063,0.140625 0.1054687,0 0.1171875,-0.070312 0.1289062,-0.2109375 l 0.140625,-1.3476562 c 0.011719,-0.046875 0.011719,-0.09375 0.011719,-0.140625 0,-0.1054688 -0.09375,-0.1054688 -0.234375,-0.1054688 H 4.2857734 c -0.1523437,0 -0.2460937,0 -0.2460937,0.1523438 0,0.1054687 0.1054687,0.1054687 0.2460937,0.1054687 0.023437,0 0.1640625,0 0.2929688,0.011719 0.1757812,0.023437 0.1875,0.046875 0.1875,0.1171875 0,0.035156 -0.011719,0.082031 -0.023437,0.1289062 l -1.0664063,4.26562501 c -0.070312,0.3046875 -0.09375,0.375 -0.6796875,0.375 -0.1523437,0 -0.2460937,0 -0.2460937,0.140625 0,0.1171875025 0.1054687,0.1171875025 0.234375,0.1171875025 h 4.3125 c 0.1992187,0 0.2109375,0 0.2695312,-0.1406250025 z m 2.0244136,1.21875001 c -0.08203,0.3046875 -0.09375,0.375 -0.679687,0.375 -0.1523438,0 -0.2460938,0 -0.2460938,0.140625 0,0.1171875025 0.1054688,0.1171875025 0.234375,0.1171875025 h 2.7421878 c 1.675781,0 3.351562,-1.6054687125 3.351562,-3.3867187125 0,-1.21875 -0.808594,-2.0507813 -1.992187,-2.0507813 h -2.789063 c -0.152344,0 -0.246094,0 -0.246094,0.140625 0,0.1171875 0.09375,0.1171875 0.222657,0.1171875 0.269531,0 0.492187,0 0.492187,0.1289063 0,0.035156 0,0.035156 -0.02344,0.140625 z M 12.09925,-4.8871484 c 0.07031,-0.2695313 0.08203,-0.2929688 0.410156,-0.2929688 h 0.960938 c 0.925781,0 1.558593,0.5390625 1.558593,1.5117188 0,0.2578125 -0.105468,1.5585937 -0.808593,2.4492187 -0.351563,0.44531251 -1.03125,0.96093751 -1.96875,0.96093751 h -1.195313 c -0.07031,-0.0234375 -0.09375,-0.0234375 -0.09375,-0.0820313 0,-0.0585938 0.02344,-0.1171875 0.03516,-0.17578125 z m 0,0"
         style="fill:#000000;fill-opacity:1;fill-rule:nonzero;stroke:none" />
      <path
         id="path15"
         d="m 17.548469,-5.6723047 c 0,-0.1289062 0,-0.3046875 -0.1875,-0.3046875 -0.1875,0 -0.1875,0.1757813 -0.1875,0.3046875 v 7.359375 c 0,0.1289063 0,0.3046875 0.1875,0.3046875 0.1875,0 0.1875,-0.1757812 0.1875,-0.3046875 z m 0,0"
         style="fill:#000000;fill-opacity:1;fill-rule:nonzero;stroke:none" />
      <path
         id="path16"
         d="m 31.813117,-7.9896875 c 0.164063,0 0.375,0 0.375,-0.2226563 0,-0.2226562 -0.199219,-0.2226562 -0.375,-0.2226562 h -7.042969 c -0.175781,0 -0.386718,0 -0.386718,0.2109375 0,0.234375 0.199218,0.234375 0.386718,0.234375 z m 0,2.2148437 c 0.164063,0 0.375,0 0.375,-0.2109375 0,-0.234375 -0.199219,-0.234375 -0.375,-0.234375 h -7.042969 c -0.175781,0 -0.386718,0 -0.386718,0.2226563 0,0.2226562 0.199218,0.2226562 0.386718,0.2226562 z m 10.297852,-0.3515625 h -0.269532 c -0.03516,0.1992188 -0.128906,0.8554688 -0.246093,1.0429688 -0.08203,0.1171875 -0.761719,0.1171875 -1.125,0.1171875 H 38.2555 c 0.328125,-0.28125 1.054687,-1.0429688 1.371094,-1.3359375 1.816406,-1.6640625 2.484375,-2.2851563 2.484375,-3.46875 0,-1.3828125 -1.089844,-2.2968755 -2.472657,-2.2968755 -1.394531,0 -2.203125,1.183594 -2.203125,2.2031255 0,0.609375 0.527344,0.609375 0.5625,0.609375 0.246094,0 0.5625,-0.1757813 0.5625,-0.5625 0,-0.3281255 -0.234375,-0.5507815 -0.5625,-0.5507815 -0.105468,0 -0.128906,0 -0.164062,0.01172 0.222656,-0.820313 0.867187,-1.371094 1.640625,-1.371094 1.019531,0 1.640625,0.855469 1.640625,1.9570315 0,1.0078125 -0.585938,1.8984375 -1.265625,2.6601562 L 37.435187,-4.40375 v 0.28125 h 4.359375 z m 0,0"
         style="fill:#000000;fill-opacity:1;fill-rule:nonzero;stroke:none" />
      <path
         id="path17"
         d="m -341.20348,8.9995703 c -0.41016,0.703125 -0.82032,0.9375 -1.39454,0.9726563 -0.1289,0.011719 -0.22265,0.011719 -0.22265,0.2343754 0,0.07031 0.0586,0.117187 0.14062,0.117187 0.21094,0 0.75,-0.02344 0.97266,-0.02344 0.33984,0 0.72656,0.02344 1.05469,0.02344 0.0703,0 0.22265,0 0.22265,-0.222656 0,-0.1171877 -0.0937,-0.1289064 -0.17578,-0.1289064 -0.26953,-0.023437 -0.49219,-0.1171875 -0.49219,-0.3984375 0,-0.1757813 0.0703,-0.3046875 0.22266,-0.5625 l 0.90234,-1.5117188 h 3.0586 c 0.0117,0.1054688 0.0117,0.2109375 0.0234,0.3164063 0.0351,0.3046875 0.17578,1.546875 0.17578,1.78125 0,0.3515625 -0.60938,0.375 -0.79688,0.375 -0.14062,0 -0.26953,0 -0.26953,0.2226564 0,0.128906 0.10547,0.128906 0.17578,0.128906 0.21094,0 0.44531,-0.02344 0.65625,-0.02344 h 0.67969 c 0.72656,0 1.25391,0.02344 1.26562,0.02344 0.082,0 0.21094,0 0.21094,-0.222656 0,-0.1289064 -0.10547,-0.1289064 -0.28125,-0.1289064 -0.65625,0 -0.66797,-0.1054688 -0.71484,-0.4570313 l -0.72656,-7.4648437 c -0.0234,-0.234375 -0.0703,-0.2578125 -0.19922,-0.2578125 -0.11719,0 -0.1875,0.023437 -0.30469,0.1992187 z m 1.4414,-1.8398437 2.40235,-4.0195313 0.41015,4.0195313 z m 9.67969,-4.1835938 c 0.11719,-0.4453125 0.16406,-0.46875 0.62109,-0.46875 h 1.5586 c 1.34765,0 1.34765,1.1484375 1.34765,1.2539063 0,0.9726562 -0.96093,2.203125 -2.54297,2.203125 h -1.72265 z m 2.02734,3.0820313 c 1.30078,-0.2460938 2.48438,-1.1484375 2.48438,-2.25 0,-0.9257813 -0.83203,-1.6523438 -2.17969,-1.6523438 h -3.83203 c -0.23438,0 -0.33984,0 -0.33984,0.234375 0,0.1171875 0.10546,0.1171875 0.29296,0.1171875 0.72657,0 0.72657,0.09375 0.72657,0.2226563 0,0.023437 0,0.09375 -0.0469,0.28125 l -1.61719,6.4335937 c -0.10546,0.4101563 -0.1289,0.5273438 -0.96093,0.5273438 -0.23438,0 -0.35157,0 -0.35157,0.2226564 0,0.128906 0.0703,0.128906 0.30469,0.128906 h 4.10156 c 1.82813,0 3.2461,-1.3828124 3.2461,-2.5898437 0,-0.984375 -0.86719,-1.5820312 -1.82813,-1.6757812 z m -1.69922,3.9140625 h -1.61718 c -0.16407,0 -0.1875,0 -0.25782,-0.011719 -0.1289,-0.011719 -0.15234,-0.035156 -0.15234,-0.1289062 0,-0.082031 0.0352,-0.1523438 0.0586,-0.2578125 l 0.83204,-3.375 h 2.25 c 1.40625,0 1.40625,1.3125 1.40625,1.40625 0,1.1484375 -1.04297,2.3671875 -2.51954,2.3671875 z m 13.09864,-2.4257813 c 0.0117,-0.035156 0.0469,-0.1171875 0.0469,-0.1640625 0,-0.058594 -0.0469,-0.1171875 -0.11719,-0.1171875 -0.0469,0 -0.0703,0.011719 -0.10546,0.046875 -0.0234,0.011719 -0.0234,0.035156 -0.14063,0.2695313 -0.70312,1.6757812 -1.21875,2.390625 -3.12891,2.390625 h -1.74609 c -0.16406,0 -0.1875,0 -0.25781,-0.011719 -0.12891,-0.011719 -0.14063,-0.035156 -0.14063,-0.1289062 0,-0.082031 0.0234,-0.1523438 0.0469,-0.2578125 l 0.82031,-3.3046875 h 1.18359 c 0.9375,0 1.00782,0.2109375 1.00782,0.5625 0,0.1171875 0,0.234375 -0.082,0.5859375 -0.0352,0.046875 -0.0469,0.09375 -0.0469,0.1289062 0,0.082031 0.0703,0.1289063 0.14063,0.1289063 0.10546,0 0.11718,-0.09375 0.16406,-0.2578125 l 0.67969,-2.7773438 c 0,-0.058594 -0.0469,-0.1171875 -0.11719,-0.1171875 -0.10547,0 -0.11719,0.046875 -0.16406,0.2226563 -0.2461,0.9140625 -0.48047,1.1835937 -1.54688,1.1835937 h -1.13672 l 0.73828,-2.9414062 c 0.11719,-0.421875 0.14063,-0.4570313 0.6211,-0.4570313 h 1.71093 c 1.47657,0 1.76954,0.3984375 1.76954,1.3007813 0,0.011719 0,0.3515625 -0.0469,0.7382812 -0.0117,0.046875 -0.0234,0.1289063 -0.0234,0.1523438 0,0.09375 0.0586,0.1289062 0.12891,0.1289062 0.082,0 0.14062,-0.046875 0.16406,-0.2695312 l 0.2461,-2.0859375 c 0,-0.035156 0.0234,-0.1523438 0.0234,-0.1757813 0,-0.140625 -0.10547,-0.140625 -0.3164,-0.140625 h -5.83594 c -0.23438,0 -0.35156,0 -0.35156,0.2226563 0,0.1289062 0.082,0.1289062 0.29297,0.1289062 0.73828,0 0.73828,0.082031 0.73828,0.2109375 0,0.058594 -0.0117,0.1054688 -0.0469,0.2460938 l -1.61719,6.4570312 c -0.10546,0.4101563 -0.1289,0.5273438 -0.96093,0.5273438 -0.23438,0 -0.35157,0 -0.35157,0.2226566 0,0.128906 0.0703,0.128906 0.30469,0.128906 h 6 c 0.26953,0 0.28125,-0.01172 0.36328,-0.199219 z m 0,0"
         style="fill:#000000;fill-opacity:1;fill-rule:nonzero;stroke:none" />
      <path
         id="path18"
         d="m -296.22985,7.5464453 c 0.0117,-0.035156 0.0469,-0.1171875 0.0469,-0.1640625 0,-0.058594 -0.0469,-0.1171875 -0.11718,-0.1171875 -0.0469,0 -0.0703,0.011719 -0.10547,0.046875 -0.0234,0.011719 -0.0234,0.035156 -0.14063,0.2695313 -0.70312,1.6757812 -1.21875,2.390625 -3.1289,2.390625 h -1.7461 c -0.16406,0 -0.1875,0 -0.25781,-0.011719 -0.12891,-0.011719 -0.14063,-0.035156 -0.14063,-0.1289062 0,-0.082031 0.0234,-0.1523438 0.0469,-0.2578125 l 0.82031,-3.3046875 h 1.1836 c 0.9375,0 1.00781,0.2109375 1.00781,0.5625 0,0.1171875 0,0.234375 -0.082,0.5859375 -0.0352,0.046875 -0.0469,0.09375 -0.0469,0.1289062 0,0.082031 0.0703,0.1289063 0.14063,0.1289063 0.10547,0 0.11718,-0.09375 0.16406,-0.2578125 l 0.67969,-2.7773438 c 0,-0.058594 -0.0469,-0.1171875 -0.11719,-0.1171875 -0.10547,0 -0.11719,0.046875 -0.16406,0.2226563 -0.2461,0.9140625 -0.48047,1.1835937 -1.54688,1.1835937 h -1.13672 l 0.73828,-2.9414062 c 0.11719,-0.421875 0.14063,-0.4570313 0.6211,-0.4570313 h 1.71094 c 1.47656,0 1.76953,0.3984375 1.76953,1.3007813 0,0.011719 0,0.3515625 -0.0469,0.7382812 -0.0117,0.046875 -0.0234,0.1289063 -0.0234,0.1523438 0,0.09375 0.0586,0.1289062 0.12891,0.1289062 0.082,0 0.14063,-0.046875 0.16406,-0.2695312 l 0.2461,-2.0859375 c 0,-0.035156 0.0234,-0.1523438 0.0234,-0.1757813 0,-0.140625 -0.10546,-0.140625 -0.3164,-0.140625 h -5.83594 c -0.23437,0 -0.35156,0 -0.35156,0.2226563 0,0.1289062 0.082,0.1289062 0.29297,0.1289062 0.73828,0 0.73828,0.082031 0.73828,0.2109375 0,0.058594 -0.0117,0.1054688 -0.0469,0.2460938 l -1.61718,6.4570312 c -0.10547,0.4101563 -0.12891,0.5273438 -0.96094,0.5273438 -0.23438,0 -0.35156,0 -0.35156,0.2226566 0,0.128906 0.0703,0.128906 0.30468,0.128906 h 6 c 0.26953,0 0.28125,-0.01172 0.36328,-0.199219 z m 5.43164,-4.5703125 c 0.11719,-0.4453125 0.16406,-0.46875 0.62109,-0.46875 h 1.5586 c 1.34765,0 1.34765,1.1484375 1.34765,1.2539063 0,0.9726562 -0.96093,2.203125 -2.54297,2.203125 h -1.72265 z m 2.02734,3.0820313 c 1.30078,-0.2460938 2.48438,-1.1484375 2.48438,-2.25 0,-0.9257813 -0.83203,-1.6523438 -2.17969,-1.6523438 h -3.83203 c -0.23438,0 -0.33984,0 -0.33984,0.234375 0,0.1171875 0.10546,0.1171875 0.29296,0.1171875 0.72657,0 0.72657,0.09375 0.72657,0.2226563 0,0.023437 0,0.09375 -0.0469,0.28125 l -1.61719,6.4335937 c -0.10546,0.4101563 -0.1289,0.5273438 -0.96093,0.5273438 -0.23438,0 -0.35157,0 -0.35157,0.2226564 0,0.128906 0.0703,0.128906 0.30469,0.128906 h 4.10156 c 1.82813,0 3.2461,-1.3828124 3.2461,-2.5898437 0,-0.984375 -0.86719,-1.5820312 -1.82813,-1.6757812 z m -1.69922,3.9140625 h -1.61718 c -0.16407,0 -0.1875,0 -0.25782,-0.011719 -0.1289,-0.011719 -0.15234,-0.035156 -0.15234,-0.1289062 0,-0.082031 0.0352,-0.1523438 0.0586,-0.2578125 l 0.83204,-3.375 h 2.25 c 1.40625,0 1.40625,1.3125 1.40625,1.40625 0,1.1484375 -1.04297,2.3671875 -2.51954,2.3671875 z m 13.72266,-7.9570313 c 0,-0.1054687 -0.082,-0.1054687 -0.10547,-0.1054687 -0.0234,0 -0.0703,0 -0.17578,0.1171875 l -0.82031,1.0078125 c -0.42188,-0.7148438 -1.07813,-1.125 -1.96875,-1.125 -2.58985,0 -5.26172,2.6132812 -5.26172,5.4257812 0,1.9921875 1.39453,3.2343752 3.14062,3.2343752 0.96094,0 1.79297,-0.398438 2.48438,-0.9843752 1.04297,-0.8789062 1.35937,-2.0390625 1.35937,-2.1328125 0,-0.1054687 -0.0937,-0.1054687 -0.14062,-0.1054687 -0.10547,0 -0.11719,0.070312 -0.14063,0.1171875 -0.55078,1.8632812 -2.15625,2.7656249 -3.35156,2.7656249 -1.27734,0 -2.36719,-0.8203124 -2.36719,-2.5078124 0,-0.3867188 0.11719,-2.4609375 1.46485,-4.03125 0.65625,-0.7617188 1.78125,-1.4414063 2.91797,-1.4414063 1.3125,0 1.89843,1.0898438 1.89843,2.3085938 0,0.3164062 -0.0351,0.5742187 -0.0351,0.6210937 0,0.1171875 0.11719,0.1171875 0.15234,0.1171875 0.14063,0 0.15235,-0.011719 0.19922,-0.234375 z m 2.17969,7.4296875 c -0.10547,0.4101563 -0.12891,0.5273438 -0.96094,0.5273438 -0.23437,0 -0.35156,0 -0.35156,0.2226564 0,0.128906 0.0703,0.128906 0.30469,0.128906 h 3.79687 c 2.41406,0 4.76953,-2.4960937 4.76953,-5.1679687 0,-1.7226562 -1.03125,-3 -2.74219,-3 h -3.83203 c -0.23437,0 -0.33984,0 -0.33984,0.234375 0,0.1171875 0.10547,0.1171875 0.29297,0.1171875 0.72656,0 0.72656,0.09375 0.72656,0.2226563 0,0.023437 0,0.09375 -0.0469,0.28125 z m 2.51953,-6.46875 c 0.11719,-0.4453125 0.16406,-0.46875 0.62109,-0.46875 h 1.32422 c 1.11328,0 2.14453,0.609375 2.14453,2.2617188 0,0.5976562 -0.23437,2.671875 -1.39453,3.984375 -0.33984,0.3984375 -1.24219,1.21875 -2.625,1.21875 h -1.35937 c -0.16407,0 -0.1875,0 -0.25782,-0.011719 -0.1289,-0.011719 -0.14062,-0.035156 -0.14062,-0.1289062 0,-0.082031 0.0234,-0.1523438 0.0469,-0.2578125 z m 0,0"
         style="fill:#000000;fill-opacity:1;fill-rule:nonzero;stroke:none" />
      <path
         id="path19"
         d="m -151.79626,61.813047 c 0.0234,-0.117188 0.10547,-0.421875 0.12891,-0.539063 0.10547,-0.421875 0.10547,-0.433593 0.29297,-0.703125 0.25781,-0.386718 0.63281,-0.738281 1.17187,-0.738281 0.28125,0 0.45703,0.164063 0.45703,0.539063 0,0.445312 -0.33984,1.347656 -0.49218,1.746093 -0.10547,0.257813 -0.10547,0.304688 -0.10547,0.410157 0,0.457031 0.375,0.679687 0.72656,0.679687 0.77344,0 1.10156,-1.113281 1.10156,-1.21875 0,-0.08203 -0.0586,-0.105469 -0.11719,-0.105469 -0.0937,0 -0.11718,0.05859 -0.14062,0.128907 -0.1875,0.65625 -0.51563,0.972656 -0.82031,0.972656 -0.12891,0 -0.19922,-0.08203 -0.19922,-0.269531 0,-0.175782 0.0703,-0.351563 0.15234,-0.550782 0.11719,-0.304687 0.46875,-1.21875 0.46875,-1.664062 0,-0.597656 -0.42187,-0.890625 -0.99609,-0.890625 -0.64453,0 -1.05469,0.386719 -1.28906,0.691406 -0.0586,-0.433594 -0.39844,-0.691406 -0.8086,-0.691406 -0.29297,0 -0.49219,0.1875 -0.60937,0.433594 -0.19922,0.375 -0.28125,0.773437 -0.28125,0.785156 0,0.07031 0.0586,0.105469 0.1289,0.105469 0.0937,0 0.10547,-0.03516 0.16407,-0.234375 0.0937,-0.398438 0.23437,-0.867188 0.57421,-0.867188 0.21094,0 0.25782,0.199219 0.25782,0.375 0,0.140625 -0.0469,0.292969 -0.10547,0.5625 -0.0234,0.05859 -0.14063,0.527344 -0.17578,0.644531 l -0.29297,1.195313 c -0.0234,0.117187 -0.0703,0.316406 -0.0703,0.351562 0,0.175782 0.14062,0.246094 0.24609,0.246094 0.15234,0 0.26953,-0.09375 0.31641,-0.199219 0.0352,-0.04687 0.0937,-0.316406 0.1289,-0.480468 z m 0,0"
         style="fill:#000000;fill-opacity:1;fill-rule:nonzero;stroke:none" />
      <path
         id="path20"
         d="m -144.78259,61.320859 h 2.34375 c 0.11719,0 0.29297,0 0.29297,-0.1875 0,-0.1875 -0.17578,-0.1875 -0.29297,-0.1875 h -2.34375 v -2.34375 c 0,-0.117187 0,-0.292968 -0.17578,-0.292968 -0.1875,0 -0.1875,0.175781 -0.1875,0.292968 v 2.34375 h -2.34375 c -0.11718,0 -0.29297,0 -0.29297,0.1875 0,0.1875 0.17579,0.1875 0.29297,0.1875 h 2.34375 v 2.34375 c 0,0.117188 0,0.292969 0.1875,0.292969 0.17578,0 0.17578,-0.175781 0.17578,-0.292969 z m 6.25782,-3.351562 c 0,-0.164063 0,-0.222656 -0.16407,-0.222656 -0.10546,0 -0.11718,0.01172 -0.19921,0.117187 l -2.54297,3.691406 v 0.257813 h 2.25 v 0.667969 c 0,0.292968 -0.0234,0.386718 -0.63282,0.386718 h -0.1875 v 0.257813 c 0.67969,-0.02344 0.69141,-0.02344 1.14844,-0.02344 0.45703,0 0.46875,0 1.14844,0.02344 v -0.257813 h -0.1875 c -0.60938,0 -0.63281,-0.09375 -0.63281,-0.386718 v -0.667969 h 0.84375 v -0.257813 h -0.84375 z m -0.59766,0.644531 v 2.941406 h -2.02734 z m 0,0"
         style="fill:#000000;fill-opacity:1;fill-rule:nonzero;stroke:none" />
    </g>
    <path
       id="path21"
       d="M 0,0 H 15.959"
       style="fill:none;stroke:#000000;stroke-width:0.478;stroke-linecap:butt;stroke-linejoin:miter;stroke-miterlimit:10;stroke-dasharray:none;stroke-opacity:1"
       transform="matrix(1.3333333,0,0,-1.3333333,330.22267,313.70667)" />
    <g
       id="g21"
       aria-label="2&#10;&#10;+3n−2·(−1)&#10;n&#10;jestpodzielnaprzez7dlaka»dejliczbynaturalnejn,gdzie[x]oznaczanajwi¦ksz¡liczb¦caª-&#10;kowit¡niewi¦ksz¡ni»x.&#10;ZADANIE3.&#10;Wyznaczwszystkieliczbypierwsze,któres¡równocze±niesumamiiró»nicamidwóchliczb&#10;pierwszych.&#10;ZADANIE4.&#10;Czyistniejeliczbasze±ciocyfrowapodzielnaprzez11osumiecyfrrównej11,którejdwieostatnie&#10;cyfrytworz¡liczb¦11?&#10;ZADANIE5.&#10;Znajd¹wszystkietrójkiliczbrzeczywistych(x,y,z)speªniaj¡ceukªadrówna«&#10;(&#10;x&#10;2&#10;+y&#10;2&#10;+z&#10;2&#10;=33&#10;x+3y+5z=34."
       transform="matrix(1.3333333,0,0,1.3333333,338.04,323.188)">
      <path
         id="path22"
         d="m 2.2492969,-1.6292812 c 0.1289062,-0.1171875 0.4570312,-0.375 0.5859375,-0.4921875 0.4921875,-0.4570313 0.9609375,-0.890625 0.9609375,-1.6171875 0,-0.9492188 -0.796875,-1.5585938 -1.7929688,-1.5585938 -0.9492187,0 -1.58203122,0.7265625 -1.58203122,1.4296875 0,0.3984375 0.31640625,0.4453125 0.421875,0.4453125 0.16406252,0 0.41015622,-0.1171875 0.41015622,-0.421875 0,-0.4101562 -0.39843747,-0.4101562 -0.49218747,-0.4101562 0.234375,-0.5859375 0.77343747,-0.7851563 1.16015627,-0.7851563 0.7382812,0 1.125,0.6328125 1.125,1.3007813 0,0.8320312 -0.5859375,1.4296875 -1.5234375,2.4023437 l -1.00781252,1.03125 c -0.09375,0.09375 -0.09375,0.10546875 -0.09375,0.3046875 H 3.5735156 L 3.7961719,-1.4300625 H 3.5500781 c -0.023437,0.1640625 -0.082031,0.5625 -0.1757812,0.71484375 -0.046875,0.0585938 -0.65625,0.0585938 -0.7851563,0.0585938 H 1.1711719 Z m 0,0"
         style="fill:#000000;fill-opacity:1;fill-rule:nonzero;stroke:none" />
      <path
         id="path23"
         d="m 23.700469,-6.8880703 h 3.304687 c 0.164063,0 0.375,0 0.375,-0.2109375 0,-0.2226563 -0.199218,-0.2226563 -0.375,-0.2226563 h -3.304687 v -3.3046879 c 0,-0.164062 0,-0.386718 -0.210938,-0.386718 -0.234375,0 -0.234375,0.210937 -0.234375,0.386718 v 3.3046879 h -3.292968 c -0.175782,0 -0.386719,0 -0.386719,0.2109375 0,0.2226563 0.199219,0.2226563 0.386719,0.2226563 h 3.292968 v 3.3046875 c 0,0.1640625 0,0.3867187 0.222657,0.3867187 0.222656,0 0.222656,-0.2109375 0.222656,-0.3867187 z m 9.190429,-1.5234375 c -0.210937,0.011719 -0.257812,0.023437 -0.257812,0.1289062 0,0.1171875 0.05859,0.1171875 0.28125,0.1171875 h 0.550781 c 1.007813,0 1.464844,0.84375 1.464844,1.9921875 0,1.5585938 -0.808594,1.9804688 -1.394531,1.9804688 -0.574219,0 -1.558594,-0.28125 -1.898438,-1.0664063 0.375,0.058594 0.726563,-0.1523437 0.726563,-0.5859375 0,-0.3398437 -0.257813,-0.5859375 -0.585938,-0.5859375 -0.292969,0 -0.597656,0.1640625 -0.597656,0.6210938 0,1.0664062 1.066406,1.9335937 2.390625,1.9335937 1.417969,0 2.472656,-1.078125 2.472656,-2.2851562 0,-1.1015625 -0.890625,-1.96875 -2.027344,-2.1679688 1.03125,-0.3046875 1.699219,-1.171875 1.699219,-2.1093754 0,-0.9375 -0.972656,-1.628906 -2.132812,-1.628906 -1.195313,0 -2.085938,0.726563 -2.085938,1.59375 0,0.4804689 0.375,0.5742189 0.550781,0.5742189 0.257813,0 0.539063,-0.1757809 0.539063,-0.5390629 0,-0.375 -0.28125,-0.539062 -0.550781,-0.539062 -0.07031,0 -0.09375,0 -0.128907,0.01172 0.457032,-0.820313 1.582032,-0.820313 1.640625,-0.820313 0.386719,0 1.171875,0.175781 1.171875,1.347656 0,0.234375 -0.03516,0.9023442 -0.386718,1.4179692 -0.351563,0.5273437 -0.761719,0.5625 -1.089844,0.5742187 z m 0,0"
         style="fill:#000000;fill-opacity:1;fill-rule:nonzero;stroke:none" />
      <path
         id="path24"
         d="m 39.005156,-7.6263516 c 0.02344,-0.070312 0.328125,-0.6679687 0.761719,-1.0546875 0.316406,-0.28125 0.726563,-0.46875 1.183594,-0.46875 0.480469,0 0.644531,0.3515625 0.644531,0.8320313 0,0.6796875 -0.480469,2.0390625 -0.726562,2.6835937 -0.105469,0.2929688 -0.164063,0.4453125 -0.164063,0.6679688 0,0.5273437 0.375,0.9609375 0.949219,0.9609375 1.101562,0 1.523437,-1.7578125 1.523437,-1.828125 0,-0.058594 -0.04687,-0.1054688 -0.117187,-0.1054688 -0.105469,0 -0.117188,0.035156 -0.175781,0.234375 -0.28125,0.984375 -0.738282,1.4648438 -1.195313,1.4648438 -0.128906,0 -0.316406,-0.011719 -0.316406,-0.3984375 0,-0.2929688 0.128906,-0.65625 0.199219,-0.8203125 0.246093,-0.65625 0.75,-2.0039063 0.75,-2.6835938 0,-0.7148437 -0.421875,-1.2539062 -1.335938,-1.2539062 -1.054687,0 -1.617187,0.75 -1.839844,1.0546875 -0.03516,-0.6796875 -0.527343,-1.0546875 -1.042968,-1.0546875 -0.386719,0 -0.644532,0.234375 -0.855469,0.6328125 -0.210938,0.4335937 -0.375,1.1484375 -0.375,1.1953125 0,0.046875 0.04687,0.1054687 0.128906,0.1054687 0.09375,0 0.105469,-0.011719 0.175781,-0.28125 0.1875,-0.7265625 0.410157,-1.40625 0.890625,-1.40625 0.269532,0 0.363282,0.1875 0.363282,0.5390625 0,0.2695313 -0.117188,0.7382813 -0.199219,1.1015625 l -0.339844,1.2890625 c -0.04687,0.234375 -0.175781,0.7734375 -0.234375,0.984375 -0.08203,0.3164063 -0.210937,0.8789063 -0.210937,0.9375 0,0.1640625 0.128906,0.2929688 0.304687,0.2929688 0.140625,0 0.316406,-0.070312 0.410156,-0.2460938 0.02344,-0.058594 0.128907,-0.4804687 0.1875,-0.7148437 l 0.257813,-1.078125 z m 0,0"
         style="fill:#000000;fill-opacity:1;fill-rule:nonzero;stroke:none" />
      <path
         id="path25"
         d="m 54.06375,-6.8763516 c 0.210938,0 0.421875,0 0.421875,-0.234375 0,-0.234375 -0.210937,-0.234375 -0.421875,-0.234375 H 47.595 c -0.199219,0 -0.410156,0 -0.410156,0.234375 0,0.234375 0.210937,0.234375 0.410156,0.234375 z m 0,0"
         style="fill:#000000;fill-opacity:1;fill-rule:nonzero;stroke:none" />
      <path
         id="path26"
         d="m 63.403594,-6.1263516 h -0.269531 c -0.03516,0.1992188 -0.128907,0.8554688 -0.246094,1.0429688 -0.08203,0.1171875 -0.761719,0.1171875 -1.125,0.1171875 h -2.214844 c 0.328125,-0.28125 1.054688,-1.0429688 1.371094,-1.3359375 1.816406,-1.6640625 2.484375,-2.2851563 2.484375,-3.46875 0,-1.3828122 -1.089844,-2.2968752 -2.472656,-2.2968752 -1.394532,0 -2.203125,1.183594 -2.203125,2.2031252 0,0.609375 0.527343,0.609375 0.5625,0.609375 0.246093,0 0.5625,-0.1757813 0.5625,-0.5625 0,-0.3281252 -0.234375,-0.5507812 -0.5625,-0.5507812 -0.105469,0 -0.128907,0 -0.164063,0.01172 0.222656,-0.820313 0.867188,-1.371094 1.640625,-1.371094 1.019531,0 1.640625,0.855469 1.640625,1.9570312 0,1.0078125 -0.585937,1.8984375 -1.265625,2.6601562 l -2.414062,2.7070313 v 0.28125 h 4.359375 z m 0,0"
         style="fill:#000000;fill-opacity:1;fill-rule:nonzero;stroke:none" />
      <path
         id="path27"
         d="m 68.949492,-7.1107266 c 0,-0.3515625 -0.292969,-0.6328125 -0.632812,-0.6328125 -0.351563,0 -0.632813,0.28125 -0.632813,0.6328125 0,0.3515625 0.28125,0.6328125 0.632813,0.6328125 0.339843,0 0.632812,-0.28125 0.632812,-0.6328125 z m 0,0"
         style="fill:#000000;fill-opacity:1;fill-rule:nonzero;stroke:none" />
      <path
         id="path28"
         d="m 76.522734,-1.2161953 c 0,-0.035156 0,-0.058594 -0.210937,-0.2695313 -1.195313,-1.2070312 -1.863281,-3.1757812 -1.863281,-5.6132812 0,-2.3203125 0.5625,-4.3125002 1.945312,-5.7304692 0.128906,-0.105468 0.128906,-0.128906 0.128906,-0.164062 0,-0.07031 -0.07031,-0.09375 -0.117187,-0.09375 -0.152344,0 -1.136719,0.855469 -1.722656,2.027344 -0.609375,1.2070309 -0.878907,2.4960934 -0.878907,3.9609372 0,1.0664062 0.164063,2.484375 0.785157,3.7617187 0.703125,1.4414063 1.6875,2.2148438 1.816406,2.2148438 0.04687,0 0.117187,-0.023437 0.117187,-0.09375 z m 0,0"
         style="fill:#000000;fill-opacity:1;fill-rule:nonzero;stroke:none" />
      <path
         id="path29"
         d="m 85.056914,-6.8763516 c 0.210938,0 0.421875,0 0.421875,-0.234375 0,-0.234375 -0.210937,-0.234375 -0.421875,-0.234375 h -6.46875 c -0.199219,0 -0.410156,0 -0.410156,0.234375 0,0.234375 0.210937,0.234375 0.410156,0.234375 z m 0,0"
         style="fill:#000000;fill-opacity:1;fill-rule:nonzero;stroke:none" />
      <path
         id="path30"
         d="m 89.926055,-11.786508 c 0,-0.269531 0,-0.28125 -0.246094,-0.28125 -0.28125,0.316406 -0.878906,0.761719 -2.109375,0.761719 v 0.351562 c 0.269531,0 0.867187,0 1.523437,-0.316406 v 6.2226564 c 0,0.4335938 -0.03516,0.5742188 -1.078125,0.5742188 h -0.375 v 0.3515625 c 0.316407,-0.023437 1.476563,-0.023437 1.875,-0.023437 0.398438,0 1.546875,0 1.863282,0.023437 v -0.3515625 h -0.363282 c -1.054687,0 -1.089843,-0.140625 -1.089843,-0.5742188 z m 5.783203,4.6875002 c 0,-0.9140625 -0.128906,-2.390625 -0.796875,-3.7734372 -0.703125,-1.441407 -1.675781,-2.214844 -1.816406,-2.214844 -0.04687,0 -0.105469,0.02344 -0.105469,0.09375 0,0.03516 0,0.05859 0.199219,0.269531 1.195312,1.207031 1.875,3.1757814 1.875,5.6132814 0,2.3203125 -0.5625,4.3125 -1.957032,5.7304688 -0.117187,0.1054687 -0.117187,0.1289062 -0.117187,0.1640625 0,0.070312 0.05859,0.09375 0.105469,0.09375 0.164062,0 1.136718,-0.8554688 1.722656,-2.0273438 0.609375,-1.21875 0.890625,-2.5195312 0.890625,-3.9492187 z m 0,0"
         style="fill:#000000;fill-opacity:1;fill-rule:nonzero;stroke:none" />
      <path
         id="path31"
         d="m 98.480742,-10.371469 c 0.02344,-0.117187 0.105469,-0.421875 0.128906,-0.539062 0.105469,-0.421875 0.105469,-0.433594 0.292969,-0.703125 0.257813,-0.386719 0.632813,-0.738281 1.171873,-0.738281 0.28125,0 0.45703,0.164062 0.45703,0.539062 0,0.445313 -0.33984,1.347656 -0.49218,1.746094 -0.105473,0.2578123 -0.105473,0.3046873 -0.105473,0.410156 0,0.4570313 0.375003,0.6796875 0.726563,0.6796875 0.77344,0 1.10156,-1.1132815 1.10156,-1.2187495 0,-0.08203 -0.0586,-0.105469 -0.11719,-0.105469 -0.0937,0 -0.11718,0.05859 -0.14062,0.128906 -0.1875,0.65625 -0.51563,0.9726563 -0.82031,0.9726563 -0.12891,0 -0.19922,-0.082031 -0.19922,-0.2695313 0,-0.1757812 0.0703,-0.3515625 0.15234,-0.550781 0.11719,-0.304688 0.46875,-1.21875 0.46875,-1.664063 0,-0.597656 -0.42187,-0.890625 -0.99609,-0.890625 -0.644533,0 -1.054689,0.386719 -1.289064,0.691407 -0.05859,-0.433594 -0.398438,-0.691407 -0.808594,-0.691407 -0.292969,0 -0.492187,0.1875 -0.609375,0.433594 -0.199219,0.375 -0.28125,0.773438 -0.28125,0.785156 0,0.07031 0.05859,0.105469 0.128906,0.105469 0.09375,0 0.105469,-0.03516 0.164063,-0.234375 0.09375,-0.398437 0.234375,-0.867187 0.574219,-0.867187 0.210937,0 0.257812,0.199218 0.257812,0.375 0,0.140625 -0.04687,0.292968 -0.105469,0.5625 -0.02344,0.05859 -0.140625,0.527343 -0.175781,0.644531 l -0.292969,1.1953123 c -0.02344,0.1171875 -0.07031,0.3164062 -0.07031,0.3515625 0,0.1757812 0.140625,0.2460937 0.246094,0.2460937 0.152343,0 0.269531,-0.09375 0.316406,-0.1992187 0.03516,-0.046875 0.09375,-0.3164063 0.128906,-0.4804688 z m 0,0"
         style="fill:#000000;fill-opacity:1;fill-rule:nonzero;stroke:none" />
      <path
         id="path32"
         d="m -83.523164,9.3804844 v -0.28125 h -2.882813 c -1.453125,0 -1.476562,-0.1523438 -1.523437,-0.3867188 h -0.257813 l -0.375,2.3906254 h 0.269532 c 0.03516,-0.210938 0.140625,-0.949219 0.292968,-1.078125 0.09375,-0.070313 0.996094,-0.070313 1.160157,-0.070313 h 2.53125 l -1.265625,1.816406 c -0.316407,0.457032 -1.523438,2.425782 -1.523438,4.664063 0,0.140625 0,0.609375 0.480469,0.609375 0.503906,0 0.503906,-0.457031 0.503906,-0.621094 v -0.597656 c 0,-1.78125 0.292969,-3.164063 0.855469,-3.960938 z m 0,0"
         style="fill:#000000;fill-opacity:1;fill-rule:nonzero;stroke:none" />
      <path
         id="path33"
         d="m 70.053984,13.294547 c 0.02344,-0.07031 0.328125,-0.667969 0.761719,-1.054688 0.316406,-0.28125 0.726563,-0.46875 1.183594,-0.46875 0.480469,0 0.644531,0.351563 0.644531,0.832032 0,0.679687 -0.480469,2.039062 -0.726562,2.683593 -0.105469,0.292969 -0.164063,0.445313 -0.164063,0.667969 0,0.527344 0.375,0.960938 0.949219,0.960938 1.101562,0 1.523437,-1.757813 1.523437,-1.828125 0,-0.05859 -0.04687,-0.105469 -0.117187,-0.105469 -0.105469,0 -0.117188,0.03516 -0.175781,0.234375 -0.28125,0.984375 -0.738282,1.464844 -1.195313,1.464844 -0.128906,0 -0.316406,-0.01172 -0.316406,-0.398438 0,-0.292969 0.128906,-0.65625 0.199219,-0.820312 0.246093,-0.65625 0.75,-2.003907 0.75,-2.683594 0,-0.714844 -0.421875,-1.253906 -1.335938,-1.253906 -1.054687,0 -1.617187,0.75 -1.839844,1.054687 -0.03516,-0.679687 -0.527343,-1.054687 -1.042968,-1.054687 -0.386719,0 -0.644532,0.234375 -0.855469,0.632812 -0.210938,0.433594 -0.375,1.148438 -0.375,1.195313 0,0.04687 0.04687,0.105468 0.128906,0.105468 0.09375,0 0.105469,-0.01172 0.175781,-0.28125 0.1875,-0.726562 0.410157,-1.40625 0.890625,-1.40625 0.269532,0 0.363282,0.1875 0.363282,0.539063 0,0.269531 -0.117188,0.738281 -0.199219,1.101562 l -0.339844,1.289063 c -0.04687,0.234375 -0.175781,0.773437 -0.234375,0.984375 -0.08203,0.316406 -0.210937,0.878906 -0.210937,0.9375 0,0.164062 0.128906,0.292969 0.304687,0.292969 0.140625,0 0.316406,-0.07031 0.410156,-0.246094 0.02344,-0.05859 0.128907,-0.480469 0.1875,-0.714844 l 0.257813,-1.078125 z m 0,0"
         style="fill:#000000;fill-opacity:1;fill-rule:nonzero;stroke:none" />
      <path
         id="path34"
         d="m 115.69852,19.786734 v -0.445312 h -1.16016 V 8.2789219 h 1.16016 V 7.8336094 h -1.60547 V 19.786734 Z m 0,0"
         style="fill:#000000;fill-opacity:1;fill-rule:nonzero;stroke:none" />
      <path
         id="path35"
         d="m 121.62234,11.923453 c -0.375,0.07031 -0.51562,0.351563 -0.51562,0.585938 0,0.28125 0.22266,0.375 0.38672,0.375 0.36328,0 0.60937,-0.304688 0.60937,-0.632813 0,-0.492187 -0.57422,-0.726562 -1.07812,-0.726562 -0.72656,0 -1.125,0.714843 -1.24219,0.949218 -0.26953,-0.902343 -1.00781,-0.949218 -1.23047,-0.949218 -1.21875,0 -1.86328,1.570312 -1.86328,1.828125 0,0.04687 0.0469,0.105468 0.12891,0.105468 0.10547,0 0.1289,-0.07031 0.15234,-0.117187 0.39844,-1.324219 1.20703,-1.570313 1.54688,-1.570313 0.53906,0 0.64453,0.492188 0.64453,0.785157 0,0.257812 -0.0703,0.539062 -0.21094,1.113281 l -0.41016,1.628906 c -0.17578,0.726563 -0.52734,1.382813 -1.16015,1.382813 -0.0586,0 -0.35157,0 -0.60938,-0.152344 0.4336,-0.09375 0.52735,-0.445313 0.52735,-0.585938 0,-0.246093 -0.17579,-0.386718 -0.39844,-0.386718 -0.29297,0 -0.59766,0.246093 -0.59766,0.632812 0,0.503906 0.5625,0.726563 1.06641,0.726563 0.57422,0 0.98437,-0.457032 1.23047,-0.9375 0.19922,0.703125 0.79687,0.9375 1.23047,0.9375 1.23046,0 1.875,-1.558594 1.875,-1.828125 0,-0.05859 -0.0469,-0.105469 -0.12891,-0.105469 -0.10547,0 -0.11719,0.05859 -0.15234,0.152344 -0.31641,1.054687 -1.01954,1.546875 -1.54688,1.546875 -0.42187,0 -0.65625,-0.316407 -0.65625,-0.808594 0,-0.257813 0.0586,-0.445313 0.24609,-1.242188 l 0.42188,-1.617187 c 0.17578,-0.726563 0.58594,-1.242188 1.125,-1.242188 0.0352,0 0.36328,0 0.60937,0.152344 z m 0,0"
         style="fill:#000000;fill-opacity:1;fill-rule:nonzero;stroke:none" />
      <path
         id="path36"
         d="m 124.46707,7.8336094 h -1.60547 v 0.4453125 h 1.16016 V 19.341422 h -1.16016 v 0.445312 h 1.60547 z m 0,0"
         style="fill:#000000;fill-opacity:1;fill-rule:nonzero;stroke:none" />
      <path
         id="path37"
         d="m -72.296602,26.369742 c -0.375,0.07031 -0.515625,0.351563 -0.515625,0.585938 0,0.28125 0.222657,0.375 0.386719,0.375 0.363281,0 0.609375,-0.304688 0.609375,-0.632813 0,-0.492187 -0.574219,-0.726562 -1.078125,-0.726562 -0.726562,0 -1.125,0.714843 -1.242187,0.949218 -0.269532,-0.902343 -1.007813,-0.949218 -1.230469,-0.949218 -1.21875,0 -1.863281,1.570312 -1.863281,1.828125 0,0.04687 0.04687,0.105468 0.128906,0.105468 0.105469,0 0.128906,-0.07031 0.152344,-0.117187 0.398437,-1.324219 1.207031,-1.570313 1.546875,-1.570313 0.539062,0 0.644531,0.492188 0.644531,0.785157 0,0.257812 -0.07031,0.539062 -0.210938,1.113281 l -0.410156,1.628906 c -0.175781,0.726563 -0.527344,1.382813 -1.160156,1.382813 -0.05859,0 -0.351563,0 -0.609375,-0.152344 0.433594,-0.09375 0.527344,-0.445313 0.527344,-0.585938 0,-0.246093 -0.175782,-0.386718 -0.398438,-0.386718 -0.292969,0 -0.597656,0.246093 -0.597656,0.632812 0,0.503906 0.5625,0.726563 1.066406,0.726563 0.574219,0 0.984375,-0.457032 1.230469,-0.9375 0.199219,0.703125 0.796875,0.9375 1.230469,0.9375 1.230468,0 1.875,-1.558594 1.875,-1.828125 0,-0.05859 -0.04687,-0.105469 -0.128907,-0.105469 -0.105468,0 -0.117187,0.05859 -0.152343,0.152344 -0.316407,1.054687 -1.019532,1.546875 -1.546875,1.546875 -0.421875,0 -0.65625,-0.316407 -0.65625,-0.808594 0,-0.257813 0.05859,-0.445313 0.246093,-1.242188 l 0.421875,-1.617187 c 0.175782,-0.726563 0.585938,-1.242188 1.125,-1.242188 0.03516,0 0.363282,0 0.609375,0.152344 z m 0,0"
         style="fill:#000000;fill-opacity:1;fill-rule:nonzero;stroke:none" />
      <path
         id="path38"
         d="m 58.341094,124.15685 c 0,-0.26953 0,-0.28125 -0.246094,-0.28125 -0.28125,0.31641 -0.878906,0.76172 -2.109375,0.76172 v 0.35156 c 0.269531,0 0.867188,0 1.523438,-0.3164 v 6.22265 c 0,0.4336 -0.03516,0.57422 -1.078125,0.57422 h -0.375 v 0.35156 c 0.316406,-0.0234 1.476562,-0.0234 1.875,-0.0234 0.398437,0 1.546875,0 1.863281,0.0234 v -0.35156 h -0.363281 c -1.054688,0 -1.089844,-0.14062 -1.089844,-0.57422 z m 5.853515,0 c 0,-0.26953 0,-0.28125 -0.246093,-0.28125 -0.28125,0.31641 -0.878907,0.76172 -2.109375,0.76172 v 0.35156 c 0.269531,0 0.867187,0 1.523437,-0.3164 v 6.22265 c 0,0.4336 -0.03516,0.57422 -1.078125,0.57422 h -0.375 v 0.35156 c 0.316406,-0.0234 1.476563,-0.0234 1.875,-0.0234 0.398438,0 1.546875,0 1.863281,0.0234 v -0.35156 h -0.363281 c -1.054687,0 -1.089844,-0.14062 -1.089844,-0.57422 z m 0,0"
         style="fill:#000000;fill-opacity:1;fill-rule:nonzero;stroke:none" />
      <path
         id="path39"
         d="m 172.42605,124.15685 c 0,-0.26953 0,-0.28125 -0.24609,-0.28125 -0.28125,0.31641 -0.87891,0.76172 -2.10937,0.76172 v 0.35156 c 0.26953,0 0.86718,0 1.52343,-0.3164 v 6.22265 c 0,0.4336 -0.0351,0.57422 -1.07812,0.57422 h -0.375 v 0.35156 c 0.3164,-0.0234 1.47656,-0.0234 1.875,-0.0234 0.39844,0 1.54687,0 1.86328,0.0234 v -0.35156 h -0.36328 c -1.05469,0 -1.08985,-0.14062 -1.08985,-0.57422 z m 5.85352,0 c 0,-0.26953 0,-0.28125 -0.24609,-0.28125 -0.28125,0.31641 -0.87891,0.76172 -2.10938,0.76172 v 0.35156 c 0.26953,0 0.86719,0 1.52344,-0.3164 v 6.22265 c 0,0.4336 -0.0352,0.57422 -1.07813,0.57422 h -0.375 v 0.35156 c 0.31641,-0.0234 1.47657,-0.0234 1.875,-0.0234 0.39844,0 1.54688,0 1.86329,0.0234 v -0.35156 h -0.36329 c -1.05468,0 -1.08984,-0.14062 -1.08984,-0.57422 z m 0,0"
         style="fill:#000000;fill-opacity:1;fill-rule:nonzero;stroke:none" />
      <path
         id="path40"
         d="m -92.130586,138.60314 c 0,-0.26953 0,-0.28125 -0.246094,-0.28125 -0.28125,0.31641 -0.878906,0.76172 -2.109375,0.76172 v 0.35156 c 0.269532,0 0.867188,0 1.523438,-0.3164 v 6.22265 c 0,0.4336 -0.03516,0.57422 -1.078125,0.57422 h -0.375 v 0.35156 c 0.316406,-0.0234 1.476562,-0.0234 1.875,-0.0234 0.398437,0 1.546875,0 1.863281,0.0234 v -0.35156 h -0.363281 c -1.054688,0 -1.089844,-0.14062 -1.089844,-0.57422 z m 5.853516,0 c 0,-0.26953 0,-0.28125 -0.246094,-0.28125 -0.28125,0.31641 -0.878906,0.76172 -2.109375,0.76172 v 0.35156 c 0.269531,0 0.867187,0 1.523437,-0.3164 v 6.22265 c 0,0.4336 -0.03516,0.57422 -1.078125,0.57422 h -0.375 v 0.35156 c 0.316407,-0.0234 1.476563,-0.0234 1.875,-0.0234 0.398438,0 1.546875,0 1.863282,0.0234 v -0.35156 h -0.363282 c -1.054687,0 -1.089843,-0.14062 -1.089843,-0.57422 z m 0,0"
         style="fill:#000000;fill-opacity:1;fill-rule:nonzero;stroke:none" />
      <path
         id="path41"
         d="m 33.019805,192.23693 c 0,-0.0352 0,-0.0586 -0.210938,-0.26953 -1.195312,-1.20703 -1.863281,-3.17578 -1.863281,-5.61328 0,-2.32032 0.5625,-4.3125 1.945312,-5.73047 0.128907,-0.10547 0.128907,-0.12891 0.128907,-0.16406 0,-0.0703 -0.07031,-0.0937 -0.117188,-0.0937 -0.152344,0 -1.136719,0.85546 -1.722656,2.02734 -0.609375,1.20703 -0.878906,2.49609 -0.878906,3.96094 0,1.0664 0.164062,2.48437 0.785156,3.76172 0.703125,1.4414 1.6875,2.21484 1.816406,2.21484 0.04687,0 0.117188,-0.0234 0.117188,-0.0937 z m 0,0"
         style="fill:#000000;fill-opacity:1;fill-rule:nonzero;stroke:none" />
      <path
         id="path42"
         d="m 39.34207,184.45568 c -0.375,0.0703 -0.515625,0.35156 -0.515625,0.58594 0,0.28125 0.222657,0.375 0.386719,0.375 0.363281,0 0.609375,-0.30469 0.609375,-0.63282 0,-0.49218 -0.574219,-0.72656 -1.078125,-0.72656 -0.726562,0 -1.125,0.71485 -1.242187,0.94922 -0.269532,-0.90234 -1.007813,-0.94922 -1.230469,-0.94922 -1.21875,0 -1.863281,1.57031 -1.863281,1.82813 0,0.0469 0.04687,0.10547 0.128906,0.10547 0.105469,0 0.128906,-0.0703 0.152344,-0.11719 0.398437,-1.32422 1.207031,-1.57031 1.546875,-1.57031 0.539062,0 0.644531,0.49218 0.644531,0.78515 0,0.25781 -0.07031,0.53906 -0.210938,1.11328 l -0.410156,1.62891 c -0.175781,0.72656 -0.527344,1.38281 -1.160156,1.38281 -0.05859,0 -0.351563,0 -0.609375,-0.15234 0.433594,-0.0937 0.527344,-0.44531 0.527344,-0.58594 0,-0.24609 -0.175782,-0.38672 -0.398438,-0.38672 -0.292969,0 -0.597656,0.2461 -0.597656,0.63281 0,0.50391 0.5625,0.72657 1.066406,0.72657 0.574219,0 0.984375,-0.45703 1.230469,-0.9375 0.199219,0.70312 0.796875,0.9375 1.230469,0.9375 1.230468,0 1.875,-1.5586 1.875,-1.82813 0,-0.0586 -0.04687,-0.10547 -0.128907,-0.10547 -0.105468,0 -0.117187,0.0586 -0.152343,0.15235 -0.316407,1.05468 -1.019532,1.54687 -1.546875,1.54687 -0.421875,0 -0.65625,-0.3164 -0.65625,-0.80859 0,-0.25781 0.05859,-0.44531 0.246093,-1.24219 l 0.421875,-1.61719 c 0.175782,-0.72656 0.585938,-1.24218 1.125,-1.24218 0.03516,0 0.363282,0 0.609375,0.15234 z m 3.322266,4.92187 c 0,-0.6914 -0.222656,-1.20703 -0.714844,-1.20703 -0.386719,0 -0.574219,0.31641 -0.574219,0.57422 0,0.25781 0.175782,0.58594 0.585938,0.58594 0.152344,0 0.28125,-0.0469 0.386719,-0.15234 0.02344,-0.0234 0.03516,-0.0234 0.04687,-0.0234 0.03516,0 0.03516,0.16406 0.03516,0.22265 0,0.39844 -0.08203,1.17188 -0.773438,1.94532 -0.128906,0.15234 -0.128906,0.17578 -0.128906,0.19922 0,0.0586 0.05859,0.11718 0.117188,0.11718 0.09375,0 1.019531,-0.89062 1.019531,-2.26172 z m 6.058594,1.28907 c -0.316407,0.45703 -0.785157,0.86718 -1.371094,0.86718 -0.140625,0 -0.714844,-0.0234 -0.902344,-0.57421 0.04687,0.0117 0.105469,0.0117 0.128906,0.0117 0.351563,0 0.597657,-0.3164 0.597657,-0.58593 0,-0.28125 -0.234375,-0.375 -0.410157,-0.375 -0.1875,0 -0.609375,0.14062 -0.609375,0.72656 0,0.60937 0.515625,1.03125 1.195313,1.03125 1.195312,0 2.402344,-1.10156 2.742187,-2.42578 l 1.171875,-4.66406 c 0.01172,-0.0586 0.03516,-0.12891 0.03516,-0.19922 0,-0.17578 -0.152344,-0.30469 -0.328125,-0.30469 -0.105469,0 -0.363282,0.0469 -0.457032,0.41016 l -0.878906,3.51562 c -0.05859,0.21094 -0.05859,0.23438 -0.152344,0.375 -0.246093,0.32813 -0.644531,0.73828 -1.207031,0.73828 -0.679687,0 -0.738281,-0.65625 -0.738281,-0.98437 0,-0.67969 0.328125,-1.60547 0.644531,-2.46094 0.140625,-0.35156 0.210938,-0.51563 0.210938,-0.75 0,-0.50391 -0.363282,-0.96094 -0.949219,-0.96094 -1.101563,0 -1.535156,1.73438 -1.535156,1.82813 0,0.0469 0.04687,0.10547 0.128906,0.10547 0.105469,0 0.117187,-0.0469 0.164062,-0.21094 0.292969,-1.00781 0.738282,-1.47656 1.207032,-1.47656 0.105468,0 0.316406,0 0.316406,0.38671 0,0.31641 -0.140625,0.65625 -0.316406,1.11329 -0.585938,1.57031 -0.585938,1.95703 -0.585938,2.25 0,1.13671 0.808594,1.39453 1.40625,1.39453 0.351563,0 0.785156,-0.10547 1.195313,-0.55078 l 0.01172,0.0117 c -0.175781,0.70313 -0.292968,1.17188 -0.714843,1.75782 z m 5.329101,-1.28907 c 0,-0.6914 -0.222656,-1.20703 -0.714843,-1.20703 -0.386719,0 -0.574219,0.31641 -0.574219,0.57422 0,0.25781 0.175781,0.58594 0.585937,0.58594 0.152344,0 0.28125,-0.0469 0.386719,-0.15234 0.02344,-0.0234 0.03516,-0.0234 0.04687,-0.0234 0.03516,0 0.03516,0.16406 0.03516,0.22265 0,0.39844 -0.08203,1.17188 -0.773437,1.94532 -0.128906,0.15234 -0.128906,0.17578 -0.128906,0.19922 0,0.0586 0.05859,0.11718 0.117187,0.11718 0.09375,0 1.019531,-0.89062 1.019531,-2.26172 z m 4.426758,-1.01953 c 0.503906,-0.58593 0.925781,-0.94922 1.523438,-1.48828 0.714843,-0.62109 1.03125,-0.92578 1.195312,-1.10156 0.84375,-0.82031 1.253906,-1.52344 1.253906,-1.61719 0,-0.0937 -0.09375,-0.0937 -0.117187,-0.0937 -0.08203,0 -0.105469,0.0469 -0.164063,0.12891 -0.304687,0.51562 -0.585937,0.77344 -0.902343,0.77344 -0.246094,0 -0.375,-0.11719 -0.609375,-0.39844 -0.246094,-0.29297 -0.457032,-0.50391 -0.796875,-0.50391 -0.878907,0 -1.394532,1.08985 -1.394532,1.33594 0,0.0352 0.01172,0.11719 0.117188,0.11719 0.09375,0 0.105469,-0.0469 0.140625,-0.14063 0.199219,-0.46875 0.773437,-0.5625 1.007812,-0.5625 0.246094,0 0.480469,0.0937 0.738282,0.19922 0.457031,0.1875 0.644531,0.1875 0.761718,0.1875 0.08203,0 0.128907,0 0.1875,-0.0117 -0.386718,0.46875 -1.03125,1.04297 -1.570312,1.53516 l -1.207031,1.10156 c -0.726563,0.75 -1.171875,1.45313 -1.171875,1.53516 0,0.0703 0.05859,0.0937 0.128906,0.0937 0.07031,0 0.08203,-0.0117 0.164062,-0.15235 0.199219,-0.30468 0.574219,-0.73828 1.019532,-0.73828 0.246093,0 0.375,0.082 0.609375,0.375 0.222656,0.26953 0.433593,0.51563 0.808593,0.51563 1.171875,0 1.851563,-1.51172 1.851563,-1.79297 0,-0.0469 -0.01172,-0.11719 -0.140625,-0.11719 -0.09375,0 -0.105469,0.0469 -0.140625,0.16406 -0.257813,0.70313 -0.972656,0.9961 -1.429688,0.9961 -0.257812,0 -0.492187,-0.082 -0.75,-0.1875 -0.46875,-0.19922 -0.609375,-0.19922 -0.761718,-0.19922 -0.117188,0 -0.246094,0 -0.351563,0.0469 z m 0,0"
         style="fill:#000000;fill-opacity:1;fill-rule:nonzero;stroke:none" />
      <path
         id="path43"
         d="m 66.303984,186.35412 c 0,-0.91407 -0.128906,-2.39063 -0.796875,-3.77344 -0.703125,-1.44141 -1.675781,-2.21484 -1.816406,-2.21484 -0.04687,0 -0.105469,0.0234 -0.105469,0.0937 0,0.0352 0,0.0586 0.199219,0.26953 1.195313,1.20703 1.875,3.17578 1.875,5.61328 0,2.32031 -0.5625,4.3125 -1.957031,5.73047 -0.117188,0.10547 -0.117188,0.1289 -0.117188,0.16406 0,0.0703 0.05859,0.0937 0.105469,0.0937 0.164063,0 1.136719,-0.85547 1.722656,-2.02734 0.609375,-1.21875 0.890625,-2.51954 0.890625,-3.94922 z m 0,0"
         style="fill:#000000;fill-opacity:1;fill-rule:nonzero;stroke:none" />
      <path
         id="path44"
         d="m -5.6344922,227.5924 c 0,-1.32422 -0.9023437,-3.33985 -2.9882812,-4.39453 1.2890625,-0.69141 2.8359375,-2.08594 2.9765625,-4.32422 l 0.011719,-0.0703 v -8.28516 c 0,-0.98438 0,-1.19531 0.09375,-1.65234 0.2226563,-0.94922 0.796875,-2.13282 2.3085938,-3.03516 0.09375,-0.0586 0.1054687,-0.0703 0.1054687,-0.28125 0,-0.26953 -0.011719,-0.28125 -0.2695312,-0.28125 -0.2226563,0 -0.2460938,0 -0.5625,0.19922 -2.6835938,1.51172 -2.8359375,3.73828 -2.8359375,4.14844 v 8.50781 c 0,0.85547 0,1.82812 -0.6210938,2.92969 -0.5507812,0.97265 -1.1953125,1.46484 -1.7109375,1.8164 -0.1640625,0.10547 -0.1757812,0.11719 -0.1757812,0.31641 0,0.22265 0.011719,0.23437 0.1054687,0.29297 1.0195313,0.66797 2.109375,1.73437 2.3671875,3.67968 0.035156,0.25782 0.035156,0.28125 0.035156,0.4336 v 9.17578 c 0,0.97266 0.5976562,2.97656 2.90625,4.19531 0.2695312,0.15235 0.2929687,0.15235 0.4921875,0.15235 0.2578125,0 0.2695312,-0.0117 0.2695312,-0.26954 0,-0.22265 -0.011719,-0.23437 -0.058594,-0.25781 -0.515625,-0.3164 -2.0742188,-1.26562 -2.4023438,-3.33984 -0.046875,-0.31641 -0.046875,-0.33985 -0.046875,-0.49219 z m 0,0"
         style="fill:#000000;fill-opacity:1;fill-rule:nonzero;stroke:none" />
      <path
         id="path45"
         d="m 4.2649219,213.12853 c -0.375,0.0703 -0.515625,0.35156 -0.515625,0.58594 0,0.28125 0.2226562,0.375 0.3867187,0.375 0.3632813,0 0.609375,-0.30469 0.609375,-0.63281 0,-0.49219 -0.5742187,-0.72657 -1.078125,-0.72657 -0.7265625,0 -1.125,0.71485 -1.2421875,0.94922 -0.2695312,-0.90234 -1.0078125,-0.94922 -1.2304687,-0.94922 -1.21875002,0 -1.86328127,1.57032 -1.86328127,1.82813 0,0.0469 0.046875,0.10547 0.12890625,0.10547 0.10546875,0 0.12890625,-0.0703 0.15234375,-0.11719 0.3984375,-1.32422 1.20703125,-1.57031 1.54687497,-1.57031 0.5390625,0 0.6445313,0.49218 0.6445313,0.78515 0,0.25782 -0.070312,0.53907 -0.2109375,1.11328 l -0.4101563,1.62891 c -0.1757812,0.72656 -0.52734372,1.38281 -1.16015622,1.38281 -0.05859375,0 -0.3515625,0 -0.609375,-0.15234 0.43359375,-0.0937 0.52734375,-0.44531 0.52734375,-0.58594 0,-0.24609 -0.17578125,-0.38672 -0.3984375,-0.38672 -0.29296875,0 -0.59765623,0.2461 -0.59765623,0.63282 0,0.5039 0.56249998,0.72656 1.06640623,0.72656 0.57421875,0 0.984375,-0.45703 1.23046877,-0.9375 0.1992187,0.70312 0.796875,0.9375 1.2304687,0.9375 1.2304688,0 1.875,-1.5586 1.875,-1.82813 0,-0.0586 -0.046875,-0.10547 -0.1289062,-0.10547 -0.1054688,0 -0.1171875,0.0586 -0.1523438,0.15235 -0.3164062,1.05469 -1.0195312,1.54687 -1.546875,1.54687 -0.421875,0 -0.65625,-0.3164 -0.65625,-0.80859 0,-0.25781 0.058594,-0.44531 0.2460938,-1.24219 l 0.421875,-1.61719 c 0.1757812,-0.72656 0.5859375,-1.24218 1.125,-1.24218 0.035156,0 0.3632812,0 0.609375,0.15234 z m 0,0"
         style="fill:#000000;fill-opacity:1;fill-rule:nonzero;stroke:none" />
      <path
         id="path46"
         d="m 7.5080859,212.03576 c 0.1289063,-0.11719 0.4570313,-0.375 0.5859375,-0.49219 0.4921875,-0.45703 0.9609375,-0.89062 0.9609375,-1.61719 0,-0.94922 -0.796875,-1.55859 -1.7929687,-1.55859 -0.9492188,0 -1.5820313,0.72656 -1.5820313,1.42969 0,0.39843 0.3164063,0.44531 0.421875,0.44531 0.1640625,0 0.4101563,-0.11719 0.4101563,-0.42188 0,-0.41015 -0.3984375,-0.41015 -0.4921875,-0.41015 0.234375,-0.58594 0.7734375,-0.78516 1.1601562,-0.78516 0.7382813,0 1.125,0.63281 1.125,1.30078 0,0.83203 -0.5859375,1.42969 -1.5234375,2.40235 l -1.0078125,1.03125 c -0.09375,0.0937 -0.09375,0.10547 -0.09375,0.30468 h 3.1523438 l 0.2226562,-1.42968 H 8.8088672 c -0.023437,0.16406 -0.082031,0.5625 -0.1757813,0.71484 -0.046875,0.0586 -0.65625,0.0586 -0.7851562,0.0586 H 6.4299609 Z m 0,0"
         style="fill:#000000;fill-opacity:1;fill-rule:nonzero;stroke:none" />
      <path
         id="path47"
         d="m 17.416289,215.23791 h 3.304688 c 0.164062,0 0.375,0 0.375,-0.21094 0,-0.22266 -0.199219,-0.22266 -0.375,-0.22266 h -3.304688 v -3.30469 c 0,-0.16406 0,-0.38671 -0.210937,-0.38671 -0.234375,0 -0.234375,0.21093 -0.234375,0.38671 v 3.30469 h -3.292969 c -0.175781,0 -0.386719,0 -0.386719,0.21094 0,0.22266 0.199219,0.22266 0.386719,0.22266 h 3.292969 v 3.30468 c 0,0.16407 0,0.38672 0.222656,0.38672 0.222656,0 0.222656,-0.21094 0.222656,-0.38672 z m 0,0"
         style="fill:#000000;fill-opacity:1;fill-rule:nonzero;stroke:none" />
      <path
         id="path48"
         d="m 27.547148,219.33947 c -0.316406,0.45703 -0.785156,0.86719 -1.371093,0.86719 -0.140625,0 -0.714844,-0.0234 -0.902344,-0.57422 0.04687,0.0117 0.105469,0.0117 0.128906,0.0117 0.351563,0 0.597656,-0.31641 0.597656,-0.58594 0,-0.28125 -0.234375,-0.375 -0.410156,-0.375 -0.1875,0 -0.609375,0.14062 -0.609375,0.72656 0,0.60938 0.515625,1.03125 1.195313,1.03125 1.195312,0 2.402343,-1.10156 2.742187,-2.42578 l 1.171875,-4.66406 c 0.01172,-0.0586 0.03516,-0.12891 0.03516,-0.19922 0,-0.17578 -0.152343,-0.30469 -0.328125,-0.30469 -0.105468,0 -0.363281,0.0469 -0.457031,0.41016 l -0.878906,3.51562 c -0.05859,0.21094 -0.05859,0.23438 -0.152344,0.375 -0.246094,0.32813 -0.644531,0.73828 -1.207031,0.73828 -0.679688,0 -0.738281,-0.65625 -0.738281,-0.98437 0,-0.67969 0.328125,-1.60547 0.644531,-2.46094 0.140625,-0.35156 0.210937,-0.51562 0.210937,-0.75 0,-0.50391 -0.363281,-0.96094 -0.949218,-0.96094 -1.101563,0 -1.535157,1.73438 -1.535157,1.82813 0,0.0469 0.04687,0.10547 0.128907,0.10547 0.105468,0 0.117187,-0.0469 0.164062,-0.21094 0.292969,-1.00781 0.738281,-1.47656 1.207031,-1.47656 0.105469,0 0.316407,0 0.316407,0.38672 0,0.3164 -0.140625,0.65625 -0.316407,1.11328 -0.585937,1.57031 -0.585937,1.95703 -0.585937,2.25 0,1.13672 0.808594,1.39453 1.40625,1.39453 0.351562,0 0.785156,-0.10547 1.195312,-0.55078 l 0.01172,0.0117 c -0.175781,0.70312 -0.292969,1.17187 -0.714844,1.75781 z m 0,0"
         style="fill:#000000;fill-opacity:1;fill-rule:nonzero;stroke:none" />
      <path
         id="path49"
         d="m 32.794219,212.03576 c 0.128906,-0.11719 0.457031,-0.375 0.585937,-0.49219 0.492188,-0.45703 0.960938,-0.89062 0.960938,-1.61719 0,-0.94922 -0.796875,-1.55859 -1.792969,-1.55859 -0.949219,0 -1.582031,0.72656 -1.582031,1.42969 0,0.39843 0.316406,0.44531 0.421875,0.44531 0.164062,0 0.410156,-0.11719 0.410156,-0.42188 0,-0.41015 -0.398437,-0.41015 -0.492187,-0.41015 0.234375,-0.58594 0.773437,-0.78516 1.160156,-0.78516 0.738281,0 1.125,0.63281 1.125,1.30078 0,0.83203 -0.585938,1.42969 -1.523438,2.40235 l -1.007812,1.03125 c -0.09375,0.0937 -0.09375,0.10547 -0.09375,0.30468 h 3.152344 l 0.222656,-1.42968 H 34.095 c -0.02344,0.16406 -0.08203,0.5625 -0.175781,0.71484 -0.04687,0.0586 -0.65625,0.0586 -0.785156,0.0586 h -1.417969 z m 0,0"
         style="fill:#000000;fill-opacity:1;fill-rule:nonzero;stroke:none" />
      <path
         id="path50"
         d="m 42.702422,215.23791 h 3.304687 c 0.164063,0 0.375,0 0.375,-0.21094 0,-0.22266 -0.199218,-0.22266 -0.375,-0.22266 h -3.304687 v -3.30469 c 0,-0.16406 0,-0.38671 -0.210938,-0.38671 -0.234375,0 -0.234375,0.21093 -0.234375,0.38671 v 3.30469 h -3.292968 c -0.175782,0 -0.386719,0 -0.386719,0.21094 0,0.22266 0.199219,0.22266 0.386719,0.22266 h 3.292968 v 3.30468 c 0,0.16407 0,0.38672 0.222657,0.38672 0.222656,0 0.222656,-0.21094 0.222656,-0.38672 z m 0,0"
         style="fill:#000000;fill-opacity:1;fill-rule:nonzero;stroke:none" />
      <path
         id="path51"
         d="m 51.216094,217.03087 c 0.503906,-0.58593 0.925781,-0.94921 1.523437,-1.48828 0.714844,-0.62109 1.03125,-0.92578 1.195313,-1.10156 0.84375,-0.82031 1.253906,-1.52344 1.253906,-1.61719 0,-0.0937 -0.09375,-0.0937 -0.117187,-0.0937 -0.08203,0 -0.105469,0.0469 -0.164063,0.12891 -0.304687,0.51562 -0.585937,0.77344 -0.902344,0.77344 -0.246093,0 -0.375,-0.11719 -0.609375,-0.39844 -0.246093,-0.29297 -0.457031,-0.50391 -0.796875,-0.50391 -0.878906,0 -1.394531,1.08985 -1.394531,1.33594 0,0.0352 0.01172,0.11719 0.117188,0.11719 0.09375,0 0.105468,-0.0469 0.140625,-0.14063 0.199218,-0.46875 0.773437,-0.5625 1.007812,-0.5625 0.246094,0 0.480469,0.0937 0.738281,0.19922 0.457032,0.1875 0.644532,0.1875 0.761719,0.1875 0.08203,0 0.128906,0 0.1875,-0.0117 -0.386719,0.46875 -1.03125,1.04297 -1.570312,1.53516 l -1.207032,1.10156 c -0.726562,0.75 -1.171875,1.45313 -1.171875,1.53516 0,0.0703 0.05859,0.0937 0.128907,0.0937 0.07031,0 0.08203,-0.0117 0.164062,-0.15235 0.199219,-0.30468 0.574219,-0.73828 1.019531,-0.73828 0.246094,0 0.375,0.082 0.609375,0.375 0.222657,0.26953 0.433594,0.51563 0.808594,0.51563 1.171875,0 1.851563,-1.51172 1.851563,-1.79297 0,-0.0469 -0.01172,-0.11719 -0.140625,-0.11719 -0.09375,0 -0.105469,0.0469 -0.140625,0.16406 -0.257813,0.70313 -0.972657,0.9961 -1.429688,0.9961 -0.257812,0 -0.492187,-0.082 -0.75,-0.1875 C 51.860625,216.984 51.72,216.984 51.567656,216.984 c -0.117187,0 -0.246093,0 -0.351562,0.0469 z m 0,0"
         style="fill:#000000;fill-opacity:1;fill-rule:nonzero;stroke:none" />
      <path
         id="path52"
         d="m 57.916289,212.03576 c 0.128906,-0.11719 0.457031,-0.375 0.585938,-0.49219 0.492187,-0.45703 0.960937,-0.89062 0.960937,-1.61719 0,-0.94922 -0.796875,-1.55859 -1.792969,-1.55859 -0.949218,0 -1.582031,0.72656 -1.582031,1.42969 0,0.39843 0.316406,0.44531 0.421875,0.44531 0.164063,0 0.410156,-0.11719 0.410156,-0.42188 0,-0.41015 -0.398437,-0.41015 -0.492187,-0.41015 0.234375,-0.58594 0.773437,-0.78516 1.160156,-0.78516 0.738281,0 1.125,0.63281 1.125,1.30078 0,0.83203 -0.585937,1.42969 -1.523437,2.40235 l -1.007813,1.03125 c -0.09375,0.0937 -0.09375,0.10547 -0.09375,0.30468 h 3.152344 l 0.222656,-1.42968 H 59.21707 c -0.02344,0.16406 -0.08203,0.5625 -0.175781,0.71484 -0.04687,0.0586 -0.65625,0.0586 -0.785156,0.0586 h -1.417969 z m 0,0"
         style="fill:#000000;fill-opacity:1;fill-rule:nonzero;stroke:none" />
      <path
         id="path53"
         d="m 71.791289,214.13634 c 0.164063,0 0.375,0 0.375,-0.22265 0,-0.22266 -0.199219,-0.22266 -0.375,-0.22266 H 64.74832 c -0.175781,0 -0.386718,0 -0.386718,0.21094 0,0.23437 0.199218,0.23437 0.386718,0.23437 z m 0,2.21485 c 0.164063,0 0.375,0 0.375,-0.21094 0,-0.23438 -0.199219,-0.23438 -0.375,-0.23438 H 64.74832 c -0.175781,0 -0.386718,0 -0.386718,0.22266 0,0.22266 0.199218,0.22266 0.386718,0.22266 z m 6.55957,-2.63672 c -0.210937,0.0117 -0.257812,0.0234 -0.257812,0.1289 0,0.11719 0.05859,0.11719 0.28125,0.11719 h 0.550781 c 1.007813,0 1.464844,0.84375 1.464844,1.99219 0,1.55859 -0.808594,1.98047 -1.394531,1.98047 -0.574219,0 -1.558594,-0.28125 -1.898438,-1.06641 0.375,0.0586 0.726563,-0.15234 0.726563,-0.58594 0,-0.33984 -0.257813,-0.58593 -0.585938,-0.58593 -0.292969,0 -0.597656,0.16406 -0.597656,0.62109 0,1.06641 1.066406,1.93359 2.390625,1.93359 1.417969,0 2.472656,-1.07812 2.472656,-2.28515 0,-1.10156 -0.890625,-1.96875 -2.027344,-2.16797 1.03125,-0.30469 1.699219,-1.17188 1.699219,-2.10938 0,-0.9375 -0.972656,-1.6289 -2.132812,-1.6289 -1.195313,0 -2.085938,0.72656 -2.085938,1.59375 0,0.48047 0.375,0.57422 0.550781,0.57422 0.257813,0 0.539063,-0.17578 0.539063,-0.53907 0,-0.375 -0.28125,-0.53906 -0.550781,-0.53906 -0.07031,0 -0.09375,0 -0.128907,0.0117 0.457032,-0.82031 1.582032,-0.82031 1.640625,-0.82031 0.386719,0 1.171875,0.17578 1.171875,1.34765 0,0.23438 -0.03516,0.90235 -0.386718,1.41797 -0.351563,0.52735 -0.761719,0.5625 -1.089844,0.57422 z m 5.853516,0 c -0.210937,0.0117 -0.257812,0.0234 -0.257812,0.1289 0,0.11719 0.05859,0.11719 0.28125,0.11719 h 0.550781 c 1.007812,0 1.464844,0.84375 1.464844,1.99219 0,1.55859 -0.808594,1.98047 -1.394532,1.98047 -0.574218,0 -1.558593,-0.28125 -1.898437,-1.06641 0.375,0.0586 0.726562,-0.15234 0.726562,-0.58594 0,-0.33984 -0.257812,-0.58593 -0.585937,-0.58593 -0.292969,0 -0.597656,0.16406 -0.597656,0.62109 0,1.06641 1.066406,1.93359 2.390625,1.93359 1.417968,0 2.472656,-1.07812 2.472656,-2.28515 0,-1.10156 -0.890625,-1.96875 -2.027344,-2.16797 1.03125,-0.30469 1.699219,-1.17188 1.699219,-2.10938 0,-0.9375 -0.972656,-1.6289 -2.132813,-1.6289 -1.195312,0 -2.085937,0.72656 -2.085937,1.59375 0,0.48047 0.375,0.57422 0.550781,0.57422 0.257813,0 0.539063,-0.17578 0.539063,-0.53907 0,-0.375 -0.28125,-0.53906 -0.550782,-0.53906 -0.07031,0 -0.09375,0 -0.128906,0.0117 0.457031,-0.82031 1.582031,-0.82031 1.640625,-0.82031 0.386719,0 1.171875,0.17578 1.171875,1.34765 0,0.23438 -0.03516,0.90235 -0.386719,1.41797 -0.351562,0.52735 -0.761718,0.5625 -1.089843,0.57422 z m 0,0"
         style="fill:#000000;fill-opacity:1;fill-rule:nonzero;stroke:none" />
      <path
         id="path54"
         d="m 4.2649219,230.46349 c -0.375,0.0703 -0.515625,0.35156 -0.515625,0.58594 0,0.28125 0.2226562,0.375 0.3867187,0.375 0.3632813,0 0.609375,-0.30469 0.609375,-0.63281 0,-0.49219 -0.5742187,-0.72657 -1.078125,-0.72657 -0.7265625,0 -1.125,0.71485 -1.2421875,0.94922 -0.2695312,-0.90234 -1.0078125,-0.94922 -1.2304687,-0.94922 -1.21875002,0 -1.86328127,1.57032 -1.86328127,1.82813 0,0.0469 0.046875,0.10547 0.12890625,0.10547 0.10546875,0 0.12890625,-0.0703 0.15234375,-0.11719 0.3984375,-1.32422 1.20703125,-1.57031 1.54687497,-1.57031 0.5390625,0 0.6445313,0.49219 0.6445313,0.78515 0,0.25782 -0.070312,0.53907 -0.2109375,1.11329 l -0.4101563,1.6289 c -0.1757812,0.72656 -0.52734372,1.38281 -1.16015622,1.38281 -0.05859375,0 -0.3515625,0 -0.609375,-0.15234 0.43359375,-0.0937 0.52734375,-0.44531 0.52734375,-0.58594 0,-0.24609 -0.17578125,-0.38672 -0.3984375,-0.38672 -0.29296875,0 -0.59765623,0.2461 -0.59765623,0.63282 0,0.5039 0.56249998,0.72656 1.06640623,0.72656 0.57421875,0 0.984375,-0.45703 1.23046877,-0.9375 0.1992187,0.70312 0.796875,0.9375 1.2304687,0.9375 1.2304688,0 1.875,-1.55859 1.875,-1.82813 0,-0.0586 -0.046875,-0.10546 -0.1289062,-0.10546 -0.1054688,0 -0.1171875,0.0586 -0.1523438,0.15234 -0.3164062,1.05469 -1.0195312,1.54687 -1.546875,1.54687 -0.421875,0 -0.65625,-0.3164 -0.65625,-0.80859 0,-0.25781 0.058594,-0.44531 0.2460938,-1.24219 l 0.421875,-1.61718 c 0.1757812,-0.72657 0.5859375,-1.24219 1.125,-1.24219 0.035156,0 0.3632812,0 0.609375,0.15234 z m 0,0"
         style="fill:#000000;fill-opacity:1;fill-rule:nonzero;stroke:none" />
      <path
         id="path55"
         d="m 12.684844,232.57287 h 3.304687 c 0.164063,0 0.375,0 0.375,-0.21094 0,-0.22266 -0.199218,-0.22266 -0.375,-0.22266 h -3.304687 v -3.30468 c 0,-0.16407 0,-0.38672 -0.210938,-0.38672 -0.234375,0 -0.234375,0.21093 -0.234375,0.38672 v 3.30468 H 8.9465625 c -0.1757812,0 -0.3867187,0 -0.3867187,0.21094 0,0.22266 0.1992187,0.22266 0.3867187,0.22266 h 3.2929685 v 3.30468 c 0,0.16407 0,0.38672 0.222657,0.38672 0.222656,0 0.222656,-0.21093 0.222656,-0.38672 z m 9.190429,-1.52344 c -0.210937,0.0117 -0.257812,0.0234 -0.257812,0.12891 0,0.11718 0.05859,0.11718 0.28125,0.11718 h 0.550781 c 1.007813,0 1.464844,0.84375 1.464844,1.99219 0,1.55859 -0.808594,1.98047 -1.394531,1.98047 -0.574219,0 -1.558594,-0.28125 -1.898438,-1.06641 0.375,0.0586 0.726563,-0.15234 0.726563,-0.58593 0,-0.33985 -0.257813,-0.58594 -0.585938,-0.58594 -0.292969,0 -0.597656,0.16406 -0.597656,0.62109 0,1.06641 1.066406,1.9336 2.390625,1.9336 1.417969,0 2.472656,-1.07813 2.472656,-2.28516 0,-1.10156 -0.890625,-1.96875 -2.027344,-2.16797 1.03125,-0.30469 1.699219,-1.17187 1.699219,-2.10937 0,-0.9375 -0.972656,-1.62891 -2.132812,-1.62891 -1.195313,0 -2.085938,0.72656 -2.085938,1.59375 0,0.48047 0.375,0.57422 0.550781,0.57422 0.257813,0 0.539063,-0.17578 0.539063,-0.53906 0,-0.375 -0.28125,-0.53907 -0.550781,-0.53907 -0.07031,0 -0.09375,0 -0.128907,0.0117 0.457032,-0.82031 1.582032,-0.82031 1.640625,-0.82031 0.386719,0 1.171875,0.17578 1.171875,1.34766 0,0.23437 -0.03516,0.90234 -0.386718,1.41796 -0.351563,0.52735 -0.761719,0.5625 -1.089844,0.57422 z m 0,0"
         style="fill:#000000;fill-opacity:1;fill-rule:nonzero;stroke:none" />
      <path
         id="path56"
         d="m 28.669219,236.67443 c -0.316406,0.45703 -0.785156,0.86719 -1.371094,0.86719 -0.140625,0 -0.714844,-0.0234 -0.902344,-0.57422 0.04687,0.0117 0.105469,0.0117 0.128907,0.0117 0.351562,0 0.597656,-0.31641 0.597656,-0.58594 0,-0.28125 -0.234375,-0.375 -0.410156,-0.375 -0.1875,0 -0.609375,0.14062 -0.609375,0.72656 0,0.60938 0.515625,1.03125 1.195312,1.03125 1.195313,0 2.402344,-1.10156 2.742188,-2.42578 l 1.171875,-4.66406 c 0.01172,-0.0586 0.03516,-0.12891 0.03516,-0.19922 0,-0.17578 -0.152344,-0.30469 -0.328125,-0.30469 -0.105469,0 -0.363281,0.0469 -0.457031,0.41016 l -0.878907,3.51562 c -0.05859,0.21094 -0.05859,0.23438 -0.152343,0.375 -0.246094,0.32813 -0.644532,0.73828 -1.207032,0.73828 -0.679687,0 -0.738281,-0.65625 -0.738281,-0.98437 0,-0.67969 0.328125,-1.60547 0.644531,-2.46094 0.140625,-0.35156 0.210938,-0.51562 0.210938,-0.75 0,-0.5039 -0.363281,-0.96094 -0.949219,-0.96094 -1.101562,0 -1.535156,1.73438 -1.535156,1.82813 0,0.0469 0.04687,0.10547 0.128906,0.10547 0.105469,0 0.117188,-0.0469 0.164063,-0.21094 0.292968,-1.00781 0.738281,-1.47656 1.207031,-1.47656 0.105469,0 0.316406,0 0.316406,0.38672 0,0.3164 -0.140625,0.65625 -0.316406,1.11328 -0.585938,1.57031 -0.585938,1.95703 -0.585938,2.25 0,1.13672 0.808594,1.39453 1.40625,1.39453 0.351563,0 0.785157,-0.10547 1.195313,-0.55078 l 0.01172,0.0117 c -0.175782,0.70312 -0.292969,1.17187 -0.714844,1.75781 z m 0,0"
         style="fill:#000000;fill-opacity:1;fill-rule:nonzero;stroke:none" />
      <path
         id="path57"
         d="m 39.090117,232.57287 h 3.304688 c 0.164062,0 0.375,0 0.375,-0.21094 0,-0.22266 -0.199219,-0.22266 -0.375,-0.22266 h -3.304688 v -3.30468 c 0,-0.16407 0,-0.38672 -0.210937,-0.38672 -0.234375,0 -0.234375,0.21093 -0.234375,0.38672 v 3.30468 h -3.292969 c -0.175781,0 -0.386719,0 -0.386719,0.21094 0,0.22266 0.199219,0.22266 0.386719,0.22266 h 3.292969 v 3.30468 c 0,0.16407 0,0.38672 0.222656,0.38672 0.222656,0 0.222656,-0.21093 0.222656,-0.38672 z m 8.525391,-4.07813 c 0.503906,0.16406 0.925781,0.17578 1.054687,0.17578 1.359375,0 2.214844,-0.99609 2.214844,-1.16015 0,-0.0469 -0.02344,-0.10547 -0.09375,-0.10547 -0.02344,0 -0.04687,0 -0.152344,0.0469 -0.667968,0.28125 -1.242187,0.31641 -1.558593,0.31641 -0.785157,0 -1.347657,-0.23438 -1.582032,-0.32813 -0.08203,-0.0352 -0.105468,-0.0352 -0.117187,-0.0352 -0.09375,0 -0.09375,0.0703 -0.09375,0.25781 v 3.55078 c 0,0.21094 0,0.29297 0.140625,0.29297 0.05859,0 0.07031,-0.0117 0.199219,-0.16406 0.328125,-0.49219 0.890625,-0.77344 1.488281,-0.77344 0.632812,0 0.949219,0.58594 1.042969,0.78516 0.199218,0.46875 0.210937,1.05468 0.210937,1.51172 0,0.45703 0,1.13671 -0.328125,1.67578 -0.269531,0.42187 -0.738281,0.72656 -1.253906,0.72656 -0.796875,0 -1.570313,-0.53906 -1.78125,-1.40625 0.05859,0.0234 0.128906,0.0352 0.1875,0.0352 0.199219,0 0.527344,-0.12891 0.527344,-0.52735 0,-0.33984 -0.234375,-0.52734 -0.527344,-0.52734 -0.210938,0 -0.527344,0.10547 -0.527344,0.57422 0,1.00781 0.808594,2.16797 2.144531,2.16797 1.347657,0 2.53125,-1.125 2.53125,-2.64844 0,-1.41797 -0.960937,-2.60156 -2.214843,-2.60156 -0.679688,0 -1.207032,0.29296 -1.511719,0.63281 z m 0,0"
         style="fill:#000000;fill-opacity:1;fill-rule:nonzero;stroke:none" />
      <path
         id="path58"
         d="m 53.460234,234.36584 c 0.503907,-0.58594 0.925782,-0.94922 1.523438,-1.48829 0.714844,-0.62109 1.03125,-0.92578 1.195312,-1.10156 0.84375,-0.82031 1.253907,-1.52344 1.253907,-1.61719 0,-0.0937 -0.09375,-0.0937 -0.117188,-0.0937 -0.08203,0 -0.105469,0.0469 -0.164062,0.12891 -0.304688,0.51563 -0.585938,0.77344 -0.902344,0.77344 -0.246094,0 -0.375,-0.11719 -0.609375,-0.39844 -0.246094,-0.29297 -0.457031,-0.50391 -0.796875,-0.50391 -0.878906,0 -1.394531,1.08985 -1.394531,1.33594 0,0.0352 0.01172,0.11719 0.117187,0.11719 0.09375,0 0.105469,-0.0469 0.140625,-0.14063 0.199219,-0.46875 0.773438,-0.5625 1.007813,-0.5625 0.246093,0 0.480468,0.0937 0.738281,0.19922 0.457031,0.1875 0.644531,0.1875 0.761719,0.1875 0.08203,0 0.128906,0 0.1875,-0.0117 -0.386719,0.46875 -1.03125,1.04297 -1.570313,1.53516 l -1.207031,1.10156 c -0.726563,0.75 -1.171875,1.45313 -1.171875,1.53516 0,0.0703 0.05859,0.0937 0.128906,0.0937 0.07031,0 0.08203,-0.0117 0.164063,-0.15234 0.199218,-0.30469 0.574218,-0.73829 1.019531,-0.73829 0.246094,0 0.375,0.082 0.609375,0.375 0.222656,0.26954 0.433594,0.51563 0.808594,0.51563 1.171875,0 1.851562,-1.51172 1.851562,-1.79297 0,-0.0469 -0.01172,-0.11719 -0.140625,-0.11719 -0.09375,0 -0.105469,0.0469 -0.140625,0.16407 -0.257812,0.70312 -0.972656,0.99609 -1.429687,0.99609 -0.257813,0 -0.492188,-0.082 -0.75,-0.1875 -0.46875,-0.19922 -0.609375,-0.19922 -0.761719,-0.19922 -0.117188,0 -0.246094,0 -0.351563,0.0469 z m 0,0"
         style="fill:#000000;fill-opacity:1;fill-rule:nonzero;stroke:none" />
      <path
         id="path59"
         d="m 69.301055,231.4713 c 0.164062,0 0.375,0 0.375,-0.22265 0,-0.22266 -0.199219,-0.22266 -0.375,-0.22266 h -7.042969 c -0.175781,0 -0.386719,0 -0.386719,0.21094 0,0.23437 0.199219,0.23437 0.386719,0.23437 z m 0,2.21485 c 0.164062,0 0.375,0 0.375,-0.21094 0,-0.23437 -0.199219,-0.23437 -0.375,-0.23437 h -7.042969 c -0.175781,0 -0.386719,0 -0.386719,0.22265 0,0.22266 0.199219,0.22266 0.386719,0.22266 z m 6.55664,-2.63672 c -0.210937,0.0117 -0.257812,0.0234 -0.257812,0.12891 0,0.11718 0.05859,0.11718 0.28125,0.11718 h 0.550781 c 1.007813,0 1.464844,0.84375 1.464844,1.99219 0,1.55859 -0.808594,1.98047 -1.394531,1.98047 -0.574219,0 -1.558594,-0.28125 -1.898438,-1.06641 0.375,0.0586 0.726563,-0.15234 0.726563,-0.58593 0,-0.33985 -0.257813,-0.58594 -0.585938,-0.58594 -0.292969,0 -0.597656,0.16406 -0.597656,0.62109 0,1.06641 1.066406,1.9336 2.390625,1.9336 1.417969,0 2.472656,-1.07813 2.472656,-2.28516 0,-1.10156 -0.890625,-1.96875 -2.027344,-2.16797 1.03125,-0.30469 1.699219,-1.17187 1.699219,-2.10937 0,-0.9375 -0.972656,-1.62891 -2.132812,-1.62891 -1.195313,0 -2.085938,0.72656 -2.085938,1.59375 0,0.48047 0.375,0.57422 0.550781,0.57422 0.257813,0 0.539063,-0.17578 0.539063,-0.53906 0,-0.375 -0.28125,-0.53907 -0.550781,-0.53907 -0.07031,0 -0.09375,0 -0.128907,0.0117 0.457032,-0.82031 1.582032,-0.82031 1.640625,-0.82031 0.386719,0 1.171875,0.17578 1.171875,1.34766 0,0.23437 -0.03516,0.90234 -0.386718,1.41796 -0.351563,0.52735 -0.761719,0.5625 -1.089844,0.57422 z m 7.962891,-3.49219 c 0,-0.22265 0,-0.29297 -0.164063,-0.29297 -0.09375,0 -0.128906,0 -0.222656,0.15235 l -3.597656,5.57812 v 0.35156 h 3.140625 v 1.07813 c 0,0.44531 -0.02344,0.5625 -0.902344,0.5625 h -0.234375 v 0.35156 c 0.269531,-0.0234 1.21875,-0.0234 1.558594,-0.0234 0.328125,0 1.289062,0 1.558594,0.0234 v -0.35156 H 84.72293 c -0.867188,0 -0.902344,-0.11719 -0.902344,-0.5625 v -1.07813 h 1.207031 v -0.35156 h -1.207031 z m -0.785156,0.9375 v 4.5 h -2.90625 z m 0,0"
         style="fill:#000000;fill-opacity:1;fill-rule:nonzero;stroke:none" />
      <path
         id="path60"
         d="m 87.561797,234.76427 c 0,-0.35156 -0.292969,-0.58593 -0.574219,-0.58593 -0.351562,0 -0.585937,0.29296 -0.585937,0.57421 0,0.35157 0.28125,0.58594 0.574218,0.58594 0.339844,0 0.585938,-0.28125 0.585938,-0.57422 z m 0,0"
         style="fill:#000000;fill-opacity:1;fill-rule:nonzero;stroke:none" />
    </g>
  </g>
</svg>
