<?xml version="1.0" encoding="UTF-8" standalone="no"?>
<!-- Created with Inkscape (http://www.inkscape.org/) -->

<svg
   version="1.1"
   id="svg1"
   width="794.55066"
   height="1123.6533"
   viewBox="0 0 794.55066 1123.6533"
   sodipodi:docname="LigaMatematycznaMatuskiego_Klasa5i6_Zestaw2_2019_2020_page0.pdf"
   xmlns:inkscape="http://www.inkscape.org/namespaces/inkscape"
   xmlns:sodipodi="http://sodipodi.sourceforge.net/DTD/sodipodi-0.dtd"
   xmlns="http://www.w3.org/2000/svg"
   xmlns:svg="http://www.w3.org/2000/svg">
  <defs
     id="defs1" />
  <sodipodi:namedview
     id="namedview1"
     pagecolor="#ffffff"
     bordercolor="#000000"
     borderopacity="0.25"
     inkscape:showpageshadow="2"
     inkscape:pageopacity="0.0"
     inkscape:pagecheckerboard="0"
     inkscape:deskcolor="#d1d1d1">
    <inkscape:page
       x="0"
       y="0"
       inkscape:label="1"
       id="page1"
       width="794.55066"
       height="1123.6533"
       margin="0"
       bleed="0" />
  </sodipodi:namedview>
  <g
     id="g1"
     inkscape:groupmode="layer"
     inkscape:label="1">
    <g
       id="g2"
       aria-label="LIGAMATEMATYCZNA&#10;im.ZdzisªawaMatuskiego&#10;LISTOPAD2019&#10;SZKOAPODSTAWOWA&#10;klasyIV-VI&#10;ZADANIE1.&#10;Kawaze±mietank¡kosztuje4,50zª.Kawajestdro»szaod±mietankio3,90zª.Ilekosztuje&#10;czarnakawa?&#10;ZADANIE2.&#10;Wpudeªkujest30kul:biaªe,niebieskieiczarne.Kulniebieskichjest8razywi¦cejni»biaªych.&#10;Ilejestkulka»degokoloru?Rozwa»wszystkieprzypadki.&#10;ZADANIE3.&#10;Prostok¡tn¡dziaªk¦oobwodzie100mpodzielononadwaprostok¡tyoobwodach76mi58m.&#10;Obliczwymiarymniejszychdziaªek.&#10;ZADANIE4.&#10;Nazlotsmokówprzybyªy333potwory.Byªytosmokitrzygªoweisiedmiogªowe.Razemmiaªy&#10;1399gªów.Którychsmokówbyªowi¦cejioile?&#10;ZADANIE5.&#10;Czyprzestawiaj¡ccyfryliczby111111222222mo»nauzyska¢liczb¦pierwsz¡?"
       transform="matrix(1.3333333,0,0,1.3333333,274.724,56.069333)">
      <path
         id="path2"
         d="m 5.878875,115.58277 c 0,-0.22266 0,-0.29297 -0.1640625,-0.29297 -0.09375,0 -0.1289062,0 -0.2226562,0.15234 L 1.8945,121.02027 v 0.35156 h 3.140625 v 1.07812 c 0,0.44532 -0.023437,0.5625 -0.9023437,0.5625 h -0.234375 v 0.35157 c 0.2695312,-0.0234 1.21875,-0.0234 1.5585937,-0.0234 0.328125,0 1.2890625,0 1.5585938,0.0234 v -0.35157 h -0.234375 c -0.8671875,0 -0.9023438,-0.11718 -0.9023438,-0.5625 v -1.07812 h 1.2070313 v -0.35156 H 5.878875 Z m -0.7851562,0.9375 v 4.5 h -2.90625 z m 0,0"
         style="fill:#000000;fill-opacity:1;fill-rule:nonzero;stroke:none" />
      <path
         id="path3"
         d="m 9.7519219,123.41089 c 0,-0.69141 -0.2226563,-1.20703 -0.7148438,-1.20703 -0.3867187,0 -0.5742187,0.31641 -0.5742187,0.57422 0,0.25781 0.1757812,0.58594 0.5859375,0.58594 0.1523437,0 0.28125,-0.0469 0.3867187,-0.15235 0.023437,-0.0234 0.035156,-0.0234 0.046875,-0.0234 0.035156,0 0.035156,0.16407 0.035156,0.22266 0,0.39844 -0.082031,1.17188 -0.7734375,1.94531 -0.1289063,0.15235 -0.1289063,0.17578 -0.1289063,0.19922 0,0.0586 0.058594,0.11719 0.1171875,0.11719 0.09375,0 1.0195313,-0.89063 1.0195313,-2.26172 z m 0,0"
         style="fill:#000000;fill-opacity:1;fill-rule:nonzero;stroke:none" />
      <path
         id="path4"
         d="m 14.199188,116.52027 c 0.503906,0.16406 0.925781,0.17578 1.054687,0.17578 1.359375,0 2.214844,-0.9961 2.214844,-1.16016 0,-0.0469 -0.02344,-0.10547 -0.09375,-0.10547 -0.02344,0 -0.04687,0 -0.152344,0.0469 -0.667969,0.28125 -1.242187,0.3164 -1.558594,0.3164 -0.785156,0 -1.347656,-0.23437 -1.582031,-0.32812 -0.08203,-0.0352 -0.105469,-0.0352 -0.117187,-0.0352 -0.09375,0 -0.09375,0.0703 -0.09375,0.25781 v 3.55079 c 0,0.21093 0,0.29296 0.140625,0.29296 0.05859,0 0.07031,-0.0117 0.199218,-0.16406 0.328125,-0.49219 0.890625,-0.77344 1.488282,-0.77344 0.632812,0 0.949218,0.58594 1.042968,0.78516 0.199219,0.46875 0.210938,1.05469 0.210938,1.51172 0,0.45703 0,1.13672 -0.328125,1.67578 -0.269531,0.42188 -0.738281,0.72656 -1.253906,0.72656 -0.796875,0 -1.570313,-0.53906 -1.78125,-1.40625 0.05859,0.0234 0.128906,0.0352 0.1875,0.0352 0.199218,0 0.527343,-0.12891 0.527343,-0.52734 0,-0.33985 -0.234375,-0.52735 -0.527343,-0.52735 -0.210938,0 -0.527344,0.10547 -0.527344,0.57422 0,1.00781 0.808594,2.16797 2.144531,2.16797 1.347656,0 2.53125,-1.125 2.53125,-2.64844 0,-1.41797 -0.960937,-2.60156 -2.214844,-2.60156 -0.679687,0 -1.207031,0.29297 -1.511718,0.63281 z m 9.673828,3.02343 c 0,-0.99609 -0.05859,-1.96875 -0.492188,-2.87109 -0.492187,-0.99609 -1.347656,-1.25391 -1.933594,-1.25391 -0.691406,0 -1.546875,0.33985 -1.980468,1.33594 -0.339844,0.75 -0.457032,1.48828 -0.457032,2.78906 0,1.16016 0.08203,2.02735 0.515625,2.8711 0.457032,0.91406 1.289063,1.19531 1.910157,1.19531 1.042968,0 1.640625,-0.62109 1.980468,-1.3125 0.433594,-0.89063 0.457032,-2.0625 0.457032,-2.75391 z m -2.4375,3.83203 c -0.386719,0 -1.160157,-0.21093 -1.382813,-1.52343 -0.140625,-0.71485 -0.140625,-1.61719 -0.140625,-2.46094 0,-0.97266 0,-1.86328 0.199219,-2.56641 0.199219,-0.79687 0.808594,-1.17187 1.324219,-1.17187 0.457031,0 1.148437,0.28125 1.371093,1.30078 0.152344,0.67969 0.152344,1.62891 0.152344,2.4375 0,0.80859 0,1.71094 -0.128906,2.4375 -0.222656,1.32422 -0.972656,1.54687 -1.394531,1.54687 z m 0,0"
         style="fill:#000000;fill-opacity:1;fill-rule:nonzero;stroke:none" />
      <path
         id="path5"
         d="m 230.26364,119.07495 c -0.21094,0.0117 -0.25781,0.0234 -0.25781,0.12891 0,0.11719 0.0586,0.11719 0.28125,0.11719 h 0.55078 c 1.00781,0 1.46484,0.84375 1.46484,1.99218 0,1.5586 -0.80859,1.98047 -1.39453,1.98047 -0.57422,0 -1.55859,-0.28125 -1.89844,-1.0664 0.375,0.0586 0.72657,-0.15235 0.72657,-0.58594 0,-0.33984 -0.25782,-0.58594 -0.58594,-0.58594 -0.29297,0 -0.59766,0.16406 -0.59766,0.6211 0,1.0664 1.06641,1.93359 2.39063,1.93359 1.41797,0 2.47265,-1.07813 2.47265,-2.28516 0,-1.10156 -0.89062,-1.96875 -2.02734,-2.16797 1.03125,-0.30468 1.69922,-1.17187 1.69922,-2.10937 0,-0.9375 -0.97266,-1.62891 -2.13281,-1.62891 -1.19532,0 -2.08594,0.72657 -2.08594,1.59375 0,0.48047 0.375,0.57422 0.55078,0.57422 0.25781,0 0.53906,-0.17578 0.53906,-0.53906 0,-0.375 -0.28125,-0.53906 -0.55078,-0.53906 -0.0703,0 -0.0937,0 -0.1289,0.0117 0.45703,-0.82032 1.58203,-0.82032 1.64062,-0.82032 0.38672,0 1.17188,0.17578 1.17188,1.34766 0,0.23437 -0.0352,0.90234 -0.38672,1.41797 -0.35157,0.52734 -0.76172,0.5625 -1.08985,0.57422 z m 0,0"
         style="fill:#000000;fill-opacity:1;fill-rule:nonzero;stroke:none" />
      <path
         id="path6"
         d="m 236.24606,123.41089 c 0,-0.69141 -0.22265,-1.20703 -0.71484,-1.20703 -0.38672,0 -0.57422,0.31641 -0.57422,0.57422 0,0.25781 0.17578,0.58594 0.58594,0.58594 0.15234,0 0.28125,-0.0469 0.38672,-0.15235 0.0234,-0.0234 0.0351,-0.0234 0.0469,-0.0234 0.0352,0 0.0352,0.16407 0.0352,0.22266 0,0.39844 -0.082,1.17188 -0.77344,1.94531 -0.12891,0.15235 -0.12891,0.17578 -0.12891,0.19922 0,0.0586 0.0586,0.11719 0.11719,0.11719 0.0937,0 1.01953,-0.89063 1.01953,-2.26172 z m 0,0"
         style="fill:#000000;fill-opacity:1;fill-rule:nonzero;stroke:none" />
      <path
         id="path7"
         d="m 243.52927,119.88355 c 0,2.82422 -1.25391,3.41015 -1.96875,3.41015 -0.28125,0 -0.92579,-0.0352 -1.21875,-0.45703 h 0.0703 c 0.082,0.0234 0.51562,-0.0469 0.51562,-0.49219 0,-0.25781 -0.17578,-0.49218 -0.49218,-0.49218 -0.30469,0 -0.50391,0.21093 -0.50391,0.51562 0,0.75 0.59766,1.24219 1.64062,1.24219 1.5,0 2.94141,-1.58203 2.94141,-4.18359 0,-3.21094 -1.33594,-4.00782 -2.39062,-4.00782 -1.3125,0 -2.47266,1.10157 -2.47266,2.67188 0,1.58203 1.11328,2.66015 2.30859,2.66015 0.87891,0 1.33594,-0.64453 1.57032,-1.2539 z m -1.52344,0.62109 c -0.75,0 -1.07813,-0.60937 -1.1836,-0.83203 -0.19921,-0.45703 -0.19921,-1.03125 -0.19921,-1.57031 0,-0.66797 0,-1.24219 0.3164,-1.73438 0.21094,-0.3164 0.53906,-0.66797 1.1836,-0.66797 0.67968,0 1.03125,0.59766 1.14843,0.87891 0.23438,0.58594 0.23438,1.59375 0.23438,1.78125 0,0.99609 -0.44531,2.14453 -1.5,2.14453 z m 8.36133,-0.96094 c 0,-0.99609 -0.0586,-1.96875 -0.49219,-2.87109 -0.49219,-0.99609 -1.34766,-1.25391 -1.93359,-1.25391 -0.69141,0 -1.54688,0.33985 -1.98047,1.33594 -0.33985,0.75 -0.45703,1.48828 -0.45703,2.78906 0,1.16016 0.082,2.02735 0.51562,2.8711 0.45703,0.91406 1.28906,1.19531 1.91016,1.19531 1.04297,0 1.64062,-0.62109 1.98047,-1.3125 0.43359,-0.89063 0.45703,-2.0625 0.45703,-2.75391 z m -2.4375,3.83203 c -0.38672,0 -1.16016,-0.21093 -1.38282,-1.52343 -0.14062,-0.71485 -0.14062,-1.61719 -0.14062,-2.46094 0,-0.97266 0,-1.86328 0.19922,-2.56641 0.19922,-0.79687 0.80859,-1.17187 1.32422,-1.17187 0.45703,0 1.14843,0.28125 1.37109,1.30078 0.15234,0.67969 0.15234,1.62891 0.15234,2.4375 0,0.80859 0,1.71094 -0.1289,2.4375 -0.22266,1.32422 -0.97266,1.54687 -1.39453,1.54687 z m 0,0"
         style="fill:#000000;fill-opacity:1;fill-rule:nonzero;stroke:none" />
      <path
         id="path8"
         d="m -64.539094,176.58472 c -0.210937,0.0117 -0.257812,0.0234 -0.257812,0.12891 0,0.11718 0.05859,0.11718 0.28125,0.11718 h 0.550781 c 1.007813,0 1.464844,0.84375 1.464844,1.99219 0,1.55859 -0.808594,1.98047 -1.394531,1.98047 -0.574219,0 -1.558594,-0.28125 -1.898438,-1.06641 0.375,0.0586 0.726563,-0.15234 0.726563,-0.58593 0,-0.33985 -0.257813,-0.58594 -0.585938,-0.58594 -0.292969,0 -0.597656,0.16406 -0.597656,0.62109 0,1.06641 1.066406,1.9336 2.390625,1.9336 1.417969,0 2.472656,-1.07813 2.472656,-2.28516 0,-1.10156 -0.890625,-1.96875 -2.027344,-2.16797 1.03125,-0.30469 1.699219,-1.17187 1.699219,-2.10937 0,-0.9375 -0.972656,-1.62891 -2.132812,-1.62891 -1.195313,0 -2.085938,0.72656 -2.085938,1.59375 0,0.48047 0.375,0.57422 0.550781,0.57422 0.257813,0 0.539063,-0.17578 0.539063,-0.53906 0,-0.375 -0.28125,-0.53907 -0.550781,-0.53907 -0.07031,0 -0.09375,0 -0.128907,0.0117 0.457032,-0.82031 1.582032,-0.82031 1.640625,-0.82031 0.386719,0 1.171875,0.17578 1.171875,1.34766 0,0.23437 -0.03516,0.90234 -0.386718,1.41796 -0.351563,0.52735 -0.761719,0.5625 -1.089844,0.57422 z m 9.00586,0.46875 c 0,-0.99609 -0.05859,-1.96875 -0.492188,-2.87109 -0.492187,-0.9961 -1.347656,-1.25391 -1.933594,-1.25391 -0.691406,0 -1.546875,0.33984 -1.980468,1.33594 -0.339844,0.75 -0.457032,1.48828 -0.457032,2.78906 0,1.16016 0.08203,2.02734 0.515625,2.87109 0.457032,0.91407 1.289063,1.19532 1.910157,1.19532 1.042968,0 1.640625,-0.6211 1.980468,-1.3125 0.433594,-0.89063 0.457032,-2.0625 0.457032,-2.75391 z m -2.4375,3.83203 c -0.386719,0 -1.160157,-0.21094 -1.382813,-1.52344 -0.140625,-0.71484 -0.140625,-1.61718 -0.140625,-2.46093 0,-0.97266 0,-1.86329 0.199219,-2.56641 0.199219,-0.79688 0.808594,-1.17188 1.324219,-1.17188 0.457031,0 1.148437,0.28125 1.371093,1.30079 0.152344,0.67968 0.152344,1.6289 0.152344,2.4375 0,0.80859 0,1.71093 -0.128906,2.4375 -0.222656,1.32421 -0.972656,1.54687 -1.394531,1.54687 z m 0,0"
         style="fill:#000000;fill-opacity:1;fill-rule:nonzero;stroke:none" />
      <path
         id="path9"
         d="m 209.83786,176.56128 c 0.59766,-0.32812 1.46484,-0.8789 1.46484,-1.875 0,-1.04297 -0.99609,-1.75781 -2.09765,-1.75781 -1.1836,0 -2.1211,0.86719 -2.1211,1.95703 0,0.41016 0.12891,0.80859 0.45703,1.21875 0.12891,0.15234 0.14063,0.16406 0.98438,0.75 -1.16016,0.53906 -1.75781,1.34766 -1.75781,2.21484 0,1.26563 1.20703,2.05079 2.42578,2.05079 1.32422,0 2.4375,-0.97266 2.4375,-2.22657 0,-1.21875 -0.85547,-1.75781 -1.79297,-2.33203 z m -1.62891,-1.07812 c -0.15234,-0.10547 -0.63281,-0.42188 -0.63281,-1.00782 0,-0.77343 0.82031,-1.26562 1.61719,-1.26562 0.85547,0 1.6289,0.62109 1.6289,1.48828 0,0.72656 -0.52734,1.3125 -1.21875,1.6875 z m 0.5625,1.54687 1.45313,0.9375 c 0.30469,0.19922 0.85547,0.57422 0.85547,1.30078 0,0.91407 -0.91407,1.53516 -1.875,1.53516 -1.01953,0 -1.88672,-0.73828 -1.88672,-1.73438 0,-0.9375 0.67969,-1.6875 1.45312,-2.03906 z m 0,0"
         style="fill:#000000;fill-opacity:1;fill-rule:nonzero;stroke:none" />
      <path
         id="path10"
         d="m 19.601531,230.71948 c 0,-0.26953 0,-0.28125 -0.246093,-0.28125 -0.28125,0.31641 -0.878907,0.76172 -2.109375,0.76172 v 0.35157 c 0.269531,0 0.867187,0 1.523437,-0.31641 v 6.22266 c 0,0.43359 -0.03516,0.57421 -1.078125,0.57421 h -0.375 v 0.35157 c 0.316406,-0.0234 1.476563,-0.0234 1.875,-0.0234 0.398438,0 1.546875,0 1.863281,0.0234 v -0.35157 h -0.363281 c -1.054687,0 -1.089844,-0.14062 -1.089844,-0.57421 z m 7.763672,3.84375 c 0,-0.99609 -0.05859,-1.96875 -0.492187,-2.87109 -0.492188,-0.99609 -1.347657,-1.25391 -1.933594,-1.25391 -0.691406,0 -1.546875,0.33985 -1.980469,1.33594 -0.339844,0.75 -0.457031,1.48828 -0.457031,2.78906 0,1.16016 0.08203,2.02735 0.515625,2.8711 0.457031,0.91406 1.289062,1.19531 1.910156,1.19531 1.042969,0 1.640625,-0.62109 1.980469,-1.3125 0.433594,-0.89062 0.457031,-2.0625 0.457031,-2.75391 z m -2.4375,3.83204 c -0.386719,0 -1.160156,-0.21094 -1.382812,-1.52344 -0.140625,-0.71485 -0.140625,-1.61719 -0.140625,-2.46094 0,-0.97266 0,-1.86328 0.199218,-2.56641 0.199219,-0.79687 0.808594,-1.17187 1.324219,-1.17187 0.457031,0 1.148438,0.28125 1.371094,1.30078 0.152344,0.67969 0.152344,1.62891 0.152344,2.4375 0,0.80859 0,1.71094 -0.128907,2.4375 -0.222656,1.32422 -0.972656,1.54688 -1.394531,1.54688 z m 8.291016,-3.83204 c 0,-0.99609 -0.05859,-1.96875 -0.492188,-2.87109 -0.492187,-0.99609 -1.347656,-1.25391 -1.933593,-1.25391 -0.691407,0 -1.546875,0.33985 -1.980469,1.33594 -0.339844,0.75 -0.457031,1.48828 -0.457031,2.78906 0,1.16016 0.08203,2.02735 0.515625,2.8711 0.457031,0.91406 1.289062,1.19531 1.910156,1.19531 1.042969,0 1.640625,-0.62109 1.980469,-1.3125 0.433593,-0.89062 0.457031,-2.0625 0.457031,-2.75391 z m -2.4375,3.83204 c -0.386719,0 -1.160156,-0.21094 -1.382813,-1.52344 -0.140625,-0.71485 -0.140625,-1.61719 -0.140625,-2.46094 0,-0.97266 0,-1.86328 0.199219,-2.56641 0.199219,-0.79687 0.808594,-1.17187 1.324219,-1.17187 0.457031,0 1.148437,0.28125 1.371094,1.30078 0.152343,0.67969 0.152343,1.62891 0.152343,2.4375 0,0.80859 0,1.71094 -0.128906,2.4375 -0.222656,1.32422 -0.972656,1.54688 -1.394531,1.54688 z m 0,0"
         style="fill:#000000;fill-opacity:1;fill-rule:nonzero;stroke:none" />
      <path
         id="path11"
         d="m 275.36618,230.96558 v -0.28125 h -2.88281 c -1.45313,0 -1.47657,-0.15235 -1.52344,-0.38672 h -0.25781 l -0.375,2.39062 h 0.26953 c 0.0351,-0.21093 0.14062,-0.94921 0.29297,-1.07812 0.0937,-0.0703 0.99609,-0.0703 1.16015,-0.0703 h 2.53125 l -1.26562,1.8164 c -0.31641,0.45703 -1.52344,2.42578 -1.52344,4.66407 0,0.14062 0,0.60937 0.48047,0.60937 0.50391,0 0.50391,-0.45703 0.50391,-0.62109 v -0.59766 c 0,-1.78125 0.29296,-3.16406 0.85546,-3.96094 z m 1.63477,3.25781 c 0,-3.02344 1.47656,-3.50391 2.12109,-3.50391 0.43359,0 0.85547,0.12891 1.08984,0.49219 -0.14062,0 -0.59765,0 -0.59765,0.49219 0,0.25781 0.17578,0.49219 0.49218,0.49219 0.29297,0 0.49219,-0.1875 0.49219,-0.52735 0,-0.62109 -0.44531,-1.23047 -1.48828,-1.23047 -1.51172,0 -3.08203,1.53516 -3.08203,4.17188 0,3.28125 1.42969,4.01953 2.44922,4.01953 1.30078,0 2.41406,-1.125 2.41406,-2.68359 0,-1.59375 -1.11328,-2.66016 -2.30859,-2.66016 -1.06641,0 -1.45313,0.92578 -1.58203,1.26563 z m 1.47656,4.08984 c -0.75,0 -1.11328,-0.66796 -1.21875,-0.92578 -0.10547,-0.30468 -0.22266,-0.89062 -0.22266,-1.73437 0,-0.9375 0.42188,-2.1211 1.5,-2.1211 0.65625,0 1.00781,0.44532 1.1836,0.84375 0.1875,0.44532 0.1875,1.04297 0.1875,1.5586 0,0.60937 0,1.14844 -0.22266,1.60547 -0.30469,0.57422 -0.72656,0.77343 -1.20703,0.77343 z m 0,0"
         style="fill:#000000;fill-opacity:1;fill-rule:nonzero;stroke:none" />
      <path
         id="path12"
         d="m 306.85739,231.5398 c 0.50391,0.16406 0.92578,0.17578 1.05469,0.17578 1.35937,0 2.21484,-0.9961 2.21484,-1.16016 0,-0.0469 -0.0234,-0.10547 -0.0937,-0.10547 -0.0234,0 -0.0469,0 -0.15234,0.0469 -0.66797,0.28125 -1.24219,0.3164 -1.5586,0.3164 -0.78515,0 -1.34765,-0.23437 -1.58203,-0.32812 -0.082,-0.0352 -0.10547,-0.0352 -0.11718,-0.0352 -0.0937,0 -0.0937,0.0703 -0.0937,0.25782 v 3.55078 c 0,0.21093 0,0.29297 0.14062,0.29297 0.0586,0 0.0703,-0.0117 0.19922,-0.16407 0.32812,-0.49218 0.89062,-0.77343 1.48828,-0.77343 0.63281,0 0.94922,0.58593 1.04297,0.78515 0.19922,0.46875 0.21094,1.05469 0.21094,1.51172 0,0.45703 0,1.13672 -0.32813,1.67578 -0.26953,0.42188 -0.73828,0.72656 -1.2539,0.72656 -0.79688,0 -1.57032,-0.53906 -1.78125,-1.40625 0.0586,0.0234 0.1289,0.0352 0.1875,0.0352 0.19921,0 0.52734,-0.12891 0.52734,-0.52734 0,-0.33985 -0.23438,-0.52735 -0.52734,-0.52735 -0.21094,0 -0.52735,0.10547 -0.52735,0.57422 0,1.00781 0.8086,2.16797 2.14453,2.16797 1.34766,0 2.53125,-1.125 2.53125,-2.64844 0,-1.41797 -0.96093,-2.60156 -2.21484,-2.60156 -0.67969,0 -1.20703,0.29297 -1.51172,0.63281 z m 7.87793,2.53125 c 0.59766,-0.32813 1.46484,-0.87891 1.46484,-1.875 0,-1.04297 -0.99609,-1.75782 -2.09765,-1.75782 -1.1836,0 -2.1211,0.86719 -2.1211,1.95704 0,0.41015 0.12891,0.80859 0.45704,1.21875 0.1289,0.15234 0.14062,0.16406 0.98437,0.75 -1.16016,0.53906 -1.75781,1.34765 -1.75781,2.21484 0,1.26562 1.20703,2.05078 2.42578,2.05078 1.32422,0 2.4375,-0.97266 2.4375,-2.22656 0,-1.21875 -0.85547,-1.75781 -1.79297,-2.33203 z m -1.62891,-1.07813 c -0.15234,-0.10547 -0.63281,-0.42187 -0.63281,-1.00781 0,-0.77344 0.82031,-1.26563 1.61719,-1.26563 0.85547,0 1.62891,0.6211 1.62891,1.48829 0,0.72656 -0.52735,1.3125 -1.21875,1.6875 z m 0.5625,1.54688 1.45313,0.9375 c 0.30469,0.19922 0.85547,0.57422 0.85547,1.30078 0,0.91406 -0.91406,1.53515 -1.875,1.53515 -1.01953,0 -1.88672,-0.73828 -1.88672,-1.73437 0,-0.9375 0.67969,-1.6875 1.45312,-2.03906 z m 0,0"
         style="fill:#000000;fill-opacity:1;fill-rule:nonzero;stroke:none" />
      <path
         id="path13"
         d="m -12.736359,291.60718 c -0.210938,0.0117 -0.257813,0.0234 -0.257813,0.12891 0,0.11718 0.05859,0.11718 0.28125,0.11718 h 0.550781 c 1.007813,0 1.464844,0.84375 1.464844,1.99219 0,1.55859 -0.808594,1.98047 -1.394531,1.98047 -0.574219,0 -1.558594,-0.28125 -1.898438,-1.06641 0.375,0.0586 0.726563,-0.15234 0.726563,-0.58593 0,-0.33985 -0.257813,-0.58594 -0.585938,-0.58594 -0.292968,0 -0.597656,0.16406 -0.597656,0.62109 0,1.06641 1.066406,1.9336 2.390625,1.9336 1.417969,0 2.4726564,-1.07813 2.4726564,-2.28516 0,-1.10156 -0.8906254,-1.96875 -2.0273434,-2.16797 1.03125,-0.30469 1.6992184,-1.17187 1.6992184,-2.10937 0,-0.9375 -0.9726564,-1.62891 -2.1328124,-1.62891 -1.195313,0 -2.085938,0.72656 -2.085938,1.59375 0,0.48047 0.375,0.57422 0.550782,0.57422 0.257812,0 0.539062,-0.17578 0.539062,-0.53906 0,-0.375 -0.28125,-0.53907 -0.550781,-0.53907 -0.07031,0 -0.09375,0 -0.128906,0.0117 0.457031,-0.82031 1.582031,-0.82031 1.640625,-0.82031 0.386718,0 1.171875,0.17578 1.171875,1.34766 0,0.23437 -0.03516,0.90234 -0.386719,1.41796 -0.351563,0.52735 -0.761719,0.5625 -1.089844,0.57422 z m 5.8535153,0 c -0.2109375,0.0117 -0.2578125,0.0234 -0.2578125,0.12891 0,0.11718 0.058594,0.11718 0.28125,0.11718 h 0.5507812 c 1.0078125,0 1.4648438,0.84375 1.4648438,1.99219 0,1.55859 -0.8085938,1.98047 -1.3945313,1.98047 -0.5742187,0 -1.5585937,-0.28125 -1.8984375,-1.06641 0.375,0.0586 0.7265625,-0.15234 0.7265625,-0.58593 0,-0.33985 -0.2578125,-0.58594 -0.5859375,-0.58594 -0.2929687,0 -0.5976562,0.16406 -0.5976562,0.62109 0,1.06641 1.0664062,1.9336 2.390625,1.9336 1.4179687,0 2.4726562,-1.07813 2.4726562,-2.28516 0,-1.10156 -0.890625,-1.96875 -2.0273437,-2.16797 1.03125,-0.30469 1.6992187,-1.17187 1.6992187,-2.10937 0,-0.9375 -0.9726562,-1.62891 -2.1328125,-1.62891 -1.1953125,0 -2.0859375,0.72656 -2.0859375,1.59375 0,0.48047 0.375,0.57422 0.5507813,0.57422 0.2578125,0 0.5390625,-0.17578 0.5390625,-0.53906 0,-0.375 -0.28125,-0.53907 -0.5507813,-0.53907 -0.070312,0 -0.09375,0 -0.1289062,0.0117 0.4570312,-0.82031 1.5820312,-0.82031 1.640625,-0.82031 0.3867187,0 1.171875,0.17578 1.171875,1.34766 0,0.23437 -0.035156,0.90234 -0.3867188,1.41796 -0.3515625,0.52735 -0.7617187,0.5625 -1.0898437,0.57422 z m 5.8535156,0 c -0.2109375,0.0117 -0.2578125,0.0234 -0.2578125,0.12891 0,0.11718 0.058594,0.11718 0.28125,0.11718 h 0.55078123 c 1.0078125,0 1.46484377,0.84375 1.46484377,1.99219 0,1.55859 -0.80859377,1.98047 -1.39453127,1.98047 -0.57421875,0 -1.55859373,-0.28125 -1.89843753,-1.06641 0.375,0.0586 0.7265625,-0.15234 0.7265625,-0.58593 0,-0.33985 -0.2578125,-0.58594 -0.5859375,-0.58594 -0.2929687,0 -0.5976562,0.16406 -0.5976562,0.62109 0,1.06641 1.0664062,1.9336 2.39062498,1.9336 1.41796872,0 2.47265622,-1.07813 2.47265622,-2.28516 0,-1.10156 -0.890625,-1.96875 -2.02734372,-2.16797 1.03125002,-0.30469 1.69921872,-1.17187 1.69921872,-2.10937 0,-0.9375 -0.97265622,-1.62891 -2.13281247,-1.62891 -1.19531253,0 -2.08593753,0.72656 -2.08593753,1.59375 0,0.48047 0.375,0.57422 0.5507813,0.57422 0.2578125,0 0.5390625,-0.17578 0.5390625,-0.53906 0,-0.375 -0.28125,-0.53907 -0.5507813,-0.53907 -0.070312,0 -0.09375,0 -0.1289062,0.0117 0.4570312,-0.82031 1.58203123,-0.82031 1.64062498,-0.82031 0.38671875,0 1.171875,0.17578 1.171875,1.34766 0,0.23437 -0.0351563,0.90234 -0.38671875,1.41796 -0.3515625,0.52735 -0.76171875,0.5625 -1.08984375,0.57422 z m 0,0"
         style="fill:#000000;fill-opacity:1;fill-rule:nonzero;stroke:none" />
      <path
         id="path14"
         d="m -144.77152,302.67847 c 0,-0.26953 0,-0.28125 -0.24609,-0.28125 -0.28125,0.31641 -0.87891,0.76172 -2.10937,0.76172 v 0.35156 c 0.26953,0 0.86718,0 1.52343,-0.31641 v 6.22266 c 0,0.43359 -0.0351,0.57422 -1.07812,0.57422 h -0.375 v 0.35156 c 0.3164,-0.0234 1.47656,-0.0234 1.875,-0.0234 0.39844,0 1.54687,0 1.86328,0.0234 v -0.35156 h -0.36328 c -1.05469,0 -1.08985,-0.14063 -1.08985,-0.57422 z m 4.61133,3.375 c -0.21093,0.0117 -0.25781,0.0234 -0.25781,0.12891 0,0.11718 0.0586,0.11718 0.28125,0.11718 h 0.55078 c 1.00781,0 1.46485,0.84375 1.46485,1.99219 0,1.55859 -0.8086,1.98047 -1.39454,1.98047 -0.57421,0 -1.55859,-0.28125 -1.89843,-1.06641 0.375,0.0586 0.72656,-0.15234 0.72656,-0.58593 0,-0.33985 -0.25781,-0.58594 -0.58594,-0.58594 -0.29297,0 -0.59765,0.16406 -0.59765,0.62109 0,1.06641 1.0664,1.9336 2.39062,1.9336 1.41797,0 2.47266,-1.07813 2.47266,-2.28516 0,-1.10156 -0.89063,-1.96875 -2.02735,-2.16797 1.03125,-0.30469 1.69922,-1.17187 1.69922,-2.10937 0,-0.9375 -0.97265,-1.62891 -2.13281,-1.62891 -1.19531,0 -2.08594,0.72656 -2.08594,1.59375 0,0.48047 0.375,0.57422 0.55078,0.57422 0.25782,0 0.53907,-0.17578 0.53907,-0.53906 0,-0.375 -0.28125,-0.53907 -0.55079,-0.53907 -0.0703,0 -0.0937,0 -0.1289,0.0117 0.45703,-0.82031 1.58203,-0.82031 1.64062,-0.82031 0.38672,0 1.17188,0.17578 1.17188,1.34766 0,0.23437 -0.0352,0.90234 -0.38672,1.41796 -0.35156,0.52735 -0.76172,0.5625 -1.08984,0.57422 z m 8.02149,0.80859 c 0,2.82422 -1.25391,3.41016 -1.96875,3.41016 -0.28125,0 -0.92578,-0.0352 -1.21875,-0.45703 h 0.0703 c 0.082,0.0234 0.51562,-0.0469 0.51562,-0.49219 0,-0.25781 -0.17578,-0.49219 -0.49218,-0.49219 -0.30469,0 -0.50391,0.21094 -0.50391,0.51563 0,0.75 0.59766,1.24219 1.64063,1.24219 1.5,0 2.9414,-1.58204 2.9414,-4.1836 0,-3.21094 -1.33594,-4.00781 -2.39062,-4.00781 -1.3125,0 -2.47266,1.10156 -2.47266,2.67187 0,1.58204 1.11328,2.66016 2.30859,2.66016 0.87891,0 1.33594,-0.64453 1.57032,-1.25391 z m -1.52344,0.6211 c -0.75,0 -1.07813,-0.60938 -1.18359,-0.83203 -0.19922,-0.45704 -0.19922,-1.03125 -0.19922,-1.57032 0,-0.66797 0,-1.24218 0.3164,-1.73437 0.21094,-0.31641 0.53907,-0.66797 1.1836,-0.66797 0.67968,0 1.03125,0.59766 1.14843,0.87891 0.23438,0.58593 0.23438,1.59375 0.23438,1.78125 0,0.99609 -0.44531,2.14453 -1.5,2.14453 z m 7.37695,-0.6211 c 0,2.82422 -1.2539,3.41016 -1.96875,3.41016 -0.28125,0 -0.92578,-0.0352 -1.21875,-0.45703 h 0.0703 c 0.082,0.0234 0.51562,-0.0469 0.51562,-0.49219 0,-0.25781 -0.17578,-0.49219 -0.49219,-0.49219 -0.30468,0 -0.5039,0.21094 -0.5039,0.51563 0,0.75 0.59765,1.24219 1.64062,1.24219 1.5,0 2.94141,-1.58204 2.94141,-4.1836 0,-3.21094 -1.33594,-4.00781 -2.39063,-4.00781 -1.3125,0 -2.47265,1.10156 -2.47265,2.67187 0,1.58204 1.11328,2.66016 2.30859,2.66016 0.87891,0 1.33594,-0.64453 1.57031,-1.25391 z m -1.52343,0.6211 c -0.75,0 -1.07813,-0.60938 -1.1836,-0.83203 -0.19922,-0.45704 -0.19922,-1.03125 -0.19922,-1.57032 0,-0.66797 0,-1.24218 0.31641,-1.73437 0.21094,-0.31641 0.53906,-0.66797 1.18359,-0.66797 0.67969,0 1.03125,0.59766 1.14844,0.87891 0.23438,0.58593 0.23438,1.59375 0.23438,1.78125 0,0.99609 -0.44532,2.14453 -1.5,2.14453 z m 0,0"
         style="fill:#000000;fill-opacity:1;fill-rule:nonzero;stroke:none" />
      <path
         id="path15"
         d="m 14.588836,345.74195 c 0,-0.26954 0,-0.28125 -0.246094,-0.28125 -0.28125,0.3164 -0.878906,0.76171 -2.109375,0.76171 v 0.35157 c 0.269531,0 0.867188,0 1.523438,-0.31641 v 6.22266 c 0,0.43359 -0.03516,0.57422 -1.078125,0.57422 h -0.375 v 0.35156 c 0.316406,-0.0234 1.476562,-0.0234 1.875,-0.0234 0.398437,0 1.546875,0 1.863281,0.0234 v -0.35156 H 15.67868 c -1.054688,0 -1.089844,-0.14063 -1.089844,-0.57422 z m 5.853516,0 c 0,-0.26954 0,-0.28125 -0.246094,-0.28125 -0.28125,0.3164 -0.878906,0.76171 -2.109375,0.76171 v 0.35157 c 0.269531,0 0.867187,0 1.523437,-0.31641 v 6.22266 c 0,0.43359 -0.03516,0.57422 -1.078125,0.57422 h -0.375 v 0.35156 c 0.316407,-0.0234 1.476563,-0.0234 1.875,-0.0234 0.398438,0 1.546875,0 1.863282,0.0234 v -0.35156 h -0.363282 c -1.054687,0 -1.089843,-0.14063 -1.089843,-0.57422 z m 5.853515,0 c 0,-0.26954 0,-0.28125 -0.246094,-0.28125 -0.28125,0.3164 -0.878906,0.76171 -2.109375,0.76171 v 0.35157 c 0.269532,0 0.867188,0 1.523438,-0.31641 v 6.22266 c 0,0.43359 -0.03516,0.57422 -1.078125,0.57422 h -0.375 v 0.35156 c 0.316406,-0.0234 1.476562,-0.0234 1.875,-0.0234 0.398437,0 1.546875,0 1.863281,0.0234 v -0.35156 h -0.363281 c -1.054688,0 -1.089844,-0.14063 -1.089844,-0.57422 z m 5.853516,0 c 0,-0.26954 0,-0.28125 -0.246094,-0.28125 -0.28125,0.3164 -0.878906,0.76171 -2.109375,0.76171 v 0.35157 c 0.269531,0 0.867188,0 1.523438,-0.31641 v 6.22266 c 0,0.43359 -0.03516,0.57422 -1.078125,0.57422 h -0.375 v 0.35156 c 0.316406,-0.0234 1.476562,-0.0234 1.875,-0.0234 0.398437,0 1.546875,0 1.863281,0.0234 v -0.35156 h -0.363281 c -1.054688,0 -1.089844,-0.14063 -1.089844,-0.57422 z m 5.850586,0 c 0,-0.26954 0,-0.28125 -0.246094,-0.28125 -0.28125,0.3164 -0.878906,0.76171 -2.109375,0.76171 v 0.35157 c 0.269531,0 0.867188,0 1.523438,-0.31641 v 6.22266 c 0,0.43359 -0.03516,0.57422 -1.078125,0.57422 h -0.375 v 0.35156 c 0.316406,-0.0234 1.476562,-0.0234 1.875,-0.0234 0.398437,0 1.546875,0 1.863281,0.0234 v -0.35156 h -0.363281 c -1.054688,0 -1.089844,-0.14063 -1.089844,-0.57422 z m 5.853515,0 c 0,-0.26954 0,-0.28125 -0.246093,-0.28125 -0.28125,0.3164 -0.878907,0.76171 -2.109375,0.76171 v 0.35157 c 0.269531,0 0.867187,0 1.523437,-0.31641 v 6.22266 c 0,0.43359 -0.03516,0.57422 -1.078125,0.57422 h -0.375 v 0.35156 c 0.316406,-0.0234 1.476563,-0.0234 1.875,-0.0234 0.398438,0 1.546875,0 1.863281,0.0234 v -0.35156 h -0.363281 c -1.054687,0 -1.089844,-0.14063 -1.089844,-0.57422 z m 7.669922,5.66015 h -0.269531 c -0.03516,0.19922 -0.128906,0.85547 -0.246094,1.04297 -0.08203,0.11719 -0.761718,0.11719 -1.125,0.11719 h -2.214843 c 0.328125,-0.28125 1.054687,-1.04297 1.371093,-1.33594 1.816407,-1.66406 2.484375,-2.28516 2.484375,-3.46875 0,-1.38281 -1.089843,-2.29687 -2.472656,-2.29687 -1.394531,0 -2.203125,1.18359 -2.203125,2.20312 0,0.60938 0.527344,0.60938 0.5625,0.60938 0.246094,0 0.5625,-0.17579 0.5625,-0.5625 0,-0.32813 -0.234375,-0.55079 -0.5625,-0.55079 -0.105469,0 -0.128906,0 -0.164062,0.0117 0.222656,-0.82031 0.867187,-1.37109 1.640625,-1.37109 1.019531,0 1.640625,0.85547 1.640625,1.95703 0,1.00781 -0.585938,1.89844 -1.265625,2.66016 l -2.414063,2.70703 v 0.28125 H 51.207 Z m 5.853516,0 h -0.269531 c -0.03516,0.19922 -0.128907,0.85547 -0.246094,1.04297 -0.08203,0.11719 -0.761719,0.11719 -1.125,0.11719 h -2.214844 c 0.328125,-0.28125 1.054688,-1.04297 1.371094,-1.33594 1.816406,-1.66406 2.484375,-2.28516 2.484375,-3.46875 0,-1.38281 -1.089844,-2.29687 -2.472656,-2.29687 -1.394532,0 -2.203125,1.18359 -2.203125,2.20312 0,0.60938 0.527343,0.60938 0.5625,0.60938 0.246093,0 0.5625,-0.17579 0.5625,-0.5625 0,-0.32813 -0.234375,-0.55079 -0.5625,-0.55079 -0.105469,0 -0.128907,0 -0.164063,0.0117 0.222656,-0.82031 0.867188,-1.37109 1.640625,-1.37109 1.019531,0 1.640625,0.85547 1.640625,1.95703 0,1.00781 -0.585937,1.89844 -1.265625,2.66016 l -2.414062,2.70703 v 0.28125 h 4.359375 z m 5.853516,0 h -0.269532 c -0.03516,0.19922 -0.128906,0.85547 -0.246093,1.04297 -0.08203,0.11719 -0.761719,0.11719 -1.125,0.11719 h -2.214844 c 0.328125,-0.28125 1.054687,-1.04297 1.371094,-1.33594 1.816406,-1.66406 2.484375,-2.28516 2.484375,-3.46875 0,-1.38281 -1.089844,-2.29687 -2.472657,-2.29687 -1.394531,0 -2.203125,1.18359 -2.203125,2.20312 0,0.60938 0.527344,0.60938 0.5625,0.60938 0.246094,0 0.5625,-0.17579 0.5625,-0.5625 0,-0.32813 -0.234375,-0.55079 -0.5625,-0.55079 -0.105468,0 -0.128906,0 -0.164062,0.0117 0.222656,-0.82031 0.867187,-1.37109 1.640625,-1.37109 1.019531,0 1.640625,0.85547 1.640625,1.95703 0,1.00781 -0.585938,1.89844 -1.265625,2.66016 l -2.414063,2.70703 v 0.28125 h 4.359375 z m 5.853515,0 h -0.269531 c -0.03516,0.19922 -0.128906,0.85547 -0.246094,1.04297 -0.08203,0.11719 -0.761719,0.11719 -1.125,0.11719 h -2.214844 c 0.328125,-0.28125 1.054688,-1.04297 1.371094,-1.33594 1.816406,-1.66406 2.484375,-2.28516 2.484375,-3.46875 0,-1.38281 -1.089844,-2.29687 -2.472656,-2.29687 -1.394531,0 -2.203125,1.18359 -2.203125,2.20312 0,0.60938 0.527344,0.60938 0.5625,0.60938 0.246094,0 0.5625,-0.17579 0.5625,-0.5625 0,-0.32813 -0.234375,-0.55079 -0.5625,-0.55079 -0.105469,0 -0.128906,0 -0.164063,0.0117 0.222657,-0.82031 0.867188,-1.37109 1.640625,-1.37109 1.019532,0 1.640625,0.85547 1.640625,1.95703 0,1.00781 -0.585937,1.89844 -1.265625,2.66016 l -2.414062,2.70703 v 0.28125 h 4.359375 z m 5.853516,0 h -0.269531 c -0.03516,0.19922 -0.128907,0.85547 -0.246094,1.04297 -0.08203,0.11719 -0.761719,0.11719 -1.125,0.11719 H 71.082 c 0.328125,-0.28125 1.054688,-1.04297 1.371094,-1.33594 1.816406,-1.66406 2.484375,-2.28516 2.484375,-3.46875 0,-1.38281 -1.089844,-2.29687 -2.472656,-2.29687 -1.394532,0 -2.203125,1.18359 -2.203125,2.20312 0,0.60938 0.527343,0.60938 0.5625,0.60938 0.246093,0 0.5625,-0.17579 0.5625,-0.5625 0,-0.32813 -0.234375,-0.55079 -0.5625,-0.55079 -0.105469,0 -0.128907,0 -0.164063,0.0117 0.222656,-0.82031 0.867188,-1.37109 1.640625,-1.37109 1.019531,0 1.640625,0.85547 1.640625,1.95703 0,1.00781 -0.585937,1.89844 -1.265625,2.66016 l -2.414062,2.70703 v 0.28125 h 4.359375 z m 5.853515,0 h -0.269531 c -0.03516,0.19922 -0.128906,0.85547 -0.246094,1.04297 -0.08203,0.11719 -0.761718,0.11719 -1.125,0.11719 h -2.214843 c 0.328125,-0.28125 1.054687,-1.04297 1.371093,-1.33594 1.816407,-1.66406 2.484375,-2.28516 2.484375,-3.46875 0,-1.38281 -1.089843,-2.29687 -2.472656,-2.29687 -1.394531,0 -2.203125,1.18359 -2.203125,2.20312 0,0.60938 0.527344,0.60938 0.5625,0.60938 0.246094,0 0.5625,-0.17579 0.5625,-0.5625 0,-0.32813 -0.234375,-0.55079 -0.5625,-0.55079 -0.105469,0 -0.128906,0 -0.164062,0.0117 0.222656,-0.82031 0.867187,-1.37109 1.640625,-1.37109 1.019531,0 1.640625,0.85547 1.640625,1.95703 0,1.00781 -0.585938,1.89844 -1.265625,2.66016 l -2.414063,2.70703 v 0.28125 h 4.359375 z m 0,0"
         style="fill:#000000;fill-opacity:1;fill-rule:nonzero;stroke:none" />
    </g>
  </g>
</svg>
