<?xml version="1.0" encoding="UTF-8" standalone="no"?>
<!-- Created with Inkscape (http://www.inkscape.org/) -->

<svg
   version="1.1"
   id="svg1"
   width="794.55066"
   height="1123.6533"
   viewBox="0 0 794.55066 1123.6533"
   sodipodi:docname="LigaMatematycznaMatuskiego_Klasa7i8_Zestaw3_2020_2021_page0.pdf"
   xmlns:inkscape="http://www.inkscape.org/namespaces/inkscape"
   xmlns:sodipodi="http://sodipodi.sourceforge.net/DTD/sodipodi-0.dtd"
   xmlns="http://www.w3.org/2000/svg"
   xmlns:svg="http://www.w3.org/2000/svg">
  <defs
     id="defs1" />
  <sodipodi:namedview
     id="namedview1"
     pagecolor="#ffffff"
     bordercolor="#000000"
     borderopacity="0.25"
     inkscape:showpageshadow="2"
     inkscape:pageopacity="0.0"
     inkscape:pagecheckerboard="0"
     inkscape:deskcolor="#d1d1d1">
    <inkscape:page
       x="0"
       y="0"
       inkscape:label="1"
       id="page1"
       width="794.55066"
       height="1123.6533"
       margin="0"
       bleed="0" />
  </sodipodi:namedview>
  <g
     id="g1"
     inkscape:groupmode="layer"
     inkscape:label="1">
    <g
       id="g2"
       aria-label="LIGAMATEMATYCZNA&#10;im.ZdzisªawaMatuskiego&#10;GRUDZIE2020&#10;SZKOAPODSTAWOWA&#10;klasyVII-VIII&#10;ZADANIE1.&#10;Cyfr¡jedno±cipewnejliczbyczterocyfrowejjest5.Je»elit¦cyfr¦przestawimyzostatniegomiej-&#10;scanapierwsze,tootrzymamyliczb¦o2277wi¦ksz¡odliczbypierwotnej.Znajd¹pocz¡tkow¡&#10;liczb¦.&#10;ZADANIE2.&#10;Wprostok¡cieABCDpunktEjest±rodkiembokuAB,punktFjest±rodkiembokuBC.Pole&#10;czworok¡taABFDjestrówne19.Obliczpoleczworok¡taCDEB.&#10;ZADANIE3.&#10;redniaarytmetycznawiekutrzechkolegówjestrówna14lat.Gdybynajmªodszybyªdwarazy&#10;starszy,to±redniaichwiekuwynosiªaby18lat.Podajwieknajmªodszegochªopca.&#10;ZADANIE4.&#10;Znajd¹wszystkieliczbypodzielneprzez8,którychsumacyfrwukªadziedziesi¦tnymwynosi7&#10;iiloczyncyfrjestrówny6.&#10;ZADANIE5.&#10;Nazewn¡trzkwadratuABCDzbudowanotrójk¡trównobocznyAEB.Wyznaczmiar¦k¡ta&#10;^CEA."
       transform="matrix(1.3333333,0,0,1.3333333,274.724,56.069333)">
      <path
         id="path2"
         d="m 95.336883,116.52027 c 0.503906,0.16406 0.925781,0.17578 1.054687,0.17578 1.359375,0 2.214844,-0.9961 2.214844,-1.16016 0,-0.0469 -0.02344,-0.10547 -0.09375,-0.10547 -0.02344,0 -0.04687,0 -0.152344,0.0469 -0.667968,0.28125 -1.242187,0.3164 -1.558593,0.3164 -0.785157,0 -1.347657,-0.23437 -1.582032,-0.32812 -0.08203,-0.0352 -0.105468,-0.0352 -0.117187,-0.0352 -0.09375,0 -0.09375,0.0703 -0.09375,0.25781 v 3.55079 c 0,0.21093 0,0.29296 0.140625,0.29296 0.05859,0 0.07031,-0.0117 0.199219,-0.16406 0.328125,-0.49219 0.890625,-0.77344 1.488281,-0.77344 0.632812,0 0.949219,0.58594 1.042969,0.78516 0.199218,0.46875 0.210937,1.05469 0.210937,1.51172 0,0.45703 0,1.13672 -0.328125,1.67578 -0.269531,0.42188 -0.738281,0.72656 -1.253906,0.72656 -0.796875,0 -1.570313,-0.53906 -1.78125,-1.40625 0.05859,0.0234 0.128906,0.0352 0.1875,0.0352 0.199219,0 0.527344,-0.12891 0.527344,-0.52734 0,-0.33985 -0.234375,-0.52735 -0.527344,-0.52735 -0.210938,0 -0.527344,0.10547 -0.527344,0.57422 0,1.00781 0.808594,2.16797 2.144531,2.16797 1.347657,0 2.53125,-1.125 2.53125,-2.64844 0,-1.41797 -0.960937,-2.60156 -2.214843,-2.60156 -0.679688,0 -1.207032,0.29297 -1.511719,0.63281 z m 0,0"
         style="fill:#000000;fill-opacity:1;fill-rule:nonzero;stroke:none" />
      <path
         id="path3"
         d="M 60.004852,135.8064 H 59.73532 c -0.03516,0.19922 -0.128906,0.85547 -0.246093,1.04297 -0.08203,0.11718 -0.761719,0.11718 -1.125,0.11718 h -2.214844 c 0.328125,-0.28125 1.054687,-1.04296 1.371094,-1.33593 1.816406,-1.66407 2.484375,-2.28516 2.484375,-3.46875 0,-1.38282 -1.089844,-2.29688 -2.472657,-2.29688 -1.394531,0 -2.203125,1.1836 -2.203125,2.20313 0,0.60937 0.527344,0.60937 0.5625,0.60937 0.246094,0 0.5625,-0.17578 0.5625,-0.5625 0,-0.32812 -0.234375,-0.55078 -0.5625,-0.55078 -0.105468,0 -0.128906,0 -0.164062,0.0117 0.222656,-0.82031 0.867187,-1.37109 1.640625,-1.37109 1.019531,0 1.640625,0.85546 1.640625,1.95703 0,1.00781 -0.585938,1.89843 -1.265625,2.66015 l -2.414063,2.70703 v 0.28125 h 4.359375 z m 5.853515,0 h -0.269531 c -0.03516,0.19922 -0.128906,0.85547 -0.246094,1.04297 -0.08203,0.11718 -0.761719,0.11718 -1.125,0.11718 h -2.214844 c 0.328125,-0.28125 1.054688,-1.04296 1.371094,-1.33593 1.816406,-1.66407 2.484375,-2.28516 2.484375,-3.46875 0,-1.38282 -1.089844,-2.29688 -2.472656,-2.29688 -1.394531,0 -2.203125,1.1836 -2.203125,2.20313 0,0.60937 0.527344,0.60937 0.5625,0.60937 0.246094,0 0.5625,-0.17578 0.5625,-0.5625 0,-0.32812 -0.234375,-0.55078 -0.5625,-0.55078 -0.105469,0 -0.128906,0 -0.164063,0.0117 0.222657,-0.82031 0.867188,-1.37109 1.640625,-1.37109 1.019532,0 1.640625,0.85546 1.640625,1.95703 0,1.00781 -0.585937,1.89843 -1.265625,2.66015 l -2.414062,2.70703 v 0.28125 h 4.359375 z m 6.272461,-5.41406 v -0.28125 h -2.882812 c -1.453125,0 -1.476563,-0.15235 -1.523438,-0.38672 h -0.257812 l -0.375,2.39062 h 0.269531 c 0.03516,-0.21094 0.140625,-0.94922 0.292969,-1.07812 0.09375,-0.0703 0.996093,-0.0703 1.160156,-0.0703 h 2.53125 l -1.265625,1.81641 c -0.316406,0.45703 -1.523438,2.42578 -1.523438,4.66406 0,0.14063 0,0.60938 0.480469,0.60938 0.503906,0 0.503906,-0.45703 0.503906,-0.6211 v -0.59765 c 0,-1.78125 0.292969,-3.16406 0.855469,-3.96094 z m 5.853516,0 v -0.28125 h -2.882813 c -1.453125,0 -1.476562,-0.15235 -1.523437,-0.38672 h -0.257813 l -0.375,2.39062 h 0.269532 c 0.03516,-0.21094 0.140625,-0.94922 0.292968,-1.07812 0.09375,-0.0703 0.996094,-0.0703 1.160157,-0.0703 h 2.53125 l -1.265625,1.81641 c -0.316407,0.45703 -1.523438,2.42578 -1.523438,4.66406 0,0.14063 0,0.60938 0.480469,0.60938 0.503906,0 0.503906,-0.45703 0.503906,-0.6211 v -0.59765 c 0,-1.78125 0.292969,-3.16406 0.855469,-3.96094 z m 0,0"
         style="fill:#000000;fill-opacity:1;fill-rule:nonzero;stroke:none" />
      <path
         id="path4"
         d="m -70.539094,193.99585 c -0.410156,0.70313 -0.820312,0.9375 -1.394531,0.97266 -0.128906,0.0117 -0.222656,0.0117 -0.222656,0.23437 0,0.0703 0.05859,0.11719 0.140625,0.11719 0.210937,0 0.75,-0.0234 0.972656,-0.0234 0.339844,0 0.726563,0.0234 1.054688,0.0234 0.07031,0 0.222656,0 0.222656,-0.22266 0,-0.11718 -0.09375,-0.1289 -0.175781,-0.1289 -0.269532,-0.0234 -0.492188,-0.11719 -0.492188,-0.39844 0,-0.17578 0.07031,-0.30469 0.222656,-0.5625 l 0.902344,-1.51172 h 3.058594 c 0.01172,0.10547 0.01172,0.21094 0.02344,0.31641 0.03516,0.30469 0.175782,1.54687 0.175782,1.78125 0,0.35156 -0.609375,0.375 -0.796875,0.375 -0.140625,0 -0.269532,0 -0.269532,0.22265 0,0.12891 0.105469,0.12891 0.175782,0.12891 0.210937,0 0.445312,-0.0234 0.65625,-0.0234 h 0.679687 c 0.726563,0 1.253906,0.0234 1.265625,0.0234 0.08203,0 0.210938,0 0.210938,-0.22266 0,-0.1289 -0.105469,-0.1289 -0.28125,-0.1289 -0.65625,0 -0.667969,-0.10547 -0.714844,-0.45703 l -0.726563,-7.46485 c -0.02344,-0.23437 -0.07031,-0.25781 -0.199218,-0.25781 -0.117188,0 -0.1875,0.0234 -0.304688,0.19922 z m 1.441407,-1.83984 2.402343,-4.01953 0.410157,4.01953 z m 9.676757,-4.1836 c 0.117188,-0.44531 0.164063,-0.46875 0.621094,-0.46875 h 1.558594 c 1.347656,0 1.347656,1.14844 1.347656,1.25391 0,0.97266 -0.960937,2.20313 -2.542969,2.20313 h -1.722656 z m 2.027344,3.08204 c 1.300781,-0.2461 2.484375,-1.14844 2.484375,-2.25 0,-0.92579 -0.832031,-1.65235 -2.179687,-1.65235 h -3.832032 c -0.234375,0 -0.339843,0 -0.339843,0.23438 0,0.11718 0.105468,0.11718 0.292968,0.11718 0.726563,0 0.726563,0.0937 0.726563,0.22266 0,0.0234 0,0.0937 -0.04687,0.28125 l -1.617188,6.43359 c -0.105468,0.41016 -0.128906,0.52735 -0.960937,0.52735 -0.234375,0 -0.351563,0 -0.351563,0.22265 0,0.12891 0.07031,0.12891 0.304688,0.12891 h 4.101562 c 1.828125,0 3.246094,-1.38281 3.246094,-2.58984 0,-0.98438 -0.867187,-1.58203 -1.828125,-1.67578 z m -1.699219,3.91406 h -1.617187 c -0.164063,0 -0.1875,0 -0.257813,-0.0117 -0.128906,-0.0117 -0.152343,-0.0352 -0.152343,-0.12891 0,-0.082 0.03516,-0.15234 0.05859,-0.25781 l 0.832032,-3.375 h 2.25 c 1.40625,0 1.40625,1.3125 1.40625,1.40625 0,1.14844 -1.042969,2.36719 -2.519532,2.36719 z m 13.722657,-7.95703 c 0,-0.10547 -0.08203,-0.10547 -0.105469,-0.10547 -0.02344,0 -0.07031,0 -0.175781,0.11719 l -0.820313,1.00781 c -0.421875,-0.71485 -1.078125,-1.125 -1.96875,-1.125 -2.589844,0 -5.261719,2.61328 -5.261719,5.42578 0,1.99219 1.394532,3.23437 3.140625,3.23437 0.960938,0 1.792969,-0.39843 2.484375,-0.98437 1.042969,-0.87891 1.359375,-2.03906 1.359375,-2.13281 0,-0.10547 -0.09375,-0.10547 -0.140625,-0.10547 -0.105468,0 -0.117187,0.0703 -0.140625,0.11719 -0.550781,1.86328 -2.15625,2.76562 -3.351562,2.76562 -1.277344,0 -2.367188,-0.82031 -2.367188,-2.50781 0,-0.38672 0.117188,-2.46094 1.464844,-4.03125 0.65625,-0.76172 1.78125,-1.44141 2.917969,-1.44141 1.3125,0 1.898437,1.08985 1.898437,2.3086 0,0.3164 -0.03516,0.57421 -0.03516,0.62109 0,0.11719 0.117188,0.11719 0.152344,0.11719 0.140625,0 0.152344,-0.0117 0.199219,-0.23438 z m 2.179687,7.42968 c -0.105469,0.41016 -0.128906,0.52735 -0.960937,0.52735 -0.234375,0 -0.351563,0 -0.351563,0.22265 0,0.12891 0.07031,0.12891 0.304688,0.12891 h 3.796875 c 2.414062,0 4.769531,-2.49609 4.769531,-5.16797 0,-1.72265 -1.03125,-3 -2.742188,-3 h -3.832031 c -0.234375,0 -0.339844,0 -0.339844,0.23438 0,0.11718 0.105469,0.11718 0.292969,0.11718 0.726563,0 0.726563,0.0937 0.726563,0.22266 0,0.0234 0,0.0937 -0.04687,0.28125 z m 2.519531,-6.46875 c 0.117188,-0.44531 0.164063,-0.46875 0.621094,-0.46875 h 1.324219 c 1.113281,0 2.144531,0.60938 2.144531,2.26172 0,0.59766 -0.234375,2.67188 -1.394531,3.98438 -0.339844,0.39844 -1.242188,1.21875 -2.625,1.21875 h -1.359375 c -0.164063,0 -0.1875,0 -0.257813,-0.0117 -0.128906,-0.0117 -0.140625,-0.0352 -0.140625,-0.12891 0,-0.082 0.02344,-0.15234 0.04687,-0.25781 z m 0,0"
         style="fill:#000000;fill-opacity:1;fill-rule:nonzero;stroke:none" />
      <path
         id="path5"
         d="m 10.194305,192.54273 c 0.01172,-0.0352 0.04687,-0.11719 0.04687,-0.16407 0,-0.0586 -0.04687,-0.11718 -0.117188,-0.11718 -0.04687,0 -0.07031,0.0117 -0.105469,0.0469 -0.023437,0.0117 -0.023437,0.0352 -0.1406246,0.26953 -0.703125,1.67578 -1.21875,2.39063 -3.1289062,2.39063 H 5.0028984 c -0.1640625,0 -0.1875,0 -0.2578125,-0.0117 -0.1289062,-0.0117 -0.140625,-0.0352 -0.140625,-0.12891 0,-0.082 0.023437,-0.15234 0.046875,-0.25781 l 0.8203125,-3.30469 h 1.1835938 c 0.9375,0 1.0078125,0.21094 1.0078125,0.5625 0,0.11719 0,0.23438 -0.082031,0.58594 -0.035156,0.0469 -0.046875,0.0937 -0.046875,0.12891 0,0.082 0.070312,0.1289 0.140625,0.1289 0.1054688,0 0.1171875,-0.0937 0.1640625,-0.25781 l 0.6796875,-2.77734 c 0,-0.0586 -0.046875,-0.11719 -0.1171875,-0.11719 -0.1054687,0 -0.1171875,0.0469 -0.1640625,0.22266 -0.2460937,0.91406 -0.4804687,1.18359 -1.546875,1.18359 h -1.136719 l 0.7382812,-2.94141 c 0.1171875,-0.42187 0.140625,-0.45703 0.6210938,-0.45703 h 1.7109375 c 1.4765628,0 1.7695308,0.39844 1.7695308,1.30078 0,0.0117 0,0.35157 -0.04687,0.73828 -0.01172,0.0469 -0.02344,0.12891 -0.02344,0.15235 0,0.0937 0.05859,0.1289 0.128906,0.1289 0.08203,0 0.140625,-0.0469 0.164063,-0.26953 l 0.246093,-2.08593 c 0,-0.0352 0.02344,-0.15235 0.02344,-0.17579 0,-0.14062 -0.105469,-0.14062 -0.316406,-0.14062 H 4.7333672 c -0.234375,0 -0.3515625,0 -0.3515625,0.22266 0,0.1289 0.082031,0.1289 0.2929687,0.1289 0.7382813,0 0.7382813,0.082 0.7382813,0.21094 0,0.0586 -0.011719,0.10547 -0.046875,0.24609 l -1.6171875,6.45703 c -0.1054688,0.41016 -0.1289063,0.52735 -0.9609375,0.52735 -0.234375,0 -0.3515625,0 -0.3515625,0.22265 0,0.12891 0.070312,0.12891 0.3046875,0.12891 h 6 c 0.2695312,0 0.28125,-0.0117 0.3632812,-0.19922 z m 0,0"
         style="fill:#000000;fill-opacity:1;fill-rule:nonzero;stroke:none" />
      <path
         id="path6"
         d="m 116.15231,193.99585 c -0.41015,0.70313 -0.82031,0.9375 -1.39453,0.97266 -0.1289,0.0117 -0.22265,0.0117 -0.22265,0.23437 0,0.0703 0.0586,0.11719 0.14062,0.11719 0.21094,0 0.75,-0.0234 0.97266,-0.0234 0.33984,0 0.72656,0.0234 1.05468,0.0234 0.0703,0 0.22266,0 0.22266,-0.22266 0,-0.11718 -0.0937,-0.1289 -0.17578,-0.1289 -0.26953,-0.0234 -0.49219,-0.11719 -0.49219,-0.39844 0,-0.17578 0.0703,-0.30469 0.22266,-0.5625 l 0.90234,-1.51172 h 3.0586 c 0.0117,0.10547 0.0117,0.21094 0.0234,0.31641 0.0352,0.30469 0.17578,1.54687 0.17578,1.78125 0,0.35156 -0.60937,0.375 -0.79687,0.375 -0.14063,0 -0.26953,0 -0.26953,0.22265 0,0.12891 0.10547,0.12891 0.17578,0.12891 0.21094,0 0.44531,-0.0234 0.65625,-0.0234 h 0.67969 c 0.72656,0 1.2539,0.0234 1.26562,0.0234 0.082,0 0.21094,0 0.21094,-0.22266 0,-0.1289 -0.10547,-0.1289 -0.28125,-0.1289 -0.65625,0 -0.66797,-0.10547 -0.71484,-0.45703 l -0.72657,-7.46485 c -0.0234,-0.23437 -0.0703,-0.25781 -0.19922,-0.25781 -0.11718,0 -0.1875,0.0234 -0.30468,0.19922 z m 1.44141,-1.83984 2.40234,-4.01953 0.41016,4.01953 z m 9.67676,-4.1836 c 0.11718,-0.44531 0.16406,-0.46875 0.62109,-0.46875 h 1.55859 c 1.34766,0 1.34766,1.14844 1.34766,1.25391 0,0.97266 -0.96094,2.20313 -2.54297,2.20313 h -1.72265 z m 2.02734,3.08204 c 1.30078,-0.2461 2.48438,-1.14844 2.48438,-2.25 0,-0.92579 -0.83204,-1.65235 -2.17969,-1.65235 h -3.83203 c -0.23438,0 -0.33985,0 -0.33985,0.23438 0,0.11718 0.10547,0.11718 0.29297,0.11718 0.72656,0 0.72656,0.0937 0.72656,0.22266 0,0.0234 0,0.0937 -0.0469,0.28125 l -1.61719,6.43359 c -0.10547,0.41016 -0.1289,0.52735 -0.96094,0.52735 -0.23437,0 -0.35156,0 -0.35156,0.22265 0,0.12891 0.0703,0.12891 0.30469,0.12891 h 4.10156 c 1.82813,0 3.2461,-1.38281 3.2461,-2.58984 0,-0.98438 -0.86719,-1.58203 -1.82813,-1.67578 z m -1.69922,3.91406 h -1.61719 c -0.16406,0 -0.1875,0 -0.25781,-0.0117 -0.1289,-0.0117 -0.15234,-0.0352 -0.15234,-0.12891 0,-0.082 0.0352,-0.15234 0.0586,-0.25781 l 0.83203,-3.375 h 2.25 c 1.40625,0 1.40625,1.3125 1.40625,1.40625 0,1.14844 -1.04297,2.36719 -2.51953,2.36719 z m 0,0"
         style="fill:#000000;fill-opacity:1;fill-rule:nonzero;stroke:none" />
      <path
         id="path7"
         d="m 176.21384,191.41773 h 1.14843 c 0.90235,0 0.98438,0.21093 0.98438,0.55078 0,0.16406 -0.0352,0.32812 -0.0937,0.58594 -0.0234,0.0469 -0.0352,0.11718 -0.0352,0.14062 0,0.082 0.0469,0.12891 0.14063,0.12891 0.0937,0 0.10547,-0.0469 0.15234,-0.2461 l 0.69141,-2.77734 c 0,-0.0469 -0.0352,-0.11719 -0.11719,-0.11719 -0.10547,0 -0.11719,0.0469 -0.17578,0.2461 -0.2461,0.89062 -0.48047,1.14843 -1.52344,1.14843 h -1.08984 l 0.77343,-3.09375 c 0.11719,-0.42187 0.14063,-0.45703 0.6211,-0.45703 h 1.60547 c 1.5,0 1.71093,0.44531 1.71093,1.28906 0,0.0703 0,0.33985 -0.0351,0.64454 -0.0117,0.0469 -0.0352,0.21093 -0.0352,0.25781 0,0.0937 0.0586,0.1289 0.12891,0.1289 0.082,0 0.1289,-0.0469 0.15234,-0.26953 l 0.25781,-2.08593 c 0,-0.0352 0.0234,-0.15235 0.0234,-0.17579 0,-0.14062 -0.10547,-0.14062 -0.32812,-0.14062 h -5.66016 c -0.23437,0 -0.35156,0 -0.35156,0.22266 0,0.1289 0.082,0.1289 0.29297,0.1289 0.73828,0 0.73828,0.082 0.73828,0.21094 0,0.0586 -0.0117,0.10547 -0.0469,0.24609 l -1.61718,6.45703 c -0.10547,0.41016 -0.12891,0.52735 -0.96094,0.52735 -0.23438,0 -0.35156,0 -0.35156,0.22265 0,0.12891 0.10546,0.12891 0.17578,0.12891 0.23437,0 0.46875,-0.0234 0.6914,-0.0234 h 1.5586 c 0.25781,0 0.55078,0.0234 0.80859,0.0234 0.11719,0 0.25781,0 0.25781,-0.21094 0,-0.14062 -0.0703,-0.14062 -0.33984,-0.14062 -0.9375,0 -0.96094,-0.082 -0.96094,-0.25781 0,-0.0586 0.0234,-0.15235 0.0469,-0.23438 z m 0,0"
         style="fill:#000000;fill-opacity:1;fill-rule:nonzero;stroke:none" />
      <path
         id="path8"
         d="m 289.10934,187.97241 c 0.11719,-0.44531 0.16407,-0.46875 0.6211,-0.46875 h 1.55859 c 1.34766,0 1.34766,1.14844 1.34766,1.25391 0,0.97266 -0.96094,2.20313 -2.54297,2.20313 h -1.72266 z m 2.02735,3.08204 c 1.30078,-0.2461 2.48437,-1.14844 2.48437,-2.25 0,-0.92579 -0.83203,-1.65235 -2.17968,-1.65235 h -3.83204 c -0.23437,0 -0.33984,0 -0.33984,0.23438 0,0.11718 0.10547,0.11718 0.29297,0.11718 0.72656,0 0.72656,0.0937 0.72656,0.22266 0,0.0234 0,0.0937 -0.0469,0.28125 l -1.61719,6.43359 c -0.10547,0.41016 -0.12891,0.52735 -0.96094,0.52735 -0.23437,0 -0.35156,0 -0.35156,0.22265 0,0.12891 0.0703,0.12891 0.30469,0.12891 h 4.10156 c 1.82812,0 3.24609,-1.38281 3.24609,-2.58984 0,-0.98438 -0.86718,-1.58203 -1.82812,-1.67578 z m -1.69922,3.91406 h -1.61719 c -0.16406,0 -0.1875,0 -0.25781,-0.0117 -0.12891,-0.0117 -0.15234,-0.0352 -0.15234,-0.12891 0,-0.082 0.0352,-0.15234 0.0586,-0.25781 l 0.83203,-3.375 h 2.25 c 1.40625,0 1.40625,1.3125 1.40625,1.40625 0,1.14844 -1.04297,2.36719 -2.51953,2.36719 z m 13.72266,-7.95703 c 0,-0.10547 -0.082,-0.10547 -0.10547,-0.10547 -0.0234,0 -0.0703,0 -0.17578,0.11719 l -0.82032,1.00781 c -0.42187,-0.71485 -1.07812,-1.125 -1.96875,-1.125 -2.58984,0 -5.26172,2.61328 -5.26172,5.42578 0,1.99219 1.39454,3.23437 3.14063,3.23437 0.96094,0 1.79297,-0.39843 2.48437,-0.98437 1.04297,-0.87891 1.35938,-2.03906 1.35938,-2.13281 0,-0.10547 -0.0937,-0.10547 -0.14063,-0.10547 -0.10546,0 -0.11718,0.0703 -0.14062,0.11719 -0.55078,1.86328 -2.15625,2.76562 -3.35156,2.76562 -1.27735,0 -2.36719,-0.82031 -2.36719,-2.50781 0,-0.38672 0.11719,-2.46094 1.46484,-4.03125 0.65625,-0.76172 1.78125,-1.44141 2.91797,-1.44141 1.3125,0 1.89844,1.08985 1.89844,2.3086 0,0.3164 -0.0352,0.57421 -0.0352,0.62109 0,0.11719 0.11719,0.11719 0.15235,0.11719 0.14062,0 0.15234,-0.0117 0.19922,-0.23438 z m 0,0"
         style="fill:#000000;fill-opacity:1;fill-rule:nonzero;stroke:none" />
      <path
         id="path9"
         d="m -85.720734,208.44214 c -0.410157,0.70313 -0.820313,0.9375 -1.394532,0.97266 -0.128906,0.0117 -0.222656,0.0117 -0.222656,0.23437 0,0.0703 0.05859,0.11719 0.140625,0.11719 0.210938,0 0.75,-0.0234 0.972656,-0.0234 0.339844,0 0.726563,0.0234 1.054688,0.0234 0.07031,0 0.222656,0 0.222656,-0.22266 0,-0.11718 -0.09375,-0.1289 -0.175781,-0.1289 -0.269531,-0.0234 -0.492188,-0.11719 -0.492188,-0.39844 0,-0.17578 0.07031,-0.30469 0.222657,-0.5625 l 0.902343,-1.51172 h 3.058594 c 0.01172,0.10547 0.01172,0.21094 0.02344,0.31641 0.03516,0.30468 0.175781,1.54687 0.175781,1.78125 0,0.35156 -0.609375,0.375 -0.796875,0.375 -0.140625,0 -0.269531,0 -0.269531,0.22265 0,0.12891 0.105468,0.12891 0.175781,0.12891 0.210937,0 0.445312,-0.0234 0.65625,-0.0234 h 0.679687 c 0.726563,0 1.253907,0.0234 1.265625,0.0234 0.08203,0 0.210938,0 0.210938,-0.22266 0,-0.1289 -0.105469,-0.1289 -0.28125,-0.1289 -0.65625,0 -0.667969,-0.10547 -0.714844,-0.45703 l -0.726562,-7.46485 c -0.02344,-0.23437 -0.07031,-0.25781 -0.199219,-0.25781 -0.117188,0 -0.1875,0.0234 -0.304688,0.19922 z m 1.441406,-1.83984 2.402344,-4.01953 0.410156,4.01953 z m 9.676758,-4.1836 c 0.117187,-0.44531 0.164062,-0.46875 0.621093,-0.46875 h 1.558594 c 1.347656,0 1.347656,1.14844 1.347656,1.25391 0,0.97266 -0.960937,2.20312 -2.542968,2.20312 h -1.722657 z m 2.027343,3.08203 c 1.300782,-0.24609 2.484375,-1.14843 2.484375,-2.25 0,-0.92578 -0.832031,-1.65234 -2.179687,-1.65234 h -3.832031 c -0.234375,0 -0.339844,0 -0.339844,0.23438 0,0.11718 0.105469,0.11718 0.292969,0.11718 0.726562,0 0.726562,0.0937 0.726562,0.22266 0,0.0234 0,0.0937 -0.04687,0.28125 l -1.617187,6.43359 c -0.105469,0.41016 -0.128907,0.52735 -0.960938,0.52735 -0.234375,0 -0.351562,0 -0.351562,0.22265 0,0.12891 0.07031,0.12891 0.304687,0.12891 h 4.101563 c 1.828125,0 3.246093,-1.38281 3.246093,-2.58984 0,-0.98438 -0.867187,-1.58204 -1.828125,-1.67579 z m -1.699218,3.91407 h -1.617188 c -0.164062,0 -0.1875,0 -0.257812,-0.0117 -0.128907,-0.0117 -0.152344,-0.0352 -0.152344,-0.12891 0,-0.082 0.03516,-0.15234 0.05859,-0.25781 l 0.832031,-3.375 h 2.25 c 1.40625,0 1.40625,1.3125 1.40625,1.40625 0,1.14844 -1.042969,2.36719 -2.519531,2.36719 z m 8.34375,-3.55078 h 1.148437 c 0.902344,0 0.984375,0.21093 0.984375,0.55078 0,0.16406 -0.03516,0.32812 -0.09375,0.58593 -0.02344,0.0469 -0.03516,0.11719 -0.03516,0.14063 0,0.082 0.04687,0.12891 0.140625,0.12891 0.09375,0 0.105469,-0.0469 0.152344,-0.2461 l 0.691406,-2.77734 c 0,-0.0469 -0.03516,-0.11719 -0.117188,-0.11719 -0.105468,0 -0.117187,0.0469 -0.175781,0.24609 -0.246094,0.89063 -0.480469,1.14844 -1.523437,1.14844 h -1.089844 l 0.773437,-3.09375 c 0.117188,-0.42187 0.140625,-0.45703 0.621094,-0.45703 h 1.605469 c 1.5,0 1.710937,0.44531 1.710937,1.28906 0,0.0703 0,0.33985 -0.03516,0.64453 -0.01172,0.0469 -0.03516,0.21094 -0.03516,0.25782 0,0.0937 0.05859,0.1289 0.128906,0.1289 0.08203,0 0.128906,-0.0469 0.152344,-0.26953 l 0.257812,-2.08594 c 0,-0.0352 0.02344,-0.15234 0.02344,-0.17578 0,-0.14062 -0.105469,-0.14062 -0.328125,-0.14062 h -5.660156 c -0.234375,0 -0.351563,0 -0.351563,0.22265 0,0.12891 0.08203,0.12891 0.292969,0.12891 0.738281,0 0.738281,0.082 0.738281,0.21094 0,0.0586 -0.01172,0.10547 -0.04687,0.24609 l -1.617187,6.45703 c -0.105469,0.41016 -0.128907,0.52735 -0.960938,0.52735 -0.234375,0 -0.351562,0 -0.351562,0.22265 0,0.12891 0.105468,0.12891 0.175781,0.12891 0.234375,0 0.46875,-0.0234 0.691406,-0.0234 h 1.558594 c 0.257812,0 0.550781,0.0234 0.808594,0.0234 0.117187,0 0.257812,0 0.257812,-0.21094 0,-0.14062 -0.07031,-0.14062 -0.339844,-0.14062 -0.9375,0 -0.960937,-0.082 -0.960937,-0.25782 0,-0.0586 0.02344,-0.15234 0.04687,-0.23437 z m 7.526367,3.02343 c -0.105469,0.41016 -0.128906,0.52735 -0.960938,0.52735 -0.234375,0 -0.351562,0 -0.351562,0.22265 0,0.12891 0.07031,0.12891 0.304687,0.12891 h 3.796875 c 2.414063,0 4.769532,-2.49609 4.769532,-5.16797 0,-1.72266 -1.03125,-3 -2.742188,-3 h -3.832031 c -0.234375,0 -0.339844,0 -0.339844,0.23438 0,0.11718 0.105469,0.11718 0.292969,0.11718 0.726562,0 0.726562,0.0937 0.726562,0.22266 0,0.0234 0,0.0937 -0.04687,0.28125 z m 2.519531,-6.46875 c 0.117188,-0.44531 0.164063,-0.46875 0.621094,-0.46875 h 1.324219 c 1.113281,0 2.144531,0.60938 2.144531,2.26172 0,0.59766 -0.234375,2.67188 -1.394531,3.98438 -0.339844,0.39843 -1.242188,1.21875 -2.625,1.21875 h -1.359375 c -0.164063,0 -0.1875,0 -0.257813,-0.0117 -0.128906,-0.0117 -0.140625,-0.0352 -0.140625,-0.12891 0,-0.082 0.02344,-0.15234 0.04687,-0.25781 z m 0,0"
         style="fill:#000000;fill-opacity:1;fill-rule:nonzero;stroke:none" />
      <path
         id="path10"
         d="m 13.097625,202.1023 c 0,-0.26953 0,-0.28125 -0.246094,-0.28125 -0.28125,0.3164 -0.878906,0.76172 -2.109375,0.76172 v 0.35156 c 0.269532,0 0.867188,0 1.523438,-0.31641 v 6.22266 c 0,0.43359 -0.03516,0.57422 -1.078125,0.57422 h -0.375 v 0.35156 c 0.316406,-0.0234 1.476562,-0.0234 1.875,-0.0234 0.398437,0 1.546875,0 1.863281,0.0234 v -0.35156 h -0.363281 c -1.054688,0 -1.089844,-0.14063 -1.089844,-0.57422 z m 6.779297,4.18359 c 0,2.82422 -1.253906,3.41016 -1.96875,3.41016 -0.28125,0 -0.925781,-0.0352 -1.21875,-0.45703 h 0.07031 c 0.08203,0.0234 0.515625,-0.0469 0.515625,-0.49219 0,-0.25781 -0.175781,-0.49219 -0.492187,-0.49219 -0.304688,0 -0.503906,0.21094 -0.503906,0.51563 0,0.75 0.597656,1.24218 1.640625,1.24218 1.5,0 2.941406,-1.58203 2.941406,-4.18359 0,-3.21094 -1.335938,-4.00781 -2.390625,-4.00781 -1.3125,0 -2.472656,1.10156 -2.472656,2.67187 0,1.58203 1.113281,2.66016 2.308593,2.66016 0.878907,0 1.335938,-0.64453 1.570313,-1.25391 z m -1.523438,0.62109 c -0.75,0 -1.078125,-0.60937 -1.183593,-0.83203 -0.199219,-0.45703 -0.199219,-1.03125 -0.199219,-1.57031 0,-0.66797 0,-1.24219 0.316406,-1.73437 0.210938,-0.31641 0.539063,-0.66797 1.183594,-0.66797 0.679687,0 1.03125,0.59765 1.148437,0.8789 0.234375,0.58594 0.234375,1.59375 0.234375,1.78125 0,0.9961 -0.445312,2.14453 -1.5,2.14453 z m 0,0"
         style="fill:#000000;fill-opacity:1;fill-rule:nonzero;stroke:none" />
      <path
         id="path11"
         d="m 160.64841,201.45777 c 0,-0.10547 -0.082,-0.10547 -0.10547,-0.10547 -0.0234,0 -0.0703,0 -0.17578,0.11718 l -0.82032,1.00782 c -0.42187,-0.71485 -1.07812,-1.125 -1.96875,-1.125 -2.58984,0 -5.26171,2.61328 -5.26171,5.42578 0,1.99219 1.39453,3.23437 3.14062,3.23437 0.96094,0 1.79297,-0.39843 2.48438,-0.98437 1.04296,-0.87891 1.35937,-2.03906 1.35937,-2.13281 0,-0.10547 -0.0937,-0.10547 -0.14062,-0.10547 -0.10547,0 -0.11719,0.0703 -0.14063,0.11718 -0.55078,1.86329 -2.15625,2.76563 -3.35156,2.76563 -1.27735,0 -2.36719,-0.82031 -2.36719,-2.50781 0,-0.38672 0.11719,-2.46094 1.46484,-4.03125 0.65625,-0.76172 1.78125,-1.44141 2.91797,-1.44141 1.3125,0 1.89844,1.08984 1.89844,2.30859 0,0.31641 -0.0352,0.57422 -0.0352,0.6211 0,0.11719 0.11719,0.11719 0.15235,0.11719 0.14062,0 0.15234,-0.0117 0.19922,-0.23438 z m 2.17968,7.42968 c -0.10546,0.41016 -0.1289,0.52735 -0.96093,0.52735 -0.23438,0 -0.35157,0 -0.35157,0.22265 0,0.12891 0.0703,0.12891 0.30469,0.12891 h 3.79688 c 2.41406,0 4.76953,-2.49609 4.76953,-5.16797 0,-1.72266 -1.03125,-3 -2.74219,-3 h -3.83203 c -0.23438,0 -0.33984,0 -0.33984,0.23438 0,0.11718 0.10546,0.11718 0.29296,0.11718 0.72657,0 0.72657,0.0937 0.72657,0.22266 0,0.0234 0,0.0937 -0.0469,0.28125 z m 2.51954,-6.46875 c 0.11718,-0.44531 0.16406,-0.46875 0.62109,-0.46875 h 1.32422 c 1.11328,0 2.14453,0.60938 2.14453,2.26172 0,0.59766 -0.23438,2.67188 -1.39453,3.98438 -0.33985,0.39843 -1.24219,1.21875 -2.625,1.21875 h -1.35938 c -0.16406,0 -0.1875,0 -0.25781,-0.0117 -0.12891,-0.0117 -0.14062,-0.0352 -0.14062,-0.12891 0,-0.082 0.0234,-0.15234 0.0469,-0.25781 z m 13.95703,4.57032 c 0.0117,-0.0352 0.0469,-0.11719 0.0469,-0.16407 0,-0.0586 -0.0469,-0.11718 -0.11719,-0.11718 -0.0469,0 -0.0703,0.0117 -0.10546,0.0469 -0.0234,0.0117 -0.0234,0.0352 -0.14063,0.26953 -0.70312,1.67578 -1.21875,2.39063 -3.12891,2.39063 h -1.74609 c -0.16406,0 -0.1875,0 -0.25781,-0.0117 -0.12891,-0.0117 -0.14063,-0.0352 -0.14063,-0.12891 0,-0.082 0.0234,-0.15234 0.0469,-0.25781 l 0.82031,-3.30469 h 1.18359 c 0.9375,0 1.00782,0.21094 1.00782,0.5625 0,0.11719 0,0.23438 -0.082,0.58594 -0.0352,0.0469 -0.0469,0.0937 -0.0469,0.12891 0,0.082 0.0703,0.1289 0.14063,0.1289 0.10546,0 0.11718,-0.0937 0.16406,-0.25781 l 0.67969,-2.77734 c 0,-0.0586 -0.0469,-0.11719 -0.11719,-0.11719 -0.10547,0 -0.11719,0.0469 -0.16406,0.22265 -0.2461,0.91407 -0.48047,1.1836 -1.54688,1.1836 h -1.13672 l 0.73828,-2.94141 c 0.11719,-0.42187 0.14063,-0.45703 0.6211,-0.45703 h 1.71093 c 1.47657,0 1.76954,0.39844 1.76954,1.30078 0,0.0117 0,0.35156 -0.0469,0.73828 -0.0117,0.0469 -0.0234,0.12891 -0.0234,0.15235 0,0.0937 0.0586,0.1289 0.12891,0.1289 0.082,0 0.14062,-0.0469 0.16406,-0.26953 l 0.2461,-2.08594 c 0,-0.0352 0.0234,-0.15234 0.0234,-0.17578 0,-0.14062 -0.10547,-0.14062 -0.3164,-0.14062 h -5.83594 c -0.23438,0 -0.35156,0 -0.35156,0.22265 0,0.12891 0.082,0.12891 0.29297,0.12891 0.73828,0 0.73828,0.082 0.73828,0.21094 0,0.0586 -0.0117,0.10547 -0.0469,0.24609 l -1.61719,6.45703 c -0.10546,0.41016 -0.1289,0.52735 -0.96093,0.52735 -0.23438,0 -0.35157,0 -0.35157,0.22265 0,0.12891 0.0703,0.12891 0.30469,0.12891 h 6 c 0.26953,0 0.28125,-0.0117 0.36328,-0.19922 z m 5.43457,-4.57032 c 0.11718,-0.44531 0.16406,-0.46875 0.62109,-0.46875 h 1.55859 c 1.34766,0 1.34766,1.14844 1.34766,1.25391 0,0.97266 -0.96094,2.20312 -2.54297,2.20312 h -1.72265 z m 2.02734,3.08203 c 1.30078,-0.24609 2.48438,-1.14843 2.48438,-2.25 0,-0.92578 -0.83204,-1.65234 -2.17969,-1.65234 h -3.83203 c -0.23438,0 -0.33985,0 -0.33985,0.23438 0,0.11718 0.10547,0.11718 0.29297,0.11718 0.72656,0 0.72656,0.0937 0.72656,0.22266 0,0.0234 0,0.0937 -0.0469,0.28125 l -1.61719,6.43359 c -0.10547,0.41016 -0.1289,0.52735 -0.96094,0.52735 -0.23437,0 -0.35156,0 -0.35156,0.22265 0,0.12891 0.0703,0.12891 0.30469,0.12891 h 4.10156 c 1.82813,0 3.2461,-1.38281 3.2461,-2.58984 0,-0.98438 -0.86719,-1.58204 -1.82813,-1.67579 z m -1.69922,3.91407 h -1.61719 c -0.16406,0 -0.1875,0 -0.25781,-0.0117 -0.1289,-0.0117 -0.15234,-0.0352 -0.15234,-0.12891 0,-0.082 0.0352,-0.15234 0.0586,-0.25781 l 0.83203,-3.375 h 2.25 c 1.40625,0 1.40625,1.3125 1.40625,1.40625 0,1.14844 -1.04297,2.36719 -2.51953,2.36719 z m 0,0"
         style="fill:#000000;fill-opacity:1;fill-rule:nonzero;stroke:none" />
      <path
         id="path12"
         d="m 135.26559,245.16577 c 0,-0.26953 0,-0.28125 -0.24609,-0.28125 -0.28125,0.31641 -0.87891,0.76172 -2.10937,0.76172 v 0.35156 c 0.26953,0 0.86718,0 1.52343,-0.3164 v 6.22265 c 0,0.4336 -0.0351,0.57422 -1.07812,0.57422 h -0.375 v 0.35157 c 0.3164,-0.0234 1.47656,-0.0234 1.875,-0.0234 0.39844,0 1.54687,0 1.86328,0.0234 v -0.35157 h -0.36328 c -1.05469,0 -1.08985,-0.14062 -1.08985,-0.57422 z m 6.72071,-0.11718 c 0,-0.22266 0,-0.29297 -0.16407,-0.29297 -0.0937,0 -0.1289,0 -0.22265,0.15234 l -3.59766,5.57813 v 0.35156 h 3.14063 v 1.07812 c 0,0.44532 -0.0234,0.5625 -0.90235,0.5625 h -0.23437 v 0.35157 c 0.26953,-0.0234 1.21875,-0.0234 1.55859,-0.0234 0.32813,0 1.28906,0 1.5586,0.0234 v -0.35157 h -0.23438 c -0.86719,0 -0.90234,-0.11718 -0.90234,-0.5625 v -1.07812 h 1.20703 v -0.35156 h -1.20703 z m -0.78516,0.9375 v 4.5 h -2.90625 z m 0,0"
         style="fill:#000000;fill-opacity:1;fill-rule:nonzero;stroke:none" />
      <path
         id="path13"
         d="m 64.554656,259.61206 c 0,-0.26953 0,-0.28125 -0.246093,-0.28125 -0.28125,0.31641 -0.878907,0.76172 -2.109375,0.76172 v 0.35156 c 0.269531,0 0.867187,0 1.523437,-0.3164 v 6.22265 c 0,0.4336 -0.03516,0.57422 -1.078125,0.57422 h -0.375 v 0.35157 c 0.316406,-0.0234 1.476563,-0.0234 1.875,-0.0234 0.398438,0 1.546875,0 1.863281,0.0234 v -0.35157 H 65.6445 c -1.054687,0 -1.089844,-0.14062 -1.089844,-0.57422 z m 5.970703,3.35157 c 0.597657,-0.32813 1.464844,-0.87891 1.464844,-1.875 0,-1.04297 -0.996094,-1.75782 -2.097656,-1.75782 -1.183594,0 -2.121094,0.86719 -2.121094,1.95703 0,0.41016 0.128906,0.8086 0.457031,1.21875 0.128907,0.15235 0.140625,0.16407 0.984375,0.75 -1.160156,0.53907 -1.757812,1.34766 -1.757812,2.21485 0,1.26562 1.207031,2.05078 2.425781,2.05078 1.324219,0 2.4375,-0.97266 2.4375,-2.22656 0,-1.21875 -0.855469,-1.75782 -1.792969,-2.33203 z m -1.628906,-1.07813 c -0.152344,-0.10547 -0.632812,-0.42187 -0.632812,-1.00781 0,-0.77344 0.820312,-1.26563 1.617187,-1.26563 0.855469,0 1.628906,0.6211 1.628906,1.48828 0,0.72657 -0.527343,1.3125 -1.21875,1.6875 z m 0.5625,1.54688 1.453125,0.9375 c 0.304688,0.19921 0.855469,0.57421 0.855469,1.30078 0,0.91406 -0.914063,1.53515 -1.875,1.53515 -1.019531,0 -1.886719,-0.73828 -1.886719,-1.73437 0,-0.9375 0.679688,-1.6875 1.453125,-2.03906 z m 0,0"
         style="fill:#000000;fill-opacity:1;fill-rule:nonzero;stroke:none" />
      <path
         id="path14"
         d="m 61.698211,306.03003 c 0.597656,-0.32812 1.464844,-0.8789 1.464844,-1.875 0,-1.04297 -0.996094,-1.75781 -2.097657,-1.75781 -1.183593,0 -2.121093,0.86719 -2.121093,1.95703 0,0.41016 0.128906,0.80859 0.457031,1.21875 0.128906,0.15234 0.140625,0.16406 0.984375,0.75 -1.160156,0.53906 -1.757813,1.34766 -1.757813,2.21484 0,1.26563 1.207032,2.05079 2.425782,2.05079 1.324218,0 2.4375,-0.97266 2.4375,-2.22657 0,-1.21875 -0.855469,-1.75781 -1.792969,-2.33203 z m -1.628906,-1.07812 c -0.152344,-0.10547 -0.632813,-0.42188 -0.632813,-1.00782 0,-0.77343 0.820313,-1.26562 1.617188,-1.26562 0.855468,0 1.628906,0.62109 1.628906,1.48828 0,0.72656 -0.527344,1.3125 -1.21875,1.6875 z m 0.5625,1.54687 1.453125,0.9375 c 0.304687,0.19922 0.855468,0.57422 0.855468,1.30078 0,0.91407 -0.914062,1.53516 -1.875,1.53516 -1.019531,0 -1.886718,-0.73828 -1.886718,-1.73438 0,-0.9375 0.679687,-1.6875 1.453125,-2.03906 z m 0,0"
         style="fill:#000000;fill-opacity:1;fill-rule:nonzero;stroke:none" />
      <path
         id="path15"
         d="m 333.50583,302.92456 v -0.28125 h -2.88281 c -1.45313,0 -1.47657,-0.15234 -1.52344,-0.38672 h -0.25781 l -0.375,2.39063 h 0.26953 c 0.0351,-0.21094 0.14062,-0.94922 0.29297,-1.07813 0.0937,-0.0703 0.99609,-0.0703 1.16015,-0.0703 h 2.53125 l -1.26562,1.81641 c -0.31641,0.45703 -1.52344,2.42578 -1.52344,4.66406 0,0.14063 0,0.60938 0.48047,0.60938 0.5039,0 0.5039,-0.45704 0.5039,-0.6211 v -0.59765 c 0,-1.78125 0.29297,-3.16407 0.85547,-3.96094 z m 0,0"
         style="fill:#000000;fill-opacity:1;fill-rule:nonzero;stroke:none" />
      <path
         id="path16"
         d="m -19.902375,320.62573 c 0,-3.02343 1.476563,-3.5039 2.121094,-3.5039 0.433594,0 0.855469,0.1289 1.089844,0.49219 -0.140625,0 -0.597657,0 -0.597657,0.49218 0,0.25782 0.175782,0.49219 0.492188,0.49219 0.292969,0 0.492187,-0.1875 0.492187,-0.52734 0,-0.6211 -0.445312,-1.23047 -1.488281,-1.23047 -1.511719,0 -3.082031,1.53515 -3.082031,4.17187 0,3.28125 1.429687,4.01953 2.449219,4.01953 1.300781,0 2.414062,-1.125 2.414062,-2.68359 0,-1.59375 -1.113281,-2.66016 -2.308594,-2.66016 -1.066406,0 -1.453125,0.92579 -1.582031,1.26563 z m 1.476563,4.08985 c -0.75,0 -1.113282,-0.66797 -1.21875,-0.92578 -0.105469,-0.30469 -0.222657,-0.89063 -0.222657,-1.73438 0,-0.9375 0.421875,-2.12109 1.5,-2.12109 0.65625,0 1.007813,0.44531 1.183594,0.84375 0.1875,0.44531 0.1875,1.04297 0.1875,1.55859 0,0.60938 0,1.14844 -0.222656,1.60547 -0.304688,0.57422 -0.726563,0.77344 -1.207031,0.77344 z m 0,0"
         style="fill:#000000;fill-opacity:1;fill-rule:nonzero;stroke:none" />
      <path
         id="path17"
         d="m -23.485383,366.52808 c -0.410156,0.70312 -0.820312,0.9375 -1.394531,0.97265 -0.128906,0.0117 -0.222656,0.0117 -0.222656,0.23438 0,0.0703 0.05859,0.11719 0.140625,0.11719 0.210937,0 0.75,-0.0234 0.972656,-0.0234 0.339844,0 0.726562,0.0234 1.054687,0.0234 0.07031,0 0.222657,0 0.222657,-0.22266 0,-0.11719 -0.09375,-0.12891 -0.175782,-0.12891 -0.269531,-0.0234 -0.492187,-0.11718 -0.492187,-0.39843 0,-0.17578 0.07031,-0.30469 0.222656,-0.5625 l 0.902344,-1.51172 h 3.058594 c 0.01172,0.10547 0.01172,0.21094 0.02344,0.3164 0.03516,0.30469 0.175781,1.54688 0.175781,1.78125 0,0.35157 -0.609375,0.375 -0.796875,0.375 -0.140625,0 -0.269531,0 -0.269531,0.22266 0,0.12891 0.105469,0.12891 0.175781,0.12891 0.210938,0 0.445313,-0.0234 0.65625,-0.0234 h 0.679688 c 0.726562,0 1.253906,0.0234 1.265625,0.0234 0.08203,0 0.210937,0 0.210937,-0.22266 0,-0.12891 -0.105468,-0.12891 -0.28125,-0.12891 -0.65625,0 -0.667968,-0.10546 -0.714843,-0.45703 l -0.726563,-7.46484 c -0.02344,-0.23438 -0.07031,-0.25781 -0.199219,-0.25781 -0.117187,0 -0.1875,0.0234 -0.304687,0.19922 z m 1.441406,-1.83985 2.402344,-4.01953 0.410156,4.01953 z m 9.676758,-4.18359 c 0.117188,-0.44531 0.164063,-0.46875 0.621094,-0.46875 h 1.558594 c 1.347656,0 1.347656,1.14844 1.347656,1.25391 0,0.97265 -0.9609375,2.20312 -2.542969,2.20312 H -13.1055 Z m 2.027344,3.08203 c 1.3007813,-0.24609 2.484375,-1.14844 2.484375,-2.25 0,-0.92578 -0.8320312,-1.65234 -2.179687,-1.65234 h -3.832032 c -0.234375,0 -0.339843,0 -0.339843,0.23437 0,0.11719 0.105468,0.11719 0.292968,0.11719 0.726563,0 0.726563,0.0937 0.726563,0.22266 0,0.0234 0,0.0937 -0.04687,0.28125 l -1.617188,6.43359 c -0.105468,0.41016 -0.128906,0.52734 -0.960937,0.52734 -0.234375,0 -0.351563,0 -0.351563,0.22266 0,0.12891 0.07031,0.12891 0.304688,0.12891 h 4.101562 c 1.8281253,0 3.246094,-1.38282 3.246094,-2.58985 0,-0.98437 -0.8671875,-1.58203 -1.828125,-1.67578 z m -1.699219,3.91406 h -1.617187 c -0.164063,0 -0.1875,0 -0.257813,-0.0117 -0.128906,-0.0117 -0.152343,-0.0352 -0.152343,-0.12891 0,-0.082 0.03516,-0.15234 0.05859,-0.25781 l 0.832032,-3.375 h 2.25 c 1.4062495,0 1.4062495,1.3125 1.4062495,1.40625 0,1.14843 -1.0429685,2.36718 -2.5195315,2.36718 z M 1.6835625,359.5437 c 0,-0.10547 -0.082031,-0.10547 -0.1054687,-0.10547 -0.023437,0 -0.070312,0 -0.1757813,0.11719 L 0.582,360.56323 c -0.421875,-0.71484 -1.078125,-1.125 -1.96875,-1.125 -2.5898437,0 -5.2617187,2.61329 -5.2617187,5.42579 0,1.99218 1.3945312,3.23437 3.140625,3.23437 0.9609375,0 1.7929687,-0.39844 2.484375,-0.98437 1.0429687,-0.87891 1.35937495,-2.03907 1.35937495,-2.13282 0,-0.10547 -0.09375,-0.10547 -0.140625,-0.10547 -0.10546875,0 -0.1171875,0.0703 -0.140625,0.11719 -0.55078125,1.86328 -2.15624995,2.76563 -3.35156245,2.76563 -1.2773438,0 -2.3671875,-0.82032 -2.3671875,-2.50782 0,-0.38671 0.1171875,-2.46093 1.4648437,-4.03125 0.65625,-0.76171 1.78125,-1.4414 2.9179688,-1.4414 1.31249995,0 1.89843745,1.08984 1.89843745,2.30859 0,0.31641 -0.0351563,0.57422 -0.0351563,0.6211 0,0.11718 0.1171875,0.11718 0.15234375,0.11718 0.140625,0 0.15234375,-0.0117 0.19921875,-0.23437 z m 2.1826172,7.42969 c -0.1054688,0.41016 -0.1289063,0.52734 -0.9609375,0.52734 -0.234375,0 -0.3515625,0 -0.3515625,0.22266 0,0.12891 0.070312,0.12891 0.3046875,0.12891 h 3.796875 c 2.4140625,0 4.7695308,-2.4961 4.7695308,-5.16797 0,-1.72266 -1.03125,-3 -2.7421871,-3 H 4.8505547 c -0.234375,0 -0.3398438,0 -0.3398438,0.23437 0,0.11719 0.1054688,0.11719 0.2929688,0.11719 0.7265625,0 0.7265625,0.0937 0.7265625,0.22266 0,0.0234 0,0.0937 -0.046875,0.28125 z m 2.5195312,-6.46875 c 0.1171875,-0.44531 0.1640625,-0.46875 0.6210938,-0.46875 h 1.3242187 c 1.1132813,0 2.1445316,0.60938 2.1445316,2.26172 0,0.59766 -0.234375,2.67187 -1.3945316,3.98437 -0.3398437,0.39844 -1.2421875,1.21875 -2.625,1.21875 h -1.359375 c -0.1640625,0 -0.1875,0 -0.2578125,-0.0117 -0.1289062,-0.0117 -0.140625,-0.0352 -0.140625,-0.12891 0,-0.082 0.023437,-0.15234 0.046875,-0.25781 z m 0,0"
         style="fill:#000000;fill-opacity:1;fill-rule:nonzero;stroke:none" />
      <path
         id="path18"
         d="m 191.65329,366.52808 c -0.41016,0.70312 -0.82031,0.9375 -1.39453,0.97265 -0.12891,0.0117 -0.22266,0.0117 -0.22266,0.23438 0,0.0703 0.0586,0.11719 0.14063,0.11719 0.21093,0 0.75,-0.0234 0.97265,-0.0234 0.33985,0 0.72657,0.0234 1.05469,0.0234 0.0703,0 0.22266,0 0.22266,-0.22266 0,-0.11719 -0.0937,-0.12891 -0.17578,-0.12891 -0.26954,-0.0234 -0.49219,-0.11718 -0.49219,-0.39843 0,-0.17578 0.0703,-0.30469 0.22265,-0.5625 l 0.90235,-1.51172 h 3.05859 c 0.0117,0.10547 0.0117,0.21094 0.0234,0.3164 0.0352,0.30469 0.17578,1.54688 0.17578,1.78125 0,0.35157 -0.60937,0.375 -0.79687,0.375 -0.14063,0 -0.26954,0 -0.26954,0.22266 0,0.12891 0.10547,0.12891 0.17579,0.12891 0.21093,0 0.44531,-0.0234 0.65625,-0.0234 h 0.67968 c 0.72657,0 1.25391,0.0234 1.26563,0.0234 0.082,0 0.21094,0 0.21094,-0.22266 0,-0.12891 -0.10547,-0.12891 -0.28125,-0.12891 -0.65625,0 -0.66797,-0.10546 -0.71485,-0.45703 l -0.72656,-7.46484 c -0.0234,-0.23438 -0.0703,-0.25781 -0.19922,-0.25781 -0.11719,0 -0.1875,0.0234 -0.30469,0.19922 z m 1.44141,-1.83985 2.40234,-4.01953 0.41016,4.01953 z m 13.61425,0.38672 c 0.0117,-0.0351 0.0469,-0.11718 0.0469,-0.16406 0,-0.0586 -0.0469,-0.11719 -0.11719,-0.11719 -0.0469,0 -0.0703,0.0117 -0.10547,0.0469 -0.0234,0.0117 -0.0234,0.0351 -0.14062,0.26953 -0.70313,1.67578 -1.21875,2.39062 -3.12891,2.39062 h -1.74609 c -0.16407,0 -0.1875,0 -0.25782,-0.0117 -0.1289,-0.0117 -0.14062,-0.0352 -0.14062,-0.12891 0,-0.082 0.0234,-0.15234 0.0469,-0.25781 l 0.82032,-3.30469 h 1.18359 c 0.9375,0 1.00781,0.21094 1.00781,0.5625 0,0.11719 0,0.23437 -0.082,0.58594 -0.0352,0.0469 -0.0469,0.0937 -0.0469,0.1289 0,0.082 0.0703,0.12891 0.14062,0.12891 0.10547,0 0.11719,-0.0937 0.16406,-0.25781 l 0.67969,-2.77735 c 0,-0.0586 -0.0469,-0.11718 -0.11719,-0.11718 -0.10546,0 -0.11718,0.0469 -0.16406,0.22265 -0.24609,0.91406 -0.48047,1.1836 -1.54687,1.1836 h -1.13672 l 0.73828,-2.94141 c 0.11719,-0.42188 0.14062,-0.45703 0.62109,-0.45703 h 1.71094 c 1.47656,0 1.76953,0.39844 1.76953,1.30078 0,0.0117 0,0.35156 -0.0469,0.73828 -0.0117,0.0469 -0.0234,0.12891 -0.0234,0.15234 0,0.0937 0.0586,0.12891 0.12891,0.12891 0.082,0 0.14062,-0.0469 0.16406,-0.26953 l 0.24609,-2.08594 c 0,-0.0352 0.0234,-0.15234 0.0234,-0.17578 0,-0.14062 -0.10547,-0.14062 -0.31641,-0.14062 h -5.83593 c -0.23438,0 -0.35157,0 -0.35157,0.22265 0,0.12891 0.082,0.12891 0.29297,0.12891 0.73828,0 0.73828,0.082 0.73828,0.21094 0,0.0586 -0.0117,0.10546 -0.0469,0.24609 l -1.61719,6.45703 c -0.10547,0.41016 -0.12891,0.52734 -0.96094,0.52734 -0.23437,0 -0.35156,0 -0.35156,0.22266 0,0.12891 0.0703,0.12891 0.30469,0.12891 h 6 c 0.26953,0 0.28125,-0.0117 0.36328,-0.19922 z m 5.43457,-4.57031 c 0.11719,-0.44531 0.16407,-0.46875 0.6211,-0.46875 h 1.55859 c 1.34766,0 1.34766,1.14844 1.34766,1.25391 0,0.97265 -0.96094,2.20312 -2.54297,2.20312 h -1.72266 z m 2.02735,3.08203 c 1.30078,-0.24609 2.48437,-1.14844 2.48437,-2.25 0,-0.92578 -0.83203,-1.65234 -2.17969,-1.65234 h -3.83203 c -0.23437,0 -0.33984,0 -0.33984,0.23437 0,0.11719 0.10547,0.11719 0.29297,0.11719 0.72656,0 0.72656,0.0937 0.72656,0.22266 0,0.0234 0,0.0937 -0.0469,0.28125 l -1.61719,6.43359 c -0.10547,0.41016 -0.12891,0.52734 -0.96094,0.52734 -0.23437,0 -0.35156,0 -0.35156,0.22266 0,0.12891 0.0703,0.12891 0.30469,0.12891 h 4.10156 c 1.82812,0 3.24609,-1.38282 3.24609,-2.58985 0,-0.98437 -0.86719,-1.58203 -1.82812,-1.67578 z m -1.69922,3.91406 h -1.61719 c -0.16406,0 -0.1875,0 -0.25781,-0.0117 -0.12891,-0.0117 -0.15235,-0.0352 -0.15235,-0.12891 0,-0.082 0.0352,-0.15234 0.0586,-0.25781 l 0.83203,-3.375 h 2.25 c 1.40625,0 1.40625,1.3125 1.40625,1.40625 0,1.14843 -1.04297,2.36718 -2.51953,2.36718 z m 0,0"
         style="fill:#000000;fill-opacity:1;fill-rule:nonzero;stroke:none" />
      <path
         id="path19"
         d="m -140.51761,376.22827 c 0.14063,-0.0703 0.24609,-0.1289 0.24609,-0.28125 0,-0.14062 -0.10546,-0.23437 -0.23437,-0.23437 -0.0352,0 -0.0586,0 -0.21094,0.082 l -6.59765,3.25781 c -0.12891,0.0586 -0.23438,0.11719 -0.23438,0.25781 0,0.14063 0.0937,0.1875 0.24609,0.25782 l 6.58594,3.25781 c 0.15235,0.082 0.17578,0.082 0.21094,0.082 0.12891,0 0.23437,-0.0937 0.23437,-0.23437 0,-0.15235 -0.082,-0.19922 -0.26953,-0.28125 l -1.38281,-0.69141 c 0.32813,-0.75 0.49219,-1.57031 0.49219,-2.39063 0,-0.82031 -0.16406,-1.64062 -0.49219,-2.39062 z m -6.25781,3.08203 4.41797,-2.17968 c 0.32812,0.78515 0.45703,1.5 0.45703,2.17968 0,0.73829 -0.15235,1.44141 -0.45703,2.17969 z m 0,0"
         style="fill:#000000;fill-opacity:1;fill-rule:nonzero;stroke:none" />
      <path
         id="path20"
         d="m -130.65335,373.98999 c 0,-0.10547 -0.082,-0.10547 -0.10547,-0.10547 -0.0234,0 -0.0703,0 -0.17578,0.11719 l -0.82031,1.00781 c -0.42188,-0.71484 -1.07813,-1.125 -1.96875,-1.125 -2.58985,0 -5.26172,2.61328 -5.26172,5.42578 0,1.99219 1.39453,3.23438 3.14062,3.23438 0.96094,0 1.79297,-0.39844 2.48438,-0.98438 1.04297,-0.8789 1.35937,-2.03906 1.35937,-2.13281 0,-0.10547 -0.0937,-0.10547 -0.14062,-0.10547 -0.10547,0 -0.11719,0.0703 -0.14063,0.11719 -0.55078,1.86328 -2.15625,2.76563 -3.35156,2.76563 -1.27734,0 -2.36719,-0.82032 -2.36719,-2.50782 0,-0.38672 0.11719,-2.46093 1.46485,-4.03125 0.65625,-0.76172 1.78125,-1.4414 2.91796,-1.4414 1.3125,0 1.89844,1.08984 1.89844,2.30859 0,0.31641 -0.0351,0.57422 -0.0351,0.62109 0,0.11719 0.11718,0.11719 0.15234,0.11719 0.14062,0 0.15234,-0.0117 0.19922,-0.23437 z m 8.61621,5.53125 c 0.0117,-0.0351 0.0469,-0.11719 0.0469,-0.16406 0,-0.0586 -0.0469,-0.11719 -0.11718,-0.11719 -0.0469,0 -0.0703,0.0117 -0.10547,0.0469 -0.0234,0.0117 -0.0234,0.0351 -0.14063,0.26953 -0.70312,1.67578 -1.21875,2.39062 -3.1289,2.39062 h -1.7461 c -0.16406,0 -0.1875,0 -0.25781,-0.0117 -0.12891,-0.0117 -0.14062,-0.0351 -0.14062,-0.1289 0,-0.082 0.0234,-0.15235 0.0469,-0.25781 l 0.82031,-3.30469 h 1.1836 c 0.9375,0 1.00781,0.21094 1.00781,0.5625 0,0.11719 0,0.23437 -0.082,0.58594 -0.0352,0.0469 -0.0469,0.0937 -0.0469,0.1289 0,0.082 0.0703,0.12891 0.14063,0.12891 0.10547,0 0.11719,-0.0937 0.16406,-0.25781 l 0.67969,-2.77735 c 0,-0.0586 -0.0469,-0.11719 -0.11719,-0.11719 -0.10547,0 -0.11719,0.0469 -0.16406,0.22266 -0.2461,0.91406 -0.48047,1.18359 -1.54688,1.18359 h -1.13672 l 0.73829,-2.9414 c 0.11718,-0.42188 0.14062,-0.45703 0.62109,-0.45703 h 1.71094 c 1.47656,0 1.76953,0.39843 1.76953,1.30078 0,0.0117 0,0.35156 -0.0469,0.73828 -0.0117,0.0469 -0.0234,0.12891 -0.0234,0.15234 0,0.0937 0.0586,0.12891 0.1289,0.12891 0.082,0 0.14063,-0.0469 0.16406,-0.26953 l 0.2461,-2.08594 c 0,-0.0352 0.0234,-0.15234 0.0234,-0.17578 0,-0.14063 -0.10547,-0.14063 -0.31641,-0.14063 h -5.83594 c -0.23437,0 -0.35156,0 -0.35156,0.22266 0,0.12891 0.082,0.12891 0.29297,0.12891 0.73828,0 0.73828,0.082 0.73828,0.21093 0,0.0586 -0.0117,0.10547 -0.0469,0.2461 l -1.61718,6.45703 c -0.10547,0.41016 -0.12891,0.52734 -0.96094,0.52734 -0.23438,0 -0.35156,0 -0.35156,0.22266 0,0.12891 0.0703,0.12891 0.30468,0.12891 h 6 c 0.26954,0 0.28125,-0.0117 0.36329,-0.19922 z m 3.08789,1.45313 c -0.41016,0.70312 -0.82031,0.9375 -1.39453,0.97265 -0.12891,0.0117 -0.22266,0.0117 -0.22266,0.23438 0,0.0703 0.0586,0.11719 0.14063,0.11719 0.21094,0 0.75,-0.0234 0.97265,-0.0234 0.33985,0 0.72657,0.0234 1.05469,0.0234 0.0703,0 0.22266,0 0.22266,-0.22266 0,-0.11719 -0.0937,-0.12891 -0.17578,-0.12891 -0.26953,-0.0234 -0.49219,-0.11718 -0.49219,-0.39843 0,-0.17579 0.0703,-0.30469 0.22266,-0.5625 l 0.90234,-1.51172 h 3.05859 c 0.0117,0.10547 0.0117,0.21093 0.0234,0.3164 0.0352,0.30469 0.17578,1.54688 0.17578,1.78125 0,0.35157 -0.60937,0.375 -0.79687,0.375 -0.14063,0 -0.26953,0 -0.26953,0.22266 0,0.12891 0.10546,0.12891 0.17578,0.12891 0.21093,0 0.44531,-0.0234 0.65625,-0.0234 h 0.67968 c 0.72657,0 1.25391,0.0234 1.26563,0.0234 0.082,0 0.21094,0 0.21094,-0.22266 0,-0.12891 -0.10547,-0.12891 -0.28125,-0.12891 -0.65625,0 -0.66797,-0.10547 -0.71485,-0.45703 l -0.72656,-7.46484 c -0.0234,-0.23438 -0.0703,-0.25781 -0.19922,-0.25781 -0.11719,0 -0.1875,0.0234 -0.30469,0.19921 z m 1.44141,-1.83985 2.40234,-4.01953 0.41016,4.01953 z m 0,0"
         style="fill:#000000;fill-opacity:1;fill-rule:nonzero;stroke:none" />
    </g>
  </g>
</svg>
