<?xml version="1.0" encoding="UTF-8" standalone="no"?>
<!-- Created with Inkscape (http://www.inkscape.org/) -->

<svg
   version="1.1"
   id="svg1"
   width="794.55066"
   height="1123.6533"
   viewBox="0 0 794.55066 1123.6533"
   sodipodi:docname="LigaMatematycznaMatuskiego_Gim_Zestaw3_2016_2017_page0.pdf"
   xmlns:inkscape="http://www.inkscape.org/namespaces/inkscape"
   xmlns:sodipodi="http://sodipodi.sourceforge.net/DTD/sodipodi-0.dtd"
   xmlns="http://www.w3.org/2000/svg"
   xmlns:svg="http://www.w3.org/2000/svg">
  <defs
     id="defs1" />
  <sodipodi:namedview
     id="namedview1"
     pagecolor="#ffffff"
     bordercolor="#000000"
     borderopacity="0.25"
     inkscape:showpageshadow="2"
     inkscape:pageopacity="0.0"
     inkscape:pagecheckerboard="0"
     inkscape:deskcolor="#d1d1d1">
    <inkscape:page
       x="0"
       y="0"
       inkscape:label="1"
       id="page1"
       width="794.55066"
       height="1123.6533"
       margin="0"
       bleed="0" />
  </sodipodi:namedview>
  <g
     id="g1"
     inkscape:groupmode="layer"
     inkscape:label="1">
    <g
       id="g2"
       aria-label="LIGAMATEMATYCZNA&#10;im.ZdzisªawaMatuskiego&#10;GRUDZIE2016&#10;GIMNAZJUM&#10;ZADANIE1.&#10;Obwódtrójk¡taprostok¡tnegojestrówny132,asumakwadratówdªugo±cibokówtrójk¡tajest&#10;równa6050.Wyznaczdªugo±cibokówtrójk¡ta.&#10;ZADANIE2.&#10;Wliczbie"
       transform="matrix(1.3333333,0,0,1.3333333,274.724,56.069333)">
      <path
         id="path2"
         d="m 70.109344,102.15015 c 0,-0.26953 0,-0.28125 -0.246094,-0.28125 -0.28125,0.3164 -0.878906,0.76172 -2.109375,0.76172 v 0.35156 c 0.269531,0 0.867188,0 1.523438,-0.31641 v 6.22266 c 0,0.43359 -0.03516,0.57422 -1.078125,0.57422 h -0.375 v 0.35156 c 0.316406,-0.0234 1.476562,-0.0234 1.875,-0.0234 0.398437,0 1.546875,0 1.863281,0.0234 v -0.35156 h -0.363281 c -1.054688,0 -1.089844,-0.14063 -1.089844,-0.57422 z m 4.611328,3.375 c -0.210938,0.0117 -0.257813,0.0234 -0.257813,0.1289 0,0.11719 0.05859,0.11719 0.28125,0.11719 h 0.550782 c 1.007812,0 1.464843,0.84375 1.464843,1.99219 0,1.55859 -0.808593,1.98047 -1.394531,1.98047 -0.574219,0 -1.558594,-0.28125 -1.898437,-1.06641 0.375,0.0586 0.726562,-0.15234 0.726562,-0.58594 0,-0.33984 -0.257812,-0.58593 -0.585937,-0.58593 -0.292969,0 -0.597657,0.16406 -0.597657,0.62109 0,1.06641 1.066407,1.93359 2.390625,1.93359 1.417969,0 2.472657,-1.07812 2.472657,-2.28515 0,-1.10156 -0.890625,-1.96875 -2.027344,-2.16797 1.03125,-0.30469 1.699219,-1.17188 1.699219,-2.10938 0,-0.9375 -0.972657,-1.6289 -2.132813,-1.6289 -1.195312,0 -2.085937,0.72656 -2.085937,1.59375 0,0.48047 0.375,0.57422 0.550781,0.57422 0.257812,0 0.539062,-0.17578 0.539062,-0.53907 0,-0.375 -0.28125,-0.53906 -0.550781,-0.53906 -0.07031,0 -0.09375,0 -0.128906,0.0117 0.457031,-0.82031 1.582031,-0.82031 1.640625,-0.82031 0.386719,0 1.171875,0.17578 1.171875,1.34765 0,0.23438 -0.03516,0.90235 -0.386719,1.41797 -0.351562,0.52735 -0.761719,0.5625 -1.089844,0.57422 z m 8.90918,2.28515 H 83.36032 c -0.03516,0.19922 -0.128906,0.85547 -0.246093,1.04297 -0.08203,0.11719 -0.761719,0.11719 -1.125,0.11719 h -2.214844 c 0.328125,-0.28125 1.054687,-1.04297 1.371094,-1.33594 1.816406,-1.66406 2.484375,-2.28515 2.484375,-3.46875 0,-1.38281 -1.089844,-2.29687 -2.472657,-2.29687 -1.394531,0 -2.203125,1.18359 -2.203125,2.20312 0,0.60938 0.527344,0.60938 0.5625,0.60938 0.246094,0 0.5625,-0.17578 0.5625,-0.5625 0,-0.32813 -0.234375,-0.55078 -0.5625,-0.55078 -0.105468,0 -0.128906,0 -0.164062,0.0117 0.222656,-0.82032 0.867187,-1.3711 1.640625,-1.3711 1.019531,0 1.640625,0.85547 1.640625,1.95703 0,1.00782 -0.585938,1.89844 -1.265625,2.66016 l -2.414063,2.70703 v 0.28125 h 4.359375 z m 0,0"
         style="fill:#000000;fill-opacity:1;fill-rule:nonzero;stroke:none" />
      <path
         id="path3"
         d="m -111.9678,120.10034 c 0,-3.02343 1.47656,-3.5039 2.12109,-3.5039 0.43359,0 0.85547,0.1289 1.08984,0.49219 -0.14062,0 -0.59765,0 -0.59765,0.49218 0,0.25782 0.17578,0.49219 0.49218,0.49219 0.29297,0 0.49219,-0.1875 0.49219,-0.52734 0,-0.6211 -0.44531,-1.23047 -1.48828,-1.23047 -1.51172,0 -3.08203,1.53515 -3.08203,4.17187 0,3.28125 1.42969,4.01953 2.44922,4.01953 1.30078,0 2.41406,-1.125 2.41406,-2.68359 0,-1.59375 -1.11328,-2.66016 -2.30859,-2.66016 -1.06641,0 -1.45313,0.92579 -1.58203,1.26563 z m 1.47656,4.08985 c -0.75,0 -1.11328,-0.66797 -1.21875,-0.92578 -0.10547,-0.30469 -0.22266,-0.89063 -0.22266,-1.73438 0,-0.9375 0.42188,-2.12109 1.5,-2.12109 0.65625,0 1.00781,0.44531 1.1836,0.84375 0.1875,0.44531 0.1875,1.04297 0.1875,1.55859 0,0.60938 0,1.14844 -0.22266,1.60547 -0.30469,0.57422 -0.72656,0.77344 -1.20703,0.77344 z m 8.26758,-3.75 c 0,-0.9961 -0.0586,-1.96875 -0.49219,-2.8711 -0.49219,-0.99609 -1.34766,-1.2539 -1.9336,-1.2539 -0.6914,0 -1.54687,0.33984 -1.98046,1.33594 -0.33985,0.75 -0.45704,1.48828 -0.45704,2.78906 0,1.16015 0.082,2.02734 0.51563,2.87109 0.45703,0.91406 1.28906,1.19531 1.91016,1.19531 1.04296,0 1.64062,-0.62109 1.98046,-1.3125 0.4336,-0.89062 0.45704,-2.0625 0.45704,-2.7539 z m -2.4375,3.83203 c -0.38672,0 -1.16016,-0.21094 -1.38282,-1.52344 -0.14062,-0.71484 -0.14062,-1.61719 -0.14062,-2.46094 0,-0.97265 0,-1.86328 0.19922,-2.5664 0.19922,-0.79688 0.80859,-1.17188 1.32422,-1.17188 0.45703,0 1.14843,0.28125 1.37109,1.30078 0.15234,0.67969 0.15234,1.62891 0.15234,2.4375 0,0.8086 0,1.71094 -0.1289,2.4375 -0.22266,1.32422 -0.97266,1.54688 -1.39453,1.54688 z m 4.4707,-6.85547 c 0.503905,0.16406 0.92578,0.17578 1.054687,0.17578 1.359375,0 2.214843,-0.99609 2.214843,-1.16015 0,-0.0469 -0.02344,-0.10547 -0.09375,-0.10547 -0.02344,0 -0.04687,0 -0.152343,0.0469 -0.667969,0.28125 -1.242188,0.31641 -1.558594,0.31641 -0.785156,0 -1.347653,-0.23438 -1.582033,-0.32813 -0.082,-0.0352 -0.10547,-0.0352 -0.11719,-0.0352 -0.0937,0 -0.0937,0.0703 -0.0937,0.25781 v 3.55078 c 0,0.21094 0,0.29297 0.14063,0.29297 0.0586,0 0.0703,-0.0117 0.19922,-0.16406 0.328123,-0.49219 0.890623,-0.77344 1.488279,-0.77344 0.632813,0 0.949219,0.58594 1.042969,0.78516 0.199219,0.46875 0.210937,1.05468 0.210937,1.51171 0,0.45704 0,1.13672 -0.328125,1.67579 -0.269531,0.42187 -0.738281,0.72656 -1.253906,0.72656 -0.796875,0 -1.570314,-0.53906 -1.781254,-1.40625 0.0586,0.0234 0.12891,0.0352 0.1875,0.0352 0.19922,0 0.52735,-0.1289 0.52735,-0.52734 0,-0.33984 -0.23438,-0.52734 -0.52735,-0.52734 -0.21093,0 -0.52734,0.10547 -0.52734,0.57422 0,1.00781 0.80859,2.16796 2.144532,2.16796 1.347656,0 2.53125,-1.125 2.53125,-2.64843 0,-1.41797 -0.960938,-2.60157 -2.214844,-2.60157 -0.679688,0 -1.207031,0.29297 -1.511718,0.63282 z m 9.673827,3.02344 c 0,-0.9961 -0.05859,-1.96875 -0.492187,-2.8711 -0.492188,-0.99609 -1.347657,-1.2539 -1.933594,-1.2539 -0.691406,0 -1.546875,0.33984 -1.980469,1.33594 -0.339844,0.75 -0.457031,1.48828 -0.457031,2.78906 0,1.16015 0.08203,2.02734 0.515625,2.87109 0.457031,0.91406 1.289062,1.19531 1.910156,1.19531 1.042969,0 1.640625,-0.62109 1.980469,-1.3125 0.433594,-0.89062 0.457031,-2.0625 0.457031,-2.7539 z m -2.4375,3.83203 c -0.386719,0 -1.160156,-0.21094 -1.382812,-1.52344 -0.140625,-0.71484 -0.140625,-1.61719 -0.140625,-2.46094 0,-0.97265 0,-1.86328 0.199218,-2.5664 0.199219,-0.79688 0.808594,-1.17188 1.324219,-1.17188 0.457031,0 1.148438,0.28125 1.371094,1.30078 0.152344,0.67969 0.152344,1.62891 0.152344,2.4375 0,0.8086 0,1.71094 -0.128907,2.4375 -0.222656,1.32422 -0.972656,1.54688 -1.394531,1.54688 z m 0,0"
         style="fill:#000000;fill-opacity:1;fill-rule:nonzero;stroke:none" />
    </g>
    <path
       id="path4"
       d="M 0,0 H 22.244"
       style="fill:none;stroke:#000000;stroke-width:0.478;stroke-linecap:butt;stroke-linejoin:miter;stroke-miterlimit:10;stroke-dasharray:none;stroke-opacity:1"
       transform="matrix(1.3333333,0,0,-1.3333333,146.016,265.868)" />
    <g
       id="g4"
       aria-label="aabbsumacyfraibjestrówna11.Wyka»,»etaliczbajestpodzielnaprzez121.&#10;ZADANIE3.&#10;Trapezpodzielonoprzek¡tnyminaczterytrójk¡ty.Poletrapezujestrówne20,astosunek&#10;dªugo±cijegopodstawjestrówny4.Obliczpoleka»degozotrzymanychtrójk¡tów.&#10;ZADANIE4.&#10;Dzielnaidzielniks¡liczbamidwucyfrowymi,ailoraziresztas¡równymiliczbamijednocyfro-&#10;wymi.Dzielnikjestiloczynemilorazuireszty.Wyznaczdzieln¡.&#10;ZADANIE5.&#10;Klasalicz¡ca25uczniówkupiªanaloteriilosyznumeramiod1do25.Ka»dyucze«wyloso-&#10;waªjedenlos,anast¦pniedodaªnumerlosudoswojegonumeruwdzienniku.Uzasadnij,»e&#10;przynajmniejjedenucze«otrzymaªwwynikutegododawanialiczb¦parzyst¡."
       transform="matrix(1.3333333,0,0,1.3333333,146.016,279.16933)">
      <path
         id="path5"
         d="m 3.597375,-1.4189922 c -0.058594,0.1992188 -0.058594,0.2226563 -0.2226563,0.44531251 -0.2695312,0.33984375 -0.796875,0.85546875 -1.359375,0.85546875 -0.4804687,0 -0.7617187,-0.4453125 -0.7617187,-1.14843746 0,-0.65625 0.375,-1.9921875 0.5976562,-2.4960938 0.4101563,-0.84375 0.9726563,-1.265625 1.4414063,-1.265625 0.7851562,0 0.9375,0.9726563 0.9375,1.0664063 0,0.011719 -0.035156,0.1757812 -0.046875,0.1992187 z M 4.3590937,-4.4893047 C 4.2301875,-4.7939922 3.9137812,-5.2744609 3.2926875,-5.2744609 c -1.359375,0 -2.8125,1.7460937 -2.8125,3.515625 0,1.18359371 0.6914062,1.87499996 1.5,1.87499996 0.65625,0 1.21875,-0.515625 1.5585937,-0.90234375 0.1171875,0.703125 0.6796875,0.90234375 1.0429688,0.90234375 0.3515625,0 0.6445312,-0.2109375 0.8554687,-0.64453125 C 5.6247187,-0.93852344 5.8005,-1.6650859 5.8005,-1.7119609 c 0,-0.058594 -0.046875,-0.1054688 -0.1171875,-0.1054688 -0.1171875,0 -0.1289063,0.058594 -0.1757813,0.234375 -0.1757812,0.71484376 -0.3984375,1.46484376 -0.890625,1.46484376 -0.3515625,0 -0.375,-0.31640625 -0.375,-0.55078125 0,-0.28125 0.035156,-0.41015621 0.140625,-0.87890621 0.082031,-0.2929688 0.1523438,-0.5625 0.2460938,-0.9023438 0.4335937,-1.7929687 0.5507812,-2.2265625 0.5507812,-2.296875 0,-0.1640625 -0.140625,-0.2929687 -0.3164062,-0.2929687 -0.375,0 -0.4804688,0.4101562 -0.5039063,0.5507812 z m 5.3847657,3.0703125 c -0.058594,0.1992188 -0.058594,0.2226563 -0.2226563,0.44531251 -0.2695312,0.33984375 -0.796875,0.85546875 -1.359375,0.85546875 -0.4804687,0 -0.7617187,-0.4453125 -0.7617187,-1.14843746 0,-0.65625 0.375,-1.9921875 0.5976562,-2.4960938 0.4101563,-0.84375 0.9726563,-1.265625 1.4414063,-1.265625 0.7851561,0 0.9375001,0.9726563 0.9375001,1.0664063 0,0.011719 -0.03516,0.1757812 -0.04687,0.1992187 z m 0.7617186,-3.0703125 c -0.128906,-0.3046875 -0.445312,-0.7851562 -1.0664061,-0.7851562 -1.359375,0 -2.8125,1.7460937 -2.8125,3.515625 0,1.18359371 0.6914062,1.87499996 1.5,1.87499996 0.65625,0 1.21875,-0.515625 1.5585937,-0.90234375 0.1171875,0.703125 0.6796874,0.90234375 1.0429684,0.90234375 0.351563,0 0.644532,-0.2109375 0.855469,-0.64453125 0.1875,-0.41015625 0.363281,-1.13671871 0.363281,-1.18359371 0,-0.058594 -0.04687,-0.1054688 -0.117187,-0.1054688 -0.117188,0 -0.128906,0.058594 -0.175781,0.234375 -0.175782,0.71484376 -0.398438,1.46484376 -0.890625,1.46484376 -0.351563,0 -0.375,-0.31640625 -0.375,-0.55078125 0,-0.28125 0.03516,-0.41015621 0.140625,-0.87890621 0.08203,-0.2929688 0.152343,-0.5625 0.246093,-0.9023438 0.433594,-1.7929687 0.550782,-2.2265625 0.550782,-2.296875 0,-0.1640625 -0.140625,-0.2929687 -0.316407,-0.2929687 -0.375,0 -0.480468,0.4101562 -0.503906,0.5507812 z m 4.549805,-3.5039062 c 0.01172,-0.046875 0.03516,-0.1289063 0.03516,-0.1875 0,-0.1171875 -0.128906,-0.1171875 -0.152344,-0.1171875 -0.01172,0 -0.433593,0.035156 -0.65625,0.058594 -0.199218,0.011719 -0.375,0.035156 -0.597656,0.046875 -0.28125,0.023437 -0.363281,0.035156 -0.363281,0.2578125 0,0.1171875 0.117187,0.1171875 0.234375,0.1171875 0.609375,0 0.609375,0.1054688 0.609375,0.2226563 0,0.082031 -0.09375,0.4335937 -0.140625,0.6445312 l -0.292969,1.1484375 c -0.117187,0.4804688 -0.796875,3.1992188 -0.84375,3.4101563 -0.05859,0.2929687 -0.05859,0.5039062 -0.05859,0.65625 0,1.21874996 0.679688,1.85156246 1.453125,1.85156246 1.394532,0 2.824219,-1.78124996 2.824219,-3.51562496 0,-1.1015625 -0.621094,-1.875 -1.511719,-1.875 -0.632812,0 -1.183593,0.515625 -1.417968,0.75 z m -0.761719,7.87499996 c -0.375,0 -0.796875,-0.29296875 -0.796875,-1.21874996 0,-0.3984375 0.03516,-0.6210938 0.246094,-1.4648438 0.04687,-0.1523437 0.234375,-0.9140625 0.28125,-1.0664062 0.02344,-0.1054688 0.726562,-1.1601563 1.535156,-1.1601563 0.527344,0 0.773438,0.515625 0.773438,1.1367188 0,0.5742187 -0.339844,1.9335937 -0.632813,2.5546875 -0.304687,0.64453121 -0.855469,1.21874996 -1.40625,1.21874996 z m 5.739258,-7.87499996 c 0.01172,-0.046875 0.03516,-0.1289063 0.03516,-0.1875 0,-0.1171875 -0.128906,-0.1171875 -0.152344,-0.1171875 -0.01172,0 -0.433593,0.035156 -0.65625,0.058594 -0.199218,0.011719 -0.375,0.035156 -0.597656,0.046875 -0.28125,0.023437 -0.363281,0.035156 -0.363281,0.2578125 0,0.1171875 0.117187,0.1171875 0.234375,0.1171875 0.609375,0 0.609375,0.1054688 0.609375,0.2226563 0,0.082031 -0.09375,0.4335937 -0.140625,0.6445312 l -0.292969,1.1484375 c -0.117187,0.4804688 -0.796875,3.1992188 -0.84375,3.4101563 -0.05859,0.2929687 -0.05859,0.5039062 -0.05859,0.65625 0,1.21874996 0.679688,1.85156246 1.453125,1.85156246 1.394532,0 2.824219,-1.78124996 2.824219,-3.51562496 0,-1.1015625 -0.621094,-1.875 -1.511719,-1.875 -0.632812,0 -1.183593,0.515625 -1.417968,0.75 z m -0.761719,7.87499996 c -0.375,0 -0.796875,-0.29296875 -0.796875,-1.21874996 0,-0.3984375 0.03516,-0.6210938 0.246094,-1.4648438 0.04687,-0.1523437 0.234375,-0.9140625 0.28125,-1.0664062 0.02344,-0.1054688 0.726562,-1.1601563 1.535156,-1.1601563 0.527344,0 0.773438,0.515625 0.773438,1.1367188 0,0.5742187 -0.339844,1.9335937 -0.632813,2.5546875 -0.304687,0.64453121 -0.855469,1.21874996 -1.40625,1.21874996 z m 0,0"
         style="fill:#000000;fill-opacity:1;fill-rule:nonzero;stroke:none" />
      <path
         id="path6"
         d="m 83.771203,-1.4189922 c -0.05859,0.1992188 -0.05859,0.2226563 -0.222656,0.44531251 -0.269531,0.33984375 -0.796875,0.85546875 -1.359375,0.85546875 -0.480469,0 -0.761719,-0.4453125 -0.761719,-1.14843746 0,-0.65625 0.375,-1.9921875 0.597656,-2.4960938 0.410157,-0.84375 0.972657,-1.265625 1.441407,-1.265625 0.785156,0 0.9375,0.9726563 0.9375,1.0664063 0,0.011719 -0.03516,0.1757812 -0.04687,0.1992187 z m 0.761719,-3.0703125 c -0.128906,-0.3046875 -0.445313,-0.7851562 -1.066406,-0.7851562 -1.359375,0 -2.8125,1.7460937 -2.8125,3.515625 0,1.18359371 0.691406,1.87499996 1.5,1.87499996 0.65625,0 1.21875,-0.515625 1.558593,-0.90234375 0.117188,0.703125 0.679688,0.90234375 1.042969,0.90234375 0.351563,0 0.644531,-0.2109375 0.855469,-0.64453125 0.1875,-0.41015625 0.363281,-1.13671871 0.363281,-1.18359371 0,-0.058594 -0.04687,-0.1054688 -0.117187,-0.1054688 -0.117188,0 -0.128907,0.058594 -0.175782,0.234375 -0.175781,0.71484376 -0.398437,1.46484376 -0.890625,1.46484376 -0.351562,0 -0.375,-0.31640625 -0.375,-0.55078125 0,-0.28125 0.03516,-0.41015621 0.140625,-0.87890621 0.08203,-0.2929688 0.152344,-0.5625 0.246094,-0.9023438 0.433594,-1.7929687 0.550781,-2.2265625 0.550781,-2.296875 0,-0.1640625 -0.140625,-0.2929687 -0.316406,-0.2929687 -0.375,0 -0.480469,0.4101562 -0.503906,0.5507812 z m 0,0"
         style="fill:#000000;fill-opacity:1;fill-rule:nonzero;stroke:none" />
      <path
         id="path7"
         d="m 100.13937,-7.9932109 c 0.0117,-0.046875 0.0352,-0.1289063 0.0352,-0.1875 0,-0.1171875 -0.1289,-0.1171875 -0.15234,-0.1171875 -0.0117,0 -0.433594,0.035156 -0.65625,0.058594 -0.199219,0.011719 -0.375,0.035156 -0.597657,0.046875 -0.28125,0.023437 -0.363281,0.035156 -0.363281,0.2578125 0,0.1171875 0.117188,0.1171875 0.234375,0.1171875 0.609375,0 0.609375,0.1054688 0.609375,0.2226563 0,0.082031 -0.09375,0.4335937 -0.140625,0.6445312 l -0.292969,1.1484375 c -0.117187,0.4804688 -0.796875,3.1992188 -0.84375,3.4101563 -0.05859,0.2929687 -0.05859,0.5039062 -0.05859,0.65625 0,1.21874996 0.679687,1.85156246 1.453125,1.85156246 1.394527,0 2.824217,-1.78124996 2.824217,-3.51562496 0,-1.1015625 -0.6211,-1.875 -1.51172,-1.875 -0.63281,0 -1.183591,0.515625 -1.417966,0.75 z m -0.761722,7.87499996 c -0.375,0 -0.796875,-0.29296875 -0.796875,-1.21874996 0,-0.3984375 0.03516,-0.6210938 0.246094,-1.4648438 0.04687,-0.1523437 0.234375,-0.9140625 0.28125,-1.0664062 0.02344,-0.1054688 0.726563,-1.1601563 1.535153,-1.1601563 0.52735,0 0.77344,0.515625 0.77344,1.1367188 0,0.5742187 -0.33984,1.9335937 -0.63281,2.5546875 -0.30469,0.64453121 -0.85547,1.21874996 -1.406252,1.21874996 z m 0,0"
         style="fill:#000000;fill-opacity:1;fill-rule:nonzero;stroke:none" />
      <path
         id="path8"
         d="m 166.32687,-7.6650859 c 0,-0.2695313 0,-0.28125 -0.2461,-0.28125 -0.28125,0.3164062 -0.8789,0.7617187 -2.10937,0.7617187 v 0.3515625 c 0.26953,0 0.86719,0 1.52344,-0.3164062 v 6.22265621 c 0,0.43359375 -0.0352,0.57421875 -1.07813,0.57421875 h -0.375 v 0.3515625 c 0.31641,-0.0234375 1.47656,-0.0234375 1.875,-0.0234375 0.39844,0 1.54688,0 1.86328,0.0234375 v -0.3515625 h -0.36328 c -1.05469,0 -1.08984,-0.140625 -1.08984,-0.57421875 z m 5.85351,0 c 0,-0.2695313 0,-0.28125 -0.24609,-0.28125 -0.28125,0.3164062 -0.87891,0.7617187 -2.10938,0.7617187 v 0.3515625 c 0.26954,0 0.86719,0 1.52344,-0.3164062 v 6.22265621 c 0,0.43359375 -0.0352,0.57421875 -1.07812,0.57421875 h -0.375 v 0.3515625 c 0.3164,-0.0234375 1.47656,-0.0234375 1.875,-0.0234375 0.39843,0 1.54687,0 1.86328,0.0234375 v -0.3515625 h -0.36328 c -1.05469,0 -1.08985,-0.140625 -1.08985,-0.57421875 z m 0,0"
         style="fill:#000000;fill-opacity:1;fill-rule:nonzero;stroke:none" />
      <path
         id="path9"
         d="m 394.27706,-7.6650859 c 0,-0.2695313 0,-0.28125 -0.24609,-0.28125 -0.28125,0.3164062 -0.87891,0.7617187 -2.10938,0.7617187 v 0.3515625 c 0.26953,0 0.86719,0 1.52344,-0.3164062 v 6.22265621 c 0,0.43359375 -0.0352,0.57421875 -1.07812,0.57421875 h -0.375 v 0.3515625 c 0.3164,-0.0234375 1.47656,-0.0234375 1.875,-0.0234375 0.39843,0 1.54687,0 1.86328,0.0234375 v -0.3515625 h -0.36328 c -1.05469,0 -1.08985,-0.140625 -1.08985,-0.57421875 z m 7.66992,5.6601562 h -0.26953 c -0.0352,0.1992188 -0.1289,0.8554688 -0.24609,1.04296876 -0.082,0.1171875 -0.76172,0.1171875 -1.125,0.1171875 h -2.21484 c 0.32812,-0.28124996 1.05468,-1.04296876 1.37109,-1.33593746 1.81641,-1.6640625 2.48437,-2.2851563 2.48437,-3.46875 0,-1.3828125 -1.08984,-2.296875 -2.47265,-2.296875 -1.39453,0 -2.20313,1.1835937 -2.20313,2.203125 0,0.609375 0.52735,0.609375 0.5625,0.609375 0.2461,0 0.5625,-0.1757813 0.5625,-0.5625 0,-0.328125 -0.23437,-0.5507813 -0.5625,-0.5507813 -0.10547,0 -0.1289,0 -0.16406,0.011719 0.22266,-0.8203125 0.86719,-1.3710938 1.64063,-1.3710938 1.01953,0 1.64062,0.8554688 1.64062,1.9570313 0,1.0078125 -0.58594,1.8984375 -1.26562,2.6601562 l -2.41407,2.70703126 v 0.28125 h 4.35938 z m 4.03711,-5.6601562 c 0,-0.2695313 0,-0.28125 -0.24609,-0.28125 -0.28125,0.3164062 -0.87891,0.7617187 -2.10938,0.7617187 v 0.3515625 c 0.26954,0 0.86719,0 1.52344,-0.3164062 v 6.22265621 c 0,0.43359375 -0.0351,0.57421875 -1.07812,0.57421875 h -0.375 v 0.3515625 c 0.3164,-0.0234375 1.47656,-0.0234375 1.875,-0.0234375 0.39843,0 1.54687,0 1.86328,0.0234375 v -0.3515625 h -0.36328 c -1.05469,0 -1.08985,-0.140625 -1.08985,-0.57421875 z m 0,0"
         style="fill:#000000;fill-opacity:1;fill-rule:nonzero;stroke:none" />
      <path
         id="path10"
         d="m 359.48995,41.061477 h -0.26953 c -0.0351,0.199218 -0.1289,0.855468 -0.24609,1.042968 -0.082,0.117188 -0.76172,0.117188 -1.125,0.117188 h -2.21485 c 0.32813,-0.28125 1.05469,-1.042969 1.3711,-1.335938 1.8164,-1.664062 2.48437,-2.285156 2.48437,-3.46875 0,-1.382812 -1.08984,-2.296875 -2.47265,-2.296875 -1.39453,0 -2.20313,1.183594 -2.20313,2.203125 0,0.609375 0.52735,0.609375 0.5625,0.609375 0.2461,0 0.5625,-0.175781 0.5625,-0.5625 0,-0.328125 -0.23437,-0.550781 -0.5625,-0.550781 -0.10547,0 -0.1289,0 -0.16406,0.01172 0.22266,-0.820313 0.86719,-1.371094 1.64062,-1.371094 1.01954,0 1.64063,0.855469 1.64063,1.957031 0,1.007813 -0.58594,1.898438 -1.26563,2.660157 l -2.41406,2.707031 v 0.28125 h 4.35938 z m 5.94727,-1.816407 c 0,-0.996093 -0.0586,-1.96875 -0.49219,-2.871093 -0.49219,-0.996094 -1.34766,-1.253907 -1.93359,-1.253907 -0.69141,0 -1.54688,0.339844 -1.98047,1.335938 -0.33985,0.75 -0.45703,1.488281 -0.45703,2.789062 0,1.160157 0.082,2.027344 0.51562,2.871094 0.45703,0.914063 1.28906,1.195313 1.91016,1.195313 1.04297,0 1.64062,-0.621094 1.98047,-1.3125 0.43359,-0.890625 0.45703,-2.0625 0.45703,-2.753907 z m -2.4375,3.832032 c -0.38672,0 -1.16016,-0.210938 -1.38281,-1.523438 -0.14063,-0.714844 -0.14063,-1.617187 -0.14063,-2.460937 0,-0.972657 0,-1.863282 0.19922,-2.566407 0.19922,-0.796875 0.80859,-1.171875 1.32422,-1.171875 0.45703,0 1.14844,0.28125 1.37109,1.300782 0.15235,0.679687 0.15235,1.628906 0.15235,2.4375 0,0.808593 0,1.710937 -0.12891,2.4375 -0.22266,1.324218 -0.97266,1.546875 -1.39453,1.546875 z m 0,0"
         style="fill:#000000;fill-opacity:1;fill-rule:nonzero;stroke:none" />
      <path
         id="path11"
         d="m 125.80343,49.730422 c 0,-0.222656 0,-0.292969 -0.16406,-0.292969 -0.0937,0 -0.12891,0 -0.22266,0.152344 l -3.59766,5.578125 v 0.351562 h 3.14063 v 1.078125 c 0,0.445313 -0.0234,0.5625 -0.90234,0.5625 h -0.23438 v 0.351563 c 0.26953,-0.02344 1.21875,-0.02344 1.55859,-0.02344 0.32813,0 1.28907,0 1.5586,0.02344 v -0.351563 h -0.23438 c -0.86718,0 -0.90234,-0.117187 -0.90234,-0.5625 v -1.078125 h 1.20703 v -0.351562 h -1.20703 z m -0.78516,0.9375 v 4.5 h -2.90625 z m 0,0"
         style="fill:#000000;fill-opacity:1;fill-rule:nonzero;stroke:none" />
      <path
         id="path12"
         d="m 24.673547,156.08101 h -0.269531 c -0.03516,0.19922 -0.128907,0.85547 -0.246094,1.04297 -0.08203,0.11718 -0.761719,0.11718 -1.125,0.11718 h -2.214844 c 0.328125,-0.28125 1.054688,-1.04296 1.371094,-1.33593 1.816406,-1.66407 2.484375,-2.28516 2.484375,-3.46875 0,-1.38282 -1.089844,-2.29688 -2.472656,-2.29688 -1.394532,0 -2.203125,1.1836 -2.203125,2.20313 0,0.60937 0.527343,0.60937 0.5625,0.60937 0.246093,0 0.5625,-0.17578 0.5625,-0.5625 0,-0.32812 -0.234375,-0.55078 -0.5625,-0.55078 -0.105469,0 -0.128907,0 -0.164063,0.0117 0.222656,-0.82031 0.867188,-1.37109 1.640625,-1.37109 1.019531,0 1.640625,0.85546 1.640625,1.95703 0,1.00781 -0.585937,1.89843 -1.265625,2.66015 l -2.414062,2.70703 v 0.28125 h 4.359375 z m 2.126953,-4.83985 c 0.503906,0.16407 0.925781,0.17579 1.054687,0.17579 1.359375,0 2.214844,-0.9961 2.214844,-1.16016 0,-0.0469 -0.02344,-0.10547 -0.09375,-0.10547 -0.02344,0 -0.04687,0 -0.152344,0.0469 -0.667968,0.28125 -1.242187,0.3164 -1.558593,0.3164 -0.785157,0 -1.347657,-0.23437 -1.582032,-0.32812 -0.08203,-0.0352 -0.105468,-0.0352 -0.117187,-0.0352 -0.09375,0 -0.09375,0.0703 -0.09375,0.25781 v 3.55078 c 0,0.21094 0,0.29297 0.140625,0.29297 0.05859,0 0.07031,-0.0117 0.199219,-0.16406 0.328125,-0.49219 0.890625,-0.77344 1.488281,-0.77344 0.632812,0 0.949219,0.58594 1.042969,0.78516 0.199218,0.46875 0.210937,1.05469 0.210937,1.51172 0,0.45703 0,1.13672 -0.328125,1.67578 -0.269531,0.42187 -0.738281,0.72656 -1.253906,0.72656 -0.796875,0 -1.570313,-0.53906 -1.78125,-1.40625 0.05859,0.0234 0.128906,0.0352 0.1875,0.0352 0.199219,0 0.527344,-0.12891 0.527344,-0.52735 0,-0.33984 -0.234375,-0.52734 -0.527344,-0.52734 -0.210938,0 -0.527344,0.10547 -0.527344,0.57422 0,1.00781 0.808594,2.16797 2.144531,2.16797 1.347657,0 2.53125,-1.125 2.53125,-2.64844 0,-1.41797 -0.960937,-2.60156 -2.214843,-2.60156 -0.679688,0 -1.207032,0.29297 -1.511719,0.63281 z m 0,0"
         style="fill:#000000;fill-opacity:1;fill-rule:nonzero;stroke:none" />
      <path
         id="path13"
         d="m 277.27999,150.42085 c 0,-0.26953 0,-0.28125 -0.24609,-0.28125 -0.28125,0.31641 -0.87891,0.76172 -2.10938,0.76172 v 0.35156 c 0.26953,0 0.86719,0 1.52344,-0.3164 v 6.22265 c 0,0.4336 -0.0352,0.57422 -1.07812,0.57422 h -0.375 v 0.35156 c 0.3164,-0.0234 1.47656,-0.0234 1.875,-0.0234 0.39843,0 1.54687,0 1.86328,0.0234 v -0.35156 h -0.36328 c -1.05469,0 -1.08985,-0.14062 -1.08985,-0.57422 z m 0,0"
         style="fill:#000000;fill-opacity:1;fill-rule:nonzero;stroke:none" />
      <path
         id="path14"
         d="m 305.92355,156.08101 h -0.26953 c -0.0352,0.19922 -0.12891,0.85547 -0.2461,1.04297 -0.082,0.11718 -0.76172,0.11718 -1.125,0.11718 h -2.21484 c 0.32812,-0.28125 1.05469,-1.04296 1.37109,-1.33593 1.81641,-1.66407 2.48438,-2.28516 2.48438,-3.46875 0,-1.38282 -1.08985,-2.29688 -2.47266,-2.29688 -1.39453,0 -2.20312,1.1836 -2.20312,2.20313 0,0.60937 0.52734,0.60937 0.5625,0.60937 0.24609,0 0.5625,-0.17578 0.5625,-0.5625 0,-0.32812 -0.23438,-0.55078 -0.5625,-0.55078 -0.10547,0 -0.12891,0 -0.16407,0.0117 0.22266,-0.82031 0.86719,-1.37109 1.64063,-1.37109 1.01953,0 1.64062,0.85546 1.64062,1.95703 0,1.00781 -0.58593,1.89843 -1.26562,2.66015 l -2.41406,2.70703 v 0.28125 h 4.35937 z m 2.12695,-4.83985 c 0.50391,0.16407 0.92578,0.17579 1.05469,0.17579 1.35937,0 2.21484,-0.9961 2.21484,-1.16016 0,-0.0469 -0.0234,-0.10547 -0.0937,-0.10547 -0.0234,0 -0.0469,0 -0.15234,0.0469 -0.66797,0.28125 -1.24219,0.3164 -1.5586,0.3164 -0.78515,0 -1.34765,-0.23437 -1.58203,-0.32812 -0.082,-0.0352 -0.10547,-0.0352 -0.11719,-0.0352 -0.0937,0 -0.0937,0.0703 -0.0937,0.25781 v 3.55078 c 0,0.21094 0,0.29297 0.14063,0.29297 0.0586,0 0.0703,-0.0117 0.19922,-0.16406 0.32812,-0.49219 0.89062,-0.77344 1.48828,-0.77344 0.63281,0 0.94922,0.58594 1.04297,0.78516 0.19922,0.46875 0.21094,1.05469 0.21094,1.51172 0,0.45703 0,1.13672 -0.32813,1.67578 -0.26953,0.42187 -0.73828,0.72656 -1.25391,0.72656 -0.79687,0 -1.57031,-0.53906 -1.78125,-1.40625 0.0586,0.0234 0.12891,0.0352 0.1875,0.0352 0.19922,0 0.52735,-0.12891 0.52735,-0.52735 0,-0.33984 -0.23438,-0.52734 -0.52735,-0.52734 -0.21093,0 -0.52734,0.10547 -0.52734,0.57422 0,1.00781 0.80859,2.16797 2.14453,2.16797 1.34766,0 2.53125,-1.125 2.53125,-2.64844 0,-1.41797 -0.96094,-2.60156 -2.21484,-2.60156 -0.67969,0 -1.20703,0.29297 -1.51172,0.63281 z m 0,0"
         style="fill:#000000;fill-opacity:1;fill-rule:nonzero;stroke:none" />
    </g>
  </g>
</svg>
