<?xml version="1.0" encoding="UTF-8" standalone="no"?>
<!-- Created with Inkscape (http://www.inkscape.org/) -->

<svg
   version="1.1"
   id="svg1"
   width="793.62665"
   height="1122.6667"
   viewBox="0 0 793.62665 1122.6667"
   sodipodi:docname="F2_M_PP_M2017_page25.pdf"
   xmlns:inkscape="http://www.inkscape.org/namespaces/inkscape"
   xmlns:sodipodi="http://sodipodi.sourceforge.net/DTD/sodipodi-0.dtd"
   xmlns="http://www.w3.org/2000/svg"
   xmlns:svg="http://www.w3.org/2000/svg">
  <defs
     id="defs1" />
  <sodipodi:namedview
     id="namedview1"
     pagecolor="#ffffff"
     bordercolor="#000000"
     borderopacity="0.25"
     inkscape:showpageshadow="2"
     inkscape:pageopacity="0.0"
     inkscape:pagecheckerboard="0"
     inkscape:deskcolor="#d1d1d1">
    <inkscape:page
       x="0"
       y="0"
       inkscape:label="1"
       id="page1"
       width="793.62665"
       height="1122.6667"
       margin="0"
       bleed="0" />
  </sodipodi:namedview>
  <g
     id="g1"
     inkscape:groupmode="layer"
     inkscape:label="1">
    <path
       id="path1"
       d="m 5.5078524,-8.1456203 v 2.7539062 H 5.2969149 C 5.2266024,-5.9219875 5.0976961,-6.3438625 4.9101961,-6.6573391 4.7285555,-6.9678859 4.470743,-7.2139797 4.1367586,-7.3956203 c -0.336914,-0.1875 -0.6855468,-0.28125 -1.0429687,-0.28125 -0.4072266,0 -0.7441406,0.1259766 -1.0078125,0.375 -0.2666016,0.2519531 -0.3984375,0.5332031 -0.3984375,0.84375 0,0.2431641 0.082031,0.4658203 0.2460937,0.6679687 0.2402344,0.2988282 0.8203125,0.6884766 1.734375,1.171875 0.741211,0.3984375 1.2480469,0.7089844 1.5234375,0.9257813 0.272461,0.2109375 0.4833985,0.4628906 0.6328125,0.75 0.1464844,0.2900391 0.2226563,0.5947266 0.2226563,0.9140625 0,0.6035156 -0.234375,1.1220703 -0.703125,1.55859374 -0.46875,0.43945313 -1.0722656,0.65625 -1.8046875,0.65625 -0.234375,0 -0.4541016,-0.0205078 -0.65625,-0.0585938 -0.1259766,-0.0175781 -0.3808594,-0.08789062 -0.7617188,-0.2109375 -0.375,-0.12304687 -0.6152343,-0.1875 -0.7148437,-0.1875 -0.1025391,0 -0.1816406,0.0322266 -0.234375,0.09375 -0.055664,0.0556641 -0.099609,0.17578125 -0.1289063,0.36328125 H 0.83207113 V -2.5440578 H 1.0430086 c 0.099609,0.5712891 0.2373047,0.9960937 0.4101563,1.2773437 0.1699219,0.28125004 0.4335937,0.51562504 0.7851562,0.70312504 0.3574219,0.1875 0.75,0.28125 1.171875,0.28125 0.4921875,0 0.8789063,-0.12890625 1.1601563,-0.38671875 0.28125,-0.2578125 0.421875,-0.56249999 0.421875,-0.91406249 0,-0.1933594 -0.055664,-0.3896484 -0.1640625,-0.5859375 -0.1025391,-0.2021484 -0.2666016,-0.3896484 -0.4921875,-0.5625 -0.1582031,-0.1171875 -0.5742188,-0.3662109 -1.2539063,-0.75 -0.6796875,-0.3808594 -1.1660156,-0.6855469 -1.453125,-0.9140625 -0.290039,-0.2255859 -0.5097656,-0.4746094 -0.65624997,-0.75 -0.14941406,-0.2724609 -0.22265625,-0.5742188 -0.22265625,-0.9023438 0,-0.5683593 0.21679687,-1.0605468 0.65625002,-1.4765625 0.4365234,-0.4130859 0.9960937,-0.6210937 1.6757812,-0.6210937 0.421875,0 0.8701172,0.1054687 1.3476563,0.3164062 0.2167969,0.09375 0.3691406,0.140625 0.4570312,0.140625 0.099609,0 0.1816407,-0.026367 0.2460938,-0.082031 0.070312,-0.061523 0.1230469,-0.1875 0.1640625,-0.375 z m 3.1054687,0.9960937 v 1.7695313 h 1.265625 v 0.4101562 h -1.265625 v 3.4921875 c 0,0.3457032 0.049805,0.58007817 0.1523438,0.70312504 0.099609,0.1171875 0.2285156,0.17578125 0.3867187,0.17578125 0.1230469,0 0.2490235,-0.0380859 0.375,-0.1171875 0.1230469,-0.0761719 0.2167969,-0.19335937 0.28125,-0.35156249 H 10.043009 C 9.9023836,-0.68370625 9.7060946,-0.39366718 9.4570711,-0.20030781 9.205118,-0.00401875 8.9473055,0.09266094 8.6836336,0.09266094 8.501993,0.09266094 8.3262118,0.03992657 8.1562899,-0.05968281 7.9834383,-0.15929218 7.8545321,-0.30577656 7.7695711,-0.49327656 7.6904696,-0.68077656 7.6523836,-0.96495625 7.6523836,-1.3487453 V -4.9698391 H 6.7969149 v -0.1875 c 0.2167969,-0.084961 0.4365234,-0.2285156 0.65625,-0.4335937 0.2255859,-0.2109375 0.4277344,-0.4570313 0.609375,-0.7382813 0.084961,-0.1464843 0.2109375,-0.421875 0.375,-0.8203125 z m 3.3486329,1.6171875 v 1.2070313 c 0.451172,-0.8027344 0.916992,-1.2070313 1.394531,-1.2070313 0.210938,0 0.386719,0.067383 0.527344,0.1992188 0.140625,0.1259766 0.210937,0.2753906 0.210937,0.4453125 0,0.1582031 -0.05273,0.2900391 -0.152343,0.3984375 -0.102539,0.1025391 -0.222657,0.1523437 -0.363282,0.1523437 -0.134765,0 -0.287109,-0.064453 -0.457031,-0.1992187 -0.172851,-0.140625 -0.301758,-0.2109375 -0.386719,-0.2109375 -0.07031,0 -0.146484,0.041016 -0.222656,0.1171875 -0.18164,0.1640625 -0.363281,0.4306641 -0.550781,0.796875 v 2.578125 c 0,0.29882812 0.03809,0.52148437 0.117187,0.66796874 0.04687,0.11132813 0.131836,0.19921875 0.257813,0.26953125 0.131836,0.0703125 0.319336,0.10546875 0.5625,0.10546875 v 0.2109375 h -2.742188 v -0.2109375 c 0.272461,0 0.47461,-0.0410156 0.609375,-0.12890625 0.09375,-0.0615234 0.158204,-0.1640625 0.199219,-0.3046875 0.02344,-0.0615234 0.03516,-0.24902344 0.03516,-0.56249999 v -2.0859375 c 0,-0.6240234 -0.01758,-0.9960938 -0.04687,-1.1132813 -0.02344,-0.1230468 -0.07031,-0.2138671 -0.140625,-0.2695312 -0.06445,-0.052734 -0.146484,-0.082031 -0.246093,-0.082031 -0.125977,0 -0.263672,0.032227 -0.410157,0.09375 l -0.05859,-0.2109375 1.617187,-0.65625 z m 5.06543,0 c 0.811523,0 1.464843,0.3105469 1.957031,0.9257813 0.413086,0.5244141 0.621094,1.1308594 0.621094,1.8164062 0,0.4863282 -0.117188,0.9726563 -0.351563,1.4648438 -0.228515,0.49218749 -0.544922,0.8642578 -0.949219,1.11328124 -0.398437,0.24902344 -0.849609,0.375 -1.347656,0.375 -0.814453,0 -1.458984,-0.32226562 -1.933594,-0.97265625 -0.398437,-0.53906249 -0.597656,-1.14843749 -0.597656,-1.82812499 0,-0.4921875 0.120117,-0.9785156 0.363281,-1.4648438 0.240235,-0.4921875 0.5625,-0.8496093 0.960938,-1.078125 0.398437,-0.234375 0.823242,-0.3515625 1.277344,-0.3515625 z m -0.1875,0.375 c -0.210938,0 -0.421875,0.064453 -0.632813,0.1875 -0.205078,0.1259766 -0.37207,0.3457032 -0.503906,0.65625 -0.125977,0.3046875 -0.1875,0.7001954 -0.1875,1.1835938 0,0.7822266 0.152344,1.4589844 0.457031,2.0273437 0.310547,0.56250004 0.726563,0.84375004 1.242188,0.84375004 0.375,0 0.682617,-0.15527344 0.925781,-0.46875 0.249023,-0.31054684 0.375,-0.84667964 0.375,-1.60546874 0,-0.9609375 -0.205078,-1.7138672 -0.609375,-2.2617188 -0.28125,-0.375 -0.638672,-0.5625 -1.066406,-0.5625 z m 5.126953,0.7617188 c 0.624023,-0.7558594 1.224609,-1.1367188 1.804687,-1.1367188 0.28711,0 0.539063,0.076172 0.75,0.2226563 0.210938,0.140625 0.37793,0.3808594 0.503907,0.7148437 0.08496,0.234375 0.128906,0.5947266 0.128906,1.078125 v 2.296875 c 0,0.34570317 0.02637,0.57421879 0.08203,0.69140629 0.04687,0.10253906 0.117188,0.18164063 0.210938,0.234375 0.09375,0.0556641 0.269531,0.0820312 0.527343,0.0820312 v 0.2109375 h -2.648437 v -0.2109375 h 0.105469 c 0.249023,0 0.424804,-0.0380859 0.527343,-0.1171875 0.09961,-0.0761719 0.169922,-0.19042969 0.210938,-0.33984375 0.01465,-0.0527344 0.02344,-0.23730469 0.02344,-0.55078124 v -2.203125 c 0,-0.4833984 -0.06738,-0.8349609 -0.199218,-1.0546875 -0.125977,-0.2255859 -0.336915,-0.3398437 -0.632813,-0.3398437 -0.46875,0 -0.93457,0.2548828 -1.394531,0.7617187 v 2.8359375 c 0,0.36914062 0.01758,0.59472655 0.05859,0.67968749 0.05273,0.11132813 0.128906,0.19335938 0.222656,0.24609375 0.09961,0.0556641 0.295898,0.0820312 0.585937,0.0820312 v 0.2109375 h -2.648437 v -0.2109375 h 0.117187 c 0.272461,0 0.457032,-0.0703125 0.550782,-0.2109375 0.09375,-0.140625 0.140625,-0.40429687 0.140625,-0.79687504 v -1.9921875 c 0,-0.6474609 -0.01758,-1.0429687 -0.04687,-1.1835937 -0.02344,-0.140625 -0.06738,-0.234375 -0.128907,-0.28125 -0.06445,-0.052734 -0.146484,-0.082031 -0.246093,-0.082031 -0.111329,0 -0.240235,0.032227 -0.386719,0.09375 l -0.09375,-0.2109375 1.617187,-0.65625 h 0.257813 z m 7.482422,3.62109374 c -0.556641,0.421875 -0.902344,0.66796875 -1.042969,0.73828125 -0.210938,0.09960938 -0.433594,0.15234375 -0.667969,0.15234375 -0.375,0 -0.685547,-0.12890625 -0.925781,-0.38671875 -0.234375,-0.2578125 -0.351563,-0.59179687 -0.351563,-1.00781249 0,-0.2578125 0.05859,-0.4833984 0.175782,-0.6796875 0.155273,-0.2636719 0.433593,-0.515625 0.832031,-0.75 0.398437,-0.234375 1.057617,-0.5185547 1.980469,-0.8554688 v -0.2109375 c 0,-0.5390625 -0.08789,-0.9052734 -0.257813,-1.1015625 -0.172851,-0.2021484 -0.418945,-0.3046875 -0.738281,-0.3046875 -0.251953,0 -0.445313,0.067383 -0.585938,0.1992188 -0.149414,0.1347656 -0.222656,0.2871094 -0.222656,0.4570312 l 0.01172,0.3398438 c 0,0.1816406 -0.04687,0.3222656 -0.140625,0.421875 -0.09375,0.09375 -0.216797,0.140625 -0.363281,0.140625 -0.140625,0 -0.257813,-0.049805 -0.351563,-0.1523438 -0.09375,-0.099609 -0.140625,-0.2373046 -0.140625,-0.4101562 0,-0.3339844 0.169922,-0.6445313 0.515625,-0.9257813 0.342774,-0.28125 0.826172,-0.421875 1.453125,-0.421875 0.47461,0 0.867188,0.079102 1.171875,0.234375 0.234375,0.1259766 0.404297,0.3164063 0.515625,0.5742188 0.07031,0.1640625 0.105469,0.5097656 0.105469,1.03125 v 1.828125 c 0,0.5097656 0.0059,0.8203125 0.02344,0.93749999 0.02344,0.1171875 0.05274,0.19628906 0.09375,0.234375 0.04687,0.0410156 0.09961,0.0585938 0.164063,0.0585938 0.06152,0 0.117187,-0.0146484 0.164062,-0.046875 0.07617,-0.046875 0.234375,-0.1875 0.46875,-0.42187499 v 0.32812499 c -0.439453,0.5859375 -0.855468,0.87890625 -1.253906,0.87890625 -0.1875,0 -0.339844,-0.06738281 -0.457031,-0.19921875 -0.111328,-0.13183594 -0.169922,-0.35742187 -0.175781,-0.6796875 z m 0,-0.38671874 v -2.0507813 c -0.594727,0.2431641 -0.978516,0.4101563 -1.148438,0.5039063 -0.304687,0.1728516 -0.524414,0.3515625 -0.65625,0.5390625 -0.134765,0.1875 -0.199219,0.3955078 -0.199219,0.6210937 0,0.28125 0.08203,0.515625 0.246094,0.70312504 0.169922,0.18164063 0.366211,0.26953125 0.585938,0.26953125 0.295898,0 0.685547,-0.19335937 1.171875,-0.58593749 z m 10.40039,-0.375 -0.550781,1.53515624 h -4.699219 v -0.22265625 c 1.382813,-1.25683589 2.355469,-2.28515629 2.917969,-3.08203129 0.5625,-0.796875 0.84375,-1.5263671 0.84375,-2.1914062 0,-0.5068359 -0.158203,-0.9199219 -0.46875,-1.2421875 -0.304687,-0.328125 -0.673828,-0.4921875 -1.101562,-0.4921875 -0.392579,0 -0.744141,0.1171875 -1.054688,0.3515625 -0.313477,0.2285156 -0.544922,0.5625 -0.691406,1.0078125 h -0.210938 c 0.09375,-0.7265625 0.342774,-1.2802734 0.75,-1.6640625 0.404297,-0.3896484 0.908203,-0.5859375 1.511719,-0.5859375 0.647461,0 1.186523,0.2080078 1.617188,0.6210937 0.436523,0.4160157 0.65625,0.9023438 0.65625,1.4648438 0,0.4072266 -0.09375,0.8085937 -0.28125,1.2070312 -0.29004,0.6328125 -0.75879,1.3066407 -1.40625,2.015625 -0.978516,1.0634766 -1.587891,1.7050782 -1.828125,1.92187504 h 2.074218 c 0.421875,0 0.717774,-0.0146484 0.890625,-0.046875 0.169922,-0.0292969 0.322266,-0.09375 0.457032,-0.18750004 0.140625,-0.09375 0.260742,-0.2285156 0.363281,-0.4101562 z m 5.891602,-6.5859375 v 0.2109375 c -0.515625,0.055664 -0.9375,0.1611328 -1.265625,0.3164062 -0.328125,0.1494141 -0.65332,0.3837891 -0.972656,0.703125 -0.322266,0.3134766 -0.585938,0.6650391 -0.796875,1.0546875 -0.205079,0.3925782 -0.375,0.8554688 -0.515625,1.3945313 0.5625,-0.3896484 1.127929,-0.5859375 1.699218,-0.5859375 0.539063,0 1.007813,0.2197266 1.40625,0.65625 0.398438,0.4394531 0.597657,1.0048828 0.597657,1.6992187 0,0.6650391 -0.199219,1.2714844 -0.597657,1.81640629 -0.486328,0.66503906 -1.125,0.99609375 -1.921875,0.99609375 -0.547851,0 -1.013672,-0.17871094 -1.394531,-0.5390625 -0.744141,-0.70312504 -1.113281,-1.61132814 -1.113281,-2.73046874 0,-0.7089844 0.140625,-1.3857422 0.421875,-2.0273438 0.287109,-0.6386718 0.697265,-1.2070312 1.230469,-1.6992187 0.530273,-0.4980469 1.037109,-0.8349609 1.523437,-1.0078125 0.483399,-0.1699219 0.9375,-0.2578125 1.359375,-0.2578125 z m -3.65625,4.1015625 c -0.07031,0.5332031 -0.105469,0.9609375 -0.105469,1.2890625 0,0.375 0.07031,0.7822266 0.210938,1.21875 0.140625,0.4394531 0.345703,0.78515624 0.621093,1.04296874 0.19336,0.1875 0.436524,0.28125 0.726563,0.28125 0.342773,0 0.647461,-0.15820312 0.914062,-0.48046875 0.263672,-0.31933594 0.398438,-0.77636719 0.398438,-1.37109379 0,-0.6708984 -0.134766,-1.2480468 -0.398438,-1.734375 -0.266601,-0.4921875 -0.644531,-0.7382812 -1.136718,-0.7382812 -0.149414,0 -0.310547,0.032227 -0.480469,0.09375 -0.164063,0.064453 -0.416016,0.1962891 -0.75,0.3984375 z m 12.301758,2.3671875 -0.07031,1.65234374 h -4.734375 v -0.2109375 l 3.5625,-4.75781254 h -1.757812 c -0.383789,0 -0.632813,0.029297 -0.75,0.082031 -0.117188,0.046875 -0.210938,0.1376953 -0.28125,0.2695312 -0.111328,0.1962891 -0.172852,0.4394532 -0.1875,0.7265625 h -0.234375 l 0.03516,-1.4882812 h 4.511719 v 0.2226562 l -3.609375,4.75781254 h 1.96875 c 0.404297,0 0.682617,-0.0292969 0.832031,-0.09375 0.146484,-0.0703125 0.263672,-0.19042969 0.351562,-0.36328125 0.06152,-0.12304687 0.117188,-0.38964839 0.164063,-0.79687499 z m 8.771484,0.1171875 -0.550781,1.53515624 h -4.699219 v -0.22265625 c 1.382813,-1.25683589 2.355469,-2.28515629 2.917969,-3.08203129 0.5625,-0.796875 0.84375,-1.5263671 0.84375,-2.1914062 0,-0.5068359 -0.158203,-0.9199219 -0.46875,-1.2421875 -0.304688,-0.328125 -0.673828,-0.4921875 -1.101563,-0.4921875 -0.392578,0 -0.74414,0.1171875 -1.054687,0.3515625 -0.313477,0.2285156 -0.544922,0.5625 -0.691406,1.0078125 h -0.210938 c 0.09375,-0.7265625 0.342773,-1.2802734 0.75,-1.6640625 0.404297,-0.3896484 0.908203,-0.5859375 1.511719,-0.5859375 0.647461,0 1.186523,0.2080078 1.617187,0.6210937 0.436524,0.4160157 0.65625,0.9023438 0.65625,1.4648438 0,0.4072266 -0.09375,0.8085937 -0.28125,1.2070312 -0.290039,0.6328125 -0.758789,1.3066407 -1.40625,2.015625 -0.978515,1.0634766 -1.58789,1.7050782 -1.828125,1.92187504 h 2.074219 c 0.421875,0 0.717773,-0.0146484 0.890625,-0.046875 0.169922,-0.0292969 0.322266,-0.09375 0.457031,-0.18750004 0.140625,-0.09375 0.260742,-0.2285156 0.363282,-0.4101562 z m 5.888672,-6.5859375 v 0.2109375 c -0.515625,0.055664 -0.9375,0.1611328 -1.265625,0.3164062 -0.328125,0.1494141 -0.65332,0.3837891 -0.972656,0.703125 -0.322266,0.3134766 -0.585938,0.6650391 -0.796875,1.0546875 -0.205078,0.3925782 -0.375,0.8554688 -0.515625,1.3945313 0.5625,-0.3896484 1.127929,-0.5859375 1.699218,-0.5859375 0.539063,0 1.007813,0.2197266 1.40625,0.65625 0.398438,0.4394531 0.597657,1.0048828 0.597657,1.6992187 0,0.6650391 -0.199219,1.2714844 -0.597657,1.81640629 -0.486328,0.66503906 -1.125,0.99609375 -1.921875,0.99609375 -0.547851,0 -1.013671,-0.17871094 -1.394531,-0.5390625 -0.74414,-0.70312504 -1.113281,-1.61132814 -1.113281,-2.73046874 0,-0.7089844 0.140625,-1.3857422 0.421875,-2.0273438 0.287109,-0.6386718 0.697266,-1.2070312 1.230469,-1.6992187 0.530273,-0.4980469 1.037109,-0.8349609 1.523437,-1.0078125 0.483399,-0.1699219 0.9375,-0.2578125 1.359375,-0.2578125 z m -3.65625,4.1015625 c -0.07031,0.5332031 -0.105469,0.9609375 -0.105469,1.2890625 0,0.375 0.07031,0.7822266 0.210938,1.21875 0.140625,0.4394531 0.345703,0.78515624 0.621093,1.04296874 0.19336,0.1875 0.436524,0.28125 0.726563,0.28125 0.342773,0 0.647461,-0.15820312 0.914062,-0.48046875 0.263672,-0.31933594 0.398438,-0.77636719 0.398438,-1.37109379 0,-0.6708984 -0.134766,-1.2480468 -0.398438,-1.734375 -0.266601,-0.4921875 -0.644531,-0.7382812 -1.136718,-0.7382812 -0.149414,0 -0.310547,0.032227 -0.480469,0.09375 -0.164063,0.064453 -0.416016,0.1962891 -0.75,0.3984375 z m 0,0"
       style="fill:#000000;fill-opacity:1;fill-rule:nonzero;stroke:none"
       aria-label=" Strona 26 z 26 "
       transform="matrix(1.3333333,0,0,1.3333333,331.51948,1070.8765)" />
    <path
       id="path2"
       d="m 4.2890453,-2.0280984 1.6171875,-3.9375 h 2.4257813 v 0.1640625 h -0.1875 c -0.1816407,0 -0.3222657,0.032227 -0.421875,0.09375 -0.079102,0.041016 -0.1376954,0.1113281 -0.1757813,0.2109375 -0.041016,0.070312 -0.058594,0.2548828 -0.058594,0.5507812 v 3.9257813 c 0,0.30468746 0.014648,0.49804684 0.046875,0.57421871 0.038086,0.0703125 0.1054687,0.13769532 0.1992187,0.19921875 0.099609,0.0556641 0.2373047,0.0820313 0.4101563,0.0820313 h 0.1875 V -7.546875e-4 H 5.2265453 V -0.16481719 h 0.1875 c 0.1787109,0 0.3193359,-0.0292969 0.421875,-0.09375 0.070312,-0.0380859 0.1289063,-0.10839843 0.1757813,-0.2109375 0.029297,-0.0703125 0.046875,-0.25195312 0.046875,-0.55078121 V -5.4382547 L 3.7734203,-7.546875e-4 H 3.6679516 L 1.3476391,-5.4030984 v 4.2070312 c 0,0.29003908 0.00586,0.46875001 0.023437,0.53906251 0.038086,0.140625 0.1201171,0.2578125 0.2460937,0.3515625 0.1318359,0.09375 0.3310547,0.140625 0.5976563,0.140625 V -7.546875e-4 H 0.17576406 V -0.16481719 h 0.0703125 c 0.13183594,0 0.25195313,-0.0175781 0.36328125,-0.0585938 0.1171875,-0.046875 0.20214844,-0.10839843 0.2578125,-0.1875 0.0615234,-0.0761719 0.10839844,-0.18164062 0.14062499,-0.31640625 0.00586,-0.0292969 0.011719,-0.18164062 0.011719,-0.45703116 v -3.7617189 c 0,-0.3046875 -0.0205079,-0.4921875 -0.0585938,-0.5625 C 0.9286939,-5.5847392 0.8613111,-5.652122 0.76170175,-5.707786 0.66795175,-5.769309 0.5390455,-5.801536 0.374983,-5.801536 H 0.17576406 V -5.9655984 H 2.6132641 Z m 8.5048827,0 1.617188,-3.9375 h 2.425781 v 0.1640625 h -0.1875 c -0.181641,0 -0.322266,0.032227 -0.421875,0.09375 -0.0791,0.041016 -0.137695,0.1113281 -0.175781,0.2109375 -0.04102,0.070312 -0.05859,0.2548828 -0.05859,0.5507812 v 3.9257813 c 0,0.30468746 0.01465,0.49804684 0.04687,0.57421871 0.03809,0.0703125 0.105469,0.13769532 0.199219,0.19921875 0.09961,0.0556641 0.237304,0.0820313 0.410156,0.0820313 h 0.1875 V -7.546875e-4 H 13.731428 V -0.16481719 h 0.1875 c 0.178711,0 0.319336,-0.0292969 0.421875,-0.09375 0.07031,-0.0380859 0.128906,-0.10839843 0.175781,-0.2109375 0.0293,-0.0703125 0.04687,-0.25195312 0.04687,-0.55078121 V -5.4382547 L 12.278303,-7.546875e-4 H 12.172834 L 9.8525219,-5.4030984 v 4.2070312 c 0,0.29003908 0.00586,0.46875001 0.023437,0.53906251 0.038086,0.140625 0.1201172,0.2578125 0.2460931,0.3515625 0.131836,0.09375 0.331055,0.140625 0.597656,0.140625 V -7.546875e-4 H 8.6806469 V -0.16481719 h 0.070312 c 0.1318359,0 0.2519531,-0.0175781 0.3632812,-0.0585938 0.1171875,-0.046875 0.2021485,-0.10839843 0.2578125,-0.1875 0.061523,-0.0761719 0.1083985,-0.18164062 0.140625,-0.31640625 0.00586,-0.0292969 0.011719,-0.18164062 0.011719,-0.45703116 v -3.7617189 c 0,-0.3046875 -0.020508,-0.4921875 -0.058594,-0.5625 -0.032227,-0.076172 -0.099609,-0.1435547 -0.1992187,-0.1992187 -0.09375,-0.061523 -0.2226563,-0.09375 -0.3867188,-0.09375 H 8.6806469 v -0.1640625 h 2.4375001 z m 7.96582,0.328125 h -2.109375 l -0.246093,0.5859375 c -0.08789,0.18749996 -0.128907,0.34863278 -0.128907,0.48046871 0,0.1640625 0.06445,0.28710938 0.199219,0.36328125 0.07617,0.046875 0.272461,0.0820313 0.585938,0.10546875 V -7.546875e-4 H 17.080061 V -0.16481719 c 0.210937,-0.0292969 0.386719,-0.1171875 0.527344,-0.2578125 0.140625,-0.14648437 0.310547,-0.44824218 0.515625,-0.90234371 l 2.121093,-4.7578125 h 0.09375 l 2.144532,4.8867187 c 0.202148,0.46289064 0.36914,0.75585939 0.503906,0.87890626 0.09961,0.0878906 0.240234,0.13769532 0.421875,0.15234375 V -7.546875e-4 H 20.525373 V -0.16481719 h 0.117188 c 0.234375,0 0.398437,-0.0292969 0.492187,-0.09375 0.06152,-0.046875 0.09375,-0.11132812 0.09375,-0.19921875 0,-0.0527344 -0.0088,-0.10839843 -0.02344,-0.1640625 -0.0088,-0.0292969 -0.05273,-0.140625 -0.128906,-0.328125 z m -0.152343,-0.328125 -0.890625,-2.0507813 -0.914063,2.0507813 z m 2.827148,3.3984375 h 4.664063 v 0.5742187 h -4.664063 z m 7.520508,-7.453125 v 4.875 c 0,0.36914059 0.01465,0.60351559 0.04687,0.70312496 0.0293,0.10253907 0.09668,0.18457032 0.199219,0.24609375 0.108398,0.0644531 0.27539,0.09375 0.503906,0.09375 h 0.128906 v 0.1640625025 h -3.14062 V -0.16481719 h 0.164063 c 0.257812,0 0.436523,-0.0263672 0.539062,-0.0820313 0.108399,-0.0615234 0.181641,-0.14355468 0.222656,-0.24609375 0.03809,-0.0996094 0.05859,-0.33984375 0.05859,-0.71484366 v -3.09375 c 0,-0.272461 -0.01758,-0.4453125 -0.04687,-0.515625 -0.02344,-0.070312 -0.07031,-0.1289063 -0.140625,-0.1757813 -0.07031,-0.046875 -0.152344,-0.070312 -0.246094,-0.070312 -0.149414,0 -0.333984,0.046875 -0.550781,0.140625 l -0.07031,-0.1640625 2.191406,-0.9960937 z m 4.004883,3.3867187 v 1.6523438 c 0,0.32226559 0.01758,0.52441403 0.05859,0.60937496 0.04687,0.0791016 0.117188,0.14648438 0.210938,0.19921875 0.09961,0.046875 0.287109,0.0703125 0.5625,0.0703125 V -7.546875e-4 H 32.768537 V -0.16481719 c 0.272461,0 0.457032,-0.0234375 0.550782,-0.0703125 0.09961,-0.0527344 0.169922,-0.12011718 0.210937,-0.19921875 0.03809,-0.0849609 0.05859,-0.28710937 0.05859,-0.60937496 v -3.8671875 c 0,-0.328125 -0.02051,-0.5302735 -0.05859,-0.609375 -0.04102,-0.084961 -0.111328,-0.1523438 -0.210937,-0.1992188 -0.102539,-0.052734 -0.28711,-0.082031 -0.550782,-0.082031 v -0.1640625 h 2.589844 c 0.858399,0 1.470703,0.1523437 1.839844,0.4570312 0.375,0.3046875 0.5625,0.6884766 0.5625,1.1484375 0,0.3837891 -0.123047,0.7148438 -0.363281,0.9960938 -0.243164,0.2753906 -0.574219,0.4628906 -0.996094,0.5625 -0.28125,0.070312 -0.761719,0.1054687 -1.441406,0.1054685 z m 0,-2.9179687 v 2.5664062 c 0.09961,0.00879 0.175781,0.011719 0.222656,0.011719 0.357422,0 0.632812,-0.1054688 0.820312,-0.3164063 0.19336,-0.2109375 0.292969,-0.5390625 0.292969,-0.984375 0,-0.4453125 -0.09961,-0.7675781 -0.292969,-0.9726562 -0.1875,-0.2021485 -0.474609,-0.3046875 -0.855468,-0.3046875 z m 0,0"
       style="fill:#000000;fill-opacity:1;fill-rule:nonzero;stroke:none"
       aria-label="MMA_1P "
       transform="matrix(1.3333333,0,0,1.3333333,689.83987,1076.5596)" />
    <g
       id="g2"
       aria-label="BRUDNOPIS (nie podlega ocenie) "
       transform="matrix(1.3333333,0,0,1.3333333,223.6,114.3996)">
      <path
         id="path3"
         d="m 7.1261719,-5.6258719 c 1.0078125,0.234375 1.7138672,0.5214844 2.1210937,0.8554688 0.5859375,0.477539 0.8789064,1.0898437 0.8789064,1.8398437 0,0.796875 -0.3222657,1.4589844 -0.9609376,1.98046878 -0.7910156,0.6328125 -1.9335938,0.949218745 -3.4335938,0.949218745 H 0.34101563 V -0.29384062 c 0.48339843,0 0.81152347,-0.0410156 0.98437497,-0.12890625 0.178711,-0.09375 0.3046875,-0.2109375 0.375,-0.3515625 0.070312,-0.14648438 0.1054688,-0.50976563 0.1054688,-1.08984373 v -6.8789063 c 0,-0.5771484 -0.035156,-0.9404297 -0.1054688,-1.0898437 -0.070312,-0.1464844 -0.196289,-0.2636719 -0.375,-0.3515629 -0.1728515,-0.08496 -0.50097654,-0.128906 -0.98437497,-0.128906 v -0.292969 H 5.4269531 c 1.209961,0 2.0683594,0.111329 2.578125,0.328125 0.506836,0.210938 0.9052735,0.5332035 1.1953125,0.9609379 0.2871094,0.430664 0.4335938,0.890625 0.4335938,1.3828125 0,0.5097656 -0.1845703,0.9609375 -0.5507813,1.359375 -0.3691406,0.3984375 -1.0195312,0.7148437 -1.9570312,0.9492187 z M 4.2785156,-5.8368094 c 0.741211,0 1.2890625,-0.082031 1.640625,-0.2460937 0.3515625,-0.1699219 0.6210938,-0.4042969 0.8085938,-0.703125 0.1875,-0.3046875 0.28125,-0.6914063 0.28125,-1.1601563 0,-0.46875 -0.09375,-0.8496093 -0.28125,-1.1484375 C 6.5460938,-9.3993094 6.2853516,-9.627825 5.9425781,-9.7860281 5.596875,-9.9413016 5.0431641,-10.014544 4.2785156,-10.008684 Z m 0,0.609375 v 3.3984375 l -0.011719,0.3984375 c 0,0.28125 0.070312,0.4980469 0.2109375,0.64453128 0.1464844,0.140625 0.3632812,0.2109375 0.6445312,0.2109375 0.421875,0 0.8085938,-0.09375 1.1601563,-0.28125 0.3515625,-0.18749998 0.6210937,-0.45703128 0.8085937,-0.80859378 0.1875,-0.3515625 0.28125,-0.7412109 0.28125,-1.171875 0,-0.4980468 -0.1171875,-0.9433593 -0.3515625,-1.3359375 C 6.7921875,-4.5623953 6.4757813,-4.8348562 6.0714844,-4.9930594 5.6730469,-5.1571219 5.0753906,-5.2332937 4.2785156,-5.2274344 Z M 14.925,-4.8407156 v 2.9765625 c 0,0.5800781 0.03516,0.94335935 0.105469,1.08984373 0.07031,0.14941406 0.193359,0.26660156 0.375,0.3515625 0.178711,0.0878906 0.509765,0.12890625 0.996094,0.12890625 v 0.292968745 h -5.4375 V -0.29384062 c 0.492187,0 0.823242,-0.0410156 0.996093,-0.12890625 0.178711,-0.09375 0.304688,-0.2109375 0.375,-0.3515625 0.07031,-0.14648438 0.105469,-0.50976563 0.105469,-1.08984373 v -6.8789063 c 0,-0.5771484 -0.03516,-0.9404297 -0.105469,-1.0898437 -0.07031,-0.1464844 -0.196289,-0.2636719 -0.375,-0.3515629 -0.18164,-0.08496 -0.512695,-0.128906 -0.996093,-0.128906 v -0.292969 h 4.933593 c 1.280274,0 2.217774,0.09082 2.8125,0.269532 0.591797,0.172851 1.078125,0.4980465 1.453125,0.9726559 0.375,0.477539 0.5625,1.040039 0.5625,1.6875 0,0.7822265 -0.28125,1.4267578 -0.84375,1.9335937 -0.360351,0.3222657 -0.864258,0.5625 -1.511718,0.7265625 L 20.925,-1.4188406 c 0.333984,0.4628906 0.574219,0.74999998 0.714844,0.86718748 0.210937,0.15820312 0.457031,0.24316406 0.738281,0.2578125 V -8.71875e-4 H 19.038281 L 15.628125,-4.8407156 Z m 0,-5.1914064 v 4.6406251 h 0.445313 c 0.726562,0 1.268554,-0.064453 1.628906,-0.1992187 0.357422,-0.131836 0.638672,-0.3691406 0.84375,-0.7148438 0.210937,-0.3515625 0.316406,-0.8027343 0.316406,-1.359375 0,-0.8115234 -0.193359,-1.4091797 -0.574219,-1.7929687 -0.375,-0.3808594 -0.981445,-0.5742189 -1.816406,-0.5742189 z m 7.675781,-0.574219 h 5.472657 v 0.292969 h -0.269532 c -0.416015,0 -0.700195,0.04394 -0.855468,0.128906 -0.149415,0.08789 -0.257813,0.2050785 -0.328125,0.3515629 -0.06445,0.149414 -0.09375,0.5273437 -0.09375,1.1367187 v 5.1914063 c 0,0.946289 0.07031,1.5761719 0.210937,1.8867187 0.146484,0.3046875 0.386719,0.5595703 0.714844,0.76171878 0.328125,0.20507812 0.741211,0.3046875 1.242187,0.3046875 0.56836,0 1.057617,-0.12890625 1.464844,-0.38671875 0.404297,-0.25781253 0.706055,-0.61230473 0.902344,-1.06640623 0.202148,-0.4511719 0.304687,-1.2421875 0.304687,-2.3671875 v -4.3242188 c 0,-0.4746093 -0.05273,-0.8144531 -0.152343,-1.0195312 -0.09375,-0.2021485 -0.216797,-0.3427734 -0.363282,-0.4218754 -0.234375,-0.117187 -0.568359,-0.175781 -0.996093,-0.175781 v -0.292969 h 3.667968 v 0.292969 H 33.3 c -0.298828,0 -0.547852,0.05859 -0.75,0.175781 -0.196289,0.117188 -0.336914,0.2988285 -0.421875,0.5390629 -0.07031,0.1640625 -0.105469,0.4658203 -0.105469,0.9023437 v 4.03125 c 0,1.2421875 -0.08203,2.1416016 -0.246093,2.6953125 -0.164063,0.5566407 -0.56836,1.06347659 -1.207032,1.52343753 -0.632812,0.45996093 -1.49707,0.69140625 -2.589843,0.69140625 -0.922852,0 -1.634766,-0.12304688 -2.132813,-0.36328125 -0.679687,-0.33398438 -1.160156,-0.76171875 -1.441406,-1.27734373 -0.28125,-0.5214844 -0.421875,-1.2246094 -0.421875,-2.109375 v -5.1914063 c 0,-0.609375 -0.03516,-0.9873047 -0.105469,-1.1367187 -0.07031,-0.1464844 -0.193359,-0.2636719 -0.363281,-0.3515629 -0.164063,-0.09375 -0.46875,-0.134765 -0.914063,-0.128906 z M 33.991406,-8.71875e-4 V -0.29384062 h 0.351563 c 0.304687,0 0.539062,-0.046875 0.703125,-0.140625 0.164062,-0.09375 0.287109,-0.22558594 0.375,-0.3984375 0.04687,-0.10839844 0.07031,-0.43652348 0.07031,-0.98437498 v -6.9726563 c 0,-0.5449218 -0.03223,-0.8847656 -0.09375,-1.0195312 -0.05566,-0.131836 -0.172851,-0.2490234 -0.351562,-0.3515624 -0.172852,-0.09961 -0.407227,-0.152344 -0.703125,-0.152344 h -0.351563 v -0.292969 H 38.7375 c 1.265625,0 2.285156,0.172852 3.058594,0.515625 0.943359,0.4218754 1.658203,1.0634769 2.144531,1.9218754 0.492188,0.852539 0.738281,1.8164062 0.738281,2.8945312 0,0.75 -0.123047,1.4384766 -0.363281,2.0625 -0.243164,0.6269532 -0.556641,1.1455078 -0.9375,1.5585938 -0.375,0.4072265 -0.814453,0.73535154 -1.3125,0.98437498 -0.500977,0.25195312 -1.110352,0.44238281 -1.828125,0.57421875 -0.313477,0.06445312 -0.814453,0.093749995 -1.5,0.093749995 z M 38.034375,-10.008684 v 8.2734371 c 0,0.4453125 0.01758,0.7207032 0.05859,0.82031253 0.04687,0.09375 0.117187,0.16992187 0.210937,0.22265625 0.140625,0.0791016 0.345703,0.1171875 0.621094,0.1171875 0.867188,0 1.529297,-0.29589844 1.992188,-0.89062498 0.624023,-0.8027344 0.9375,-2.053711 0.9375,-3.75 0,-1.359375 -0.216797,-2.4433594 -0.644532,-3.2578125 -0.336914,-0.6328125 -0.770508,-1.0664063 -1.300781,-1.3007813 -0.375,-0.1552734 -1.001953,-0.2343746 -1.875,-0.2343746 z m 11.282227,-0.597657 5.238281,6.5742191 v -4.5585937 c 0,-0.6328125 -0.09082,-1.0605469 -0.269531,-1.2890625 -0.251954,-0.3046879 -0.673829,-0.4482419 -1.265625,-0.4335939 v -0.292969 h 3.503906 v 0.292969 c -0.445313,0.05566 -0.74707,0.128906 -0.902344,0.222656 -0.158203,0.08789 -0.27832,0.2343754 -0.363281,0.4453129 -0.08789,0.2050781 -0.128906,0.5566406 -0.128906,1.0546875 V 0.24522188 H 54.871289 L 47.699414,-8.5907156 v 6.7382812 c 0,0.6181641 0.134766,1.03125003 0.410156,1.24218753 0.28125,0.2109375 0.600586,0.31640625 0.960938,0.31640625 h 0.246094 V -8.71875e-4 H 45.554883 V -0.29384062 c 0.585937,0 0.990234,-0.1171875 1.21875,-0.3515625 0.234375,-0.234375 0.351562,-0.63574218 0.351562,-1.20703128 v -7.4765625 l -0.234375,-0.28125 c -0.219726,-0.28125 -0.416015,-0.4628901 -0.585937,-0.5507811 -0.172852,-0.09375 -0.421875,-0.143555 -0.75,-0.152344 v -0.292969 z m 13.757812,-0.152343 c 1.6875,-0.06152 3.058594,0.433593 4.113281,1.4882809 1.060547,1.0488281 1.59375,2.3554687 1.59375,3.9257812 0,1.3447266 -0.395507,2.5283203 -1.183593,3.5507813 -1.048829,1.35937498 -2.519532,2.03906248 -4.417969,2.03906248 -1.916016,0 -3.392578,-0.64746094 -4.429688,-1.94531248 -0.829101,-1.022461 -1.242187,-2.2324219 -1.242187,-3.6328125 0,-1.5761719 0.533203,-2.8886719 1.605469,-3.9375 1.078125,-1.0546879 2.396484,-1.5498049 3.960937,-1.4882809 z m 0.09375,0.503906 c -0.969726,0 -1.708008,0.4980468 -2.214844,1.4882811 -0.416015,0.8144532 -0.621093,1.9804688 -0.621093,3.5039063 0,1.8046875 0.319336,3.140625 0.960937,4.0078125 0.445313,0.60937498 1.066406,0.91406248 1.863281,0.91406248 0.530274,0 0.975586,-0.13183594 1.335938,-0.3984375 0.459961,-0.32812498 0.820312,-0.85839848 1.078125,-1.59374998 0.257812,-0.7324219 0.386719,-1.6904297 0.386719,-2.8710938 0,-1.3974609 -0.134766,-2.4433593 -0.398438,-3.140625 -0.257812,-0.703125 -0.591797,-1.1953125 -0.996094,-1.4765625 -0.407226,-0.2871096 -0.873047,-0.4335936 -1.394531,-0.4335936 z m 10.494141,5.4492186 v 2.9414063 c 0,0.5800781 0.03516,0.94335935 0.105468,1.08984373 0.07031,0.14941406 0.19336,0.26660156 0.375,0.3515625 0.178711,0.0878906 0.509766,0.12890625 0.996094,0.12890625 V -8.71875e-4 H 69.748242 V -0.29384062 c 0.483399,0 0.811524,-0.0410156 0.984375,-0.12890625 0.178711,-0.09375 0.304688,-0.2109375 0.375,-0.3515625 0.07031,-0.14648438 0.105469,-0.50976563 0.105469,-1.08984373 v -6.8789063 c 0,-0.5771484 -0.03516,-0.9404297 -0.105469,-1.0898437 -0.07031,-0.1464844 -0.196289,-0.2636719 -0.375,-0.3515629 -0.172851,-0.08496 -0.500976,-0.128906 -0.984375,-0.128906 v -0.292969 h 4.617188 c 1.523437,0 2.616211,0.275391 3.28125,0.8203129 0.662109,0.5390625 0.996093,1.2158203 0.996093,2.0273437 0,0.6884766 -0.216796,1.2773438 -0.644531,1.7695313 -0.430664,0.4863281 -1.019531,0.8173828 -1.769531,0.9960937 -0.509766,0.1259766 -1.365234,0.1875 -2.566406,0.1875 z m 0,-5.1914062 v 4.5820312 c 0.169922,0.00879 0.298828,0.011719 0.386718,0.011719 0.638672,0 1.13086,-0.1875 1.476563,-0.5625 0.342773,-0.375 0.515625,-0.9609375 0.515625,-1.7578125 0,-0.788086 -0.172852,-1.3623047 -0.515625,-1.7226563 -0.345703,-0.3662109 -0.861328,-0.5507812 -1.546875,-0.5507812 z m 11.323242,9.70312498 V -8.71875e-4 H 79.430859 V -0.29384062 h 0.351563 c 0.310547,0 0.5625,-0.0527344 0.75,-0.1640625 0.131836,-0.0703125 0.237305,-0.19335938 0.316406,-0.375 0.05273,-0.12304688 0.08203,-0.45117188 0.08203,-0.98437498 v -6.9726563 c 0,-0.5449218 -0.03223,-0.8847656 -0.09375,-1.0195312 -0.05566,-0.131836 -0.172851,-0.2490234 -0.351562,-0.3515624 -0.172852,-0.09961 -0.407227,-0.152344 -0.703125,-0.152344 h -0.351563 v -0.292969 h 5.554688 v 0.292969 h -0.351563 c -0.313476,0 -0.5625,0.05566 -0.75,0.164063 -0.134765,0.07031 -0.240234,0.1962887 -0.316406,0.3749996 -0.06445,0.1259766 -0.09375,0.4541016 -0.09375,0.984375 v 6.9726563 c 0,0.5478515 0.0293,0.88769529 0.09375,1.01953123 0.06152,0.13476562 0.178711,0.25195312 0.351563,0.3515625 0.178711,0.10253906 0.416015,0.15234375 0.714843,0.15234375 z m 7.869141,-10.55859338 0.08203,3.5390621 h -0.316406 c -0.149415,-0.890625 -0.521485,-1.6054687 -1.113282,-2.1445312 -0.594726,-0.5390625 -1.236328,-0.8085939 -1.921875,-0.8085939 -0.533203,0 -0.955078,0.146485 -1.265625,0.4335939 -0.304687,0.28125 -0.457031,0.6064453 -0.457031,0.9726562 0,0.234375 0.05273,0.4453125 0.164063,0.6328125 0.146484,0.2431641 0.389648,0.4863282 0.726562,0.7265625 0.240234,0.1728516 0.808594,0.4775391 1.699219,0.9140625 1.233398,0.609375 2.068359,1.1835938 2.507812,1.7226563 0.427735,0.5478515 0.644532,1.1689453 0.644532,1.8632812 0,0.890625 -0.348633,1.6582032 -1.042969,2.29687503 -0.688477,0.6328125 -1.567383,0.94921875 -2.636719,0.94921875 -0.328125,0 -0.641602,-0.0351563 -0.9375,-0.10546875 -0.298828,-0.06445313 -0.673828,-0.1875 -1.125,-0.375 -0.251953,-0.0996094 -0.454102,-0.15234375 -0.609375,-0.15234375 -0.140625,0 -0.290039,0.0527344 -0.445312,0.15234375 -0.149415,0.10253906 -0.269532,0.26074218 -0.363282,0.48046875 H 86.16328 V -3.7625906 h 0.28125 c 0.234375,1.125 0.673828,1.9863281 1.324219,2.578125 0.65625,0.59472654 1.362305,0.89062498 2.121094,0.89062498 0.585937,0 1.048828,-0.15820313 1.394531,-0.48046875 0.351563,-0.31933593 0.527344,-0.69140623 0.527344,-1.11328123 0,-0.2490235 -0.06738,-0.4921875 -0.199219,-0.7265625 -0.134766,-0.234375 -0.336914,-0.4570313 -0.609375,-0.6679688 -0.275391,-0.2109375 -0.755859,-0.4833984 -1.441406,-0.8203125 -0.960938,-0.4746093 -1.658203,-0.8818359 -2.085938,-1.21875 -0.421875,-0.3339843 -0.74707,-0.7060547 -0.972656,-1.1132812 -0.228516,-0.413086 -0.339844,-0.8671875 -0.339844,-1.359375 0,-0.8496094 0.307617,-1.5732422 0.925782,-2.1679688 0.624023,-0.5917966 1.409179,-0.8906246 2.355468,-0.8906246 0.342774,0 0.679688,0.04395 1.007813,0.128906 0.240234,0.06445 0.539062,0.181641 0.890625,0.351562 0.351562,0.164063 0.597656,0.246094 0.738281,0.246094 0.131836,0 0.237305,-0.03809 0.316406,-0.117187 0.07617,-0.08496 0.152344,-0.28711 0.222657,-0.609375 z m 0,0"
         style="fill:#000000;fill-opacity:1;fill-rule:nonzero;stroke:none" />
      <path
         id="path4"
         d="m 105.24141,-10.852434 -0.14063,0.433593 c -0.74414,0.5332035 -1.35937,1.1484379 -1.85156,1.8515629 -0.75,1.086914 -1.36524,2.4082031 -1.83984,3.9609375 -0.46875,1.555664 -0.70313,3.0175781 -0.70313,4.38281248 0,0.87304687 0.20508,1.81640622 0.62109,2.82421872 l -0.14062,0.4453125 c -1.400392,-1.875 -2.097657,-3.7441406 -2.097657,-5.6132812 0,-1.069336 0.234375,-2.1328125 0.703125,-3.1875 0.553712,-1.2333985 1.371092,-2.3261719 2.449222,-3.28125 0.83496,-0.7265625 1.83398,-1.3300779 3,-1.8164059 z m 2.65429,3.5976559 -0.97265,3.3632812 c 0.65625,-0.984375 1.14258,-1.6552734 1.46484,-2.015625 0.47461,-0.5214843 0.88477,-0.8789062 1.23047,-1.0664062 0.34277,-0.1875 0.66797,-0.28125 0.97266,-0.28125 0.26367,0 0.49511,0.102539 0.6914,0.3046875 0.19336,0.2050781 0.29297,0.4658203 0.29297,0.7851562 0,0.2900391 -0.0644,0.6445313 -0.1875,1.0664063 l -1.00781,3.3398437 c -0.0791,0.2900391 -0.11719,0.4804688 -0.11719,0.5742188 0,0.046875 0.0176,0.09375 0.0586,0.140625 0.0381,0.041016 0.0762,0.0585937 0.11719,0.0585937 0.0527,0 0.1084,-0.0175781 0.16406,-0.0585937 0.17872,-0.1552735 0.36329,-0.3691406 0.55079,-0.6445313 0.0469,-0.076172 0.12304,-0.1875 0.23437,-0.328125 l 0.29297,0.1757813 c -0.76758,1.28906248 -1.57031,1.93359373 -2.41406,1.93359373 -0.32227,0 -0.57422,-0.08203125 -0.76172,-0.24609375 -0.18164,-0.16992188 -0.26953,-0.38085938 -0.26953,-0.6328125 0,-0.21679688 0.0615,-0.54199218 0.1875,-0.97265628 l 0.97265,-3.3398437 c 0.0703,-0.2167969 0.10547,-0.3808594 0.10547,-0.4921875 0,-0.052734 -0.0234,-0.099609 -0.0703,-0.140625 -0.0469,-0.046875 -0.10254,-0.070312 -0.16406,-0.070312 -0.19629,0 -0.4336,0.1347656 -0.71485,0.3984375 -0.72656,0.6972656 -1.42675,1.7226562 -2.09765,3.0820312 l -0.63282,2.320312525 h -2.0039 l 1.46484,-5.027343725 c 0.14063,-0.4921875 0.21094,-0.84375 0.21094,-1.0546875 0,-0.084961 -0.0205,-0.1552735 -0.0586,-0.2109375 -0.041,-0.061523 -0.11133,-0.1083985 -0.21094,-0.140625 -0.0937,-0.038086 -0.26953,-0.058594 -0.52735,-0.058594 l 0.082,-0.2929687 2.63671,-0.46875 z m 8.23243,-3.5976559 c 0.31933,0 0.58886,0.114257 0.80859,0.339843 0.22558,0.228516 0.33984,0.498047 0.33984,0.8085941 0,0.3222657 -0.11426,0.5947266 -0.33984,0.8203125 -0.21973,0.2197266 -0.48926,0.328125 -0.80859,0.328125 -0.31348,0 -0.58301,-0.1083984 -0.8086,-0.328125 -0.21973,-0.2255859 -0.32812,-0.4980468 -0.32812,-0.8203125 0,-0.3105471 0.10839,-0.5800781 0.32812,-0.8085941 0.2168,-0.225586 0.48633,-0.339843 0.8086,-0.339843 z m 0.48046,3.5976559 -1.59375,5.5664062 c -0.0937,0.3222657 -0.14062,0.5273438 -0.14062,0.6210938 0,0.064453 0.0234,0.11718748 0.0703,0.16406248 0.0469,0.046875 0.0967,0.0703125 0.15235,0.0703125 0.085,0 0.17578,-0.0380859 0.26953,-0.1171875 0.23437,-0.18749998 0.51562,-0.53320308 0.84375,-1.04296878 l 0.25781,0.1523438 c -0.78223,1.3769531 -1.61719,2.06249998 -2.50781,2.06249998 -0.33692,0 -0.60645,-0.09375 -0.8086,-0.28125 -0.20508,-0.19335938 -0.30468,-0.43652344 -0.30468,-0.7265625 0,-0.19335938 0.0469,-0.43945308 0.14062,-0.73828128 l 1.07813,-3.7382812 c 0.10839,-0.3574219 0.16406,-0.6328125 0.16406,-0.8203125 0,-0.1083985 -0.0527,-0.2050781 -0.15235,-0.2929688 -0.10254,-0.09375 -0.24023,-0.140625 -0.41015,-0.140625 -0.0791,0 -0.17285,0.00586 -0.28125,0.011719 l 0.10547,-0.3164063 2.64843,-0.4335937 z m 2.8125,4.3242187 c -0.0469,0.3369141 -0.0703,0.6152344 -0.0703,0.8320313 0,0.3925781 0.11133,0.703125 0.33985,0.9375 0.22558,0.23437498 0.52734,0.35156248 0.90234,0.35156248 0.36621,0 0.73242,-0.0849609 1.10156,-0.25781248 0.36621,-0.178711 0.79102,-0.4921875 1.27735,-0.9375 l 0.23437,0.2109375 c -0.59473,0.7265625 -1.17773,1.24804685 -1.74609,1.55859373 -0.57129,0.3046875 -1.20118,0.45703125 -1.88672,0.45703125 -0.87598,0 -1.48242,-0.20800782 -1.81641,-0.62109375 -0.32812,-0.421875 -0.49219,-0.90527343 -0.49219,-1.45312503 0,-0.8583984 0.24903,-1.7138672 0.75,-2.5664062 0.49805,-0.8583985 1.17481,-1.546875 2.02735,-2.0625 0.8584,-0.515625 1.72265,-0.7734375 2.58984,-0.7734375 0.43652,0 0.76465,0.1054687 0.98438,0.3164062 0.22558,0.2109375 0.33984,0.4746094 0.33984,0.7851563 0,0.383789 -0.11133,0.7558594 -0.32812,1.1132812 -0.29883,0.4921875 -0.67676,0.890625 -1.13672,1.1953125 -0.46289,0.2988282 -0.97852,0.5244141 -1.54688,0.6796875 -0.375,0.1025391 -0.88476,0.1816407 -1.52344,0.234375 z m 0.0703,-0.4101562 c 0.45117,-0.070312 0.80273,-0.1640625 1.05468,-0.28125 0.25782,-0.1171875 0.50684,-0.3046875 0.75,-0.5625 0.24024,-0.2578125 0.45118,-0.5800781 0.63282,-0.9726563 0.17871,-0.3984375 0.26953,-0.7675781 0.26953,-1.1132812 0,-0.140625 -0.044,-0.2519531 -0.12891,-0.3398438 -0.0791,-0.084961 -0.18164,-0.1289062 -0.30469,-0.1289062 -0.25195,0 -0.5332,0.1757812 -0.84375,0.5273437 -0.58007,0.6328125 -1.05468,1.5908203 -1.42968,2.8710938 z m 9.49804,-3.46875 2.58985,-0.4453125 h 0.46875 l -0.35157,1.2773437 c 0.54493,-0.4980468 0.99024,-0.8349609 1.33594,-1.0078125 0.35156,-0.1787109 0.69727,-0.2695312 1.04297,-0.2695312 0.49219,0 0.87012,0.1933594 1.13672,0.5742187 0.26367,0.375 0.39844,0.8378907 0.39844,1.3828125 0,1.5 -0.52149,2.8300782 -1.5586,3.984375 -0.91406,1.02539065 -1.91601,1.53515628 -3,1.53515628 -0.19629,0 -0.36035,-0.0205078 -0.49218,-0.0585938 -0.13477,-0.0410156 -0.3252,-0.12304688 -0.57422,-0.24609375 l -0.41016,1.40624997 c -0.14062,0.515625 -0.21094,0.9052734 -0.21094,1.171875 0,0.1640625 0.0527,0.2929687 0.16407,0.3867187 0.11718,0.099609 0.38671,0.1875 0.80859,0.2578125 l -0.0703,0.28125 h -4.20703 l 0.082,-0.28125 c 0.33691,-0.017578 0.61523,-0.1259765 0.83203,-0.328125 0.21972,-0.2050781 0.42773,-0.6416015 0.62109,-1.3125 l 1.91016,-6.5742187 c 0.14062,-0.4921875 0.21094,-0.8378906 0.21094,-1.0429688 0,-0.084961 -0.0234,-0.1582031 -0.0703,-0.2226562 -0.041,-0.061523 -0.10254,-0.1054688 -0.1875,-0.1289063 -0.0791,-0.023437 -0.2666,-0.035156 -0.5625,-0.035156 z m 1.21875,5.99999998 c 0.15528,0.2578125 0.2959,0.43066406 0.42188,0.515625 0.12304,0.0878906 0.26953,0.12890625 0.43359,0.12890625 0.16992,0 0.33399,-0.0410156 0.49219,-0.12890625 0.15527,-0.09375 0.35156,-0.27539063 0.58594,-0.55078125 0.23437,-0.28125003 0.45996,-0.63574223 0.67968,-1.06640623 0.2168,-0.4365235 0.38965,-0.928711 0.51563,-1.4765625 0.13184,-0.553711 0.19922,-1.0810547 0.19922,-1.5820313 0,-0.3984375 -0.0703,-0.6855468 -0.21094,-0.8671875 -0.14062,-0.1875 -0.31641,-0.28125 -0.52734,-0.28125 -0.18164,0 -0.35157,0.046875 -0.51563,0.140625 -0.23437,0.1347657 -0.50976,0.3867188 -0.82031,0.7617188 z m 11.08301,-6.44531248 c 0.41309,0 0.79981,0.099609 1.16016,0.2929687 0.36621,0.1875 0.63867,0.4541016 0.82031,0.796875 0.1875,0.3369141 0.28125,0.7089844 0.28125,1.1132813 0,0.852539 -0.24023,1.6992187 -0.71484,2.5429687 -0.46875,0.84375 -1.08985,1.51171878 -1.86329,2.00390628 -0.76757,0.48632812 -1.54101,0.7265625 -2.32031,0.7265625 -0.71191,0 -1.26269,-0.2109375 -1.65234,-0.6328125 -0.39258,-0.421875 -0.58594,-0.94042968 -0.58594,-1.55859378 0,-0.7177734 0.14356,-1.3945312 0.43359,-2.0273437 0.28711,-0.6386719 0.65625,-1.1953125 1.10157,-1.6640625 0.45117,-0.46875 0.96679,-0.8496094 1.54687,-1.1484375 0.57715,-0.2958985 1.17481,-0.4453125 1.79297,-0.4453125 z m -0.31641,0.421875 c -0.28125,0 -0.51269,0.079102 -0.6914,0.234375 -0.36914,0.328125 -0.78223,1.0986328 -1.24219,2.3085937 -0.4541,1.2041016 -0.67969,2.2939453 -0.67969,3.2695313 0,0.23437498 0.0703,0.43066404 0.21094,0.58593748 0.14649,0.15820312 0.32227,0.234375 0.52734,0.234375 0.20215,0 0.38086,-0.0615234 0.53907,-0.1875 0.22558,-0.1875 0.50683,-0.60351563 0.84375,-1.25390628 0.33398,-0.65625 0.60937,-1.3769531 0.82031,-2.1679687 0.21094,-0.796875 0.31641,-1.5234375 0.31641,-2.1796875 0,-0.2636719 -0.0674,-0.4716797 -0.19922,-0.6210938 -0.12598,-0.1464843 -0.27539,-0.2226562 -0.44532,-0.2226562 z m 11.8125,-4.0195309 -2.54296,8.7539059 c -0.16407,0.5478515 -0.2461,0.8789062 -0.2461,0.9960937 0,0.055664 0.0176,0.10546878 0.0586,0.15234378 0.0469,0.0410156 0.0937,0.0585938 0.14062,0.0585938 0.085,0 0.1875,-0.0410156 0.30469,-0.12890628 0.1875,-0.1464844 0.42187,-0.4248047 0.70312,-0.8320313 l 0.28125,0.140625 c -0.73535,1.28906258 -1.54394,1.93359383 -2.42578,1.93359383 -0.31347,0 -0.55664,-0.0820313 -0.72656,-0.24609375 -0.17285,-0.1640625 -0.25781,-0.375 -0.25781,-0.6328125 0,-0.24023438 0.0703,-0.59179688 0.21093,-1.05468758 l 0.23438,-0.796875 c -0.65625,1.1572266 -1.22461,1.92773445 -1.69922,2.30859383 -0.36914,0.28125 -0.72363,0.421875 -1.06641,0.421875 -0.39257,0 -0.72363,-0.16113282 -0.99609,-0.48046875 -0.2666,-0.31933594 -0.39844,-0.78515628 -0.39844,-1.39453128 0,-0.7734375 0.16993,-1.538086 0.51563,-2.296875 0.34277,-0.7558594 0.74121,-1.3857422 1.19531,-1.8867188 0.45117,-0.5068359 0.88184,-0.8701172 1.28906,-1.0898437 0.41309,-0.2167969 0.81446,-0.328125 1.20703,-0.328125 0.21094,0 0.39258,0.043945 0.55079,0.1289062 0.15527,0.087891 0.33398,0.2431641 0.53906,0.46875 l 0.58594,-1.9453125 c 0.14062,-0.4833984 0.21093,-0.8261718 0.21093,-1.03125 0,-0.1230468 -0.0469,-0.2285156 -0.14062,-0.3164062 -0.0937,-0.09375 -0.21973,-0.1406254 -0.375,-0.1406254 -0.0791,0 -0.17285,0.0088 -0.28125,0.02344 l 0.082,-0.304688 2.57812,-0.480468 z m -3.44531,4.9570309 c 0,-0.3105469 -0.0645,-0.5419922 -0.1875,-0.6914063 -0.12597,-0.1464843 -0.27539,-0.2226562 -0.44531,-0.2226562 -0.16406,0 -0.3457,0.087891 -0.53906,0.2578125 -0.36914,0.336914 -0.75586,1.0078125 -1.16016,2.015625 -0.39844,1.0078125 -0.59766,1.8574219 -0.59766,2.5429687 0,0.2519532 0.041,0.4394532 0.12891,0.5625 0.085,0.1171875 0.18164,0.1757813 0.29297,0.1757813 0.1875,0 0.36914,-0.082031 0.55078,-0.2460938 0.44531,-0.3984375 0.88184,-1.0810547 1.3125,-2.0507812 0.42774,-0.9667969 0.64453,-1.7490235 0.64453,-2.34375 z m 7.79297,-4.9570309 -2.58984,8.8124996 c -0.15821,0.5244141 -0.23438,0.8496094 -0.23438,0.9726563 0,0.0703125 0.0234,0.12890623 0.0703,0.17578123 0.0469,0.046875 0.0937,0.0703125 0.14063,0.0703125 0.0937,0 0.18164,-0.0351563 0.26953,-0.10546875 0.24902,-0.20214848 0.52734,-0.55078128 0.83203,-1.04296878 l 0.30469,0.140625 c -0.49219,0.796875 -0.97852,1.3652344 -1.45313,1.69921878 -0.32812,0.234375 -0.67968,0.3515625 -1.05468,0.3515625 -0.34571,0 -0.61817,-0.09375 -0.82032,-0.28125 -0.20507,-0.1875 -0.30468,-0.41015625 -0.30468,-0.66796875 0,-0.19335938 0.0615,-0.50683593 0.1875,-0.93750003 l 2.10937,-7.2070312 c 0.11719,-0.3984375 0.17578,-0.6591797 0.17578,-0.7851563 0,-0.1230468 -0.0557,-0.2255859 -0.16406,-0.3046875 -0.14941,-0.09961 -0.37207,-0.1435546 -0.66797,-0.1289066 l 0.0937,-0.292968 2.625,-0.46875 z m 1.81641,7.9218746 c -0.0469,0.3369141 -0.0703,0.6152344 -0.0703,0.8320313 0,0.3925781 0.11133,0.703125 0.33985,0.9375 0.22558,0.23437498 0.52734,0.35156248 0.90234,0.35156248 0.36621,0 0.73242,-0.0849609 1.10156,-0.25781248 0.36622,-0.178711 0.79102,-0.4921875 1.27735,-0.9375 l 0.23437,0.2109375 c -0.59472,0.7265625 -1.17773,1.24804685 -1.74609,1.55859373 -0.57129,0.3046875 -1.20117,0.45703125 -1.88672,0.45703125 -0.87598,0 -1.48242,-0.20800782 -1.81641,-0.62109375 -0.32812,-0.421875 -0.49218,-0.90527343 -0.49218,-1.45312503 0,-0.8583984 0.24902,-1.7138672 0.75,-2.5664062 0.49804,-0.8583985 1.1748,-1.546875 2.02734,-2.0625 0.8584,-0.515625 1.72266,-0.7734375 2.58984,-0.7734375 0.43653,0 0.76465,0.1054687 0.98438,0.3164062 0.22559,0.2109375 0.33984,0.4746094 0.33984,0.7851563 0,0.383789 -0.11132,0.7558594 -0.32812,1.1132812 -0.29883,0.4921875 -0.67676,0.890625 -1.13672,1.1953125 -0.46289,0.2988282 -0.97852,0.5244141 -1.54688,0.6796875 -0.375,0.1025391 -0.88476,0.1816407 -1.52343,0.234375 z m 0.0703,-0.4101562 c 0.45117,-0.070312 0.80273,-0.1640625 1.05469,-0.28125 0.25781,-0.1171875 0.50683,-0.3046875 0.75,-0.5625 0.24023,-0.2578125 0.45117,-0.5800781 0.63281,-0.9726563 0.17871,-0.3984375 0.26953,-0.7675781 0.26953,-1.1132812 0,-0.140625 -0.0439,-0.2519531 -0.12891,-0.3398438 -0.0791,-0.084961 -0.18164,-0.1289062 -0.30468,-0.1289062 -0.25196,0 -0.53321,0.1757812 -0.84375,0.5273437 -0.58008,0.6328125 -1.05469,1.5908203 -1.42969,2.8710938 z m 10.7373,-3.4335938 h 2.07422 l -0.24609,0.8554688 h -1.07813 c 0.16407,0.3134765 0.2461,0.6064453 0.2461,0.8789062 0,0.4775391 -0.12891,0.9199219 -0.38672,1.3242188 -0.25781,0.3984375 -0.6416,0.7207031 -1.14844,0.9609375 -0.50097,0.234375 -1.06055,0.3515625 -1.67578,0.3515625 -0.1582,0 -0.33398,-0.011719 -0.52734,-0.035156 -0.19629,-0.023437 -0.41016,-0.052734 -0.64453,-0.09375 -0.34571,0.1728516 -0.55957,0.3134766 -0.64454,0.421875 -0.0645,0.070312 -0.0937,0.1464844 -0.0937,0.2226563 0,0.09375 0.0381,0.1757812 0.11719,0.2460937 0.13184,0.1171875 0.33106,0.2080078 0.59766,0.2695313 1.06054,0.2285156 1.76367,0.41015623 2.10937,0.55078123 0.45996,0.19628906 0.8086,0.4453125 1.04297,0.75 0.24024,0.29589843 0.36328,0.65917968 0.36328,1.08984377 0,0.6474609 -0.30175,1.2128906 -0.90234,1.6992187 -0.60352,0.4921875 -1.5293,0.7382813 -2.77734,0.7382813 -1.27442,0 -2.20899,-0.2080078 -2.80079,-0.6210938 -0.43652,-0.3046875 -0.65625,-0.665039 -0.65625,-1.078125 0,-0.3222656 0.14649,-0.618164 0.4336,-0.89062497 0.28125,-0.27539063 0.88476,-0.51269532 1.8164,-0.71484375 -0.31347,-0.17871094 -0.52441,-0.34277344 -0.63281,-0.4921875 -0.1582,-0.19335938 -0.23437,-0.3984375 -0.23437,-0.609375 0,-0.35156248 0.14062,-0.65917968 0.42187,-0.92578128 0.28125,-0.2636718 0.75,-0.5302734 1.40625,-0.796875 -0.50976,-0.2021484 -0.8789,-0.4628906 -1.11328,-0.7851562 -0.22852,-0.319336 -0.33984,-0.6914063 -0.33984,-1.1132813 0,-0.4599609 0.13476,-0.8935547 0.41015,-1.3007812 0.28125,-0.4042969 0.68555,-0.7382813 1.21875,-0.9960938 0.53028,-0.2578125 1.14258,-0.3867187 1.83985,-0.3867187 0.44531,0 0.83789,0.052734 1.18359,0.1523437 0.17871,0.055664 0.38672,0.1640625 0.62109,0.328125 z m -1.64062,-0.09375 c -0.25781,0 -0.47461,0.082031 -0.64453,0.2460938 -0.28125,0.2578125 -0.52735,0.6884765 -0.73828,1.2890625 -0.21094,0.6035156 -0.31641,1.1689453 -0.31641,1.6992187 0,0.2578125 0.0732,0.4628907 0.22266,0.609375 0.14648,0.1494141 0.33105,0.2226563 0.55078,0.2226563 0.21094,0 0.39258,-0.073242 0.55078,-0.2226563 0.2959,-0.28125 0.55371,-0.7324218 0.77344,-1.359375 0.21679,-0.6328125 0.32812,-1.2070312 0.32812,-1.7226562 0,-0.225586 -0.0703,-0.4101563 -0.21094,-0.5507813 -0.14062,-0.140625 -0.31347,-0.2109375 -0.51562,-0.2109375 z m -2.69531,7.19531253 c -0.50098,0.19335937 -0.84082,0.40136718 -1.01953,0.62109375 -0.18165,0.22558592 -0.26954,0.47167972 -0.26954,0.73828122 0,0.3339844 0.17872,0.6386719 0.53907,0.9140625 0.35742,0.272461 0.92871,0.4101563 1.71093,0.4101563 0.64747,0 1.11622,-0.1230469 1.40625,-0.3632813 0.2959,-0.234375 0.44532,-0.5097656 0.44532,-0.8203125 0,-0.290039 -0.1377,-0.524414 -0.41016,-0.703125 -0.2666,-0.17285154 -0.7793,-0.35742185 -1.53516,-0.55078122 -0.35156,-0.09375 -0.6416,-0.17578125 -0.86718,-0.24609375 z m 13.82812,-7.46484373 -1.52344,5.1914062 -0.15234,0.6445313 c -0.0176,0.079101 -0.0234,0.1347656 -0.0234,0.1640625 0,0.064453 0.0176,0.1171875 0.0586,0.16406248 0.0469,0.046875 0.0937,0.0703125 0.14062,0.0703125 0.1084,0 0.26074,-0.0820313 0.45703,-0.24609378 0.0762,-0.070312 0.26367,-0.3105468 0.5625,-0.7265625 l 0.26953,0.140625 c -0.36914,0.6796875 -0.76171,1.1777344 -1.18359,1.48828128 -0.41602,0.31054687 -0.86426,0.46875 -1.34766,0.46875 -0.30468,0 -0.53613,-0.0791016 -0.6914,-0.234375 -0.15821,-0.15527344 -0.23438,-0.3515625 -0.23438,-0.5859375 0,-0.20214844 0.085,-0.58007808 0.25782,-1.13671878 l 0.1875,-0.6328125 c -0.60938,1.0400391 -1.19239,1.77832034 -1.7461,2.21484378 -0.32226,0.24902343 -0.66504,0.375 -1.03125,0.375 -0.48633,0 -0.83203,-0.19628907 -1.04297,-0.5859375 -0.21093,-0.3984375 -0.3164,-0.84667968 -0.3164,-1.34765628 0,-0.7324218 0.22265,-1.5732422 0.66797,-2.5195312 0.45117,-0.9521485 1.04296,-1.7167969 1.76953,-2.296875 0.60058,-0.4833985 1.16308,-0.7265625 1.6875,-0.7265625 0.2959,0 0.53027,0.087891 0.70312,0.2578125 0.17871,0.1728515 0.31055,0.4804687 0.39844,0.9257812 l 0.28125,-0.9609375 z m -2.50781,1.4765625 c 0,-0.421875 -0.0644,-0.7265625 -0.1875,-0.9140625 -0.0937,-0.1230469 -0.22266,-0.1875 -0.38672,-0.1875 -0.16406,0 -0.33398,0.079102 -0.50391,0.234375 -0.35156,0.3222656 -0.73242,0.9785156 -1.13671,1.96875 -0.39844,0.984375 -0.59766,1.836914 -0.59766,2.5546875 0,0.28125 0.041,0.4863281 0.12891,0.609375 0.0937,0.1171875 0.19335,0.1757812 0.30468,0.1757812 0.23438,0 0.47168,-0.1347656 0.71485,-0.4101562 0.34277,-0.3808594 0.65039,-0.8554688 0.92578,-1.4179688 0.49219,-0.9755859 0.73828,-1.8457031 0.73828,-2.6132812 z m 12.07031,-1.59375 c 0.41309,0 0.79981,0.099609 1.16016,0.2929687 0.36621,0.1875 0.63867,0.4541016 0.82031,0.796875 0.1875,0.3369141 0.28125,0.7089844 0.28125,1.1132813 0,0.852539 -0.24023,1.6992187 -0.71484,2.5429687 -0.46875,0.84375 -1.08985,1.51171878 -1.86328,2.00390628 -0.76758,0.48632812 -1.54102,0.7265625 -2.32032,0.7265625 -0.71191,0 -1.26269,-0.2109375 -1.65234,-0.6328125 -0.39258,-0.421875 -0.58594,-0.94042968 -0.58594,-1.55859378 0,-0.7177734 0.14356,-1.3945312 0.4336,-2.0273437 0.2871,-0.6386719 0.65625,-1.1953125 1.10156,-1.6640625 0.45117,-0.46875 0.96679,-0.8496094 1.54687,-1.1484375 0.57715,-0.2958985 1.17481,-0.4453125 1.79297,-0.4453125 z m -0.3164,0.421875 c -0.28125,0 -0.5127,0.079102 -0.69141,0.234375 -0.36914,0.328125 -0.78223,1.0986328 -1.24219,2.3085937 -0.4541,1.2041016 -0.67969,2.2939453 -0.67969,3.2695313 0,0.23437498 0.0703,0.43066404 0.21094,0.58593748 0.14649,0.15820312 0.32227,0.234375 0.52735,0.234375 0.20214,0 0.38085,-0.0615234 0.53906,-0.1875 0.22558,-0.1875 0.50683,-0.60351563 0.84375,-1.25390628 0.33398,-0.65625 0.60937,-1.3769531 0.82031,-2.1679687 0.21094,-0.796875 0.31641,-1.5234375 0.31641,-2.1796875 0,-0.2636719 -0.0674,-0.4716797 -0.19922,-0.6210938 -0.12598,-0.1464843 -0.27539,-0.2226562 -0.44531,-0.2226562 z m 9.0791,4.9453125 0.23437,0.2109375 c -0.50097,0.609375 -0.99609,1.05468748 -1.48828,1.33593748 -0.65625,0.375 -1.33301,0.5625 -2.02734,0.5625 -0.46875,0 -0.8877,-0.10253907 -1.25391,-0.3046875 -0.36035,-0.20214844 -0.62695,-0.48339844 -0.79687,-0.84375 -0.17286,-0.35742188 -0.25782,-0.72949218 -0.25782,-1.11328128 0,-0.8583984 0.22852,-1.6992187 0.69141,-2.5195312 0.46875,-0.8261719 1.08105,-1.4824219 1.83984,-1.96875 0.76465,-0.4833985 1.51465,-0.7265625 2.25,-0.7265625 0.58594,0 1.02539,0.1347656 1.32422,0.3984375 0.2959,0.2578125 0.44531,0.5800781 0.44531,0.9609375 0,0.3515625 -0.11425,0.6533203 -0.33984,0.9023437 -0.21973,0.2431641 -0.46582,0.3632813 -0.73828,0.3632813 -0.24316,0 -0.44531,-0.076172 -0.60938,-0.234375 -0.1582,-0.1552735 -0.23437,-0.3427735 -0.23437,-0.5625 0,-0.28125 0.14062,-0.5214844 0.42187,-0.7265625 0.19336,-0.1464844 0.29297,-0.2753906 0.29297,-0.3867188 0,-0.09375 -0.041,-0.1669922 -0.11718,-0.2226562 -0.10254,-0.084961 -0.24024,-0.1289063 -0.41016,-0.1289063 -0.43945,0 -0.84961,0.1757813 -1.23047,0.5273438 -0.51562,0.46875 -0.91113,1.0664062 -1.18359,1.7929687 -0.2666,0.7207032 -0.39844,1.4003907 -0.39844,2.0390625 0,0.515625 0.13477,0.9257813 0.41016,1.2304688 0.28125,0.30468748 0.60937,0.45703123 0.98437,0.45703123 0.33399,0 0.69727,-0.0849609 1.08984,-0.25781253 0.38965,-0.1699218 0.75586,-0.4335937 1.10157,-0.7851562 z m 3.61523,-1.0429688 c -0.0469,0.3369141 -0.0703,0.6152344 -0.0703,0.8320313 0,0.3925781 0.11133,0.703125 0.33984,0.9375 0.22559,0.23437498 0.52735,0.35156248 0.90235,0.35156248 0.36621,0 0.73242,-0.0849609 1.10156,-0.25781248 0.36621,-0.178711 0.79101,-0.4921875 1.27734,-0.9375 l 0.23438,0.2109375 c -0.59473,0.7265625 -1.17774,1.24804685 -1.7461,1.55859373 -0.57129,0.3046875 -1.20117,0.45703125 -1.88671,0.45703125 -0.87598,0 -1.48243,-0.20800782 -1.81641,-0.62109375 -0.32813,-0.421875 -0.49219,-0.90527343 -0.49219,-1.45312503 0,-0.8583984 0.24902,-1.7138672 0.75,-2.5664062 0.49805,-0.8583985 1.17481,-1.546875 2.02735,-2.0625 0.85839,-0.515625 1.72265,-0.7734375 2.58984,-0.7734375 0.43652,0 0.76465,0.1054687 0.98437,0.3164062 0.22559,0.2109375 0.33985,0.4746094 0.33985,0.7851563 0,0.383789 -0.11133,0.7558594 -0.32813,1.1132812 -0.29883,0.4921875 -0.67676,0.890625 -1.13672,1.1953125 -0.46289,0.2988282 -0.97851,0.5244141 -1.54687,0.6796875 -0.375,0.1025391 -0.88477,0.1816407 -1.52344,0.234375 z m 0.0703,-0.4101562 c 0.45118,-0.070312 0.80274,-0.1640625 1.05469,-0.28125 0.25781,-0.1171875 0.50684,-0.3046875 0.75,-0.5625 0.24024,-0.2578125 0.45117,-0.5800781 0.63281,-0.9726563 0.17871,-0.3984375 0.26954,-0.7675781 0.26954,-1.1132812 0,-0.140625 -0.0439,-0.2519531 -0.12891,-0.3398438 -0.0791,-0.084961 -0.18164,-0.1289062 -0.30469,-0.1289062 -0.25195,0 -0.5332,0.1757812 -0.84375,0.5273437 -0.58008,0.6328125 -1.05469,1.5908203 -1.42969,2.8710938 z m 8.81543,-3.9140625 -0.97265,3.3632812 c 0.65625,-0.984375 1.14258,-1.6552734 1.46484,-2.015625 0.47461,-0.5214843 0.88477,-0.8789062 1.23047,-1.0664062 0.34277,-0.1875 0.66797,-0.28125 0.97266,-0.28125 0.26367,0 0.49511,0.102539 0.6914,0.3046875 0.19336,0.2050781 0.29297,0.4658203 0.29297,0.7851562 0,0.2900391 -0.0644,0.6445313 -0.1875,1.0664063 l -1.00781,3.3398437 c -0.0791,0.2900391 -0.11719,0.4804688 -0.11719,0.5742188 0,0.046875 0.0176,0.09375 0.0586,0.140625 0.0381,0.041016 0.0762,0.0585937 0.11719,0.0585937 0.0527,0 0.1084,-0.0175781 0.16406,-0.0585937 0.17872,-0.1552735 0.36329,-0.3691406 0.55079,-0.6445313 0.0469,-0.076172 0.12304,-0.1875 0.23437,-0.328125 l 0.29297,0.1757813 c -0.76758,1.28906248 -1.57031,1.93359373 -2.41406,1.93359373 -0.32227,0 -0.57422,-0.08203125 -0.76172,-0.24609375 -0.18164,-0.16992188 -0.26953,-0.38085938 -0.26953,-0.6328125 0,-0.21679688 0.0615,-0.54199218 0.1875,-0.97265628 l 0.97265,-3.3398437 c 0.0703,-0.2167969 0.10547,-0.3808594 0.10547,-0.4921875 0,-0.052734 -0.0234,-0.099609 -0.0703,-0.140625 -0.0469,-0.046875 -0.10254,-0.070312 -0.16406,-0.070312 -0.19629,0 -0.4336,0.1347656 -0.71485,0.3984375 -0.72656,0.6972656 -1.42675,1.7226562 -2.09765,3.0820312 l -0.63282,2.320312525 h -2.0039 l 1.46484,-5.027343725 c 0.14063,-0.4921875 0.21094,-0.84375 0.21094,-1.0546875 0,-0.084961 -0.0205,-0.1552735 -0.0586,-0.2109375 -0.041,-0.061523 -0.11133,-0.1083985 -0.21094,-0.140625 -0.0937,-0.038086 -0.26953,-0.058594 -0.52735,-0.058594 l 0.082,-0.2929687 2.63671,-0.46875 z m 8.23243,-3.5976559 c 0.31933,0 0.58886,0.114257 0.80859,0.339843 0.22559,0.228516 0.33984,0.498047 0.33984,0.8085941 0,0.3222657 -0.11425,0.5947266 -0.33984,0.8203125 -0.21973,0.2197266 -0.48926,0.328125 -0.80859,0.328125 -0.31348,0 -0.58301,-0.1083984 -0.8086,-0.328125 -0.21972,-0.2255859 -0.32812,-0.4980468 -0.32812,-0.8203125 0,-0.3105471 0.1084,-0.5800781 0.32812,-0.8085941 0.2168,-0.225586 0.48633,-0.339843 0.8086,-0.339843 z m 0.48046,3.5976559 -1.59375,5.5664062 c -0.0937,0.3222657 -0.14062,0.5273438 -0.14062,0.6210938 0,0.064453 0.0234,0.11718748 0.0703,0.16406248 0.0469,0.046875 0.0967,0.0703125 0.15235,0.0703125 0.085,0 0.17578,-0.0380859 0.26953,-0.1171875 0.23437,-0.18749998 0.51562,-0.53320308 0.84375,-1.04296878 l 0.25781,0.1523438 c -0.78223,1.3769531 -1.61719,2.06249998 -2.50781,2.06249998 -0.33692,0 -0.60645,-0.09375 -0.8086,-0.28125 -0.20508,-0.19335938 -0.30468,-0.43652344 -0.30468,-0.7265625 0,-0.19335938 0.0469,-0.43945308 0.14062,-0.73828128 l 1.07813,-3.7382812 c 0.10839,-0.3574219 0.16406,-0.6328125 0.16406,-0.8203125 0,-0.1083985 -0.0527,-0.2050781 -0.15235,-0.2929688 -0.10253,-0.09375 -0.24023,-0.140625 -0.41015,-0.140625 -0.0791,0 -0.17285,0.00586 -0.28125,0.011719 l 0.10547,-0.3164063 2.64843,-0.4335937 z m 2.88868,4.3242187 c -0.0469,0.3369141 -0.0703,0.6152344 -0.0703,0.8320313 0,0.3925781 0.11133,0.703125 0.33985,0.9375 0.22558,0.23437498 0.52734,0.35156248 0.90234,0.35156248 0.36621,0 0.73242,-0.0849609 1.10156,-0.25781248 0.36621,-0.178711 0.79102,-0.4921875 1.27735,-0.9375 l 0.23437,0.2109375 c -0.59472,0.7265625 -1.17773,1.24804685 -1.74609,1.55859373 -0.57129,0.3046875 -1.20117,0.45703125 -1.88672,0.45703125 -0.87598,0 -1.48242,-0.20800782 -1.81641,-0.62109375 -0.32812,-0.421875 -0.49218,-0.90527343 -0.49218,-1.45312503 0,-0.8583984 0.24902,-1.7138672 0.75,-2.5664062 0.49804,-0.8583985 1.1748,-1.546875 2.02734,-2.0625 0.8584,-0.515625 1.72266,-0.7734375 2.58984,-0.7734375 0.43653,0 0.76465,0.1054687 0.98438,0.3164062 0.22558,0.2109375 0.33984,0.4746094 0.33984,0.7851563 0,0.383789 -0.11133,0.7558594 -0.32812,1.1132812 -0.29883,0.4921875 -0.67676,0.890625 -1.13672,1.1953125 -0.46289,0.2988282 -0.97852,0.5244141 -1.54688,0.6796875 -0.375,0.1025391 -0.88476,0.1816407 -1.52343,0.234375 z m 0.0703,-0.4101562 c 0.45117,-0.070312 0.80273,-0.1640625 1.05469,-0.28125 0.25781,-0.1171875 0.50683,-0.3046875 0.75,-0.5625 0.24023,-0.2578125 0.45117,-0.5800781 0.63281,-0.9726563 0.17871,-0.3984375 0.26953,-0.7675781 0.26953,-1.1132812 0,-0.140625 -0.044,-0.2519531 -0.12891,-0.3398438 -0.0791,-0.084961 -0.18164,-0.1289062 -0.30468,-0.1289062 -0.25196,0 -0.53321,0.1757812 -0.84375,0.5273437 -0.58008,0.6328125 -1.05469,1.5908203 -1.42969,2.8710938 z m 2.73633,6.3867187 0.14062,-0.421875 c 0.60352,-0.430664 1.11035,-0.9023437 1.52344,-1.4179687 0.41309,-0.50976565 0.83789,-1.21289065 1.27734,-2.12109377 0.43653,-0.90527343 0.79102,-1.87500003 1.06641,-2.90625003 0.35742,-1.3359375 0.53906,-2.5898437 0.53906,-3.7617187 0,-0.8671875 -0.20801,-1.8076172 -0.62109,-2.8242189 l 0.1289,-0.445312 c 1.39747,1.8749996 2.09766,3.7470699 2.09766,5.6132809 0,1.078125 -0.23437,2.1445312 -0.70312,3.1992187 -0.54786,1.22753909 -1.36817,2.31445315 -2.46094,3.2695313 -0.8291,0.7265625 -1.82227,1.3300781 -2.98828,1.8164062 z m 0,0"
         style="fill:#000000;fill-opacity:1;fill-rule:nonzero;stroke:none" />
    </g>
  </g>
</svg>
