<?xml version="1.0" encoding="UTF-8" standalone="no"?>
<!-- Created with Inkscape (http://www.inkscape.org/) -->

<svg
   version="1.1"
   id="svg1"
   width="794.55066"
   height="1123.6533"
   viewBox="0 0 794.55066 1123.6533"
   sodipodi:docname="LigaMatematycznaMatuskiego_Gim_Zestaw5_2013_2014_page0.pdf"
   xmlns:inkscape="http://www.inkscape.org/namespaces/inkscape"
   xmlns:sodipodi="http://sodipodi.sourceforge.net/DTD/sodipodi-0.dtd"
   xmlns="http://www.w3.org/2000/svg"
   xmlns:svg="http://www.w3.org/2000/svg">
  <defs
     id="defs1" />
  <sodipodi:namedview
     id="namedview1"
     pagecolor="#ffffff"
     bordercolor="#000000"
     borderopacity="0.25"
     inkscape:showpageshadow="2"
     inkscape:pageopacity="0.0"
     inkscape:pagecheckerboard="0"
     inkscape:deskcolor="#d1d1d1">
    <inkscape:page
       x="0"
       y="0"
       inkscape:label="1"
       id="page1"
       width="794.55066"
       height="1123.6533"
       margin="0"
       bleed="0" />
  </sodipodi:namedview>
  <g
     id="g1"
     inkscape:groupmode="layer"
     inkscape:label="1">
    <g
       id="g2"
       aria-label="LIGAMATEMATYCZNA&#10;im.ZdzisªawaMatuskiego&#10;FINA&#10;15kwietnia2014&#10;GIMNAZJUM&#10;ZADANIE1.&#10;Wpewnejklasiejest31uczniów.Jedenznichzrobiªwdyktandzie13bª¦dów,wszyscypozostali&#10;mniej.Wyka»,»eprzynajmniejtrzechuczniówzrobiªopotylesamobª¦dów.&#10;ZADANIE2.&#10;Kwadratpodzielononadwaprostok¡ty,którychstosunekobwodówjestrówny5:4.Wyznacz&#10;stosunekpóltychprostok¡tów.&#10;ZADANIE3.&#10;Je»eliwpewnejliczbieskre±limyostatni¡cyfr¦,którajestrówna7,toliczbazmniejszysi¦&#10;o31156.Jakatoliczba?&#10;ZADANIE4.&#10;Uzasadnij,»edladowolnychliczbrzeczywistycha,b,cspeªnionajestnierówno±¢&#10;2a&#10;2&#10;+b&#10;2&#10;+c&#10;2&#10;&gt;2a(b+c).&#10;ZADANIE5.&#10;redniwiekbabci,dziadkaisiedmiuwnucz¡tjestrówny28lat,natomiast±redniwieksiedmiu&#10;wnucz¡tjestrówny15lat.Ilelatmadziadek,je»elijeststarszyodbabciotrzylata?"
       transform="matrix(1.3333333,0,0,1.3333333,274.724,56.069333)">
      <path
         id="path2"
         d="m -40.231477,133.52124 c -0.210937,0.0117 -0.257812,0.0234 -0.257812,0.12891 0,0.11719 0.05859,0.11719 0.28125,0.11719 h 0.550781 c 1.007813,0 1.464844,0.84375 1.464844,1.99218 0,1.5586 -0.808594,1.98047 -1.394531,1.98047 -0.574219,0 -1.558594,-0.28125 -1.898438,-1.0664 0.375,0.0586 0.726563,-0.15235 0.726563,-0.58594 0,-0.33985 -0.257813,-0.58594 -0.585938,-0.58594 -0.292969,0 -0.597656,0.16406 -0.597656,0.62109 0,1.06641 1.066406,1.9336 2.390625,1.9336 1.417969,0 2.472656,-1.07813 2.472656,-2.28516 0,-1.10156 -0.890625,-1.96875 -2.027344,-2.16797 1.03125,-0.30468 1.699219,-1.17187 1.699219,-2.10937 0,-0.9375 -0.972656,-1.62891 -2.132812,-1.62891 -1.195313,0 -2.085938,0.72656 -2.085938,1.59375 0,0.48047 0.375,0.57422 0.550781,0.57422 0.257813,0 0.539063,-0.17578 0.539063,-0.53906 0,-0.375 -0.28125,-0.53906 -0.550781,-0.53906 -0.07031,0 -0.09375,0 -0.128907,0.0117 0.457032,-0.82031 1.582032,-0.82031 1.640625,-0.82031 0.386719,0 1.171875,0.17578 1.171875,1.34766 0,0.23437 -0.03516,0.90234 -0.386718,1.41797 -0.351563,0.52734 -0.761719,0.5625 -1.089844,0.57422 z m 7.095704,-3.375 c 0,-0.26953 0,-0.28125 -0.246094,-0.28125 -0.28125,0.31641 -0.878906,0.76172 -2.109375,0.76172 v 0.35156 c 0.269531,0 0.867187,0 1.523437,-0.3164 v 6.22265 c 0,0.4336 -0.03516,0.57422 -1.078125,0.57422 h -0.375 v 0.35156 c 0.316407,-0.0234 1.476563,-0.0234 1.875,-0.0234 0.398438,0 1.546875,0 1.863282,0.0234 v -0.35156 h -0.363282 c -1.054687,0 -1.089843,-0.14062 -1.089843,-0.57422 z m 0,0"
         style="fill:#000000;fill-opacity:1;fill-rule:nonzero;stroke:none" />
      <path
         id="path3"
         d="m 191.37497,130.14624 c 0,-0.26953 0,-0.28125 -0.24609,-0.28125 -0.28125,0.31641 -0.87891,0.76172 -2.10938,0.76172 v 0.35156 c 0.26953,0 0.86719,0 1.52344,-0.3164 v 6.22265 c 0,0.4336 -0.0352,0.57422 -1.07813,0.57422 h -0.375 v 0.35156 c 0.31641,-0.0234 1.47657,-0.0234 1.875,-0.0234 0.39844,0 1.54688,0 1.86328,0.0234 v -0.35156 h -0.36328 c -1.05468,0 -1.08984,-0.14062 -1.08984,-0.57422 z m 4.61133,3.375 c -0.21094,0.0117 -0.25782,0.0234 -0.25782,0.12891 0,0.11719 0.0586,0.11719 0.28125,0.11719 h 0.55079 c 1.00781,0 1.46484,0.84375 1.46484,1.99218 0,1.5586 -0.80859,1.98047 -1.39453,1.98047 -0.57422,0 -1.5586,-0.28125 -1.89844,-1.0664 0.375,0.0586 0.72656,-0.15235 0.72656,-0.58594 0,-0.33985 -0.25781,-0.58594 -0.58593,-0.58594 -0.29297,0 -0.59766,0.16406 -0.59766,0.62109 0,1.06641 1.06641,1.9336 2.39062,1.9336 1.41797,0 2.47266,-1.07813 2.47266,-2.28516 0,-1.10156 -0.89062,-1.96875 -2.02734,-2.16797 1.03125,-0.30468 1.69922,-1.17187 1.69922,-2.10937 0,-0.9375 -0.97266,-1.62891 -2.13282,-1.62891 -1.19531,0 -2.08593,0.72656 -2.08593,1.59375 0,0.48047 0.375,0.57422 0.55078,0.57422 0.25781,0 0.53906,-0.17578 0.53906,-0.53906 0,-0.375 -0.28125,-0.53906 -0.55078,-0.53906 -0.0703,0 -0.0937,0 -0.12891,0.0117 0.45703,-0.82031 1.58203,-0.82031 1.64063,-0.82031 0.38672,0 1.17187,0.17578 1.17187,1.34766 0,0.23437 -0.0352,0.90234 -0.38672,1.41797 -0.35156,0.52734 -0.76172,0.5625 -1.08984,0.57422 z m 0,0"
         style="fill:#000000;fill-opacity:1;fill-rule:nonzero;stroke:none" />
      <path
         id="path4"
         d="m 259.33493,192.81226 c 0.50391,0.16406 0.92578,0.17578 1.05469,0.17578 1.35937,0 2.21484,-0.99609 2.21484,-1.16016 0,-0.0469 -0.0234,-0.10547 -0.0937,-0.10547 -0.0234,0 -0.0469,0 -0.15234,0.0469 -0.66797,0.28125 -1.24219,0.31641 -1.5586,0.31641 -0.78515,0 -1.34765,-0.23438 -1.58203,-0.32813 -0.082,-0.0352 -0.10547,-0.0352 -0.11719,-0.0352 -0.0937,0 -0.0937,0.0703 -0.0937,0.25782 v 3.55078 c 0,0.21094 0,0.29297 0.14063,0.29297 0.0586,0 0.0703,-0.0117 0.19922,-0.16407 0.32812,-0.49218 0.89062,-0.77343 1.48828,-0.77343 0.63281,0 0.94922,0.58593 1.04297,0.78515 0.19922,0.46875 0.21094,1.05469 0.21094,1.51172 0,0.45703 0,1.13672 -0.32813,1.67578 -0.26953,0.42188 -0.73828,0.72657 -1.25391,0.72657 -0.79687,0 -1.57031,-0.53907 -1.78125,-1.40625 0.0586,0.0234 0.12891,0.0351 0.1875,0.0351 0.19922,0 0.52735,-0.1289 0.52735,-0.52734 0,-0.33985 -0.23438,-0.52735 -0.52735,-0.52735 -0.21093,0 -0.52734,0.10547 -0.52734,0.57422 0,1.00782 0.80859,2.16797 2.14453,2.16797 1.34766,0 2.53125,-1.125 2.53125,-2.64844 0,-1.41796 -0.96094,-2.60156 -2.21484,-2.60156 -0.67969,0 -1.20703,0.29297 -1.51172,0.63281 z m 10.01074,2.26172 c 0,-0.31641 -0.28125,-0.57422 -0.57422,-0.57422 -0.35156,0 -0.58593,0.28125 -0.58593,0.57422 0,0.36328 0.29296,0.58593 0.57421,0.58593 0.31641,0 0.58594,-0.24609 0.58594,-0.58593 z m 0,3.99609 c 0,-0.32812 -0.28125,-0.57422 -0.57422,-0.57422 -0.35156,0 -0.58593,0.28125 -0.58593,0.57422 0,0.36328 0.29296,0.58594 0.57421,0.58594 0.31641,0 0.58594,-0.2461 0.58594,-0.58594 z m 8.85352,-7.19531 c 0,-0.22266 0,-0.29297 -0.16406,-0.29297 -0.0937,0 -0.12891,0 -0.22266,0.15234 l -3.59766,5.57813 v 0.35156 h 3.14063 v 1.07813 c 0,0.44531 -0.0234,0.5625 -0.90235,0.5625 h -0.23437 v 0.35156 c 0.26953,-0.0234 1.21875,-0.0234 1.55859,-0.0234 0.32813,0 1.28907,0 1.5586,0.0234 v -0.35156 h -0.23438 c -0.86719,0 -0.90234,-0.11719 -0.90234,-0.5625 v -1.07813 h 1.20703 v -0.35156 h -1.20703 z m -0.78516,0.9375 v 4.5 h -2.90625 z m 0,0"
         style="fill:#000000;fill-opacity:1;fill-rule:nonzero;stroke:none" />
      <path
         id="path5"
         d="m 206.66501,254.08081 v -0.28125 h -2.88281 c -1.45313,0 -1.47657,-0.15234 -1.52344,-0.38672 h -0.25781 l -0.375,2.39063 h 0.26953 c 0.0352,-0.21094 0.14062,-0.94922 0.29297,-1.07813 0.0937,-0.0703 0.99609,-0.0703 1.16015,-0.0703 h 2.53125 l -1.26562,1.81641 c -0.31641,0.45703 -1.52344,2.42578 -1.52344,4.66406 0,0.14063 0,0.60938 0.48047,0.60938 0.5039,0 0.5039,-0.45704 0.5039,-0.6211 v -0.59765 c 0,-1.78125 0.29297,-3.16407 0.85547,-3.96094 z m 0,0"
         style="fill:#000000;fill-opacity:1;fill-rule:nonzero;stroke:none" />
      <path
         id="path6"
         d="m -136.26077,273.10034 c -0.21094,0.0117 -0.25782,0.0234 -0.25782,0.12891 0,0.11719 0.0586,0.11719 0.28125,0.11719 h 0.55079 c 1.00781,0 1.46484,0.84375 1.46484,1.99219 0,1.55859 -0.80859,1.98046 -1.39453,1.98046 -0.57422,0 -1.5586,-0.28125 -1.89844,-1.0664 0.375,0.0586 0.72656,-0.15235 0.72656,-0.58594 0,-0.33984 -0.25781,-0.58594 -0.58593,-0.58594 -0.29297,0 -0.59766,0.16407 -0.59766,0.6211 0,1.0664 1.06641,1.93359 2.39062,1.93359 1.41797,0 2.47266,-1.07812 2.47266,-2.28516 0,-1.10156 -0.89062,-1.96875 -2.02734,-2.16796 1.03125,-0.30469 1.69922,-1.17188 1.69922,-2.10938 0,-0.9375 -0.97266,-1.62891 -2.13282,-1.62891 -1.19531,0 -2.08593,0.72657 -2.08593,1.59375 0,0.48047 0.375,0.57422 0.55078,0.57422 0.25781,0 0.53906,-0.17578 0.53906,-0.53906 0,-0.375 -0.28125,-0.53906 -0.55078,-0.53906 -0.0703,0 -0.0937,0 -0.12891,0.0117 0.45703,-0.82032 1.58203,-0.82032 1.64063,-0.82032 0.38672,0 1.17187,0.17579 1.17187,1.34766 0,0.23438 -0.0352,0.90234 -0.38672,1.41797 -0.35156,0.52734 -0.76172,0.5625 -1.08984,0.57422 z m 7.0957,-3.375 c 0,-0.26953 0,-0.28125 -0.24609,-0.28125 -0.28125,0.31641 -0.87891,0.76172 -2.10938,0.76172 v 0.35157 c 0.26953,0 0.86719,0 1.52344,-0.31641 v 6.22266 c 0,0.43359 -0.0352,0.57421 -1.07813,0.57421 h -0.375 v 0.35157 c 0.31641,-0.0234 1.47657,-0.0234 1.875,-0.0234 0.39844,0 1.54688,0 1.86328,0.0234 v -0.35157 h -0.36328 c -1.05468,0 -1.08984,-0.14062 -1.08984,-0.57421 z m 5.85352,0 c 0,-0.26953 0,-0.28125 -0.2461,-0.28125 -0.28125,0.31641 -0.8789,0.76172 -2.10937,0.76172 v 0.35157 c 0.26953,0 0.86718,0 1.52343,-0.31641 v 6.22266 c 0,0.43359 -0.0352,0.57421 -1.07812,0.57421 h -0.375 v 0.35157 c 0.31641,-0.0234 1.47656,-0.0234 1.875,-0.0234 0.39844,0 1.54687,0 1.86328,0.0234 v -0.35157 h -0.36328 c -1.05469,0 -1.08984,-0.14062 -1.08984,-0.57421 z m 3.94335,0.82032 c 0.50391,0.16406 0.92579,0.17578 1.05469,0.17578 1.35938,0 2.21485,-0.9961 2.21485,-1.16016 0,-0.0469 -0.0234,-0.10547 -0.0937,-0.10547 -0.0234,0 -0.0469,0 -0.15235,0.0469 -0.66797,0.28125 -1.24219,0.3164 -1.55859,0.3164 -0.78516,0 -1.34766,-0.23437 -1.58203,-0.32812 -0.082,-0.0352 -0.10547,-0.0352 -0.11719,-0.0352 -0.0937,0 -0.0937,0.0703 -0.0937,0.25782 v 3.55078 c 0,0.21093 0,0.29297 0.14062,0.29297 0.0586,0 0.0703,-0.0117 0.19922,-0.16407 0.32813,-0.49218 0.89063,-0.77343 1.48828,-0.77343 0.63282,0 0.94922,0.58593 1.04297,0.78515 0.19922,0.46875 0.21094,1.05469 0.21094,1.51172 0,0.45703 0,1.13672 -0.32812,1.67578 -0.26954,0.42188 -0.73829,0.72656 -1.25391,0.72656 -0.79688,0 -1.57031,-0.53906 -1.78125,-1.40625 0.0586,0.0234 0.12891,0.0352 0.1875,0.0352 0.19922,0 0.52734,-0.12891 0.52734,-0.52734 0,-0.33985 -0.23437,-0.52735 -0.52734,-0.52735 -0.21094,0 -0.52734,0.10547 -0.52734,0.57422 0,1.00781 0.80859,2.16797 2.14453,2.16797 1.34765,0 2.53125,-1.125 2.53125,-2.64844 0,-1.41797 -0.96094,-2.60156 -2.21485,-2.60156 -0.67968,0 -1.20703,0.29297 -1.51172,0.63281 z m 5.78321,2.68359 c 0,-3.02344 1.47656,-3.50391 2.12109,-3.50391 0.4336,0 0.85547,0.12891 1.08985,0.49219 -0.14063,0 -0.59766,0 -0.59766,0.49219 0,0.25781 0.17578,0.49219 0.49219,0.49219 0.29297,0 0.49218,-0.1875 0.49218,-0.52735 0,-0.62109 -0.44531,-1.23047 -1.48828,-1.23047 -1.51172,0 -3.08203,1.53516 -3.08203,4.17188 0,3.28125 1.42969,4.01953 2.44922,4.01953 1.30078,0 2.41406,-1.125 2.41406,-2.68359 0,-1.59375 -1.11328,-2.66016 -2.30859,-2.66016 -1.06641,0 -1.45313,0.92578 -1.58203,1.26563 z m 1.47656,4.08984 c -0.75,0 -1.11328,-0.66796 -1.21875,-0.92578 -0.10547,-0.30468 -0.22266,-0.89062 -0.22266,-1.73437 0,-0.9375 0.42188,-2.1211 1.5,-2.1211 0.65625,0 1.00782,0.44532 1.1836,0.84375 0.1875,0.44532 0.1875,1.04297 0.1875,1.5586 0,0.60937 0,1.14844 -0.22266,1.60547 -0.30469,0.57422 -0.72656,0.77343 -1.20703,0.77343 z m 0,0"
         style="fill:#000000;fill-opacity:1;fill-rule:nonzero;stroke:none" />
      <path
         id="path7"
         d="m 104.20212,321.92652 c -0.0586,0.19921 -0.0586,0.22265 -0.22266,0.44531 -0.26953,0.33984 -0.79687,0.85547 -1.35937,0.85547 -0.48047,0 -0.76172,-0.44532 -0.76172,-1.14844 0,-0.65625 0.375,-1.99219 0.59765,-2.49609 0.41016,-0.84375 0.97266,-1.26563 1.44141,-1.26563 0.78516,0 0.9375,0.97266 0.9375,1.06641 0,0.0117 -0.0352,0.17578 -0.0469,0.19922 z m 0.76172,-3.07032 c -0.12891,-0.30468 -0.44532,-0.78515 -1.06641,-0.78515 -1.35938,0 -2.8125,1.74609 -2.8125,3.51562 0,1.1836 0.69141,1.875 1.5,1.875 0.65625,0 1.21875,-0.51562 1.55859,-0.90234 0.11719,0.70312 0.67969,0.90234 1.04297,0.90234 0.35156,0 0.64453,-0.21094 0.85547,-0.64453 0.1875,-0.41016 0.36328,-1.13672 0.36328,-1.18359 0,-0.0586 -0.0469,-0.10547 -0.11719,-0.10547 -0.11718,0 -0.1289,0.0586 -0.17578,0.23437 -0.17578,0.71485 -0.39843,1.46485 -0.89062,1.46485 -0.35156,0 -0.375,-0.31641 -0.375,-0.55078 0,-0.28125 0.0352,-0.41016 0.14062,-0.87891 0.082,-0.29297 0.15235,-0.5625 0.2461,-0.90234 0.43359,-1.79297 0.55078,-2.22657 0.55078,-2.29688 0,-0.16406 -0.14063,-0.29297 -0.31641,-0.29297 -0.375,0 -0.48047,0.41016 -0.5039,0.55078 z m 0,0"
         style="fill:#000000;fill-opacity:1;fill-rule:nonzero;stroke:none" />
      <path
         id="path8"
         d="m 116.66501,315.3523 c 0.0117,-0.0469 0.0352,-0.12891 0.0352,-0.1875 0,-0.11719 -0.1289,-0.11719 -0.15234,-0.11719 -0.0117,0 -0.43359,0.0352 -0.65625,0.0586 -0.19922,0.0117 -0.375,0.0352 -0.59766,0.0469 -0.28125,0.0234 -0.36328,0.0351 -0.36328,0.25781 0,0.11719 0.11719,0.11719 0.23438,0.11719 0.60937,0 0.60937,0.10547 0.60937,0.22265 0,0.082 -0.0937,0.4336 -0.14062,0.64454 l -0.29297,1.14843 c -0.11719,0.48047 -0.79688,3.19922 -0.84375,3.41016 -0.0586,0.29297 -0.0586,0.50391 -0.0586,0.65625 0,1.21875 0.67968,1.85156 1.45312,1.85156 1.39453,0 2.82422,-1.78125 2.82422,-3.51562 0,-1.10157 -0.62109,-1.875 -1.51172,-1.875 -0.63281,0 -1.18359,0.51562 -1.41797,0.75 z m -0.76172,7.875 c -0.375,0 -0.79688,-0.29297 -0.79688,-1.21875 0,-0.39844 0.0352,-0.6211 0.2461,-1.46485 0.0469,-0.15234 0.23437,-0.91406 0.28125,-1.0664 0.0234,-0.10547 0.72656,-1.16016 1.53515,-1.16016 0.52735,0 0.77344,0.51563 0.77344,1.13672 0,0.57422 -0.33984,1.93359 -0.63281,2.55469 -0.30469,0.64453 -0.85547,1.21875 -1.40625,1.21875 z m 0,0"
         style="fill:#000000;fill-opacity:1;fill-rule:nonzero;stroke:none" />
      <path
         id="path9"
         d="m 130.70407,318.84448 c -0.23437,0 -0.33984,0 -0.50391,0.15235 -0.0703,0.0586 -0.19921,0.23437 -0.19921,0.42187 0,0.2461 0.17578,0.38672 0.39843,0.38672 0.29297,0 0.60938,-0.23437 0.60938,-0.71484 0,-0.57422 -0.55078,-1.01953 -1.3711,-1.01953 -1.57031,0 -3.1289,1.71093 -3.1289,3.41015 0,1.04297 0.64453,1.98047 1.86328,1.98047 1.62891,0 2.64844,-1.26562 2.64844,-1.41797 0,-0.0703 -0.0703,-0.1289 -0.11719,-0.1289 -0.0352,0 -0.0469,0.0117 -0.15234,0.11718 -0.76172,1.00782 -1.89844,1.19532 -2.35547,1.19532 -0.82032,0 -1.08985,-0.71485 -1.08985,-1.3125 0,-0.42188 0.19922,-1.58203 0.63282,-2.39063 0.3164,-0.5625 0.96093,-1.20703 1.71093,-1.20703 0.15235,0 0.8086,0.0234 1.05469,0.52734 z m 0,0"
         style="fill:#000000;fill-opacity:1;fill-rule:nonzero;stroke:none" />
      <path
         id="path10"
         d="M 33.104461,349.18726 H 32.83493 c -0.03516,0.19922 -0.128907,0.85547 -0.246094,1.04297 -0.08203,0.11718 -0.761719,0.11718 -1.125,0.11718 h -2.214844 c 0.328125,-0.28125 1.054688,-1.04296 1.371094,-1.33593 1.816406,-1.66407 2.484375,-2.28516 2.484375,-3.46875 0,-1.38282 -1.089844,-2.29688 -2.472656,-2.29688 -1.394532,0 -2.203125,1.1836 -2.203125,2.20313 0,0.60937 0.527343,0.60937 0.5625,0.60937 0.246093,0 0.5625,-0.17578 0.5625,-0.5625 0,-0.32812 -0.234375,-0.55078 -0.5625,-0.55078 -0.105469,0 -0.128907,0 -0.164063,0.0117 0.222656,-0.82031 0.867188,-1.37109 1.640625,-1.37109 1.019531,0 1.640625,0.85546 1.640625,1.95703 0,1.00781 -0.585937,1.89843 -1.265625,2.66015 l -2.414062,2.70703 v 0.28125 h 4.359375 z m 0,0"
         style="fill:#000000;fill-opacity:1;fill-rule:nonzero;stroke:none" />
      <path
         id="path11"
         d="m 37.293914,349.7732 c -0.05859,0.19921 -0.05859,0.22265 -0.222656,0.44531 -0.269531,0.33984 -0.796875,0.85547 -1.359375,0.85547 -0.480469,0 -0.761719,-0.44532 -0.761719,-1.14844 0,-0.65625 0.375,-1.99219 0.597656,-2.49609 0.410157,-0.84375 0.972657,-1.26563 1.441407,-1.26563 0.785156,0 0.9375,0.97266 0.9375,1.06641 0,0.0117 -0.03516,0.17578 -0.04687,0.19922 z m 0.761719,-3.07032 c -0.128906,-0.30468 -0.445313,-0.78515 -1.066406,-0.78515 -1.359375,0 -2.8125,1.74609 -2.8125,3.51562 0,1.1836 0.691406,1.875 1.5,1.875 0.65625,0 1.21875,-0.51562 1.558593,-0.90234 0.117188,0.70312 0.679688,0.90234 1.042969,0.90234 0.351563,0 0.644531,-0.21094 0.855469,-0.64453 0.1875,-0.41016 0.363281,-1.13672 0.363281,-1.18359 0,-0.0586 -0.04687,-0.10547 -0.117187,-0.10547 -0.117188,0 -0.128907,0.0586 -0.175782,0.23437 -0.175781,0.71485 -0.398437,1.46485 -0.890625,1.46485 -0.351562,0 -0.375,-0.31641 -0.375,-0.55078 0,-0.28125 0.03516,-0.41016 0.140625,-0.87891 0.08203,-0.29297 0.152344,-0.5625 0.246094,-0.90234 0.433594,-1.79297 0.550781,-2.22657 0.550781,-2.29688 0,-0.16406 -0.140625,-0.29297 -0.316406,-0.29297 -0.375,0 -0.480469,0.41016 -0.503906,0.55078 z m 0,0"
         style="fill:#000000;fill-opacity:1;fill-rule:nonzero;stroke:none" />
      <path
         id="path12"
         d="m 42.089813,344.62573 c 0.128906,-0.11718 0.457031,-0.375 0.585937,-0.49218 0.492188,-0.45703 0.960938,-0.89063 0.960938,-1.61719 0,-0.94922 -0.796875,-1.55859 -1.792969,-1.55859 -0.949219,0 -1.582031,0.72656 -1.582031,1.42968 0,0.39844 0.316406,0.44532 0.421875,0.44532 0.164062,0 0.410156,-0.11719 0.410156,-0.42188 0,-0.41016 -0.398438,-0.41016 -0.492188,-0.41016 0.234375,-0.58593 0.773438,-0.78515 1.160157,-0.78515 0.738281,0 1.125,0.63281 1.125,1.30078 0,0.83203 -0.585938,1.42969 -1.523438,2.40234 l -1.007812,1.03125 c -0.09375,0.0937 -0.09375,0.10547 -0.09375,0.30469 h 3.152343 l 0.222657,-1.42969 h -0.246094 c -0.02344,0.16407 -0.08203,0.5625 -0.175781,0.71485 -0.04687,0.0586 -0.65625,0.0586 -0.785157,0.0586 h -1.417968 z m 0,0"
         style="fill:#000000;fill-opacity:1;fill-rule:nonzero;stroke:none" />
      <path
         id="path13"
         d="m 51.998016,348.42554 h 3.304687 c 0.164063,0 0.375,0 0.375,-0.21094 0,-0.22265 -0.199219,-0.22265 -0.375,-0.22265 h -3.304687 v -3.30469 c 0,-0.16406 0,-0.38672 -0.210938,-0.38672 -0.234375,0 -0.234375,0.21094 -0.234375,0.38672 v 3.30469 h -3.292969 c -0.175781,0 -0.386718,0 -0.386718,0.21093 0,0.22266 0.199218,0.22266 0.386718,0.22266 h 3.292969 v 3.30469 c 0,0.16406 0,0.38672 0.222656,0.38672 0.222657,0 0.222657,-0.21094 0.222657,-0.38672 z m 0,0"
         style="fill:#000000;fill-opacity:1;fill-rule:nonzero;stroke:none" />
      <path
         id="path14"
         d="m 61.756805,343.19898 c 0.01172,-0.0469 0.03516,-0.12891 0.03516,-0.1875 0,-0.11719 -0.128906,-0.11719 -0.152344,-0.11719 -0.01172,0 -0.433594,0.0352 -0.65625,0.0586 -0.199219,0.0117 -0.375,0.0352 -0.597656,0.0469 -0.28125,0.0234 -0.363281,0.0352 -0.363281,0.25781 0,0.11719 0.117187,0.11719 0.234375,0.11719 0.609375,0 0.609375,0.10547 0.609375,0.22265 0,0.082 -0.09375,0.4336 -0.140625,0.64454 l -0.292969,1.14843 c -0.117188,0.48047 -0.796875,3.19922 -0.84375,3.41016 -0.05859,0.29297 -0.05859,0.50391 -0.05859,0.65625 0,1.21875 0.679688,1.85156 1.453125,1.85156 1.394531,0 2.824219,-1.78125 2.824219,-3.51562 0,-1.10157 -0.621094,-1.875 -1.511719,-1.875 -0.632812,0 -1.183594,0.51562 -1.417969,0.75 z m -0.761719,7.875 c -0.375,0 -0.796875,-0.29297 -0.796875,-1.21875 0,-0.39844 0.03516,-0.6211 0.246094,-1.46485 0.04687,-0.15234 0.234375,-0.91406 0.28125,-1.0664 0.02344,-0.10547 0.726562,-1.16016 1.535156,-1.16016 0.527344,0 0.773437,0.51563 0.773437,1.13672 0,0.57422 -0.339843,1.93359 -0.632812,2.55469 -0.304688,0.64453 -0.855469,1.21875 -1.40625,1.21875 z m 0,0"
         style="fill:#000000;fill-opacity:1;fill-rule:nonzero;stroke:none" />
      <path
         id="path15"
         d="m 66.215789,344.62573 c 0.128906,-0.11718 0.457031,-0.375 0.585938,-0.49218 0.492187,-0.45703 0.960937,-0.89063 0.960937,-1.61719 0,-0.94922 -0.796875,-1.55859 -1.792969,-1.55859 -0.949218,0 -1.582031,0.72656 -1.582031,1.42968 0,0.39844 0.316406,0.44532 0.421875,0.44532 0.164063,0 0.410156,-0.11719 0.410156,-0.42188 0,-0.41016 -0.398437,-0.41016 -0.492187,-0.41016 0.234375,-0.58593 0.773437,-0.78515 1.160156,-0.78515 0.738281,0 1.125,0.63281 1.125,1.30078 0,0.83203 -0.585937,1.42969 -1.523437,2.40234 l -1.007813,1.03125 c -0.09375,0.0937 -0.09375,0.10547 -0.09375,0.30469 h 3.152344 l 0.222656,-1.42969 H 67.51657 c -0.02344,0.16407 -0.08203,0.5625 -0.175781,0.71485 -0.04687,0.0586 -0.65625,0.0586 -0.785156,0.0586 h -1.417969 z m 0,0"
         style="fill:#000000;fill-opacity:1;fill-rule:nonzero;stroke:none" />
      <path
         id="path16"
         d="m 76.126922,348.42554 h 3.304687 c 0.164063,0 0.375,0 0.375,-0.21094 0,-0.22265 -0.199218,-0.22265 -0.375,-0.22265 h -3.304687 v -3.30469 c 0,-0.16406 0,-0.38672 -0.210938,-0.38672 -0.234375,0 -0.234375,0.21094 -0.234375,0.38672 v 3.30469 h -3.292968 c -0.175782,0 -0.386719,0 -0.386719,0.21093 0,0.22266 0.199219,0.22266 0.386719,0.22266 h 3.292968 v 3.30469 c 0,0.16406 0,0.38672 0.222657,0.38672 0.222656,0 0.222656,-0.21094 0.222656,-0.38672 z m 0,0"
         style="fill:#000000;fill-opacity:1;fill-rule:nonzero;stroke:none" />
      <path
         id="path17"
         d="m 87.792938,346.69116 c -0.234375,0 -0.339844,0 -0.503907,0.15235 -0.07031,0.0586 -0.199218,0.23437 -0.199218,0.42187 0,0.2461 0.175781,0.38672 0.398437,0.38672 0.292969,0 0.609375,-0.23437 0.609375,-0.71484 0,-0.57422 -0.550781,-1.01953 -1.371094,-1.01953 -1.570312,0 -3.128906,1.71093 -3.128906,3.41015 0,1.04297 0.644531,1.98047 1.863281,1.98047 1.628907,0 2.648438,-1.26562 2.648438,-1.41797 0,-0.0703 -0.07031,-0.1289 -0.117188,-0.1289 -0.03516,0 -0.04687,0.0117 -0.152343,0.11718 -0.761719,1.00782 -1.898438,1.19532 -2.355469,1.19532 -0.820313,0 -1.089844,-0.71485 -1.089844,-1.3125 0,-0.42188 0.199219,-1.58203 0.632813,-2.39063 0.316406,-0.5625 0.960937,-1.20703 1.710937,-1.20703 0.152344,0 0.808594,0.0234 1.054688,0.52734 z m 0,0"
         style="fill:#000000;fill-opacity:1;fill-rule:nonzero;stroke:none" />
      <path
         id="path18"
         d="m 90.406219,344.62573 c 0.128906,-0.11718 0.457031,-0.375 0.585937,-0.49218 0.492188,-0.45703 0.960938,-0.89063 0.960938,-1.61719 0,-0.94922 -0.796875,-1.55859 -1.792969,-1.55859 -0.949219,0 -1.582031,0.72656 -1.582031,1.42968 0,0.39844 0.316406,0.44532 0.421875,0.44532 0.164062,0 0.410156,-0.11719 0.410156,-0.42188 0,-0.41016 -0.398437,-0.41016 -0.492187,-0.41016 0.234375,-0.58593 0.773437,-0.78515 1.160156,-0.78515 0.738281,0 1.125,0.63281 1.125,1.30078 0,0.83203 -0.585938,1.42969 -1.523438,2.40234 l -1.007812,1.03125 c -0.09375,0.0937 -0.09375,0.10547 -0.09375,0.30469 h 3.152344 l 0.222656,-1.42969 H 91.707 c -0.02344,0.16407 -0.08203,0.5625 -0.175781,0.71485 -0.04687,0.0586 -0.65625,0.0586 -0.785156,0.0586 h -1.417969 z m 0,0"
         style="fill:#000000;fill-opacity:1;fill-rule:nonzero;stroke:none" />
      <path
         id="path19"
         d="m 104.26071,347.32398 c 0.19922,-0.0937 0.24609,-0.17578 0.24609,-0.26953 0,-0.15235 -0.082,-0.1875 -0.24609,-0.25782 l -6.585937,-3.1289 c -0.164062,-0.082 -0.210937,-0.082 -0.234375,-0.082 -0.128906,0 -0.234375,0.10546 -0.234375,0.24609 0,0.15234 0.09375,0.1875 0.234375,0.25781 l 6.269532,2.95313 -6.28125,2.96484 c -0.175782,0.082 -0.222657,0.15234 -0.222657,0.25781 0,0.14063 0.105469,0.2461 0.234375,0.2461 0.03516,0 0.05859,0 0.210938,-0.082 z m 0,2.30859 c 0.19922,-0.082 0.24609,-0.16406 0.24609,-0.25781 0,-0.23438 -0.22265,-0.23438 -0.3164,-0.23438 l -6.76172,3.1875 c -0.117188,0.0586 -0.222657,0.12891 -0.222657,0.25782 0,0.14062 0.105469,0.24609 0.234375,0.24609 0.03516,0 0.05859,0 0.210938,-0.082 z m 0,0"
         style="fill:#000000;fill-opacity:1;fill-rule:nonzero;stroke:none" />
      <path
         id="path20"
         d="m 114.08981,349.18726 h -0.26953 c -0.0352,0.19922 -0.1289,0.85547 -0.24609,1.04297 -0.082,0.11718 -0.76172,0.11718 -1.125,0.11718 h -2.21485 c 0.32813,-0.28125 1.05469,-1.04296 1.3711,-1.33593 1.8164,-1.66407 2.48437,-2.28516 2.48437,-3.46875 0,-1.38282 -1.08984,-2.29688 -2.47265,-2.29688 -1.39453,0 -2.20313,1.1836 -2.20313,2.20313 0,0.60937 0.52735,0.60937 0.5625,0.60937 0.2461,0 0.5625,-0.17578 0.5625,-0.5625 0,-0.32812 -0.23437,-0.55078 -0.5625,-0.55078 -0.10547,0 -0.1289,0 -0.16406,0.0117 0.22266,-0.82031 0.86719,-1.37109 1.64062,-1.37109 1.01954,0 1.64063,0.85546 1.64063,1.95703 0,1.00781 -0.58594,1.89843 -1.26563,2.66015 l -2.41406,2.70703 v 0.28125 h 4.35938 z m 0,0"
         style="fill:#000000;fill-opacity:1;fill-rule:nonzero;stroke:none" />
      <path
         id="path21"
         d="m 118.27927,349.7732 c -0.0586,0.19921 -0.0586,0.22265 -0.22266,0.44531 -0.26953,0.33984 -0.79688,0.85547 -1.35938,0.85547 -0.48046,0 -0.76171,-0.44532 -0.76171,-1.14844 0,-0.65625 0.375,-1.99219 0.59765,-2.49609 0.41016,-0.84375 0.97266,-1.26563 1.44141,-1.26563 0.78515,0 0.9375,0.97266 0.9375,1.06641 0,0.0117 -0.0352,0.17578 -0.0469,0.19922 z m 0.76171,-3.07032 c -0.1289,-0.30468 -0.44531,-0.78515 -1.0664,-0.78515 -1.35938,0 -2.8125,1.74609 -2.8125,3.51562 0,1.1836 0.6914,1.875 1.5,1.875 0.65625,0 1.21875,-0.51562 1.55859,-0.90234 0.11719,0.70312 0.67969,0.90234 1.04297,0.90234 0.35156,0 0.64453,-0.21094 0.85547,-0.64453 0.1875,-0.41016 0.36328,-1.13672 0.36328,-1.18359 0,-0.0586 -0.0469,-0.10547 -0.11719,-0.10547 -0.11718,0 -0.1289,0.0586 -0.17578,0.23437 -0.17578,0.71485 -0.39844,1.46485 -0.89062,1.46485 -0.35157,0 -0.375,-0.31641 -0.375,-0.55078 0,-0.28125 0.0352,-0.41016 0.14062,-0.87891 0.082,-0.29297 0.15235,-0.5625 0.2461,-0.90234 0.43359,-1.79297 0.55078,-2.22657 0.55078,-2.29688 0,-0.16406 -0.14063,-0.29297 -0.31641,-0.29297 -0.375,0 -0.48047,0.41016 -0.50391,0.55078 z m 0,0"
         style="fill:#000000;fill-opacity:1;fill-rule:nonzero;stroke:none" />
      <path
         id="path22"
         d="m 124.71579,354.09741 c 0,-0.0352 0,-0.0586 -0.21094,-0.26953 -1.19531,-1.20703 -1.86328,-3.17578 -1.86328,-5.61328 0,-2.32031 0.5625,-4.3125 1.94531,-5.73047 0.12891,-0.10547 0.12891,-0.1289 0.12891,-0.16406 0,-0.0703 -0.0703,-0.0937 -0.11719,-0.0937 -0.15234,0 -1.13672,0.85547 -1.72265,2.02734 -0.60938,1.20704 -0.87891,2.4961 -0.87891,3.96094 0,1.06641 0.16406,2.48438 0.78516,3.76172 0.70312,1.44141 1.6875,2.21484 1.8164,2.21484 0.0469,0 0.11719,-0.0234 0.11719,-0.0937 z m 0,0"
         style="fill:#000000;fill-opacity:1;fill-rule:nonzero;stroke:none" />
      <path
         id="path23"
         d="m 128.14352,343.19898 c 0.0117,-0.0469 0.0352,-0.12891 0.0352,-0.1875 0,-0.11719 -0.12891,-0.11719 -0.15234,-0.11719 -0.0117,0 -0.4336,0.0352 -0.65625,0.0586 -0.19922,0.0117 -0.375,0.0352 -0.59766,0.0469 -0.28125,0.0234 -0.36328,0.0352 -0.36328,0.25781 0,0.11719 0.11719,0.11719 0.23437,0.11719 0.60938,0 0.60938,0.10547 0.60938,0.22265 0,0.082 -0.0937,0.4336 -0.14063,0.64454 l -0.29297,1.14843 c -0.11718,0.48047 -0.79687,3.19922 -0.84375,3.41016 -0.0586,0.29297 -0.0586,0.50391 -0.0586,0.65625 0,1.21875 0.67969,1.85156 1.45313,1.85156 1.39453,0 2.82421,-1.78125 2.82421,-3.51562 0,-1.10157 -0.62109,-1.875 -1.51171,-1.875 -0.63282,0 -1.1836,0.51562 -1.41797,0.75 z m -0.76172,7.875 c -0.375,0 -0.79687,-0.29297 -0.79687,-1.21875 0,-0.39844 0.0352,-0.6211 0.24609,-1.46485 0.0469,-0.15234 0.23438,-0.91406 0.28125,-1.0664 0.0234,-0.10547 0.72657,-1.16016 1.53516,-1.16016 0.52734,0 0.77344,0.51563 0.77344,1.13672 0,0.57422 -0.33985,1.93359 -0.63282,2.55469 -0.30468,0.64453 -0.85546,1.21875 -1.40625,1.21875 z m 0,0"
         style="fill:#000000;fill-opacity:1;fill-rule:nonzero;stroke:none" />
      <path
         id="path24"
         d="m 137.7822,348.42554 h 3.30468 c 0.16407,0 0.375,0 0.375,-0.21094 0,-0.22265 -0.19922,-0.22265 -0.375,-0.22265 h -3.30468 v -3.30469 c 0,-0.16406 0,-0.38672 -0.21094,-0.38672 -0.23438,0 -0.23438,0.21094 -0.23438,0.38672 v 3.30469 h -3.29297 c -0.17578,0 -0.38671,0 -0.38671,0.21093 0,0.22266 0.19921,0.22266 0.38671,0.22266 h 3.29297 v 3.30469 c 0,0.16406 0,0.38672 0.22266,0.38672 0.22266,0 0.22266,-0.21094 0.22266,-0.38672 z m 0,0"
         style="fill:#000000;fill-opacity:1;fill-rule:nonzero;stroke:none" />
      <path
         id="path25"
         d="m 149.44821,346.69116 c -0.23437,0 -0.33984,0 -0.50391,0.15235 -0.0703,0.0586 -0.19921,0.23437 -0.19921,0.42187 0,0.2461 0.17578,0.38672 0.39843,0.38672 0.29297,0 0.60938,-0.23437 0.60938,-0.71484 0,-0.57422 -0.55078,-1.01953 -1.3711,-1.01953 -1.57031,0 -3.1289,1.71093 -3.1289,3.41015 0,1.04297 0.64453,1.98047 1.86328,1.98047 1.62891,0 2.64844,-1.26562 2.64844,-1.41797 0,-0.0703 -0.0703,-0.1289 -0.11719,-0.1289 -0.0352,0 -0.0469,0.0117 -0.15234,0.11718 -0.76172,1.00782 -1.89844,1.19532 -2.35547,1.19532 -0.82032,0 -1.08985,-0.71485 -1.08985,-1.3125 0,-0.42188 0.19922,-1.58203 0.63282,-2.39063 0.3164,-0.5625 0.96093,-1.20703 1.71093,-1.20703 0.15235,0 0.8086,0.0234 1.05469,0.52734 z m 0,0"
         style="fill:#000000;fill-opacity:1;fill-rule:nonzero;stroke:none" />
      <path
         id="path26"
         d="m 153.18649,348.2146 c 0,-0.91406 -0.1289,-2.39062 -0.79687,-3.77344 -0.70313,-1.4414 -1.67578,-2.21484 -1.81641,-2.21484 -0.0469,0 -0.10547,0.0234 -0.10547,0.0937 0,0.0352 0,0.0586 0.19922,0.26953 1.19531,1.20703 1.875,3.17578 1.875,5.61328 0,2.32032 -0.5625,4.3125 -1.95703,5.73047 -0.11719,0.10547 -0.11719,0.12891 -0.11719,0.16406 0,0.0703 0.0586,0.0937 0.10547,0.0937 0.16406,0 1.13672,-0.85546 1.72266,-2.02734 0.60937,-1.21875 0.89062,-2.51953 0.89062,-3.94922 z m 0,0"
         style="fill:#000000;fill-opacity:1;fill-rule:nonzero;stroke:none" />
      <path
         id="path27"
         d="m 156.56735,350.61695 c 0,-0.35157 -0.29297,-0.58594 -0.57422,-0.58594 -0.35156,0 -0.58593,0.29297 -0.58593,0.57422 0,0.35156 0.28125,0.58593 0.57421,0.58593 0.33985,0 0.58594,-0.28125 0.58594,-0.57421 z m 0,0"
         style="fill:#000000;fill-opacity:1;fill-rule:nonzero;stroke:none" />
      <path
         id="path28"
         d="m 148.37009,392.92163 h -0.26954 c -0.0351,0.19922 -0.1289,0.85547 -0.24609,1.04297 -0.082,0.11719 -0.76172,0.11719 -1.125,0.11719 h -2.21484 c 0.32812,-0.28125 1.05468,-1.04297 1.37109,-1.33594 1.81641,-1.66406 2.48438,-2.28515 2.48438,-3.46875 0,-1.38281 -1.08985,-2.29687 -2.47266,-2.29687 -1.39453,0 -2.20313,1.18359 -2.20313,2.20312 0,0.60938 0.52735,0.60938 0.5625,0.60938 0.2461,0 0.5625,-0.17578 0.5625,-0.5625 0,-0.32813 -0.23437,-0.55078 -0.5625,-0.55078 -0.10546,0 -0.1289,0 -0.16406,0.0117 0.22266,-0.82031 0.86719,-1.37109 1.64063,-1.37109 1.01953,0 1.64062,0.85547 1.64062,1.95703 0,1.00781 -0.58594,1.89844 -1.26562,2.66016 l -2.41407,2.70703 v 0.28125 h 4.35938 z m 4.15429,-2.30859 c 0.59766,-0.32813 1.46485,-0.87891 1.46485,-1.875 0,-1.04297 -0.9961,-1.75781 -2.09766,-1.75781 -1.18359,0 -2.12109,0.86718 -2.12109,1.95703 0,0.41015 0.1289,0.80859 0.45703,1.21875 0.1289,0.15234 0.14062,0.16406 0.98437,0.75 -1.16015,0.53906 -1.75781,1.34765 -1.75781,2.21484 0,1.26563 1.20703,2.05078 2.42578,2.05078 1.32422,0 2.4375,-0.97265 2.4375,-2.22656 0,-1.21875 -0.85547,-1.75781 -1.79297,-2.33203 z m -1.6289,-1.07813 c -0.15235,-0.10546 -0.63282,-0.42187 -0.63282,-1.00781 0,-0.77344 0.82032,-1.26562 1.61719,-1.26562 0.85547,0 1.62891,0.62109 1.62891,1.48828 0,0.72656 -0.52735,1.3125 -1.21875,1.6875 z m 0.5625,1.54688 1.45312,0.9375 c 0.30469,0.19922 0.85547,0.57422 0.85547,1.30078 0,0.91406 -0.91406,1.53516 -1.875,1.53516 -1.01953,0 -1.88672,-0.73828 -1.88672,-1.73438 0,-0.9375 0.67969,-1.6875 1.45313,-2.03906 z m 0,0"
         style="fill:#000000;fill-opacity:1;fill-rule:nonzero;stroke:none" />
      <path
         id="path29"
         d="m -42.302766,403.1521 c 0,-0.26953 0,-0.28125 -0.246093,-0.28125 -0.28125,0.31641 -0.878907,0.76172 -2.109375,0.76172 v 0.35156 c 0.269531,0 0.867187,0 1.523437,-0.3164 v 6.22265 c 0,0.4336 -0.03516,0.57422 -1.078125,0.57422 h -0.375 v 0.35156 c 0.316406,-0.0234 1.476563,-0.0234 1.875,-0.0234 0.398438,0 1.546875,0 1.863281,0.0234 v -0.35156 h -0.363281 c -1.054687,0 -1.089844,-0.14062 -1.089844,-0.57422 z m 3.94336,0.82031 c 0.503906,0.16407 0.925781,0.17579 1.054687,0.17579 1.359375,0 2.214844,-0.9961 2.214844,-1.16016 0,-0.0469 -0.02344,-0.10547 -0.09375,-0.10547 -0.02344,0 -0.04687,0 -0.152344,0.0469 -0.667968,0.28125 -1.242187,0.3164 -1.558593,0.3164 -0.785157,0 -1.347657,-0.23437 -1.582032,-0.32812 -0.08203,-0.0352 -0.105468,-0.0352 -0.117187,-0.0352 -0.09375,0 -0.09375,0.0703 -0.09375,0.25781 v 3.55078 c 0,0.21094 0,0.29297 0.140625,0.29297 0.05859,0 0.07031,-0.0117 0.199219,-0.16406 0.328125,-0.49219 0.890625,-0.77344 1.488281,-0.77344 0.632812,0 0.949219,0.58594 1.042969,0.78516 0.199218,0.46875 0.210937,1.05469 0.210937,1.51172 0,0.45703 0,1.13672 -0.328125,1.67578 -0.269531,0.42187 -0.738281,0.72656 -1.253906,0.72656 -0.796875,0 -1.570313,-0.53906 -1.78125,-1.40625 0.05859,0.0234 0.128906,0.0352 0.1875,0.0352 0.199219,0 0.527344,-0.12891 0.527344,-0.52735 0,-0.33984 -0.234375,-0.52734 -0.527344,-0.52734 -0.210938,0 -0.527344,0.10547 -0.527344,0.57422 0,1.00781 0.808594,2.16797 2.144531,2.16797 1.347657,0 2.53125,-1.125 2.53125,-2.64844 0,-1.41797 -0.960937,-2.60156 -2.214843,-2.60156 -0.679688,0 -1.207032,0.29297 -1.511719,0.63281 z m 0,0"
         style="fill:#000000;fill-opacity:1;fill-rule:nonzero;stroke:none" />
    </g>
  </g>
</svg>
